<?xml version="1.0" encoding="UTF-8"?>
<svg xmlns="http://www.w3.org/2000/svg" xmlns:xlink="http://www.w3.org/1999/xlink" width="186pt" height="133pt" viewBox="0 0 186 133" version="1.1">
<g id="surface1">
<rect x="0" y="0" width="186" height="133" style="fill:rgb(100%,100%,100%);fill-opacity:1;stroke:none;"/>
<path style="fill:none;stroke-width:10;stroke-linecap:butt;stroke-linejoin:miter;stroke:rgb(0%,0%,0%);stroke-opacity:1;stroke-miterlimit:10;" d="M 1495.195312 1527.148438 L 1495.195312 -123.828125 " transform="matrix(0.1,0,0,-0.1,0,133)"/>
<path style="fill:none;stroke-width:10;stroke-linecap:butt;stroke-linejoin:miter;stroke:rgb(0%,0%,0%);stroke-opacity:1;stroke-miterlimit:10;" d="M -105.585938 653.359375 L 1929.0625 653.359375 " transform="matrix(0.1,0,0,-0.1,0,133)"/>
<path style=" stroke:none;fill-rule:nonzero;fill:rgb(0%,0%,0%);fill-opacity:1;" d="M 6.515625 71.582031 L 6.515625 71.347656 L 7.917969 71.347656 L 7.917969 71.582031 Z M 8.523438 72.527344 L 8.523438 72.222656 C 8.691406 72.289062 8.851562 72.324219 9.007812 72.324219 C 9.171875 72.324219 9.304688 72.277344 9.398438 72.175781 C 9.496094 72.078125 9.542969 71.941406 9.542969 71.769531 C 9.542969 71.386719 9.28125 71.199219 8.753906 71.199219 C 8.695312 71.199219 8.632812 71.203125 8.566406 71.210938 L 8.566406 69.972656 L 9.855469 69.972656 L 9.855469 70.269531 L 8.863281 70.269531 L 8.863281 70.9375 C 9.191406 70.9375 9.445312 71.011719 9.628906 71.164062 C 9.8125 71.3125 9.90625 71.519531 9.90625 71.785156 C 9.90625 72.035156 9.820312 72.226562 9.65625 72.367188 C 9.488281 72.507812 9.257812 72.578125 8.960938 72.578125 C 8.832031 72.578125 8.6875 72.5625 8.523438 72.527344 "/>
<path style="fill:none;stroke-width:10;stroke-linecap:butt;stroke-linejoin:miter;stroke:rgb(0%,0%,0%);stroke-opacity:1;stroke-miterlimit:10;" d="M 77.851562 653.359375 L 77.851562 639.257812 " transform="matrix(0.1,0,0,-0.1,0,133)"/>
<path style=" stroke:none;fill-rule:nonzero;fill:rgb(0%,0%,0%);fill-opacity:1;" d="M 34.679688 71.582031 L 34.679688 71.347656 L 36.078125 71.347656 L 36.078125 71.582031 Z M 37.582031 72.515625 L 37.582031 71.796875 L 36.4375 71.796875 L 36.4375 71.539062 L 37.582031 69.972656 L 37.902344 69.972656 L 37.902344 71.519531 L 38.242188 71.519531 L 38.242188 71.796875 L 37.902344 71.796875 L 37.902344 72.515625 Z M 36.769531 71.519531 L 37.605469 71.519531 L 37.605469 70.386719 "/>
<path style="fill:none;stroke-width:10;stroke-linecap:butt;stroke-linejoin:miter;stroke:rgb(0%,0%,0%);stroke-opacity:1;stroke-miterlimit:10;" d="M 361.328125 653.359375 L 361.328125 639.257812 " transform="matrix(0.1,0,0,-0.1,0,133)"/>
<path style=" stroke:none;fill-rule:nonzero;fill:rgb(0%,0%,0%);fill-opacity:1;" d="M 63.191406 71.582031 L 63.191406 71.347656 L 64.589844 71.347656 L 64.589844 71.582031 Z M 65.128906 72.496094 L 65.128906 72.179688 C 65.371094 72.277344 65.5625 72.324219 65.703125 72.324219 C 65.863281 72.324219 65.996094 72.277344 66.097656 72.183594 C 66.199219 72.089844 66.25 71.964844 66.25 71.816406 C 66.25 71.457031 66 71.28125 65.5 71.28125 L 65.363281 71.28125 L 65.363281 71.050781 L 65.484375 71.050781 C 65.953125 71.050781 66.1875 70.882812 66.1875 70.550781 C 66.1875 70.292969 66.03125 70.164062 65.722656 70.164062 C 65.554688 70.164062 65.367188 70.210938 65.164062 70.304688 L 65.164062 70.011719 C 65.363281 69.941406 65.558594 69.90625 65.746094 69.90625 C 66.269531 69.90625 66.527344 70.105469 66.527344 70.496094 C 66.527344 70.796875 66.351562 71.011719 65.996094 71.136719 C 66.40625 71.230469 66.613281 71.457031 66.613281 71.8125 C 66.613281 72.050781 66.53125 72.238281 66.375 72.375 C 66.21875 72.511719 66 72.578125 65.722656 72.578125 C 65.566406 72.578125 65.367188 72.550781 65.128906 72.496094 "/>
<path style="fill:none;stroke-width:10;stroke-linecap:butt;stroke-linejoin:miter;stroke:rgb(0%,0%,0%);stroke-opacity:1;stroke-miterlimit:10;" d="M 644.804688 653.359375 L 644.804688 639.257812 " transform="matrix(0.1,0,0,-0.1,0,133)"/>
<path style=" stroke:none;fill-rule:nonzero;fill:rgb(0%,0%,0%);fill-opacity:1;" d="M 91.351562 71.582031 L 91.351562 71.347656 L 92.753906 71.347656 L 92.753906 71.582031 Z M 93.226562 72.515625 L 93.226562 72.21875 C 93.324219 71.988281 93.523438 71.738281 93.824219 71.464844 L 94.019531 71.292969 C 94.265625 71.066406 94.390625 70.84375 94.390625 70.621094 C 94.390625 70.476562 94.347656 70.367188 94.265625 70.285156 C 94.179688 70.203125 94.0625 70.164062 93.914062 70.164062 C 93.734375 70.164062 93.527344 70.230469 93.289062 70.367188 L 93.289062 70.066406 C 93.515625 69.960938 93.738281 69.90625 93.960938 69.90625 C 94.199219 69.90625 94.390625 69.972656 94.535156 70.101562 C 94.679688 70.230469 94.75 70.398438 94.75 70.609375 C 94.75 70.765625 94.714844 70.898438 94.640625 71.015625 C 94.570312 71.136719 94.433594 71.277344 94.234375 71.445312 L 94.105469 71.558594 C 93.832031 71.789062 93.675781 72.007812 93.632812 72.21875 L 94.738281 72.21875 L 94.738281 72.515625 "/>
<path style="fill:none;stroke-width:10;stroke-linecap:butt;stroke-linejoin:miter;stroke:rgb(0%,0%,0%);stroke-opacity:1;stroke-miterlimit:10;" d="M 928.242188 653.359375 L 928.242188 639.257812 " transform="matrix(0.1,0,0,-0.1,0,133)"/>
<path style=" stroke:none;fill-rule:nonzero;fill:rgb(0%,0%,0%);fill-opacity:1;" d="M 119.867188 71.582031 L 119.867188 71.347656 L 121.265625 71.347656 L 121.265625 71.582031 Z M 121.976562 72.515625 L 121.976562 72.261719 L 122.484375 72.261719 L 122.484375 70.253906 L 121.976562 70.382812 L 121.976562 70.121094 L 122.824219 69.90625 L 122.824219 72.261719 L 123.335938 72.261719 L 123.335938 72.515625 "/>
<path style="fill:none;stroke-width:10;stroke-linecap:butt;stroke-linejoin:miter;stroke:rgb(0%,0%,0%);stroke-opacity:1;stroke-miterlimit:10;" d="M 1211.71875 653.359375 L 1211.71875 639.257812 " transform="matrix(0.1,0,0,-0.1,0,133)"/>
<path style=" stroke:none;fill-rule:nonzero;fill:rgb(0%,0%,0%);fill-opacity:1;" d="M 152.472656 72.578125 C 152.210938 72.578125 151.996094 72.457031 151.835938 72.210938 C 151.671875 71.960938 151.589844 71.640625 151.589844 71.242188 C 151.589844 70.839844 151.671875 70.519531 151.835938 70.273438 C 152 70.03125 152.214844 69.90625 152.480469 69.90625 C 152.75 69.90625 152.964844 70.03125 153.128906 70.273438 C 153.289062 70.519531 153.371094 70.839844 153.371094 71.238281 C 153.371094 71.644531 153.289062 71.96875 153.128906 72.214844 C 152.964844 72.457031 152.746094 72.578125 152.472656 72.578125 Z M 152.476562 72.324219 C 152.835938 72.324219 153.011719 71.960938 153.011719 71.230469 C 153.011719 70.519531 152.835938 70.164062 152.480469 70.164062 C 152.128906 70.164062 151.953125 70.523438 151.953125 71.242188 C 151.953125 71.964844 152.128906 72.324219 152.476562 72.324219 "/>
<path style="fill:none;stroke-width:10;stroke-linecap:butt;stroke-linejoin:miter;stroke:rgb(0%,0%,0%);stroke-opacity:1;stroke-miterlimit:10;" d="M 1495.195312 653.359375 L 1495.195312 639.257812 " transform="matrix(0.1,0,0,-0.1,0,133)"/>
<path style=" stroke:none;fill-rule:nonzero;fill:rgb(0%,0%,0%);fill-opacity:1;" d="M 177.59375 72.515625 L 177.59375 72.261719 L 178.105469 72.261719 L 178.105469 70.253906 L 177.59375 70.382812 L 177.59375 70.121094 L 178.445312 69.90625 L 178.445312 72.261719 L 178.953125 72.261719 L 178.953125 72.515625 "/>
<path style="fill:none;stroke-width:10;stroke-linecap:butt;stroke-linejoin:miter;stroke:rgb(0%,0%,0%);stroke-opacity:1;stroke-miterlimit:10;" d="M 1778.632812 653.359375 L 1778.632812 639.257812 " transform="matrix(0.1,0,0,-0.1,0,133)"/>
<path style=" stroke:none;fill-rule:nonzero;fill:rgb(0%,0%,0%);fill-opacity:1;" d="M 143.804688 124.738281 L 143.804688 124.503906 L 145.203125 124.503906 L 145.203125 124.738281 Z M 145.675781 125.671875 L 145.675781 125.375 C 145.773438 125.144531 145.972656 124.890625 146.273438 124.621094 L 146.46875 124.445312 C 146.71875 124.222656 146.84375 123.996094 146.84375 123.773438 C 146.84375 123.632812 146.800781 123.519531 146.714844 123.4375 C 146.628906 123.359375 146.511719 123.316406 146.363281 123.316406 C 146.1875 123.316406 145.980469 123.386719 145.738281 123.523438 L 145.738281 123.222656 C 145.964844 123.117188 146.1875 123.0625 146.410156 123.0625 C 146.648438 123.0625 146.839844 123.128906 146.984375 123.253906 C 147.128906 123.382812 147.203125 123.554688 147.203125 123.765625 C 147.203125 123.917969 147.164062 124.054688 147.09375 124.171875 C 147.019531 124.289062 146.886719 124.433594 146.6875 124.601562 L 146.554688 124.714844 C 146.285156 124.945312 146.128906 125.164062 146.085938 125.375 L 147.191406 125.375 L 147.191406 125.671875 "/>
<path style="fill:none;stroke-width:10;stroke-linecap:butt;stroke-linejoin:miter;stroke:rgb(0%,0%,0%);stroke-opacity:1;stroke-miterlimit:10;" d="M 1481.09375 86.40625 L 1495.195312 86.40625 " transform="matrix(0.1,0,0,-0.1,0,133)"/>
<path style=" stroke:none;fill-rule:nonzero;fill:rgb(0%,0%,0%);fill-opacity:1;" d="M 143.804688 96.222656 L 143.804688 95.988281 L 145.203125 95.988281 L 145.203125 96.222656 Z M 145.914062 97.15625 L 145.914062 96.902344 L 146.421875 96.902344 L 146.421875 94.894531 L 145.914062 95.023438 L 145.914062 94.761719 L 146.761719 94.550781 L 146.761719 96.902344 L 147.269531 96.902344 L 147.269531 97.15625 "/>
<path style="fill:none;stroke-width:10;stroke-linecap:butt;stroke-linejoin:miter;stroke:rgb(0%,0%,0%);stroke-opacity:1;stroke-miterlimit:10;" d="M 1481.09375 369.882812 L 1495.195312 369.882812 " transform="matrix(0.1,0,0,-0.1,0,133)"/>
<path style=" stroke:none;fill-rule:nonzero;fill:rgb(0%,0%,0%);fill-opacity:1;" d="M 146.488281 66.949219 C 146.226562 66.949219 146.011719 66.824219 145.851562 66.578125 C 145.6875 66.328125 145.605469 66.007812 145.605469 65.609375 C 145.605469 65.207031 145.6875 64.886719 145.851562 64.640625 C 146.015625 64.398438 146.230469 64.277344 146.496094 64.277344 C 146.765625 64.277344 146.980469 64.398438 147.144531 64.640625 C 147.304688 64.886719 147.386719 65.207031 147.386719 65.605469 C 147.386719 66.011719 147.304688 66.339844 147.144531 66.582031 C 146.980469 66.824219 146.761719 66.949219 146.488281 66.949219 Z M 146.492188 66.691406 C 146.847656 66.691406 147.027344 66.328125 147.027344 65.597656 C 147.027344 64.886719 146.851562 64.53125 146.496094 64.53125 C 146.144531 64.53125 145.96875 64.890625 145.96875 65.609375 C 145.96875 66.332031 146.140625 66.691406 146.492188 66.691406 "/>
<path style="fill:none;stroke-width:10;stroke-linecap:butt;stroke-linejoin:miter;stroke:rgb(0%,0%,0%);stroke-opacity:1;stroke-miterlimit:10;" d="M 1481.09375 653.359375 L 1495.195312 653.359375 " transform="matrix(0.1,0,0,-0.1,0,133)"/>
<path style=" stroke:none;fill-rule:nonzero;fill:rgb(0%,0%,0%);fill-opacity:1;" d="M 145.914062 40.480469 L 145.914062 40.226562 L 146.421875 40.226562 L 146.421875 38.21875 L 145.914062 38.347656 L 145.914062 38.085938 L 146.761719 37.875 L 146.761719 40.226562 L 147.269531 40.226562 L 147.269531 40.480469 "/>
<path style="fill:none;stroke-width:10;stroke-linecap:butt;stroke-linejoin:miter;stroke:rgb(0%,0%,0%);stroke-opacity:1;stroke-miterlimit:10;" d="M 1481.09375 936.796875 L 1495.195312 936.796875 " transform="matrix(0.1,0,0,-0.1,0,133)"/>
<path style=" stroke:none;fill-rule:nonzero;fill:rgb(0%,0%,0%);fill-opacity:1;" d="M 145.675781 12.320312 L 145.675781 12.023438 C 145.773438 11.792969 145.972656 11.542969 146.273438 11.269531 L 146.46875 11.097656 C 146.71875 10.871094 146.84375 10.648438 146.84375 10.425781 C 146.84375 10.28125 146.800781 10.171875 146.714844 10.089844 C 146.628906 10.007812 146.511719 9.96875 146.363281 9.96875 C 146.1875 9.96875 145.980469 10.035156 145.738281 10.171875 L 145.738281 9.871094 C 145.964844 9.765625 146.1875 9.714844 146.410156 9.714844 C 146.648438 9.714844 146.839844 9.777344 146.984375 9.90625 C 147.128906 10.035156 147.203125 10.203125 147.203125 10.414062 C 147.203125 10.570312 147.164062 10.703125 147.09375 10.820312 C 147.019531 10.941406 146.886719 11.082031 146.6875 11.253906 L 146.554688 11.363281 C 146.285156 11.59375 146.128906 11.8125 146.085938 12.023438 L 147.191406 12.023438 L 147.191406 12.320312 "/>
<path style="fill:none;stroke-width:10;stroke-linecap:butt;stroke-linejoin:miter;stroke:rgb(0%,0%,0%);stroke-opacity:1;stroke-miterlimit:10;" d="M 1481.09375 1220.273438 L 1495.195312 1220.273438 " transform="matrix(0.1,0,0,-0.1,0,133)"/>
<path style="fill:none;stroke-width:10;stroke-linecap:butt;stroke-linejoin:round;stroke:rgb(75.389099%,75.389099%,75.389099%);stroke-opacity:1;stroke-dasharray:50,40;stroke-miterlimit:10;" d="M 77.851562 1534.179688 L 77.851562 653.359375 " transform="matrix(0.1,0,0,-0.1,0,133)"/>
<path style="fill:none;stroke-width:10;stroke-linecap:butt;stroke-linejoin:round;stroke:rgb(75.389099%,75.389099%,75.389099%);stroke-opacity:1;stroke-dasharray:50,40;stroke-miterlimit:10;" d="M 77.851562 586.484375 L 77.851562 -123.828125 " transform="matrix(0.1,0,0,-0.1,0,133)"/>
<path style="fill:none;stroke-width:10;stroke-linecap:butt;stroke-linejoin:round;stroke:rgb(75.389099%,75.389099%,75.389099%);stroke-opacity:1;stroke-dasharray:50,40;stroke-miterlimit:10;" d="M 77.851562 1534.179688 L 77.851562 653.359375 " transform="matrix(0.1,0,0,-0.1,0,133)"/>
<path style="fill:none;stroke-width:10;stroke-linecap:butt;stroke-linejoin:round;stroke:rgb(75.389099%,75.389099%,75.389099%);stroke-opacity:1;stroke-dasharray:50,40;stroke-miterlimit:10;" d="M 77.851562 586.484375 L 77.851562 -123.828125 " transform="matrix(0.1,0,0,-0.1,0,133)"/>
<path style="fill:none;stroke-width:10;stroke-linecap:butt;stroke-linejoin:round;stroke:rgb(75.389099%,75.389099%,75.389099%);stroke-opacity:1;stroke-dasharray:50,40;stroke-miterlimit:10;" d="M 361.328125 1534.179688 L 361.328125 653.359375 " transform="matrix(0.1,0,0,-0.1,0,133)"/>
<path style="fill:none;stroke-width:10;stroke-linecap:butt;stroke-linejoin:round;stroke:rgb(75.389099%,75.389099%,75.389099%);stroke-opacity:1;stroke-dasharray:50,40;stroke-miterlimit:10;" d="M 361.328125 586.484375 L 361.328125 -123.828125 " transform="matrix(0.1,0,0,-0.1,0,133)"/>
<path style="fill:none;stroke-width:10;stroke-linecap:butt;stroke-linejoin:round;stroke:rgb(75.389099%,75.389099%,75.389099%);stroke-opacity:1;stroke-dasharray:50,40;stroke-miterlimit:10;" d="M 644.804688 1534.179688 L 644.804688 653.359375 " transform="matrix(0.1,0,0,-0.1,0,133)"/>
<path style="fill:none;stroke-width:10;stroke-linecap:butt;stroke-linejoin:round;stroke:rgb(75.389099%,75.389099%,75.389099%);stroke-opacity:1;stroke-dasharray:50,40;stroke-miterlimit:10;" d="M 644.804688 586.484375 L 644.804688 -123.828125 " transform="matrix(0.1,0,0,-0.1,0,133)"/>
<path style="fill:none;stroke-width:10;stroke-linecap:butt;stroke-linejoin:round;stroke:rgb(75.389099%,75.389099%,75.389099%);stroke-opacity:1;stroke-dasharray:50,40;stroke-miterlimit:10;" d="M 928.242188 1534.179688 L 928.242188 653.359375 " transform="matrix(0.1,0,0,-0.1,0,133)"/>
<path style="fill:none;stroke-width:10;stroke-linecap:butt;stroke-linejoin:round;stroke:rgb(75.389099%,75.389099%,75.389099%);stroke-opacity:1;stroke-dasharray:50,40;stroke-miterlimit:10;" d="M 928.242188 586.484375 L 928.242188 -123.828125 " transform="matrix(0.1,0,0,-0.1,0,133)"/>
<path style="fill:none;stroke-width:10;stroke-linecap:butt;stroke-linejoin:round;stroke:rgb(75.389099%,75.389099%,75.389099%);stroke-opacity:1;stroke-dasharray:50,40;stroke-miterlimit:10;" d="M 1211.71875 1534.179688 L 1211.71875 653.359375 " transform="matrix(0.1,0,0,-0.1,0,133)"/>
<path style="fill:none;stroke-width:10;stroke-linecap:butt;stroke-linejoin:round;stroke:rgb(75.389099%,75.389099%,75.389099%);stroke-opacity:1;stroke-dasharray:50,40;stroke-miterlimit:10;" d="M 1211.71875 586.484375 L 1211.71875 -123.828125 " transform="matrix(0.1,0,0,-0.1,0,133)"/>
<path style="fill:none;stroke-width:10;stroke-linecap:butt;stroke-linejoin:round;stroke:rgb(75.389099%,75.389099%,75.389099%);stroke-opacity:1;stroke-dasharray:50,40;stroke-miterlimit:10;" d="M 1778.632812 1534.179688 L 1778.632812 653.359375 " transform="matrix(0.1,0,0,-0.1,0,133)"/>
<path style="fill:none;stroke-width:10;stroke-linecap:butt;stroke-linejoin:round;stroke:rgb(75.389099%,75.389099%,75.389099%);stroke-opacity:1;stroke-dasharray:50,40;stroke-miterlimit:10;" d="M 1778.632812 586.484375 L 1778.632812 -123.828125 " transform="matrix(0.1,0,0,-0.1,0,133)"/>
<path style="fill:none;stroke-width:10;stroke-linecap:butt;stroke-linejoin:round;stroke:rgb(75.389099%,75.389099%,75.389099%);stroke-opacity:1;stroke-dasharray:50,40;stroke-miterlimit:10;" d="M -105.585938 1220.273438 L 1424.765625 1220.273438 " transform="matrix(0.1,0,0,-0.1,0,133)"/>
<path style="fill:none;stroke-width:10;stroke-linecap:butt;stroke-linejoin:round;stroke:rgb(75.389099%,75.389099%,75.389099%);stroke-opacity:1;stroke-dasharray:50,40;stroke-miterlimit:10;" d="M 1495.195312 1220.273438 L 1936.09375 1220.273438 " transform="matrix(0.1,0,0,-0.1,0,133)"/>
<path style="fill:none;stroke-width:10;stroke-linecap:butt;stroke-linejoin:round;stroke:rgb(75.389099%,75.389099%,75.389099%);stroke-opacity:1;stroke-dasharray:50,40;stroke-miterlimit:10;" d="M -105.585938 936.796875 L 1424.765625 936.796875 " transform="matrix(0.1,0,0,-0.1,0,133)"/>
<path style="fill:none;stroke-width:10;stroke-linecap:butt;stroke-linejoin:round;stroke:rgb(75.389099%,75.389099%,75.389099%);stroke-opacity:1;stroke-dasharray:50,40;stroke-miterlimit:10;" d="M 1495.195312 936.796875 L 1936.09375 936.796875 " transform="matrix(0.1,0,0,-0.1,0,133)"/>
<path style="fill:none;stroke-width:10;stroke-linecap:butt;stroke-linejoin:round;stroke:rgb(75.389099%,75.389099%,75.389099%);stroke-opacity:1;stroke-dasharray:50,40;stroke-miterlimit:10;" d="M -105.585938 369.882812 L 1424.765625 369.882812 " transform="matrix(0.1,0,0,-0.1,0,133)"/>
<path style="fill:none;stroke-width:10;stroke-linecap:butt;stroke-linejoin:round;stroke:rgb(75.389099%,75.389099%,75.389099%);stroke-opacity:1;stroke-dasharray:50,40;stroke-miterlimit:10;" d="M 1495.195312 369.882812 L 1936.09375 369.882812 " transform="matrix(0.1,0,0,-0.1,0,133)"/>
<path style="fill:none;stroke-width:10;stroke-linecap:butt;stroke-linejoin:round;stroke:rgb(75.389099%,75.389099%,75.389099%);stroke-opacity:1;stroke-dasharray:50,40;stroke-miterlimit:10;" d="M -105.585938 86.40625 L 1424.765625 86.40625 " transform="matrix(0.1,0,0,-0.1,0,133)"/>
<path style="fill:none;stroke-width:10;stroke-linecap:butt;stroke-linejoin:round;stroke:rgb(75.389099%,75.389099%,75.389099%);stroke-opacity:1;stroke-dasharray:50,40;stroke-miterlimit:10;" d="M 1495.195312 86.40625 L 1936.09375 86.40625 " transform="matrix(0.1,0,0,-0.1,0,133)"/>
<path style="fill:none;stroke-width:15;stroke-linecap:round;stroke-linejoin:round;stroke:rgb(0%,0%,100%);stroke-opacity:1;stroke-miterlimit:10;" d="M 653.75 936.796875 C 653.75 931.875 649.726562 927.851562 644.804688 927.851562 C 639.84375 927.851562 635.820312 931.875 635.820312 936.796875 C 635.820312 941.757812 639.84375 945.78125 644.804688 945.78125 C 649.726562 945.78125 653.75 941.757812 653.75 936.796875 Z M 653.75 936.796875 " transform="matrix(0.1,0,0,-0.1,0,133)"/>
<path style="fill:none;stroke-width:15;stroke-linecap:round;stroke-linejoin:round;stroke:rgb(0%,0%,100%);stroke-opacity:1;stroke-miterlimit:10;" d="M 653.75 369.882812 C 653.75 364.921875 649.726562 360.9375 644.804688 360.9375 C 639.84375 360.9375 635.820312 364.921875 635.820312 369.882812 C 635.820312 374.84375 639.84375 378.867188 644.804688 378.867188 C 649.726562 378.867188 653.75 374.84375 653.75 369.882812 Z M 653.75 369.882812 " transform="matrix(0.1,0,0,-0.1,0,133)"/>
<path style="fill:none;stroke-width:15;stroke-linecap:round;stroke-linejoin:round;stroke:rgb(0%,0%,100%);stroke-opacity:1;stroke-miterlimit:10;" d="M 361.328125 936.796875 L 639.101562 936.796875 " transform="matrix(0.1,0,0,-0.1,0,133)"/>
<path style="fill:none;stroke-width:15;stroke-linecap:round;stroke-linejoin:round;stroke:rgb(0%,0%,100%);stroke-opacity:1;stroke-miterlimit:10;" d="M 650.46875 369.882812 L 928.242188 369.882812 " transform="matrix(0.1,0,0,-0.1,0,133)"/>
<path style=" stroke:none;fill-rule:nonzero;fill:rgb(0%,0%,100%);fill-opacity:1;" d="M 71.824219 106.933594 L 71.246094 109.242188 C 71.191406 109.464844 71.050781 109.65625 70.832031 109.820312 C 70.613281 109.929688 70.363281 109.984375 70.089844 109.984375 C 69.707031 109.984375 69.484375 109.902344 69.429688 109.738281 C 69.429688 109.738281 69.429688 109.710938 69.429688 109.65625 C 69.429688 109.546875 69.484375 109.464844 69.59375 109.410156 C 69.648438 109.410156 69.675781 109.410156 69.675781 109.410156 C 69.789062 109.410156 69.871094 109.4375 69.925781 109.492188 C 69.925781 109.492188 69.925781 109.519531 69.925781 109.574219 C 69.925781 109.683594 69.871094 109.765625 69.761719 109.820312 C 69.761719 109.820312 69.734375 109.820312 69.675781 109.820312 C 69.789062 109.875 69.925781 109.902344 70.089844 109.902344 C 70.476562 109.902344 70.75 109.710938 70.914062 109.328125 L 71.082031 108.582031 C 70.914062 108.75 70.722656 108.859375 70.503906 108.914062 C 70.503906 108.914062 70.476562 108.914062 70.421875 108.914062 C 70.199219 108.914062 70.007812 108.804688 69.84375 108.582031 C 69.789062 108.417969 69.761719 108.253906 69.761719 108.089844 C 69.761719 107.703125 69.898438 107.347656 70.171875 107.015625 C 70.394531 106.742188 70.640625 106.601562 70.914062 106.601562 L 70.996094 106.601562 C 71.164062 106.601562 71.300781 106.6875 71.410156 106.851562 L 71.492188 106.933594 C 71.492188 106.769531 71.546875 106.6875 71.65625 106.6875 C 71.769531 106.6875 71.824219 106.742188 71.824219 106.851562 Z M 71.164062 108.253906 L 71.410156 107.265625 C 71.410156 107.207031 71.410156 107.179688 71.410156 107.179688 C 71.410156 107.070312 71.382812 106.988281 71.328125 106.933594 C 71.273438 106.824219 71.21875 106.769531 71.164062 106.769531 C 71.109375 106.714844 71.050781 106.6875 70.996094 106.6875 C 70.832031 106.6875 70.667969 106.796875 70.503906 107.015625 C 70.449219 107.070312 70.421875 107.125 70.421875 107.179688 C 70.308594 107.402344 70.226562 107.703125 70.171875 108.089844 C 70.117188 108.144531 70.089844 108.226562 70.089844 108.335938 C 70.089844 108.554688 70.171875 108.695312 70.335938 108.75 C 70.335938 108.804688 70.363281 108.832031 70.421875 108.832031 C 70.585938 108.832031 70.75 108.75 70.914062 108.582031 C 71.027344 108.472656 71.109375 108.363281 71.164062 108.253906 "/>
<path style=" stroke:none;fill-rule:nonzero;fill:rgb(0%,0%,100%);fill-opacity:1;" d="M 73.597656 110.152344 C 73.597656 110.207031 73.597656 110.234375 73.597656 110.234375 C 73.542969 110.234375 73.433594 110.152344 73.269531 109.984375 C 73.046875 109.765625 72.882812 109.519531 72.773438 109.242188 C 72.5 108.75 72.359375 108.199219 72.359375 107.59375 C 72.359375 106.988281 72.472656 106.4375 72.691406 105.945312 C 72.910156 105.558594 73.160156 105.257812 73.433594 105.035156 C 73.488281 104.980469 73.542969 104.953125 73.597656 104.953125 C 73.597656 104.953125 73.597656 104.980469 73.597656 105.035156 C 73.597656 105.035156 73.570312 105.0625 73.515625 105.117188 C 72.964844 105.667969 72.691406 106.492188 72.691406 107.59375 C 72.691406 108.695312 72.964844 109.519531 73.515625 110.070312 C 73.570312 110.125 73.597656 110.152344 73.597656 110.152344 "/>
<path style=" stroke:none;fill-rule:nonzero;fill:rgb(0%,0%,100%);fill-opacity:1;" d="M 75.652344 107.347656 L 75.488281 108.007812 C 75.433594 108.28125 75.40625 108.445312 75.40625 108.5 C 75.40625 108.664062 75.460938 108.777344 75.570312 108.832031 C 75.625 108.832031 75.679688 108.832031 75.734375 108.832031 C 75.898438 108.832031 76.035156 108.75 76.148438 108.582031 C 76.257812 108.472656 76.339844 108.335938 76.394531 108.171875 C 76.394531 108.117188 76.421875 108.089844 76.476562 108.089844 C 76.53125 108.089844 76.558594 108.117188 76.558594 108.171875 C 76.558594 108.226562 76.503906 108.335938 76.394531 108.5 C 76.175781 108.832031 75.953125 108.996094 75.734375 108.996094 C 75.460938 108.996094 75.265625 108.886719 75.15625 108.664062 C 75.15625 108.609375 75.15625 108.582031 75.15625 108.582031 C 75.046875 108.75 74.910156 108.859375 74.746094 108.914062 C 74.691406 108.96875 74.636719 108.996094 74.578125 108.996094 C 74.359375 108.996094 74.195312 108.914062 74.085938 108.75 C 74.085938 108.75 74.085938 108.695312 74.085938 108.582031 C 74.085938 108.472656 74.140625 108.390625 74.25 108.335938 C 74.304688 108.335938 74.332031 108.335938 74.332031 108.335938 C 74.441406 108.335938 74.523438 108.363281 74.578125 108.417969 C 74.578125 108.472656 74.578125 108.5 74.578125 108.5 C 74.578125 108.609375 74.523438 108.695312 74.414062 108.75 C 74.359375 108.75 74.332031 108.75 74.332031 108.75 C 74.386719 108.804688 74.46875 108.832031 74.578125 108.832031 C 74.746094 108.832031 74.882812 108.722656 74.992188 108.5 C 75.046875 108.445312 75.074219 108.390625 75.074219 108.335938 C 75.238281 107.621094 75.324219 107.179688 75.324219 107.015625 C 75.324219 106.796875 75.238281 106.6875 75.074219 106.6875 C 74.910156 106.6875 74.746094 106.796875 74.578125 107.015625 C 74.523438 107.070312 74.46875 107.152344 74.414062 107.265625 C 74.414062 107.265625 74.414062 107.289062 74.414062 107.347656 L 74.332031 107.429688 C 74.277344 107.429688 74.25 107.429688 74.25 107.429688 C 74.25 107.320312 74.304688 107.179688 74.414062 107.015625 C 74.578125 106.742188 74.800781 106.601562 75.074219 106.601562 C 75.347656 106.601562 75.542969 106.742188 75.652344 107.015625 C 75.761719 106.796875 75.898438 106.660156 76.066406 106.601562 C 76.121094 106.601562 76.175781 106.601562 76.230469 106.601562 C 76.449219 106.601562 76.585938 106.660156 76.640625 106.769531 C 76.699219 106.824219 76.722656 106.878906 76.722656 106.933594 C 76.722656 107.097656 76.640625 107.179688 76.476562 107.179688 C 76.476562 107.234375 76.449219 107.265625 76.394531 107.265625 C 76.285156 107.265625 76.230469 107.207031 76.230469 107.097656 C 76.230469 107.097656 76.230469 107.070312 76.230469 107.015625 C 76.230469 106.90625 76.285156 106.824219 76.394531 106.769531 C 76.394531 106.769531 76.421875 106.769531 76.476562 106.769531 C 76.421875 106.714844 76.339844 106.6875 76.230469 106.6875 C 75.953125 106.6875 75.789062 106.878906 75.734375 107.265625 C 75.679688 107.265625 75.652344 107.289062 75.652344 107.347656 "/>
<path style=" stroke:none;fill-rule:nonzero;fill:rgb(0%,0%,100%);fill-opacity:1;" d="M 78.421875 107.59375 C 78.421875 108.199219 78.3125 108.75 78.09375 109.242188 C 77.925781 109.628906 77.707031 109.929688 77.433594 110.152344 C 77.378906 110.207031 77.324219 110.234375 77.269531 110.234375 C 77.269531 110.234375 77.269531 110.207031 77.269531 110.152344 C 77.269531 110.152344 77.269531 110.125 77.269531 110.070312 C 77.871094 109.519531 78.175781 108.695312 78.175781 107.59375 C 78.175781 106.492188 77.898438 105.667969 77.351562 105.117188 C 77.292969 105.0625 77.269531 105.035156 77.269531 105.035156 C 77.269531 104.980469 77.269531 104.953125 77.269531 104.953125 C 77.324219 104.953125 77.433594 105.035156 77.597656 105.199219 C 77.816406 105.421875 77.980469 105.667969 78.09375 105.945312 C 78.3125 106.4375 78.421875 106.988281 78.421875 107.59375 "/>
<path style=" stroke:none;fill-rule:nonzero;fill:rgb(0%,0%,100%);fill-opacity:1;" d="M 85.554688 107.179688 L 82.417969 107.179688 C 82.308594 107.179688 82.253906 107.152344 82.253906 107.097656 C 82.253906 107.042969 82.308594 107.015625 82.417969 107.015625 L 85.554688 107.015625 C 85.664062 107.015625 85.71875 107.042969 85.71875 107.097656 C 85.71875 107.152344 85.664062 107.179688 85.554688 107.179688 Z M 85.554688 108.171875 L 82.417969 108.171875 C 82.308594 108.171875 82.253906 108.144531 82.253906 108.089844 C 82.253906 108.035156 82.308594 108.007812 82.417969 108.007812 L 85.554688 108.007812 C 85.664062 108.007812 85.71875 108.035156 85.71875 108.089844 C 85.71875 108.144531 85.664062 108.171875 85.554688 108.171875 "/>
<path style=" stroke:none;fill-rule:nonzero;fill:rgb(0%,0%,100%);fill-opacity:1;" d="M 92.429688 107.675781 L 89.542969 107.675781 C 89.433594 107.675781 89.378906 107.648438 89.378906 107.59375 C 89.378906 107.539062 89.433594 107.511719 89.542969 107.511719 L 92.429688 107.511719 C 92.539062 107.511719 92.59375 107.539062 92.59375 107.59375 C 92.59375 107.648438 92.539062 107.675781 92.429688 107.675781 "/>
<path style=" stroke:none;fill-rule:nonzero;fill:rgb(0%,0%,100%);fill-opacity:1;" d="M 95.410156 101.546875 L 95.410156 106.496094 C 95.410156 106.605469 95.382812 106.660156 95.328125 106.660156 C 95.273438 106.660156 95.246094 106.605469 95.246094 106.496094 L 95.246094 101.546875 C 95.246094 101.4375 95.273438 101.382812 95.328125 101.382812 C 95.382812 101.382812 95.410156 101.4375 95.410156 101.546875 "/>
<path style=" stroke:none;fill-rule:nonzero;fill:rgb(0%,0%,100%);fill-opacity:1;" d="M 97.785156 103.773438 L 97.621094 104.433594 C 97.566406 104.710938 97.535156 104.875 97.535156 104.929688 C 97.535156 105.09375 97.59375 105.203125 97.703125 105.257812 C 97.757812 105.257812 97.8125 105.257812 97.867188 105.257812 C 98.03125 105.257812 98.167969 105.175781 98.28125 105.011719 C 98.390625 104.902344 98.472656 104.765625 98.527344 104.597656 C 98.527344 104.542969 98.554688 104.515625 98.609375 104.515625 C 98.664062 104.515625 98.691406 104.542969 98.691406 104.597656 C 98.691406 104.652344 98.636719 104.765625 98.527344 104.929688 C 98.308594 105.257812 98.085938 105.421875 97.867188 105.421875 C 97.59375 105.421875 97.398438 105.3125 97.289062 105.09375 C 97.289062 105.039062 97.289062 105.011719 97.289062 105.011719 C 97.179688 105.175781 97.042969 105.285156 96.878906 105.339844 C 96.824219 105.398438 96.765625 105.421875 96.710938 105.421875 C 96.492188 105.421875 96.328125 105.339844 96.21875 105.175781 C 96.21875 105.175781 96.21875 105.121094 96.21875 105.011719 C 96.21875 104.902344 96.273438 104.820312 96.382812 104.765625 C 96.4375 104.765625 96.464844 104.765625 96.464844 104.765625 C 96.574219 104.765625 96.65625 104.792969 96.710938 104.847656 C 96.710938 104.902344 96.710938 104.929688 96.710938 104.929688 C 96.710938 105.039062 96.65625 105.121094 96.546875 105.175781 C 96.492188 105.175781 96.464844 105.175781 96.464844 105.175781 C 96.519531 105.230469 96.601562 105.257812 96.710938 105.257812 C 96.878906 105.257812 97.015625 105.148438 97.125 104.929688 C 97.179688 104.875 97.207031 104.820312 97.207031 104.765625 C 97.371094 104.046875 97.453125 103.609375 97.453125 103.445312 C 97.453125 103.222656 97.371094 103.113281 97.207031 103.113281 C 97.042969 103.113281 96.878906 103.222656 96.710938 103.445312 C 96.65625 103.5 96.601562 103.582031 96.546875 103.691406 C 96.546875 103.691406 96.546875 103.71875 96.546875 103.773438 L 96.464844 103.855469 C 96.410156 103.855469 96.382812 103.855469 96.382812 103.855469 C 96.382812 103.746094 96.4375 103.609375 96.546875 103.445312 C 96.710938 103.167969 96.933594 103.03125 97.207031 103.03125 C 97.480469 103.03125 97.675781 103.167969 97.785156 103.445312 C 97.894531 103.222656 98.03125 103.085938 98.199219 103.03125 C 98.253906 103.03125 98.308594 103.03125 98.363281 103.03125 C 98.582031 103.03125 98.71875 103.085938 98.773438 103.195312 C 98.828125 103.25 98.855469 103.304688 98.855469 103.359375 C 98.855469 103.527344 98.773438 103.609375 98.609375 103.609375 C 98.609375 103.664062 98.582031 103.691406 98.527344 103.691406 C 98.417969 103.691406 98.363281 103.636719 98.363281 103.527344 C 98.363281 103.527344 98.363281 103.5 98.363281 103.445312 C 98.363281 103.335938 98.417969 103.25 98.527344 103.195312 C 98.527344 103.195312 98.554688 103.195312 98.609375 103.195312 C 98.554688 103.140625 98.472656 103.113281 98.363281 103.113281 C 98.085938 103.113281 97.921875 103.304688 97.867188 103.691406 C 97.8125 103.691406 97.785156 103.71875 97.785156 103.773438 "/>
<path style=" stroke:none;fill-rule:nonzero;fill:rgb(0%,0%,100%);fill-opacity:1;" d="M 102.386719 104.105469 L 102.386719 105.589844 C 102.386719 105.699219 102.359375 105.753906 102.304688 105.753906 C 102.25 105.753906 102.222656 105.699219 102.222656 105.589844 L 102.222656 104.105469 L 100.738281 104.105469 C 100.628906 104.105469 100.574219 104.078125 100.574219 104.023438 C 100.574219 103.964844 100.628906 103.9375 100.738281 103.9375 L 102.222656 103.9375 L 102.222656 102.453125 C 102.222656 102.34375 102.25 102.289062 102.304688 102.289062 C 102.359375 102.289062 102.386719 102.34375 102.386719 102.453125 L 102.386719 103.9375 L 103.871094 103.9375 C 103.984375 103.9375 104.039062 103.964844 104.039062 104.023438 C 104.039062 104.078125 103.984375 104.105469 103.871094 104.105469 L 102.386719 104.105469 "/>
<path style=" stroke:none;fill-rule:nonzero;fill:rgb(0%,0%,100%);fill-opacity:1;" d="M 107.089844 103.445312 C 107.421875 103.554688 107.667969 103.746094 107.835938 104.023438 C 107.890625 104.132812 107.914062 104.269531 107.914062 104.433594 C 107.914062 104.710938 107.804688 104.957031 107.585938 105.175781 C 107.367188 105.339844 107.117188 105.421875 106.84375 105.421875 C 106.460938 105.421875 106.15625 105.339844 105.9375 105.175781 C 105.824219 105.011719 105.769531 104.820312 105.769531 104.597656 C 105.769531 104.433594 105.824219 104.351562 105.9375 104.351562 C 105.992188 104.351562 106.019531 104.351562 106.019531 104.351562 C 106.183594 104.351562 106.292969 104.40625 106.347656 104.515625 C 106.347656 104.570312 106.347656 104.597656 106.347656 104.597656 C 106.347656 104.765625 106.292969 104.875 106.183594 104.929688 C 106.128906 104.929688 106.074219 104.929688 106.019531 104.929688 C 106.128906 105.148438 106.347656 105.257812 106.679688 105.257812 C 106.734375 105.3125 106.761719 105.339844 106.761719 105.339844 C 107.035156 105.339844 107.199219 105.230469 107.257812 105.011719 C 107.367188 104.847656 107.421875 104.652344 107.421875 104.433594 C 107.421875 103.992188 107.285156 103.71875 107.007812 103.609375 C 106.898438 103.554688 106.816406 103.527344 106.761719 103.527344 L 106.515625 103.527344 C 106.460938 103.527344 106.429688 103.527344 106.429688 103.527344 C 106.429688 103.472656 106.460938 103.445312 106.515625 103.445312 C 106.570312 103.445312 106.625 103.445312 106.679688 103.445312 C 106.84375 103.445312 106.980469 103.359375 107.089844 103.195312 L 107.175781 103.113281 C 107.285156 102.949219 107.339844 102.757812 107.339844 102.535156 C 107.339844 102.207031 107.199219 102.015625 106.925781 101.960938 C 106.871094 101.960938 106.816406 101.960938 106.761719 101.960938 C 106.539062 101.960938 106.347656 102.042969 106.183594 102.207031 C 106.128906 102.207031 106.101562 102.234375 106.101562 102.289062 C 106.320312 102.289062 106.429688 102.371094 106.429688 102.535156 C 106.429688 102.648438 106.375 102.730469 106.265625 102.785156 C 106.210938 102.785156 106.183594 102.785156 106.183594 102.785156 C 106.019531 102.785156 105.9375 102.730469 105.9375 102.617188 C 105.882812 102.617188 105.855469 102.589844 105.855469 102.535156 C 105.855469 102.316406 105.992188 102.125 106.265625 101.960938 C 106.429688 101.847656 106.625 101.792969 106.84375 101.792969 C 107.175781 101.792969 107.421875 101.902344 107.585938 102.125 C 107.75 102.234375 107.835938 102.371094 107.835938 102.535156 C 107.835938 102.867188 107.695312 103.113281 107.421875 103.277344 C 107.3125 103.390625 107.199219 103.445312 107.089844 103.445312 "/>
<path style=" stroke:none;fill-rule:nonzero;fill:rgb(0%,0%,100%);fill-opacity:1;" d="M 108.988281 101.546875 L 108.988281 106.496094 C 108.988281 106.605469 108.960938 106.660156 108.90625 106.660156 C 108.851562 106.660156 108.824219 106.605469 108.824219 106.496094 L 108.824219 101.546875 C 108.824219 101.4375 108.851562 101.382812 108.90625 101.382812 C 108.960938 101.382812 108.988281 101.4375 108.988281 101.546875 "/>
<path style=" stroke:none;fill-rule:nonzero;fill:rgb(0%,0%,100%);fill-opacity:1;" d="M 94.585938 107.699219 L 109.628906 107.699219 L 109.628906 107.488281 L 94.585938 107.488281 Z M 94.585938 107.699219 "/>
<path style=" stroke:none;fill-rule:nonzero;fill:rgb(0%,0%,100%);fill-opacity:1;" d="M 97.785156 110.96875 L 97.621094 111.628906 C 97.566406 111.902344 97.535156 112.066406 97.535156 112.121094 C 97.535156 112.289062 97.59375 112.398438 97.703125 112.453125 C 97.757812 112.453125 97.8125 112.453125 97.867188 112.453125 C 98.03125 112.453125 98.167969 112.371094 98.28125 112.207031 C 98.390625 112.09375 98.472656 111.957031 98.527344 111.792969 C 98.527344 111.738281 98.554688 111.710938 98.609375 111.710938 C 98.664062 111.710938 98.691406 111.738281 98.691406 111.792969 C 98.691406 111.847656 98.636719 111.957031 98.527344 112.121094 C 98.308594 112.453125 98.085938 112.617188 97.867188 112.617188 C 97.59375 112.617188 97.398438 112.507812 97.289062 112.289062 C 97.289062 112.234375 97.289062 112.207031 97.289062 112.207031 C 97.179688 112.371094 97.042969 112.480469 96.878906 112.535156 C 96.824219 112.589844 96.765625 112.617188 96.710938 112.617188 C 96.492188 112.617188 96.328125 112.535156 96.21875 112.371094 C 96.21875 112.371094 96.21875 112.316406 96.21875 112.207031 C 96.21875 112.09375 96.273438 112.011719 96.382812 111.957031 C 96.4375 111.957031 96.464844 111.957031 96.464844 111.957031 C 96.574219 111.957031 96.65625 111.984375 96.710938 112.039062 C 96.710938 112.09375 96.710938 112.121094 96.710938 112.121094 C 96.710938 112.234375 96.65625 112.316406 96.546875 112.371094 C 96.492188 112.371094 96.464844 112.371094 96.464844 112.371094 C 96.519531 112.425781 96.601562 112.453125 96.710938 112.453125 C 96.878906 112.453125 97.015625 112.34375 97.125 112.121094 C 97.179688 112.066406 97.207031 112.011719 97.207031 111.957031 C 97.371094 111.242188 97.453125 110.804688 97.453125 110.636719 C 97.453125 110.417969 97.371094 110.308594 97.207031 110.308594 C 97.042969 110.308594 96.878906 110.417969 96.710938 110.636719 C 96.65625 110.691406 96.601562 110.777344 96.546875 110.886719 C 96.546875 110.886719 96.546875 110.914062 96.546875 110.96875 L 96.464844 111.050781 C 96.410156 111.050781 96.382812 111.050781 96.382812 111.050781 C 96.382812 110.941406 96.4375 110.804688 96.546875 110.636719 C 96.710938 110.363281 96.933594 110.226562 97.207031 110.226562 C 97.480469 110.226562 97.675781 110.363281 97.785156 110.636719 C 97.894531 110.417969 98.03125 110.28125 98.199219 110.226562 C 98.253906 110.226562 98.308594 110.226562 98.363281 110.226562 C 98.582031 110.226562 98.71875 110.28125 98.773438 110.390625 C 98.828125 110.445312 98.855469 110.5 98.855469 110.554688 C 98.855469 110.71875 98.773438 110.804688 98.609375 110.804688 C 98.609375 110.859375 98.582031 110.886719 98.527344 110.886719 C 98.417969 110.886719 98.363281 110.832031 98.363281 110.71875 C 98.363281 110.71875 98.363281 110.691406 98.363281 110.636719 C 98.363281 110.527344 98.417969 110.445312 98.527344 110.390625 C 98.527344 110.390625 98.554688 110.390625 98.609375 110.390625 C 98.554688 110.335938 98.472656 110.308594 98.363281 110.308594 C 98.085938 110.308594 97.921875 110.5 97.867188 110.886719 C 97.8125 110.886719 97.785156 110.914062 97.785156 110.96875 "/>
<path style=" stroke:none;fill-rule:nonzero;fill:rgb(0%,0%,100%);fill-opacity:1;" d="M 102.386719 111.296875 L 102.386719 112.78125 C 102.386719 112.894531 102.359375 112.949219 102.304688 112.949219 C 102.25 112.949219 102.222656 112.894531 102.222656 112.78125 L 102.222656 111.296875 L 100.738281 111.296875 C 100.628906 111.296875 100.574219 111.269531 100.574219 111.214844 C 100.574219 111.160156 100.628906 111.132812 100.738281 111.132812 L 102.222656 111.132812 L 102.222656 109.648438 C 102.222656 109.539062 102.25 109.484375 102.304688 109.484375 C 102.359375 109.484375 102.386719 109.539062 102.386719 109.648438 L 102.386719 111.132812 L 103.871094 111.132812 C 103.984375 111.132812 104.039062 111.160156 104.039062 111.214844 C 104.039062 111.269531 103.984375 111.296875 103.871094 111.296875 L 102.386719 111.296875 "/>
<path style=" stroke:none;fill-rule:nonzero;fill:rgb(0%,0%,100%);fill-opacity:1;" d="M 107.089844 110.636719 C 107.421875 110.746094 107.667969 110.941406 107.835938 111.214844 C 107.890625 111.324219 107.914062 111.464844 107.914062 111.628906 C 107.914062 111.902344 107.804688 112.152344 107.585938 112.371094 C 107.367188 112.535156 107.117188 112.617188 106.84375 112.617188 C 106.460938 112.617188 106.15625 112.535156 105.9375 112.371094 C 105.824219 112.207031 105.769531 112.011719 105.769531 111.792969 C 105.769531 111.628906 105.824219 111.546875 105.9375 111.546875 C 105.992188 111.546875 106.019531 111.546875 106.019531 111.546875 C 106.183594 111.546875 106.292969 111.601562 106.347656 111.710938 C 106.347656 111.765625 106.347656 111.792969 106.347656 111.792969 C 106.347656 111.957031 106.292969 112.066406 106.183594 112.121094 C 106.128906 112.121094 106.074219 112.121094 106.019531 112.121094 C 106.128906 112.34375 106.347656 112.453125 106.679688 112.453125 C 106.734375 112.507812 106.761719 112.535156 106.761719 112.535156 C 107.035156 112.535156 107.199219 112.425781 107.257812 112.207031 C 107.367188 112.039062 107.421875 111.847656 107.421875 111.628906 C 107.421875 111.1875 107.285156 110.914062 107.007812 110.804688 C 106.898438 110.746094 106.816406 110.71875 106.761719 110.71875 L 106.515625 110.71875 C 106.460938 110.71875 106.429688 110.71875 106.429688 110.71875 C 106.429688 110.664062 106.460938 110.636719 106.515625 110.636719 C 106.570312 110.636719 106.625 110.636719 106.679688 110.636719 C 106.84375 110.636719 106.980469 110.554688 107.089844 110.390625 L 107.175781 110.308594 C 107.285156 110.144531 107.339844 109.949219 107.339844 109.730469 C 107.339844 109.402344 107.199219 109.207031 106.925781 109.152344 C 106.871094 109.152344 106.816406 109.152344 106.761719 109.152344 C 106.539062 109.152344 106.347656 109.234375 106.183594 109.402344 C 106.128906 109.402344 106.101562 109.429688 106.101562 109.484375 C 106.320312 109.484375 106.429688 109.566406 106.429688 109.730469 C 106.429688 109.839844 106.375 109.921875 106.265625 109.976562 C 106.210938 109.976562 106.183594 109.976562 106.183594 109.976562 C 106.019531 109.976562 105.9375 109.921875 105.9375 109.8125 C 105.882812 109.8125 105.855469 109.785156 105.855469 109.730469 C 105.855469 109.511719 105.992188 109.316406 106.265625 109.152344 C 106.429688 109.042969 106.625 108.988281 106.84375 108.988281 C 107.175781 108.988281 107.421875 109.097656 107.585938 109.316406 C 107.75 109.429688 107.835938 109.566406 107.835938 109.730469 C 107.835938 110.058594 107.695312 110.308594 107.421875 110.472656 C 107.3125 110.582031 107.199219 110.636719 107.089844 110.636719 "/>
</g>
</svg>
