<?xml version="1.0" encoding="UTF-8"?>
<svg xmlns="http://www.w3.org/2000/svg" xmlns:xlink="http://www.w3.org/1999/xlink" width="242pt" height="242pt" viewBox="0 0 242 242" version="1.1">
<g id="surface1">
<rect x="0" y="0" width="242" height="242" style="fill:rgb(100%,100%,100%);fill-opacity:1;stroke:none;"/>
<path style="fill:none;stroke-width:10;stroke-linecap:butt;stroke-linejoin:miter;stroke:rgb(0%,0%,0%);stroke-opacity:1;stroke-miterlimit:10;" d="M 1196.210938 2539.0625 L 1196.210938 -131.171875 " transform="matrix(0.1,0,0,-0.1,0,242)"/>
<path style="fill:none;stroke-width:10;stroke-linecap:butt;stroke-linejoin:miter;stroke:rgb(0%,0%,0%);stroke-opacity:1;stroke-miterlimit:10;" d="M -141.71875 1201.09375 L 3135.117188 1201.09375 " transform="matrix(0.1,0,0,-0.1,0,242)"/>
<path style=" stroke:none;fill-rule:nonzero;fill:rgb(0%,0%,0%);fill-opacity:1;" d="M 4.257812 128.324219 L 4.257812 127.945312 L 6.511719 127.945312 L 6.511719 128.324219 Z M 8.9375 129.828125 L 8.9375 128.667969 L 7.09375 128.667969 L 7.09375 128.253906 L 8.9375 125.730469 L 9.449219 125.730469 L 9.449219 128.222656 L 9.996094 128.222656 L 9.996094 128.667969 L 9.449219 128.667969 L 9.449219 129.828125 Z M 7.628906 128.222656 L 8.972656 128.222656 L 8.972656 126.398438 "/>
<path style="fill:none;stroke-width:10;stroke-linecap:butt;stroke-linejoin:miter;stroke:rgb(0%,0%,0%);stroke-opacity:1;stroke-miterlimit:10;" d="M 62.382812 1201.09375 L 62.382812 1184.101562 " transform="matrix(0.1,0,0,-0.1,0,242)"/>
<path style=" stroke:none;fill-rule:nonzero;fill:rgb(0%,0%,0%);fill-opacity:1;" d="M 32.605469 128.324219 L 32.605469 127.945312 L 34.859375 127.945312 L 34.859375 128.324219 Z M 35.726562 129.796875 L 35.726562 129.285156 C 36.117188 129.441406 36.425781 129.519531 36.648438 129.519531 C 36.910156 129.519531 37.121094 129.441406 37.285156 129.289062 C 37.449219 129.140625 37.53125 128.941406 37.53125 128.699219 C 37.53125 128.125 37.128906 127.835938 36.320312 127.835938 L 36.105469 127.835938 L 36.105469 127.46875 L 36.296875 127.464844 C 37.050781 127.464844 37.429688 127.199219 37.429688 126.664062 C 37.429688 126.246094 37.179688 126.035156 36.683594 126.035156 C 36.410156 126.035156 36.109375 126.113281 35.78125 126.265625 L 35.78125 125.789062 C 36.105469 125.683594 36.417969 125.628906 36.722656 125.628906 C 37.558594 125.628906 37.980469 125.945312 37.980469 126.578125 C 37.980469 127.058594 37.695312 127.402344 37.125 127.605469 C 37.785156 127.761719 38.113281 128.121094 38.113281 128.691406 C 38.113281 129.078125 37.988281 129.378906 37.730469 129.601562 C 37.476562 129.820312 37.128906 129.929688 36.683594 129.929688 C 36.429688 129.929688 36.109375 129.886719 35.726562 129.796875 "/>
<path style="fill:none;stroke-width:10;stroke-linecap:butt;stroke-linejoin:miter;stroke:rgb(0%,0%,0%);stroke-opacity:1;stroke-miterlimit:10;" d="M 345.820312 1201.09375 L 345.820312 1184.101562 " transform="matrix(0.1,0,0,-0.1,0,242)"/>
<path style=" stroke:none;fill-rule:nonzero;fill:rgb(0%,0%,0%);fill-opacity:1;" d="M 60.953125 128.324219 L 60.953125 127.945312 L 63.207031 127.945312 L 63.207031 128.324219 Z M 63.96875 129.828125 L 63.96875 129.347656 C 64.125 128.976562 64.445312 128.574219 64.929688 128.136719 L 65.242188 127.855469 C 65.644531 127.492188 65.847656 127.132812 65.847656 126.773438 C 65.847656 126.546875 65.777344 126.363281 65.640625 126.234375 C 65.503906 126.101562 65.3125 126.035156 65.074219 126.035156 C 64.789062 126.035156 64.453125 126.148438 64.070312 126.367188 L 64.070312 125.886719 C 64.433594 125.714844 64.792969 125.628906 65.152344 125.628906 C 65.535156 125.628906 65.84375 125.730469 66.078125 125.9375 C 66.308594 126.144531 66.425781 126.417969 66.425781 126.761719 C 66.425781 127.003906 66.367188 127.222656 66.25 127.414062 C 66.132812 127.601562 65.914062 127.835938 65.59375 128.105469 L 65.382812 128.285156 C 64.945312 128.65625 64.695312 129.011719 64.625 129.347656 L 66.40625 129.347656 L 66.40625 129.828125 "/>
<path style="fill:none;stroke-width:10;stroke-linecap:butt;stroke-linejoin:miter;stroke:rgb(0%,0%,0%);stroke-opacity:1;stroke-miterlimit:10;" d="M 629.296875 1201.09375 L 629.296875 1184.101562 " transform="matrix(0.1,0,0,-0.1,0,242)"/>
<path style=" stroke:none;fill-rule:nonzero;fill:rgb(0%,0%,0%);fill-opacity:1;" d="M 89.296875 128.324219 L 89.296875 127.945312 L 91.550781 127.945312 L 91.550781 128.324219 Z M 92.695312 129.828125 L 92.695312 129.417969 L 93.515625 129.417969 L 93.515625 126.183594 L 92.695312 126.390625 L 92.695312 125.96875 L 94.0625 125.628906 L 94.0625 129.417969 L 94.882812 129.417969 L 94.882812 129.828125 "/>
<path style="fill:none;stroke-width:10;stroke-linecap:butt;stroke-linejoin:miter;stroke:rgb(0%,0%,0%);stroke-opacity:1;stroke-miterlimit:10;" d="M 912.773438 1201.09375 L 912.773438 1184.101562 " transform="matrix(0.1,0,0,-0.1,0,242)"/>
<path style=" stroke:none;fill-rule:nonzero;fill:rgb(0%,0%,0%);fill-opacity:1;" d="M 147.6875 129.828125 L 147.6875 129.417969 L 148.507812 129.417969 L 148.507812 126.183594 L 147.6875 126.390625 L 147.6875 125.96875 L 149.054688 125.628906 L 149.054688 129.417969 L 149.875 129.417969 L 149.875 129.828125 "/>
<path style="fill:none;stroke-width:10;stroke-linecap:butt;stroke-linejoin:miter;stroke:rgb(0%,0%,0%);stroke-opacity:1;stroke-miterlimit:10;" d="M 1479.6875 1201.09375 L 1479.6875 1184.101562 " transform="matrix(0.1,0,0,-0.1,0,242)"/>
<path style=" stroke:none;fill-rule:nonzero;fill:rgb(0%,0%,0%);fill-opacity:1;" d="M 175.652344 129.828125 L 175.652344 129.347656 C 175.8125 128.976562 176.132812 128.574219 176.613281 128.136719 L 176.929688 127.855469 C 177.328125 127.492188 177.53125 127.132812 177.53125 126.773438 C 177.53125 126.546875 177.464844 126.363281 177.324219 126.234375 C 177.1875 126.101562 177 126.035156 176.757812 126.035156 C 176.476562 126.035156 176.140625 126.148438 175.753906 126.367188 L 175.753906 125.886719 C 176.117188 125.714844 176.480469 125.628906 176.835938 125.628906 C 177.21875 125.628906 177.527344 125.730469 177.761719 125.9375 C 177.992188 126.144531 178.109375 126.417969 178.109375 126.761719 C 178.109375 127.003906 178.050781 127.222656 177.933594 127.414062 C 177.816406 127.601562 177.597656 127.835938 177.277344 128.105469 L 177.070312 128.285156 C 176.632812 128.65625 176.378906 129.011719 176.3125 129.347656 L 178.089844 129.347656 L 178.089844 129.828125 "/>
<path style="fill:none;stroke-width:10;stroke-linecap:butt;stroke-linejoin:miter;stroke:rgb(0%,0%,0%);stroke-opacity:1;stroke-miterlimit:10;" d="M 1763.164062 1201.09375 L 1763.164062 1184.101562 " transform="matrix(0.1,0,0,-0.1,0,242)"/>
<path style=" stroke:none;fill-rule:nonzero;fill:rgb(0%,0%,0%);fill-opacity:1;" d="M 204.105469 129.796875 L 204.105469 129.285156 C 204.496094 129.441406 204.804688 129.519531 205.027344 129.519531 C 205.289062 129.519531 205.5 129.441406 205.664062 129.289062 C 205.828125 129.140625 205.90625 128.941406 205.90625 128.699219 C 205.90625 128.125 205.503906 127.835938 204.699219 127.835938 L 204.480469 127.835938 L 204.480469 127.46875 L 204.671875 127.464844 C 205.429688 127.464844 205.808594 127.199219 205.808594 126.664062 C 205.808594 126.246094 205.558594 126.035156 205.0625 126.035156 C 204.789062 126.035156 204.488281 126.113281 204.160156 126.265625 L 204.160156 125.789062 C 204.480469 125.683594 204.796875 125.628906 205.101562 125.628906 C 205.9375 125.628906 206.355469 125.945312 206.355469 126.578125 C 206.355469 127.058594 206.070312 127.402344 205.5 127.605469 C 206.160156 127.761719 206.492188 128.121094 206.492188 128.691406 C 206.492188 129.078125 206.363281 129.378906 206.109375 129.601562 C 205.855469 129.820312 205.507812 129.929688 205.0625 129.929688 C 204.808594 129.929688 204.488281 129.886719 204.105469 129.796875 "/>
<path style="fill:none;stroke-width:10;stroke-linecap:butt;stroke-linejoin:miter;stroke:rgb(0%,0%,0%);stroke-opacity:1;stroke-miterlimit:10;" d="M 2046.601562 1201.09375 L 2046.601562 1184.101562 " transform="matrix(0.1,0,0,-0.1,0,242)"/>
<path style=" stroke:none;fill-rule:nonzero;fill:rgb(0%,0%,0%);fill-opacity:1;" d="M 234.007812 129.828125 L 234.007812 128.667969 L 232.164062 128.667969 L 232.164062 128.253906 L 234.007812 125.730469 L 234.519531 125.730469 L 234.519531 128.222656 L 235.066406 128.222656 L 235.066406 128.667969 L 234.519531 128.667969 L 234.519531 129.828125 Z M 232.699219 128.222656 L 234.042969 128.222656 L 234.042969 126.398438 "/>
<path style="fill:none;stroke-width:10;stroke-linecap:butt;stroke-linejoin:miter;stroke:rgb(0%,0%,0%);stroke-opacity:1;stroke-miterlimit:10;" d="M 2330.078125 1201.09375 L 2330.078125 1184.101562 " transform="matrix(0.1,0,0,-0.1,0,242)"/>
<path style="fill:none;stroke-width:10;stroke-linecap:butt;stroke-linejoin:miter;stroke:rgb(0%,0%,0%);stroke-opacity:1;stroke-miterlimit:10;" d="M 1179.21875 67.265625 L 1196.210938 67.265625 " transform="matrix(0.1,0,0,-0.1,0,242)"/>
<path style="fill:none;stroke-width:10;stroke-linecap:butt;stroke-linejoin:miter;stroke:rgb(0%,0%,0%);stroke-opacity:1;stroke-miterlimit:10;" d="M 1179.21875 350.703125 L 1196.210938 350.703125 " transform="matrix(0.1,0,0,-0.1,0,242)"/>
<path style="fill:none;stroke-width:10;stroke-linecap:butt;stroke-linejoin:miter;stroke:rgb(0%,0%,0%);stroke-opacity:1;stroke-miterlimit:10;" d="M 1179.21875 634.179688 L 1196.210938 634.179688 " transform="matrix(0.1,0,0,-0.1,0,242)"/>
<path style="fill:none;stroke-width:10;stroke-linecap:butt;stroke-linejoin:miter;stroke:rgb(0%,0%,0%);stroke-opacity:1;stroke-miterlimit:10;" d="M 1179.21875 917.65625 L 1196.210938 917.65625 " transform="matrix(0.1,0,0,-0.1,0,242)"/>
<path style="fill:none;stroke-width:10;stroke-linecap:butt;stroke-linejoin:miter;stroke:rgb(0%,0%,0%);stroke-opacity:1;stroke-miterlimit:10;" d="M 1179.21875 1484.570312 L 1196.210938 1484.570312 " transform="matrix(0.1,0,0,-0.1,0,242)"/>
<path style="fill:none;stroke-width:10;stroke-linecap:butt;stroke-linejoin:miter;stroke:rgb(0%,0%,0%);stroke-opacity:1;stroke-miterlimit:10;" d="M 1179.21875 1768.046875 L 1196.210938 1768.046875 " transform="matrix(0.1,0,0,-0.1,0,242)"/>
<path style="fill:none;stroke-width:10;stroke-linecap:butt;stroke-linejoin:miter;stroke:rgb(0%,0%,0%);stroke-opacity:1;stroke-miterlimit:10;" d="M 1179.21875 2051.484375 L 1196.210938 2051.484375 " transform="matrix(0.1,0,0,-0.1,0,242)"/>
<path style="fill:none;stroke-width:10;stroke-linecap:butt;stroke-linejoin:miter;stroke:rgb(0%,0%,0%);stroke-opacity:1;stroke-miterlimit:10;" d="M 1179.21875 2334.960938 L 1196.210938 2334.960938 " transform="matrix(0.1,0,0,-0.1,0,242)"/>
<path style=" stroke:none;fill-rule:nonzero;fill:rgb(0%,0%,0%);fill-opacity:1;" d="M 110.273438 235.472656 L 110.273438 235.097656 L 112.527344 235.097656 L 112.527344 235.472656 Z M 114.953125 236.976562 L 114.953125 235.816406 L 113.109375 235.816406 L 113.109375 235.402344 L 114.953125 232.878906 L 115.464844 232.878906 L 115.464844 235.371094 L 116.011719 235.371094 L 116.011719 235.816406 L 115.464844 235.816406 L 115.464844 236.976562 Z M 113.644531 235.371094 L 114.988281 235.371094 L 114.988281 233.550781 "/>
<path style=" stroke:none;fill-rule:nonzero;fill:rgb(0%,0%,0%);fill-opacity:1;" d="M 110.273438 207.128906 L 110.273438 206.75 L 112.527344 206.75 L 112.527344 207.128906 Z M 113.394531 208.597656 L 113.394531 208.089844 C 113.785156 208.246094 114.09375 208.324219 114.320312 208.324219 C 114.578125 208.324219 114.789062 208.246094 114.953125 208.09375 C 115.117188 207.941406 115.199219 207.746094 115.199219 207.503906 C 115.199219 206.925781 114.796875 206.640625 113.988281 206.640625 L 113.773438 206.640625 L 113.773438 206.273438 L 113.964844 206.269531 C 114.722656 206.269531 115.101562 206.003906 115.101562 205.46875 C 115.101562 205.050781 114.851562 204.839844 114.351562 204.839844 C 114.078125 204.839844 113.777344 204.917969 113.449219 205.070312 L 113.449219 204.59375 C 113.773438 204.484375 114.085938 204.429688 114.390625 204.429688 C 115.230469 204.429688 115.648438 204.746094 115.648438 205.378906 C 115.648438 205.863281 115.363281 206.207031 114.792969 206.410156 C 115.453125 206.5625 115.785156 206.925781 115.785156 207.496094 C 115.785156 207.878906 115.65625 208.183594 115.402344 208.402344 C 115.148438 208.621094 114.796875 208.730469 114.351562 208.730469 C 114.101562 208.730469 113.78125 208.6875 113.394531 208.597656 "/>
<path style=" stroke:none;fill-rule:nonzero;fill:rgb(0%,0%,0%);fill-opacity:1;" d="M 110.273438 178.78125 L 110.273438 178.402344 L 112.527344 178.402344 L 112.527344 178.78125 Z M 113.289062 180.285156 L 113.289062 179.804688 C 113.449219 179.433594 113.769531 179.03125 114.253906 178.59375 L 114.566406 178.3125 C 114.96875 177.949219 115.167969 177.589844 115.167969 177.230469 C 115.167969 177 115.101562 176.820312 114.964844 176.691406 C 114.824219 176.558594 114.636719 176.492188 114.398438 176.492188 C 114.113281 176.492188 113.777344 176.601562 113.390625 176.824219 L 113.390625 176.339844 C 113.753906 176.167969 114.117188 176.085938 114.472656 176.085938 C 114.859375 176.085938 115.164062 176.1875 115.398438 176.394531 C 115.632812 176.601562 115.746094 176.875 115.746094 177.214844 C 115.746094 177.460938 115.6875 177.679688 115.570312 177.871094 C 115.453125 178.058594 115.234375 178.289062 114.917969 178.5625 L 114.707031 178.742188 C 114.269531 179.113281 114.015625 179.46875 113.949219 179.804688 L 115.726562 179.804688 L 115.726562 180.285156 "/>
<path style=" stroke:none;fill-rule:nonzero;fill:rgb(0%,0%,0%);fill-opacity:1;" d="M 110.273438 150.433594 L 110.273438 150.058594 L 112.527344 150.058594 L 112.527344 150.433594 Z M 113.671875 151.9375 L 113.671875 151.527344 L 114.492188 151.527344 L 114.492188 148.292969 L 113.671875 148.5 L 113.671875 148.078125 L 115.039062 147.738281 L 115.039062 151.527344 L 115.859375 151.527344 L 115.859375 151.9375 "/>
<path style=" stroke:none;fill-rule:nonzero;fill:rgb(0%,0%,0%);fill-opacity:1;" d="M 113.671875 95.8125 L 113.671875 95.402344 L 114.492188 95.402344 L 114.492188 92.167969 L 113.671875 92.371094 L 113.671875 91.953125 L 115.039062 91.613281 L 115.039062 95.402344 L 115.859375 95.402344 L 115.859375 95.8125 "/>
<path style=" stroke:none;fill-rule:nonzero;fill:rgb(0%,0%,0%);fill-opacity:1;" d="M 113.289062 67.464844 L 113.289062 66.984375 C 113.449219 66.613281 113.769531 66.210938 114.253906 65.773438 L 114.566406 65.492188 C 114.96875 65.128906 115.167969 64.769531 115.167969 64.410156 C 115.167969 64.183594 115.101562 64.003906 114.964844 63.871094 C 114.824219 63.738281 114.636719 63.675781 114.398438 63.675781 C 114.113281 63.675781 113.777344 63.785156 113.390625 64.003906 L 113.390625 63.523438 C 113.753906 63.351562 114.117188 63.265625 114.472656 63.265625 C 114.859375 63.265625 115.164062 63.367188 115.398438 63.574219 C 115.632812 63.78125 115.746094 64.054688 115.746094 64.398438 C 115.746094 64.644531 115.6875 64.859375 115.570312 65.050781 C 115.453125 65.242188 115.234375 65.472656 114.917969 65.742188 L 114.707031 65.921875 C 114.269531 66.292969 114.015625 66.648438 113.949219 66.984375 L 115.726562 66.984375 L 115.726562 67.464844 "/>
<path style=" stroke:none;fill-rule:nonzero;fill:rgb(0%,0%,0%);fill-opacity:1;" d="M 113.394531 39.085938 L 113.394531 38.578125 C 113.785156 38.734375 114.09375 38.8125 114.320312 38.8125 C 114.578125 38.8125 114.789062 38.734375 114.953125 38.582031 C 115.117188 38.429688 115.199219 38.234375 115.199219 37.992188 C 115.199219 37.414062 114.796875 37.128906 113.988281 37.128906 L 113.773438 37.128906 L 113.773438 36.761719 L 113.964844 36.757812 C 114.722656 36.757812 115.101562 36.488281 115.101562 35.957031 C 115.101562 35.539062 114.851562 35.328125 114.351562 35.328125 C 114.078125 35.328125 113.777344 35.40625 113.449219 35.558594 L 113.449219 35.082031 C 113.773438 34.972656 114.085938 34.917969 114.390625 34.917969 C 115.230469 34.917969 115.648438 35.234375 115.648438 35.867188 C 115.648438 36.351562 115.363281 36.691406 114.792969 36.898438 C 115.453125 37.050781 115.785156 37.414062 115.785156 37.984375 C 115.785156 38.367188 115.65625 38.671875 115.402344 38.890625 C 115.148438 39.109375 114.796875 39.222656 114.351562 39.222656 C 114.101562 39.222656 113.78125 39.175781 113.394531 39.085938 "/>
<path style=" stroke:none;fill-rule:nonzero;fill:rgb(0%,0%,0%);fill-opacity:1;" d="M 114.953125 10.769531 L 114.953125 9.613281 L 113.109375 9.613281 L 113.109375 9.199219 L 114.953125 6.675781 L 115.464844 6.675781 L 115.464844 9.164062 L 116.011719 9.164062 L 116.011719 9.613281 L 115.464844 9.613281 L 115.464844 10.769531 Z M 113.644531 9.164062 L 114.988281 9.164062 L 114.988281 7.34375 "/>
<path style=" stroke:none;fill-rule:nonzero;fill:rgb(0%,0%,0%);fill-opacity:1;" d="M 114.597656 129.929688 C 114.171875 129.929688 113.832031 129.730469 113.570312 129.332031 C 113.308594 128.933594 113.179688 128.414062 113.179688 127.773438 C 113.179688 127.128906 113.308594 126.609375 113.574219 126.21875 C 113.835938 125.824219 114.183594 125.628906 114.613281 125.628906 C 115.042969 125.628906 115.390625 125.824219 115.652344 126.21875 C 115.914062 126.609375 116.046875 127.128906 116.046875 127.765625 C 116.046875 128.425781 115.914062 128.949219 115.652344 129.339844 C 115.390625 129.734375 115.035156 129.929688 114.597656 129.929688 Z M 114.601562 129.519531 C 115.179688 129.519531 115.46875 128.933594 115.46875 127.757812 C 115.46875 126.609375 115.183594 126.035156 114.613281 126.035156 C 114.042969 126.035156 113.761719 126.617188 113.761719 127.773438 C 113.761719 128.9375 114.039062 129.519531 114.601562 129.519531 "/>
<path style="fill:none;stroke-width:15;stroke-linecap:round;stroke-linejoin:round;stroke:rgb(0%,0%,100%);stroke-opacity:1;stroke-miterlimit:10;" d="M 1199.0625 2023.28125 L 1202.382812 1990.703125 L 1205.664062 1958.515625 L 1208.984375 1926.71875 L 1212.304688 1895.273438 L 1215.625 1864.257812 L 1218.90625 1833.59375 L 1222.226562 1803.320312 L 1225.546875 1773.4375 L 1228.867188 1743.945312 L 1232.148438 1714.84375 L 1235.46875 1686.132812 L 1238.789062 1657.8125 L 1245.390625 1602.304688 L 1252.03125 1548.359375 L 1258.632812 1495.9375 L 1265.273438 1445.078125 L 1271.875 1395.78125 L 1278.515625 1348.007812 L 1285.15625 1301.796875 L 1291.757812 1257.148438 L 1298.398438 1213.984375 L 1305 1172.421875 L 1311.601562 1132.382812 L 1318.242188 1093.90625 L 1324.84375 1056.953125 L 1331.484375 1021.5625 L 1338.125 987.734375 L 1344.726562 955.429688 L 1351.367188 924.6875 L 1357.96875 895.46875 L 1364.609375 867.8125 L 1371.210938 841.71875 L 1377.851562 817.148438 L 1384.453125 794.140625 L 1391.09375 772.65625 L 1397.695312 752.734375 L 1404.335938 734.335938 L 1410.9375 717.539062 L 1417.578125 702.226562 L 1424.179688 688.515625 L 1430.820312 676.328125 L 1437.421875 665.664062 L 1444.0625 656.5625 L 1450.664062 649.023438 L 1457.304688 643.007812 L 1463.90625 638.554688 L 1467.226562 636.914062 L 1470.546875 635.664062 L 1477.148438 634.296875 L 1480.46875 634.179688 L 1483.789062 634.453125 L 1490.390625 636.210938 L 1493.710938 637.65625 L 1497.03125 639.492188 L 1503.632812 644.296875 L 1510.273438 650.664062 L 1516.875 658.59375 L 1523.515625 668.046875 L 1530.117188 679.0625 L 1536.757812 691.601562 L 1543.398438 705.742188 L 1550 721.367188 L 1556.601562 738.554688 L 1563.242188 757.304688 L 1569.84375 777.617188 L 1576.484375 799.453125 L 1583.125 822.851562 L 1589.726562 847.773438 L 1596.367188 874.257812 L 1602.96875 902.265625 L 1609.609375 931.835938 L 1616.210938 962.96875 L 1622.851562 995.625 L 1629.453125 1029.84375 L 1636.09375 1065.585938 L 1642.695312 1102.890625 L 1649.335938 1141.757812 L 1655.9375 1182.148438 L 1662.578125 1224.101562 L 1669.179688 1267.578125 L 1675.820312 1312.617188 L 1682.421875 1359.21875 L 1689.0625 1407.34375 L 1695.664062 1457.03125 L 1702.304688 1508.242188 L 1708.90625 1561.015625 L 1715.546875 1615.351562 L 1722.148438 1671.210938 L 1725.46875 1699.726562 L 1728.789062 1728.632812 L 1732.109375 1757.929688 L 1735.390625 1787.578125 L 1738.710938 1817.65625 L 1742.03125 1848.085938 L 1745.3125 1878.945312 L 1748.632812 1910.15625 L 1751.953125 1941.757812 L 1755.273438 1973.75 L 1758.59375 2006.132812 L 1761.875 2038.90625 L 1765.195312 2072.03125 L 1768.515625 2105.585938 L 1771.835938 2139.53125 L 1775.117188 2173.828125 L 1778.4375 2208.554688 L 1781.757812 2243.632812 L 1785.078125 2279.101562 L 1788.398438 2314.960938 L 1791.679688 2351.210938 L 1795 2387.851562 L 1798.28125 2424.84375 L 1801.601562 2462.265625 L 1804.921875 2500.078125 L 1808.242188 2538.242188 L 1811.5625 2576.796875 L 1814.84375 2615.742188 " transform="matrix(0.1,0,0,-0.1,0,242)"/>
<path style="fill:none;stroke-width:15;stroke-linecap:round;stroke-linejoin:round;stroke:rgb(0%,0%,100%);stroke-opacity:1;stroke-miterlimit:10;" d="M 636.679688 2588.828125 L 643.28125 2562.382812 L 649.921875 2535.9375 L 656.523438 2509.492188 L 663.125 2483.085938 L 669.726562 2456.640625 L 676.367188 2430.195312 L 696.171875 2350.859375 L 702.8125 2324.414062 L 729.21875 2218.632812 L 735.859375 2192.226562 L 755.664062 2112.890625 L 762.304688 2086.445312 L 788.710938 1980.664062 L 795.351562 1954.21875 L 801.953125 1927.773438 L 808.554688 1901.367188 L 815.15625 1874.921875 L 821.796875 1848.476562 L 841.601562 1769.140625 L 848.242188 1742.695312 L 874.648438 1636.914062 L 881.289062 1610.507812 L 901.09375 1531.171875 L 907.734375 1504.726562 L 934.140625 1398.945312 L 940.78125 1372.5 L 947.382812 1346.054688 L 953.984375 1319.648438 L 960.585938 1293.164062 L 967.226562 1266.757812 L 993.632812 1160.976562 L 1000.273438 1134.53125 L 1013.476562 1081.640625 L 1020.117188 1055.195312 L 1026.71875 1028.789062 L 1033.320312 1002.304688 L 1039.921875 975.898438 L 1046.523438 949.453125 L 1053.164062 923.007812 L 1072.96875 843.671875 L 1079.609375 817.226562 L 1106.015625 711.445312 L 1112.65625 685.039062 L 1132.460938 605.703125 L 1139.101562 579.257812 L 1158.90625 499.921875 L 1165.546875 473.476562 L 1185.351562 394.140625 L 1191.953125 367.734375 " transform="matrix(0.1,0,0,-0.1,0,242)"/>
<path style="fill:none;stroke-width:20;stroke-linecap:square;stroke-linejoin:miter;stroke:rgb(0%,0%,100%);stroke-opacity:1;stroke-miterlimit:10;" d="M 1218.90625 350.703125 C 1218.90625 338.203125 1208.75 328.046875 1196.210938 328.046875 C 1183.710938 328.046875 1173.554688 338.203125 1173.554688 350.703125 C 1173.554688 363.242188 1183.710938 373.398438 1196.210938 373.398438 C 1208.75 373.398438 1218.90625 363.242188 1218.90625 350.703125 Z M 1218.90625 350.703125 " transform="matrix(0.1,0,0,-0.1,0,242)"/>
<path style="fill:none;stroke-width:20;stroke-linecap:square;stroke-linejoin:miter;stroke:rgb(0%,0%,100%);stroke-opacity:1;stroke-miterlimit:10;" d="M 1218.90625 2051.484375 C 1218.90625 2038.984375 1208.75 2028.828125 1196.210938 2028.828125 C 1183.710938 2028.828125 1173.554688 2038.984375 1173.554688 2051.484375 C 1173.554688 2064.023438 1183.710938 2074.179688 1196.210938 2074.179688 C 1208.75 2074.179688 1218.90625 2064.023438 1218.90625 2051.484375 Z M 1218.90625 2051.484375 " transform="matrix(0.1,0,0,-0.1,0,242)"/>
</g>
</svg>
