<?xml version="1.0" encoding="UTF-8"?>
<svg xmlns="http://www.w3.org/2000/svg" xmlns:xlink="http://www.w3.org/1999/xlink" width="424pt" height="400pt" viewBox="0 0 424 400" version="1.1">
<g id="surface1">
<rect x="0" y="0" width="424" height="400" style="fill:rgb(100%,100%,100%);fill-opacity:1;stroke:none;"/>
<path style="fill:none;stroke-width:10;stroke-linecap:butt;stroke-linejoin:miter;stroke:rgb(0%,0%,0%);stroke-opacity:1;stroke-miterlimit:10;" d="M 441.523438 4081.953125 L 441.523438 -187.96875 " transform="matrix(0.1,0,0,-0.1,0,400)"/>
<path style="fill:none;stroke-width:10;stroke-linecap:butt;stroke-linejoin:miter;stroke:rgb(0%,0%,0%);stroke-opacity:1;stroke-miterlimit:10;" d="M -191.171875 3834.453125 L 5071.09375 3834.453125 " transform="matrix(0.1,0,0,-0.1,0,400)"/>
<path style=" stroke:none;fill-rule:nonzero;fill:rgb(0%,0%,0%);fill-opacity:1;" d="M 52.015625 29.296875 C 51.339844 29.296875 50.789062 28.980469 50.371094 28.339844 C 49.949219 27.703125 49.742188 26.867188 49.742188 25.839844 C 49.742188 24.800781 49.953125 23.96875 50.375 23.335938 C 50.796875 22.707031 51.351562 22.390625 52.042969 22.390625 C 52.734375 22.390625 53.289062 22.707031 53.714844 23.335938 C 54.136719 23.96875 54.347656 24.796875 54.347656 25.828125 C 54.347656 26.882812 54.136719 27.722656 53.714844 28.355469 C 53.289062 28.984375 52.726562 29.296875 52.015625 29.296875 Z M 52.027344 28.640625 C 52.953125 28.640625 53.417969 27.699219 53.417969 25.8125 C 53.417969 23.96875 52.960938 23.046875 52.042969 23.046875 C 51.132812 23.046875 50.675781 23.980469 50.675781 25.839844 C 50.675781 27.707031 51.125 28.640625 52.027344 28.640625 "/>
<path style="fill:none;stroke-width:10;stroke-linecap:butt;stroke-linejoin:miter;stroke:rgb(0%,0%,0%);stroke-opacity:1;stroke-miterlimit:10;" d="M 441.523438 3834.453125 L 441.523438 3798.046875 " transform="matrix(0.1,0,0,-0.1,0,400)"/>
<path style=" stroke:none;fill-rule:nonzero;fill:rgb(0%,0%,0%);fill-opacity:1;" d="M 99.992188 29.132812 L 99.992188 28.363281 C 100.246094 27.769531 100.761719 27.121094 101.539062 26.417969 L 102.042969 25.96875 C 102.6875 25.386719 103.011719 24.804688 103.011719 24.230469 C 103.011719 23.863281 102.902344 23.574219 102.679688 23.363281 C 102.460938 23.152344 102.15625 23.046875 101.769531 23.046875 C 101.316406 23.046875 100.777344 23.222656 100.15625 23.578125 L 100.15625 22.804688 C 100.742188 22.527344 101.320312 22.390625 101.894531 22.390625 C 102.511719 22.390625 103.007812 22.554688 103.378906 22.886719 C 103.753906 23.21875 103.941406 23.660156 103.941406 24.207031 C 103.941406 24.601562 103.847656 24.953125 103.65625 25.257812 C 103.46875 25.5625 103.121094 25.933594 102.605469 26.367188 L 102.269531 26.65625 C 101.566406 27.253906 101.160156 27.820312 101.050781 28.363281 L 103.910156 28.363281 L 103.910156 29.132812 "/>
<path style="fill:none;stroke-width:10;stroke-linecap:butt;stroke-linejoin:miter;stroke:rgb(0%,0%,0%);stroke-opacity:1;stroke-miterlimit:10;" d="M 1008.4375 3834.453125 L 1008.4375 3798.046875 " transform="matrix(0.1,0,0,-0.1,0,400)"/>
<path style=" stroke:none;fill-rule:nonzero;fill:rgb(0%,0%,0%);fill-opacity:1;" d="M 159.109375 29.132812 L 159.109375 27.269531 L 156.152344 27.269531 L 156.152344 26.609375 L 159.109375 22.554688 L 159.933594 22.554688 L 159.933594 26.554688 L 160.8125 26.554688 L 160.8125 27.269531 L 159.933594 27.269531 L 159.933594 29.132812 Z M 157.007812 26.554688 L 159.167969 26.554688 L 159.167969 23.628906 "/>
<path style="fill:none;stroke-width:10;stroke-linecap:butt;stroke-linejoin:miter;stroke:rgb(0%,0%,0%);stroke-opacity:1;stroke-miterlimit:10;" d="M 1575.351562 3834.453125 L 1575.351562 3798.046875 " transform="matrix(0.1,0,0,-0.1,0,400)"/>
<path style=" stroke:none;fill-rule:nonzero;fill:rgb(0%,0%,0%);fill-opacity:1;" d="M 213.695312 25.722656 C 214.113281 25.183594 214.640625 24.910156 215.273438 24.910156 C 215.847656 24.910156 216.320312 25.101562 216.683594 25.480469 C 217.050781 25.863281 217.234375 26.351562 217.234375 26.945312 C 217.234375 27.632812 217.027344 28.195312 216.617188 28.636719 C 216.207031 29.078125 215.6875 29.296875 215.054688 29.296875 C 214.328125 29.296875 213.761719 29.007812 213.355469 28.421875 C 212.945312 27.839844 212.738281 27.027344 212.738281 25.992188 C 212.738281 24.851562 212.976562 23.964844 213.445312 23.332031 C 213.914062 22.699219 214.574219 22.386719 215.429688 22.386719 C 215.820312 22.386719 216.308594 22.46875 216.894531 22.632812 L 216.894531 23.398438 C 216.277344 23.160156 215.769531 23.042969 215.375 23.042969 C 214.257812 23.042969 213.695312 23.9375 213.695312 25.722656 Z M 216.355469 27.140625 C 216.355469 26.644531 216.242188 26.253906 216.019531 25.96875 C 215.796875 25.683594 215.484375 25.542969 215.085938 25.542969 C 214.71875 25.542969 214.398438 25.664062 214.132812 25.914062 C 213.863281 26.164062 213.730469 26.464844 213.730469 26.8125 C 213.730469 27.363281 213.859375 27.808594 214.109375 28.140625 C 214.363281 28.472656 214.699219 28.640625 215.117188 28.640625 C 215.496094 28.640625 215.796875 28.503906 216.019531 28.234375 C 216.242188 27.960938 216.355469 27.597656 216.355469 27.140625 "/>
<path style="fill:none;stroke-width:10;stroke-linecap:butt;stroke-linejoin:miter;stroke:rgb(0%,0%,0%);stroke-opacity:1;stroke-miterlimit:10;" d="M 2142.304688 3834.453125 L 2142.304688 3798.046875 " transform="matrix(0.1,0,0,-0.1,0,400)"/>
<path style=" stroke:none;fill-rule:nonzero;fill:rgb(0%,0%,0%);fill-opacity:1;" d="M 271.582031 25.550781 C 270.9375 25.101562 270.617188 24.609375 270.617188 24.066406 C 270.617188 23.566406 270.800781 23.164062 271.164062 22.851562 C 271.527344 22.539062 272.003906 22.386719 272.589844 22.386719 C 273.132812 22.386719 273.574219 22.519531 273.910156 22.78125 C 274.246094 23.046875 274.414062 23.386719 274.414062 23.808594 C 274.414062 24.445312 274.003906 25.027344 273.1875 25.550781 C 274.179688 26.035156 274.675781 26.664062 274.675781 27.429688 C 274.675781 27.980469 274.46875 28.433594 274.050781 28.777344 C 273.636719 29.125 273.097656 29.296875 272.441406 29.296875 C 271.792969 29.296875 271.269531 29.136719 270.871094 28.808594 C 270.472656 28.480469 270.273438 28.050781 270.273438 27.515625 C 270.273438 26.726562 270.710938 26.070312 271.582031 25.550781 Z M 272.699219 25.273438 C 273.3125 24.871094 273.617188 24.421875 273.617188 23.929688 C 273.617188 23.664062 273.515625 23.453125 273.3125 23.289062 C 273.105469 23.128906 272.835938 23.046875 272.503906 23.046875 C 272.179688 23.046875 271.917969 23.128906 271.714844 23.285156 C 271.515625 23.445312 271.414062 23.648438 271.414062 23.902344 C 271.414062 24.148438 271.503906 24.367188 271.6875 24.5625 C 271.867188 24.757812 272.207031 24.992188 272.699219 25.273438 Z M 272.058594 25.90625 C 271.703125 26.179688 271.464844 26.417969 271.339844 26.621094 C 271.214844 26.824219 271.152344 27.074219 271.152344 27.378906 C 271.152344 27.753906 271.273438 28.058594 271.515625 28.289062 C 271.757812 28.523438 272.078125 28.640625 272.476562 28.640625 C 272.859375 28.640625 273.171875 28.539062 273.410156 28.34375 C 273.652344 28.144531 273.773438 27.886719 273.773438 27.570312 C 273.773438 27.3125 273.699219 27.097656 273.550781 26.921875 C 273.398438 26.746094 273.109375 26.53125 272.679688 26.273438 "/>
<path style="fill:none;stroke-width:10;stroke-linecap:butt;stroke-linejoin:miter;stroke:rgb(0%,0%,0%);stroke-opacity:1;stroke-miterlimit:10;" d="M 2709.21875 3834.453125 L 2709.21875 3798.046875 " transform="matrix(0.1,0,0,-0.1,0,400)"/>
<path style=" stroke:none;fill-rule:nonzero;fill:rgb(0%,0%,0%);fill-opacity:1;" d="M 324.574219 29.132812 L 324.574219 28.476562 L 325.890625 28.476562 L 325.890625 23.285156 L 324.574219 23.613281 L 324.574219 22.9375 L 326.769531 22.390625 L 326.769531 28.476562 L 328.085938 28.476562 L 328.085938 29.132812 Z M 331.8125 29.296875 C 331.136719 29.296875 330.585938 28.980469 330.167969 28.339844 C 329.746094 27.703125 329.539062 26.867188 329.539062 25.839844 C 329.539062 24.800781 329.75 23.96875 330.171875 23.335938 C 330.59375 22.707031 331.152344 22.390625 331.839844 22.390625 C 332.53125 22.390625 333.089844 22.707031 333.511719 23.335938 C 333.933594 23.96875 334.144531 24.796875 334.144531 25.828125 C 334.144531 26.882812 333.933594 27.722656 333.511719 28.355469 C 333.089844 28.984375 332.523438 29.296875 331.8125 29.296875 Z M 331.824219 28.640625 C 332.75 28.640625 333.214844 27.699219 333.214844 25.8125 C 333.214844 23.96875 332.757812 23.046875 331.839844 23.046875 C 330.929688 23.046875 330.472656 23.980469 330.472656 25.839844 C 330.472656 27.707031 330.921875 28.640625 331.824219 28.640625 "/>
<path style="fill:none;stroke-width:10;stroke-linecap:butt;stroke-linejoin:miter;stroke:rgb(0%,0%,0%);stroke-opacity:1;stroke-miterlimit:10;" d="M 3276.171875 3834.453125 L 3276.171875 3798.046875 " transform="matrix(0.1,0,0,-0.1,0,400)"/>
<path style=" stroke:none;fill-rule:nonzero;fill:rgb(0%,0%,0%);fill-opacity:1;" d="M 381.929688 29.132812 L 381.929688 28.476562 L 383.246094 28.476562 L 383.246094 23.285156 L 381.929688 23.613281 L 381.929688 22.9375 L 384.125 22.390625 L 384.125 28.476562 L 385.441406 28.476562 L 385.441406 29.132812 Z M 387.074219 29.132812 L 387.074219 28.363281 C 387.328125 27.769531 387.84375 27.121094 388.621094 26.417969 L 389.121094 25.96875 C 389.769531 25.386719 390.09375 24.804688 390.09375 24.230469 C 390.09375 23.863281 389.980469 23.574219 389.761719 23.363281 C 389.539062 23.152344 389.238281 23.046875 388.851562 23.046875 C 388.394531 23.046875 387.855469 23.222656 387.238281 23.578125 L 387.238281 22.804688 C 387.820312 22.527344 388.402344 22.390625 388.976562 22.390625 C 389.59375 22.390625 390.089844 22.554688 390.460938 22.886719 C 390.835938 23.21875 391.019531 23.660156 391.019531 24.207031 C 391.019531 24.601562 390.925781 24.953125 390.738281 25.257812 C 390.550781 25.5625 390.199219 25.933594 389.6875 26.367188 L 389.351562 26.65625 C 388.648438 27.253906 388.242188 27.820312 388.132812 28.363281 L 390.988281 28.363281 L 390.988281 29.132812 "/>
<path style="fill:none;stroke-width:10;stroke-linecap:butt;stroke-linejoin:miter;stroke:rgb(0%,0%,0%);stroke-opacity:1;stroke-miterlimit:10;" d="M 3843.085938 3834.453125 L 3843.085938 3798.046875 " transform="matrix(0.1,0,0,-0.1,0,400)"/>
<path style=" stroke:none;fill-rule:nonzero;fill:rgb(0%,0%,0%);fill-opacity:1;" d="M 25.046875 357.207031 L 25.046875 356.601562 L 28.667969 356.601562 L 28.667969 357.207031 Z M 30.503906 359.621094 L 30.503906 358.964844 L 31.820312 358.964844 L 31.820312 353.769531 L 30.503906 354.097656 L 30.503906 353.421875 L 32.699219 352.878906 L 32.699219 358.964844 L 34.015625 358.964844 L 34.015625 359.621094 Z M 35.648438 359.621094 L 35.648438 358.851562 C 35.902344 358.257812 36.417969 357.605469 37.195312 356.90625 L 37.695312 356.457031 C 38.34375 355.871094 38.664062 355.292969 38.664062 354.71875 C 38.664062 354.351562 38.554688 354.0625 38.332031 353.851562 C 38.113281 353.640625 37.808594 353.535156 37.425781 353.535156 C 36.96875 353.535156 36.429688 353.710938 35.8125 354.0625 L 35.8125 353.289062 C 36.394531 353.015625 36.972656 352.878906 37.550781 352.878906 C 38.164062 352.878906 38.660156 353.042969 39.035156 353.375 C 39.40625 353.707031 39.59375 354.148438 39.59375 354.695312 C 39.59375 355.089844 39.5 355.4375 39.3125 355.746094 C 39.125 356.050781 38.773438 356.421875 38.261719 356.855469 L 37.921875 357.144531 C 37.21875 357.742188 36.8125 358.308594 36.703125 358.851562 L 39.5625 358.851562 L 39.5625 359.621094 "/>
<path style="fill:none;stroke-width:10;stroke-linecap:butt;stroke-linejoin:miter;stroke:rgb(0%,0%,0%);stroke-opacity:1;stroke-miterlimit:10;" d="M 405.078125 432.890625 L 441.523438 432.890625 " transform="matrix(0.1,0,0,-0.1,0,400)"/>
<path style=" stroke:none;fill-rule:nonzero;fill:rgb(0%,0%,0%);fill-opacity:1;" d="M 25.046875 300.761719 L 25.046875 300.15625 L 28.667969 300.15625 L 28.667969 300.761719 Z M 30.503906 303.175781 L 30.503906 302.515625 L 31.820312 302.515625 L 31.820312 297.324219 L 30.503906 297.652344 L 30.503906 296.976562 L 32.699219 296.429688 L 32.699219 302.515625 L 34.015625 302.515625 L 34.015625 303.175781 Z M 37.746094 303.339844 C 37.066406 303.339844 36.515625 303.019531 36.097656 302.378906 C 35.679688 301.742188 35.46875 300.90625 35.46875 299.878906 C 35.46875 298.84375 35.679688 298.007812 36.101562 297.378906 C 36.523438 296.746094 37.082031 296.429688 37.773438 296.429688 C 38.460938 296.429688 39.019531 296.746094 39.441406 297.378906 C 39.863281 298.007812 40.074219 298.839844 40.074219 299.867188 C 40.074219 300.921875 39.863281 301.765625 39.441406 302.394531 C 39.019531 303.023438 38.453125 303.339844 37.746094 303.339844 Z M 37.753906 302.679688 C 38.679688 302.679688 39.144531 301.738281 39.144531 299.851562 C 39.144531 298.011719 38.6875 297.089844 37.773438 297.089844 C 36.859375 297.089844 36.402344 298.019531 36.402344 299.878906 C 36.402344 301.746094 36.851562 302.679688 37.753906 302.679688 "/>
<path style="fill:none;stroke-width:10;stroke-linecap:butt;stroke-linejoin:miter;stroke:rgb(0%,0%,0%);stroke-opacity:1;stroke-miterlimit:10;" d="M 405.078125 999.804688 L 441.523438 999.804688 " transform="matrix(0.1,0,0,-0.1,0,400)"/>
<path style=" stroke:none;fill-rule:nonzero;fill:rgb(0%,0%,0%);fill-opacity:1;" d="M 29.601562 244.3125 L 29.601562 243.710938 L 33.21875 243.710938 L 33.21875 244.3125 Z M 35.78125 243.144531 C 35.136719 242.695312 34.816406 242.203125 34.816406 241.660156 C 34.816406 241.160156 34.996094 240.757812 35.363281 240.445312 C 35.726562 240.136719 36.203125 239.980469 36.789062 239.980469 C 37.332031 239.980469 37.769531 240.109375 38.105469 240.375 C 38.445312 240.636719 38.613281 240.980469 38.613281 241.402344 C 38.613281 242.039062 38.203125 242.621094 37.386719 243.144531 C 38.378906 243.628906 38.875 244.257812 38.875 245.023438 C 38.875 245.574219 38.664062 246.023438 38.25 246.371094 C 37.832031 246.71875 37.296875 246.890625 36.636719 246.890625 C 35.992188 246.890625 35.46875 246.726562 35.070312 246.398438 C 34.671875 246.074219 34.472656 245.644531 34.472656 245.109375 C 34.472656 244.320312 34.910156 243.664062 35.78125 243.144531 Z M 36.894531 242.867188 C 37.507812 242.464844 37.816406 242.015625 37.816406 241.519531 C 37.816406 241.257812 37.714844 241.046875 37.507812 240.882812 C 37.304688 240.722656 37.035156 240.640625 36.699219 240.640625 C 36.378906 240.640625 36.113281 240.722656 35.914062 240.878906 C 35.710938 241.039062 35.609375 241.242188 35.609375 241.496094 C 35.609375 241.742188 35.703125 241.960938 35.882812 242.15625 C 36.066406 242.347656 36.402344 242.585938 36.894531 242.867188 Z M 36.253906 243.5 C 35.902344 243.773438 35.664062 244.011719 35.539062 244.214844 C 35.410156 244.414062 35.347656 244.667969 35.347656 244.972656 C 35.347656 245.347656 35.46875 245.652344 35.714844 245.886719 C 35.957031 246.117188 36.277344 246.234375 36.671875 246.234375 C 37.054688 246.234375 37.367188 246.132812 37.609375 245.9375 C 37.851562 245.738281 37.972656 245.480469 37.972656 245.160156 C 37.972656 244.90625 37.898438 244.691406 37.746094 244.515625 C 37.597656 244.339844 37.308594 244.125 36.878906 243.867188 "/>
<path style="fill:none;stroke-width:10;stroke-linecap:butt;stroke-linejoin:miter;stroke:rgb(0%,0%,0%);stroke-opacity:1;stroke-miterlimit:10;" d="M 405.078125 1566.757812 L 441.523438 1566.757812 " transform="matrix(0.1,0,0,-0.1,0,400)"/>
<path style=" stroke:none;fill-rule:nonzero;fill:rgb(0%,0%,0%);fill-opacity:1;" d="M 29.601562 186.957031 L 29.601562 186.351562 L 33.21875 186.351562 L 33.21875 186.957031 Z M 35.25 185.960938 C 35.667969 185.417969 36.195312 185.148438 36.828125 185.148438 C 37.402344 185.148438 37.875 185.335938 38.238281 185.71875 C 38.605469 186.097656 38.789062 186.585938 38.789062 187.183594 C 38.789062 187.867188 38.585938 188.429688 38.171875 188.871094 C 37.761719 189.3125 37.242188 189.535156 36.609375 189.535156 C 35.886719 189.535156 35.316406 189.242188 34.910156 188.660156 C 34.5 188.074219 34.292969 187.265625 34.292969 186.226562 C 34.292969 185.085938 34.53125 184.199219 35 183.570312 C 35.46875 182.9375 36.132812 182.621094 36.984375 182.621094 C 37.375 182.621094 37.863281 182.703125 38.453125 182.871094 L 38.453125 183.636719 C 37.832031 183.398438 37.324219 183.28125 36.929688 183.28125 C 35.8125 183.28125 35.25 184.171875 35.25 185.960938 Z M 37.910156 187.378906 C 37.910156 186.878906 37.796875 186.488281 37.574219 186.203125 C 37.351562 185.921875 37.039062 185.777344 36.640625 185.777344 C 36.273438 185.777344 35.953125 185.902344 35.6875 186.152344 C 35.417969 186.398438 35.285156 186.699219 35.285156 187.050781 C 35.285156 187.601562 35.414062 188.042969 35.667969 188.378906 C 35.917969 188.710938 36.253906 188.878906 36.671875 188.878906 C 37.050781 188.878906 37.351562 188.742188 37.574219 188.46875 C 37.796875 188.199219 37.910156 187.835938 37.910156 187.378906 "/>
<path style="fill:none;stroke-width:10;stroke-linecap:butt;stroke-linejoin:miter;stroke:rgb(0%,0%,0%);stroke-opacity:1;stroke-miterlimit:10;" d="M 405.078125 2133.671875 L 441.523438 2133.671875 " transform="matrix(0.1,0,0,-0.1,0,400)"/>
<path style=" stroke:none;fill-rule:nonzero;fill:rgb(0%,0%,0%);fill-opacity:1;" d="M 29.601562 130.507812 L 29.601562 129.90625 L 33.21875 129.90625 L 33.21875 130.507812 Z M 37.113281 132.921875 L 37.113281 131.0625 L 34.152344 131.0625 L 34.152344 130.398438 L 37.113281 126.34375 L 37.9375 126.34375 L 37.9375 130.34375 L 38.816406 130.34375 L 38.816406 131.0625 L 37.9375 131.0625 L 37.9375 132.921875 Z M 35.011719 130.34375 L 37.171875 130.34375 L 37.171875 127.421875 "/>
<path style="fill:none;stroke-width:10;stroke-linecap:butt;stroke-linejoin:miter;stroke:rgb(0%,0%,0%);stroke-opacity:1;stroke-miterlimit:10;" d="M 405.078125 2700.625 L 441.523438 2700.625 " transform="matrix(0.1,0,0,-0.1,0,400)"/>
<path style=" stroke:none;fill-rule:nonzero;fill:rgb(0%,0%,0%);fill-opacity:1;" d="M 29.601562 74.0625 L 29.601562 73.457031 L 33.21875 73.457031 L 33.21875 74.0625 Z M 34.441406 76.476562 L 34.441406 75.707031 C 34.695312 75.113281 35.210938 74.460938 35.988281 73.761719 L 36.492188 73.3125 C 37.136719 72.726562 37.460938 72.148438 37.460938 71.574219 C 37.460938 71.203125 37.351562 70.914062 37.128906 70.707031 C 36.90625 70.496094 36.605469 70.390625 36.21875 70.390625 C 35.765625 70.390625 35.226562 70.566406 34.605469 70.921875 L 34.605469 70.144531 C 35.191406 69.871094 35.769531 69.730469 36.34375 69.730469 C 36.960938 69.730469 37.457031 69.898438 37.828125 70.230469 C 38.203125 70.5625 38.390625 71.003906 38.390625 71.550781 C 38.390625 71.945312 38.296875 72.296875 38.105469 72.601562 C 37.917969 72.90625 37.570312 73.277344 37.054688 73.710938 L 36.71875 74 C 36.015625 74.597656 35.609375 75.164062 35.5 75.707031 L 38.359375 75.707031 L 38.359375 76.476562 "/>
<path style="fill:none;stroke-width:10;stroke-linecap:butt;stroke-linejoin:miter;stroke:rgb(0%,0%,0%);stroke-opacity:1;stroke-miterlimit:10;" d="M 405.078125 3267.539062 L 441.523438 3267.539062 " transform="matrix(0.1,0,0,-0.1,0,400)"/>
<path style=" stroke:none;fill-rule:nonzero;fill:rgb(0%,0%,0%);fill-opacity:1;" d="M 36.539062 14.730469 C 35.859375 14.730469 35.3125 14.410156 34.894531 13.773438 C 34.472656 13.136719 34.265625 12.300781 34.265625 11.273438 C 34.265625 10.234375 34.476562 9.402344 34.898438 8.769531 C 35.320312 8.140625 35.875 7.824219 36.566406 7.824219 C 37.257812 7.824219 37.8125 8.140625 38.234375 8.769531 C 38.65625 9.402344 38.871094 10.230469 38.871094 11.257812 C 38.871094 12.3125 38.65625 13.15625 38.234375 13.785156 C 37.8125 14.414062 37.25 14.730469 36.539062 14.730469 Z M 36.546875 14.074219 C 37.476562 14.074219 37.941406 13.132812 37.941406 11.246094 C 37.941406 9.402344 37.480469 8.480469 36.566406 8.480469 C 35.652344 8.480469 35.199219 9.410156 35.199219 11.273438 C 35.199219 13.140625 35.648438 14.074219 36.546875 14.074219 "/>
<path style="fill:none;stroke-width:10;stroke-linecap:butt;stroke-linejoin:miter;stroke:rgb(0%,0%,0%);stroke-opacity:1;stroke-miterlimit:10;" d="M 405.078125 3834.453125 L 441.523438 3834.453125 " transform="matrix(0.1,0,0,-0.1,0,400)"/>
<path style="fill:none;stroke-width:10;stroke-linecap:butt;stroke-linejoin:round;stroke:rgb(75.389099%,75.389099%,75.389099%);stroke-opacity:1;stroke-dasharray:50,40;stroke-miterlimit:10;" d="M 1008.4375 4100.15625 L 1008.4375 3834.453125 " transform="matrix(0.1,0,0,-0.1,0,400)"/>
<path style="fill:none;stroke-width:10;stroke-linecap:butt;stroke-linejoin:round;stroke:rgb(75.389099%,75.389099%,75.389099%);stroke-opacity:1;stroke-dasharray:50,40;stroke-miterlimit:10;" d="M 1008.4375 3661.484375 L 1008.4375 -187.96875 " transform="matrix(0.1,0,0,-0.1,0,400)"/>
<path style="fill:none;stroke-width:10;stroke-linecap:butt;stroke-linejoin:round;stroke:rgb(75.389099%,75.389099%,75.389099%);stroke-opacity:1;stroke-dasharray:50,40;stroke-miterlimit:10;" d="M 1575.351562 4100.15625 L 1575.351562 3834.453125 " transform="matrix(0.1,0,0,-0.1,0,400)"/>
<path style="fill:none;stroke-width:10;stroke-linecap:butt;stroke-linejoin:round;stroke:rgb(75.389099%,75.389099%,75.389099%);stroke-opacity:1;stroke-dasharray:50,40;stroke-miterlimit:10;" d="M 1575.351562 3661.484375 L 1575.351562 -187.96875 " transform="matrix(0.1,0,0,-0.1,0,400)"/>
<path style="fill:none;stroke-width:10;stroke-linecap:butt;stroke-linejoin:round;stroke:rgb(75.389099%,75.389099%,75.389099%);stroke-opacity:1;stroke-dasharray:50,40;stroke-miterlimit:10;" d="M 2142.304688 4100.15625 L 2142.304688 3834.453125 " transform="matrix(0.1,0,0,-0.1,0,400)"/>
<path style="fill:none;stroke-width:10;stroke-linecap:butt;stroke-linejoin:round;stroke:rgb(75.389099%,75.389099%,75.389099%);stroke-opacity:1;stroke-dasharray:50,40;stroke-miterlimit:10;" d="M 2142.304688 3661.484375 L 2142.304688 -187.96875 " transform="matrix(0.1,0,0,-0.1,0,400)"/>
<path style="fill:none;stroke-width:10;stroke-linecap:butt;stroke-linejoin:round;stroke:rgb(75.389099%,75.389099%,75.389099%);stroke-opacity:1;stroke-dasharray:50,40;stroke-miterlimit:10;" d="M 2709.21875 4100.15625 L 2709.21875 3834.453125 " transform="matrix(0.1,0,0,-0.1,0,400)"/>
<path style="fill:none;stroke-width:10;stroke-linecap:butt;stroke-linejoin:round;stroke:rgb(75.389099%,75.389099%,75.389099%);stroke-opacity:1;stroke-dasharray:50,40;stroke-miterlimit:10;" d="M 2709.21875 3661.484375 L 2709.21875 -187.96875 " transform="matrix(0.1,0,0,-0.1,0,400)"/>
<path style="fill:none;stroke-width:10;stroke-linecap:butt;stroke-linejoin:round;stroke:rgb(75.389099%,75.389099%,75.389099%);stroke-opacity:1;stroke-dasharray:50,40;stroke-miterlimit:10;" d="M 3276.171875 4100.15625 L 3276.171875 3834.453125 " transform="matrix(0.1,0,0,-0.1,0,400)"/>
<path style="fill:none;stroke-width:10;stroke-linecap:butt;stroke-linejoin:round;stroke:rgb(75.389099%,75.389099%,75.389099%);stroke-opacity:1;stroke-dasharray:50,40;stroke-miterlimit:10;" d="M 3276.171875 3661.484375 L 3276.171875 -187.96875 " transform="matrix(0.1,0,0,-0.1,0,400)"/>
<path style="fill:none;stroke-width:10;stroke-linecap:butt;stroke-linejoin:round;stroke:rgb(75.389099%,75.389099%,75.389099%);stroke-opacity:1;stroke-dasharray:50,40;stroke-miterlimit:10;" d="M 3843.085938 4100.15625 L 3843.085938 3834.453125 " transform="matrix(0.1,0,0,-0.1,0,400)"/>
<path style="fill:none;stroke-width:10;stroke-linecap:butt;stroke-linejoin:round;stroke:rgb(75.389099%,75.389099%,75.389099%);stroke-opacity:1;stroke-dasharray:50,40;stroke-miterlimit:10;" d="M 3843.085938 3661.484375 L 3843.085938 -187.96875 " transform="matrix(0.1,0,0,-0.1,0,400)"/>
<path style="fill:none;stroke-width:10;stroke-linecap:butt;stroke-linejoin:round;stroke:rgb(75.389099%,75.389099%,75.389099%);stroke-opacity:1;stroke-dasharray:50,40;stroke-miterlimit:10;" d="M -191.171875 3267.539062 L 213.90625 3267.539062 " transform="matrix(0.1,0,0,-0.1,0,400)"/>
<path style="fill:none;stroke-width:10;stroke-linecap:butt;stroke-linejoin:round;stroke:rgb(75.389099%,75.389099%,75.389099%);stroke-opacity:1;stroke-dasharray:50,40;stroke-miterlimit:10;" d="M 441.523438 3267.539062 L 5089.335938 3267.539062 " transform="matrix(0.1,0,0,-0.1,0,400)"/>
<path style="fill:none;stroke-width:10;stroke-linecap:butt;stroke-linejoin:round;stroke:rgb(75.389099%,75.389099%,75.389099%);stroke-opacity:1;stroke-dasharray:50,40;stroke-miterlimit:10;" d="M -191.171875 2700.625 L 213.90625 2700.625 " transform="matrix(0.1,0,0,-0.1,0,400)"/>
<path style="fill:none;stroke-width:10;stroke-linecap:butt;stroke-linejoin:round;stroke:rgb(75.389099%,75.389099%,75.389099%);stroke-opacity:1;stroke-dasharray:50,40;stroke-miterlimit:10;" d="M 441.523438 2700.625 L 5089.335938 2700.625 " transform="matrix(0.1,0,0,-0.1,0,400)"/>
<path style="fill:none;stroke-width:10;stroke-linecap:butt;stroke-linejoin:round;stroke:rgb(75.389099%,75.389099%,75.389099%);stroke-opacity:1;stroke-dasharray:50,40;stroke-miterlimit:10;" d="M -191.171875 2133.671875 L 213.90625 2133.671875 " transform="matrix(0.1,0,0,-0.1,0,400)"/>
<path style="fill:none;stroke-width:10;stroke-linecap:butt;stroke-linejoin:round;stroke:rgb(75.389099%,75.389099%,75.389099%);stroke-opacity:1;stroke-dasharray:50,40;stroke-miterlimit:10;" d="M 441.523438 2133.671875 L 5089.335938 2133.671875 " transform="matrix(0.1,0,0,-0.1,0,400)"/>
<path style="fill:none;stroke-width:10;stroke-linecap:butt;stroke-linejoin:round;stroke:rgb(75.389099%,75.389099%,75.389099%);stroke-opacity:1;stroke-dasharray:50,40;stroke-miterlimit:10;" d="M -191.171875 1566.757812 L 213.90625 1566.757812 " transform="matrix(0.1,0,0,-0.1,0,400)"/>
<path style="fill:none;stroke-width:10;stroke-linecap:butt;stroke-linejoin:round;stroke:rgb(75.389099%,75.389099%,75.389099%);stroke-opacity:1;stroke-dasharray:50,40;stroke-miterlimit:10;" d="M 441.523438 1566.757812 L 5089.335938 1566.757812 " transform="matrix(0.1,0,0,-0.1,0,400)"/>
<path style="fill:none;stroke-width:10;stroke-linecap:butt;stroke-linejoin:round;stroke:rgb(75.389099%,75.389099%,75.389099%);stroke-opacity:1;stroke-dasharray:50,40;stroke-miterlimit:10;" d="M -191.171875 999.804688 L 213.90625 999.804688 " transform="matrix(0.1,0,0,-0.1,0,400)"/>
<path style="fill:none;stroke-width:10;stroke-linecap:butt;stroke-linejoin:round;stroke:rgb(75.389099%,75.389099%,75.389099%);stroke-opacity:1;stroke-dasharray:50,40;stroke-miterlimit:10;" d="M 441.523438 999.804688 L 5089.335938 999.804688 " transform="matrix(0.1,0,0,-0.1,0,400)"/>
<path style="fill:none;stroke-width:10;stroke-linecap:butt;stroke-linejoin:round;stroke:rgb(75.389099%,75.389099%,75.389099%);stroke-opacity:1;stroke-dasharray:50,40;stroke-miterlimit:10;" d="M -191.171875 432.890625 L 213.90625 432.890625 " transform="matrix(0.1,0,0,-0.1,0,400)"/>
<path style="fill:none;stroke-width:10;stroke-linecap:butt;stroke-linejoin:round;stroke:rgb(75.389099%,75.389099%,75.389099%);stroke-opacity:1;stroke-dasharray:50,40;stroke-miterlimit:10;" d="M 441.523438 432.890625 L 5089.335938 432.890625 " transform="matrix(0.1,0,0,-0.1,0,400)"/>
<path style="fill:none;stroke-width:15;stroke-linecap:round;stroke-linejoin:round;stroke:rgb(0%,0%,100%);stroke-opacity:1;stroke-miterlimit:10;" d="M 1036.796875 1566.757812 C 1036.796875 1551.09375 1024.101562 1538.398438 1008.4375 1538.398438 C 992.773438 1538.398438 980.078125 1551.09375 980.078125 1566.757812 C 980.078125 1582.382812 992.773438 1595.078125 1008.4375 1595.078125 C 1024.101562 1595.078125 1036.796875 1582.382812 1036.796875 1566.757812 Z M 1036.796875 1566.757812 " transform="matrix(0.1,0,0,-0.1,0,400)"/>
<path style="fill:none;stroke-width:15;stroke-linecap:round;stroke-linejoin:round;stroke:rgb(0%,0%,100%);stroke-opacity:1;stroke-miterlimit:10;" d="M 724.960938 2417.148438 L 729.296875 2408.398438 L 733.671875 2399.53125 L 738.007812 2390.507812 L 740.15625 2385.9375 L 742.34375 2381.367188 L 744.492188 2376.71875 L 746.679688 2372.070312 L 748.867188 2367.382812 L 751.015625 2362.65625 L 753.203125 2357.890625 L 755.351562 2353.125 L 757.539062 2348.28125 L 759.6875 2343.4375 L 761.875 2338.554688 L 764.023438 2333.632812 L 766.210938 2328.671875 L 768.398438 2323.671875 L 770.546875 2318.671875 L 772.734375 2313.59375 L 774.882812 2308.515625 L 777.070312 2303.398438 L 779.21875 2298.242188 L 781.40625 2293.046875 L 783.554688 2287.851562 L 787.929688 2277.304688 L 790.078125 2271.953125 L 792.265625 2266.601562 L 794.414062 2261.210938 L 796.601562 2255.820312 L 798.75 2250.351562 L 800.9375 2244.882812 L 803.085938 2239.335938 L 805.273438 2233.789062 L 807.460938 2228.203125 L 809.609375 2222.578125 L 811.796875 2216.914062 L 813.945312 2211.25 L 816.132812 2205.546875 L 818.28125 2199.765625 L 820.46875 2193.984375 L 822.65625 2188.164062 L 824.804688 2182.304688 L 826.992188 2176.445312 L 829.140625 2170.507812 L 831.328125 2164.570312 L 833.476562 2158.554688 L 835.664062 2152.539062 L 837.8125 2146.484375 L 840 2140.429688 L 842.1875 2134.296875 L 844.335938 2128.164062 L 846.523438 2121.953125 L 848.671875 2115.742188 L 850.859375 2109.492188 L 853.007812 2103.203125 L 855.195312 2096.875 L 857.34375 2090.546875 L 861.71875 2077.734375 L 863.867188 2071.289062 L 866.054688 2064.804688 L 868.203125 2058.28125 L 870.390625 2051.71875 L 872.539062 2045.15625 L 874.726562 2038.554688 L 876.914062 2031.875 L 879.0625 2025.195312 L 881.25 2018.476562 L 883.398438 2011.71875 L 885.585938 2004.960938 L 887.734375 1998.125 L 889.921875 1991.289062 L 892.070312 1984.414062 L 894.257812 1977.460938 L 896.445312 1970.546875 L 898.59375 1963.554688 L 900.78125 1956.523438 L 902.929688 1949.492188 L 905.117188 1942.421875 L 907.265625 1935.273438 L 909.453125 1928.125 L 911.601562 1920.976562 L 913.789062 1913.75 L 915.976562 1906.484375 L 918.125 1899.21875 L 920.3125 1891.914062 L 922.460938 1884.53125 L 924.648438 1877.1875 L 926.796875 1869.765625 L 928.984375 1862.304688 L 931.132812 1854.84375 L 935.507812 1839.765625 L 937.65625 1832.1875 L 939.84375 1824.570312 L 941.992188 1816.914062 L 944.179688 1809.257812 L 946.328125 1801.523438 L 948.515625 1793.789062 L 950.703125 1786.015625 L 952.851562 1778.203125 L 955.039062 1770.351562 L 957.1875 1762.460938 L 959.375 1754.53125 L 961.523438 1746.601562 L 963.710938 1738.632812 L 965.859375 1730.625 L 968.046875 1722.578125 L 970.234375 1714.492188 L 972.382812 1706.367188 L 974.570312 1698.242188 L 976.71875 1690.039062 L 978.90625 1681.835938 L 981.054688 1673.59375 L 983.242188 1665.3125 L 985.390625 1656.992188 L 987.578125 1648.671875 L 989.765625 1640.273438 L 991.914062 1631.875 L 994.101562 1623.4375 L 996.25 1614.960938 L 998.4375 1606.445312 L 1000.585938 1597.890625 L 1002.773438 1589.296875 " transform="matrix(0.1,0,0,-0.1,0,400)"/>
<path style=" stroke:none;fill-rule:nonzero;fill:rgb(0%,0%,100%);fill-opacity:1;" d="M 88.667969 169.582031 L 88.027344 174.0625 C 87.886719 174.632812 87.671875 175.269531 87.386719 175.980469 C 87.386719 176.265625 87.316406 176.480469 87.171875 176.621094 C 86.890625 177.335938 86.460938 177.761719 85.894531 177.902344 C 85.894531 177.902344 85.824219 177.902344 85.679688 177.902344 C 85.253906 177.902344 84.898438 177.761719 84.613281 177.476562 C 84.472656 177.335938 84.398438 177.191406 84.398438 177.050781 C 84.398438 176.621094 84.613281 176.339844 85.039062 176.195312 C 85.039062 176.195312 85.109375 176.195312 85.253906 176.195312 C 85.539062 176.195312 85.679688 176.265625 85.679688 176.410156 C 85.679688 176.550781 85.679688 176.621094 85.679688 176.621094 C 85.679688 176.90625 85.539062 177.121094 85.253906 177.261719 C 85.253906 177.261719 85.183594 177.335938 85.039062 177.476562 C 85.183594 177.617188 85.394531 177.6875 85.679688 177.6875 C 86.105469 177.6875 86.390625 177.191406 86.535156 176.195312 C 86.675781 176.054688 86.746094 175.839844 86.746094 175.554688 L 86.746094 175.128906 L 87.8125 169.582031 L 86.960938 169.582031 C 86.675781 169.582031 86.535156 169.582031 86.535156 169.582031 C 86.535156 169.4375 86.605469 169.296875 86.746094 169.152344 L 88.027344 169.152344 C 88.167969 168.015625 88.3125 167.304688 88.453125 167.019531 C 88.738281 166.167969 89.164062 165.667969 89.734375 165.527344 C 89.878906 165.527344 90.019531 165.527344 90.160156 165.527344 C 90.589844 165.527344 90.945312 165.667969 91.226562 165.953125 C 91.226562 166.09375 91.226562 166.238281 91.226562 166.378906 C 91.226562 166.808594 91.085938 167.089844 90.800781 167.234375 C 90.800781 167.234375 90.730469 167.234375 90.589844 167.234375 C 90.304688 167.234375 90.160156 167.160156 90.160156 167.019531 C 90.019531 166.878906 89.949219 166.808594 89.949219 166.808594 C 89.949219 166.523438 90.089844 166.308594 90.375 166.167969 C 90.515625 166.167969 90.660156 166.09375 90.800781 165.953125 C 90.660156 165.8125 90.445312 165.738281 90.160156 165.738281 C 89.878906 165.738281 89.664062 165.882812 89.519531 166.167969 C 89.378906 166.308594 89.238281 166.808594 89.09375 167.660156 L 88.882812 169.152344 L 89.949219 169.152344 C 90.230469 169.152344 90.375 169.226562 90.375 169.367188 C 90.375 169.511719 90.304688 169.582031 90.160156 169.582031 L 88.667969 169.582031 "/>
<path style=" stroke:none;fill-rule:nonzero;fill:rgb(0%,0%,100%);fill-opacity:1;" d="M 94.925781 178.328125 C 94.925781 178.472656 94.925781 178.542969 94.925781 178.542969 C 94.785156 178.542969 94.5 178.328125 94.074219 177.902344 C 93.503906 177.335938 93.078125 176.691406 92.792969 175.980469 C 92.082031 174.703125 91.726562 173.277344 91.726562 171.714844 C 91.726562 170.148438 92.011719 168.726562 92.578125 167.445312 C 93.148438 166.449219 93.789062 165.667969 94.5 165.101562 C 94.640625 164.957031 94.785156 164.886719 94.925781 164.886719 C 94.925781 164.886719 94.925781 164.957031 94.925781 165.101562 C 94.925781 165.101562 94.855469 165.171875 94.714844 165.3125 C 93.289062 166.734375 92.578125 168.871094 92.578125 171.714844 C 92.578125 174.558594 93.289062 176.691406 94.714844 178.117188 C 94.855469 178.257812 94.925781 178.328125 94.925781 178.328125 "/>
<path style=" stroke:none;fill-rule:nonzero;fill:rgb(0%,0%,100%);fill-opacity:1;" d="M 100.238281 171.074219 L 99.8125 172.78125 C 99.667969 173.492188 99.597656 173.921875 99.597656 174.0625 C 99.597656 174.488281 99.738281 174.773438 100.023438 174.914062 C 100.167969 174.914062 100.308594 174.914062 100.449219 174.914062 C 100.878906 174.914062 101.234375 174.703125 101.519531 174.273438 C 101.804688 173.992188 102.015625 173.636719 102.15625 173.207031 C 102.15625 173.066406 102.230469 172.996094 102.371094 172.996094 C 102.515625 172.996094 102.585938 173.066406 102.585938 173.207031 C 102.585938 173.351562 102.441406 173.636719 102.15625 174.0625 C 101.589844 174.914062 101.019531 175.34375 100.449219 175.34375 C 99.738281 175.34375 99.242188 175.058594 98.957031 174.488281 C 98.957031 174.347656 98.957031 174.273438 98.957031 174.273438 C 98.671875 174.703125 98.316406 174.984375 97.890625 175.128906 C 97.75 175.269531 97.605469 175.34375 97.464844 175.34375 C 96.894531 175.34375 96.46875 175.128906 96.183594 174.703125 C 96.183594 174.703125 96.183594 174.558594 96.183594 174.273438 C 96.183594 173.992188 96.324219 173.777344 96.609375 173.636719 C 96.753906 173.636719 96.824219 173.636719 96.824219 173.636719 C 97.109375 173.636719 97.320312 173.707031 97.464844 173.847656 C 97.464844 173.992188 97.464844 174.0625 97.464844 174.0625 C 97.464844 174.347656 97.320312 174.558594 97.035156 174.703125 C 96.894531 174.703125 96.824219 174.703125 96.824219 174.703125 C 96.964844 174.84375 97.179688 174.914062 97.464844 174.914062 C 97.890625 174.914062 98.246094 174.632812 98.53125 174.0625 C 98.671875 173.921875 98.742188 173.777344 98.742188 173.636719 C 99.171875 171.785156 99.382812 170.648438 99.382812 170.222656 C 99.382812 169.652344 99.171875 169.367188 98.742188 169.367188 C 98.316406 169.367188 97.890625 169.652344 97.464844 170.222656 C 97.320312 170.363281 97.179688 170.578125 97.035156 170.859375 C 97.035156 170.859375 97.035156 170.933594 97.035156 171.074219 L 96.824219 171.289062 C 96.679688 171.289062 96.609375 171.289062 96.609375 171.289062 C 96.609375 171.003906 96.753906 170.648438 97.035156 170.222656 C 97.464844 169.511719 98.03125 169.152344 98.742188 169.152344 C 99.457031 169.152344 99.953125 169.511719 100.238281 170.222656 C 100.523438 169.652344 100.878906 169.296875 101.304688 169.152344 C 101.445312 169.152344 101.589844 169.152344 101.730469 169.152344 C 102.300781 169.152344 102.65625 169.296875 102.796875 169.582031 C 102.941406 169.722656 103.011719 169.863281 103.011719 170.007812 C 103.011719 170.433594 102.796875 170.648438 102.371094 170.648438 C 102.371094 170.789062 102.300781 170.859375 102.15625 170.859375 C 101.875 170.859375 101.730469 170.71875 101.730469 170.433594 C 101.730469 170.433594 101.730469 170.363281 101.730469 170.222656 C 101.730469 169.9375 101.875 169.722656 102.15625 169.582031 C 102.15625 169.582031 102.230469 169.582031 102.371094 169.582031 C 102.230469 169.4375 102.015625 169.367188 101.730469 169.367188 C 101.019531 169.367188 100.59375 169.863281 100.449219 170.859375 C 100.308594 170.859375 100.238281 170.933594 100.238281 171.074219 "/>
<path style=" stroke:none;fill-rule:nonzero;fill:rgb(0%,0%,100%);fill-opacity:1;" d="M 107.402344 171.714844 C 107.402344 173.277344 107.117188 174.703125 106.550781 175.980469 C 106.121094 176.976562 105.554688 177.761719 104.84375 178.328125 C 104.699219 178.472656 104.558594 178.542969 104.414062 178.542969 C 104.414062 178.542969 104.414062 178.472656 104.414062 178.328125 C 104.414062 178.328125 104.414062 178.257812 104.414062 178.117188 C 105.980469 176.691406 106.761719 174.558594 106.761719 171.714844 C 106.761719 168.871094 106.050781 166.734375 104.628906 165.3125 C 104.484375 165.171875 104.414062 165.101562 104.414062 165.101562 C 104.414062 164.957031 104.414062 164.886719 104.414062 164.886719 C 104.558594 164.886719 104.84375 165.101562 105.269531 165.527344 C 105.839844 166.09375 106.265625 166.734375 106.550781 167.445312 C 107.117188 168.726562 107.402344 170.148438 107.402344 171.714844 "/>
<path style=" stroke:none;fill-rule:nonzero;fill:rgb(0%,0%,100%);fill-opacity:1;" d="M 125.847656 170.648438 L 117.738281 170.648438 C 117.453125 170.648438 117.3125 170.578125 117.3125 170.433594 C 117.3125 170.292969 117.453125 170.222656 117.738281 170.222656 L 125.847656 170.222656 C 126.132812 170.222656 126.273438 170.292969 126.273438 170.433594 C 126.273438 170.578125 126.132812 170.648438 125.847656 170.648438 Z M 125.847656 173.207031 L 117.738281 173.207031 C 117.453125 173.207031 117.3125 173.136719 117.3125 172.996094 C 117.3125 172.851562 117.453125 172.78125 117.738281 172.78125 L 125.847656 172.78125 C 126.132812 172.78125 126.273438 172.851562 126.273438 172.996094 C 126.273438 173.136719 126.132812 173.207031 125.847656 173.207031 "/>
<path style=" stroke:none;fill-rule:nonzero;fill:rgb(0%,0%,100%);fill-opacity:1;" d="M 140.359375 157.140625 L 140.359375 164.824219 C 140.359375 165.105469 140.433594 165.25 140.574219 165.25 C 140.71875 165.390625 141.074219 165.464844 141.640625 165.464844 L 142.066406 165.464844 L 142.066406 165.890625 C 141.785156 165.890625 141.003906 165.890625 139.722656 165.890625 C 138.582031 165.890625 137.871094 165.890625 137.589844 165.890625 L 137.589844 165.464844 L 138.015625 165.464844 C 138.726562 165.464844 139.152344 165.390625 139.296875 165.25 C 139.296875 165.105469 139.296875 164.964844 139.296875 164.824219 L 139.296875 157.78125 C 138.867188 157.925781 138.300781 157.996094 137.589844 157.996094 L 137.589844 157.566406 C 138.582031 157.566406 139.367188 157.285156 139.933594 156.714844 C 140.21875 156.714844 140.359375 156.785156 140.359375 156.929688 C 140.359375 156.929688 140.359375 157 140.359375 157.140625 "/>
<path style=" stroke:none;fill-rule:nonzero;fill:rgb(0%,0%,100%);fill-opacity:1;" d="M 144.84375 161.410156 C 145.269531 160.554688 145.839844 160.128906 146.550781 160.128906 C 147.402344 160.128906 148.113281 160.484375 148.683594 161.195312 C 148.96875 161.480469 149.179688 161.90625 149.324219 162.476562 C 149.324219 162.617188 149.324219 162.832031 149.324219 163.117188 C 149.324219 164.113281 148.96875 164.894531 148.257812 165.464844 C 147.828125 165.890625 147.261719 166.105469 146.550781 166.105469 C 145.695312 166.105469 144.984375 165.675781 144.414062 164.824219 C 143.988281 164.113281 143.773438 163.046875 143.773438 161.621094 C 143.773438 160.058594 144.203125 158.777344 145.054688 157.78125 C 145.765625 157.070312 146.550781 156.714844 147.402344 156.714844 C 148.113281 156.714844 148.613281 157 148.898438 157.566406 C 149.039062 157.851562 149.109375 158.066406 149.109375 158.207031 C 149.109375 158.636719 148.898438 158.847656 148.46875 158.847656 C 148.1875 158.847656 147.972656 158.777344 147.828125 158.636719 C 147.828125 158.492188 147.828125 158.351562 147.828125 158.207031 C 147.828125 157.925781 148.042969 157.78125 148.46875 157.78125 C 148.328125 157.355469 147.972656 157.140625 147.402344 157.140625 C 146.691406 157.140625 146.121094 157.425781 145.695312 157.996094 C 145.128906 158.707031 144.84375 159.703125 144.84375 160.980469 Z M 146.550781 165.890625 C 147.117188 165.890625 147.546875 165.535156 147.828125 164.824219 C 147.972656 164.539062 148.042969 163.96875 148.042969 163.117188 C 148.042969 162.121094 147.972656 161.480469 147.828125 161.195312 C 147.546875 160.628906 147.117188 160.34375 146.550781 160.34375 C 145.839844 160.34375 145.339844 160.769531 145.054688 161.621094 C 145.054688 162.050781 145.054688 162.476562 145.054688 162.902344 C 145.054688 163.757812 145.128906 164.394531 145.269531 164.824219 C 145.410156 165.25 145.695312 165.535156 146.121094 165.675781 C 146.265625 165.820312 146.40625 165.890625 146.550781 165.890625 "/>
<path style=" stroke:none;fill-rule:nonzero;fill:rgb(0%,0%,100%);fill-opacity:1;" d="M 161.960938 162.6875 L 154.492188 162.6875 C 154.207031 162.6875 154.066406 162.617188 154.066406 162.476562 C 154.066406 162.335938 154.207031 162.261719 154.492188 162.261719 L 161.960938 162.261719 C 162.246094 162.261719 162.386719 162.335938 162.386719 162.476562 C 162.386719 162.617188 162.246094 162.6875 161.960938 162.6875 "/>
<path style=" stroke:none;fill-rule:nonzero;fill:rgb(0%,0%,100%);fill-opacity:1;" d="M 171.136719 161.835938 L 170.710938 163.542969 C 170.566406 164.253906 170.496094 164.679688 170.496094 164.824219 C 170.496094 165.25 170.636719 165.535156 170.921875 165.675781 C 171.066406 165.675781 171.207031 165.675781 171.351562 165.675781 C 171.777344 165.675781 172.132812 165.464844 172.414062 165.035156 C 172.699219 164.753906 172.914062 164.394531 173.058594 163.96875 C 173.058594 163.828125 173.128906 163.757812 173.269531 163.757812 C 173.410156 163.757812 173.484375 163.828125 173.484375 163.96875 C 173.484375 164.113281 173.339844 164.394531 173.058594 164.824219 C 172.488281 165.675781 171.917969 166.105469 171.351562 166.105469 C 170.636719 166.105469 170.140625 165.820312 169.855469 165.25 C 169.855469 165.105469 169.855469 165.035156 169.855469 165.035156 C 169.570312 165.464844 169.214844 165.746094 168.789062 165.890625 C 168.644531 166.03125 168.503906 166.105469 168.363281 166.105469 C 167.792969 166.105469 167.367188 165.890625 167.082031 165.464844 C 167.082031 165.464844 167.082031 165.320312 167.082031 165.035156 C 167.082031 164.753906 167.222656 164.539062 167.507812 164.394531 C 167.652344 164.394531 167.722656 164.394531 167.722656 164.394531 C 168.007812 164.394531 168.21875 164.46875 168.363281 164.609375 C 168.363281 164.753906 168.363281 164.824219 168.363281 164.824219 C 168.363281 165.105469 168.21875 165.320312 167.933594 165.464844 C 167.792969 165.464844 167.722656 165.464844 167.722656 165.464844 C 167.863281 165.605469 168.078125 165.675781 168.363281 165.675781 C 168.789062 165.675781 169.144531 165.390625 169.429688 164.824219 C 169.570312 164.679688 169.640625 164.539062 169.640625 164.394531 C 170.070312 162.546875 170.28125 161.410156 170.28125 160.980469 C 170.28125 160.414062 170.070312 160.128906 169.640625 160.128906 C 169.214844 160.128906 168.789062 160.414062 168.363281 160.980469 C 168.21875 161.125 168.078125 161.339844 167.933594 161.621094 C 167.933594 161.621094 167.933594 161.691406 167.933594 161.835938 L 167.722656 162.050781 C 167.578125 162.050781 167.507812 162.050781 167.507812 162.050781 C 167.507812 161.765625 167.652344 161.410156 167.933594 160.980469 C 168.363281 160.269531 168.929688 159.914062 169.640625 159.914062 C 170.355469 159.914062 170.851562 160.269531 171.136719 160.980469 C 171.421875 160.414062 171.777344 160.058594 172.203125 159.914062 C 172.34375 159.914062 172.488281 159.914062 172.628906 159.914062 C 173.199219 159.914062 173.554688 160.058594 173.695312 160.34375 C 173.839844 160.484375 173.910156 160.628906 173.910156 160.769531 C 173.910156 161.195312 173.695312 161.410156 173.269531 161.410156 C 173.269531 161.550781 173.199219 161.621094 173.058594 161.621094 C 172.773438 161.621094 172.628906 161.480469 172.628906 161.195312 C 172.628906 161.195312 172.628906 161.125 172.628906 160.980469 C 172.628906 160.699219 172.773438 160.484375 173.058594 160.34375 C 173.058594 160.34375 173.128906 160.34375 173.269531 160.34375 C 173.128906 160.199219 172.914062 160.128906 172.628906 160.128906 C 171.917969 160.128906 171.492188 160.628906 171.351562 161.621094 C 171.207031 161.621094 171.136719 161.691406 171.136719 161.835938 "/>
<path style=" stroke:none;fill-rule:nonzero;fill:rgb(0%,0%,100%);fill-opacity:1;" d="M 174.757812 159.289062 L 174.757812 158.992188 L 177.597656 154.511719 C 177.695312 154.511719 177.796875 154.511719 177.894531 154.511719 C 177.996094 154.511719 178.046875 154.511719 178.046875 154.511719 L 178.046875 158.992188 L 178.941406 158.992188 L 178.941406 159.289062 L 178.046875 159.289062 L 178.046875 160.1875 C 178.046875 160.386719 178.09375 160.484375 178.195312 160.484375 C 178.195312 160.585938 178.394531 160.636719 178.792969 160.636719 L 178.941406 160.636719 L 178.941406 160.933594 C 178.644531 160.933594 178.195312 160.933594 177.597656 160.933594 C 177 160.933594 176.601562 160.933594 176.402344 160.933594 L 176.402344 160.636719 L 176.550781 160.636719 C 176.949219 160.636719 177.199219 160.585938 177.296875 160.484375 C 177.296875 160.386719 177.296875 160.285156 177.296875 160.1875 L 177.296875 159.289062 Z M 177.296875 158.992188 L 177.296875 155.558594 L 175.058594 158.992188 L 177.296875 158.992188 "/>
<path style=" stroke:none;fill-rule:nonzero;fill:rgb(0%,0%,100%);fill-opacity:1;" d="M 136.308594 171.988281 L 179.695312 171.988281 L 179.695312 171.441406 L 136.308594 171.441406 Z M 136.308594 171.988281 "/>
<path style=" stroke:none;fill-rule:nonzero;fill:rgb(0%,0%,100%);fill-opacity:1;" d="M 144.203125 180.441406 L 143.773438 182.148438 C 143.632812 182.859375 143.5625 183.285156 143.5625 183.429688 C 143.5625 183.855469 143.703125 184.140625 143.988281 184.28125 C 144.132812 184.28125 144.273438 184.28125 144.414062 184.28125 C 144.84375 184.28125 145.199219 184.070312 145.480469 183.644531 C 145.765625 183.359375 145.980469 183.003906 146.121094 182.574219 C 146.121094 182.433594 146.195312 182.363281 146.335938 182.363281 C 146.480469 182.363281 146.550781 182.433594 146.550781 182.574219 C 146.550781 182.71875 146.40625 183.003906 146.121094 183.429688 C 145.554688 184.28125 144.984375 184.710938 144.414062 184.710938 C 143.703125 184.710938 143.207031 184.425781 142.921875 183.855469 C 142.921875 183.714844 142.921875 183.644531 142.921875 183.644531 C 142.636719 184.070312 142.28125 184.355469 141.855469 184.496094 C 141.714844 184.640625 141.570312 184.710938 141.429688 184.710938 C 140.859375 184.710938 140.433594 184.496094 140.148438 184.070312 C 140.148438 184.070312 140.148438 183.925781 140.148438 183.644531 C 140.148438 183.359375 140.289062 183.144531 140.574219 183.003906 C 140.71875 183.003906 140.789062 183.003906 140.789062 183.003906 C 141.074219 183.003906 141.285156 183.074219 141.429688 183.214844 C 141.429688 183.359375 141.429688 183.429688 141.429688 183.429688 C 141.429688 183.714844 141.285156 183.925781 141.003906 184.070312 C 140.859375 184.070312 140.789062 184.070312 140.789062 184.070312 C 140.929688 184.210938 141.144531 184.28125 141.429688 184.28125 C 141.855469 184.28125 142.210938 183.996094 142.496094 183.429688 C 142.636719 183.285156 142.710938 183.144531 142.710938 183.003906 C 143.136719 181.152344 143.347656 180.015625 143.347656 179.589844 C 143.347656 179.019531 143.136719 178.734375 142.710938 178.734375 C 142.28125 178.734375 141.855469 179.019531 141.429688 179.589844 C 141.285156 179.730469 141.144531 179.945312 141.003906 180.230469 C 141.003906 180.230469 141.003906 180.300781 141.003906 180.441406 L 140.789062 180.65625 C 140.644531 180.65625 140.574219 180.65625 140.574219 180.65625 C 140.574219 180.371094 140.71875 180.015625 141.003906 179.589844 C 141.429688 178.878906 141.996094 178.519531 142.710938 178.519531 C 143.421875 178.519531 143.917969 178.878906 144.203125 179.589844 C 144.488281 179.019531 144.84375 178.664062 145.269531 178.519531 C 145.410156 178.519531 145.554688 178.519531 145.695312 178.519531 C 146.265625 178.519531 146.621094 178.664062 146.761719 178.949219 C 146.90625 179.089844 146.976562 179.234375 146.976562 179.375 C 146.976562 179.800781 146.761719 180.015625 146.335938 180.015625 C 146.335938 180.15625 146.265625 180.230469 146.121094 180.230469 C 145.839844 180.230469 145.695312 180.085938 145.695312 179.800781 C 145.695312 179.800781 145.695312 179.730469 145.695312 179.589844 C 145.695312 179.304688 145.839844 179.089844 146.121094 178.949219 C 146.121094 178.949219 146.195312 178.949219 146.335938 178.949219 C 146.195312 178.804688 145.980469 178.734375 145.695312 178.734375 C 144.984375 178.734375 144.558594 179.234375 144.414062 180.230469 C 144.273438 180.230469 144.203125 180.300781 144.203125 180.441406 "/>
<path style=" stroke:none;fill-rule:nonzero;fill:rgb(0%,0%,100%);fill-opacity:1;" d="M 151.859375 178.90625 L 151.558594 180.550781 L 147.976562 180.550781 C 147.976562 180.351562 148.023438 180.253906 148.125 180.253906 L 149.914062 178.160156 C 150.613281 177.363281 150.960938 176.667969 150.960938 176.070312 C 150.960938 175.472656 150.761719 175.023438 150.363281 174.726562 C 150.164062 174.527344 149.914062 174.425781 149.617188 174.425781 C 149.21875 174.425781 148.871094 174.625 148.570312 175.023438 C 148.472656 175.125 148.421875 175.273438 148.421875 175.472656 C 148.421875 175.472656 148.472656 175.472656 148.570312 175.472656 C 148.769531 175.472656 148.921875 175.570312 149.019531 175.769531 C 149.019531 175.871094 149.019531 175.921875 149.019531 175.921875 C 149.019531 176.21875 148.871094 176.367188 148.570312 176.367188 C 148.570312 176.46875 148.570312 176.519531 148.570312 176.519531 C 148.273438 176.519531 148.074219 176.417969 147.976562 176.21875 C 147.976562 176.121094 147.976562 176.019531 147.976562 175.921875 C 147.976562 175.421875 148.171875 175.023438 148.570312 174.726562 C 148.871094 174.328125 149.269531 174.128906 149.765625 174.128906 C 150.464844 174.128906 151.011719 174.378906 151.410156 174.875 C 151.609375 175.175781 151.757812 175.523438 151.859375 175.921875 C 151.859375 175.921875 151.859375 175.972656 151.859375 176.070312 C 151.859375 176.46875 151.660156 176.914062 151.261719 177.414062 C 151.0625 177.613281 150.761719 177.863281 150.363281 178.160156 L 149.914062 178.757812 L 149.765625 178.757812 L 148.722656 179.804688 L 150.515625 179.804688 C 151.011719 179.804688 151.308594 179.804688 151.410156 179.804688 C 151.410156 179.703125 151.460938 179.40625 151.558594 178.90625 L 151.859375 178.90625 "/>
<path style=" stroke:none;fill-rule:nonzero;fill:rgb(0%,0%,100%);fill-opacity:1;" d="M 164.757812 181.296875 L 157.289062 181.296875 C 157.003906 181.296875 156.863281 181.226562 156.863281 181.082031 C 156.863281 180.941406 157.003906 180.867188 157.289062 180.867188 L 164.757812 180.867188 C 165.042969 180.867188 165.183594 180.941406 165.183594 181.082031 C 165.183594 181.226562 165.042969 181.296875 164.757812 181.296875 "/>
<path style=" stroke:none;fill-rule:nonzero;fill:rgb(0%,0%,100%);fill-opacity:1;" d="M 169.878906 182.148438 L 169.878906 181.722656 L 173.933594 175.320312 C 174.074219 175.320312 174.21875 175.320312 174.359375 175.320312 C 174.503906 175.320312 174.574219 175.320312 174.574219 175.320312 L 174.574219 181.722656 L 175.855469 181.722656 L 175.855469 182.148438 L 174.574219 182.148438 L 174.574219 183.429688 C 174.574219 183.714844 174.644531 183.855469 174.785156 183.855469 C 174.785156 183.996094 175.070312 184.070312 175.640625 184.070312 L 175.855469 184.070312 L 175.855469 184.496094 C 175.425781 184.496094 174.785156 184.496094 173.933594 184.496094 C 173.078125 184.496094 172.511719 184.496094 172.226562 184.496094 L 172.226562 184.070312 L 172.441406 184.070312 C 173.007812 184.070312 173.363281 183.996094 173.507812 183.855469 C 173.507812 183.714844 173.507812 183.570312 173.507812 183.429688 L 173.507812 182.148438 Z M 173.507812 181.722656 L 173.507812 176.8125 L 170.304688 181.722656 L 173.507812 181.722656 "/>
<path style="fill:none;stroke-width:15;stroke-linecap:round;stroke-linejoin:round;stroke:rgb(0%,0%,100%);stroke-opacity:1;stroke-miterlimit:10;" d="M 1014.101562 1543.945312 L 1016.289062 1535.15625 L 1018.4375 1526.367188 L 1020.625 1517.5 L 1022.773438 1508.632812 L 1027.148438 1490.742188 L 1029.296875 1481.757812 L 1031.484375 1472.734375 L 1033.632812 1463.710938 L 1035.820312 1454.609375 L 1037.96875 1445.507812 L 1040.15625 1436.367188 L 1042.304688 1427.1875 L 1044.492188 1417.96875 L 1046.640625 1408.710938 L 1051.015625 1390.117188 L 1053.164062 1380.742188 L 1055.351562 1371.367188 L 1057.539062 1361.953125 L 1059.6875 1352.5 L 1061.875 1343.007812 L 1064.023438 1333.515625 L 1066.210938 1323.945312 L 1068.359375 1314.375 L 1070.546875 1304.765625 L 1072.695312 1295.117188 L 1074.882812 1285.429688 L 1077.03125 1275.703125 L 1079.21875 1265.976562 L 1081.40625 1256.171875 L 1083.554688 1246.367188 L 1085.742188 1236.523438 L 1087.890625 1226.640625 L 1090.078125 1216.71875 L 1092.226562 1206.796875 L 1094.414062 1196.796875 L 1096.5625 1186.796875 L 1100.9375 1166.640625 L 1103.085938 1156.523438 L 1105.273438 1146.40625 L 1107.421875 1136.210938 L 1109.609375 1126.015625 L 1111.757812 1115.742188 L 1113.945312 1105.46875 L 1116.09375 1095.15625 L 1118.28125 1084.804688 L 1120.46875 1074.414062 L 1122.617188 1064.023438 L 1124.804688 1053.554688 L 1126.953125 1043.085938 L 1129.140625 1032.578125 L 1131.289062 1022.03125 L 1133.476562 1011.445312 L 1135.625 1000.859375 L 1137.8125 990.195312 L 1139.960938 979.53125 L 1142.148438 968.828125 L 1144.335938 958.046875 L 1146.484375 947.265625 L 1148.671875 936.484375 L 1150.859375 925.625 L 1153.007812 914.765625 L 1155.195312 903.828125 L 1157.34375 892.890625 L 1159.53125 881.914062 L 1161.679688 870.898438 L 1163.867188 859.84375 L 1166.015625 848.789062 L 1168.203125 837.65625 L 1170.351562 826.523438 L 1172.539062 815.351562 L 1174.726562 804.140625 L 1176.875 792.890625 L 1179.0625 781.601562 L 1181.210938 770.3125 L 1183.398438 758.984375 L 1185.546875 747.578125 L 1187.734375 736.171875 L 1189.882812 724.726562 L 1192.070312 713.28125 L 1194.257812 701.757812 L 1196.40625 690.195312 L 1198.59375 678.632812 L 1200.742188 667.03125 L 1202.929688 655.390625 L 1205.078125 643.710938 L 1207.265625 631.992188 L 1209.414062 620.273438 L 1213.789062 596.679688 L 1215.9375 584.84375 L 1218.125 572.96875 L 1220.273438 561.054688 L 1224.648438 537.148438 L 1228.945312 513.085938 L 1231.132812 501.015625 L 1233.28125 488.90625 L 1235.46875 476.757812 L 1237.65625 464.570312 L 1239.804688 452.382812 L 1241.992188 440.117188 L 1244.140625 427.851562 L 1246.328125 415.546875 L 1248.515625 403.203125 L 1250.664062 390.859375 L 1252.851562 378.4375 L 1255 365.976562 L 1257.1875 353.515625 L 1259.335938 341.015625 L 1261.523438 328.476562 L 1263.671875 315.898438 L 1268.046875 290.664062 L 1270.195312 277.96875 L 1272.382812 265.273438 L 1274.53125 252.539062 L 1276.71875 239.765625 L 1278.867188 226.953125 L 1281.054688 214.101562 L 1283.203125 201.25 L 1285.390625 188.359375 L 1287.578125 175.390625 L 1289.726562 162.421875 L 1291.914062 149.414062 " transform="matrix(0.1,0,0,-0.1,0,400)"/>
</g>
</svg>
