<?xml version="1.0" encoding="UTF-8"?>
<svg xmlns="http://www.w3.org/2000/svg" xmlns:xlink="http://www.w3.org/1999/xlink" width="555pt" height="555pt" viewBox="0 0 555 555" version="1.1">
<defs>
<clipPath id="clip1">
  <path d="M 275 6.9375 L 324 6.9375 L 324 42 L 275 42 Z M 275 6.9375 "/>
</clipPath>
</defs>
<g id="surface1">
<rect x="0" y="0" width="555" height="555" style="fill:rgb(100%,100%,100%);fill-opacity:1;stroke:none;"/>
<path style="fill:none;stroke-width:27.75;stroke-linecap:butt;stroke-linejoin:round;stroke:rgb(0%,0%,100%);stroke-opacity:1;stroke-miterlimit:10;" d="M 568.867188 582.734375 L 2998.398438 5358.554688 L 3003.945312 5369.375 L 5438.945312 582.734375 " transform="matrix(0.1,0,0,-0.1,0,555)"/>
<g clip-path="url(#clip1)" clip-rule="nonzero">
<path style="fill:none;stroke-width:13.875;stroke-linecap:square;stroke-linejoin:miter;stroke:rgb(0%,0%,0%);stroke-opacity:1;stroke-miterlimit:10;" d="M 3038.59375 5376.40625 C 3038.59375 5353.398438 3019.960938 5334.765625 2996.953125 5334.765625 C 2973.984375 5334.765625 2955.351562 5353.398438 2955.351562 5376.40625 C 2955.351562 5399.375 2973.984375 5418.046875 2996.953125 5418.046875 C 3019.960938 5418.046875 3038.59375 5399.375 3038.59375 5376.40625 Z M 3038.59375 5376.40625 " transform="matrix(0.1,0,0,-0.1,0,555)"/>
</g>
<path style=" stroke:none;fill-rule:nonzero;fill:rgb(0%,0%,0%);fill-opacity:1;" d="M 303.859375 17.359375 C 303.859375 19.660156 301.996094 21.523438 299.695312 21.523438 C 297.398438 21.523438 295.535156 19.660156 295.535156 17.359375 C 295.535156 15.0625 297.398438 13.195312 299.695312 13.195312 C 301.996094 13.195312 303.859375 15.0625 303.859375 17.359375 "/>
<path style="fill:none;stroke-width:13.875;stroke-linecap:butt;stroke-linejoin:round;stroke:rgb(0%,0%,0%);stroke-opacity:1;stroke-miterlimit:10;" d="M 541.132812 555 L 5438.945312 555 " transform="matrix(0.1,0,0,-0.1,0,555)"/>
<path style=" stroke:none;fill-rule:nonzero;fill:rgb(0%,0%,0%);fill-opacity:1;" d="M 300.046875 534.535156 C 300.335938 534.835938 300.550781 535.148438 300.695312 535.464844 C 300.8125 535.667969 300.984375 536.21875 301.214844 537.113281 L 301.996094 535.964844 C 302.199219 535.675781 302.449219 535.40625 302.746094 535.152344 C 303.039062 534.898438 303.296875 534.722656 303.515625 534.621094 C 303.660156 534.5625 303.816406 534.535156 303.992188 534.535156 C 304.238281 534.535156 304.4375 534.601562 304.589844 534.738281 C 304.738281 534.878906 304.816406 535.039062 304.816406 535.226562 C 304.816406 535.457031 304.773438 535.617188 304.683594 535.703125 C 304.527344 535.847656 304.339844 535.921875 304.121094 535.921875 C 303.992188 535.921875 303.863281 535.894531 303.730469 535.835938 C 303.457031 535.75 303.269531 535.703125 303.167969 535.703125 C 303.023438 535.703125 302.859375 535.785156 302.667969 535.941406 C 302.308594 536.246094 301.875 536.839844 301.367188 537.71875 L 302.085938 540.734375 C 302.199219 541.199219 302.292969 541.472656 302.363281 541.570312 C 302.4375 541.664062 302.519531 541.710938 302.605469 541.710938 C 302.722656 541.710938 302.863281 541.644531 303.039062 541.515625 C 303.355469 541.238281 303.632812 540.886719 303.863281 540.453125 L 304.164062 540.605469 C 303.789062 541.296875 303.320312 541.875 302.757812 542.339844 C 302.4375 542.597656 302.164062 542.730469 301.933594 542.730469 C 301.601562 542.730469 301.339844 542.539062 301.152344 542.164062 C 301.023438 541.933594 300.769531 540.953125 300.394531 539.21875 C 299.46875 540.804688 298.730469 541.824219 298.183594 542.273438 C 297.820312 542.578125 297.472656 542.730469 297.140625 542.730469 C 296.910156 542.730469 296.691406 542.640625 296.492188 542.46875 C 296.359375 542.339844 296.296875 542.164062 296.296875 541.949219 C 296.296875 541.761719 296.359375 541.601562 296.492188 541.472656 C 296.621094 541.339844 296.777344 541.277344 296.96875 541.277344 C 297.15625 541.277344 297.351562 541.371094 297.554688 541.558594 C 297.710938 541.6875 297.835938 541.753906 297.921875 541.753906 C 297.980469 541.753906 298.066406 541.710938 298.183594 541.621094 C 298.457031 541.390625 298.832031 540.90625 299.308594 540.171875 C 299.785156 539.433594 300.097656 538.898438 300.242188 538.566406 C 299.878906 537.136719 299.683594 536.382812 299.65625 536.3125 C 299.527344 535.921875 299.351562 535.648438 299.136719 535.488281 C 298.917969 535.328125 298.59375 535.25 298.160156 535.25 C 298.027344 535.25 297.878906 535.257812 297.703125 535.269531 L 297.703125 534.945312 L 300.046875 534.535156 "/>
<path style="fill:none;stroke-width:1.2;stroke-linecap:butt;stroke-linejoin:round;stroke:rgb(0%,0%,0%);stroke-opacity:1;stroke-miterlimit:10;" d="M 1055.898438 555 L 1055.898438 499.492188 " transform="matrix(0.1,0,0,-0.1,0,555)"/>
<path style=" stroke:none;fill-rule:nonzero;fill:rgb(0%,0%,0%);fill-opacity:1;" d="M 95 515.804688 C 95 514.445312 95.207031 513.269531 95.617188 512.277344 C 96.03125 511.289062 96.574219 510.554688 97.253906 510.078125 C 97.789062 509.703125 98.339844 509.515625 98.902344 509.515625 C 99.8125 509.515625 100.628906 509.976562 101.351562 510.902344 C 102.261719 512.058594 102.71875 513.628906 102.71875 515.605469 C 102.71875 516.996094 102.519531 518.171875 102.121094 519.140625 C 101.726562 520.109375 101.214844 520.816406 100.59375 521.253906 C 99.972656 521.695312 99.378906 521.917969 98.816406 521.917969 C 97.675781 521.917969 96.71875 521.242188 95.953125 519.902344 C 95.320312 518.757812 95 517.390625 95 515.804688 Z M 96.734375 516.019531 C 96.734375 517.667969 96.9375 519.011719 97.34375 520.050781 C 97.675781 520.917969 98.171875 521.351562 98.835938 521.351562 C 99.15625 521.351562 99.484375 521.210938 99.824219 520.929688 C 100.164062 520.648438 100.421875 520.167969 100.59375 519.488281 C 100.867188 518.492188 101.003906 517.066406 101.003906 515.21875 C 101.003906 513.859375 100.859375 512.722656 100.570312 511.8125 C 100.371094 511.132812 100.09375 510.65625 99.746094 510.382812 C 99.515625 510.195312 99.226562 510.101562 98.882812 510.101562 C 98.492188 510.101562 98.136719 510.273438 97.820312 510.621094 C 97.398438 511.113281 97.113281 511.882812 96.960938 512.929688 C 96.808594 513.976562 96.734375 515.007812 96.734375 516.019531 Z M 105.621094 519.984375 C 105.898438 519.984375 106.128906 520.082031 106.316406 520.28125 C 106.503906 520.476562 106.597656 520.703125 106.597656 520.960938 C 106.597656 521.238281 106.503906 521.46875 106.316406 521.65625 C 106.128906 521.84375 105.898438 521.9375 105.621094 521.9375 C 105.347656 521.9375 105.117188 521.84375 104.929688 521.65625 C 104.742188 521.46875 104.648438 521.238281 104.648438 520.960938 C 104.648438 520.6875 104.742188 520.457031 104.929688 520.269531 C 105.117188 520.082031 105.347656 519.984375 105.621094 519.984375 Z M 116.269531 517.296875 L 116.269531 518.554688 L 114.664062 518.554688 L 114.664062 521.699219 L 113.210938 521.699219 L 113.210938 518.554688 L 108.160156 518.554688 L 108.160156 517.425781 L 113.710938 509.515625 L 114.664062 509.515625 L 114.664062 517.296875 Z M 113.210938 517.296875 L 113.210938 511.355469 L 109.027344 517.296875 L 113.210938 517.296875 "/>
<path style="fill:none;stroke-width:1.2;stroke-linecap:butt;stroke-linejoin:round;stroke:rgb(0%,0%,0%);stroke-opacity:1;stroke-miterlimit:10;" d="M 1705.234375 555 L 1705.234375 499.492188 " transform="matrix(0.1,0,0,-0.1,0,555)"/>
<path style=" stroke:none;fill-rule:nonzero;fill:rgb(0%,0%,0%);fill-opacity:1;" d="M 158.824219 515.804688 C 158.824219 514.445312 159.03125 513.269531 159.441406 512.277344 C 159.855469 511.289062 160.398438 510.554688 161.078125 510.078125 C 161.613281 509.703125 162.164062 509.515625 162.726562 509.515625 C 163.636719 509.515625 164.453125 509.976562 165.175781 510.902344 C 166.089844 512.058594 166.542969 513.628906 166.542969 515.605469 C 166.542969 516.996094 166.34375 518.171875 165.945312 519.140625 C 165.550781 520.109375 165.039062 520.816406 164.417969 521.253906 C 163.796875 521.695312 163.203125 521.917969 162.640625 521.917969 C 161.496094 521.917969 160.546875 521.242188 159.777344 519.902344 C 159.140625 518.757812 158.824219 517.390625 158.824219 515.804688 Z M 160.558594 516.019531 C 160.558594 517.667969 160.761719 519.011719 161.164062 520.050781 C 161.496094 520.917969 161.996094 521.351562 162.660156 521.351562 C 162.980469 521.351562 163.308594 521.210938 163.648438 520.929688 C 163.988281 520.648438 164.246094 520.167969 164.417969 519.488281 C 164.691406 518.492188 164.828125 517.066406 164.828125 515.21875 C 164.828125 513.859375 164.683594 512.722656 164.394531 511.8125 C 164.195312 511.132812 163.917969 510.65625 163.570312 510.382812 C 163.34375 510.195312 163.050781 510.101562 162.703125 510.101562 C 162.316406 510.101562 161.960938 510.273438 161.644531 510.621094 C 161.222656 511.113281 160.9375 511.882812 160.785156 512.929688 C 160.636719 513.976562 160.558594 515.007812 160.558594 516.019531 Z M 169.449219 519.984375 C 169.722656 519.984375 169.953125 520.082031 170.140625 520.28125 C 170.328125 520.476562 170.425781 520.703125 170.425781 520.960938 C 170.425781 521.238281 170.328125 521.46875 170.140625 521.65625 C 169.953125 521.84375 169.722656 521.9375 169.449219 521.9375 C 169.175781 521.9375 168.941406 521.84375 168.753906 521.65625 C 168.566406 521.46875 168.472656 521.238281 168.472656 520.960938 C 168.472656 520.6875 168.566406 520.457031 168.753906 520.269531 C 168.941406 520.082031 169.175781 519.984375 169.449219 519.984375 Z M 179.789062 509.515625 L 179.789062 509.839844 C 179.007812 509.914062 178.371094 510.066406 177.882812 510.296875 C 177.390625 510.527344 176.90625 510.882812 176.429688 511.355469 C 175.953125 511.835938 175.558594 512.367188 175.246094 512.953125 C 174.9375 513.539062 174.671875 514.226562 174.457031 515.023438 C 175.308594 514.445312 176.160156 514.15625 177.015625 514.15625 C 177.824219 514.15625 178.527344 514.484375 179.128906 515.140625 C 179.726562 515.796875 180.027344 516.648438 180.027344 517.6875 C 180.027344 518.6875 179.722656 519.597656 179.117188 520.421875 C 178.394531 521.417969 177.433594 521.917969 176.234375 521.917969 C 175.410156 521.917969 174.714844 521.640625 174.152344 521.09375 C 173.039062 520.050781 172.484375 518.695312 172.484375 517.015625 C 172.484375 515.949219 172.695312 514.929688 173.121094 513.96875 C 173.546875 513.011719 174.160156 512.152344 174.953125 511.402344 C 175.75 510.648438 176.511719 510.148438 177.242188 509.894531 C 177.972656 509.640625 178.648438 509.515625 179.269531 509.515625 Z M 174.304688 515.671875 C 174.203125 516.46875 174.152344 517.109375 174.152344 517.601562 C 174.152344 518.164062 174.257812 518.777344 174.46875 519.433594 C 174.675781 520.09375 174.984375 520.613281 175.386719 521.007812 C 175.691406 521.28125 176.058594 521.417969 176.492188 521.417969 C 177 521.417969 177.453125 521.175781 177.859375 520.691406 C 178.265625 520.207031 178.46875 519.523438 178.46875 518.640625 C 178.46875 517.628906 178.265625 516.761719 177.859375 516.03125 C 177.453125 515.300781 176.890625 514.9375 176.167969 514.9375 C 175.9375 514.9375 175.695312 514.980469 175.441406 515.078125 C 175.191406 515.171875 174.808594 515.367188 174.304688 515.671875 "/>
<path style="fill:none;stroke-width:1.2;stroke-linecap:butt;stroke-linejoin:round;stroke:rgb(0%,0%,0%);stroke-opacity:1;stroke-miterlimit:10;" d="M 2354.570312 555 L 2354.570312 499.492188 " transform="matrix(0.1,0,0,-0.1,0,555)"/>
<path style=" stroke:none;fill-rule:nonzero;fill:rgb(0%,0%,0%);fill-opacity:1;" d="M 224.035156 515.804688 C 224.035156 514.445312 224.242188 513.269531 224.65625 512.277344 C 225.066406 511.289062 225.613281 510.554688 226.289062 510.078125 C 226.828125 509.703125 227.378906 509.515625 227.941406 509.515625 C 228.851562 509.515625 229.667969 509.976562 230.390625 510.902344 C 231.300781 512.058594 231.753906 513.628906 231.753906 515.605469 C 231.753906 516.996094 231.558594 518.171875 231.160156 519.140625 C 230.761719 520.109375 230.253906 520.816406 229.632812 521.253906 C 229.011719 521.695312 228.417969 521.917969 227.851562 521.917969 C 226.710938 521.917969 225.757812 521.242188 224.992188 519.902344 C 224.355469 518.757812 224.035156 517.390625 224.035156 515.804688 Z M 225.769531 516.019531 C 225.769531 517.667969 225.972656 519.011719 226.378906 520.050781 C 226.710938 520.917969 227.210938 521.351562 227.875 521.351562 C 228.191406 521.351562 228.519531 521.210938 228.859375 520.929688 C 229.199219 520.648438 229.457031 520.167969 229.632812 519.488281 C 229.90625 518.492188 230.042969 517.066406 230.042969 515.21875 C 230.042969 513.859375 229.898438 512.722656 229.609375 511.8125 C 229.40625 511.132812 229.132812 510.65625 228.785156 510.382812 C 228.554688 510.195312 228.265625 510.101562 227.917969 510.101562 C 227.527344 510.101562 227.175781 510.273438 226.855469 510.621094 C 226.4375 511.113281 226.152344 511.882812 226 512.929688 C 225.847656 513.976562 225.769531 515.007812 225.769531 516.019531 Z M 234.660156 519.984375 C 234.933594 519.984375 235.164062 520.082031 235.355469 520.28125 C 235.542969 520.476562 235.636719 520.703125 235.636719 520.960938 C 235.636719 521.238281 235.542969 521.46875 235.355469 521.65625 C 235.164062 521.84375 234.933594 521.9375 234.660156 521.9375 C 234.386719 521.9375 234.15625 521.84375 233.96875 521.65625 C 233.777344 521.46875 233.683594 521.238281 233.683594 520.960938 C 233.683594 520.6875 233.777344 520.457031 233.96875 520.269531 C 234.15625 520.082031 234.386719 519.984375 234.660156 519.984375 Z M 240.382812 515.695312 C 239.429688 514.914062 238.816406 514.289062 238.539062 513.820312 C 238.265625 513.347656 238.128906 512.863281 238.128906 512.355469 C 238.128906 511.574219 238.429688 510.90625 239.027344 510.351562 C 239.628906 509.792969 240.425781 509.515625 241.425781 509.515625 C 242.390625 509.515625 243.167969 509.777344 243.753906 510.296875 C 244.339844 510.816406 244.632812 511.410156 244.632812 512.074219 C 244.632812 512.523438 244.472656 512.976562 244.15625 513.4375 C 243.839844 513.902344 243.179688 514.453125 242.183594 515.085938 C 243.210938 515.882812 243.890625 516.511719 244.222656 516.972656 C 244.667969 517.566406 244.894531 518.195312 244.894531 518.859375 C 244.894531 519.699219 244.574219 520.417969 243.9375 521.015625 C 243.304688 521.617188 242.464844 521.917969 241.425781 521.917969 C 240.28125 521.917969 239.394531 521.5625 238.757812 520.851562 C 238.253906 520.277344 238 519.648438 238 518.96875 C 238 518.449219 238.179688 517.925781 238.539062 517.40625 C 238.902344 516.886719 239.515625 516.316406 240.382812 515.695312 Z M 241.75 514.738281 C 242.457031 514.105469 242.90625 513.601562 243.09375 513.234375 C 243.28125 512.863281 243.375 512.449219 243.375 511.988281 C 243.375 511.378906 243.203125 510.898438 242.855469 510.542969 C 242.507812 510.191406 242.039062 510.015625 241.445312 510.015625 C 240.839844 510.015625 240.347656 510.1875 239.972656 510.535156 C 239.597656 510.882812 239.40625 511.285156 239.40625 511.75 C 239.40625 512.050781 239.488281 512.359375 239.644531 512.671875 C 239.804688 512.980469 240.027344 513.273438 240.320312 513.546875 Z M 240.796875 516.019531 C 240.304688 516.421875 239.941406 516.867188 239.710938 517.351562 C 239.480469 517.835938 239.363281 518.359375 239.363281 518.925781 C 239.363281 519.691406 239.570312 520.300781 239.980469 520.757812 C 240.394531 521.210938 240.917969 521.4375 241.554688 521.4375 C 242.191406 521.4375 242.699219 521.257812 243.082031 520.898438 C 243.464844 520.535156 243.65625 520.101562 243.65625 519.597656 C 243.65625 519.175781 243.542969 518.792969 243.3125 518.449219 C 242.90625 517.828125 242.066406 517.015625 240.796875 516.019531 "/>
<path style="fill:none;stroke-width:1.2;stroke-linecap:butt;stroke-linejoin:round;stroke:rgb(0%,0%,0%);stroke-opacity:1;stroke-miterlimit:10;" d="M 3003.90625 555 L 3003.90625 499.492188 " transform="matrix(0.1,0,0,-0.1,0,555)"/>
<path style=" stroke:none;fill-rule:nonzero;fill:rgb(0%,0%,0%);fill-opacity:1;" d="M 290.722656 510.925781 L 293.628906 509.515625 L 293.910156 509.515625 L 293.910156 519.597656 C 293.910156 520.261719 293.941406 520.675781 293.996094 520.84375 C 294.054688 521.007812 294.171875 521.136719 294.34375 521.222656 C 294.519531 521.308594 294.871094 521.359375 295.40625 521.375 L 295.40625 521.699219 L 290.917969 521.699219 L 290.917969 521.375 C 291.484375 521.359375 291.847656 521.308594 292.011719 521.222656 C 292.179688 521.136719 292.296875 521.019531 292.359375 520.875 C 292.425781 520.730469 292.460938 520.304688 292.460938 519.597656 L 292.460938 513.15625 C 292.460938 512.277344 292.429688 511.714844 292.371094 511.46875 C 292.328125 511.277344 292.253906 511.140625 292.144531 511.054688 C 292.035156 510.96875 291.902344 510.925781 291.742188 510.925781 C 291.527344 510.925781 291.230469 511.019531 290.855469 511.207031 Z M 299.871094 519.984375 C 300.148438 519.984375 300.378906 520.082031 300.566406 520.28125 C 300.753906 520.476562 300.847656 520.703125 300.847656 520.960938 C 300.847656 521.238281 300.753906 521.46875 300.566406 521.65625 C 300.378906 521.84375 300.148438 521.9375 299.871094 521.9375 C 299.597656 521.9375 299.367188 521.84375 299.179688 521.65625 C 298.992188 521.46875 298.894531 521.238281 298.894531 520.960938 C 298.894531 520.6875 298.992188 520.457031 299.179688 520.269531 C 299.367188 520.082031 299.597656 519.984375 299.871094 519.984375 Z M 302.777344 515.804688 C 302.777344 514.445312 302.984375 513.269531 303.394531 512.277344 C 303.808594 511.289062 304.355469 510.554688 305.03125 510.078125 C 305.566406 509.703125 306.117188 509.515625 306.679688 509.515625 C 307.589844 509.515625 308.40625 509.976562 309.128906 510.902344 C 310.039062 512.058594 310.496094 513.628906 310.496094 515.605469 C 310.496094 516.996094 310.296875 518.171875 309.898438 519.140625 C 309.503906 520.109375 308.992188 520.816406 308.371094 521.253906 C 307.75 521.695312 307.15625 521.917969 306.59375 521.917969 C 305.449219 521.917969 304.496094 521.242188 303.730469 519.902344 C 303.09375 518.757812 302.777344 517.390625 302.777344 515.804688 Z M 304.511719 516.019531 C 304.511719 517.667969 304.714844 519.011719 305.121094 520.050781 C 305.449219 520.917969 305.949219 521.351562 306.613281 521.351562 C 306.933594 521.351562 307.261719 521.210938 307.601562 520.929688 C 307.941406 520.648438 308.199219 520.167969 308.371094 519.488281 C 308.644531 518.492188 308.78125 517.066406 308.78125 515.21875 C 308.78125 513.859375 308.636719 512.722656 308.351562 511.8125 C 308.148438 511.132812 307.871094 510.65625 307.523438 510.382812 C 307.296875 510.195312 307.003906 510.101562 306.65625 510.101562 C 306.269531 510.101562 305.914062 510.273438 305.597656 510.621094 C 305.175781 511.113281 304.890625 511.882812 304.738281 512.929688 C 304.589844 513.976562 304.511719 515.007812 304.511719 516.019531 "/>
<path style="fill:none;stroke-width:1.2;stroke-linecap:butt;stroke-linejoin:round;stroke:rgb(0%,0%,0%);stroke-opacity:1;stroke-miterlimit:10;" d="M 3653.242188 555 L 3653.242188 499.492188 " transform="matrix(0.1,0,0,-0.1,0,555)"/>
<path style=" stroke:none;fill-rule:nonzero;fill:rgb(0%,0%,0%);fill-opacity:1;" d="M 355.9375 510.925781 L 358.84375 509.515625 L 359.125 509.515625 L 359.125 519.597656 C 359.125 520.261719 359.152344 520.675781 359.210938 520.84375 C 359.269531 521.007812 359.382812 521.136719 359.558594 521.222656 C 359.730469 521.308594 360.085938 521.359375 360.621094 521.375 L 360.621094 521.699219 L 356.132812 521.699219 L 356.132812 521.375 C 356.695312 521.359375 357.0625 521.308594 357.226562 521.222656 C 357.390625 521.136719 357.507812 521.019531 357.574219 520.875 C 357.636719 520.730469 357.671875 520.304688 357.671875 519.597656 L 357.671875 513.15625 C 357.671875 512.277344 357.640625 511.714844 357.585938 511.46875 C 357.539062 511.277344 357.464844 511.140625 357.355469 511.054688 C 357.246094 510.96875 357.113281 510.925781 356.953125 510.925781 C 356.738281 510.925781 356.441406 511.019531 356.066406 511.207031 Z M 365.085938 519.984375 C 365.359375 519.984375 365.589844 520.082031 365.78125 520.28125 C 365.96875 520.476562 366.0625 520.703125 366.0625 520.960938 C 366.0625 521.238281 365.96875 521.46875 365.78125 521.65625 C 365.589844 521.84375 365.359375 521.9375 365.085938 521.9375 C 364.8125 521.9375 364.578125 521.84375 364.390625 521.65625 C 364.203125 521.46875 364.109375 521.238281 364.109375 520.960938 C 364.109375 520.6875 364.203125 520.457031 364.390625 520.269531 C 364.578125 520.082031 364.8125 519.984375 365.085938 519.984375 Z M 375.601562 519.402344 L 374.777344 521.699219 L 367.730469 521.699219 L 367.730469 521.375 C 369.796875 519.480469 371.253906 517.933594 372.097656 516.734375 C 372.945312 515.535156 373.367188 514.445312 373.367188 513.460938 C 373.367188 512.695312 373.136719 512.070312 372.671875 511.585938 C 372.210938 511.101562 371.652344 510.859375 371.003906 510.859375 C 370.425781 510.859375 369.902344 511.027344 369.433594 511.367188 C 368.964844 511.707031 368.617188 512.210938 368.402344 512.875 L 368.078125 512.875 C 368.222656 511.792969 368.597656 510.960938 369.203125 510.382812 C 369.8125 509.804688 370.570312 509.515625 371.480469 509.515625 C 372.449219 509.515625 373.257812 509.824219 373.910156 510.449219 C 374.558594 511.070312 374.882812 511.796875 374.882812 512.636719 C 374.882812 513.246094 374.738281 513.851562 374.453125 514.457031 C 374.015625 515.410156 373.316406 516.417969 372.347656 517.472656 C 370.890625 519.078125 369.96875 520.042969 369.59375 520.375 L 372.71875 520.375 C 373.351562 520.375 373.796875 520.351562 374.050781 520.300781 C 374.304688 520.25 374.535156 520.152344 374.742188 520.007812 C 374.953125 519.863281 375.128906 519.660156 375.273438 519.402344 L 375.601562 519.402344 "/>
<path style="fill:none;stroke-width:1.2;stroke-linecap:butt;stroke-linejoin:round;stroke:rgb(0%,0%,0%);stroke-opacity:1;stroke-miterlimit:10;" d="M 4302.617188 555 L 4302.617188 499.492188 " transform="matrix(0.1,0,0,-0.1,0,555)"/>
<path style=" stroke:none;fill-rule:nonzero;fill:rgb(0%,0%,0%);fill-opacity:1;" d="M 421.148438 510.925781 L 424.054688 509.515625 L 424.335938 509.515625 L 424.335938 519.597656 C 424.335938 520.261719 424.367188 520.675781 424.421875 520.84375 C 424.480469 521.007812 424.597656 521.136719 424.769531 521.222656 C 424.941406 521.308594 425.296875 521.359375 425.832031 521.375 L 425.832031 521.699219 L 421.34375 521.699219 L 421.34375 521.375 C 421.90625 521.359375 422.273438 521.308594 422.4375 521.222656 C 422.605469 521.136719 422.722656 521.019531 422.785156 520.875 C 422.851562 520.730469 422.882812 520.304688 422.882812 519.597656 L 422.882812 513.15625 C 422.882812 512.277344 422.855469 511.714844 422.796875 511.46875 C 422.753906 511.277344 422.675781 511.140625 422.570312 511.054688 C 422.460938 510.96875 422.328125 510.925781 422.167969 510.925781 C 421.949219 510.925781 421.652344 511.019531 421.28125 511.207031 Z M 430.296875 519.984375 C 430.570312 519.984375 430.804688 520.082031 430.992188 520.28125 C 431.179688 520.476562 431.273438 520.703125 431.273438 520.960938 C 431.273438 521.238281 431.179688 521.46875 430.992188 521.65625 C 430.804688 521.84375 430.570312 521.9375 430.296875 521.9375 C 430.023438 521.9375 429.792969 521.84375 429.605469 521.65625 C 429.414062 521.46875 429.320312 521.238281 429.320312 520.960938 C 429.320312 520.6875 429.414062 520.457031 429.605469 520.269531 C 429.792969 520.082031 430.023438 519.984375 430.296875 519.984375 Z M 440.941406 517.296875 L 440.941406 518.554688 L 439.339844 518.554688 L 439.339844 521.699219 L 437.886719 521.699219 L 437.886719 518.554688 L 432.835938 518.554688 L 432.835938 517.425781 L 438.386719 509.515625 L 439.339844 509.515625 L 439.339844 517.296875 Z M 437.886719 517.296875 L 437.886719 511.355469 L 433.703125 517.296875 L 437.886719 517.296875 "/>
<path style="fill:none;stroke-width:1.2;stroke-linecap:butt;stroke-linejoin:round;stroke:rgb(0%,0%,0%);stroke-opacity:1;stroke-miterlimit:10;" d="M 4951.953125 555 L 4951.953125 499.492188 " transform="matrix(0.1,0,0,-0.1,0,555)"/>
<path style=" stroke:none;fill-rule:nonzero;fill:rgb(0%,0%,0%);fill-opacity:1;" d="M 484.972656 510.925781 L 487.878906 509.515625 L 488.160156 509.515625 L 488.160156 519.597656 C 488.160156 520.261719 488.191406 520.675781 488.246094 520.84375 C 488.304688 521.007812 488.421875 521.136719 488.59375 521.222656 C 488.769531 521.308594 489.121094 521.359375 489.65625 521.375 L 489.65625 521.699219 L 485.167969 521.699219 L 485.167969 521.375 C 485.734375 521.359375 486.097656 521.308594 486.261719 521.222656 C 486.429688 521.136719 486.546875 521.019531 486.609375 520.875 C 486.675781 520.730469 486.710938 520.304688 486.710938 519.597656 L 486.710938 513.15625 C 486.710938 512.277344 486.679688 511.714844 486.621094 511.46875 C 486.578125 511.277344 486.503906 511.140625 486.394531 511.054688 C 486.285156 510.96875 486.152344 510.925781 485.992188 510.925781 C 485.777344 510.925781 485.480469 511.019531 485.105469 511.207031 Z M 494.121094 519.984375 C 494.398438 519.984375 494.628906 520.082031 494.816406 520.28125 C 495.003906 520.476562 495.097656 520.703125 495.097656 520.960938 C 495.097656 521.238281 495.003906 521.46875 494.816406 521.65625 C 494.628906 521.84375 494.398438 521.9375 494.121094 521.9375 C 493.847656 521.9375 493.617188 521.84375 493.429688 521.65625 C 493.242188 521.46875 493.144531 521.238281 493.144531 520.960938 C 493.144531 520.6875 493.242188 520.457031 493.429688 520.269531 C 493.617188 520.082031 493.847656 519.984375 494.121094 519.984375 Z M 504.464844 509.515625 L 504.464844 509.839844 C 503.683594 509.914062 503.046875 510.066406 502.558594 510.296875 C 502.066406 510.527344 501.582031 510.882812 501.105469 511.355469 C 500.628906 511.835938 500.234375 512.367188 499.921875 512.953125 C 499.609375 513.539062 499.347656 514.226562 499.132812 515.023438 C 499.984375 514.445312 500.835938 514.15625 501.6875 514.15625 C 502.496094 514.15625 503.203125 514.484375 503.804688 515.140625 C 504.402344 515.796875 504.703125 516.648438 504.703125 517.6875 C 504.703125 518.6875 504.398438 519.597656 503.789062 520.421875 C 503.070312 521.417969 502.109375 521.917969 500.90625 521.917969 C 500.085938 521.917969 499.390625 521.640625 498.828125 521.09375 C 497.714844 520.050781 497.15625 518.695312 497.15625 517.015625 C 497.15625 515.949219 497.371094 514.929688 497.796875 513.96875 C 498.222656 513.011719 498.835938 512.152344 499.628906 511.402344 C 500.425781 510.648438 501.1875 510.148438 501.917969 509.894531 C 502.648438 509.640625 503.324219 509.515625 503.945312 509.515625 Z M 498.980469 515.671875 C 498.878906 516.46875 498.828125 517.109375 498.828125 517.601562 C 498.828125 518.164062 498.933594 518.777344 499.140625 519.433594 C 499.351562 520.09375 499.65625 520.613281 500.0625 521.007812 C 500.367188 521.28125 500.734375 521.417969 501.167969 521.417969 C 501.675781 521.417969 502.128906 521.175781 502.535156 520.691406 C 502.9375 520.207031 503.140625 519.523438 503.140625 518.640625 C 503.140625 517.628906 502.9375 516.761719 502.535156 516.03125 C 502.128906 515.300781 501.566406 514.9375 500.84375 514.9375 C 500.613281 514.9375 500.371094 514.980469 500.117188 515.078125 C 499.863281 515.171875 499.484375 515.367188 498.980469 515.671875 "/>
<path style="fill:none;stroke-width:1.2;stroke-linecap:butt;stroke-linejoin:round;stroke:rgb(0%,0%,0%);stroke-opacity:1;stroke-miterlimit:10;" d="M 731.210938 555 L 731.210938 527.265625 " transform="matrix(0.1,0,0,-0.1,0,555)"/>
<path style="fill:none;stroke-width:1.2;stroke-linecap:butt;stroke-linejoin:round;stroke:rgb(0%,0%,0%);stroke-opacity:1;stroke-miterlimit:10;" d="M 1380.546875 555 L 1380.546875 527.265625 " transform="matrix(0.1,0,0,-0.1,0,555)"/>
<path style="fill:none;stroke-width:1.2;stroke-linecap:butt;stroke-linejoin:round;stroke:rgb(0%,0%,0%);stroke-opacity:1;stroke-miterlimit:10;" d="M 2029.882812 555 L 2029.882812 527.265625 " transform="matrix(0.1,0,0,-0.1,0,555)"/>
<path style="fill:none;stroke-width:1.2;stroke-linecap:butt;stroke-linejoin:round;stroke:rgb(0%,0%,0%);stroke-opacity:1;stroke-miterlimit:10;" d="M 2679.21875 555 L 2679.21875 527.265625 " transform="matrix(0.1,0,0,-0.1,0,555)"/>
<path style="fill:none;stroke-width:1.2;stroke-linecap:butt;stroke-linejoin:round;stroke:rgb(0%,0%,0%);stroke-opacity:1;stroke-miterlimit:10;" d="M 3328.59375 555 L 3328.59375 527.265625 " transform="matrix(0.1,0,0,-0.1,0,555)"/>
<path style="fill:none;stroke-width:1.2;stroke-linecap:butt;stroke-linejoin:round;stroke:rgb(0%,0%,0%);stroke-opacity:1;stroke-miterlimit:10;" d="M 3977.929688 555 L 3977.929688 527.265625 " transform="matrix(0.1,0,0,-0.1,0,555)"/>
<path style="fill:none;stroke-width:1.2;stroke-linecap:butt;stroke-linejoin:round;stroke:rgb(0%,0%,0%);stroke-opacity:1;stroke-miterlimit:10;" d="M 4627.265625 555 L 4627.265625 527.265625 " transform="matrix(0.1,0,0,-0.1,0,555)"/>
<path style="fill:none;stroke-width:1.2;stroke-linecap:butt;stroke-linejoin:round;stroke:rgb(0%,0%,0%);stroke-opacity:1;stroke-miterlimit:10;" d="M 5276.601562 555 L 5276.601562 527.265625 " transform="matrix(0.1,0,0,-0.1,0,555)"/>
<path style="fill:none;stroke-width:13.875;stroke-linecap:butt;stroke-linejoin:round;stroke:rgb(0%,0%,0%);stroke-opacity:1;stroke-miterlimit:10;" d="M 541.132812 555 L 541.132812 5369.453125 " transform="matrix(0.1,0,0,-0.1,0,555)"/>
<path style="fill:none;stroke-width:1.2;stroke-linecap:butt;stroke-linejoin:round;stroke:rgb(0%,0%,0%);stroke-opacity:1;stroke-miterlimit:10;" d="M 541.132812 901.875 L 485.625 901.875 " transform="matrix(0.1,0,0,-0.1,0,555)"/>
<path style=" stroke:none;fill-rule:nonzero;fill:rgb(0%,0%,0%);fill-opacity:1;" d="M 27.097656 460.972656 L 30.003906 459.566406 L 30.285156 459.566406 L 30.285156 469.648438 C 30.285156 470.3125 30.316406 470.726562 30.371094 470.894531 C 30.429688 471.058594 30.546875 471.183594 30.71875 471.273438 C 30.894531 471.359375 31.246094 471.410156 31.78125 471.421875 L 31.78125 471.75 L 27.292969 471.75 L 27.292969 471.421875 C 27.859375 471.410156 28.222656 471.359375 28.390625 471.273438 C 28.554688 471.183594 28.671875 471.070312 28.734375 470.925781 C 28.800781 470.78125 28.835938 470.355469 28.835938 469.648438 L 28.835938 463.207031 C 28.835938 462.328125 28.804688 461.761719 28.746094 461.515625 C 28.703125 461.328125 28.628906 461.191406 28.519531 461.105469 C 28.410156 461.019531 28.277344 460.972656 28.117188 460.972656 C 27.902344 460.972656 27.605469 461.070312 27.230469 461.257812 Z M 36.25 470.035156 C 36.523438 470.035156 36.753906 470.132812 36.941406 470.328125 C 37.128906 470.523438 37.222656 470.753906 37.222656 471.011719 C 37.222656 471.285156 37.128906 471.519531 36.941406 471.707031 C 36.753906 471.894531 36.523438 471.988281 36.25 471.988281 C 35.972656 471.988281 35.742188 471.894531 35.554688 471.707031 C 35.367188 471.519531 35.273438 471.285156 35.273438 471.011719 C 35.273438 470.738281 35.367188 470.507812 35.554688 470.316406 C 35.742188 470.132812 35.972656 470.035156 36.25 470.035156 Z M 39.414062 462.082031 C 39.761719 461.269531 40.195312 460.648438 40.714844 460.214844 C 41.234375 459.78125 41.878906 459.566406 42.644531 459.566406 C 43.613281 459.566406 44.347656 459.875 44.855469 460.496094 C 45.246094 460.960938 45.441406 461.453125 45.441406 461.972656 C 45.441406 462.851562 44.890625 463.757812 43.792969 464.683594 C 44.53125 464.96875 45.085938 465.382812 45.460938 465.917969 C 45.839844 466.453125 46.027344 467.082031 46.027344 467.804688 C 46.027344 468.828125 45.695312 469.71875 45.027344 470.46875 C 44.175781 471.46875 42.941406 471.964844 41.320312 471.964844 C 40.511719 471.964844 39.964844 471.863281 39.671875 471.664062 C 39.386719 471.460938 39.238281 471.242188 39.238281 471.011719 C 39.238281 470.839844 39.308594 470.691406 39.445312 470.566406 C 39.582031 470.445312 39.746094 470.382812 39.933594 470.382812 C 40.078125 470.382812 40.230469 470.40625 40.390625 470.449219 C 40.488281 470.476562 40.71875 470.582031 41.074219 470.761719 C 41.425781 470.945312 41.667969 471.054688 41.796875 471.097656 C 42.015625 471.15625 42.246094 471.183594 42.492188 471.183594 C 43.085938 471.183594 43.605469 470.957031 44.054688 470.492188 C 44.5 470.03125 44.726562 469.480469 44.726562 468.84375 C 44.726562 468.382812 44.625 467.933594 44.421875 467.5 C 44.261719 467.167969 44.089844 466.914062 43.902344 466.742188 C 43.65625 466.511719 43.3125 466.300781 42.871094 466.113281 C 42.429688 465.925781 41.980469 465.832031 41.515625 465.832031 L 41.234375 465.832031 L 41.234375 465.550781 C 41.699219 465.492188 42.164062 465.324219 42.632812 465.050781 C 43.101562 464.777344 43.441406 464.449219 43.652344 464.0625 C 43.859375 463.679688 43.964844 463.25 43.964844 462.773438 C 43.964844 462.179688 43.777344 461.699219 43.402344 461.320312 C 43.027344 460.945312 42.558594 460.757812 41.992188 460.757812 C 41.082031 460.757812 40.324219 461.242188 39.71875 462.210938 L 39.414062 462.082031 "/>
<path style="fill:none;stroke-width:1.2;stroke-linecap:butt;stroke-linejoin:round;stroke:rgb(0%,0%,0%);stroke-opacity:1;stroke-miterlimit:10;" d="M 541.132812 1540.117188 L 485.625 1540.117188 " transform="matrix(0.1,0,0,-0.1,0,555)"/>
<path style=" stroke:none;fill-rule:nonzero;fill:rgb(0%,0%,0%);fill-opacity:1;" d="M 27.097656 397.148438 L 30.003906 395.738281 L 30.285156 395.738281 L 30.285156 405.820312 C 30.285156 406.484375 30.316406 406.902344 30.371094 407.066406 C 30.429688 407.234375 30.546875 407.359375 30.71875 407.449219 C 30.894531 407.535156 31.246094 407.585938 31.78125 407.597656 L 31.78125 407.925781 L 27.292969 407.925781 L 27.292969 407.597656 C 27.859375 407.585938 28.222656 407.535156 28.390625 407.449219 C 28.554688 407.359375 28.671875 407.246094 28.734375 407.101562 C 28.800781 406.957031 28.835938 406.527344 28.835938 405.820312 L 28.835938 399.382812 C 28.835938 398.5 28.804688 397.9375 28.746094 397.691406 C 28.703125 397.503906 28.628906 397.367188 28.519531 397.28125 C 28.410156 397.191406 28.277344 397.148438 28.117188 397.148438 C 27.902344 397.148438 27.605469 397.242188 27.230469 397.429688 Z M 36.25 406.210938 C 36.523438 406.210938 36.753906 406.308594 36.941406 406.503906 C 37.128906 406.699219 37.222656 406.925781 37.222656 407.1875 C 37.222656 407.460938 37.128906 407.691406 36.941406 407.878906 C 36.753906 408.070312 36.523438 408.160156 36.25 408.160156 C 35.972656 408.160156 35.742188 408.070312 35.554688 407.878906 C 35.367188 407.691406 35.273438 407.460938 35.273438 407.1875 C 35.273438 406.910156 35.367188 406.683594 35.554688 406.492188 C 35.742188 406.304688 35.972656 406.210938 36.25 406.210938 Z M 46.894531 403.523438 L 46.894531 404.78125 L 45.289062 404.78125 L 45.289062 407.925781 L 43.835938 407.925781 L 43.835938 404.78125 L 38.785156 404.78125 L 38.785156 403.652344 L 44.335938 395.738281 L 45.289062 395.738281 L 45.289062 403.523438 Z M 43.835938 403.523438 L 43.835938 397.582031 L 39.652344 403.523438 L 43.835938 403.523438 "/>
<path style="fill:none;stroke-width:1.2;stroke-linecap:butt;stroke-linejoin:round;stroke:rgb(0%,0%,0%);stroke-opacity:1;stroke-miterlimit:10;" d="M 541.132812 2178.320312 L 485.625 2178.320312 " transform="matrix(0.1,0,0,-0.1,0,555)"/>
<path style=" stroke:none;fill-rule:nonzero;fill:rgb(0%,0%,0%);fill-opacity:1;" d="M 27.097656 333.324219 L 30.003906 331.914062 L 30.285156 331.914062 L 30.285156 341.996094 C 30.285156 342.660156 30.316406 343.078125 30.371094 343.242188 C 30.429688 343.410156 30.546875 343.535156 30.71875 343.621094 C 30.894531 343.710938 31.246094 343.761719 31.78125 343.773438 L 31.78125 344.101562 L 27.292969 344.101562 L 27.292969 343.773438 C 27.859375 343.761719 28.222656 343.710938 28.390625 343.621094 C 28.554688 343.535156 28.671875 343.421875 28.734375 343.277344 C 28.800781 343.132812 28.835938 342.703125 28.835938 341.996094 L 28.835938 335.558594 C 28.835938 334.675781 28.804688 334.113281 28.746094 333.867188 C 28.703125 333.679688 28.628906 333.539062 28.519531 333.453125 C 28.410156 333.367188 28.277344 333.324219 28.117188 333.324219 C 27.902344 333.324219 27.605469 333.417969 27.230469 333.605469 Z M 36.25 342.386719 C 36.523438 342.386719 36.753906 342.484375 36.941406 342.679688 C 37.128906 342.875 37.222656 343.101562 37.222656 343.363281 C 37.222656 343.636719 37.128906 343.867188 36.941406 344.054688 C 36.753906 344.242188 36.523438 344.335938 36.25 344.335938 C 35.972656 344.335938 35.742188 344.242188 35.554688 344.054688 C 35.367188 343.867188 35.273438 343.636719 35.273438 343.363281 C 35.273438 343.085938 35.367188 342.855469 35.554688 342.667969 C 35.742188 342.480469 35.972656 342.386719 36.25 342.386719 Z M 46.328125 332.152344 L 45.636719 333.648438 L 42.058594 333.648438 L 41.277344 335.253906 C 42.824219 335.484375 44.054688 336.0625 44.964844 336.988281 C 45.742188 337.78125 46.132812 338.722656 46.132812 339.808594 C 46.132812 340.441406 46.007812 341.027344 45.753906 341.5625 C 45.503906 342.097656 45.179688 342.554688 44.789062 342.929688 C 44.398438 343.304688 43.964844 343.601562 43.488281 343.816406 C 42.824219 344.148438 42.132812 344.316406 41.40625 344.316406 C 40.699219 344.316406 40.183594 344.191406 39.859375 343.945312 C 39.53125 343.703125 39.371094 343.433594 39.371094 343.144531 C 39.371094 342.972656 39.4375 342.824219 39.578125 342.703125 C 39.714844 342.578125 39.882812 342.515625 40.085938 342.515625 C 40.230469 342.515625 40.359375 342.539062 40.476562 342.582031 C 40.589844 342.625 40.785156 342.746094 41.0625 342.949219 C 41.507812 343.253906 41.957031 343.40625 42.40625 343.40625 C 43.097656 343.40625 43.703125 343.144531 44.214844 342.625 C 44.726562 342.105469 44.984375 341.46875 44.984375 340.71875 C 44.984375 339.996094 44.753906 339.324219 44.292969 338.699219 C 43.828125 338.078125 43.191406 337.59375 42.382812 337.246094 C 41.734375 336.988281 40.859375 336.835938 39.761719 336.792969 L 42.058594 332.152344 L 46.328125 332.152344 "/>
<path style="fill:none;stroke-width:1.2;stroke-linecap:butt;stroke-linejoin:round;stroke:rgb(0%,0%,0%);stroke-opacity:1;stroke-miterlimit:10;" d="M 541.132812 2816.5625 L 485.625 2816.5625 " transform="matrix(0.1,0,0,-0.1,0,555)"/>
<path style=" stroke:none;fill-rule:nonzero;fill:rgb(0%,0%,0%);fill-opacity:1;" d="M 27.097656 269.5 L 30.003906 268.089844 L 30.285156 268.089844 L 30.285156 278.171875 C 30.285156 278.835938 30.316406 279.253906 30.371094 279.417969 C 30.429688 279.585938 30.546875 279.710938 30.71875 279.796875 C 30.894531 279.882812 31.246094 279.933594 31.78125 279.949219 L 31.78125 280.273438 L 27.292969 280.273438 L 27.292969 279.949219 C 27.859375 279.933594 28.222656 279.882812 28.390625 279.796875 C 28.554688 279.710938 28.671875 279.59375 28.734375 279.449219 C 28.800781 279.308594 28.835938 278.878906 28.835938 278.171875 L 28.835938 271.730469 C 28.835938 270.851562 28.804688 270.289062 28.746094 270.042969 C 28.703125 269.855469 28.628906 269.714844 28.519531 269.628906 C 28.410156 269.542969 28.277344 269.5 28.117188 269.5 C 27.902344 269.5 27.605469 269.59375 27.230469 269.78125 Z M 36.25 278.5625 C 36.523438 278.5625 36.753906 278.660156 36.941406 278.855469 C 37.128906 279.050781 37.222656 279.277344 37.222656 279.535156 C 37.222656 279.8125 37.128906 280.042969 36.941406 280.230469 C 36.753906 280.417969 36.523438 280.511719 36.25 280.511719 C 35.972656 280.511719 35.742188 280.417969 35.554688 280.230469 C 35.367188 280.042969 35.273438 279.8125 35.273438 279.535156 C 35.273438 279.261719 35.367188 279.03125 35.554688 278.84375 C 35.742188 278.65625 35.972656 278.5625 36.25 278.5625 Z M 46.589844 268.089844 L 46.589844 268.414062 C 45.808594 268.488281 45.171875 268.640625 44.679688 268.871094 C 44.191406 269.101562 43.707031 269.457031 43.230469 269.933594 C 42.753906 270.410156 42.359375 270.941406 42.046875 271.527344 C 41.738281 272.113281 41.472656 272.800781 41.257812 273.597656 C 42.109375 273.019531 42.960938 272.730469 43.816406 272.730469 C 44.625 272.730469 45.328125 273.058594 45.929688 273.714844 C 46.527344 274.375 46.828125 275.222656 46.828125 276.265625 C 46.828125 277.261719 46.523438 278.171875 45.917969 278.996094 C 45.195312 279.992188 44.234375 280.492188 43.035156 280.492188 C 42.210938 280.492188 41.515625 280.21875 40.953125 279.667969 C 39.839844 278.628906 39.285156 277.269531 39.285156 275.59375 C 39.285156 274.523438 39.496094 273.507812 39.921875 272.546875 C 40.347656 271.585938 40.960938 270.726562 41.753906 269.976562 C 42.550781 269.226562 43.3125 268.722656 44.042969 268.46875 C 44.773438 268.214844 45.449219 268.089844 46.070312 268.089844 Z M 41.105469 274.246094 C 41.003906 275.042969 40.953125 275.683594 40.953125 276.175781 C 40.953125 276.742188 41.058594 277.351562 41.265625 278.007812 C 41.476562 278.667969 41.785156 279.191406 42.1875 279.582031 C 42.492188 279.855469 42.859375 279.992188 43.292969 279.992188 C 43.800781 279.992188 44.253906 279.75 44.660156 279.265625 C 45.066406 278.78125 45.265625 278.097656 45.265625 277.21875 C 45.265625 276.203125 45.066406 275.335938 44.660156 274.605469 C 44.253906 273.875 43.691406 273.511719 42.96875 273.511719 C 42.738281 273.511719 42.496094 273.558594 42.242188 273.652344 C 41.988281 273.746094 41.609375 273.945312 41.105469 274.246094 "/>
<path style="fill:none;stroke-width:1.2;stroke-linecap:butt;stroke-linejoin:round;stroke:rgb(0%,0%,0%);stroke-opacity:1;stroke-miterlimit:10;" d="M 541.132812 3454.804688 L 485.625 3454.804688 " transform="matrix(0.1,0,0,-0.1,0,555)"/>
<path style=" stroke:none;fill-rule:nonzero;fill:rgb(0%,0%,0%);fill-opacity:1;" d="M 27.097656 205.675781 L 30.003906 204.265625 L 30.285156 204.265625 L 30.285156 214.347656 C 30.285156 215.011719 30.316406 215.425781 30.371094 215.59375 C 30.429688 215.757812 30.546875 215.886719 30.71875 215.972656 C 30.894531 216.058594 31.246094 216.109375 31.78125 216.125 L 31.78125 216.449219 L 27.292969 216.449219 L 27.292969 216.125 C 27.859375 216.109375 28.222656 216.058594 28.390625 215.972656 C 28.554688 215.886719 28.671875 215.769531 28.734375 215.625 C 28.800781 215.480469 28.835938 215.054688 28.835938 214.347656 L 28.835938 207.90625 C 28.835938 207.027344 28.804688 206.464844 28.746094 206.21875 C 28.703125 206.027344 28.628906 205.890625 28.519531 205.804688 C 28.410156 205.71875 28.277344 205.675781 28.117188 205.675781 C 27.902344 205.675781 27.605469 205.769531 27.230469 205.957031 Z M 36.25 214.734375 C 36.523438 214.734375 36.753906 214.835938 36.941406 215.027344 C 37.128906 215.226562 37.222656 215.453125 37.222656 215.710938 C 37.222656 215.988281 37.128906 216.21875 36.941406 216.40625 C 36.753906 216.59375 36.523438 216.6875 36.25 216.6875 C 35.972656 216.6875 35.742188 216.59375 35.554688 216.40625 C 35.367188 216.21875 35.273438 215.988281 35.273438 215.710938 C 35.273438 215.4375 35.367188 215.207031 35.554688 215.019531 C 35.742188 214.832031 35.972656 214.734375 36.25 214.734375 Z M 40.324219 204.503906 L 46.71875 204.503906 L 46.71875 204.851562 L 42.730469 216.6875 L 41.753906 216.6875 L 45.308594 205.933594 L 42.035156 205.933594 C 41.371094 205.933594 40.902344 206.015625 40.628906 206.171875 C 40.121094 206.449219 39.722656 206.867188 39.433594 207.429688 L 39.175781 207.34375 L 40.324219 204.503906 "/>
<path style="fill:none;stroke-width:1.2;stroke-linecap:butt;stroke-linejoin:round;stroke:rgb(0%,0%,0%);stroke-opacity:1;stroke-miterlimit:10;" d="M 541.132812 4093.007812 L 485.625 4093.007812 " transform="matrix(0.1,0,0,-0.1,0,555)"/>
<path style=" stroke:none;fill-rule:nonzero;fill:rgb(0%,0%,0%);fill-opacity:1;" d="M 27.097656 141.851562 L 30.003906 140.441406 L 30.285156 140.441406 L 30.285156 150.519531 C 30.285156 151.1875 30.316406 151.601562 30.371094 151.769531 C 30.429688 151.933594 30.546875 152.058594 30.71875 152.148438 C 30.894531 152.234375 31.246094 152.285156 31.78125 152.300781 L 31.78125 152.625 L 27.292969 152.625 L 27.292969 152.300781 C 27.859375 152.285156 28.222656 152.234375 28.390625 152.148438 C 28.554688 152.058594 28.671875 151.945312 28.734375 151.800781 C 28.800781 151.65625 28.835938 151.230469 28.835938 150.519531 L 28.835938 144.082031 C 28.835938 143.199219 28.804688 142.636719 28.746094 142.390625 C 28.703125 142.203125 28.628906 142.066406 28.519531 141.980469 C 28.410156 141.894531 28.277344 141.851562 28.117188 141.851562 C 27.902344 141.851562 27.605469 141.945312 27.230469 142.132812 Z M 36.25 150.910156 C 36.523438 150.910156 36.753906 151.007812 36.941406 151.203125 C 37.128906 151.398438 37.222656 151.628906 37.222656 151.886719 C 37.222656 152.160156 37.128906 152.394531 36.941406 152.578125 C 36.753906 152.769531 36.523438 152.863281 36.25 152.863281 C 35.972656 152.863281 35.742188 152.769531 35.554688 152.578125 C 35.367188 152.394531 35.273438 152.160156 35.273438 151.886719 C 35.273438 151.613281 35.367188 151.382812 35.554688 151.191406 C 35.742188 151.007812 35.972656 150.910156 36.25 150.910156 Z M 41.972656 146.617188 C 41.019531 145.839844 40.402344 145.214844 40.128906 144.742188 C 39.855469 144.273438 39.71875 143.785156 39.71875 143.28125 C 39.71875 142.5 40.015625 141.832031 40.617188 141.273438 C 41.21875 140.71875 42.015625 140.441406 43.011719 140.441406 C 43.980469 140.441406 44.757812 140.699219 45.34375 141.222656 C 45.929688 141.742188 46.222656 142.335938 46.222656 142.996094 C 46.222656 143.445312 46.0625 143.902344 45.742188 144.363281 C 45.425781 144.828125 44.769531 145.378906 43.769531 146.011719 C 44.796875 146.808594 45.476562 147.4375 45.808594 147.898438 C 46.257812 148.488281 46.480469 149.121094 46.480469 149.785156 C 46.480469 150.621094 46.164062 151.339844 45.527344 151.941406 C 44.890625 152.542969 44.054688 152.839844 43.011719 152.839844 C 41.871094 152.839844 40.980469 152.488281 40.34375 151.777344 C 39.839844 151.203125 39.585938 150.570312 39.585938 149.894531 C 39.585938 149.371094 39.769531 148.851562 40.128906 148.332031 C 40.488281 147.8125 41.105469 147.238281 41.972656 146.617188 Z M 43.335938 145.664062 C 44.046875 145.03125 44.492188 144.527344 44.679688 144.160156 C 44.871094 143.789062 44.964844 143.375 44.964844 142.910156 C 44.964844 142.304688 44.789062 141.824219 44.445312 141.46875 C 44.097656 141.117188 43.625 140.9375 43.035156 140.9375 C 42.425781 140.9375 41.933594 141.113281 41.558594 141.460938 C 41.183594 141.808594 40.996094 142.210938 40.996094 142.675781 C 40.996094 142.976562 41.074219 143.285156 41.234375 143.59375 C 41.394531 143.90625 41.617188 144.199219 41.90625 144.472656 Z M 42.382812 146.945312 C 41.890625 147.347656 41.53125 147.792969 41.300781 148.277344 C 41.070312 148.761719 40.953125 149.285156 40.953125 149.851562 C 40.953125 150.617188 41.160156 151.226562 41.570312 151.683594 C 41.984375 152.136719 42.507812 152.363281 43.144531 152.363281 C 43.777344 152.363281 44.289062 152.183594 44.671875 151.820312 C 45.054688 151.460938 45.246094 151.027344 45.246094 150.519531 C 45.246094 150.101562 45.128906 149.71875 44.898438 149.371094 C 44.492188 148.75 43.65625 147.941406 42.382812 146.945312 "/>
<path style="fill:none;stroke-width:1.2;stroke-linecap:butt;stroke-linejoin:round;stroke:rgb(0%,0%,0%);stroke-opacity:1;stroke-miterlimit:10;" d="M 541.132812 4731.25 L 485.625 4731.25 " transform="matrix(0.1,0,0,-0.1,0,555)"/>
<path style=" stroke:none;fill-rule:nonzero;fill:rgb(0%,0%,0%);fill-opacity:1;" d="M 27.097656 78.023438 L 30.003906 76.617188 L 30.285156 76.617188 L 30.285156 86.695312 C 30.285156 87.363281 30.316406 87.777344 30.371094 87.945312 C 30.429688 88.109375 30.546875 88.234375 30.71875 88.324219 C 30.894531 88.410156 31.246094 88.460938 31.78125 88.476562 L 31.78125 88.800781 L 27.292969 88.800781 L 27.292969 88.476562 C 27.859375 88.460938 28.222656 88.410156 28.390625 88.324219 C 28.554688 88.234375 28.671875 88.121094 28.734375 87.976562 C 28.800781 87.832031 28.835938 87.40625 28.835938 86.695312 L 28.835938 80.257812 C 28.835938 79.378906 28.804688 78.8125 28.746094 78.566406 C 28.703125 78.378906 28.628906 78.242188 28.519531 78.15625 C 28.410156 78.066406 28.277344 78.023438 28.117188 78.023438 C 27.902344 78.023438 27.605469 78.117188 27.230469 78.308594 Z M 36.25 87.085938 C 36.523438 87.085938 36.753906 87.183594 36.941406 87.378906 C 37.128906 87.574219 37.222656 87.804688 37.222656 88.0625 C 37.222656 88.335938 37.128906 88.570312 36.941406 88.757812 C 36.753906 88.945312 36.523438 89.039062 36.25 89.039062 C 35.972656 89.039062 35.742188 88.945312 35.554688 88.757812 C 35.367188 88.570312 35.273438 88.335938 35.273438 88.0625 C 35.273438 87.789062 35.367188 87.558594 35.554688 87.367188 C 35.742188 87.179688 35.972656 87.085938 36.25 87.085938 Z M 39.457031 89.039062 L 39.457031 88.714844 C 40.222656 88.714844 40.933594 88.539062 41.59375 88.191406 C 42.25 87.847656 42.886719 87.242188 43.5 86.382812 C 44.113281 85.523438 44.535156 84.578125 44.769531 83.554688 C 43.84375 84.144531 43.011719 84.441406 42.277344 84.441406 C 41.4375 84.441406 40.71875 84.121094 40.117188 83.476562 C 39.519531 82.835938 39.21875 81.972656 39.21875 80.886719 C 39.21875 79.847656 39.515625 78.914062 40.105469 78.089844 C 40.832031 77.105469 41.777344 76.617188 42.949219 76.617188 C 43.929688 76.617188 44.769531 77.019531 45.460938 77.828125 C 46.316406 78.828125 46.742188 80.0625 46.742188 81.535156 C 46.742188 82.867188 46.414062 84.105469 45.765625 85.253906 C 45.113281 86.402344 44.210938 87.355469 43.054688 88.105469 C 42.101562 88.726562 41.070312 89.039062 39.957031 89.039062 Z M 44.921875 82.902344 C 45.023438 82.136719 45.070312 81.53125 45.070312 81.082031 C 45.070312 80.503906 44.972656 79.886719 44.78125 79.226562 C 44.585938 78.570312 44.308594 78.066406 43.957031 77.710938 C 43.601562 77.355469 43.199219 77.179688 42.753906 77.179688 C 42.230469 77.179688 41.773438 77.414062 41.375 77.882812 C 40.976562 78.355469 40.78125 79.050781 40.78125 79.976562 C 40.78125 81.21875 41.039062 82.1875 41.558594 82.882812 C 41.949219 83.386719 42.417969 83.640625 42.96875 83.640625 C 43.242188 83.640625 43.566406 83.574219 43.933594 83.445312 C 44.300781 83.316406 44.632812 83.132812 44.921875 82.902344 "/>
<path style="fill:none;stroke-width:1.2;stroke-linecap:butt;stroke-linejoin:round;stroke:rgb(0%,0%,0%);stroke-opacity:1;stroke-miterlimit:10;" d="M 541.132812 5369.453125 L 485.625 5369.453125 " transform="matrix(0.1,0,0,-0.1,0,555)"/>
<path style=" stroke:none;fill-rule:nonzero;fill:rgb(0%,0%,0%);fill-opacity:1;" d="M 33.234375 22.675781 L 32.410156 24.976562 L 25.363281 24.976562 L 25.363281 24.648438 C 27.433594 22.757812 28.886719 21.210938 29.734375 20.011719 C 30.578125 18.8125 31.003906 17.71875 31.003906 16.738281 C 31.003906 15.972656 30.769531 15.347656 30.308594 14.859375 C 29.84375 14.378906 29.289062 14.136719 28.640625 14.136719 C 28.058594 14.136719 27.535156 14.304688 27.066406 14.644531 C 26.597656 14.984375 26.253906 15.484375 26.035156 16.152344 L 25.710938 16.152344 C 25.855469 15.066406 26.230469 14.234375 26.839844 13.65625 C 27.445312 13.078125 28.207031 12.789062 29.117188 12.789062 C 30.085938 12.789062 30.894531 13.101562 31.542969 13.722656 C 32.195312 14.34375 32.519531 15.074219 32.519531 15.914062 C 32.519531 16.519531 32.375 17.128906 32.085938 17.734375 C 31.652344 18.6875 30.953125 19.691406 29.984375 20.746094 C 28.523438 22.351562 27.605469 23.320312 27.230469 23.652344 L 30.351562 23.652344 C 30.988281 23.652344 31.433594 23.628906 31.683594 23.578125 C 31.9375 23.527344 32.167969 23.429688 32.378906 23.285156 C 32.589844 23.140625 32.765625 22.9375 32.910156 22.675781 Z M 36.25 23.261719 C 36.523438 23.261719 36.753906 23.359375 36.941406 23.554688 C 37.128906 23.75 37.222656 23.976562 37.222656 24.238281 C 37.222656 24.511719 37.128906 24.742188 36.941406 24.933594 C 36.753906 25.121094 36.523438 25.214844 36.25 25.214844 C 35.972656 25.214844 35.742188 25.121094 35.554688 24.933594 C 35.367188 24.742188 35.273438 24.511719 35.273438 24.238281 C 35.273438 23.964844 35.367188 23.730469 35.554688 23.542969 C 35.742188 23.355469 35.972656 23.261719 36.25 23.261719 Z M 39.152344 19.078125 C 39.152344 17.71875 39.359375 16.546875 39.773438 15.554688 C 40.183594 14.566406 40.730469 13.832031 41.40625 13.355469 C 41.941406 12.980469 42.492188 12.789062 43.054688 12.789062 C 43.964844 12.789062 44.78125 13.253906 45.503906 14.179688 C 46.414062 15.335938 46.871094 16.902344 46.871094 18.882812 C 46.871094 20.269531 46.671875 21.449219 46.277344 22.417969 C 45.878906 23.386719 45.367188 24.089844 44.746094 24.53125 C 44.125 24.972656 43.53125 25.191406 42.96875 25.191406 C 41.828125 25.191406 40.875 24.519531 40.105469 23.175781 C 39.472656 22.035156 39.152344 20.667969 39.152344 19.078125 Z M 40.886719 19.296875 C 40.886719 20.941406 41.089844 22.285156 41.496094 23.328125 C 41.828125 24.195312 42.324219 24.628906 42.992188 24.628906 C 43.308594 24.628906 43.636719 24.488281 43.976562 24.203125 C 44.316406 23.921875 44.574219 23.441406 44.746094 22.765625 C 45.023438 21.765625 45.160156 20.34375 45.160156 18.492188 C 45.160156 17.132812 45.015625 16 44.726562 15.089844 C 44.523438 14.410156 44.246094 13.933594 43.902344 13.65625 C 43.667969 13.46875 43.382812 13.375 43.035156 13.375 C 42.644531 13.375 42.289062 13.550781 41.972656 13.894531 C 41.550781 14.386719 41.265625 15.15625 41.117188 16.203125 C 40.964844 17.253906 40.886719 18.28125 40.886719 19.296875 "/>
<path style="fill:none;stroke-width:1.2;stroke-linecap:butt;stroke-linejoin:round;stroke:rgb(0%,0%,0%);stroke-opacity:1;stroke-miterlimit:10;" d="M 541.132812 582.734375 L 513.359375 582.734375 " transform="matrix(0.1,0,0,-0.1,0,555)"/>
<path style="fill:none;stroke-width:1.2;stroke-linecap:butt;stroke-linejoin:round;stroke:rgb(0%,0%,0%);stroke-opacity:1;stroke-miterlimit:10;" d="M 541.132812 1220.976562 L 513.359375 1220.976562 " transform="matrix(0.1,0,0,-0.1,0,555)"/>
<path style="fill:none;stroke-width:1.2;stroke-linecap:butt;stroke-linejoin:round;stroke:rgb(0%,0%,0%);stroke-opacity:1;stroke-miterlimit:10;" d="M 541.132812 1859.21875 L 513.359375 1859.21875 " transform="matrix(0.1,0,0,-0.1,0,555)"/>
<path style="fill:none;stroke-width:1.2;stroke-linecap:butt;stroke-linejoin:round;stroke:rgb(0%,0%,0%);stroke-opacity:1;stroke-miterlimit:10;" d="M 541.132812 2497.460938 L 513.359375 2497.460938 " transform="matrix(0.1,0,0,-0.1,0,555)"/>
<path style="fill:none;stroke-width:1.2;stroke-linecap:butt;stroke-linejoin:round;stroke:rgb(0%,0%,0%);stroke-opacity:1;stroke-miterlimit:10;" d="M 541.132812 3135.664062 L 513.359375 3135.664062 " transform="matrix(0.1,0,0,-0.1,0,555)"/>
<path style="fill:none;stroke-width:1.2;stroke-linecap:butt;stroke-linejoin:round;stroke:rgb(0%,0%,0%);stroke-opacity:1;stroke-miterlimit:10;" d="M 541.132812 3773.90625 L 513.359375 3773.90625 " transform="matrix(0.1,0,0,-0.1,0,555)"/>
<path style="fill:none;stroke-width:1.2;stroke-linecap:butt;stroke-linejoin:round;stroke:rgb(0%,0%,0%);stroke-opacity:1;stroke-miterlimit:10;" d="M 541.132812 4412.148438 L 513.359375 4412.148438 " transform="matrix(0.1,0,0,-0.1,0,555)"/>
<path style="fill:none;stroke-width:1.2;stroke-linecap:butt;stroke-linejoin:round;stroke:rgb(0%,0%,0%);stroke-opacity:1;stroke-miterlimit:10;" d="M 541.132812 5050.351562 L 513.359375 5050.351562 " transform="matrix(0.1,0,0,-0.1,0,555)"/>
</g>
</svg>
