<?xml version="1.0" encoding="UTF-8"?>
<svg xmlns="http://www.w3.org/2000/svg" xmlns:xlink="http://www.w3.org/1999/xlink" width="555pt" height="555pt" viewBox="0 0 555 555" version="1.1">
<defs>
<clipPath id="clip1">
  <path d="M 53 276 L 544 276 L 544 537.65625 L 53 537.65625 Z M 53 276 "/>
</clipPath>
<clipPath id="clip2">
  <path d="M 28 536 L 33.300781 536 L 33.300781 538 L 28 538 Z M 28 536 "/>
</clipPath>
<clipPath id="clip3">
  <path d="M 28 471 L 33.300781 471 L 33.300781 473 L 28 473 Z M 28 471 "/>
</clipPath>
<clipPath id="clip4">
  <path d="M 28 407 L 33.300781 407 L 33.300781 409 L 28 409 Z M 28 407 "/>
</clipPath>
<clipPath id="clip5">
  <path d="M 28 342 L 33.300781 342 L 33.300781 344 L 28 344 Z M 28 342 "/>
</clipPath>
</defs>
<g id="surface1">
<rect x="0" y="0" width="555" height="555" style="fill:rgb(100%,100%,100%);fill-opacity:1;stroke:none;"/>
<g clip-path="url(#clip1)" clip-rule="nonzero">
<path style="fill:none;stroke-width:20.8125;stroke-linecap:butt;stroke-linejoin:round;stroke:rgb(100%,0%,0%);stroke-opacity:1;stroke-miterlimit:10;" d="M 541.132812 187.304688 L 5425.039062 2778.359375 " transform="matrix(0.1,0,0,-0.1,0,555)"/>
</g>
<path style="fill:none;stroke-width:27.75;stroke-linecap:butt;stroke-linejoin:round;stroke:rgb(0%,0%,100%);stroke-opacity:1;stroke-miterlimit:10;" d="M 541.132812 2778.359375 L 566.796875 2737.773438 L 589.140625 2702.96875 L 614.257812 2664.296875 L 639.570312 2625.898438 L 664.726562 2588.28125 L 688.085938 2553.867188 L 712.226562 2518.75 L 737.226562 2482.96875 L 762.148438 2447.8125 L 787.773438 2412.265625 L 810.351562 2381.367188 L 835.742188 2347.148438 L 861.25 2313.398438 L 885.859375 2281.367188 L 908.164062 2252.734375 L 934.726562 2219.257812 L 957.226562 2191.367188 L 983.359375 2159.492188 L 1006.523438 2131.757812 L 1031.953125 2101.875 L 1056.132812 2073.945312 L 1081.367188 2045.351562 L 1104.53125 2019.570312 L 1129.570312 1992.304688 L 1155.546875 1964.53125 L 1178.125 1940.820312 L 1202.578125 1915.742188 L 1227.773438 1890.351562 L 1252.460938 1866.09375 L 1276.328125 1843.085938 L 1302.851562 1818.125 L 1326.679688 1796.210938 L 1352.109375 1773.398438 L 1375.15625 1753.164062 L 1400.351562 1731.601562 L 1424.0625 1711.835938 L 1448.867188 1691.679688 L 1473.085938 1672.460938 L 1498.476562 1652.890625 L 1522.890625 1634.609375 L 1547.851562 1616.445312 L 1572.65625 1598.945312 L 1595.429688 1583.359375 L 1621.523438 1566.015625 L 1644.84375 1551.015625 L 1669.726562 1535.546875 L 1693.554688 1521.25 L 1720 1505.9375 L 1742.890625 1493.203125 L 1768.90625 1479.257812 L 1792.578125 1467.070312 L 1818.515625 1454.296875 L 1840.859375 1443.75 L 1866.328125 1432.265625 L 1890.9375 1421.71875 L 1915.507812 1411.679688 L 1940 1402.226562 L 1963.515625 1393.632812 L 1988.945312 1384.84375 L 2013.203125 1377.03125 L 2038.710938 1369.335938 L 2061.796875 1362.851562 L 2087.34375 1356.289062 L 2111.757812 1350.46875 L 2136.132812 1345.195312 L 2161.640625 1340.234375 L 2185.078125 1336.171875 L 2209.101562 1332.5 L 2235.664062 1329.023438 L 2259.6875 1326.445312 L 2284.257812 1324.296875 L 2309.21875 1322.65625 L 2332.1875 1321.601562 L 2356.679688 1321.015625 L 2380.9375 1320.9375 L 2406.953125 1321.40625 L 2429.882812 1322.34375 L 2456.328125 1323.945312 L 2480.195312 1325.9375 L 2503.828125 1328.398438 L 2529.21875 1331.5625 L 2554.726562 1335.3125 L 2577.96875 1339.21875 L 2602.578125 1343.90625 L 2626.640625 1348.945312 L 2652.695312 1355 L 2675.273438 1360.703125 L 2701.171875 1367.8125 L 2725.546875 1375.039062 L 2749.648438 1382.65625 L 2773.789062 1390.859375 L 2798.4375 1399.6875 L 2824.53125 1409.648438 L 2848.4375 1419.296875 L 2872.070312 1429.296875 L 2897.304688 1440.546875 L 2922.539062 1452.304688 L 2945.15625 1463.320312 L 2971.914062 1476.992188 L 2994.335938 1488.867188 L 3020.546875 1503.320312 L 3045.585938 1517.695312 L 3067.890625 1530.976562 L 3093.046875 1546.445312 L 3118.359375 1562.539062 L 3143.515625 1579.140625 L 3166.835938 1595 L 3191.015625 1611.953125 L 3216.015625 1629.960938 L 3240.898438 1648.515625 L 3266.523438 1668.125 L 3289.101562 1685.898438 L 3314.53125 1706.40625 L 3340.039062 1727.578125 L 3364.609375 1748.515625 L 3386.953125 1767.96875 L 3413.476562 1791.679688 L 3435.976562 1812.226562 L 3462.148438 1836.71875 L 3485.3125 1858.867188 L 3510.703125 1883.710938 L 3534.921875 1907.890625 L 3560.15625 1933.671875 L 3583.320312 1957.8125 L 3608.320312 1984.414062 L 3634.296875 2012.617188 L 3656.914062 2037.617188 L 3681.328125 2065.117188 L 3706.5625 2094.101562 L 3731.25 2122.96875 L 3755.117188 2151.40625 L 3781.640625 2183.554688 L 3805.46875 2212.96875 L 3830.898438 2244.921875 L 3853.945312 2274.375 L 3879.140625 2307.109375 L 3902.851562 2338.398438 L 3927.65625 2371.601562 L 3951.875 2404.609375 L 3977.226562 2439.6875 L 4001.640625 2474.023438 L 4026.640625 2509.6875 L 4051.445312 2545.546875 L 4074.21875 2578.984375 L 4100.273438 2617.890625 L 4123.632812 2653.164062 L 4148.515625 2691.289062 L 4172.34375 2728.28125 L 4198.789062 2769.960938 L 4221.679688 2806.523438 L 4247.695312 2848.59375 L 4271.367188 2887.421875 L 4297.265625 2930.507812 L 4319.648438 2968.125 L 4345.078125 3011.484375 L 4369.6875 3053.90625 L 4394.296875 3096.835938 L 4418.789062 3140.117188 L 4442.304688 3182.1875 L 4467.734375 3228.203125 L 4491.992188 3272.617188 L 4517.460938 3319.882812 L 4540.585938 3363.164062 L 4566.09375 3411.523438 L 4590.546875 3458.398438 L 4614.921875 3505.664062 L 4640.390625 3555.585938 L 4663.867188 3602.03125 L 4687.890625 3650.15625 L 4714.414062 3703.828125 L 4738.4375 3752.96875 L 4763.007812 3803.710938 L 4788.007812 3855.898438 L 4810.976562 3904.335938 L 4835.429688 3956.445312 L 4859.726562 4008.710938 L 4885.703125 4065.15625 L 4908.632812 4115.46875 L 4935.117188 4174.0625 L 4958.984375 4227.5 L 4982.617188 4280.820312 L 5008.007812 4338.710938 L 5033.515625 4397.421875 L 5056.71875 4451.328125 L 5081.367188 4509.0625 L 5105.429688 4565.9375 L 5131.484375 4628.164062 L 5154.0625 4682.460938 L 5179.960938 4745.351562 L 5204.335938 4805.039062 L 5228.4375 4864.648438 L 5252.578125 4924.804688 L 5277.1875 4986.71875 L 5303.28125 5052.890625 L 5327.226562 5114.0625 L 5350.859375 5174.960938 L 5376.09375 5240.585938 L 5401.289062 5306.640625 L 5425.039062 5369.414062 " transform="matrix(0.1,0,0,-0.1,0,555)"/>
<path style="fill:none;stroke-width:13.875;stroke-linecap:square;stroke-linejoin:miter;stroke:rgb(0%,0%,0%);stroke-opacity:1;stroke-miterlimit:10;" d="M 3017.773438 1489.804688 C 3017.773438 1466.796875 2999.140625 1448.164062 2976.132812 1448.164062 C 2953.164062 1448.164062 2934.53125 1466.796875 2934.53125 1489.804688 C 2934.53125 1512.773438 2953.164062 1531.40625 2976.132812 1531.40625 C 2999.140625 1531.40625 3017.773438 1512.773438 3017.773438 1489.804688 Z M 3017.773438 1489.804688 " transform="matrix(0.1,0,0,-0.1,0,555)"/>
<path style=" stroke:none;fill-rule:nonzero;fill:rgb(0%,0%,0%);fill-opacity:1;" d="M 301.777344 406.019531 C 301.777344 408.320312 299.914062 410.183594 297.613281 410.183594 C 295.316406 410.183594 293.453125 408.320312 293.453125 406.019531 C 293.453125 403.722656 295.316406 401.859375 297.613281 401.859375 C 299.914062 401.859375 301.777344 403.722656 301.777344 406.019531 "/>
<path style="fill:none;stroke-width:13.875;stroke-linecap:butt;stroke-linejoin:round;stroke:rgb(0%,0%,0%);stroke-opacity:1;stroke-miterlimit:10;" d="M 541.132812 2778.359375 L 5425.039062 2778.359375 " transform="matrix(0.1,0,0,-0.1,0,555)"/>
<path style=" stroke:none;fill-rule:nonzero;fill:rgb(0%,0%,0%);fill-opacity:1;" d="M 297.273438 315.308594 C 297.5625 315.613281 297.777344 315.921875 297.921875 316.238281 C 298.039062 316.441406 298.210938 316.992188 298.441406 317.890625 L 299.222656 316.738281 C 299.425781 316.449219 299.675781 316.179688 299.972656 315.925781 C 300.265625 315.675781 300.523438 315.496094 300.742188 315.394531 C 300.886719 315.335938 301.042969 315.308594 301.214844 315.308594 C 301.460938 315.308594 301.660156 315.378906 301.8125 315.515625 C 301.964844 315.652344 302.039062 315.8125 302.039062 316.003906 C 302.039062 316.234375 301.996094 316.394531 301.910156 316.480469 C 301.753906 316.621094 301.5625 316.695312 301.347656 316.695312 C 301.214844 316.695312 301.089844 316.667969 300.957031 316.609375 C 300.683594 316.523438 300.492188 316.480469 300.394531 316.480469 C 300.246094 316.480469 300.082031 316.558594 299.894531 316.71875 C 299.535156 317.019531 299.097656 317.613281 298.59375 318.496094 L 299.308594 321.507812 C 299.425781 321.972656 299.519531 322.25 299.589844 322.34375 C 299.664062 322.4375 299.742188 322.484375 299.828125 322.484375 C 299.945312 322.484375 300.089844 322.421875 300.261719 322.289062 C 300.582031 322.015625 300.855469 321.660156 301.089844 321.226562 L 301.390625 321.378906 C 301.015625 322.074219 300.546875 322.652344 299.980469 323.113281 C 299.664062 323.371094 299.390625 323.503906 299.15625 323.503906 C 298.824219 323.503906 298.566406 323.316406 298.375 322.941406 C 298.246094 322.710938 297.992188 321.726562 297.617188 319.992188 C 296.691406 321.582031 295.957031 322.601562 295.40625 323.050781 C 295.046875 323.351562 294.699219 323.503906 294.367188 323.503906 C 294.136719 323.503906 293.917969 323.414062 293.714844 323.242188 C 293.585938 323.113281 293.519531 322.941406 293.519531 322.722656 C 293.519531 322.535156 293.585938 322.375 293.714844 322.246094 C 293.847656 322.117188 294.003906 322.050781 294.191406 322.050781 C 294.378906 322.050781 294.574219 322.144531 294.777344 322.332031 C 294.9375 322.464844 295.058594 322.527344 295.144531 322.527344 C 295.203125 322.527344 295.289062 322.484375 295.40625 322.398438 C 295.683594 322.164062 296.058594 321.683594 296.535156 320.945312 C 297.011719 320.210938 297.320312 319.671875 297.464844 319.339844 C 297.105469 317.910156 296.910156 317.160156 296.878906 317.085938 C 296.753906 316.695312 296.578125 316.421875 296.359375 316.261719 C 296.144531 316.101562 295.820312 316.023438 295.386719 316.023438 C 295.253906 316.023438 295.101562 316.03125 294.929688 316.046875 L 294.929688 315.71875 L 297.273438 315.308594 "/>
<path style="fill:none;stroke-width:1.2;stroke-linecap:butt;stroke-linejoin:round;stroke:rgb(0%,0%,0%);stroke-opacity:1;stroke-miterlimit:10;" d="M 541.132812 2778.359375 L 541.132812 2722.851562 " transform="matrix(0.1,0,0,-0.1,0,555)"/>
<path style="fill:none;stroke-width:1.2;stroke-linecap:butt;stroke-linejoin:round;stroke:rgb(0%,0%,0%);stroke-opacity:1;stroke-miterlimit:10;" d="M 1762.109375 2778.359375 L 1762.109375 2722.851562 " transform="matrix(0.1,0,0,-0.1,0,555)"/>
<path style=" stroke:none;fill-rule:nonzero;fill:rgb(0%,0%,0%);fill-opacity:1;" d="M 172.785156 290.3125 L 175.691406 288.902344 L 175.972656 288.902344 L 175.972656 298.984375 C 175.972656 299.648438 176.003906 300.066406 176.058594 300.230469 C 176.117188 300.394531 176.234375 300.523438 176.40625 300.609375 C 176.578125 300.695312 176.933594 300.746094 177.46875 300.761719 L 177.46875 301.085938 L 172.980469 301.085938 L 172.980469 300.761719 C 173.546875 300.746094 173.910156 300.695312 174.074219 300.609375 C 174.242188 300.523438 174.359375 300.40625 174.421875 300.261719 C 174.488281 300.117188 174.519531 299.691406 174.519531 298.984375 L 174.519531 292.546875 C 174.519531 291.664062 174.492188 291.101562 174.433594 290.855469 C 174.390625 290.664062 174.3125 290.527344 174.207031 290.441406 C 174.097656 290.355469 173.964844 290.3125 173.804688 290.3125 C 173.589844 290.3125 173.292969 290.40625 172.917969 290.59375 L 172.785156 290.3125 "/>
<path style="fill:none;stroke-width:1.2;stroke-linecap:butt;stroke-linejoin:round;stroke:rgb(0%,0%,0%);stroke-opacity:1;stroke-miterlimit:10;" d="M 2983.085938 2778.359375 L 2983.085938 2722.851562 " transform="matrix(0.1,0,0,-0.1,0,555)"/>
<path style=" stroke:none;fill-rule:nonzero;fill:rgb(0%,0%,0%);fill-opacity:1;" d="M 301.023438 298.789062 L 300.199219 301.085938 L 293.152344 301.085938 L 293.152344 300.761719 C 295.21875 298.867188 296.675781 297.320312 297.519531 296.121094 C 298.367188 294.921875 298.789062 293.832031 298.789062 292.847656 C 298.789062 292.082031 298.558594 291.457031 298.09375 290.972656 C 297.632812 290.488281 297.074219 290.246094 296.425781 290.246094 C 295.847656 290.246094 295.324219 290.414062 294.855469 290.757812 C 294.382812 291.097656 294.039062 291.597656 293.824219 292.261719 L 293.5 292.261719 C 293.644531 291.179688 294.019531 290.347656 294.625 289.769531 C 295.234375 289.191406 295.992188 288.902344 296.902344 288.902344 C 297.871094 288.902344 298.679688 289.214844 299.332031 289.835938 C 299.980469 290.457031 300.304688 291.1875 300.304688 292.023438 C 300.304688 292.632812 300.160156 293.238281 299.871094 293.847656 C 299.4375 294.800781 298.738281 295.804688 297.769531 296.859375 C 296.3125 298.464844 295.390625 299.433594 295.015625 299.765625 L 298.140625 299.765625 C 298.773438 299.765625 299.21875 299.738281 299.472656 299.6875 C 299.726562 299.636719 299.953125 299.539062 300.164062 299.394531 C 300.375 299.253906 300.550781 299.050781 300.695312 298.789062 L 301.023438 298.789062 "/>
<path style="fill:none;stroke-width:1.2;stroke-linecap:butt;stroke-linejoin:round;stroke:rgb(0%,0%,0%);stroke-opacity:1;stroke-miterlimit:10;" d="M 4204.0625 2778.359375 L 4204.0625 2722.851562 " transform="matrix(0.1,0,0,-0.1,0,555)"/>
<path style=" stroke:none;fill-rule:nonzero;fill:rgb(0%,0%,0%);fill-opacity:1;" d="M 415.773438 291.417969 C 416.121094 290.609375 416.550781 289.988281 417.074219 289.554688 C 417.59375 289.121094 418.238281 288.902344 419.003906 288.902344 C 419.972656 288.902344 420.707031 289.214844 421.214844 289.835938 C 421.605469 290.296875 421.800781 290.789062 421.800781 291.308594 C 421.800781 292.191406 421.25 293.09375 420.152344 294.019531 C 420.886719 294.308594 421.445312 294.71875 421.820312 295.253906 C 422.195312 295.789062 422.382812 296.417969 422.382812 297.140625 C 422.382812 298.167969 422.054688 299.054688 421.386719 299.808594 C 420.535156 300.804688 419.296875 301.304688 417.679688 301.304688 C 416.871094 301.304688 416.320312 301.203125 416.03125 301 C 415.742188 300.796875 415.597656 300.582031 415.597656 300.347656 C 415.597656 300.175781 415.667969 300.027344 415.804688 299.90625 C 415.941406 299.78125 416.105469 299.722656 416.292969 299.722656 C 416.4375 299.722656 416.589844 299.742188 416.746094 299.785156 C 416.851562 299.816406 417.078125 299.917969 417.429688 300.101562 C 417.785156 300.28125 418.027344 300.394531 418.15625 300.4375 C 418.375 300.492188 418.605469 300.523438 418.851562 300.523438 C 419.445312 300.523438 419.964844 300.292969 420.414062 299.828125 C 420.859375 299.367188 421.085938 298.816406 421.085938 298.183594 C 421.085938 297.71875 420.984375 297.273438 420.78125 296.835938 C 420.621094 296.503906 420.449219 296.253906 420.261719 296.078125 C 420.015625 295.847656 419.671875 295.636719 419.230469 295.449219 C 418.789062 295.261719 418.339844 295.167969 417.875 295.167969 L 417.59375 295.167969 L 417.59375 294.886719 C 418.058594 294.828125 418.523438 294.660156 418.992188 294.386719 C 419.460938 294.113281 419.800781 293.785156 420.011719 293.402344 C 420.222656 293.019531 420.324219 292.589844 420.324219 292.113281 C 420.324219 291.519531 420.136719 291.035156 419.761719 290.660156 C 419.386719 290.28125 418.914062 290.097656 418.351562 290.097656 C 417.441406 290.097656 416.683594 290.578125 416.078125 291.546875 L 415.773438 291.417969 "/>
<path style="fill:none;stroke-width:1.2;stroke-linecap:butt;stroke-linejoin:round;stroke:rgb(0%,0%,0%);stroke-opacity:1;stroke-miterlimit:10;" d="M 5425.039062 2778.359375 L 5425.039062 2722.851562 " transform="matrix(0.1,0,0,-0.1,0,555)"/>
<path style=" stroke:none;fill-rule:nonzero;fill:rgb(0%,0%,0%);fill-opacity:1;" d="M 545.351562 296.6875 L 545.351562 297.941406 L 543.746094 297.941406 L 543.746094 301.085938 L 542.296875 301.085938 L 542.296875 297.941406 L 537.242188 297.941406 L 537.242188 296.816406 L 542.792969 288.902344 L 543.746094 288.902344 L 543.746094 296.6875 Z M 542.296875 296.6875 L 542.296875 290.746094 L 538.109375 296.6875 L 542.296875 296.6875 "/>
<path style="fill:none;stroke-width:1.2;stroke-linecap:butt;stroke-linejoin:round;stroke:rgb(0%,0%,0%);stroke-opacity:1;stroke-miterlimit:10;" d="M 1151.601562 2778.359375 L 1151.601562 2750.625 " transform="matrix(0.1,0,0,-0.1,0,555)"/>
<path style="fill:none;stroke-width:1.2;stroke-linecap:butt;stroke-linejoin:round;stroke:rgb(0%,0%,0%);stroke-opacity:1;stroke-miterlimit:10;" d="M 2372.617188 2778.359375 L 2372.617188 2750.625 " transform="matrix(0.1,0,0,-0.1,0,555)"/>
<path style="fill:none;stroke-width:1.2;stroke-linecap:butt;stroke-linejoin:round;stroke:rgb(0%,0%,0%);stroke-opacity:1;stroke-miterlimit:10;" d="M 3593.554688 2778.359375 L 3593.554688 2750.625 " transform="matrix(0.1,0,0,-0.1,0,555)"/>
<path style="fill:none;stroke-width:1.2;stroke-linecap:butt;stroke-linejoin:round;stroke:rgb(0%,0%,0%);stroke-opacity:1;stroke-miterlimit:10;" d="M 4814.53125 2778.359375 L 4814.53125 2750.625 " transform="matrix(0.1,0,0,-0.1,0,555)"/>
<path style="fill:none;stroke-width:13.875;stroke-linecap:butt;stroke-linejoin:round;stroke:rgb(0%,0%,0%);stroke-opacity:1;stroke-miterlimit:10;" d="M 541.132812 187.304688 L 541.132812 5369.414062 " transform="matrix(0.1,0,0,-0.1,0,555)"/>
<path style="fill:none;stroke-width:1.2;stroke-linecap:butt;stroke-linejoin:round;stroke:rgb(0%,0%,0%);stroke-opacity:1;stroke-miterlimit:10;" d="M 541.132812 187.304688 L 485.625 187.304688 " transform="matrix(0.1,0,0,-0.1,0,555)"/>
<g clip-path="url(#clip2)" clip-rule="nonzero">
<path style=" stroke:none;fill-rule:nonzero;fill:rgb(0%,0%,0%);fill-opacity:1;" d="M 28.03125 537.570312 L 39.957031 537.570312 L 39.957031 536.636719 L 28.03125 536.636719 Z M 28.03125 537.570312 "/>
</g>
<path style=" stroke:none;fill-rule:nonzero;fill:rgb(0%,0%,0%);fill-opacity:1;" d="M 44.464844 538.109375 L 44.464844 539.367188 L 42.859375 539.367188 L 42.859375 542.511719 L 41.40625 542.511719 L 41.40625 539.367188 L 36.355469 539.367188 L 36.355469 538.238281 L 41.90625 530.328125 L 42.859375 530.328125 L 42.859375 538.109375 Z M 41.40625 538.109375 L 41.40625 532.167969 L 37.222656 538.109375 L 41.40625 538.109375 "/>
<path style="fill:none;stroke-width:1.2;stroke-linecap:butt;stroke-linejoin:round;stroke:rgb(0%,0%,0%);stroke-opacity:1;stroke-miterlimit:10;" d="M 541.132812 835.078125 L 485.625 835.078125 " transform="matrix(0.1,0,0,-0.1,0,555)"/>
<g clip-path="url(#clip3)" clip-rule="nonzero">
<path style=" stroke:none;fill-rule:nonzero;fill:rgb(0%,0%,0%);fill-opacity:1;" d="M 28.03125 472.355469 L 39.957031 472.355469 L 39.957031 471.421875 L 28.03125 471.421875 Z M 28.03125 472.355469 "/>
</g>
<path style=" stroke:none;fill-rule:nonzero;fill:rgb(0%,0%,0%);fill-opacity:1;" d="M 36.984375 467.628906 C 37.332031 466.820312 37.765625 466.199219 38.285156 465.765625 C 38.804688 465.332031 39.449219 465.113281 40.214844 465.113281 C 41.183594 465.113281 41.921875 465.425781 42.425781 466.046875 C 42.816406 466.511719 43.011719 467.003906 43.011719 467.523438 C 43.011719 468.402344 42.464844 469.304688 41.363281 470.230469 C 42.101562 470.519531 42.65625 470.933594 43.035156 471.46875 C 43.410156 472.003906 43.597656 472.632812 43.597656 473.355469 C 43.597656 474.378906 43.265625 475.269531 42.601562 476.019531 C 41.746094 477.015625 40.511719 477.515625 38.894531 477.515625 C 38.085938 477.515625 37.535156 477.414062 37.246094 477.210938 C 36.957031 477.011719 36.8125 476.792969 36.8125 476.5625 C 36.8125 476.386719 36.882812 476.242188 37.019531 476.117188 C 37.15625 475.992188 37.316406 475.933594 37.507812 475.933594 C 37.652344 475.933594 37.800781 475.957031 37.960938 476 C 38.0625 476.027344 38.289062 476.132812 38.644531 476.3125 C 38.996094 476.492188 39.238281 476.605469 39.371094 476.648438 C 39.585938 476.707031 39.820312 476.734375 40.0625 476.734375 C 40.65625 476.734375 41.175781 476.503906 41.625 476.042969 C 42.074219 475.578125 42.296875 475.03125 42.296875 474.394531 C 42.296875 473.929688 42.195312 473.484375 41.992188 473.050781 C 41.835938 472.71875 41.660156 472.464844 41.472656 472.289062 C 41.226562 472.0625 40.882812 471.851562 40.445312 471.664062 C 40.003906 471.476562 39.550781 471.382812 39.089844 471.382812 L 38.804688 471.382812 L 38.804688 471.097656 C 39.269531 471.039062 39.734375 470.875 40.207031 470.597656 C 40.675781 470.328125 41.015625 469.996094 41.222656 469.613281 C 41.433594 469.230469 41.539062 468.800781 41.539062 468.324219 C 41.539062 467.730469 41.351562 467.246094 40.972656 466.871094 C 40.597656 466.496094 40.128906 466.308594 39.566406 466.308594 C 38.65625 466.308594 37.894531 466.792969 37.289062 467.761719 L 36.984375 467.628906 "/>
<path style="fill:none;stroke-width:1.2;stroke-linecap:butt;stroke-linejoin:round;stroke:rgb(0%,0%,0%);stroke-opacity:1;stroke-miterlimit:10;" d="M 541.132812 1482.851562 L 485.625 1482.851562 " transform="matrix(0.1,0,0,-0.1,0,555)"/>
<g clip-path="url(#clip4)" clip-rule="nonzero">
<path style=" stroke:none;fill-rule:nonzero;fill:rgb(0%,0%,0%);fill-opacity:1;" d="M 28.03125 408.53125 L 39.957031 408.53125 L 39.957031 407.597656 L 28.03125 407.597656 Z M 28.03125 408.53125 "/>
</g>
<path style=" stroke:none;fill-rule:nonzero;fill:rgb(0%,0%,0%);fill-opacity:1;" d="M 44.335938 411.175781 L 43.511719 413.476562 L 36.464844 413.476562 L 36.464844 413.148438 C 38.53125 411.257812 39.988281 409.710938 40.832031 408.507812 C 41.679688 407.308594 42.101562 406.21875 42.101562 405.234375 C 42.101562 404.46875 41.871094 403.84375 41.40625 403.359375 C 40.945312 402.878906 40.390625 402.632812 39.738281 402.632812 C 39.160156 402.632812 38.636719 402.804688 38.167969 403.144531 C 37.699219 403.484375 37.355469 403.984375 37.136719 404.648438 L 36.8125 404.648438 C 36.957031 403.566406 37.332031 402.734375 37.941406 402.15625 C 38.546875 401.578125 39.304688 401.289062 40.214844 401.289062 C 41.183594 401.289062 41.992188 401.601562 42.644531 402.222656 C 43.292969 402.84375 43.621094 403.574219 43.621094 404.410156 C 43.621094 405.019531 43.476562 405.625 43.1875 406.234375 C 42.753906 407.1875 42.050781 408.191406 41.082031 409.246094 C 39.621094 410.851562 38.707031 411.820312 38.328125 412.152344 L 41.453125 412.152344 C 42.085938 412.152344 42.53125 412.125 42.785156 412.078125 C 43.039062 412.023438 43.269531 411.929688 43.476562 411.785156 C 43.6875 411.640625 43.863281 411.4375 44.011719 411.175781 L 44.335938 411.175781 "/>
<path style="fill:none;stroke-width:1.2;stroke-linecap:butt;stroke-linejoin:round;stroke:rgb(0%,0%,0%);stroke-opacity:1;stroke-miterlimit:10;" d="M 541.132812 2130.625 L 485.625 2130.625 " transform="matrix(0.1,0,0,-0.1,0,555)"/>
<g clip-path="url(#clip5)" clip-rule="nonzero">
<path style=" stroke:none;fill-rule:nonzero;fill:rgb(0%,0%,0%);fill-opacity:1;" d="M 28.03125 343.320312 L 39.957031 343.320312 L 39.957031 342.386719 L 28.03125 342.386719 Z M 28.03125 343.320312 "/>
</g>
<path style=" stroke:none;fill-rule:nonzero;fill:rgb(0%,0%,0%);fill-opacity:1;" d="M 38.199219 337.488281 L 41.105469 336.078125 L 41.386719 336.078125 L 41.386719 346.160156 C 41.386719 346.824219 41.414062 347.238281 41.472656 347.40625 C 41.53125 347.570312 41.648438 347.699219 41.820312 347.785156 C 41.992188 347.871094 42.347656 347.921875 42.882812 347.9375 L 42.882812 348.261719 L 38.394531 348.261719 L 38.394531 347.9375 C 38.957031 347.921875 39.324219 347.871094 39.488281 347.785156 C 39.65625 347.699219 39.773438 347.582031 39.835938 347.4375 C 39.902344 347.292969 39.933594 346.867188 39.933594 346.160156 L 39.933594 339.71875 C 39.933594 338.839844 39.90625 338.273438 39.847656 338.03125 C 39.804688 337.839844 39.726562 337.703125 39.621094 337.617188 C 39.511719 337.53125 39.378906 337.488281 39.21875 337.488281 C 39 337.488281 38.707031 337.582031 38.328125 337.769531 L 38.199219 337.488281 "/>
<path style="fill:none;stroke-width:1.2;stroke-linecap:butt;stroke-linejoin:round;stroke:rgb(0%,0%,0%);stroke-opacity:1;stroke-miterlimit:10;" d="M 541.132812 2778.359375 L 485.625 2778.359375 " transform="matrix(0.1,0,0,-0.1,0,555)"/>
<path style=" stroke:none;fill-rule:nonzero;fill:rgb(0%,0%,0%);fill-opacity:1;" d="M 36.726562 277.152344 C 36.726562 275.792969 36.929688 274.621094 37.34375 273.628906 C 37.753906 272.640625 38.300781 271.90625 38.980469 271.429688 C 39.515625 271.054688 40.0625 270.863281 40.628906 270.863281 C 41.539062 270.863281 42.355469 271.328125 43.078125 272.253906 C 43.988281 273.410156 44.445312 274.976562 44.445312 276.957031 C 44.445312 278.34375 44.246094 279.523438 43.847656 280.492188 C 43.449219 281.460938 42.941406 282.164062 42.320312 282.605469 C 41.699219 283.046875 41.105469 283.265625 40.539062 283.265625 C 39.398438 283.265625 38.445312 282.59375 37.679688 281.25 C 37.042969 280.109375 36.726562 278.742188 36.726562 277.152344 Z M 38.460938 277.371094 C 38.460938 279.015625 38.660156 280.359375 39.066406 281.402344 C 39.398438 282.269531 39.898438 282.703125 40.5625 282.703125 C 40.878906 282.703125 41.210938 282.5625 41.550781 282.28125 C 41.890625 281.996094 42.144531 281.515625 42.320312 280.839844 C 42.59375 279.839844 42.730469 278.417969 42.730469 276.566406 C 42.730469 275.210938 42.585938 274.074219 42.296875 273.164062 C 42.09375 272.484375 41.820312 272.007812 41.472656 271.730469 C 41.242188 271.546875 40.953125 271.449219 40.605469 271.449219 C 40.214844 271.449219 39.863281 271.625 39.542969 271.972656 C 39.125 272.460938 38.839844 273.230469 38.6875 274.28125 C 38.535156 275.328125 38.460938 276.359375 38.460938 277.371094 "/>
<path style="fill:none;stroke-width:1.2;stroke-linecap:butt;stroke-linejoin:round;stroke:rgb(0%,0%,0%);stroke-opacity:1;stroke-miterlimit:10;" d="M 541.132812 3426.132812 L 485.625 3426.132812 " transform="matrix(0.1,0,0,-0.1,0,555)"/>
<path style=" stroke:none;fill-rule:nonzero;fill:rgb(0%,0%,0%);fill-opacity:1;" d="M 38.199219 208.449219 L 41.105469 207.039062 L 41.386719 207.039062 L 41.386719 217.121094 C 41.386719 217.785156 41.414062 218.203125 41.472656 218.367188 C 41.53125 218.535156 41.648438 218.660156 41.820312 218.746094 C 41.992188 218.835938 42.347656 218.886719 42.882812 218.898438 L 42.882812 219.226562 L 38.394531 219.226562 L 38.394531 218.898438 C 38.957031 218.886719 39.324219 218.835938 39.488281 218.746094 C 39.65625 218.660156 39.773438 218.546875 39.835938 218.402344 C 39.902344 218.257812 39.933594 217.828125 39.933594 217.121094 L 39.933594 210.683594 C 39.933594 209.800781 39.90625 209.238281 39.847656 208.992188 C 39.804688 208.804688 39.726562 208.664062 39.621094 208.578125 C 39.511719 208.492188 39.378906 208.449219 39.21875 208.449219 C 39 208.449219 38.707031 208.542969 38.328125 208.730469 L 38.199219 208.449219 "/>
<path style="fill:none;stroke-width:1.2;stroke-linecap:butt;stroke-linejoin:round;stroke:rgb(0%,0%,0%);stroke-opacity:1;stroke-miterlimit:10;" d="M 541.132812 4073.90625 L 485.625 4073.90625 " transform="matrix(0.1,0,0,-0.1,0,555)"/>
<path style=" stroke:none;fill-rule:nonzero;fill:rgb(0%,0%,0%);fill-opacity:1;" d="M 44.335938 151.714844 L 43.511719 154.011719 L 36.464844 154.011719 L 36.464844 153.6875 C 38.53125 151.792969 39.988281 150.246094 40.832031 149.046875 C 41.679688 147.847656 42.101562 146.757812 42.101562 145.773438 C 42.101562 145.007812 41.871094 144.382812 41.40625 143.898438 C 40.945312 143.414062 40.390625 143.171875 39.738281 143.171875 C 39.160156 143.171875 38.636719 143.339844 38.167969 143.679688 C 37.699219 144.019531 37.355469 144.523438 37.136719 145.1875 L 36.8125 145.1875 C 36.957031 144.105469 37.332031 143.273438 37.941406 142.695312 C 38.546875 142.117188 39.304688 141.828125 40.214844 141.828125 C 41.183594 141.828125 41.992188 142.136719 42.644531 142.761719 C 43.292969 143.382812 43.621094 144.109375 43.621094 144.949219 C 43.621094 145.558594 43.476562 146.164062 43.1875 146.769531 C 42.753906 147.722656 42.050781 148.730469 41.082031 149.785156 C 39.621094 151.390625 38.707031 152.355469 38.328125 152.6875 L 41.453125 152.6875 C 42.085938 152.6875 42.53125 152.664062 42.785156 152.613281 C 43.039062 152.5625 43.269531 152.464844 43.476562 152.320312 C 43.6875 152.175781 43.863281 151.972656 44.011719 151.714844 L 44.335938 151.714844 "/>
<path style="fill:none;stroke-width:1.2;stroke-linecap:butt;stroke-linejoin:round;stroke:rgb(0%,0%,0%);stroke-opacity:1;stroke-miterlimit:10;" d="M 541.132812 4721.640625 L 485.625 4721.640625 " transform="matrix(0.1,0,0,-0.1,0,555)"/>
<path style=" stroke:none;fill-rule:nonzero;fill:rgb(0%,0%,0%);fill-opacity:1;" d="M 36.984375 79.132812 C 37.332031 78.320312 37.765625 77.699219 38.285156 77.265625 C 38.804688 76.832031 39.449219 76.617188 40.214844 76.617188 C 41.183594 76.617188 41.921875 76.925781 42.425781 77.546875 C 42.816406 78.011719 43.011719 78.503906 43.011719 79.023438 C 43.011719 79.902344 42.464844 80.808594 41.363281 81.730469 C 42.101562 82.019531 42.65625 82.433594 43.035156 82.96875 C 43.410156 83.503906 43.597656 84.132812 43.597656 84.855469 C 43.597656 85.878906 43.265625 86.769531 42.601562 87.519531 C 41.746094 88.519531 40.511719 89.015625 38.894531 89.015625 C 38.085938 89.015625 37.535156 88.914062 37.246094 88.714844 C 36.957031 88.511719 36.8125 88.292969 36.8125 88.0625 C 36.8125 87.890625 36.882812 87.742188 37.019531 87.617188 C 37.15625 87.496094 37.316406 87.433594 37.507812 87.433594 C 37.652344 87.433594 37.800781 87.457031 37.960938 87.5 C 38.0625 87.527344 38.289062 87.632812 38.644531 87.8125 C 38.996094 87.992188 39.238281 88.105469 39.371094 88.148438 C 39.585938 88.207031 39.820312 88.234375 40.0625 88.234375 C 40.65625 88.234375 41.175781 88.003906 41.625 87.542969 C 42.074219 87.078125 42.296875 86.53125 42.296875 85.894531 C 42.296875 85.433594 42.195312 84.984375 41.992188 84.550781 C 41.835938 84.21875 41.660156 83.964844 41.472656 83.792969 C 41.226562 83.5625 40.882812 83.351562 40.445312 83.164062 C 40.003906 82.976562 39.550781 82.882812 39.089844 82.882812 L 38.804688 82.882812 L 38.804688 82.601562 C 39.269531 82.542969 39.734375 82.375 40.207031 82.101562 C 40.675781 81.824219 41.015625 81.496094 41.222656 81.113281 C 41.433594 80.730469 41.539062 80.300781 41.539062 79.824219 C 41.539062 79.230469 41.351562 78.746094 40.972656 78.371094 C 40.597656 77.996094 40.128906 77.808594 39.566406 77.808594 C 38.65625 77.808594 37.894531 78.292969 37.289062 79.261719 L 36.984375 79.132812 "/>
<path style="fill:none;stroke-width:1.2;stroke-linecap:butt;stroke-linejoin:round;stroke:rgb(0%,0%,0%);stroke-opacity:1;stroke-miterlimit:10;" d="M 541.132812 5369.414062 L 485.625 5369.414062 " transform="matrix(0.1,0,0,-0.1,0,555)"/>
<path style=" stroke:none;fill-rule:nonzero;fill:rgb(0%,0%,0%);fill-opacity:1;" d="M 44.464844 20.574219 L 44.464844 21.832031 L 42.859375 21.832031 L 42.859375 24.976562 L 41.40625 24.976562 L 41.40625 21.832031 L 36.355469 21.832031 L 36.355469 20.703125 L 41.90625 12.789062 L 42.859375 12.789062 L 42.859375 20.574219 Z M 41.40625 20.574219 L 41.40625 14.632812 L 37.222656 20.574219 L 41.40625 20.574219 "/>
<path style="fill:none;stroke-width:1.2;stroke-linecap:butt;stroke-linejoin:round;stroke:rgb(0%,0%,0%);stroke-opacity:1;stroke-miterlimit:10;" d="M 541.132812 511.210938 L 513.359375 511.210938 " transform="matrix(0.1,0,0,-0.1,0,555)"/>
<path style="fill:none;stroke-width:1.2;stroke-linecap:butt;stroke-linejoin:round;stroke:rgb(0%,0%,0%);stroke-opacity:1;stroke-miterlimit:10;" d="M 541.132812 1158.945312 L 513.359375 1158.945312 " transform="matrix(0.1,0,0,-0.1,0,555)"/>
<path style="fill:none;stroke-width:1.2;stroke-linecap:butt;stroke-linejoin:round;stroke:rgb(0%,0%,0%);stroke-opacity:1;stroke-miterlimit:10;" d="M 541.132812 1806.71875 L 513.359375 1806.71875 " transform="matrix(0.1,0,0,-0.1,0,555)"/>
<path style="fill:none;stroke-width:1.2;stroke-linecap:butt;stroke-linejoin:round;stroke:rgb(0%,0%,0%);stroke-opacity:1;stroke-miterlimit:10;" d="M 541.132812 2454.492188 L 513.359375 2454.492188 " transform="matrix(0.1,0,0,-0.1,0,555)"/>
<path style="fill:none;stroke-width:1.2;stroke-linecap:butt;stroke-linejoin:round;stroke:rgb(0%,0%,0%);stroke-opacity:1;stroke-miterlimit:10;" d="M 541.132812 3102.226562 L 513.359375 3102.226562 " transform="matrix(0.1,0,0,-0.1,0,555)"/>
<path style="fill:none;stroke-width:1.2;stroke-linecap:butt;stroke-linejoin:round;stroke:rgb(0%,0%,0%);stroke-opacity:1;stroke-miterlimit:10;" d="M 541.132812 3750 L 513.359375 3750 " transform="matrix(0.1,0,0,-0.1,0,555)"/>
<path style="fill:none;stroke-width:1.2;stroke-linecap:butt;stroke-linejoin:round;stroke:rgb(0%,0%,0%);stroke-opacity:1;stroke-miterlimit:10;" d="M 541.132812 4397.773438 L 513.359375 4397.773438 " transform="matrix(0.1,0,0,-0.1,0,555)"/>
<path style="fill:none;stroke-width:1.2;stroke-linecap:butt;stroke-linejoin:round;stroke:rgb(0%,0%,0%);stroke-opacity:1;stroke-miterlimit:10;" d="M 541.132812 5045.546875 L 513.359375 5045.546875 " transform="matrix(0.1,0,0,-0.1,0,555)"/>
</g>
</svg>
