<?xml version="1.0" encoding="UTF-8"?>
<svg xmlns="http://www.w3.org/2000/svg" xmlns:xlink="http://www.w3.org/1999/xlink" width="555pt" height="555pt" viewBox="0 0 555 555" version="1.1">
<defs>
<clipPath id="clip1">
  <path d="M 41.625 304 L 545 304 L 545 498 L 41.625 498 Z M 41.625 304 "/>
</clipPath>
</defs>
<g id="surface1">
<rect x="0" y="0" width="555" height="555" style="fill:rgb(100%,100%,100%);fill-opacity:1;stroke:none;"/>
<g clip-path="url(#clip1)" clip-rule="nonzero">
<path style="fill:none;stroke-width:20.8125;stroke-linecap:butt;stroke-linejoin:round;stroke:rgb(100%,0%,0%);stroke-opacity:1;stroke-miterlimit:10;" d="M 430.117188 2497.460938 L 5438.945312 582.734375 " transform="matrix(0.1,0,0,-0.1,0,555)"/>
</g>
<path style="fill:none;stroke-width:27.75;stroke-linecap:butt;stroke-linejoin:round;stroke:rgb(0%,0%,100%);stroke-opacity:1;stroke-miterlimit:10;" d="M 430.117188 5369.453125 L 456.445312 5213.320312 L 479.375 5085.039062 L 505.15625 4948.476562 L 531.09375 4818.632812 L 556.914062 4696.328125 L 580.820312 4588.671875 L 605.625 4482.578125 L 631.25 4378.203125 L 656.796875 4279.140625 L 683.085938 4182.148438 L 706.210938 4100.507812 L 732.265625 4012.578125 L 758.4375 3928.242188 L 783.671875 3850.46875 L 806.5625 3782.65625 L 833.789062 3705.273438 L 856.835938 3642.382812 L 883.671875 3571.992188 L 907.421875 3512.148438 L 933.476562 3448.867188 L 958.320312 3390.898438 L 984.179688 3332.578125 L 1007.96875 3280.9375 L 1033.59375 3227.148438 L 1060.234375 3173.242188 L 1083.4375 3127.929688 L 1108.476562 3080.507812 L 1134.335938 3033.164062 L 1159.648438 2988.359375 L 1184.140625 2946.367188 L 1211.328125 2901.210938 L 1235.78125 2861.953125 L 1261.875 2821.25 L 1285.507812 2785.507812 L 1311.328125 2747.539062 L 1335.664062 2712.8125 L 1361.09375 2677.539062 L 1385.9375 2644.0625 L 1411.953125 2609.960938 L 1436.992188 2578.046875 L 1462.617188 2546.289062 L 1488.007812 2515.625 L 1511.367188 2488.203125 L 1538.125 2457.539062 L 1562.070312 2430.859375 L 1587.617188 2403.085938 L 1612.03125 2377.148438 L 1639.140625 2349.101562 L 1662.65625 2325.429688 L 1689.296875 2299.179688 L 1713.59375 2275.820312 L 1740.195312 2250.898438 L 1763.085938 2229.882812 L 1789.21875 2206.484375 L 1814.453125 2184.375 L 1839.648438 2162.8125 L 1864.765625 2141.796875 L 1888.90625 2122.03125 L 1914.960938 2101.132812 L 1939.84375 2081.640625 L 1966.015625 2061.601562 L 1989.6875 2043.789062 L 2015.859375 2024.570312 L 2040.9375 2006.484375 L 2065.976562 1988.867188 L 2092.070312 1970.78125 L 2116.132812 1954.492188 L 2140.78125 1938.125 L 2168.007812 1920.429688 L 2192.617188 1904.726562 L 2217.8125 1888.945312 L 2243.4375 1873.203125 L 2266.992188 1859.023438 L 2292.109375 1844.179688 L 2317.03125 1829.726562 L 2343.632812 1814.53125 L 2367.1875 1801.367188 L 2394.296875 1786.445312 L 2418.789062 1773.242188 L 2443.046875 1760.429688 L 2469.101562 1746.835938 L 2495.234375 1733.476562 L 2519.023438 1721.484375 L 2544.296875 1709.023438 L 2568.984375 1697.03125 L 2595.703125 1684.257812 L 2618.867188 1673.398438 L 2645.429688 1661.09375 L 2670.390625 1649.726562 L 2695.15625 1638.671875 L 2719.882812 1627.773438 L 2745.15625 1616.875 L 2771.914062 1605.46875 L 2796.445312 1595.15625 L 2820.664062 1585.15625 L 2846.5625 1574.648438 L 2872.421875 1564.296875 L 2895.625 1555.15625 L 2923.085938 1544.492188 L 2946.09375 1535.703125 L 2972.96875 1525.585938 L 2998.632812 1516.054688 L 3021.5625 1507.695312 L 3047.304688 1498.398438 L 3073.242188 1489.179688 L 3099.0625 1480.15625 L 3123.007812 1471.914062 L 3147.773438 1463.476562 L 3173.4375 1454.882812 L 3198.945312 1446.445312 L 3225.234375 1437.890625 L 3248.398438 1430.429688 L 3274.453125 1422.1875 L 3300.625 1413.984375 L 3325.820312 1406.210938 L 3348.710938 1399.257812 L 3375.9375 1391.054688 L 3399.023438 1384.21875 L 3425.859375 1376.367188 L 3449.609375 1369.53125 L 3475.664062 1362.109375 L 3500.46875 1355.117188 L 3526.367188 1347.929688 L 3550.15625 1341.40625 L 3575.78125 1334.453125 L 3602.421875 1327.34375 L 3625.625 1321.210938 L 3650.664062 1314.6875 L 3676.523438 1308.046875 L 3701.835938 1301.601562 L 3726.328125 1295.429688 L 3753.515625 1288.710938 L 3777.929688 1282.695312 L 3804.023438 1276.40625 L 3827.65625 1270.742188 L 3853.515625 1264.648438 L 3877.8125 1258.945312 L 3903.242188 1253.085938 L 3928.085938 1247.382812 L 3954.101562 1241.523438 L 3979.179688 1235.9375 L 4004.804688 1230.273438 L 4030.195312 1224.765625 L 4053.554688 1219.726562 L 4080.3125 1214.023438 L 4104.257812 1208.945312 L 4129.765625 1203.632812 L 4154.21875 1198.59375 L 4181.328125 1193.085938 L 4204.804688 1188.359375 L 4231.484375 1183.007812 L 4255.78125 1178.203125 L 4282.34375 1173.046875 L 4305.273438 1168.59375 L 4331.40625 1163.632812 L 4356.601562 1158.867188 L 4381.835938 1154.140625 L 4406.953125 1149.492188 L 4431.09375 1145.078125 L 4457.148438 1140.351562 L 4482.03125 1135.898438 L 4508.164062 1131.25 L 4531.875 1127.070312 L 4558.046875 1122.539062 L 4583.125 1118.203125 L 4608.125 1113.945312 L 4634.257812 1109.53125 L 4658.320312 1105.507812 L 4682.96875 1101.445312 L 4710.15625 1096.953125 L 4734.804688 1092.96875 L 4760 1088.945312 L 4785.625 1084.84375 L 4809.179688 1081.132812 L 4834.257812 1077.226562 L 4859.179688 1073.398438 L 4885.820312 1069.296875 L 4909.335938 1065.742188 L 4936.484375 1061.640625 L 4960.976562 1058.007812 L 4985.195312 1054.453125 L 5011.25 1050.625 L 5037.421875 1046.875 L 5061.210938 1043.476562 L 5086.484375 1039.84375 L 5111.132812 1036.40625 L 5137.890625 1032.65625 L 5161.015625 1029.453125 L 5187.617188 1025.859375 L 5212.578125 1022.460938 L 5237.304688 1019.101562 L 5262.070312 1015.820312 L 5287.304688 1012.460938 L 5314.0625 1008.984375 L 5338.632812 1005.78125 L 5362.851562 1002.695312 L 5388.75 999.375 L 5414.609375 996.09375 L 5438.945312 993.046875 " transform="matrix(0.1,0,0,-0.1,0,555)"/>
<path style="fill:none;stroke-width:13.875;stroke-linecap:square;stroke-linejoin:miter;stroke:rgb(0%,0%,0%);stroke-opacity:1;stroke-miterlimit:10;" d="M 2969.21875 1547.03125 C 2969.21875 1524.0625 2950.585938 1505.390625 2927.617188 1505.390625 C 2904.609375 1505.390625 2885.976562 1524.0625 2885.976562 1547.03125 C 2885.976562 1570.039062 2904.609375 1588.671875 2927.617188 1588.671875 C 2950.585938 1588.671875 2969.21875 1570.039062 2969.21875 1547.03125 Z M 2969.21875 1547.03125 " transform="matrix(0.1,0,0,-0.1,0,555)"/>
<path style=" stroke:none;fill-rule:nonzero;fill:rgb(0%,0%,0%);fill-opacity:1;" d="M 296.921875 400.296875 C 296.921875 402.59375 295.058594 404.460938 292.761719 404.460938 C 290.460938 404.460938 288.597656 402.59375 288.597656 400.296875 C 288.597656 397.996094 290.460938 396.132812 292.761719 396.132812 C 295.058594 396.132812 296.921875 397.996094 296.921875 400.296875 "/>
<path style="fill:none;stroke-width:13.875;stroke-linecap:butt;stroke-linejoin:round;stroke:rgb(0%,0%,0%);stroke-opacity:1;stroke-miterlimit:10;" d="M 402.382812 555 L 5438.945312 555 " transform="matrix(0.1,0,0,-0.1,0,555)"/>
<path style=" stroke:none;fill-rule:nonzero;fill:rgb(0%,0%,0%);fill-opacity:1;" d="M 293.109375 534.535156 C 293.398438 534.835938 293.613281 535.148438 293.757812 535.464844 C 293.875 535.667969 294.050781 536.21875 294.277344 537.113281 L 295.058594 535.964844 C 295.261719 535.675781 295.511719 535.40625 295.808594 535.152344 C 296.105469 534.898438 296.359375 534.722656 296.578125 534.621094 C 296.722656 534.5625 296.878906 534.535156 297.054688 534.535156 C 297.300781 534.535156 297.5 534.601562 297.652344 534.738281 C 297.800781 534.878906 297.878906 535.039062 297.878906 535.226562 C 297.878906 535.457031 297.835938 535.617188 297.746094 535.703125 C 297.589844 535.847656 297.402344 535.921875 297.183594 535.921875 C 297.054688 535.921875 296.925781 535.894531 296.796875 535.835938 C 296.519531 535.75 296.332031 535.703125 296.230469 535.703125 C 296.085938 535.703125 295.921875 535.785156 295.730469 535.941406 C 295.371094 536.246094 294.9375 536.839844 294.433594 537.71875 L 295.144531 540.734375 C 295.261719 541.199219 295.355469 541.472656 295.429688 541.570312 C 295.503906 541.664062 295.578125 541.710938 295.664062 541.710938 C 295.78125 541.710938 295.925781 541.644531 296.101562 541.515625 C 296.417969 541.238281 296.691406 540.886719 296.925781 540.453125 L 297.226562 540.605469 C 296.851562 541.296875 296.382812 541.875 295.820312 542.339844 C 295.503906 542.597656 295.226562 542.730469 294.996094 542.730469 C 294.660156 542.730469 294.402344 542.539062 294.214844 542.164062 C 294.085938 541.933594 293.832031 540.953125 293.457031 539.21875 C 292.53125 540.804688 291.792969 541.824219 291.246094 542.273438 C 290.882812 542.578125 290.535156 542.730469 290.203125 542.730469 C 289.972656 542.730469 289.757812 542.640625 289.554688 542.46875 C 289.421875 542.339844 289.355469 542.164062 289.355469 541.949219 C 289.355469 541.761719 289.421875 541.601562 289.554688 541.472656 C 289.683594 541.339844 289.84375 541.277344 290.03125 541.277344 C 290.21875 541.277344 290.414062 541.371094 290.617188 541.558594 C 290.773438 541.6875 290.898438 541.753906 290.984375 541.753906 C 291.042969 541.753906 291.128906 541.710938 291.246094 541.621094 C 291.519531 541.390625 291.894531 540.90625 292.371094 540.171875 C 292.847656 539.433594 293.160156 538.898438 293.304688 538.566406 C 292.941406 537.136719 292.746094 536.382812 292.71875 536.3125 C 292.589844 535.921875 292.414062 535.648438 292.199219 535.488281 C 291.980469 535.328125 291.65625 535.25 291.222656 535.25 C 291.09375 535.25 290.941406 535.257812 290.765625 535.269531 L 290.765625 534.945312 L 293.109375 534.535156 "/>
<path style="fill:none;stroke-width:1.2;stroke-linecap:butt;stroke-linejoin:round;stroke:rgb(0%,0%,0%);stroke-opacity:1;stroke-miterlimit:10;" d="M 931.015625 555 L 931.015625 499.492188 " transform="matrix(0.1,0,0,-0.1,0,555)"/>
<path style=" stroke:none;fill-rule:nonzero;fill:rgb(0%,0%,0%);fill-opacity:1;" d="M 82.511719 515.804688 C 82.511719 514.445312 82.71875 513.269531 83.132812 512.277344 C 83.542969 511.289062 84.089844 510.554688 84.769531 510.078125 C 85.300781 509.703125 85.851562 509.515625 86.414062 509.515625 C 87.324219 509.515625 88.140625 509.976562 88.863281 510.902344 C 89.777344 512.058594 90.230469 513.628906 90.230469 515.605469 C 90.230469 516.996094 90.03125 518.171875 89.636719 519.140625 C 89.238281 520.109375 88.726562 520.816406 88.105469 521.253906 C 87.484375 521.695312 86.890625 521.917969 86.328125 521.917969 C 85.1875 521.917969 84.234375 521.242188 83.46875 519.902344 C 82.832031 518.757812 82.511719 517.390625 82.511719 515.804688 Z M 84.246094 516.019531 C 84.246094 517.667969 84.449219 519.011719 84.855469 520.050781 C 85.1875 520.917969 85.683594 521.351562 86.351562 521.351562 C 86.667969 521.351562 86.996094 521.210938 87.335938 520.929688 C 87.675781 520.648438 87.933594 520.167969 88.105469 519.488281 C 88.382812 518.492188 88.519531 517.066406 88.519531 515.21875 C 88.519531 513.859375 88.375 512.722656 88.085938 511.8125 C 87.882812 511.132812 87.605469 510.65625 87.261719 510.382812 C 87.03125 510.195312 86.738281 510.101562 86.394531 510.101562 C 86.003906 510.101562 85.648438 510.273438 85.332031 510.621094 C 84.910156 511.113281 84.625 511.882812 84.476562 512.929688 C 84.324219 513.976562 84.246094 515.007812 84.246094 516.019531 Z M 93.136719 519.984375 C 93.410156 519.984375 93.640625 520.082031 93.828125 520.28125 C 94.019531 520.476562 94.109375 520.703125 94.109375 520.960938 C 94.109375 521.238281 94.019531 521.46875 93.828125 521.65625 C 93.640625 521.84375 93.410156 521.9375 93.136719 521.9375 C 92.859375 521.9375 92.628906 521.84375 92.441406 521.65625 C 92.253906 521.46875 92.160156 521.238281 92.160156 520.960938 C 92.160156 520.6875 92.253906 520.457031 92.441406 520.269531 C 92.628906 520.082031 92.859375 519.984375 93.136719 519.984375 Z M 103.78125 517.296875 L 103.78125 518.554688 L 102.175781 518.554688 L 102.175781 521.699219 L 100.722656 521.699219 L 100.722656 518.554688 L 95.671875 518.554688 L 95.671875 517.425781 L 101.222656 509.515625 L 102.175781 509.515625 L 102.175781 517.296875 Z M 100.722656 517.296875 L 100.722656 511.355469 L 96.539062 517.296875 L 100.722656 517.296875 "/>
<path style="fill:none;stroke-width:1.2;stroke-linecap:butt;stroke-linejoin:round;stroke:rgb(0%,0%,0%);stroke-opacity:1;stroke-miterlimit:10;" d="M 1598.828125 555 L 1598.828125 499.492188 " transform="matrix(0.1,0,0,-0.1,0,555)"/>
<path style=" stroke:none;fill-rule:nonzero;fill:rgb(0%,0%,0%);fill-opacity:1;" d="M 149.113281 515.804688 C 149.113281 514.445312 149.320312 513.269531 149.730469 512.277344 C 150.140625 511.289062 150.6875 510.554688 151.367188 510.078125 C 151.902344 509.703125 152.453125 509.515625 153.015625 509.515625 C 153.925781 509.515625 154.742188 509.976562 155.464844 510.902344 C 156.375 512.058594 156.828125 513.628906 156.828125 515.605469 C 156.828125 516.996094 156.632812 518.171875 156.234375 519.140625 C 155.835938 520.109375 155.328125 520.816406 154.707031 521.253906 C 154.085938 521.695312 153.492188 521.917969 152.925781 521.917969 C 151.785156 521.917969 150.832031 521.242188 150.066406 519.902344 C 149.429688 518.757812 149.113281 517.390625 149.113281 515.804688 Z M 150.847656 516.019531 C 150.847656 517.667969 151.050781 519.011719 151.453125 520.050781 C 151.785156 520.917969 152.285156 521.351562 152.949219 521.351562 C 153.269531 521.351562 153.597656 521.210938 153.9375 520.929688 C 154.277344 520.648438 154.53125 520.167969 154.707031 519.488281 C 154.980469 518.492188 155.117188 517.066406 155.117188 515.21875 C 155.117188 513.859375 154.972656 512.722656 154.683594 511.8125 C 154.480469 511.132812 154.207031 510.65625 153.859375 510.382812 C 153.628906 510.195312 153.339844 510.101562 152.992188 510.101562 C 152.601562 510.101562 152.25 510.273438 151.929688 510.621094 C 151.511719 511.113281 151.226562 511.882812 151.074219 512.929688 C 150.921875 513.976562 150.847656 515.007812 150.847656 516.019531 Z M 159.734375 519.984375 C 160.007812 519.984375 160.242188 520.082031 160.429688 520.28125 C 160.617188 520.476562 160.710938 520.703125 160.710938 520.960938 C 160.710938 521.238281 160.617188 521.46875 160.429688 521.65625 C 160.242188 521.84375 160.007812 521.9375 159.734375 521.9375 C 159.460938 521.9375 159.230469 521.84375 159.042969 521.65625 C 158.855469 521.46875 158.757812 521.238281 158.757812 520.960938 C 158.757812 520.6875 158.855469 520.457031 159.042969 520.269531 C 159.230469 520.082031 159.460938 519.984375 159.734375 519.984375 Z M 170.078125 509.515625 L 170.078125 509.839844 C 169.296875 509.914062 168.660156 510.066406 168.167969 510.296875 C 167.679688 510.527344 167.195312 510.882812 166.714844 511.355469 C 166.238281 511.835938 165.84375 512.367188 165.535156 512.953125 C 165.222656 513.539062 164.960938 514.226562 164.742188 515.023438 C 165.597656 514.445312 166.449219 514.15625 167.300781 514.15625 C 168.109375 514.15625 168.816406 514.484375 169.414062 515.140625 C 170.015625 515.796875 170.316406 516.648438 170.316406 517.6875 C 170.316406 518.6875 170.011719 519.597656 169.402344 520.421875 C 168.679688 521.417969 167.722656 521.917969 166.519531 521.917969 C 165.695312 521.917969 165.003906 521.640625 164.4375 521.09375 C 163.328125 520.050781 162.769531 518.695312 162.769531 517.015625 C 162.769531 515.949219 162.984375 514.929688 163.410156 513.96875 C 163.835938 513.011719 164.445312 512.152344 165.242188 511.402344 C 166.035156 510.648438 166.800781 510.148438 167.53125 509.894531 C 168.257812 509.640625 168.933594 509.515625 169.558594 509.515625 Z M 164.59375 515.671875 C 164.492188 516.46875 164.4375 517.109375 164.4375 517.601562 C 164.4375 518.164062 164.546875 518.777344 164.753906 519.433594 C 164.964844 520.09375 165.269531 520.613281 165.675781 521.007812 C 165.980469 521.28125 166.347656 521.417969 166.78125 521.417969 C 167.285156 521.417969 167.742188 521.175781 168.148438 520.691406 C 168.550781 520.207031 168.753906 519.523438 168.753906 518.640625 C 168.753906 517.628906 168.550781 516.761719 168.148438 516.03125 C 167.742188 515.300781 167.179688 514.9375 166.453125 514.9375 C 166.226562 514.9375 165.980469 514.980469 165.730469 515.078125 C 165.476562 515.171875 165.097656 515.367188 164.59375 515.671875 "/>
<path style="fill:none;stroke-width:1.2;stroke-linecap:butt;stroke-linejoin:round;stroke:rgb(0%,0%,0%);stroke-opacity:1;stroke-miterlimit:10;" d="M 2266.679688 555 L 2266.679688 499.492188 " transform="matrix(0.1,0,0,-0.1,0,555)"/>
<path style=" stroke:none;fill-rule:nonzero;fill:rgb(0%,0%,0%);fill-opacity:1;" d="M 215.710938 515.804688 C 215.710938 514.445312 215.917969 513.269531 216.332031 512.277344 C 216.742188 511.289062 217.289062 510.554688 217.964844 510.078125 C 218.503906 509.703125 219.050781 509.515625 219.613281 509.515625 C 220.523438 509.515625 221.34375 509.976562 222.0625 510.902344 C 222.976562 512.058594 223.429688 513.628906 223.429688 515.605469 C 223.429688 516.996094 223.230469 518.171875 222.835938 519.140625 C 222.4375 520.109375 221.925781 520.816406 221.304688 521.253906 C 220.683594 521.695312 220.09375 521.917969 219.527344 521.917969 C 218.386719 521.917969 217.433594 521.242188 216.664062 519.902344 C 216.03125 518.757812 215.710938 517.390625 215.710938 515.804688 Z M 217.445312 516.019531 C 217.445312 517.667969 217.648438 519.011719 218.054688 520.050781 C 218.386719 520.917969 218.886719 521.351562 219.550781 521.351562 C 219.867188 521.351562 220.195312 521.210938 220.535156 520.929688 C 220.875 520.648438 221.132812 520.167969 221.304688 519.488281 C 221.578125 518.492188 221.71875 517.066406 221.71875 515.21875 C 221.71875 513.859375 221.574219 512.722656 221.285156 511.8125 C 221.082031 511.132812 220.808594 510.65625 220.460938 510.382812 C 220.230469 510.195312 219.9375 510.101562 219.59375 510.101562 C 219.203125 510.101562 218.847656 510.273438 218.53125 510.621094 C 218.109375 511.113281 217.828125 511.882812 217.675781 512.929688 C 217.523438 513.976562 217.445312 515.007812 217.445312 516.019531 Z M 226.335938 519.984375 C 226.609375 519.984375 226.839844 520.082031 227.03125 520.28125 C 227.21875 520.476562 227.3125 520.703125 227.3125 520.960938 C 227.3125 521.238281 227.21875 521.46875 227.03125 521.65625 C 226.839844 521.84375 226.609375 521.9375 226.335938 521.9375 C 226.0625 521.9375 225.828125 521.84375 225.640625 521.65625 C 225.453125 521.46875 225.359375 521.238281 225.359375 520.960938 C 225.359375 520.6875 225.453125 520.457031 225.640625 520.269531 C 225.828125 520.082031 226.0625 519.984375 226.335938 519.984375 Z M 232.058594 515.695312 C 231.105469 514.914062 230.488281 514.289062 230.214844 513.820312 C 229.941406 513.347656 229.804688 512.863281 229.804688 512.355469 C 229.804688 511.574219 230.105469 510.90625 230.703125 510.351562 C 231.304688 509.792969 232.101562 509.515625 233.101562 509.515625 C 234.066406 509.515625 234.84375 509.777344 235.429688 510.296875 C 236.015625 510.816406 236.308594 511.410156 236.308594 512.074219 C 236.308594 512.523438 236.148438 512.976562 235.828125 513.4375 C 235.511719 513.902344 234.855469 514.453125 233.855469 515.085938 C 234.882812 515.882812 235.5625 516.511719 235.894531 516.972656 C 236.34375 517.566406 236.570312 518.195312 236.570312 518.859375 C 236.570312 519.699219 236.25 520.417969 235.613281 521.015625 C 234.980469 521.617188 234.140625 521.917969 233.101562 521.917969 C 231.957031 521.917969 231.070312 521.5625 230.433594 520.851562 C 229.925781 520.277344 229.675781 519.648438 229.675781 518.96875 C 229.675781 518.449219 229.855469 517.925781 230.214844 517.40625 C 230.578125 516.886719 231.191406 516.316406 232.058594 515.695312 Z M 233.425781 514.738281 C 234.132812 514.105469 234.578125 513.601562 234.769531 513.234375 C 234.957031 512.863281 235.050781 512.449219 235.050781 511.988281 C 235.050781 511.378906 234.878906 510.898438 234.53125 510.542969 C 234.183594 510.191406 233.714844 510.015625 233.121094 510.015625 C 232.515625 510.015625 232.023438 510.1875 231.648438 510.535156 C 231.269531 510.882812 231.082031 511.285156 231.082031 511.75 C 231.082031 512.050781 231.164062 512.359375 231.320312 512.671875 C 231.480469 512.980469 231.703125 513.273438 231.992188 513.546875 Z M 232.46875 516.019531 C 231.980469 516.421875 231.617188 516.867188 231.386719 517.351562 C 231.15625 517.835938 231.039062 518.359375 231.039062 518.925781 C 231.039062 519.691406 231.246094 520.300781 231.65625 520.757812 C 232.070312 521.210938 232.59375 521.4375 233.230469 521.4375 C 233.867188 521.4375 234.375 521.257812 234.757812 520.898438 C 235.140625 520.535156 235.332031 520.101562 235.332031 519.597656 C 235.332031 519.175781 235.21875 518.792969 234.984375 518.449219 C 234.578125 517.828125 233.742188 517.015625 232.46875 516.019531 "/>
<path style="fill:none;stroke-width:1.2;stroke-linecap:butt;stroke-linejoin:round;stroke:rgb(0%,0%,0%);stroke-opacity:1;stroke-miterlimit:10;" d="M 2934.53125 555 L 2934.53125 499.492188 " transform="matrix(0.1,0,0,-0.1,0,555)"/>
<path style=" stroke:none;fill-rule:nonzero;fill:rgb(0%,0%,0%);fill-opacity:1;" d="M 283.785156 510.925781 L 286.691406 509.515625 L 286.972656 509.515625 L 286.972656 519.597656 C 286.972656 520.261719 287.003906 520.675781 287.058594 520.84375 C 287.117188 521.007812 287.234375 521.136719 287.40625 521.222656 C 287.578125 521.308594 287.933594 521.359375 288.46875 521.375 L 288.46875 521.699219 L 283.980469 521.699219 L 283.980469 521.375 C 284.546875 521.359375 284.910156 521.308594 285.074219 521.222656 C 285.242188 521.136719 285.359375 521.019531 285.421875 520.875 C 285.488281 520.730469 285.519531 520.304688 285.519531 519.597656 L 285.519531 513.15625 C 285.519531 512.277344 285.492188 511.714844 285.433594 511.46875 C 285.390625 511.277344 285.3125 511.140625 285.207031 511.054688 C 285.097656 510.96875 284.964844 510.925781 284.804688 510.925781 C 284.589844 510.925781 284.292969 511.019531 283.917969 511.207031 Z M 292.9375 519.984375 C 293.210938 519.984375 293.441406 520.082031 293.628906 520.28125 C 293.816406 520.476562 293.910156 520.703125 293.910156 520.960938 C 293.910156 521.238281 293.816406 521.46875 293.628906 521.65625 C 293.441406 521.84375 293.210938 521.9375 292.9375 521.9375 C 292.660156 521.9375 292.429688 521.84375 292.242188 521.65625 C 292.054688 521.46875 291.960938 521.238281 291.960938 520.960938 C 291.960938 520.6875 292.054688 520.457031 292.242188 520.269531 C 292.429688 520.082031 292.660156 519.984375 292.9375 519.984375 Z M 295.839844 515.804688 C 295.839844 514.445312 296.046875 513.269531 296.460938 512.277344 C 296.871094 511.289062 297.414062 510.554688 298.09375 510.078125 C 298.628906 509.703125 299.179688 509.515625 299.742188 509.515625 C 300.652344 509.515625 301.46875 509.976562 302.191406 510.902344 C 303.105469 512.058594 303.558594 513.628906 303.558594 515.605469 C 303.558594 516.996094 303.359375 518.171875 302.960938 519.140625 C 302.566406 520.109375 302.054688 520.816406 301.433594 521.253906 C 300.8125 521.695312 300.21875 521.917969 299.65625 521.917969 C 298.515625 521.917969 297.5625 521.242188 296.796875 519.902344 C 296.15625 518.757812 295.839844 517.390625 295.839844 515.804688 Z M 297.574219 516.019531 C 297.574219 517.667969 297.777344 519.011719 298.183594 520.050781 C 298.515625 520.917969 299.011719 521.351562 299.679688 521.351562 C 299.996094 521.351562 300.324219 521.210938 300.664062 520.929688 C 301.003906 520.648438 301.261719 520.167969 301.433594 519.488281 C 301.707031 518.492188 301.84375 517.066406 301.84375 515.21875 C 301.84375 513.859375 301.699219 512.722656 301.410156 511.8125 C 301.210938 511.132812 300.933594 510.65625 300.589844 510.382812 C 300.359375 510.195312 300.066406 510.101562 299.722656 510.101562 C 299.332031 510.101562 298.976562 510.273438 298.660156 510.621094 C 298.238281 511.113281 297.953125 511.882812 297.800781 512.929688 C 297.652344 513.976562 297.574219 515.007812 297.574219 516.019531 "/>
<path style="fill:none;stroke-width:1.2;stroke-linecap:butt;stroke-linejoin:round;stroke:rgb(0%,0%,0%);stroke-opacity:1;stroke-miterlimit:10;" d="M 3602.382812 555 L 3602.382812 499.492188 " transform="matrix(0.1,0,0,-0.1,0,555)"/>
<path style=" stroke:none;fill-rule:nonzero;fill:rgb(0%,0%,0%);fill-opacity:1;" d="M 350.386719 510.925781 L 353.292969 509.515625 L 353.574219 509.515625 L 353.574219 519.597656 C 353.574219 520.261719 353.601562 520.675781 353.660156 520.84375 C 353.71875 521.007812 353.832031 521.136719 354.007812 521.222656 C 354.179688 521.308594 354.535156 521.359375 355.070312 521.375 L 355.070312 521.699219 L 350.582031 521.699219 L 350.582031 521.375 C 351.144531 521.359375 351.511719 521.308594 351.675781 521.222656 C 351.84375 521.136719 351.960938 521.019531 352.023438 520.875 C 352.089844 520.730469 352.121094 520.304688 352.121094 519.597656 L 352.121094 513.15625 C 352.121094 512.277344 352.09375 511.714844 352.035156 511.46875 C 351.992188 511.277344 351.914062 511.140625 351.804688 511.054688 C 351.699219 510.96875 351.566406 510.925781 351.40625 510.925781 C 351.1875 510.925781 350.890625 511.019531 350.515625 511.207031 Z M 359.535156 519.984375 C 359.808594 519.984375 360.039062 520.082031 360.230469 520.28125 C 360.417969 520.476562 360.511719 520.703125 360.511719 520.960938 C 360.511719 521.238281 360.417969 521.46875 360.230469 521.65625 C 360.039062 521.84375 359.808594 521.9375 359.535156 521.9375 C 359.261719 521.9375 359.03125 521.84375 358.84375 521.65625 C 358.652344 521.46875 358.558594 521.238281 358.558594 520.960938 C 358.558594 520.6875 358.652344 520.457031 358.84375 520.269531 C 359.03125 520.082031 359.261719 519.984375 359.535156 519.984375 Z M 370.050781 519.402344 L 369.226562 521.699219 L 362.179688 521.699219 L 362.179688 521.375 C 364.246094 519.480469 365.703125 517.933594 366.546875 516.734375 C 367.394531 515.535156 367.816406 514.445312 367.816406 513.460938 C 367.816406 512.695312 367.585938 512.070312 367.121094 511.585938 C 366.660156 511.101562 366.105469 510.859375 365.453125 510.859375 C 364.878906 510.859375 364.351562 511.027344 363.882812 511.367188 C 363.414062 511.707031 363.066406 512.210938 362.851562 512.875 L 362.527344 512.875 C 362.671875 511.792969 363.046875 510.960938 363.652344 510.382812 C 364.261719 509.804688 365.019531 509.515625 365.929688 509.515625 C 366.898438 509.515625 367.707031 509.824219 368.359375 510.449219 C 369.011719 511.070312 369.335938 511.796875 369.335938 512.636719 C 369.335938 513.246094 369.191406 513.851562 368.902344 514.457031 C 368.46875 515.410156 367.765625 516.417969 366.796875 517.472656 C 365.339844 519.078125 364.421875 520.042969 364.046875 520.375 L 367.167969 520.375 C 367.804688 520.375 368.246094 520.351562 368.5 520.300781 C 368.753906 520.25 368.984375 520.152344 369.191406 520.007812 C 369.402344 519.863281 369.578125 519.660156 369.722656 519.402344 L 370.050781 519.402344 "/>
<path style="fill:none;stroke-width:1.2;stroke-linecap:butt;stroke-linejoin:round;stroke:rgb(0%,0%,0%);stroke-opacity:1;stroke-miterlimit:10;" d="M 4270.234375 555 L 4270.234375 499.492188 " transform="matrix(0.1,0,0,-0.1,0,555)"/>
<path style=" stroke:none;fill-rule:nonzero;fill:rgb(0%,0%,0%);fill-opacity:1;" d="M 416.988281 510.925781 L 419.890625 509.515625 L 420.175781 509.515625 L 420.175781 519.597656 C 420.175781 520.261719 420.203125 520.675781 420.261719 520.84375 C 420.316406 521.007812 420.433594 521.136719 420.605469 521.222656 C 420.78125 521.308594 421.132812 521.359375 421.671875 521.375 L 421.671875 521.699219 L 417.179688 521.699219 L 417.179688 521.375 C 417.746094 521.359375 418.109375 521.308594 418.277344 521.222656 C 418.441406 521.136719 418.558594 521.019531 418.621094 520.875 C 418.6875 520.730469 418.722656 520.304688 418.722656 519.597656 L 418.722656 513.15625 C 418.722656 512.277344 418.691406 511.714844 418.632812 511.46875 C 418.589844 511.277344 418.515625 511.140625 418.40625 511.054688 C 418.296875 510.96875 418.164062 510.925781 418.003906 510.925781 C 417.789062 510.925781 417.492188 511.019531 417.117188 511.207031 Z M 426.136719 519.984375 C 426.410156 519.984375 426.640625 520.082031 426.828125 520.28125 C 427.015625 520.476562 427.109375 520.703125 427.109375 520.960938 C 427.109375 521.238281 427.015625 521.46875 426.828125 521.65625 C 426.640625 521.84375 426.410156 521.9375 426.136719 521.9375 C 425.859375 521.9375 425.628906 521.84375 425.441406 521.65625 C 425.253906 521.46875 425.160156 521.238281 425.160156 520.960938 C 425.160156 520.6875 425.253906 520.457031 425.441406 520.269531 C 425.628906 520.082031 425.859375 519.984375 426.136719 519.984375 Z M 436.777344 517.296875 L 436.777344 518.554688 L 435.175781 518.554688 L 435.175781 521.699219 L 433.722656 521.699219 L 433.722656 518.554688 L 428.671875 518.554688 L 428.671875 517.425781 L 434.222656 509.515625 L 435.175781 509.515625 L 435.175781 517.296875 Z M 433.722656 517.296875 L 433.722656 511.355469 L 429.539062 517.296875 L 433.722656 517.296875 "/>
<path style="fill:none;stroke-width:1.2;stroke-linecap:butt;stroke-linejoin:round;stroke:rgb(0%,0%,0%);stroke-opacity:1;stroke-miterlimit:10;" d="M 4938.085938 555 L 4938.085938 499.492188 " transform="matrix(0.1,0,0,-0.1,0,555)"/>
<path style=" stroke:none;fill-rule:nonzero;fill:rgb(0%,0%,0%);fill-opacity:1;" d="M 483.585938 510.925781 L 486.492188 509.515625 L 486.773438 509.515625 L 486.773438 519.597656 C 486.773438 520.261719 486.804688 520.675781 486.859375 520.84375 C 486.917969 521.007812 487.03125 521.136719 487.207031 521.222656 C 487.378906 521.308594 487.734375 521.359375 488.269531 521.375 L 488.269531 521.699219 L 483.78125 521.699219 L 483.78125 521.375 C 484.347656 521.359375 484.710938 521.308594 484.875 521.222656 C 485.042969 521.136719 485.160156 521.019531 485.222656 520.875 C 485.289062 520.730469 485.320312 520.304688 485.320312 519.597656 L 485.320312 513.15625 C 485.320312 512.277344 485.292969 511.714844 485.234375 511.46875 C 485.191406 511.277344 485.113281 511.140625 485.007812 511.054688 C 484.898438 510.96875 484.765625 510.925781 484.605469 510.925781 C 484.390625 510.925781 484.09375 511.019531 483.71875 511.207031 Z M 492.734375 519.984375 C 493.007812 519.984375 493.242188 520.082031 493.429688 520.28125 C 493.617188 520.476562 493.710938 520.703125 493.710938 520.960938 C 493.710938 521.238281 493.617188 521.46875 493.429688 521.65625 C 493.242188 521.84375 493.007812 521.9375 492.734375 521.9375 C 492.460938 521.9375 492.230469 521.84375 492.042969 521.65625 C 491.855469 521.46875 491.757812 521.238281 491.757812 520.960938 C 491.757812 520.6875 491.855469 520.457031 492.042969 520.269531 C 492.230469 520.082031 492.460938 519.984375 492.734375 519.984375 Z M 503.078125 509.515625 L 503.078125 509.839844 C 502.296875 509.914062 501.660156 510.066406 501.167969 510.296875 C 500.679688 510.527344 500.195312 510.882812 499.714844 511.355469 C 499.238281 511.835938 498.84375 512.367188 498.535156 512.953125 C 498.222656 513.539062 497.960938 514.226562 497.742188 515.023438 C 498.597656 514.445312 499.449219 514.15625 500.300781 514.15625 C 501.109375 514.15625 501.816406 514.484375 502.414062 515.140625 C 503.015625 515.796875 503.316406 516.648438 503.316406 517.6875 C 503.316406 518.6875 503.011719 519.597656 502.402344 520.421875 C 501.679688 521.417969 500.722656 521.917969 499.519531 521.917969 C 498.695312 521.917969 498.003906 521.640625 497.4375 521.09375 C 496.328125 520.050781 495.769531 518.695312 495.769531 517.015625 C 495.769531 515.949219 495.984375 514.929688 496.410156 513.96875 C 496.835938 513.011719 497.445312 512.152344 498.242188 511.402344 C 499.035156 510.648438 499.800781 510.148438 500.53125 509.894531 C 501.257812 509.640625 501.933594 509.515625 502.558594 509.515625 Z M 497.59375 515.671875 C 497.492188 516.46875 497.4375 517.109375 497.4375 517.601562 C 497.4375 518.164062 497.546875 518.777344 497.753906 519.433594 C 497.964844 520.09375 498.269531 520.613281 498.675781 521.007812 C 498.980469 521.28125 499.347656 521.417969 499.78125 521.417969 C 500.285156 521.417969 500.742188 521.175781 501.148438 520.691406 C 501.550781 520.207031 501.753906 519.523438 501.753906 518.640625 C 501.753906 517.628906 501.550781 516.761719 501.148438 516.03125 C 500.742188 515.300781 500.179688 514.9375 499.453125 514.9375 C 499.226562 514.9375 498.980469 514.980469 498.730469 515.078125 C 498.476562 515.171875 498.097656 515.367188 497.59375 515.671875 "/>
<path style="fill:none;stroke-width:1.2;stroke-linecap:butt;stroke-linejoin:round;stroke:rgb(0%,0%,0%);stroke-opacity:1;stroke-miterlimit:10;" d="M 597.070312 555 L 597.070312 527.265625 " transform="matrix(0.1,0,0,-0.1,0,555)"/>
<path style="fill:none;stroke-width:1.2;stroke-linecap:butt;stroke-linejoin:round;stroke:rgb(0%,0%,0%);stroke-opacity:1;stroke-miterlimit:10;" d="M 1264.921875 555 L 1264.921875 527.265625 " transform="matrix(0.1,0,0,-0.1,0,555)"/>
<path style="fill:none;stroke-width:1.2;stroke-linecap:butt;stroke-linejoin:round;stroke:rgb(0%,0%,0%);stroke-opacity:1;stroke-miterlimit:10;" d="M 1932.773438 555 L 1932.773438 527.265625 " transform="matrix(0.1,0,0,-0.1,0,555)"/>
<path style="fill:none;stroke-width:1.2;stroke-linecap:butt;stroke-linejoin:round;stroke:rgb(0%,0%,0%);stroke-opacity:1;stroke-miterlimit:10;" d="M 2600.625 555 L 2600.625 527.265625 " transform="matrix(0.1,0,0,-0.1,0,555)"/>
<path style="fill:none;stroke-width:1.2;stroke-linecap:butt;stroke-linejoin:round;stroke:rgb(0%,0%,0%);stroke-opacity:1;stroke-miterlimit:10;" d="M 3268.476562 555 L 3268.476562 527.265625 " transform="matrix(0.1,0,0,-0.1,0,555)"/>
<path style="fill:none;stroke-width:1.2;stroke-linecap:butt;stroke-linejoin:round;stroke:rgb(0%,0%,0%);stroke-opacity:1;stroke-miterlimit:10;" d="M 3936.328125 555 L 3936.328125 527.265625 " transform="matrix(0.1,0,0,-0.1,0,555)"/>
<path style="fill:none;stroke-width:1.2;stroke-linecap:butt;stroke-linejoin:round;stroke:rgb(0%,0%,0%);stroke-opacity:1;stroke-miterlimit:10;" d="M 4604.140625 555 L 4604.140625 527.265625 " transform="matrix(0.1,0,0,-0.1,0,555)"/>
<path style="fill:none;stroke-width:1.2;stroke-linecap:butt;stroke-linejoin:round;stroke:rgb(0%,0%,0%);stroke-opacity:1;stroke-miterlimit:10;" d="M 5271.992188 555 L 5271.992188 527.265625 " transform="matrix(0.1,0,0,-0.1,0,555)"/>
<path style="fill:none;stroke-width:13.875;stroke-linecap:butt;stroke-linejoin:round;stroke:rgb(0%,0%,0%);stroke-opacity:1;stroke-miterlimit:10;" d="M 402.382812 555 L 402.382812 5369.453125 " transform="matrix(0.1,0,0,-0.1,0,555)"/>
<path style="fill:none;stroke-width:1.2;stroke-linecap:butt;stroke-linejoin:round;stroke:rgb(0%,0%,0%);stroke-opacity:1;stroke-miterlimit:10;" d="M 402.382812 1540.117188 L 346.875 1540.117188 " transform="matrix(0.1,0,0,-0.1,0,555)"/>
<path style=" stroke:none;fill-rule:nonzero;fill:rgb(0%,0%,0%);fill-opacity:1;" d="M 27.097656 397.148438 L 30.003906 395.738281 L 30.285156 395.738281 L 30.285156 405.820312 C 30.285156 406.484375 30.316406 406.902344 30.371094 407.066406 C 30.429688 407.234375 30.546875 407.359375 30.71875 407.449219 C 30.894531 407.535156 31.246094 407.585938 31.78125 407.597656 L 31.78125 407.925781 L 27.292969 407.925781 L 27.292969 407.597656 C 27.859375 407.585938 28.222656 407.535156 28.390625 407.449219 C 28.554688 407.359375 28.671875 407.246094 28.734375 407.101562 C 28.800781 406.957031 28.835938 406.527344 28.835938 405.820312 L 28.835938 399.382812 C 28.835938 398.5 28.804688 397.9375 28.746094 397.691406 C 28.703125 397.503906 28.628906 397.367188 28.519531 397.28125 C 28.410156 397.191406 28.277344 397.148438 28.117188 397.148438 C 27.902344 397.148438 27.605469 397.242188 27.230469 397.429688 L 27.097656 397.148438 "/>
<path style="fill:none;stroke-width:1.2;stroke-linecap:butt;stroke-linejoin:round;stroke:rgb(0%,0%,0%);stroke-opacity:1;stroke-miterlimit:10;" d="M 402.382812 2816.5625 L 346.875 2816.5625 " transform="matrix(0.1,0,0,-0.1,0,555)"/>
<path style=" stroke:none;fill-rule:nonzero;fill:rgb(0%,0%,0%);fill-opacity:1;" d="M 33.234375 277.976562 L 32.410156 280.273438 L 25.363281 280.273438 L 25.363281 279.949219 C 27.433594 278.054688 28.886719 276.507812 29.734375 275.308594 C 30.578125 274.109375 31.003906 273.019531 31.003906 272.035156 C 31.003906 271.269531 30.769531 270.644531 30.308594 270.160156 C 29.84375 269.675781 29.289062 269.433594 28.640625 269.433594 C 28.058594 269.433594 27.535156 269.605469 27.066406 269.945312 C 26.597656 270.285156 26.253906 270.785156 26.035156 271.449219 L 25.710938 271.449219 C 25.855469 270.367188 26.230469 269.535156 26.839844 268.957031 C 27.445312 268.378906 28.207031 268.089844 29.117188 268.089844 C 30.085938 268.089844 30.894531 268.402344 31.542969 269.023438 C 32.195312 269.644531 32.519531 270.375 32.519531 271.210938 C 32.519531 271.820312 32.375 272.425781 32.085938 273.035156 C 31.652344 273.988281 30.953125 274.992188 29.984375 276.046875 C 28.523438 277.652344 27.605469 278.621094 27.230469 278.949219 L 30.351562 278.949219 C 30.988281 278.949219 31.433594 278.925781 31.683594 278.878906 C 31.9375 278.824219 32.167969 278.726562 32.378906 278.585938 C 32.589844 278.4375 32.765625 278.238281 32.910156 277.976562 L 33.234375 277.976562 "/>
<path style="fill:none;stroke-width:1.2;stroke-linecap:butt;stroke-linejoin:round;stroke:rgb(0%,0%,0%);stroke-opacity:1;stroke-miterlimit:10;" d="M 402.382812 4093.007812 L 346.875 4093.007812 " transform="matrix(0.1,0,0,-0.1,0,555)"/>
<path style=" stroke:none;fill-rule:nonzero;fill:rgb(0%,0%,0%);fill-opacity:1;" d="M 25.886719 142.953125 C 26.230469 142.144531 26.664062 141.523438 27.1875 141.089844 C 27.707031 140.65625 28.347656 140.441406 29.117188 140.441406 C 30.085938 140.441406 30.820312 140.75 31.328125 141.371094 C 31.71875 141.835938 31.914062 142.328125 31.914062 142.847656 C 31.914062 143.726562 31.363281 144.632812 30.265625 145.558594 C 31.003906 145.847656 31.558594 146.257812 31.933594 146.792969 C 32.308594 147.328125 32.496094 147.957031 32.496094 148.679688 C 32.496094 149.703125 32.164062 150.59375 31.5 151.347656 C 30.648438 152.34375 29.410156 152.839844 27.792969 152.839844 C 26.984375 152.839844 26.433594 152.738281 26.144531 152.535156 C 25.855469 152.335938 25.710938 152.117188 25.710938 151.886719 C 25.710938 151.714844 25.78125 151.566406 25.917969 151.441406 C 26.054688 151.320312 26.21875 151.257812 26.40625 151.257812 C 26.550781 151.257812 26.703125 151.28125 26.859375 151.324219 C 26.960938 151.351562 27.191406 151.457031 27.542969 151.636719 C 27.898438 151.820312 28.140625 151.929688 28.269531 151.972656 C 28.488281 152.03125 28.71875 152.058594 28.964844 152.058594 C 29.554688 152.058594 30.078125 151.828125 30.523438 151.367188 C 30.972656 150.902344 31.195312 150.355469 31.195312 149.71875 C 31.195312 149.257812 31.09375 148.808594 30.894531 148.375 C 30.734375 148.042969 30.5625 147.789062 30.371094 147.617188 C 30.128906 147.386719 29.785156 147.175781 29.34375 146.988281 C 28.902344 146.800781 28.449219 146.707031 27.988281 146.707031 L 27.707031 146.707031 L 27.707031 146.425781 C 28.167969 146.367188 28.636719 146.199219 29.105469 145.925781 C 29.574219 145.652344 29.914062 145.324219 30.125 144.9375 C 30.332031 144.554688 30.4375 144.128906 30.4375 143.648438 C 30.4375 143.058594 30.25 142.574219 29.875 142.195312 C 29.5 141.820312 29.027344 141.632812 28.464844 141.632812 C 27.554688 141.632812 26.796875 142.117188 26.1875 143.085938 L 25.886719 142.953125 "/>
<path style="fill:none;stroke-width:1.2;stroke-linecap:butt;stroke-linejoin:round;stroke:rgb(0%,0%,0%);stroke-opacity:1;stroke-miterlimit:10;" d="M 402.382812 5369.453125 L 346.875 5369.453125 " transform="matrix(0.1,0,0,-0.1,0,555)"/>
<path style=" stroke:none;fill-rule:nonzero;fill:rgb(0%,0%,0%);fill-opacity:1;" d="M 33.363281 20.574219 L 33.363281 21.832031 L 31.761719 21.832031 L 31.761719 24.976562 L 30.308594 24.976562 L 30.308594 21.832031 L 25.257812 21.832031 L 25.257812 20.703125 L 30.804688 12.789062 L 31.761719 12.789062 L 31.761719 20.574219 Z M 30.308594 20.574219 L 30.308594 14.632812 L 26.125 20.574219 L 30.308594 20.574219 "/>
<path style="fill:none;stroke-width:1.2;stroke-linecap:butt;stroke-linejoin:round;stroke:rgb(0%,0%,0%);stroke-opacity:1;stroke-miterlimit:10;" d="M 402.382812 901.875 L 374.609375 901.875 " transform="matrix(0.1,0,0,-0.1,0,555)"/>
<path style="fill:none;stroke-width:1.2;stroke-linecap:butt;stroke-linejoin:round;stroke:rgb(0%,0%,0%);stroke-opacity:1;stroke-miterlimit:10;" d="M 402.382812 2178.320312 L 374.609375 2178.320312 " transform="matrix(0.1,0,0,-0.1,0,555)"/>
<path style="fill:none;stroke-width:1.2;stroke-linecap:butt;stroke-linejoin:round;stroke:rgb(0%,0%,0%);stroke-opacity:1;stroke-miterlimit:10;" d="M 402.382812 3454.804688 L 374.609375 3454.804688 " transform="matrix(0.1,0,0,-0.1,0,555)"/>
<path style="fill:none;stroke-width:1.2;stroke-linecap:butt;stroke-linejoin:round;stroke:rgb(0%,0%,0%);stroke-opacity:1;stroke-miterlimit:10;" d="M 402.382812 4731.25 L 374.609375 4731.25 " transform="matrix(0.1,0,0,-0.1,0,555)"/>
</g>
</svg>
