<?xml version="1.0" encoding="UTF-8"?>
<svg xmlns="http://www.w3.org/2000/svg" xmlns:xlink="http://www.w3.org/1999/xlink" width="227pt" height="142pt" viewBox="0 0 227 142" version="1.1">
<g id="surface1">
<rect x="0" y="0" width="227" height="142" style="fill:rgb(100%,100%,100%);fill-opacity:1;stroke:none;"/>
<path style="fill:none;stroke-width:10;stroke-linecap:butt;stroke-linejoin:miter;stroke:rgb(0%,0%,0%);stroke-opacity:1;stroke-miterlimit:10;" d="M 430.859375 2026.601562 L 430.859375 -632.265625 " transform="matrix(0.1,0,0,-0.1,0,142)"/>
<path style="fill:none;stroke-width:10;stroke-linecap:butt;stroke-linejoin:miter;stroke:rgb(0%,0%,0%);stroke-opacity:1;stroke-miterlimit:10;" d="M -187.070312 711.328125 L 2488.828125 711.328125 " transform="matrix(0.1,0,0,-0.1,0,142)"/>
<path style=" stroke:none;fill-rule:nonzero;fill:rgb(0%,0%,0%);fill-opacity:1;" d="M 12.761719 77.300781 L 12.761719 76.921875 L 15.015625 76.921875 L 15.015625 77.300781 Z M 16.160156 78.804688 L 16.160156 78.394531 L 16.980469 78.394531 L 16.980469 75.160156 L 16.160156 75.363281 L 16.160156 74.945312 L 17.527344 74.605469 L 17.527344 78.394531 L 18.347656 78.394531 L 18.347656 78.804688 "/>
<path style="fill:none;stroke-width:10;stroke-linecap:butt;stroke-linejoin:miter;stroke:rgb(0%,0%,0%);stroke-opacity:1;stroke-miterlimit:10;" d="M 147.382812 711.328125 L 147.382812 688.671875 " transform="matrix(0.1,0,0,-0.1,0,142)"/>
<path style=" stroke:none;fill-rule:nonzero;fill:rgb(0%,0%,0%);fill-opacity:1;" d="M 48.265625 78.90625 C 47.84375 78.90625 47.5 78.707031 47.238281 78.308594 C 46.976562 77.910156 46.847656 77.390625 46.847656 76.753906 C 46.847656 76.105469 46.980469 75.585938 47.242188 75.195312 C 47.503906 74.800781 47.851562 74.605469 48.28125 74.605469 C 48.710938 74.605469 49.058594 74.800781 49.320312 75.195312 C 49.585938 75.585938 49.714844 76.101562 49.714844 76.742188 C 49.714844 77.402344 49.585938 77.925781 49.320312 78.316406 C 49.058594 78.710938 48.707031 78.90625 48.265625 78.90625 Z M 48.269531 78.496094 C 48.847656 78.496094 49.136719 77.910156 49.136719 76.734375 C 49.136719 75.585938 48.851562 75.011719 48.28125 75.011719 C 47.714844 75.011719 47.429688 75.59375 47.429688 76.753906 C 47.429688 77.914062 47.710938 78.496094 48.269531 78.496094 "/>
<path style="fill:none;stroke-width:10;stroke-linecap:butt;stroke-linejoin:miter;stroke:rgb(0%,0%,0%);stroke-opacity:1;stroke-miterlimit:10;" d="M 430.859375 711.328125 L 430.859375 688.671875 " transform="matrix(0.1,0,0,-0.1,0,142)"/>
<path style=" stroke:none;fill-rule:nonzero;fill:rgb(0%,0%,0%);fill-opacity:1;" d="M 71.152344 78.804688 L 71.152344 78.394531 L 71.972656 78.394531 L 71.972656 75.160156 L 71.152344 75.363281 L 71.152344 74.945312 L 72.519531 74.605469 L 72.519531 78.394531 L 73.339844 78.394531 L 73.339844 78.804688 "/>
<path style="fill:none;stroke-width:10;stroke-linecap:butt;stroke-linejoin:miter;stroke:rgb(0%,0%,0%);stroke-opacity:1;stroke-miterlimit:10;" d="M 714.335938 711.328125 L 714.335938 688.671875 " transform="matrix(0.1,0,0,-0.1,0,142)"/>
<path style=" stroke:none;fill-rule:nonzero;fill:rgb(0%,0%,0%);fill-opacity:1;" d="M 99.117188 78.804688 L 99.117188 78.324219 C 99.273438 77.953125 99.597656 77.550781 100.078125 77.113281 L 100.394531 76.832031 C 100.796875 76.46875 100.996094 76.109375 100.996094 75.75 C 100.996094 75.519531 100.925781 75.339844 100.789062 75.210938 C 100.652344 75.078125 100.464844 75.011719 100.222656 75.011719 C 99.941406 75.011719 99.605469 75.125 99.21875 75.34375 L 99.21875 74.859375 C 99.582031 74.691406 99.941406 74.605469 100.300781 74.605469 C 100.683594 74.605469 100.992188 74.707031 101.226562 74.914062 C 101.457031 75.121094 101.574219 75.394531 101.574219 75.734375 C 101.574219 75.980469 101.515625 76.199219 101.398438 76.390625 C 101.28125 76.578125 101.0625 76.808594 100.742188 77.082031 L 100.535156 77.261719 C 100.097656 77.632812 99.84375 77.984375 99.773438 78.324219 L 101.554688 78.324219 L 101.554688 78.804688 "/>
<path style="fill:none;stroke-width:10;stroke-linecap:butt;stroke-linejoin:miter;stroke:rgb(0%,0%,0%);stroke-opacity:1;stroke-miterlimit:10;" d="M 997.8125 711.328125 L 997.8125 688.671875 " transform="matrix(0.1,0,0,-0.1,0,142)"/>
<path style=" stroke:none;fill-rule:nonzero;fill:rgb(0%,0%,0%);fill-opacity:1;" d="M 127.566406 78.773438 L 127.566406 78.261719 C 127.960938 78.417969 128.265625 78.496094 128.492188 78.496094 C 128.753906 78.496094 128.964844 78.417969 129.128906 78.269531 C 129.289062 78.113281 129.371094 77.917969 129.371094 77.675781 C 129.371094 77.101562 128.96875 76.8125 128.164062 76.8125 L 127.945312 76.8125 L 127.945312 76.445312 L 128.136719 76.441406 C 128.894531 76.441406 129.273438 76.175781 129.273438 75.640625 C 129.273438 75.222656 129.023438 75.011719 128.527344 75.011719 C 128.253906 75.011719 127.953125 75.089844 127.621094 75.242188 L 127.621094 74.765625 C 127.945312 74.65625 128.261719 74.605469 128.5625 74.605469 C 129.402344 74.605469 129.820312 74.921875 129.820312 75.554688 C 129.820312 76.035156 129.535156 76.378906 128.964844 76.582031 C 129.628906 76.734375 129.957031 77.097656 129.957031 77.667969 C 129.957031 78.054688 129.828125 78.355469 129.574219 78.578125 C 129.320312 78.796875 128.96875 78.90625 128.527344 78.90625 C 128.273438 78.90625 127.953125 78.859375 127.566406 78.773438 "/>
<path style="fill:none;stroke-width:10;stroke-linecap:butt;stroke-linejoin:miter;stroke:rgb(0%,0%,0%);stroke-opacity:1;stroke-miterlimit:10;" d="M 1281.25 711.328125 L 1281.25 688.671875 " transform="matrix(0.1,0,0,-0.1,0,142)"/>
<path style=" stroke:none;fill-rule:nonzero;fill:rgb(0%,0%,0%);fill-opacity:1;" d="M 157.472656 78.804688 L 157.472656 77.644531 L 155.628906 77.644531 L 155.628906 77.230469 L 157.472656 74.707031 L 157.984375 74.707031 L 157.984375 77.199219 L 158.53125 77.199219 L 158.53125 77.644531 L 157.984375 77.644531 L 157.984375 78.804688 Z M 156.164062 77.199219 L 157.507812 77.199219 L 157.507812 75.375 "/>
<path style="fill:none;stroke-width:10;stroke-linecap:butt;stroke-linejoin:miter;stroke:rgb(0%,0%,0%);stroke-opacity:1;stroke-miterlimit:10;" d="M 1564.726562 711.328125 L 1564.726562 688.671875 " transform="matrix(0.1,0,0,-0.1,0,142)"/>
<path style=" stroke:none;fill-rule:nonzero;fill:rgb(0%,0%,0%);fill-opacity:1;" d="M 184.375 78.820312 L 184.375 78.332031 C 184.644531 78.441406 184.902344 78.496094 185.148438 78.496094 C 185.417969 78.496094 185.628906 78.417969 185.785156 78.257812 C 185.9375 78.097656 186.015625 77.878906 186.015625 77.601562 C 186.015625 76.988281 185.59375 76.679688 184.746094 76.679688 C 184.648438 76.679688 184.550781 76.6875 184.441406 76.699219 L 184.441406 74.707031 L 186.515625 74.707031 L 186.515625 75.183594 L 184.921875 75.183594 L 184.921875 76.261719 C 185.449219 76.261719 185.859375 76.382812 186.152344 76.625 C 186.449219 76.867188 186.597656 77.203125 186.597656 77.628906 C 186.597656 78.027344 186.464844 78.339844 186.195312 78.566406 C 185.925781 78.792969 185.554688 78.90625 185.078125 78.90625 C 184.871094 78.90625 184.636719 78.878906 184.375 78.820312 "/>
<path style="fill:none;stroke-width:10;stroke-linecap:butt;stroke-linejoin:miter;stroke:rgb(0%,0%,0%);stroke-opacity:1;stroke-miterlimit:10;" d="M 1848.203125 711.328125 L 1848.203125 688.671875 " transform="matrix(0.1,0,0,-0.1,0,142)"/>
<path style=" stroke:none;fill-rule:nonzero;fill:rgb(0%,0%,0%);fill-opacity:1;" d="M 213.007812 76.679688 C 213.265625 76.34375 213.59375 76.171875 213.988281 76.171875 C 214.347656 76.171875 214.640625 76.292969 214.867188 76.527344 C 215.09375 76.765625 215.210938 77.070312 215.210938 77.441406 C 215.210938 77.867188 215.082031 78.21875 214.824219 78.492188 C 214.570312 78.769531 214.246094 78.90625 213.851562 78.90625 C 213.402344 78.90625 213.046875 78.722656 212.792969 78.359375 C 212.539062 77.996094 212.410156 77.492188 212.410156 76.847656 C 212.410156 76.136719 212.558594 75.582031 212.851562 75.191406 C 213.140625 74.796875 213.554688 74.601562 214.085938 74.601562 C 214.328125 74.601562 214.632812 74.652344 215 74.757812 L 215 75.230469 C 214.613281 75.085938 214.296875 75.011719 214.050781 75.011719 C 213.355469 75.011719 213.007812 75.566406 213.007812 76.679688 Z M 214.660156 77.5625 C 214.660156 77.253906 214.59375 77.007812 214.453125 76.832031 C 214.3125 76.65625 214.121094 76.566406 213.871094 76.566406 C 213.640625 76.566406 213.441406 76.644531 213.277344 76.796875 C 213.109375 76.953125 213.027344 77.140625 213.027344 77.359375 C 213.027344 77.703125 213.105469 77.976562 213.265625 78.183594 C 213.421875 78.390625 213.632812 78.496094 213.890625 78.496094 C 214.125 78.496094 214.3125 78.410156 214.453125 78.242188 C 214.59375 78.074219 214.660156 77.847656 214.660156 77.5625 "/>
<path style="fill:none;stroke-width:10;stroke-linecap:butt;stroke-linejoin:miter;stroke:rgb(0%,0%,0%);stroke-opacity:1;stroke-miterlimit:10;" d="M 2131.640625 711.328125 L 2131.640625 688.671875 " transform="matrix(0.1,0,0,-0.1,0,142)"/>
<path style=" stroke:none;fill-rule:nonzero;fill:rgb(0%,0%,0%);fill-opacity:1;" d="M 34.304688 128.324219 L 34.304688 127.949219 L 36.558594 127.949219 L 36.558594 128.324219 Z M 37.320312 129.828125 L 37.320312 129.347656 C 37.480469 128.976562 37.800781 128.574219 38.285156 128.136719 L 38.597656 127.855469 C 39 127.492188 39.199219 127.132812 39.199219 126.773438 C 39.199219 126.542969 39.132812 126.363281 38.996094 126.234375 C 38.855469 126.101562 38.667969 126.035156 38.429688 126.035156 C 38.144531 126.035156 37.808594 126.148438 37.421875 126.367188 L 37.421875 125.886719 C 37.785156 125.714844 38.148438 125.628906 38.507812 125.628906 C 38.890625 125.628906 39.199219 125.730469 39.429688 125.9375 C 39.664062 126.144531 39.78125 126.417969 39.78125 126.761719 C 39.78125 127.003906 39.71875 127.222656 39.601562 127.414062 C 39.484375 127.601562 39.269531 127.832031 38.949219 128.105469 L 38.738281 128.285156 C 38.300781 128.65625 38.046875 129.011719 37.980469 129.347656 L 39.761719 129.347656 L 39.761719 129.828125 "/>
<path style="fill:none;stroke-width:10;stroke-linecap:butt;stroke-linejoin:miter;stroke:rgb(0%,0%,0%);stroke-opacity:1;stroke-miterlimit:10;" d="M 408.203125 144.414062 L 430.859375 144.414062 " transform="matrix(0.1,0,0,-0.1,0,142)"/>
<path style=" stroke:none;fill-rule:nonzero;fill:rgb(0%,0%,0%);fill-opacity:1;" d="M 34.304688 99.976562 L 34.304688 99.601562 L 36.558594 99.601562 L 36.558594 99.976562 Z M 37.703125 101.480469 L 37.703125 101.070312 L 38.523438 101.070312 L 38.523438 97.835938 L 37.703125 98.042969 L 37.703125 97.621094 L 39.070312 97.28125 L 39.070312 101.070312 L 39.890625 101.070312 L 39.890625 101.480469 "/>
<path style="fill:none;stroke-width:10;stroke-linecap:butt;stroke-linejoin:miter;stroke:rgb(0%,0%,0%);stroke-opacity:1;stroke-miterlimit:10;" d="M 408.203125 427.890625 L 430.859375 427.890625 " transform="matrix(0.1,0,0,-0.1,0,142)"/>
<path style=" stroke:none;fill-rule:nonzero;fill:rgb(0%,0%,0%);fill-opacity:1;" d="M 38.628906 69.835938 C 38.207031 69.835938 37.863281 69.636719 37.601562 69.238281 C 37.339844 68.839844 37.210938 68.320312 37.210938 67.679688 C 37.210938 67.035156 37.34375 66.515625 37.605469 66.121094 C 37.867188 65.730469 38.214844 65.53125 38.644531 65.53125 C 39.074219 65.53125 39.421875 65.730469 39.683594 66.121094 C 39.945312 66.515625 40.078125 67.03125 40.078125 67.671875 C 40.078125 68.328125 39.945312 68.855469 39.683594 69.246094 C 39.421875 69.640625 39.070312 69.835938 38.628906 69.835938 Z M 38.632812 69.425781 C 39.210938 69.425781 39.5 68.839844 39.5 67.664062 C 39.5 66.515625 39.214844 65.941406 38.644531 65.941406 C 38.074219 65.941406 37.792969 66.523438 37.792969 67.679688 C 37.792969 68.84375 38.074219 69.425781 38.632812 69.425781 "/>
<path style="fill:none;stroke-width:10;stroke-linecap:butt;stroke-linejoin:miter;stroke:rgb(0%,0%,0%);stroke-opacity:1;stroke-miterlimit:10;" d="M 408.203125 711.328125 L 430.859375 711.328125 " transform="matrix(0.1,0,0,-0.1,0,142)"/>
<path style=" stroke:none;fill-rule:nonzero;fill:rgb(0%,0%,0%);fill-opacity:1;" d="M 37.703125 44.789062 L 37.703125 44.378906 L 38.523438 44.378906 L 38.523438 41.144531 L 37.703125 41.347656 L 37.703125 40.929688 L 39.070312 40.589844 L 39.070312 44.378906 L 39.890625 44.378906 L 39.890625 44.789062 "/>
<path style="fill:none;stroke-width:10;stroke-linecap:butt;stroke-linejoin:miter;stroke:rgb(0%,0%,0%);stroke-opacity:1;stroke-miterlimit:10;" d="M 408.203125 994.804688 L 430.859375 994.804688 " transform="matrix(0.1,0,0,-0.1,0,142)"/>
<path style=" stroke:none;fill-rule:nonzero;fill:rgb(0%,0%,0%);fill-opacity:1;" d="M 37.320312 16.441406 L 37.320312 15.960938 C 37.480469 15.589844 37.800781 15.1875 38.285156 14.75 L 38.597656 14.46875 C 39 14.105469 39.199219 13.746094 39.199219 13.386719 C 39.199219 13.160156 39.132812 12.980469 38.996094 12.847656 C 38.855469 12.71875 38.667969 12.652344 38.429688 12.652344 C 38.144531 12.652344 37.808594 12.761719 37.421875 12.980469 L 37.421875 12.5 C 37.785156 12.328125 38.148438 12.242188 38.507812 12.242188 C 38.890625 12.242188 39.199219 12.34375 39.429688 12.550781 C 39.664062 12.757812 39.78125 13.03125 39.78125 13.375 C 39.78125 13.617188 39.71875 13.835938 39.601562 14.027344 C 39.484375 14.21875 39.269531 14.449219 38.949219 14.71875 L 38.738281 14.898438 C 38.300781 15.269531 38.046875 15.625 37.980469 15.960938 L 39.761719 15.960938 L 39.761719 16.441406 "/>
<path style="fill:none;stroke-width:10;stroke-linecap:butt;stroke-linejoin:miter;stroke:rgb(0%,0%,0%);stroke-opacity:1;stroke-miterlimit:10;" d="M 408.203125 1278.28125 L 430.859375 1278.28125 " transform="matrix(0.1,0,0,-0.1,0,142)"/>
<path style="fill:none;stroke-width:10;stroke-linecap:round;stroke-linejoin:round;stroke:rgb(0%,0%,100%);stroke-opacity:1;stroke-miterlimit:10;" d="M -187.070312 478.867188 L -166.09375 467.5 L -145.117188 457.460938 L -124.101562 448.828125 L -103.125 441.640625 L -82.109375 435.9375 L -61.132812 431.71875 L -40.117188 429.023438 L -19.140625 427.929688 L 1.875 428.359375 L 22.851562 430.3125 L 43.867188 433.828125 L 64.84375 438.867188 L 85.820312 445.429688 L 106.835938 453.398438 L 127.8125 462.8125 L 148.828125 473.59375 L 169.804688 485.664062 L 190.820312 498.984375 L 211.796875 513.4375 L 232.8125 528.984375 L 253.789062 545.546875 L 274.765625 563.007812 L 295.78125 581.289062 L 316.757812 600.3125 L 337.773438 619.882812 L 358.75 640 L 379.765625 660.507812 L 400.742188 681.289062 L 421.757812 702.226562 L 442.734375 723.203125 L 463.710938 744.140625 L 484.726562 764.882812 L 505.703125 785.3125 L 526.71875 805.351562 L 547.695312 824.882812 L 568.710938 843.789062 L 589.6875 861.992188 L 610.703125 879.335938 L 631.679688 895.78125 L 652.695312 911.210938 L 673.671875 925.507812 L 694.648438 938.671875 L 715.664062 950.585938 L 736.640625 961.171875 L 757.65625 970.390625 L 778.632812 978.203125 L 799.648438 984.53125 L 820.625 989.375 L 841.640625 992.695312 L 862.617188 994.492188 L 883.59375 994.6875 L 904.609375 993.359375 L 925.585938 990.507812 L 946.601562 986.09375 L 967.578125 980.195312 L 988.59375 972.773438 L 1009.570312 963.984375 L 1030.585938 953.75 L 1051.5625 942.226562 L 1072.578125 929.414062 L 1093.554688 915.429688 L 1114.53125 900.3125 L 1135.546875 884.140625 L 1156.523438 867.070312 L 1177.539062 849.101562 L 1198.515625 830.390625 L 1219.53125 811.054688 L 1240.507812 791.132812 L 1261.523438 770.78125 L 1282.5 750.117188 L 1303.515625 729.21875 L 1345.46875 687.265625 L 1366.484375 666.445312 L 1387.460938 645.859375 L 1408.476562 625.625 L 1429.453125 605.859375 L 1450.46875 586.679688 L 1471.445312 568.203125 L 1492.421875 550.46875 L 1513.4375 533.671875 L 1534.414062 517.8125 L 1555.429688 503.007812 L 1576.40625 489.335938 L 1597.421875 476.914062 L 1618.398438 465.78125 L 1639.414062 455.976562 L 1660.390625 447.578125 L 1681.40625 440.585938 L 1702.382812 435.117188 L 1723.398438 431.171875 L 1744.375 428.75 L 1765.351562 427.890625 L 1786.367188 428.554688 L 1807.34375 430.78125 L 1828.359375 434.570312 L 1849.335938 439.84375 L 1870.351562 446.601562 L 1891.328125 454.84375 L 1912.304688 464.492188 L 1933.320312 475.46875 L 1954.296875 487.734375 L 1975.3125 501.25 L 1996.289062 515.898438 L 2017.304688 531.640625 L 2038.28125 548.359375 L 2059.296875 565.976562 L 2080.273438 584.375 L 2101.289062 603.476562 L 2122.265625 623.164062 L 2143.242188 643.359375 L 2164.257812 663.90625 L 2185.234375 684.6875 L 2206.25 705.664062 L 2227.226562 726.640625 L 2248.242188 747.539062 L 2269.21875 768.242188 L 2290.195312 788.632812 L 2311.210938 808.59375 L 2332.1875 828.046875 L 2353.203125 846.835938 L 2374.179688 864.882812 L 2395.195312 882.109375 L 2416.171875 898.359375 L 2437.1875 913.632812 L 2458.164062 927.773438 L 2479.140625 940.703125 L 2500.15625 952.421875 " transform="matrix(0.1,0,0,-0.1,0,142)"/>
<path style=" stroke:none;fill-rule:nonzero;fill:rgb(100%,0%,0%);fill-opacity:1;" d="M 89.3125 42.519531 C 89.3125 43.460938 88.550781 44.21875 87.613281 44.21875 C 86.671875 44.21875 85.914062 43.460938 85.914062 42.519531 C 85.914062 41.578125 86.671875 40.820312 87.613281 40.820312 C 88.550781 40.820312 89.3125 41.578125 89.3125 42.519531 "/>
<path style="fill:none;stroke-width:10;stroke-linecap:round;stroke-linejoin:round;stroke:rgb(0%,0%,0%);stroke-opacity:1;stroke-miterlimit:10;" d="M 893.125 994.804688 C 893.125 985.390625 885.507812 977.8125 876.132812 977.8125 C 866.71875 977.8125 859.140625 985.390625 859.140625 994.804688 C 859.140625 1004.21875 866.71875 1011.796875 876.132812 1011.796875 C 885.507812 1011.796875 893.125 1004.21875 893.125 994.804688 Z M 893.125 994.804688 " transform="matrix(0.1,0,0,-0.1,0,142)"/>
<path style=" stroke:none;fill-rule:nonzero;fill:rgb(100%,0%,0%);fill-opacity:1;" d="M 94.632812 36.71875 C 94.632812 36.804688 94.632812 36.851562 94.632812 36.851562 C 94.542969 36.851562 94.367188 36.71875 94.101562 36.453125 C 93.746094 36.097656 93.480469 35.699219 93.304688 35.257812 C 92.859375 34.460938 92.640625 33.574219 92.640625 32.597656 C 92.640625 31.625 92.816406 30.738281 93.171875 29.941406 C 93.527344 29.320312 93.925781 28.835938 94.367188 28.480469 C 94.457031 28.390625 94.542969 28.347656 94.632812 28.347656 C 94.632812 28.347656 94.632812 28.390625 94.632812 28.480469 C 94.632812 28.480469 94.589844 28.523438 94.5 28.613281 C 93.613281 29.496094 93.171875 30.828125 93.171875 32.597656 C 93.171875 34.371094 93.613281 35.699219 94.5 36.585938 C 94.589844 36.671875 94.632812 36.71875 94.632812 36.71875 "/>
<path style=" stroke:none;fill-rule:nonzero;fill:rgb(100%,0%,0%);fill-opacity:1;" d="M 97.410156 31.535156 L 96.878906 33.394531 C 96.789062 33.75 96.742188 34.058594 96.742188 34.324219 C 96.65625 34.589844 96.566406 34.722656 96.476562 34.722656 C 96.390625 34.8125 96.300781 34.855469 96.210938 34.855469 C 96.125 34.855469 96.078125 34.769531 96.078125 34.589844 C 96.078125 34.503906 96.078125 34.414062 96.078125 34.324219 C 96.609375 33.175781 96.964844 32.242188 97.144531 31.535156 L 96.742188 31.535156 C 96.300781 31.535156 95.945312 31.757812 95.679688 32.199219 C 95.59375 32.289062 95.503906 32.332031 95.414062 32.332031 C 95.414062 32.332031 95.414062 32.289062 95.414062 32.199219 C 95.414062 32.109375 95.503906 31.933594 95.679688 31.667969 C 95.679688 31.667969 95.726562 31.625 95.8125 31.535156 C 95.8125 31.535156 95.859375 31.492188 95.945312 31.402344 C 96.125 31.136719 96.390625 31.003906 96.742188 31.003906 L 99.667969 31.003906 C 99.84375 31.003906 99.933594 31.046875 99.933594 31.136719 C 99.933594 31.226562 99.933594 31.269531 99.933594 31.269531 C 99.933594 31.445312 99.800781 31.535156 99.535156 31.535156 L 98.605469 31.535156 C 98.515625 32.066406 98.472656 32.511719 98.472656 32.863281 C 98.472656 33.394531 98.558594 33.882812 98.738281 34.324219 C 98.738281 34.414062 98.738281 34.460938 98.738281 34.460938 C 98.738281 34.636719 98.648438 34.722656 98.472656 34.722656 C 98.472656 34.8125 98.425781 34.855469 98.339844 34.855469 C 98.25 34.855469 98.160156 34.769531 98.074219 34.589844 C 98.074219 34.503906 98.074219 34.460938 98.074219 34.460938 C 98.074219 34.191406 98.074219 33.972656 98.074219 33.792969 C 98.074219 33.351562 98.117188 32.773438 98.207031 32.066406 L 98.339844 31.535156 L 97.410156 31.535156 "/>
<path style=" stroke:none;fill-rule:nonzero;fill:rgb(100%,0%,0%);fill-opacity:1;" d="M 103.71875 28.613281 L 100.796875 36.585938 C 100.796875 36.761719 100.75 36.851562 100.660156 36.851562 C 100.574219 36.851562 100.527344 36.804688 100.527344 36.71875 C 100.527344 36.628906 100.527344 36.585938 100.527344 36.585938 L 103.453125 28.480469 C 103.453125 28.390625 103.496094 28.347656 103.585938 28.347656 C 103.671875 28.347656 103.71875 28.390625 103.71875 28.480469 C 103.71875 28.566406 103.71875 28.613281 103.71875 28.613281 "/>
<path style=" stroke:none;fill-rule:nonzero;fill:rgb(100%,0%,0%);fill-opacity:1;" d="M 108.101562 33.261719 L 107.835938 34.722656 L 104.648438 34.722656 C 104.648438 34.546875 104.691406 34.460938 104.78125 34.460938 L 106.375 32.597656 C 106.996094 31.890625 107.304688 31.269531 107.304688 30.738281 C 107.304688 30.207031 107.128906 29.808594 106.773438 29.542969 C 106.597656 29.363281 106.375 29.277344 106.109375 29.277344 C 105.753906 29.277344 105.445312 29.453125 105.179688 29.808594 C 105.089844 29.894531 105.046875 30.03125 105.046875 30.207031 C 105.046875 30.207031 105.089844 30.207031 105.179688 30.207031 C 105.355469 30.207031 105.488281 30.296875 105.578125 30.472656 C 105.578125 30.5625 105.578125 30.605469 105.578125 30.605469 C 105.578125 30.871094 105.445312 31.003906 105.179688 31.003906 C 105.179688 31.09375 105.179688 31.136719 105.179688 31.136719 C 104.914062 31.136719 104.734375 31.046875 104.648438 30.871094 C 104.648438 30.78125 104.648438 30.695312 104.648438 30.605469 C 104.648438 30.160156 104.824219 29.808594 105.179688 29.542969 C 105.445312 29.1875 105.800781 29.011719 106.242188 29.011719 C 106.863281 29.011719 107.351562 29.230469 107.703125 29.675781 C 107.882812 29.941406 108.015625 30.25 108.101562 30.605469 C 108.101562 30.605469 108.101562 30.648438 108.101562 30.738281 C 108.101562 31.09375 107.925781 31.492188 107.570312 31.933594 C 107.394531 32.109375 107.128906 32.332031 106.773438 32.597656 L 106.375 33.128906 L 106.242188 33.128906 L 105.3125 34.058594 L 106.90625 34.058594 C 107.351562 34.058594 107.613281 34.058594 107.703125 34.058594 C 107.703125 33.972656 107.746094 33.707031 107.835938 33.261719 L 108.101562 33.261719 "/>
<path style=" stroke:none;fill-rule:nonzero;fill:rgb(100%,0%,0%);fill-opacity:1;" d="M 110.230469 34.722656 C 110.230469 35.257812 110.050781 35.742188 109.695312 36.1875 C 109.609375 36.273438 109.519531 36.320312 109.429688 36.320312 C 109.429688 36.230469 109.429688 36.1875 109.429688 36.1875 C 109.785156 35.832031 110.007812 35.390625 110.097656 34.855469 C 110.097656 34.855469 110.097656 34.8125 110.097656 34.722656 C 110.097656 34.636719 110.050781 34.589844 109.964844 34.589844 C 109.875 34.679688 109.785156 34.722656 109.695312 34.722656 C 109.519531 34.722656 109.386719 34.636719 109.296875 34.460938 C 109.296875 34.371094 109.296875 34.324219 109.296875 34.324219 C 109.296875 34.058594 109.34375 33.882812 109.429688 33.792969 C 109.519531 33.792969 109.609375 33.792969 109.695312 33.792969 C 109.964844 33.792969 110.140625 33.972656 110.230469 34.324219 C 110.230469 34.414062 110.230469 34.546875 110.230469 34.722656 "/>
<path style=" stroke:none;fill-rule:nonzero;fill:rgb(100%,0%,0%);fill-opacity:1;" d="M 115.335938 31.269531 L 114.9375 34.058594 C 114.851562 34.414062 114.71875 34.8125 114.539062 35.257812 C 114.539062 35.433594 114.496094 35.566406 114.40625 35.65625 C 114.230469 36.097656 113.964844 36.363281 113.609375 36.453125 C 113.609375 36.453125 113.566406 36.453125 113.476562 36.453125 C 113.210938 36.453125 112.988281 36.363281 112.8125 36.1875 C 112.722656 36.097656 112.679688 36.007812 112.679688 35.921875 C 112.679688 35.65625 112.8125 35.476562 113.078125 35.390625 C 113.078125 35.390625 113.121094 35.390625 113.210938 35.390625 C 113.386719 35.390625 113.476562 35.433594 113.476562 35.519531 C 113.476562 35.609375 113.476562 35.65625 113.476562 35.65625 C 113.476562 35.832031 113.386719 35.964844 113.210938 36.054688 C 113.210938 36.054688 113.164062 36.097656 113.078125 36.1875 C 113.164062 36.273438 113.300781 36.320312 113.476562 36.320312 C 113.742188 36.320312 113.921875 36.007812 114.007812 35.390625 C 114.097656 35.300781 114.140625 35.167969 114.140625 34.988281 L 114.140625 34.722656 L 114.804688 31.269531 L 114.273438 31.269531 C 114.097656 31.269531 114.007812 31.269531 114.007812 31.269531 C 114.007812 31.179688 114.050781 31.09375 114.140625 31.003906 L 114.9375 31.003906 C 115.027344 30.296875 115.113281 29.851562 115.203125 29.675781 C 115.382812 29.144531 115.648438 28.835938 116 28.746094 C 116.089844 28.746094 116.179688 28.746094 116.265625 28.746094 C 116.53125 28.746094 116.753906 28.835938 116.929688 29.011719 C 116.929688 29.097656 116.929688 29.1875 116.929688 29.277344 C 116.929688 29.542969 116.84375 29.71875 116.664062 29.808594 C 116.664062 29.808594 116.621094 29.808594 116.53125 29.808594 C 116.355469 29.808594 116.265625 29.765625 116.265625 29.675781 C 116.179688 29.585938 116.132812 29.542969 116.132812 29.542969 C 116.132812 29.363281 116.222656 29.230469 116.398438 29.144531 C 116.488281 29.144531 116.578125 29.097656 116.664062 29.011719 C 116.578125 28.921875 116.445312 28.878906 116.265625 28.878906 C 116.089844 28.878906 115.957031 28.964844 115.867188 29.144531 C 115.78125 29.230469 115.691406 29.542969 115.601562 30.074219 L 115.46875 31.003906 L 116.132812 31.003906 C 116.3125 31.003906 116.398438 31.046875 116.398438 31.136719 C 116.398438 31.226562 116.355469 31.269531 116.265625 31.269531 L 115.335938 31.269531 "/>
<path style=" stroke:none;fill-rule:nonzero;fill:rgb(100%,0%,0%);fill-opacity:1;" d="M 119.234375 36.71875 C 119.234375 36.804688 119.234375 36.851562 119.234375 36.851562 C 119.144531 36.851562 118.96875 36.71875 118.703125 36.453125 C 118.347656 36.097656 118.082031 35.699219 117.90625 35.257812 C 117.464844 34.460938 117.242188 33.574219 117.242188 32.597656 C 117.242188 31.625 117.417969 30.738281 117.773438 29.941406 C 118.128906 29.320312 118.527344 28.835938 118.96875 28.480469 C 119.058594 28.390625 119.144531 28.347656 119.234375 28.347656 C 119.234375 28.347656 119.234375 28.390625 119.234375 28.480469 C 119.234375 28.480469 119.191406 28.523438 119.101562 28.613281 C 118.214844 29.496094 117.773438 30.828125 117.773438 32.597656 C 117.773438 34.371094 118.214844 35.699219 119.101562 36.585938 C 119.191406 36.671875 119.234375 36.71875 119.234375 36.71875 "/>
<path style=" stroke:none;fill-rule:nonzero;fill:rgb(100%,0%,0%);fill-opacity:1;" d="M 122.011719 31.535156 L 121.480469 33.394531 C 121.390625 33.75 121.347656 34.058594 121.347656 34.324219 C 121.257812 34.589844 121.167969 34.722656 121.078125 34.722656 C 120.992188 34.8125 120.902344 34.855469 120.8125 34.855469 C 120.726562 34.855469 120.679688 34.769531 120.679688 34.589844 C 120.679688 34.503906 120.679688 34.414062 120.679688 34.324219 C 121.214844 33.175781 121.566406 32.242188 121.742188 31.535156 L 121.347656 31.535156 C 120.902344 31.535156 120.546875 31.757812 120.28125 32.199219 C 120.195312 32.289062 120.105469 32.332031 120.015625 32.332031 C 120.015625 32.332031 120.015625 32.289062 120.015625 32.199219 C 120.015625 32.109375 120.105469 31.933594 120.28125 31.667969 C 120.28125 31.667969 120.328125 31.625 120.414062 31.535156 C 120.414062 31.535156 120.460938 31.492188 120.546875 31.402344 C 120.726562 31.136719 120.992188 31.003906 121.347656 31.003906 L 124.269531 31.003906 C 124.445312 31.003906 124.535156 31.046875 124.535156 31.136719 C 124.535156 31.226562 124.535156 31.269531 124.535156 31.269531 C 124.535156 31.445312 124.402344 31.535156 124.136719 31.535156 L 123.207031 31.535156 C 123.117188 32.066406 123.074219 32.511719 123.074219 32.863281 C 123.074219 33.394531 123.160156 33.882812 123.339844 34.324219 C 123.339844 34.414062 123.339844 34.460938 123.339844 34.460938 C 123.339844 34.636719 123.25 34.722656 123.074219 34.722656 C 123.074219 34.8125 123.027344 34.855469 122.941406 34.855469 C 122.851562 34.855469 122.761719 34.769531 122.675781 34.589844 C 122.675781 34.503906 122.675781 34.460938 122.675781 34.460938 C 122.675781 34.191406 122.675781 33.972656 122.675781 33.792969 C 122.675781 33.351562 122.71875 32.773438 122.808594 32.066406 L 122.941406 31.535156 L 122.011719 31.535156 "/>
<path style=" stroke:none;fill-rule:nonzero;fill:rgb(100%,0%,0%);fill-opacity:1;" d="M 128.320312 28.613281 L 125.394531 36.585938 C 125.394531 36.761719 125.351562 36.851562 125.261719 36.851562 C 125.175781 36.851562 125.128906 36.804688 125.128906 36.71875 C 125.128906 36.628906 125.128906 36.585938 125.128906 36.585938 L 128.054688 28.480469 C 128.054688 28.390625 128.097656 28.347656 128.1875 28.347656 C 128.273438 28.347656 128.320312 28.390625 128.320312 28.480469 C 128.320312 28.566406 128.320312 28.613281 128.320312 28.613281 "/>
<path style=" stroke:none;fill-rule:nonzero;fill:rgb(100%,0%,0%);fill-opacity:1;" d="M 132.703125 33.261719 L 132.4375 34.722656 L 129.25 34.722656 C 129.25 34.546875 129.292969 34.460938 129.382812 34.460938 L 130.976562 32.597656 C 131.597656 31.890625 131.90625 31.269531 131.90625 30.738281 C 131.90625 30.207031 131.730469 29.808594 131.375 29.542969 C 131.199219 29.363281 130.976562 29.277344 130.710938 29.277344 C 130.355469 29.277344 130.046875 29.453125 129.78125 29.808594 C 129.691406 29.894531 129.648438 30.03125 129.648438 30.207031 C 129.648438 30.207031 129.691406 30.207031 129.78125 30.207031 C 129.957031 30.207031 130.089844 30.296875 130.179688 30.472656 C 130.179688 30.5625 130.179688 30.605469 130.179688 30.605469 C 130.179688 30.871094 130.046875 31.003906 129.78125 31.003906 C 129.78125 31.09375 129.78125 31.136719 129.78125 31.136719 C 129.515625 31.136719 129.339844 31.046875 129.25 30.871094 C 129.25 30.78125 129.25 30.695312 129.25 30.605469 C 129.25 30.160156 129.425781 29.808594 129.78125 29.542969 C 130.046875 29.1875 130.402344 29.011719 130.84375 29.011719 C 131.464844 29.011719 131.949219 29.230469 132.304688 29.675781 C 132.480469 29.941406 132.613281 30.25 132.703125 30.605469 C 132.703125 30.605469 132.703125 30.648438 132.703125 30.738281 C 132.703125 31.09375 132.527344 31.492188 132.171875 31.933594 C 131.996094 32.109375 131.730469 32.332031 131.375 32.597656 L 130.976562 33.128906 L 130.84375 33.128906 L 129.914062 34.058594 L 131.507812 34.058594 C 131.949219 34.058594 132.21875 34.058594 132.304688 34.058594 C 132.304688 33.972656 132.351562 33.707031 132.4375 33.261719 L 132.703125 33.261719 "/>
<path style=" stroke:none;fill-rule:nonzero;fill:rgb(100%,0%,0%);fill-opacity:1;" d="M 135.492188 32.597656 C 135.492188 33.574219 135.316406 34.460938 134.964844 35.257812 C 134.695312 35.875 134.34375 36.363281 133.898438 36.71875 C 133.8125 36.804688 133.722656 36.851562 133.632812 36.851562 C 133.632812 36.851562 133.632812 36.804688 133.632812 36.71875 C 133.632812 36.71875 133.632812 36.671875 133.632812 36.585938 C 134.609375 35.699219 135.097656 34.371094 135.097656 32.597656 C 135.097656 30.828125 134.652344 29.496094 133.765625 28.613281 C 133.679688 28.523438 133.632812 28.480469 133.632812 28.480469 C 133.632812 28.390625 133.632812 28.347656 133.632812 28.347656 C 133.722656 28.347656 133.898438 28.480469 134.164062 28.746094 C 134.519531 29.097656 134.785156 29.496094 134.964844 29.941406 C 135.316406 30.738281 135.492188 31.625 135.492188 32.597656 "/>
<path style=" stroke:none;fill-rule:nonzero;fill:rgb(100%,0%,0%);fill-opacity:1;" d="M 138.800781 32.597656 C 138.800781 33.574219 138.625 34.460938 138.269531 35.257812 C 138.003906 35.875 137.648438 36.363281 137.207031 36.71875 C 137.117188 36.804688 137.03125 36.851562 136.941406 36.851562 C 136.941406 36.851562 136.941406 36.804688 136.941406 36.71875 C 136.941406 36.71875 136.941406 36.671875 136.941406 36.585938 C 137.914062 35.699219 138.402344 34.371094 138.402344 32.597656 C 138.402344 30.828125 137.960938 29.496094 137.074219 28.613281 C 136.984375 28.523438 136.941406 28.480469 136.941406 28.480469 C 136.941406 28.390625 136.941406 28.347656 136.941406 28.347656 C 137.03125 28.347656 137.207031 28.480469 137.472656 28.746094 C 137.828125 29.097656 138.09375 29.496094 138.269531 29.941406 C 138.625 30.738281 138.800781 31.625 138.800781 32.597656 "/>
</g>
</svg>
