<?xml version="1.0" encoding="UTF-8"?>
<svg xmlns="http://www.w3.org/2000/svg" xmlns:xlink="http://www.w3.org/1999/xlink" width="555pt" height="555pt" viewBox="0 0 555 555" version="1.1">
<defs>
<clipPath id="clip1">
  <path d="M 55.5 10 L 545 10 L 545 429 L 55.5 429 Z M 55.5 10 "/>
</clipPath>
</defs>
<g id="surface1">
<rect x="0" y="0" width="555" height="555" style="fill:rgb(100%,100%,100%);fill-opacity:1;stroke:none;"/>
<g clip-path="url(#clip1)" clip-rule="nonzero">
<path style="fill:none;stroke-width:20.8125;stroke-linecap:butt;stroke-linejoin:round;stroke:rgb(100%,0%,0%);stroke-opacity:1;stroke-miterlimit:10;" d="M 568.867188 1276.484375 L 5438.945312 5438.945312 " transform="matrix(0.1,0,0,-0.1,0,555)"/>
</g>
<path style="fill:none;stroke-width:27.75;stroke-linecap:butt;stroke-linejoin:round;stroke:rgb(0%,0%,100%);stroke-opacity:1;stroke-miterlimit:10;" d="M 568.867188 582.734375 L 594.492188 626.171875 L 616.757812 663.4375 L 641.796875 704.765625 L 667.03125 745.78125 L 692.148438 786.015625 L 715.390625 822.851562 L 739.492188 860.507812 L 764.414062 899.023438 L 789.257812 936.914062 L 814.804688 975.390625 L 837.304688 1008.90625 L 862.65625 1046.25 L 888.085938 1083.28125 L 912.617188 1118.632812 L 934.882812 1150.351562 L 961.367188 1187.695312 L 983.789062 1219.023438 L 1009.882812 1255.117188 L 1032.96875 1286.757812 L 1058.28125 1321.132812 L 1082.421875 1353.554688 L 1107.578125 1387.070312 L 1130.703125 1417.578125 L 1155.625 1450.195312 L 1181.523438 1483.789062 L 1204.101562 1512.734375 L 1228.4375 1543.789062 L 1253.59375 1575.625 L 1278.203125 1606.445312 L 1301.992188 1636.054688 L 1328.4375 1668.671875 L 1352.1875 1697.773438 L 1377.578125 1728.554688 L 1400.546875 1756.289062 L 1425.664062 1786.367188 L 1449.335938 1814.453125 L 1474.023438 1843.59375 L 1498.203125 1871.914062 L 1523.476562 1901.328125 L 1547.851562 1929.453125 L 1572.773438 1958.046875 L 1597.460938 1986.171875 L 1620.195312 2011.875 L 1646.210938 2041.132812 L 1669.453125 2067.148438 L 1694.296875 2094.6875 L 1718.046875 2120.898438 L 1744.414062 2149.765625 L 1767.265625 2174.648438 L 1793.164062 2202.734375 L 1816.796875 2228.125 L 1842.617188 2255.78125 L 1864.921875 2279.492188 L 1890.3125 2306.367188 L 1914.84375 2332.148438 L 1939.335938 2357.773438 L 1963.789062 2383.164062 L 1987.226562 2407.421875 L 2012.617188 2433.515625 L 2036.757812 2458.203125 L 2062.226562 2484.101562 L 2085.234375 2507.421875 L 2110.703125 2533.007812 L 2135.078125 2557.421875 L 2159.375 2581.640625 L 2184.804688 2606.835938 L 2208.203125 2629.882812 L 2232.148438 2653.398438 L 2258.59375 2679.21875 L 2282.539062 2702.5 L 2307.03125 2726.171875 L 2331.953125 2750.15625 L 2354.84375 2772.109375 L 2379.257812 2795.351562 L 2403.515625 2818.359375 L 2429.414062 2842.8125 L 2452.265625 2864.296875 L 2478.671875 2888.984375 L 2502.460938 2911.171875 L 2526.015625 2933.007812 L 2551.367188 2956.40625 L 2576.796875 2979.804688 L 2599.921875 3000.976562 L 2624.492188 3023.398438 L 2648.476562 3045.15625 L 2674.492188 3068.632812 L 2696.953125 3088.867188 L 2722.8125 3112.03125 L 2747.109375 3133.710938 L 2771.132812 3155.078125 L 2795.195312 3176.40625 L 2819.765625 3198.046875 L 2845.78125 3220.898438 L 2869.648438 3241.757812 L 2893.203125 3262.304688 L 2918.398438 3284.140625 L 2943.515625 3305.859375 L 2966.054688 3325.3125 L 2992.773438 3348.203125 L 3015.15625 3367.304688 L 3041.289062 3389.570312 L 3066.210938 3410.742188 L 3088.515625 3429.570312 L 3113.554688 3450.664062 L 3138.789062 3471.835938 L 3163.90625 3492.8125 L 3187.148438 3512.226562 L 3211.25 3532.1875 L 3236.171875 3552.8125 L 3261.015625 3573.28125 L 3286.5625 3594.296875 L 3309.0625 3612.695312 L 3334.414062 3633.359375 L 3359.84375 3654.023438 L 3384.375 3673.90625 L 3406.640625 3691.875 L 3433.125 3713.203125 L 3455.546875 3731.171875 L 3481.601562 3752.03125 L 3504.726562 3770.429688 L 3530.039062 3790.546875 L 3554.140625 3809.648438 L 3579.335938 3829.492188 L 3602.460938 3847.695312 L 3627.382812 3867.226562 L 3653.28125 3887.460938 L 3675.859375 3905.039062 L 3700.195312 3923.945312 L 3725.351562 3943.4375 L 3749.960938 3962.421875 L 3773.789062 3980.742188 L 3800.195312 4001.054688 L 3823.945312 4019.21875 L 3849.296875 4038.554688 L 3872.304688 4056.015625 L 3897.421875 4075.078125 L 3921.054688 4092.929688 L 3945.78125 4111.5625 L 3969.921875 4129.726562 L 3995.234375 4148.671875 L 4019.609375 4166.875 L 4044.53125 4185.429688 L 4069.21875 4203.789062 L 4091.914062 4220.585938 L 4117.96875 4239.804688 L 4141.210938 4256.953125 L 4166.054688 4275.15625 L 4189.804688 4292.578125 L 4216.171875 4311.835938 L 4239.023438 4328.476562 L 4264.921875 4347.304688 L 4288.554688 4364.414062 L 4314.375 4383.085938 L 4336.679688 4399.140625 L 4362.070312 4417.382812 L 4386.601562 4434.960938 L 4411.09375 4452.5 L 4435.546875 4469.882812 L 4458.984375 4486.5625 L 4484.375 4504.570312 L 4508.515625 4521.679688 L 4533.945312 4539.609375 L 4556.992188 4555.820312 L 4582.421875 4573.710938 L 4606.835938 4590.78125 L 4631.132812 4607.734375 L 4656.5625 4625.46875 L 4679.921875 4641.71875 L 4703.90625 4658.320312 L 4730.351562 4676.601562 L 4754.296875 4693.125 L 4778.789062 4709.960938 L 4803.710938 4727.109375 L 4826.601562 4742.773438 L 4851.015625 4759.453125 L 4875.234375 4775.9375 L 4901.171875 4793.554688 L 4924.023438 4809.0625 L 4950.390625 4826.914062 L 4974.21875 4843.007812 L 4997.773438 4858.867188 L 5023.085938 4875.898438 L 5048.515625 4892.929688 L 5071.679688 4908.398438 L 5096.25 4924.804688 L 5120.234375 4940.78125 L 5146.210938 4958.046875 L 5168.710938 4972.96875 L 5194.570312 4990.039062 L 5218.828125 5006.054688 L 5242.890625 5021.875 L 5266.992188 5037.695312 L 5291.523438 5053.789062 L 5317.539062 5070.820312 L 5341.40625 5086.367188 L 5364.960938 5101.71875 L 5390.15625 5118.085938 L 5415.273438 5134.335938 L 5438.945312 5149.6875 " transform="matrix(0.1,0,0,-0.1,0,555)"/>
<path style="fill:none;stroke-width:13.875;stroke-linecap:square;stroke-linejoin:miter;stroke:rgb(0%,0%,0%);stroke-opacity:1;stroke-miterlimit:10;" d="M 3038.59375 3364.6875 C 3038.59375 3341.679688 3019.960938 3323.046875 2996.953125 3323.046875 C 2973.984375 3323.046875 2955.351562 3341.679688 2955.351562 3364.6875 C 2955.351562 3387.65625 2973.984375 3406.289062 2996.953125 3406.289062 C 3019.960938 3406.289062 3038.59375 3387.65625 3038.59375 3364.6875 Z M 3038.59375 3364.6875 " transform="matrix(0.1,0,0,-0.1,0,555)"/>
<path style=" stroke:none;fill-rule:nonzero;fill:rgb(0%,0%,0%);fill-opacity:1;" d="M 303.859375 218.53125 C 303.859375 220.832031 301.996094 222.695312 299.695312 222.695312 C 297.398438 222.695312 295.535156 220.832031 295.535156 218.53125 C 295.535156 216.234375 297.398438 214.371094 299.695312 214.371094 C 301.996094 214.371094 303.859375 216.234375 303.859375 218.53125 "/>
<path style="fill:none;stroke-width:13.875;stroke-linecap:butt;stroke-linejoin:round;stroke:rgb(0%,0%,0%);stroke-opacity:1;stroke-miterlimit:10;" d="M 541.132812 555 L 5438.945312 555 " transform="matrix(0.1,0,0,-0.1,0,555)"/>
<path style=" stroke:none;fill-rule:nonzero;fill:rgb(0%,0%,0%);fill-opacity:1;" d="M 300.046875 534.535156 C 300.335938 534.835938 300.550781 535.148438 300.695312 535.464844 C 300.8125 535.667969 300.984375 536.21875 301.214844 537.113281 L 301.996094 535.964844 C 302.199219 535.675781 302.449219 535.40625 302.746094 535.152344 C 303.039062 534.898438 303.296875 534.722656 303.515625 534.621094 C 303.660156 534.5625 303.816406 534.535156 303.992188 534.535156 C 304.238281 534.535156 304.4375 534.601562 304.589844 534.738281 C 304.738281 534.878906 304.816406 535.039062 304.816406 535.226562 C 304.816406 535.457031 304.773438 535.617188 304.683594 535.703125 C 304.527344 535.847656 304.339844 535.921875 304.121094 535.921875 C 303.992188 535.921875 303.863281 535.894531 303.730469 535.835938 C 303.457031 535.75 303.269531 535.703125 303.167969 535.703125 C 303.023438 535.703125 302.859375 535.785156 302.667969 535.941406 C 302.308594 536.246094 301.875 536.839844 301.367188 537.71875 L 302.085938 540.734375 C 302.199219 541.199219 302.292969 541.472656 302.363281 541.570312 C 302.4375 541.664062 302.519531 541.710938 302.605469 541.710938 C 302.722656 541.710938 302.863281 541.644531 303.039062 541.515625 C 303.355469 541.238281 303.632812 540.886719 303.863281 540.453125 L 304.164062 540.605469 C 303.789062 541.296875 303.320312 541.875 302.757812 542.339844 C 302.4375 542.597656 302.164062 542.730469 301.933594 542.730469 C 301.601562 542.730469 301.339844 542.539062 301.152344 542.164062 C 301.023438 541.933594 300.769531 540.953125 300.394531 539.21875 C 299.46875 540.804688 298.730469 541.824219 298.183594 542.273438 C 297.820312 542.578125 297.472656 542.730469 297.140625 542.730469 C 296.910156 542.730469 296.691406 542.640625 296.492188 542.46875 C 296.359375 542.339844 296.296875 542.164062 296.296875 541.949219 C 296.296875 541.761719 296.359375 541.601562 296.492188 541.472656 C 296.621094 541.339844 296.777344 541.277344 296.96875 541.277344 C 297.15625 541.277344 297.351562 541.371094 297.554688 541.558594 C 297.710938 541.6875 297.835938 541.753906 297.921875 541.753906 C 297.980469 541.753906 298.066406 541.710938 298.183594 541.621094 C 298.457031 541.390625 298.832031 540.90625 299.308594 540.171875 C 299.785156 539.433594 300.097656 538.898438 300.242188 538.566406 C 299.878906 537.136719 299.683594 536.382812 299.65625 536.3125 C 299.527344 535.921875 299.351562 535.648438 299.136719 535.488281 C 298.917969 535.328125 298.59375 535.25 298.160156 535.25 C 298.027344 535.25 297.878906 535.257812 297.703125 535.269531 L 297.703125 534.945312 L 300.046875 534.535156 "/>
<path style="fill:none;stroke-width:1.2;stroke-linecap:butt;stroke-linejoin:round;stroke:rgb(0%,0%,0%);stroke-opacity:1;stroke-miterlimit:10;" d="M 1055.898438 555 L 1055.898438 499.492188 " transform="matrix(0.1,0,0,-0.1,0,555)"/>
<path style=" stroke:none;fill-rule:nonzero;fill:rgb(0%,0%,0%);fill-opacity:1;" d="M 95 515.804688 C 95 514.445312 95.207031 513.269531 95.617188 512.277344 C 96.03125 511.289062 96.574219 510.554688 97.253906 510.078125 C 97.789062 509.703125 98.339844 509.515625 98.902344 509.515625 C 99.8125 509.515625 100.628906 509.976562 101.351562 510.902344 C 102.261719 512.058594 102.71875 513.628906 102.71875 515.605469 C 102.71875 516.996094 102.519531 518.171875 102.121094 519.140625 C 101.726562 520.109375 101.214844 520.816406 100.59375 521.253906 C 99.972656 521.695312 99.378906 521.917969 98.816406 521.917969 C 97.675781 521.917969 96.71875 521.242188 95.953125 519.902344 C 95.320312 518.757812 95 517.390625 95 515.804688 Z M 96.734375 516.019531 C 96.734375 517.667969 96.9375 519.011719 97.34375 520.050781 C 97.675781 520.917969 98.171875 521.351562 98.835938 521.351562 C 99.15625 521.351562 99.484375 521.210938 99.824219 520.929688 C 100.164062 520.648438 100.421875 520.167969 100.59375 519.488281 C 100.867188 518.492188 101.003906 517.066406 101.003906 515.21875 C 101.003906 513.859375 100.859375 512.722656 100.570312 511.8125 C 100.371094 511.132812 100.09375 510.65625 99.746094 510.382812 C 99.515625 510.195312 99.226562 510.101562 98.882812 510.101562 C 98.492188 510.101562 98.136719 510.273438 97.820312 510.621094 C 97.398438 511.113281 97.113281 511.882812 96.960938 512.929688 C 96.808594 513.976562 96.734375 515.007812 96.734375 516.019531 Z M 105.621094 519.984375 C 105.898438 519.984375 106.128906 520.082031 106.316406 520.28125 C 106.503906 520.476562 106.597656 520.703125 106.597656 520.960938 C 106.597656 521.238281 106.503906 521.46875 106.316406 521.65625 C 106.128906 521.84375 105.898438 521.9375 105.621094 521.9375 C 105.347656 521.9375 105.117188 521.84375 104.929688 521.65625 C 104.742188 521.46875 104.648438 521.238281 104.648438 520.960938 C 104.648438 520.6875 104.742188 520.457031 104.929688 520.269531 C 105.117188 520.082031 105.347656 519.984375 105.621094 519.984375 Z M 116.269531 517.296875 L 116.269531 518.554688 L 114.664062 518.554688 L 114.664062 521.699219 L 113.210938 521.699219 L 113.210938 518.554688 L 108.160156 518.554688 L 108.160156 517.425781 L 113.710938 509.515625 L 114.664062 509.515625 L 114.664062 517.296875 Z M 113.210938 517.296875 L 113.210938 511.355469 L 109.027344 517.296875 L 113.210938 517.296875 "/>
<path style="fill:none;stroke-width:1.2;stroke-linecap:butt;stroke-linejoin:round;stroke:rgb(0%,0%,0%);stroke-opacity:1;stroke-miterlimit:10;" d="M 1705.234375 555 L 1705.234375 499.492188 " transform="matrix(0.1,0,0,-0.1,0,555)"/>
<path style=" stroke:none;fill-rule:nonzero;fill:rgb(0%,0%,0%);fill-opacity:1;" d="M 158.824219 515.804688 C 158.824219 514.445312 159.03125 513.269531 159.441406 512.277344 C 159.855469 511.289062 160.398438 510.554688 161.078125 510.078125 C 161.613281 509.703125 162.164062 509.515625 162.726562 509.515625 C 163.636719 509.515625 164.453125 509.976562 165.175781 510.902344 C 166.089844 512.058594 166.542969 513.628906 166.542969 515.605469 C 166.542969 516.996094 166.34375 518.171875 165.945312 519.140625 C 165.550781 520.109375 165.039062 520.816406 164.417969 521.253906 C 163.796875 521.695312 163.203125 521.917969 162.640625 521.917969 C 161.496094 521.917969 160.546875 521.242188 159.777344 519.902344 C 159.140625 518.757812 158.824219 517.390625 158.824219 515.804688 Z M 160.558594 516.019531 C 160.558594 517.667969 160.761719 519.011719 161.164062 520.050781 C 161.496094 520.917969 161.996094 521.351562 162.660156 521.351562 C 162.980469 521.351562 163.308594 521.210938 163.648438 520.929688 C 163.988281 520.648438 164.246094 520.167969 164.417969 519.488281 C 164.691406 518.492188 164.828125 517.066406 164.828125 515.21875 C 164.828125 513.859375 164.683594 512.722656 164.394531 511.8125 C 164.195312 511.132812 163.917969 510.65625 163.570312 510.382812 C 163.34375 510.195312 163.050781 510.101562 162.703125 510.101562 C 162.316406 510.101562 161.960938 510.273438 161.644531 510.621094 C 161.222656 511.113281 160.9375 511.882812 160.785156 512.929688 C 160.636719 513.976562 160.558594 515.007812 160.558594 516.019531 Z M 169.449219 519.984375 C 169.722656 519.984375 169.953125 520.082031 170.140625 520.28125 C 170.328125 520.476562 170.425781 520.703125 170.425781 520.960938 C 170.425781 521.238281 170.328125 521.46875 170.140625 521.65625 C 169.953125 521.84375 169.722656 521.9375 169.449219 521.9375 C 169.175781 521.9375 168.941406 521.84375 168.753906 521.65625 C 168.566406 521.46875 168.472656 521.238281 168.472656 520.960938 C 168.472656 520.6875 168.566406 520.457031 168.753906 520.269531 C 168.941406 520.082031 169.175781 519.984375 169.449219 519.984375 Z M 179.789062 509.515625 L 179.789062 509.839844 C 179.007812 509.914062 178.371094 510.066406 177.882812 510.296875 C 177.390625 510.527344 176.90625 510.882812 176.429688 511.355469 C 175.953125 511.835938 175.558594 512.367188 175.246094 512.953125 C 174.9375 513.539062 174.671875 514.226562 174.457031 515.023438 C 175.308594 514.445312 176.160156 514.15625 177.015625 514.15625 C 177.824219 514.15625 178.527344 514.484375 179.128906 515.140625 C 179.726562 515.796875 180.027344 516.648438 180.027344 517.6875 C 180.027344 518.6875 179.722656 519.597656 179.117188 520.421875 C 178.394531 521.417969 177.433594 521.917969 176.234375 521.917969 C 175.410156 521.917969 174.714844 521.640625 174.152344 521.09375 C 173.039062 520.050781 172.484375 518.695312 172.484375 517.015625 C 172.484375 515.949219 172.695312 514.929688 173.121094 513.96875 C 173.546875 513.011719 174.160156 512.152344 174.953125 511.402344 C 175.75 510.648438 176.511719 510.148438 177.242188 509.894531 C 177.972656 509.640625 178.648438 509.515625 179.269531 509.515625 Z M 174.304688 515.671875 C 174.203125 516.46875 174.152344 517.109375 174.152344 517.601562 C 174.152344 518.164062 174.257812 518.777344 174.46875 519.433594 C 174.675781 520.09375 174.984375 520.613281 175.386719 521.007812 C 175.691406 521.28125 176.058594 521.417969 176.492188 521.417969 C 177 521.417969 177.453125 521.175781 177.859375 520.691406 C 178.265625 520.207031 178.46875 519.523438 178.46875 518.640625 C 178.46875 517.628906 178.265625 516.761719 177.859375 516.03125 C 177.453125 515.300781 176.890625 514.9375 176.167969 514.9375 C 175.9375 514.9375 175.695312 514.980469 175.441406 515.078125 C 175.191406 515.171875 174.808594 515.367188 174.304688 515.671875 "/>
<path style="fill:none;stroke-width:1.2;stroke-linecap:butt;stroke-linejoin:round;stroke:rgb(0%,0%,0%);stroke-opacity:1;stroke-miterlimit:10;" d="M 2354.570312 555 L 2354.570312 499.492188 " transform="matrix(0.1,0,0,-0.1,0,555)"/>
<path style=" stroke:none;fill-rule:nonzero;fill:rgb(0%,0%,0%);fill-opacity:1;" d="M 224.035156 515.804688 C 224.035156 514.445312 224.242188 513.269531 224.65625 512.277344 C 225.066406 511.289062 225.613281 510.554688 226.289062 510.078125 C 226.828125 509.703125 227.378906 509.515625 227.941406 509.515625 C 228.851562 509.515625 229.667969 509.976562 230.390625 510.902344 C 231.300781 512.058594 231.753906 513.628906 231.753906 515.605469 C 231.753906 516.996094 231.558594 518.171875 231.160156 519.140625 C 230.761719 520.109375 230.253906 520.816406 229.632812 521.253906 C 229.011719 521.695312 228.417969 521.917969 227.851562 521.917969 C 226.710938 521.917969 225.757812 521.242188 224.992188 519.902344 C 224.355469 518.757812 224.035156 517.390625 224.035156 515.804688 Z M 225.769531 516.019531 C 225.769531 517.667969 225.972656 519.011719 226.378906 520.050781 C 226.710938 520.917969 227.210938 521.351562 227.875 521.351562 C 228.191406 521.351562 228.519531 521.210938 228.859375 520.929688 C 229.199219 520.648438 229.457031 520.167969 229.632812 519.488281 C 229.90625 518.492188 230.042969 517.066406 230.042969 515.21875 C 230.042969 513.859375 229.898438 512.722656 229.609375 511.8125 C 229.40625 511.132812 229.132812 510.65625 228.785156 510.382812 C 228.554688 510.195312 228.265625 510.101562 227.917969 510.101562 C 227.527344 510.101562 227.175781 510.273438 226.855469 510.621094 C 226.4375 511.113281 226.152344 511.882812 226 512.929688 C 225.847656 513.976562 225.769531 515.007812 225.769531 516.019531 Z M 234.660156 519.984375 C 234.933594 519.984375 235.164062 520.082031 235.355469 520.28125 C 235.542969 520.476562 235.636719 520.703125 235.636719 520.960938 C 235.636719 521.238281 235.542969 521.46875 235.355469 521.65625 C 235.164062 521.84375 234.933594 521.9375 234.660156 521.9375 C 234.386719 521.9375 234.15625 521.84375 233.96875 521.65625 C 233.777344 521.46875 233.683594 521.238281 233.683594 520.960938 C 233.683594 520.6875 233.777344 520.457031 233.96875 520.269531 C 234.15625 520.082031 234.386719 519.984375 234.660156 519.984375 Z M 240.382812 515.695312 C 239.429688 514.914062 238.816406 514.289062 238.539062 513.820312 C 238.265625 513.347656 238.128906 512.863281 238.128906 512.355469 C 238.128906 511.574219 238.429688 510.90625 239.027344 510.351562 C 239.628906 509.792969 240.425781 509.515625 241.425781 509.515625 C 242.390625 509.515625 243.167969 509.777344 243.753906 510.296875 C 244.339844 510.816406 244.632812 511.410156 244.632812 512.074219 C 244.632812 512.523438 244.472656 512.976562 244.15625 513.4375 C 243.839844 513.902344 243.179688 514.453125 242.183594 515.085938 C 243.210938 515.882812 243.890625 516.511719 244.222656 516.972656 C 244.667969 517.566406 244.894531 518.195312 244.894531 518.859375 C 244.894531 519.699219 244.574219 520.417969 243.9375 521.015625 C 243.304688 521.617188 242.464844 521.917969 241.425781 521.917969 C 240.28125 521.917969 239.394531 521.5625 238.757812 520.851562 C 238.253906 520.277344 238 519.648438 238 518.96875 C 238 518.449219 238.179688 517.925781 238.539062 517.40625 C 238.902344 516.886719 239.515625 516.316406 240.382812 515.695312 Z M 241.75 514.738281 C 242.457031 514.105469 242.90625 513.601562 243.09375 513.234375 C 243.28125 512.863281 243.375 512.449219 243.375 511.988281 C 243.375 511.378906 243.203125 510.898438 242.855469 510.542969 C 242.507812 510.191406 242.039062 510.015625 241.445312 510.015625 C 240.839844 510.015625 240.347656 510.1875 239.972656 510.535156 C 239.597656 510.882812 239.40625 511.285156 239.40625 511.75 C 239.40625 512.050781 239.488281 512.359375 239.644531 512.671875 C 239.804688 512.980469 240.027344 513.273438 240.320312 513.546875 Z M 240.796875 516.019531 C 240.304688 516.421875 239.941406 516.867188 239.710938 517.351562 C 239.480469 517.835938 239.363281 518.359375 239.363281 518.925781 C 239.363281 519.691406 239.570312 520.300781 239.980469 520.757812 C 240.394531 521.210938 240.917969 521.4375 241.554688 521.4375 C 242.191406 521.4375 242.699219 521.257812 243.082031 520.898438 C 243.464844 520.535156 243.65625 520.101562 243.65625 519.597656 C 243.65625 519.175781 243.542969 518.792969 243.3125 518.449219 C 242.90625 517.828125 242.066406 517.015625 240.796875 516.019531 "/>
<path style="fill:none;stroke-width:1.2;stroke-linecap:butt;stroke-linejoin:round;stroke:rgb(0%,0%,0%);stroke-opacity:1;stroke-miterlimit:10;" d="M 3003.90625 555 L 3003.90625 499.492188 " transform="matrix(0.1,0,0,-0.1,0,555)"/>
<path style=" stroke:none;fill-rule:nonzero;fill:rgb(0%,0%,0%);fill-opacity:1;" d="M 290.722656 510.925781 L 293.628906 509.515625 L 293.910156 509.515625 L 293.910156 519.597656 C 293.910156 520.261719 293.941406 520.675781 293.996094 520.84375 C 294.054688 521.007812 294.171875 521.136719 294.34375 521.222656 C 294.519531 521.308594 294.871094 521.359375 295.40625 521.375 L 295.40625 521.699219 L 290.917969 521.699219 L 290.917969 521.375 C 291.484375 521.359375 291.847656 521.308594 292.011719 521.222656 C 292.179688 521.136719 292.296875 521.019531 292.359375 520.875 C 292.425781 520.730469 292.460938 520.304688 292.460938 519.597656 L 292.460938 513.15625 C 292.460938 512.277344 292.429688 511.714844 292.371094 511.46875 C 292.328125 511.277344 292.253906 511.140625 292.144531 511.054688 C 292.035156 510.96875 291.902344 510.925781 291.742188 510.925781 C 291.527344 510.925781 291.230469 511.019531 290.855469 511.207031 Z M 299.871094 519.984375 C 300.148438 519.984375 300.378906 520.082031 300.566406 520.28125 C 300.753906 520.476562 300.847656 520.703125 300.847656 520.960938 C 300.847656 521.238281 300.753906 521.46875 300.566406 521.65625 C 300.378906 521.84375 300.148438 521.9375 299.871094 521.9375 C 299.597656 521.9375 299.367188 521.84375 299.179688 521.65625 C 298.992188 521.46875 298.894531 521.238281 298.894531 520.960938 C 298.894531 520.6875 298.992188 520.457031 299.179688 520.269531 C 299.367188 520.082031 299.597656 519.984375 299.871094 519.984375 Z M 302.777344 515.804688 C 302.777344 514.445312 302.984375 513.269531 303.394531 512.277344 C 303.808594 511.289062 304.355469 510.554688 305.03125 510.078125 C 305.566406 509.703125 306.117188 509.515625 306.679688 509.515625 C 307.589844 509.515625 308.40625 509.976562 309.128906 510.902344 C 310.039062 512.058594 310.496094 513.628906 310.496094 515.605469 C 310.496094 516.996094 310.296875 518.171875 309.898438 519.140625 C 309.503906 520.109375 308.992188 520.816406 308.371094 521.253906 C 307.75 521.695312 307.15625 521.917969 306.59375 521.917969 C 305.449219 521.917969 304.496094 521.242188 303.730469 519.902344 C 303.09375 518.757812 302.777344 517.390625 302.777344 515.804688 Z M 304.511719 516.019531 C 304.511719 517.667969 304.714844 519.011719 305.121094 520.050781 C 305.449219 520.917969 305.949219 521.351562 306.613281 521.351562 C 306.933594 521.351562 307.261719 521.210938 307.601562 520.929688 C 307.941406 520.648438 308.199219 520.167969 308.371094 519.488281 C 308.644531 518.492188 308.78125 517.066406 308.78125 515.21875 C 308.78125 513.859375 308.636719 512.722656 308.351562 511.8125 C 308.148438 511.132812 307.871094 510.65625 307.523438 510.382812 C 307.296875 510.195312 307.003906 510.101562 306.65625 510.101562 C 306.269531 510.101562 305.914062 510.273438 305.597656 510.621094 C 305.175781 511.113281 304.890625 511.882812 304.738281 512.929688 C 304.589844 513.976562 304.511719 515.007812 304.511719 516.019531 "/>
<path style="fill:none;stroke-width:1.2;stroke-linecap:butt;stroke-linejoin:round;stroke:rgb(0%,0%,0%);stroke-opacity:1;stroke-miterlimit:10;" d="M 3653.242188 555 L 3653.242188 499.492188 " transform="matrix(0.1,0,0,-0.1,0,555)"/>
<path style=" stroke:none;fill-rule:nonzero;fill:rgb(0%,0%,0%);fill-opacity:1;" d="M 355.9375 510.925781 L 358.84375 509.515625 L 359.125 509.515625 L 359.125 519.597656 C 359.125 520.261719 359.152344 520.675781 359.210938 520.84375 C 359.269531 521.007812 359.382812 521.136719 359.558594 521.222656 C 359.730469 521.308594 360.085938 521.359375 360.621094 521.375 L 360.621094 521.699219 L 356.132812 521.699219 L 356.132812 521.375 C 356.695312 521.359375 357.0625 521.308594 357.226562 521.222656 C 357.390625 521.136719 357.507812 521.019531 357.574219 520.875 C 357.636719 520.730469 357.671875 520.304688 357.671875 519.597656 L 357.671875 513.15625 C 357.671875 512.277344 357.640625 511.714844 357.585938 511.46875 C 357.539062 511.277344 357.464844 511.140625 357.355469 511.054688 C 357.246094 510.96875 357.113281 510.925781 356.953125 510.925781 C 356.738281 510.925781 356.441406 511.019531 356.066406 511.207031 Z M 365.085938 519.984375 C 365.359375 519.984375 365.589844 520.082031 365.78125 520.28125 C 365.96875 520.476562 366.0625 520.703125 366.0625 520.960938 C 366.0625 521.238281 365.96875 521.46875 365.78125 521.65625 C 365.589844 521.84375 365.359375 521.9375 365.085938 521.9375 C 364.8125 521.9375 364.578125 521.84375 364.390625 521.65625 C 364.203125 521.46875 364.109375 521.238281 364.109375 520.960938 C 364.109375 520.6875 364.203125 520.457031 364.390625 520.269531 C 364.578125 520.082031 364.8125 519.984375 365.085938 519.984375 Z M 375.601562 519.402344 L 374.777344 521.699219 L 367.730469 521.699219 L 367.730469 521.375 C 369.796875 519.480469 371.253906 517.933594 372.097656 516.734375 C 372.945312 515.535156 373.367188 514.445312 373.367188 513.460938 C 373.367188 512.695312 373.136719 512.070312 372.671875 511.585938 C 372.210938 511.101562 371.652344 510.859375 371.003906 510.859375 C 370.425781 510.859375 369.902344 511.027344 369.433594 511.367188 C 368.964844 511.707031 368.617188 512.210938 368.402344 512.875 L 368.078125 512.875 C 368.222656 511.792969 368.597656 510.960938 369.203125 510.382812 C 369.8125 509.804688 370.570312 509.515625 371.480469 509.515625 C 372.449219 509.515625 373.257812 509.824219 373.910156 510.449219 C 374.558594 511.070312 374.882812 511.796875 374.882812 512.636719 C 374.882812 513.246094 374.738281 513.851562 374.453125 514.457031 C 374.015625 515.410156 373.316406 516.417969 372.347656 517.472656 C 370.890625 519.078125 369.96875 520.042969 369.59375 520.375 L 372.71875 520.375 C 373.351562 520.375 373.796875 520.351562 374.050781 520.300781 C 374.304688 520.25 374.535156 520.152344 374.742188 520.007812 C 374.953125 519.863281 375.128906 519.660156 375.273438 519.402344 L 375.601562 519.402344 "/>
<path style="fill:none;stroke-width:1.2;stroke-linecap:butt;stroke-linejoin:round;stroke:rgb(0%,0%,0%);stroke-opacity:1;stroke-miterlimit:10;" d="M 4302.617188 555 L 4302.617188 499.492188 " transform="matrix(0.1,0,0,-0.1,0,555)"/>
<path style=" stroke:none;fill-rule:nonzero;fill:rgb(0%,0%,0%);fill-opacity:1;" d="M 421.148438 510.925781 L 424.054688 509.515625 L 424.335938 509.515625 L 424.335938 519.597656 C 424.335938 520.261719 424.367188 520.675781 424.421875 520.84375 C 424.480469 521.007812 424.597656 521.136719 424.769531 521.222656 C 424.941406 521.308594 425.296875 521.359375 425.832031 521.375 L 425.832031 521.699219 L 421.34375 521.699219 L 421.34375 521.375 C 421.90625 521.359375 422.273438 521.308594 422.4375 521.222656 C 422.605469 521.136719 422.722656 521.019531 422.785156 520.875 C 422.851562 520.730469 422.882812 520.304688 422.882812 519.597656 L 422.882812 513.15625 C 422.882812 512.277344 422.855469 511.714844 422.796875 511.46875 C 422.753906 511.277344 422.675781 511.140625 422.570312 511.054688 C 422.460938 510.96875 422.328125 510.925781 422.167969 510.925781 C 421.949219 510.925781 421.652344 511.019531 421.28125 511.207031 Z M 430.296875 519.984375 C 430.570312 519.984375 430.804688 520.082031 430.992188 520.28125 C 431.179688 520.476562 431.273438 520.703125 431.273438 520.960938 C 431.273438 521.238281 431.179688 521.46875 430.992188 521.65625 C 430.804688 521.84375 430.570312 521.9375 430.296875 521.9375 C 430.023438 521.9375 429.792969 521.84375 429.605469 521.65625 C 429.414062 521.46875 429.320312 521.238281 429.320312 520.960938 C 429.320312 520.6875 429.414062 520.457031 429.605469 520.269531 C 429.792969 520.082031 430.023438 519.984375 430.296875 519.984375 Z M 440.941406 517.296875 L 440.941406 518.554688 L 439.339844 518.554688 L 439.339844 521.699219 L 437.886719 521.699219 L 437.886719 518.554688 L 432.835938 518.554688 L 432.835938 517.425781 L 438.386719 509.515625 L 439.339844 509.515625 L 439.339844 517.296875 Z M 437.886719 517.296875 L 437.886719 511.355469 L 433.703125 517.296875 L 437.886719 517.296875 "/>
<path style="fill:none;stroke-width:1.2;stroke-linecap:butt;stroke-linejoin:round;stroke:rgb(0%,0%,0%);stroke-opacity:1;stroke-miterlimit:10;" d="M 4951.953125 555 L 4951.953125 499.492188 " transform="matrix(0.1,0,0,-0.1,0,555)"/>
<path style=" stroke:none;fill-rule:nonzero;fill:rgb(0%,0%,0%);fill-opacity:1;" d="M 484.972656 510.925781 L 487.878906 509.515625 L 488.160156 509.515625 L 488.160156 519.597656 C 488.160156 520.261719 488.191406 520.675781 488.246094 520.84375 C 488.304688 521.007812 488.421875 521.136719 488.59375 521.222656 C 488.769531 521.308594 489.121094 521.359375 489.65625 521.375 L 489.65625 521.699219 L 485.167969 521.699219 L 485.167969 521.375 C 485.734375 521.359375 486.097656 521.308594 486.261719 521.222656 C 486.429688 521.136719 486.546875 521.019531 486.609375 520.875 C 486.675781 520.730469 486.710938 520.304688 486.710938 519.597656 L 486.710938 513.15625 C 486.710938 512.277344 486.679688 511.714844 486.621094 511.46875 C 486.578125 511.277344 486.503906 511.140625 486.394531 511.054688 C 486.285156 510.96875 486.152344 510.925781 485.992188 510.925781 C 485.777344 510.925781 485.480469 511.019531 485.105469 511.207031 Z M 494.121094 519.984375 C 494.398438 519.984375 494.628906 520.082031 494.816406 520.28125 C 495.003906 520.476562 495.097656 520.703125 495.097656 520.960938 C 495.097656 521.238281 495.003906 521.46875 494.816406 521.65625 C 494.628906 521.84375 494.398438 521.9375 494.121094 521.9375 C 493.847656 521.9375 493.617188 521.84375 493.429688 521.65625 C 493.242188 521.46875 493.144531 521.238281 493.144531 520.960938 C 493.144531 520.6875 493.242188 520.457031 493.429688 520.269531 C 493.617188 520.082031 493.847656 519.984375 494.121094 519.984375 Z M 504.464844 509.515625 L 504.464844 509.839844 C 503.683594 509.914062 503.046875 510.066406 502.558594 510.296875 C 502.066406 510.527344 501.582031 510.882812 501.105469 511.355469 C 500.628906 511.835938 500.234375 512.367188 499.921875 512.953125 C 499.609375 513.539062 499.347656 514.226562 499.132812 515.023438 C 499.984375 514.445312 500.835938 514.15625 501.6875 514.15625 C 502.496094 514.15625 503.203125 514.484375 503.804688 515.140625 C 504.402344 515.796875 504.703125 516.648438 504.703125 517.6875 C 504.703125 518.6875 504.398438 519.597656 503.789062 520.421875 C 503.070312 521.417969 502.109375 521.917969 500.90625 521.917969 C 500.085938 521.917969 499.390625 521.640625 498.828125 521.09375 C 497.714844 520.050781 497.15625 518.695312 497.15625 517.015625 C 497.15625 515.949219 497.371094 514.929688 497.796875 513.96875 C 498.222656 513.011719 498.835938 512.152344 499.628906 511.402344 C 500.425781 510.648438 501.1875 510.148438 501.917969 509.894531 C 502.648438 509.640625 503.324219 509.515625 503.945312 509.515625 Z M 498.980469 515.671875 C 498.878906 516.46875 498.828125 517.109375 498.828125 517.601562 C 498.828125 518.164062 498.933594 518.777344 499.140625 519.433594 C 499.351562 520.09375 499.65625 520.613281 500.0625 521.007812 C 500.367188 521.28125 500.734375 521.417969 501.167969 521.417969 C 501.675781 521.417969 502.128906 521.175781 502.535156 520.691406 C 502.9375 520.207031 503.140625 519.523438 503.140625 518.640625 C 503.140625 517.628906 502.9375 516.761719 502.535156 516.03125 C 502.128906 515.300781 501.566406 514.9375 500.84375 514.9375 C 500.613281 514.9375 500.371094 514.980469 500.117188 515.078125 C 499.863281 515.171875 499.484375 515.367188 498.980469 515.671875 "/>
<path style="fill:none;stroke-width:1.2;stroke-linecap:butt;stroke-linejoin:round;stroke:rgb(0%,0%,0%);stroke-opacity:1;stroke-miterlimit:10;" d="M 731.210938 555 L 731.210938 527.265625 " transform="matrix(0.1,0,0,-0.1,0,555)"/>
<path style="fill:none;stroke-width:1.2;stroke-linecap:butt;stroke-linejoin:round;stroke:rgb(0%,0%,0%);stroke-opacity:1;stroke-miterlimit:10;" d="M 1380.546875 555 L 1380.546875 527.265625 " transform="matrix(0.1,0,0,-0.1,0,555)"/>
<path style="fill:none;stroke-width:1.2;stroke-linecap:butt;stroke-linejoin:round;stroke:rgb(0%,0%,0%);stroke-opacity:1;stroke-miterlimit:10;" d="M 2029.882812 555 L 2029.882812 527.265625 " transform="matrix(0.1,0,0,-0.1,0,555)"/>
<path style="fill:none;stroke-width:1.2;stroke-linecap:butt;stroke-linejoin:round;stroke:rgb(0%,0%,0%);stroke-opacity:1;stroke-miterlimit:10;" d="M 2679.21875 555 L 2679.21875 527.265625 " transform="matrix(0.1,0,0,-0.1,0,555)"/>
<path style="fill:none;stroke-width:1.2;stroke-linecap:butt;stroke-linejoin:round;stroke:rgb(0%,0%,0%);stroke-opacity:1;stroke-miterlimit:10;" d="M 3328.59375 555 L 3328.59375 527.265625 " transform="matrix(0.1,0,0,-0.1,0,555)"/>
<path style="fill:none;stroke-width:1.2;stroke-linecap:butt;stroke-linejoin:round;stroke:rgb(0%,0%,0%);stroke-opacity:1;stroke-miterlimit:10;" d="M 3977.929688 555 L 3977.929688 527.265625 " transform="matrix(0.1,0,0,-0.1,0,555)"/>
<path style="fill:none;stroke-width:1.2;stroke-linecap:butt;stroke-linejoin:round;stroke:rgb(0%,0%,0%);stroke-opacity:1;stroke-miterlimit:10;" d="M 4627.265625 555 L 4627.265625 527.265625 " transform="matrix(0.1,0,0,-0.1,0,555)"/>
<path style="fill:none;stroke-width:1.2;stroke-linecap:butt;stroke-linejoin:round;stroke:rgb(0%,0%,0%);stroke-opacity:1;stroke-miterlimit:10;" d="M 5276.601562 555 L 5276.601562 527.265625 " transform="matrix(0.1,0,0,-0.1,0,555)"/>
<path style="fill:none;stroke-width:13.875;stroke-linecap:butt;stroke-linejoin:round;stroke:rgb(0%,0%,0%);stroke-opacity:1;stroke-miterlimit:10;" d="M 541.132812 555 L 541.132812 5438.945312 " transform="matrix(0.1,0,0,-0.1,0,555)"/>
<path style="fill:none;stroke-width:1.2;stroke-linecap:butt;stroke-linejoin:round;stroke:rgb(0%,0%,0%);stroke-opacity:1;stroke-miterlimit:10;" d="M 541.132812 582.734375 L 485.625 582.734375 " transform="matrix(0.1,0,0,-0.1,0,555)"/>
<path style=" stroke:none;fill-rule:nonzero;fill:rgb(0%,0%,0%);fill-opacity:1;" d="M 25.625 497.765625 C 25.625 496.40625 25.832031 495.230469 26.242188 494.242188 C 26.65625 493.253906 27.199219 492.519531 27.878906 492.042969 C 28.414062 491.664062 28.964844 491.476562 29.527344 491.476562 C 30.4375 491.476562 31.253906 491.941406 31.976562 492.863281 C 32.886719 494.023438 33.34375 495.589844 33.34375 497.570312 C 33.34375 498.957031 33.144531 500.136719 32.746094 501.105469 C 32.347656 502.074219 31.839844 502.777344 31.21875 503.21875 C 30.597656 503.65625 30.003906 503.878906 29.441406 503.878906 C 28.300781 503.878906 27.34375 503.207031 26.578125 501.863281 C 25.945312 500.722656 25.625 499.355469 25.625 497.765625 Z M 27.359375 497.980469 C 27.359375 499.628906 27.5625 500.972656 27.96875 502.015625 C 28.300781 502.882812 28.796875 503.316406 29.460938 503.316406 C 29.78125 503.316406 30.109375 503.175781 30.449219 502.894531 C 30.789062 502.609375 31.046875 502.128906 31.21875 501.449219 C 31.492188 500.453125 31.628906 499.03125 31.628906 497.179688 C 31.628906 495.820312 31.484375 494.6875 31.195312 493.777344 C 30.996094 493.097656 30.71875 492.621094 30.371094 492.34375 C 30.140625 492.15625 29.851562 492.0625 29.507812 492.0625 C 29.117188 492.0625 28.761719 492.234375 28.445312 492.582031 C 28.023438 493.074219 27.738281 493.84375 27.585938 494.890625 C 27.433594 495.941406 27.359375 496.96875 27.359375 497.980469 Z M 36.25 501.949219 C 36.523438 501.949219 36.753906 502.046875 36.941406 502.242188 C 37.128906 502.4375 37.222656 502.664062 37.222656 502.925781 C 37.222656 503.199219 37.128906 503.429688 36.941406 503.617188 C 36.753906 503.804688 36.523438 503.898438 36.25 503.898438 C 35.972656 503.898438 35.742188 503.804688 35.554688 503.617188 C 35.367188 503.429688 35.273438 503.199219 35.273438 502.925781 C 35.273438 502.648438 35.367188 502.417969 35.554688 502.230469 C 35.742188 502.042969 35.972656 501.949219 36.25 501.949219 Z M 46.328125 491.714844 L 45.636719 493.210938 L 42.058594 493.210938 L 41.277344 494.816406 C 42.824219 495.046875 44.054688 495.625 44.964844 496.550781 C 45.742188 497.34375 46.132812 498.285156 46.132812 499.371094 C 46.132812 500.003906 46.007812 500.589844 45.753906 501.125 C 45.503906 501.660156 45.179688 502.113281 44.789062 502.492188 C 44.398438 502.867188 43.964844 503.164062 43.488281 503.378906 C 42.824219 503.710938 42.132812 503.878906 41.40625 503.878906 C 40.699219 503.878906 40.183594 503.753906 39.859375 503.511719 C 39.53125 503.265625 39.371094 502.996094 39.371094 502.707031 C 39.371094 502.535156 39.4375 502.386719 39.578125 502.265625 C 39.714844 502.140625 39.882812 502.078125 40.085938 502.078125 C 40.230469 502.078125 40.359375 502.101562 40.476562 502.144531 C 40.589844 502.1875 40.785156 502.3125 41.0625 502.511719 C 41.507812 502.816406 41.957031 502.96875 42.40625 502.96875 C 43.097656 502.96875 43.703125 502.707031 44.214844 502.1875 C 44.726562 501.667969 44.984375 501.03125 44.984375 500.28125 C 44.984375 499.558594 44.753906 498.886719 44.292969 498.265625 C 43.828125 497.640625 43.191406 497.15625 42.382812 496.8125 C 41.734375 496.550781 40.859375 496.398438 39.761719 496.355469 L 42.058594 491.714844 L 46.328125 491.714844 "/>
<path style="fill:none;stroke-width:1.2;stroke-linecap:butt;stroke-linejoin:round;stroke:rgb(0%,0%,0%);stroke-opacity:1;stroke-miterlimit:10;" d="M 541.132812 1137.734375 L 485.625 1137.734375 " transform="matrix(0.1,0,0,-0.1,0,555)"/>
<path style=" stroke:none;fill-rule:nonzero;fill:rgb(0%,0%,0%);fill-opacity:1;" d="M 25.625 442.265625 C 25.625 440.90625 25.832031 439.730469 26.242188 438.742188 C 26.65625 437.753906 27.199219 437.019531 27.878906 436.542969 C 28.414062 436.164062 28.964844 435.976562 29.527344 435.976562 C 30.4375 435.976562 31.253906 436.441406 31.976562 437.363281 C 32.886719 438.523438 33.34375 440.089844 33.34375 442.070312 C 33.34375 443.457031 33.144531 444.636719 32.746094 445.605469 C 32.347656 446.570312 31.839844 447.277344 31.21875 447.71875 C 30.597656 448.15625 30.003906 448.378906 29.441406 448.378906 C 28.300781 448.378906 27.34375 447.707031 26.578125 446.363281 C 25.945312 445.222656 25.625 443.855469 25.625 442.265625 Z M 27.359375 442.480469 C 27.359375 444.128906 27.5625 445.472656 27.96875 446.515625 C 28.300781 447.382812 28.796875 447.816406 29.460938 447.816406 C 29.78125 447.816406 30.109375 447.675781 30.449219 447.394531 C 30.789062 447.109375 31.046875 446.628906 31.21875 445.949219 C 31.492188 444.953125 31.628906 443.53125 31.628906 441.679688 C 31.628906 440.320312 31.484375 439.1875 31.195312 438.277344 C 30.996094 437.597656 30.71875 437.121094 30.371094 436.84375 C 30.140625 436.65625 29.851562 436.5625 29.507812 436.5625 C 29.117188 436.5625 28.761719 436.734375 28.445312 437.082031 C 28.023438 437.574219 27.738281 438.34375 27.585938 439.390625 C 27.433594 440.4375 27.359375 441.472656 27.359375 442.480469 Z M 36.25 446.449219 C 36.523438 446.449219 36.753906 446.546875 36.941406 446.742188 C 37.128906 446.9375 37.222656 447.164062 37.222656 447.425781 C 37.222656 447.699219 37.128906 447.929688 36.941406 448.117188 C 36.753906 448.308594 36.523438 448.398438 36.25 448.398438 C 35.972656 448.398438 35.742188 448.308594 35.554688 448.117188 C 35.367188 447.929688 35.273438 447.699219 35.273438 447.425781 C 35.273438 447.148438 35.367188 446.917969 35.554688 446.730469 C 35.742188 446.542969 35.972656 446.449219 36.25 446.449219 Z M 46.589844 435.976562 L 46.589844 436.304688 C 45.808594 436.375 45.171875 436.527344 44.679688 436.757812 C 44.191406 436.988281 43.707031 437.34375 43.230469 437.820312 C 42.753906 438.296875 42.359375 438.828125 42.046875 439.414062 C 41.738281 440 41.472656 440.6875 41.257812 441.484375 C 42.109375 440.90625 42.960938 440.617188 43.816406 440.617188 C 44.625 440.617188 45.328125 440.945312 45.929688 441.605469 C 46.527344 442.261719 46.828125 443.109375 46.828125 444.152344 C 46.828125 445.148438 46.523438 446.058594 45.917969 446.882812 C 45.195312 447.878906 44.234375 448.378906 43.035156 448.378906 C 42.210938 448.378906 41.515625 448.105469 40.953125 447.554688 C 39.839844 446.515625 39.285156 445.15625 39.285156 443.480469 C 39.285156 442.410156 39.496094 441.394531 39.921875 440.433594 C 40.347656 439.472656 40.960938 438.613281 41.753906 437.863281 C 42.550781 437.113281 43.3125 436.609375 44.042969 436.359375 C 44.773438 436.105469 45.449219 435.976562 46.070312 435.976562 Z M 41.105469 442.136719 C 41.003906 442.929688 40.953125 443.574219 40.953125 444.0625 C 40.953125 444.628906 41.058594 445.238281 41.265625 445.898438 C 41.476562 446.554688 41.785156 447.078125 42.1875 447.46875 C 42.492188 447.742188 42.859375 447.878906 43.292969 447.878906 C 43.800781 447.878906 44.253906 447.636719 44.660156 447.152344 C 45.066406 446.671875 45.265625 445.988281 45.265625 445.105469 C 45.265625 444.09375 45.066406 443.222656 44.660156 442.492188 C 44.253906 441.761719 43.691406 441.398438 42.96875 441.398438 C 42.738281 441.398438 42.496094 441.445312 42.242188 441.539062 C 41.988281 441.632812 41.609375 441.832031 41.105469 442.136719 "/>
<path style="fill:none;stroke-width:1.2;stroke-linecap:butt;stroke-linejoin:round;stroke:rgb(0%,0%,0%);stroke-opacity:1;stroke-miterlimit:10;" d="M 541.132812 1692.734375 L 485.625 1692.734375 " transform="matrix(0.1,0,0,-0.1,0,555)"/>
<path style=" stroke:none;fill-rule:nonzero;fill:rgb(0%,0%,0%);fill-opacity:1;" d="M 25.625 386.765625 C 25.625 385.40625 25.832031 384.230469 26.242188 383.242188 C 26.65625 382.253906 27.199219 381.519531 27.878906 381.042969 C 28.414062 380.664062 28.964844 380.476562 29.527344 380.476562 C 30.4375 380.476562 31.253906 380.941406 31.976562 381.863281 C 32.886719 383.023438 33.34375 384.589844 33.34375 386.570312 C 33.34375 387.957031 33.144531 389.136719 32.746094 390.105469 C 32.347656 391.070312 31.839844 391.777344 31.21875 392.21875 C 30.597656 392.65625 30.003906 392.878906 29.441406 392.878906 C 28.300781 392.878906 27.34375 392.207031 26.578125 390.863281 C 25.945312 389.722656 25.625 388.355469 25.625 386.765625 Z M 27.359375 386.980469 C 27.359375 388.628906 27.5625 389.972656 27.96875 391.015625 C 28.300781 391.882812 28.796875 392.316406 29.460938 392.316406 C 29.78125 392.316406 30.109375 392.175781 30.449219 391.894531 C 30.789062 391.609375 31.046875 391.128906 31.21875 390.449219 C 31.492188 389.453125 31.628906 388.03125 31.628906 386.179688 C 31.628906 384.820312 31.484375 383.6875 31.195312 382.777344 C 30.996094 382.097656 30.71875 381.621094 30.371094 381.34375 C 30.140625 381.15625 29.851562 381.0625 29.507812 381.0625 C 29.117188 381.0625 28.761719 381.234375 28.445312 381.582031 C 28.023438 382.074219 27.738281 382.84375 27.585938 383.890625 C 27.433594 384.941406 27.359375 385.972656 27.359375 386.980469 Z M 36.25 390.949219 C 36.523438 390.949219 36.753906 391.046875 36.941406 391.242188 C 37.128906 391.4375 37.222656 391.664062 37.222656 391.925781 C 37.222656 392.199219 37.128906 392.429688 36.941406 392.617188 C 36.753906 392.808594 36.523438 392.898438 36.25 392.898438 C 35.972656 392.898438 35.742188 392.808594 35.554688 392.617188 C 35.367188 392.429688 35.273438 392.199219 35.273438 391.925781 C 35.273438 391.648438 35.367188 391.417969 35.554688 391.230469 C 35.742188 391.042969 35.972656 390.949219 36.25 390.949219 Z M 40.324219 380.714844 L 46.71875 380.714844 L 46.71875 381.0625 L 42.730469 392.898438 L 41.753906 392.898438 L 45.308594 382.144531 L 42.035156 382.144531 C 41.371094 382.144531 40.902344 382.226562 40.628906 382.386719 C 40.121094 382.660156 39.722656 383.078125 39.433594 383.644531 L 39.175781 383.554688 L 40.324219 380.714844 "/>
<path style="fill:none;stroke-width:1.2;stroke-linecap:butt;stroke-linejoin:round;stroke:rgb(0%,0%,0%);stroke-opacity:1;stroke-miterlimit:10;" d="M 541.132812 2247.734375 L 485.625 2247.734375 " transform="matrix(0.1,0,0,-0.1,0,555)"/>
<path style=" stroke:none;fill-rule:nonzero;fill:rgb(0%,0%,0%);fill-opacity:1;" d="M 25.625 331.265625 C 25.625 329.90625 25.832031 328.730469 26.242188 327.742188 C 26.65625 326.753906 27.199219 326.019531 27.878906 325.542969 C 28.414062 325.164062 28.964844 324.976562 29.527344 324.976562 C 30.4375 324.976562 31.253906 325.441406 31.976562 326.363281 C 32.886719 327.523438 33.34375 329.089844 33.34375 331.070312 C 33.34375 332.457031 33.144531 333.636719 32.746094 334.605469 C 32.347656 335.570312 31.839844 336.277344 31.21875 336.71875 C 30.597656 337.15625 30.003906 337.378906 29.441406 337.378906 C 28.300781 337.378906 27.34375 336.707031 26.578125 335.363281 C 25.945312 334.222656 25.625 332.855469 25.625 331.265625 Z M 27.359375 331.480469 C 27.359375 333.128906 27.5625 334.472656 27.96875 335.515625 C 28.300781 336.382812 28.796875 336.816406 29.460938 336.816406 C 29.78125 336.816406 30.109375 336.675781 30.449219 336.394531 C 30.789062 336.109375 31.046875 335.628906 31.21875 334.949219 C 31.492188 333.953125 31.628906 332.53125 31.628906 330.679688 C 31.628906 329.320312 31.484375 328.1875 31.195312 327.277344 C 30.996094 326.597656 30.71875 326.121094 30.371094 325.84375 C 30.140625 325.65625 29.851562 325.5625 29.507812 325.5625 C 29.117188 325.5625 28.761719 325.734375 28.445312 326.082031 C 28.023438 326.574219 27.738281 327.34375 27.585938 328.390625 C 27.433594 329.441406 27.359375 330.472656 27.359375 331.480469 Z M 36.25 335.449219 C 36.523438 335.449219 36.753906 335.546875 36.941406 335.742188 C 37.128906 335.9375 37.222656 336.164062 37.222656 336.425781 C 37.222656 336.699219 37.128906 336.929688 36.941406 337.117188 C 36.753906 337.308594 36.523438 337.398438 36.25 337.398438 C 35.972656 337.398438 35.742188 337.308594 35.554688 337.117188 C 35.367188 336.929688 35.273438 336.699219 35.273438 336.425781 C 35.273438 336.148438 35.367188 335.917969 35.554688 335.730469 C 35.742188 335.542969 35.972656 335.449219 36.25 335.449219 Z M 41.972656 331.15625 C 41.019531 330.375 40.402344 329.75 40.128906 329.28125 C 39.855469 328.8125 39.71875 328.324219 39.71875 327.816406 C 39.71875 327.039062 40.015625 326.367188 40.617188 325.8125 C 41.21875 325.257812 42.015625 324.976562 43.011719 324.976562 C 43.980469 324.976562 44.757812 325.238281 45.34375 325.757812 C 45.929688 326.277344 46.222656 326.871094 46.222656 327.535156 C 46.222656 327.984375 46.0625 328.4375 45.742188 328.902344 C 45.425781 329.363281 44.769531 329.914062 43.769531 330.550781 C 44.796875 331.34375 45.476562 331.972656 45.808594 332.433594 C 46.257812 333.027344 46.480469 333.65625 46.480469 334.320312 C 46.480469 335.160156 46.164062 335.878906 45.527344 336.480469 C 44.890625 337.078125 44.054688 337.378906 43.011719 337.378906 C 41.871094 337.378906 40.980469 337.023438 40.34375 336.316406 C 39.839844 335.738281 39.585938 335.109375 39.585938 334.429688 C 39.585938 333.910156 39.769531 333.390625 40.128906 332.871094 C 40.488281 332.347656 41.105469 331.777344 41.972656 331.15625 Z M 43.335938 330.203125 C 44.046875 329.566406 44.492188 329.066406 44.679688 328.695312 C 44.871094 328.328125 44.964844 327.910156 44.964844 327.449219 C 44.964844 326.84375 44.789062 326.363281 44.445312 326.007812 C 44.097656 325.652344 43.625 325.476562 43.035156 325.476562 C 42.425781 325.476562 41.933594 325.648438 41.558594 325.996094 C 41.183594 326.34375 40.996094 326.746094 40.996094 327.210938 C 40.996094 327.515625 41.074219 327.820312 41.234375 328.132812 C 41.394531 328.441406 41.617188 328.734375 41.90625 329.011719 Z M 42.382812 331.480469 C 41.890625 331.886719 41.53125 332.332031 41.300781 332.816406 C 41.070312 333.300781 40.953125 333.824219 40.953125 334.386719 C 40.953125 335.152344 41.160156 335.765625 41.570312 336.21875 C 41.984375 336.675781 42.507812 336.902344 43.144531 336.902344 C 43.777344 336.902344 44.289062 336.722656 44.671875 336.359375 C 45.054688 335.996094 45.246094 335.566406 45.246094 335.058594 C 45.246094 334.640625 45.128906 334.257812 44.898438 333.910156 C 44.492188 333.289062 43.65625 332.480469 42.382812 331.480469 "/>
<path style="fill:none;stroke-width:1.2;stroke-linecap:butt;stroke-linejoin:round;stroke:rgb(0%,0%,0%);stroke-opacity:1;stroke-miterlimit:10;" d="M 541.132812 2802.734375 L 485.625 2802.734375 " transform="matrix(0.1,0,0,-0.1,0,555)"/>
<path style=" stroke:none;fill-rule:nonzero;fill:rgb(0%,0%,0%);fill-opacity:1;" d="M 25.625 275.765625 C 25.625 274.40625 25.832031 273.230469 26.242188 272.242188 C 26.65625 271.253906 27.199219 270.519531 27.878906 270.042969 C 28.414062 269.664062 28.964844 269.476562 29.527344 269.476562 C 30.4375 269.476562 31.253906 269.941406 31.976562 270.863281 C 32.886719 272.023438 33.34375 273.589844 33.34375 275.570312 C 33.34375 276.957031 33.144531 278.136719 32.746094 279.105469 C 32.347656 280.070312 31.839844 280.777344 31.21875 281.21875 C 30.597656 281.65625 30.003906 281.878906 29.441406 281.878906 C 28.300781 281.878906 27.34375 281.207031 26.578125 279.863281 C 25.945312 278.722656 25.625 277.355469 25.625 275.765625 Z M 27.359375 275.980469 C 27.359375 277.628906 27.5625 278.972656 27.96875 280.015625 C 28.300781 280.882812 28.796875 281.316406 29.460938 281.316406 C 29.78125 281.316406 30.109375 281.175781 30.449219 280.894531 C 30.789062 280.609375 31.046875 280.128906 31.21875 279.449219 C 31.492188 278.453125 31.628906 277.03125 31.628906 275.179688 C 31.628906 273.820312 31.484375 272.6875 31.195312 271.777344 C 30.996094 271.097656 30.71875 270.621094 30.371094 270.34375 C 30.140625 270.15625 29.851562 270.0625 29.507812 270.0625 C 29.117188 270.0625 28.761719 270.234375 28.445312 270.582031 C 28.023438 271.074219 27.738281 271.84375 27.585938 272.890625 C 27.433594 273.941406 27.359375 274.972656 27.359375 275.980469 Z M 36.25 279.949219 C 36.523438 279.949219 36.753906 280.046875 36.941406 280.242188 C 37.128906 280.4375 37.222656 280.664062 37.222656 280.925781 C 37.222656 281.199219 37.128906 281.429688 36.941406 281.617188 C 36.753906 281.808594 36.523438 281.898438 36.25 281.898438 C 35.972656 281.898438 35.742188 281.808594 35.554688 281.617188 C 35.367188 281.429688 35.273438 281.199219 35.273438 280.925781 C 35.273438 280.648438 35.367188 280.417969 35.554688 280.230469 C 35.742188 280.042969 35.972656 279.949219 36.25 279.949219 Z M 39.457031 281.898438 L 39.457031 281.574219 C 40.222656 281.574219 40.933594 281.402344 41.59375 281.054688 C 42.25 280.707031 42.886719 280.105469 43.5 279.242188 C 44.113281 278.386719 44.535156 277.441406 44.769531 276.414062 C 43.84375 277.007812 43.011719 277.304688 42.277344 277.304688 C 41.4375 277.304688 40.71875 276.980469 40.117188 276.339844 C 39.519531 275.695312 39.21875 274.832031 39.21875 273.746094 C 39.21875 272.707031 39.515625 271.777344 40.105469 270.953125 C 40.832031 269.96875 41.777344 269.476562 42.949219 269.476562 C 43.929688 269.476562 44.769531 269.882812 45.460938 270.691406 C 46.316406 271.6875 46.742188 272.925781 46.742188 274.398438 C 46.742188 275.730469 46.414062 276.96875 45.765625 278.117188 C 45.113281 279.265625 44.210938 280.21875 43.054688 280.96875 C 42.101562 281.589844 41.070312 281.898438 39.957031 281.898438 Z M 44.921875 275.765625 C 45.023438 274.996094 45.070312 274.390625 45.070312 273.945312 C 45.070312 273.363281 44.972656 272.746094 44.78125 272.089844 C 44.585938 271.433594 44.308594 270.925781 43.957031 270.570312 C 43.601562 270.21875 43.199219 270.042969 42.753906 270.042969 C 42.230469 270.042969 41.773438 270.277344 41.375 270.746094 C 40.976562 271.214844 40.78125 271.914062 40.78125 272.839844 C 40.78125 274.082031 41.039062 275.050781 41.558594 275.742188 C 41.949219 276.25 42.417969 276.503906 42.96875 276.503906 C 43.242188 276.503906 43.566406 276.4375 43.933594 276.308594 C 44.300781 276.175781 44.632812 275.996094 44.921875 275.765625 "/>
<path style="fill:none;stroke-width:1.2;stroke-linecap:butt;stroke-linejoin:round;stroke:rgb(0%,0%,0%);stroke-opacity:1;stroke-miterlimit:10;" d="M 541.132812 3357.734375 L 485.625 3357.734375 " transform="matrix(0.1,0,0,-0.1,0,555)"/>
<path style=" stroke:none;fill-rule:nonzero;fill:rgb(0%,0%,0%);fill-opacity:1;" d="M 27.097656 215.386719 L 30.003906 213.976562 L 30.285156 213.976562 L 30.285156 224.058594 C 30.285156 224.722656 30.316406 225.140625 30.371094 225.304688 C 30.429688 225.472656 30.546875 225.597656 30.71875 225.683594 C 30.894531 225.769531 31.246094 225.824219 31.78125 225.835938 L 31.78125 226.160156 L 27.292969 226.160156 L 27.292969 225.835938 C 27.859375 225.824219 28.222656 225.769531 28.390625 225.683594 C 28.554688 225.597656 28.671875 225.480469 28.734375 225.339844 C 28.800781 225.195312 28.835938 224.765625 28.835938 224.058594 L 28.835938 217.621094 C 28.835938 216.738281 28.804688 216.175781 28.746094 215.929688 C 28.703125 215.742188 28.628906 215.605469 28.519531 215.519531 C 28.410156 215.429688 28.277344 215.386719 28.117188 215.386719 C 27.902344 215.386719 27.605469 215.480469 27.230469 215.667969 Z M 36.25 224.449219 C 36.523438 224.449219 36.753906 224.546875 36.941406 224.742188 C 37.128906 224.9375 37.222656 225.164062 37.222656 225.425781 C 37.222656 225.699219 37.128906 225.929688 36.941406 226.117188 C 36.753906 226.308594 36.523438 226.398438 36.25 226.398438 C 35.972656 226.398438 35.742188 226.308594 35.554688 226.117188 C 35.367188 225.929688 35.273438 225.699219 35.273438 225.425781 C 35.273438 225.148438 35.367188 224.917969 35.554688 224.730469 C 35.742188 224.542969 35.972656 224.449219 36.25 224.449219 Z M 39.152344 220.265625 C 39.152344 218.90625 39.359375 217.730469 39.773438 216.742188 C 40.183594 215.753906 40.730469 215.019531 41.40625 214.542969 C 41.941406 214.164062 42.492188 213.976562 43.054688 213.976562 C 43.964844 213.976562 44.78125 214.441406 45.503906 215.363281 C 46.414062 216.523438 46.871094 218.089844 46.871094 220.070312 C 46.871094 221.457031 46.671875 222.636719 46.277344 223.605469 C 45.878906 224.570312 45.367188 225.277344 44.746094 225.71875 C 44.125 226.15625 43.53125 226.378906 42.96875 226.378906 C 41.828125 226.378906 40.875 225.707031 40.105469 224.363281 C 39.472656 223.222656 39.152344 221.855469 39.152344 220.265625 Z M 40.886719 220.480469 C 40.886719 222.128906 41.089844 223.472656 41.496094 224.515625 C 41.828125 225.382812 42.324219 225.816406 42.992188 225.816406 C 43.308594 225.816406 43.636719 225.675781 43.976562 225.394531 C 44.316406 225.109375 44.574219 224.628906 44.746094 223.949219 C 45.023438 222.953125 45.160156 221.53125 45.160156 219.679688 C 45.160156 218.320312 45.015625 217.1875 44.726562 216.277344 C 44.523438 215.597656 44.246094 215.121094 43.902344 214.84375 C 43.667969 214.65625 43.382812 214.5625 43.035156 214.5625 C 42.644531 214.5625 42.289062 214.734375 41.972656 215.082031 C 41.550781 215.574219 41.265625 216.34375 41.117188 217.390625 C 40.964844 218.441406 40.886719 219.472656 40.886719 220.480469 "/>
<path style="fill:none;stroke-width:1.2;stroke-linecap:butt;stroke-linejoin:round;stroke:rgb(0%,0%,0%);stroke-opacity:1;stroke-miterlimit:10;" d="M 541.132812 3912.734375 L 485.625 3912.734375 " transform="matrix(0.1,0,0,-0.1,0,555)"/>
<path style=" stroke:none;fill-rule:nonzero;fill:rgb(0%,0%,0%);fill-opacity:1;" d="M 27.097656 159.886719 L 30.003906 158.476562 L 30.285156 158.476562 L 30.285156 168.558594 C 30.285156 169.222656 30.316406 169.640625 30.371094 169.804688 C 30.429688 169.972656 30.546875 170.097656 30.71875 170.183594 C 30.894531 170.269531 31.246094 170.324219 31.78125 170.335938 L 31.78125 170.660156 L 27.292969 170.660156 L 27.292969 170.335938 C 27.859375 170.324219 28.222656 170.269531 28.390625 170.183594 C 28.554688 170.097656 28.671875 169.980469 28.734375 169.839844 C 28.800781 169.695312 28.835938 169.265625 28.835938 168.558594 L 28.835938 162.121094 C 28.835938 161.238281 28.804688 160.675781 28.746094 160.429688 C 28.703125 160.242188 28.628906 160.105469 28.519531 160.019531 C 28.410156 159.929688 28.277344 159.886719 28.117188 159.886719 C 27.902344 159.886719 27.605469 159.980469 27.230469 160.167969 Z M 36.25 168.949219 C 36.523438 168.949219 36.753906 169.046875 36.941406 169.242188 C 37.128906 169.4375 37.222656 169.664062 37.222656 169.925781 C 37.222656 170.199219 37.128906 170.429688 36.941406 170.617188 C 36.753906 170.808594 36.523438 170.898438 36.25 170.898438 C 35.972656 170.898438 35.742188 170.808594 35.554688 170.617188 C 35.367188 170.429688 35.273438 170.199219 35.273438 169.925781 C 35.273438 169.648438 35.367188 169.417969 35.554688 169.230469 C 35.742188 169.042969 35.972656 168.949219 36.25 168.949219 Z M 40.628906 159.886719 L 43.53125 158.476562 L 43.816406 158.476562 L 43.816406 168.558594 C 43.816406 169.222656 43.84375 169.640625 43.902344 169.804688 C 43.960938 169.972656 44.074219 170.097656 44.246094 170.183594 C 44.421875 170.269531 44.777344 170.324219 45.308594 170.335938 L 45.308594 170.660156 L 40.824219 170.660156 L 40.824219 170.335938 C 41.386719 170.324219 41.75 170.269531 41.917969 170.183594 C 42.085938 170.097656 42.199219 169.980469 42.265625 169.839844 C 42.328125 169.695312 42.363281 169.265625 42.363281 168.558594 L 42.363281 162.121094 C 42.363281 161.238281 42.332031 160.675781 42.277344 160.429688 C 42.230469 160.242188 42.15625 160.105469 42.046875 160.019531 C 41.941406 159.929688 41.804688 159.886719 41.648438 159.886719 C 41.429688 159.886719 41.132812 159.980469 40.757812 160.167969 L 40.628906 159.886719 "/>
<path style="fill:none;stroke-width:1.2;stroke-linecap:butt;stroke-linejoin:round;stroke:rgb(0%,0%,0%);stroke-opacity:1;stroke-miterlimit:10;" d="M 541.132812 4467.734375 L 485.625 4467.734375 " transform="matrix(0.1,0,0,-0.1,0,555)"/>
<path style=" stroke:none;fill-rule:nonzero;fill:rgb(0%,0%,0%);fill-opacity:1;" d="M 27.097656 104.386719 L 30.003906 102.980469 L 30.285156 102.980469 L 30.285156 113.058594 C 30.285156 113.722656 30.316406 114.140625 30.371094 114.304688 C 30.429688 114.472656 30.546875 114.597656 30.71875 114.6875 C 30.894531 114.773438 31.246094 114.824219 31.78125 114.835938 L 31.78125 115.160156 L 27.292969 115.160156 L 27.292969 114.835938 C 27.859375 114.824219 28.222656 114.773438 28.390625 114.6875 C 28.554688 114.597656 28.671875 114.484375 28.734375 114.339844 C 28.800781 114.195312 28.835938 113.769531 28.835938 113.058594 L 28.835938 106.621094 C 28.835938 105.738281 28.804688 105.175781 28.746094 104.929688 C 28.703125 104.742188 28.628906 104.605469 28.519531 104.519531 C 28.410156 104.429688 28.277344 104.386719 28.117188 104.386719 C 27.902344 104.386719 27.605469 104.480469 27.230469 104.671875 Z M 36.25 113.449219 C 36.523438 113.449219 36.753906 113.546875 36.941406 113.742188 C 37.128906 113.9375 37.222656 114.164062 37.222656 114.425781 C 37.222656 114.699219 37.128906 114.929688 36.941406 115.117188 C 36.753906 115.308594 36.523438 115.402344 36.25 115.402344 C 35.972656 115.402344 35.742188 115.308594 35.554688 115.117188 C 35.367188 114.929688 35.273438 114.699219 35.273438 114.425781 C 35.273438 114.152344 35.367188 113.921875 35.554688 113.730469 C 35.742188 113.542969 35.972656 113.449219 36.25 113.449219 Z M 46.761719 112.863281 L 45.9375 115.160156 L 38.894531 115.160156 L 38.894531 114.835938 C 40.960938 112.945312 42.417969 111.398438 43.261719 110.199219 C 44.105469 108.996094 44.53125 107.90625 44.53125 106.925781 C 44.53125 106.15625 44.296875 105.53125 43.835938 105.050781 C 43.375 104.5625 42.816406 104.324219 42.167969 104.324219 C 41.589844 104.324219 41.066406 104.492188 40.59375 104.832031 C 40.125 105.171875 39.78125 105.675781 39.566406 106.339844 L 39.238281 106.339844 C 39.386719 105.253906 39.761719 104.425781 40.367188 103.847656 C 40.972656 103.269531 41.734375 102.980469 42.644531 102.980469 C 43.613281 102.980469 44.421875 103.289062 45.070312 103.910156 C 45.722656 104.53125 46.046875 105.261719 46.046875 106.101562 C 46.046875 106.707031 45.902344 107.3125 45.613281 107.921875 C 45.179688 108.875 44.480469 109.878906 43.511719 110.933594 C 42.050781 112.539062 41.132812 113.507812 40.757812 113.839844 L 43.878906 113.839844 C 44.515625 113.839844 44.960938 113.816406 45.214844 113.765625 C 45.464844 113.714844 45.699219 113.617188 45.90625 113.472656 C 46.117188 113.328125 46.292969 113.125 46.4375 112.863281 L 46.761719 112.863281 "/>
<path style="fill:none;stroke-width:1.2;stroke-linecap:butt;stroke-linejoin:round;stroke:rgb(0%,0%,0%);stroke-opacity:1;stroke-miterlimit:10;" d="M 541.132812 5022.695312 L 485.625 5022.695312 " transform="matrix(0.1,0,0,-0.1,0,555)"/>
<path style=" stroke:none;fill-rule:nonzero;fill:rgb(0%,0%,0%);fill-opacity:1;" d="M 27.097656 48.886719 L 30.003906 47.480469 L 30.285156 47.480469 L 30.285156 57.558594 C 30.285156 58.222656 30.316406 58.640625 30.371094 58.804688 C 30.429688 58.972656 30.546875 59.097656 30.71875 59.1875 C 30.894531 59.273438 31.246094 59.324219 31.78125 59.335938 L 31.78125 59.660156 L 27.292969 59.660156 L 27.292969 59.335938 C 27.859375 59.324219 28.222656 59.273438 28.390625 59.1875 C 28.554688 59.097656 28.671875 58.984375 28.734375 58.839844 C 28.800781 58.695312 28.835938 58.269531 28.835938 57.558594 L 28.835938 51.121094 C 28.835938 50.238281 28.804688 49.675781 28.746094 49.429688 C 28.703125 49.242188 28.628906 49.105469 28.519531 49.019531 C 28.410156 48.929688 28.277344 48.886719 28.117188 48.886719 C 27.902344 48.886719 27.605469 48.980469 27.230469 49.171875 Z M 36.25 57.949219 C 36.523438 57.949219 36.753906 58.046875 36.941406 58.242188 C 37.128906 58.4375 37.222656 58.664062 37.222656 58.925781 C 37.222656 59.199219 37.128906 59.429688 36.941406 59.617188 C 36.753906 59.808594 36.523438 59.902344 36.25 59.902344 C 35.972656 59.902344 35.742188 59.808594 35.554688 59.617188 C 35.367188 59.429688 35.273438 59.199219 35.273438 58.925781 C 35.273438 58.652344 35.367188 58.421875 35.554688 58.230469 C 35.742188 58.042969 35.972656 57.949219 36.25 57.949219 Z M 39.414062 49.992188 C 39.761719 49.183594 40.195312 48.5625 40.714844 48.128906 C 41.234375 47.695312 41.878906 47.480469 42.644531 47.480469 C 43.613281 47.480469 44.347656 47.789062 44.855469 48.410156 C 45.246094 48.871094 45.441406 49.363281 45.441406 49.886719 C 45.441406 50.765625 44.890625 51.671875 43.792969 52.59375 C 44.53125 52.882812 45.085938 53.296875 45.460938 53.828125 C 45.839844 54.363281 46.027344 54.992188 46.027344 55.71875 C 46.027344 56.742188 45.695312 57.632812 45.027344 58.382812 C 44.175781 59.378906 42.941406 59.878906 41.320312 59.878906 C 40.511719 59.878906 39.964844 59.777344 39.671875 59.574219 C 39.386719 59.371094 39.238281 59.15625 39.238281 58.925781 C 39.238281 58.753906 39.308594 58.605469 39.445312 58.480469 C 39.582031 58.359375 39.746094 58.296875 39.933594 58.296875 C 40.078125 58.296875 40.230469 58.316406 40.390625 58.363281 C 40.488281 58.390625 40.71875 58.496094 41.074219 58.675781 C 41.425781 58.855469 41.667969 58.96875 41.796875 59.011719 C 42.015625 59.070312 42.246094 59.097656 42.492188 59.097656 C 43.085938 59.097656 43.605469 58.867188 44.054688 58.40625 C 44.5 57.941406 44.726562 57.394531 44.726562 56.757812 C 44.726562 56.296875 44.625 55.847656 44.421875 55.414062 C 44.261719 55.082031 44.089844 54.828125 43.902344 54.652344 C 43.65625 54.421875 43.3125 54.214844 42.871094 54.027344 C 42.429688 53.839844 41.980469 53.742188 41.515625 53.742188 L 41.234375 53.742188 L 41.234375 53.460938 C 41.699219 53.402344 42.164062 53.238281 42.632812 52.964844 C 43.101562 52.6875 43.441406 52.359375 43.652344 51.976562 C 43.859375 51.59375 43.964844 51.164062 43.964844 50.6875 C 43.964844 50.09375 43.777344 49.609375 43.402344 49.234375 C 43.027344 48.859375 42.558594 48.671875 41.992188 48.671875 C 41.082031 48.671875 40.324219 49.15625 39.71875 50.121094 L 39.414062 49.992188 "/>
<path style="fill:none;stroke-width:1.2;stroke-linecap:butt;stroke-linejoin:round;stroke:rgb(0%,0%,0%);stroke-opacity:1;stroke-miterlimit:10;" d="M 541.132812 860.234375 L 513.359375 860.234375 " transform="matrix(0.1,0,0,-0.1,0,555)"/>
<path style="fill:none;stroke-width:1.2;stroke-linecap:butt;stroke-linejoin:round;stroke:rgb(0%,0%,0%);stroke-opacity:1;stroke-miterlimit:10;" d="M 541.132812 1415.234375 L 513.359375 1415.234375 " transform="matrix(0.1,0,0,-0.1,0,555)"/>
<path style="fill:none;stroke-width:1.2;stroke-linecap:butt;stroke-linejoin:round;stroke:rgb(0%,0%,0%);stroke-opacity:1;stroke-miterlimit:10;" d="M 541.132812 1970.234375 L 513.359375 1970.234375 " transform="matrix(0.1,0,0,-0.1,0,555)"/>
<path style="fill:none;stroke-width:1.2;stroke-linecap:butt;stroke-linejoin:round;stroke:rgb(0%,0%,0%);stroke-opacity:1;stroke-miterlimit:10;" d="M 541.132812 2525.234375 L 513.359375 2525.234375 " transform="matrix(0.1,0,0,-0.1,0,555)"/>
<path style="fill:none;stroke-width:1.2;stroke-linecap:butt;stroke-linejoin:round;stroke:rgb(0%,0%,0%);stroke-opacity:1;stroke-miterlimit:10;" d="M 541.132812 3080.234375 L 513.359375 3080.234375 " transform="matrix(0.1,0,0,-0.1,0,555)"/>
<path style="fill:none;stroke-width:1.2;stroke-linecap:butt;stroke-linejoin:round;stroke:rgb(0%,0%,0%);stroke-opacity:1;stroke-miterlimit:10;" d="M 541.132812 3635.234375 L 513.359375 3635.234375 " transform="matrix(0.1,0,0,-0.1,0,555)"/>
<path style="fill:none;stroke-width:1.2;stroke-linecap:butt;stroke-linejoin:round;stroke:rgb(0%,0%,0%);stroke-opacity:1;stroke-miterlimit:10;" d="M 541.132812 4190.234375 L 513.359375 4190.234375 " transform="matrix(0.1,0,0,-0.1,0,555)"/>
<path style="fill:none;stroke-width:1.2;stroke-linecap:butt;stroke-linejoin:round;stroke:rgb(0%,0%,0%);stroke-opacity:1;stroke-miterlimit:10;" d="M 541.132812 4745.234375 L 513.359375 4745.234375 " transform="matrix(0.1,0,0,-0.1,0,555)"/>
<path style="fill:none;stroke-width:1.2;stroke-linecap:butt;stroke-linejoin:round;stroke:rgb(0%,0%,0%);stroke-opacity:1;stroke-miterlimit:10;" d="M 541.132812 5300.195312 L 513.359375 5300.195312 " transform="matrix(0.1,0,0,-0.1,0,555)"/>
</g>
</svg>
