<?xml version="1.0" encoding="UTF-8"?>
<svg xmlns="http://www.w3.org/2000/svg" xmlns:xlink="http://www.w3.org/1999/xlink" width="206pt" height="261pt" viewBox="0 0 206 261" version="1.1">
<g id="surface1">
<rect x="0" y="0" width="206" height="261" style="fill:rgb(100%,100%,100%);fill-opacity:1;stroke:none;"/>
<path style="fill:none;stroke-width:10;stroke-linecap:butt;stroke-linejoin:miter;stroke:rgb(0%,0%,0%);stroke-opacity:1;stroke-miterlimit:10;" d="M 890.078125 2842.421875 L 890.078125 -145.273438 " transform="matrix(0.1,0,0,-0.1,0,261)"/>
<path style="fill:none;stroke-width:10;stroke-linecap:butt;stroke-linejoin:miter;stroke:rgb(0%,0%,0%);stroke-opacity:1;stroke-miterlimit:10;" d="M -997.8125 869.53125 L 2817.65625 869.53125 " transform="matrix(0.1,0,0,-0.1,0,261)"/>
<path style=" stroke:none;fill-rule:nonzero;fill:rgb(0%,0%,0%);fill-opacity:1;" d="M 1.425781 179.914062 L 1.425781 179.539062 L 3.675781 179.539062 L 3.675781 179.914062 Z M 4.542969 181.386719 L 4.542969 180.878906 C 4.9375 181.03125 5.242188 181.109375 5.46875 181.109375 C 5.730469 181.109375 5.941406 181.035156 6.105469 180.882812 C 6.269531 180.730469 6.347656 180.53125 6.347656 180.289062 C 6.347656 179.714844 5.945312 179.425781 5.140625 179.425781 L 4.921875 179.425781 L 4.921875 179.058594 L 5.113281 179.054688 C 5.871094 179.054688 6.25 178.789062 6.25 178.257812 C 6.25 177.835938 6 177.628906 5.5 177.628906 C 5.230469 177.628906 4.929688 177.703125 4.601562 177.855469 L 4.601562 177.382812 C 4.921875 177.273438 5.238281 177.21875 5.542969 177.21875 C 6.378906 177.21875 6.796875 177.535156 6.796875 178.167969 C 6.796875 178.648438 6.511719 178.992188 5.941406 179.199219 C 6.601562 179.351562 6.933594 179.710938 6.933594 180.28125 C 6.933594 180.667969 6.804688 180.96875 6.550781 181.191406 C 6.296875 181.410156 5.945312 181.519531 5.5 181.519531 C 5.25 181.519531 4.929688 181.476562 4.542969 181.386719 "/>
<path style="fill:none;stroke-width:10;stroke-linecap:butt;stroke-linejoin:miter;stroke:rgb(0%,0%,0%);stroke-opacity:1;stroke-miterlimit:10;" d="M 39.6875 869.53125 L 39.6875 846.835938 " transform="matrix(0.1,0,0,-0.1,0,261)"/>
<path style=" stroke:none;fill-rule:nonzero;fill:rgb(0%,0%,0%);fill-opacity:1;" d="M 29.769531 179.914062 L 29.769531 179.539062 L 32.023438 179.539062 L 32.023438 179.914062 Z M 32.785156 181.417969 L 32.785156 180.9375 C 32.945312 180.566406 33.265625 180.164062 33.75 179.726562 L 34.0625 179.445312 C 34.464844 179.082031 34.664062 178.722656 34.664062 178.363281 C 34.664062 178.136719 34.597656 177.957031 34.460938 177.824219 C 34.320312 177.691406 34.132812 177.628906 33.894531 177.628906 C 33.609375 177.628906 33.273438 177.738281 32.886719 177.957031 L 32.886719 177.476562 C 33.25 177.304688 33.613281 177.21875 33.96875 177.21875 C 34.355469 177.21875 34.664062 177.320312 34.894531 177.527344 C 35.128906 177.734375 35.242188 178.007812 35.242188 178.351562 C 35.242188 178.59375 35.183594 178.8125 35.066406 179.003906 C 34.949219 179.195312 34.730469 179.425781 34.414062 179.695312 L 34.203125 179.875 C 33.765625 180.246094 33.511719 180.601562 33.445312 180.9375 L 35.222656 180.9375 L 35.222656 181.417969 "/>
<path style="fill:none;stroke-width:10;stroke-linecap:butt;stroke-linejoin:miter;stroke:rgb(0%,0%,0%);stroke-opacity:1;stroke-miterlimit:10;" d="M 323.164062 869.53125 L 323.164062 846.835938 " transform="matrix(0.1,0,0,-0.1,0,261)"/>
<path style=" stroke:none;fill-rule:nonzero;fill:rgb(0%,0%,0%);fill-opacity:1;" d="M 58.117188 179.914062 L 58.117188 179.539062 L 60.371094 179.539062 L 60.371094 179.914062 Z M 61.515625 181.417969 L 61.515625 181.007812 L 62.332031 181.007812 L 62.332031 177.773438 L 61.515625 177.980469 L 61.515625 177.558594 L 62.882812 177.21875 L 62.882812 181.007812 L 63.699219 181.007812 L 63.699219 181.417969 "/>
<path style="fill:none;stroke-width:10;stroke-linecap:butt;stroke-linejoin:miter;stroke:rgb(0%,0%,0%);stroke-opacity:1;stroke-miterlimit:10;" d="M 606.601562 869.53125 L 606.601562 846.835938 " transform="matrix(0.1,0,0,-0.1,0,261)"/>
<path style=" stroke:none;fill-rule:nonzero;fill:rgb(0%,0%,0%);fill-opacity:1;" d="M 93.621094 181.519531 C 93.199219 181.519531 92.855469 181.320312 92.59375 180.921875 C 92.332031 180.527344 92.203125 180.007812 92.203125 179.367188 C 92.203125 178.71875 92.335938 178.199219 92.597656 177.808594 C 92.859375 177.414062 93.207031 177.21875 93.636719 177.21875 C 94.066406 177.21875 94.414062 177.414062 94.675781 177.808594 C 94.9375 178.199219 95.070312 178.71875 95.070312 179.359375 C 95.070312 180.015625 94.9375 180.539062 94.675781 180.929688 C 94.414062 181.324219 94.0625 181.519531 93.621094 181.519531 Z M 93.625 181.109375 C 94.203125 181.109375 94.492188 180.523438 94.492188 179.347656 C 94.492188 178.203125 94.207031 177.628906 93.636719 177.628906 C 93.066406 177.628906 92.785156 178.207031 92.785156 179.367188 C 92.785156 180.527344 93.0625 181.109375 93.625 181.109375 "/>
<path style="fill:none;stroke-width:10;stroke-linecap:butt;stroke-linejoin:miter;stroke:rgb(0%,0%,0%);stroke-opacity:1;stroke-miterlimit:10;" d="M 890.078125 869.53125 L 890.078125 846.835938 " transform="matrix(0.1,0,0,-0.1,0,261)"/>
<path style=" stroke:none;fill-rule:nonzero;fill:rgb(0%,0%,0%);fill-opacity:1;" d="M 117.074219 181.417969 L 117.074219 181.007812 L 117.894531 181.007812 L 117.894531 177.773438 L 117.074219 177.980469 L 117.074219 177.558594 L 118.441406 177.21875 L 118.441406 181.007812 L 119.261719 181.007812 L 119.261719 181.417969 "/>
<path style="fill:none;stroke-width:10;stroke-linecap:butt;stroke-linejoin:miter;stroke:rgb(0%,0%,0%);stroke-opacity:1;stroke-miterlimit:10;" d="M 1173.554688 869.53125 L 1173.554688 846.835938 " transform="matrix(0.1,0,0,-0.1,0,261)"/>
<path style=" stroke:none;fill-rule:nonzero;fill:rgb(0%,0%,0%);fill-opacity:1;" d="M 145.039062 181.417969 L 145.039062 180.9375 C 145.195312 180.566406 145.515625 180.164062 146 179.726562 L 146.3125 179.445312 C 146.714844 179.082031 146.917969 178.722656 146.917969 178.363281 C 146.917969 178.136719 146.847656 177.957031 146.710938 177.824219 C 146.574219 177.691406 146.386719 177.628906 146.144531 177.628906 C 145.859375 177.628906 145.527344 177.738281 145.140625 177.957031 L 145.140625 177.476562 C 145.503906 177.304688 145.863281 177.21875 146.222656 177.21875 C 146.605469 177.21875 146.914062 177.320312 147.148438 177.527344 C 147.378906 177.734375 147.496094 178.007812 147.496094 178.351562 C 147.496094 178.59375 147.4375 178.8125 147.320312 179.003906 C 147.203125 179.195312 146.984375 179.425781 146.664062 179.695312 L 146.453125 179.875 C 146.019531 180.246094 145.765625 180.601562 145.695312 180.9375 L 147.476562 180.9375 L 147.476562 181.417969 "/>
<path style="fill:none;stroke-width:10;stroke-linecap:butt;stroke-linejoin:miter;stroke:rgb(0%,0%,0%);stroke-opacity:1;stroke-miterlimit:10;" d="M 1456.992188 869.53125 L 1456.992188 846.835938 " transform="matrix(0.1,0,0,-0.1,0,261)"/>
<path style=" stroke:none;fill-rule:nonzero;fill:rgb(0%,0%,0%);fill-opacity:1;" d="M 173.488281 181.386719 L 173.488281 180.878906 C 173.878906 181.03125 174.1875 181.109375 174.414062 181.109375 C 174.675781 181.109375 174.886719 181.035156 175.050781 180.882812 C 175.214844 180.730469 175.292969 180.53125 175.292969 180.289062 C 175.292969 179.714844 174.890625 179.425781 174.085938 179.425781 L 173.867188 179.425781 L 173.867188 179.058594 L 174.058594 179.054688 C 174.816406 179.054688 175.195312 178.789062 175.195312 178.257812 C 175.195312 177.835938 174.945312 177.628906 174.445312 177.628906 C 174.175781 177.628906 173.871094 177.703125 173.546875 177.855469 L 173.546875 177.382812 C 173.867188 177.273438 174.179688 177.21875 174.484375 177.21875 C 175.324219 177.21875 175.742188 177.535156 175.742188 178.167969 C 175.742188 178.648438 175.457031 178.992188 174.886719 179.199219 C 175.546875 179.351562 175.878906 179.710938 175.878906 180.28125 C 175.878906 180.667969 175.75 180.96875 175.496094 181.191406 C 175.242188 181.410156 174.890625 181.519531 174.445312 181.519531 C 174.195312 181.519531 173.875 181.476562 173.488281 181.386719 "/>
<path style="fill:none;stroke-width:10;stroke-linecap:butt;stroke-linejoin:miter;stroke:rgb(0%,0%,0%);stroke-opacity:1;stroke-miterlimit:10;" d="M 1740.46875 869.53125 L 1740.46875 846.835938 " transform="matrix(0.1,0,0,-0.1,0,261)"/>
<path style=" stroke:none;fill-rule:nonzero;fill:rgb(0%,0%,0%);fill-opacity:1;" d="M 203.394531 181.417969 L 203.394531 180.257812 L 201.550781 180.257812 L 201.550781 179.84375 L 203.394531 177.320312 L 203.90625 177.320312 L 203.90625 179.8125 L 204.453125 179.8125 L 204.453125 180.257812 L 203.90625 180.257812 L 203.90625 181.417969 Z M 202.085938 179.8125 L 203.429688 179.8125 L 203.429688 177.988281 "/>
<path style="fill:none;stroke-width:10;stroke-linecap:butt;stroke-linejoin:miter;stroke:rgb(0%,0%,0%);stroke-opacity:1;stroke-miterlimit:10;" d="M 2023.945312 869.53125 L 2023.945312 846.835938 " transform="matrix(0.1,0,0,-0.1,0,261)"/>
<path style=" stroke:none;fill-rule:nonzero;fill:rgb(0%,0%,0%);fill-opacity:1;" d="M 79.660156 259.285156 L 79.660156 258.90625 L 81.914062 258.90625 L 81.914062 259.285156 Z M 83.179688 258.664062 C 83.441406 258.328125 83.765625 258.15625 84.160156 258.15625 C 84.519531 258.15625 84.8125 258.277344 85.039062 258.511719 C 85.269531 258.75 85.382812 259.054688 85.382812 259.425781 C 85.382812 259.851562 85.253906 260.203125 85 260.476562 C 84.742188 260.753906 84.417969 260.890625 84.027344 260.890625 C 83.574219 260.890625 83.21875 260.707031 82.964844 260.34375 C 82.710938 259.980469 82.585938 259.476562 82.585938 258.832031 C 82.585938 258.121094 82.730469 257.566406 83.023438 257.175781 C 83.316406 256.78125 83.726562 256.585938 84.257812 256.585938 C 84.503906 256.585938 84.808594 256.636719 85.171875 256.738281 L 85.171875 257.214844 C 84.785156 257.070312 84.472656 256.996094 84.226562 256.996094 C 83.527344 256.996094 83.179688 257.550781 83.179688 258.664062 Z M 84.835938 259.546875 C 84.835938 259.238281 84.765625 258.992188 84.625 258.816406 C 84.484375 258.640625 84.292969 258.550781 84.046875 258.550781 C 83.816406 258.550781 83.617188 258.628906 83.449219 258.78125 C 83.285156 258.9375 83.203125 259.125 83.203125 259.34375 C 83.203125 259.6875 83.28125 259.960938 83.4375 260.167969 C 83.59375 260.375 83.804688 260.480469 84.066406 260.480469 C 84.300781 260.480469 84.484375 260.394531 84.625 260.226562 C 84.765625 260.058594 84.835938 259.832031 84.835938 259.546875 "/>
<path style="fill:none;stroke-width:10;stroke-linecap:butt;stroke-linejoin:miter;stroke:rgb(0%,0%,0%);stroke-opacity:1;stroke-miterlimit:10;" d="M 867.382812 19.140625 L 890.078125 19.140625 " transform="matrix(0.1,0,0,-0.1,0,261)"/>
<path style=" stroke:none;fill-rule:nonzero;fill:rgb(0%,0%,0%);fill-opacity:1;" d="M 79.660156 230.9375 L 79.660156 230.5625 L 81.914062 230.5625 L 81.914062 230.9375 Z M 84.339844 232.441406 L 84.339844 231.28125 L 82.496094 231.28125 L 82.496094 230.867188 L 84.339844 228.34375 L 84.851562 228.34375 L 84.851562 230.835938 L 85.398438 230.835938 L 85.398438 231.28125 L 84.851562 231.28125 L 84.851562 232.441406 Z M 83.03125 230.835938 L 84.375 230.835938 L 84.375 229.015625 "/>
<path style="fill:none;stroke-width:10;stroke-linecap:butt;stroke-linejoin:miter;stroke:rgb(0%,0%,0%);stroke-opacity:1;stroke-miterlimit:10;" d="M 867.382812 302.617188 L 890.078125 302.617188 " transform="matrix(0.1,0,0,-0.1,0,261)"/>
<path style=" stroke:none;fill-rule:nonzero;fill:rgb(0%,0%,0%);fill-opacity:1;" d="M 79.660156 202.589844 L 79.660156 202.214844 L 81.914062 202.214844 L 81.914062 202.589844 Z M 82.675781 204.09375 L 82.675781 203.617188 C 82.835938 203.246094 83.15625 202.839844 83.640625 202.402344 L 83.953125 202.125 C 84.355469 201.761719 84.554688 201.398438 84.554688 201.039062 C 84.554688 200.8125 84.484375 200.632812 84.347656 200.5 C 84.210938 200.371094 84.023438 200.304688 83.78125 200.304688 C 83.5 200.304688 83.164062 200.414062 82.777344 200.632812 L 82.777344 200.152344 C 83.140625 199.980469 83.503906 199.894531 83.859375 199.894531 C 84.242188 199.894531 84.550781 200 84.785156 200.207031 C 85.015625 200.410156 85.132812 200.6875 85.132812 201.027344 C 85.132812 201.273438 85.074219 201.492188 84.957031 201.679688 C 84.839844 201.871094 84.621094 202.101562 84.304688 202.371094 L 84.09375 202.550781 C 83.65625 202.921875 83.402344 203.277344 83.335938 203.617188 L 85.113281 203.617188 L 85.113281 204.09375 "/>
<path style="fill:none;stroke-width:10;stroke-linecap:butt;stroke-linejoin:miter;stroke:rgb(0%,0%,0%);stroke-opacity:1;stroke-miterlimit:10;" d="M 867.382812 586.054688 L 890.078125 586.054688 " transform="matrix(0.1,0,0,-0.1,0,261)"/>
<path style=" stroke:none;fill-rule:nonzero;fill:rgb(0%,0%,0%);fill-opacity:1;" d="M 83.980469 172.449219 C 83.558594 172.449219 83.21875 172.25 82.957031 171.851562 C 82.695312 171.453125 82.566406 170.933594 82.566406 170.296875 C 82.566406 169.648438 82.695312 169.128906 82.960938 168.738281 C 83.222656 168.34375 83.570312 168.148438 84 168.148438 C 84.429688 168.148438 84.773438 168.34375 85.039062 168.738281 C 85.300781 169.128906 85.433594 169.648438 85.433594 170.285156 C 85.433594 170.945312 85.300781 171.46875 85.039062 171.859375 C 84.773438 172.253906 84.421875 172.449219 83.980469 172.449219 Z M 83.988281 172.039062 C 84.566406 172.039062 84.855469 171.453125 84.855469 170.277344 C 84.855469 169.132812 84.570312 168.554688 84 168.554688 C 83.429688 168.554688 83.144531 169.136719 83.144531 170.296875 C 83.144531 171.457031 83.425781 172.039062 83.988281 172.039062 "/>
<path style="fill:none;stroke-width:10;stroke-linecap:butt;stroke-linejoin:miter;stroke:rgb(0%,0%,0%);stroke-opacity:1;stroke-miterlimit:10;" d="M 867.382812 869.53125 L 890.078125 869.53125 " transform="matrix(0.1,0,0,-0.1,0,261)"/>
<path style=" stroke:none;fill-rule:nonzero;fill:rgb(0%,0%,0%);fill-opacity:1;" d="M 82.675781 147.402344 L 82.675781 146.921875 C 82.835938 146.550781 83.15625 146.148438 83.640625 145.710938 L 83.953125 145.429688 C 84.355469 145.066406 84.554688 144.707031 84.554688 144.347656 C 84.554688 144.121094 84.484375 143.9375 84.347656 143.808594 C 84.210938 143.675781 84.023438 143.613281 83.78125 143.613281 C 83.5 143.613281 83.164062 143.722656 82.777344 143.941406 L 82.777344 143.460938 C 83.140625 143.289062 83.503906 143.203125 83.859375 143.203125 C 84.242188 143.203125 84.550781 143.304688 84.785156 143.511719 C 85.015625 143.71875 85.132812 143.992188 85.132812 144.335938 C 85.132812 144.578125 85.074219 144.796875 84.957031 144.988281 C 84.839844 145.179688 84.621094 145.410156 84.304688 145.679688 L 84.09375 145.859375 C 83.65625 146.230469 83.402344 146.585938 83.335938 146.921875 L 85.113281 146.921875 L 85.113281 147.402344 "/>
<path style="fill:none;stroke-width:10;stroke-linecap:butt;stroke-linejoin:miter;stroke:rgb(0%,0%,0%);stroke-opacity:1;stroke-miterlimit:10;" d="M 867.382812 1153.007812 L 890.078125 1153.007812 " transform="matrix(0.1,0,0,-0.1,0,261)"/>
<path style=" stroke:none;fill-rule:nonzero;fill:rgb(0%,0%,0%);fill-opacity:1;" d="M 84.339844 119.054688 L 84.339844 117.894531 L 82.496094 117.894531 L 82.496094 117.484375 L 84.339844 114.957031 L 84.851562 114.957031 L 84.851562 117.449219 L 85.398438 117.449219 L 85.398438 117.894531 L 84.851562 117.894531 L 84.851562 119.054688 Z M 83.03125 117.449219 L 84.375 117.449219 L 84.375 115.628906 "/>
<path style="fill:none;stroke-width:10;stroke-linecap:butt;stroke-linejoin:miter;stroke:rgb(0%,0%,0%);stroke-opacity:1;stroke-miterlimit:10;" d="M 867.382812 1436.445312 L 890.078125 1436.445312 " transform="matrix(0.1,0,0,-0.1,0,261)"/>
<path style=" stroke:none;fill-rule:nonzero;fill:rgb(0%,0%,0%);fill-opacity:1;" d="M 83.179688 88.585938 C 83.441406 88.246094 83.765625 88.078125 84.160156 88.078125 C 84.519531 88.078125 84.8125 88.195312 85.039062 88.433594 C 85.269531 88.671875 85.382812 88.976562 85.382812 89.347656 C 85.382812 89.773438 85.253906 90.125 85 90.398438 C 84.742188 90.671875 84.417969 90.8125 84.027344 90.8125 C 83.574219 90.8125 83.21875 90.628906 82.964844 90.265625 C 82.710938 89.902344 82.585938 89.398438 82.585938 88.753906 C 82.585938 88.039062 82.730469 87.488281 83.023438 87.097656 C 83.316406 86.703125 83.726562 86.507812 84.257812 86.507812 C 84.503906 86.507812 84.808594 86.558594 85.171875 86.660156 L 85.171875 87.136719 C 84.785156 86.988281 84.472656 86.914062 84.226562 86.914062 C 83.527344 86.914062 83.179688 87.472656 83.179688 88.585938 Z M 84.835938 89.46875 C 84.835938 89.160156 84.765625 88.914062 84.625 88.738281 C 84.484375 88.5625 84.292969 88.472656 84.046875 88.472656 C 83.816406 88.472656 83.617188 88.550781 83.449219 88.703125 C 83.285156 88.859375 83.203125 89.046875 83.203125 89.265625 C 83.203125 89.605469 83.28125 89.882812 83.4375 90.089844 C 83.59375 90.296875 83.804688 90.402344 84.066406 90.402344 C 84.300781 90.402344 84.484375 90.316406 84.625 90.148438 C 84.765625 89.980469 84.835938 89.753906 84.835938 89.46875 "/>
<path style="fill:none;stroke-width:10;stroke-linecap:butt;stroke-linejoin:miter;stroke:rgb(0%,0%,0%);stroke-opacity:1;stroke-miterlimit:10;" d="M 867.382812 1719.921875 L 890.078125 1719.921875 " transform="matrix(0.1,0,0,-0.1,0,261)"/>
<path style=" stroke:none;fill-rule:nonzero;fill:rgb(0%,0%,0%);fill-opacity:1;" d="M 83.507812 60.132812 C 83.109375 59.851562 82.90625 59.542969 82.90625 59.207031 C 82.90625 58.894531 83.023438 58.644531 83.25 58.449219 C 83.476562 58.257812 83.773438 58.160156 84.136719 58.160156 C 84.472656 58.160156 84.75 58.242188 84.957031 58.40625 C 85.167969 58.570312 85.273438 58.785156 85.273438 59.046875 C 85.273438 59.441406 85.015625 59.804688 84.507812 60.132812 C 85.125 60.433594 85.433594 60.824219 85.433594 61.300781 C 85.433594 61.644531 85.304688 61.925781 85.046875 62.140625 C 84.785156 62.355469 84.453125 62.464844 84.042969 62.464844 C 83.640625 62.464844 83.316406 62.363281 83.066406 62.160156 C 82.820312 61.953125 82.695312 61.6875 82.695312 61.355469 C 82.695312 60.863281 82.964844 60.457031 83.507812 60.132812 Z M 84.203125 59.960938 C 84.585938 59.710938 84.777344 59.429688 84.777344 59.121094 C 84.777344 58.957031 84.714844 58.824219 84.585938 58.722656 C 84.457031 58.621094 84.289062 58.574219 84.082031 58.574219 C 83.878906 58.574219 83.71875 58.621094 83.59375 58.722656 C 83.464844 58.820312 83.402344 58.945312 83.402344 59.105469 C 83.402344 59.257812 83.460938 59.394531 83.574219 59.515625 C 83.6875 59.636719 83.898438 59.785156 84.203125 59.960938 Z M 83.804688 60.351562 C 83.585938 60.523438 83.4375 60.671875 83.359375 60.796875 C 83.28125 60.921875 83.238281 61.078125 83.238281 61.269531 C 83.238281 61.503906 83.316406 61.691406 83.46875 61.835938 C 83.617188 61.980469 83.816406 62.054688 84.066406 62.054688 C 84.304688 62.054688 84.496094 61.992188 84.648438 61.871094 C 84.796875 61.746094 84.875 61.585938 84.875 61.386719 C 84.875 61.230469 84.828125 61.09375 84.734375 60.984375 C 84.640625 60.875 84.460938 60.742188 84.191406 60.582031 "/>
<path style="fill:none;stroke-width:10;stroke-linecap:butt;stroke-linejoin:miter;stroke:rgb(0%,0%,0%);stroke-opacity:1;stroke-miterlimit:10;" d="M 867.382812 2003.398438 L 890.078125 2003.398438 " transform="matrix(0.1,0,0,-0.1,0,261)"/>
<path style=" stroke:none;fill-rule:nonzero;fill:rgb(0%,0%,0%);fill-opacity:1;" d="M 80.222656 34.015625 L 80.222656 33.605469 L 81.042969 33.605469 L 81.042969 30.371094 L 80.222656 30.578125 L 80.222656 30.15625 L 81.589844 29.816406 L 81.589844 33.605469 L 82.410156 33.605469 L 82.410156 34.015625 Z M 84.730469 34.117188 C 84.308594 34.117188 83.96875 33.917969 83.707031 33.519531 C 83.445312 33.125 83.316406 32.605469 83.316406 31.964844 C 83.316406 31.320312 83.445312 30.800781 83.710938 30.40625 C 83.972656 30.011719 84.320312 29.816406 84.75 29.816406 C 85.179688 29.816406 85.527344 30.011719 85.789062 30.40625 C 86.050781 30.800781 86.183594 31.316406 86.183594 31.957031 C 86.183594 32.613281 86.050781 33.136719 85.789062 33.53125 C 85.527344 33.921875 85.171875 34.117188 84.730469 34.117188 Z M 84.738281 33.710938 C 85.316406 33.710938 85.605469 33.121094 85.605469 31.949219 C 85.605469 30.800781 85.320312 30.226562 84.75 30.226562 C 84.179688 30.226562 83.894531 30.804688 83.894531 31.964844 C 83.894531 33.128906 84.175781 33.710938 84.738281 33.710938 "/>
<path style="fill:none;stroke-width:10;stroke-linecap:butt;stroke-linejoin:miter;stroke:rgb(0%,0%,0%);stroke-opacity:1;stroke-miterlimit:10;" d="M 867.382812 2286.835938 L 890.078125 2286.835938 " transform="matrix(0.1,0,0,-0.1,0,261)"/>
<path style=" stroke:none;fill-rule:nonzero;fill:rgb(0%,0%,0%);fill-opacity:1;" d="M 80.222656 5.667969 L 80.222656 5.261719 L 81.042969 5.261719 L 81.042969 2.027344 L 80.222656 2.230469 L 80.222656 1.8125 L 81.589844 1.46875 L 81.589844 5.261719 L 82.410156 5.261719 L 82.410156 5.667969 Z M 83.425781 5.667969 L 83.425781 5.191406 C 83.585938 4.820312 83.90625 4.414062 84.390625 3.976562 L 84.703125 3.699219 C 85.105469 3.335938 85.304688 2.972656 85.304688 2.617188 C 85.304688 2.386719 85.234375 2.207031 85.097656 2.074219 C 84.960938 1.945312 84.773438 1.878906 84.53125 1.878906 C 84.25 1.878906 83.914062 1.988281 83.527344 2.210938 L 83.527344 1.726562 C 83.890625 1.554688 84.253906 1.46875 84.609375 1.46875 C 84.992188 1.46875 85.300781 1.574219 85.535156 1.78125 C 85.769531 1.988281 85.882812 2.261719 85.882812 2.601562 C 85.882812 2.847656 85.824219 3.066406 85.707031 3.253906 C 85.589844 3.445312 85.371094 3.675781 85.054688 3.945312 L 84.84375 4.128906 C 84.40625 4.496094 84.152344 4.851562 84.085938 5.191406 L 85.863281 5.191406 L 85.863281 5.667969 "/>
<path style="fill:none;stroke-width:10;stroke-linecap:butt;stroke-linejoin:miter;stroke:rgb(0%,0%,0%);stroke-opacity:1;stroke-miterlimit:10;" d="M 867.382812 2570.3125 L 890.078125 2570.3125 " transform="matrix(0.1,0,0,-0.1,0,261)"/>
<path style="fill:none;stroke-width:10;stroke-linecap:round;stroke-linejoin:round;stroke:rgb(75.389099%,75.389099%,75.389099%);stroke-opacity:1;stroke-miterlimit:10;" d="M 39.6875 2853.789062 L 39.6875 869.53125 " transform="matrix(0.1,0,0,-0.1,0,261)"/>
<path style="fill:none;stroke-width:10;stroke-linecap:round;stroke-linejoin:round;stroke:rgb(75.389099%,75.389099%,75.389099%);stroke-opacity:1;stroke-miterlimit:10;" d="M 39.6875 761.796875 L 39.6875 -145.273438 " transform="matrix(0.1,0,0,-0.1,0,261)"/>
<path style="fill:none;stroke-width:10;stroke-linecap:round;stroke-linejoin:round;stroke:rgb(75.389099%,75.389099%,75.389099%);stroke-opacity:1;stroke-miterlimit:10;" d="M 323.164062 2853.789062 L 323.164062 869.53125 " transform="matrix(0.1,0,0,-0.1,0,261)"/>
<path style="fill:none;stroke-width:10;stroke-linecap:round;stroke-linejoin:round;stroke:rgb(75.389099%,75.389099%,75.389099%);stroke-opacity:1;stroke-miterlimit:10;" d="M 323.164062 761.796875 L 323.164062 -145.273438 " transform="matrix(0.1,0,0,-0.1,0,261)"/>
<path style="fill:none;stroke-width:10;stroke-linecap:round;stroke-linejoin:round;stroke:rgb(75.389099%,75.389099%,75.389099%);stroke-opacity:1;stroke-miterlimit:10;" d="M 606.601562 2853.789062 L 606.601562 869.53125 " transform="matrix(0.1,0,0,-0.1,0,261)"/>
<path style="fill:none;stroke-width:10;stroke-linecap:round;stroke-linejoin:round;stroke:rgb(75.389099%,75.389099%,75.389099%);stroke-opacity:1;stroke-miterlimit:10;" d="M 606.601562 761.796875 L 606.601562 -145.273438 " transform="matrix(0.1,0,0,-0.1,0,261)"/>
<path style="fill:none;stroke-width:10;stroke-linecap:round;stroke-linejoin:round;stroke:rgb(75.389099%,75.389099%,75.389099%);stroke-opacity:1;stroke-miterlimit:10;" d="M 1173.554688 2853.789062 L 1173.554688 869.53125 " transform="matrix(0.1,0,0,-0.1,0,261)"/>
<path style="fill:none;stroke-width:10;stroke-linecap:round;stroke-linejoin:round;stroke:rgb(75.389099%,75.389099%,75.389099%);stroke-opacity:1;stroke-miterlimit:10;" d="M 1173.554688 761.796875 L 1173.554688 -145.273438 " transform="matrix(0.1,0,0,-0.1,0,261)"/>
<path style="fill:none;stroke-width:10;stroke-linecap:round;stroke-linejoin:round;stroke:rgb(75.389099%,75.389099%,75.389099%);stroke-opacity:1;stroke-miterlimit:10;" d="M 1456.992188 2853.789062 L 1456.992188 869.53125 " transform="matrix(0.1,0,0,-0.1,0,261)"/>
<path style="fill:none;stroke-width:10;stroke-linecap:round;stroke-linejoin:round;stroke:rgb(75.389099%,75.389099%,75.389099%);stroke-opacity:1;stroke-miterlimit:10;" d="M 1456.992188 761.796875 L 1456.992188 -145.273438 " transform="matrix(0.1,0,0,-0.1,0,261)"/>
<path style="fill:none;stroke-width:10;stroke-linecap:round;stroke-linejoin:round;stroke:rgb(75.389099%,75.389099%,75.389099%);stroke-opacity:1;stroke-miterlimit:10;" d="M 1740.46875 2853.789062 L 1740.46875 869.53125 " transform="matrix(0.1,0,0,-0.1,0,261)"/>
<path style="fill:none;stroke-width:10;stroke-linecap:round;stroke-linejoin:round;stroke:rgb(75.389099%,75.389099%,75.389099%);stroke-opacity:1;stroke-miterlimit:10;" d="M 1740.46875 761.796875 L 1740.46875 -145.273438 " transform="matrix(0.1,0,0,-0.1,0,261)"/>
<path style="fill:none;stroke-width:10;stroke-linecap:round;stroke-linejoin:round;stroke:rgb(75.389099%,75.389099%,75.389099%);stroke-opacity:1;stroke-miterlimit:10;" d="M 2023.945312 2853.789062 L 2023.945312 869.53125 " transform="matrix(0.1,0,0,-0.1,0,261)"/>
<path style="fill:none;stroke-width:10;stroke-linecap:round;stroke-linejoin:round;stroke:rgb(75.389099%,75.389099%,75.389099%);stroke-opacity:1;stroke-miterlimit:10;" d="M 2023.945312 761.796875 L 2023.945312 -145.273438 " transform="matrix(0.1,0,0,-0.1,0,261)"/>
<path style="fill:none;stroke-width:10;stroke-linecap:round;stroke-linejoin:round;stroke:rgb(75.389099%,75.389099%,75.389099%);stroke-opacity:1;stroke-miterlimit:10;" d="M -997.8125 2570.3125 L 776.679688 2570.3125 " transform="matrix(0.1,0,0,-0.1,0,261)"/>
<path style="fill:none;stroke-width:10;stroke-linecap:round;stroke-linejoin:round;stroke:rgb(75.389099%,75.389099%,75.389099%);stroke-opacity:1;stroke-miterlimit:10;" d="M 890.078125 2570.3125 L 2828.984375 2570.3125 " transform="matrix(0.1,0,0,-0.1,0,261)"/>
<path style="fill:none;stroke-width:10;stroke-linecap:round;stroke-linejoin:round;stroke:rgb(75.389099%,75.389099%,75.389099%);stroke-opacity:1;stroke-miterlimit:10;" d="M -997.8125 2570.3125 L 776.679688 2570.3125 " transform="matrix(0.1,0,0,-0.1,0,261)"/>
<path style="fill:none;stroke-width:10;stroke-linecap:round;stroke-linejoin:round;stroke:rgb(75.389099%,75.389099%,75.389099%);stroke-opacity:1;stroke-miterlimit:10;" d="M 890.078125 2570.3125 L 2828.984375 2570.3125 " transform="matrix(0.1,0,0,-0.1,0,261)"/>
<path style="fill:none;stroke-width:10;stroke-linecap:round;stroke-linejoin:round;stroke:rgb(75.389099%,75.389099%,75.389099%);stroke-opacity:1;stroke-miterlimit:10;" d="M -997.8125 2286.835938 L 776.679688 2286.835938 " transform="matrix(0.1,0,0,-0.1,0,261)"/>
<path style="fill:none;stroke-width:10;stroke-linecap:round;stroke-linejoin:round;stroke:rgb(75.389099%,75.389099%,75.389099%);stroke-opacity:1;stroke-miterlimit:10;" d="M 890.078125 2286.835938 L 2828.984375 2286.835938 " transform="matrix(0.1,0,0,-0.1,0,261)"/>
<path style="fill:none;stroke-width:10;stroke-linecap:round;stroke-linejoin:round;stroke:rgb(75.389099%,75.389099%,75.389099%);stroke-opacity:1;stroke-miterlimit:10;" d="M -997.8125 2003.398438 L 776.679688 2003.398438 " transform="matrix(0.1,0,0,-0.1,0,261)"/>
<path style="fill:none;stroke-width:10;stroke-linecap:round;stroke-linejoin:round;stroke:rgb(75.389099%,75.389099%,75.389099%);stroke-opacity:1;stroke-miterlimit:10;" d="M 890.078125 2003.398438 L 2828.984375 2003.398438 " transform="matrix(0.1,0,0,-0.1,0,261)"/>
<path style="fill:none;stroke-width:10;stroke-linecap:round;stroke-linejoin:round;stroke:rgb(75.389099%,75.389099%,75.389099%);stroke-opacity:1;stroke-miterlimit:10;" d="M -997.8125 1719.921875 L 776.679688 1719.921875 " transform="matrix(0.1,0,0,-0.1,0,261)"/>
<path style="fill:none;stroke-width:10;stroke-linecap:round;stroke-linejoin:round;stroke:rgb(75.389099%,75.389099%,75.389099%);stroke-opacity:1;stroke-miterlimit:10;" d="M 890.078125 1719.921875 L 2828.984375 1719.921875 " transform="matrix(0.1,0,0,-0.1,0,261)"/>
<path style="fill:none;stroke-width:10;stroke-linecap:round;stroke-linejoin:round;stroke:rgb(75.389099%,75.389099%,75.389099%);stroke-opacity:1;stroke-miterlimit:10;" d="M -997.8125 1436.445312 L 776.679688 1436.445312 " transform="matrix(0.1,0,0,-0.1,0,261)"/>
<path style="fill:none;stroke-width:10;stroke-linecap:round;stroke-linejoin:round;stroke:rgb(75.389099%,75.389099%,75.389099%);stroke-opacity:1;stroke-miterlimit:10;" d="M 890.078125 1436.445312 L 2828.984375 1436.445312 " transform="matrix(0.1,0,0,-0.1,0,261)"/>
<path style="fill:none;stroke-width:10;stroke-linecap:round;stroke-linejoin:round;stroke:rgb(75.389099%,75.389099%,75.389099%);stroke-opacity:1;stroke-miterlimit:10;" d="M -997.8125 1153.007812 L 776.679688 1153.007812 " transform="matrix(0.1,0,0,-0.1,0,261)"/>
<path style="fill:none;stroke-width:10;stroke-linecap:round;stroke-linejoin:round;stroke:rgb(75.389099%,75.389099%,75.389099%);stroke-opacity:1;stroke-miterlimit:10;" d="M 890.078125 1153.007812 L 2828.984375 1153.007812 " transform="matrix(0.1,0,0,-0.1,0,261)"/>
<path style="fill:none;stroke-width:10;stroke-linecap:round;stroke-linejoin:round;stroke:rgb(75.389099%,75.389099%,75.389099%);stroke-opacity:1;stroke-miterlimit:10;" d="M -997.8125 586.054688 L 776.679688 586.054688 " transform="matrix(0.1,0,0,-0.1,0,261)"/>
<path style="fill:none;stroke-width:10;stroke-linecap:round;stroke-linejoin:round;stroke:rgb(75.389099%,75.389099%,75.389099%);stroke-opacity:1;stroke-miterlimit:10;" d="M 890.078125 586.054688 L 2828.984375 586.054688 " transform="matrix(0.1,0,0,-0.1,0,261)"/>
<path style="fill:none;stroke-width:10;stroke-linecap:round;stroke-linejoin:round;stroke:rgb(75.389099%,75.389099%,75.389099%);stroke-opacity:1;stroke-miterlimit:10;" d="M -997.8125 302.617188 L 776.679688 302.617188 " transform="matrix(0.1,0,0,-0.1,0,261)"/>
<path style="fill:none;stroke-width:10;stroke-linecap:round;stroke-linejoin:round;stroke:rgb(75.389099%,75.389099%,75.389099%);stroke-opacity:1;stroke-miterlimit:10;" d="M 890.078125 302.617188 L 2828.984375 302.617188 " transform="matrix(0.1,0,0,-0.1,0,261)"/>
<path style="fill:none;stroke-width:10;stroke-linecap:round;stroke-linejoin:round;stroke:rgb(75.389099%,75.389099%,75.389099%);stroke-opacity:1;stroke-miterlimit:10;" d="M -997.8125 19.140625 L 776.679688 19.140625 " transform="matrix(0.1,0,0,-0.1,0,261)"/>
<path style="fill:none;stroke-width:10;stroke-linecap:round;stroke-linejoin:round;stroke:rgb(75.389099%,75.389099%,75.389099%);stroke-opacity:1;stroke-miterlimit:10;" d="M 890.078125 19.140625 L 2828.984375 19.140625 " transform="matrix(0.1,0,0,-0.1,0,261)"/>
<path style="fill:none;stroke-width:15;stroke-linecap:round;stroke-linejoin:round;stroke:rgb(0%,0%,100%);stroke-opacity:1;stroke-miterlimit:10;" d="M 63.554688 2913.046875 L 78.476562 2862.382812 L 93.4375 2812.5 L 108.398438 2763.398438 L 123.320312 2715.117188 L 138.28125 2667.578125 L 153.242188 2620.859375 L 168.164062 2574.921875 L 183.125 2529.765625 L 198.085938 2485.390625 L 213.007812 2441.835938 L 227.96875 2399.0625 L 242.929688 2357.070312 L 257.851562 2315.859375 L 272.8125 2275.429688 L 287.773438 2235.78125 L 302.695312 2196.953125 L 317.65625 2158.90625 L 332.617188 2121.640625 L 347.539062 2085.15625 L 362.5 2049.453125 L 377.460938 2014.570312 L 392.382812 1980.46875 L 407.34375 1947.148438 L 422.304688 1914.609375 L 437.226562 1882.851562 L 452.1875 1851.875 L 467.148438 1821.71875 L 482.109375 1792.34375 L 497.03125 1763.710938 L 526.953125 1708.90625 L 556.835938 1657.226562 L 586.71875 1608.710938 L 616.640625 1563.359375 L 646.523438 1521.132812 L 676.40625 1482.070312 L 706.328125 1446.171875 L 736.210938 1413.4375 L 766.09375 1383.828125 L 796.015625 1357.382812 L 825.898438 1334.0625 L 855.78125 1313.945312 L 885.703125 1296.953125 L 915.585938 1283.125 L 945.46875 1272.421875 L 975.390625 1264.921875 L 1005.273438 1260.546875 L 1035.195312 1259.296875 L 1065.078125 1261.25 L 1094.960938 1266.328125 L 1124.882812 1274.570312 L 1154.765625 1285.976562 L 1184.648438 1300.507812 L 1214.570312 1318.203125 L 1244.453125 1339.0625 L 1274.335938 1363.046875 L 1304.257812 1390.195312 L 1334.140625 1420.507812 L 1364.023438 1453.984375 L 1393.945312 1490.585938 L 1423.828125 1530.351562 L 1453.710938 1573.28125 L 1483.632812 1619.375 L 1513.515625 1668.59375 L 1543.4375 1720.976562 L 1573.320312 1776.523438 L 1588.28125 1805.46875 L 1603.203125 1835.195312 L 1618.164062 1865.742188 L 1633.125 1897.03125 L 1648.046875 1929.140625 L 1663.007812 1962.03125 L 1677.96875 1995.703125 L 1692.890625 2030.195312 L 1707.851562 2065.46875 L 1722.8125 2101.484375 L 1737.734375 2138.320312 L 1752.695312 2175.9375 L 1767.65625 2214.335938 L 1782.578125 2253.554688 L 1797.539062 2293.554688 L 1812.5 2334.296875 L 1827.421875 2375.898438 L 1842.382812 2418.242188 L 1857.34375 2461.367188 L 1872.304688 2505.273438 L 1887.226562 2550 L 1902.1875 2595.507812 L 1917.148438 2641.796875 L 1932.070312 2688.90625 L 1947.03125 2736.757812 L 1961.953125 2785.390625 L 1976.914062 2834.84375 L 1991.875 2885.078125 " transform="matrix(0.1,0,0,-0.1,0,261)"/>
<path style=" stroke:none;fill-rule:nonzero;fill:rgb(0%,0%,100%);fill-opacity:1;" d="M 29.496094 11.527344 L 28.566406 15.25 C 28.480469 15.601562 28.257812 15.914062 27.902344 16.179688 C 27.550781 16.355469 27.152344 16.445312 26.707031 16.445312 C 26.085938 16.445312 25.734375 16.3125 25.644531 16.046875 C 25.644531 16.046875 25.644531 16.003906 25.644531 15.914062 C 25.644531 15.734375 25.734375 15.601562 25.910156 15.515625 C 26 15.515625 26.042969 15.515625 26.042969 15.515625 C 26.21875 15.515625 26.351562 15.558594 26.441406 15.648438 C 26.441406 15.648438 26.441406 15.691406 26.441406 15.78125 C 26.441406 15.957031 26.351562 16.089844 26.175781 16.179688 C 26.175781 16.179688 26.132812 16.179688 26.042969 16.179688 C 26.21875 16.269531 26.441406 16.3125 26.707031 16.3125 C 27.328125 16.3125 27.769531 16.003906 28.035156 15.382812 L 28.300781 14.1875 C 28.035156 14.453125 27.726562 14.628906 27.371094 14.71875 C 27.371094 14.71875 27.328125 14.71875 27.238281 14.71875 C 26.886719 14.71875 26.574219 14.539062 26.308594 14.1875 C 26.21875 13.921875 26.175781 13.65625 26.175781 13.390625 C 26.175781 12.769531 26.398438 12.191406 26.839844 11.660156 C 27.195312 11.21875 27.59375 10.996094 28.035156 10.996094 L 28.167969 10.996094 C 28.433594 10.996094 28.65625 11.128906 28.832031 11.394531 L 28.964844 11.527344 C 28.964844 11.261719 29.054688 11.128906 29.230469 11.128906 C 29.410156 11.128906 29.496094 11.21875 29.496094 11.394531 Z M 28.433594 13.65625 L 28.832031 12.058594 C 28.832031 11.972656 28.832031 11.925781 28.832031 11.925781 C 28.832031 11.75 28.789062 11.617188 28.699219 11.527344 C 28.613281 11.351562 28.523438 11.261719 28.433594 11.261719 C 28.347656 11.175781 28.257812 11.128906 28.167969 11.128906 C 27.902344 11.128906 27.636719 11.308594 27.371094 11.660156 C 27.285156 11.75 27.238281 11.839844 27.238281 11.925781 C 27.0625 12.28125 26.929688 12.769531 26.839844 13.390625 C 26.753906 13.476562 26.707031 13.609375 26.707031 13.785156 C 26.707031 14.140625 26.839844 14.363281 27.105469 14.453125 C 27.105469 14.539062 27.152344 14.585938 27.238281 14.585938 C 27.503906 14.585938 27.769531 14.453125 28.035156 14.1875 C 28.214844 14.007812 28.347656 13.832031 28.433594 13.65625 "/>
<path style=" stroke:none;fill-rule:nonzero;fill:rgb(0%,0%,100%);fill-opacity:1;" d="M 32.359375 16.710938 C 32.359375 16.800781 32.359375 16.84375 32.359375 16.84375 C 32.269531 16.84375 32.09375 16.710938 31.828125 16.445312 C 31.472656 16.089844 31.207031 15.691406 31.03125 15.25 C 30.585938 14.453125 30.363281 13.566406 30.363281 12.589844 C 30.363281 11.617188 30.542969 10.730469 30.898438 9.933594 C 31.25 9.3125 31.648438 8.828125 32.09375 8.472656 C 32.179688 8.382812 32.269531 8.339844 32.359375 8.339844 C 32.359375 8.339844 32.359375 8.382812 32.359375 8.472656 C 32.359375 8.472656 32.3125 8.515625 32.226562 8.605469 C 31.339844 9.492188 30.898438 10.820312 30.898438 12.589844 C 30.898438 14.363281 31.339844 15.691406 32.226562 16.578125 C 32.3125 16.664062 32.359375 16.710938 32.359375 16.710938 "/>
<path style=" stroke:none;fill-rule:nonzero;fill:rgb(0%,0%,100%);fill-opacity:1;" d="M 35.664062 12.191406 L 35.398438 13.257812 C 35.3125 13.699219 35.265625 13.964844 35.265625 14.054688 C 35.265625 14.320312 35.355469 14.496094 35.53125 14.585938 C 35.621094 14.585938 35.710938 14.585938 35.796875 14.585938 C 36.0625 14.585938 36.285156 14.453125 36.460938 14.1875 C 36.640625 14.007812 36.773438 13.785156 36.859375 13.519531 C 36.859375 13.433594 36.90625 13.390625 36.992188 13.390625 C 37.082031 13.390625 37.128906 13.433594 37.128906 13.519531 C 37.128906 13.609375 37.039062 13.785156 36.859375 14.054688 C 36.507812 14.585938 36.152344 14.851562 35.796875 14.851562 C 35.355469 14.851562 35.046875 14.671875 34.867188 14.320312 C 34.867188 14.230469 34.867188 14.1875 34.867188 14.1875 C 34.691406 14.453125 34.46875 14.628906 34.203125 14.71875 C 34.113281 14.804688 34.027344 14.851562 33.9375 14.851562 C 33.582031 14.851562 33.316406 14.71875 33.140625 14.453125 C 33.140625 14.453125 33.140625 14.363281 33.140625 14.1875 C 33.140625 14.007812 33.230469 13.875 33.40625 13.785156 C 33.496094 13.785156 33.539062 13.785156 33.539062 13.785156 C 33.714844 13.785156 33.847656 13.832031 33.9375 13.921875 C 33.9375 14.007812 33.9375 14.054688 33.9375 14.054688 C 33.9375 14.230469 33.847656 14.363281 33.671875 14.453125 C 33.582031 14.453125 33.539062 14.453125 33.539062 14.453125 C 33.628906 14.539062 33.761719 14.585938 33.9375 14.585938 C 34.203125 14.585938 34.425781 14.40625 34.601562 14.054688 C 34.691406 13.964844 34.734375 13.875 34.734375 13.785156 C 35 12.636719 35.132812 11.925781 35.132812 11.660156 C 35.132812 11.308594 35 11.128906 34.734375 11.128906 C 34.46875 11.128906 34.203125 11.308594 33.9375 11.660156 C 33.847656 11.75 33.761719 11.882812 33.671875 12.058594 C 33.671875 12.058594 33.671875 12.105469 33.671875 12.191406 L 33.539062 12.324219 C 33.449219 12.324219 33.40625 12.324219 33.40625 12.324219 C 33.40625 12.148438 33.496094 11.925781 33.671875 11.660156 C 33.9375 11.21875 34.292969 10.996094 34.734375 10.996094 C 35.179688 10.996094 35.488281 11.21875 35.664062 11.660156 C 35.84375 11.308594 36.0625 11.085938 36.328125 10.996094 C 36.417969 10.996094 36.507812 10.996094 36.59375 10.996094 C 36.949219 10.996094 37.171875 11.085938 37.261719 11.261719 C 37.347656 11.351562 37.394531 11.441406 37.394531 11.527344 C 37.394531 11.792969 37.261719 11.925781 36.992188 11.925781 C 36.992188 12.015625 36.949219 12.058594 36.859375 12.058594 C 36.683594 12.058594 36.59375 11.972656 36.59375 11.792969 C 36.59375 11.792969 36.59375 11.75 36.59375 11.660156 C 36.59375 11.484375 36.683594 11.351562 36.859375 11.261719 C 36.859375 11.261719 36.90625 11.261719 36.992188 11.261719 C 36.90625 11.175781 36.773438 11.128906 36.59375 11.128906 C 36.152344 11.128906 35.886719 11.441406 35.796875 12.058594 C 35.710938 12.058594 35.664062 12.105469 35.664062 12.191406 "/>
<path style=" stroke:none;fill-rule:nonzero;fill:rgb(0%,0%,100%);fill-opacity:1;" d="M 40.128906 12.589844 C 40.128906 13.566406 39.949219 14.453125 39.59375 15.25 C 39.328125 15.867188 38.976562 16.355469 38.53125 16.710938 C 38.445312 16.800781 38.355469 16.84375 38.265625 16.84375 C 38.265625 16.84375 38.265625 16.800781 38.265625 16.710938 C 38.265625 16.710938 38.265625 16.664062 38.265625 16.578125 C 39.242188 15.691406 39.726562 14.363281 39.726562 12.589844 C 39.726562 10.820312 39.285156 9.492188 38.398438 8.605469 C 38.3125 8.515625 38.265625 8.472656 38.265625 8.472656 C 38.265625 8.382812 38.265625 8.339844 38.265625 8.339844 C 38.355469 8.339844 38.53125 8.472656 38.796875 8.738281 C 39.152344 9.09375 39.417969 9.492188 39.59375 9.933594 C 39.949219 10.730469 40.128906 11.617188 40.128906 12.589844 "/>
<path style=" stroke:none;fill-rule:nonzero;fill:rgb(0%,0%,100%);fill-opacity:1;" d="M 51.613281 11.925781 L 46.5625 11.925781 C 46.386719 11.925781 46.296875 11.882812 46.296875 11.792969 C 46.296875 11.707031 46.386719 11.660156 46.5625 11.660156 L 51.613281 11.660156 C 51.789062 11.660156 51.878906 11.707031 51.878906 11.792969 C 51.878906 11.882812 51.789062 11.925781 51.613281 11.925781 Z M 51.613281 13.519531 L 46.5625 13.519531 C 46.386719 13.519531 46.296875 13.476562 46.296875 13.390625 C 46.296875 13.300781 46.386719 13.257812 46.5625 13.257812 L 51.613281 13.257812 C 51.789062 13.257812 51.878906 13.300781 51.878906 13.390625 C 51.878906 13.476562 51.789062 13.519531 51.613281 13.519531 "/>
<path style=" stroke:none;fill-rule:nonzero;fill:rgb(0%,0%,100%);fill-opacity:1;" d="M 59.894531 12.191406 L 59.628906 13.257812 C 59.542969 13.699219 59.496094 13.964844 59.496094 14.054688 C 59.496094 14.320312 59.585938 14.496094 59.761719 14.585938 C 59.851562 14.585938 59.941406 14.585938 60.027344 14.585938 C 60.292969 14.585938 60.515625 14.453125 60.691406 14.1875 C 60.871094 14.007812 61.003906 13.785156 61.09375 13.519531 C 61.09375 13.433594 61.136719 13.390625 61.222656 13.390625 C 61.3125 13.390625 61.355469 13.433594 61.355469 13.519531 C 61.355469 13.609375 61.269531 13.785156 61.09375 14.054688 C 60.738281 14.585938 60.382812 14.851562 60.027344 14.851562 C 59.585938 14.851562 59.277344 14.671875 59.097656 14.320312 C 59.097656 14.230469 59.097656 14.1875 59.097656 14.1875 C 58.921875 14.453125 58.699219 14.628906 58.433594 14.71875 C 58.34375 14.804688 58.257812 14.851562 58.167969 14.851562 C 57.8125 14.851562 57.546875 14.71875 57.371094 14.453125 C 57.371094 14.453125 57.371094 14.363281 57.371094 14.1875 C 57.371094 14.007812 57.460938 13.875 57.636719 13.785156 C 57.726562 13.785156 57.769531 13.785156 57.769531 13.785156 C 57.945312 13.785156 58.078125 13.832031 58.167969 13.921875 C 58.167969 14.007812 58.167969 14.054688 58.167969 14.054688 C 58.167969 14.230469 58.078125 14.363281 57.902344 14.453125 C 57.8125 14.453125 57.769531 14.453125 57.769531 14.453125 C 57.859375 14.539062 57.992188 14.585938 58.167969 14.585938 C 58.433594 14.585938 58.65625 14.40625 58.832031 14.054688 C 58.921875 13.964844 58.964844 13.875 58.964844 13.785156 C 59.230469 12.636719 59.363281 11.925781 59.363281 11.660156 C 59.363281 11.308594 59.230469 11.128906 58.964844 11.128906 C 58.699219 11.128906 58.433594 11.308594 58.167969 11.660156 C 58.078125 11.75 57.992188 11.882812 57.902344 12.058594 C 57.902344 12.058594 57.902344 12.105469 57.902344 12.191406 L 57.769531 12.324219 C 57.679688 12.324219 57.636719 12.324219 57.636719 12.324219 C 57.636719 12.148438 57.726562 11.925781 57.902344 11.660156 C 58.167969 11.21875 58.523438 10.996094 58.964844 10.996094 C 59.410156 10.996094 59.71875 11.21875 59.894531 11.660156 C 60.074219 11.308594 60.292969 11.085938 60.558594 10.996094 C 60.648438 10.996094 60.738281 10.996094 60.824219 10.996094 C 61.179688 10.996094 61.402344 11.085938 61.488281 11.261719 C 61.578125 11.351562 61.621094 11.441406 61.621094 11.527344 C 61.621094 11.792969 61.488281 11.925781 61.222656 11.925781 C 61.222656 12.015625 61.179688 12.058594 61.09375 12.058594 C 60.914062 12.058594 60.824219 11.972656 60.824219 11.792969 C 60.824219 11.792969 60.824219 11.75 60.824219 11.660156 C 60.824219 11.484375 60.914062 11.351562 61.09375 11.261719 C 61.09375 11.261719 61.136719 11.261719 61.222656 11.261719 C 61.136719 11.175781 61.003906 11.128906 60.824219 11.128906 C 60.382812 11.128906 60.117188 11.441406 60.027344 12.058594 C 59.941406 12.058594 59.894531 12.105469 59.894531 12.191406 "/>
<path style=" stroke:none;fill-rule:nonzero;fill:rgb(0%,0%,100%);fill-opacity:1;" d="M 64.664062 10.183594 L 64.476562 11.207031 L 62.246094 11.207031 C 62.246094 11.082031 62.277344 11.019531 62.335938 11.019531 L 63.453125 9.71875 C 63.886719 9.222656 64.105469 8.789062 64.105469 8.414062 C 64.105469 8.042969 63.980469 7.765625 63.734375 7.578125 C 63.609375 7.453125 63.453125 7.394531 63.269531 7.394531 C 63.019531 7.394531 62.800781 7.515625 62.617188 7.765625 C 62.554688 7.828125 62.523438 7.921875 62.523438 8.042969 C 62.523438 8.042969 62.554688 8.042969 62.617188 8.042969 C 62.742188 8.042969 62.832031 8.105469 62.894531 8.230469 C 62.894531 8.292969 62.894531 8.324219 62.894531 8.324219 C 62.894531 8.507812 62.800781 8.601562 62.617188 8.601562 C 62.617188 8.664062 62.617188 8.695312 62.617188 8.695312 C 62.429688 8.695312 62.304688 8.632812 62.246094 8.507812 C 62.246094 8.445312 62.246094 8.386719 62.246094 8.324219 C 62.246094 8.011719 62.367188 7.765625 62.617188 7.578125 C 62.800781 7.332031 63.050781 7.207031 63.359375 7.207031 C 63.792969 7.207031 64.136719 7.363281 64.382812 7.671875 C 64.507812 7.859375 64.601562 8.074219 64.664062 8.324219 C 64.664062 8.324219 64.664062 8.355469 64.664062 8.414062 C 64.664062 8.664062 64.539062 8.941406 64.289062 9.253906 C 64.167969 9.378906 63.980469 9.53125 63.734375 9.71875 L 63.453125 10.089844 L 63.359375 10.089844 L 62.710938 10.742188 L 63.824219 10.742188 C 64.136719 10.742188 64.320312 10.742188 64.382812 10.742188 C 64.382812 10.679688 64.414062 10.492188 64.476562 10.183594 L 64.664062 10.183594 "/>
<path style=" stroke:none;fill-rule:nonzero;fill:rgb(0%,0%,100%);fill-opacity:1;" d="M 72.695312 12.722656 L 68.046875 12.722656 C 67.867188 12.722656 67.78125 12.679688 67.78125 12.589844 C 67.78125 12.503906 67.867188 12.460938 68.046875 12.460938 L 72.695312 12.460938 C 72.871094 12.460938 72.960938 12.503906 72.960938 12.589844 C 72.960938 12.679688 72.871094 12.722656 72.695312 12.722656 "/>
<path style=" stroke:none;fill-rule:nonzero;fill:rgb(0%,0%,100%);fill-opacity:1;" d="M 78.410156 12.191406 L 78.144531 13.257812 C 78.054688 13.699219 78.011719 13.964844 78.011719 14.054688 C 78.011719 14.320312 78.097656 14.496094 78.277344 14.585938 C 78.363281 14.585938 78.453125 14.585938 78.542969 14.585938 C 78.808594 14.585938 79.03125 14.453125 79.207031 14.1875 C 79.382812 14.007812 79.515625 13.785156 79.605469 13.519531 C 79.605469 13.433594 79.648438 13.390625 79.738281 13.390625 C 79.828125 13.390625 79.871094 13.433594 79.871094 13.519531 C 79.871094 13.609375 79.78125 13.785156 79.605469 14.054688 C 79.25 14.585938 78.898438 14.851562 78.542969 14.851562 C 78.097656 14.851562 77.789062 14.671875 77.613281 14.320312 C 77.613281 14.230469 77.613281 14.1875 77.613281 14.1875 C 77.433594 14.453125 77.214844 14.628906 76.949219 14.71875 C 76.859375 14.804688 76.769531 14.851562 76.683594 14.851562 C 76.328125 14.851562 76.0625 14.71875 75.886719 14.453125 C 75.886719 14.453125 75.886719 14.363281 75.886719 14.1875 C 75.886719 14.007812 75.972656 13.875 76.152344 13.785156 C 76.238281 13.785156 76.285156 13.785156 76.285156 13.785156 C 76.460938 13.785156 76.59375 13.832031 76.683594 13.921875 C 76.683594 14.007812 76.683594 14.054688 76.683594 14.054688 C 76.683594 14.230469 76.59375 14.363281 76.417969 14.453125 C 76.328125 14.453125 76.285156 14.453125 76.285156 14.453125 C 76.371094 14.539062 76.503906 14.585938 76.683594 14.585938 C 76.949219 14.585938 77.167969 14.40625 77.347656 14.054688 C 77.433594 13.964844 77.480469 13.875 77.480469 13.785156 C 77.746094 12.636719 77.878906 11.925781 77.878906 11.660156 C 77.878906 11.308594 77.746094 11.128906 77.480469 11.128906 C 77.214844 11.128906 76.949219 11.308594 76.683594 11.660156 C 76.59375 11.75 76.503906 11.882812 76.417969 12.058594 C 76.417969 12.058594 76.417969 12.105469 76.417969 12.191406 L 76.285156 12.324219 C 76.195312 12.324219 76.152344 12.324219 76.152344 12.324219 C 76.152344 12.148438 76.238281 11.925781 76.417969 11.660156 C 76.683594 11.21875 77.035156 10.996094 77.480469 10.996094 C 77.921875 10.996094 78.230469 11.21875 78.410156 11.660156 C 78.585938 11.308594 78.808594 11.085938 79.074219 10.996094 C 79.164062 10.996094 79.25 10.996094 79.339844 10.996094 C 79.695312 10.996094 79.914062 11.085938 80.003906 11.261719 C 80.09375 11.351562 80.136719 11.441406 80.136719 11.527344 C 80.136719 11.792969 80.003906 11.925781 79.738281 11.925781 C 79.738281 12.015625 79.695312 12.058594 79.605469 12.058594 C 79.429688 12.058594 79.339844 11.972656 79.339844 11.792969 C 79.339844 11.792969 79.339844 11.75 79.339844 11.660156 C 79.339844 11.484375 79.429688 11.351562 79.605469 11.261719 C 79.605469 11.261719 79.648438 11.261719 79.738281 11.261719 C 79.648438 11.175781 79.515625 11.128906 79.339844 11.128906 C 78.898438 11.128906 78.632812 11.441406 78.542969 12.058594 C 78.453125 12.058594 78.410156 12.105469 78.410156 12.191406 "/>
<path style=" stroke:none;fill-rule:nonzero;fill:rgb(0%,0%,100%);fill-opacity:1;" d="M 85.824219 12.722656 L 85.824219 15.117188 C 85.824219 15.292969 85.78125 15.382812 85.691406 15.382812 C 85.601562 15.382812 85.558594 15.292969 85.558594 15.117188 L 85.558594 12.722656 L 83.167969 12.722656 C 82.988281 12.722656 82.902344 12.679688 82.902344 12.589844 C 82.902344 12.503906 82.988281 12.460938 83.167969 12.460938 L 85.558594 12.460938 L 85.558594 10.066406 C 85.558594 9.890625 85.601562 9.800781 85.691406 9.800781 C 85.78125 9.800781 85.824219 9.890625 85.824219 10.066406 L 85.824219 12.460938 L 88.214844 12.460938 C 88.394531 12.460938 88.480469 12.503906 88.480469 12.589844 C 88.480469 12.679688 88.394531 12.722656 88.214844 12.722656 L 85.824219 12.722656 "/>
<path style=" stroke:none;fill-rule:nonzero;fill:rgb(0%,0%,100%);fill-opacity:1;" d="M 93.398438 11.660156 C 93.929688 11.839844 94.328125 12.148438 94.59375 12.589844 C 94.683594 12.769531 94.726562 12.988281 94.726562 13.257812 C 94.726562 13.699219 94.550781 14.097656 94.195312 14.453125 C 93.839844 14.71875 93.441406 14.851562 93 14.851562 C 92.378906 14.851562 91.890625 14.71875 91.539062 14.453125 C 91.359375 14.1875 91.273438 13.875 91.273438 13.519531 C 91.273438 13.257812 91.359375 13.121094 91.539062 13.121094 C 91.625 13.121094 91.671875 13.121094 91.671875 13.121094 C 91.9375 13.121094 92.113281 13.210938 92.203125 13.390625 C 92.203125 13.476562 92.203125 13.519531 92.203125 13.519531 C 92.203125 13.785156 92.113281 13.964844 91.9375 14.054688 C 91.847656 14.054688 91.757812 14.054688 91.671875 14.054688 C 91.847656 14.40625 92.203125 14.585938 92.734375 14.585938 C 92.820312 14.671875 92.867188 14.71875 92.867188 14.71875 C 93.308594 14.71875 93.574219 14.539062 93.664062 14.1875 C 93.839844 13.921875 93.929688 13.609375 93.929688 13.257812 C 93.929688 12.546875 93.707031 12.105469 93.265625 11.925781 C 93.089844 11.839844 92.957031 11.792969 92.867188 11.792969 L 92.46875 11.792969 C 92.378906 11.792969 92.335938 11.792969 92.335938 11.792969 C 92.335938 11.707031 92.378906 11.660156 92.46875 11.660156 C 92.554688 11.660156 92.644531 11.660156 92.734375 11.660156 C 93 11.660156 93.21875 11.527344 93.398438 11.261719 L 93.53125 11.128906 C 93.707031 10.863281 93.796875 10.554688 93.796875 10.199219 C 93.796875 9.667969 93.574219 9.359375 93.132812 9.269531 C 93.042969 9.269531 92.957031 9.269531 92.867188 9.269531 C 92.511719 9.269531 92.203125 9.402344 91.9375 9.667969 C 91.847656 9.667969 91.804688 9.710938 91.804688 9.800781 C 92.15625 9.800781 92.335938 9.933594 92.335938 10.199219 C 92.335938 10.378906 92.246094 10.511719 92.070312 10.597656 C 91.980469 10.597656 91.9375 10.597656 91.9375 10.597656 C 91.671875 10.597656 91.539062 10.511719 91.539062 10.332031 C 91.449219 10.332031 91.40625 10.289062 91.40625 10.199219 C 91.40625 9.84375 91.625 9.535156 92.070312 9.269531 C 92.335938 9.09375 92.644531 9.003906 93 9.003906 C 93.53125 9.003906 93.929688 9.179688 94.195312 9.535156 C 94.460938 9.710938 94.59375 9.933594 94.59375 10.199219 C 94.59375 10.730469 94.371094 11.128906 93.929688 11.394531 C 93.753906 11.574219 93.574219 11.660156 93.398438 11.660156 "/>
<path style="fill:none;stroke-width:15;stroke-linecap:round;stroke-linejoin:round;stroke:rgb(0%,59.959412%,0%);stroke-opacity:1;stroke-miterlimit:10;" d="M -41.09375 -203.398438 L -11.210938 -173.476562 L 18.671875 -143.59375 L 48.59375 -113.710938 L 78.476562 -83.789062 L 108.398438 -53.90625 L 138.28125 -24.023438 L 168.164062 5.898438 L 198.085938 35.78125 L 227.96875 65.703125 L 257.851562 95.585938 L 287.773438 125.46875 L 317.65625 155.390625 L 347.539062 185.273438 L 377.460938 215.15625 L 407.34375 245.078125 L 437.226562 274.960938 L 467.148438 304.84375 L 497.03125 334.765625 L 526.953125 364.648438 L 556.835938 394.53125 L 586.71875 424.453125 L 616.640625 454.335938 L 646.523438 484.21875 L 676.40625 514.140625 L 706.328125 544.023438 L 736.210938 573.945312 L 766.09375 603.828125 L 796.015625 633.710938 L 825.898438 663.632812 L 855.78125 693.515625 L 885.703125 723.398438 L 915.585938 753.320312 L 945.46875 783.203125 L 975.390625 813.085938 L 1005.273438 843.007812 L 1035.195312 872.890625 L 1065.078125 902.773438 L 1094.960938 932.695312 L 1124.882812 962.578125 L 1154.765625 992.460938 L 1184.648438 1022.382812 L 1214.570312 1052.265625 L 1244.453125 1082.1875 L 1274.335938 1112.070312 L 1304.257812 1141.953125 L 1334.140625 1171.875 L 1364.023438 1201.757812 L 1393.945312 1231.640625 L 1423.828125 1261.5625 L 1453.710938 1291.445312 L 1483.632812 1321.328125 L 1513.515625 1351.25 L 1543.4375 1381.132812 L 1573.320312 1411.054688 L 1603.203125 1440.9375 L 1633.125 1470.820312 L 1663.007812 1500.703125 L 1692.890625 1530.625 L 1722.8125 1560.507812 L 1752.695312 1590.390625 L 1782.578125 1620.3125 L 1812.5 1650.195312 L 1842.382812 1680.117188 L 1872.304688 1710 L 1902.1875 1739.882812 L 1932.070312 1769.804688 L 2111.445312 1949.179688 L 2141.367188 1979.0625 L 2171.25 2008.945312 L 2201.132812 2038.867188 L 2231.054688 2068.75 L 2260.9375 2098.671875 L 2290.859375 2128.554688 L 2320.742188 2158.4375 L 2350.625 2188.359375 L 2380.546875 2218.242188 L 2410.429688 2248.125 L 2440.3125 2278.046875 L 2470.195312 2307.929688 L 2500.117188 2337.8125 L 2530 2367.734375 L 2559.921875 2397.617188 L 2589.804688 2427.539062 L 2619.6875 2457.421875 L 2649.609375 2487.304688 L 2679.492188 2517.226562 L 2709.375 2547.109375 L 2739.296875 2576.992188 L 2769.179688 2606.914062 L 2799.0625 2636.796875 L 2828.984375 2666.679688 " transform="matrix(0.1,0,0,-0.1,0,261)"/>
<path style=" stroke:none;fill-rule:nonzero;fill:rgb(0%,59.959412%,0%);fill-opacity:1;" d="M 35.734375 253.078125 L 34.804688 256.796875 C 34.714844 257.152344 34.492188 257.460938 34.140625 257.730469 C 33.785156 257.90625 33.386719 257.996094 32.945312 257.996094 C 32.324219 257.996094 31.96875 257.863281 31.882812 257.59375 C 31.882812 257.59375 31.882812 257.550781 31.882812 257.460938 C 31.882812 257.285156 31.96875 257.152344 32.148438 257.0625 C 32.234375 257.0625 32.28125 257.0625 32.28125 257.0625 C 32.457031 257.0625 32.589844 257.109375 32.679688 257.199219 C 32.679688 257.199219 32.679688 257.242188 32.679688 257.332031 C 32.679688 257.507812 32.589844 257.640625 32.414062 257.730469 C 32.414062 257.730469 32.367188 257.730469 32.28125 257.730469 C 32.457031 257.816406 32.679688 257.863281 32.945312 257.863281 C 33.5625 257.863281 34.007812 257.550781 34.273438 256.929688 L 34.539062 255.734375 C 34.273438 256 33.960938 256.179688 33.609375 256.265625 C 33.609375 256.265625 33.5625 256.265625 33.476562 256.265625 C 33.121094 256.265625 32.8125 256.089844 32.546875 255.734375 C 32.457031 255.46875 32.414062 255.203125 32.414062 254.9375 C 32.414062 254.320312 32.632812 253.742188 33.078125 253.210938 C 33.429688 252.769531 33.828125 252.546875 34.273438 252.546875 L 34.40625 252.546875 C 34.671875 252.546875 34.894531 252.679688 35.070312 252.945312 L 35.203125 253.078125 C 35.203125 252.8125 35.292969 252.679688 35.46875 252.679688 C 35.644531 252.679688 35.734375 252.769531 35.734375 252.945312 Z M 34.671875 255.203125 L 35.070312 253.609375 C 35.070312 253.519531 35.070312 253.476562 35.070312 253.476562 C 35.070312 253.300781 35.027344 253.167969 34.9375 253.078125 C 34.847656 252.902344 34.761719 252.8125 34.671875 252.8125 C 34.582031 252.722656 34.492188 252.679688 34.40625 252.679688 C 34.140625 252.679688 33.875 252.855469 33.609375 253.210938 C 33.519531 253.300781 33.476562 253.386719 33.476562 253.476562 C 33.296875 253.832031 33.164062 254.320312 33.078125 254.9375 C 32.988281 255.027344 32.945312 255.160156 32.945312 255.335938 C 32.945312 255.691406 33.078125 255.914062 33.34375 256 C 33.34375 256.089844 33.386719 256.132812 33.476562 256.132812 C 33.742188 256.132812 34.007812 256 34.273438 255.734375 C 34.449219 255.558594 34.582031 255.382812 34.671875 255.203125 "/>
<path style=" stroke:none;fill-rule:nonzero;fill:rgb(0%,59.959412%,0%);fill-opacity:1;" d="M 37.597656 249.871094 L 36.574219 252.382812 C 36.511719 252.445312 36.480469 252.476562 36.480469 252.476562 C 36.417969 252.476562 36.355469 252.445312 36.296875 252.382812 C 36.296875 252.382812 36.296875 252.351562 36.296875 252.292969 L 37.039062 249.6875 C 37.101562 249.5625 37.195312 249.46875 37.320312 249.40625 C 37.441406 249.40625 37.535156 249.46875 37.597656 249.59375 C 37.660156 249.65625 37.691406 249.71875 37.691406 249.78125 C 37.691406 249.78125 37.660156 249.808594 37.597656 249.871094 "/>
<path style=" stroke:none;fill-rule:nonzero;fill:rgb(0%,59.959412%,0%);fill-opacity:1;" d="M 40.820312 258.261719 C 40.820312 258.347656 40.820312 258.394531 40.820312 258.394531 C 40.730469 258.394531 40.554688 258.261719 40.289062 257.996094 C 39.933594 257.640625 39.667969 257.242188 39.492188 256.796875 C 39.046875 256 38.828125 255.117188 38.828125 254.140625 C 38.828125 253.167969 39.003906 252.28125 39.359375 251.484375 C 39.714844 250.863281 40.109375 250.375 40.554688 250.023438 C 40.644531 249.933594 40.730469 249.890625 40.820312 249.890625 C 40.820312 249.890625 40.820312 249.933594 40.820312 250.023438 C 40.820312 250.023438 40.777344 250.066406 40.6875 250.15625 C 39.800781 251.039062 39.359375 252.371094 39.359375 254.140625 C 39.359375 255.914062 39.800781 257.242188 40.6875 258.128906 C 40.777344 258.214844 40.820312 258.261719 40.820312 258.261719 "/>
<path style=" stroke:none;fill-rule:nonzero;fill:rgb(0%,59.959412%,0%);fill-opacity:1;" d="M 44.128906 253.742188 L 43.859375 254.804688 C 43.773438 255.25 43.726562 255.515625 43.726562 255.601562 C 43.726562 255.867188 43.816406 256.046875 43.992188 256.132812 C 44.082031 256.132812 44.171875 256.132812 44.261719 256.132812 C 44.527344 256.132812 44.746094 256 44.925781 255.734375 C 45.101562 255.558594 45.234375 255.335938 45.324219 255.070312 C 45.324219 254.984375 45.367188 254.9375 45.457031 254.9375 C 45.542969 254.9375 45.589844 254.984375 45.589844 255.070312 C 45.589844 255.160156 45.5 255.335938 45.324219 255.601562 C 44.96875 256.132812 44.613281 256.398438 44.261719 256.398438 C 43.816406 256.398438 43.507812 256.222656 43.332031 255.867188 C 43.332031 255.78125 43.332031 255.734375 43.332031 255.734375 C 43.152344 256 42.929688 256.179688 42.664062 256.265625 C 42.578125 256.355469 42.488281 256.398438 42.398438 256.398438 C 42.046875 256.398438 41.78125 256.265625 41.601562 256 C 41.601562 256 41.601562 255.914062 41.601562 255.734375 C 41.601562 255.558594 41.691406 255.425781 41.867188 255.335938 C 41.957031 255.335938 42 255.335938 42 255.335938 C 42.179688 255.335938 42.3125 255.382812 42.398438 255.46875 C 42.398438 255.558594 42.398438 255.601562 42.398438 255.601562 C 42.398438 255.78125 42.3125 255.914062 42.132812 256 C 42.046875 256 42 256 42 256 C 42.089844 256.089844 42.222656 256.132812 42.398438 256.132812 C 42.664062 256.132812 42.886719 255.957031 43.0625 255.601562 C 43.152344 255.515625 43.195312 255.425781 43.195312 255.335938 C 43.464844 254.1875 43.59375 253.476562 43.59375 253.210938 C 43.59375 252.855469 43.464844 252.679688 43.195312 252.679688 C 42.929688 252.679688 42.664062 252.855469 42.398438 253.210938 C 42.3125 253.300781 42.222656 253.433594 42.132812 253.609375 C 42.132812 253.609375 42.132812 253.652344 42.132812 253.742188 L 42 253.875 C 41.914062 253.875 41.867188 253.875 41.867188 253.875 C 41.867188 253.699219 41.957031 253.476562 42.132812 253.210938 C 42.398438 252.769531 42.753906 252.546875 43.195312 252.546875 C 43.640625 252.546875 43.949219 252.769531 44.128906 253.210938 C 44.304688 252.855469 44.527344 252.636719 44.792969 252.546875 C 44.878906 252.546875 44.96875 252.546875 45.058594 252.546875 C 45.410156 252.546875 45.632812 252.636719 45.722656 252.8125 C 45.808594 252.902344 45.855469 252.988281 45.855469 253.078125 C 45.855469 253.34375 45.722656 253.476562 45.457031 253.476562 C 45.457031 253.566406 45.410156 253.609375 45.324219 253.609375 C 45.144531 253.609375 45.058594 253.519531 45.058594 253.34375 C 45.058594 253.34375 45.058594 253.300781 45.058594 253.210938 C 45.058594 253.035156 45.144531 252.902344 45.324219 252.8125 C 45.324219 252.8125 45.367188 252.8125 45.457031 252.8125 C 45.367188 252.722656 45.234375 252.679688 45.058594 252.679688 C 44.613281 252.679688 44.347656 252.988281 44.261719 253.609375 C 44.171875 253.609375 44.128906 253.652344 44.128906 253.742188 "/>
<path style=" stroke:none;fill-rule:nonzero;fill:rgb(0%,59.959412%,0%);fill-opacity:1;" d="M 48.589844 254.140625 C 48.589844 255.117188 48.410156 256 48.058594 256.796875 C 47.792969 257.417969 47.4375 257.90625 46.992188 258.261719 C 46.90625 258.347656 46.816406 258.394531 46.726562 258.394531 C 46.726562 258.394531 46.726562 258.347656 46.726562 258.261719 C 46.726562 258.261719 46.726562 258.214844 46.726562 258.128906 C 47.703125 257.242188 48.191406 255.914062 48.191406 254.140625 C 48.191406 252.371094 47.746094 251.039062 46.859375 250.15625 C 46.773438 250.066406 46.726562 250.023438 46.726562 250.023438 C 46.726562 249.933594 46.726562 249.890625 46.726562 249.890625 C 46.816406 249.890625 46.992188 250.023438 47.261719 250.289062 C 47.613281 250.640625 47.878906 251.039062 48.058594 251.484375 C 48.410156 252.28125 48.589844 253.167969 48.589844 254.140625 "/>
<path style=" stroke:none;fill-rule:nonzero;fill:rgb(0%,59.959412%,0%);fill-opacity:1;" d="M 57.714844 253.476562 L 52.664062 253.476562 C 52.484375 253.476562 52.398438 253.433594 52.398438 253.34375 C 52.398438 253.253906 52.484375 253.210938 52.664062 253.210938 L 57.714844 253.210938 C 57.890625 253.210938 57.976562 253.253906 57.976562 253.34375 C 57.976562 253.433594 57.890625 253.476562 57.714844 253.476562 Z M 57.714844 255.070312 L 52.664062 255.070312 C 52.484375 255.070312 52.398438 255.027344 52.398438 254.9375 C 52.398438 254.851562 52.484375 254.804688 52.664062 254.804688 L 57.714844 254.804688 C 57.890625 254.804688 57.976562 254.851562 57.976562 254.9375 C 57.976562 255.027344 57.890625 255.070312 57.714844 255.070312 "/>
<path style=" stroke:none;fill-rule:nonzero;fill:rgb(0%,59.959412%,0%);fill-opacity:1;" d="M 64.695312 254.804688 L 64.429688 256.265625 L 61.242188 256.265625 C 61.242188 256.089844 61.285156 256 61.375 256 L 62.96875 254.140625 C 63.589844 253.433594 63.898438 252.8125 63.898438 252.28125 C 63.898438 251.75 63.722656 251.351562 63.367188 251.085938 C 63.191406 250.90625 62.96875 250.820312 62.703125 250.820312 C 62.347656 250.820312 62.039062 250.996094 61.773438 251.351562 C 61.683594 251.4375 61.640625 251.574219 61.640625 251.75 C 61.640625 251.75 61.683594 251.75 61.773438 251.75 C 61.949219 251.75 62.082031 251.835938 62.171875 252.015625 C 62.171875 252.105469 62.171875 252.148438 62.171875 252.148438 C 62.171875 252.414062 62.039062 252.546875 61.773438 252.546875 C 61.773438 252.636719 61.773438 252.679688 61.773438 252.679688 C 61.507812 252.679688 61.332031 252.589844 61.242188 252.414062 C 61.242188 252.324219 61.242188 252.238281 61.242188 252.148438 C 61.242188 251.707031 61.417969 251.351562 61.773438 251.085938 C 62.039062 250.730469 62.394531 250.554688 62.835938 250.554688 C 63.457031 250.554688 63.941406 250.773438 64.296875 251.21875 C 64.472656 251.484375 64.605469 251.792969 64.695312 252.148438 C 64.695312 252.148438 64.695312 252.191406 64.695312 252.28125 C 64.695312 252.636719 64.519531 253.035156 64.164062 253.476562 C 63.988281 253.652344 63.722656 253.875 63.367188 254.140625 L 62.96875 254.671875 L 62.835938 254.671875 L 61.90625 255.601562 L 63.5 255.601562 C 63.941406 255.601562 64.210938 255.601562 64.296875 255.601562 C 64.296875 255.515625 64.34375 255.25 64.429688 254.804688 L 64.695312 254.804688 "/>
<path style=" stroke:none;fill-rule:nonzero;fill:rgb(0%,59.959412%,0%);fill-opacity:1;" d="M 67.886719 253.742188 L 67.621094 254.804688 C 67.53125 255.25 67.484375 255.515625 67.484375 255.601562 C 67.484375 255.867188 67.574219 256.046875 67.753906 256.132812 C 67.839844 256.132812 67.929688 256.132812 68.019531 256.132812 C 68.285156 256.132812 68.503906 256 68.683594 255.734375 C 68.859375 255.558594 68.992188 255.335938 69.082031 255.070312 C 69.082031 254.984375 69.125 254.9375 69.214844 254.9375 C 69.300781 254.9375 69.347656 254.984375 69.347656 255.070312 C 69.347656 255.160156 69.257812 255.335938 69.082031 255.601562 C 68.726562 256.132812 68.371094 256.398438 68.019531 256.398438 C 67.574219 256.398438 67.265625 256.222656 67.089844 255.867188 C 67.089844 255.78125 67.089844 255.734375 67.089844 255.734375 C 66.910156 256 66.6875 256.179688 66.421875 256.265625 C 66.335938 256.355469 66.246094 256.398438 66.15625 256.398438 C 65.804688 256.398438 65.539062 256.265625 65.359375 256 C 65.359375 256 65.359375 255.914062 65.359375 255.734375 C 65.359375 255.558594 65.449219 255.425781 65.625 255.335938 C 65.714844 255.335938 65.757812 255.335938 65.757812 255.335938 C 65.9375 255.335938 66.070312 255.382812 66.15625 255.46875 C 66.15625 255.558594 66.15625 255.601562 66.15625 255.601562 C 66.15625 255.78125 66.070312 255.914062 65.890625 256 C 65.804688 256 65.757812 256 65.757812 256 C 65.847656 256.089844 65.980469 256.132812 66.15625 256.132812 C 66.421875 256.132812 66.644531 255.957031 66.824219 255.601562 C 66.910156 255.515625 66.957031 255.425781 66.957031 255.335938 C 67.21875 254.1875 67.351562 253.476562 67.351562 253.210938 C 67.351562 252.855469 67.21875 252.679688 66.957031 252.679688 C 66.6875 252.679688 66.421875 252.855469 66.15625 253.210938 C 66.070312 253.300781 65.980469 253.433594 65.890625 253.609375 C 65.890625 253.609375 65.890625 253.652344 65.890625 253.742188 L 65.757812 253.875 C 65.671875 253.875 65.625 253.875 65.625 253.875 C 65.625 253.699219 65.714844 253.476562 65.890625 253.210938 C 66.15625 252.769531 66.511719 252.546875 66.957031 252.546875 C 67.398438 252.546875 67.707031 252.769531 67.886719 253.210938 C 68.0625 252.855469 68.285156 252.636719 68.550781 252.546875 C 68.636719 252.546875 68.726562 252.546875 68.816406 252.546875 C 69.167969 252.546875 69.390625 252.636719 69.480469 252.8125 C 69.570312 252.902344 69.613281 252.988281 69.613281 253.078125 C 69.613281 253.34375 69.480469 253.476562 69.214844 253.476562 C 69.214844 253.566406 69.167969 253.609375 69.082031 253.609375 C 68.902344 253.609375 68.816406 253.519531 68.816406 253.34375 C 68.816406 253.34375 68.816406 253.300781 68.816406 253.210938 C 68.816406 253.035156 68.902344 252.902344 69.082031 252.8125 C 69.082031 252.8125 69.125 252.8125 69.214844 252.8125 C 69.125 252.722656 68.992188 252.679688 68.816406 252.679688 C 68.371094 252.679688 68.105469 252.988281 68.019531 253.609375 C 67.929688 253.609375 67.886719 253.652344 67.886719 253.742188 "/>
<path style=" stroke:none;fill-rule:nonzero;fill:rgb(0%,59.959412%,0%);fill-opacity:1;" d="M 77.425781 254.273438 L 72.773438 254.273438 C 72.597656 254.273438 72.507812 254.230469 72.507812 254.140625 C 72.507812 254.050781 72.597656 254.007812 72.773438 254.007812 L 77.425781 254.007812 C 77.601562 254.007812 77.691406 254.050781 77.691406 254.140625 C 77.691406 254.230469 77.601562 254.273438 77.425781 254.273438 "/>
<path style=" stroke:none;fill-rule:nonzero;fill:rgb(0%,59.959412%,0%);fill-opacity:1;" d="M 82.875 250.820312 L 82.875 255.601562 C 82.875 255.78125 82.917969 255.867188 83.007812 255.867188 C 83.09375 255.957031 83.316406 256 83.671875 256 L 83.9375 256 L 83.9375 256.265625 C 83.757812 256.265625 83.273438 256.265625 82.472656 256.265625 C 81.765625 256.265625 81.324219 256.265625 81.144531 256.265625 L 81.144531 256 L 81.410156 256 C 81.855469 256 82.121094 255.957031 82.210938 255.867188 C 82.210938 255.78125 82.210938 255.691406 82.210938 255.601562 L 82.210938 251.21875 C 81.945312 251.304688 81.589844 251.351562 81.144531 251.351562 L 81.144531 251.085938 C 81.765625 251.085938 82.253906 250.90625 82.605469 250.554688 C 82.785156 250.554688 82.875 250.597656 82.875 250.6875 C 82.875 250.6875 82.875 250.730469 82.875 250.820312 "/>
<path style=" stroke:none;fill-rule:nonzero;fill:rgb(100%,0%,0%);fill-opacity:1;" d="M 104.882812 174.046875 C 104.882812 174.988281 104.121094 175.746094 103.179688 175.746094 C 102.242188 175.746094 101.480469 174.988281 101.480469 174.046875 C 101.480469 173.109375 102.242188 172.347656 103.179688 172.347656 C 104.121094 172.347656 104.882812 173.109375 104.882812 174.046875 "/>
<path style="fill:none;stroke-width:10;stroke-linecap:round;stroke-linejoin:round;stroke:rgb(0%,0%,0%);stroke-opacity:1;stroke-miterlimit:10;" d="M 1048.828125 869.53125 C 1048.828125 860.117188 1041.210938 852.539062 1031.796875 852.539062 C 1022.421875 852.539062 1014.804688 860.117188 1014.804688 869.53125 C 1014.804688 878.90625 1022.421875 886.523438 1031.796875 886.523438 C 1041.210938 886.523438 1048.828125 878.90625 1048.828125 869.53125 Z M 1048.828125 869.53125 " transform="matrix(0.1,0,0,-0.1,0,261)"/>
</g>
</svg>
