<?xml version="1.0" encoding="UTF-8"?>
<svg xmlns="http://www.w3.org/2000/svg" xmlns:xlink="http://www.w3.org/1999/xlink" width="185pt" height="185pt" viewBox="0 0 185 185" version="1.1">
<g id="surface1">
<rect x="0" y="0" width="185" height="185" style="fill:rgb(100%,100%,100%);fill-opacity:1;stroke:none;"/>
<path style="fill:none;stroke-width:10;stroke-linecap:round;stroke-linejoin:round;stroke:rgb(75.389099%,75.389099%,75.389099%);stroke-opacity:1;stroke-miterlimit:10;" d="M 78.007812 1992.734375 L 78.007812 -315.9375 " transform="matrix(0.1,0,0,-0.1,0,185)"/>
<path style="fill:none;stroke-width:10;stroke-linecap:round;stroke-linejoin:round;stroke:rgb(75.389099%,75.389099%,75.389099%);stroke-opacity:1;stroke-miterlimit:10;" d="M 361.484375 1992.734375 L 361.484375 -315.9375 " transform="matrix(0.1,0,0,-0.1,0,185)"/>
<path style="fill:none;stroke-width:10;stroke-linecap:round;stroke-linejoin:round;stroke:rgb(75.389099%,75.389099%,75.389099%);stroke-opacity:1;stroke-miterlimit:10;" d="M 644.921875 1992.734375 L 644.921875 -315.9375 " transform="matrix(0.1,0,0,-0.1,0,185)"/>
<path style="fill:none;stroke-width:10;stroke-linecap:round;stroke-linejoin:round;stroke:rgb(75.389099%,75.389099%,75.389099%);stroke-opacity:1;stroke-miterlimit:10;" d="M 1211.875 1992.734375 L 1211.875 -315.9375 " transform="matrix(0.1,0,0,-0.1,0,185)"/>
<path style="fill:none;stroke-width:10;stroke-linecap:round;stroke-linejoin:round;stroke:rgb(75.389099%,75.389099%,75.389099%);stroke-opacity:1;stroke-miterlimit:10;" d="M 1495.351562 1992.734375 L 1495.351562 -315.9375 " transform="matrix(0.1,0,0,-0.1,0,185)"/>
<path style="fill:none;stroke-width:10;stroke-linecap:round;stroke-linejoin:round;stroke:rgb(75.389099%,75.389099%,75.389099%);stroke-opacity:1;stroke-miterlimit:10;" d="M 1778.789062 1992.734375 L 1778.789062 -315.9375 " transform="matrix(0.1,0,0,-0.1,0,185)"/>
<path style="fill:none;stroke-width:10;stroke-linecap:round;stroke-linejoin:round;stroke:rgb(94.139099%,94.139099%,94.139099%);stroke-opacity:1;stroke-miterlimit:10;" d="M 21.328125 1992.734375 L 21.328125 -315.9375 " transform="matrix(0.1,0,0,-0.1,0,185)"/>
<path style="fill:none;stroke-width:10;stroke-linecap:round;stroke-linejoin:round;stroke:rgb(94.139099%,94.139099%,94.139099%);stroke-opacity:1;stroke-miterlimit:10;" d="M 134.6875 1992.734375 L 134.6875 -315.9375 " transform="matrix(0.1,0,0,-0.1,0,185)"/>
<path style="fill:none;stroke-width:10;stroke-linecap:round;stroke-linejoin:round;stroke:rgb(94.139099%,94.139099%,94.139099%);stroke-opacity:1;stroke-miterlimit:10;" d="M 191.40625 1992.734375 L 191.40625 -315.9375 " transform="matrix(0.1,0,0,-0.1,0,185)"/>
<path style="fill:none;stroke-width:10;stroke-linecap:round;stroke-linejoin:round;stroke:rgb(94.139099%,94.139099%,94.139099%);stroke-opacity:1;stroke-miterlimit:10;" d="M 248.085938 1992.734375 L 248.085938 -315.9375 " transform="matrix(0.1,0,0,-0.1,0,185)"/>
<path style="fill:none;stroke-width:10;stroke-linecap:round;stroke-linejoin:round;stroke:rgb(94.139099%,94.139099%,94.139099%);stroke-opacity:1;stroke-miterlimit:10;" d="M 304.765625 1992.734375 L 304.765625 -315.9375 " transform="matrix(0.1,0,0,-0.1,0,185)"/>
<path style="fill:none;stroke-width:10;stroke-linecap:round;stroke-linejoin:round;stroke:rgb(94.139099%,94.139099%,94.139099%);stroke-opacity:1;stroke-miterlimit:10;" d="M 418.164062 1992.734375 L 418.164062 -315.9375 " transform="matrix(0.1,0,0,-0.1,0,185)"/>
<path style="fill:none;stroke-width:10;stroke-linecap:round;stroke-linejoin:round;stroke:rgb(94.139099%,94.139099%,94.139099%);stroke-opacity:1;stroke-miterlimit:10;" d="M 474.84375 1992.734375 L 474.84375 -315.9375 " transform="matrix(0.1,0,0,-0.1,0,185)"/>
<path style="fill:none;stroke-width:10;stroke-linecap:round;stroke-linejoin:round;stroke:rgb(94.139099%,94.139099%,94.139099%);stroke-opacity:1;stroke-miterlimit:10;" d="M 531.5625 1992.734375 L 531.5625 -315.9375 " transform="matrix(0.1,0,0,-0.1,0,185)"/>
<path style="fill:none;stroke-width:10;stroke-linecap:round;stroke-linejoin:round;stroke:rgb(94.139099%,94.139099%,94.139099%);stroke-opacity:1;stroke-miterlimit:10;" d="M 588.242188 1992.734375 L 588.242188 -315.9375 " transform="matrix(0.1,0,0,-0.1,0,185)"/>
<path style="fill:none;stroke-width:10;stroke-linecap:round;stroke-linejoin:round;stroke:rgb(94.139099%,94.139099%,94.139099%);stroke-opacity:1;stroke-miterlimit:10;" d="M 701.640625 1992.734375 L 701.640625 -315.9375 " transform="matrix(0.1,0,0,-0.1,0,185)"/>
<path style="fill:none;stroke-width:10;stroke-linecap:round;stroke-linejoin:round;stroke:rgb(94.139099%,94.139099%,94.139099%);stroke-opacity:1;stroke-miterlimit:10;" d="M 758.320312 1992.734375 L 758.320312 -315.9375 " transform="matrix(0.1,0,0,-0.1,0,185)"/>
<path style="fill:none;stroke-width:10;stroke-linecap:round;stroke-linejoin:round;stroke:rgb(94.139099%,94.139099%,94.139099%);stroke-opacity:1;stroke-miterlimit:10;" d="M 815.039062 1992.734375 L 815.039062 -315.9375 " transform="matrix(0.1,0,0,-0.1,0,185)"/>
<path style="fill:none;stroke-width:10;stroke-linecap:round;stroke-linejoin:round;stroke:rgb(94.139099%,94.139099%,94.139099%);stroke-opacity:1;stroke-miterlimit:10;" d="M 871.71875 1992.734375 L 871.71875 -315.9375 " transform="matrix(0.1,0,0,-0.1,0,185)"/>
<path style="fill:none;stroke-width:10;stroke-linecap:round;stroke-linejoin:round;stroke:rgb(94.139099%,94.139099%,94.139099%);stroke-opacity:1;stroke-miterlimit:10;" d="M 985.117188 1992.734375 L 985.117188 -315.9375 " transform="matrix(0.1,0,0,-0.1,0,185)"/>
<path style="fill:none;stroke-width:10;stroke-linecap:round;stroke-linejoin:round;stroke:rgb(94.139099%,94.139099%,94.139099%);stroke-opacity:1;stroke-miterlimit:10;" d="M 1041.796875 1992.734375 L 1041.796875 -315.9375 " transform="matrix(0.1,0,0,-0.1,0,185)"/>
<path style="fill:none;stroke-width:10;stroke-linecap:round;stroke-linejoin:round;stroke:rgb(94.139099%,94.139099%,94.139099%);stroke-opacity:1;stroke-miterlimit:10;" d="M 1098.476562 1992.734375 L 1098.476562 -315.9375 " transform="matrix(0.1,0,0,-0.1,0,185)"/>
<path style="fill:none;stroke-width:10;stroke-linecap:round;stroke-linejoin:round;stroke:rgb(94.139099%,94.139099%,94.139099%);stroke-opacity:1;stroke-miterlimit:10;" d="M 1155.195312 1992.734375 L 1155.195312 -315.9375 " transform="matrix(0.1,0,0,-0.1,0,185)"/>
<path style="fill:none;stroke-width:10;stroke-linecap:round;stroke-linejoin:round;stroke:rgb(94.139099%,94.139099%,94.139099%);stroke-opacity:1;stroke-miterlimit:10;" d="M 1268.554688 1992.734375 L 1268.554688 -315.9375 " transform="matrix(0.1,0,0,-0.1,0,185)"/>
<path style="fill:none;stroke-width:10;stroke-linecap:round;stroke-linejoin:round;stroke:rgb(94.139099%,94.139099%,94.139099%);stroke-opacity:1;stroke-miterlimit:10;" d="M 1325.273438 1992.734375 L 1325.273438 -315.9375 " transform="matrix(0.1,0,0,-0.1,0,185)"/>
<path style="fill:none;stroke-width:10;stroke-linecap:round;stroke-linejoin:round;stroke:rgb(94.139099%,94.139099%,94.139099%);stroke-opacity:1;stroke-miterlimit:10;" d="M 1381.953125 1992.734375 L 1381.953125 -315.9375 " transform="matrix(0.1,0,0,-0.1,0,185)"/>
<path style="fill:none;stroke-width:10;stroke-linecap:round;stroke-linejoin:round;stroke:rgb(94.139099%,94.139099%,94.139099%);stroke-opacity:1;stroke-miterlimit:10;" d="M 1438.632812 1992.734375 L 1438.632812 -315.9375 " transform="matrix(0.1,0,0,-0.1,0,185)"/>
<path style="fill:none;stroke-width:10;stroke-linecap:round;stroke-linejoin:round;stroke:rgb(94.139099%,94.139099%,94.139099%);stroke-opacity:1;stroke-miterlimit:10;" d="M 1552.03125 1992.734375 L 1552.03125 -315.9375 " transform="matrix(0.1,0,0,-0.1,0,185)"/>
<path style="fill:none;stroke-width:10;stroke-linecap:round;stroke-linejoin:round;stroke:rgb(94.139099%,94.139099%,94.139099%);stroke-opacity:1;stroke-miterlimit:10;" d="M 1608.710938 1992.734375 L 1608.710938 -315.9375 " transform="matrix(0.1,0,0,-0.1,0,185)"/>
<path style="fill:none;stroke-width:10;stroke-linecap:round;stroke-linejoin:round;stroke:rgb(94.139099%,94.139099%,94.139099%);stroke-opacity:1;stroke-miterlimit:10;" d="M 1665.390625 1992.734375 L 1665.390625 -315.9375 " transform="matrix(0.1,0,0,-0.1,0,185)"/>
<path style="fill:none;stroke-width:10;stroke-linecap:round;stroke-linejoin:round;stroke:rgb(94.139099%,94.139099%,94.139099%);stroke-opacity:1;stroke-miterlimit:10;" d="M 1722.109375 1992.734375 L 1722.109375 -315.9375 " transform="matrix(0.1,0,0,-0.1,0,185)"/>
<path style="fill:none;stroke-width:10;stroke-linecap:round;stroke-linejoin:round;stroke:rgb(94.139099%,94.139099%,94.139099%);stroke-opacity:1;stroke-miterlimit:10;" d="M 1835.507812 1992.734375 L 1835.507812 -315.9375 " transform="matrix(0.1,0,0,-0.1,0,185)"/>
<path style="fill:none;stroke-width:10;stroke-linecap:round;stroke-linejoin:round;stroke:rgb(75.389099%,75.389099%,75.389099%);stroke-opacity:1;stroke-miterlimit:10;" d="M -211.679688 1768.59375 L 2313.59375 1768.59375 " transform="matrix(0.1,0,0,-0.1,0,185)"/>
<path style="fill:none;stroke-width:10;stroke-linecap:round;stroke-linejoin:round;stroke:rgb(75.389099%,75.389099%,75.389099%);stroke-opacity:1;stroke-miterlimit:10;" d="M -211.679688 1768.59375 L 2313.59375 1768.59375 " transform="matrix(0.1,0,0,-0.1,0,185)"/>
<path style="fill:none;stroke-width:10;stroke-linecap:round;stroke-linejoin:round;stroke:rgb(75.389099%,75.389099%,75.389099%);stroke-opacity:1;stroke-miterlimit:10;" d="M -211.679688 1485.15625 L 2313.59375 1485.15625 " transform="matrix(0.1,0,0,-0.1,0,185)"/>
<path style="fill:none;stroke-width:10;stroke-linecap:round;stroke-linejoin:round;stroke:rgb(75.389099%,75.389099%,75.389099%);stroke-opacity:1;stroke-miterlimit:10;" d="M -211.679688 1201.679688 L 2313.59375 1201.679688 " transform="matrix(0.1,0,0,-0.1,0,185)"/>
<path style="fill:none;stroke-width:10;stroke-linecap:round;stroke-linejoin:round;stroke:rgb(75.389099%,75.389099%,75.389099%);stroke-opacity:1;stroke-miterlimit:10;" d="M -211.679688 634.726562 L 2313.59375 634.726562 " transform="matrix(0.1,0,0,-0.1,0,185)"/>
<path style="fill:none;stroke-width:10;stroke-linecap:round;stroke-linejoin:round;stroke:rgb(75.389099%,75.389099%,75.389099%);stroke-opacity:1;stroke-miterlimit:10;" d="M -211.679688 351.289062 L 2313.59375 351.289062 " transform="matrix(0.1,0,0,-0.1,0,185)"/>
<path style="fill:none;stroke-width:10;stroke-linecap:round;stroke-linejoin:round;stroke:rgb(75.389099%,75.389099%,75.389099%);stroke-opacity:1;stroke-miterlimit:10;" d="M -211.679688 67.8125 L 2313.59375 67.8125 " transform="matrix(0.1,0,0,-0.1,0,185)"/>
<path style="fill:none;stroke-width:10;stroke-linecap:round;stroke-linejoin:round;stroke:rgb(94.139099%,94.139099%,94.139099%);stroke-opacity:1;stroke-miterlimit:10;" d="M -211.679688 1825.273438 L 2313.59375 1825.273438 " transform="matrix(0.1,0,0,-0.1,0,185)"/>
<path style="fill:none;stroke-width:10;stroke-linecap:round;stroke-linejoin:round;stroke:rgb(94.139099%,94.139099%,94.139099%);stroke-opacity:1;stroke-miterlimit:10;" d="M -211.679688 1711.914062 L 2313.59375 1711.914062 " transform="matrix(0.1,0,0,-0.1,0,185)"/>
<path style="fill:none;stroke-width:10;stroke-linecap:round;stroke-linejoin:round;stroke:rgb(94.139099%,94.139099%,94.139099%);stroke-opacity:1;stroke-miterlimit:10;" d="M -211.679688 1655.195312 L 2313.59375 1655.195312 " transform="matrix(0.1,0,0,-0.1,0,185)"/>
<path style="fill:none;stroke-width:10;stroke-linecap:round;stroke-linejoin:round;stroke:rgb(94.139099%,94.139099%,94.139099%);stroke-opacity:1;stroke-miterlimit:10;" d="M -211.679688 1598.515625 L 2313.59375 1598.515625 " transform="matrix(0.1,0,0,-0.1,0,185)"/>
<path style="fill:none;stroke-width:10;stroke-linecap:round;stroke-linejoin:round;stroke:rgb(94.139099%,94.139099%,94.139099%);stroke-opacity:1;stroke-miterlimit:10;" d="M -211.679688 1541.835938 L 2313.59375 1541.835938 " transform="matrix(0.1,0,0,-0.1,0,185)"/>
<path style="fill:none;stroke-width:10;stroke-linecap:round;stroke-linejoin:round;stroke:rgb(94.139099%,94.139099%,94.139099%);stroke-opacity:1;stroke-miterlimit:10;" d="M -211.679688 1428.4375 L 2313.59375 1428.4375 " transform="matrix(0.1,0,0,-0.1,0,185)"/>
<path style="fill:none;stroke-width:10;stroke-linecap:round;stroke-linejoin:round;stroke:rgb(94.139099%,94.139099%,94.139099%);stroke-opacity:1;stroke-miterlimit:10;" d="M -211.679688 1371.757812 L 2313.59375 1371.757812 " transform="matrix(0.1,0,0,-0.1,0,185)"/>
<path style="fill:none;stroke-width:10;stroke-linecap:round;stroke-linejoin:round;stroke:rgb(94.139099%,94.139099%,94.139099%);stroke-opacity:1;stroke-miterlimit:10;" d="M -211.679688 1315.078125 L 2313.59375 1315.078125 " transform="matrix(0.1,0,0,-0.1,0,185)"/>
<path style="fill:none;stroke-width:10;stroke-linecap:round;stroke-linejoin:round;stroke:rgb(94.139099%,94.139099%,94.139099%);stroke-opacity:1;stroke-miterlimit:10;" d="M -211.679688 1258.359375 L 2313.59375 1258.359375 " transform="matrix(0.1,0,0,-0.1,0,185)"/>
<path style="fill:none;stroke-width:10;stroke-linecap:round;stroke-linejoin:round;stroke:rgb(94.139099%,94.139099%,94.139099%);stroke-opacity:1;stroke-miterlimit:10;" d="M -211.679688 1144.960938 L 2313.59375 1144.960938 " transform="matrix(0.1,0,0,-0.1,0,185)"/>
<path style="fill:none;stroke-width:10;stroke-linecap:round;stroke-linejoin:round;stroke:rgb(94.139099%,94.139099%,94.139099%);stroke-opacity:1;stroke-miterlimit:10;" d="M -211.679688 1088.28125 L 2313.59375 1088.28125 " transform="matrix(0.1,0,0,-0.1,0,185)"/>
<path style="fill:none;stroke-width:10;stroke-linecap:round;stroke-linejoin:round;stroke:rgb(94.139099%,94.139099%,94.139099%);stroke-opacity:1;stroke-miterlimit:10;" d="M -211.679688 1031.601562 L 2313.59375 1031.601562 " transform="matrix(0.1,0,0,-0.1,0,185)"/>
<path style="fill:none;stroke-width:10;stroke-linecap:round;stroke-linejoin:round;stroke:rgb(94.139099%,94.139099%,94.139099%);stroke-opacity:1;stroke-miterlimit:10;" d="M -211.679688 974.882812 L 2313.59375 974.882812 " transform="matrix(0.1,0,0,-0.1,0,185)"/>
<path style="fill:none;stroke-width:10;stroke-linecap:round;stroke-linejoin:round;stroke:rgb(94.139099%,94.139099%,94.139099%);stroke-opacity:1;stroke-miterlimit:10;" d="M -211.679688 861.523438 L 2313.59375 861.523438 " transform="matrix(0.1,0,0,-0.1,0,185)"/>
<path style="fill:none;stroke-width:10;stroke-linecap:round;stroke-linejoin:round;stroke:rgb(94.139099%,94.139099%,94.139099%);stroke-opacity:1;stroke-miterlimit:10;" d="M -211.679688 804.804688 L 2313.59375 804.804688 " transform="matrix(0.1,0,0,-0.1,0,185)"/>
<path style="fill:none;stroke-width:10;stroke-linecap:round;stroke-linejoin:round;stroke:rgb(94.139099%,94.139099%,94.139099%);stroke-opacity:1;stroke-miterlimit:10;" d="M -211.679688 748.125 L 2313.59375 748.125 " transform="matrix(0.1,0,0,-0.1,0,185)"/>
<path style="fill:none;stroke-width:10;stroke-linecap:round;stroke-linejoin:round;stroke:rgb(94.139099%,94.139099%,94.139099%);stroke-opacity:1;stroke-miterlimit:10;" d="M -211.679688 691.445312 L 2313.59375 691.445312 " transform="matrix(0.1,0,0,-0.1,0,185)"/>
<path style="fill:none;stroke-width:10;stroke-linecap:round;stroke-linejoin:round;stroke:rgb(94.139099%,94.139099%,94.139099%);stroke-opacity:1;stroke-miterlimit:10;" d="M -211.679688 578.046875 L 2313.59375 578.046875 " transform="matrix(0.1,0,0,-0.1,0,185)"/>
<path style="fill:none;stroke-width:10;stroke-linecap:round;stroke-linejoin:round;stroke:rgb(94.139099%,94.139099%,94.139099%);stroke-opacity:1;stroke-miterlimit:10;" d="M -211.679688 521.367188 L 2313.59375 521.367188 " transform="matrix(0.1,0,0,-0.1,0,185)"/>
<path style="fill:none;stroke-width:10;stroke-linecap:round;stroke-linejoin:round;stroke:rgb(94.139099%,94.139099%,94.139099%);stroke-opacity:1;stroke-miterlimit:10;" d="M -211.679688 464.648438 L 2313.59375 464.648438 " transform="matrix(0.1,0,0,-0.1,0,185)"/>
<path style="fill:none;stroke-width:10;stroke-linecap:round;stroke-linejoin:round;stroke:rgb(94.139099%,94.139099%,94.139099%);stroke-opacity:1;stroke-miterlimit:10;" d="M -211.679688 407.96875 L 2313.59375 407.96875 " transform="matrix(0.1,0,0,-0.1,0,185)"/>
<path style="fill:none;stroke-width:10;stroke-linecap:round;stroke-linejoin:round;stroke:rgb(94.139099%,94.139099%,94.139099%);stroke-opacity:1;stroke-miterlimit:10;" d="M -211.679688 294.570312 L 2313.59375 294.570312 " transform="matrix(0.1,0,0,-0.1,0,185)"/>
<path style="fill:none;stroke-width:10;stroke-linecap:round;stroke-linejoin:round;stroke:rgb(94.139099%,94.139099%,94.139099%);stroke-opacity:1;stroke-miterlimit:10;" d="M -211.679688 237.890625 L 2313.59375 237.890625 " transform="matrix(0.1,0,0,-0.1,0,185)"/>
<path style="fill:none;stroke-width:10;stroke-linecap:round;stroke-linejoin:round;stroke:rgb(94.139099%,94.139099%,94.139099%);stroke-opacity:1;stroke-miterlimit:10;" d="M -211.679688 181.210938 L 2313.59375 181.210938 " transform="matrix(0.1,0,0,-0.1,0,185)"/>
<path style="fill:none;stroke-width:10;stroke-linecap:round;stroke-linejoin:round;stroke:rgb(94.139099%,94.139099%,94.139099%);stroke-opacity:1;stroke-miterlimit:10;" d="M -211.679688 124.492188 L 2313.59375 124.492188 " transform="matrix(0.1,0,0,-0.1,0,185)"/>
<path style="fill:none;stroke-width:10;stroke-linecap:round;stroke-linejoin:round;stroke:rgb(94.139099%,94.139099%,94.139099%);stroke-opacity:1;stroke-miterlimit:10;" d="M -211.679688 11.132812 L 2313.59375 11.132812 " transform="matrix(0.1,0,0,-0.1,0,185)"/>
<path style="fill:none;stroke-width:10;stroke-linecap:butt;stroke-linejoin:miter;stroke:rgb(0%,0%,0%);stroke-opacity:1;stroke-miterlimit:10;" d="M 928.398438 1982.890625 L 928.398438 -315.9375 " transform="matrix(0.1,0,0,-0.1,0,185)"/>
<path style="fill:none;stroke-width:10;stroke-linecap:butt;stroke-linejoin:miter;stroke:rgb(0%,0%,0%);stroke-opacity:1;stroke-miterlimit:10;" d="M -211.679688 918.203125 L 2303.75 918.203125 " transform="matrix(0.1,0,0,-0.1,0,185)"/>
<path style=" stroke:none;fill-rule:nonzero;fill:rgb(0%,0%,0%);fill-opacity:1;" d="M 5.226562 99.34375 L 5.226562 98.953125 L 7.574219 98.953125 L 7.574219 99.34375 Z M 8.476562 100.878906 L 8.476562 100.347656 C 8.882812 100.511719 9.203125 100.59375 9.4375 100.59375 C 9.710938 100.59375 9.929688 100.511719 10.101562 100.355469 C 10.273438 100.195312 10.355469 99.988281 10.355469 99.738281 C 10.355469 99.136719 9.9375 98.839844 9.097656 98.839844 L 8.871094 98.839844 L 8.871094 98.453125 L 9.070312 98.453125 C 9.859375 98.453125 10.253906 98.171875 10.253906 97.617188 C 10.253906 97.179688 9.992188 96.964844 9.472656 96.964844 C 9.1875 96.964844 8.875 97.042969 8.535156 97.203125 L 8.535156 96.707031 C 8.871094 96.59375 9.199219 96.535156 9.515625 96.535156 C 10.386719 96.535156 10.824219 96.867188 10.824219 97.527344 C 10.824219 98.027344 10.527344 98.386719 9.933594 98.597656 C 10.621094 98.757812 10.964844 99.136719 10.964844 99.730469 C 10.964844 100.132812 10.832031 100.445312 10.566406 100.675781 C 10.300781 100.90625 9.9375 101.019531 9.472656 101.019531 C 9.210938 101.019531 8.878906 100.972656 8.476562 100.878906 "/>
<path style=" stroke:none;fill-rule:nonzero;fill:rgb(0%,0%,0%);fill-opacity:1;" d="M 33.777344 99.34375 L 33.777344 98.953125 L 36.125 98.953125 L 36.125 99.34375 Z M 36.917969 100.910156 L 36.917969 100.414062 C 37.082031 100.027344 37.417969 99.605469 37.921875 99.148438 L 38.246094 98.859375 C 38.664062 98.480469 38.875 98.101562 38.875 97.730469 C 38.875 97.492188 38.804688 97.304688 38.660156 97.167969 C 38.519531 97.03125 38.320312 96.964844 38.070312 96.964844 C 37.773438 96.964844 37.425781 97.078125 37.023438 97.304688 L 37.023438 96.804688 C 37.402344 96.625 37.777344 96.535156 38.152344 96.535156 C 38.550781 96.535156 38.871094 96.644531 39.113281 96.859375 C 39.355469 97.074219 39.476562 97.359375 39.476562 97.714844 C 39.476562 97.972656 39.417969 98.199219 39.296875 98.398438 C 39.171875 98.59375 38.945312 98.835938 38.613281 99.117188 L 38.394531 99.304688 C 37.9375 99.691406 37.675781 100.0625 37.601562 100.414062 L 39.457031 100.414062 L 39.457031 100.910156 "/>
<path style=" stroke:none;fill-rule:nonzero;fill:rgb(0%,0%,0%);fill-opacity:1;" d="M 62.328125 99.34375 L 62.328125 98.953125 L 64.675781 98.953125 L 64.675781 99.34375 Z M 65.867188 100.910156 L 65.867188 100.484375 L 66.71875 100.484375 L 66.71875 97.117188 L 65.867188 97.328125 L 65.867188 96.890625 L 67.289062 96.535156 L 67.289062 100.484375 L 68.144531 100.484375 L 68.144531 100.910156 "/>
<path style=" stroke:none;fill-rule:nonzero;fill:rgb(0%,0%,0%);fill-opacity:1;" d="M 120.996094 100.910156 L 120.996094 100.484375 L 121.851562 100.484375 L 121.851562 97.117188 L 120.996094 97.328125 L 120.996094 96.890625 L 122.421875 96.535156 L 122.421875 100.484375 L 123.277344 100.484375 L 123.277344 100.910156 "/>
<path style=" stroke:none;fill-rule:nonzero;fill:rgb(0%,0%,0%);fill-opacity:1;" d="M 148.660156 100.910156 L 148.660156 100.414062 C 148.824219 100.027344 149.160156 99.605469 149.664062 99.148438 L 149.988281 98.859375 C 150.40625 98.480469 150.617188 98.101562 150.617188 97.730469 C 150.617188 97.492188 150.546875 97.304688 150.402344 97.167969 C 150.257812 97.03125 150.0625 96.964844 149.8125 96.964844 C 149.515625 96.964844 149.167969 97.078125 148.765625 97.304688 L 148.765625 96.804688 C 149.144531 96.625 149.519531 96.535156 149.894531 96.535156 C 150.292969 96.535156 150.613281 96.644531 150.855469 96.859375 C 151.097656 97.074219 151.21875 97.359375 151.21875 97.714844 C 151.21875 97.972656 151.160156 98.199219 151.035156 98.398438 C 150.914062 98.59375 150.6875 98.835938 150.355469 99.117188 L 150.136719 99.304688 C 149.679688 99.691406 149.414062 100.0625 149.34375 100.414062 L 151.199219 100.414062 L 151.199219 100.910156 "/>
<path style=" stroke:none;fill-rule:nonzero;fill:rgb(0%,0%,0%);fill-opacity:1;" d="M 177.320312 100.878906 L 177.320312 100.347656 C 177.726562 100.511719 178.046875 100.59375 178.28125 100.59375 C 178.554688 100.59375 178.773438 100.511719 178.945312 100.355469 C 179.113281 100.195312 179.199219 99.988281 179.199219 99.738281 C 179.199219 99.136719 178.78125 98.839844 177.9375 98.839844 L 177.714844 98.839844 L 177.714844 98.453125 L 177.914062 98.453125 C 178.703125 98.453125 179.097656 98.171875 179.097656 97.617188 C 179.097656 97.179688 178.835938 96.964844 178.316406 96.964844 C 178.03125 96.964844 177.71875 97.042969 177.378906 97.203125 L 177.378906 96.707031 C 177.714844 96.59375 178.039062 96.535156 178.355469 96.535156 C 179.230469 96.535156 179.667969 96.867188 179.667969 97.527344 C 179.667969 98.027344 179.371094 98.386719 178.777344 98.597656 C 179.464844 98.757812 179.808594 99.136719 179.808594 99.730469 C 179.808594 100.132812 179.675781 100.445312 179.410156 100.675781 C 179.144531 100.90625 178.78125 101.019531 178.316406 101.019531 C 178.054688 101.019531 177.722656 100.972656 177.320312 100.878906 "/>
<path style=" stroke:none;fill-rule:nonzero;fill:rgb(0%,0%,0%);fill-opacity:1;" d="M 82.507812 179.089844 L 82.507812 178.699219 L 84.855469 178.699219 L 84.855469 179.089844 Z M 85.761719 180.625 L 85.761719 180.09375 C 86.167969 180.257812 86.488281 180.335938 86.722656 180.335938 C 86.996094 180.335938 87.214844 180.257812 87.386719 180.097656 C 87.554688 179.941406 87.640625 179.734375 87.640625 179.484375 C 87.640625 178.882812 87.21875 178.582031 86.378906 178.582031 L 86.15625 178.582031 L 86.15625 178.199219 L 86.355469 178.195312 C 87.144531 178.195312 87.535156 177.917969 87.535156 177.363281 C 87.535156 176.925781 87.277344 176.707031 86.757812 176.707031 C 86.472656 176.707031 86.160156 176.789062 85.816406 176.949219 L 85.816406 176.453125 C 86.152344 176.339844 86.480469 176.28125 86.796875 176.28125 C 87.671875 176.28125 88.109375 176.613281 88.109375 177.269531 C 88.109375 177.773438 87.808594 178.128906 87.214844 178.34375 C 87.90625 178.503906 88.25 178.878906 88.25 179.476562 C 88.25 179.875 88.117188 180.191406 87.851562 180.421875 C 87.585938 180.648438 87.222656 180.765625 86.757812 180.765625 C 86.496094 180.765625 86.160156 180.71875 85.761719 180.625 "/>
<path style=" stroke:none;fill-rule:nonzero;fill:rgb(0%,0%,0%);fill-opacity:1;" d="M 82.507812 150.539062 L 82.507812 150.148438 L 84.855469 150.148438 L 84.855469 150.539062 Z M 85.652344 152.105469 L 85.652344 151.605469 C 85.816406 151.222656 86.152344 150.800781 86.652344 150.34375 L 86.980469 150.050781 C 87.398438 149.671875 87.609375 149.296875 87.609375 148.925781 C 87.609375 148.6875 87.535156 148.5 87.394531 148.363281 C 87.25 148.226562 87.054688 148.15625 86.804688 148.15625 C 86.507812 148.15625 86.160156 148.273438 85.757812 148.5 L 85.757812 148 C 86.136719 147.820312 86.511719 147.730469 86.886719 147.730469 C 87.285156 147.730469 87.605469 147.839844 87.847656 148.054688 C 88.089844 148.269531 88.210938 148.554688 88.210938 148.910156 C 88.210938 149.167969 88.152344 149.394531 88.027344 149.589844 C 87.90625 149.789062 87.679688 150.03125 87.347656 150.3125 L 87.128906 150.5 C 86.671875 150.886719 86.40625 151.253906 86.335938 151.605469 L 88.191406 151.605469 L 88.191406 152.105469 "/>
<path style=" stroke:none;fill-rule:nonzero;fill:rgb(0%,0%,0%);fill-opacity:1;" d="M 82.507812 121.988281 L 82.507812 121.597656 L 84.855469 121.597656 L 84.855469 121.988281 Z M 86.046875 123.554688 L 86.046875 123.128906 L 86.902344 123.128906 L 86.902344 119.761719 L 86.046875 119.972656 L 86.046875 119.535156 L 87.472656 119.179688 L 87.472656 123.128906 L 88.328125 123.128906 L 88.328125 123.554688 "/>
<path style=" stroke:none;fill-rule:nonzero;fill:rgb(0%,0%,0%);fill-opacity:1;" d="M 86.046875 66.945312 L 86.046875 66.519531 L 86.902344 66.519531 L 86.902344 63.152344 L 86.046875 63.363281 L 86.046875 62.925781 L 87.472656 62.570312 L 87.472656 66.519531 L 88.328125 66.519531 L 88.328125 66.945312 "/>
<path style=" stroke:none;fill-rule:nonzero;fill:rgb(0%,0%,0%);fill-opacity:1;" d="M 85.652344 38.886719 L 85.652344 38.390625 C 85.816406 38.003906 86.152344 37.582031 86.652344 37.125 L 86.980469 36.835938 C 87.398438 36.453125 87.609375 36.078125 87.609375 35.707031 C 87.609375 35.46875 87.535156 35.28125 87.394531 35.144531 C 87.25 35.007812 87.054688 34.9375 86.804688 34.9375 C 86.507812 34.9375 86.160156 35.054688 85.757812 35.28125 L 85.757812 34.78125 C 86.136719 34.601562 86.511719 34.511719 86.886719 34.511719 C 87.285156 34.511719 87.605469 34.621094 87.847656 34.835938 C 88.089844 35.050781 88.210938 35.335938 88.210938 35.691406 C 88.210938 35.949219 88.152344 36.175781 88.027344 36.371094 C 87.90625 36.570312 87.679688 36.8125 87.347656 37.09375 L 87.128906 37.28125 C 86.671875 37.667969 86.40625 38.035156 86.335938 38.390625 L 88.191406 38.390625 L 88.191406 38.886719 "/>
<path style=" stroke:none;fill-rule:nonzero;fill:rgb(0%,0%,0%);fill-opacity:1;" d="M 85.761719 10.304688 L 85.761719 9.773438 C 86.167969 9.9375 86.488281 10.015625 86.722656 10.015625 C 86.996094 10.015625 87.214844 9.9375 87.386719 9.777344 C 87.554688 9.621094 87.640625 9.414062 87.640625 9.164062 C 87.640625 8.5625 87.21875 8.265625 86.378906 8.265625 L 86.15625 8.265625 L 86.15625 7.878906 L 86.355469 7.878906 C 87.144531 7.878906 87.535156 7.597656 87.535156 7.042969 C 87.535156 6.605469 87.277344 6.390625 86.757812 6.390625 C 86.472656 6.390625 86.160156 6.46875 85.816406 6.628906 L 85.816406 6.132812 C 86.152344 6.019531 86.480469 5.960938 86.796875 5.960938 C 87.671875 5.960938 88.109375 6.292969 88.109375 6.949219 C 88.109375 7.453125 87.808594 7.8125 87.214844 8.023438 C 87.90625 8.183594 88.25 8.5625 88.25 9.15625 C 88.25 9.558594 88.117188 9.871094 87.851562 10.101562 C 87.585938 10.328125 87.222656 10.445312 86.757812 10.445312 C 86.496094 10.445312 86.160156 10.398438 85.761719 10.304688 "/>
<path style=" stroke:none;fill-rule:nonzero;fill:rgb(0%,0%,0%);fill-opacity:1;" d="M 87.011719 101.019531 C 86.570312 101.019531 86.214844 100.8125 85.941406 100.398438 C 85.671875 99.984375 85.535156 99.441406 85.535156 98.773438 C 85.535156 98.101562 85.671875 97.558594 85.945312 97.152344 C 86.21875 96.742188 86.582031 96.535156 87.027344 96.535156 C 87.476562 96.535156 87.839844 96.742188 88.113281 97.152344 C 88.386719 97.558594 88.523438 98.097656 88.523438 98.765625 C 88.523438 99.449219 88.386719 99.996094 88.113281 100.40625 C 87.839844 100.816406 87.472656 101.019531 87.011719 101.019531 Z M 87.019531 100.59375 C 87.617188 100.59375 87.921875 99.980469 87.921875 98.757812 C 87.921875 97.5625 87.621094 96.964844 87.027344 96.964844 C 86.4375 96.964844 86.140625 97.566406 86.140625 98.773438 C 86.140625 99.984375 86.433594 100.59375 87.019531 100.59375 "/>
<path style="fill:none;stroke-width:25;stroke-linecap:round;stroke-linejoin:round;stroke:rgb(30.200195%,30.200195%,100%);stroke-opacity:1;stroke-miterlimit:10;" d="M -205.46875 1626.875 L -191.953125 1640.078125 M -191.953125 1640.078125 L -172.226562 1658.164062 M -172.226562 1658.164062 L -152.5 1674.882812 L -132.773438 1690.234375 M -132.773438 1690.234375 L -113.007812 1704.21875 L -93.28125 1716.835938 L -73.554688 1728.085938 L -53.828125 1737.929688 M -53.828125 1737.929688 L -34.101562 1746.445312 L -14.375 1753.554688 L 5.351562 1759.296875 L 25.078125 1763.671875 L 44.804688 1766.640625 L 64.53125 1768.28125 L 84.257812 1768.515625 L 103.984375 1767.421875 M 103.984375 1767.421875 L 123.710938 1764.921875 L 143.4375 1761.054688 L 163.164062 1755.820312 L 182.890625 1749.21875 L 202.617188 1741.210938 L 222.34375 1731.835938 L 242.109375 1721.09375 L 261.796875 1709.023438 L 281.5625 1695.546875 L 301.289062 1680.664062 L 321.015625 1664.453125 L 340.742188 1646.875 L 360.46875 1627.890625 L 380.195312 1607.539062 L 399.921875 1585.820312 L 419.648438 1562.734375 M 419.648438 1562.734375 L 439.375 1538.28125 L 459.101562 1512.421875 L 478.828125 1485.234375 L 498.554688 1456.640625 L 518.28125 1426.679688 L 538.007812 1395.351562 L 557.734375 1362.65625 L 577.460938 1328.554688 L 597.1875 1293.125 L 616.953125 1256.289062 L 636.640625 1218.125 L 656.40625 1178.554688 L 676.132812 1137.617188 L 695.859375 1095.273438 L 715.585938 1051.601562 L 735.3125 1006.523438 M 735.3125 1006.523438 L 755.039062 960.117188 L 774.765625 912.304688 L 794.492188 863.125 L 804.335938 838.007812 L 814.21875 812.578125 L 824.0625 786.796875 L 833.945312 760.664062 L 843.828125 734.179688 L 853.671875 707.34375 L 863.554688 680.195312 L 873.398438 652.695312 L 883.28125 624.84375 L 893.125 596.640625 M 893.125 596.640625 L 903.007812 568.085938 L 912.851562 539.21875 M 912.851562 539.21875 L 928.398438 493.007812 " transform="matrix(0.1,0,0,-0.1,0,185)"/>
<path style="fill:none;stroke-width:25;stroke-linecap:round;stroke-linejoin:round;stroke:rgb(30.200195%,30.200195%,100%);stroke-opacity:1;stroke-miterlimit:10;" d="M 928.398438 493.007812 L 932.578125 505.546875 M 932.578125 505.546875 L 942.460938 534.804688 L 952.304688 563.75 L 962.1875 592.34375 L 972.03125 620.585938 M 972.03125 620.585938 L 981.914062 648.476562 L 991.757812 676.015625 L 1001.640625 703.242188 L 1011.484375 730.117188 L 1021.367188 756.640625 L 1031.210938 782.851562 L 1041.09375 808.671875 L 1050.976562 834.179688 M 1050.976562 834.179688 L 1060.820312 859.335938 L 1070.703125 884.140625 L 1090.429688 932.734375 L 1110.15625 979.960938 L 1129.882812 1025.820312 L 1149.609375 1070.3125 L 1169.335938 1113.398438 L 1189.0625 1155.15625 L 1208.789062 1195.507812 L 1228.515625 1234.492188 L 1248.242188 1272.109375 L 1267.96875 1308.320312 L 1287.695312 1343.203125 L 1307.421875 1376.679688 L 1327.148438 1408.828125 L 1346.875 1439.53125 L 1366.601562 1468.945312 L 1386.367188 1496.914062 L 1406.09375 1523.554688 L 1425.78125 1548.828125 L 1445.546875 1572.695312 L 1465.273438 1595.195312 L 1485 1616.328125 L 1504.726562 1636.09375 L 1524.453125 1654.492188 L 1544.179688 1671.484375 L 1563.90625 1687.148438 L 1583.632812 1701.40625 L 1603.359375 1714.296875 L 1623.085938 1725.859375 L 1642.8125 1735.976562 L 1662.539062 1744.765625 L 1682.265625 1752.1875 M 1682.265625 1752.1875 L 1701.992188 1758.203125 L 1721.71875 1762.851562 L 1741.445312 1766.132812 L 1761.171875 1768.046875 L 1780.9375 1768.59375 L 1800.664062 1767.773438 L 1820.390625 1765.546875 L 1840.117188 1761.953125 L 1859.84375 1757.03125 L 1879.570312 1750.703125 L 1899.296875 1743.007812 L 1919.023438 1733.90625 L 1938.75 1723.476562 L 1958.476562 1711.640625 L 1978.203125 1698.476562 L 1997.929688 1683.90625 M 1997.929688 1683.90625 L 2017.65625 1667.96875 L 2037.382812 1650.664062 M 2037.382812 1650.664062 L 2057.109375 1631.953125 M 2057.109375 1631.953125 L 2062.265625 1626.875 " transform="matrix(0.1,0,0,-0.1,0,185)"/>
</g>
</svg>
