<?xml version="1.0" encoding="UTF-8"?>
<svg xmlns="http://www.w3.org/2000/svg" xmlns:xlink="http://www.w3.org/1999/xlink" width="277pt" height="260pt" viewBox="0 0 277 260" version="1.1">
<g id="surface1">
<rect x="0" y="0" width="277" height="260" style="fill:rgb(100%,100%,100%);fill-opacity:1;stroke:none;"/>
<path style="fill:none;stroke-width:10;stroke-linecap:butt;stroke-linejoin:miter;stroke:rgb(0%,0%,0%);stroke-opacity:1;stroke-miterlimit:10;" d="M 286.757812 3438.242188 L 286.757812 -614.648438 " transform="matrix(0.1,0,0,-0.1,0,260)"/>
<path style="fill:none;stroke-width:10;stroke-linecap:butt;stroke-linejoin:miter;stroke:rgb(0%,0%,0%);stroke-opacity:1;stroke-miterlimit:10;" d="M -475.273438 2403.007812 L 3404.765625 2403.007812 " transform="matrix(0.1,0,0,-0.1,0,260)"/>
<path style=" stroke:none;fill-rule:nonzero;fill:rgb(0%,0%,0%);fill-opacity:1;" d="M 36.410156 31.265625 C 35.765625 31.265625 35.246094 30.960938 34.847656 30.355469 C 34.449219 29.75 34.25 28.960938 34.25 27.984375 C 34.25 26.996094 34.449219 26.207031 34.851562 25.605469 C 35.253906 25.007812 35.78125 24.710938 36.4375 24.710938 C 37.09375 24.710938 37.621094 25.007812 38.019531 25.605469 C 38.421875 26.207031 38.621094 26.992188 38.621094 27.96875 C 38.621094 28.972656 38.421875 29.769531 38.019531 30.367188 C 37.621094 30.96875 37.082031 31.265625 36.410156 31.265625 Z M 36.417969 30.640625 C 37.300781 30.640625 37.738281 29.746094 37.738281 27.957031 C 37.738281 26.207031 37.304688 25.332031 36.4375 25.332031 C 35.570312 25.332031 35.136719 26.214844 35.136719 27.984375 C 35.136719 29.753906 35.5625 30.640625 36.417969 30.640625 "/>
<path style="fill:none;stroke-width:10;stroke-linecap:butt;stroke-linejoin:miter;stroke:rgb(0%,0%,0%);stroke-opacity:1;stroke-miterlimit:10;" d="M 286.757812 2403.007812 L 286.757812 2368.4375 " transform="matrix(0.1,0,0,-0.1,0,260)"/>
<path style=" stroke:none;fill-rule:nonzero;fill:rgb(0%,0%,0%);fill-opacity:1;" d="M 84.539062 31.109375 L 84.539062 30.378906 C 84.78125 29.8125 85.273438 29.199219 86.007812 28.53125 L 86.484375 28.105469 C 87.097656 27.550781 87.40625 27 87.40625 26.453125 C 87.40625 26.105469 87.300781 25.832031 87.089844 25.632812 C 86.882812 25.433594 86.59375 25.332031 86.226562 25.332031 C 85.792969 25.332031 85.285156 25.5 84.695312 25.835938 L 84.695312 25.101562 C 85.25 24.839844 85.800781 24.710938 86.347656 24.710938 C 86.929688 24.710938 87.402344 24.867188 87.753906 25.179688 C 88.109375 25.496094 88.285156 25.914062 88.285156 26.433594 C 88.285156 26.808594 88.199219 27.140625 88.019531 27.429688 C 87.839844 27.71875 87.507812 28.070312 87.019531 28.484375 L 86.699219 28.757812 C 86.035156 29.324219 85.648438 29.863281 85.542969 30.378906 L 88.257812 30.378906 L 88.257812 31.109375 "/>
<path style="fill:none;stroke-width:10;stroke-linecap:butt;stroke-linejoin:miter;stroke:rgb(0%,0%,0%);stroke-opacity:1;stroke-miterlimit:10;" d="M 853.710938 2403.007812 L 853.710938 2368.4375 " transform="matrix(0.1,0,0,-0.1,0,260)"/>
<path style=" stroke:none;fill-rule:nonzero;fill:rgb(0%,0%,0%);fill-opacity:1;" d="M 143.246094 31.109375 L 143.246094 29.339844 L 140.4375 29.339844 L 140.4375 28.714844 L 143.246094 24.863281 L 144.027344 24.863281 L 144.027344 28.660156 L 144.863281 28.660156 L 144.863281 29.339844 L 144.027344 29.339844 L 144.027344 31.109375 Z M 141.25 28.660156 L 143.300781 28.660156 L 143.300781 25.886719 "/>
<path style="fill:none;stroke-width:10;stroke-linecap:butt;stroke-linejoin:miter;stroke:rgb(0%,0%,0%);stroke-opacity:1;stroke-miterlimit:10;" d="M 1420.625 2403.007812 L 1420.625 2368.4375 " transform="matrix(0.1,0,0,-0.1,0,260)"/>
<path style=" stroke:none;fill-rule:nonzero;fill:rgb(0%,0%,0%);fill-opacity:1;" d="M 198.511719 27.871094 C 198.910156 27.359375 199.40625 27.101562 200.011719 27.101562 C 200.554688 27.101562 201.003906 27.28125 201.351562 27.644531 C 201.695312 28.003906 201.871094 28.46875 201.871094 29.035156 C 201.871094 29.683594 201.675781 30.21875 201.285156 30.636719 C 200.898438 31.054688 200.402344 31.265625 199.804688 31.265625 C 199.113281 31.265625 198.574219 30.988281 198.1875 30.433594 C 197.800781 29.878906 197.605469 29.109375 197.605469 28.125 C 197.605469 27.042969 197.828125 26.203125 198.273438 25.601562 C 198.71875 25.003906 199.347656 24.703125 200.15625 24.703125 C 200.527344 24.703125 200.992188 24.78125 201.550781 24.941406 L 201.550781 25.664062 C 200.964844 25.441406 200.480469 25.328125 200.105469 25.328125 C 199.042969 25.328125 198.511719 26.175781 198.511719 27.871094 Z M 201.035156 29.21875 C 201.035156 28.746094 200.929688 28.375 200.71875 28.105469 C 200.503906 27.835938 200.210938 27.699219 199.832031 27.699219 C 199.480469 27.699219 199.179688 27.816406 198.925781 28.054688 C 198.671875 28.289062 198.546875 28.574219 198.546875 28.90625 C 198.546875 29.429688 198.664062 29.851562 198.90625 30.164062 C 199.148438 30.484375 199.464844 30.640625 199.863281 30.640625 C 200.21875 30.640625 200.503906 30.511719 200.71875 30.253906 C 200.929688 29.996094 201.035156 29.652344 201.035156 29.21875 "/>
<path style="fill:none;stroke-width:10;stroke-linecap:butt;stroke-linejoin:miter;stroke:rgb(0%,0%,0%);stroke-opacity:1;stroke-miterlimit:10;" d="M 1987.578125 2403.007812 L 1987.578125 2368.4375 " transform="matrix(0.1,0,0,-0.1,0,260)"/>
<path style=" stroke:none;fill-rule:nonzero;fill:rgb(0%,0%,0%);fill-opacity:1;" d="M 256.046875 27.710938 C 255.4375 27.285156 255.132812 26.8125 255.132812 26.300781 C 255.132812 25.828125 255.304688 25.441406 255.652344 25.148438 C 255.996094 24.851562 256.449219 24.703125 257.007812 24.703125 C 257.519531 24.703125 257.9375 24.828125 258.257812 25.078125 C 258.578125 25.328125 258.734375 25.65625 258.734375 26.054688 C 258.734375 26.660156 258.347656 27.210938 257.570312 27.710938 C 258.515625 28.171875 258.984375 28.765625 258.984375 29.492188 C 258.984375 30.015625 258.789062 30.441406 258.394531 30.773438 C 257.996094 31.101562 257.488281 31.265625 256.863281 31.265625 C 256.25 31.265625 255.753906 31.109375 255.375 30.800781 C 254.996094 30.488281 254.808594 30.078125 254.808594 29.574219 C 254.808594 28.824219 255.222656 28.203125 256.046875 27.710938 Z M 257.105469 27.445312 C 257.691406 27.0625 257.980469 26.636719 257.980469 26.167969 C 257.980469 25.917969 257.882812 25.714844 257.691406 25.5625 C 257.496094 25.410156 257.238281 25.332031 256.921875 25.332031 C 256.613281 25.332031 256.367188 25.40625 256.175781 25.558594 C 255.984375 25.710938 255.886719 25.902344 255.886719 26.144531 C 255.886719 26.378906 255.976562 26.585938 256.148438 26.769531 C 256.320312 26.953125 256.640625 27.179688 257.105469 27.445312 Z M 256.5 28.046875 C 256.164062 28.304688 255.9375 28.53125 255.816406 28.722656 C 255.699219 28.914062 255.640625 29.15625 255.640625 29.441406 C 255.640625 29.800781 255.753906 30.089844 255.984375 30.308594 C 256.214844 30.53125 256.519531 30.640625 256.894531 30.640625 C 257.257812 30.640625 257.554688 30.546875 257.785156 30.359375 C 258.015625 30.171875 258.128906 29.925781 258.128906 29.625 C 258.128906 29.382812 258.058594 29.179688 257.914062 29.011719 C 257.773438 28.84375 257.496094 28.636719 257.089844 28.394531 "/>
<path style="fill:none;stroke-width:10;stroke-linecap:butt;stroke-linejoin:miter;stroke:rgb(0%,0%,0%);stroke-opacity:1;stroke-miterlimit:10;" d="M 2554.492188 2403.007812 L 2554.492188 2368.4375 " transform="matrix(0.1,0,0,-0.1,0,260)"/>
<path style=" stroke:none;fill-rule:nonzero;fill:rgb(0%,0%,0%);fill-opacity:1;" d="M 15.132812 247.449219 L 15.132812 246.875 L 18.570312 246.875 L 18.570312 247.449219 Z M 21 246.339844 C 20.386719 245.914062 20.082031 245.445312 20.082031 244.929688 C 20.082031 244.457031 20.257812 244.074219 20.601562 243.777344 C 20.949219 243.484375 21.398438 243.335938 21.957031 243.335938 C 22.472656 243.335938 22.886719 243.460938 23.207031 243.710938 C 23.527344 243.960938 23.6875 244.285156 23.6875 244.683594 C 23.6875 245.289062 23.296875 245.839844 22.523438 246.339844 C 23.464844 246.800781 23.933594 247.394531 23.933594 248.125 C 23.933594 248.648438 23.738281 249.074219 23.34375 249.402344 C 22.949219 249.730469 22.4375 249.898438 21.8125 249.898438 C 21.199219 249.898438 20.703125 249.742188 20.324219 249.429688 C 19.949219 249.117188 19.757812 248.710938 19.757812 248.203125 C 19.757812 247.457031 20.171875 246.835938 21 246.339844 Z M 22.058594 246.078125 C 22.640625 245.695312 22.929688 245.269531 22.929688 244.800781 C 22.929688 244.546875 22.835938 244.347656 22.640625 244.195312 C 22.445312 244.039062 22.191406 243.964844 21.871094 243.964844 C 21.566406 243.964844 21.316406 244.039062 21.125 244.191406 C 20.933594 244.339844 20.839844 244.535156 20.839844 244.773438 C 20.839844 245.007812 20.925781 245.214844 21.097656 245.402344 C 21.269531 245.585938 21.589844 245.808594 22.058594 246.078125 Z M 21.449219 246.675781 C 21.117188 246.933594 20.886719 247.160156 20.769531 247.355469 C 20.648438 247.546875 20.589844 247.785156 20.589844 248.074219 C 20.589844 248.429688 20.703125 248.71875 20.933594 248.941406 C 21.164062 249.160156 21.46875 249.273438 21.847656 249.273438 C 22.210938 249.273438 22.507812 249.175781 22.734375 248.988281 C 22.964844 248.800781 23.078125 248.554688 23.078125 248.253906 C 23.078125 248.011719 23.007812 247.808594 22.867188 247.640625 C 22.722656 247.472656 22.449219 247.269531 22.039062 247.027344 "/>
<path style="fill:none;stroke-width:10;stroke-linecap:butt;stroke-linejoin:miter;stroke:rgb(0%,0%,0%);stroke-opacity:1;stroke-miterlimit:10;" d="M 252.226562 135.273438 L 286.757812 135.273438 " transform="matrix(0.1,0,0,-0.1,0,260)"/>
<path style=" stroke:none;fill-rule:nonzero;fill:rgb(0%,0%,0%);fill-opacity:1;" d="M 15.132812 190.414062 L 15.132812 189.839844 L 18.570312 189.839844 L 18.570312 190.414062 Z M 20.496094 189.46875 C 20.894531 188.957031 21.394531 188.699219 21.996094 188.699219 C 22.539062 188.699219 22.988281 188.878906 23.335938 189.238281 C 23.679688 189.601562 23.855469 190.066406 23.855469 190.628906 C 23.855469 191.28125 23.660156 191.816406 23.269531 192.234375 C 22.882812 192.652344 22.386719 192.863281 21.789062 192.863281 C 21.097656 192.863281 20.558594 192.585938 20.171875 192.03125 C 19.785156 191.476562 19.589844 190.707031 19.589844 189.722656 C 19.589844 188.640625 19.8125 187.796875 20.257812 187.199219 C 20.703125 186.601562 21.332031 186.300781 22.140625 186.300781 C 22.515625 186.300781 22.976562 186.378906 23.535156 186.535156 L 23.535156 187.261719 C 22.945312 187.039062 22.464844 186.925781 22.09375 186.925781 C 21.027344 186.925781 20.496094 187.773438 20.496094 189.46875 Z M 23.019531 190.816406 C 23.019531 190.34375 22.914062 189.972656 22.703125 189.703125 C 22.488281 189.433594 22.195312 189.296875 21.816406 189.296875 C 21.464844 189.296875 21.164062 189.414062 20.910156 189.652344 C 20.65625 189.886719 20.53125 190.171875 20.53125 190.503906 C 20.53125 191.027344 20.652344 191.445312 20.890625 191.761719 C 21.132812 192.078125 21.449219 192.238281 21.847656 192.238281 C 22.203125 192.238281 22.488281 192.109375 22.703125 191.851562 C 22.914062 191.59375 23.019531 191.25 23.019531 190.816406 "/>
<path style="fill:none;stroke-width:10;stroke-linecap:butt;stroke-linejoin:miter;stroke:rgb(0%,0%,0%);stroke-opacity:1;stroke-miterlimit:10;" d="M 252.226562 702.1875 L 286.757812 702.1875 " transform="matrix(0.1,0,0,-0.1,0,260)"/>
<path style=" stroke:none;fill-rule:nonzero;fill:rgb(0%,0%,0%);fill-opacity:1;" d="M 15.132812 134.246094 L 15.132812 133.671875 L 18.570312 133.671875 L 18.570312 134.246094 Z M 22.265625 136.535156 L 22.265625 134.769531 L 19.453125 134.769531 L 19.453125 134.140625 L 22.265625 130.289062 L 23.046875 130.289062 L 23.046875 134.089844 L 23.882812 134.089844 L 23.882812 134.769531 L 23.046875 134.769531 L 23.046875 136.535156 Z M 20.269531 134.089844 L 22.320312 134.089844 L 22.320312 131.3125 "/>
<path style="fill:none;stroke-width:10;stroke-linecap:butt;stroke-linejoin:miter;stroke:rgb(0%,0%,0%);stroke-opacity:1;stroke-miterlimit:10;" d="M 252.226562 1269.140625 L 286.757812 1269.140625 " transform="matrix(0.1,0,0,-0.1,0,260)"/>
<path style=" stroke:none;fill-rule:nonzero;fill:rgb(0%,0%,0%);fill-opacity:1;" d="M 15.132812 77.210938 L 15.132812 76.636719 L 18.570312 76.636719 L 18.570312 77.210938 Z M 19.726562 79.503906 L 19.726562 78.773438 C 19.96875 78.207031 20.460938 77.589844 21.199219 76.925781 L 21.671875 76.496094 C 22.285156 75.945312 22.59375 75.394531 22.59375 74.847656 C 22.59375 74.5 22.488281 74.226562 22.28125 74.023438 C 22.070312 73.824219 21.78125 73.726562 21.417969 73.726562 C 20.984375 73.726562 20.472656 73.894531 19.886719 74.226562 L 19.886719 73.492188 C 20.4375 73.230469 20.988281 73.101562 21.535156 73.101562 C 22.121094 73.101562 22.589844 73.257812 22.945312 73.574219 C 23.296875 73.890625 23.476562 74.308594 23.476562 74.828125 C 23.476562 75.199219 23.386719 75.53125 23.207031 75.824219 C 23.027344 76.113281 22.695312 76.464844 22.210938 76.878906 L 21.890625 77.152344 C 21.222656 77.71875 20.835938 78.257812 20.734375 78.773438 L 23.445312 78.773438 L 23.445312 79.503906 "/>
<path style="fill:none;stroke-width:10;stroke-linecap:butt;stroke-linejoin:miter;stroke:rgb(0%,0%,0%);stroke-opacity:1;stroke-miterlimit:10;" d="M 252.226562 1836.054688 L 286.757812 1836.054688 " transform="matrix(0.1,0,0,-0.1,0,260)"/>
<path style=" stroke:none;fill-rule:nonzero;fill:rgb(0%,0%,0%);fill-opacity:1;" d="M 21.71875 17.4375 C 21.078125 17.4375 20.554688 17.136719 20.15625 16.53125 C 19.757812 15.925781 19.558594 15.132812 19.558594 14.15625 C 19.558594 13.171875 19.761719 12.378906 20.160156 11.78125 C 20.5625 11.183594 21.089844 10.882812 21.746094 10.882812 C 22.402344 10.882812 22.929688 11.183594 23.332031 11.78125 C 23.730469 12.378906 23.929688 13.167969 23.929688 14.144531 C 23.929688 15.144531 23.730469 15.945312 23.332031 16.542969 C 22.929688 17.140625 22.394531 17.4375 21.71875 17.4375 Z M 21.730469 16.816406 C 22.609375 16.816406 23.050781 15.921875 23.050781 14.132812 C 23.050781 12.382812 22.613281 11.507812 21.746094 11.507812 C 20.878906 11.507812 20.445312 12.390625 20.445312 14.15625 C 20.445312 15.929688 20.875 16.816406 21.730469 16.816406 "/>
<path style="fill:none;stroke-width:10;stroke-linecap:butt;stroke-linejoin:miter;stroke:rgb(0%,0%,0%);stroke-opacity:1;stroke-miterlimit:10;" d="M 252.226562 2403.007812 L 286.757812 2403.007812 " transform="matrix(0.1,0,0,-0.1,0,260)"/>
<path style="fill:none;stroke-width:10;stroke-linecap:butt;stroke-linejoin:round;stroke:rgb(75.389099%,75.389099%,75.389099%);stroke-opacity:1;stroke-dasharray:50,40;stroke-miterlimit:10;" d="M 853.710938 3455.507812 L 853.710938 2403.007812 " transform="matrix(0.1,0,0,-0.1,0,260)"/>
<path style="fill:none;stroke-width:10;stroke-linecap:butt;stroke-linejoin:round;stroke:rgb(75.389099%,75.389099%,75.389099%);stroke-opacity:1;stroke-dasharray:50,40;stroke-miterlimit:10;" d="M 853.710938 2238.789062 L 853.710938 -614.648438 " transform="matrix(0.1,0,0,-0.1,0,260)"/>
<path style="fill:none;stroke-width:10;stroke-linecap:butt;stroke-linejoin:round;stroke:rgb(75.389099%,75.389099%,75.389099%);stroke-opacity:1;stroke-dasharray:50,40;stroke-miterlimit:10;" d="M 1420.625 3455.507812 L 1420.625 2403.007812 " transform="matrix(0.1,0,0,-0.1,0,260)"/>
<path style="fill:none;stroke-width:10;stroke-linecap:butt;stroke-linejoin:round;stroke:rgb(75.389099%,75.389099%,75.389099%);stroke-opacity:1;stroke-dasharray:50,40;stroke-miterlimit:10;" d="M 1420.625 2238.789062 L 1420.625 -614.648438 " transform="matrix(0.1,0,0,-0.1,0,260)"/>
<path style="fill:none;stroke-width:10;stroke-linecap:butt;stroke-linejoin:round;stroke:rgb(75.389099%,75.389099%,75.389099%);stroke-opacity:1;stroke-dasharray:50,40;stroke-miterlimit:10;" d="M 1987.578125 3455.507812 L 1987.578125 2403.007812 " transform="matrix(0.1,0,0,-0.1,0,260)"/>
<path style="fill:none;stroke-width:10;stroke-linecap:butt;stroke-linejoin:round;stroke:rgb(75.389099%,75.389099%,75.389099%);stroke-opacity:1;stroke-dasharray:50,40;stroke-miterlimit:10;" d="M 1987.578125 2238.789062 L 1987.578125 -614.648438 " transform="matrix(0.1,0,0,-0.1,0,260)"/>
<path style="fill:none;stroke-width:10;stroke-linecap:butt;stroke-linejoin:round;stroke:rgb(75.389099%,75.389099%,75.389099%);stroke-opacity:1;stroke-dasharray:50,40;stroke-miterlimit:10;" d="M 2554.492188 3455.507812 L 2554.492188 2403.007812 " transform="matrix(0.1,0,0,-0.1,0,260)"/>
<path style="fill:none;stroke-width:10;stroke-linecap:butt;stroke-linejoin:round;stroke:rgb(75.389099%,75.389099%,75.389099%);stroke-opacity:1;stroke-dasharray:50,40;stroke-miterlimit:10;" d="M 2554.492188 2238.789062 L 2554.492188 -614.648438 " transform="matrix(0.1,0,0,-0.1,0,260)"/>
<path style="fill:none;stroke-width:10;stroke-linecap:butt;stroke-linejoin:round;stroke:rgb(75.389099%,75.389099%,75.389099%);stroke-opacity:1;stroke-dasharray:50,40;stroke-miterlimit:10;" d="M -475.273438 1836.054688 L 70.742188 1836.054688 " transform="matrix(0.1,0,0,-0.1,0,260)"/>
<path style="fill:none;stroke-width:10;stroke-linecap:butt;stroke-linejoin:round;stroke:rgb(75.389099%,75.389099%,75.389099%);stroke-opacity:1;stroke-dasharray:50,40;stroke-miterlimit:10;" d="M 286.757812 1836.054688 L 3422.03125 1836.054688 " transform="matrix(0.1,0,0,-0.1,0,260)"/>
<path style="fill:none;stroke-width:10;stroke-linecap:butt;stroke-linejoin:round;stroke:rgb(75.389099%,75.389099%,75.389099%);stroke-opacity:1;stroke-dasharray:50,40;stroke-miterlimit:10;" d="M -475.273438 1269.140625 L 70.742188 1269.140625 " transform="matrix(0.1,0,0,-0.1,0,260)"/>
<path style="fill:none;stroke-width:10;stroke-linecap:butt;stroke-linejoin:round;stroke:rgb(75.389099%,75.389099%,75.389099%);stroke-opacity:1;stroke-dasharray:50,40;stroke-miterlimit:10;" d="M 286.757812 1269.140625 L 3422.03125 1269.140625 " transform="matrix(0.1,0,0,-0.1,0,260)"/>
<path style="fill:none;stroke-width:10;stroke-linecap:butt;stroke-linejoin:round;stroke:rgb(75.389099%,75.389099%,75.389099%);stroke-opacity:1;stroke-dasharray:50,40;stroke-miterlimit:10;" d="M -475.273438 702.1875 L 70.742188 702.1875 " transform="matrix(0.1,0,0,-0.1,0,260)"/>
<path style="fill:none;stroke-width:10;stroke-linecap:butt;stroke-linejoin:round;stroke:rgb(75.389099%,75.389099%,75.389099%);stroke-opacity:1;stroke-dasharray:50,40;stroke-miterlimit:10;" d="M 286.757812 702.1875 L 3422.03125 702.1875 " transform="matrix(0.1,0,0,-0.1,0,260)"/>
<path style="fill:none;stroke-width:10;stroke-linecap:butt;stroke-linejoin:round;stroke:rgb(75.389099%,75.389099%,75.389099%);stroke-opacity:1;stroke-dasharray:50,40;stroke-miterlimit:10;" d="M -475.273438 135.273438 L 70.742188 135.273438 " transform="matrix(0.1,0,0,-0.1,0,260)"/>
<path style="fill:none;stroke-width:10;stroke-linecap:butt;stroke-linejoin:round;stroke:rgb(75.389099%,75.389099%,75.389099%);stroke-opacity:1;stroke-dasharray:50,40;stroke-miterlimit:10;" d="M 286.757812 135.273438 L 3422.03125 135.273438 " transform="matrix(0.1,0,0,-0.1,0,260)"/>
<path style="fill:none;stroke-width:15;stroke-linecap:round;stroke-linejoin:round;stroke:rgb(0%,0%,100%);stroke-opacity:1;stroke-miterlimit:10;" d="M 118.4375 -707.734375 L 133.671875 -625.3125 L 148.90625 -545.078125 L 164.101562 -466.953125 L 179.335938 -390.898438 L 194.570312 -316.875 L 209.804688 -244.804688 L 225 -174.648438 L 240.234375 -106.367188 L 255.46875 -39.882812 L 270.703125 24.84375 L 285.898438 87.851562 L 301.132812 149.21875 L 316.367188 208.90625 L 331.601562 267.070312 L 346.796875 323.632812 L 362.03125 378.75 L 377.265625 432.382812 L 392.460938 484.609375 L 407.695312 535.429688 L 422.929688 584.921875 L 438.164062 633.085938 L 453.359375 679.960938 L 468.59375 725.625 L 483.828125 770.078125 L 499.0625 813.320312 L 529.492188 896.445312 L 559.960938 975.234375 L 590.390625 1049.882812 L 620.859375 1120.664062 L 651.289062 1187.695312 L 681.71875 1251.25 L 712.1875 1311.484375 L 742.617188 1368.554688 L 773.085938 1422.65625 L 803.515625 1473.90625 L 833.984375 1522.460938 L 864.414062 1568.515625 L 894.882812 1612.148438 L 925.3125 1653.515625 L 955.78125 1692.695312 L 986.210938 1729.84375 L 1016.640625 1765.039062 L 1047.109375 1798.398438 L 1077.578125 1830.039062 L 1108.007812 1859.960938 L 1138.4375 1888.359375 L 1168.90625 1915.273438 L 1199.335938 1940.78125 L 1229.804688 1964.960938 L 1260.234375 1987.851562 L 1290.703125 2009.570312 L 1321.132812 2030.15625 L 1351.601562 2049.648438 L 1382.03125 2068.125 L 1412.460938 2085.625 L 1442.929688 2102.226562 L 1473.398438 2117.96875 L 1503.828125 2132.851562 L 1534.296875 2146.992188 L 1564.726562 2160.351562 L 1595.15625 2173.046875 L 1625.625 2185.078125 L 1656.054688 2196.484375 L 1686.523438 2207.265625 L 1716.953125 2217.5 L 1747.421875 2227.1875 L 1777.851562 2236.40625 L 1808.320312 2245.117188 L 1838.75 2253.359375 L 1869.21875 2261.171875 L 1899.648438 2268.59375 L 1930.117188 2275.625 L 1960.546875 2282.304688 L 1991.015625 2288.59375 L 2021.445312 2294.570312 L 2051.875 2300.234375 L 2082.34375 2305.625 L 2112.773438 2310.703125 L 2143.242188 2315.546875 L 2173.671875 2320.117188 L 2204.140625 2324.453125 L 2234.570312 2328.554688 L 2265.039062 2332.460938 L 2295.46875 2336.132812 L 2325.9375 2339.648438 L 2356.367188 2342.96875 L 2386.835938 2346.09375 L 2417.265625 2349.0625 L 2447.695312 2351.875 L 2478.164062 2354.53125 L 2508.59375 2357.109375 L 2539.0625 2359.492188 L 2569.492188 2361.757812 L 2599.960938 2363.90625 L 2630.390625 2365.976562 L 2660.859375 2367.890625 L 2691.289062 2369.726562 L 2721.757812 2371.484375 L 2752.1875 2373.125 L 2782.65625 2374.6875 L 2813.085938 2376.171875 L 2843.554688 2377.578125 L 2873.984375 2378.90625 L 2904.414062 2380.15625 L 2934.882812 2381.367188 L 2965.3125 2382.460938 L 2995.78125 2383.554688 L 3026.210938 2384.570312 L 3056.679688 2385.546875 L 3087.109375 2386.445312 L 3117.578125 2387.304688 L 3148.007812 2388.125 L 3178.476562 2388.90625 L 3208.90625 2389.648438 L 3239.375 2390.351562 L 3269.804688 2391.015625 L 3300.234375 2391.640625 L 3330.703125 2392.226562 L 3361.132812 2392.773438 L 3391.601562 2393.320312 L 3422.03125 2393.828125 " transform="matrix(0.1,0,0,-0.1,0,260)"/>
<path style=" stroke:none;fill-rule:nonzero;fill:rgb(0%,0%,100%);fill-opacity:1;" d="M 45.164062 237.316406 L 43.949219 242.179688 C 43.679688 242.988281 43.207031 243.664062 42.53125 244.203125 C 41.992188 244.609375 41.453125 244.8125 40.910156 244.8125 C 40.371094 244.8125 39.96875 244.609375 39.695312 244.203125 C 39.5625 244.070312 39.496094 243.933594 39.496094 243.800781 C 39.496094 243.257812 39.695312 242.988281 40.101562 242.988281 C 40.101562 242.855469 40.167969 242.785156 40.304688 242.785156 C 40.574219 242.785156 40.710938 242.921875 40.710938 243.191406 C 40.710938 243.191406 40.710938 243.257812 40.710938 243.394531 C 40.710938 243.53125 40.640625 243.664062 40.507812 243.800781 C 40.371094 243.933594 40.167969 244.003906 39.898438 244.003906 C 40.035156 244.40625 40.371094 244.609375 40.910156 244.609375 C 41.453125 244.609375 41.925781 244.339844 42.332031 243.800781 C 42.734375 243.257812 43.003906 242.652344 43.140625 241.976562 C 43.140625 241.839844 43.140625 241.773438 43.140625 241.773438 C 42.734375 242.179688 42.332031 242.382812 41.925781 242.382812 C 41.25 242.382812 40.777344 242.109375 40.507812 241.570312 C 40.371094 241.300781 40.304688 241.03125 40.304688 240.761719 C 40.304688 240.355469 40.507812 239.476562 40.910156 238.128906 C 40.910156 238.128906 40.980469 238.128906 41.113281 238.128906 C 41.25 237.722656 41.316406 237.386719 41.316406 237.117188 C 41.316406 236.84375 41.183594 236.710938 40.910156 236.710938 C 40.507812 236.710938 40.101562 237.117188 39.695312 237.925781 C 39.695312 238.058594 39.695312 238.195312 39.695312 238.332031 C 39.5625 238.464844 39.496094 238.53125 39.496094 238.53125 C 39.359375 238.53125 39.292969 238.53125 39.292969 238.53125 C 39.292969 238.261719 39.359375 237.992188 39.496094 237.722656 C 39.898438 236.914062 40.371094 236.507812 40.910156 236.507812 C 41.453125 236.507812 41.789062 236.710938 41.925781 237.117188 C 42.058594 237.25 42.128906 237.386719 42.128906 237.519531 C 42.128906 237.65625 41.992188 237.992188 41.722656 238.53125 C 41.316406 239.613281 41.113281 240.421875 41.113281 240.964844 C 41.113281 241.640625 41.386719 241.976562 41.925781 241.976562 C 42.464844 241.976562 42.871094 241.707031 43.140625 241.167969 C 43.273438 241.03125 43.34375 240.964844 43.34375 240.964844 L 43.949219 238.53125 C 44.085938 238.261719 44.152344 237.925781 44.152344 237.519531 C 44.289062 237.117188 44.355469 236.914062 44.355469 236.914062 C 44.488281 236.644531 44.691406 236.507812 44.964844 236.507812 C 45.097656 236.644531 45.164062 236.777344 45.164062 236.914062 C 45.164062 237.046875 45.164062 237.183594 45.164062 237.316406 "/>
<path style=" stroke:none;fill-rule:nonzero;fill:rgb(0%,0%,100%);fill-opacity:1;" d="M 57.753906 237.925781 L 50.058594 237.925781 C 49.789062 237.925781 49.652344 237.859375 49.652344 237.722656 C 49.652344 237.589844 49.789062 237.519531 50.058594 237.519531 L 57.753906 237.519531 C 58.023438 237.519531 58.160156 237.589844 58.160156 237.722656 C 58.160156 237.859375 58.023438 237.925781 57.753906 237.925781 Z M 57.753906 240.355469 L 50.058594 240.355469 C 49.789062 240.355469 49.652344 240.289062 49.652344 240.152344 C 49.652344 240.019531 49.789062 239.953125 50.058594 239.953125 L 57.753906 239.953125 C 58.023438 239.953125 58.160156 240.019531 58.160156 240.152344 C 58.160156 240.289062 58.023438 240.355469 57.753906 240.355469 "/>
<path style=" stroke:none;fill-rule:nonzero;fill:rgb(0%,0%,100%);fill-opacity:1;" d="M 67.183594 236.914062 L 66.574219 241.167969 C 66.441406 241.707031 66.238281 242.3125 65.96875 242.988281 C 65.96875 243.257812 65.902344 243.460938 65.765625 243.597656 C 65.496094 244.273438 65.089844 244.675781 64.550781 244.8125 C 64.550781 244.8125 64.484375 244.8125 64.347656 244.8125 C 63.941406 244.8125 63.605469 244.675781 63.335938 244.40625 C 63.199219 244.273438 63.132812 244.136719 63.132812 244.003906 C 63.132812 243.597656 63.335938 243.328125 63.738281 243.191406 C 63.738281 243.191406 63.808594 243.191406 63.941406 243.191406 C 64.214844 243.191406 64.347656 243.257812 64.347656 243.394531 C 64.347656 243.53125 64.347656 243.597656 64.347656 243.597656 C 64.347656 243.867188 64.214844 244.070312 63.941406 244.203125 C 63.941406 244.203125 63.875 244.273438 63.738281 244.40625 C 63.875 244.542969 64.078125 244.609375 64.347656 244.609375 C 64.753906 244.609375 65.023438 244.136719 65.15625 243.191406 C 65.292969 243.054688 65.359375 242.855469 65.359375 242.585938 L 65.359375 242.179688 L 66.375 236.914062 L 65.5625 236.914062 C 65.292969 236.914062 65.15625 236.914062 65.15625 236.914062 C 65.15625 236.777344 65.226562 236.644531 65.359375 236.507812 L 66.574219 236.507812 C 66.710938 235.425781 66.847656 234.753906 66.980469 234.480469 C 67.25 233.671875 67.65625 233.199219 68.195312 233.066406 C 68.332031 233.066406 68.464844 233.066406 68.601562 233.066406 C 69.007812 233.066406 69.34375 233.199219 69.613281 233.46875 C 69.613281 233.605469 69.613281 233.738281 69.613281 233.875 C 69.613281 234.28125 69.480469 234.550781 69.210938 234.683594 C 69.210938 234.683594 69.140625 234.683594 69.007812 234.683594 C 68.734375 234.683594 68.601562 234.617188 68.601562 234.480469 C 68.464844 234.347656 68.398438 234.28125 68.398438 234.28125 C 68.398438 234.011719 68.535156 233.808594 68.804688 233.671875 C 68.9375 233.671875 69.074219 233.605469 69.210938 233.46875 C 69.074219 233.335938 68.871094 233.265625 68.601562 233.265625 C 68.332031 233.265625 68.128906 233.402344 67.992188 233.671875 C 67.859375 233.808594 67.722656 234.28125 67.589844 235.089844 L 67.386719 236.507812 L 68.398438 236.507812 C 68.667969 236.507812 68.804688 236.574219 68.804688 236.710938 C 68.804688 236.84375 68.734375 236.914062 68.601562 236.914062 L 67.183594 236.914062 "/>
<path style=" stroke:none;fill-rule:nonzero;fill:rgb(0%,0%,100%);fill-opacity:1;" d="M 73.125 245.21875 C 73.125 245.351562 73.125 245.417969 73.125 245.417969 C 72.988281 245.417969 72.71875 245.21875 72.316406 244.8125 C 71.773438 244.273438 71.367188 243.664062 71.097656 242.988281 C 70.425781 241.773438 70.085938 240.421875 70.085938 238.9375 C 70.085938 237.453125 70.355469 236.101562 70.898438 234.886719 C 71.4375 233.941406 72.042969 233.199219 72.71875 232.660156 C 72.855469 232.523438 72.988281 232.457031 73.125 232.457031 C 73.125 232.457031 73.125 232.523438 73.125 232.660156 C 73.125 232.660156 73.058594 232.726562 72.921875 232.863281 C 71.570312 234.210938 70.898438 236.238281 70.898438 238.9375 C 70.898438 241.640625 71.570312 243.664062 72.921875 245.015625 C 73.058594 245.148438 73.125 245.21875 73.125 245.21875 "/>
<path style=" stroke:none;fill-rule:nonzero;fill:rgb(0%,0%,100%);fill-opacity:1;" d="M 78.164062 238.332031 L 77.761719 239.953125 C 77.625 240.625 77.558594 241.03125 77.558594 241.167969 C 77.558594 241.570312 77.691406 241.839844 77.964844 241.976562 C 78.097656 241.976562 78.234375 241.976562 78.367188 241.976562 C 78.773438 241.976562 79.109375 241.773438 79.382812 241.367188 C 79.652344 241.097656 79.851562 240.761719 79.988281 240.355469 C 79.988281 240.222656 80.054688 240.152344 80.191406 240.152344 C 80.324219 240.152344 80.394531 240.222656 80.394531 240.355469 C 80.394531 240.492188 80.257812 240.761719 79.988281 241.167969 C 79.449219 241.976562 78.90625 242.382812 78.367188 242.382812 C 77.691406 242.382812 77.21875 242.109375 76.949219 241.570312 C 76.949219 241.4375 76.949219 241.367188 76.949219 241.367188 C 76.679688 241.773438 76.34375 242.042969 75.9375 242.179688 C 75.800781 242.3125 75.667969 242.382812 75.53125 242.382812 C 74.992188 242.382812 74.585938 242.179688 74.316406 241.773438 C 74.316406 241.773438 74.316406 241.640625 74.316406 241.367188 C 74.316406 241.097656 74.453125 240.894531 74.722656 240.761719 C 74.855469 240.761719 74.925781 240.761719 74.925781 240.761719 C 75.195312 240.761719 75.398438 240.828125 75.53125 240.964844 C 75.53125 241.097656 75.53125 241.167969 75.53125 241.167969 C 75.53125 241.4375 75.398438 241.640625 75.128906 241.773438 C 74.992188 241.773438 74.925781 241.773438 74.925781 241.773438 C 75.058594 241.910156 75.261719 241.976562 75.53125 241.976562 C 75.9375 241.976562 76.277344 241.707031 76.546875 241.167969 C 76.679688 241.03125 76.746094 240.894531 76.746094 240.761719 C 77.152344 239.007812 77.355469 237.925781 77.355469 237.519531 C 77.355469 236.980469 77.152344 236.710938 76.746094 236.710938 C 76.34375 236.710938 75.9375 236.980469 75.53125 237.519531 C 75.398438 237.65625 75.261719 237.859375 75.128906 238.128906 C 75.128906 238.128906 75.128906 238.195312 75.128906 238.332031 L 74.925781 238.53125 C 74.789062 238.53125 74.722656 238.53125 74.722656 238.53125 C 74.722656 238.261719 74.855469 237.925781 75.128906 237.519531 C 75.53125 236.84375 76.074219 236.507812 76.746094 236.507812 C 77.421875 236.507812 77.894531 236.84375 78.164062 237.519531 C 78.433594 236.980469 78.773438 236.644531 79.179688 236.507812 C 79.3125 236.507812 79.449219 236.507812 79.582031 236.507812 C 80.125 236.507812 80.460938 236.644531 80.597656 236.914062 C 80.730469 237.046875 80.796875 237.183594 80.796875 237.316406 C 80.796875 237.722656 80.597656 237.925781 80.191406 237.925781 C 80.191406 238.058594 80.125 238.128906 79.988281 238.128906 C 79.71875 238.128906 79.582031 237.992188 79.582031 237.722656 C 79.582031 237.722656 79.582031 237.65625 79.582031 237.519531 C 79.582031 237.25 79.71875 237.046875 79.988281 236.914062 C 79.988281 236.914062 80.054688 236.914062 80.191406 236.914062 C 80.054688 236.777344 79.851562 236.710938 79.582031 236.710938 C 78.90625 236.710938 78.503906 237.183594 78.367188 238.128906 C 78.234375 238.128906 78.164062 238.195312 78.164062 238.332031 "/>
<path style=" stroke:none;fill-rule:nonzero;fill:rgb(0%,0%,100%);fill-opacity:1;" d="M 84.964844 238.9375 C 84.964844 240.421875 84.695312 241.773438 84.15625 242.988281 C 83.75 243.933594 83.210938 244.675781 82.535156 245.21875 C 82.402344 245.351562 82.265625 245.417969 82.132812 245.417969 C 82.132812 245.417969 82.132812 245.351562 82.132812 245.21875 C 82.132812 245.21875 82.132812 245.148438 82.132812 245.015625 C 83.617188 243.664062 84.359375 241.640625 84.359375 238.9375 C 84.359375 236.238281 83.683594 234.210938 82.332031 232.863281 C 82.199219 232.726562 82.132812 232.660156 82.132812 232.660156 C 82.132812 232.523438 82.132812 232.457031 82.132812 232.457031 C 82.265625 232.457031 82.535156 232.660156 82.941406 233.066406 C 83.480469 233.605469 83.886719 234.210938 84.15625 234.886719 C 84.695312 236.101562 84.964844 237.453125 84.964844 238.9375 "/>
<path style="fill:none;stroke-width:15;stroke-linecap:round;stroke-linejoin:round;stroke:rgb(0%,59.959412%,0%);stroke-opacity:1;stroke-miterlimit:10;" d="M -518.476562 -505.703125 L 2151.132812 3498.710938 " transform="matrix(0.1,0,0,-0.1,0,260)"/>
<path style=" stroke:none;fill-rule:nonzero;fill:rgb(100%,0%,0%);fill-opacity:1;" d="M 87.964844 104.738281 C 87.964844 106.171875 86.800781 107.332031 85.371094 107.332031 C 83.9375 107.332031 82.777344 106.171875 82.777344 104.738281 C 82.777344 103.308594 83.9375 102.148438 85.371094 102.148438 C 86.800781 102.148438 87.964844 103.308594 87.964844 104.738281 "/>
<path style="fill:none;stroke-width:10;stroke-linecap:round;stroke-linejoin:round;stroke:rgb(0%,0%,0%);stroke-opacity:1;stroke-miterlimit:10;" d="M 879.648438 1552.617188 C 879.648438 1538.28125 868.007812 1526.679688 853.710938 1526.679688 C 839.375 1526.679688 827.773438 1538.28125 827.773438 1552.617188 C 827.773438 1566.914062 839.375 1578.515625 853.710938 1578.515625 C 868.007812 1578.515625 879.648438 1566.914062 879.648438 1552.617188 Z M 879.648438 1552.617188 " transform="matrix(0.1,0,0,-0.1,0,260)"/>
<path style=" stroke:none;fill-rule:nonzero;fill:rgb(100%,0%,0%);fill-opacity:1;" d="M 94.988281 123.371094 C 94.988281 123.507812 94.988281 123.574219 94.988281 123.574219 C 94.855469 123.574219 94.585938 123.371094 94.179688 122.964844 C 93.640625 122.425781 93.234375 121.820312 92.964844 121.144531 C 92.289062 119.929688 91.953125 118.578125 91.953125 117.09375 C 91.953125 115.605469 92.222656 114.257812 92.761719 113.042969 C 93.300781 112.097656 93.910156 111.355469 94.585938 110.8125 C 94.71875 110.679688 94.855469 110.613281 94.988281 110.613281 C 94.988281 110.613281 94.988281 110.679688 94.988281 110.8125 C 94.988281 110.8125 94.921875 110.882812 94.785156 111.015625 C 93.4375 112.367188 92.761719 114.390625 92.761719 117.09375 C 92.761719 119.792969 93.4375 121.820312 94.785156 123.167969 C 94.921875 123.304688 94.988281 123.371094 94.988281 123.371094 "/>
<path style=" stroke:none;fill-rule:nonzero;fill:rgb(100%,0%,0%);fill-opacity:1;" d="M 101.648438 118.105469 L 101.246094 120.332031 L 96.386719 120.332031 C 96.386719 120.0625 96.453125 119.929688 96.585938 119.929688 L 99.019531 117.09375 C 99.964844 116.011719 100.433594 115.066406 100.433594 114.257812 C 100.433594 113.445312 100.164062 112.839844 99.625 112.433594 C 99.355469 112.164062 99.019531 112.027344 98.613281 112.027344 C 98.074219 112.027344 97.601562 112.300781 97.195312 112.839844 C 97.058594 112.976562 96.992188 113.175781 96.992188 113.445312 C 96.992188 113.445312 97.058594 113.445312 97.195312 113.445312 C 97.464844 113.445312 97.667969 113.582031 97.800781 113.851562 C 97.800781 113.988281 97.800781 114.054688 97.800781 114.054688 C 97.800781 114.460938 97.601562 114.660156 97.195312 114.660156 C 97.195312 114.796875 97.195312 114.863281 97.195312 114.863281 C 96.789062 114.863281 96.519531 114.730469 96.386719 114.460938 C 96.386719 114.324219 96.386719 114.191406 96.386719 114.054688 C 96.386719 113.378906 96.65625 112.839844 97.195312 112.433594 C 97.601562 111.894531 98.140625 111.625 98.816406 111.625 C 99.761719 111.625 100.503906 111.960938 101.042969 112.636719 C 101.3125 113.042969 101.515625 113.515625 101.648438 114.054688 C 101.648438 114.054688 101.648438 114.121094 101.648438 114.257812 C 101.648438 114.796875 101.378906 115.40625 100.839844 116.078125 C 100.570312 116.351562 100.164062 116.6875 99.625 117.09375 L 99.019531 117.902344 L 98.816406 117.902344 L 97.398438 119.320312 L 99.828125 119.320312 C 100.503906 119.320312 100.90625 119.320312 101.042969 119.320312 C 101.042969 119.1875 101.109375 118.78125 101.246094 118.105469 L 101.648438 118.105469 "/>
<path style=" stroke:none;fill-rule:nonzero;fill:rgb(100%,0%,0%);fill-opacity:1;" d="M 104.890625 120.332031 C 104.890625 121.144531 104.621094 121.886719 104.082031 122.5625 C 103.945312 122.695312 103.8125 122.765625 103.675781 122.765625 C 103.675781 122.628906 103.675781 122.5625 103.675781 122.5625 C 104.214844 122.019531 104.554688 121.347656 104.6875 120.535156 C 104.6875 120.535156 104.6875 120.46875 104.6875 120.332031 C 104.6875 120.199219 104.621094 120.132812 104.484375 120.132812 C 104.351562 120.265625 104.214844 120.332031 104.082031 120.332031 C 103.8125 120.332031 103.609375 120.199219 103.472656 119.929688 C 103.472656 119.792969 103.472656 119.726562 103.472656 119.726562 C 103.472656 119.320312 103.539062 119.050781 103.675781 118.914062 C 103.8125 118.914062 103.945312 118.914062 104.082031 118.914062 C 104.484375 118.914062 104.757812 119.1875 104.890625 119.726562 C 104.890625 119.859375 104.890625 120.0625 104.890625 120.332031 "/>
<path style=" stroke:none;fill-rule:nonzero;fill:rgb(100%,0%,0%);fill-opacity:1;" d="M 112.679688 115.066406 L 112.070312 119.320312 C 111.933594 119.859375 111.730469 120.46875 111.464844 121.144531 C 111.464844 121.414062 111.394531 121.617188 111.261719 121.75 C 110.988281 122.425781 110.585938 122.832031 110.046875 122.964844 C 110.046875 122.964844 109.976562 122.964844 109.84375 122.964844 C 109.4375 122.964844 109.101562 122.832031 108.828125 122.5625 C 108.695312 122.425781 108.628906 122.289062 108.628906 122.15625 C 108.628906 121.75 108.828125 121.480469 109.234375 121.347656 C 109.234375 121.347656 109.300781 121.347656 109.4375 121.347656 C 109.707031 121.347656 109.84375 121.414062 109.84375 121.546875 C 109.84375 121.683594 109.84375 121.75 109.84375 121.75 C 109.84375 122.019531 109.707031 122.222656 109.4375 122.359375 C 109.4375 122.359375 109.371094 122.425781 109.234375 122.5625 C 109.371094 122.695312 109.570312 122.765625 109.84375 122.765625 C 110.246094 122.765625 110.515625 122.289062 110.652344 121.347656 C 110.785156 121.210938 110.855469 121.007812 110.855469 120.738281 L 110.855469 120.332031 L 111.867188 115.066406 L 111.058594 115.066406 C 110.785156 115.066406 110.652344 115.066406 110.652344 115.066406 C 110.652344 114.933594 110.71875 114.796875 110.855469 114.660156 L 112.070312 114.660156 C 112.203125 113.582031 112.339844 112.90625 112.476562 112.636719 C 112.746094 111.828125 113.148438 111.355469 113.691406 111.21875 C 113.824219 111.21875 113.960938 111.21875 114.09375 111.21875 C 114.5 111.21875 114.839844 111.355469 115.109375 111.625 C 115.109375 111.757812 115.109375 111.894531 115.109375 112.027344 C 115.109375 112.433594 114.972656 112.703125 114.703125 112.839844 C 114.703125 112.839844 114.636719 112.839844 114.5 112.839844 C 114.230469 112.839844 114.09375 112.773438 114.09375 112.636719 C 113.960938 112.503906 113.894531 112.433594 113.894531 112.433594 C 113.894531 112.164062 114.027344 111.960938 114.296875 111.828125 C 114.433594 111.828125 114.566406 111.757812 114.703125 111.625 C 114.566406 111.488281 114.363281 111.421875 114.09375 111.421875 C 113.824219 111.421875 113.621094 111.558594 113.488281 111.828125 C 113.351562 111.960938 113.21875 112.433594 113.082031 113.246094 L 112.878906 114.660156 L 113.894531 114.660156 C 114.164062 114.660156 114.296875 114.730469 114.296875 114.863281 C 114.296875 115 114.230469 115.066406 114.09375 115.066406 L 112.679688 115.066406 "/>
<path style=" stroke:none;fill-rule:nonzero;fill:rgb(100%,0%,0%);fill-opacity:1;" d="M 118.617188 123.371094 C 118.617188 123.507812 118.617188 123.574219 118.617188 123.574219 C 118.484375 123.574219 118.214844 123.371094 117.808594 122.964844 C 117.269531 122.425781 116.863281 121.820312 116.59375 121.144531 C 115.917969 119.929688 115.578125 118.578125 115.578125 117.09375 C 115.578125 115.605469 115.851562 114.257812 116.390625 113.042969 C 116.929688 112.097656 117.539062 111.355469 118.214844 110.8125 C 118.347656 110.679688 118.484375 110.613281 118.617188 110.613281 C 118.617188 110.613281 118.617188 110.679688 118.617188 110.8125 C 118.617188 110.8125 118.550781 110.882812 118.414062 111.015625 C 117.066406 112.367188 116.390625 114.390625 116.390625 117.09375 C 116.390625 119.792969 117.066406 121.820312 118.414062 123.167969 C 118.550781 123.304688 118.617188 123.371094 118.617188 123.371094 "/>
<path style=" stroke:none;fill-rule:nonzero;fill:rgb(100%,0%,0%);fill-opacity:1;" d="M 125.28125 118.105469 L 124.875 120.332031 L 120.015625 120.332031 C 120.015625 120.0625 120.082031 119.929688 120.214844 119.929688 L 122.648438 117.09375 C 123.59375 116.011719 124.0625 115.066406 124.0625 114.257812 C 124.0625 113.445312 123.796875 112.839844 123.253906 112.433594 C 122.984375 112.164062 122.648438 112.027344 122.242188 112.027344 C 121.703125 112.027344 121.230469 112.300781 120.824219 112.839844 C 120.6875 112.976562 120.621094 113.175781 120.621094 113.445312 C 120.621094 113.445312 120.6875 113.445312 120.824219 113.445312 C 121.09375 113.445312 121.296875 113.582031 121.433594 113.851562 C 121.433594 113.988281 121.433594 114.054688 121.433594 114.054688 C 121.433594 114.460938 121.230469 114.660156 120.824219 114.660156 C 120.824219 114.796875 120.824219 114.863281 120.824219 114.863281 C 120.417969 114.863281 120.148438 114.730469 120.015625 114.460938 C 120.015625 114.324219 120.015625 114.191406 120.015625 114.054688 C 120.015625 113.378906 120.285156 112.839844 120.824219 112.433594 C 121.230469 111.894531 121.769531 111.625 122.445312 111.625 C 123.390625 111.625 124.132812 111.960938 124.671875 112.636719 C 124.941406 113.042969 125.144531 113.515625 125.28125 114.054688 C 125.28125 114.054688 125.28125 114.121094 125.28125 114.257812 C 125.28125 114.796875 125.011719 115.40625 124.46875 116.078125 C 124.199219 116.351562 123.796875 116.6875 123.253906 117.09375 L 122.648438 117.902344 L 122.445312 117.902344 L 121.027344 119.320312 L 123.457031 119.320312 C 124.132812 119.320312 124.535156 119.320312 124.671875 119.320312 C 124.671875 119.1875 124.738281 118.78125 124.875 118.105469 L 125.28125 118.105469 "/>
<path style=" stroke:none;fill-rule:nonzero;fill:rgb(100%,0%,0%);fill-opacity:1;" d="M 129.53125 117.09375 C 129.53125 118.578125 129.261719 119.929688 128.722656 121.144531 C 128.316406 122.089844 127.777344 122.832031 127.101562 123.371094 C 126.96875 123.507812 126.832031 123.574219 126.699219 123.574219 C 126.699219 123.574219 126.699219 123.507812 126.699219 123.371094 C 126.699219 123.371094 126.699219 123.304688 126.699219 123.167969 C 128.183594 121.820312 128.925781 119.792969 128.925781 117.09375 C 128.925781 114.390625 128.25 112.367188 126.898438 111.015625 C 126.765625 110.882812 126.699219 110.8125 126.699219 110.8125 C 126.699219 110.679688 126.699219 110.613281 126.699219 110.613281 C 126.832031 110.613281 127.101562 110.8125 127.507812 111.21875 C 128.046875 111.757812 128.453125 112.367188 128.722656 113.042969 C 129.261719 114.257812 129.53125 115.605469 129.53125 117.09375 "/>
<path style=" stroke:none;fill-rule:nonzero;fill:rgb(100%,0%,0%);fill-opacity:1;" d="M 134.574219 117.09375 C 134.574219 118.578125 134.304688 119.929688 133.765625 121.144531 C 133.359375 122.089844 132.820312 122.832031 132.144531 123.371094 C 132.007812 123.507812 131.871094 123.574219 131.738281 123.574219 C 131.738281 123.574219 131.738281 123.507812 131.738281 123.371094 C 131.738281 123.371094 131.738281 123.304688 131.738281 123.167969 C 133.222656 121.820312 133.964844 119.792969 133.964844 117.09375 C 133.964844 114.390625 133.289062 112.367188 131.941406 111.015625 C 131.804688 110.882812 131.738281 110.8125 131.738281 110.8125 C 131.738281 110.679688 131.738281 110.613281 131.738281 110.613281 C 131.871094 110.613281 132.144531 110.8125 132.550781 111.21875 C 133.089844 111.757812 133.492188 112.367188 133.765625 113.042969 C 134.304688 114.257812 134.574219 115.605469 134.574219 117.09375 "/>
</g>
</svg>
