<?xml version="1.0" encoding="UTF-8"?>
<svg xmlns="http://www.w3.org/2000/svg" xmlns:xlink="http://www.w3.org/1999/xlink" width="450pt" height="150pt" viewBox="0 0 450 150" version="1.1">
<defs>
<clipPath id="clip1">
  <path d="M 29 13 L 140 13 L 140 114 L 29 114 Z M 29 13 "/>
</clipPath>
<clipPath id="clip2">
  <path d="M 179 11 L 290 11 L 290 115 L 179 115 Z M 179 11 "/>
</clipPath>
<clipPath id="clip3">
  <path d="M 329 10 L 440 10 L 440 122 L 329 122 Z M 329 10 "/>
</clipPath>
</defs>
<g id="surface1">
<path style="fill:none;stroke-width:5;stroke-linecap:butt;stroke-linejoin:miter;stroke:rgb(80.076599%,80.076599%,80.076599%);stroke-opacity:1;stroke-miterlimit:10;" d="M 100 100 L 100 1400 M 425 100 L 425 1400 M 750 100 L 750 1400 M 1075 100 L 1075 1400 M 1400 100 L 1400 1400 M 100 100 L 1400 100 M 100 425 L 1400 425 M 100 750 L 1400 750 M 100 1075 L 1400 1075 M 100 1400 L 1400 1400 " transform="matrix(0.1,0,0,-0.1,0,150)"/>
<path style="fill:none;stroke-width:10;stroke-linecap:butt;stroke-linejoin:miter;stroke:rgb(0%,0%,0%);stroke-opacity:1;stroke-miterlimit:10;" d="M 100 425 L 1400 425 M 425 100 L 425 1400 " transform="matrix(0.1,0,0,-0.1,0,150)"/>
<g clip-path="url(#clip1)" clip-rule="nonzero">
<path style="fill:none;stroke-width:15;stroke-linecap:butt;stroke-linejoin:miter;stroke:rgb(0%,0%,100%);stroke-opacity:1;stroke-miterlimit:10;" d="M 506.25 1155.039062 L 514.375 1140.625 L 522.5 1126.484375 L 530.625 1112.695312 L 538.75 1099.21875 L 546.875 1086.015625 L 555 1073.125 L 563.125 1060.507812 L 571.25 1048.164062 L 579.375 1036.09375 L 587.5 1024.335938 L 595.625 1012.8125 L 603.75 1001.523438 L 611.875 990.507812 L 620 979.726562 L 628.125 969.179688 L 636.25 958.90625 L 644.375 948.828125 L 652.5 938.984375 L 660.625 929.335938 L 668.75 919.921875 L 676.875 910.742188 L 685 901.71875 L 693.125 892.929688 L 701.25 884.335938 L 709.375 875.9375 L 717.5 867.695312 L 725.625 859.648438 L 733.75 851.796875 L 741.875 844.101562 L 750 836.601562 L 758.125 829.21875 L 766.25 822.070312 L 774.375 815.039062 L 782.5 808.164062 L 790.625 801.445312 L 798.75 794.882812 L 806.875 788.4375 L 815 782.1875 L 823.125 776.015625 L 831.25 770.039062 L 839.375 764.140625 L 847.5 758.4375 L 855.625 752.8125 L 863.75 747.34375 L 871.875 741.953125 L 880 736.71875 L 888.125 731.601562 L 896.25 726.5625 L 904.375 721.679688 L 912.5 716.875 L 920.625 712.1875 L 928.75 707.617188 L 936.875 703.125 L 945 698.75 L 953.125 694.492188 L 961.25 690.273438 L 969.375 686.171875 L 977.5 682.1875 L 985.625 678.28125 L 993.75 674.453125 L 1001.875 670.703125 L 1010 667.03125 L 1018.125 663.476562 L 1026.25 659.960938 L 1034.375 656.5625 L 1042.5 653.203125 L 1050.625 649.921875 L 1058.75 646.71875 L 1066.875 643.59375 L 1075 640.546875 L 1083.125 637.578125 L 1091.25 634.648438 L 1099.375 631.796875 L 1107.5 628.984375 L 1115.625 626.25 L 1123.75 623.59375 L 1131.875 620.976562 L 1140 618.4375 L 1148.125 615.9375 L 1156.25 613.476562 L 1164.375 611.09375 L 1180.625 606.484375 L 1188.75 604.257812 L 1196.875 602.070312 L 1213.125 597.851562 L 1221.25 595.820312 L 1229.375 593.828125 L 1237.5 591.875 L 1245.625 589.960938 L 1261.875 586.289062 L 1278.125 582.773438 L 1286.25 581.054688 L 1302.5 577.773438 L 1310.625 576.171875 L 1318.75 574.648438 " transform="matrix(0.1,0,0,-0.1,0,150)"/>
</g>
<path style="fill:none;stroke-width:5;stroke-linecap:butt;stroke-linejoin:miter;stroke:rgb(80.076599%,80.076599%,80.076599%);stroke-opacity:1;stroke-miterlimit:10;" d="M 1600 100 L 1600 1400 M 1925 100 L 1925 1400 M 2250 100 L 2250 1400 M 2575 100 L 2575 1400 M 2900 100 L 2900 1400 M 1600 100 L 2900 100 M 1600 425 L 2900 425 M 1600 750 L 2900 750 M 1600 1075 L 2900 1075 M 1600 1400 L 2900 1400 " transform="matrix(0.1,0,0,-0.1,0,150)"/>
<path style="fill:none;stroke-width:10;stroke-linecap:butt;stroke-linejoin:miter;stroke:rgb(0%,0%,0%);stroke-opacity:1;stroke-miterlimit:10;" d="M 1600 425 L 2900 425 M 1925 100 L 1925 1400 " transform="matrix(0.1,0,0,-0.1,0,150)"/>
<g clip-path="url(#clip2)" clip-rule="nonzero">
<path style="fill:none;stroke-width:15;stroke-linecap:butt;stroke-linejoin:miter;stroke:rgb(0%,0%,100%);stroke-opacity:1;stroke-miterlimit:10;" d="M 2006.25 1176.5625 L 2818.75 567.1875 " transform="matrix(0.1,0,0,-0.1,0,150)"/>
</g>
<path style="fill:none;stroke-width:5;stroke-linecap:butt;stroke-linejoin:miter;stroke:rgb(80.076599%,80.076599%,80.076599%);stroke-opacity:1;stroke-miterlimit:10;" d="M 3100 100 L 3100 1400 M 3425 100 L 3425 1400 M 3750 100 L 3750 1400 M 4075 100 L 4075 1400 M 4400 100 L 4400 1400 M 3100 100 L 4400 100 M 3100 425 L 4400 425 M 3100 750 L 4400 750 M 3100 1075 L 4400 1075 M 3100 1400 L 4400 1400 " transform="matrix(0.1,0,0,-0.1,0,150)"/>
<path style="fill:none;stroke-width:10;stroke-linecap:butt;stroke-linejoin:miter;stroke:rgb(0%,0%,0%);stroke-opacity:1;stroke-miterlimit:10;" d="M 3100 425 L 4400 425 M 3425 100 L 3425 1400 " transform="matrix(0.1,0,0,-0.1,0,150)"/>
<g clip-path="url(#clip3)" clip-rule="nonzero">
<path style="fill:none;stroke-width:15;stroke-linecap:butt;stroke-linejoin:miter;stroke:rgb(0%,0%,100%);stroke-opacity:1;stroke-miterlimit:10;" d="M 3506.25 1183.476562 L 3514.0625 1181.015625 L 3521.835938 1178.515625 L 3529.648438 1175.976562 L 3537.460938 1173.398438 L 3545.234375 1170.742188 L 3553.046875 1168.046875 L 3560.859375 1165.3125 L 3568.632812 1162.539062 L 3576.445312 1159.6875 L 3584.257812 1156.796875 L 3592.03125 1153.867188 L 3599.84375 1150.859375 L 3607.65625 1147.8125 L 3615.46875 1144.726562 L 3623.242188 1141.5625 L 3631.054688 1138.359375 L 3638.867188 1135.078125 L 3646.640625 1131.71875 L 3654.453125 1128.320312 L 3662.265625 1124.882812 L 3670.039062 1121.328125 L 3677.851562 1117.773438 L 3685.664062 1114.101562 L 3693.4375 1110.390625 L 3701.25 1106.601562 L 3709.0625 1102.734375 L 3716.835938 1098.828125 L 3724.648438 1094.84375 L 3732.460938 1090.78125 L 3740.234375 1086.640625 L 3748.046875 1082.421875 L 3755.859375 1078.125 L 3763.632812 1073.75 L 3771.445312 1069.296875 L 3779.257812 1064.765625 L 3787.03125 1060.15625 L 3794.84375 1055.46875 L 3802.65625 1050.664062 L 3810.46875 1045.820312 L 3818.242188 1040.859375 L 3826.054688 1035.78125 L 3833.867188 1030.664062 L 3841.640625 1025.429688 L 3849.453125 1020.117188 L 3857.265625 1014.6875 L 3865.039062 1009.140625 L 3872.851562 1003.554688 L 3880.664062 997.8125 L 3888.4375 991.992188 L 3896.25 986.054688 L 3904.0625 980 L 3911.835938 973.867188 L 3919.648438 967.578125 L 3927.460938 961.210938 L 3935.234375 954.726562 L 3943.046875 948.085938 L 3950.859375 941.367188 L 3958.632812 934.53125 L 3966.445312 927.539062 L 3974.257812 920.429688 L 3982.03125 913.203125 L 3989.84375 905.820312 L 3997.65625 898.320312 L 4005.46875 890.703125 L 4013.242188 882.929688 L 4021.054688 875 L 4028.867188 866.953125 L 4036.640625 858.75 L 4044.453125 850.390625 L 4052.265625 841.875 L 4060.039062 833.203125 L 4067.851562 824.414062 L 4075.664062 815.429688 L 4083.4375 806.289062 L 4091.25 796.953125 L 4099.0625 787.5 L 4106.835938 777.851562 L 4114.648438 768.007812 L 4122.460938 758.007812 L 4130.234375 747.8125 L 4138.046875 737.460938 L 4145.859375 726.914062 L 4153.632812 716.132812 L 4161.445312 705.195312 L 4169.257812 694.0625 L 4177.03125 682.734375 L 4184.84375 671.171875 L 4192.65625 659.414062 L 4200.46875 647.421875 L 4208.242188 635.234375 L 4216.054688 622.8125 L 4223.867188 610.195312 L 4231.640625 597.304688 L 4239.453125 584.21875 L 4247.265625 570.859375 L 4255.039062 557.265625 L 4262.851562 543.4375 L 4270.664062 529.375 L 4278.4375 515.039062 L 4286.25 500.429688 " transform="matrix(0.1,0,0,-0.1,0,150)"/>
</g>
</g>
</svg>
