<?xml version="1.0" encoding="UTF-8"?>
<svg xmlns="http://www.w3.org/2000/svg" xmlns:xlink="http://www.w3.org/1999/xlink" width="185pt" height="185pt" viewBox="0 0 185 185" version="1.1">
<g id="surface1">
<rect x="0" y="0" width="185" height="185" style="fill:rgb(100%,100%,100%);fill-opacity:1;stroke:none;"/>
<path style="fill:none;stroke-width:10;stroke-linecap:round;stroke-linejoin:round;stroke:rgb(75.389099%,75.389099%,75.389099%);stroke-opacity:1;stroke-miterlimit:10;" d="M 78.007812 2002.617188 L 78.007812 -306.054688 " transform="matrix(0.1,0,0,-0.1,0,185)"/>
<path style="fill:none;stroke-width:10;stroke-linecap:round;stroke-linejoin:round;stroke:rgb(75.389099%,75.389099%,75.389099%);stroke-opacity:1;stroke-miterlimit:10;" d="M 361.484375 2002.617188 L 361.484375 -306.054688 " transform="matrix(0.1,0,0,-0.1,0,185)"/>
<path style="fill:none;stroke-width:10;stroke-linecap:round;stroke-linejoin:round;stroke:rgb(75.389099%,75.389099%,75.389099%);stroke-opacity:1;stroke-miterlimit:10;" d="M 644.921875 2002.617188 L 644.921875 -306.054688 " transform="matrix(0.1,0,0,-0.1,0,185)"/>
<path style="fill:none;stroke-width:10;stroke-linecap:round;stroke-linejoin:round;stroke:rgb(75.389099%,75.389099%,75.389099%);stroke-opacity:1;stroke-miterlimit:10;" d="M 1211.875 2002.617188 L 1211.875 -306.054688 " transform="matrix(0.1,0,0,-0.1,0,185)"/>
<path style="fill:none;stroke-width:10;stroke-linecap:round;stroke-linejoin:round;stroke:rgb(75.389099%,75.389099%,75.389099%);stroke-opacity:1;stroke-miterlimit:10;" d="M 1495.351562 2002.617188 L 1495.351562 -306.054688 " transform="matrix(0.1,0,0,-0.1,0,185)"/>
<path style="fill:none;stroke-width:10;stroke-linecap:round;stroke-linejoin:round;stroke:rgb(75.389099%,75.389099%,75.389099%);stroke-opacity:1;stroke-miterlimit:10;" d="M 1778.789062 2002.617188 L 1778.789062 -306.054688 " transform="matrix(0.1,0,0,-0.1,0,185)"/>
<path style="fill:none;stroke-width:10;stroke-linecap:round;stroke-linejoin:round;stroke:rgb(94.139099%,94.139099%,94.139099%);stroke-opacity:1;stroke-miterlimit:10;" d="M 21.328125 2002.617188 L 21.328125 -306.054688 " transform="matrix(0.1,0,0,-0.1,0,185)"/>
<path style="fill:none;stroke-width:10;stroke-linecap:round;stroke-linejoin:round;stroke:rgb(94.139099%,94.139099%,94.139099%);stroke-opacity:1;stroke-miterlimit:10;" d="M 134.6875 2002.617188 L 134.6875 -306.054688 " transform="matrix(0.1,0,0,-0.1,0,185)"/>
<path style="fill:none;stroke-width:10;stroke-linecap:round;stroke-linejoin:round;stroke:rgb(94.139099%,94.139099%,94.139099%);stroke-opacity:1;stroke-miterlimit:10;" d="M 191.40625 2002.617188 L 191.40625 -306.054688 " transform="matrix(0.1,0,0,-0.1,0,185)"/>
<path style="fill:none;stroke-width:10;stroke-linecap:round;stroke-linejoin:round;stroke:rgb(94.139099%,94.139099%,94.139099%);stroke-opacity:1;stroke-miterlimit:10;" d="M 248.085938 2002.617188 L 248.085938 -306.054688 " transform="matrix(0.1,0,0,-0.1,0,185)"/>
<path style="fill:none;stroke-width:10;stroke-linecap:round;stroke-linejoin:round;stroke:rgb(94.139099%,94.139099%,94.139099%);stroke-opacity:1;stroke-miterlimit:10;" d="M 304.765625 2002.617188 L 304.765625 -306.054688 " transform="matrix(0.1,0,0,-0.1,0,185)"/>
<path style="fill:none;stroke-width:10;stroke-linecap:round;stroke-linejoin:round;stroke:rgb(94.139099%,94.139099%,94.139099%);stroke-opacity:1;stroke-miterlimit:10;" d="M 418.164062 2002.617188 L 418.164062 -306.054688 " transform="matrix(0.1,0,0,-0.1,0,185)"/>
<path style="fill:none;stroke-width:10;stroke-linecap:round;stroke-linejoin:round;stroke:rgb(94.139099%,94.139099%,94.139099%);stroke-opacity:1;stroke-miterlimit:10;" d="M 474.84375 2002.617188 L 474.84375 -306.054688 " transform="matrix(0.1,0,0,-0.1,0,185)"/>
<path style="fill:none;stroke-width:10;stroke-linecap:round;stroke-linejoin:round;stroke:rgb(94.139099%,94.139099%,94.139099%);stroke-opacity:1;stroke-miterlimit:10;" d="M 531.5625 2002.617188 L 531.5625 -306.054688 " transform="matrix(0.1,0,0,-0.1,0,185)"/>
<path style="fill:none;stroke-width:10;stroke-linecap:round;stroke-linejoin:round;stroke:rgb(94.139099%,94.139099%,94.139099%);stroke-opacity:1;stroke-miterlimit:10;" d="M 588.242188 2002.617188 L 588.242188 -306.054688 " transform="matrix(0.1,0,0,-0.1,0,185)"/>
<path style="fill:none;stroke-width:10;stroke-linecap:round;stroke-linejoin:round;stroke:rgb(94.139099%,94.139099%,94.139099%);stroke-opacity:1;stroke-miterlimit:10;" d="M 701.640625 2002.617188 L 701.640625 -306.054688 " transform="matrix(0.1,0,0,-0.1,0,185)"/>
<path style="fill:none;stroke-width:10;stroke-linecap:round;stroke-linejoin:round;stroke:rgb(94.139099%,94.139099%,94.139099%);stroke-opacity:1;stroke-miterlimit:10;" d="M 758.320312 2002.617188 L 758.320312 -306.054688 " transform="matrix(0.1,0,0,-0.1,0,185)"/>
<path style="fill:none;stroke-width:10;stroke-linecap:round;stroke-linejoin:round;stroke:rgb(94.139099%,94.139099%,94.139099%);stroke-opacity:1;stroke-miterlimit:10;" d="M 815.039062 2002.617188 L 815.039062 -306.054688 " transform="matrix(0.1,0,0,-0.1,0,185)"/>
<path style="fill:none;stroke-width:10;stroke-linecap:round;stroke-linejoin:round;stroke:rgb(94.139099%,94.139099%,94.139099%);stroke-opacity:1;stroke-miterlimit:10;" d="M 871.71875 2002.617188 L 871.71875 -306.054688 " transform="matrix(0.1,0,0,-0.1,0,185)"/>
<path style="fill:none;stroke-width:10;stroke-linecap:round;stroke-linejoin:round;stroke:rgb(94.139099%,94.139099%,94.139099%);stroke-opacity:1;stroke-miterlimit:10;" d="M 985.117188 2002.617188 L 985.117188 -306.054688 " transform="matrix(0.1,0,0,-0.1,0,185)"/>
<path style="fill:none;stroke-width:10;stroke-linecap:round;stroke-linejoin:round;stroke:rgb(94.139099%,94.139099%,94.139099%);stroke-opacity:1;stroke-miterlimit:10;" d="M 1041.796875 2002.617188 L 1041.796875 -306.054688 " transform="matrix(0.1,0,0,-0.1,0,185)"/>
<path style="fill:none;stroke-width:10;stroke-linecap:round;stroke-linejoin:round;stroke:rgb(94.139099%,94.139099%,94.139099%);stroke-opacity:1;stroke-miterlimit:10;" d="M 1098.476562 2002.617188 L 1098.476562 -306.054688 " transform="matrix(0.1,0,0,-0.1,0,185)"/>
<path style="fill:none;stroke-width:10;stroke-linecap:round;stroke-linejoin:round;stroke:rgb(94.139099%,94.139099%,94.139099%);stroke-opacity:1;stroke-miterlimit:10;" d="M 1155.195312 2002.617188 L 1155.195312 -306.054688 " transform="matrix(0.1,0,0,-0.1,0,185)"/>
<path style="fill:none;stroke-width:10;stroke-linecap:round;stroke-linejoin:round;stroke:rgb(94.139099%,94.139099%,94.139099%);stroke-opacity:1;stroke-miterlimit:10;" d="M 1268.554688 2002.617188 L 1268.554688 -306.054688 " transform="matrix(0.1,0,0,-0.1,0,185)"/>
<path style="fill:none;stroke-width:10;stroke-linecap:round;stroke-linejoin:round;stroke:rgb(94.139099%,94.139099%,94.139099%);stroke-opacity:1;stroke-miterlimit:10;" d="M 1325.273438 2002.617188 L 1325.273438 -306.054688 " transform="matrix(0.1,0,0,-0.1,0,185)"/>
<path style="fill:none;stroke-width:10;stroke-linecap:round;stroke-linejoin:round;stroke:rgb(94.139099%,94.139099%,94.139099%);stroke-opacity:1;stroke-miterlimit:10;" d="M 1381.953125 2002.617188 L 1381.953125 -306.054688 " transform="matrix(0.1,0,0,-0.1,0,185)"/>
<path style="fill:none;stroke-width:10;stroke-linecap:round;stroke-linejoin:round;stroke:rgb(94.139099%,94.139099%,94.139099%);stroke-opacity:1;stroke-miterlimit:10;" d="M 1438.632812 2002.617188 L 1438.632812 -306.054688 " transform="matrix(0.1,0,0,-0.1,0,185)"/>
<path style="fill:none;stroke-width:10;stroke-linecap:round;stroke-linejoin:round;stroke:rgb(94.139099%,94.139099%,94.139099%);stroke-opacity:1;stroke-miterlimit:10;" d="M 1552.03125 2002.617188 L 1552.03125 -306.054688 " transform="matrix(0.1,0,0,-0.1,0,185)"/>
<path style="fill:none;stroke-width:10;stroke-linecap:round;stroke-linejoin:round;stroke:rgb(94.139099%,94.139099%,94.139099%);stroke-opacity:1;stroke-miterlimit:10;" d="M 1608.710938 2002.617188 L 1608.710938 -306.054688 " transform="matrix(0.1,0,0,-0.1,0,185)"/>
<path style="fill:none;stroke-width:10;stroke-linecap:round;stroke-linejoin:round;stroke:rgb(94.139099%,94.139099%,94.139099%);stroke-opacity:1;stroke-miterlimit:10;" d="M 1665.390625 2002.617188 L 1665.390625 -306.054688 " transform="matrix(0.1,0,0,-0.1,0,185)"/>
<path style="fill:none;stroke-width:10;stroke-linecap:round;stroke-linejoin:round;stroke:rgb(94.139099%,94.139099%,94.139099%);stroke-opacity:1;stroke-miterlimit:10;" d="M 1722.109375 2002.617188 L 1722.109375 -306.054688 " transform="matrix(0.1,0,0,-0.1,0,185)"/>
<path style="fill:none;stroke-width:10;stroke-linecap:round;stroke-linejoin:round;stroke:rgb(94.139099%,94.139099%,94.139099%);stroke-opacity:1;stroke-miterlimit:10;" d="M 1835.507812 2002.617188 L 1835.507812 -306.054688 " transform="matrix(0.1,0,0,-0.1,0,185)"/>
<path style="fill:none;stroke-width:10;stroke-linecap:round;stroke-linejoin:round;stroke:rgb(75.389099%,75.389099%,75.389099%);stroke-opacity:1;stroke-miterlimit:10;" d="M -211.679688 1778.4375 L 2313.59375 1778.4375 " transform="matrix(0.1,0,0,-0.1,0,185)"/>
<path style="fill:none;stroke-width:10;stroke-linecap:round;stroke-linejoin:round;stroke:rgb(75.389099%,75.389099%,75.389099%);stroke-opacity:1;stroke-miterlimit:10;" d="M -211.679688 1778.4375 L 2313.59375 1778.4375 " transform="matrix(0.1,0,0,-0.1,0,185)"/>
<path style="fill:none;stroke-width:10;stroke-linecap:round;stroke-linejoin:round;stroke:rgb(75.389099%,75.389099%,75.389099%);stroke-opacity:1;stroke-miterlimit:10;" d="M -211.679688 1494.960938 L 2313.59375 1494.960938 " transform="matrix(0.1,0,0,-0.1,0,185)"/>
<path style="fill:none;stroke-width:10;stroke-linecap:round;stroke-linejoin:round;stroke:rgb(75.389099%,75.389099%,75.389099%);stroke-opacity:1;stroke-miterlimit:10;" d="M -211.679688 1211.523438 L 2313.59375 1211.523438 " transform="matrix(0.1,0,0,-0.1,0,185)"/>
<path style="fill:none;stroke-width:10;stroke-linecap:round;stroke-linejoin:round;stroke:rgb(75.389099%,75.389099%,75.389099%);stroke-opacity:1;stroke-miterlimit:10;" d="M -211.679688 644.570312 L 2313.59375 644.570312 " transform="matrix(0.1,0,0,-0.1,0,185)"/>
<path style="fill:none;stroke-width:10;stroke-linecap:round;stroke-linejoin:round;stroke:rgb(75.389099%,75.389099%,75.389099%);stroke-opacity:1;stroke-miterlimit:10;" d="M -211.679688 361.132812 L 2313.59375 361.132812 " transform="matrix(0.1,0,0,-0.1,0,185)"/>
<path style="fill:none;stroke-width:10;stroke-linecap:round;stroke-linejoin:round;stroke:rgb(75.389099%,75.389099%,75.389099%);stroke-opacity:1;stroke-miterlimit:10;" d="M -211.679688 77.65625 L 2313.59375 77.65625 " transform="matrix(0.1,0,0,-0.1,0,185)"/>
<path style="fill:none;stroke-width:10;stroke-linecap:round;stroke-linejoin:round;stroke:rgb(94.139099%,94.139099%,94.139099%);stroke-opacity:1;stroke-miterlimit:10;" d="M -211.679688 1835.15625 L 2313.59375 1835.15625 " transform="matrix(0.1,0,0,-0.1,0,185)"/>
<path style="fill:none;stroke-width:10;stroke-linecap:round;stroke-linejoin:round;stroke:rgb(94.139099%,94.139099%,94.139099%);stroke-opacity:1;stroke-miterlimit:10;" d="M -211.679688 1721.757812 L 2313.59375 1721.757812 " transform="matrix(0.1,0,0,-0.1,0,185)"/>
<path style="fill:none;stroke-width:10;stroke-linecap:round;stroke-linejoin:round;stroke:rgb(94.139099%,94.139099%,94.139099%);stroke-opacity:1;stroke-miterlimit:10;" d="M -211.679688 1665.078125 L 2313.59375 1665.078125 " transform="matrix(0.1,0,0,-0.1,0,185)"/>
<path style="fill:none;stroke-width:10;stroke-linecap:round;stroke-linejoin:round;stroke:rgb(94.139099%,94.139099%,94.139099%);stroke-opacity:1;stroke-miterlimit:10;" d="M -211.679688 1608.359375 L 2313.59375 1608.359375 " transform="matrix(0.1,0,0,-0.1,0,185)"/>
<path style="fill:none;stroke-width:10;stroke-linecap:round;stroke-linejoin:round;stroke:rgb(94.139099%,94.139099%,94.139099%);stroke-opacity:1;stroke-miterlimit:10;" d="M -211.679688 1551.679688 L 2313.59375 1551.679688 " transform="matrix(0.1,0,0,-0.1,0,185)"/>
<path style="fill:none;stroke-width:10;stroke-linecap:round;stroke-linejoin:round;stroke:rgb(94.139099%,94.139099%,94.139099%);stroke-opacity:1;stroke-miterlimit:10;" d="M -211.679688 1438.28125 L 2313.59375 1438.28125 " transform="matrix(0.1,0,0,-0.1,0,185)"/>
<path style="fill:none;stroke-width:10;stroke-linecap:round;stroke-linejoin:round;stroke:rgb(94.139099%,94.139099%,94.139099%);stroke-opacity:1;stroke-miterlimit:10;" d="M -211.679688 1381.601562 L 2313.59375 1381.601562 " transform="matrix(0.1,0,0,-0.1,0,185)"/>
<path style="fill:none;stroke-width:10;stroke-linecap:round;stroke-linejoin:round;stroke:rgb(94.139099%,94.139099%,94.139099%);stroke-opacity:1;stroke-miterlimit:10;" d="M -211.679688 1324.882812 L 2313.59375 1324.882812 " transform="matrix(0.1,0,0,-0.1,0,185)"/>
<path style="fill:none;stroke-width:10;stroke-linecap:round;stroke-linejoin:round;stroke:rgb(94.139099%,94.139099%,94.139099%);stroke-opacity:1;stroke-miterlimit:10;" d="M -211.679688 1268.203125 L 2313.59375 1268.203125 " transform="matrix(0.1,0,0,-0.1,0,185)"/>
<path style="fill:none;stroke-width:10;stroke-linecap:round;stroke-linejoin:round;stroke:rgb(94.139099%,94.139099%,94.139099%);stroke-opacity:1;stroke-miterlimit:10;" d="M -211.679688 1154.804688 L 2313.59375 1154.804688 " transform="matrix(0.1,0,0,-0.1,0,185)"/>
<path style="fill:none;stroke-width:10;stroke-linecap:round;stroke-linejoin:round;stroke:rgb(94.139099%,94.139099%,94.139099%);stroke-opacity:1;stroke-miterlimit:10;" d="M -211.679688 1098.125 L 2313.59375 1098.125 " transform="matrix(0.1,0,0,-0.1,0,185)"/>
<path style="fill:none;stroke-width:10;stroke-linecap:round;stroke-linejoin:round;stroke:rgb(94.139099%,94.139099%,94.139099%);stroke-opacity:1;stroke-miterlimit:10;" d="M -211.679688 1041.445312 L 2313.59375 1041.445312 " transform="matrix(0.1,0,0,-0.1,0,185)"/>
<path style="fill:none;stroke-width:10;stroke-linecap:round;stroke-linejoin:round;stroke:rgb(94.139099%,94.139099%,94.139099%);stroke-opacity:1;stroke-miterlimit:10;" d="M -211.679688 984.726562 L 2313.59375 984.726562 " transform="matrix(0.1,0,0,-0.1,0,185)"/>
<path style="fill:none;stroke-width:10;stroke-linecap:round;stroke-linejoin:round;stroke:rgb(94.139099%,94.139099%,94.139099%);stroke-opacity:1;stroke-miterlimit:10;" d="M -211.679688 871.367188 L 2313.59375 871.367188 " transform="matrix(0.1,0,0,-0.1,0,185)"/>
<path style="fill:none;stroke-width:10;stroke-linecap:round;stroke-linejoin:round;stroke:rgb(94.139099%,94.139099%,94.139099%);stroke-opacity:1;stroke-miterlimit:10;" d="M -211.679688 814.648438 L 2313.59375 814.648438 " transform="matrix(0.1,0,0,-0.1,0,185)"/>
<path style="fill:none;stroke-width:10;stroke-linecap:round;stroke-linejoin:round;stroke:rgb(94.139099%,94.139099%,94.139099%);stroke-opacity:1;stroke-miterlimit:10;" d="M -211.679688 757.96875 L 2313.59375 757.96875 " transform="matrix(0.1,0,0,-0.1,0,185)"/>
<path style="fill:none;stroke-width:10;stroke-linecap:round;stroke-linejoin:round;stroke:rgb(94.139099%,94.139099%,94.139099%);stroke-opacity:1;stroke-miterlimit:10;" d="M -211.679688 701.289062 L 2313.59375 701.289062 " transform="matrix(0.1,0,0,-0.1,0,185)"/>
<path style="fill:none;stroke-width:10;stroke-linecap:round;stroke-linejoin:round;stroke:rgb(94.139099%,94.139099%,94.139099%);stroke-opacity:1;stroke-miterlimit:10;" d="M -211.679688 587.890625 L 2313.59375 587.890625 " transform="matrix(0.1,0,0,-0.1,0,185)"/>
<path style="fill:none;stroke-width:10;stroke-linecap:round;stroke-linejoin:round;stroke:rgb(94.139099%,94.139099%,94.139099%);stroke-opacity:1;stroke-miterlimit:10;" d="M -211.679688 531.210938 L 2313.59375 531.210938 " transform="matrix(0.1,0,0,-0.1,0,185)"/>
<path style="fill:none;stroke-width:10;stroke-linecap:round;stroke-linejoin:round;stroke:rgb(94.139099%,94.139099%,94.139099%);stroke-opacity:1;stroke-miterlimit:10;" d="M -211.679688 474.492188 L 2313.59375 474.492188 " transform="matrix(0.1,0,0,-0.1,0,185)"/>
<path style="fill:none;stroke-width:10;stroke-linecap:round;stroke-linejoin:round;stroke:rgb(94.139099%,94.139099%,94.139099%);stroke-opacity:1;stroke-miterlimit:10;" d="M -211.679688 417.8125 L 2313.59375 417.8125 " transform="matrix(0.1,0,0,-0.1,0,185)"/>
<path style="fill:none;stroke-width:10;stroke-linecap:round;stroke-linejoin:round;stroke:rgb(94.139099%,94.139099%,94.139099%);stroke-opacity:1;stroke-miterlimit:10;" d="M -211.679688 304.414062 L 2313.59375 304.414062 " transform="matrix(0.1,0,0,-0.1,0,185)"/>
<path style="fill:none;stroke-width:10;stroke-linecap:round;stroke-linejoin:round;stroke:rgb(94.139099%,94.139099%,94.139099%);stroke-opacity:1;stroke-miterlimit:10;" d="M -211.679688 247.734375 L 2313.59375 247.734375 " transform="matrix(0.1,0,0,-0.1,0,185)"/>
<path style="fill:none;stroke-width:10;stroke-linecap:round;stroke-linejoin:round;stroke:rgb(94.139099%,94.139099%,94.139099%);stroke-opacity:1;stroke-miterlimit:10;" d="M -211.679688 191.054688 L 2313.59375 191.054688 " transform="matrix(0.1,0,0,-0.1,0,185)"/>
<path style="fill:none;stroke-width:10;stroke-linecap:round;stroke-linejoin:round;stroke:rgb(94.139099%,94.139099%,94.139099%);stroke-opacity:1;stroke-miterlimit:10;" d="M -211.679688 134.335938 L 2313.59375 134.335938 " transform="matrix(0.1,0,0,-0.1,0,185)"/>
<path style="fill:none;stroke-width:10;stroke-linecap:round;stroke-linejoin:round;stroke:rgb(94.139099%,94.139099%,94.139099%);stroke-opacity:1;stroke-miterlimit:10;" d="M -211.679688 20.976562 L 2313.59375 20.976562 " transform="matrix(0.1,0,0,-0.1,0,185)"/>
<path style="fill:none;stroke-width:10;stroke-linecap:butt;stroke-linejoin:miter;stroke:rgb(0%,0%,0%);stroke-opacity:1;stroke-miterlimit:10;" d="M 928.398438 1992.734375 L 928.398438 -306.054688 " transform="matrix(0.1,0,0,-0.1,0,185)"/>
<path style="fill:none;stroke-width:10;stroke-linecap:butt;stroke-linejoin:miter;stroke:rgb(0%,0%,0%);stroke-opacity:1;stroke-miterlimit:10;" d="M -211.679688 928.046875 L 2303.75 928.046875 " transform="matrix(0.1,0,0,-0.1,0,185)"/>
<path style=" stroke:none;fill-rule:nonzero;fill:rgb(0%,0%,0%);fill-opacity:1;" d="M 5.226562 98.359375 L 5.226562 97.96875 L 7.574219 97.96875 L 7.574219 98.359375 Z M 8.476562 99.894531 L 8.476562 99.363281 C 8.882812 99.527344 9.203125 99.605469 9.4375 99.605469 C 9.710938 99.605469 9.929688 99.527344 10.101562 99.371094 C 10.273438 99.210938 10.355469 99.003906 10.355469 98.753906 C 10.355469 98.152344 9.9375 97.855469 9.097656 97.855469 L 8.871094 97.855469 L 8.871094 97.46875 L 9.070312 97.46875 C 9.859375 97.46875 10.253906 97.191406 10.253906 96.632812 C 10.253906 96.199219 9.992188 95.980469 9.472656 95.980469 C 9.1875 95.980469 8.875 96.058594 8.535156 96.21875 L 8.535156 95.722656 C 8.871094 95.609375 9.199219 95.550781 9.515625 95.550781 C 10.386719 95.550781 10.824219 95.882812 10.824219 96.542969 C 10.824219 97.042969 10.527344 97.402344 9.933594 97.613281 C 10.621094 97.773438 10.964844 98.152344 10.964844 98.746094 C 10.964844 99.148438 10.832031 99.460938 10.566406 99.691406 C 10.300781 99.917969 9.9375 100.035156 9.472656 100.035156 C 9.210938 100.035156 8.878906 99.988281 8.476562 99.894531 "/>
<path style=" stroke:none;fill-rule:nonzero;fill:rgb(0%,0%,0%);fill-opacity:1;" d="M 33.777344 98.359375 L 33.777344 97.96875 L 36.125 97.96875 L 36.125 98.359375 Z M 36.917969 99.925781 L 36.917969 99.429688 C 37.082031 99.042969 37.417969 98.621094 37.921875 98.164062 L 38.246094 97.875 C 38.664062 97.496094 38.875 97.117188 38.875 96.746094 C 38.875 96.507812 38.804688 96.320312 38.660156 96.183594 C 38.519531 96.046875 38.320312 95.980469 38.070312 95.980469 C 37.773438 95.980469 37.425781 96.09375 37.023438 96.324219 L 37.023438 95.820312 C 37.402344 95.640625 37.777344 95.550781 38.152344 95.550781 C 38.550781 95.550781 38.871094 95.660156 39.113281 95.875 C 39.355469 96.089844 39.476562 96.375 39.476562 96.730469 C 39.476562 96.988281 39.417969 97.214844 39.296875 97.414062 C 39.171875 97.609375 38.945312 97.851562 38.613281 98.132812 L 38.394531 98.320312 C 37.9375 98.707031 37.675781 99.078125 37.601562 99.429688 L 39.457031 99.429688 L 39.457031 99.925781 "/>
<path style=" stroke:none;fill-rule:nonzero;fill:rgb(0%,0%,0%);fill-opacity:1;" d="M 62.328125 98.359375 L 62.328125 97.96875 L 64.675781 97.96875 L 64.675781 98.359375 Z M 65.867188 99.925781 L 65.867188 99.5 L 66.71875 99.5 L 66.71875 96.132812 L 65.867188 96.34375 L 65.867188 95.90625 L 67.289062 95.550781 L 67.289062 99.5 L 68.144531 99.5 L 68.144531 99.925781 "/>
<path style=" stroke:none;fill-rule:nonzero;fill:rgb(0%,0%,0%);fill-opacity:1;" d="M 120.996094 99.925781 L 120.996094 99.5 L 121.851562 99.5 L 121.851562 96.132812 L 120.996094 96.34375 L 120.996094 95.90625 L 122.421875 95.550781 L 122.421875 99.5 L 123.277344 99.5 L 123.277344 99.925781 "/>
<path style=" stroke:none;fill-rule:nonzero;fill:rgb(0%,0%,0%);fill-opacity:1;" d="M 148.660156 99.925781 L 148.660156 99.429688 C 148.824219 99.042969 149.160156 98.621094 149.664062 98.164062 L 149.988281 97.875 C 150.40625 97.496094 150.617188 97.117188 150.617188 96.746094 C 150.617188 96.507812 150.546875 96.320312 150.402344 96.183594 C 150.257812 96.046875 150.0625 95.980469 149.8125 95.980469 C 149.515625 95.980469 149.167969 96.09375 148.765625 96.324219 L 148.765625 95.820312 C 149.144531 95.640625 149.519531 95.550781 149.894531 95.550781 C 150.292969 95.550781 150.613281 95.660156 150.855469 95.875 C 151.097656 96.089844 151.21875 96.375 151.21875 96.730469 C 151.21875 96.988281 151.160156 97.214844 151.035156 97.414062 C 150.914062 97.609375 150.6875 97.851562 150.355469 98.132812 L 150.136719 98.320312 C 149.679688 98.707031 149.414062 99.078125 149.34375 99.429688 L 151.199219 99.429688 L 151.199219 99.925781 "/>
<path style=" stroke:none;fill-rule:nonzero;fill:rgb(0%,0%,0%);fill-opacity:1;" d="M 177.320312 99.894531 L 177.320312 99.363281 C 177.726562 99.527344 178.046875 99.605469 178.28125 99.605469 C 178.554688 99.605469 178.773438 99.527344 178.945312 99.371094 C 179.113281 99.210938 179.199219 99.003906 179.199219 98.753906 C 179.199219 98.152344 178.78125 97.855469 177.9375 97.855469 L 177.714844 97.855469 L 177.714844 97.46875 L 177.914062 97.46875 C 178.703125 97.46875 179.097656 97.191406 179.097656 96.632812 C 179.097656 96.199219 178.835938 95.980469 178.316406 95.980469 C 178.03125 95.980469 177.71875 96.058594 177.378906 96.21875 L 177.378906 95.722656 C 177.714844 95.609375 178.039062 95.550781 178.355469 95.550781 C 179.230469 95.550781 179.667969 95.882812 179.667969 96.542969 C 179.667969 97.042969 179.371094 97.402344 178.777344 97.613281 C 179.464844 97.773438 179.808594 98.152344 179.808594 98.746094 C 179.808594 99.148438 179.675781 99.460938 179.410156 99.691406 C 179.144531 99.917969 178.78125 100.035156 178.316406 100.035156 C 178.054688 100.035156 177.722656 99.988281 177.320312 99.894531 "/>
<path style=" stroke:none;fill-rule:nonzero;fill:rgb(0%,0%,0%);fill-opacity:1;" d="M 82.507812 178.105469 L 82.507812 177.714844 L 84.855469 177.714844 L 84.855469 178.105469 Z M 85.761719 179.640625 L 85.761719 179.109375 C 86.167969 179.273438 86.488281 179.351562 86.722656 179.351562 C 86.996094 179.351562 87.214844 179.273438 87.386719 179.113281 C 87.554688 178.957031 87.640625 178.75 87.640625 178.5 C 87.640625 177.898438 87.21875 177.597656 86.378906 177.597656 L 86.15625 177.597656 L 86.15625 177.214844 L 86.355469 177.210938 C 87.144531 177.210938 87.535156 176.933594 87.535156 176.378906 C 87.535156 175.941406 87.277344 175.722656 86.757812 175.722656 C 86.472656 175.722656 86.160156 175.804688 85.816406 175.964844 L 85.816406 175.46875 C 86.152344 175.355469 86.480469 175.296875 86.796875 175.296875 C 87.671875 175.296875 88.109375 175.625 88.109375 176.285156 C 88.109375 176.789062 87.808594 177.144531 87.214844 177.359375 C 87.90625 177.519531 88.25 177.894531 88.25 178.488281 C 88.25 178.890625 88.117188 179.207031 87.851562 179.4375 C 87.585938 179.664062 87.222656 179.78125 86.757812 179.78125 C 86.496094 179.78125 86.160156 179.734375 85.761719 179.640625 "/>
<path style=" stroke:none;fill-rule:nonzero;fill:rgb(0%,0%,0%);fill-opacity:1;" d="M 82.507812 149.554688 L 82.507812 149.164062 L 84.855469 149.164062 L 84.855469 149.554688 Z M 85.652344 151.121094 L 85.652344 150.621094 C 85.816406 150.234375 86.152344 149.816406 86.652344 149.359375 L 86.980469 149.070312 C 87.398438 148.691406 87.609375 148.3125 87.609375 147.941406 C 87.609375 147.703125 87.535156 147.515625 87.394531 147.378906 C 87.25 147.242188 87.054688 147.171875 86.804688 147.171875 C 86.507812 147.171875 86.160156 147.289062 85.757812 147.515625 L 85.757812 147.015625 C 86.136719 146.835938 86.511719 146.746094 86.886719 146.746094 C 87.285156 146.746094 87.605469 146.855469 87.847656 147.070312 C 88.089844 147.285156 88.210938 147.570312 88.210938 147.925781 C 88.210938 148.183594 88.152344 148.410156 88.027344 148.605469 C 87.90625 148.804688 87.679688 149.046875 87.347656 149.328125 L 87.128906 149.515625 C 86.671875 149.902344 86.40625 150.269531 86.335938 150.621094 L 88.191406 150.621094 L 88.191406 151.121094 "/>
<path style=" stroke:none;fill-rule:nonzero;fill:rgb(0%,0%,0%);fill-opacity:1;" d="M 82.507812 121.003906 L 82.507812 120.613281 L 84.855469 120.613281 L 84.855469 121.003906 Z M 86.046875 122.570312 L 86.046875 122.144531 L 86.902344 122.144531 L 86.902344 118.777344 L 86.046875 118.988281 L 86.046875 118.550781 L 87.472656 118.195312 L 87.472656 122.144531 L 88.328125 122.144531 L 88.328125 122.570312 "/>
<path style=" stroke:none;fill-rule:nonzero;fill:rgb(0%,0%,0%);fill-opacity:1;" d="M 86.046875 65.960938 L 86.046875 65.535156 L 86.902344 65.535156 L 86.902344 62.164062 L 86.046875 62.378906 L 86.046875 61.941406 L 87.472656 61.585938 L 87.472656 65.535156 L 88.328125 65.535156 L 88.328125 65.960938 "/>
<path style=" stroke:none;fill-rule:nonzero;fill:rgb(0%,0%,0%);fill-opacity:1;" d="M 85.652344 37.902344 L 85.652344 37.40625 C 85.816406 37.019531 86.152344 36.597656 86.652344 36.140625 L 86.980469 35.851562 C 87.398438 35.472656 87.609375 35.09375 87.609375 34.722656 C 87.609375 34.484375 87.535156 34.296875 87.394531 34.160156 C 87.25 34.023438 87.054688 33.953125 86.804688 33.953125 C 86.507812 33.953125 86.160156 34.070312 85.757812 34.296875 L 85.757812 33.796875 C 86.136719 33.617188 86.511719 33.527344 86.886719 33.527344 C 87.285156 33.527344 87.605469 33.636719 87.847656 33.851562 C 88.089844 34.066406 88.210938 34.351562 88.210938 34.707031 C 88.210938 34.964844 88.152344 35.191406 88.027344 35.386719 C 87.90625 35.585938 87.679688 35.828125 87.347656 36.109375 L 87.128906 36.296875 C 86.671875 36.683594 86.40625 37.054688 86.335938 37.40625 L 88.191406 37.40625 L 88.191406 37.902344 "/>
<path style=" stroke:none;fill-rule:nonzero;fill:rgb(0%,0%,0%);fill-opacity:1;" d="M 85.761719 9.320312 L 85.761719 8.789062 C 86.167969 8.953125 86.488281 9.03125 86.722656 9.03125 C 86.996094 9.03125 87.214844 8.953125 87.386719 8.796875 C 87.554688 8.636719 87.640625 8.429688 87.640625 8.179688 C 87.640625 7.578125 87.21875 7.277344 86.378906 7.277344 L 86.15625 7.277344 L 86.15625 6.894531 L 86.355469 6.894531 C 87.144531 6.894531 87.535156 6.613281 87.535156 6.058594 C 87.535156 5.621094 87.277344 5.402344 86.757812 5.402344 C 86.472656 5.402344 86.160156 5.484375 85.816406 5.644531 L 85.816406 5.148438 C 86.152344 5.035156 86.480469 4.976562 86.796875 4.976562 C 87.671875 4.976562 88.109375 5.308594 88.109375 5.96875 C 88.109375 6.46875 87.808594 6.824219 87.214844 7.039062 C 87.90625 7.199219 88.25 7.574219 88.25 8.171875 C 88.25 8.570312 88.117188 8.886719 87.851562 9.117188 C 87.585938 9.34375 87.222656 9.460938 86.757812 9.460938 C 86.496094 9.460938 86.160156 9.414062 85.761719 9.320312 "/>
<path style=" stroke:none;fill-rule:nonzero;fill:rgb(0%,0%,0%);fill-opacity:1;" d="M 87.011719 100.035156 C 86.570312 100.035156 86.214844 99.828125 85.941406 99.414062 C 85.671875 99 85.535156 98.457031 85.535156 97.789062 C 85.535156 97.117188 85.671875 96.578125 85.945312 96.167969 C 86.21875 95.757812 86.582031 95.550781 87.027344 95.550781 C 87.476562 95.550781 87.839844 95.757812 88.113281 96.167969 C 88.386719 96.578125 88.523438 97.113281 88.523438 97.78125 C 88.523438 98.464844 88.386719 99.011719 88.113281 99.421875 C 87.839844 99.832031 87.472656 100.035156 87.011719 100.035156 Z M 87.019531 99.605469 C 87.617188 99.605469 87.921875 98.996094 87.921875 97.773438 C 87.921875 96.578125 87.621094 95.980469 87.027344 95.980469 C 86.4375 95.980469 86.140625 96.582031 86.140625 97.789062 C 86.140625 99 86.433594 99.605469 87.019531 99.605469 "/>
<path style="fill:none;stroke-width:25;stroke-linecap:round;stroke-linejoin:round;stroke:rgb(30.200195%,30.200195%,100%);stroke-opacity:1;stroke-miterlimit:10;" d="M 644.921875 1069.804688 L 656.40625 1064.0625 M 656.40625 1064.0625 L 676.132812 1054.21875 L 715.585938 1034.453125 L 735.3125 1024.609375 M 735.3125 1024.609375 L 755.039062 1014.726562 L 774.765625 1004.882812 L 794.492188 995 L 814.21875 985.15625 L 833.945312 975.273438 L 853.671875 965.429688 L 873.398438 955.546875 L 893.125 945.703125 L 912.851562 935.820312 L 932.578125 925.976562 L 972.03125 906.210938 L 1011.484375 886.523438 L 1031.210938 876.640625 L 1050.976562 866.757812 M 1050.976562 866.757812 L 1070.703125 856.914062 L 1090.429688 847.03125 L 1110.15625 837.1875 L 1129.882812 827.304688 L 1149.609375 817.460938 L 1169.335938 807.578125 L 1189.0625 797.734375 L 1208.789062 787.851562 M 1208.789062 787.851562 L 1211.875 786.328125 " transform="matrix(0.1,0,0,-0.1,0,185)"/>
<path style="fill:none;stroke-width:25;stroke-linecap:round;stroke-linejoin:round;stroke:rgb(30.200195%,30.200195%,100%);stroke-opacity:1;stroke-miterlimit:10;" d="M 1211.875 786.328125 L 1228.515625 777.03125 M 1228.515625 777.03125 L 1248.242188 763.476562 M 1248.242188 763.476562 L 1267.96875 747.148438 L 1287.695312 728.125 M 1287.695312 728.125 L 1307.421875 706.328125 L 1327.148438 681.796875 L 1346.875 654.492188 L 1366.601562 624.453125 M 1366.601562 624.453125 L 1386.367188 591.679688 L 1406.09375 556.171875 L 1425.78125 517.890625 L 1445.546875 476.875 L 1465.273438 433.125 L 1485 386.601562 L 1494.84375 362.304688 L 1504.726562 337.34375 L 1514.609375 311.679688 L 1524.453125 285.351562 L 1534.296875 258.320312 L 1544.179688 230.585938 L 1554.023438 202.1875 L 1563.90625 173.125 L 1573.789062 143.320312 L 1583.632812 112.851562 L 1593.515625 81.71875 L 1603.359375 49.882812 L 1613.242188 17.382812 L 1623.085938 -15.859375 L 1632.96875 -49.726562 L 1642.8125 -84.335938 L 1652.695312 -119.609375 L 1662.539062 -155.546875 L 1672.421875 -192.1875 L 1682.265625 -229.53125 M 1682.265625 -229.53125 L 1692.148438 -267.539062 L 1701.992188 -306.25 L 1711.875 -345.625 " transform="matrix(0.1,0,0,-0.1,0,185)"/>
<path style="fill:none;stroke-width:25;stroke-linecap:round;stroke-linejoin:round;stroke:rgb(30.200195%,30.200195%,100%);stroke-opacity:1;stroke-miterlimit:10;" d="M 182.890625 2053.90625 L 192.773438 2017.1875 L 202.617188 1981.09375 L 212.5 1945.742188 L 222.34375 1911.054688 L 232.226562 1877.03125 L 242.109375 1843.710938 L 251.953125 1811.09375 L 261.796875 1779.179688 L 271.679688 1747.890625 L 281.5625 1717.34375 L 291.40625 1687.460938 L 301.289062 1658.28125 L 311.132812 1629.765625 L 321.015625 1601.953125 L 330.859375 1574.804688 L 340.742188 1548.359375 L 350.585938 1522.617188 L 360.46875 1497.539062 L 380.195312 1449.453125 L 399.921875 1404.101562 L 419.648438 1361.484375 M 419.648438 1361.484375 L 439.375 1321.640625 L 459.101562 1284.53125 L 478.828125 1250.195312 L 498.554688 1218.554688 L 518.28125 1189.6875 L 538.007812 1163.59375 L 557.734375 1140.195312 L 577.460938 1119.570312 M 577.460938 1119.570312 L 597.1875 1101.679688 L 616.953125 1086.5625 M 616.953125 1086.5625 L 636.640625 1074.140625 M 636.640625 1074.140625 L 644.921875 1069.804688 " transform="matrix(0.1,0,0,-0.1,0,185)"/>
</g>
</svg>
