<?xml version="1.0" encoding="UTF-8"?>
<svg xmlns="http://www.w3.org/2000/svg" xmlns:xlink="http://www.w3.org/1999/xlink" width="440pt" height="110pt" viewBox="0 0 440 110" version="1.1">
<defs>
<clipPath id="clip1">
  <path d="M 5 17 L 105 17 L 105 93 L 5 93 Z M 5 17 "/>
</clipPath>
<clipPath id="clip2">
  <path d="M 5 5 L 105 5 L 105 81 L 5 81 Z M 5 5 "/>
</clipPath>
<clipPath id="clip3">
  <path d="M 115 17 L 215 17 L 215 93 L 115 93 Z M 115 17 "/>
</clipPath>
<clipPath id="clip4">
  <path d="M 115 29 L 215 29 L 215 105 L 115 105 Z M 115 29 "/>
</clipPath>
<clipPath id="clip5">
  <path d="M 225 17 L 325 17 L 325 93 L 225 93 Z M 225 17 "/>
</clipPath>
<clipPath id="clip6">
  <path d="M 225 33 L 297 33 L 297 105 L 225 105 Z M 225 33 "/>
</clipPath>
<clipPath id="clip7">
  <path d="M 253 5 L 325 5 L 325 77 L 253 77 Z M 253 5 "/>
</clipPath>
<clipPath id="clip8">
  <path d="M 335 17 L 435 17 L 435 93 L 335 93 Z M 335 17 "/>
</clipPath>
<clipPath id="clip9">
  <path d="M 335 28 L 407 28 L 407 81 L 335 81 Z M 335 28 "/>
</clipPath>
<clipPath id="clip10">
  <path d="M 363 29 L 435 29 L 435 82 L 363 82 Z M 363 29 "/>
</clipPath>
</defs>
<g id="surface1">
<path style="fill:none;stroke-width:5;stroke-linecap:butt;stroke-linejoin:miter;stroke:rgb(80.076599%,80.076599%,80.076599%);stroke-opacity:1;stroke-miterlimit:10;" d="M 50 50 L 50 1050 M 216.679688 50 L 216.679688 1050 M 383.320312 50 L 383.320312 1050 M 550 50 L 550 1050 M 716.679688 50 L 716.679688 1050 M 883.320312 50 L 883.320312 1050 M 1050 50 L 1050 1050 M 50 50 L 1050 50 M 50 216.679688 L 1050 216.679688 M 50 383.320312 L 1050 383.320312 M 50 550 L 1050 550 M 50 716.679688 L 1050 716.679688 M 50 883.320312 L 1050 883.320312 M 50 1050 L 1050 1050 " transform="matrix(0.1,0,0,-0.1,0,110)"/>
<path style="fill:none;stroke-width:10;stroke-linecap:butt;stroke-linejoin:miter;stroke:rgb(0%,0%,0%);stroke-opacity:1;stroke-miterlimit:10;" d="M 50 383.320312 L 1050 383.320312 M 383.320312 50 L 383.320312 1050 " transform="matrix(0.1,0,0,-0.1,0,110)"/>
<g clip-path="url(#clip1)" clip-rule="nonzero">
<path style="fill:none;stroke-width:15;stroke-linecap:butt;stroke-linejoin:miter;stroke:rgb(0%,50%,0%);stroke-opacity:1;stroke-miterlimit:10;" d="M 216.679688 383.320312 L 223.320312 386.679688 L 236.679688 393.320312 L 243.320312 396.679688 L 256.679688 403.320312 L 263.320312 406.679688 L 276.679688 413.320312 L 283.320312 416.679688 L 296.679688 423.320312 L 303.320312 426.679688 L 316.679688 433.320312 L 323.320312 436.679688 L 336.679688 443.320312 L 343.320312 446.679688 L 356.679688 453.320312 L 363.320312 456.679688 L 376.679688 463.320312 L 383.320312 466.679688 L 396.679688 473.320312 L 403.320312 476.679688 L 416.679688 483.320312 L 423.320312 486.679688 L 436.679688 493.320312 L 443.320312 496.679688 L 456.679688 503.320312 L 463.320312 506.679688 L 476.679688 513.320312 L 483.320312 516.679688 L 496.679688 523.320312 L 503.320312 526.679688 L 516.679688 533.320312 L 523.320312 536.679688 L 536.679688 543.320312 L 543.320312 546.679688 L 556.679688 553.320312 L 563.320312 556.679688 L 576.679688 563.320312 L 583.320312 566.679688 L 596.679688 573.320312 L 603.320312 576.679688 L 616.679688 583.320312 L 623.320312 586.679688 L 636.679688 593.320312 L 643.320312 596.679688 L 656.679688 603.320312 L 663.320312 606.679688 L 676.679688 613.320312 L 683.320312 616.679688 L 696.679688 623.320312 L 703.320312 626.679688 L 716.679688 633.320312 L 723.320312 636.679688 L 736.679688 643.320312 L 743.320312 646.679688 L 756.679688 653.320312 L 763.320312 656.679688 L 776.679688 663.320312 L 783.320312 666.679688 L 796.679688 673.320312 L 803.320312 676.679688 L 816.679688 683.320312 L 823.320312 686.679688 L 836.679688 693.320312 L 843.320312 696.679688 L 856.679688 703.320312 L 863.320312 706.679688 L 876.679688 713.320312 L 883.320312 716.679688 " transform="matrix(0.1,0,0,-0.1,0,110)"/>
</g>
<g clip-path="url(#clip2)" clip-rule="nonzero">
<path style="fill:none;stroke-width:15;stroke-linecap:butt;stroke-linejoin:miter;stroke:rgb(0%,0%,100%);stroke-opacity:1;stroke-miterlimit:10;" d="M 133.320312 602.070312 L 141.679688 595.9375 L 150 590 L 158.320312 584.257812 L 166.679688 578.75 L 175 573.4375 L 183.320312 568.320312 L 191.679688 563.4375 L 200 558.75 L 208.320312 554.257812 L 216.679688 550 L 225 545.9375 L 233.320312 542.070312 L 241.679688 538.4375 L 250 535 L 258.320312 531.757812 L 266.679688 528.75 L 275 525.9375 L 283.320312 523.320312 L 291.679688 520.9375 L 300 518.75 L 308.320312 516.757812 L 316.679688 515 L 325 513.4375 L 333.320312 512.070312 L 341.679688 510.9375 L 350 510 L 358.320312 509.257812 L 366.679688 508.75 L 375 508.4375 L 383.320312 508.320312 L 391.679688 508.4375 L 400 508.75 L 408.320312 509.257812 L 416.679688 510 L 425 510.9375 L 433.320312 512.070312 L 441.679688 513.4375 L 450 515 L 458.320312 516.757812 L 466.679688 518.75 L 475 520.9375 L 483.320312 523.320312 L 491.679688 525.9375 L 500 528.75 L 508.320312 531.757812 L 516.679688 535 L 525 538.4375 L 533.320312 542.070312 L 541.679688 545.9375 L 550 550 L 558.320312 554.257812 L 566.679688 558.75 L 575 563.4375 L 583.320312 568.320312 L 591.679688 573.4375 L 600 578.75 L 608.320312 584.257812 L 616.679688 590 L 625 595.9375 L 633.320312 602.070312 L 641.679688 608.4375 L 650 615 L 658.320312 621.757812 L 666.679688 628.75 L 675 635.9375 L 683.320312 643.320312 L 691.679688 650.9375 L 700 658.75 L 708.320312 666.757812 L 716.679688 675 L 725 683.4375 L 733.320312 692.070312 L 741.679688 700.9375 L 750 710 L 758.320312 719.257812 L 766.679688 728.75 L 775 738.4375 L 783.320312 748.320312 L 791.679688 758.4375 L 800 768.75 L 808.320312 779.257812 L 816.679688 790 L 825 800.9375 L 833.320312 812.070312 L 841.679688 823.4375 L 850 835 L 858.320312 846.757812 L 866.679688 858.75 L 875 870.9375 L 883.320312 883.320312 L 891.679688 895.9375 L 900 908.75 L 908.320312 921.757812 L 916.679688 935 L 925 948.4375 L 933.320312 962.070312 L 941.679688 975.9375 L 950 990 L 958.320312 1004.257812 L 966.679688 1018.75 " transform="matrix(0.1,0,0,-0.1,0,110)"/>
</g>
<path style=" stroke:none;fill-rule:nonzero;fill:rgb(100%,0%,0%);fill-opacity:1;" d="M 57 55 C 57 53.894531 56.105469 53 55 53 C 53.894531 53 53 53.894531 53 55 C 53 56.105469 53.894531 57 55 57 C 56.105469 57 57 56.105469 57 55 "/>
<path style="fill:none;stroke-width:10;stroke-linecap:butt;stroke-linejoin:miter;stroke:rgb(0%,0%,0%);stroke-opacity:1;stroke-miterlimit:10;" d="M 570 550 C 570 561.054688 561.054688 570 550 570 C 538.945312 570 530 561.054688 530 550 C 530 538.945312 538.945312 530 550 530 C 561.054688 530 570 538.945312 570 550 Z M 570 550 " transform="matrix(0.1,0,0,-0.1,0,110)"/>
<path style="fill:none;stroke-width:5;stroke-linecap:butt;stroke-linejoin:miter;stroke:rgb(80.076599%,80.076599%,80.076599%);stroke-opacity:1;stroke-miterlimit:10;" d="M 1150 50 L 1150 1050 M 1316.679688 50 L 1316.679688 1050 M 1483.320312 50 L 1483.320312 1050 M 1650 50 L 1650 1050 M 1816.679688 50 L 1816.679688 1050 M 1983.320312 50 L 1983.320312 1050 M 2150 50 L 2150 1050 M 1150 50 L 2150 50 M 1150 216.679688 L 2150 216.679688 M 1150 383.320312 L 2150 383.320312 M 1150 550 L 2150 550 M 1150 716.679688 L 2150 716.679688 M 1150 883.320312 L 2150 883.320312 M 1150 1050 L 2150 1050 " transform="matrix(0.1,0,0,-0.1,0,110)"/>
<path style="fill:none;stroke-width:10;stroke-linecap:butt;stroke-linejoin:miter;stroke:rgb(0%,0%,0%);stroke-opacity:1;stroke-miterlimit:10;" d="M 1150 383.320312 L 2150 383.320312 M 1483.320312 50 L 1483.320312 1050 " transform="matrix(0.1,0,0,-0.1,0,110)"/>
<g clip-path="url(#clip3)" clip-rule="nonzero">
<path style="fill:none;stroke-width:15;stroke-linecap:butt;stroke-linejoin:miter;stroke:rgb(0%,50%,0%);stroke-opacity:1;stroke-miterlimit:10;" d="M 1316.679688 383.320312 L 1323.320312 386.679688 L 1336.679688 393.320312 L 1343.320312 396.679688 L 1356.679688 403.320312 L 1363.320312 406.679688 L 1376.679688 413.320312 L 1383.320312 416.679688 L 1396.679688 423.320312 L 1403.320312 426.679688 L 1416.679688 433.320312 L 1423.320312 436.679688 L 1436.679688 443.320312 L 1443.320312 446.679688 L 1456.679688 453.320312 L 1463.320312 456.679688 L 1476.679688 463.320312 L 1483.320312 466.679688 L 1496.679688 473.320312 L 1503.320312 476.679688 L 1516.679688 483.320312 L 1523.320312 486.679688 L 1536.679688 493.320312 L 1543.320312 496.679688 L 1556.679688 503.320312 L 1563.320312 506.679688 L 1576.679688 513.320312 L 1583.320312 516.679688 L 1596.679688 523.320312 L 1603.320312 526.679688 L 1616.679688 533.320312 L 1623.320312 536.679688 L 1636.679688 543.320312 L 1643.320312 546.679688 L 1656.679688 553.320312 L 1663.320312 556.679688 L 1676.679688 563.320312 L 1683.320312 566.679688 L 1696.679688 573.320312 L 1703.320312 576.679688 L 1716.679688 583.320312 L 1723.320312 586.679688 L 1736.679688 593.320312 L 1743.320312 596.679688 L 1756.679688 603.320312 L 1763.320312 606.679688 L 1776.679688 613.320312 L 1783.320312 616.679688 L 1796.679688 623.320312 L 1803.320312 626.679688 L 1816.679688 633.320312 L 1823.320312 636.679688 L 1836.679688 643.320312 L 1843.320312 646.679688 L 1856.679688 653.320312 L 1863.320312 656.679688 L 1876.679688 663.320312 L 1883.320312 666.679688 L 1896.679688 673.320312 L 1903.320312 676.679688 L 1916.679688 683.320312 L 1923.320312 686.679688 L 1936.679688 693.320312 L 1943.320312 696.679688 L 1956.679688 703.320312 L 1963.320312 706.679688 L 1976.679688 713.320312 L 1983.320312 716.679688 " transform="matrix(0.1,0,0,-0.1,0,110)"/>
</g>
<g clip-path="url(#clip4)" clip-rule="nonzero">
<path style="fill:none;stroke-width:15;stroke-linecap:butt;stroke-linejoin:miter;stroke:rgb(0%,0%,100%);stroke-opacity:1;stroke-miterlimit:10;" d="M 1233.320312 81.25 L 1241.679688 95.742188 L 1250 110 L 1258.320312 124.0625 L 1266.679688 137.929688 L 1275 151.5625 L 1283.320312 165 L 1291.679688 178.242188 L 1300 191.25 L 1308.320312 204.0625 L 1316.679688 216.679688 L 1325 229.0625 L 1333.320312 241.25 L 1341.679688 253.242188 L 1350 265 L 1358.320312 276.5625 L 1366.679688 287.929688 L 1375 299.0625 L 1383.320312 310 L 1391.679688 320.742188 L 1400 331.25 L 1408.320312 341.5625 L 1416.679688 351.679688 L 1425 361.5625 L 1433.320312 371.25 L 1441.679688 380.742188 L 1450 390 L 1458.320312 399.0625 L 1466.679688 407.929688 L 1475 416.5625 L 1483.320312 425 L 1491.679688 433.242188 L 1500 441.25 L 1508.320312 449.0625 L 1516.679688 456.679688 L 1525 464.0625 L 1533.320312 471.25 L 1541.679688 478.242188 L 1550 485 L 1558.320312 491.5625 L 1566.679688 497.929688 L 1575 504.0625 L 1583.320312 510 L 1591.679688 515.742188 L 1600 521.25 L 1608.320312 526.5625 L 1616.679688 531.679688 L 1625 536.5625 L 1633.320312 541.25 L 1641.679688 545.742188 L 1650 550 L 1658.320312 554.0625 L 1666.679688 557.929688 L 1675 561.5625 L 1683.320312 565 L 1691.679688 568.242188 L 1700 571.25 L 1708.320312 574.0625 L 1716.679688 576.679688 L 1725 579.0625 L 1733.320312 581.25 L 1741.679688 583.242188 L 1750 585 L 1758.320312 586.5625 L 1766.679688 587.929688 L 1775 589.0625 L 1783.320312 590 L 1791.679688 590.742188 L 1800 591.25 L 1808.320312 591.5625 L 1816.679688 591.679688 L 1825 591.5625 L 1833.320312 591.25 L 1841.679688 590.742188 L 1850 590 L 1858.320312 589.0625 L 1866.679688 587.929688 L 1875 586.5625 L 1883.320312 585 L 1891.679688 583.242188 L 1900 581.25 L 1908.320312 579.0625 L 1916.679688 576.679688 L 1925 574.0625 L 1933.320312 571.25 L 1941.679688 568.242188 L 1950 565 L 1958.320312 561.5625 L 1966.679688 557.929688 L 1975 554.0625 L 1983.320312 550 L 1991.679688 545.742188 L 2000 541.25 L 2008.320312 536.5625 L 2016.679688 531.679688 L 2025 526.5625 L 2033.320312 521.25 L 2041.679688 515.742188 L 2050 510 L 2058.320312 504.0625 L 2066.679688 497.929688 " transform="matrix(0.1,0,0,-0.1,0,110)"/>
</g>
<path style=" stroke:none;fill-rule:nonzero;fill:rgb(100%,0%,0%);fill-opacity:1;" d="M 167 55 C 167 53.894531 166.105469 53 165 53 C 163.894531 53 163 53.894531 163 55 C 163 56.105469 163.894531 57 165 57 C 166.105469 57 167 56.105469 167 55 "/>
<path style="fill:none;stroke-width:10;stroke-linecap:butt;stroke-linejoin:miter;stroke:rgb(0%,0%,0%);stroke-opacity:1;stroke-miterlimit:10;" d="M 1670 550 C 1670 561.054688 1661.054688 570 1650 570 C 1638.945312 570 1630 561.054688 1630 550 C 1630 538.945312 1638.945312 530 1650 530 C 1661.054688 530 1670 538.945312 1670 550 Z M 1670 550 " transform="matrix(0.1,0,0,-0.1,0,110)"/>
<path style="fill:none;stroke-width:5;stroke-linecap:butt;stroke-linejoin:miter;stroke:rgb(80.076599%,80.076599%,80.076599%);stroke-opacity:1;stroke-miterlimit:10;" d="M 2250 50 L 2250 1050 M 2416.679688 50 L 2416.679688 1050 M 2583.320312 50 L 2583.320312 1050 M 2750 50 L 2750 1050 M 2916.679688 50 L 2916.679688 1050 M 3083.320312 50 L 3083.320312 1050 M 3250 50 L 3250 1050 M 2250 50 L 3250 50 M 2250 216.679688 L 3250 216.679688 M 2250 383.320312 L 3250 383.320312 M 2250 550 L 3250 550 M 2250 716.679688 L 3250 716.679688 M 2250 883.320312 L 3250 883.320312 M 2250 1050 L 3250 1050 " transform="matrix(0.1,0,0,-0.1,0,110)"/>
<path style="fill:none;stroke-width:10;stroke-linecap:butt;stroke-linejoin:miter;stroke:rgb(0%,0%,0%);stroke-opacity:1;stroke-miterlimit:10;" d="M 2250 383.320312 L 3250 383.320312 M 2583.320312 50 L 2583.320312 1050 " transform="matrix(0.1,0,0,-0.1,0,110)"/>
<g clip-path="url(#clip5)" clip-rule="nonzero">
<path style="fill:none;stroke-width:15;stroke-linecap:butt;stroke-linejoin:miter;stroke:rgb(0%,50%,0%);stroke-opacity:1;stroke-miterlimit:10;" d="M 2416.679688 383.320312 L 2423.320312 386.679688 L 2436.679688 393.320312 L 2443.320312 396.679688 L 2456.679688 403.320312 L 2463.320312 406.679688 L 2476.679688 413.320312 L 2483.320312 416.679688 L 2496.679688 423.320312 L 2503.320312 426.679688 L 2516.679688 433.320312 L 2523.320312 436.679688 L 2536.679688 443.320312 L 2543.320312 446.679688 L 2556.679688 453.320312 L 2563.320312 456.679688 L 2576.679688 463.320312 L 2583.320312 466.679688 L 2596.679688 473.320312 L 2603.320312 476.679688 L 2616.679688 483.320312 L 2623.320312 486.679688 L 2636.679688 493.320312 L 2643.320312 496.679688 L 2656.679688 503.320312 L 2663.320312 506.679688 L 2676.679688 513.320312 L 2683.320312 516.679688 L 2696.679688 523.320312 L 2703.320312 526.679688 L 2716.679688 533.320312 L 2723.320312 536.679688 L 2736.679688 543.320312 L 2743.320312 546.679688 L 2756.679688 553.320312 L 2763.320312 556.679688 L 2776.679688 563.320312 L 2783.320312 566.679688 L 2796.679688 573.320312 L 2803.320312 576.679688 L 2816.679688 583.320312 L 2823.320312 586.679688 L 2836.679688 593.320312 L 2843.320312 596.679688 L 2856.679688 603.320312 L 2863.320312 606.679688 L 2876.679688 613.320312 L 2883.320312 616.679688 L 2896.679688 623.320312 L 2903.320312 626.679688 L 2916.679688 633.320312 L 2923.320312 636.679688 L 2936.679688 643.320312 L 2943.320312 646.679688 L 2956.679688 653.320312 L 2963.320312 656.679688 L 2976.679688 663.320312 L 2983.320312 666.679688 L 2996.679688 673.320312 L 3003.320312 676.679688 L 3016.679688 683.320312 L 3023.320312 686.679688 L 3036.679688 693.320312 L 3043.320312 696.679688 L 3056.679688 703.320312 L 3063.320312 706.679688 L 3076.679688 713.320312 L 3083.320312 716.679688 " transform="matrix(0.1,0,0,-0.1,0,110)"/>
</g>
<g clip-path="url(#clip6)" clip-rule="nonzero">
<path style="fill:none;stroke-width:15;stroke-linecap:butt;stroke-linejoin:miter;stroke:rgb(0%,0%,100%);stroke-opacity:1;stroke-miterlimit:10;" d="M 2333.320312 81.25 L 2337.5 88.515625 L 2341.679688 95.742188 L 2345.820312 102.890625 L 2350 110 L 2354.179688 117.070312 L 2358.320312 124.0625 L 2362.5 131.015625 L 2366.679688 137.929688 L 2370.820312 144.765625 L 2375 151.5625 L 2379.179688 158.320312 L 2383.320312 165 L 2387.5 171.640625 L 2391.679688 178.242188 L 2395.820312 184.765625 L 2400 191.25 L 2404.179688 197.695312 L 2408.320312 204.0625 L 2412.5 210.390625 L 2416.679688 216.679688 L 2420.820312 222.890625 L 2425 229.0625 L 2429.179688 235.195312 L 2433.320312 241.25 L 2437.5 247.265625 L 2441.679688 253.242188 L 2445.820312 259.140625 L 2450 265 L 2454.179688 270.820312 L 2458.320312 276.5625 L 2462.5 282.265625 L 2466.679688 287.929688 L 2470.820312 293.515625 L 2475 299.0625 L 2479.179688 304.570312 L 2483.320312 310 L 2487.5 315.390625 L 2491.679688 320.742188 L 2495.820312 326.015625 L 2500 331.25 L 2504.179688 336.445312 L 2508.320312 341.5625 L 2512.5 346.640625 L 2516.679688 351.679688 L 2520.820312 356.640625 L 2525 361.5625 L 2529.179688 366.445312 L 2533.320312 371.25 L 2537.5 376.015625 L 2541.679688 380.742188 L 2545.820312 385.390625 L 2550 390 L 2554.179688 394.570312 L 2558.320312 399.0625 L 2562.5 403.515625 L 2566.679688 407.929688 L 2570.820312 412.265625 L 2575 416.5625 L 2579.179688 420.820312 L 2583.320312 425 L 2587.5 429.140625 L 2591.679688 433.242188 L 2595.820312 437.265625 L 2600 441.25 L 2604.179688 445.195312 L 2608.320312 449.0625 L 2612.5 452.890625 L 2616.679688 456.679688 L 2620.820312 460.390625 L 2625 464.0625 L 2629.179688 467.695312 L 2633.320312 471.25 L 2637.5 474.765625 L 2641.679688 478.242188 L 2645.820312 481.640625 L 2650 485 L 2654.179688 488.320312 L 2658.320312 491.5625 L 2662.5 494.765625 L 2666.679688 497.929688 L 2670.820312 501.015625 L 2675 504.0625 L 2679.179688 507.070312 L 2683.320312 510 L 2687.5 512.890625 L 2691.679688 515.742188 L 2695.820312 518.515625 L 2700 521.25 L 2704.179688 523.945312 L 2708.320312 526.5625 L 2712.5 529.140625 L 2716.679688 531.679688 L 2720.820312 534.140625 L 2725 536.5625 L 2729.179688 538.945312 L 2733.320312 541.25 L 2737.5 543.515625 L 2741.679688 545.742188 L 2745.820312 547.890625 L 2750 550 " transform="matrix(0.1,0,0,-0.1,0,110)"/>
</g>
<g clip-path="url(#clip7)" clip-rule="nonzero">
<path style="fill:none;stroke-width:15;stroke-linecap:butt;stroke-linejoin:miter;stroke:rgb(0%,0%,100%);stroke-opacity:1;stroke-miterlimit:10;" d="M 2750 550 L 2754.179688 552.109375 L 2758.320312 554.257812 L 2762.5 556.484375 L 2766.679688 558.75 L 2770.820312 561.054688 L 2775 563.4375 L 2779.179688 565.859375 L 2783.320312 568.320312 L 2787.5 570.859375 L 2791.679688 573.4375 L 2795.820312 576.054688 L 2800 578.75 L 2804.179688 581.484375 L 2808.320312 584.257812 L 2812.5 587.109375 L 2816.679688 590 L 2820.820312 592.929688 L 2825 595.9375 L 2829.179688 598.984375 L 2833.320312 602.070312 L 2837.5 605.234375 L 2841.679688 608.4375 L 2845.820312 611.679688 L 2850 615 L 2854.179688 618.359375 L 2858.320312 621.757812 L 2862.5 625.234375 L 2866.679688 628.75 L 2870.820312 632.304688 L 2875 635.9375 L 2879.179688 639.609375 L 2883.320312 643.320312 L 2887.5 647.109375 L 2891.679688 650.9375 L 2895.820312 654.804688 L 2900 658.75 L 2904.179688 662.734375 L 2908.320312 666.757812 L 2912.5 670.859375 L 2916.679688 675 L 2920.820312 679.179688 L 2925 683.4375 L 2929.179688 687.734375 L 2933.320312 692.070312 L 2937.5 696.484375 L 2941.679688 700.9375 L 2945.820312 705.429688 L 2950 710 L 2954.179688 714.609375 L 2958.320312 719.257812 L 2962.5 723.984375 L 2966.679688 728.75 L 2970.820312 733.554688 L 2975 738.4375 L 2979.179688 743.359375 L 2983.320312 748.320312 L 2987.5 753.359375 L 2991.679688 758.4375 L 2995.820312 763.554688 L 3000 768.75 L 3004.179688 773.984375 L 3008.320312 779.257812 L 3012.5 784.609375 L 3016.679688 790 L 3020.820312 795.429688 L 3025 800.9375 L 3029.179688 806.484375 L 3033.320312 812.070312 L 3037.5 817.734375 L 3041.679688 823.4375 L 3045.820312 829.179688 L 3050 835 L 3054.179688 840.859375 L 3058.320312 846.757812 L 3062.5 852.734375 L 3066.679688 858.75 L 3070.820312 864.804688 L 3075 870.9375 L 3079.179688 877.109375 L 3083.320312 883.320312 L 3087.5 889.609375 L 3091.679688 895.9375 L 3095.820312 902.304688 L 3100 908.75 L 3104.179688 915.234375 L 3108.320312 921.757812 L 3112.5 928.359375 L 3116.679688 935 L 3120.820312 941.679688 L 3125 948.4375 L 3129.179688 955.234375 L 3133.320312 962.070312 L 3137.5 968.984375 L 3141.679688 975.9375 L 3145.820312 982.929688 L 3150 990 L 3154.179688 997.109375 L 3158.320312 1004.257812 L 3162.5 1011.484375 L 3166.679688 1018.75 " transform="matrix(0.1,0,0,-0.1,0,110)"/>
</g>
<path style=" stroke:none;fill-rule:nonzero;fill:rgb(100%,0%,0%);fill-opacity:1;" d="M 277 55 C 277 53.894531 276.105469 53 275 53 C 273.894531 53 273 53.894531 273 55 C 273 56.105469 273.894531 57 275 57 C 276.105469 57 277 56.105469 277 55 "/>
<path style="fill:none;stroke-width:10;stroke-linecap:butt;stroke-linejoin:miter;stroke:rgb(0%,0%,0%);stroke-opacity:1;stroke-miterlimit:10;" d="M 2770 550 C 2770 561.054688 2761.054688 570 2750 570 C 2738.945312 570 2730 561.054688 2730 550 C 2730 538.945312 2738.945312 530 2750 530 C 2761.054688 530 2770 538.945312 2770 550 Z M 2770 550 " transform="matrix(0.1,0,0,-0.1,0,110)"/>
<path style="fill:none;stroke-width:5;stroke-linecap:butt;stroke-linejoin:miter;stroke:rgb(80.076599%,80.076599%,80.076599%);stroke-opacity:1;stroke-miterlimit:10;" d="M 3350 50 L 3350 1050 M 3516.679688 50 L 3516.679688 1050 M 3683.320312 50 L 3683.320312 1050 M 3850 50 L 3850 1050 M 4016.679688 50 L 4016.679688 1050 M 4183.320312 50 L 4183.320312 1050 M 4350 50 L 4350 1050 M 3350 50 L 4350 50 M 3350 216.679688 L 4350 216.679688 M 3350 383.320312 L 4350 383.320312 M 3350 550 L 4350 550 M 3350 716.679688 L 4350 716.679688 M 3350 883.320312 L 4350 883.320312 M 3350 1050 L 4350 1050 " transform="matrix(0.1,0,0,-0.1,0,110)"/>
<path style="fill:none;stroke-width:10;stroke-linecap:butt;stroke-linejoin:miter;stroke:rgb(0%,0%,0%);stroke-opacity:1;stroke-miterlimit:10;" d="M 3350 383.320312 L 4350 383.320312 M 3683.320312 50 L 3683.320312 1050 " transform="matrix(0.1,0,0,-0.1,0,110)"/>
<g clip-path="url(#clip8)" clip-rule="nonzero">
<path style="fill:none;stroke-width:15;stroke-linecap:butt;stroke-linejoin:miter;stroke:rgb(0%,50%,0%);stroke-opacity:1;stroke-miterlimit:10;" d="M 3516.679688 383.320312 L 3523.320312 386.679688 L 3536.679688 393.320312 L 3543.320312 396.679688 L 3556.679688 403.320312 L 3563.320312 406.679688 L 3576.679688 413.320312 L 3583.320312 416.679688 L 3596.679688 423.320312 L 3603.320312 426.679688 L 3616.679688 433.320312 L 3623.320312 436.679688 L 3636.679688 443.320312 L 3643.320312 446.679688 L 3656.679688 453.320312 L 3663.320312 456.679688 L 3676.679688 463.320312 L 3683.320312 466.679688 L 3696.679688 473.320312 L 3703.320312 476.679688 L 3716.679688 483.320312 L 3723.320312 486.679688 L 3736.679688 493.320312 L 3743.320312 496.679688 L 3756.679688 503.320312 L 3763.320312 506.679688 L 3776.679688 513.320312 L 3783.320312 516.679688 L 3796.679688 523.320312 L 3803.320312 526.679688 L 3816.679688 533.320312 L 3823.320312 536.679688 L 3836.679688 543.320312 L 3843.320312 546.679688 L 3856.679688 553.320312 L 3863.320312 556.679688 L 3876.679688 563.320312 L 3883.320312 566.679688 L 3896.679688 573.320312 L 3903.320312 576.679688 L 3916.679688 583.320312 L 3923.320312 586.679688 L 3936.679688 593.320312 L 3943.320312 596.679688 L 3956.679688 603.320312 L 3963.320312 606.679688 L 3976.679688 613.320312 L 3983.320312 616.679688 L 3996.679688 623.320312 L 4003.320312 626.679688 L 4016.679688 633.320312 L 4023.320312 636.679688 L 4036.679688 643.320312 L 4043.320312 646.679688 L 4056.679688 653.320312 L 4063.320312 656.679688 L 4076.679688 663.320312 L 4083.320312 666.679688 L 4096.679688 673.320312 L 4103.320312 676.679688 L 4116.679688 683.320312 L 4123.320312 686.679688 L 4136.679688 693.320312 L 4143.320312 696.679688 L 4156.679688 703.320312 L 4163.320312 706.679688 L 4176.679688 713.320312 L 4183.320312 716.679688 " transform="matrix(0.1,0,0,-0.1,0,110)"/>
</g>
<g clip-path="url(#clip9)" clip-rule="nonzero">
<path style="fill:none;stroke-width:15;stroke-linecap:butt;stroke-linejoin:miter;stroke:rgb(0%,0%,100%);stroke-opacity:1;stroke-miterlimit:10;" d="M 3433.320312 602.070312 L 3437.5 598.984375 L 3441.679688 595.9375 L 3445.820312 592.929688 L 3450 590 L 3454.179688 587.109375 L 3458.320312 584.257812 L 3462.5 581.484375 L 3466.679688 578.75 L 3470.820312 576.054688 L 3475 573.4375 L 3479.179688 570.859375 L 3483.320312 568.320312 L 3487.5 565.859375 L 3491.679688 563.4375 L 3495.820312 561.054688 L 3500 558.75 L 3504.179688 556.484375 L 3508.320312 554.257812 L 3512.5 552.109375 L 3516.679688 550 L 3520.820312 547.929688 L 3525 545.9375 L 3529.179688 543.984375 L 3533.320312 542.070312 L 3537.5 540.234375 L 3541.679688 538.4375 L 3545.820312 536.679688 L 3550 535 L 3554.179688 533.359375 L 3558.320312 531.757812 L 3562.5 530.234375 L 3566.679688 528.75 L 3570.820312 527.304688 L 3575 525.9375 L 3579.179688 524.609375 L 3583.320312 523.320312 L 3587.5 522.109375 L 3591.679688 520.9375 L 3595.820312 519.804688 L 3600 518.75 L 3604.179688 517.734375 L 3608.320312 516.757812 L 3612.5 515.859375 L 3616.679688 515 L 3620.820312 514.179688 L 3625 513.4375 L 3629.179688 512.734375 L 3633.320312 512.070312 L 3637.5 511.484375 L 3641.679688 510.9375 L 3645.820312 510.429688 L 3650 510 L 3654.179688 509.609375 L 3658.320312 509.257812 L 3662.5 508.984375 L 3666.679688 508.75 L 3670.820312 508.554688 L 3675 508.4375 L 3679.179688 508.359375 L 3683.320312 508.320312 L 3687.5 508.359375 L 3691.679688 508.4375 L 3695.820312 508.554688 L 3700 508.75 L 3704.179688 508.984375 L 3708.320312 509.257812 L 3712.5 509.609375 L 3716.679688 510 L 3720.820312 510.429688 L 3725 510.9375 L 3729.179688 511.484375 L 3733.320312 512.070312 L 3737.5 512.734375 L 3741.679688 513.4375 L 3745.820312 514.179688 L 3750 515 L 3754.179688 515.859375 L 3758.320312 516.757812 L 3762.5 517.734375 L 3766.679688 518.75 L 3770.820312 519.804688 L 3775 520.9375 L 3779.179688 522.109375 L 3783.320312 523.320312 L 3787.5 524.609375 L 3791.679688 525.9375 L 3795.820312 527.304688 L 3800 528.75 L 3804.179688 530.234375 L 3808.320312 531.757812 L 3812.5 533.359375 L 3816.679688 535 L 3820.820312 536.679688 L 3825 538.4375 L 3829.179688 540.234375 L 3833.320312 542.070312 L 3837.5 543.984375 L 3841.679688 545.9375 L 3845.820312 547.929688 L 3850 550 " transform="matrix(0.1,0,0,-0.1,0,110)"/>
</g>
<g clip-path="url(#clip10)" clip-rule="nonzero">
<path style="fill:none;stroke-width:15;stroke-linecap:butt;stroke-linejoin:miter;stroke:rgb(0%,0%,100%);stroke-opacity:1;stroke-miterlimit:10;" d="M 3850 550 L 3854.179688 552.070312 L 3858.320312 554.0625 L 3862.5 556.015625 L 3866.679688 557.929688 L 3870.820312 559.765625 L 3875 561.5625 L 3879.179688 563.320312 L 3883.320312 565 L 3887.5 566.640625 L 3891.679688 568.242188 L 3895.820312 569.765625 L 3900 571.25 L 3904.179688 572.695312 L 3908.320312 574.0625 L 3912.5 575.390625 L 3916.679688 576.679688 L 3920.820312 577.890625 L 3925 579.0625 L 3929.179688 580.195312 L 3933.320312 581.25 L 3937.5 582.265625 L 3941.679688 583.242188 L 3945.820312 584.140625 L 3950 585 L 3954.179688 585.820312 L 3958.320312 586.5625 L 3962.5 587.265625 L 3966.679688 587.929688 L 3970.820312 588.515625 L 3975 589.0625 L 3979.179688 589.570312 L 3983.320312 590 L 3987.5 590.390625 L 3991.679688 590.742188 L 3995.820312 591.015625 L 4000 591.25 L 4004.179688 591.445312 L 4008.320312 591.5625 L 4012.5 591.640625 L 4016.679688 591.679688 L 4020.820312 591.640625 L 4025 591.5625 L 4029.179688 591.445312 L 4033.320312 591.25 L 4037.5 591.015625 L 4041.679688 590.742188 L 4045.820312 590.390625 L 4050 590 L 4054.179688 589.570312 L 4058.320312 589.0625 L 4062.5 588.515625 L 4066.679688 587.929688 L 4070.820312 587.265625 L 4075 586.5625 L 4079.179688 585.820312 L 4083.320312 585 L 4087.5 584.140625 L 4091.679688 583.242188 L 4095.820312 582.265625 L 4100 581.25 L 4104.179688 580.195312 L 4108.320312 579.0625 L 4112.5 577.890625 L 4116.679688 576.679688 L 4120.820312 575.390625 L 4125 574.0625 L 4129.179688 572.695312 L 4133.320312 571.25 L 4137.5 569.765625 L 4141.679688 568.242188 L 4145.820312 566.640625 L 4150 565 L 4154.179688 563.320312 L 4158.320312 561.5625 L 4162.5 559.765625 L 4166.679688 557.929688 L 4170.820312 556.015625 L 4175 554.0625 L 4179.179688 552.070312 L 4183.320312 550 L 4187.5 547.890625 L 4191.679688 545.742188 L 4195.820312 543.515625 L 4200 541.25 L 4204.179688 538.945312 L 4208.320312 536.5625 L 4212.5 534.140625 L 4216.679688 531.679688 L 4220.820312 529.140625 L 4225 526.5625 L 4229.179688 523.945312 L 4233.320312 521.25 L 4237.5 518.515625 L 4241.679688 515.742188 L 4245.820312 512.890625 L 4250 510 L 4254.179688 507.070312 L 4258.320312 504.0625 L 4262.5 501.015625 L 4266.679688 497.929688 " transform="matrix(0.1,0,0,-0.1,0,110)"/>
</g>
<path style=" stroke:none;fill-rule:nonzero;fill:rgb(100%,0%,0%);fill-opacity:1;" d="M 387 55 C 387 53.894531 386.105469 53 385 53 C 383.894531 53 383 53.894531 383 55 C 383 56.105469 383.894531 57 385 57 C 386.105469 57 387 56.105469 387 55 "/>
<path style="fill:none;stroke-width:10;stroke-linecap:butt;stroke-linejoin:miter;stroke:rgb(0%,0%,0%);stroke-opacity:1;stroke-miterlimit:10;" d="M 3870 550 C 3870 561.054688 3861.054688 570 3850 570 C 3838.945312 570 3830 561.054688 3830 550 C 3830 538.945312 3838.945312 530 3850 530 C 3861.054688 530 3870 538.945312 3870 550 Z M 3870 550 " transform="matrix(0.1,0,0,-0.1,0,110)"/>
</g>
</svg>
