<?xml version="1.0" encoding="UTF-8"?>
<svg xmlns="http://www.w3.org/2000/svg" xmlns:xlink="http://www.w3.org/1999/xlink" width="698pt" height="672pt" viewBox="0 0 698 672" version="1.1">
<g id="surface1">
<rect x="0" y="0" width="698" height="672" style="fill:rgb(100%,100%,100%);fill-opacity:1;stroke:none;"/>
<path style="fill:none;stroke-width:10;stroke-linecap:round;stroke-linejoin:round;stroke:rgb(75.389099%,75.389099%,75.389099%);stroke-opacity:1;stroke-miterlimit:10;" d="M 2055.117188 7312.695312 L 2055.117188 -200.195312 " transform="matrix(0.1,0,0,-0.1,0,672)"/>
<path style="fill:none;stroke-width:10;stroke-linecap:round;stroke-linejoin:round;stroke:rgb(75.389099%,75.389099%,75.389099%);stroke-opacity:1;stroke-miterlimit:10;" d="M 3472.460938 7312.695312 L 3472.460938 -200.195312 " transform="matrix(0.1,0,0,-0.1,0,672)"/>
<path style="fill:none;stroke-width:10;stroke-linecap:round;stroke-linejoin:round;stroke:rgb(75.389099%,75.389099%,75.389099%);stroke-opacity:1;stroke-miterlimit:10;" d="M 4889.765625 7312.695312 L 4889.765625 -200.195312 " transform="matrix(0.1,0,0,-0.1,0,672)"/>
<path style="fill:none;stroke-width:10;stroke-linecap:round;stroke-linejoin:round;stroke:rgb(75.389099%,75.389099%,75.389099%);stroke-opacity:1;stroke-miterlimit:10;" d="M 6307.109375 7312.695312 L 6307.109375 -200.195312 " transform="matrix(0.1,0,0,-0.1,0,672)"/>
<path style="fill:none;stroke-width:10;stroke-linecap:round;stroke-linejoin:round;stroke:rgb(94.139099%,94.139099%,94.139099%);stroke-opacity:1;stroke-miterlimit:10;" d="M 70.859375 7312.695312 L 70.859375 -200.195312 " transform="matrix(0.1,0,0,-0.1,0,672)"/>
<path style="fill:none;stroke-width:10;stroke-linecap:round;stroke-linejoin:round;stroke:rgb(94.139099%,94.139099%,94.139099%);stroke-opacity:1;stroke-miterlimit:10;" d="M 354.335938 7312.695312 L 354.335938 -200.195312 " transform="matrix(0.1,0,0,-0.1,0,672)"/>
<path style="fill:none;stroke-width:10;stroke-linecap:round;stroke-linejoin:round;stroke:rgb(94.139099%,94.139099%,94.139099%);stroke-opacity:1;stroke-miterlimit:10;" d="M 921.289062 7312.695312 L 921.289062 -200.195312 " transform="matrix(0.1,0,0,-0.1,0,672)"/>
<path style="fill:none;stroke-width:10;stroke-linecap:round;stroke-linejoin:round;stroke:rgb(94.139099%,94.139099%,94.139099%);stroke-opacity:1;stroke-miterlimit:10;" d="M 1204.726562 7312.695312 L 1204.726562 -200.195312 " transform="matrix(0.1,0,0,-0.1,0,672)"/>
<path style="fill:none;stroke-width:10;stroke-linecap:round;stroke-linejoin:round;stroke:rgb(94.139099%,94.139099%,94.139099%);stroke-opacity:1;stroke-miterlimit:10;" d="M 1488.203125 7312.695312 L 1488.203125 -200.195312 " transform="matrix(0.1,0,0,-0.1,0,672)"/>
<path style="fill:none;stroke-width:10;stroke-linecap:round;stroke-linejoin:round;stroke:rgb(94.139099%,94.139099%,94.139099%);stroke-opacity:1;stroke-miterlimit:10;" d="M 1771.640625 7312.695312 L 1771.640625 -200.195312 " transform="matrix(0.1,0,0,-0.1,0,672)"/>
<path style="fill:none;stroke-width:10;stroke-linecap:round;stroke-linejoin:round;stroke:rgb(94.139099%,94.139099%,94.139099%);stroke-opacity:1;stroke-miterlimit:10;" d="M 2338.59375 7312.695312 L 2338.59375 -200.195312 " transform="matrix(0.1,0,0,-0.1,0,672)"/>
<path style="fill:none;stroke-width:10;stroke-linecap:round;stroke-linejoin:round;stroke:rgb(94.139099%,94.139099%,94.139099%);stroke-opacity:1;stroke-miterlimit:10;" d="M 2622.070312 7312.695312 L 2622.070312 -200.195312 " transform="matrix(0.1,0,0,-0.1,0,672)"/>
<path style="fill:none;stroke-width:10;stroke-linecap:round;stroke-linejoin:round;stroke:rgb(94.139099%,94.139099%,94.139099%);stroke-opacity:1;stroke-miterlimit:10;" d="M 2905.507812 7312.695312 L 2905.507812 -200.195312 " transform="matrix(0.1,0,0,-0.1,0,672)"/>
<path style="fill:none;stroke-width:10;stroke-linecap:round;stroke-linejoin:round;stroke:rgb(94.139099%,94.139099%,94.139099%);stroke-opacity:1;stroke-miterlimit:10;" d="M 3188.984375 7312.695312 L 3188.984375 -200.195312 " transform="matrix(0.1,0,0,-0.1,0,672)"/>
<path style="fill:none;stroke-width:10;stroke-linecap:round;stroke-linejoin:round;stroke:rgb(94.139099%,94.139099%,94.139099%);stroke-opacity:1;stroke-miterlimit:10;" d="M 3755.9375 7312.695312 L 3755.9375 -200.195312 " transform="matrix(0.1,0,0,-0.1,0,672)"/>
<path style="fill:none;stroke-width:10;stroke-linecap:round;stroke-linejoin:round;stroke:rgb(94.139099%,94.139099%,94.139099%);stroke-opacity:1;stroke-miterlimit:10;" d="M 4039.375 7312.695312 L 4039.375 -200.195312 " transform="matrix(0.1,0,0,-0.1,0,672)"/>
<path style="fill:none;stroke-width:10;stroke-linecap:round;stroke-linejoin:round;stroke:rgb(94.139099%,94.139099%,94.139099%);stroke-opacity:1;stroke-miterlimit:10;" d="M 4322.851562 7312.695312 L 4322.851562 -200.195312 " transform="matrix(0.1,0,0,-0.1,0,672)"/>
<path style="fill:none;stroke-width:10;stroke-linecap:round;stroke-linejoin:round;stroke:rgb(94.139099%,94.139099%,94.139099%);stroke-opacity:1;stroke-miterlimit:10;" d="M 4606.328125 7312.695312 L 4606.328125 -200.195312 " transform="matrix(0.1,0,0,-0.1,0,672)"/>
<path style="fill:none;stroke-width:10;stroke-linecap:round;stroke-linejoin:round;stroke:rgb(94.139099%,94.139099%,94.139099%);stroke-opacity:1;stroke-miterlimit:10;" d="M 5173.242188 7312.695312 L 5173.242188 -200.195312 " transform="matrix(0.1,0,0,-0.1,0,672)"/>
<path style="fill:none;stroke-width:10;stroke-linecap:round;stroke-linejoin:round;stroke:rgb(94.139099%,94.139099%,94.139099%);stroke-opacity:1;stroke-miterlimit:10;" d="M 5456.71875 7312.695312 L 5456.71875 -200.195312 " transform="matrix(0.1,0,0,-0.1,0,672)"/>
<path style="fill:none;stroke-width:10;stroke-linecap:round;stroke-linejoin:round;stroke:rgb(94.139099%,94.139099%,94.139099%);stroke-opacity:1;stroke-miterlimit:10;" d="M 5740.15625 7312.695312 L 5740.15625 -200.195312 " transform="matrix(0.1,0,0,-0.1,0,672)"/>
<path style="fill:none;stroke-width:10;stroke-linecap:round;stroke-linejoin:round;stroke:rgb(94.139099%,94.139099%,94.139099%);stroke-opacity:1;stroke-miterlimit:10;" d="M 6023.632812 7312.695312 L 6023.632812 -200.195312 " transform="matrix(0.1,0,0,-0.1,0,672)"/>
<path style="fill:none;stroke-width:10;stroke-linecap:round;stroke-linejoin:round;stroke:rgb(94.139099%,94.139099%,94.139099%);stroke-opacity:1;stroke-miterlimit:10;" d="M 6590.546875 7312.695312 L 6590.546875 -200.195312 " transform="matrix(0.1,0,0,-0.1,0,672)"/>
<path style="fill:none;stroke-width:10;stroke-linecap:round;stroke-linejoin:round;stroke:rgb(94.139099%,94.139099%,94.139099%);stroke-opacity:1;stroke-miterlimit:10;" d="M 6874.023438 7312.695312 L 6874.023438 -200.195312 " transform="matrix(0.1,0,0,-0.1,0,672)"/>
<path style="fill:none;stroke-width:10;stroke-linecap:round;stroke-linejoin:round;stroke:rgb(75.389099%,75.389099%,75.389099%);stroke-opacity:1;stroke-miterlimit:10;" d="M -256.289062 6214.375 L 9034.6875 6214.375 " transform="matrix(0.1,0,0,-0.1,0,672)"/>
<path style="fill:none;stroke-width:10;stroke-linecap:round;stroke-linejoin:round;stroke:rgb(75.389099%,75.389099%,75.389099%);stroke-opacity:1;stroke-miterlimit:10;" d="M -256.289062 6214.375 L 9034.6875 6214.375 " transform="matrix(0.1,0,0,-0.1,0,672)"/>
<path style="fill:none;stroke-width:10;stroke-linecap:round;stroke-linejoin:round;stroke:rgb(75.389099%,75.389099%,75.389099%);stroke-opacity:1;stroke-miterlimit:10;" d="M -256.289062 5080.507812 L 9034.6875 5080.507812 " transform="matrix(0.1,0,0,-0.1,0,672)"/>
<path style="fill:none;stroke-width:10;stroke-linecap:round;stroke-linejoin:round;stroke:rgb(75.389099%,75.389099%,75.389099%);stroke-opacity:1;stroke-miterlimit:10;" d="M -256.289062 3946.640625 L 9034.6875 3946.640625 " transform="matrix(0.1,0,0,-0.1,0,672)"/>
<path style="fill:none;stroke-width:10;stroke-linecap:round;stroke-linejoin:round;stroke:rgb(75.389099%,75.389099%,75.389099%);stroke-opacity:1;stroke-miterlimit:10;" d="M -256.289062 2812.773438 L 9034.6875 2812.773438 " transform="matrix(0.1,0,0,-0.1,0,672)"/>
<path style="fill:none;stroke-width:10;stroke-linecap:round;stroke-linejoin:round;stroke:rgb(75.389099%,75.389099%,75.389099%);stroke-opacity:1;stroke-miterlimit:10;" d="M -256.289062 1678.945312 L 9034.6875 1678.945312 " transform="matrix(0.1,0,0,-0.1,0,672)"/>
<path style="fill:none;stroke-width:10;stroke-linecap:round;stroke-linejoin:round;stroke:rgb(94.139099%,94.139099%,94.139099%);stroke-opacity:1;stroke-miterlimit:10;" d="M -256.289062 6667.890625 L 9034.6875 6667.890625 " transform="matrix(0.1,0,0,-0.1,0,672)"/>
<path style="fill:none;stroke-width:10;stroke-linecap:round;stroke-linejoin:round;stroke:rgb(94.139099%,94.139099%,94.139099%);stroke-opacity:1;stroke-miterlimit:10;" d="M -256.289062 6441.132812 L 9034.6875 6441.132812 " transform="matrix(0.1,0,0,-0.1,0,672)"/>
<path style="fill:none;stroke-width:10;stroke-linecap:round;stroke-linejoin:round;stroke:rgb(94.139099%,94.139099%,94.139099%);stroke-opacity:1;stroke-miterlimit:10;" d="M -256.289062 5987.578125 L 9034.6875 5987.578125 " transform="matrix(0.1,0,0,-0.1,0,672)"/>
<path style="fill:none;stroke-width:10;stroke-linecap:round;stroke-linejoin:round;stroke:rgb(94.139099%,94.139099%,94.139099%);stroke-opacity:1;stroke-miterlimit:10;" d="M -256.289062 5760.820312 L 9034.6875 5760.820312 " transform="matrix(0.1,0,0,-0.1,0,672)"/>
<path style="fill:none;stroke-width:10;stroke-linecap:round;stroke-linejoin:round;stroke:rgb(94.139099%,94.139099%,94.139099%);stroke-opacity:1;stroke-miterlimit:10;" d="M -256.289062 5534.0625 L 9034.6875 5534.0625 " transform="matrix(0.1,0,0,-0.1,0,672)"/>
<path style="fill:none;stroke-width:10;stroke-linecap:round;stroke-linejoin:round;stroke:rgb(94.139099%,94.139099%,94.139099%);stroke-opacity:1;stroke-miterlimit:10;" d="M -256.289062 5307.265625 L 9034.6875 5307.265625 " transform="matrix(0.1,0,0,-0.1,0,672)"/>
<path style="fill:none;stroke-width:10;stroke-linecap:round;stroke-linejoin:round;stroke:rgb(94.139099%,94.139099%,94.139099%);stroke-opacity:1;stroke-miterlimit:10;" d="M -256.289062 4853.710938 L 9034.6875 4853.710938 " transform="matrix(0.1,0,0,-0.1,0,672)"/>
<path style="fill:none;stroke-width:10;stroke-linecap:round;stroke-linejoin:round;stroke:rgb(94.139099%,94.139099%,94.139099%);stroke-opacity:1;stroke-miterlimit:10;" d="M -256.289062 4626.953125 L 9034.6875 4626.953125 " transform="matrix(0.1,0,0,-0.1,0,672)"/>
<path style="fill:none;stroke-width:10;stroke-linecap:round;stroke-linejoin:round;stroke:rgb(94.139099%,94.139099%,94.139099%);stroke-opacity:1;stroke-miterlimit:10;" d="M -256.289062 4400.195312 L 9034.6875 4400.195312 " transform="matrix(0.1,0,0,-0.1,0,672)"/>
<path style="fill:none;stroke-width:10;stroke-linecap:round;stroke-linejoin:round;stroke:rgb(94.139099%,94.139099%,94.139099%);stroke-opacity:1;stroke-miterlimit:10;" d="M -256.289062 4173.4375 L 9034.6875 4173.4375 " transform="matrix(0.1,0,0,-0.1,0,672)"/>
<path style="fill:none;stroke-width:10;stroke-linecap:round;stroke-linejoin:round;stroke:rgb(94.139099%,94.139099%,94.139099%);stroke-opacity:1;stroke-miterlimit:10;" d="M -256.289062 3719.882812 L 9034.6875 3719.882812 " transform="matrix(0.1,0,0,-0.1,0,672)"/>
<path style="fill:none;stroke-width:10;stroke-linecap:round;stroke-linejoin:round;stroke:rgb(94.139099%,94.139099%,94.139099%);stroke-opacity:1;stroke-miterlimit:10;" d="M -256.289062 3493.085938 L 9034.6875 3493.085938 " transform="matrix(0.1,0,0,-0.1,0,672)"/>
<path style="fill:none;stroke-width:10;stroke-linecap:round;stroke-linejoin:round;stroke:rgb(94.139099%,94.139099%,94.139099%);stroke-opacity:1;stroke-miterlimit:10;" d="M -256.289062 3266.328125 L 9034.6875 3266.328125 " transform="matrix(0.1,0,0,-0.1,0,672)"/>
<path style="fill:none;stroke-width:10;stroke-linecap:round;stroke-linejoin:round;stroke:rgb(94.139099%,94.139099%,94.139099%);stroke-opacity:1;stroke-miterlimit:10;" d="M -256.289062 3039.570312 L 9034.6875 3039.570312 " transform="matrix(0.1,0,0,-0.1,0,672)"/>
<path style="fill:none;stroke-width:10;stroke-linecap:round;stroke-linejoin:round;stroke:rgb(94.139099%,94.139099%,94.139099%);stroke-opacity:1;stroke-miterlimit:10;" d="M -256.289062 2586.015625 L 9034.6875 2586.015625 " transform="matrix(0.1,0,0,-0.1,0,672)"/>
<path style="fill:none;stroke-width:10;stroke-linecap:round;stroke-linejoin:round;stroke:rgb(94.139099%,94.139099%,94.139099%);stroke-opacity:1;stroke-miterlimit:10;" d="M -256.289062 2359.257812 L 9034.6875 2359.257812 " transform="matrix(0.1,0,0,-0.1,0,672)"/>
<path style="fill:none;stroke-width:10;stroke-linecap:round;stroke-linejoin:round;stroke:rgb(94.139099%,94.139099%,94.139099%);stroke-opacity:1;stroke-miterlimit:10;" d="M -256.289062 2132.460938 L 9034.6875 2132.460938 " transform="matrix(0.1,0,0,-0.1,0,672)"/>
<path style="fill:none;stroke-width:10;stroke-linecap:round;stroke-linejoin:round;stroke:rgb(94.139099%,94.139099%,94.139099%);stroke-opacity:1;stroke-miterlimit:10;" d="M -256.289062 1905.703125 L 9034.6875 1905.703125 " transform="matrix(0.1,0,0,-0.1,0,672)"/>
<path style="fill:none;stroke-width:10;stroke-linecap:round;stroke-linejoin:round;stroke:rgb(94.139099%,94.139099%,94.139099%);stroke-opacity:1;stroke-miterlimit:10;" d="M -256.289062 1452.148438 L 9034.6875 1452.148438 " transform="matrix(0.1,0,0,-0.1,0,672)"/>
<path style="fill:none;stroke-width:10;stroke-linecap:round;stroke-linejoin:round;stroke:rgb(94.139099%,94.139099%,94.139099%);stroke-opacity:1;stroke-miterlimit:10;" d="M -256.289062 1225.390625 L 9034.6875 1225.390625 " transform="matrix(0.1,0,0,-0.1,0,672)"/>
<path style="fill:none;stroke-width:10;stroke-linecap:round;stroke-linejoin:round;stroke:rgb(94.139099%,94.139099%,94.139099%);stroke-opacity:1;stroke-miterlimit:10;" d="M -256.289062 998.59375 L 9034.6875 998.59375 " transform="matrix(0.1,0,0,-0.1,0,672)"/>
<path style="fill:none;stroke-width:10;stroke-linecap:round;stroke-linejoin:round;stroke:rgb(94.139099%,94.139099%,94.139099%);stroke-opacity:1;stroke-miterlimit:10;" d="M -256.289062 771.835938 L 9034.6875 771.835938 " transform="matrix(0.1,0,0,-0.1,0,672)"/>
<path style="fill:none;stroke-width:10;stroke-linecap:round;stroke-linejoin:round;stroke:rgb(94.139099%,94.139099%,94.139099%);stroke-opacity:1;stroke-miterlimit:10;" d="M -256.289062 318.320312 L 9034.6875 318.320312 " transform="matrix(0.1,0,0,-0.1,0,672)"/>
<path style="fill:none;stroke-width:10;stroke-linecap:round;stroke-linejoin:round;stroke:rgb(94.139099%,94.139099%,94.139099%);stroke-opacity:1;stroke-miterlimit:10;" d="M -256.289062 91.523438 L 9034.6875 91.523438 " transform="matrix(0.1,0,0,-0.1,0,672)"/>
<path style="fill:none;stroke-width:10;stroke-linecap:butt;stroke-linejoin:miter;stroke:rgb(0%,0%,0%);stroke-opacity:1;stroke-miterlimit:10;" d="M 637.8125 7280.664062 L 637.8125 -200.195312 " transform="matrix(0.1,0,0,-0.1,0,672)"/>
<path style="fill:none;stroke-width:10;stroke-linecap:butt;stroke-linejoin:miter;stroke:rgb(0%,0%,0%);stroke-opacity:1;stroke-miterlimit:10;" d="M -256.289062 545.078125 L 9002.65625 545.078125 " transform="matrix(0.1,0,0,-0.1,0,672)"/>
<path style=" stroke:none;fill-rule:nonzero;fill:rgb(0%,0%,0%);fill-opacity:1;" d="M 204.175781 642.417969 L 204.175781 640.765625 C 205.097656 641.132812 205.972656 641.316406 206.804688 641.316406 C 207.71875 641.316406 208.4375 641.046875 208.957031 640.511719 C 209.480469 639.972656 209.742188 639.230469 209.742188 638.285156 C 209.742188 636.203125 208.304688 635.160156 205.433594 635.160156 C 205.109375 635.160156 204.765625 635.183594 204.410156 635.226562 L 204.410156 628.46875 L 211.441406 628.46875 L 211.441406 630.082031 L 206.035156 630.082031 L 206.035156 633.742188 C 207.816406 633.742188 209.210938 634.152344 210.210938 634.972656 C 211.214844 635.792969 211.714844 636.929688 211.714844 638.378906 C 211.714844 639.730469 211.257812 640.789062 210.347656 641.558594 C 209.4375 642.324219 208.175781 642.707031 206.558594 642.707031 C 205.859375 642.707031 205.0625 642.609375 204.175781 642.417969 "/>
<path style=" stroke:none;fill-rule:nonzero;fill:rgb(0%,0%,0%);fill-opacity:1;" d="M 340.890625 642.359375 L 340.890625 640.96875 L 343.667969 640.96875 L 343.667969 630.007812 L 340.890625 630.703125 L 340.890625 629.277344 L 345.527344 628.121094 L 345.527344 640.96875 L 348.304688 640.96875 L 348.304688 642.359375 Z M 356.839844 642.707031 C 355.40625 642.707031 354.25 642.03125 353.363281 640.683594 C 352.476562 639.335938 352.035156 637.578125 352.035156 635.40625 C 352.035156 633.214844 352.480469 631.453125 353.371094 630.121094 C 354.265625 628.789062 355.4375 628.121094 356.898438 628.121094 C 358.355469 628.121094 359.53125 628.789062 360.421875 630.121094 C 361.3125 631.453125 361.757812 633.207031 361.757812 635.375 C 361.757812 637.605469 361.3125 639.382812 360.421875 640.710938 C 359.53125 642.042969 358.335938 642.707031 356.839844 642.707031 Z M 356.859375 641.316406 C 358.816406 641.316406 359.796875 639.328125 359.796875 635.347656 C 359.796875 631.457031 358.832031 629.511719 356.898438 629.511719 C 354.96875 629.511719 354.007812 631.476562 354.007812 635.40625 C 354.007812 639.347656 354.957031 641.316406 356.859375 641.316406 "/>
<path style=" stroke:none;fill-rule:nonzero;fill:rgb(0%,0%,0%);fill-opacity:1;" d="M 483.460938 642.359375 L 483.460938 640.96875 L 486.238281 640.96875 L 486.238281 630.007812 L 483.460938 630.703125 L 483.460938 629.277344 L 488.097656 628.121094 L 488.097656 640.96875 L 490.875 640.96875 L 490.875 642.359375 Z M 495.722656 642.417969 L 495.722656 640.765625 C 496.640625 641.132812 497.515625 641.316406 498.347656 641.316406 C 499.261719 641.316406 499.980469 641.046875 500.503906 640.511719 C 501.023438 639.972656 501.285156 639.230469 501.285156 638.285156 C 501.285156 636.203125 499.851562 635.160156 496.980469 635.160156 C 496.652344 635.160156 496.3125 635.183594 495.953125 635.226562 L 495.953125 628.46875 L 502.984375 628.46875 L 502.984375 630.082031 L 497.578125 630.082031 L 497.578125 633.742188 C 499.363281 633.742188 500.753906 634.152344 501.757812 634.972656 C 502.757812 635.792969 503.257812 636.929688 503.257812 638.378906 C 503.257812 639.730469 502.804688 640.789062 501.890625 641.558594 C 500.980469 642.324219 499.71875 642.707031 498.105469 642.707031 C 497.402344 642.707031 496.609375 642.609375 495.722656 642.417969 "/>
<path style=" stroke:none;fill-rule:nonzero;fill:rgb(0%,0%,0%);fill-opacity:1;" d="M 623.132812 642.359375 L 623.132812 640.734375 C 623.667969 639.476562 624.757812 638.109375 626.398438 636.625 L 627.457031 635.675781 C 628.820312 634.445312 629.503906 633.222656 629.503906 632.007812 C 629.503906 631.230469 629.269531 630.621094 628.804688 630.175781 C 628.339844 629.730469 627.699219 629.511719 626.886719 629.511719 C 625.921875 629.511719 624.785156 629.882812 623.476562 630.628906 L 623.476562 628.992188 C 624.710938 628.410156 625.933594 628.121094 627.148438 628.121094 C 628.449219 628.121094 629.496094 628.472656 630.28125 629.171875 C 631.070312 629.875 631.464844 630.800781 631.464844 631.960938 C 631.464844 632.792969 631.265625 633.53125 630.871094 634.175781 C 630.472656 634.820312 629.730469 635.601562 628.648438 636.523438 L 627.9375 637.132812 C 626.453125 638.390625 625.597656 639.589844 625.363281 640.734375 L 631.398438 640.734375 L 631.398438 642.359375 Z M 640.378906 642.707031 C 638.941406 642.707031 637.785156 642.03125 636.898438 640.683594 C 636.011719 639.335938 635.570312 637.578125 635.570312 635.40625 C 635.570312 633.214844 636.015625 631.453125 636.90625 630.121094 C 637.800781 628.789062 638.976562 628.121094 640.433594 628.121094 C 641.890625 628.121094 643.066406 628.789062 643.957031 630.121094 C 644.847656 631.453125 645.296875 633.207031 645.296875 635.375 C 645.296875 637.605469 644.847656 639.382812 643.957031 640.710938 C 643.066406 642.042969 641.871094 642.707031 640.378906 642.707031 Z M 640.394531 641.316406 C 642.355469 641.316406 643.332031 639.328125 643.332031 635.347656 C 643.332031 631.457031 642.367188 629.511719 640.433594 629.511719 C 638.503906 629.511719 637.542969 631.476562 637.542969 635.40625 C 637.542969 639.347656 638.492188 641.316406 640.394531 641.316406 "/>
<path style=" stroke:none;fill-rule:nonzero;fill:rgb(0%,0%,0%);fill-opacity:1;" d="M 27.226562 511.003906 L 27.226562 509.382812 C 27.765625 508.121094 28.851562 506.753906 30.492188 505.269531 L 31.554688 504.320312 C 32.917969 503.089844 33.597656 501.867188 33.597656 500.652344 C 33.597656 499.875 33.367188 499.265625 32.898438 498.820312 C 32.433594 498.378906 31.792969 498.15625 30.980469 498.15625 C 30.015625 498.15625 28.882812 498.527344 27.574219 499.273438 L 27.574219 497.640625 C 28.804688 497.058594 30.03125 496.765625 31.242188 496.765625 C 32.542969 496.765625 33.589844 497.117188 34.378906 497.816406 C 35.167969 498.519531 35.5625 499.445312 35.5625 500.605469 C 35.5625 501.4375 35.363281 502.175781 34.964844 502.820312 C 34.566406 503.464844 33.828125 504.246094 32.746094 505.164062 L 32.03125 505.777344 C 30.546875 507.035156 29.691406 508.234375 29.460938 509.382812 L 35.496094 509.382812 L 35.496094 511.003906 Z M 44.472656 511.351562 C 43.039062 511.351562 41.878906 510.679688 40.992188 509.328125 C 40.109375 507.980469 39.664062 506.222656 39.664062 504.050781 C 39.664062 501.859375 40.109375 500.097656 41.003906 498.765625 C 41.894531 497.433594 43.070312 496.765625 44.527344 496.765625 C 45.984375 496.765625 47.160156 497.433594 48.050781 498.765625 C 48.945312 500.097656 49.390625 501.851562 49.390625 504.019531 C 49.390625 506.25 48.945312 508.027344 48.050781 509.355469 C 47.160156 510.6875 45.96875 511.351562 44.472656 511.351562 Z M 44.488281 509.960938 C 46.449219 509.960938 47.429688 507.972656 47.429688 503.992188 C 47.429688 500.101562 46.460938 498.15625 44.527344 498.15625 C 42.601562 498.15625 41.636719 500.121094 41.636719 504.050781 C 41.636719 507.992188 42.589844 509.960938 44.488281 509.960938 "/>
<path style=" stroke:none;fill-rule:nonzero;fill:rgb(0%,0%,0%);fill-opacity:1;" d="M 32.867188 397.269531 L 32.867188 393.335938 L 26.617188 393.335938 L 26.617188 391.9375 L 32.867188 383.378906 L 34.601562 383.378906 L 34.601562 391.824219 L 36.460938 391.824219 L 36.460938 393.335938 L 34.601562 393.335938 L 34.601562 397.269531 Z M 28.425781 391.824219 L 32.988281 391.824219 L 32.988281 385.648438 Z M 44.472656 397.617188 C 43.039062 397.617188 41.878906 396.941406 40.992188 395.59375 C 40.109375 394.246094 39.664062 392.484375 39.664062 390.316406 C 39.664062 388.125 40.109375 386.363281 41.003906 385.03125 C 41.894531 383.699219 43.070312 383.03125 44.527344 383.03125 C 45.984375 383.03125 47.160156 383.699219 48.050781 385.03125 C 48.945312 386.363281 49.390625 388.113281 49.390625 390.285156 C 49.390625 392.515625 48.945312 394.292969 48.050781 395.621094 C 47.160156 396.953125 45.96875 397.617188 44.472656 397.617188 Z M 44.488281 396.226562 C 46.449219 396.226562 47.429688 394.238281 47.429688 390.257812 C 47.429688 386.367188 46.460938 384.421875 44.527344 384.421875 C 42.601562 384.421875 41.636719 386.386719 41.636719 390.316406 C 41.636719 394.257812 42.589844 396.226562 44.488281 396.226562 "/>
<path style=" stroke:none;fill-rule:nonzero;fill:rgb(0%,0%,0%);fill-opacity:1;" d="M 28.933594 277.9375 C 29.816406 276.792969 30.925781 276.21875 32.265625 276.21875 C 33.480469 276.21875 34.472656 276.621094 35.246094 277.425781 C 36.019531 278.230469 36.40625 279.261719 36.40625 280.519531 C 36.40625 281.964844 35.972656 283.152344 35.105469 284.085938 C 34.238281 285.019531 33.140625 285.484375 31.804688 285.484375 C 30.273438 285.484375 29.074219 284.867188 28.210938 283.636719 C 27.347656 282.402344 26.917969 280.691406 26.917969 278.5 C 26.917969 276.09375 27.410156 274.222656 28.402344 272.886719 C 29.394531 271.554688 30.792969 270.890625 32.59375 270.890625 C 33.421875 270.890625 34.453125 271.0625 35.691406 271.414062 L 35.691406 273.027344 C 34.382812 272.527344 33.316406 272.277344 32.480469 272.277344 C 30.117188 272.277344 28.933594 274.164062 28.933594 277.9375 Z M 34.546875 280.933594 C 34.546875 279.882812 34.3125 279.054688 33.839844 278.453125 C 33.367188 277.855469 32.710938 277.554688 31.871094 277.554688 C 31.089844 277.554688 30.417969 277.816406 29.855469 278.34375 C 29.289062 278.867188 29.007812 279.5 29.007812 280.238281 C 29.007812 281.402344 29.277344 282.335938 29.8125 283.039062 C 30.347656 283.742188 31.054688 284.09375 31.9375 284.09375 C 32.730469 284.09375 33.367188 283.808594 33.839844 283.238281 C 34.3125 282.664062 34.546875 281.894531 34.546875 280.933594 Z M 44.472656 285.484375 C 43.039062 285.484375 41.878906 284.808594 40.992188 283.460938 C 40.109375 282.113281 39.664062 280.355469 39.664062 278.183594 C 39.664062 275.992188 40.109375 274.230469 41.003906 272.898438 C 41.894531 271.566406 43.070312 270.898438 44.527344 270.898438 C 45.984375 270.898438 47.160156 271.566406 48.050781 272.898438 C 48.945312 274.230469 49.390625 275.984375 49.390625 278.152344 C 49.390625 280.382812 48.945312 282.160156 48.050781 283.488281 C 47.160156 284.820312 45.96875 285.484375 44.472656 285.484375 Z M 44.488281 284.09375 C 46.449219 284.09375 47.429688 282.105469 47.429688 278.125 C 47.429688 274.234375 46.460938 272.289062 44.527344 272.289062 C 42.601562 272.289062 41.636719 274.253906 41.636719 278.183594 C 41.636719 282.125 42.589844 284.09375 44.488281 284.09375 "/>
<path style=" stroke:none;fill-rule:nonzero;fill:rgb(0%,0%,0%);fill-opacity:1;" d="M 30.050781 163.835938 C 28.695312 162.894531 28.015625 161.847656 28.015625 160.703125 C 28.015625 159.652344 28.398438 158.796875 29.167969 158.140625 C 29.9375 157.484375 30.941406 157.15625 32.179688 157.15625 C 33.328125 157.15625 34.253906 157.433594 34.964844 157.988281 C 35.675781 158.546875 36.03125 159.269531 36.03125 160.15625 C 36.03125 161.503906 35.167969 162.730469 33.441406 163.835938 C 35.535156 164.863281 36.585938 166.1875 36.585938 167.808594 C 36.585938 168.972656 36.144531 169.921875 35.265625 170.652344 C 34.386719 171.382812 33.253906 171.75 31.863281 171.75 C 30.5 171.75 29.394531 171.402344 28.554688 170.714844 C 27.710938 170.019531 27.292969 169.113281 27.292969 167.984375 C 27.292969 166.320312 28.210938 164.9375 30.050781 163.835938 Z M 32.40625 163.253906 C 33.703125 162.40625 34.351562 161.457031 34.351562 160.410156 C 34.351562 159.855469 34.132812 159.40625 33.703125 159.066406 C 33.269531 158.722656 32.703125 158.554688 31.992188 158.554688 C 31.3125 158.554688 30.757812 158.722656 30.332031 159.054688 C 29.90625 159.390625 29.695312 159.824219 29.695312 160.355469 C 29.695312 160.875 29.886719 161.339844 30.273438 161.75 C 30.65625 162.160156 31.367188 162.660156 32.40625 163.253906 Z M 31.054688 164.589844 C 30.3125 165.164062 29.804688 165.664062 29.539062 166.09375 C 29.273438 166.523438 29.140625 167.058594 29.140625 167.695312 C 29.140625 168.488281 29.398438 169.132812 29.910156 169.625 C 30.421875 170.113281 31.097656 170.359375 31.9375 170.359375 C 32.746094 170.359375 33.402344 170.152344 33.914062 169.730469 C 34.421875 169.3125 34.679688 168.769531 34.679688 168.097656 C 34.679688 167.5625 34.519531 167.105469 34.203125 166.734375 C 33.890625 166.359375 33.277344 165.90625 32.371094 165.367188 Z M 44.472656 171.75 C 43.039062 171.75 41.878906 171.074219 40.992188 169.726562 C 40.109375 168.378906 39.664062 166.617188 39.664062 164.449219 C 39.664062 162.257812 40.109375 160.496094 41.003906 159.164062 C 41.894531 157.828125 43.070312 157.164062 44.527344 157.164062 C 45.984375 157.164062 47.160156 157.828125 48.050781 159.164062 C 48.945312 160.496094 49.390625 162.246094 49.390625 164.421875 C 49.390625 166.648438 48.945312 168.425781 48.050781 169.753906 C 47.160156 171.085938 45.96875 171.75 44.472656 171.75 Z M 44.488281 170.359375 C 46.449219 170.359375 47.429688 168.371094 47.429688 164.390625 C 47.429688 160.5 46.460938 158.554688 44.527344 158.554688 C 42.601562 158.554688 41.636719 160.519531 41.636719 164.449219 C 41.636719 168.390625 42.589844 170.359375 44.488281 170.359375 "/>
<path style=" stroke:none;fill-rule:nonzero;fill:rgb(0%,0%,0%);fill-opacity:1;" d="M 15.707031 57.667969 L 15.707031 56.277344 L 18.484375 56.277344 L 18.484375 45.316406 L 15.707031 46.011719 L 15.707031 44.585938 L 20.34375 43.429688 L 20.34375 56.277344 L 23.121094 56.277344 L 23.121094 57.667969 Z M 31.65625 58.015625 C 30.222656 58.015625 29.0625 57.339844 28.179688 55.992188 C 27.292969 54.644531 26.851562 52.882812 26.851562 50.714844 C 26.851562 48.523438 27.296875 46.761719 28.1875 45.429688 C 29.078125 44.097656 30.253906 43.429688 31.710938 43.429688 C 33.171875 43.429688 34.34375 44.097656 35.238281 45.429688 C 36.128906 46.761719 36.574219 48.515625 36.574219 50.683594 C 36.574219 52.910156 36.128906 54.691406 35.238281 56.019531 C 34.34375 57.351562 33.152344 58.015625 31.65625 58.015625 Z M 31.675781 56.625 C 33.632812 56.625 34.613281 54.636719 34.613281 50.65625 C 34.613281 46.765625 33.644531 44.820312 31.710938 44.820312 C 29.785156 44.820312 28.820312 46.785156 28.820312 50.714844 C 28.820312 54.65625 29.773438 56.625 31.675781 56.625 Z M 44.472656 58.015625 C 43.039062 58.015625 41.878906 57.339844 40.992188 55.992188 C 40.109375 54.644531 39.664062 52.882812 39.664062 50.714844 C 39.664062 48.523438 40.109375 46.761719 41.003906 45.429688 C 41.894531 44.097656 43.070312 43.429688 44.527344 43.429688 C 45.984375 43.429688 47.160156 44.097656 48.050781 45.429688 C 48.945312 46.761719 49.390625 48.515625 49.390625 50.683594 C 49.390625 52.910156 48.945312 54.691406 48.050781 56.019531 C 47.160156 57.351562 45.96875 58.015625 44.472656 58.015625 Z M 44.488281 56.625 C 46.449219 56.625 47.429688 54.636719 47.429688 50.65625 C 47.429688 46.765625 46.460938 44.820312 44.527344 44.820312 C 42.601562 44.820312 41.636719 46.785156 41.636719 50.714844 C 41.636719 54.65625 42.589844 56.625 44.488281 56.625 "/>
<path style=" stroke:none;fill-rule:nonzero;fill:rgb(0%,0%,0%);fill-opacity:1;" d="M 44.472656 642.707031 C 43.039062 642.707031 41.878906 642.03125 40.992188 640.683594 C 40.109375 639.335938 39.664062 637.578125 39.664062 635.40625 C 39.664062 633.214844 40.109375 631.453125 41.003906 630.121094 C 41.894531 628.789062 43.070312 628.121094 44.527344 628.121094 C 45.984375 628.121094 47.160156 628.789062 48.050781 630.121094 C 48.945312 631.453125 49.390625 633.207031 49.390625 635.375 C 49.390625 637.605469 48.945312 639.382812 48.050781 640.710938 C 47.160156 642.042969 45.96875 642.707031 44.472656 642.707031 Z M 44.488281 641.316406 C 46.449219 641.316406 47.429688 639.328125 47.429688 635.347656 C 47.429688 631.457031 46.460938 629.511719 44.527344 629.511719 C 42.601562 629.511719 41.636719 631.476562 41.636719 635.40625 C 41.636719 639.347656 42.589844 641.316406 44.488281 641.316406 "/>
<path style="fill:none;stroke-width:25;stroke-linecap:round;stroke-linejoin:round;stroke:rgb(30.200195%,30.200195%,100%);stroke-opacity:1;stroke-miterlimit:10;" d="M -256.289062 1648.515625 L -183.710938 1581.445312 L -111.132812 1520.039062 L -38.554688 1469.609375 L 34.023438 1434.726562 L 70.3125 1424.296875 L 106.640625 1419.023438 L 142.929688 1419.140625 L 179.21875 1424.84375 L 215.507812 1436.210938 L 251.796875 1453.203125 L 324.375 1503.59375 L 396.953125 1574.21875 L 469.570312 1661.875 L 542.148438 1762.34375 L 614.726562 1870.546875 L 687.304688 1980.976562 L 759.882812 2087.96875 L 832.5 2186.09375 L 905.078125 2270.585938 L 977.65625 2337.578125 L 1050.234375 2384.335938 L 1086.523438 2399.648438 L 1122.8125 2409.53125 L 1159.101562 2413.984375 L 1195.390625 2413.164062 L 1231.71875 2407.382812 L 1268.007812 2396.875 L 1340.585938 2363.398438 L 1413.164062 2316.757812 L 1485.742188 2261.835938 L 1558.359375 2204.101562 L 1630.9375 2149.21875 L 1703.515625 2102.695312 L 1776.09375 2069.609375 L 1812.382812 2059.375 L 1848.671875 2054.023438 L 1884.960938 2053.828125 L 1921.289062 2059.023438 L 1957.578125 2069.882812 L 1993.867188 2086.445312 L 2030.15625 2108.671875 L 2066.445312 2136.523438 L 2139.023438 2208.164062 L 2211.601562 2298.945312 L 2284.21875 2405.078125 L 2356.796875 2521.992188 L 2429.375 2644.335938 L 2501.953125 2766.484375 L 2574.53125 2882.851562 L 2647.148438 2988.320312 L 2719.726562 3078.4375 L 2792.304688 3149.84375 L 2864.882812 3200.46875 L 2901.171875 3217.734375 L 2937.460938 3229.609375 L 2973.789062 3236.328125 L 3010.078125 3238.007812 L 3046.367188 3235.078125 L 3082.65625 3227.851562 L 3155.234375 3202.460938 L 3227.8125 3166.367188 L 3300.390625 3124.726562 L 3373.007812 3083.164062 L 3445.585938 3047.304688 L 3518.164062 3022.539062 L 3554.453125 3015.742188 L 3590.742188 3013.4375 L 3627.03125 3015.976562 L 3663.320312 3023.75 L 3699.648438 3036.992188 L 3735.9375 3055.9375 L 3808.515625 3111.132812 L 3881.09375 3188.984375 L 3953.671875 3287.695312 L 4026.25 3404.296875 L 4098.867188 3534.53125 L 4171.445312 3673.476562 L 4244.023438 3815.546875 L 4316.601562 3955.195312 L 4389.179688 4086.914062 L 4461.796875 4205.9375 L 4534.375 4308.242188 L 4606.953125 4391.09375 L 4679.53125 4453.007812 L 4715.820312 4476.054688 L 4752.109375 4493.984375 L 4824.726562 4515.429688 L 4861.015625 4519.648438 L 4897.304688 4520.117188 L 4969.882812 4511.914062 L 5042.460938 4495.742188 L 5115.039062 4476.992188 L 5187.65625 4461.367188 L 5260.234375 4454.375 L 5296.523438 4455.742188 L 5332.8125 4461.132812 L 5369.101562 4471.054688 L 5405.390625 4485.898438 L 5441.679688 4506.054688 L 5477.96875 4531.796875 L 5550.585938 4600.742188 L 5623.164062 4693.125 L 5695.742188 4808.007812 L 5768.320312 4943.007812 L 5840.898438 5094.492188 L 5877.1875 5175.039062 L 5913.515625 5257.929688 L 5949.804688 5342.5 L 5986.09375 5428.046875 L 6022.382812 5513.828125 L 6058.671875 5599.21875 L 6094.960938 5683.4375 L 6131.25 5765.859375 L 6203.828125 5922.8125 L 6276.445312 6065.625 L 6349.023438 6190.820312 L 6421.601562 6296.289062 L 6494.179688 6381.171875 L 6566.757812 6446.132812 L 6639.375 6493.320312 L 6711.953125 6525.976562 L 6784.53125 6548.554688 L 6857.109375 6566.210938 L 6929.6875 6584.53125 L 7002.304688 6609.179688 L 7074.882812 6645.585938 L 7147.460938 6698.476562 L 7220.039062 6771.640625 L 7292.617188 6867.695312 L 7365.195312 6987.8125 L 7437.8125 7131.875 L 7474.101562 7212.382812 L 7510.390625 7298.164062 L 7546.679688 7388.789062 L 7582.96875 7483.75 " transform="matrix(0.1,0,0,-0.1,0,672)"/>
<path style=" stroke:none;fill-rule:nonzero;fill:rgb(0%,0%,100%);fill-opacity:1;" d="M 74.726562 440.519531 L 67.730469 422 L 70.359375 422 L 76.089844 437.167969 L 81.621094 422 L 83.925781 422 L 77.203125 440.519531 "/>
<path style="fill:none;stroke-width:25;stroke-linecap:round;stroke-linejoin:round;stroke:rgb(86.131287%,30.200195%,30.200195%);stroke-opacity:1;stroke-miterlimit:10;" d="M -256.289062 1644.21875 L -183.710938 1663.4375 L -111.132812 1682.96875 L -38.554688 1702.851562 L 34.023438 1723.085938 L 106.640625 1743.671875 L 179.21875 1764.648438 L 251.796875 1785.9375 L 324.375 1807.617188 L 396.953125 1829.6875 L 469.570312 1852.148438 L 542.148438 1874.960938 L 614.726562 1898.242188 L 687.304688 1921.875 L 759.882812 1945.9375 L 832.5 1970.429688 L 905.078125 1995.3125 L 977.65625 2020.664062 L 1050.234375 2046.445312 L 1122.8125 2072.695312 L 1195.390625 2099.375 L 1268.007812 2126.5625 L 1340.585938 2154.21875 L 1413.164062 2182.304688 L 1485.742188 2210.9375 L 1558.359375 2240.039062 L 1630.9375 2269.648438 L 1703.515625 2299.804688 L 1776.09375 2330.46875 L 1848.671875 2361.679688 L 1921.289062 2393.4375 L 1993.867188 2425.703125 L 2066.445312 2458.59375 L 2139.023438 2492.03125 L 2211.601562 2526.054688 L 2284.21875 2560.664062 L 2356.796875 2595.898438 L 2429.375 2631.757812 L 2501.953125 2668.203125 L 2574.53125 2705.3125 L 2647.148438 2743.046875 L 2719.726562 2781.484375 L 2792.304688 2820.546875 L 2864.882812 2860.3125 L 2937.460938 2900.78125 L 3010.078125 2941.953125 L 3082.65625 2983.828125 L 3155.234375 3026.445312 L 3227.8125 3069.84375 L 3300.390625 3113.945312 L 3373.007812 3158.828125 L 3445.585938 3204.53125 L 3518.164062 3251.015625 L 3590.742188 3298.28125 L 3663.320312 3346.40625 L 3735.9375 3395.351562 L 3808.515625 3445.15625 L 3881.09375 3495.859375 L 3953.671875 3547.421875 L 4026.25 3599.882812 L 4098.867188 3653.28125 L 4171.445312 3707.617188 L 4244.023438 3762.851562 L 4316.601562 3819.101562 L 4389.179688 3876.328125 L 4461.796875 3934.53125 L 4534.375 3993.789062 L 4606.953125 4054.023438 L 4679.53125 4115.351562 L 4752.109375 4177.734375 L 4824.726562 4241.25 L 4897.304688 4305.859375 L 4969.882812 4371.5625 L 5042.460938 4438.4375 L 5115.039062 4506.484375 L 5187.65625 4575.703125 L 5260.234375 4646.132812 L 5332.8125 4717.8125 L 5405.390625 4790.742188 L 5477.96875 4864.921875 L 5550.585938 4940.429688 L 5623.164062 5017.226562 L 5695.742188 5095.390625 L 5768.320312 5174.921875 L 5840.898438 5255.820312 L 5913.515625 5338.164062 L 5986.09375 5421.914062 L 6058.671875 5507.148438 L 6131.25 5593.867188 L 6203.828125 5682.109375 L 6276.445312 5771.875 L 6349.023438 5863.203125 L 6421.601562 5956.171875 L 6494.179688 6050.703125 L 6566.757812 6146.953125 L 6639.375 6244.84375 L 6711.953125 6344.453125 L 6784.53125 6445.78125 L 6857.109375 6548.90625 L 6929.6875 6653.828125 L 7002.304688 6760.585938 L 7074.882812 6869.21875 L 7147.460938 6979.765625 L 7220.039062 7092.1875 L 7292.617188 7206.601562 L 7365.195312 7323.046875 L 7437.8125 7441.484375 " transform="matrix(0.1,0,0,-0.1,0,672)"/>
<path style=" stroke:none;fill-rule:nonzero;fill:rgb(80.076599%,0%,0%);fill-opacity:1;" d="M 103.085938 495.910156 L 99.929688 487.925781 L 96.765625 495.910156 Z M 105.863281 502.996094 L 103.847656 497.863281 L 96 497.863281 L 93.960938 502.996094 L 91.519531 502.996094 L 98.867188 484.472656 L 101.46875 484.472656 L 108.703125 502.996094 "/>
<path style="fill:none;stroke-width:25;stroke-linecap:round;stroke-linejoin:round;stroke:rgb(30.200195%,30.200195%,100%);stroke-opacity:1;stroke-miterlimit:10;" d="M -256.289062 279.296875 L -183.710938 290.625 L -174.648438 293.554688 L -165.585938 296.875 L -147.421875 304.453125 L -111.132812 323.476562 L -38.554688 375.820312 L 34.023438 444.335938 L 106.640625 524.648438 L 179.21875 611.601562 L 251.796875 699.609375 L 324.375 783.046875 L 396.953125 856.5625 L 469.570312 915.46875 L 542.148438 956.015625 L 560.273438 962.96875 L 578.4375 968.554688 L 614.726562 975.664062 L 651.015625 977.1875 L 687.304688 973.203125 L 723.59375 963.710938 L 759.882812 948.945312 L 832.5 904.53125 L 905.078125 843.046875 L 977.65625 768.515625 L 1050.234375 685.976562 L 1122.8125 600.859375 L 1195.390625 518.945312 L 1268.007812 445.546875 L 1340.585938 385.703125 L 1413.164062 343.359375 L 1449.453125 329.726562 L 1485.742188 321.445312 L 1522.03125 318.671875 L 1558.359375 321.484375 L 1594.648438 329.84375 L 1630.9375 343.632812 L 1703.515625 386.5625 L 1776.09375 447.578125 L 1848.671875 522.890625 L 1921.289062 607.695312 L 1993.867188 696.601562 L 2066.445312 783.984375 L 2139.023438 864.21875 L 2211.601562 932.304688 L 2284.21875 983.945312 L 2320.507812 1002.5 L 2356.796875 1015.859375 L 2393.085938 1023.789062 L 2429.375 1026.171875 L 2465.664062 1023.007812 L 2501.953125 1014.375 L 2538.242188 1000.390625 L 2574.53125 981.367188 L 2647.148438 929.492188 L 2719.726562 862.265625 L 2792.304688 784.296875 L 2864.882812 700.820312 L 2937.460938 617.421875 L 3010.078125 539.765625 L 3082.65625 473.046875 L 3155.234375 421.875 L 3191.523438 403.242188 L 3227.8125 389.726562 L 3264.101562 381.5625 L 3300.390625 378.90625 L 3336.71875 381.796875 L 3373.007812 390.273438 L 3409.296875 404.179688 L 3445.585938 423.359375 L 3518.164062 476.132812 L 3590.742188 545.429688 L 3663.320312 626.914062 L 3735.9375 715.429688 L 3808.515625 805.507812 L 3881.09375 891.445312 L 3953.671875 967.890625 L 4026.25 1030.039062 L 4098.867188 1074.140625 L 4135.15625 1088.515625 L 4171.445312 1097.460938 L 4207.734375 1100.9375 L 4244.023438 1098.828125 L 4280.3125 1091.25 L 4316.601562 1078.320312 L 4389.179688 1037.578125 L 4461.796875 979.453125 L 4534.375 908.046875 L 4606.953125 828.242188 L 4679.53125 745.507812 L 4752.109375 665.546875 L 4824.726562 593.828125 L 4897.304688 535.3125 L 4969.882812 494.101562 L 5006.171875 480.976562 L 5042.460938 473.203125 L 5078.75 470.898438 L 5115.039062 474.21875 L 5151.328125 483.085938 L 5187.65625 497.421875 L 5260.234375 541.601562 L 5332.8125 604.179688 L 5405.390625 681.40625 L 5477.96875 768.515625 L 5550.585938 860.273438 L 5623.164062 950.898438 L 5695.742188 1034.921875 L 5768.320312 1107.148438 L 5840.898438 1163.242188 L 5877.1875 1184.179688 L 5913.515625 1199.921875 L 5949.804688 1210.273438 L 5986.09375 1215.15625 L 6022.382812 1214.453125 L 6058.671875 1208.242188 L 6094.960938 1196.757812 L 6131.25 1180.15625 L 6203.828125 1132.96875 L 6276.445312 1070.234375 L 6349.023438 996.445312 L 6421.601562 916.757812 L 6494.179688 836.835938 L 6566.757812 762.304688 L 6639.375 698.398438 L 6711.953125 649.765625 L 6748.242188 632.382812 L 6784.53125 620.039062 L 6820.820312 613.046875 L 6857.109375 611.5625 L 6893.398438 615.664062 L 6929.6875 625.351562 L 6965.976562 640.546875 L 7002.304688 661.015625 L 7074.882812 716.640625 L 7147.460938 789.101562 L 7220.039062 874.179688 L 7292.617188 966.835938 L 7365.195312 1061.484375 L 7437.8125 1152.539062 L 7510.390625 1234.492188 L 7582.96875 1302.617188 L 7655.546875 1353.007812 L 7691.835938 1370.625 L 7728.125 1382.890625 L 7764.453125 1389.648438 L 7800.742188 1390.898438 L 7837.03125 1386.640625 L 7873.320312 1377.070312 L 7909.609375 1362.382812 L 7945.898438 1342.929688 L 8018.476562 1291.25 L 8091.054688 1226.015625 L 8163.671875 1152.109375 L 8236.25 1074.960938 L 8308.828125 1000.273438 L 8381.40625 933.515625 L 8453.984375 879.6875 L 8526.601562 843.046875 L 8544.726562 836.953125 L 8562.890625 832.148438 L 8599.179688 826.5625 L 8635.46875 826.523438 L 8671.757812 832.109375 L 8708.046875 843.28125 L 8744.335938 859.921875 L 8816.914062 908.984375 L 8889.53125 976.796875 L 8962.109375 1059.6875 L 9034.6875 1153.007812 " transform="matrix(0.1,0,0,-0.1,0,672)"/>
<path style=" stroke:none;fill-rule:nonzero;fill:rgb(0%,0%,100%);fill-opacity:1;" d="M 39.484375 565.46875 L 32.488281 546.945312 L 35.117188 546.945312 L 40.847656 562.113281 L 46.378906 546.945312 L 48.683594 546.945312 L 41.960938 565.46875 Z M 50.058594 552.503906 L 49.445312 545.707031 L 52.535156 545.707031 L 51.910156 552.503906 "/>
<path style="fill:none;stroke-width:25;stroke-linecap:round;stroke-linejoin:round;stroke:rgb(100%,53.514099%,30.200195%);stroke-opacity:1;stroke-miterlimit:10;" d="M -256.289062 619.453125 L -183.710938 620.742188 L -38.554688 623.398438 L 34.023438 624.765625 L 106.640625 626.171875 L 179.21875 627.578125 L 251.796875 629.023438 L 396.953125 631.992188 L 469.570312 633.515625 L 542.148438 635.039062 L 759.882812 639.84375 L 832.5 641.523438 L 905.078125 643.203125 L 1050.234375 646.640625 L 1195.390625 650.234375 L 1268.007812 652.070312 L 1340.585938 653.945312 L 1485.742188 657.773438 L 1558.359375 659.765625 L 1630.9375 661.757812 L 1703.515625 663.789062 L 1776.09375 665.859375 L 1848.671875 667.96875 L 1921.289062 670.117188 L 1993.867188 672.304688 L 2066.445312 674.53125 L 2139.023438 676.796875 L 2211.601562 679.101562 L 2284.21875 681.445312 L 2356.796875 683.828125 L 2429.375 686.25 L 2501.953125 688.710938 L 2574.53125 691.210938 L 2647.148438 693.789062 L 2719.726562 696.367188 L 2792.304688 699.023438 L 2864.882812 701.71875 L 2937.460938 704.453125 L 3010.078125 707.226562 L 3082.65625 710.078125 L 3155.234375 712.96875 L 3227.8125 715.898438 L 3300.390625 718.867188 L 3373.007812 721.914062 L 3445.585938 725 L 3518.164062 728.164062 L 3590.742188 731.367188 L 3663.320312 734.609375 L 3735.9375 737.929688 L 3808.515625 741.289062 L 3881.09375 744.726562 L 3953.671875 748.203125 L 4026.25 751.757812 L 4098.867188 755.351562 L 4244.023438 762.773438 L 4316.601562 766.601562 L 4389.179688 770.46875 L 4461.796875 774.414062 L 4534.375 778.398438 L 4606.953125 782.5 L 4679.53125 786.640625 L 4752.109375 790.859375 L 4824.726562 795.15625 L 4897.304688 799.53125 L 4969.882812 803.984375 L 5042.460938 808.476562 L 5115.039062 813.085938 L 5187.65625 817.773438 L 5260.234375 822.539062 L 5332.8125 827.382812 L 5405.390625 832.34375 L 5477.96875 837.34375 L 5550.585938 842.460938 L 5623.164062 847.65625 L 5695.742188 852.929688 L 5768.320312 858.320312 L 5840.898438 863.789062 L 5913.515625 869.375 L 5986.09375 875.039062 L 6058.671875 880.820312 L 6131.25 886.679688 L 6203.828125 892.65625 L 6276.445312 898.710938 L 6349.023438 904.882812 L 6421.601562 911.171875 L 6494.179688 917.578125 L 6566.757812 924.101562 L 6639.375 930.703125 L 6711.953125 937.460938 L 6784.53125 944.296875 L 6857.109375 951.289062 L 6929.6875 958.398438 L 7002.304688 965.585938 L 7074.882812 972.96875 L 7147.460938 980.429688 L 7220.039062 988.046875 L 7292.617188 995.78125 L 7365.195312 1003.671875 L 7437.8125 1011.679688 L 7510.390625 1019.84375 L 7582.96875 1028.125 L 7655.546875 1036.5625 L 7728.125 1045.15625 L 7800.742188 1053.90625 L 7873.320312 1062.773438 L 7945.898438 1071.835938 L 8018.476562 1081.054688 L 8091.054688 1090.390625 L 8163.671875 1099.921875 L 8236.25 1109.648438 L 8308.828125 1119.492188 L 8381.40625 1129.53125 L 8453.984375 1139.765625 L 8526.601562 1150.15625 L 8599.179688 1160.703125 L 8671.757812 1171.484375 L 8744.335938 1182.421875 L 8816.914062 1193.554688 L 8889.53125 1204.882812 L 8962.109375 1216.445312 L 9034.6875 1228.164062 " transform="matrix(0.1,0,0,-0.1,0,672)"/>
<path style=" stroke:none;fill-rule:nonzero;fill:rgb(100%,33.325195%,0%);fill-opacity:1;" d="M 95.074219 628.867188 L 91.921875 620.882812 L 88.753906 628.867188 Z M 97.851562 635.953125 L 95.839844 630.820312 L 87.992188 630.820312 L 85.953125 635.953125 L 83.511719 635.953125 L 90.855469 617.429688 L 93.460938 617.429688 L 100.695312 635.953125 Z M 102.921875 622.988281 L 102.308594 616.191406 L 105.398438 616.191406 L 104.773438 622.988281 "/>
</g>
</svg>
