<?xml version="1.0" encoding="UTF-8"?>
<svg xmlns="http://www.w3.org/2000/svg" xmlns:xlink="http://www.w3.org/1999/xlink" width="367pt" height="287pt" viewBox="0 0 367 287" version="1.1">
<g id="surface1">
<rect x="0" y="0" width="367" height="287" style="fill:rgb(100%,100%,100%);fill-opacity:1;stroke:none;"/>
<path style="fill:none;stroke-width:10;stroke-linecap:butt;stroke-linejoin:miter;stroke:rgb(0%,0%,0%);stroke-opacity:1;stroke-miterlimit:10;" d="M 1898.789062 2923.4375 L 1898.789062 -194.921875 " transform="matrix(0.1,0,0,-0.1,0,287)"/>
<path style="fill:none;stroke-width:10;stroke-linecap:butt;stroke-linejoin:miter;stroke:rgb(0%,0%,0%);stroke-opacity:1;stroke-miterlimit:10;" d="M -80.117188 710.820312 L 3779.375 710.820312 " transform="matrix(0.1,0,0,-0.1,0,287)"/>
<path style="fill:none;stroke-width:25;stroke-linecap:round;stroke-linejoin:round;stroke:rgb(30.200195%,30.200195%,100%);stroke-opacity:1;stroke-miterlimit:10;" d="M -80.117188 1017.460938 L -49.882812 1020.46875 L -19.609375 1023.554688 L 10.625 1026.835938 L 40.898438 1030.273438 L 71.171875 1033.867188 L 101.40625 1037.617188 L 131.679688 1041.5625 L 161.914062 1045.703125 L 192.1875 1050.078125 L 222.421875 1054.726562 L 252.695312 1059.570312 L 282.96875 1064.726562 L 313.203125 1070.195312 L 343.476562 1075.976562 L 373.710938 1082.148438 L 403.984375 1088.710938 L 434.21875 1095.703125 L 464.492188 1103.203125 L 494.765625 1111.25 L 525 1119.882812 L 555.273438 1129.21875 L 585.507812 1139.257812 L 615.78125 1150.195312 L 646.015625 1162.070312 L 676.289062 1175.039062 L 706.5625 1189.296875 L 736.796875 1204.960938 L 767.070312 1222.34375 L 797.304688 1241.640625 L 827.578125 1263.28125 L 857.8125 1287.695312 L 888.085938 1315.46875 L 918.359375 1347.265625 L 948.59375 1384.0625 L 978.867188 1427.1875 L 1009.101562 1478.398438 L 1039.375 1540.234375 L 1054.492188 1576.171875 L 1069.648438 1616.289062 L 1084.765625 1661.328125 L 1099.882812 1712.226562 L 1115.039062 1770.234375 L 1130.15625 1836.953125 L 1137.695312 1874.179688 L 1145.273438 1914.453125 L 1152.851562 1958.125 L 1160.390625 2005.664062 L 1167.96875 2057.578125 L 1175.546875 2114.492188 L 1183.085938 2177.226562 L 1186.875 2211.054688 L 1190.664062 2246.679688 L 1194.453125 2284.257812 L 1198.203125 2323.984375 L 1201.992188 2366.015625 L 1205.78125 2410.585938 L 1209.570312 2457.890625 L 1213.359375 2508.203125 L 1217.148438 2561.875 L 1220.898438 2619.179688 L 1224.6875 2680.546875 L 1228.476562 2746.367188 L 1230.351562 2781.132812 L 1232.265625 2817.226562 L 1234.140625 2854.6875 L 1236.054688 2893.671875 L 1237.929688 2934.179688 L 1239.804688 2976.367188 M 1500.78125 -260.664062 L 1508.359375 -211.71875 L 1515.898438 -166.835938 L 1523.476562 -125.46875 L 1531.054688 -87.265625 L 1538.59375 -51.835938 L 1553.75 11.757812 L 1568.867188 67.226562 L 1583.984375 116.054688 L 1599.101562 159.335938 L 1614.257812 198.007812 L 1644.492188 264.101562 L 1674.765625 318.515625 L 1705.039062 364.101562 L 1735.273438 402.851562 L 1765.546875 436.210938 L 1795.78125 465.195312 L 1826.054688 490.664062 L 1856.289062 513.164062 M 1856.289062 513.164062 L 1886.5625 533.242188 L 1916.835938 551.210938 L 1947.070312 567.421875 L 1977.34375 582.109375 L 2007.578125 595.507812 L 2037.851562 607.734375 L 2068.085938 618.945312 L 2098.359375 629.296875 L 2128.632812 638.867188 L 2158.867188 647.695312 L 2189.140625 655.9375 L 2219.375 663.59375 L 2249.648438 670.78125 L 2279.882812 677.460938 L 2310.15625 683.75 L 2340.390625 689.6875 M 2340.390625 689.6875 L 2370.664062 695.234375 L 2400.9375 700.507812 L 2431.171875 705.46875 L 2461.445312 710.15625 L 2491.71875 714.609375 L 2521.953125 718.828125 L 2552.226562 722.851562 L 2582.460938 726.679688 M 2582.460938 726.679688 L 2612.734375 730.3125 L 2642.96875 733.789062 L 2673.242188 737.109375 L 2703.476562 740.273438 M 2703.476562 740.273438 L 2720.820312 742.03125 " transform="matrix(0.1,0,0,-0.1,0,287)"/>
<path style="fill:none;stroke-width:25;stroke-linecap:round;stroke-linejoin:round;stroke:rgb(30.200195%,30.200195%,100%);stroke-opacity:1;stroke-miterlimit:10;" d="M 2777.539062 747.5 L 2794.257812 749.023438 M 2794.257812 749.023438 L 2824.53125 751.679688 M 2824.53125 751.679688 L 2854.765625 754.257812 L 2885.039062 756.71875 L 2915.273438 759.101562 L 2945.546875 761.367188 L 2975.78125 763.554688 L 3006.054688 765.703125 L 3036.328125 767.734375 L 3066.5625 769.726562 L 3127.109375 773.476562 L 3157.34375 775.234375 L 3187.617188 776.953125 L 3217.851562 778.632812 L 3248.125 780.234375 L 3278.359375 781.796875 L 3308.632812 783.320312 L 3338.90625 784.804688 L 3369.140625 786.210938 L 3399.414062 787.617188 L 3429.648438 788.945312 L 3459.921875 790.273438 L 3490.15625 791.523438 L 3520.429688 792.773438 L 3550.664062 793.984375 L 3580.9375 795.15625 L 3611.210938 796.289062 L 3641.445312 797.382812 L 3671.71875 798.476562 L 3701.953125 799.53125 L 3732.226562 800.546875 L 3762.460938 801.5625 L 3792.734375 802.5 " transform="matrix(0.1,0,0,-0.1,0,287)"/>
<path style="fill:none;stroke-width:30;stroke-linecap:butt;stroke-linejoin:round;stroke:rgb(30.200195%,30.200195%,30.200195%);stroke-opacity:1;stroke-dasharray:70,40;stroke-miterlimit:10;" d="M -33.398438 880.898438 L 3712.617188 880.898438 " transform="matrix(0.1,0,0,-0.1,0,287)"/>
<path style=" stroke:none;fill-rule:nonzero;fill:rgb(0%,0%,0%);fill-opacity:1;" d="M 46.210938 187.71875 L 45.019531 192.472656 C 44.753906 193.269531 44.292969 193.929688 43.632812 194.457031 C 43.101562 194.851562 42.574219 195.050781 42.046875 195.050781 C 41.519531 195.050781 41.121094 194.851562 40.855469 194.457031 C 40.726562 194.324219 40.660156 194.191406 40.660156 194.058594 C 40.660156 193.53125 40.855469 193.269531 41.253906 193.269531 C 41.253906 193.136719 41.320312 193.070312 41.453125 193.070312 C 41.714844 193.070312 41.847656 193.203125 41.847656 193.464844 C 41.847656 193.464844 41.847656 193.53125 41.847656 193.664062 C 41.847656 193.796875 41.78125 193.929688 41.648438 194.058594 C 41.519531 194.191406 41.320312 194.257812 41.054688 194.257812 C 41.1875 194.65625 41.519531 194.851562 42.046875 194.851562 C 42.574219 194.851562 43.039062 194.589844 43.433594 194.058594 C 43.832031 193.53125 44.09375 192.9375 44.226562 192.277344 C 44.226562 192.144531 44.226562 192.078125 44.226562 192.078125 C 43.832031 192.472656 43.433594 192.671875 43.039062 192.671875 C 42.378906 192.671875 41.914062 192.410156 41.648438 191.878906 C 41.519531 191.617188 41.453125 191.351562 41.453125 191.085938 C 41.453125 190.691406 41.648438 189.832031 42.046875 188.511719 C 42.046875 188.511719 42.113281 188.511719 42.246094 188.511719 C 42.378906 188.113281 42.441406 187.78125 42.441406 187.519531 C 42.441406 187.253906 42.3125 187.121094 42.046875 187.121094 C 41.648438 187.121094 41.253906 187.519531 40.855469 188.3125 C 40.855469 188.445312 40.855469 188.578125 40.855469 188.707031 C 40.726562 188.839844 40.660156 188.90625 40.660156 188.90625 C 40.527344 188.90625 40.460938 188.90625 40.460938 188.90625 C 40.460938 188.640625 40.527344 188.378906 40.660156 188.113281 C 41.054688 187.320312 41.519531 186.925781 42.046875 186.925781 C 42.574219 186.925781 42.90625 187.121094 43.039062 187.519531 C 43.167969 187.652344 43.234375 187.78125 43.234375 187.914062 C 43.234375 188.046875 43.101562 188.378906 42.839844 188.90625 C 42.441406 189.964844 42.246094 190.757812 42.246094 191.285156 C 42.246094 191.945312 42.507812 192.277344 43.039062 192.277344 C 43.566406 192.277344 43.964844 192.011719 44.226562 191.484375 C 44.359375 191.351562 44.425781 191.285156 44.425781 191.285156 L 45.019531 188.90625 C 45.152344 188.640625 45.21875 188.3125 45.21875 187.914062 C 45.351562 187.519531 45.417969 187.320312 45.417969 187.320312 C 45.546875 187.054688 45.746094 186.925781 46.011719 186.925781 C 46.144531 187.054688 46.210938 187.1875 46.210938 187.320312 C 46.210938 187.453125 46.210938 187.585938 46.210938 187.71875 "/>
<path style=" stroke:none;fill-rule:nonzero;fill:rgb(0%,0%,0%);fill-opacity:1;" d="M 58.984375 188.3125 L 51.453125 188.3125 C 51.1875 188.3125 51.054688 188.246094 51.054688 188.113281 C 51.054688 187.980469 51.1875 187.914062 51.453125 187.914062 L 58.984375 187.914062 C 59.25 187.914062 59.382812 187.980469 59.382812 188.113281 C 59.382812 188.246094 59.25 188.3125 58.984375 188.3125 Z M 58.984375 190.691406 L 51.453125 190.691406 C 51.1875 190.691406 51.054688 190.625 51.054688 190.492188 C 51.054688 190.359375 51.1875 190.292969 51.453125 190.292969 L 58.984375 190.292969 C 59.25 190.292969 59.382812 190.359375 59.382812 190.492188 C 59.382812 190.625 59.25 190.691406 58.984375 190.691406 "/>
<path style=" stroke:none;fill-rule:nonzero;fill:rgb(0%,0%,0%);fill-opacity:1;" d="M 67.421875 187.914062 C 68.214844 188.179688 68.808594 188.640625 69.207031 189.304688 C 69.339844 189.566406 69.40625 189.898438 69.40625 190.292969 C 69.40625 190.957031 69.140625 191.550781 68.609375 192.078125 C 68.082031 192.472656 67.488281 192.671875 66.828125 192.671875 C 65.902344 192.671875 65.175781 192.472656 64.648438 192.078125 C 64.382812 191.679688 64.25 191.21875 64.25 190.691406 C 64.25 190.292969 64.382812 190.09375 64.648438 190.09375 C 64.777344 190.09375 64.84375 190.09375 64.84375 190.09375 C 65.242188 190.09375 65.507812 190.226562 65.636719 190.492188 C 65.636719 190.625 65.636719 190.691406 65.636719 190.691406 C 65.636719 191.085938 65.507812 191.351562 65.242188 191.484375 C 65.109375 191.484375 64.976562 191.484375 64.84375 191.484375 C 65.109375 192.011719 65.636719 192.277344 66.429688 192.277344 C 66.5625 192.410156 66.628906 192.472656 66.628906 192.472656 C 67.289062 192.472656 67.6875 192.210938 67.820312 191.679688 C 68.082031 191.285156 68.214844 190.824219 68.214844 190.292969 C 68.214844 189.238281 67.882812 188.578125 67.222656 188.3125 C 66.960938 188.179688 66.761719 188.113281 66.628906 188.113281 L 66.035156 188.113281 C 65.902344 188.113281 65.835938 188.113281 65.835938 188.113281 C 65.835938 187.980469 65.902344 187.914062 66.035156 187.914062 C 66.167969 187.914062 66.296875 187.914062 66.429688 187.914062 C 66.828125 187.914062 67.15625 187.71875 67.421875 187.320312 L 67.621094 187.121094 C 67.882812 186.726562 68.015625 186.261719 68.015625 185.734375 C 68.015625 184.941406 67.6875 184.480469 67.027344 184.347656 C 66.894531 184.347656 66.761719 184.347656 66.628906 184.347656 C 66.101562 184.347656 65.636719 184.546875 65.242188 184.941406 C 65.109375 184.941406 65.042969 185.007812 65.042969 185.140625 C 65.570312 185.140625 65.835938 185.339844 65.835938 185.734375 C 65.835938 186 65.703125 186.195312 65.441406 186.328125 C 65.308594 186.328125 65.242188 186.328125 65.242188 186.328125 C 64.84375 186.328125 64.648438 186.195312 64.648438 185.933594 C 64.515625 185.933594 64.449219 185.867188 64.449219 185.734375 C 64.449219 185.207031 64.777344 184.742188 65.441406 184.347656 C 65.835938 184.082031 66.296875 183.949219 66.828125 183.949219 C 67.621094 183.949219 68.214844 184.214844 68.609375 184.742188 C 69.007812 185.007812 69.207031 185.339844 69.207031 185.734375 C 69.207031 186.527344 68.875 187.121094 68.214844 187.519531 C 67.949219 187.78125 67.6875 187.914062 67.421875 187.914062 "/>
<path style=" stroke:none;fill-rule:nonzero;fill:rgb(0%,0%,0%);fill-opacity:1;" d="M 75.550781 183.355469 L 71.1875 195.25 C 71.1875 195.515625 71.121094 195.648438 70.988281 195.648438 C 70.859375 195.648438 70.792969 195.582031 70.792969 195.449219 C 70.792969 195.316406 70.792969 195.25 70.792969 195.25 L 75.152344 183.15625 C 75.152344 183.023438 75.21875 182.960938 75.351562 182.960938 C 75.484375 182.960938 75.550781 183.023438 75.550781 183.15625 C 75.550781 183.289062 75.550781 183.355469 75.550781 183.355469 "/>
<path style=" stroke:none;fill-rule:nonzero;fill:rgb(0%,0%,0%);fill-opacity:1;" d="M 82.089844 189.898438 C 82.089844 190.824219 81.761719 191.550781 81.101562 192.078125 C 80.570312 192.472656 79.976562 192.671875 79.316406 192.671875 C 78.523438 192.671875 77.863281 192.34375 77.332031 191.679688 C 77.070312 191.285156 76.9375 190.890625 76.9375 190.492188 C 76.9375 190.09375 77.136719 189.832031 77.53125 189.699219 C 77.929688 189.699219 78.125 189.832031 78.125 190.09375 C 78.257812 190.226562 78.324219 190.292969 78.324219 190.292969 C 78.324219 190.558594 78.191406 190.757812 77.929688 190.890625 C 77.796875 191.019531 77.664062 191.085938 77.53125 191.085938 C 77.53125 191.085938 77.464844 191.019531 77.332031 190.890625 C 77.464844 191.417969 77.796875 191.8125 78.324219 192.078125 C 78.589844 192.34375 78.917969 192.472656 79.316406 192.472656 C 79.84375 192.472656 80.308594 192.144531 80.703125 191.484375 C 80.835938 191.21875 80.902344 190.691406 80.902344 189.898438 C 80.902344 189.105469 80.835938 188.578125 80.703125 188.3125 C 80.441406 187.78125 80.042969 187.519531 79.515625 187.519531 C 78.851562 187.519531 78.324219 187.78125 77.929688 188.3125 C 77.929688 188.445312 77.863281 188.511719 77.730469 188.511719 C 77.730469 188.511719 77.664062 188.445312 77.53125 188.3125 L 77.53125 184.347656 C 77.53125 184.214844 77.597656 184.082031 77.730469 183.949219 C 77.730469 183.949219 77.796875 184.015625 77.929688 184.148438 C 78.457031 184.28125 78.984375 184.347656 79.515625 184.347656 C 80.175781 184.347656 80.769531 184.28125 81.296875 184.148438 C 81.296875 184.015625 81.363281 183.949219 81.496094 183.949219 C 81.496094 183.949219 81.496094 184.015625 81.496094 184.148438 C 81.496094 184.28125 81.363281 184.480469 81.101562 184.742188 C 80.570312 185.273438 79.910156 185.535156 79.117188 185.535156 C 78.722656 185.535156 78.324219 185.46875 77.929688 185.339844 L 77.929688 187.71875 C 78.457031 187.320312 79.050781 187.121094 79.710938 187.121094 C 80.375 187.121094 80.96875 187.453125 81.496094 188.113281 C 81.894531 188.640625 82.089844 189.238281 82.089844 189.898438 "/>
<path style="fill:none;stroke-width:30;stroke-linecap:butt;stroke-linejoin:round;stroke:rgb(30.200195%,30.200195%,30.200195%);stroke-opacity:1;stroke-dasharray:70,40;stroke-miterlimit:10;" d="M 1331.835938 -41.328125 L 1331.835938 2903.398438 " transform="matrix(0.1,0,0,-0.1,0,287)"/>
<path style=" stroke:none;fill-rule:nonzero;fill:rgb(0%,0%,0%);fill-opacity:1;" d="M 145.054688 23.0625 L 144.660156 24.648438 C 144.527344 25.308594 144.460938 25.707031 144.460938 25.839844 C 144.460938 26.234375 144.59375 26.5 144.855469 26.632812 C 144.988281 26.632812 145.121094 26.632812 145.253906 26.632812 C 145.648438 26.632812 145.980469 26.433594 146.246094 26.035156 C 146.507812 25.773438 146.707031 25.441406 146.839844 25.046875 C 146.839844 24.914062 146.90625 24.847656 147.039062 24.847656 C 147.171875 24.847656 147.234375 24.914062 147.234375 25.046875 C 147.234375 25.179688 147.105469 25.441406 146.839844 25.839844 C 146.3125 26.632812 145.78125 27.027344 145.253906 27.027344 C 144.59375 27.027344 144.128906 26.765625 143.867188 26.234375 C 143.867188 26.101562 143.867188 26.035156 143.867188 26.035156 C 143.601562 26.433594 143.269531 26.699219 142.875 26.828125 C 142.742188 26.960938 142.609375 27.027344 142.476562 27.027344 C 141.949219 27.027344 141.554688 26.828125 141.289062 26.433594 C 141.289062 26.433594 141.289062 26.300781 141.289062 26.035156 C 141.289062 25.773438 141.421875 25.574219 141.683594 25.441406 C 141.816406 25.441406 141.882812 25.441406 141.882812 25.441406 C 142.148438 25.441406 142.347656 25.507812 142.476562 25.640625 C 142.476562 25.773438 142.476562 25.839844 142.476562 25.839844 C 142.476562 26.101562 142.347656 26.300781 142.082031 26.433594 C 141.949219 26.433594 141.882812 26.433594 141.882812 26.433594 C 142.015625 26.566406 142.214844 26.632812 142.476562 26.632812 C 142.875 26.632812 143.203125 26.367188 143.46875 25.839844 C 143.601562 25.707031 143.667969 25.574219 143.667969 25.441406 C 144.0625 23.722656 144.261719 22.667969 144.261719 22.269531 C 144.261719 21.742188 144.0625 21.476562 143.667969 21.476562 C 143.269531 21.476562 142.875 21.742188 142.476562 22.269531 C 142.347656 22.402344 142.214844 22.601562 142.082031 22.863281 C 142.082031 22.863281 142.082031 22.929688 142.082031 23.0625 L 141.882812 23.261719 C 141.75 23.261719 141.683594 23.261719 141.683594 23.261719 C 141.683594 22.996094 141.816406 22.667969 142.082031 22.269531 C 142.476562 21.609375 143.007812 21.277344 143.667969 21.277344 C 144.328125 21.277344 144.789062 21.609375 145.054688 22.269531 C 145.320312 21.742188 145.648438 21.410156 146.046875 21.277344 C 146.179688 21.277344 146.3125 21.277344 146.441406 21.277344 C 146.972656 21.277344 147.300781 21.410156 147.433594 21.675781 C 147.566406 21.808594 147.632812 21.941406 147.632812 22.070312 C 147.632812 22.46875 147.433594 22.667969 147.039062 22.667969 C 147.039062 22.800781 146.972656 22.863281 146.839844 22.863281 C 146.574219 22.863281 146.441406 22.734375 146.441406 22.46875 C 146.441406 22.46875 146.441406 22.402344 146.441406 22.269531 C 146.441406 22.007812 146.574219 21.808594 146.839844 21.675781 C 146.839844 21.675781 146.90625 21.675781 147.039062 21.675781 C 146.90625 21.542969 146.707031 21.476562 146.441406 21.476562 C 145.78125 21.476562 145.386719 21.941406 145.253906 22.863281 C 145.121094 22.863281 145.054688 22.929688 145.054688 23.0625 "/>
<path style=" stroke:none;fill-rule:nonzero;fill:rgb(0%,0%,0%);fill-opacity:1;" d="M 160.390625 22.667969 L 152.855469 22.667969 C 152.59375 22.667969 152.460938 22.601562 152.460938 22.46875 C 152.460938 22.335938 152.59375 22.269531 152.855469 22.269531 L 160.390625 22.269531 C 160.652344 22.269531 160.785156 22.335938 160.785156 22.46875 C 160.785156 22.601562 160.652344 22.667969 160.390625 22.667969 Z M 160.390625 25.046875 L 152.855469 25.046875 C 152.59375 25.046875 152.460938 24.980469 152.460938 24.847656 C 152.460938 24.714844 152.59375 24.648438 152.855469 24.648438 L 160.390625 24.648438 C 160.652344 24.648438 160.785156 24.714844 160.785156 24.847656 C 160.785156 24.980469 160.652344 25.046875 160.390625 25.046875 "/>
<path style=" stroke:none;fill-rule:nonzero;fill:rgb(0%,0%,0%);fill-opacity:1;" d="M 170.015625 22.070312 C 169.882812 21.675781 169.550781 21.476562 169.023438 21.476562 C 168.496094 21.476562 167.964844 21.742188 167.4375 22.269531 C 167.304688 22.402344 167.238281 22.601562 167.238281 22.863281 C 166.84375 23.394531 166.578125 24.121094 166.445312 25.046875 C 166.445312 25.179688 166.445312 25.242188 166.445312 25.242188 C 166.445312 26.035156 166.710938 26.5 167.238281 26.632812 C 167.371094 26.632812 167.503906 26.632812 167.636719 26.632812 C 168.429688 26.632812 169.089844 26.367188 169.617188 25.839844 C 169.882812 25.707031 170.082031 25.574219 170.214844 25.441406 C 170.214844 25.308594 170.277344 25.242188 170.410156 25.242188 C 170.410156 25.242188 170.476562 25.308594 170.609375 25.441406 C 170.609375 25.574219 170.410156 25.773438 170.015625 26.035156 C 169.355469 26.699219 168.5625 27.027344 167.636719 27.027344 C 166.84375 27.027344 166.246094 26.699219 165.851562 26.035156 C 165.71875 25.640625 165.652344 25.242188 165.652344 24.847656 C 165.652344 23.921875 165.984375 23.128906 166.644531 22.46875 C 167.304688 21.675781 168.03125 21.277344 168.824219 21.277344 C 168.824219 21.277344 168.890625 21.277344 169.023438 21.277344 C 169.683594 21.277344 170.148438 21.476562 170.410156 21.875 C 170.410156 22.007812 170.410156 22.136719 170.410156 22.269531 C 170.410156 22.667969 170.277344 22.929688 170.015625 23.0625 C 169.882812 23.0625 169.816406 23.0625 169.816406 23.0625 C 169.550781 23.0625 169.355469 22.996094 169.222656 22.863281 C 169.222656 22.734375 169.222656 22.667969 169.222656 22.667969 C 169.222656 22.535156 169.355469 22.402344 169.617188 22.269531 C 169.617188 22.136719 169.75 22.070312 170.015625 22.070312 "/>
<path style="fill:none;stroke-width:20;stroke-linecap:square;stroke-linejoin:miter;stroke:rgb(100%,0%,0%);stroke-opacity:1;stroke-miterlimit:10;" d="M 2775.898438 744.804688 C 2775.898438 730.078125 2763.945312 718.125 2749.179688 718.125 C 2734.414062 718.125 2722.460938 730.078125 2722.460938 744.804688 C 2722.460938 759.570312 2734.414062 771.523438 2749.179688 771.523438 C 2763.945312 771.523438 2775.898438 759.570312 2775.898438 744.804688 Z M 2775.898438 744.804688 " transform="matrix(0.1,0,0,-0.1,0,287)"/>
<path style=" stroke:none;fill-rule:nonzero;fill:rgb(100%,0%,0%);fill-opacity:1;" d="M 275.261719 236.179688 C 275.261719 236.3125 275.261719 236.378906 275.261719 236.378906 C 275.132812 236.378906 274.867188 236.179688 274.472656 235.785156 C 273.941406 235.253906 273.546875 234.660156 273.28125 234 C 272.621094 232.808594 272.289062 231.488281 272.289062 230.035156 C 272.289062 228.582031 272.554688 227.257812 273.082031 226.070312 C 273.613281 225.144531 274.207031 224.417969 274.867188 223.890625 C 275 223.757812 275.132812 223.691406 275.261719 223.691406 C 275.261719 223.691406 275.261719 223.757812 275.261719 223.890625 C 275.261719 223.890625 275.195312 223.957031 275.066406 224.089844 C 273.742188 225.410156 273.082031 227.390625 273.082031 230.035156 C 273.082031 232.679688 273.742188 234.660156 275.066406 235.980469 C 275.195312 236.113281 275.261719 236.179688 275.261719 236.179688 "/>
<path style=" stroke:none;fill-rule:nonzero;fill:rgb(100%,0%,0%);fill-opacity:1;" d="M 280.792969 228.449219 C 280.792969 228.183594 280.925781 227.984375 281.1875 227.855469 C 281.1875 227.855469 281.253906 227.855469 281.386719 227.855469 C 281.519531 227.855469 281.585938 227.984375 281.585938 228.25 C 281.585938 228.25 281.585938 228.382812 281.585938 228.648438 L 281.1875 230.429688 C 281.054688 230.960938 280.925781 231.355469 280.792969 231.621094 C 280.660156 232.015625 280.59375 232.28125 280.59375 232.414062 C 280.59375 232.808594 280.726562 233.007812 280.988281 233.007812 C 281.386719 233.007812 281.652344 232.679688 281.78125 232.015625 C 281.914062 231.886719 281.980469 231.6875 281.980469 231.421875 C 282.113281 231.289062 282.179688 231.222656 282.179688 231.222656 C 282.3125 231.222656 282.378906 231.289062 282.378906 231.421875 C 282.378906 231.554688 282.3125 231.820312 282.179688 232.214844 C 282.046875 232.347656 281.980469 232.480469 281.980469 232.613281 C 281.71875 233.140625 281.386719 233.40625 280.988281 233.40625 C 280.59375 233.40625 280.261719 233.207031 280 232.808594 C 280 232.679688 279.933594 232.546875 279.800781 232.414062 C 279.273438 233.074219 278.742188 233.40625 278.214844 233.40625 C 277.554688 233.40625 277.09375 233.074219 276.828125 232.414062 C 276.695312 232.148438 276.628906 231.753906 276.628906 231.222656 C 276.628906 230.429688 276.894531 229.636719 277.421875 228.84375 C 278.082031 228.050781 278.742188 227.65625 279.402344 227.65625 C 279.535156 227.65625 279.601562 227.65625 279.601562 227.65625 C 280.132812 227.65625 280.527344 227.921875 280.792969 228.449219 Z M 280 231.621094 L 280.59375 229.242188 C 280.59375 229.109375 280.59375 229.042969 280.59375 229.042969 C 280.59375 228.78125 280.527344 228.515625 280.394531 228.25 C 280.261719 227.984375 280 227.855469 279.601562 227.855469 C 279.207031 227.855469 278.808594 228.117188 278.414062 228.648438 C 278.28125 228.78125 278.214844 228.910156 278.214844 229.042969 C 277.949219 229.574219 277.6875 230.300781 277.421875 231.222656 C 277.421875 231.488281 277.421875 231.6875 277.421875 231.820312 C 277.421875 232.480469 277.621094 232.875 278.015625 233.007812 C 278.015625 233.007812 278.082031 233.007812 278.214844 233.007812 C 278.742188 233.007812 279.207031 232.742188 279.601562 232.214844 C 279.734375 232.082031 279.867188 231.953125 280 231.820312 C 280 231.6875 280 231.621094 280 231.621094 "/>
<path style=" stroke:none;fill-rule:nonzero;fill:rgb(100%,0%,0%);fill-opacity:1;" d="M 285.316406 233.207031 C 285.316406 234 285.054688 234.726562 284.523438 235.386719 C 284.394531 235.519531 284.261719 235.585938 284.128906 235.585938 C 284.128906 235.453125 284.128906 235.386719 284.128906 235.386719 C 284.65625 234.859375 284.988281 234.199219 285.121094 233.40625 C 285.121094 233.40625 285.121094 233.339844 285.121094 233.207031 C 285.121094 233.074219 285.054688 233.007812 284.921875 233.007812 C 284.789062 233.140625 284.65625 233.207031 284.523438 233.207031 C 284.261719 233.207031 284.0625 233.074219 283.929688 232.808594 C 283.929688 232.679688 283.929688 232.613281 283.929688 232.613281 C 283.929688 232.214844 283.996094 231.953125 284.128906 231.820312 C 284.261719 231.820312 284.394531 231.820312 284.523438 231.820312 C 284.921875 231.820312 285.1875 232.082031 285.316406 232.613281 C 285.316406 232.742188 285.316406 232.941406 285.316406 233.207031 "/>
<path style=" stroke:none;fill-rule:nonzero;fill:rgb(100%,0%,0%);fill-opacity:1;" d="M 291.78125 224.484375 L 291.78125 232.214844 C 291.78125 232.480469 291.847656 232.679688 291.976562 232.808594 C 292.109375 232.808594 292.375 232.808594 292.769531 232.808594 L 292.769531 233.207031 L 291.382812 233.207031 C 291.25 233.207031 290.789062 233.207031 289.996094 233.207031 L 289.996094 232.808594 C 290.523438 232.808594 290.855469 232.742188 290.988281 232.613281 C 290.988281 232.613281 290.988281 232.480469 290.988281 232.214844 L 290.988281 225.671875 C 290.988281 225.277344 290.921875 225.078125 290.789062 225.078125 C 290.65625 224.945312 290.523438 224.882812 290.390625 224.882812 L 289.996094 224.882812 L 289.996094 224.484375 L 291.78125 224.484375 "/>
<path style=" stroke:none;fill-rule:nonzero;fill:rgb(100%,0%,0%);fill-opacity:1;" d="M 295.304688 227.65625 L 295.304688 232.214844 C 295.304688 232.480469 295.371094 232.679688 295.503906 232.808594 C 295.632812 232.808594 295.898438 232.808594 296.296875 232.808594 L 296.296875 233.207031 C 295.371094 233.207031 294.90625 233.207031 294.90625 233.207031 C 294.773438 233.207031 294.3125 233.207031 293.519531 233.207031 L 293.519531 232.808594 C 294.046875 232.808594 294.378906 232.742188 294.511719 232.613281 C 294.511719 232.613281 294.511719 232.480469 294.511719 232.214844 L 294.511719 228.84375 C 294.511719 228.449219 294.445312 228.25 294.3125 228.25 C 294.179688 228.117188 293.914062 228.050781 293.519531 228.050781 L 293.519531 227.65625 Z M 295.503906 225.476562 C 295.503906 225.738281 295.304688 225.9375 294.90625 226.070312 C 294.90625 226.070312 294.839844 226.070312 294.710938 226.070312 C 294.445312 226.070312 294.246094 225.9375 294.113281 225.671875 C 294.113281 225.542969 294.113281 225.476562 294.113281 225.476562 C 294.113281 225.210938 294.246094 225.011719 294.511719 224.882812 C 294.511719 224.75 294.578125 224.683594 294.710938 224.683594 C 294.972656 224.683594 295.171875 224.816406 295.304688 225.078125 C 295.4375 225.210938 295.503906 225.34375 295.503906 225.476562 "/>
<path style=" stroke:none;fill-rule:nonzero;fill:rgb(100%,0%,0%);fill-opacity:1;" d="M 298.035156 228.84375 C 298.035156 228.449219 297.96875 228.25 297.835938 228.25 C 297.703125 228.117188 297.507812 228.050781 297.242188 228.050781 L 297.042969 228.050781 L 297.042969 227.65625 L 298.828125 227.65625 L 298.828125 228.84375 C 299.226562 228.050781 299.886719 227.65625 300.8125 227.65625 C 301.734375 227.65625 302.265625 228.050781 302.394531 228.84375 C 302.660156 228.316406 303.058594 227.921875 303.585938 227.65625 C 303.851562 227.65625 304.046875 227.65625 304.179688 227.65625 C 304.839844 227.65625 305.304688 227.789062 305.566406 228.050781 C 305.832031 228.316406 305.964844 228.714844 305.964844 229.242188 C 305.964844 229.375 305.964844 229.636719 305.964844 230.035156 L 305.964844 232.414062 C 305.964844 232.679688 306.097656 232.808594 306.359375 232.808594 C 306.492188 232.808594 306.691406 232.808594 306.957031 232.808594 L 306.957031 233.207031 C 306.164062 233.207031 305.699219 233.207031 305.566406 233.207031 C 305.4375 233.207031 304.972656 233.207031 304.179688 233.207031 L 304.179688 232.808594 C 304.578125 232.808594 304.839844 232.742188 304.972656 232.613281 C 305.105469 232.613281 305.171875 232.480469 305.171875 232.214844 L 305.171875 229.242188 C 305.171875 228.449219 304.90625 227.984375 304.378906 227.855469 C 304.246094 227.855469 304.179688 227.855469 304.179688 227.855469 C 303.652344 227.855469 303.1875 228.117188 302.792969 228.648438 C 302.527344 228.910156 302.394531 229.308594 302.394531 229.835938 L 302.394531 232.214844 C 302.394531 232.480469 302.464844 232.679688 302.59375 232.808594 C 302.726562 232.808594 302.992188 232.808594 303.386719 232.808594 L 303.386719 233.207031 C 302.59375 233.207031 302.132812 233.207031 302 233.207031 C 302 233.207031 301.535156 233.207031 300.613281 233.207031 L 300.613281 232.808594 C 301.140625 232.808594 301.40625 232.742188 301.40625 232.613281 C 301.535156 232.613281 301.605469 232.480469 301.605469 232.214844 L 301.605469 229.242188 C 301.605469 228.449219 301.339844 227.984375 300.8125 227.855469 C 300.8125 227.855469 300.746094 227.855469 300.613281 227.855469 C 300.085938 227.855469 299.6875 228.117188 299.421875 228.648438 C 299.027344 228.910156 298.828125 229.308594 298.828125 229.835938 L 298.828125 232.214844 C 298.828125 232.480469 298.894531 232.679688 299.027344 232.808594 C 299.160156 232.808594 299.421875 232.808594 299.820312 232.808594 L 299.820312 233.207031 C 299.027344 233.207031 298.5625 233.207031 298.433594 233.207031 C 298.433594 233.207031 297.96875 233.207031 297.042969 233.207031 L 297.042969 232.808594 C 297.574219 232.808594 297.835938 232.742188 297.835938 232.613281 L 298.035156 232.613281 C 298.035156 232.613281 298.035156 232.480469 298.035156 232.214844 L 298.035156 228.84375 "/>
<path style=" stroke:none;fill-rule:nonzero;fill:rgb(100%,0%,0%);fill-opacity:1;" d="M 291.996094 238.183594 L 291.722656 239.292969 C 291.628906 239.753906 291.582031 240.03125 291.582031 240.125 C 291.582031 240.402344 291.675781 240.585938 291.859375 240.679688 C 291.953125 240.679688 292.046875 240.679688 292.136719 240.679688 C 292.414062 240.679688 292.644531 240.542969 292.832031 240.265625 C 293.015625 240.078125 293.15625 239.847656 293.246094 239.570312 C 293.246094 239.476562 293.292969 239.429688 293.386719 239.429688 C 293.476562 239.429688 293.523438 239.476562 293.523438 239.570312 C 293.523438 239.664062 293.433594 239.847656 293.246094 240.125 C 292.878906 240.679688 292.507812 240.957031 292.136719 240.957031 C 291.675781 240.957031 291.351562 240.773438 291.164062 240.402344 C 291.164062 240.308594 291.164062 240.265625 291.164062 240.265625 C 290.980469 240.542969 290.75 240.726562 290.472656 240.820312 C 290.378906 240.910156 290.285156 240.957031 290.195312 240.957031 C 289.824219 240.957031 289.546875 240.820312 289.363281 240.542969 C 289.363281 240.542969 289.363281 240.449219 289.363281 240.265625 C 289.363281 240.078125 289.453125 239.941406 289.640625 239.847656 C 289.730469 239.847656 289.777344 239.847656 289.777344 239.847656 C 289.964844 239.847656 290.101562 239.894531 290.195312 239.984375 C 290.195312 240.078125 290.195312 240.125 290.195312 240.125 C 290.195312 240.308594 290.101562 240.449219 289.917969 240.542969 C 289.824219 240.542969 289.777344 240.542969 289.777344 240.542969 C 289.871094 240.632812 290.007812 240.679688 290.195312 240.679688 C 290.472656 240.679688 290.703125 240.496094 290.886719 240.125 C 290.980469 240.03125 291.027344 239.941406 291.027344 239.847656 C 291.304688 238.644531 291.441406 237.90625 291.441406 237.628906 C 291.441406 237.257812 291.304688 237.074219 291.027344 237.074219 C 290.75 237.074219 290.472656 237.257812 290.195312 237.628906 C 290.101562 237.71875 290.007812 237.859375 289.917969 238.042969 C 289.917969 238.042969 289.917969 238.089844 289.917969 238.183594 L 289.777344 238.320312 C 289.6875 238.320312 289.640625 238.320312 289.640625 238.320312 C 289.640625 238.136719 289.730469 237.90625 289.917969 237.628906 C 290.195312 237.164062 290.5625 236.933594 291.027344 236.933594 C 291.488281 236.933594 291.8125 237.164062 291.996094 237.628906 C 292.183594 237.257812 292.414062 237.027344 292.691406 236.933594 C 292.785156 236.933594 292.878906 236.933594 292.96875 236.933594 C 293.339844 236.933594 293.570312 237.027344 293.664062 237.210938 C 293.757812 237.304688 293.800781 237.394531 293.800781 237.488281 C 293.800781 237.765625 293.664062 237.90625 293.386719 237.90625 C 293.386719 237.996094 293.339844 238.042969 293.246094 238.042969 C 293.0625 238.042969 292.96875 237.949219 292.96875 237.765625 C 292.96875 237.765625 292.96875 237.71875 292.96875 237.628906 C 292.96875 237.441406 293.0625 237.304688 293.246094 237.210938 C 293.246094 237.210938 293.292969 237.210938 293.386719 237.210938 C 293.292969 237.117188 293.15625 237.074219 292.96875 237.074219 C 292.507812 237.074219 292.230469 237.394531 292.136719 238.042969 C 292.046875 238.042969 291.996094 238.089844 291.996094 238.183594 "/>
<path style=" stroke:none;fill-rule:nonzero;fill:rgb(100%,0%,0%);fill-opacity:1;" d="M 301.792969 238.738281 L 294.992188 238.738281 C 294.808594 238.738281 294.714844 238.691406 294.714844 238.597656 C 294.714844 238.507812 294.808594 238.460938 294.992188 238.460938 L 301.792969 238.460938 C 301.421875 238.183594 301.097656 237.765625 300.820312 237.210938 C 300.820312 237.210938 300.820312 237.164062 300.820312 237.074219 C 300.820312 237.074219 300.867188 237.074219 300.960938 237.074219 C 301.050781 237.074219 301.097656 237.117188 301.097656 237.210938 C 301.375 237.765625 301.792969 238.183594 302.347656 238.460938 C 302.347656 238.460938 302.394531 238.460938 302.484375 238.460938 C 302.484375 238.460938 302.484375 238.507812 302.484375 238.597656 C 302.484375 238.597656 302.484375 238.644531 302.484375 238.738281 C 302.484375 238.738281 302.4375 238.738281 302.347656 238.738281 C 301.792969 239.015625 301.375 239.429688 301.097656 239.984375 C 301.097656 240.078125 301.097656 240.125 301.097656 240.125 C 301.097656 240.125 301.050781 240.125 300.960938 240.125 C 300.867188 240.125 300.820312 240.125 300.820312 240.125 C 300.820312 240.03125 300.914062 239.847656 301.097656 239.570312 C 301.28125 239.199219 301.515625 238.921875 301.792969 238.738281 "/>
<path style=" stroke:none;fill-rule:nonzero;fill:rgb(100%,0%,0%);fill-opacity:1;" d="M 306.371094 237.488281 C 306.371094 237.304688 306.464844 237.164062 306.648438 237.074219 C 306.648438 237.074219 306.695312 237.074219 306.789062 237.074219 C 306.878906 237.074219 306.925781 237.164062 306.925781 237.347656 C 306.925781 237.347656 306.925781 237.441406 306.925781 237.628906 L 306.648438 238.875 C 306.554688 239.246094 306.464844 239.523438 306.371094 239.707031 C 306.277344 239.984375 306.230469 240.171875 306.230469 240.265625 C 306.230469 240.542969 306.324219 240.679688 306.511719 240.679688 C 306.789062 240.679688 306.972656 240.449219 307.066406 239.984375 C 307.15625 239.894531 307.203125 239.753906 307.203125 239.570312 C 307.296875 239.476562 307.34375 239.429688 307.34375 239.429688 C 307.433594 239.429688 307.480469 239.476562 307.480469 239.570312 C 307.480469 239.664062 307.433594 239.847656 307.34375 240.125 C 307.25 240.21875 307.203125 240.308594 307.203125 240.402344 C 307.019531 240.773438 306.789062 240.957031 306.511719 240.957031 C 306.230469 240.957031 306 240.820312 305.816406 240.542969 C 305.816406 240.449219 305.769531 240.355469 305.675781 240.265625 C 305.308594 240.726562 304.9375 240.957031 304.566406 240.957031 C 304.105469 240.957031 303.78125 240.726562 303.597656 240.265625 C 303.503906 240.078125 303.457031 239.800781 303.457031 239.429688 C 303.457031 238.875 303.640625 238.320312 304.011719 237.765625 C 304.476562 237.210938 304.9375 236.933594 305.398438 236.933594 C 305.492188 236.933594 305.539062 236.933594 305.539062 236.933594 C 305.910156 236.933594 306.1875 237.117188 306.371094 237.488281 Z M 305.816406 239.707031 L 306.230469 238.042969 C 306.230469 237.949219 306.230469 237.90625 306.230469 237.90625 C 306.230469 237.71875 306.1875 237.535156 306.09375 237.347656 C 306 237.164062 305.816406 237.074219 305.539062 237.074219 C 305.261719 237.074219 304.984375 237.257812 304.707031 237.628906 C 304.613281 237.71875 304.566406 237.8125 304.566406 237.90625 C 304.382812 238.273438 304.195312 238.785156 304.011719 239.429688 C 304.011719 239.617188 304.011719 239.753906 304.011719 239.847656 C 304.011719 240.308594 304.152344 240.585938 304.429688 240.679688 C 304.429688 240.679688 304.476562 240.679688 304.566406 240.679688 C 304.9375 240.679688 305.261719 240.496094 305.539062 240.125 C 305.632812 240.03125 305.722656 239.941406 305.816406 239.847656 C 305.816406 239.753906 305.816406 239.707031 305.816406 239.707031 "/>
<path style=" stroke:none;fill-rule:nonzero;fill:rgb(100%,0%,0%);fill-opacity:1;" d="M 314.605469 225.476562 L 313.8125 228.648438 L 315.203125 228.648438 C 316.128906 228.648438 316.855469 228.449219 317.382812 228.050781 C 317.777344 227.65625 317.976562 227.128906 317.976562 226.464844 C 317.976562 226.335938 317.976562 226.269531 317.976562 226.269531 C 317.976562 225.476562 317.449219 225.011719 316.390625 224.882812 C 316.257812 224.882812 316.0625 224.882812 315.796875 224.882812 C 315.269531 224.882812 315.003906 224.882812 315.003906 224.882812 C 314.871094 225.011719 314.738281 225.144531 314.605469 225.277344 C 314.605469 225.277344 314.605469 225.34375 314.605469 225.476562 Z M 316.390625 228.84375 C 317.183594 229.109375 317.582031 229.574219 317.582031 230.234375 C 317.582031 230.234375 317.582031 230.300781 317.582031 230.429688 C 317.582031 230.5625 317.582031 230.761719 317.582031 231.027344 C 317.449219 231.6875 317.382812 232.148438 317.382812 232.414062 C 317.382812 232.808594 317.515625 233.074219 317.777344 233.207031 C 317.777344 233.207031 317.84375 233.207031 317.976562 233.207031 C 318.371094 233.207031 318.703125 233.007812 318.96875 232.613281 C 318.96875 232.480469 319.035156 232.28125 319.164062 232.015625 C 319.164062 231.886719 319.234375 231.820312 319.363281 231.820312 C 319.363281 231.820312 319.363281 231.886719 319.363281 232.015625 C 319.363281 232.148438 319.300781 232.414062 319.164062 232.808594 C 319.035156 232.941406 318.835938 233.140625 318.570312 233.40625 C 318.308594 233.40625 318.109375 233.40625 317.976562 233.40625 C 317.183594 233.40625 316.65625 233.207031 316.390625 232.808594 C 316.257812 232.679688 316.191406 232.414062 316.191406 232.015625 C 316.191406 231.886719 316.257812 231.554688 316.390625 231.027344 C 316.523438 230.628906 316.589844 230.363281 316.589844 230.234375 C 316.589844 229.703125 316.324219 229.308594 315.796875 229.042969 C 315.664062 229.042969 315.464844 229.042969 315.203125 229.042969 L 313.617188 229.042969 L 312.824219 232.414062 L 312.824219 232.613281 C 312.824219 232.742188 313.019531 232.808594 313.417969 232.808594 L 313.617188 232.808594 C 313.878906 232.808594 314.011719 232.875 314.011719 233.007812 C 314.011719 233.140625 313.945312 233.207031 313.8125 233.207031 L 310.644531 233.207031 C 310.511719 233.207031 310.445312 233.140625 310.445312 233.007812 C 310.445312 232.875 310.511719 232.808594 310.644531 232.808594 C 311.304688 232.808594 311.632812 232.742188 311.632812 232.613281 C 311.765625 232.613281 311.832031 232.480469 311.832031 232.214844 L 313.617188 225.476562 C 313.617188 225.34375 313.617188 225.210938 313.617188 225.078125 C 313.617188 225.078125 313.550781 225.011719 313.417969 224.882812 C 313.417969 224.882812 313.351562 224.882812 313.21875 224.882812 C 313.089844 224.882812 312.953125 224.882812 312.824219 224.882812 C 312.558594 224.882812 312.425781 224.882812 312.425781 224.882812 C 312.425781 224.617188 312.492188 224.484375 312.625 224.484375 L 316.390625 224.484375 C 317.449219 224.484375 318.242188 224.816406 318.769531 225.476562 C 319.035156 225.738281 319.164062 226.070312 319.164062 226.464844 C 319.164062 227.128906 318.703125 227.722656 317.777344 228.25 C 317.382812 228.515625 316.921875 228.714844 316.390625 228.84375 "/>
<path style=" stroke:none;fill-rule:nonzero;fill:rgb(100%,0%,0%);fill-opacity:1;" d="M 323.742188 236.179688 C 323.742188 236.3125 323.742188 236.378906 323.742188 236.378906 C 323.609375 236.378906 323.347656 236.179688 322.949219 235.785156 C 322.421875 235.253906 322.023438 234.660156 321.761719 234 C 321.101562 232.808594 320.769531 231.488281 320.769531 230.035156 C 320.769531 228.582031 321.035156 227.257812 321.5625 226.070312 C 322.09375 225.144531 322.6875 224.417969 323.347656 223.890625 C 323.480469 223.757812 323.609375 223.691406 323.742188 223.691406 C 323.742188 223.691406 323.742188 223.757812 323.742188 223.890625 C 323.742188 223.890625 323.675781 223.957031 323.546875 224.089844 C 322.222656 225.410156 321.5625 227.390625 321.5625 230.035156 C 321.5625 232.679688 322.222656 234.660156 323.546875 235.980469 C 323.675781 236.113281 323.742188 236.179688 323.742188 236.179688 "/>
<path style=" stroke:none;fill-rule:nonzero;fill:rgb(100%,0%,0%);fill-opacity:1;" d="M 328.675781 229.441406 L 328.28125 231.027344 C 328.148438 231.6875 328.082031 232.082031 328.082031 232.214844 C 328.082031 232.613281 328.214844 232.875 328.480469 233.007812 C 328.609375 233.007812 328.742188 233.007812 328.875 233.007812 C 329.273438 233.007812 329.601562 232.808594 329.867188 232.414062 C 330.132812 232.148438 330.328125 231.820312 330.460938 231.421875 C 330.460938 231.289062 330.527344 231.222656 330.660156 231.222656 C 330.792969 231.222656 330.859375 231.289062 330.859375 231.421875 C 330.859375 231.554688 330.726562 231.820312 330.460938 232.214844 C 329.933594 233.007812 329.402344 233.40625 328.875 233.40625 C 328.214844 233.40625 327.753906 233.140625 327.488281 232.613281 C 327.488281 232.480469 327.488281 232.414062 327.488281 232.414062 C 327.222656 232.808594 326.894531 233.074219 326.496094 233.207031 C 326.363281 233.339844 326.230469 233.40625 326.101562 233.40625 C 325.570312 233.40625 325.175781 233.207031 324.910156 232.808594 C 324.910156 232.808594 324.910156 232.679688 324.910156 232.414062 C 324.910156 232.148438 325.042969 231.953125 325.308594 231.820312 C 325.4375 231.820312 325.503906 231.820312 325.503906 231.820312 C 325.769531 231.820312 325.96875 231.886719 326.101562 232.015625 C 326.101562 232.148438 326.101562 232.214844 326.101562 232.214844 C 326.101562 232.480469 325.96875 232.679688 325.703125 232.808594 C 325.570312 232.808594 325.503906 232.808594 325.503906 232.808594 C 325.636719 232.941406 325.835938 233.007812 326.101562 233.007812 C 326.496094 233.007812 326.828125 232.742188 327.089844 232.214844 C 327.222656 232.082031 327.289062 231.953125 327.289062 231.820312 C 327.6875 230.101562 327.882812 229.042969 327.882812 228.648438 C 327.882812 228.117188 327.6875 227.855469 327.289062 227.855469 C 326.894531 227.855469 326.496094 228.117188 326.101562 228.648438 C 325.96875 228.78125 325.835938 228.976562 325.703125 229.242188 C 325.703125 229.242188 325.703125 229.308594 325.703125 229.441406 L 325.503906 229.636719 C 325.371094 229.636719 325.308594 229.636719 325.308594 229.636719 C 325.308594 229.375 325.4375 229.042969 325.703125 228.648438 C 326.101562 227.984375 326.628906 227.65625 327.289062 227.65625 C 327.949219 227.65625 328.414062 227.984375 328.675781 228.648438 C 328.941406 228.117188 329.273438 227.789062 329.667969 227.65625 C 329.800781 227.65625 329.933594 227.65625 330.066406 227.65625 C 330.59375 227.65625 330.925781 227.789062 331.054688 228.050781 C 331.1875 228.183594 331.253906 228.316406 331.253906 228.449219 C 331.253906 228.84375 331.054688 229.042969 330.660156 229.042969 C 330.660156 229.175781 330.59375 229.242188 330.460938 229.242188 C 330.195312 229.242188 330.066406 229.109375 330.066406 228.84375 C 330.066406 228.84375 330.066406 228.78125 330.066406 228.648438 C 330.066406 228.382812 330.195312 228.183594 330.460938 228.050781 C 330.460938 228.050781 330.527344 228.050781 330.660156 228.050781 C 330.527344 227.921875 330.328125 227.855469 330.066406 227.855469 C 329.402344 227.855469 329.007812 228.316406 328.875 229.242188 C 328.742188 229.242188 328.675781 229.308594 328.675781 229.441406 "/>
<path style=" stroke:none;fill-rule:nonzero;fill:rgb(100%,0%,0%);fill-opacity:1;" d="M 335.335938 230.035156 C 335.335938 231.488281 335.070312 232.808594 334.539062 234 C 334.144531 234.925781 333.617188 235.652344 332.953125 236.179688 C 332.824219 236.3125 332.691406 236.378906 332.558594 236.378906 C 332.558594 236.378906 332.558594 236.3125 332.558594 236.179688 C 332.558594 236.179688 332.558594 236.113281 332.558594 235.980469 C 334.011719 234.660156 334.738281 232.679688 334.738281 230.035156 C 334.738281 227.390625 334.078125 225.410156 332.757812 224.089844 C 332.625 223.957031 332.558594 223.890625 332.558594 223.890625 C 332.558594 223.757812 332.558594 223.691406 332.558594 223.691406 C 332.691406 223.691406 332.953125 223.890625 333.351562 224.285156 C 333.878906 224.816406 334.277344 225.410156 334.539062 226.070312 C 335.070312 227.257812 335.335938 228.582031 335.335938 230.035156 "/>
<path style=" stroke:none;fill-rule:nonzero;fill:rgb(100%,0%,0%);fill-opacity:1;" d="M 340.269531 230.035156 C 340.269531 231.488281 340.003906 232.808594 339.476562 234 C 339.078125 234.925781 338.550781 235.652344 337.890625 236.179688 C 337.757812 236.3125 337.625 236.378906 337.492188 236.378906 C 337.492188 236.378906 337.492188 236.3125 337.492188 236.179688 C 337.492188 236.179688 337.492188 236.113281 337.492188 235.980469 C 338.945312 234.660156 339.671875 232.679688 339.671875 230.035156 C 339.671875 227.390625 339.011719 225.410156 337.691406 224.089844 C 337.558594 223.957031 337.492188 223.890625 337.492188 223.890625 C 337.492188 223.757812 337.492188 223.691406 337.492188 223.691406 C 337.625 223.691406 337.890625 223.890625 338.285156 224.285156 C 338.8125 224.816406 339.210938 225.410156 339.476562 226.070312 C 340.003906 227.257812 340.269531 228.582031 340.269531 230.035156 "/>
<path style=" stroke:none;fill-rule:nonzero;fill:rgb(0%,39.208984%,0%);fill-opacity:1;" d="M 249.242188 215.917969 C 249.242188 217.394531 248.046875 218.589844 246.570312 218.589844 C 245.097656 218.589844 243.898438 217.394531 243.898438 215.917969 C 243.898438 214.445312 245.097656 213.25 246.570312 213.25 C 248.046875 213.25 249.242188 214.445312 249.242188 215.917969 "/>
<path style="fill:none;stroke-width:10;stroke-linecap:round;stroke-linejoin:round;stroke:rgb(0%,0%,0%);stroke-opacity:1;stroke-miterlimit:10;" d="M 2492.421875 710.820312 C 2492.421875 696.054688 2480.46875 684.101562 2465.703125 684.101562 C 2450.976562 684.101562 2438.984375 696.054688 2438.984375 710.820312 C 2438.984375 725.546875 2450.976562 737.5 2465.703125 737.5 C 2480.46875 737.5 2492.421875 725.546875 2492.421875 710.820312 Z M 2492.421875 710.820312 " transform="matrix(0.1,0,0,-0.1,0,287)"/>
<path style=" stroke:none;fill-rule:nonzero;fill:rgb(0%,39.208984%,0%);fill-opacity:1;" d="M 216.503906 213.476562 C 216.503906 213.609375 216.503906 213.675781 216.503906 213.675781 C 216.371094 213.675781 216.105469 213.476562 215.710938 213.082031 C 215.179688 212.550781 214.785156 211.957031 214.519531 211.296875 C 213.859375 210.105469 213.527344 208.785156 213.527344 207.332031 C 213.527344 205.878906 213.792969 204.554688 214.320312 203.367188 C 214.851562 202.441406 215.445312 201.714844 216.105469 201.1875 C 216.238281 201.054688 216.371094 200.988281 216.503906 200.988281 C 216.503906 200.988281 216.503906 201.054688 216.503906 201.1875 C 216.503906 201.1875 216.4375 201.253906 216.304688 201.386719 C 214.984375 202.707031 214.320312 204.6875 214.320312 207.332031 C 214.320312 209.976562 214.984375 211.957031 216.304688 213.277344 C 216.4375 213.410156 216.503906 213.476562 216.503906 213.476562 "/>
<path style=" stroke:none;fill-rule:nonzero;fill:rgb(0%,39.208984%,0%);fill-opacity:1;" d="M 220.246094 201.78125 L 219.453125 205.746094 C 219.851562 205.21875 220.3125 204.953125 220.84375 204.953125 C 221.503906 204.953125 221.964844 205.21875 222.230469 205.746094 C 222.492188 206.144531 222.625 206.539062 222.625 206.933594 C 222.625 207.859375 222.296875 208.71875 221.636719 209.511719 C 220.972656 210.171875 220.3125 210.570312 219.652344 210.703125 C 219.652344 210.703125 219.585938 210.703125 219.453125 210.703125 C 218.925781 210.703125 218.464844 210.371094 218.066406 209.710938 C 217.933594 209.445312 217.867188 209.117188 217.867188 208.71875 C 217.867188 208.324219 217.933594 207.859375 218.066406 207.332031 L 219.058594 203.167969 C 219.191406 202.773438 219.257812 202.507812 219.257812 202.375 C 219.257812 202.375 219.191406 202.308594 219.058594 202.175781 C 219.058594 202.175781 218.925781 202.175781 218.660156 202.175781 C 218.527344 202.175781 218.398438 202.175781 218.265625 202.175781 C 218.265625 201.914062 218.398438 201.78125 218.660156 201.78125 L 220.050781 201.78125 C 220.179688 201.78125 220.246094 201.78125 220.246094 201.78125 Z M 219.058594 206.539062 L 218.859375 207.726562 C 218.726562 208.257812 218.660156 208.71875 218.660156 209.117188 C 218.660156 209.777344 218.859375 210.171875 219.257812 210.304688 C 219.386719 210.304688 219.453125 210.304688 219.453125 210.304688 C 219.984375 210.304688 220.378906 210.039062 220.644531 209.511719 C 220.777344 209.378906 220.90625 209.246094 221.039062 209.117188 C 221.171875 208.585938 221.371094 207.925781 221.636719 207.132812 C 221.636719 206.867188 221.636719 206.605469 221.636719 206.339844 C 221.636719 205.679688 221.4375 205.28125 221.039062 205.152344 C 220.90625 205.152344 220.84375 205.152344 220.84375 205.152344 C 220.3125 205.152344 219.785156 205.480469 219.257812 206.144531 C 219.257812 206.273438 219.191406 206.40625 219.058594 206.539062 "/>
<path style=" stroke:none;fill-rule:nonzero;fill:rgb(0%,39.208984%,0%);fill-opacity:1;" d="M 225.296875 210.503906 C 225.296875 211.296875 225.03125 212.023438 224.503906 212.683594 C 224.371094 212.816406 224.238281 212.882812 224.105469 212.882812 C 224.105469 212.75 224.105469 212.683594 224.105469 212.683594 C 224.636719 212.15625 224.964844 211.496094 225.097656 210.703125 C 225.097656 210.703125 225.097656 210.636719 225.097656 210.503906 C 225.097656 210.371094 225.03125 210.304688 224.898438 210.304688 C 224.765625 210.4375 224.636719 210.503906 224.503906 210.503906 C 224.238281 210.503906 224.039062 210.371094 223.90625 210.105469 C 223.90625 209.976562 223.90625 209.910156 223.90625 209.910156 C 223.90625 209.511719 223.972656 209.246094 224.105469 209.117188 C 224.238281 209.117188 224.371094 209.117188 224.503906 209.117188 C 224.898438 209.117188 225.164062 209.378906 225.296875 209.910156 C 225.296875 210.039062 225.296875 210.238281 225.296875 210.503906 "/>
<path style=" stroke:none;fill-rule:nonzero;fill:rgb(0%,39.208984%,0%);fill-opacity:1;" d="M 234.105469 206.539062 C 234.105469 207.726562 233.972656 208.652344 233.710938 209.3125 C 233.179688 210.238281 232.453125 210.703125 231.527344 210.703125 C 230.734375 210.703125 230.140625 210.4375 229.746094 209.910156 C 229.613281 209.777344 229.480469 209.644531 229.347656 209.511719 C 228.953125 208.851562 228.753906 207.859375 228.753906 206.539062 C 228.753906 205.21875 228.953125 204.226562 229.347656 203.566406 C 229.746094 202.640625 230.40625 202.113281 231.332031 201.980469 L 231.527344 201.980469 C 232.320312 201.980469 232.914062 202.308594 233.3125 202.96875 C 233.445312 203.101562 233.578125 203.300781 233.710938 203.566406 C 233.972656 204.226562 234.105469 205.21875 234.105469 206.539062 Z M 231.527344 210.503906 C 232.058594 210.503906 232.453125 210.238281 232.71875 209.710938 C 232.851562 209.445312 232.914062 209.183594 232.914062 208.917969 C 233.050781 208.390625 233.113281 207.53125 233.113281 206.339844 C 233.113281 205.152344 233.050781 204.292969 232.914062 203.765625 C 232.785156 202.96875 232.453125 202.507812 231.925781 202.375 C 231.792969 202.375 231.660156 202.375 231.527344 202.375 C 230.867188 202.375 230.40625 202.640625 230.140625 203.167969 C 230.140625 203.433594 230.074219 203.699219 229.941406 203.960938 C 229.941406 204.359375 229.941406 205.152344 229.941406 206.339844 C 229.941406 207.53125 230.007812 208.390625 230.140625 208.917969 C 230.273438 209.710938 230.605469 210.238281 231.132812 210.503906 C 231.265625 210.503906 231.398438 210.503906 231.527344 210.503906 "/>
<path style=" stroke:none;fill-rule:nonzero;fill:rgb(0%,39.208984%,0%);fill-opacity:1;" d="M 238.269531 207.332031 C 238.269531 208.785156 238.003906 210.105469 237.476562 211.296875 C 237.078125 212.222656 236.550781 212.949219 235.890625 213.476562 C 235.757812 213.609375 235.625 213.675781 235.492188 213.675781 C 235.492188 213.675781 235.492188 213.609375 235.492188 213.476562 C 235.492188 213.476562 235.492188 213.410156 235.492188 213.277344 C 236.945312 211.957031 237.675781 209.976562 237.675781 207.332031 C 237.675781 204.6875 237.011719 202.707031 235.691406 201.386719 C 235.558594 201.253906 235.492188 201.1875 235.492188 201.1875 C 235.492188 201.054688 235.492188 200.988281 235.492188 200.988281 C 235.625 200.988281 235.890625 201.1875 236.285156 201.582031 C 236.816406 202.113281 237.210938 202.707031 237.476562 203.367188 C 238.003906 204.554688 238.269531 205.878906 238.269531 207.332031 "/>
</g>
</svg>
