<?xml version="1.0" encoding="UTF-8"?>
<svg xmlns="http://www.w3.org/2000/svg" xmlns:xlink="http://www.w3.org/1999/xlink" width="156pt" height="157pt" viewBox="0 0 156 157" version="1.1">
<g id="surface1">
<rect x="0" y="0" width="156" height="157" style="fill:rgb(100%,100%,100%);fill-opacity:1;stroke:none;"/>
<path style="fill:none;stroke-width:10;stroke-linecap:round;stroke-linejoin:round;stroke:rgb(75.389099%,75.389099%,75.389099%);stroke-opacity:1;stroke-miterlimit:10;" d="M 74.101562 1873.671875 L 74.101562 -135.351562 " transform="matrix(0.1,0,0,-0.1,0,157)"/>
<path style="fill:none;stroke-width:10;stroke-linecap:round;stroke-linejoin:round;stroke:rgb(75.389099%,75.389099%,75.389099%);stroke-opacity:1;stroke-miterlimit:10;" d="M 357.578125 1873.671875 L 357.578125 -135.351562 " transform="matrix(0.1,0,0,-0.1,0,157)"/>
<path style="fill:none;stroke-width:10;stroke-linecap:round;stroke-linejoin:round;stroke:rgb(75.389099%,75.389099%,75.389099%);stroke-opacity:1;stroke-miterlimit:10;" d="M 924.492188 1873.671875 L 924.492188 -135.351562 " transform="matrix(0.1,0,0,-0.1,0,157)"/>
<path style="fill:none;stroke-width:10;stroke-linecap:round;stroke-linejoin:round;stroke:rgb(75.389099%,75.389099%,75.389099%);stroke-opacity:1;stroke-miterlimit:10;" d="M 1207.96875 1873.671875 L 1207.96875 -135.351562 " transform="matrix(0.1,0,0,-0.1,0,157)"/>
<path style="fill:none;stroke-width:10;stroke-linecap:round;stroke-linejoin:round;stroke:rgb(75.389099%,75.389099%,75.389099%);stroke-opacity:1;stroke-miterlimit:10;" d="M 1491.445312 1873.671875 L 1491.445312 -135.351562 " transform="matrix(0.1,0,0,-0.1,0,157)"/>
<path style="fill:none;stroke-width:10;stroke-linecap:round;stroke-linejoin:round;stroke:rgb(94.139099%,94.139099%,94.139099%);stroke-opacity:1;stroke-miterlimit:10;" d="M 17.421875 1873.671875 L 17.421875 -135.351562 " transform="matrix(0.1,0,0,-0.1,0,157)"/>
<path style="fill:none;stroke-width:10;stroke-linecap:round;stroke-linejoin:round;stroke:rgb(94.139099%,94.139099%,94.139099%);stroke-opacity:1;stroke-miterlimit:10;" d="M 130.78125 1873.671875 L 130.78125 -135.351562 " transform="matrix(0.1,0,0,-0.1,0,157)"/>
<path style="fill:none;stroke-width:10;stroke-linecap:round;stroke-linejoin:round;stroke:rgb(94.139099%,94.139099%,94.139099%);stroke-opacity:1;stroke-miterlimit:10;" d="M 187.5 1873.671875 L 187.5 -135.351562 " transform="matrix(0.1,0,0,-0.1,0,157)"/>
<path style="fill:none;stroke-width:10;stroke-linecap:round;stroke-linejoin:round;stroke:rgb(94.139099%,94.139099%,94.139099%);stroke-opacity:1;stroke-miterlimit:10;" d="M 244.179688 1873.671875 L 244.179688 -135.351562 " transform="matrix(0.1,0,0,-0.1,0,157)"/>
<path style="fill:none;stroke-width:10;stroke-linecap:round;stroke-linejoin:round;stroke:rgb(94.139099%,94.139099%,94.139099%);stroke-opacity:1;stroke-miterlimit:10;" d="M 300.859375 1873.671875 L 300.859375 -135.351562 " transform="matrix(0.1,0,0,-0.1,0,157)"/>
<path style="fill:none;stroke-width:10;stroke-linecap:round;stroke-linejoin:round;stroke:rgb(94.139099%,94.139099%,94.139099%);stroke-opacity:1;stroke-miterlimit:10;" d="M 414.257812 1873.671875 L 414.257812 -135.351562 " transform="matrix(0.1,0,0,-0.1,0,157)"/>
<path style="fill:none;stroke-width:10;stroke-linecap:round;stroke-linejoin:round;stroke:rgb(94.139099%,94.139099%,94.139099%);stroke-opacity:1;stroke-miterlimit:10;" d="M 470.9375 1873.671875 L 470.9375 -135.351562 " transform="matrix(0.1,0,0,-0.1,0,157)"/>
<path style="fill:none;stroke-width:10;stroke-linecap:round;stroke-linejoin:round;stroke:rgb(94.139099%,94.139099%,94.139099%);stroke-opacity:1;stroke-miterlimit:10;" d="M 527.65625 1873.671875 L 527.65625 -135.351562 " transform="matrix(0.1,0,0,-0.1,0,157)"/>
<path style="fill:none;stroke-width:10;stroke-linecap:round;stroke-linejoin:round;stroke:rgb(94.139099%,94.139099%,94.139099%);stroke-opacity:1;stroke-miterlimit:10;" d="M 584.335938 1873.671875 L 584.335938 -135.351562 " transform="matrix(0.1,0,0,-0.1,0,157)"/>
<path style="fill:none;stroke-width:10;stroke-linecap:round;stroke-linejoin:round;stroke:rgb(94.139099%,94.139099%,94.139099%);stroke-opacity:1;stroke-miterlimit:10;" d="M 697.734375 1873.671875 L 697.734375 -135.351562 " transform="matrix(0.1,0,0,-0.1,0,157)"/>
<path style="fill:none;stroke-width:10;stroke-linecap:round;stroke-linejoin:round;stroke:rgb(94.139099%,94.139099%,94.139099%);stroke-opacity:1;stroke-miterlimit:10;" d="M 754.414062 1873.671875 L 754.414062 -135.351562 " transform="matrix(0.1,0,0,-0.1,0,157)"/>
<path style="fill:none;stroke-width:10;stroke-linecap:round;stroke-linejoin:round;stroke:rgb(94.139099%,94.139099%,94.139099%);stroke-opacity:1;stroke-miterlimit:10;" d="M 811.09375 1873.671875 L 811.09375 -135.351562 " transform="matrix(0.1,0,0,-0.1,0,157)"/>
<path style="fill:none;stroke-width:10;stroke-linecap:round;stroke-linejoin:round;stroke:rgb(94.139099%,94.139099%,94.139099%);stroke-opacity:1;stroke-miterlimit:10;" d="M 867.8125 1873.671875 L 867.8125 -135.351562 " transform="matrix(0.1,0,0,-0.1,0,157)"/>
<path style="fill:none;stroke-width:10;stroke-linecap:round;stroke-linejoin:round;stroke:rgb(94.139099%,94.139099%,94.139099%);stroke-opacity:1;stroke-miterlimit:10;" d="M 981.171875 1873.671875 L 981.171875 -135.351562 " transform="matrix(0.1,0,0,-0.1,0,157)"/>
<path style="fill:none;stroke-width:10;stroke-linecap:round;stroke-linejoin:round;stroke:rgb(94.139099%,94.139099%,94.139099%);stroke-opacity:1;stroke-miterlimit:10;" d="M 1037.890625 1873.671875 L 1037.890625 -135.351562 " transform="matrix(0.1,0,0,-0.1,0,157)"/>
<path style="fill:none;stroke-width:10;stroke-linecap:round;stroke-linejoin:round;stroke:rgb(94.139099%,94.139099%,94.139099%);stroke-opacity:1;stroke-miterlimit:10;" d="M 1094.570312 1873.671875 L 1094.570312 -135.351562 " transform="matrix(0.1,0,0,-0.1,0,157)"/>
<path style="fill:none;stroke-width:10;stroke-linecap:round;stroke-linejoin:round;stroke:rgb(94.139099%,94.139099%,94.139099%);stroke-opacity:1;stroke-miterlimit:10;" d="M 1151.289062 1873.671875 L 1151.289062 -135.351562 " transform="matrix(0.1,0,0,-0.1,0,157)"/>
<path style="fill:none;stroke-width:10;stroke-linecap:round;stroke-linejoin:round;stroke:rgb(94.139099%,94.139099%,94.139099%);stroke-opacity:1;stroke-miterlimit:10;" d="M 1264.648438 1873.671875 L 1264.648438 -135.351562 " transform="matrix(0.1,0,0,-0.1,0,157)"/>
<path style="fill:none;stroke-width:10;stroke-linecap:round;stroke-linejoin:round;stroke:rgb(94.139099%,94.139099%,94.139099%);stroke-opacity:1;stroke-miterlimit:10;" d="M 1321.367188 1873.671875 L 1321.367188 -135.351562 " transform="matrix(0.1,0,0,-0.1,0,157)"/>
<path style="fill:none;stroke-width:10;stroke-linecap:round;stroke-linejoin:round;stroke:rgb(94.139099%,94.139099%,94.139099%);stroke-opacity:1;stroke-miterlimit:10;" d="M 1378.046875 1873.671875 L 1378.046875 -135.351562 " transform="matrix(0.1,0,0,-0.1,0,157)"/>
<path style="fill:none;stroke-width:10;stroke-linecap:round;stroke-linejoin:round;stroke:rgb(94.139099%,94.139099%,94.139099%);stroke-opacity:1;stroke-miterlimit:10;" d="M 1434.726562 1873.671875 L 1434.726562 -135.351562 " transform="matrix(0.1,0,0,-0.1,0,157)"/>
<path style="fill:none;stroke-width:10;stroke-linecap:round;stroke-linejoin:round;stroke:rgb(94.139099%,94.139099%,94.139099%);stroke-opacity:1;stroke-miterlimit:10;" d="M 1548.125 1873.671875 L 1548.125 -135.351562 " transform="matrix(0.1,0,0,-0.1,0,157)"/>
<path style="fill:none;stroke-width:10;stroke-linecap:round;stroke-linejoin:round;stroke:rgb(75.389099%,75.389099%,75.389099%);stroke-opacity:1;stroke-miterlimit:10;" d="M -280.3125 1492.617188 L 2312.734375 1492.617188 " transform="matrix(0.1,0,0,-0.1,0,157)"/>
<path style="fill:none;stroke-width:10;stroke-linecap:round;stroke-linejoin:round;stroke:rgb(75.389099%,75.389099%,75.389099%);stroke-opacity:1;stroke-miterlimit:10;" d="M -280.3125 1209.140625 L 2312.734375 1209.140625 " transform="matrix(0.1,0,0,-0.1,0,157)"/>
<path style="fill:none;stroke-width:10;stroke-linecap:round;stroke-linejoin:round;stroke:rgb(75.389099%,75.389099%,75.389099%);stroke-opacity:1;stroke-miterlimit:10;" d="M -280.3125 642.226562 L 2312.734375 642.226562 " transform="matrix(0.1,0,0,-0.1,0,157)"/>
<path style="fill:none;stroke-width:10;stroke-linecap:round;stroke-linejoin:round;stroke:rgb(75.389099%,75.389099%,75.389099%);stroke-opacity:1;stroke-miterlimit:10;" d="M -280.3125 358.75 L 2312.734375 358.75 " transform="matrix(0.1,0,0,-0.1,0,157)"/>
<path style="fill:none;stroke-width:10;stroke-linecap:round;stroke-linejoin:round;stroke:rgb(75.389099%,75.389099%,75.389099%);stroke-opacity:1;stroke-miterlimit:10;" d="M -280.3125 75.3125 L 2312.734375 75.3125 " transform="matrix(0.1,0,0,-0.1,0,157)"/>
<path style="fill:none;stroke-width:10;stroke-linecap:round;stroke-linejoin:round;stroke:rgb(94.139099%,94.139099%,94.139099%);stroke-opacity:1;stroke-miterlimit:10;" d="M -280.3125 1549.296875 L 2312.734375 1549.296875 " transform="matrix(0.1,0,0,-0.1,0,157)"/>
<path style="fill:none;stroke-width:10;stroke-linecap:round;stroke-linejoin:round;stroke:rgb(94.139099%,94.139099%,94.139099%);stroke-opacity:1;stroke-miterlimit:10;" d="M -280.3125 1435.9375 L 2312.734375 1435.9375 " transform="matrix(0.1,0,0,-0.1,0,157)"/>
<path style="fill:none;stroke-width:10;stroke-linecap:round;stroke-linejoin:round;stroke:rgb(94.139099%,94.139099%,94.139099%);stroke-opacity:1;stroke-miterlimit:10;" d="M -280.3125 1379.21875 L 2312.734375 1379.21875 " transform="matrix(0.1,0,0,-0.1,0,157)"/>
<path style="fill:none;stroke-width:10;stroke-linecap:round;stroke-linejoin:round;stroke:rgb(94.139099%,94.139099%,94.139099%);stroke-opacity:1;stroke-miterlimit:10;" d="M -280.3125 1322.539062 L 2312.734375 1322.539062 " transform="matrix(0.1,0,0,-0.1,0,157)"/>
<path style="fill:none;stroke-width:10;stroke-linecap:round;stroke-linejoin:round;stroke:rgb(94.139099%,94.139099%,94.139099%);stroke-opacity:1;stroke-miterlimit:10;" d="M -280.3125 1265.859375 L 2312.734375 1265.859375 " transform="matrix(0.1,0,0,-0.1,0,157)"/>
<path style="fill:none;stroke-width:10;stroke-linecap:round;stroke-linejoin:round;stroke:rgb(94.139099%,94.139099%,94.139099%);stroke-opacity:1;stroke-miterlimit:10;" d="M -280.3125 1152.460938 L 2312.734375 1152.460938 " transform="matrix(0.1,0,0,-0.1,0,157)"/>
<path style="fill:none;stroke-width:10;stroke-linecap:round;stroke-linejoin:round;stroke:rgb(94.139099%,94.139099%,94.139099%);stroke-opacity:1;stroke-miterlimit:10;" d="M -280.3125 1095.78125 L 2312.734375 1095.78125 " transform="matrix(0.1,0,0,-0.1,0,157)"/>
<path style="fill:none;stroke-width:10;stroke-linecap:round;stroke-linejoin:round;stroke:rgb(94.139099%,94.139099%,94.139099%);stroke-opacity:1;stroke-miterlimit:10;" d="M -280.3125 1039.0625 L 2312.734375 1039.0625 " transform="matrix(0.1,0,0,-0.1,0,157)"/>
<path style="fill:none;stroke-width:10;stroke-linecap:round;stroke-linejoin:round;stroke:rgb(94.139099%,94.139099%,94.139099%);stroke-opacity:1;stroke-miterlimit:10;" d="M -280.3125 982.382812 L 2312.734375 982.382812 " transform="matrix(0.1,0,0,-0.1,0,157)"/>
<path style="fill:none;stroke-width:10;stroke-linecap:round;stroke-linejoin:round;stroke:rgb(94.139099%,94.139099%,94.139099%);stroke-opacity:1;stroke-miterlimit:10;" d="M -280.3125 868.984375 L 2312.734375 868.984375 " transform="matrix(0.1,0,0,-0.1,0,157)"/>
<path style="fill:none;stroke-width:10;stroke-linecap:round;stroke-linejoin:round;stroke:rgb(94.139099%,94.139099%,94.139099%);stroke-opacity:1;stroke-miterlimit:10;" d="M -280.3125 812.304688 L 2312.734375 812.304688 " transform="matrix(0.1,0,0,-0.1,0,157)"/>
<path style="fill:none;stroke-width:10;stroke-linecap:round;stroke-linejoin:round;stroke:rgb(94.139099%,94.139099%,94.139099%);stroke-opacity:1;stroke-miterlimit:10;" d="M -280.3125 755.625 L 2312.734375 755.625 " transform="matrix(0.1,0,0,-0.1,0,157)"/>
<path style="fill:none;stroke-width:10;stroke-linecap:round;stroke-linejoin:round;stroke:rgb(94.139099%,94.139099%,94.139099%);stroke-opacity:1;stroke-miterlimit:10;" d="M -280.3125 698.90625 L 2312.734375 698.90625 " transform="matrix(0.1,0,0,-0.1,0,157)"/>
<path style="fill:none;stroke-width:10;stroke-linecap:round;stroke-linejoin:round;stroke:rgb(94.139099%,94.139099%,94.139099%);stroke-opacity:1;stroke-miterlimit:10;" d="M -280.3125 585.546875 L 2312.734375 585.546875 " transform="matrix(0.1,0,0,-0.1,0,157)"/>
<path style="fill:none;stroke-width:10;stroke-linecap:round;stroke-linejoin:round;stroke:rgb(94.139099%,94.139099%,94.139099%);stroke-opacity:1;stroke-miterlimit:10;" d="M -280.3125 528.828125 L 2312.734375 528.828125 " transform="matrix(0.1,0,0,-0.1,0,157)"/>
<path style="fill:none;stroke-width:10;stroke-linecap:round;stroke-linejoin:round;stroke:rgb(94.139099%,94.139099%,94.139099%);stroke-opacity:1;stroke-miterlimit:10;" d="M -280.3125 472.148438 L 2312.734375 472.148438 " transform="matrix(0.1,0,0,-0.1,0,157)"/>
<path style="fill:none;stroke-width:10;stroke-linecap:round;stroke-linejoin:round;stroke:rgb(94.139099%,94.139099%,94.139099%);stroke-opacity:1;stroke-miterlimit:10;" d="M -280.3125 415.46875 L 2312.734375 415.46875 " transform="matrix(0.1,0,0,-0.1,0,157)"/>
<path style="fill:none;stroke-width:10;stroke-linecap:round;stroke-linejoin:round;stroke:rgb(94.139099%,94.139099%,94.139099%);stroke-opacity:1;stroke-miterlimit:10;" d="M -280.3125 302.070312 L 2312.734375 302.070312 " transform="matrix(0.1,0,0,-0.1,0,157)"/>
<path style="fill:none;stroke-width:10;stroke-linecap:round;stroke-linejoin:round;stroke:rgb(94.139099%,94.139099%,94.139099%);stroke-opacity:1;stroke-miterlimit:10;" d="M -280.3125 245.390625 L 2312.734375 245.390625 " transform="matrix(0.1,0,0,-0.1,0,157)"/>
<path style="fill:none;stroke-width:10;stroke-linecap:round;stroke-linejoin:round;stroke:rgb(94.139099%,94.139099%,94.139099%);stroke-opacity:1;stroke-miterlimit:10;" d="M -280.3125 188.671875 L 2312.734375 188.671875 " transform="matrix(0.1,0,0,-0.1,0,157)"/>
<path style="fill:none;stroke-width:10;stroke-linecap:round;stroke-linejoin:round;stroke:rgb(94.139099%,94.139099%,94.139099%);stroke-opacity:1;stroke-miterlimit:10;" d="M -280.3125 131.992188 L 2312.734375 131.992188 " transform="matrix(0.1,0,0,-0.1,0,157)"/>
<path style="fill:none;stroke-width:10;stroke-linecap:round;stroke-linejoin:round;stroke:rgb(94.139099%,94.139099%,94.139099%);stroke-opacity:1;stroke-miterlimit:10;" d="M -280.3125 18.59375 L 2312.734375 18.59375 " transform="matrix(0.1,0,0,-0.1,0,157)"/>
<path style="fill:none;stroke-width:10;stroke-linecap:butt;stroke-linejoin:miter;stroke:rgb(0%,0%,0%);stroke-opacity:1;stroke-miterlimit:10;" d="M 641.015625 1867.03125 L 641.015625 -135.351562 " transform="matrix(0.1,0,0,-0.1,0,157)"/>
<path style="fill:none;stroke-width:10;stroke-linecap:butt;stroke-linejoin:miter;stroke:rgb(0%,0%,0%);stroke-opacity:1;stroke-miterlimit:10;" d="M -280.3125 925.703125 L 2306.054688 925.703125 " transform="matrix(0.1,0,0,-0.1,0,157)"/>
<path style=" stroke:none;fill-rule:nonzero;fill:rgb(0%,0%,0%);fill-opacity:1;" d="M 5.878906 68.6875 L 5.878906 68.421875 L 7.46875 68.421875 L 7.46875 68.6875 Z M 8.007812 69.75 L 8.007812 69.410156 C 8.121094 69.148438 8.347656 68.863281 8.6875 68.554688 L 8.910156 68.355469 C 9.195312 68.101562 9.335938 67.84375 9.335938 67.59375 C 9.335938 67.429688 9.289062 67.304688 9.191406 67.210938 C 9.09375 67.117188 8.960938 67.070312 8.789062 67.070312 C 8.589844 67.070312 8.351562 67.148438 8.082031 67.304688 L 8.082031 66.964844 C 8.335938 66.84375 8.59375 66.78125 8.84375 66.78125 C 9.117188 66.78125 9.332031 66.855469 9.5 67 C 9.664062 67.148438 9.746094 67.339844 9.746094 67.582031 C 9.746094 67.757812 9.703125 67.910156 9.621094 68.042969 C 9.539062 68.179688 9.382812 68.339844 9.15625 68.53125 L 9.007812 68.660156 C 8.699219 68.921875 8.523438 69.171875 8.472656 69.410156 L 9.730469 69.410156 L 9.730469 69.75 "/>
<path style=" stroke:none;fill-rule:nonzero;fill:rgb(0%,0%,0%);fill-opacity:1;" d="M 34.246094 68.6875 L 34.246094 68.421875 L 35.835938 68.421875 L 35.835938 68.6875 Z M 36.644531 69.75 L 36.644531 69.460938 L 37.222656 69.460938 L 37.222656 67.175781 L 36.644531 67.320312 L 36.644531 67.023438 L 37.609375 66.78125 L 37.609375 69.460938 L 38.191406 69.460938 L 38.191406 69.75 "/>
<path style=" stroke:none;fill-rule:nonzero;fill:rgb(0%,0%,0%);fill-opacity:1;" d="M 92.378906 69.75 L 92.378906 69.460938 L 92.957031 69.460938 L 92.957031 67.175781 L 92.378906 67.320312 L 92.378906 67.023438 L 93.34375 66.78125 L 93.34375 69.460938 L 93.921875 69.460938 L 93.921875 69.75 "/>
<path style=" stroke:none;fill-rule:nonzero;fill:rgb(0%,0%,0%);fill-opacity:1;" d="M 120.140625 69.75 L 120.140625 69.410156 C 120.253906 69.148438 120.480469 68.863281 120.820312 68.554688 L 121.042969 68.355469 C 121.324219 68.101562 121.46875 67.84375 121.46875 67.59375 C 121.46875 67.429688 121.421875 67.304688 121.324219 67.210938 C 121.226562 67.117188 121.09375 67.070312 120.921875 67.070312 C 120.722656 67.070312 120.484375 67.148438 120.214844 67.304688 L 120.214844 66.964844 C 120.46875 66.84375 120.726562 66.78125 120.976562 66.78125 C 121.25 66.78125 121.464844 66.855469 121.628906 67 C 121.796875 67.148438 121.878906 67.339844 121.878906 67.582031 C 121.878906 67.757812 121.835938 67.910156 121.753906 68.042969 C 121.671875 68.179688 121.515625 68.339844 121.289062 68.53125 L 121.140625 68.660156 C 120.832031 68.921875 120.652344 69.171875 120.605469 69.410156 L 121.863281 69.410156 L 121.863281 69.75 "/>
<path style=" stroke:none;fill-rule:nonzero;fill:rgb(0%,0%,0%);fill-opacity:1;" d="M 148.582031 69.726562 L 148.582031 69.367188 C 148.859375 69.476562 149.074219 69.53125 149.234375 69.53125 C 149.417969 69.53125 149.566406 69.476562 149.683594 69.371094 C 149.800781 69.261719 149.855469 69.125 149.855469 68.953125 C 149.855469 68.546875 149.570312 68.34375 149.003906 68.34375 L 148.851562 68.34375 L 148.851562 68.082031 L 148.984375 68.082031 C 149.519531 68.082031 149.785156 67.894531 149.785156 67.515625 C 149.785156 67.21875 149.609375 67.070312 149.257812 67.070312 C 149.066406 67.070312 148.851562 67.125 148.621094 67.234375 L 148.621094 66.898438 C 148.847656 66.820312 149.070312 66.78125 149.285156 66.78125 C 149.878906 66.78125 150.171875 67.007812 150.171875 67.453125 C 150.171875 67.792969 149.972656 68.035156 149.570312 68.179688 C 150.035156 68.289062 150.269531 68.542969 150.269531 68.949219 C 150.269531 69.21875 150.179688 69.433594 150 69.589844 C 149.820312 69.742188 149.574219 69.820312 149.257812 69.820312 C 149.078125 69.820312 148.855469 69.789062 148.582031 69.726562 "/>
<path style=" stroke:none;fill-rule:nonzero;fill:rgb(0%,0%,0%);fill-opacity:1;" d="M 57.273438 149.78125 L 57.273438 149.515625 L 58.863281 149.515625 L 58.863281 149.78125 Z M 59.476562 150.824219 L 59.476562 150.464844 C 59.753906 150.574219 59.96875 150.628906 60.128906 150.628906 C 60.3125 150.628906 60.464844 150.574219 60.578125 150.464844 C 60.695312 150.359375 60.75 150.21875 60.75 150.050781 C 60.75 149.640625 60.46875 149.4375 59.898438 149.4375 L 59.746094 149.4375 L 59.746094 149.179688 L 59.878906 149.175781 C 60.414062 149.175781 60.679688 148.988281 60.679688 148.613281 C 60.679688 148.316406 60.503906 148.167969 60.152344 148.167969 C 59.960938 148.167969 59.746094 148.222656 59.515625 148.332031 L 59.515625 147.992188 C 59.742188 147.917969 59.964844 147.878906 60.179688 147.878906 C 60.773438 147.878906 61.070312 148.101562 61.070312 148.550781 C 61.070312 148.890625 60.867188 149.132812 60.464844 149.277344 C 60.929688 149.386719 61.164062 149.640625 61.164062 150.042969 C 61.164062 150.316406 61.074219 150.53125 60.894531 150.683594 C 60.714844 150.839844 60.46875 150.917969 60.152344 150.917969 C 59.972656 150.917969 59.75 150.886719 59.476562 150.824219 "/>
<path style=" stroke:none;fill-rule:nonzero;fill:rgb(0%,0%,0%);fill-opacity:1;" d="M 57.273438 121.414062 L 57.273438 121.152344 L 58.863281 121.152344 L 58.863281 121.414062 Z M 59.402344 122.476562 L 59.402344 122.140625 C 59.515625 121.878906 59.742188 121.59375 60.082031 121.28125 L 60.304688 121.085938 C 60.589844 120.828125 60.730469 120.574219 60.730469 120.320312 C 60.730469 120.160156 60.679688 120.03125 60.585938 119.941406 C 60.488281 119.847656 60.355469 119.800781 60.183594 119.800781 C 59.984375 119.800781 59.746094 119.878906 59.472656 120.035156 L 59.472656 119.695312 C 59.730469 119.574219 59.984375 119.511719 60.238281 119.511719 C 60.511719 119.511719 60.726562 119.585938 60.890625 119.730469 C 61.054688 119.875 61.140625 120.070312 61.140625 120.3125 C 61.140625 120.484375 61.097656 120.640625 61.015625 120.773438 C 60.929688 120.90625 60.777344 121.070312 60.550781 121.261719 L 60.402344 121.390625 C 60.09375 121.652344 59.914062 121.902344 59.867188 122.140625 L 61.125 122.140625 L 61.125 122.476562 "/>
<path style=" stroke:none;fill-rule:nonzero;fill:rgb(0%,0%,0%);fill-opacity:1;" d="M 57.273438 93.382812 L 57.273438 93.117188 L 58.863281 93.117188 L 58.863281 93.382812 Z M 59.671875 94.445312 L 59.671875 94.15625 L 60.25 94.15625 L 60.25 91.871094 L 59.671875 92.015625 L 59.671875 91.71875 L 60.636719 91.476562 L 60.636719 94.15625 L 61.21875 94.15625 L 61.21875 94.445312 "/>
<path style=" stroke:none;fill-rule:nonzero;fill:rgb(0%,0%,0%);fill-opacity:1;" d="M 59.671875 37.710938 L 59.671875 37.421875 L 60.25 37.421875 L 60.25 35.136719 L 59.671875 35.28125 L 59.671875 34.984375 L 60.636719 34.746094 L 60.636719 37.421875 L 61.21875 37.421875 L 61.21875 37.710938 "/>
<path style=" stroke:none;fill-rule:nonzero;fill:rgb(0%,0%,0%);fill-opacity:1;" d="M 59.402344 9.34375 L 59.402344 9.007812 C 59.515625 8.742188 59.742188 8.460938 60.082031 8.148438 L 60.304688 7.953125 C 60.589844 7.695312 60.730469 7.441406 60.730469 7.1875 C 60.730469 7.027344 60.679688 6.898438 60.585938 6.804688 C 60.488281 6.714844 60.355469 6.667969 60.183594 6.667969 C 59.984375 6.667969 59.746094 6.746094 59.472656 6.898438 L 59.472656 6.558594 C 59.730469 6.4375 59.984375 6.378906 60.238281 6.378906 C 60.511719 6.378906 60.726562 6.449219 60.890625 6.597656 C 61.054688 6.742188 61.140625 6.9375 61.140625 7.179688 C 61.140625 7.351562 61.097656 7.503906 61.015625 7.640625 C 60.929688 7.773438 60.777344 7.9375 60.550781 8.128906 L 60.402344 8.253906 C 60.09375 8.515625 59.914062 8.769531 59.867188 9.007812 L 61.125 9.007812 L 61.125 9.34375 "/>
<path style=" stroke:none;fill-rule:nonzero;fill:rgb(0%,0%,0%);fill-opacity:1;" d="M 60.324219 69.820312 C 60.027344 69.820312 59.785156 69.679688 59.601562 69.398438 C 59.417969 69.117188 59.324219 68.753906 59.324219 68.300781 C 59.324219 67.84375 59.417969 67.476562 59.601562 67.199219 C 59.789062 66.921875 60.03125 66.78125 60.335938 66.78125 C 60.640625 66.78125 60.886719 66.921875 61.070312 67.199219 C 61.257812 67.476562 61.351562 67.84375 61.351562 68.292969 C 61.351562 68.757812 61.257812 69.128906 61.070312 69.40625 C 60.886719 69.683594 60.636719 69.820312 60.324219 69.820312 Z M 60.328125 69.53125 C 60.738281 69.53125 60.941406 69.117188 60.941406 68.289062 C 60.941406 67.476562 60.738281 67.070312 60.335938 67.070312 C 59.933594 67.070312 59.734375 67.480469 59.734375 68.300781 C 59.734375 69.121094 59.933594 69.53125 60.328125 69.53125 "/>
<path style="fill:none;stroke-width:25;stroke-linecap:round;stroke-linejoin:round;stroke:rgb(30.200195%,30.200195%,100%);stroke-opacity:1;stroke-miterlimit:10;" d="M -158.789062 -161.40625 L -148.632812 -131.835938 L -138.515625 -103.203125 L -128.398438 -75.390625 L -118.28125 -48.359375 L -108.125 -22.1875 L -98.007812 3.242188 L -87.890625 27.929688 L -77.734375 51.875 L -67.617188 75.15625 L -57.5 97.695312 L -47.34375 119.609375 L -37.226562 140.898438 L -27.109375 161.523438 L -16.992188 181.5625 L -6.835938 201.015625 L 3.28125 219.882812 L 13.398438 238.203125 L 23.554688 256.015625 L 33.671875 273.28125 L 43.789062 290.039062 L 53.945312 306.328125 L 64.0625 322.109375 L 74.179688 337.460938 L 84.296875 352.34375 L 94.453125 366.796875 L 104.570312 380.859375 L 114.6875 394.492188 L 124.84375 407.695312 L 134.960938 420.546875 L 145.078125 433.007812 L 155.234375 445.117188 L 165.351562 456.875 L 175.46875 468.28125 L 185.625 479.375 L 195.742188 490.117188 L 205.859375 500.546875 L 215.976562 510.703125 L 226.132812 520.507812 L 236.25 530.078125 L 246.40625 539.335938 L 256.523438 548.320312 L 266.640625 557.070312 L 276.757812 565.546875 L 286.914062 573.75 L 297.03125 581.71875 L 307.148438 589.492188 L 317.304688 596.992188 L 327.421875 604.257812 L 337.539062 611.328125 L 347.695312 618.203125 L 357.8125 624.84375 L 367.929688 631.289062 L 378.046875 637.539062 L 388.203125 643.632812 L 398.320312 649.492188 L 408.4375 655.195312 L 418.59375 660.703125 L 428.710938 666.054688 L 438.828125 671.210938 L 448.984375 676.25 L 459.101562 681.09375 L 469.21875 685.78125 L 479.335938 690.3125 L 489.492188 694.6875 L 499.609375 698.945312 L 509.726562 703.046875 L 519.882812 706.992188 L 530 710.820312 L 540.117188 714.492188 L 550.273438 718.007812 L 560.390625 721.445312 L 570.507812 724.6875 L 580.664062 727.851562 L 590.78125 730.859375 L 600.898438 733.75 L 611.015625 736.523438 L 621.171875 739.179688 L 631.289062 741.679688 L 641.40625 744.0625 L 651.5625 746.328125 L 661.679688 748.476562 L 671.796875 750.46875 L 681.953125 752.34375 L 692.070312 754.101562 L 702.1875 755.742188 L 712.304688 757.226562 L 722.460938 758.59375 L 732.578125 759.765625 L 742.734375 760.859375 L 752.851562 761.757812 L 762.96875 762.5 L 773.085938 763.085938 L 783.242188 763.515625 L 793.359375 763.710938 L 803.476562 763.75 L 813.632812 763.554688 L 823.75 763.164062 L 833.867188 762.5 L 844.023438 761.5625 L 854.140625 760.3125 L 864.257812 758.75 L 874.375 756.796875 L 884.53125 754.414062 L 894.648438 751.523438 L 904.765625 748.125 L 914.921875 744.023438 L 925.039062 739.179688 L 935.15625 733.4375 L 945.3125 726.5625 L 955.429688 718.320312 L 965.546875 708.359375 L 975.703125 696.25 L 985.820312 681.289062 L 995.9375 662.5 L 1006.054688 638.398438 L 1016.210938 606.601562 L 1021.289062 586.640625 L 1026.328125 563.007812 L 1031.40625 534.648438 L 1033.945312 518.203125 L 1036.445312 499.960938 L 1038.984375 479.609375 L 1041.523438 456.71875 L 1044.0625 430.859375 L 1046.601562 401.40625 L 1047.851562 385.039062 L 1049.101562 367.460938 L 1050.390625 348.554688 L 1051.640625 328.085938 L 1052.929688 305.898438 L 1054.179688 281.757812 L 1055.46875 255.429688 L 1056.71875 226.5625 L 1057.96875 194.804688 L 1058.632812 177.65625 L 1059.257812 159.648438 L 1059.882812 140.625 L 1060.507812 120.546875 L 1061.132812 99.335938 L 1061.796875 76.835938 L 1062.421875 53.007812 L 1063.046875 27.617188 L 1063.671875 0.625 L 1064.296875 -28.203125 L 1064.960938 -58.984375 L 1065.585938 -92.03125 L 1065.898438 -109.453125 L 1066.210938 -127.539062 L 1066.523438 -146.289062 L 1066.835938 -165.742188 M 1099.453125 1909.296875 L 1099.765625 1889.375 L 1100.078125 1870.234375 L 1100.390625 1851.757812 L 1100.703125 1833.984375 L 1101.015625 1816.835938 L 1101.640625 1784.296875 L 1102.304688 1753.90625 L 1102.929688 1725.507812 L 1103.554688 1698.867188 L 1104.21875 1673.828125 L 1104.84375 1650.273438 L 1105.46875 1628.085938 L 1106.09375 1607.109375 L 1106.71875 1587.265625 L 1107.34375 1568.476562 L 1108.007812 1550.625 L 1108.632812 1533.671875 L 1109.882812 1502.226562 L 1111.171875 1473.632812 L 1112.421875 1447.539062 L 1113.710938 1423.59375 L 1114.960938 1401.601562 L 1116.210938 1381.289062 L 1117.5 1362.5 L 1118.75 1345.039062 L 1120.039062 1328.828125 L 1122.539062 1299.492188 L 1125.078125 1273.75 L 1127.617188 1250.976562 L 1130.15625 1230.703125 L 1132.695312 1212.5 L 1137.734375 1181.25 L 1142.8125 1155.390625 L 1147.890625 1133.632812 L 1152.96875 1115.117188 L 1158.007812 1099.140625 L 1168.125 1073.085938 L 1178.28125 1052.773438 L 1188.398438 1036.484375 L 1198.515625 1023.203125 L 1208.671875 1012.1875 L 1218.789062 1002.890625 L 1228.90625 995.039062 L 1239.023438 988.242188 L 1249.179688 982.34375 L 1259.296875 977.226562 L 1269.414062 972.695312 L 1279.570312 968.710938 L 1289.6875 965.15625 L 1299.804688 961.992188 L 1309.960938 959.140625 L 1320.078125 956.601562 L 1330.195312 954.296875 L 1340.3125 952.1875 L 1350.46875 950.3125 L 1360.585938 948.554688 L 1370.703125 946.992188 L 1380.859375 945.546875 L 1390.976562 944.21875 L 1401.09375 943.007812 L 1411.25 941.875 L 1421.367188 940.820312 L 1431.484375 939.882812 L 1441.640625 938.984375 L 1451.757812 938.164062 L 1461.875 937.421875 L 1471.992188 936.71875 L 1482.148438 936.054688 L 1492.265625 935.429688 L 1502.382812 934.882812 L 1512.539062 934.335938 L 1522.65625 933.828125 L 1532.773438 933.398438 L 1542.929688 932.929688 L 1563.164062 932.148438 L 1573.28125 931.796875 L 1583.4375 931.484375 L 1603.671875 930.859375 L 1613.828125 930.585938 L 1623.945312 930.3125 L 1634.0625 930.078125 L 1644.21875 929.84375 L 1654.335938 929.648438 L 1664.453125 929.414062 L 1674.609375 929.21875 L 1684.726562 929.0625 L 1694.84375 928.867188 L 1704.960938 928.710938 L 1715.117188 928.554688 L 1725.234375 928.4375 L 1735.351562 928.28125 L 1745.507812 928.164062 L 1765.742188 927.929688 L 1775.898438 927.8125 L 1786.015625 927.695312 L 1796.132812 927.617188 L 1806.289062 927.5 L 1836.640625 927.265625 L 1846.796875 927.1875 L 1867.03125 927.03125 L 1877.1875 926.992188 L 1887.304688 926.914062 L 1897.421875 926.875 L 1907.578125 926.796875 L 1927.8125 926.71875 L 1937.96875 926.640625 L 1958.203125 926.5625 L 1968.359375 926.523438 L 1998.710938 926.40625 L 2008.867188 926.40625 L 2029.101562 926.328125 L 2039.257812 926.289062 L 2049.375 926.25 L 2059.492188 926.25 L 2069.648438 926.210938 L 2079.765625 926.171875 L 2089.882812 926.171875 L 2100.039062 926.132812 L 2110.15625 926.132812 L 2120.273438 926.09375 L 2130.390625 926.09375 L 2140.546875 926.054688 L 2160.78125 926.054688 L 2170.9375 926.015625 L 2181.054688 926.015625 L 2191.171875 925.976562 L 2211.445312 925.976562 L 2221.5625 925.9375 L 2251.953125 925.9375 L 2262.109375 925.898438 L 2292.460938 925.898438 L 2302.617188 925.859375 L 2312.734375 925.859375 " transform="matrix(0.1,0,0,-0.1,0,157)"/>
<path style="fill:none;stroke-width:25;stroke-linecap:butt;stroke-linejoin:round;stroke:rgb(30.200195%,30.200195%,30.200195%);stroke-opacity:1;stroke-dasharray:65,40;stroke-miterlimit:10;" d="M 1083.242188 -18.554688 L 1083.242188 1586.679688 " transform="matrix(0.1,0,0,-0.1,0,157)"/>
<path style=" stroke:none;fill-rule:nonzero;fill:rgb(100%,0%,0%);fill-opacity:1;" d="M 81.3125 80.621094 C 81.3125 81.359375 80.714844 81.957031 79.976562 81.957031 C 79.238281 81.957031 78.640625 81.359375 78.640625 80.621094 C 78.640625 79.886719 79.238281 79.289062 79.976562 79.289062 C 80.714844 79.289062 81.3125 79.886719 81.3125 80.621094 "/>
<path style="fill:none;stroke-width:10;stroke-linecap:round;stroke-linejoin:round;stroke:rgb(0%,0%,0%);stroke-opacity:1;stroke-miterlimit:10;" d="M 813.125 763.789062 C 813.125 756.40625 807.148438 750.429688 799.765625 750.429688 C 792.382812 750.429688 786.40625 756.40625 786.40625 763.789062 C 786.40625 771.132812 792.382812 777.109375 799.765625 777.109375 C 807.148438 777.109375 813.125 771.132812 813.125 763.789062 Z M 813.125 763.789062 " transform="matrix(0.1,0,0,-0.1,0,157)"/>
<path style=" stroke:none;fill-rule:nonzero;fill:rgb(100%,0%,0%);fill-opacity:1;" d="M 58.148438 77.324219 C 58.148438 77.390625 58.148438 77.425781 58.148438 77.425781 C 58.082031 77.425781 57.949219 77.324219 57.75 77.128906 C 57.484375 76.863281 57.289062 76.566406 57.15625 76.234375 C 56.824219 75.640625 56.660156 74.980469 56.660156 74.253906 C 56.660156 73.527344 56.792969 72.867188 57.058594 72.273438 C 57.320312 71.808594 57.617188 71.449219 57.949219 71.183594 C 58.015625 71.117188 58.082031 71.085938 58.148438 71.085938 C 58.148438 71.085938 58.148438 71.117188 58.148438 71.183594 C 58.148438 71.183594 58.113281 71.214844 58.046875 71.28125 C 57.386719 71.941406 57.058594 72.933594 57.058594 74.253906 C 57.058594 75.574219 57.386719 76.566406 58.046875 77.226562 C 58.113281 77.292969 58.148438 77.324219 58.148438 77.324219 "/>
<path style=" stroke:none;fill-rule:nonzero;fill:rgb(100%,0%,0%);fill-opacity:1;" d="M 60.910156 73.460938 C 60.910156 73.328125 60.976562 73.230469 61.109375 73.164062 C 61.109375 73.164062 61.140625 73.164062 61.207031 73.164062 C 61.273438 73.164062 61.304688 73.230469 61.304688 73.363281 C 61.304688 73.363281 61.304688 73.429688 61.304688 73.5625 L 61.109375 74.453125 C 61.042969 74.71875 60.976562 74.914062 60.910156 75.046875 C 60.84375 75.246094 60.8125 75.378906 60.8125 75.445312 C 60.8125 75.640625 60.878906 75.742188 61.007812 75.742188 C 61.207031 75.742188 61.339844 75.574219 61.40625 75.246094 C 61.472656 75.179688 61.503906 75.082031 61.503906 74.949219 C 61.570312 74.882812 61.601562 74.847656 61.601562 74.847656 C 61.667969 74.847656 61.703125 74.882812 61.703125 74.949219 C 61.703125 75.015625 61.667969 75.144531 61.601562 75.34375 C 61.539062 75.410156 61.503906 75.476562 61.503906 75.542969 C 61.371094 75.804688 61.207031 75.9375 61.007812 75.9375 C 60.8125 75.9375 60.644531 75.839844 60.515625 75.640625 C 60.515625 75.574219 60.480469 75.507812 60.414062 75.445312 C 60.152344 75.773438 59.886719 75.9375 59.621094 75.9375 C 59.292969 75.9375 59.058594 75.773438 58.929688 75.445312 C 58.863281 75.3125 58.828125 75.113281 58.828125 74.847656 C 58.828125 74.453125 58.960938 74.054688 59.226562 73.660156 C 59.554688 73.265625 59.886719 73.066406 60.214844 73.066406 C 60.28125 73.066406 60.316406 73.066406 60.316406 73.066406 C 60.578125 73.066406 60.777344 73.199219 60.910156 73.460938 Z M 60.515625 75.046875 L 60.8125 73.859375 C 60.8125 73.792969 60.8125 73.757812 60.8125 73.757812 C 60.8125 73.628906 60.777344 73.496094 60.710938 73.363281 C 60.644531 73.230469 60.515625 73.164062 60.316406 73.164062 C 60.117188 73.164062 59.917969 73.296875 59.722656 73.5625 C 59.65625 73.628906 59.621094 73.691406 59.621094 73.757812 C 59.488281 74.023438 59.359375 74.386719 59.226562 74.847656 C 59.226562 74.980469 59.226562 75.082031 59.226562 75.144531 C 59.226562 75.476562 59.324219 75.675781 59.523438 75.742188 C 59.523438 75.742188 59.554688 75.742188 59.621094 75.742188 C 59.886719 75.742188 60.117188 75.609375 60.316406 75.34375 C 60.382812 75.277344 60.449219 75.210938 60.515625 75.144531 C 60.515625 75.082031 60.515625 75.046875 60.515625 75.046875 "/>
<path style=" stroke:none;fill-rule:nonzero;fill:rgb(100%,0%,0%);fill-opacity:1;" d="M 67.453125 74.351562 L 63.984375 74.351562 C 63.855469 74.351562 63.789062 74.320312 63.789062 74.253906 C 63.789062 74.1875 63.855469 74.15625 63.984375 74.15625 L 67.453125 74.15625 C 67.585938 74.15625 67.652344 74.1875 67.652344 74.253906 C 67.652344 74.320312 67.585938 74.351562 67.453125 74.351562 "/>
<path style=" stroke:none;fill-rule:nonzero;fill:rgb(100%,0%,0%);fill-opacity:1;" d="M 71.515625 71.777344 L 71.515625 75.34375 C 71.515625 75.476562 71.550781 75.542969 71.613281 75.542969 C 71.679688 75.609375 71.847656 75.640625 72.109375 75.640625 L 72.308594 75.640625 L 72.308594 75.839844 C 72.175781 75.839844 71.8125 75.839844 71.21875 75.839844 C 70.691406 75.839844 70.359375 75.839844 70.226562 75.839844 L 70.226562 75.640625 L 70.425781 75.640625 C 70.757812 75.640625 70.953125 75.609375 71.019531 75.542969 C 71.019531 75.476562 71.019531 75.410156 71.019531 75.34375 L 71.019531 72.074219 C 70.824219 72.140625 70.558594 72.171875 70.226562 72.171875 L 70.226562 71.976562 C 70.691406 71.976562 71.054688 71.84375 71.316406 71.578125 C 71.449219 71.578125 71.515625 71.613281 71.515625 71.679688 C 71.515625 71.679688 71.515625 71.710938 71.515625 71.777344 "/>
<path style=" stroke:none;fill-rule:nonzero;fill:rgb(100%,0%,0%);fill-opacity:1;" d="M 74.09375 75.839844 C 74.09375 76.234375 73.960938 76.597656 73.695312 76.929688 C 73.628906 76.996094 73.5625 77.027344 73.496094 77.027344 C 73.496094 76.960938 73.496094 76.929688 73.496094 76.929688 C 73.761719 76.664062 73.925781 76.335938 73.992188 75.9375 C 73.992188 75.9375 73.992188 75.90625 73.992188 75.839844 C 73.992188 75.773438 73.960938 75.742188 73.894531 75.742188 C 73.828125 75.804688 73.761719 75.839844 73.695312 75.839844 C 73.5625 75.839844 73.464844 75.773438 73.398438 75.640625 C 73.398438 75.574219 73.398438 75.542969 73.398438 75.542969 C 73.398438 75.34375 73.429688 75.210938 73.496094 75.144531 C 73.5625 75.144531 73.628906 75.144531 73.695312 75.144531 C 73.894531 75.144531 74.027344 75.277344 74.09375 75.542969 C 74.09375 75.609375 74.09375 75.707031 74.09375 75.839844 "/>
<path style=" stroke:none;fill-rule:nonzero;fill:rgb(100%,0%,0%);fill-opacity:1;" d="M 78.496094 73.066406 L 77.605469 76.632812 C 77.605469 76.699219 77.605469 76.730469 77.605469 76.730469 C 77.605469 76.796875 77.636719 76.832031 77.703125 76.832031 C 77.703125 76.832031 77.769531 76.832031 77.902344 76.832031 C 77.96875 76.832031 78.03125 76.863281 78.097656 76.929688 C 78.097656 76.996094 78.03125 77.027344 77.902344 77.027344 L 76.613281 77.027344 C 76.613281 76.898438 76.644531 76.832031 76.710938 76.832031 C 76.910156 76.832031 77.042969 76.832031 77.109375 76.832031 C 77.109375 76.765625 77.140625 76.699219 77.207031 76.632812 L 77.503906 75.542969 C 77.242188 75.804688 76.976562 75.9375 76.710938 75.9375 C 76.449219 75.9375 76.21875 75.804688 76.019531 75.542969 C 75.953125 75.34375 75.917969 75.113281 75.917969 74.847656 C 75.917969 74.453125 76.050781 74.054688 76.316406 73.660156 C 76.644531 73.265625 76.976562 73.066406 77.304688 73.066406 C 77.371094 73.066406 77.40625 73.066406 77.40625 73.066406 C 77.667969 73.066406 77.867188 73.199219 78 73.460938 C 78.066406 73.328125 78.164062 73.199219 78.296875 73.066406 L 78.398438 73.066406 C 78.460938 73.066406 78.496094 73.066406 78.496094 73.066406 Z M 76.710938 75.742188 C 76.976562 75.742188 77.207031 75.609375 77.40625 75.34375 C 77.472656 75.277344 77.503906 75.210938 77.503906 75.144531 C 77.570312 75.144531 77.703125 74.71875 77.902344 73.859375 C 77.902344 73.792969 77.902344 73.757812 77.902344 73.757812 C 77.902344 73.628906 77.867188 73.496094 77.800781 73.363281 C 77.667969 73.230469 77.539062 73.164062 77.40625 73.164062 C 77.207031 73.164062 77.007812 73.296875 76.8125 73.5625 C 76.746094 73.691406 76.679688 73.824219 76.613281 73.957031 C 76.480469 74.222656 76.382812 74.550781 76.316406 74.949219 C 76.316406 75.015625 76.316406 75.082031 76.316406 75.144531 C 76.316406 75.410156 76.382812 75.609375 76.515625 75.742188 C 76.582031 75.742188 76.644531 75.742188 76.710938 75.742188 "/>
<path style=" stroke:none;fill-rule:nonzero;fill:rgb(100%,0%,0%);fill-opacity:1;" d="M 80.761719 77.324219 C 80.761719 77.390625 80.761719 77.425781 80.761719 77.425781 C 80.695312 77.425781 80.5625 77.324219 80.363281 77.128906 C 80.101562 76.863281 79.902344 76.566406 79.769531 76.234375 C 79.441406 75.640625 79.273438 74.980469 79.273438 74.253906 C 79.273438 73.527344 79.40625 72.867188 79.671875 72.273438 C 79.933594 71.808594 80.234375 71.449219 80.5625 71.183594 C 80.628906 71.117188 80.695312 71.085938 80.761719 71.085938 C 80.761719 71.085938 80.761719 71.117188 80.761719 71.183594 C 80.761719 71.183594 80.726562 71.214844 80.660156 71.28125 C 80 71.941406 79.671875 72.933594 79.671875 74.253906 C 79.671875 75.574219 80 76.566406 80.660156 77.226562 C 80.726562 77.292969 80.761719 77.324219 80.761719 77.324219 "/>
<path style=" stroke:none;fill-rule:nonzero;fill:rgb(100%,0%,0%);fill-opacity:1;" d="M 83.523438 73.460938 C 83.523438 73.328125 83.589844 73.230469 83.722656 73.164062 C 83.722656 73.164062 83.753906 73.164062 83.820312 73.164062 C 83.886719 73.164062 83.921875 73.230469 83.921875 73.363281 C 83.921875 73.363281 83.921875 73.429688 83.921875 73.5625 L 83.722656 74.453125 C 83.65625 74.71875 83.589844 74.914062 83.523438 75.046875 C 83.457031 75.246094 83.425781 75.378906 83.425781 75.445312 C 83.425781 75.640625 83.492188 75.742188 83.621094 75.742188 C 83.820312 75.742188 83.953125 75.574219 84.019531 75.246094 C 84.085938 75.179688 84.117188 75.082031 84.117188 74.949219 C 84.183594 74.882812 84.21875 74.847656 84.21875 74.847656 C 84.285156 74.847656 84.316406 74.882812 84.316406 74.949219 C 84.316406 75.015625 84.285156 75.144531 84.21875 75.34375 C 84.152344 75.410156 84.117188 75.476562 84.117188 75.542969 C 83.984375 75.804688 83.820312 75.9375 83.621094 75.9375 C 83.425781 75.9375 83.261719 75.839844 83.128906 75.640625 C 83.128906 75.574219 83.09375 75.507812 83.027344 75.445312 C 82.765625 75.773438 82.5 75.9375 82.234375 75.9375 C 81.90625 75.9375 81.675781 75.773438 81.542969 75.445312 C 81.476562 75.3125 81.445312 75.113281 81.445312 74.847656 C 81.445312 74.453125 81.574219 74.054688 81.839844 73.660156 C 82.167969 73.265625 82.5 73.066406 82.832031 73.066406 C 82.898438 73.066406 82.929688 73.066406 82.929688 73.066406 C 83.195312 73.066406 83.390625 73.199219 83.523438 73.460938 Z M 83.128906 75.046875 L 83.425781 73.859375 C 83.425781 73.792969 83.425781 73.757812 83.425781 73.757812 C 83.425781 73.628906 83.390625 73.496094 83.328125 73.363281 C 83.261719 73.230469 83.128906 73.164062 82.929688 73.164062 C 82.730469 73.164062 82.53125 73.296875 82.335938 73.5625 C 82.269531 73.628906 82.234375 73.691406 82.234375 73.757812 C 82.105469 74.023438 81.972656 74.386719 81.839844 74.847656 C 81.839844 74.980469 81.839844 75.082031 81.839844 75.144531 C 81.839844 75.476562 81.9375 75.675781 82.136719 75.742188 C 82.136719 75.742188 82.167969 75.742188 82.234375 75.742188 C 82.5 75.742188 82.730469 75.609375 82.929688 75.34375 C 82.996094 75.277344 83.0625 75.210938 83.128906 75.144531 C 83.128906 75.082031 83.128906 75.046875 83.128906 75.046875 "/>
<path style=" stroke:none;fill-rule:nonzero;fill:rgb(100%,0%,0%);fill-opacity:1;" d="M 90.070312 74.351562 L 86.601562 74.351562 C 86.46875 74.351562 86.402344 74.320312 86.402344 74.253906 C 86.402344 74.1875 86.46875 74.15625 86.601562 74.15625 L 90.070312 74.15625 C 90.199219 74.15625 90.265625 74.1875 90.265625 74.253906 C 90.265625 74.320312 90.199219 74.351562 90.070312 74.351562 "/>
<path style=" stroke:none;fill-rule:nonzero;fill:rgb(100%,0%,0%);fill-opacity:1;" d="M 94.128906 71.777344 L 94.128906 75.34375 C 94.128906 75.476562 94.164062 75.542969 94.230469 75.542969 C 94.296875 75.609375 94.460938 75.640625 94.726562 75.640625 L 94.921875 75.640625 L 94.921875 75.839844 C 94.789062 75.839844 94.425781 75.839844 93.832031 75.839844 C 93.304688 75.839844 92.972656 75.839844 92.84375 75.839844 L 92.84375 75.640625 L 93.039062 75.640625 C 93.371094 75.640625 93.570312 75.609375 93.636719 75.542969 C 93.636719 75.476562 93.636719 75.410156 93.636719 75.34375 L 93.636719 72.074219 C 93.4375 72.140625 93.171875 72.171875 92.84375 72.171875 L 92.84375 71.976562 C 93.304688 71.976562 93.667969 71.84375 93.933594 71.578125 C 94.066406 71.578125 94.128906 71.613281 94.128906 71.679688 C 94.128906 71.679688 94.128906 71.710938 94.128906 71.777344 "/>
<path style=" stroke:none;fill-rule:nonzero;fill:rgb(100%,0%,0%);fill-opacity:1;" d="M 97.203125 74.253906 C 97.203125 74.980469 97.070312 75.640625 96.804688 76.234375 C 96.605469 76.699219 96.34375 77.0625 96.011719 77.324219 C 95.945312 77.390625 95.882812 77.425781 95.816406 77.425781 C 95.816406 77.425781 95.816406 77.390625 95.816406 77.324219 C 95.816406 77.324219 95.816406 77.292969 95.816406 77.226562 C 96.542969 76.566406 96.90625 75.574219 96.90625 74.253906 C 96.90625 72.933594 96.574219 71.941406 95.914062 71.28125 C 95.847656 71.214844 95.816406 71.183594 95.816406 71.183594 C 95.816406 71.117188 95.816406 71.085938 95.816406 71.085938 C 95.882812 71.085938 96.011719 71.183594 96.210938 71.382812 C 96.476562 71.644531 96.671875 71.941406 96.804688 72.273438 C 97.070312 72.867188 97.203125 73.527344 97.203125 74.253906 "/>
<path style=" stroke:none;fill-rule:nonzero;fill:rgb(100%,0%,0%);fill-opacity:1;" d="M 99.667969 74.253906 C 99.667969 74.980469 99.535156 75.640625 99.273438 76.234375 C 99.074219 76.699219 98.808594 77.0625 98.476562 77.324219 C 98.414062 77.390625 98.347656 77.425781 98.28125 77.425781 C 98.28125 77.425781 98.28125 77.390625 98.28125 77.324219 C 98.28125 77.324219 98.28125 77.292969 98.28125 77.226562 C 99.007812 76.566406 99.371094 75.574219 99.371094 74.253906 C 99.371094 72.933594 99.039062 71.941406 98.378906 71.28125 C 98.3125 71.214844 98.28125 71.183594 98.28125 71.183594 C 98.28125 71.117188 98.28125 71.085938 98.28125 71.085938 C 98.347656 71.085938 98.476562 71.183594 98.675781 71.382812 C 98.941406 71.644531 99.140625 71.941406 99.273438 72.273438 C 99.535156 72.867188 99.667969 73.527344 99.667969 74.253906 "/>
</g>
</svg>
