<?xml version="1.0" encoding="UTF-8"?>
<svg xmlns="http://www.w3.org/2000/svg" xmlns:xlink="http://www.w3.org/1999/xlink" width="212pt" height="99pt" viewBox="0 0 212 99" version="1.1">
<g id="surface1">
<rect x="0" y="0" width="212" height="99" style="fill:rgb(100%,100%,100%);fill-opacity:1;stroke:none;"/>
<path style="fill:none;stroke-width:10;stroke-linecap:round;stroke-linejoin:round;stroke:rgb(75.389099%,75.389099%,75.389099%);stroke-opacity:1;stroke-miterlimit:10;" d="M 73.59375 1470.15625 L 73.59375 -345.898438 " transform="matrix(0.1,0,0,-0.1,0,99)"/>
<path style="fill:none;stroke-width:10;stroke-linecap:round;stroke-linejoin:round;stroke:rgb(75.389099%,75.389099%,75.389099%);stroke-opacity:1;stroke-miterlimit:10;" d="M 73.59375 1470.15625 L 73.59375 -345.898438 " transform="matrix(0.1,0,0,-0.1,0,99)"/>
<path style="fill:none;stroke-width:10;stroke-linecap:round;stroke-linejoin:round;stroke:rgb(75.389099%,75.389099%,75.389099%);stroke-opacity:1;stroke-miterlimit:10;" d="M 640.507812 1470.15625 L 640.507812 -345.898438 " transform="matrix(0.1,0,0,-0.1,0,99)"/>
<path style="fill:none;stroke-width:10;stroke-linecap:round;stroke-linejoin:round;stroke:rgb(75.389099%,75.389099%,75.389099%);stroke-opacity:1;stroke-miterlimit:10;" d="M 923.984375 1470.15625 L 923.984375 -345.898438 " transform="matrix(0.1,0,0,-0.1,0,99)"/>
<path style="fill:none;stroke-width:10;stroke-linecap:round;stroke-linejoin:round;stroke:rgb(75.389099%,75.389099%,75.389099%);stroke-opacity:1;stroke-miterlimit:10;" d="M 1207.460938 1470.15625 L 1207.460938 -345.898438 " transform="matrix(0.1,0,0,-0.1,0,99)"/>
<path style="fill:none;stroke-width:10;stroke-linecap:round;stroke-linejoin:round;stroke:rgb(75.389099%,75.389099%,75.389099%);stroke-opacity:1;stroke-miterlimit:10;" d="M 1490.898438 1470.15625 L 1490.898438 -345.898438 " transform="matrix(0.1,0,0,-0.1,0,99)"/>
<path style="fill:none;stroke-width:10;stroke-linecap:round;stroke-linejoin:round;stroke:rgb(75.389099%,75.389099%,75.389099%);stroke-opacity:1;stroke-miterlimit:10;" d="M 1774.375 1470.15625 L 1774.375 -345.898438 " transform="matrix(0.1,0,0,-0.1,0,99)"/>
<path style="fill:none;stroke-width:10;stroke-linecap:round;stroke-linejoin:round;stroke:rgb(75.389099%,75.389099%,75.389099%);stroke-opacity:1;stroke-miterlimit:10;" d="M 2057.851562 1470.15625 L 2057.851562 -345.898438 " transform="matrix(0.1,0,0,-0.1,0,99)"/>
<path style="fill:none;stroke-width:10;stroke-linecap:round;stroke-linejoin:round;stroke:rgb(94.139099%,94.139099%,94.139099%);stroke-opacity:1;stroke-miterlimit:10;" d="M 16.914062 1470.15625 L 16.914062 -345.898438 " transform="matrix(0.1,0,0,-0.1,0,99)"/>
<path style="fill:none;stroke-width:10;stroke-linecap:round;stroke-linejoin:round;stroke:rgb(94.139099%,94.139099%,94.139099%);stroke-opacity:1;stroke-miterlimit:10;" d="M 130.273438 1470.15625 L 130.273438 -345.898438 " transform="matrix(0.1,0,0,-0.1,0,99)"/>
<path style="fill:none;stroke-width:10;stroke-linecap:round;stroke-linejoin:round;stroke:rgb(94.139099%,94.139099%,94.139099%);stroke-opacity:1;stroke-miterlimit:10;" d="M 186.992188 1470.15625 L 186.992188 -345.898438 " transform="matrix(0.1,0,0,-0.1,0,99)"/>
<path style="fill:none;stroke-width:10;stroke-linecap:round;stroke-linejoin:round;stroke:rgb(94.139099%,94.139099%,94.139099%);stroke-opacity:1;stroke-miterlimit:10;" d="M 243.671875 1470.15625 L 243.671875 -345.898438 " transform="matrix(0.1,0,0,-0.1,0,99)"/>
<path style="fill:none;stroke-width:10;stroke-linecap:round;stroke-linejoin:round;stroke:rgb(94.139099%,94.139099%,94.139099%);stroke-opacity:1;stroke-miterlimit:10;" d="M 300.351562 1470.15625 L 300.351562 -345.898438 " transform="matrix(0.1,0,0,-0.1,0,99)"/>
<path style="fill:none;stroke-width:10;stroke-linecap:round;stroke-linejoin:round;stroke:rgb(94.139099%,94.139099%,94.139099%);stroke-opacity:1;stroke-miterlimit:10;" d="M 413.75 1470.15625 L 413.75 -345.898438 " transform="matrix(0.1,0,0,-0.1,0,99)"/>
<path style="fill:none;stroke-width:10;stroke-linecap:round;stroke-linejoin:round;stroke:rgb(94.139099%,94.139099%,94.139099%);stroke-opacity:1;stroke-miterlimit:10;" d="M 470.429688 1470.15625 L 470.429688 -345.898438 " transform="matrix(0.1,0,0,-0.1,0,99)"/>
<path style="fill:none;stroke-width:10;stroke-linecap:round;stroke-linejoin:round;stroke:rgb(94.139099%,94.139099%,94.139099%);stroke-opacity:1;stroke-miterlimit:10;" d="M 527.148438 1470.15625 L 527.148438 -345.898438 " transform="matrix(0.1,0,0,-0.1,0,99)"/>
<path style="fill:none;stroke-width:10;stroke-linecap:round;stroke-linejoin:round;stroke:rgb(94.139099%,94.139099%,94.139099%);stroke-opacity:1;stroke-miterlimit:10;" d="M 583.828125 1470.15625 L 583.828125 -345.898438 " transform="matrix(0.1,0,0,-0.1,0,99)"/>
<path style="fill:none;stroke-width:10;stroke-linecap:round;stroke-linejoin:round;stroke:rgb(94.139099%,94.139099%,94.139099%);stroke-opacity:1;stroke-miterlimit:10;" d="M 697.226562 1470.15625 L 697.226562 -345.898438 " transform="matrix(0.1,0,0,-0.1,0,99)"/>
<path style="fill:none;stroke-width:10;stroke-linecap:round;stroke-linejoin:round;stroke:rgb(94.139099%,94.139099%,94.139099%);stroke-opacity:1;stroke-miterlimit:10;" d="M 753.90625 1470.15625 L 753.90625 -345.898438 " transform="matrix(0.1,0,0,-0.1,0,99)"/>
<path style="fill:none;stroke-width:10;stroke-linecap:round;stroke-linejoin:round;stroke:rgb(94.139099%,94.139099%,94.139099%);stroke-opacity:1;stroke-miterlimit:10;" d="M 810.585938 1470.15625 L 810.585938 -345.898438 " transform="matrix(0.1,0,0,-0.1,0,99)"/>
<path style="fill:none;stroke-width:10;stroke-linecap:round;stroke-linejoin:round;stroke:rgb(94.139099%,94.139099%,94.139099%);stroke-opacity:1;stroke-miterlimit:10;" d="M 867.304688 1470.15625 L 867.304688 -345.898438 " transform="matrix(0.1,0,0,-0.1,0,99)"/>
<path style="fill:none;stroke-width:10;stroke-linecap:round;stroke-linejoin:round;stroke:rgb(94.139099%,94.139099%,94.139099%);stroke-opacity:1;stroke-miterlimit:10;" d="M 980.664062 1470.15625 L 980.664062 -345.898438 " transform="matrix(0.1,0,0,-0.1,0,99)"/>
<path style="fill:none;stroke-width:10;stroke-linecap:round;stroke-linejoin:round;stroke:rgb(94.139099%,94.139099%,94.139099%);stroke-opacity:1;stroke-miterlimit:10;" d="M 1037.382812 1470.15625 L 1037.382812 -345.898438 " transform="matrix(0.1,0,0,-0.1,0,99)"/>
<path style="fill:none;stroke-width:10;stroke-linecap:round;stroke-linejoin:round;stroke:rgb(94.139099%,94.139099%,94.139099%);stroke-opacity:1;stroke-miterlimit:10;" d="M 1094.0625 1470.15625 L 1094.0625 -345.898438 " transform="matrix(0.1,0,0,-0.1,0,99)"/>
<path style="fill:none;stroke-width:10;stroke-linecap:round;stroke-linejoin:round;stroke:rgb(94.139099%,94.139099%,94.139099%);stroke-opacity:1;stroke-miterlimit:10;" d="M 1150.742188 1470.15625 L 1150.742188 -345.898438 " transform="matrix(0.1,0,0,-0.1,0,99)"/>
<path style="fill:none;stroke-width:10;stroke-linecap:round;stroke-linejoin:round;stroke:rgb(94.139099%,94.139099%,94.139099%);stroke-opacity:1;stroke-miterlimit:10;" d="M 1264.140625 1470.15625 L 1264.140625 -345.898438 " transform="matrix(0.1,0,0,-0.1,0,99)"/>
<path style="fill:none;stroke-width:10;stroke-linecap:round;stroke-linejoin:round;stroke:rgb(94.139099%,94.139099%,94.139099%);stroke-opacity:1;stroke-miterlimit:10;" d="M 1320.859375 1470.15625 L 1320.859375 -345.898438 " transform="matrix(0.1,0,0,-0.1,0,99)"/>
<path style="fill:none;stroke-width:10;stroke-linecap:round;stroke-linejoin:round;stroke:rgb(94.139099%,94.139099%,94.139099%);stroke-opacity:1;stroke-miterlimit:10;" d="M 1377.539062 1470.15625 L 1377.539062 -345.898438 " transform="matrix(0.1,0,0,-0.1,0,99)"/>
<path style="fill:none;stroke-width:10;stroke-linecap:round;stroke-linejoin:round;stroke:rgb(94.139099%,94.139099%,94.139099%);stroke-opacity:1;stroke-miterlimit:10;" d="M 1434.21875 1470.15625 L 1434.21875 -345.898438 " transform="matrix(0.1,0,0,-0.1,0,99)"/>
<path style="fill:none;stroke-width:10;stroke-linecap:round;stroke-linejoin:round;stroke:rgb(94.139099%,94.139099%,94.139099%);stroke-opacity:1;stroke-miterlimit:10;" d="M 1547.617188 1470.15625 L 1547.617188 -345.898438 " transform="matrix(0.1,0,0,-0.1,0,99)"/>
<path style="fill:none;stroke-width:10;stroke-linecap:round;stroke-linejoin:round;stroke:rgb(94.139099%,94.139099%,94.139099%);stroke-opacity:1;stroke-miterlimit:10;" d="M 1604.296875 1470.15625 L 1604.296875 -345.898438 " transform="matrix(0.1,0,0,-0.1,0,99)"/>
<path style="fill:none;stroke-width:10;stroke-linecap:round;stroke-linejoin:round;stroke:rgb(94.139099%,94.139099%,94.139099%);stroke-opacity:1;stroke-miterlimit:10;" d="M 1660.976562 1470.15625 L 1660.976562 -345.898438 " transform="matrix(0.1,0,0,-0.1,0,99)"/>
<path style="fill:none;stroke-width:10;stroke-linecap:round;stroke-linejoin:round;stroke:rgb(94.139099%,94.139099%,94.139099%);stroke-opacity:1;stroke-miterlimit:10;" d="M 1717.695312 1470.15625 L 1717.695312 -345.898438 " transform="matrix(0.1,0,0,-0.1,0,99)"/>
<path style="fill:none;stroke-width:10;stroke-linecap:round;stroke-linejoin:round;stroke:rgb(94.139099%,94.139099%,94.139099%);stroke-opacity:1;stroke-miterlimit:10;" d="M 1831.054688 1470.15625 L 1831.054688 -345.898438 " transform="matrix(0.1,0,0,-0.1,0,99)"/>
<path style="fill:none;stroke-width:10;stroke-linecap:round;stroke-linejoin:round;stroke:rgb(94.139099%,94.139099%,94.139099%);stroke-opacity:1;stroke-miterlimit:10;" d="M 1887.773438 1470.15625 L 1887.773438 -345.898438 " transform="matrix(0.1,0,0,-0.1,0,99)"/>
<path style="fill:none;stroke-width:10;stroke-linecap:round;stroke-linejoin:round;stroke:rgb(94.139099%,94.139099%,94.139099%);stroke-opacity:1;stroke-miterlimit:10;" d="M 1944.453125 1470.15625 L 1944.453125 -345.898438 " transform="matrix(0.1,0,0,-0.1,0,99)"/>
<path style="fill:none;stroke-width:10;stroke-linecap:round;stroke-linejoin:round;stroke:rgb(94.139099%,94.139099%,94.139099%);stroke-opacity:1;stroke-miterlimit:10;" d="M 2001.132812 1470.15625 L 2001.132812 -345.898438 " transform="matrix(0.1,0,0,-0.1,0,99)"/>
<path style="fill:none;stroke-width:10;stroke-linecap:round;stroke-linejoin:round;stroke:rgb(94.139099%,94.139099%,94.139099%);stroke-opacity:1;stroke-miterlimit:10;" d="M 2114.53125 1470.15625 L 2114.53125 -345.898438 " transform="matrix(0.1,0,0,-0.1,0,99)"/>
<path style="fill:none;stroke-width:10;stroke-linecap:round;stroke-linejoin:round;stroke:rgb(75.389099%,75.389099%,75.389099%);stroke-opacity:1;stroke-miterlimit:10;" d="M -96.796875 906.640625 L 2149.0625 906.640625 " transform="matrix(0.1,0,0,-0.1,0,99)"/>
<path style="fill:none;stroke-width:10;stroke-linecap:round;stroke-linejoin:round;stroke:rgb(75.389099%,75.389099%,75.389099%);stroke-opacity:1;stroke-miterlimit:10;" d="M -96.796875 623.203125 L 2149.0625 623.203125 " transform="matrix(0.1,0,0,-0.1,0,99)"/>
<path style="fill:none;stroke-width:10;stroke-linecap:round;stroke-linejoin:round;stroke:rgb(75.389099%,75.389099%,75.389099%);stroke-opacity:1;stroke-miterlimit:10;" d="M -96.796875 56.25 L 2149.0625 56.25 " transform="matrix(0.1,0,0,-0.1,0,99)"/>
<path style="fill:none;stroke-width:10;stroke-linecap:round;stroke-linejoin:round;stroke:rgb(94.139099%,94.139099%,94.139099%);stroke-opacity:1;stroke-miterlimit:10;" d="M -96.796875 963.359375 L 2149.0625 963.359375 " transform="matrix(0.1,0,0,-0.1,0,99)"/>
<path style="fill:none;stroke-width:10;stroke-linecap:round;stroke-linejoin:round;stroke:rgb(94.139099%,94.139099%,94.139099%);stroke-opacity:1;stroke-miterlimit:10;" d="M -96.796875 849.960938 L 2149.0625 849.960938 " transform="matrix(0.1,0,0,-0.1,0,99)"/>
<path style="fill:none;stroke-width:10;stroke-linecap:round;stroke-linejoin:round;stroke:rgb(94.139099%,94.139099%,94.139099%);stroke-opacity:1;stroke-miterlimit:10;" d="M -96.796875 793.28125 L 2149.0625 793.28125 " transform="matrix(0.1,0,0,-0.1,0,99)"/>
<path style="fill:none;stroke-width:10;stroke-linecap:round;stroke-linejoin:round;stroke:rgb(94.139099%,94.139099%,94.139099%);stroke-opacity:1;stroke-miterlimit:10;" d="M -96.796875 736.5625 L 2149.0625 736.5625 " transform="matrix(0.1,0,0,-0.1,0,99)"/>
<path style="fill:none;stroke-width:10;stroke-linecap:round;stroke-linejoin:round;stroke:rgb(94.139099%,94.139099%,94.139099%);stroke-opacity:1;stroke-miterlimit:10;" d="M -96.796875 679.882812 L 2149.0625 679.882812 " transform="matrix(0.1,0,0,-0.1,0,99)"/>
<path style="fill:none;stroke-width:10;stroke-linecap:round;stroke-linejoin:round;stroke:rgb(94.139099%,94.139099%,94.139099%);stroke-opacity:1;stroke-miterlimit:10;" d="M -96.796875 566.484375 L 2149.0625 566.484375 " transform="matrix(0.1,0,0,-0.1,0,99)"/>
<path style="fill:none;stroke-width:10;stroke-linecap:round;stroke-linejoin:round;stroke:rgb(94.139099%,94.139099%,94.139099%);stroke-opacity:1;stroke-miterlimit:10;" d="M -96.796875 509.804688 L 2149.0625 509.804688 " transform="matrix(0.1,0,0,-0.1,0,99)"/>
<path style="fill:none;stroke-width:10;stroke-linecap:round;stroke-linejoin:round;stroke:rgb(94.139099%,94.139099%,94.139099%);stroke-opacity:1;stroke-miterlimit:10;" d="M -96.796875 453.125 L 2149.0625 453.125 " transform="matrix(0.1,0,0,-0.1,0,99)"/>
<path style="fill:none;stroke-width:10;stroke-linecap:round;stroke-linejoin:round;stroke:rgb(94.139099%,94.139099%,94.139099%);stroke-opacity:1;stroke-miterlimit:10;" d="M -96.796875 396.40625 L 2149.0625 396.40625 " transform="matrix(0.1,0,0,-0.1,0,99)"/>
<path style="fill:none;stroke-width:10;stroke-linecap:round;stroke-linejoin:round;stroke:rgb(94.139099%,94.139099%,94.139099%);stroke-opacity:1;stroke-miterlimit:10;" d="M -96.796875 283.046875 L 2149.0625 283.046875 " transform="matrix(0.1,0,0,-0.1,0,99)"/>
<path style="fill:none;stroke-width:10;stroke-linecap:round;stroke-linejoin:round;stroke:rgb(94.139099%,94.139099%,94.139099%);stroke-opacity:1;stroke-miterlimit:10;" d="M -96.796875 226.328125 L 2149.0625 226.328125 " transform="matrix(0.1,0,0,-0.1,0,99)"/>
<path style="fill:none;stroke-width:10;stroke-linecap:round;stroke-linejoin:round;stroke:rgb(94.139099%,94.139099%,94.139099%);stroke-opacity:1;stroke-miterlimit:10;" d="M -96.796875 169.648438 L 2149.0625 169.648438 " transform="matrix(0.1,0,0,-0.1,0,99)"/>
<path style="fill:none;stroke-width:10;stroke-linecap:round;stroke-linejoin:round;stroke:rgb(94.139099%,94.139099%,94.139099%);stroke-opacity:1;stroke-miterlimit:10;" d="M -96.796875 112.96875 L 2149.0625 112.96875 " transform="matrix(0.1,0,0,-0.1,0,99)"/>
<path style="fill:none;stroke-width:10;stroke-linecap:round;stroke-linejoin:round;stroke:rgb(94.139099%,94.139099%,94.139099%);stroke-opacity:1;stroke-miterlimit:10;" d="M -96.796875 -0.429688 L 2149.0625 -0.429688 " transform="matrix(0.1,0,0,-0.1,0,99)"/>
<path style="fill:none;stroke-width:10;stroke-linecap:butt;stroke-linejoin:miter;stroke:rgb(0%,0%,0%);stroke-opacity:1;stroke-miterlimit:10;" d="M 357.070312 1462.421875 L 357.070312 -345.898438 " transform="matrix(0.1,0,0,-0.1,0,99)"/>
<path style="fill:none;stroke-width:10;stroke-linecap:butt;stroke-linejoin:miter;stroke:rgb(0%,0%,0%);stroke-opacity:1;stroke-miterlimit:10;" d="M -96.796875 339.726562 L 2141.328125 339.726562 " transform="matrix(0.1,0,0,-0.1,0,99)"/>
<path style=" stroke:none;fill-rule:nonzero;fill:rgb(0%,0%,0%);fill-opacity:1;" d="M 5.660156 69.628906 L 5.660156 69.320312 L 7.507812 69.320312 L 7.507812 69.628906 Z M 8.445312 70.859375 L 8.445312 70.527344 L 9.113281 70.527344 L 9.113281 67.875 L 8.445312 68.042969 L 8.445312 67.699219 L 9.5625 67.417969 L 9.5625 70.527344 L 10.234375 70.527344 L 10.234375 70.859375 "/>
<path style=" stroke:none;fill-rule:nonzero;fill:rgb(0%,0%,0%);fill-opacity:1;" d="M 63.816406 70.859375 L 63.816406 70.527344 L 64.488281 70.527344 L 64.488281 67.875 L 63.816406 68.042969 L 63.816406 67.699219 L 64.9375 67.417969 L 64.9375 70.527344 L 65.609375 70.527344 L 65.609375 70.859375 "/>
<path style=" stroke:none;fill-rule:nonzero;fill:rgb(0%,0%,0%);fill-opacity:1;" d="M 91.769531 70.859375 L 91.769531 70.46875 C 91.898438 70.164062 92.164062 69.832031 92.558594 69.476562 L 92.816406 69.246094 C 93.144531 68.949219 93.308594 68.652344 93.308594 68.359375 C 93.308594 68.171875 93.253906 68.023438 93.140625 67.917969 C 93.027344 67.808594 92.875 67.753906 92.675781 67.753906 C 92.445312 67.753906 92.167969 67.84375 91.851562 68.027344 L 91.851562 67.628906 C 92.152344 67.488281 92.449219 67.417969 92.742188 67.417969 C 93.054688 67.417969 93.308594 67.503906 93.5 67.671875 C 93.6875 67.84375 93.785156 68.066406 93.785156 68.347656 C 93.785156 68.546875 93.734375 68.726562 93.640625 68.882812 C 93.542969 69.039062 93.367188 69.226562 93.105469 69.449219 L 92.929688 69.597656 C 92.574219 69.902344 92.367188 70.191406 92.308594 70.46875 L 93.769531 70.46875 L 93.769531 70.859375 "/>
<path style=" stroke:none;fill-rule:nonzero;fill:rgb(0%,0%,0%);fill-opacity:1;" d="M 120.121094 70.835938 L 120.121094 70.417969 C 120.445312 70.546875 120.695312 70.609375 120.882812 70.609375 C 121.09375 70.609375 121.269531 70.546875 121.402344 70.421875 C 121.535156 70.296875 121.601562 70.136719 121.601562 69.9375 C 121.601562 69.464844 121.273438 69.230469 120.609375 69.230469 L 120.433594 69.230469 L 120.433594 68.929688 L 120.589844 68.925781 C 121.210938 68.925781 121.519531 68.707031 121.519531 68.269531 C 121.519531 67.925781 121.316406 67.753906 120.90625 67.753906 C 120.683594 67.753906 120.4375 67.816406 120.167969 67.945312 L 120.167969 67.554688 C 120.433594 67.464844 120.691406 67.417969 120.941406 67.417969 C 121.628906 67.417969 121.96875 67.679688 121.96875 68.199219 C 121.96875 68.59375 121.734375 68.875 121.269531 69.042969 C 121.808594 69.167969 122.082031 69.464844 122.082031 69.929688 C 122.082031 70.246094 121.976562 70.496094 121.769531 70.675781 C 121.558594 70.855469 121.273438 70.945312 120.90625 70.945312 C 120.699219 70.945312 120.4375 70.910156 120.121094 70.835938 "/>
<path style=" stroke:none;fill-rule:nonzero;fill:rgb(0%,0%,0%);fill-opacity:1;" d="M 150.054688 70.859375 L 150.054688 69.910156 L 148.542969 69.910156 L 148.542969 69.574219 L 150.054688 67.503906 L 150.472656 67.503906 L 150.472656 69.546875 L 150.921875 69.546875 L 150.921875 69.910156 L 150.472656 69.910156 L 150.472656 70.859375 Z M 148.980469 69.546875 L 150.085938 69.546875 L 150.085938 68.050781 "/>
<path style=" stroke:none;fill-rule:nonzero;fill:rgb(0%,0%,0%);fill-opacity:1;" d="M 177.136719 70.875 L 177.136719 70.476562 C 177.359375 70.566406 177.570312 70.609375 177.773438 70.609375 C 177.992188 70.609375 178.167969 70.542969 178.292969 70.414062 C 178.421875 70.285156 178.484375 70.105469 178.484375 69.875 C 178.484375 69.371094 178.136719 69.121094 177.441406 69.121094 C 177.363281 69.121094 177.28125 69.125 177.195312 69.136719 L 177.195312 67.503906 L 178.894531 67.503906 L 178.894531 67.894531 L 177.585938 67.894531 L 177.585938 68.777344 C 178.019531 68.777344 178.355469 68.878906 178.597656 69.074219 C 178.839844 69.273438 178.960938 69.546875 178.960938 69.898438 C 178.960938 70.226562 178.847656 70.480469 178.628906 70.667969 C 178.410156 70.851562 178.105469 70.945312 177.714844 70.945312 C 177.542969 70.945312 177.351562 70.921875 177.136719 70.875 "/>
<path style=" stroke:none;fill-rule:nonzero;fill:rgb(0%,0%,0%);fill-opacity:1;" d="M 205.636719 69.121094 C 205.851562 68.84375 206.121094 68.707031 206.445312 68.707031 C 206.738281 68.707031 206.976562 68.804688 207.164062 68.996094 C 207.351562 69.191406 207.445312 69.441406 207.445312 69.746094 C 207.445312 70.09375 207.339844 70.382812 207.128906 70.605469 C 206.921875 70.832031 206.65625 70.945312 206.332031 70.945312 C 205.960938 70.945312 205.671875 70.796875 205.464844 70.5 C 205.253906 70.199219 205.148438 69.785156 205.148438 69.257812 C 205.148438 68.675781 205.269531 68.222656 205.511719 67.902344 C 205.75 67.578125 206.089844 67.417969 206.523438 67.417969 C 206.722656 67.417969 206.972656 67.460938 207.273438 67.542969 L 207.273438 67.933594 C 206.953125 67.8125 206.695312 67.753906 206.496094 67.753906 C 205.925781 67.753906 205.636719 68.210938 205.636719 69.121094 Z M 206.996094 69.84375 C 206.996094 69.589844 206.9375 69.390625 206.824219 69.246094 C 206.710938 69.101562 206.550781 69.027344 206.347656 69.027344 C 206.160156 69.027344 205.996094 69.089844 205.859375 69.21875 C 205.722656 69.34375 205.65625 69.5 205.65625 69.675781 C 205.65625 69.957031 205.722656 70.183594 205.851562 70.355469 C 205.980469 70.523438 206.152344 70.609375 206.363281 70.609375 C 206.554688 70.609375 206.710938 70.539062 206.824219 70.402344 C 206.9375 70.261719 206.996094 70.078125 206.996094 69.84375 "/>
<path style=" stroke:none;fill-rule:nonzero;fill:rgb(0%,0%,0%);fill-opacity:1;" d="M 27.730469 94.023438 L 27.730469 93.714844 L 29.578125 93.714844 L 29.578125 94.023438 Z M 30.515625 95.257812 L 30.515625 94.921875 L 31.1875 94.921875 L 31.1875 92.269531 L 30.515625 92.4375 L 30.515625 92.09375 L 31.636719 91.8125 L 31.636719 94.921875 L 32.308594 94.921875 L 32.308594 95.257812 "/>
<path style=" stroke:none;fill-rule:nonzero;fill:rgb(0%,0%,0%);fill-opacity:1;" d="M 30.515625 38.335938 L 30.515625 38 L 31.1875 38 L 31.1875 35.347656 L 30.515625 35.515625 L 30.515625 35.171875 L 31.636719 34.894531 L 31.636719 38 L 32.308594 38 L 32.308594 38.335938 "/>
<path style=" stroke:none;fill-rule:nonzero;fill:rgb(0%,0%,0%);fill-opacity:1;" d="M 30.203125 10.066406 L 30.203125 9.675781 C 30.332031 9.371094 30.59375 9.039062 30.992188 8.679688 L 31.246094 8.453125 C 31.578125 8.15625 31.742188 7.859375 31.742188 7.566406 C 31.742188 7.378906 31.6875 7.230469 31.574219 7.121094 C 31.460938 7.015625 31.304688 6.960938 31.109375 6.960938 C 30.875 6.960938 30.601562 7.050781 30.285156 7.230469 L 30.285156 6.835938 C 30.582031 6.695312 30.878906 6.625 31.171875 6.625 C 31.488281 6.625 31.738281 6.710938 31.929688 6.878906 C 32.121094 7.050781 32.214844 7.273438 32.214844 7.554688 C 32.214844 7.753906 32.167969 7.933594 32.074219 8.089844 C 31.976562 8.246094 31.796875 8.433594 31.535156 8.65625 L 31.363281 8.804688 C 31.003906 9.109375 30.796875 9.398438 30.742188 9.675781 L 32.199219 9.675781 L 32.199219 10.066406 "/>
<path style=" stroke:none;fill-rule:nonzero;fill:rgb(0%,0%,0%);fill-opacity:1;" d="M 31.273438 70.945312 C 30.925781 70.945312 30.644531 70.78125 30.433594 70.457031 C 30.21875 70.128906 30.109375 69.707031 30.109375 69.179688 C 30.109375 68.652344 30.21875 68.226562 30.433594 67.902344 C 30.648438 67.582031 30.933594 67.417969 31.285156 67.417969 C 31.640625 67.417969 31.921875 67.582031 32.136719 67.902344 C 32.351562 68.226562 32.460938 68.648438 32.460938 69.171875 C 32.460938 69.710938 32.351562 70.140625 32.136719 70.464844 C 31.921875 70.785156 31.632812 70.945312 31.273438 70.945312 Z M 31.277344 70.609375 C 31.75 70.609375 31.988281 70.128906 31.988281 69.167969 C 31.988281 68.226562 31.753906 67.753906 31.285156 67.753906 C 30.820312 67.753906 30.585938 68.230469 30.585938 69.179688 C 30.585938 70.132812 30.816406 70.609375 31.277344 70.609375 "/>
<path style="fill:none;stroke-width:25;stroke-linecap:round;stroke-linejoin:round;stroke:rgb(30.200195%,30.200195%,100%);stroke-opacity:1;stroke-miterlimit:10;" d="M -96.796875 339.726562 L 271.640625 339.726562 L 289.21875 339.765625 L 324.296875 339.765625 L 359.375 339.84375 L 376.953125 339.882812 L 412.03125 340.039062 L 447.109375 340.351562 L 464.648438 340.585938 L 482.226562 340.898438 L 499.765625 341.289062 L 517.304688 341.835938 L 534.84375 342.5 L 552.382812 343.398438 L 569.921875 344.492188 L 587.5 345.898438 L 605.039062 347.65625 L 622.578125 349.804688 L 640.117188 352.460938 L 657.65625 355.664062 L 675.234375 359.492188 L 692.773438 364.0625 L 710.3125 369.414062 L 727.851562 375.664062 L 745.390625 382.851562 L 762.929688 391.015625 L 780.507812 400.234375 L 798.046875 410.507812 L 815.585938 421.875 L 833.125 434.21875 L 850.664062 447.539062 L 868.203125 461.679688 L 885.78125 476.523438 L 903.320312 491.914062 L 920.859375 507.578125 L 938.398438 523.320312 L 955.9375 538.867188 L 973.476562 553.90625 L 991.054688 568.164062 L 1008.59375 581.328125 L 1026.132812 593.125 L 1043.671875 603.28125 L 1061.210938 611.523438 L 1078.789062 617.65625 L 1096.328125 621.5625 L 1113.867188 623.164062 L 1131.40625 622.34375 L 1148.945312 619.21875 L 1166.484375 613.75 L 1184.0625 606.171875 L 1201.601562 596.640625 L 1219.140625 585.390625 L 1236.679688 572.617188 L 1254.21875 558.710938 L 1271.796875 543.867188 L 1289.335938 528.4375 L 1324.414062 497.03125 L 1341.953125 481.523438 L 1359.492188 466.484375 L 1377.03125 452.070312 L 1394.609375 438.476562 L 1412.148438 425.820312 L 1429.6875 414.140625 L 1447.226562 403.515625 L 1464.765625 393.945312 L 1482.34375 385.390625 L 1499.882812 377.890625 L 1517.421875 371.367188 L 1534.960938 365.742188 L 1552.5 360.9375 L 1570.078125 356.835938 L 1587.617188 353.4375 L 1605.15625 350.625 L 1622.695312 348.320312 L 1640.234375 346.445312 L 1657.773438 344.921875 L 1675.3125 343.710938 L 1692.890625 342.773438 L 1710.429688 342.03125 L 1727.96875 341.445312 L 1745.507812 341.015625 L 1763.046875 340.664062 L 1780.625 340.429688 L 1798.164062 340.234375 L 1815.703125 340.078125 L 1850.78125 339.921875 L 1868.359375 339.84375 L 1885.898438 339.804688 L 1903.4375 339.804688 L 1920.976562 339.765625 L 1938.515625 339.765625 L 1956.054688 339.726562 L 2149.0625 339.726562 " transform="matrix(0.1,0,0,-0.1,0,99)"/>
<path style=" stroke:none;fill-rule:nonzero;fill:rgb(100%,0%,0%);fill-opacity:1;" d="M 113.222656 36.679688 C 113.222656 37.535156 112.53125 38.230469 111.675781 38.230469 C 110.820312 38.230469 110.125 37.535156 110.125 36.679688 C 110.125 35.824219 110.820312 35.132812 111.675781 35.132812 C 112.53125 35.132812 113.222656 35.824219 113.222656 36.679688 "/>
<path style="fill:none;stroke-width:10;stroke-linecap:round;stroke-linejoin:round;stroke:rgb(0%,0%,0%);stroke-opacity:1;stroke-miterlimit:10;" d="M 1132.226562 623.203125 C 1132.226562 614.648438 1125.3125 607.695312 1116.757812 607.695312 C 1108.203125 607.695312 1101.25 614.648438 1101.25 623.203125 C 1101.25 631.757812 1108.203125 638.671875 1116.757812 638.671875 C 1125.3125 638.671875 1132.226562 631.757812 1132.226562 623.203125 Z M 1132.226562 623.203125 " transform="matrix(0.1,0,0,-0.1,0,99)"/>
<path style=" stroke:none;fill-rule:nonzero;fill:rgb(100%,0%,0%);fill-opacity:1;" d="M 99.21875 34.347656 C 99.21875 34.425781 99.21875 34.460938 99.21875 34.460938 C 99.144531 34.460938 98.988281 34.347656 98.757812 34.117188 C 98.453125 33.8125 98.222656 33.464844 98.070312 33.082031 C 97.6875 32.394531 97.496094 31.628906 97.496094 30.785156 C 97.496094 29.941406 97.648438 29.175781 97.953125 28.484375 C 98.261719 27.949219 98.605469 27.527344 98.988281 27.21875 C 99.066406 27.144531 99.144531 27.105469 99.21875 27.105469 C 99.21875 27.105469 99.21875 27.144531 99.21875 27.21875 C 99.21875 27.21875 99.179688 27.257812 99.105469 27.335938 C 98.339844 28.101562 97.953125 29.25 97.953125 30.785156 C 97.953125 32.316406 98.339844 33.464844 99.105469 34.234375 C 99.179688 34.308594 99.21875 34.347656 99.21875 34.347656 "/>
<path style=" stroke:none;fill-rule:nonzero;fill:rgb(100%,0%,0%);fill-opacity:1;" d="M 100.355469 32.164062 L 100.699219 30.4375 C 100.777344 30.132812 100.816406 29.941406 100.816406 29.863281 C 100.816406 29.632812 100.738281 29.519531 100.585938 29.519531 C 100.433594 29.519531 100.277344 29.75 100.125 30.210938 C 100.125 30.285156 100.125 30.363281 100.125 30.4375 C 100.050781 30.515625 100.011719 30.554688 100.011719 30.554688 C 99.933594 30.554688 99.894531 30.554688 99.894531 30.554688 C 99.894531 30.476562 99.933594 30.285156 100.011719 29.980469 C 100.011719 29.902344 100.050781 29.828125 100.125 29.75 C 100.203125 29.519531 100.355469 29.40625 100.585938 29.40625 C 100.585938 29.40625 100.625 29.40625 100.699219 29.40625 C 100.929688 29.40625 101.121094 29.519531 101.273438 29.75 C 101.273438 29.828125 101.273438 29.902344 101.273438 29.980469 C 101.660156 29.597656 102.042969 29.40625 102.425781 29.40625 C 102.730469 29.40625 102.960938 29.441406 103.113281 29.519531 C 103.191406 29.671875 103.269531 29.863281 103.34375 30.09375 C 103.652344 29.632812 104.035156 29.40625 104.496094 29.40625 C 104.953125 29.40625 105.222656 29.558594 105.300781 29.863281 C 105.375 29.941406 105.414062 30.054688 105.414062 30.210938 C 105.414062 30.4375 105.261719 30.976562 104.953125 31.820312 C 104.800781 31.972656 104.722656 32.125 104.722656 32.277344 C 104.722656 32.429688 104.800781 32.507812 104.953125 32.507812 C 105.261719 32.507812 105.492188 32.238281 105.644531 31.703125 L 105.757812 31.589844 C 105.757812 31.511719 105.757812 31.472656 105.757812 31.472656 L 105.875 31.472656 C 105.875 31.472656 105.875 31.511719 105.875 31.589844 C 105.875 31.664062 105.835938 31.820312 105.757812 32.046875 C 105.527344 32.507812 105.261719 32.738281 104.953125 32.738281 C 104.722656 32.738281 104.53125 32.625 104.378906 32.394531 C 104.378906 32.316406 104.378906 32.203125 104.378906 32.046875 C 104.378906 31.972656 104.378906 31.855469 104.378906 31.703125 C 104.6875 30.859375 104.839844 30.324219 104.839844 30.09375 C 104.839844 29.710938 104.722656 29.519531 104.496094 29.519531 C 104.035156 29.519531 103.691406 29.75 103.460938 30.210938 C 103.382812 30.363281 103.308594 30.476562 103.230469 30.554688 C 103.230469 30.554688 103.113281 31.128906 102.886719 32.277344 C 102.808594 32.507812 102.730469 32.625 102.65625 32.625 C 102.578125 32.699219 102.539062 32.738281 102.539062 32.738281 C 102.386719 32.660156 102.308594 32.585938 102.308594 32.507812 L 102.425781 32.046875 L 102.539062 31.472656 L 102.769531 30.667969 C 102.847656 30.363281 102.886719 30.171875 102.886719 30.09375 C 102.886719 29.710938 102.730469 29.519531 102.425781 29.519531 C 101.964844 29.519531 101.621094 29.789062 101.390625 30.324219 C 101.3125 30.324219 101.273438 30.363281 101.273438 30.4375 L 101.160156 30.785156 C 101.160156 30.9375 101.121094 31.089844 101.046875 31.242188 L 100.816406 31.933594 C 100.738281 32.316406 100.699219 32.507812 100.699219 32.507812 C 100.699219 32.660156 100.625 32.738281 100.472656 32.738281 C 100.316406 32.660156 100.242188 32.585938 100.242188 32.507812 C 100.242188 32.507812 100.277344 32.394531 100.355469 32.164062 "/>
<path style=" stroke:none;fill-rule:nonzero;fill:rgb(100%,0%,0%);fill-opacity:1;" d="M 107.621094 32.625 C 107.621094 33.082031 107.46875 33.503906 107.160156 33.886719 C 107.085938 33.964844 107.007812 34.003906 106.929688 34.003906 C 106.929688 33.925781 106.929688 33.886719 106.929688 33.886719 C 107.238281 33.582031 107.429688 33.199219 107.503906 32.738281 C 107.503906 32.738281 107.503906 32.699219 107.503906 32.625 C 107.503906 32.546875 107.46875 32.507812 107.390625 32.507812 C 107.3125 32.585938 107.238281 32.625 107.160156 32.625 C 107.007812 32.625 106.890625 32.546875 106.816406 32.394531 C 106.816406 32.316406 106.816406 32.277344 106.816406 32.277344 C 106.816406 32.046875 106.855469 31.894531 106.929688 31.820312 C 107.007812 31.820312 107.085938 31.820312 107.160156 31.820312 C 107.390625 31.820312 107.542969 31.972656 107.621094 32.277344 C 107.621094 32.355469 107.621094 32.46875 107.621094 32.625 "/>
<path style=" stroke:none;fill-rule:nonzero;fill:rgb(100%,0%,0%);fill-opacity:1;" d="M 114.570312 30.898438 L 113.878906 32.507812 C 113.878906 32.585938 113.878906 32.625 113.878906 32.625 L 113.765625 32.625 C 113.765625 32.625 113.726562 32.625 113.648438 32.625 L 109.855469 32.625 C 109.777344 32.625 109.703125 32.585938 109.625 32.507812 C 109.625 32.429688 109.664062 32.394531 109.742188 32.394531 L 109.855469 32.394531 C 110.160156 32.394531 110.355469 32.355469 110.429688 32.277344 C 110.507812 32.277344 110.546875 32.203125 110.546875 32.046875 L 111.464844 28.140625 C 111.542969 28.0625 111.578125 28.023438 111.578125 28.023438 C 111.578125 27.949219 111.464844 27.871094 111.234375 27.796875 L 111.121094 27.796875 C 110.96875 27.796875 110.890625 27.796875 110.890625 27.796875 C 110.890625 27.71875 110.929688 27.640625 111.003906 27.566406 L 114.800781 27.566406 C 114.953125 27.566406 115.027344 27.601562 115.027344 27.679688 C 115.027344 27.679688 115.027344 27.71875 115.027344 27.796875 L 114.914062 29.058594 C 114.835938 29.214844 114.800781 29.289062 114.800781 29.289062 C 114.722656 29.289062 114.683594 29.25 114.683594 29.175781 L 114.683594 29.058594 C 114.683594 28.90625 114.683594 28.792969 114.683594 28.714844 C 114.683594 28.332031 114.605469 28.101562 114.453125 28.023438 C 114.300781 27.871094 113.992188 27.796875 113.535156 27.796875 L 112.5 27.796875 C 112.347656 27.796875 112.269531 27.832031 112.269531 27.910156 C 112.191406 27.910156 112.15625 27.949219 112.15625 28.023438 C 112.15625 28.023438 112.15625 28.0625 112.15625 28.140625 L 111.695312 29.863281 L 112.386719 29.863281 C 112.769531 29.863281 113.035156 29.789062 113.1875 29.632812 C 113.265625 29.558594 113.34375 29.40625 113.417969 29.175781 C 113.417969 29.097656 113.417969 29.058594 113.417969 29.058594 C 113.496094 29.058594 113.535156 29.097656 113.535156 29.175781 L 113.1875 30.898438 C 113.113281 30.976562 113.074219 31.015625 113.074219 31.015625 C 112.996094 31.015625 112.960938 30.976562 112.960938 30.898438 C 112.960938 30.898438 112.960938 30.859375 112.960938 30.785156 C 112.960938 30.707031 112.960938 30.59375 112.960938 30.4375 C 112.960938 30.363281 112.921875 30.285156 112.84375 30.210938 C 112.769531 30.132812 112.613281 30.09375 112.386719 30.09375 L 111.695312 30.09375 L 111.121094 32.164062 C 111.121094 32.238281 111.121094 32.277344 111.121094 32.277344 C 111.121094 32.355469 111.160156 32.394531 111.234375 32.394531 C 111.234375 32.394531 111.273438 32.394531 111.351562 32.394531 L 112.5 32.394531 C 113.035156 32.394531 113.457031 32.238281 113.765625 31.933594 C 113.992188 31.78125 114.1875 31.472656 114.339844 31.015625 C 114.414062 30.9375 114.453125 30.859375 114.453125 30.785156 C 114.453125 30.707031 114.492188 30.667969 114.570312 30.667969 C 114.644531 30.667969 114.683594 30.707031 114.683594 30.785156 C 114.683594 30.785156 114.644531 30.824219 114.570312 30.898438 "/>
<path style=" stroke:none;fill-rule:nonzero;fill:rgb(100%,0%,0%);fill-opacity:1;" d="M 117.664062 34.347656 C 117.664062 34.425781 117.664062 34.460938 117.664062 34.460938 C 117.589844 34.460938 117.433594 34.347656 117.203125 34.117188 C 116.898438 33.8125 116.667969 33.464844 116.515625 33.082031 C 116.132812 32.394531 115.941406 31.628906 115.941406 30.785156 C 115.941406 29.941406 116.09375 29.175781 116.398438 28.484375 C 116.707031 27.949219 117.050781 27.527344 117.433594 27.21875 C 117.511719 27.144531 117.589844 27.105469 117.664062 27.105469 C 117.664062 27.105469 117.664062 27.144531 117.664062 27.21875 C 117.664062 27.21875 117.628906 27.257812 117.550781 27.335938 C 116.785156 28.101562 116.398438 29.25 116.398438 30.785156 C 116.398438 32.316406 116.785156 33.464844 117.550781 34.234375 C 117.628906 34.308594 117.664062 34.347656 117.664062 34.347656 "/>
<path style=" stroke:none;fill-rule:nonzero;fill:rgb(100%,0%,0%);fill-opacity:1;" d="M 118.800781 32.164062 L 119.144531 30.4375 C 119.222656 30.132812 119.261719 29.941406 119.261719 29.863281 C 119.261719 29.632812 119.183594 29.519531 119.03125 29.519531 C 118.878906 29.519531 118.726562 29.75 118.570312 30.210938 C 118.570312 30.285156 118.570312 30.363281 118.570312 30.4375 C 118.496094 30.515625 118.457031 30.554688 118.457031 30.554688 C 118.378906 30.554688 118.34375 30.554688 118.34375 30.554688 C 118.34375 30.476562 118.378906 30.285156 118.457031 29.980469 C 118.457031 29.902344 118.496094 29.828125 118.570312 29.75 C 118.648438 29.519531 118.800781 29.40625 119.03125 29.40625 C 119.03125 29.40625 119.070312 29.40625 119.144531 29.40625 C 119.378906 29.40625 119.566406 29.519531 119.722656 29.75 C 119.722656 29.828125 119.722656 29.902344 119.722656 29.980469 C 120.105469 29.597656 120.488281 29.40625 120.871094 29.40625 C 121.175781 29.40625 121.40625 29.441406 121.5625 29.519531 C 121.636719 29.671875 121.714844 29.863281 121.789062 30.09375 C 122.097656 29.632812 122.480469 29.40625 122.941406 29.40625 C 123.398438 29.40625 123.667969 29.558594 123.746094 29.863281 C 123.820312 29.941406 123.859375 30.054688 123.859375 30.210938 C 123.859375 30.4375 123.707031 30.976562 123.398438 31.820312 C 123.246094 31.972656 123.171875 32.125 123.171875 32.277344 C 123.171875 32.429688 123.246094 32.507812 123.398438 32.507812 C 123.707031 32.507812 123.9375 32.238281 124.089844 31.703125 L 124.203125 31.589844 C 124.203125 31.511719 124.203125 31.472656 124.203125 31.472656 L 124.320312 31.472656 C 124.320312 31.472656 124.320312 31.511719 124.320312 31.589844 C 124.320312 31.664062 124.28125 31.820312 124.203125 32.046875 C 123.976562 32.507812 123.707031 32.738281 123.398438 32.738281 C 123.171875 32.738281 122.980469 32.625 122.824219 32.394531 C 122.824219 32.316406 122.824219 32.203125 122.824219 32.046875 C 122.824219 31.972656 122.824219 31.855469 122.824219 31.703125 C 123.132812 30.859375 123.285156 30.324219 123.285156 30.09375 C 123.285156 29.710938 123.171875 29.519531 122.941406 29.519531 C 122.480469 29.519531 122.136719 29.75 121.90625 30.210938 C 121.828125 30.363281 121.753906 30.476562 121.675781 30.554688 C 121.675781 30.554688 121.5625 31.128906 121.332031 32.277344 C 121.253906 32.507812 121.175781 32.625 121.101562 32.625 C 121.023438 32.699219 120.984375 32.738281 120.984375 32.738281 C 120.832031 32.660156 120.757812 32.585938 120.757812 32.507812 L 120.871094 32.046875 L 120.984375 31.472656 L 121.214844 30.667969 C 121.292969 30.363281 121.332031 30.171875 121.332031 30.09375 C 121.332031 29.710938 121.175781 29.519531 120.871094 29.519531 C 120.410156 29.519531 120.066406 29.789062 119.835938 30.324219 C 119.761719 30.324219 119.722656 30.363281 119.722656 30.4375 L 119.605469 30.785156 C 119.605469 30.9375 119.566406 31.089844 119.492188 31.242188 L 119.261719 31.933594 C 119.183594 32.316406 119.144531 32.507812 119.144531 32.507812 C 119.144531 32.660156 119.070312 32.738281 118.917969 32.738281 C 118.761719 32.660156 118.6875 32.585938 118.6875 32.507812 C 118.6875 32.507812 118.726562 32.394531 118.800781 32.164062 "/>
<path style=" stroke:none;fill-rule:nonzero;fill:rgb(100%,0%,0%);fill-opacity:1;" d="M 126.640625 30.785156 C 126.640625 31.628906 126.488281 32.394531 126.179688 33.082031 C 125.949219 33.621094 125.644531 34.039062 125.261719 34.347656 C 125.183594 34.425781 125.109375 34.460938 125.03125 34.460938 C 125.03125 34.460938 125.03125 34.425781 125.03125 34.347656 C 125.03125 34.347656 125.03125 34.308594 125.03125 34.234375 C 125.875 33.464844 126.296875 32.316406 126.296875 30.785156 C 126.296875 29.25 125.914062 28.101562 125.144531 27.335938 C 125.070312 27.257812 125.03125 27.21875 125.03125 27.21875 C 125.03125 27.144531 125.03125 27.105469 125.03125 27.105469 C 125.109375 27.105469 125.261719 27.21875 125.492188 27.449219 C 125.796875 27.757812 126.027344 28.101562 126.179688 28.484375 C 126.488281 29.175781 126.640625 29.941406 126.640625 30.785156 "/>
<path style=" stroke:none;fill-rule:nonzero;fill:rgb(100%,0%,0%);fill-opacity:1;" d="M 129.503906 30.785156 C 129.503906 31.628906 129.347656 32.394531 129.042969 33.082031 C 128.8125 33.621094 128.507812 34.039062 128.121094 34.347656 C 128.046875 34.425781 127.96875 34.460938 127.894531 34.460938 C 127.894531 34.460938 127.894531 34.425781 127.894531 34.347656 C 127.894531 34.347656 127.894531 34.308594 127.894531 34.234375 C 128.734375 33.464844 129.15625 32.316406 129.15625 30.785156 C 129.15625 29.25 128.773438 28.101562 128.007812 27.335938 C 127.929688 27.257812 127.894531 27.21875 127.894531 27.21875 C 127.894531 27.144531 127.894531 27.105469 127.894531 27.105469 C 127.96875 27.105469 128.121094 27.21875 128.351562 27.449219 C 128.660156 27.757812 128.890625 28.101562 129.042969 28.484375 C 129.347656 29.175781 129.503906 29.941406 129.503906 30.785156 "/>
<path style=" stroke:none;fill-rule:nonzero;fill:rgb(100%,0%,0%);fill-opacity:1;" d="M 94.089844 47.835938 C 94.089844 48.691406 93.394531 49.382812 92.539062 49.382812 C 91.683594 49.382812 90.992188 48.691406 90.992188 47.835938 C 90.992188 46.980469 91.683594 46.285156 92.539062 46.285156 C 93.394531 46.285156 94.089844 46.980469 94.089844 47.835938 "/>
<path style="fill:none;stroke-width:10;stroke-linecap:round;stroke-linejoin:round;stroke:rgb(0%,0%,0%);stroke-opacity:1;stroke-miterlimit:10;" d="M 940.898438 511.640625 C 940.898438 503.085938 933.945312 496.171875 925.390625 496.171875 C 916.835938 496.171875 909.921875 503.085938 909.921875 511.640625 C 909.921875 520.195312 916.835938 527.148438 925.390625 527.148438 C 933.945312 527.148438 940.898438 520.195312 940.898438 511.640625 Z M 940.898438 511.640625 " transform="matrix(0.1,0,0,-0.1,0,99)"/>
<path style=" stroke:none;fill-rule:nonzero;fill:rgb(100%,0%,0%);fill-opacity:1;" d="M 70.566406 58.355469 C 70.566406 58.433594 70.566406 58.46875 70.566406 58.46875 C 70.488281 58.46875 70.335938 58.355469 70.105469 58.125 C 69.796875 57.820312 69.570312 57.472656 69.414062 57.089844 C 69.03125 56.402344 68.839844 55.636719 68.839844 54.792969 C 68.839844 53.949219 68.992188 53.183594 69.300781 52.492188 C 69.605469 51.957031 69.953125 51.535156 70.335938 51.226562 C 70.410156 51.152344 70.488281 51.113281 70.566406 51.113281 C 70.566406 51.113281 70.566406 51.152344 70.566406 51.226562 C 70.566406 51.226562 70.527344 51.265625 70.449219 51.34375 C 69.683594 52.109375 69.300781 53.257812 69.300781 54.792969 C 69.300781 56.324219 69.683594 57.472656 70.449219 58.238281 C 70.527344 58.316406 70.566406 58.355469 70.566406 58.355469 "/>
<path style=" stroke:none;fill-rule:nonzero;fill:rgb(100%,0%,0%);fill-opacity:1;" d="M 71.703125 56.171875 L 72.046875 54.445312 C 72.121094 54.140625 72.160156 53.949219 72.160156 53.871094 C 72.160156 53.640625 72.085938 53.527344 71.929688 53.527344 C 71.777344 53.527344 71.625 53.757812 71.472656 54.21875 C 71.472656 54.292969 71.472656 54.371094 71.472656 54.445312 C 71.394531 54.523438 71.355469 54.5625 71.355469 54.5625 C 71.28125 54.5625 71.242188 54.5625 71.242188 54.5625 C 71.242188 54.484375 71.28125 54.292969 71.355469 53.988281 C 71.355469 53.910156 71.394531 53.832031 71.472656 53.757812 C 71.546875 53.527344 71.703125 53.410156 71.929688 53.410156 C 71.929688 53.410156 71.96875 53.410156 72.046875 53.410156 C 72.277344 53.410156 72.46875 53.527344 72.621094 53.757812 C 72.621094 53.832031 72.621094 53.910156 72.621094 53.988281 C 73.003906 53.605469 73.386719 53.410156 73.769531 53.410156 C 74.078125 53.410156 74.308594 53.449219 74.460938 53.527344 C 74.535156 53.679688 74.613281 53.871094 74.691406 54.101562 C 74.996094 53.640625 75.378906 53.410156 75.839844 53.410156 C 76.300781 53.410156 76.566406 53.566406 76.644531 53.871094 C 76.722656 53.949219 76.761719 54.0625 76.761719 54.21875 C 76.761719 54.445312 76.605469 54.984375 76.300781 55.828125 C 76.148438 55.980469 76.070312 56.132812 76.070312 56.285156 C 76.070312 56.441406 76.148438 56.515625 76.300781 56.515625 C 76.605469 56.515625 76.835938 56.246094 76.988281 55.710938 L 77.105469 55.597656 C 77.105469 55.519531 77.105469 55.480469 77.105469 55.480469 L 77.21875 55.480469 C 77.21875 55.480469 77.21875 55.519531 77.21875 55.597656 C 77.21875 55.671875 77.179688 55.828125 77.105469 56.054688 C 76.875 56.515625 76.605469 56.746094 76.300781 56.746094 C 76.070312 56.746094 75.878906 56.632812 75.726562 56.402344 C 75.726562 56.324219 75.726562 56.210938 75.726562 56.054688 C 75.726562 55.980469 75.726562 55.863281 75.726562 55.710938 C 76.03125 54.867188 76.183594 54.332031 76.183594 54.101562 C 76.183594 53.71875 76.070312 53.527344 75.839844 53.527344 C 75.378906 53.527344 75.035156 53.757812 74.804688 54.21875 C 74.730469 54.371094 74.652344 54.484375 74.574219 54.5625 C 74.574219 54.5625 74.460938 55.136719 74.230469 56.285156 C 74.152344 56.515625 74.078125 56.632812 74 56.632812 C 73.925781 56.707031 73.886719 56.746094 73.886719 56.746094 C 73.730469 56.667969 73.65625 56.59375 73.65625 56.515625 L 73.769531 56.054688 L 73.886719 55.480469 L 74.117188 54.675781 C 74.191406 54.371094 74.230469 54.179688 74.230469 54.101562 C 74.230469 53.71875 74.078125 53.527344 73.769531 53.527344 C 73.3125 53.527344 72.964844 53.796875 72.734375 54.332031 C 72.660156 54.332031 72.621094 54.371094 72.621094 54.445312 L 72.507812 54.792969 C 72.507812 54.945312 72.46875 55.097656 72.390625 55.25 L 72.160156 55.941406 C 72.085938 56.324219 72.046875 56.515625 72.046875 56.515625 C 72.046875 56.667969 71.96875 56.746094 71.816406 56.746094 C 71.664062 56.667969 71.585938 56.59375 71.585938 56.515625 C 71.585938 56.515625 71.625 56.402344 71.703125 56.171875 "/>
<path style=" stroke:none;fill-rule:nonzero;fill:rgb(100%,0%,0%);fill-opacity:1;" d="M 83.933594 54.90625 L 79.910156 54.90625 C 79.757812 54.90625 79.679688 54.867188 79.679688 54.792969 C 79.679688 54.714844 79.757812 54.675781 79.910156 54.675781 L 83.933594 54.675781 C 84.089844 54.675781 84.164062 54.714844 84.164062 54.792969 C 84.164062 54.867188 84.089844 54.90625 83.933594 54.90625 "/>
<path style=" stroke:none;fill-rule:nonzero;fill:rgb(100%,0%,0%);fill-opacity:1;" d="M 89.335938 53.871094 C 89.261719 53.640625 89.03125 53.527344 88.648438 53.527344 C 88.265625 53.527344 87.996094 53.679688 87.84375 53.988281 C 87.84375 54.0625 87.84375 54.140625 87.84375 54.21875 C 87.84375 54.371094 87.957031 54.484375 88.1875 54.5625 C 88.265625 54.5625 88.339844 54.601562 88.417969 54.675781 C 88.722656 54.753906 88.914062 54.832031 88.992188 54.90625 C 89.070312 54.90625 89.109375 54.90625 89.109375 54.90625 C 89.261719 55.058594 89.335938 55.25 89.335938 55.480469 C 89.335938 55.710938 89.261719 55.941406 89.109375 56.171875 C 88.800781 56.554688 88.378906 56.746094 87.84375 56.746094 C 87.460938 56.746094 87.152344 56.59375 86.921875 56.285156 C 86.847656 56.210938 86.808594 56.09375 86.808594 55.941406 C 86.808594 55.710938 86.921875 55.558594 87.152344 55.480469 C 87.152344 55.480469 87.191406 55.480469 87.269531 55.480469 C 87.421875 55.558594 87.5 55.671875 87.5 55.828125 C 87.5 55.902344 87.460938 55.980469 87.382812 56.054688 C 87.304688 56.132812 87.191406 56.171875 87.039062 56.171875 C 87.191406 56.402344 87.5 56.515625 87.957031 56.515625 C 88.417969 56.515625 88.722656 56.324219 88.878906 55.941406 C 88.953125 55.863281 88.992188 55.789062 88.992188 55.710938 C 88.992188 55.480469 88.839844 55.328125 88.53125 55.25 C 88.457031 55.25 88.339844 55.214844 88.1875 55.136719 C 87.726562 55.058594 87.5 54.867188 87.5 54.5625 C 87.421875 54.5625 87.382812 54.523438 87.382812 54.445312 C 87.382812 54.21875 87.5 53.988281 87.726562 53.757812 C 87.957031 53.527344 88.265625 53.410156 88.648438 53.410156 C 89.03125 53.410156 89.300781 53.527344 89.453125 53.757812 C 89.53125 53.832031 89.566406 53.910156 89.566406 53.988281 C 89.566406 54.21875 89.492188 54.371094 89.335938 54.445312 C 89.261719 54.445312 89.222656 54.445312 89.222656 54.445312 C 89.070312 54.445312 88.992188 54.371094 88.992188 54.21875 C 88.992188 54.0625 89.070312 53.949219 89.222656 53.871094 C 89.222656 53.871094 89.261719 53.871094 89.335938 53.871094 "/>
<path style=" stroke:none;fill-rule:nonzero;fill:rgb(100%,0%,0%);fill-opacity:1;" d="M 91.40625 56.632812 C 91.40625 57.089844 91.253906 57.511719 90.945312 57.894531 C 90.871094 57.972656 90.792969 58.011719 90.71875 58.011719 C 90.71875 57.933594 90.71875 57.894531 90.71875 57.894531 C 91.023438 57.589844 91.214844 57.207031 91.292969 56.746094 C 91.292969 56.746094 91.292969 56.707031 91.292969 56.632812 C 91.292969 56.554688 91.253906 56.515625 91.175781 56.515625 C 91.101562 56.59375 91.023438 56.632812 90.945312 56.632812 C 90.792969 56.632812 90.679688 56.554688 90.601562 56.402344 C 90.601562 56.324219 90.601562 56.285156 90.601562 56.285156 C 90.601562 56.054688 90.640625 55.902344 90.71875 55.828125 C 90.792969 55.828125 90.871094 55.828125 90.945312 55.828125 C 91.175781 55.828125 91.332031 55.980469 91.40625 56.285156 C 91.40625 56.363281 91.40625 56.476562 91.40625 56.632812 "/>
<path style=" stroke:none;fill-rule:nonzero;fill:rgb(100%,0%,0%);fill-opacity:1;" d="M 98.355469 54.90625 L 97.664062 56.515625 C 97.664062 56.59375 97.664062 56.632812 97.664062 56.632812 L 97.550781 56.632812 C 97.550781 56.632812 97.511719 56.632812 97.433594 56.632812 L 93.640625 56.632812 C 93.566406 56.632812 93.488281 56.59375 93.410156 56.515625 C 93.410156 56.441406 93.449219 56.402344 93.527344 56.402344 L 93.640625 56.402344 C 93.949219 56.402344 94.140625 56.363281 94.21875 56.285156 C 94.292969 56.285156 94.332031 56.210938 94.332031 56.054688 L 95.25 52.148438 C 95.328125 52.070312 95.367188 52.03125 95.367188 52.03125 C 95.367188 51.957031 95.25 51.878906 95.023438 51.800781 L 94.90625 51.800781 C 94.753906 51.800781 94.675781 51.800781 94.675781 51.800781 C 94.675781 51.726562 94.714844 51.648438 94.792969 51.574219 L 98.585938 51.574219 C 98.738281 51.574219 98.816406 51.609375 98.816406 51.6875 C 98.816406 51.6875 98.816406 51.726562 98.816406 51.800781 L 98.699219 53.066406 C 98.625 53.21875 98.585938 53.296875 98.585938 53.296875 C 98.507812 53.296875 98.46875 53.257812 98.46875 53.183594 L 98.46875 53.066406 C 98.46875 52.914062 98.46875 52.800781 98.46875 52.722656 C 98.46875 52.339844 98.394531 52.109375 98.238281 52.03125 C 98.085938 51.878906 97.78125 51.800781 97.320312 51.800781 L 96.285156 51.800781 C 96.132812 51.800781 96.054688 51.839844 96.054688 51.917969 C 95.980469 51.917969 95.941406 51.957031 95.941406 52.03125 C 95.941406 52.03125 95.941406 52.070312 95.941406 52.148438 L 95.480469 53.871094 L 96.171875 53.871094 C 96.554688 53.871094 96.824219 53.796875 96.976562 53.640625 C 97.050781 53.566406 97.128906 53.410156 97.207031 53.183594 C 97.207031 53.105469 97.207031 53.066406 97.207031 53.066406 C 97.28125 53.066406 97.320312 53.105469 97.320312 53.183594 L 96.976562 54.90625 C 96.898438 54.984375 96.859375 55.023438 96.859375 55.023438 C 96.785156 55.023438 96.746094 54.984375 96.746094 54.90625 C 96.746094 54.90625 96.746094 54.867188 96.746094 54.792969 C 96.746094 54.714844 96.746094 54.601562 96.746094 54.445312 C 96.746094 54.371094 96.707031 54.292969 96.632812 54.21875 C 96.554688 54.140625 96.402344 54.101562 96.171875 54.101562 L 95.480469 54.101562 L 94.90625 56.171875 C 94.90625 56.246094 94.90625 56.285156 94.90625 56.285156 C 94.90625 56.363281 94.945312 56.402344 95.023438 56.402344 C 95.023438 56.402344 95.058594 56.402344 95.136719 56.402344 L 96.285156 56.402344 C 96.824219 56.402344 97.242188 56.246094 97.550781 55.941406 C 97.78125 55.789062 97.972656 55.480469 98.125 55.023438 C 98.203125 54.945312 98.238281 54.867188 98.238281 54.792969 C 98.238281 54.714844 98.277344 54.675781 98.355469 54.675781 C 98.433594 54.675781 98.46875 54.714844 98.46875 54.792969 C 98.46875 54.792969 98.433594 54.832031 98.355469 54.90625 "/>
<path style=" stroke:none;fill-rule:nonzero;fill:rgb(100%,0%,0%);fill-opacity:1;" d="M 101.453125 58.355469 C 101.453125 58.433594 101.453125 58.46875 101.453125 58.46875 C 101.375 58.46875 101.222656 58.355469 100.992188 58.125 C 100.683594 57.820312 100.453125 57.472656 100.300781 57.089844 C 99.917969 56.402344 99.726562 55.636719 99.726562 54.792969 C 99.726562 53.949219 99.878906 53.183594 100.1875 52.492188 C 100.492188 51.957031 100.839844 51.535156 101.222656 51.226562 C 101.296875 51.152344 101.375 51.113281 101.453125 51.113281 C 101.453125 51.113281 101.453125 51.152344 101.453125 51.226562 C 101.453125 51.226562 101.414062 51.265625 101.335938 51.34375 C 100.570312 52.109375 100.1875 53.257812 100.1875 54.792969 C 100.1875 56.324219 100.570312 57.472656 101.335938 58.238281 C 101.414062 58.316406 101.453125 58.355469 101.453125 58.355469 "/>
<path style=" stroke:none;fill-rule:nonzero;fill:rgb(100%,0%,0%);fill-opacity:1;" d="M 102.589844 56.171875 L 102.933594 54.445312 C 103.011719 54.140625 103.046875 53.949219 103.046875 53.871094 C 103.046875 53.640625 102.972656 53.527344 102.816406 53.527344 C 102.664062 53.527344 102.511719 53.757812 102.359375 54.21875 C 102.359375 54.292969 102.359375 54.371094 102.359375 54.445312 C 102.28125 54.523438 102.242188 54.5625 102.242188 54.5625 C 102.167969 54.5625 102.128906 54.5625 102.128906 54.5625 C 102.128906 54.484375 102.167969 54.292969 102.242188 53.988281 C 102.242188 53.910156 102.28125 53.832031 102.359375 53.757812 C 102.433594 53.527344 102.589844 53.410156 102.816406 53.410156 C 102.816406 53.410156 102.855469 53.410156 102.933594 53.410156 C 103.164062 53.410156 103.355469 53.527344 103.507812 53.757812 C 103.507812 53.832031 103.507812 53.910156 103.507812 53.988281 C 103.890625 53.605469 104.273438 53.410156 104.65625 53.410156 C 104.964844 53.410156 105.195312 53.449219 105.347656 53.527344 C 105.425781 53.679688 105.5 53.871094 105.578125 54.101562 C 105.882812 53.640625 106.265625 53.410156 106.726562 53.410156 C 107.1875 53.410156 107.453125 53.566406 107.53125 53.871094 C 107.609375 53.949219 107.644531 54.0625 107.644531 54.21875 C 107.644531 54.445312 107.492188 54.984375 107.1875 55.828125 C 107.03125 55.980469 106.957031 56.132812 106.957031 56.285156 C 106.957031 56.441406 107.03125 56.515625 107.1875 56.515625 C 107.492188 56.515625 107.722656 56.246094 107.875 55.710938 L 107.992188 55.597656 C 107.992188 55.519531 107.992188 55.480469 107.992188 55.480469 L 108.105469 55.480469 C 108.105469 55.480469 108.105469 55.519531 108.105469 55.597656 C 108.105469 55.671875 108.066406 55.828125 107.992188 56.054688 C 107.761719 56.515625 107.492188 56.746094 107.1875 56.746094 C 106.957031 56.746094 106.765625 56.632812 106.613281 56.402344 C 106.613281 56.324219 106.613281 56.210938 106.613281 56.054688 C 106.613281 55.980469 106.613281 55.863281 106.613281 55.710938 C 106.917969 54.867188 107.070312 54.332031 107.070312 54.101562 C 107.070312 53.71875 106.957031 53.527344 106.726562 53.527344 C 106.265625 53.527344 105.921875 53.757812 105.691406 54.21875 C 105.617188 54.371094 105.539062 54.484375 105.460938 54.5625 C 105.460938 54.5625 105.347656 55.136719 105.117188 56.285156 C 105.039062 56.515625 104.964844 56.632812 104.886719 56.632812 C 104.8125 56.707031 104.773438 56.746094 104.773438 56.746094 C 104.617188 56.667969 104.542969 56.59375 104.542969 56.515625 L 104.65625 56.054688 L 104.773438 55.480469 L 105.003906 54.675781 C 105.078125 54.371094 105.117188 54.179688 105.117188 54.101562 C 105.117188 53.71875 104.964844 53.527344 104.65625 53.527344 C 104.199219 53.527344 103.851562 53.796875 103.621094 54.332031 C 103.546875 54.332031 103.507812 54.371094 103.507812 54.445312 L 103.394531 54.792969 C 103.394531 54.945312 103.355469 55.097656 103.277344 55.25 L 103.046875 55.941406 C 102.972656 56.324219 102.933594 56.515625 102.933594 56.515625 C 102.933594 56.667969 102.855469 56.746094 102.703125 56.746094 C 102.550781 56.667969 102.472656 56.59375 102.472656 56.515625 C 102.472656 56.515625 102.511719 56.402344 102.589844 56.171875 "/>
<path style=" stroke:none;fill-rule:nonzero;fill:rgb(100%,0%,0%);fill-opacity:1;" d="M 114.820312 54.90625 L 110.796875 54.90625 C 110.644531 54.90625 110.566406 54.867188 110.566406 54.792969 C 110.566406 54.714844 110.644531 54.675781 110.796875 54.675781 L 114.820312 54.675781 C 114.976562 54.675781 115.050781 54.714844 115.050781 54.792969 C 115.050781 54.867188 114.976562 54.90625 114.820312 54.90625 "/>
<path style=" stroke:none;fill-rule:nonzero;fill:rgb(100%,0%,0%);fill-opacity:1;" d="M 120.222656 53.871094 C 120.148438 53.640625 119.917969 53.527344 119.535156 53.527344 C 119.152344 53.527344 118.882812 53.679688 118.730469 53.988281 C 118.730469 54.0625 118.730469 54.140625 118.730469 54.21875 C 118.730469 54.371094 118.84375 54.484375 119.074219 54.5625 C 119.152344 54.5625 119.226562 54.601562 119.304688 54.675781 C 119.609375 54.753906 119.804688 54.832031 119.878906 54.90625 C 119.957031 54.90625 119.996094 54.90625 119.996094 54.90625 C 120.148438 55.058594 120.222656 55.25 120.222656 55.480469 C 120.222656 55.710938 120.148438 55.941406 119.996094 56.171875 C 119.6875 56.554688 119.265625 56.746094 118.730469 56.746094 C 118.347656 56.746094 118.039062 56.59375 117.808594 56.285156 C 117.734375 56.210938 117.695312 56.09375 117.695312 55.941406 C 117.695312 55.710938 117.808594 55.558594 118.039062 55.480469 C 118.039062 55.480469 118.078125 55.480469 118.15625 55.480469 C 118.308594 55.558594 118.386719 55.671875 118.386719 55.828125 C 118.386719 55.902344 118.347656 55.980469 118.269531 56.054688 C 118.191406 56.132812 118.078125 56.171875 117.925781 56.171875 C 118.078125 56.402344 118.386719 56.515625 118.84375 56.515625 C 119.304688 56.515625 119.609375 56.324219 119.765625 55.941406 C 119.839844 55.863281 119.878906 55.789062 119.878906 55.710938 C 119.878906 55.480469 119.726562 55.328125 119.421875 55.25 C 119.34375 55.25 119.226562 55.214844 119.074219 55.136719 C 118.613281 55.058594 118.386719 54.867188 118.386719 54.5625 C 118.308594 54.5625 118.269531 54.523438 118.269531 54.445312 C 118.269531 54.21875 118.386719 53.988281 118.613281 53.757812 C 118.84375 53.527344 119.152344 53.410156 119.535156 53.410156 C 119.917969 53.410156 120.1875 53.527344 120.339844 53.757812 C 120.414062 53.832031 120.453125 53.910156 120.453125 53.988281 C 120.453125 54.21875 120.378906 54.371094 120.222656 54.445312 C 120.148438 54.445312 120.109375 54.445312 120.109375 54.445312 C 119.957031 54.445312 119.878906 54.371094 119.878906 54.21875 C 119.878906 54.0625 119.957031 53.949219 120.109375 53.871094 C 120.109375 53.871094 120.148438 53.871094 120.222656 53.871094 "/>
<path style=" stroke:none;fill-rule:nonzero;fill:rgb(100%,0%,0%);fill-opacity:1;" d="M 122.867188 54.792969 C 122.867188 55.636719 122.714844 56.402344 122.410156 57.089844 C 122.179688 57.628906 121.871094 58.046875 121.488281 58.355469 C 121.410156 58.433594 121.335938 58.46875 121.257812 58.46875 C 121.257812 58.46875 121.257812 58.433594 121.257812 58.355469 C 121.257812 58.355469 121.257812 58.316406 121.257812 58.238281 C 122.101562 57.472656 122.523438 56.324219 122.523438 54.792969 C 122.523438 53.257812 122.140625 52.109375 121.375 51.34375 C 121.296875 51.265625 121.257812 51.226562 121.257812 51.226562 C 121.257812 51.152344 121.257812 51.113281 121.257812 51.113281 C 121.335938 51.113281 121.488281 51.226562 121.71875 51.457031 C 122.023438 51.765625 122.253906 52.109375 122.410156 52.492188 C 122.714844 53.183594 122.867188 53.949219 122.867188 54.792969 "/>
<path style=" stroke:none;fill-rule:nonzero;fill:rgb(100%,0%,0%);fill-opacity:1;" d="M 125.730469 54.792969 C 125.730469 55.636719 125.574219 56.402344 125.269531 57.089844 C 125.039062 57.628906 124.734375 58.046875 124.351562 58.355469 C 124.273438 58.433594 124.195312 58.46875 124.121094 58.46875 C 124.121094 58.46875 124.121094 58.433594 124.121094 58.355469 C 124.121094 58.355469 124.121094 58.316406 124.121094 58.238281 C 124.964844 57.472656 125.382812 56.324219 125.382812 54.792969 C 125.382812 53.257812 125 52.109375 124.234375 51.34375 C 124.15625 51.265625 124.121094 51.226562 124.121094 51.226562 C 124.121094 51.152344 124.121094 51.113281 124.121094 51.113281 C 124.195312 51.113281 124.351562 51.226562 124.578125 51.457031 C 124.886719 51.765625 125.117188 52.109375 125.269531 52.492188 C 125.574219 53.183594 125.730469 53.949219 125.730469 54.792969 "/>
<path style=" stroke:none;fill-rule:nonzero;fill:rgb(100%,0%,0%);fill-opacity:1;" d="M 132.355469 47.835938 C 132.355469 48.691406 131.664062 49.382812 130.808594 49.382812 C 129.953125 49.382812 129.257812 48.691406 129.257812 47.835938 C 129.257812 46.980469 129.953125 46.285156 130.808594 46.285156 C 131.664062 46.285156 132.355469 46.980469 132.355469 47.835938 "/>
<path style="fill:none;stroke-width:10;stroke-linecap:round;stroke-linejoin:round;stroke:rgb(0%,0%,0%);stroke-opacity:1;stroke-miterlimit:10;" d="M 1323.554688 511.640625 C 1323.554688 503.085938 1316.640625 496.171875 1308.085938 496.171875 C 1299.53125 496.171875 1292.578125 503.085938 1292.578125 511.640625 C 1292.578125 520.195312 1299.53125 527.148438 1308.085938 527.148438 C 1316.640625 527.148438 1323.554688 520.195312 1323.554688 511.640625 Z M 1323.554688 511.640625 " transform="matrix(0.1,0,0,-0.1,0,99)"/>
<path style=" stroke:none;fill-rule:nonzero;fill:rgb(100%,0%,0%);fill-opacity:1;" d="M 135.617188 47.902344 C 135.617188 47.976562 135.617188 48.015625 135.617188 48.015625 C 135.539062 48.015625 135.386719 47.902344 135.15625 47.671875 C 134.851562 47.363281 134.621094 47.019531 134.46875 46.636719 C 134.085938 45.945312 133.894531 45.179688 133.894531 44.335938 C 133.894531 43.492188 134.046875 42.726562 134.355469 42.039062 C 134.660156 41.5 135.003906 41.078125 135.386719 40.773438 C 135.464844 40.695312 135.539062 40.65625 135.617188 40.65625 C 135.617188 40.65625 135.617188 40.695312 135.617188 40.773438 C 135.617188 40.773438 135.578125 40.8125 135.503906 40.886719 C 134.734375 41.65625 134.355469 42.804688 134.355469 44.335938 C 134.355469 45.871094 134.734375 47.019531 135.503906 47.785156 C 135.578125 47.863281 135.617188 47.902344 135.617188 47.902344 "/>
<path style=" stroke:none;fill-rule:nonzero;fill:rgb(100%,0%,0%);fill-opacity:1;" d="M 136.753906 45.714844 L 137.101562 43.992188 C 137.175781 43.683594 137.214844 43.492188 137.214844 43.417969 C 137.214844 43.1875 137.136719 43.074219 136.984375 43.074219 C 136.832031 43.074219 136.679688 43.300781 136.523438 43.761719 C 136.523438 43.839844 136.523438 43.914062 136.523438 43.992188 C 136.449219 44.070312 136.410156 44.105469 136.410156 44.105469 C 136.332031 44.105469 136.296875 44.105469 136.296875 44.105469 C 136.296875 44.03125 136.332031 43.839844 136.410156 43.53125 C 136.410156 43.457031 136.449219 43.378906 136.523438 43.300781 C 136.601562 43.074219 136.753906 42.957031 136.984375 42.957031 C 136.984375 42.957031 137.023438 42.957031 137.101562 42.957031 C 137.328125 42.957031 137.519531 43.074219 137.675781 43.300781 C 137.675781 43.378906 137.675781 43.457031 137.675781 43.53125 C 138.058594 43.148438 138.441406 42.957031 138.824219 42.957031 C 139.128906 42.957031 139.359375 42.996094 139.515625 43.074219 C 139.589844 43.226562 139.667969 43.417969 139.742188 43.648438 C 140.050781 43.1875 140.433594 42.957031 140.894531 42.957031 C 141.351562 42.957031 141.621094 43.109375 141.699219 43.417969 C 141.773438 43.492188 141.8125 43.609375 141.8125 43.761719 C 141.8125 43.992188 141.660156 44.527344 141.351562 45.371094 C 141.199219 45.523438 141.121094 45.675781 141.121094 45.832031 C 141.121094 45.984375 141.199219 46.0625 141.351562 46.0625 C 141.660156 46.0625 141.890625 45.792969 142.042969 45.257812 L 142.15625 45.140625 C 142.15625 45.066406 142.15625 45.027344 142.15625 45.027344 L 142.273438 45.027344 C 142.273438 45.027344 142.273438 45.066406 142.273438 45.140625 C 142.273438 45.21875 142.234375 45.371094 142.15625 45.601562 C 141.929688 46.0625 141.660156 46.289062 141.351562 46.289062 C 141.121094 46.289062 140.929688 46.175781 140.777344 45.945312 C 140.777344 45.871094 140.777344 45.753906 140.777344 45.601562 C 140.777344 45.523438 140.777344 45.410156 140.777344 45.257812 C 141.085938 44.414062 141.238281 43.878906 141.238281 43.648438 C 141.238281 43.265625 141.121094 43.074219 140.894531 43.074219 C 140.433594 43.074219 140.089844 43.300781 139.859375 43.761719 C 139.78125 43.914062 139.703125 44.03125 139.628906 44.105469 C 139.628906 44.105469 139.515625 44.679688 139.285156 45.832031 C 139.207031 46.0625 139.128906 46.175781 139.054688 46.175781 C 138.976562 46.253906 138.9375 46.289062 138.9375 46.289062 C 138.785156 46.214844 138.710938 46.136719 138.710938 46.0625 L 138.824219 45.601562 L 138.9375 45.027344 L 139.167969 44.222656 C 139.246094 43.914062 139.285156 43.722656 139.285156 43.648438 C 139.285156 43.265625 139.128906 43.074219 138.824219 43.074219 C 138.363281 43.074219 138.019531 43.339844 137.789062 43.878906 C 137.714844 43.878906 137.675781 43.914062 137.675781 43.992188 L 137.558594 44.335938 C 137.558594 44.488281 137.519531 44.644531 137.445312 44.796875 L 137.214844 45.484375 C 137.136719 45.871094 137.101562 46.0625 137.101562 46.0625 C 137.101562 46.214844 137.023438 46.289062 136.871094 46.289062 C 136.714844 46.214844 136.640625 46.136719 136.640625 46.0625 C 136.640625 46.0625 136.679688 45.945312 136.753906 45.714844 "/>
<path style=" stroke:none;fill-rule:nonzero;fill:rgb(100%,0%,0%);fill-opacity:1;" d="M 147.148438 44.453125 L 147.148438 46.519531 C 147.148438 46.675781 147.109375 46.75 147.035156 46.75 C 146.957031 46.75 146.917969 46.675781 146.917969 46.519531 L 146.917969 44.453125 L 144.847656 44.453125 C 144.695312 44.453125 144.621094 44.414062 144.621094 44.335938 C 144.621094 44.261719 144.695312 44.222656 144.847656 44.222656 L 146.917969 44.222656 L 146.917969 42.152344 C 146.917969 42 146.957031 41.921875 147.035156 41.921875 C 147.109375 41.921875 147.148438 42 147.148438 42.152344 L 147.148438 44.222656 L 149.21875 44.222656 C 149.371094 44.222656 149.449219 44.261719 149.449219 44.335938 C 149.449219 44.414062 149.371094 44.453125 149.21875 44.453125 L 147.148438 44.453125 "/>
<path style=" stroke:none;fill-rule:nonzero;fill:rgb(100%,0%,0%);fill-opacity:1;" d="M 154.390625 43.417969 C 154.3125 43.1875 154.085938 43.074219 153.699219 43.074219 C 153.316406 43.074219 153.050781 43.226562 152.894531 43.53125 C 152.894531 43.609375 152.894531 43.683594 152.894531 43.761719 C 152.894531 43.914062 153.011719 44.03125 153.242188 44.105469 C 153.316406 44.105469 153.394531 44.144531 153.472656 44.222656 C 153.777344 44.296875 153.96875 44.375 154.046875 44.453125 C 154.121094 44.453125 154.160156 44.453125 154.160156 44.453125 C 154.3125 44.605469 154.390625 44.796875 154.390625 45.027344 C 154.390625 45.257812 154.3125 45.484375 154.160156 45.714844 C 153.855469 46.097656 153.433594 46.289062 152.894531 46.289062 C 152.511719 46.289062 152.207031 46.136719 151.976562 45.832031 C 151.898438 45.753906 151.863281 45.640625 151.863281 45.484375 C 151.863281 45.257812 151.976562 45.101562 152.207031 45.027344 C 152.207031 45.027344 152.246094 45.027344 152.320312 45.027344 C 152.476562 45.101562 152.550781 45.21875 152.550781 45.371094 C 152.550781 45.449219 152.511719 45.523438 152.4375 45.601562 C 152.359375 45.675781 152.246094 45.714844 152.089844 45.714844 C 152.246094 45.945312 152.550781 46.0625 153.011719 46.0625 C 153.472656 46.0625 153.777344 45.871094 153.929688 45.484375 C 154.007812 45.410156 154.046875 45.332031 154.046875 45.257812 C 154.046875 45.027344 153.894531 44.871094 153.585938 44.796875 C 153.507812 44.796875 153.394531 44.757812 153.242188 44.679688 C 152.78125 44.605469 152.550781 44.414062 152.550781 44.105469 C 152.476562 44.105469 152.4375 44.070312 152.4375 43.992188 C 152.4375 43.761719 152.550781 43.53125 152.78125 43.300781 C 153.011719 43.074219 153.316406 42.957031 153.699219 42.957031 C 154.085938 42.957031 154.351562 43.074219 154.503906 43.300781 C 154.582031 43.378906 154.621094 43.457031 154.621094 43.53125 C 154.621094 43.761719 154.542969 43.914062 154.390625 43.992188 C 154.3125 43.992188 154.277344 43.992188 154.277344 43.992188 C 154.121094 43.992188 154.046875 43.914062 154.046875 43.761719 C 154.046875 43.609375 154.121094 43.492188 154.277344 43.417969 C 154.277344 43.417969 154.3125 43.417969 154.390625 43.417969 "/>
<path style=" stroke:none;fill-rule:nonzero;fill:rgb(100%,0%,0%);fill-opacity:1;" d="M 156.460938 46.175781 C 156.460938 46.636719 156.308594 47.058594 156 47.441406 C 155.921875 47.515625 155.847656 47.554688 155.769531 47.554688 C 155.769531 47.480469 155.769531 47.441406 155.769531 47.441406 C 156.078125 47.132812 156.269531 46.75 156.34375 46.289062 C 156.34375 46.289062 156.34375 46.253906 156.34375 46.175781 C 156.34375 46.097656 156.308594 46.0625 156.230469 46.0625 C 156.152344 46.136719 156.078125 46.175781 156 46.175781 C 155.847656 46.175781 155.730469 46.097656 155.65625 45.945312 C 155.65625 45.871094 155.65625 45.832031 155.65625 45.832031 C 155.65625 45.601562 155.691406 45.449219 155.769531 45.371094 C 155.847656 45.371094 155.921875 45.371094 156 45.371094 C 156.230469 45.371094 156.382812 45.523438 156.460938 45.832031 C 156.460938 45.90625 156.460938 46.023438 156.460938 46.175781 "/>
<path style=" stroke:none;fill-rule:nonzero;fill:rgb(100%,0%,0%);fill-opacity:1;" d="M 163.40625 44.453125 L 162.71875 46.0625 C 162.71875 46.136719 162.71875 46.175781 162.71875 46.175781 L 162.605469 46.175781 C 162.605469 46.175781 162.566406 46.175781 162.488281 46.175781 L 158.695312 46.175781 C 158.617188 46.175781 158.542969 46.136719 158.464844 46.0625 C 158.464844 45.984375 158.503906 45.945312 158.578125 45.945312 L 158.695312 45.945312 C 159.003906 45.945312 159.191406 45.90625 159.269531 45.832031 C 159.347656 45.832031 159.386719 45.753906 159.386719 45.601562 L 160.304688 41.691406 C 160.382812 41.617188 160.421875 41.578125 160.421875 41.578125 C 160.421875 41.5 160.304688 41.425781 160.074219 41.347656 L 159.960938 41.347656 C 159.804688 41.347656 159.730469 41.347656 159.730469 41.347656 C 159.730469 41.269531 159.769531 41.195312 159.84375 41.117188 L 163.636719 41.117188 C 163.789062 41.117188 163.867188 41.15625 163.867188 41.234375 C 163.867188 41.234375 163.867188 41.269531 163.867188 41.347656 L 163.753906 42.613281 C 163.675781 42.765625 163.636719 42.84375 163.636719 42.84375 C 163.5625 42.84375 163.523438 42.804688 163.523438 42.726562 L 163.523438 42.613281 C 163.523438 42.460938 163.523438 42.34375 163.523438 42.269531 C 163.523438 41.882812 163.445312 41.65625 163.292969 41.578125 C 163.140625 41.425781 162.835938 41.347656 162.375 41.347656 L 161.339844 41.347656 C 161.1875 41.347656 161.109375 41.386719 161.109375 41.464844 C 161.03125 41.464844 160.992188 41.5 160.992188 41.578125 C 160.992188 41.578125 160.992188 41.617188 160.992188 41.691406 L 160.535156 43.417969 L 161.222656 43.417969 C 161.605469 43.417969 161.875 43.339844 162.027344 43.1875 C 162.105469 43.109375 162.183594 42.957031 162.257812 42.726562 C 162.257812 42.652344 162.257812 42.613281 162.257812 42.613281 C 162.335938 42.613281 162.375 42.652344 162.375 42.726562 L 162.027344 44.453125 C 161.953125 44.527344 161.914062 44.566406 161.914062 44.566406 C 161.835938 44.566406 161.800781 44.527344 161.800781 44.453125 C 161.800781 44.453125 161.800781 44.414062 161.800781 44.335938 C 161.800781 44.261719 161.800781 44.144531 161.800781 43.992188 C 161.800781 43.914062 161.761719 43.839844 161.683594 43.761719 C 161.605469 43.683594 161.453125 43.648438 161.222656 43.648438 L 160.535156 43.648438 L 159.960938 45.714844 C 159.960938 45.792969 159.960938 45.832031 159.960938 45.832031 C 159.960938 45.90625 159.996094 45.945312 160.074219 45.945312 C 160.074219 45.945312 160.113281 45.945312 160.1875 45.945312 L 161.339844 45.945312 C 161.875 45.945312 162.296875 45.792969 162.605469 45.484375 C 162.835938 45.332031 163.023438 45.027344 163.179688 44.566406 C 163.253906 44.488281 163.292969 44.414062 163.292969 44.335938 C 163.292969 44.261719 163.332031 44.222656 163.40625 44.222656 C 163.484375 44.222656 163.523438 44.261719 163.523438 44.335938 C 163.523438 44.335938 163.484375 44.375 163.40625 44.453125 "/>
<path style=" stroke:none;fill-rule:nonzero;fill:rgb(100%,0%,0%);fill-opacity:1;" d="M 166.503906 47.902344 C 166.503906 47.976562 166.503906 48.015625 166.503906 48.015625 C 166.429688 48.015625 166.273438 47.902344 166.046875 47.671875 C 165.738281 47.363281 165.507812 47.019531 165.355469 46.636719 C 164.972656 45.945312 164.78125 45.179688 164.78125 44.335938 C 164.78125 43.492188 164.933594 42.726562 165.238281 42.039062 C 165.546875 41.5 165.890625 41.078125 166.273438 40.773438 C 166.351562 40.695312 166.429688 40.65625 166.503906 40.65625 C 166.503906 40.65625 166.503906 40.695312 166.503906 40.773438 C 166.503906 40.773438 166.464844 40.8125 166.390625 40.886719 C 165.621094 41.65625 165.238281 42.804688 165.238281 44.335938 C 165.238281 45.871094 165.621094 47.019531 166.390625 47.785156 C 166.464844 47.863281 166.503906 47.902344 166.503906 47.902344 "/>
<path style=" stroke:none;fill-rule:nonzero;fill:rgb(100%,0%,0%);fill-opacity:1;" d="M 167.640625 45.714844 L 167.984375 43.992188 C 168.0625 43.683594 168.101562 43.492188 168.101562 43.417969 C 168.101562 43.1875 168.023438 43.074219 167.871094 43.074219 C 167.71875 43.074219 167.5625 43.300781 167.410156 43.761719 C 167.410156 43.839844 167.410156 43.914062 167.410156 43.992188 C 167.335938 44.070312 167.296875 44.105469 167.296875 44.105469 C 167.21875 44.105469 167.183594 44.105469 167.183594 44.105469 C 167.183594 44.03125 167.21875 43.839844 167.296875 43.53125 C 167.296875 43.457031 167.335938 43.378906 167.410156 43.300781 C 167.488281 43.074219 167.640625 42.957031 167.871094 42.957031 C 167.871094 42.957031 167.910156 42.957031 167.984375 42.957031 C 168.214844 42.957031 168.40625 43.074219 168.5625 43.300781 C 168.5625 43.378906 168.5625 43.457031 168.5625 43.53125 C 168.945312 43.148438 169.328125 42.957031 169.710938 42.957031 C 170.015625 42.957031 170.246094 42.996094 170.398438 43.074219 C 170.476562 43.226562 170.554688 43.417969 170.628906 43.648438 C 170.9375 43.1875 171.320312 42.957031 171.78125 42.957031 C 172.238281 42.957031 172.507812 43.109375 172.585938 43.417969 C 172.660156 43.492188 172.699219 43.609375 172.699219 43.761719 C 172.699219 43.992188 172.546875 44.527344 172.238281 45.371094 C 172.085938 45.523438 172.011719 45.675781 172.011719 45.832031 C 172.011719 45.984375 172.085938 46.0625 172.238281 46.0625 C 172.546875 46.0625 172.777344 45.792969 172.929688 45.257812 L 173.042969 45.140625 C 173.042969 45.066406 173.042969 45.027344 173.042969 45.027344 L 173.160156 45.027344 C 173.160156 45.027344 173.160156 45.066406 173.160156 45.140625 C 173.160156 45.21875 173.121094 45.371094 173.042969 45.601562 C 172.8125 46.0625 172.546875 46.289062 172.238281 46.289062 C 172.011719 46.289062 171.816406 46.175781 171.664062 45.945312 C 171.664062 45.871094 171.664062 45.753906 171.664062 45.601562 C 171.664062 45.523438 171.664062 45.410156 171.664062 45.257812 C 171.972656 44.414062 172.125 43.878906 172.125 43.648438 C 172.125 43.265625 172.011719 43.074219 171.78125 43.074219 C 171.320312 43.074219 170.976562 43.300781 170.746094 43.761719 C 170.667969 43.914062 170.59375 44.03125 170.515625 44.105469 C 170.515625 44.105469 170.398438 44.679688 170.171875 45.832031 C 170.09375 46.0625 170.015625 46.175781 169.941406 46.175781 C 169.863281 46.253906 169.824219 46.289062 169.824219 46.289062 C 169.671875 46.214844 169.597656 46.136719 169.597656 46.0625 L 169.710938 45.601562 L 169.824219 45.027344 L 170.054688 44.222656 C 170.132812 43.914062 170.171875 43.722656 170.171875 43.648438 C 170.171875 43.265625 170.015625 43.074219 169.710938 43.074219 C 169.25 43.074219 168.90625 43.339844 168.675781 43.878906 C 168.597656 43.878906 168.5625 43.914062 168.5625 43.992188 L 168.445312 44.335938 C 168.445312 44.488281 168.40625 44.644531 168.332031 44.796875 L 168.101562 45.484375 C 168.023438 45.871094 167.984375 46.0625 167.984375 46.0625 C 167.984375 46.214844 167.910156 46.289062 167.757812 46.289062 C 167.601562 46.214844 167.527344 46.136719 167.527344 46.0625 C 167.527344 46.0625 167.5625 45.945312 167.640625 45.714844 "/>
<path style=" stroke:none;fill-rule:nonzero;fill:rgb(100%,0%,0%);fill-opacity:1;" d="M 178.035156 44.453125 L 178.035156 46.519531 C 178.035156 46.675781 177.996094 46.75 177.921875 46.75 C 177.84375 46.75 177.804688 46.675781 177.804688 46.519531 L 177.804688 44.453125 L 175.734375 44.453125 C 175.582031 44.453125 175.507812 44.414062 175.507812 44.335938 C 175.507812 44.261719 175.582031 44.222656 175.734375 44.222656 L 177.804688 44.222656 L 177.804688 42.152344 C 177.804688 42 177.84375 41.921875 177.921875 41.921875 C 177.996094 41.921875 178.035156 42 178.035156 42.152344 L 178.035156 44.222656 L 180.105469 44.222656 C 180.257812 44.222656 180.335938 44.261719 180.335938 44.335938 C 180.335938 44.414062 180.257812 44.453125 180.105469 44.453125 L 178.035156 44.453125 "/>
<path style=" stroke:none;fill-rule:nonzero;fill:rgb(100%,0%,0%);fill-opacity:1;" d="M 185.277344 43.417969 C 185.199219 43.1875 184.972656 43.074219 184.589844 43.074219 C 184.203125 43.074219 183.9375 43.226562 183.78125 43.53125 C 183.78125 43.609375 183.78125 43.683594 183.78125 43.761719 C 183.78125 43.914062 183.898438 44.03125 184.128906 44.105469 C 184.203125 44.105469 184.28125 44.144531 184.359375 44.222656 C 184.664062 44.296875 184.855469 44.375 184.933594 44.453125 C 185.007812 44.453125 185.046875 44.453125 185.046875 44.453125 C 185.199219 44.605469 185.277344 44.796875 185.277344 45.027344 C 185.277344 45.257812 185.199219 45.484375 185.046875 45.714844 C 184.742188 46.097656 184.320312 46.289062 183.78125 46.289062 C 183.398438 46.289062 183.09375 46.136719 182.863281 45.832031 C 182.785156 45.753906 182.746094 45.640625 182.746094 45.484375 C 182.746094 45.257812 182.863281 45.101562 183.09375 45.027344 C 183.09375 45.027344 183.132812 45.027344 183.207031 45.027344 C 183.359375 45.101562 183.4375 45.21875 183.4375 45.371094 C 183.4375 45.449219 183.398438 45.523438 183.324219 45.601562 C 183.246094 45.675781 183.132812 45.714844 182.976562 45.714844 C 183.132812 45.945312 183.4375 46.0625 183.898438 46.0625 C 184.359375 46.0625 184.664062 45.871094 184.816406 45.484375 C 184.894531 45.410156 184.933594 45.332031 184.933594 45.257812 C 184.933594 45.027344 184.777344 44.871094 184.472656 44.796875 C 184.394531 44.796875 184.28125 44.757812 184.128906 44.679688 C 183.667969 44.605469 183.4375 44.414062 183.4375 44.105469 C 183.359375 44.105469 183.324219 44.070312 183.324219 43.992188 C 183.324219 43.761719 183.4375 43.53125 183.667969 43.300781 C 183.898438 43.074219 184.203125 42.957031 184.589844 42.957031 C 184.972656 42.957031 185.238281 43.074219 185.390625 43.300781 C 185.46875 43.378906 185.507812 43.457031 185.507812 43.53125 C 185.507812 43.761719 185.429688 43.914062 185.277344 43.992188 C 185.199219 43.992188 185.164062 43.992188 185.164062 43.992188 C 185.007812 43.992188 184.933594 43.914062 184.933594 43.761719 C 184.933594 43.609375 185.007812 43.492188 185.164062 43.417969 C 185.164062 43.417969 185.199219 43.417969 185.277344 43.417969 "/>
<path style=" stroke:none;fill-rule:nonzero;fill:rgb(100%,0%,0%);fill-opacity:1;" d="M 187.921875 44.335938 C 187.921875 45.179688 187.769531 45.945312 187.460938 46.636719 C 187.230469 47.171875 186.925781 47.59375 186.542969 47.902344 C 186.464844 47.976562 186.390625 48.015625 186.3125 48.015625 C 186.3125 48.015625 186.3125 47.976562 186.3125 47.902344 C 186.3125 47.902344 186.3125 47.863281 186.3125 47.785156 C 187.15625 47.019531 187.578125 45.871094 187.578125 44.335938 C 187.578125 42.804688 187.191406 41.65625 186.425781 40.886719 C 186.351562 40.8125 186.3125 40.773438 186.3125 40.773438 C 186.3125 40.695312 186.3125 40.65625 186.3125 40.65625 C 186.390625 40.65625 186.542969 40.773438 186.773438 41.003906 C 187.078125 41.308594 187.308594 41.65625 187.460938 42.039062 C 187.769531 42.726562 187.921875 43.492188 187.921875 44.335938 "/>
<path style=" stroke:none;fill-rule:nonzero;fill:rgb(100%,0%,0%);fill-opacity:1;" d="M 190.78125 44.335938 C 190.78125 45.179688 190.628906 45.945312 190.324219 46.636719 C 190.09375 47.171875 189.785156 47.59375 189.402344 47.902344 C 189.324219 47.976562 189.25 48.015625 189.171875 48.015625 C 189.171875 48.015625 189.171875 47.976562 189.171875 47.902344 C 189.171875 47.902344 189.171875 47.863281 189.171875 47.785156 C 190.015625 47.019531 190.4375 45.871094 190.4375 44.335938 C 190.4375 42.804688 190.054688 41.65625 189.289062 40.886719 C 189.210938 40.8125 189.171875 40.773438 189.171875 40.773438 C 189.171875 40.695312 189.171875 40.65625 189.171875 40.65625 C 189.25 40.65625 189.402344 40.773438 189.632812 41.003906 C 189.9375 41.308594 190.167969 41.65625 190.324219 42.039062 C 190.628906 42.726562 190.78125 43.492188 190.78125 44.335938 "/>
</g>
</svg>
