<?xml version="1.0" encoding="UTF-8"?>
<svg xmlns="http://www.w3.org/2000/svg" xmlns:xlink="http://www.w3.org/1999/xlink" width="399pt" height="332pt" viewBox="0 0 399 332" version="1.1">
<g id="surface1">
<rect x="0" y="0" width="399" height="332" style="fill:rgb(100%,100%,100%);fill-opacity:1;stroke:none;"/>
<path style="fill:none;stroke-width:10;stroke-linecap:butt;stroke-linejoin:miter;stroke:rgb(0%,0%,0%);stroke-opacity:1;stroke-miterlimit:10;" d="M -1396.132812 585.9375 L 4988.75 585.9375 " transform="matrix(0.1,0,0,-0.1,0,332)"/>
<path style="fill:none;stroke-width:55;stroke-linecap:round;stroke-linejoin:round;stroke:rgb(30.200195%,30.200195%,100%);stroke-opacity:1;stroke-miterlimit:10;" d="M 543.085938 585.9375 L 543.085938 2286.757812 " transform="matrix(0.1,0,0,-0.1,0,332)"/>
<path style=" stroke:none;fill-rule:nonzero;fill:rgb(0%,0%,100%);fill-opacity:1;" d="M 24.34375 177.859375 C 24.871094 176.804688 25.574219 176.277344 26.457031 176.277344 C 27.511719 176.277344 28.390625 176.71875 29.09375 177.597656 C 29.449219 177.949219 29.710938 178.476562 29.886719 179.179688 C 29.886719 179.355469 29.886719 179.621094 29.886719 179.972656 C 29.886719 181.203125 29.449219 182.171875 28.566406 182.878906 C 28.039062 183.40625 27.335938 183.667969 26.457031 183.667969 C 25.398438 183.667969 24.519531 183.140625 23.816406 182.085938 C 23.289062 181.203125 23.023438 179.886719 23.023438 178.125 C 23.023438 176.1875 23.550781 174.605469 24.605469 173.371094 C 25.488281 172.492188 26.457031 172.054688 27.511719 172.054688 C 28.390625 172.054688 29.007812 172.40625 29.359375 173.109375 C 29.535156 173.460938 29.625 173.726562 29.625 173.902344 C 29.625 174.429688 29.359375 174.691406 28.832031 174.691406 C 28.480469 174.691406 28.214844 174.605469 28.039062 174.429688 C 28.039062 174.253906 28.039062 174.078125 28.039062 173.902344 C 28.039062 173.550781 28.304688 173.371094 28.832031 173.371094 C 28.65625 172.84375 28.214844 172.582031 27.511719 172.582031 C 26.632812 172.582031 25.925781 172.933594 25.398438 173.636719 C 24.695312 174.515625 24.34375 175.75 24.34375 177.332031 Z M 26.457031 183.40625 C 27.160156 183.40625 27.6875 182.964844 28.039062 182.085938 C 28.214844 181.734375 28.304688 181.027344 28.304688 179.972656 C 28.304688 178.742188 28.214844 177.949219 28.039062 177.597656 C 27.6875 176.894531 27.160156 176.539062 26.457031 176.539062 C 25.574219 176.539062 24.960938 177.070312 24.605469 178.125 C 24.605469 178.652344 24.605469 179.179688 24.605469 179.710938 C 24.605469 180.765625 24.695312 181.558594 24.871094 182.085938 C 25.046875 182.613281 25.398438 182.964844 25.925781 183.140625 C 26.101562 183.316406 26.28125 183.40625 26.457031 183.40625 "/>
<path style=" stroke:none;fill-rule:nonzero;fill:rgb(0%,0%,100%);fill-opacity:1;" d="M 38.335938 178.125 C 38.335938 179.710938 38.160156 180.941406 37.808594 181.820312 C 37.101562 183.054688 36.136719 183.667969 34.902344 183.667969 C 33.847656 183.667969 33.054688 183.316406 32.527344 182.613281 C 32.351562 182.4375 32.175781 182.261719 32 182.085938 C 31.472656 181.203125 31.207031 179.886719 31.207031 178.125 C 31.207031 176.363281 31.472656 175.046875 32 174.164062 C 32.527344 172.933594 33.40625 172.230469 34.640625 172.054688 L 34.902344 172.054688 C 35.960938 172.054688 36.75 172.492188 37.28125 173.371094 C 37.457031 173.550781 37.632812 173.8125 37.808594 174.164062 C 38.160156 175.046875 38.335938 176.363281 38.335938 178.125 Z M 34.902344 183.40625 C 35.605469 183.40625 36.136719 183.054688 36.488281 182.347656 C 36.664062 181.996094 36.75 181.644531 36.75 181.292969 C 36.925781 180.589844 37.015625 179.445312 37.015625 177.859375 C 37.015625 176.277344 36.925781 175.132812 36.75 174.429688 C 36.574219 173.371094 36.136719 172.757812 35.429688 172.582031 C 35.253906 172.582031 35.078125 172.582031 34.902344 172.582031 C 34.023438 172.582031 33.40625 172.933594 33.054688 173.636719 C 33.054688 173.988281 32.96875 174.339844 32.792969 174.691406 C 32.792969 175.222656 32.792969 176.277344 32.792969 177.859375 C 32.792969 179.445312 32.878906 180.589844 33.054688 181.292969 C 33.230469 182.347656 33.671875 183.054688 34.375 183.40625 C 34.550781 183.40625 34.726562 183.40625 34.902344 183.40625 "/>
<path style="fill:none;stroke-width:55;stroke-linecap:round;stroke-linejoin:round;stroke:rgb(30.200195%,30.200195%,100%);stroke-opacity:1;stroke-miterlimit:10;" d="M 3377.734375 585.9375 L 3377.734375 2853.671875 " transform="matrix(0.1,0,0,-0.1,0,332)"/>
<path style=" stroke:none;fill-rule:nonzero;fill:rgb(0%,0%,100%);fill-opacity:1;" d="M 355.675781 148.183594 L 357.789062 149.503906 C 359.019531 148.796875 359.636719 148.007812 359.636719 147.125 C 359.636719 146.421875 359.285156 145.804688 358.578125 145.277344 C 358.226562 145.101562 357.789062 145.015625 357.261719 145.015625 C 356.378906 145.015625 355.765625 145.277344 355.410156 145.804688 C 355.058594 146.15625 354.882812 146.511719 354.882812 146.863281 C 354.882812 147.390625 355.148438 147.828125 355.675781 148.183594 Z M 358.316406 149.765625 C 359.195312 150.292969 359.722656 150.644531 359.898438 150.820312 C 360.429688 151.527344 360.691406 152.230469 360.691406 152.933594 C 360.691406 153.988281 360.339844 154.871094 359.636719 155.574219 C 358.933594 155.925781 358.140625 156.101562 357.261719 156.101562 C 356.203125 156.101562 355.324219 155.839844 354.621094 155.308594 C 354.09375 154.78125 353.828125 154.078125 353.828125 153.199219 C 353.828125 151.964844 354.621094 150.996094 356.203125 150.292969 C 355.5 149.765625 355.058594 149.414062 354.882812 149.238281 C 354.355469 148.710938 354.09375 148.09375 354.09375 147.390625 C 354.09375 146.511719 354.53125 145.804688 355.410156 145.277344 C 355.941406 144.75 356.554688 144.484375 357.261719 144.484375 C 358.316406 144.484375 359.109375 144.839844 359.636719 145.542969 C 360.164062 145.894531 360.429688 146.421875 360.429688 147.125 C 360.429688 148.183594 359.722656 149.0625 358.316406 149.765625 Z M 356.46875 150.558594 C 355.234375 151.261719 354.621094 152.140625 354.621094 153.199219 C 354.621094 154.078125 354.972656 154.78125 355.675781 155.308594 C 356.203125 155.660156 356.730469 155.839844 357.261719 155.839844 C 358.140625 155.839844 358.84375 155.484375 359.371094 154.78125 C 359.722656 154.429688 359.898438 154.078125 359.898438 153.726562 C 359.898438 153.023438 359.546875 152.40625 358.84375 151.878906 C 358.84375 151.878906 358.757812 151.878906 358.578125 151.878906 L 356.46875 150.558594 "/>
<path style=" stroke:none;fill-rule:nonzero;fill:rgb(0%,0%,100%);fill-opacity:1;" d="M 369.140625 150.558594 C 369.140625 152.140625 368.964844 153.375 368.613281 154.253906 C 367.90625 155.484375 366.941406 156.101562 365.707031 156.101562 C 364.652344 156.101562 363.859375 155.75 363.332031 155.046875 C 363.15625 154.871094 362.980469 154.695312 362.804688 154.519531 C 362.277344 153.636719 362.011719 152.316406 362.011719 150.558594 C 362.011719 148.796875 362.277344 147.476562 362.804688 146.597656 C 363.332031 145.367188 364.210938 144.660156 365.445312 144.484375 L 365.707031 144.484375 C 366.765625 144.484375 367.554688 144.925781 368.085938 145.804688 C 368.261719 145.980469 368.4375 146.246094 368.613281 146.597656 C 368.964844 147.476562 369.140625 148.796875 369.140625 150.558594 Z M 365.707031 155.839844 C 366.410156 155.839844 366.941406 155.484375 367.292969 154.78125 C 367.46875 154.429688 367.554688 154.078125 367.554688 153.726562 C 367.730469 153.023438 367.820312 151.878906 367.820312 150.292969 C 367.820312 148.710938 367.730469 147.566406 367.554688 146.863281 C 367.378906 145.804688 366.941406 145.191406 366.234375 145.015625 C 366.058594 145.015625 365.882812 145.015625 365.707031 145.015625 C 364.828125 145.015625 364.210938 145.367188 363.859375 146.070312 C 363.859375 146.421875 363.773438 146.773438 363.597656 147.125 C 363.597656 147.652344 363.597656 148.710938 363.597656 150.292969 C 363.597656 151.878906 363.683594 153.023438 363.859375 153.726562 C 364.035156 154.78125 364.476562 155.484375 365.179688 155.839844 C 365.355469 155.839844 365.53125 155.839844 365.707031 155.839844 "/>
<path style="fill:none;stroke-width:25;stroke-linecap:round;stroke-linejoin:round;stroke:rgb(30.200195%,30.200195%,30.200195%);stroke-opacity:1;stroke-miterlimit:10;" d="M 551.328125 358.75 L 3388.085938 358.75 " transform="matrix(0.1,0,0,-0.1,0,332)"/>
<path style=" stroke:none;fill-rule:nonzero;fill:rgb(0%,0%,0%);fill-opacity:1;" d="M 197.097656 308.636719 L 197.097656 318.140625 C 197.097656 318.492188 197.183594 318.667969 197.359375 318.667969 C 197.535156 318.84375 197.976562 318.933594 198.679688 318.933594 L 199.207031 318.933594 L 199.207031 319.460938 C 198.855469 319.460938 197.886719 319.460938 196.304688 319.460938 C 194.894531 319.460938 194.015625 319.460938 193.664062 319.460938 L 193.664062 318.933594 L 194.191406 318.933594 C 195.070312 318.933594 195.601562 318.84375 195.777344 318.667969 C 195.777344 318.492188 195.777344 318.316406 195.777344 318.140625 L 195.777344 309.429688 C 195.246094 309.605469 194.542969 309.695312 193.664062 309.695312 L 193.664062 309.164062 C 194.894531 309.164062 195.863281 308.8125 196.566406 308.109375 C 196.921875 308.109375 197.097656 308.199219 197.097656 308.375 C 197.097656 308.375 197.097656 308.460938 197.097656 308.636719 "/>
<path style=" stroke:none;fill-rule:nonzero;fill:rgb(0%,0%,0%);fill-opacity:1;" d="M 208.183594 314.179688 C 208.183594 315.765625 208.007812 316.996094 207.65625 317.878906 C 206.953125 319.109375 205.984375 319.726562 204.753906 319.726562 C 203.695312 319.726562 202.902344 319.375 202.375 318.667969 C 202.199219 318.492188 202.023438 318.316406 201.847656 318.140625 C 201.320312 317.261719 201.054688 315.941406 201.054688 314.179688 C 201.054688 312.421875 201.320312 311.101562 201.847656 310.222656 C 202.375 308.988281 203.257812 308.285156 204.488281 308.109375 L 204.753906 308.109375 C 205.808594 308.109375 206.601562 308.550781 207.128906 309.429688 C 207.304688 309.605469 207.480469 309.871094 207.65625 310.222656 C 208.007812 311.101562 208.183594 312.421875 208.183594 314.179688 Z M 204.753906 319.460938 C 205.457031 319.460938 205.984375 319.109375 206.335938 318.40625 C 206.511719 318.054688 206.601562 317.703125 206.601562 317.347656 C 206.777344 316.644531 206.863281 315.5 206.863281 313.917969 C 206.863281 312.332031 206.777344 311.191406 206.601562 310.484375 C 206.425781 309.429688 205.984375 308.8125 205.28125 308.636719 C 205.105469 308.636719 204.929688 308.636719 204.753906 308.636719 C 203.871094 308.636719 203.257812 308.988281 202.902344 309.695312 C 202.902344 310.046875 202.816406 310.398438 202.640625 310.75 C 202.640625 311.277344 202.640625 312.332031 202.640625 313.917969 C 202.640625 315.5 202.726562 316.644531 202.902344 317.347656 C 203.078125 318.40625 203.519531 319.109375 204.222656 319.460938 C 204.398438 319.460938 204.574219 319.460938 204.753906 319.460938 "/>
<path style=" stroke:none;fill-rule:nonzero;fill:rgb(0%,0%,0%);fill-opacity:1;" d="M 216.632812 314.179688 C 216.632812 315.765625 216.457031 316.996094 216.105469 317.878906 C 215.398438 319.109375 214.433594 319.726562 213.199219 319.726562 C 212.144531 319.726562 211.351562 319.375 210.824219 318.667969 C 210.648438 318.492188 210.472656 318.316406 210.296875 318.140625 C 209.769531 317.261719 209.503906 315.941406 209.503906 314.179688 C 209.503906 312.421875 209.769531 311.101562 210.296875 310.222656 C 210.824219 308.988281 211.703125 308.285156 212.9375 308.109375 L 213.199219 308.109375 C 214.257812 308.109375 215.046875 308.550781 215.574219 309.429688 C 215.753906 309.605469 215.929688 309.871094 216.105469 310.222656 C 216.457031 311.101562 216.632812 312.421875 216.632812 314.179688 Z M 213.199219 319.460938 C 213.902344 319.460938 214.433594 319.109375 214.785156 318.40625 C 214.960938 318.054688 215.046875 317.703125 215.046875 317.347656 C 215.222656 316.644531 215.3125 315.5 215.3125 313.917969 C 215.3125 312.332031 215.222656 311.191406 215.046875 310.484375 C 214.871094 309.429688 214.433594 308.8125 213.726562 308.636719 C 213.550781 308.636719 213.375 308.636719 213.199219 308.636719 C 212.320312 308.636719 211.703125 308.988281 211.351562 309.695312 C 211.351562 310.046875 211.265625 310.398438 211.089844 310.75 C 211.089844 311.277344 211.089844 312.332031 211.089844 313.917969 C 211.089844 315.5 211.175781 316.644531 211.351562 317.347656 C 211.527344 318.40625 211.96875 319.109375 212.671875 319.460938 C 212.847656 319.460938 213.023438 319.460938 213.199219 319.460938 "/>
<path style="fill:none;stroke-width:35;stroke-linecap:round;stroke-linejoin:round;stroke:rgb(30.200195%,30.200195%,30.200195%);stroke-opacity:1;stroke-miterlimit:10;" d="M 543.085938 585.9375 L 3377.734375 585.9375 " transform="matrix(0.1,0,0,-0.1,0,332)"/>
<path style="fill:none;stroke-width:25;stroke-linecap:butt;stroke-linejoin:round;stroke:rgb(30.200195%,30.200195%,30.200195%);stroke-opacity:1;stroke-dasharray:65,40;stroke-miterlimit:10;" d="M 543.085938 2286.757812 L 1413.90625 585.9375 " transform="matrix(0.1,0,0,-0.1,0,332)"/>
<path style=" stroke:none;fill-rule:nonzero;fill:rgb(0%,0%,0%);fill-opacity:1;" d="M 114.007812 175.234375 L 112.421875 181.570312 C 112.070312 182.625 111.453125 183.503906 110.574219 184.210938 C 109.871094 184.738281 109.164062 185.003906 108.460938 185.003906 C 107.757812 185.003906 107.230469 184.738281 106.878906 184.210938 C 106.703125 184.035156 106.613281 183.855469 106.613281 183.683594 C 106.613281 182.976562 106.878906 182.625 107.40625 182.625 C 107.40625 182.449219 107.492188 182.363281 107.671875 182.363281 C 108.023438 182.363281 108.199219 182.535156 108.199219 182.890625 C 108.199219 182.890625 108.199219 182.976562 108.199219 183.152344 C 108.199219 183.328125 108.109375 183.503906 107.933594 183.683594 C 107.757812 183.855469 107.492188 183.945312 107.140625 183.945312 C 107.316406 184.472656 107.757812 184.738281 108.460938 184.738281 C 109.164062 184.738281 109.78125 184.386719 110.308594 183.683594 C 110.839844 182.976562 111.191406 182.1875 111.367188 181.304688 C 111.367188 181.128906 111.367188 181.039062 111.367188 181.039062 C 110.839844 181.570312 110.308594 181.835938 109.78125 181.835938 C 108.902344 181.835938 108.285156 181.480469 107.933594 180.777344 C 107.757812 180.425781 107.671875 180.074219 107.671875 179.722656 C 107.671875 179.195312 107.933594 178.050781 108.460938 176.289062 C 108.460938 176.289062 108.550781 176.289062 108.726562 176.289062 C 108.902344 175.761719 108.988281 175.320312 108.988281 174.96875 C 108.988281 174.617188 108.8125 174.441406 108.460938 174.441406 C 107.933594 174.441406 107.40625 174.96875 106.878906 176.023438 C 106.878906 176.203125 106.878906 176.378906 106.878906 176.554688 C 106.703125 176.730469 106.613281 176.816406 106.613281 176.816406 C 106.4375 176.816406 106.351562 176.816406 106.351562 176.816406 C 106.351562 176.464844 106.4375 176.113281 106.613281 175.761719 C 107.140625 174.703125 107.757812 174.179688 108.460938 174.179688 C 109.164062 174.179688 109.605469 174.441406 109.78125 174.96875 C 109.957031 175.144531 110.046875 175.320312 110.046875 175.496094 C 110.046875 175.671875 109.871094 176.113281 109.519531 176.816406 C 108.988281 178.226562 108.726562 179.28125 108.726562 179.984375 C 108.726562 180.867188 109.078125 181.304688 109.78125 181.304688 C 110.484375 181.304688 111.015625 180.953125 111.367188 180.25 C 111.542969 180.074219 111.628906 179.984375 111.628906 179.984375 L 112.421875 176.816406 C 112.597656 176.464844 112.6875 176.023438 112.6875 175.496094 C 112.863281 174.96875 112.949219 174.703125 112.949219 174.703125 C 113.125 174.355469 113.390625 174.179688 113.742188 174.179688 C 113.917969 174.355469 114.007812 174.53125 114.007812 174.703125 C 114.007812 174.882812 114.007812 175.058594 114.007812 175.234375 "/>
<path style="fill:none;stroke-width:25;stroke-linecap:butt;stroke-linejoin:round;stroke:rgb(30.200195%,30.200195%,30.200195%);stroke-opacity:1;stroke-dasharray:65,40;stroke-miterlimit:10;" d="M 1413.90625 585.9375 L 3377.734375 2853.671875 " transform="matrix(0.1,0,0,-0.1,0,332)"/>
<path style=" stroke:none;fill-rule:nonzero;fill:rgb(0%,0%,0%);fill-opacity:1;" d="M 215.796875 162.464844 C 215.796875 162.289062 215.886719 162.199219 216.0625 162.199219 C 216.414062 162.199219 216.855469 162.375 217.382812 162.730469 C 217.734375 162.730469 217.996094 162.730469 218.175781 162.730469 C 218.878906 162.730469 219.40625 162.550781 219.757812 162.199219 C 220.109375 162.023438 220.285156 161.761719 220.285156 161.40625 C 220.464844 161.230469 220.550781 161.144531 220.550781 161.144531 C 220.726562 161.144531 220.8125 161.230469 220.8125 161.40625 C 220.8125 161.761719 220.636719 162.199219 220.285156 162.730469 C 219.582031 163.609375 218.878906 164.046875 218.175781 164.046875 C 217.820312 164.046875 217.46875 163.785156 217.117188 163.257812 C 216.765625 162.902344 216.503906 162.730469 216.328125 162.730469 C 216.148438 162.730469 216.0625 162.730469 216.0625 162.730469 C 215.535156 162.730469 215.09375 163.078125 214.742188 163.785156 C 214.566406 163.960938 214.480469 164.046875 214.480469 164.046875 C 214.300781 164.046875 214.214844 163.960938 214.214844 163.785156 C 214.214844 163.609375 214.480469 163.257812 215.007812 162.730469 C 215.183594 162.375 215.445312 162.023438 215.796875 161.671875 L 217.382812 160.089844 C 218.4375 159.207031 219.230469 158.503906 219.757812 157.976562 C 219.40625 157.976562 218.964844 157.886719 218.4375 157.710938 C 217.910156 157.535156 217.558594 157.449219 217.382812 157.449219 C 216.679688 157.449219 216.238281 157.625 216.0625 157.976562 C 216.0625 158.152344 216.0625 158.238281 216.0625 158.238281 C 215.886719 158.414062 215.796875 158.503906 215.796875 158.503906 C 215.621094 158.503906 215.535156 158.414062 215.535156 158.238281 C 215.535156 158.0625 215.710938 157.710938 216.0625 157.183594 C 216.414062 156.65625 216.941406 156.394531 217.644531 156.394531 C 217.996094 156.394531 218.351562 156.566406 218.703125 156.921875 C 219.054688 157.273438 219.316406 157.449219 219.496094 157.449219 C 219.496094 157.625 219.496094 157.710938 219.496094 157.710938 C 220.023438 157.710938 220.464844 157.359375 220.8125 156.65625 L 220.8125 156.394531 C 220.988281 156.394531 221.078125 156.394531 221.078125 156.394531 C 221.253906 156.394531 221.34375 156.394531 221.34375 156.394531 C 221.34375 156.566406 221.078125 156.921875 220.550781 157.449219 C 220.199219 157.976562 219.757812 158.503906 219.230469 159.03125 C 219.230469 159.03125 218.703125 159.472656 217.644531 160.351562 C 216.941406 161.054688 216.328125 161.761719 215.796875 162.464844 "/>
<path style="fill:none;stroke-width:25;stroke-linecap:round;stroke-linejoin:round;stroke:rgb(30.200195%,30.200195%,30.200195%);stroke-opacity:1;stroke-miterlimit:10;" d="M 543.085938 585.9375 L 1413.90625 585.9375 " transform="matrix(0.1,0,0,-0.1,0,332)"/>
<path style=" stroke:none;fill-rule:nonzero;fill:rgb(0%,0%,0%);fill-opacity:1;" d="M 91.800781 261.03125 L 91.273438 263.144531 C 91.097656 264.027344 91.011719 264.554688 91.011719 264.730469 C 91.011719 265.257812 91.1875 265.609375 91.539062 265.785156 C 91.714844 265.785156 91.890625 265.785156 92.066406 265.785156 C 92.59375 265.785156 93.035156 265.519531 93.386719 264.992188 C 93.738281 264.640625 94.003906 264.203125 94.179688 263.671875 C 94.179688 263.496094 94.265625 263.410156 94.441406 263.410156 C 94.617188 263.410156 94.707031 263.496094 94.707031 263.671875 C 94.707031 263.847656 94.53125 264.203125 94.179688 264.730469 C 93.472656 265.785156 92.769531 266.3125 92.066406 266.3125 C 91.1875 266.3125 90.570312 265.960938 90.21875 265.257812 C 90.21875 265.082031 90.21875 264.992188 90.21875 264.992188 C 89.867188 265.519531 89.425781 265.875 88.898438 266.050781 C 88.722656 266.226562 88.546875 266.3125 88.371094 266.3125 C 87.664062 266.3125 87.136719 266.050781 86.785156 265.519531 C 86.785156 265.519531 86.785156 265.34375 86.785156 264.992188 C 86.785156 264.640625 86.960938 264.378906 87.3125 264.203125 C 87.488281 264.203125 87.578125 264.203125 87.578125 264.203125 C 87.929688 264.203125 88.195312 264.289062 88.371094 264.464844 C 88.371094 264.640625 88.371094 264.730469 88.371094 264.730469 C 88.371094 265.082031 88.195312 265.34375 87.84375 265.519531 C 87.664062 265.519531 87.578125 265.519531 87.578125 265.519531 C 87.753906 265.699219 88.019531 265.785156 88.371094 265.785156 C 88.898438 265.785156 89.339844 265.433594 89.691406 264.730469 C 89.867188 264.554688 89.953125 264.378906 89.953125 264.203125 C 90.480469 261.914062 90.746094 260.503906 90.746094 259.976562 C 90.746094 259.273438 90.480469 258.921875 89.953125 258.921875 C 89.425781 258.921875 88.898438 259.273438 88.371094 259.976562 C 88.195312 260.152344 88.019531 260.417969 87.84375 260.769531 C 87.84375 260.769531 87.84375 260.855469 87.84375 261.03125 L 87.578125 261.296875 C 87.402344 261.296875 87.3125 261.296875 87.3125 261.296875 C 87.3125 260.945312 87.488281 260.503906 87.84375 259.976562 C 88.371094 259.097656 89.074219 258.65625 89.953125 258.65625 C 90.835938 258.65625 91.449219 259.097656 91.800781 259.976562 C 92.15625 259.273438 92.59375 258.832031 93.121094 258.65625 C 93.296875 258.65625 93.472656 258.65625 93.648438 258.65625 C 94.355469 258.65625 94.792969 258.832031 94.96875 259.183594 C 95.144531 259.359375 95.234375 259.535156 95.234375 259.714844 C 95.234375 260.242188 94.96875 260.503906 94.441406 260.503906 C 94.441406 260.679688 94.355469 260.769531 94.179688 260.769531 C 93.828125 260.769531 93.648438 260.59375 93.648438 260.242188 C 93.648438 260.242188 93.648438 260.152344 93.648438 259.976562 C 93.648438 259.625 93.828125 259.359375 94.179688 259.183594 C 94.179688 259.183594 94.265625 259.183594 94.441406 259.183594 C 94.265625 259.007812 94.003906 258.921875 93.648438 258.921875 C 92.769531 258.921875 92.242188 259.535156 92.066406 260.769531 C 91.890625 260.769531 91.800781 260.855469 91.800781 261.03125 "/>
<path style=" stroke:none;fill-rule:nonzero;fill:rgb(49.021912%,49.021912%,100%);fill-opacity:1;" d="M 145.839844 273.40625 C 145.839844 275.859375 143.847656 277.851562 141.390625 277.851562 C 138.9375 277.851562 136.945312 275.859375 136.945312 273.40625 C 136.945312 270.949219 138.9375 268.957031 141.390625 268.957031 C 143.847656 268.957031 145.839844 270.949219 145.839844 273.40625 "/>
<path style="fill:none;stroke-width:10;stroke-linecap:round;stroke-linejoin:round;stroke:rgb(0%,0%,0%);stroke-opacity:1;stroke-miterlimit:10;" d="M 1458.398438 585.9375 C 1458.398438 561.40625 1438.476562 541.484375 1413.90625 541.484375 C 1389.375 541.484375 1369.453125 561.40625 1369.453125 585.9375 C 1369.453125 610.507812 1389.375 630.429688 1413.90625 630.429688 C 1438.476562 630.429688 1458.398438 610.507812 1458.398438 585.9375 Z M 1458.398438 585.9375 " transform="matrix(0.1,0,0,-0.1,0,332)"/>
</g>
</svg>
