<?xml version="1.0" encoding="UTF-8"?>
<svg xmlns="http://www.w3.org/2000/svg" xmlns:xlink="http://www.w3.org/1999/xlink" width="180pt" height="120pt" viewBox="0 0 180 120" version="1.1">
<g id="surface1">
<path style="fill-rule:nonzero;fill:rgb(72.068787%,72.068787%,90.039062%);fill-opacity:1;stroke-width:5;stroke-linecap:round;stroke-linejoin:round;stroke:rgb(39.988708%,39.988708%,39.988708%);stroke-opacity:1;stroke-miterlimit:10;" d="M 1140 610 L 1660 610 L 1660 1130 L 1140 1130 Z M 1140 610 " transform="matrix(0.1,0,0,-0.1,0,120)"/>
<path style=" stroke:none;fill-rule:nonzero;fill:rgb(76.5625%,76.5625%,95.701599%);fill-opacity:1;" d="M 114 7 L 114 59 L 18 113 L 18 61 L 114 7 "/>
<path style="fill:none;stroke-width:5;stroke-linecap:round;stroke-linejoin:round;stroke:rgb(39.988708%,39.988708%,39.988708%);stroke-opacity:1;stroke-miterlimit:10;" d="M 1140 1130 L 1140 610 L 180 70 L 180 590 Z M 1140 1130 " transform="matrix(0.1,0,0,-0.1,0,120)"/>
<path style=" stroke:none;fill-rule:nonzero;fill:rgb(68.359375%,68.359375%,85.351562%);fill-opacity:1;" d="M 166 59 L 70 113 L 18 113 L 114 59 L 166 59 "/>
<path style="fill:none;stroke-width:5;stroke-linecap:round;stroke-linejoin:round;stroke:rgb(39.988708%,39.988708%,39.988708%);stroke-opacity:1;stroke-miterlimit:10;" d="M 1660 610 L 700 70 L 180 70 L 1140 610 Z M 1660 610 " transform="matrix(0.1,0,0,-0.1,0,120)"/>
<path style="fill:none;stroke-width:10;stroke-linecap:round;stroke-linejoin:round;stroke:rgb(50%,50%,50%);stroke-opacity:1;stroke-miterlimit:10;" d="M 180 70 L 700 70 L 700 590 L 180 590 Z M 180 70 " transform="matrix(0.1,0,0,-0.1,0,120)"/>
<path style="fill:none;stroke-width:10;stroke-linecap:round;stroke-linejoin:round;stroke:rgb(50%,50%,50%);stroke-opacity:1;stroke-miterlimit:10;" d="M 700 590 L 700 70 L 1660 610 L 1660 1130 Z M 700 590 " transform="matrix(0.1,0,0,-0.1,0,120)"/>
<path style="fill:none;stroke-width:10;stroke-linecap:round;stroke-linejoin:round;stroke:rgb(50%,50%,50%);stroke-opacity:1;stroke-miterlimit:10;" d="M 1140 1130 L 180 590 L 700 590 L 1660 1130 Z M 1140 1130 " transform="matrix(0.1,0,0,-0.1,0,120)"/>
</g>
</svg>
