<?xml version="1.0" encoding="UTF-8"?>
<svg xmlns="http://www.w3.org/2000/svg" xmlns:xlink="http://www.w3.org/1999/xlink" width="409pt" height="256pt" viewBox="0 0 409 256" version="1.1">
<g id="surface1">
<rect x="0" y="0" width="409" height="256" style="fill:rgb(100%,100%,100%);fill-opacity:1;stroke:none;"/>
<path style="fill:none;stroke-width:25;stroke-linecap:butt;stroke-linejoin:round;stroke:rgb(30.200195%,30.200195%,100%);stroke-opacity:1;stroke-dasharray:105,40,25,40;stroke-miterlimit:10;" d="M -28.359375 241.25 L 4121.5625 241.25 " transform="matrix(0.1,0,0,-0.1,0,256)"/>
<path style=" stroke:none;fill-rule:nonzero;fill:rgb(0%,0%,100%);fill-opacity:1;" d="M 15.605469 226.773438 L 14.226562 221.960938 L 15.082031 221.960938 L 16.136719 225.6875 L 17.273438 221.960938 L 18.144531 221.960938 L 19.144531 225.6875 L 20.351562 221.960938 L 21.101562 221.960938 L 19.53125 226.773438 L 18.65625 226.773438 L 17.636719 223.046875 L 16.484375 226.773438 Z M 24.328125 226.160156 C 23.804688 226.640625 23.304688 226.882812 22.820312 226.882812 C 22.421875 226.882812 22.089844 226.757812 21.828125 226.507812 C 21.5625 226.257812 21.433594 225.945312 21.433594 225.5625 C 21.433594 225.035156 21.652344 224.632812 22.09375 224.351562 C 22.535156 224.070312 23.167969 223.929688 23.992188 223.929688 L 24.199219 223.929688 L 24.199219 223.347656 C 24.199219 222.789062 23.914062 222.511719 23.339844 222.511719 C 22.882812 222.511719 22.382812 222.652344 21.847656 222.9375 L 21.847656 222.214844 C 22.4375 221.976562 22.988281 221.855469 23.5 221.855469 C 24.039062 221.855469 24.433594 221.976562 24.691406 222.21875 C 24.945312 222.460938 25.074219 222.835938 25.074219 223.347656 L 25.074219 225.527344 C 25.074219 226.027344 25.226562 226.277344 25.535156 226.277344 C 25.574219 226.277344 25.628906 226.269531 25.703125 226.257812 L 25.765625 226.742188 C 25.566406 226.835938 25.347656 226.882812 25.109375 226.882812 C 24.703125 226.882812 24.441406 226.640625 24.328125 226.160156 Z M 24.199219 225.6875 L 24.199219 224.441406 L 23.910156 224.433594 C 23.429688 224.433594 23.042969 224.523438 22.746094 224.707031 C 22.453125 224.886719 22.304688 225.125 22.304688 225.421875 C 22.304688 225.628906 22.378906 225.808594 22.527344 225.953125 C 22.675781 226.097656 22.855469 226.167969 23.066406 226.167969 C 23.429688 226.167969 23.808594 226.007812 24.199219 225.6875 Z M 28.394531 226.882812 C 27.953125 226.882812 27.605469 226.753906 27.359375 226.5 C 27.109375 226.246094 26.988281 225.894531 26.988281 225.441406 L 26.988281 222.617188 L 26.382812 222.617188 L 26.382812 221.960938 L 26.988281 221.960938 L 26.988281 221.089844 L 27.859375 221.003906 L 27.859375 221.960938 L 29.117188 221.960938 L 29.117188 222.617188 L 27.859375 222.617188 L 27.859375 225.285156 C 27.859375 225.914062 28.132812 226.226562 28.675781 226.226562 C 28.789062 226.226562 28.929688 226.207031 29.09375 226.167969 L 29.09375 226.773438 C 28.828125 226.84375 28.59375 226.882812 28.394531 226.882812 Z M 33.878906 226.617188 C 33.292969 226.792969 32.792969 226.882812 32.378906 226.882812 C 31.667969 226.882812 31.089844 226.648438 30.644531 226.175781 C 30.195312 225.707031 29.972656 225.09375 29.972656 224.34375 C 29.972656 223.613281 30.167969 223.015625 30.5625 222.550781 C 30.957031 222.085938 31.460938 221.851562 32.074219 221.851562 C 32.65625 221.851562 33.105469 222.058594 33.425781 222.472656 C 33.742188 222.882812 33.902344 223.472656 33.902344 224.234375 L 33.894531 224.503906 L 30.863281 224.503906 C 30.988281 225.648438 31.546875 226.21875 32.539062 226.21875 C 32.902344 226.21875 33.351562 226.121094 33.878906 225.925781 Z M 30.902344 223.847656 L 33.023438 223.847656 C 33.023438 222.953125 32.691406 222.507812 32.023438 222.507812 C 31.351562 222.507812 30.980469 222.953125 30.902344 223.847656 Z M 35.457031 226.773438 L 35.457031 221.960938 L 36.328125 221.960938 L 36.328125 222.863281 C 36.671875 222.191406 37.175781 221.855469 37.832031 221.855469 C 37.921875 221.855469 38.015625 221.863281 38.113281 221.878906 L 38.113281 222.691406 C 37.960938 222.640625 37.828125 222.617188 37.714844 222.617188 C 37.160156 222.617188 36.699219 222.945312 36.328125 223.601562 L 36.328125 226.773438 "/>
<path style="fill:none;stroke-width:65;stroke-linecap:round;stroke-linejoin:round;stroke:rgb(30.200195%,30.200195%,30.200195%);stroke-opacity:1;stroke-miterlimit:10;" d="M 209.765625 1091.640625 L 1060.15625 1091.640625 " transform="matrix(0.1,0,0,-0.1,0,256)"/>
<path style=" stroke:none;fill-rule:nonzero;fill:rgb(0%,0%,0%);fill-opacity:1;" d="M 55.550781 140.03125 L 55.550781 139.128906 C 55.195312 139.804688 54.660156 140.140625 53.945312 140.140625 C 53.367188 140.140625 52.914062 139.929688 52.582031 139.507812 C 52.25 139.085938 52.082031 138.507812 52.082031 137.777344 C 52.082031 136.976562 52.269531 136.332031 52.648438 135.847656 C 53.023438 135.359375 53.519531 135.113281 54.132812 135.113281 C 54.703125 135.113281 55.175781 135.335938 55.550781 135.769531 L 55.550781 133.039062 L 56.425781 133.039062 L 56.425781 140.03125 Z M 55.550781 136.367188 C 55.097656 135.96875 54.671875 135.769531 54.265625 135.769531 C 53.429688 135.769531 53.011719 136.410156 53.011719 137.6875 C 53.011719 138.8125 53.382812 139.375 54.128906 139.375 C 54.613281 139.375 55.085938 139.113281 55.550781 138.582031 Z M 60.015625 140.140625 C 59.328125 140.140625 58.777344 139.914062 58.367188 139.457031 C 57.957031 139.003906 57.75 138.390625 57.75 137.628906 C 57.75 136.851562 57.957031 136.242188 58.371094 135.789062 C 58.78125 135.339844 59.339844 135.113281 60.046875 135.113281 C 60.75 135.113281 61.308594 135.339844 61.722656 135.789062 C 62.132812 136.242188 62.339844 136.851562 62.339844 137.617188 C 62.339844 138.402344 62.132812 139.019531 61.71875 139.46875 C 61.304688 139.917969 60.738281 140.140625 60.015625 140.140625 Z M 60.027344 139.488281 C 60.953125 139.488281 61.414062 138.863281 61.414062 137.617188 C 61.414062 136.386719 60.957031 135.769531 60.046875 135.769531 C 59.136719 135.769531 58.679688 136.390625 58.679688 137.628906 C 58.679688 138.867188 59.128906 139.488281 60.027344 139.488281 Z M 65.679688 140.140625 C 65.03125 140.140625 64.492188 139.902344 64.0625 139.421875 C 63.636719 138.9375 63.421875 138.332031 63.421875 137.601562 C 63.421875 136.816406 63.632812 136.207031 64.054688 135.769531 C 64.480469 135.335938 65.070312 135.113281 65.832031 135.113281 C 66.207031 135.113281 66.625 135.167969 67.089844 135.269531 L 67.089844 136 C 66.59375 135.855469 66.195312 135.785156 65.882812 135.785156 C 65.4375 135.785156 65.078125 135.953125 64.808594 136.285156 C 64.539062 136.621094 64.402344 137.066406 64.402344 137.628906 C 64.402344 138.167969 64.542969 138.605469 64.820312 138.9375 C 65.097656 139.269531 65.460938 139.4375 65.910156 139.4375 C 66.308594 139.4375 66.71875 139.335938 67.140625 139.132812 L 67.140625 139.886719 C 66.578125 140.058594 66.089844 140.140625 65.679688 140.140625 Z M 68.335938 140.03125 L 68.335938 133.039062 L 69.210938 133.039062 L 69.210938 137.554688 L 71.246094 135.222656 L 72.1875 135.222656 L 70.242188 137.46875 L 72.589844 140.03125 L 71.472656 140.03125 L 69.210938 137.5625 L 69.210938 140.03125 "/>
<path style="fill:none;stroke-width:55;stroke-linecap:round;stroke-linejoin:round;stroke:rgb(100%,30.200195%,30.200195%);stroke-opacity:1;stroke-miterlimit:10;" d="M 1060.15625 1091.640625 L 1060.15625 2225.507812 " transform="matrix(0.1,0,0,-0.1,0,256)"/>
<path style=" stroke:none;fill-rule:nonzero;fill:rgb(100%,0%,0%);fill-opacity:1;" d="M 81.945312 106.0625 L 81.945312 99.503906 L 82.816406 99.503906 L 82.816406 100.410156 C 83.171875 99.734375 83.710938 99.398438 84.421875 99.398438 C 85.003906 99.398438 85.457031 99.609375 85.789062 100.03125 C 86.121094 100.453125 86.289062 101.03125 86.289062 101.765625 C 86.289062 102.5625 86.101562 103.203125 85.722656 103.691406 C 85.347656 104.179688 84.851562 104.425781 84.238281 104.425781 C 83.667969 104.425781 83.195312 104.207031 82.816406 103.769531 L 82.816406 106.0625 Z M 82.816406 103.167969 C 83.265625 103.570312 83.691406 103.769531 84.101562 103.769531 C 84.9375 103.769531 85.359375 103.132812 85.359375 101.851562 C 85.359375 100.722656 84.984375 100.160156 84.242188 100.160156 C 83.753906 100.160156 83.28125 100.425781 82.816406 100.953125 Z M 89.496094 104.425781 C 88.808594 104.425781 88.257812 104.199219 87.847656 103.742188 C 87.4375 103.285156 87.230469 102.675781 87.230469 101.910156 C 87.230469 101.136719 87.4375 100.523438 87.847656 100.074219 C 88.261719 99.625 88.820312 99.398438 89.527344 99.398438 C 90.230469 99.398438 90.789062 99.625 91.203125 100.074219 C 91.613281 100.523438 91.820312 101.132812 91.820312 101.902344 C 91.820312 102.6875 91.613281 103.304688 91.199219 103.753906 C 90.785156 104.199219 90.21875 104.425781 89.496094 104.425781 Z M 89.507812 103.769531 C 90.433594 103.769531 90.894531 103.148438 90.894531 101.902344 C 90.894531 100.671875 90.4375 100.054688 89.527344 100.054688 C 88.617188 100.054688 88.160156 100.671875 88.160156 101.910156 C 88.160156 103.148438 88.609375 103.769531 89.507812 103.769531 Z M 94.558594 104.425781 C 94.160156 104.425781 93.675781 104.332031 93.105469 104.144531 L 93.105469 103.34375 C 93.675781 103.628906 94.171875 103.769531 94.59375 103.769531 C 94.84375 103.769531 95.050781 103.703125 95.21875 103.566406 C 95.382812 103.429688 95.464844 103.261719 95.464844 103.058594 C 95.464844 102.757812 95.234375 102.511719 94.769531 102.316406 L 94.261719 102.101562 C 93.507812 101.785156 93.132812 101.335938 93.132812 100.75 C 93.132812 100.328125 93.28125 100 93.578125 99.761719 C 93.875 99.519531 94.28125 99.398438 94.796875 99.398438 C 95.066406 99.398438 95.398438 99.4375 95.792969 99.507812 L 95.976562 99.546875 L 95.976562 100.269531 C 95.488281 100.128906 95.101562 100.054688 94.816406 100.054688 C 94.253906 100.054688 93.972656 100.257812 93.972656 100.664062 C 93.972656 100.929688 94.183594 101.148438 94.609375 101.328125 L 95.03125 101.507812 C 95.507812 101.707031 95.84375 101.921875 96.042969 102.144531 C 96.238281 102.363281 96.339844 102.644531 96.339844 102.976562 C 96.339844 103.398438 96.171875 103.746094 95.835938 104.019531 C 95.503906 104.289062 95.078125 104.425781 94.558594 104.425781 Z M 99.261719 104.425781 C 98.820312 104.425781 98.472656 104.300781 98.226562 104.046875 C 97.976562 103.789062 97.851562 103.4375 97.851562 102.984375 L 97.851562 100.160156 L 97.25 100.160156 L 97.25 99.503906 L 97.851562 99.503906 L 97.851562 98.632812 L 98.726562 98.546875 L 98.726562 99.503906 L 99.984375 99.503906 L 99.984375 100.160156 L 98.726562 100.160156 L 98.726562 102.828125 C 98.726562 103.457031 98.996094 103.769531 99.539062 103.769531 C 99.65625 103.769531 99.796875 103.75 99.960938 103.710938 L 99.960938 104.316406 C 99.691406 104.390625 99.460938 104.425781 99.261719 104.425781 "/>
<path style="fill:none;stroke-width:25;stroke-linecap:round;stroke-linejoin:round;stroke:rgb(30.200195%,57.617188%,30.200195%);stroke-opacity:1;stroke-miterlimit:10;" d="M 2194.023438 808.203125 L 2477.460938 241.25 " transform="matrix(0.1,0,0,-0.1,0,256)"/>
<path style="fill:none;stroke-width:25;stroke-linecap:round;stroke-linejoin:round;stroke:rgb(30.200195%,57.617188%,30.200195%);stroke-opacity:1;stroke-miterlimit:10;" d="M 2477.460938 241.25 L 3894.804688 241.25 " transform="matrix(0.1,0,0,-0.1,0,256)"/>
<path style="fill:none;stroke-width:25;stroke-linecap:round;stroke-linejoin:round;stroke:rgb(30.200195%,57.617188%,30.200195%);stroke-opacity:1;stroke-miterlimit:10;" d="M 3894.804688 241.25 L 3894.804688 808.203125 " transform="matrix(0.1,0,0,-0.1,0,256)"/>
<path style="fill:none;stroke-width:25;stroke-linecap:round;stroke-linejoin:round;stroke:rgb(30.200195%,57.617188%,30.200195%);stroke-opacity:1;stroke-miterlimit:10;" d="M 3894.804688 808.203125 L 2194.023438 808.203125 " transform="matrix(0.1,0,0,-0.1,0,256)"/>
<path style="fill:none;stroke-width:25;stroke-linecap:butt;stroke-linejoin:round;stroke:rgb(30.200195%,30.200195%,30.200195%);stroke-opacity:1;stroke-dasharray:65,40;stroke-miterlimit:10;" d="M 1060.15625 2225.507812 L 2194.023438 808.203125 " transform="matrix(0.1,0,0,-0.1,0,256)"/>
<path style=" stroke:none;fill-rule:nonzero;fill:rgb(0%,0%,0%);fill-opacity:1;" d="M 150.617188 108.109375 C 150.617188 108 150.671875 107.941406 150.785156 107.941406 C 151.011719 107.941406 151.289062 108.054688 151.628906 108.28125 C 151.851562 108.28125 152.019531 108.28125 152.132812 108.28125 C 152.582031 108.28125 152.917969 108.167969 153.140625 107.941406 C 153.367188 107.832031 153.480469 107.660156 153.480469 107.4375 C 153.589844 107.324219 153.644531 107.269531 153.644531 107.269531 C 153.757812 107.269531 153.816406 107.324219 153.816406 107.4375 C 153.816406 107.660156 153.703125 107.941406 153.480469 108.28125 C 153.03125 108.839844 152.582031 109.121094 152.132812 109.121094 C 151.90625 109.121094 151.683594 108.953125 151.460938 108.617188 C 151.234375 108.390625 151.066406 108.28125 150.953125 108.28125 C 150.839844 108.28125 150.785156 108.28125 150.785156 108.28125 C 150.449219 108.28125 150.167969 108.503906 149.945312 108.953125 C 149.832031 109.066406 149.777344 109.121094 149.777344 109.121094 C 149.664062 109.121094 149.605469 109.066406 149.605469 108.953125 C 149.605469 108.839844 149.777344 108.617188 150.113281 108.28125 C 150.226562 108.054688 150.394531 107.832031 150.617188 107.605469 L 151.628906 106.597656 C 152.300781 106.035156 152.804688 105.585938 153.140625 105.25 C 152.917969 105.25 152.636719 105.195312 152.300781 105.082031 C 151.964844 104.96875 151.738281 104.914062 151.628906 104.914062 C 151.179688 104.914062 150.898438 105.023438 150.785156 105.25 C 150.785156 105.363281 150.785156 105.417969 150.785156 105.417969 C 150.671875 105.53125 150.617188 105.585938 150.617188 105.585938 C 150.503906 105.585938 150.449219 105.53125 150.449219 105.417969 C 150.449219 105.304688 150.5625 105.082031 150.785156 104.746094 C 151.011719 104.410156 151.347656 104.238281 151.796875 104.238281 C 152.019531 104.238281 152.242188 104.351562 152.46875 104.578125 C 152.691406 104.800781 152.859375 104.914062 152.972656 104.914062 C 152.972656 105.023438 152.972656 105.082031 152.972656 105.082031 C 153.308594 105.082031 153.589844 104.855469 153.816406 104.410156 L 153.816406 104.238281 C 153.925781 104.238281 153.984375 104.238281 153.984375 104.238281 C 154.09375 104.238281 154.152344 104.238281 154.152344 104.238281 C 154.152344 104.351562 153.984375 104.578125 153.644531 104.914062 C 153.421875 105.25 153.140625 105.585938 152.804688 105.921875 C 152.804688 105.921875 152.46875 106.203125 151.796875 106.765625 C 151.347656 107.214844 150.953125 107.660156 150.617188 108.109375 "/>
<path style="fill:none;stroke-width:25;stroke-linecap:butt;stroke-linejoin:round;stroke:rgb(30.200195%,30.200195%,30.200195%);stroke-opacity:1;stroke-dasharray:65,40;stroke-miterlimit:10;" d="M 776.679688 1658.59375 L 1060.15625 2225.507812 " transform="matrix(0.1,0,0,-0.1,0,256)"/>
<path style="fill:none;stroke-width:25;stroke-linecap:round;stroke-linejoin:round;stroke:rgb(30.200195%,30.200195%,30.200195%);stroke-opacity:1;stroke-miterlimit:10;" d="M 1060.15625 2225.507812 L 1060.15625 808.203125 " transform="matrix(0.1,0,0,-0.1,0,256)"/>
<path style=" stroke:none;fill-rule:nonzero;fill:rgb(0%,0%,0%);fill-opacity:1;" d="M 119.96875 123.242188 C 119.96875 124.027344 119.6875 124.644531 119.125 125.09375 C 118.675781 125.429688 118.171875 125.597656 117.609375 125.597656 C 116.9375 125.597656 116.378906 125.316406 115.929688 124.757812 C 115.703125 124.421875 115.589844 124.085938 115.589844 123.746094 C 115.589844 123.410156 115.761719 123.1875 116.097656 123.074219 C 116.433594 123.074219 116.601562 123.1875 116.601562 123.410156 C 116.714844 123.523438 116.769531 123.578125 116.769531 123.578125 C 116.769531 123.804688 116.65625 123.972656 116.433594 124.085938 C 116.320312 124.195312 116.210938 124.253906 116.097656 124.253906 C 116.097656 124.253906 116.039062 124.195312 115.929688 124.085938 C 116.039062 124.53125 116.320312 124.867188 116.769531 125.09375 C 116.992188 125.316406 117.273438 125.429688 117.609375 125.429688 C 118.058594 125.429688 118.453125 125.148438 118.789062 124.589844 C 118.902344 124.363281 118.957031 123.914062 118.957031 123.242188 C 118.957031 122.570312 118.902344 122.121094 118.789062 121.894531 C 118.566406 121.445312 118.230469 121.222656 117.78125 121.222656 C 117.21875 121.222656 116.769531 121.445312 116.433594 121.894531 C 116.433594 122.007812 116.378906 122.0625 116.265625 122.0625 C 116.265625 122.0625 116.210938 122.007812 116.097656 121.894531 L 116.097656 118.527344 C 116.097656 118.417969 116.152344 118.304688 116.265625 118.191406 C 116.265625 118.191406 116.320312 118.25 116.433594 118.359375 C 116.882812 118.472656 117.332031 118.527344 117.78125 118.527344 C 118.339844 118.527344 118.84375 118.472656 119.292969 118.359375 C 119.292969 118.25 119.351562 118.191406 119.464844 118.191406 C 119.464844 118.191406 119.464844 118.25 119.464844 118.359375 C 119.464844 118.472656 119.351562 118.640625 119.125 118.867188 C 118.675781 119.316406 118.117188 119.539062 117.441406 119.539062 C 117.105469 119.539062 116.769531 119.484375 116.433594 119.371094 L 116.433594 121.390625 C 116.882812 121.054688 117.386719 120.886719 117.949219 120.886719 C 118.507812 120.886719 119.015625 121.164062 119.464844 121.726562 C 119.800781 122.175781 119.96875 122.679688 119.96875 123.242188 "/>
<path style="fill:none;stroke-width:25;stroke-linecap:round;stroke-linejoin:round;stroke:rgb(30.200195%,30.200195%,30.200195%);stroke-opacity:1;stroke-miterlimit:10;" d="M 1060.15625 808.203125 L 2194.023438 808.203125 " transform="matrix(0.1,0,0,-0.1,0,256)"/>
<path style=" stroke:none;fill-rule:nonzero;fill:rgb(0%,0%,0%);fill-opacity:1;" d="M 158.304688 165.28125 L 157.96875 166.628906 C 157.855469 167.191406 157.800781 167.527344 157.800781 167.640625 C 157.800781 167.976562 157.914062 168.199219 158.136719 168.3125 C 158.25 168.3125 158.363281 168.3125 158.476562 168.3125 C 158.8125 168.3125 159.089844 168.144531 159.316406 167.808594 C 159.539062 167.582031 159.710938 167.300781 159.820312 166.964844 C 159.820312 166.851562 159.878906 166.796875 159.988281 166.796875 C 160.101562 166.796875 160.15625 166.851562 160.15625 166.964844 C 160.15625 167.078125 160.046875 167.300781 159.820312 167.640625 C 159.371094 168.3125 158.921875 168.648438 158.476562 168.648438 C 157.914062 168.648438 157.519531 168.425781 157.296875 167.976562 C 157.296875 167.863281 157.296875 167.808594 157.296875 167.808594 C 157.070312 168.144531 156.789062 168.367188 156.453125 168.480469 C 156.34375 168.59375 156.230469 168.648438 156.117188 168.648438 C 155.667969 168.648438 155.332031 168.480469 155.109375 168.144531 C 155.109375 168.144531 155.109375 168.03125 155.109375 167.808594 C 155.109375 167.582031 155.21875 167.414062 155.445312 167.300781 C 155.558594 167.300781 155.613281 167.300781 155.613281 167.300781 C 155.839844 167.300781 156.007812 167.359375 156.117188 167.46875 C 156.117188 167.582031 156.117188 167.640625 156.117188 167.640625 C 156.117188 167.863281 156.007812 168.03125 155.78125 168.144531 C 155.667969 168.144531 155.613281 168.144531 155.613281 168.144531 C 155.726562 168.257812 155.894531 168.3125 156.117188 168.3125 C 156.453125 168.3125 156.734375 168.085938 156.960938 167.640625 C 157.070312 167.527344 157.128906 167.414062 157.128906 167.300781 C 157.464844 165.84375 157.632812 164.945312 157.632812 164.609375 C 157.632812 164.160156 157.464844 163.9375 157.128906 163.9375 C 156.789062 163.9375 156.453125 164.160156 156.117188 164.609375 C 156.007812 164.722656 155.894531 164.890625 155.78125 165.113281 C 155.78125 165.113281 155.78125 165.171875 155.78125 165.28125 L 155.613281 165.449219 C 155.5 165.449219 155.445312 165.449219 155.445312 165.449219 C 155.445312 165.226562 155.558594 164.945312 155.78125 164.609375 C 156.117188 164.046875 156.566406 163.769531 157.128906 163.769531 C 157.6875 163.769531 158.082031 164.046875 158.304688 164.609375 C 158.53125 164.160156 158.8125 163.878906 159.148438 163.769531 C 159.261719 163.769531 159.371094 163.769531 159.484375 163.769531 C 159.933594 163.769531 160.214844 163.878906 160.324219 164.105469 C 160.4375 164.214844 160.492188 164.328125 160.492188 164.441406 C 160.492188 164.777344 160.324219 164.945312 159.988281 164.945312 C 159.988281 165.058594 159.933594 165.113281 159.820312 165.113281 C 159.597656 165.113281 159.484375 165.003906 159.484375 164.777344 C 159.484375 164.777344 159.484375 164.722656 159.484375 164.609375 C 159.484375 164.386719 159.597656 164.214844 159.820312 164.105469 C 159.820312 164.105469 159.878906 164.105469 159.988281 164.105469 C 159.878906 163.992188 159.710938 163.9375 159.484375 163.9375 C 158.921875 163.9375 158.585938 164.328125 158.476562 165.113281 C 158.363281 165.113281 158.304688 165.171875 158.304688 165.28125 "/>
<path style="fill:none;stroke-width:25;stroke-linecap:round;stroke-linejoin:round;stroke:rgb(30.200195%,30.200195%,30.200195%);stroke-opacity:1;stroke-miterlimit:10;" d="M 924.101562 2157.460938 L 810.390625 1942.226562 " transform="matrix(0.1,0,0,-0.1,0,256)"/>
<path style=" stroke:none;fill-rule:nonzero;fill:rgb(30.200195%,30.200195%,30.200195%);fill-opacity:1;" d="M 76.535156 70.300781 L 78.90625 60.652344 L 83.167969 62.902344 "/>
<path style="fill:none;stroke-width:25;stroke-linecap:round;stroke-linejoin:round;stroke:rgb(30.200195%,30.200195%,30.200195%);stroke-opacity:1;stroke-miterlimit:10;" d="M 1791.484375 1437.460938 L 1558.046875 1720.3125 " transform="matrix(0.1,0,0,-0.1,0,256)"/>
<path style=" stroke:none;fill-rule:nonzero;fill:rgb(30.200195%,30.200195%,30.200195%);fill-opacity:1;" d="M 149.667969 76.535156 L 157.664062 82.433594 L 153.945312 85.503906 "/>
<path style="fill:none;stroke-width:25;stroke-linecap:round;stroke-linejoin:round;stroke:rgb(30.200195%,30.200195%,30.200195%);stroke-opacity:1;stroke-miterlimit:10;" d="M 1831.171875 723.164062 L 1479.6875 723.164062 " transform="matrix(0.1,0,0,-0.1,0,256)"/>
<path style=" stroke:none;fill-rule:nonzero;fill:rgb(30.200195%,30.200195%,30.200195%);fill-opacity:1;" d="M 138.332031 183.683594 L 147.96875 181.277344 L 147.96875 186.09375 "/>
<path style=" stroke:none;fill-rule:nonzero;fill:rgb(0%,0%,100%);fill-opacity:1;" d="M 23.8125 146.835938 C 23.8125 148.398438 22.542969 149.667969 20.976562 149.667969 C 19.410156 149.667969 18.140625 148.398438 18.140625 146.835938 C 18.140625 145.269531 19.410156 144 20.976562 144 C 22.542969 144 23.8125 145.269531 23.8125 146.835938 "/>
<path style="fill:none;stroke-width:10;stroke-linecap:round;stroke-linejoin:round;stroke:rgb(0%,0%,0%);stroke-opacity:1;stroke-miterlimit:10;" d="M 238.125 1091.640625 C 238.125 1076.015625 225.429688 1063.320312 209.765625 1063.320312 C 194.101562 1063.320312 181.40625 1076.015625 181.40625 1091.640625 C 181.40625 1107.304688 194.101562 1120 209.765625 1120 C 225.429688 1120 238.125 1107.304688 238.125 1091.640625 Z M 238.125 1091.640625 " transform="matrix(0.1,0,0,-0.1,0,256)"/>
<path style=" stroke:none;fill-rule:nonzero;fill:rgb(0%,0%,100%);fill-opacity:1;" d="M 27.410156 138.660156 L 26.296875 135.832031 L 25.175781 138.660156 Z M 28.394531 141.164062 L 27.683594 139.347656 L 24.90625 139.347656 L 24.183594 141.164062 L 23.320312 141.164062 L 25.917969 134.609375 L 26.839844 134.609375 L 29.402344 141.164062 "/>
<path style=" stroke:none;fill-rule:nonzero;fill:rgb(30.200195%,30.200195%,100%);fill-opacity:1;" d="M 108.851562 146.835938 C 108.851562 148.398438 107.582031 149.667969 106.015625 149.667969 C 104.449219 149.667969 103.179688 148.398438 103.179688 146.835938 C 103.179688 145.269531 104.449219 144 106.015625 144 C 107.582031 144 108.851562 145.269531 108.851562 146.835938 "/>
<path style="fill:none;stroke-width:10;stroke-linecap:round;stroke-linejoin:round;stroke:rgb(0%,0%,0%);stroke-opacity:1;stroke-miterlimit:10;" d="M 1088.515625 1091.640625 C 1088.515625 1076.015625 1075.820312 1063.320312 1060.15625 1063.320312 C 1044.492188 1063.320312 1031.796875 1076.015625 1031.796875 1091.640625 C 1031.796875 1107.304688 1044.492188 1120 1060.15625 1120 C 1075.820312 1120 1088.515625 1107.304688 1088.515625 1091.640625 Z M 1088.515625 1091.640625 " transform="matrix(0.1,0,0,-0.1,0,256)"/>
<path style=" stroke:none;fill-rule:nonzero;fill:rgb(30.200195%,30.200195%,100%);fill-opacity:1;" d="M 109.128906 141.164062 L 109.128906 134.609375 L 110.828125 134.609375 C 111.484375 134.609375 111.988281 134.734375 112.339844 134.980469 C 112.6875 135.230469 112.863281 135.585938 112.863281 136.054688 C 112.863281 136.847656 112.414062 137.414062 111.515625 137.75 C 112.589844 138.078125 113.125 138.671875 113.125 139.527344 C 113.125 140.058594 112.945312 140.464844 112.59375 140.746094 C 112.238281 141.023438 111.726562 141.164062 111.0625 141.164062 Z M 110.050781 140.46875 L 110.242188 140.46875 C 110.921875 140.46875 111.363281 140.425781 111.566406 140.339844 C 111.949219 140.179688 112.140625 139.878906 112.140625 139.4375 C 112.140625 139.046875 111.96875 138.722656 111.617188 138.464844 C 111.269531 138.207031 110.835938 138.078125 110.3125 138.078125 L 110.050781 138.078125 Z M 110.050781 137.488281 L 110.347656 137.488281 C 110.84375 137.488281 111.226562 137.382812 111.5 137.171875 C 111.773438 136.957031 111.910156 136.65625 111.910156 136.269531 C 111.910156 135.628906 111.410156 135.304688 110.414062 135.304688 L 110.050781 135.304688 "/>
<path style=" stroke:none;fill-rule:nonzero;fill:rgb(0%,0%,100%);fill-opacity:1;" d="M 108.851562 33.449219 C 108.851562 35.015625 107.582031 36.285156 106.015625 36.285156 C 104.449219 36.285156 103.179688 35.015625 103.179688 33.449219 C 103.179688 31.882812 104.449219 30.613281 106.015625 30.613281 C 107.582031 30.613281 108.851562 31.882812 108.851562 33.449219 "/>
<path style="fill:none;stroke-width:10;stroke-linecap:round;stroke-linejoin:round;stroke:rgb(0%,0%,0%);stroke-opacity:1;stroke-miterlimit:10;" d="M 1088.515625 2225.507812 C 1088.515625 2209.84375 1075.820312 2197.148438 1060.15625 2197.148438 C 1044.492188 2197.148438 1031.796875 2209.84375 1031.796875 2225.507812 C 1031.796875 2241.171875 1044.492188 2253.867188 1060.15625 2253.867188 C 1075.820312 2253.867188 1088.515625 2241.171875 1088.515625 2225.507812 Z M 1088.515625 2225.507812 " transform="matrix(0.1,0,0,-0.1,0,256)"/>
<path style=" stroke:none;fill-rule:nonzero;fill:rgb(0%,0%,100%);fill-opacity:1;" d="M 112.558594 30.664062 L 112.558594 24.105469 L 113.429688 24.105469 L 113.429688 25.007812 C 113.789062 24.335938 114.324219 23.996094 115.039062 23.996094 C 115.617188 23.996094 116.070312 24.207031 116.402344 24.628906 C 116.734375 25.054688 116.902344 25.628906 116.902344 26.363281 C 116.902344 27.160156 116.714844 27.800781 116.339844 28.289062 C 115.960938 28.78125 115.464844 29.023438 114.851562 29.023438 C 114.28125 29.023438 113.808594 28.804688 113.429688 28.367188 L 113.429688 30.664062 Z M 113.429688 27.765625 C 113.878906 28.167969 114.308594 28.367188 114.714844 28.367188 C 115.554688 28.367188 115.972656 27.730469 115.972656 26.449219 C 115.972656 25.324219 115.601562 24.757812 114.855469 24.757812 C 114.367188 24.757812 113.894531 25.023438 113.429688 25.550781 Z M 121.234375 28.914062 L 121.234375 28.011719 C 120.769531 28.6875 120.207031 29.023438 119.546875 29.023438 C 119.128906 29.023438 118.792969 28.890625 118.546875 28.628906 C 118.296875 28.363281 118.175781 28.007812 118.175781 27.558594 L 118.175781 24.105469 L 119.046875 24.105469 L 119.046875 27.273438 C 119.046875 27.636719 119.097656 27.890625 119.203125 28.042969 C 119.308594 28.195312 119.484375 28.269531 119.730469 28.269531 C 120.261719 28.269531 120.761719 27.921875 121.234375 27.222656 L 121.234375 24.105469 L 122.105469 24.105469 L 122.105469 28.914062 Z M 123.894531 28.914062 L 123.894531 21.921875 L 124.769531 21.921875 L 124.769531 28.914062 Z M 126.730469 28.914062 L 126.730469 21.921875 L 127.605469 21.921875 L 127.605469 28.914062 Z M 133.089844 28.757812 C 132.507812 28.9375 132.007812 29.023438 131.589844 29.023438 C 130.882812 29.023438 130.304688 28.789062 129.855469 28.316406 C 129.40625 27.847656 129.183594 27.234375 129.183594 26.484375 C 129.183594 25.757812 129.382812 25.160156 129.777344 24.691406 C 130.171875 24.226562 130.675781 23.992188 131.289062 23.992188 C 131.871094 23.992188 132.320312 24.199219 132.636719 24.613281 C 132.953125 25.027344 133.113281 25.613281 133.113281 26.375 L 133.109375 26.644531 L 130.074219 26.644531 C 130.203125 27.789062 130.761719 28.359375 131.753906 28.359375 C 132.117188 28.359375 132.5625 28.261719 133.089844 28.066406 Z M 130.113281 25.988281 L 132.234375 25.988281 C 132.234375 25.09375 131.902344 24.648438 131.234375 24.648438 C 130.566406 24.648438 130.191406 25.09375 130.113281 25.988281 Z M 134.945312 30.664062 L 135.726562 28.914062 L 133.867188 24.105469 L 134.808594 24.105469 L 136.1875 27.726562 L 137.65625 24.105469 L 138.480469 24.105469 L 135.855469 30.664062 "/>
<path style=" stroke:none;fill-rule:nonzero;fill:rgb(0%,0%,100%);fill-opacity:1;" d="M 222.234375 175.179688 C 222.234375 176.746094 220.96875 178.015625 219.402344 178.015625 C 217.835938 178.015625 216.566406 176.746094 216.566406 175.179688 C 216.566406 173.617188 217.835938 172.347656 219.402344 172.347656 C 220.96875 172.347656 222.234375 173.617188 222.234375 175.179688 "/>
<path style="fill:none;stroke-width:10;stroke-linecap:round;stroke-linejoin:round;stroke:rgb(0%,0%,0%);stroke-opacity:1;stroke-miterlimit:10;" d="M 2222.34375 808.203125 C 2222.34375 792.539062 2209.6875 779.84375 2194.023438 779.84375 C 2178.359375 779.84375 2165.664062 792.539062 2165.664062 808.203125 C 2165.664062 823.828125 2178.359375 836.523438 2194.023438 836.523438 C 2209.6875 836.523438 2222.34375 823.828125 2222.34375 808.203125 Z M 2222.34375 808.203125 " transform="matrix(0.1,0,0,-0.1,0,256)"/>
<path style=" stroke:none;fill-rule:nonzero;fill:rgb(0%,0%,100%);fill-opacity:1;" d="M 220.839844 165.597656 L 220.839844 158.550781 L 221.714844 158.550781 L 221.714844 161.636719 C 222.070312 160.964844 222.605469 160.628906 223.320312 160.628906 C 223.898438 160.628906 224.355469 160.839844 224.6875 161.261719 C 225.019531 161.683594 225.1875 162.261719 225.1875 162.992188 C 225.1875 163.789062 224.996094 164.433594 224.621094 164.921875 C 224.246094 165.410156 223.75 165.652344 223.136719 165.652344 C 222.566406 165.652344 222.089844 165.433594 221.714844 165 L 221.605469 165.597656 Z M 221.714844 164.394531 C 222.164062 164.796875 222.589844 165 222.996094 165 C 223.835938 165 224.257812 164.359375 224.257812 163.082031 C 224.257812 161.953125 223.882812 161.390625 223.140625 161.390625 C 222.652344 161.390625 222.175781 161.652344 221.714844 162.179688 Z M 228.394531 165.652344 C 227.703125 165.652344 227.15625 165.425781 226.746094 164.96875 C 226.335938 164.515625 226.128906 163.902344 226.128906 163.136719 C 226.128906 162.363281 226.335938 161.753906 226.746094 161.300781 C 227.160156 160.851562 227.71875 160.628906 228.425781 160.628906 C 229.128906 160.628906 229.6875 160.851562 230.101562 161.300781 C 230.511719 161.753906 230.71875 162.363281 230.71875 163.128906 C 230.71875 163.914062 230.511719 164.53125 230.097656 164.980469 C 229.683594 165.429688 229.117188 165.652344 228.394531 165.652344 Z M 228.40625 165 C 229.328125 165 229.792969 164.375 229.792969 163.128906 C 229.792969 161.898438 229.335938 161.28125 228.425781 161.28125 C 227.515625 161.28125 227.058594 161.902344 227.058594 163.136719 C 227.058594 164.378906 227.507812 165 228.40625 165 Z M 232.738281 165.542969 L 231.359375 160.734375 L 232.214844 160.734375 L 233.269531 164.457031 L 234.40625 160.734375 L 235.28125 160.734375 L 236.277344 164.457031 L 237.484375 160.734375 L 238.234375 160.734375 L 236.664062 165.542969 L 235.789062 165.542969 L 234.769531 161.820312 L 233.617188 165.542969 Z M 243.699219 165.652344 C 243.011719 165.652344 242.464844 165.425781 242.050781 164.96875 C 241.640625 164.515625 241.4375 163.902344 241.4375 163.136719 C 241.4375 162.363281 241.644531 161.753906 242.054688 161.300781 C 242.464844 160.851562 243.023438 160.628906 243.730469 160.628906 C 244.4375 160.628906 244.996094 160.851562 245.40625 161.300781 C 245.820312 161.753906 246.023438 162.363281 246.023438 163.128906 C 246.023438 163.914062 245.816406 164.53125 245.40625 164.980469 C 244.992188 165.429688 244.421875 165.652344 243.699219 165.652344 Z M 243.714844 165 C 244.636719 165 245.101562 164.375 245.101562 163.128906 C 245.101562 161.898438 244.644531 161.28125 243.730469 161.28125 C 242.820312 161.28125 242.367188 161.902344 242.367188 163.136719 C 242.367188 164.378906 242.816406 165 243.714844 165 Z M 248.527344 161.390625 L 248.527344 165.542969 L 247.652344 165.542969 L 247.652344 161.390625 L 246.96875 161.390625 L 246.96875 160.734375 L 247.652344 160.734375 L 247.652344 160.15625 C 247.652344 159.011719 248.171875 158.4375 249.21875 158.4375 C 249.511719 158.4375 249.84375 158.488281 250.214844 158.585938 L 250.214844 159.277344 C 249.820312 159.15625 249.507812 159.09375 249.269531 159.09375 C 248.984375 159.09375 248.789062 159.164062 248.683594 159.300781 C 248.578125 159.4375 248.527344 159.691406 248.527344 160.066406 L 248.527344 160.734375 L 249.726562 160.734375 L 249.726562 161.390625 Z M 253.722656 165.597656 L 253.722656 158.550781 L 254.59375 158.550781 L 254.59375 161.636719 C 254.953125 160.964844 255.488281 160.628906 256.203125 160.628906 C 256.78125 160.628906 257.238281 160.839844 257.570312 161.261719 C 257.902344 161.683594 258.066406 162.261719 258.066406 162.992188 C 258.066406 163.789062 257.878906 164.433594 257.503906 164.921875 C 257.128906 165.410156 256.632812 165.652344 256.015625 165.652344 C 255.445312 165.652344 254.972656 165.433594 254.59375 165 L 254.488281 165.597656 Z M 254.59375 164.394531 C 255.042969 164.796875 255.472656 165 255.878906 165 C 256.71875 165 257.136719 164.359375 257.136719 163.082031 C 257.136719 161.953125 256.765625 161.390625 256.023438 161.390625 C 255.535156 161.390625 255.058594 161.652344 254.59375 162.179688 Z M 261.273438 165.652344 C 260.585938 165.652344 260.039062 165.425781 259.628906 164.96875 C 259.214844 164.515625 259.011719 163.902344 259.011719 163.136719 C 259.011719 162.363281 259.21875 161.753906 259.628906 161.300781 C 260.039062 160.851562 260.601562 160.628906 261.304688 160.628906 C 262.011719 160.628906 262.570312 160.851562 262.980469 161.300781 C 263.394531 161.753906 263.601562 162.363281 263.601562 163.128906 C 263.601562 163.914062 263.394531 164.53125 262.980469 164.980469 C 262.566406 165.429688 261.996094 165.652344 261.273438 165.652344 Z M 261.289062 165 C 262.210938 165 262.675781 164.375 262.675781 163.128906 C 262.675781 161.898438 262.21875 161.28125 261.304688 161.28125 C 260.394531 161.28125 259.941406 161.902344 259.941406 163.136719 C 259.941406 164.378906 260.390625 165 261.289062 165 Z M 267.542969 164.933594 C 267.019531 165.414062 266.515625 165.652344 266.03125 165.652344 C 265.632812 165.652344 265.300781 165.53125 265.039062 165.28125 C 264.777344 165.03125 264.644531 164.714844 264.644531 164.335938 C 264.644531 163.808594 264.867188 163.40625 265.308594 163.121094 C 265.75 162.839844 266.382812 162.699219 267.203125 162.699219 L 267.414062 162.699219 L 267.414062 162.121094 C 267.414062 161.5625 267.128906 161.28125 266.554688 161.28125 C 266.09375 161.28125 265.597656 161.425781 265.0625 161.707031 L 265.0625 160.984375 C 265.648438 160.746094 266.199219 160.628906 266.714844 160.628906 C 267.25 160.628906 267.648438 160.746094 267.902344 160.988281 C 268.15625 161.230469 268.285156 161.609375 268.285156 162.121094 L 268.285156 164.296875 C 268.285156 164.796875 268.4375 165.046875 268.746094 165.046875 C 268.785156 165.046875 268.839844 165.042969 268.914062 165.03125 L 268.976562 165.511719 C 268.777344 165.605469 268.5625 165.652344 268.320312 165.652344 C 267.914062 165.652344 267.652344 165.414062 267.542969 164.933594 Z M 267.414062 164.457031 L 267.414062 163.214844 L 267.121094 163.203125 C 266.644531 163.203125 266.257812 163.296875 265.960938 163.476562 C 265.664062 163.660156 265.519531 163.898438 265.519531 164.191406 C 265.519531 164.402344 265.589844 164.578125 265.738281 164.722656 C 265.886719 164.867188 266.066406 164.941406 266.28125 164.941406 C 266.644531 164.941406 267.019531 164.78125 267.414062 164.457031 Z M 271.609375 165.652344 C 271.164062 165.652344 270.820312 165.527344 270.570312 165.273438 C 270.324219 165.019531 270.199219 164.667969 270.199219 164.214844 L 270.199219 161.390625 L 269.597656 161.390625 L 269.597656 160.734375 L 270.199219 160.734375 L 270.199219 159.859375 L 271.070312 159.777344 L 271.070312 160.734375 L 272.328125 160.734375 L 272.328125 161.390625 L 271.070312 161.390625 L 271.070312 164.054688 C 271.070312 164.683594 271.34375 165 271.886719 165 C 272.003906 165 272.140625 164.980469 272.308594 164.941406 L 272.308594 165.542969 C 272.039062 165.617188 271.804688 165.652344 271.609375 165.652344 "/>
<path style=" stroke:none;fill-rule:nonzero;fill:rgb(0%,0%,100%);fill-opacity:1;" d="M 108.851562 175.179688 C 108.851562 176.746094 107.582031 178.015625 106.015625 178.015625 C 104.449219 178.015625 103.179688 176.746094 103.179688 175.179688 C 103.179688 173.617188 104.449219 172.347656 106.015625 172.347656 C 107.582031 172.347656 108.851562 173.617188 108.851562 175.179688 "/>
<path style="fill:none;stroke-width:10;stroke-linecap:round;stroke-linejoin:round;stroke:rgb(0%,0%,0%);stroke-opacity:1;stroke-miterlimit:10;" d="M 1088.515625 808.203125 C 1088.515625 792.539062 1075.820312 779.84375 1060.15625 779.84375 C 1044.492188 779.84375 1031.796875 792.539062 1031.796875 808.203125 C 1031.796875 823.828125 1044.492188 836.523438 1060.15625 836.523438 C 1075.820312 836.523438 1088.515625 823.828125 1088.515625 808.203125 Z M 1088.515625 808.203125 " transform="matrix(0.1,0,0,-0.1,0,256)"/>
</g>
</svg>
