<?xml version="1.0" encoding="UTF-8"?>
<svg xmlns="http://www.w3.org/2000/svg" xmlns:xlink="http://www.w3.org/1999/xlink" width="631pt" height="494pt" viewBox="0 0 631 494" version="1.1">
<g id="surface1">
<rect x="0" y="0" width="631" height="494" style="fill:rgb(100%,100%,100%);fill-opacity:1;stroke:none;"/>
<path style=" stroke:none;fill-rule:nonzero;fill:rgb(94.139099%,98.046875%,90.234375%);fill-opacity:1;" d="M 67.230469 2207.351562 L 67.230469 2207.351562 M 67.230469 2207.351562 L 67.230469 630.578125 L 279.828125 630.578125 L 279.828125 2207.351562 M 279.828125 2207.351562 L 279.828125 311.679688 L 492.425781 311.679688 L 492.425781 2207.351562 M 492.425781 2207.351562 L 492.425781 -7.21875 L 705.023438 -7.21875 L 705.023438 2207.351562 M 705.023438 2207.351562 L 705.023438 -326.117188 L 917.621094 -326.117188 L 917.621094 2207.351562 L 67.230469 2207.351562 "/>
<path style="fill:none;stroke-width:9.51353;stroke-linecap:round;stroke-linejoin:round;stroke:rgb(39.988708%,80.076599%,0%);stroke-opacity:1;stroke-miterlimit:10;" d="M 639.601845 -16300.0176 L 639.601845 -16300.0176 M 639.601845 -16300.0176 L 639.601845 -1299.345704 L 2662.164766 -1299.345704 L 2662.164766 -16300.0176 M 2662.164766 -16300.0176 L 2662.164766 1734.517258 L 4684.727686 1734.517258 L 4684.727686 -16300.0176 M 4684.727686 -16300.0176 L 4684.727686 4768.343057 L 6707.253444 4768.343057 L 6707.253444 -16300.0176 M 6707.253444 -16300.0176 L 6707.253444 7802.206019 L 8729.853527 7802.206019 L 8729.853527 -16300.0176 L 639.601845 -16300.0176 " transform="matrix(0.105113,0,0,-0.105113,0,494)"/>
<path style="fill:none;stroke-width:25;stroke-linecap:round;stroke-linejoin:round;stroke:rgb(30.200195%,44.163513%,86.131287%);stroke-opacity:1;stroke-miterlimit:10;" d="M -2308.359375 -7431.210938 L -2173.28125 -7228.59375 L -2038.164062 -7025.976562 L -1903.085938 -6823.359375 L -1768.007812 -6620.703125 L -1362.773438 -6012.851562 L -1227.695312 -5810.195312 L -957.539062 -5404.960938 L -822.421875 -5202.34375 L -552.265625 -4797.109375 L -417.1875 -4594.453125 L -11.953125 -3986.601562 L 123.164062 -3783.984375 L 258.242188 -3581.367188 L 393.320312 -3378.710938 L 798.554688 -2770.859375 L 933.632812 -2568.203125 L 1068.710938 -2365.585938 L 1203.828125 -2162.96875 L 1609.0625 -1555.117188 L 1744.140625 -1352.460938 L 2149.375 -744.609375 L 2284.492188 -541.992188 L 2419.570312 -339.335938 L 2959.882812 471.132812 L 3094.960938 673.789062 L 3230.039062 876.40625 L 3365.15625 1079.023438 L 3770.390625 1686.875 L 3905.46875 1889.53125 L 4310.703125 2497.382812 L 4445.78125 2700.039062 L 4580.898438 2902.65625 L 5256.289062 3915.742188 L 5391.367188 4118.398438 L 5526.484375 4321.015625 L 5931.71875 4928.867188 L 6066.796875 5131.523438 L 6472.03125 5739.375 L 6607.148438 5941.992188 L 6742.226562 6144.648438 L 7417.617188 7157.734375 L 7552.695312 7360.390625 L 7687.8125 7563.007812 L 7957.96875 7968.242188 " transform="matrix(0.1,0,0,-0.1,0,494)"/>
<path style="fill:none;stroke-width:25;stroke-linecap:butt;stroke-linejoin:round;stroke:rgb(100%,30.200195%,30.200195%);stroke-opacity:1;stroke-dasharray:65,40;stroke-miterlimit:10;" d="M 3861.289062 1823.203125 L 3861.289062 -127.5 " transform="matrix(0.1,0,0,-0.1,0,494)"/>
<path style="fill:none;stroke-width:25;stroke-linecap:round;stroke-linejoin:round;stroke:rgb(30.200195%,30.200195%,30.200195%);stroke-opacity:1;stroke-miterlimit:10;" d="M 1960.78125 2036.992188 L 2694.0625 1670.390625 " transform="matrix(0.1,0,0,-0.1,0,494)"/>
<path style=" stroke:none;fill-rule:nonzero;fill:rgb(30.200195%,30.200195%,30.200195%);fill-opacity:1;" d="M 308.125 346.320312 L 264.5625 336.640625 L 274.246094 317.28125 "/>
<path style="fill:none;stroke-width:25;stroke-linecap:round;stroke-linejoin:round;stroke:rgb(30.200195%,30.200195%,30.200195%);stroke-opacity:1;stroke-miterlimit:10;" d="M 3284.960938 3081.054688 L 4396.953125 2371.679688 " transform="matrix(0.1,0,0,-0.1,0,494)"/>
<path style=" stroke:none;fill-rule:nonzero;fill:rgb(30.200195%,30.200195%,30.200195%);fill-opacity:1;" d="M 476.191406 280.113281 L 433.875 265.953125 L 445.515625 247.707031 "/>
<path style=" stroke:none;fill-rule:nonzero;fill:rgb(0%,0%,0%);fill-opacity:1;" d="M 52.859375 269.230469 C 50.234375 270.027344 47.984375 270.425781 46.113281 270.425781 C 42.933594 270.425781 40.335938 269.367188 38.328125 267.253906 C 36.316406 265.136719 35.3125 262.394531 35.3125 259.023438 C 35.3125 255.75 36.199219 253.0625 37.96875 250.96875 C 39.738281 248.871094 42.003906 247.824219 44.761719 247.824219 C 47.375 247.824219 49.394531 248.753906 50.820312 250.609375 C 52.246094 252.46875 52.960938 255.105469 52.960938 258.527344 L 52.9375 259.742188 L 39.3125 259.742188 C 39.882812 264.875 42.394531 267.441406 46.851562 267.441406 C 48.484375 267.441406 50.484375 267.003906 52.859375 266.128906 Z M 39.488281 256.796875 L 49.019531 256.796875 C 49.019531 252.777344 47.519531 250.769531 44.523438 250.769531 C 41.511719 250.769531 39.835938 252.777344 39.488281 256.796875 Z M 57.773438 269.925781 L 65.988281 258.765625 L 58.011719 248.320312 L 62.667969 248.320312 L 68.972656 256.636719 L 74.683594 248.320312 L 78.503906 248.320312 L 71.023438 259.285156 L 79.160156 269.925781 L 74.503906 269.925781 L 68 261.371094 L 61.710938 269.925781 Z M 91.890625 270.425781 C 89.902344 270.425781 88.351562 269.855469 87.238281 268.714844 C 86.121094 267.574219 85.566406 265.988281 85.566406 263.960938 L 85.566406 251.265625 L 82.859375 251.265625 L 82.859375 248.320312 L 85.566406 248.320312 L 85.566406 244.402344 L 89.484375 244.023438 L 89.484375 248.320312 L 95.136719 248.320312 L 95.136719 251.265625 L 89.484375 251.265625 L 89.484375 263.242188 C 89.484375 266.066406 90.707031 267.480469 93.144531 267.480469 C 93.664062 267.480469 94.292969 267.394531 95.035156 267.222656 L 95.035156 269.925781 C 93.828125 270.257812 92.78125 270.425781 91.890625 270.425781 Z M 100.6875 269.925781 L 100.6875 248.320312 L 104.605469 248.320312 L 104.605469 252.378906 C 106.15625 249.355469 108.410156 247.84375 111.367188 247.84375 C 111.765625 247.84375 112.183594 247.878906 112.621094 247.945312 L 112.621094 251.605469 C 111.945312 251.378906 111.347656 251.265625 110.832031 251.265625 C 108.351562 251.265625 106.277344 252.738281 104.605469 255.683594 L 104.605469 269.925781 Z M 129.652344 267.183594 C 127.304688 269.34375 125.042969 270.425781 122.867188 270.425781 C 121.078125 270.425781 119.59375 269.863281 118.410156 268.742188 C 117.230469 267.621094 116.640625 266.207031 116.640625 264.496094 C 116.640625 262.136719 117.632812 260.320312 119.613281 259.054688 C 121.597656 257.789062 124.4375 257.15625 128.140625 257.15625 L 129.074219 257.15625 L 129.074219 254.550781 C 129.074219 252.042969 127.789062 250.789062 125.214844 250.789062 C 123.144531 250.789062 120.910156 251.425781 118.511719 252.699219 L 118.511719 249.457031 C 121.148438 248.382812 123.625 247.84375 125.933594 247.84375 C 128.34375 247.84375 130.125 248.386719 131.273438 249.476562 C 132.421875 250.5625 132.992188 252.253906 132.992188 254.550781 L 132.992188 264.335938 C 132.992188 266.578125 133.683594 267.699219 135.0625 267.699219 C 135.234375 267.699219 135.488281 267.671875 135.820312 267.621094 L 136.097656 269.789062 C 135.210938 270.210938 134.226562 270.425781 133.152344 270.425781 C 131.324219 270.425781 130.15625 269.34375 129.652344 267.183594 Z M 129.074219 265.054688 L 129.074219 259.464844 L 127.761719 259.421875 C 125.613281 259.421875 123.875 259.832031 122.550781 260.644531 C 121.222656 261.460938 120.558594 262.53125 120.558594 263.859375 C 120.558594 264.800781 120.890625 265.597656 121.554688 266.246094 C 122.21875 266.898438 123.027344 267.222656 123.980469 267.222656 C 125.613281 267.222656 127.3125 266.5 129.074219 265.054688 Z M 165.304688 267.183594 C 162.953125 269.34375 160.695312 270.425781 158.519531 270.425781 C 156.726562 270.425781 155.242188 269.863281 154.0625 268.742188 C 152.882812 267.621094 152.292969 266.207031 152.292969 264.496094 C 152.292969 262.136719 153.28125 260.320312 155.265625 259.054688 C 157.25 257.789062 160.089844 257.15625 163.789062 257.15625 L 164.726562 257.15625 L 164.726562 254.550781 C 164.726562 252.042969 163.4375 250.789062 160.867188 250.789062 C 158.796875 250.789062 156.5625 251.425781 154.160156 252.699219 L 154.160156 249.457031 C 156.800781 248.382812 159.273438 247.84375 161.582031 247.84375 C 163.996094 247.84375 165.777344 248.386719 166.925781 249.476562 C 168.070312 250.5625 168.644531 252.253906 168.644531 254.550781 L 168.644531 264.335938 C 168.644531 266.578125 169.335938 267.699219 170.714844 267.699219 C 170.886719 267.699219 171.136719 267.671875 171.46875 267.621094 L 171.746094 269.789062 C 170.859375 270.210938 169.878906 270.425781 168.804688 270.425781 C 166.972656 270.425781 165.808594 269.34375 165.304688 267.183594 Z M 164.726562 265.054688 L 164.726562 259.464844 L 163.414062 259.421875 C 161.265625 259.421875 159.527344 259.832031 158.199219 260.644531 C 156.875 261.460938 156.210938 262.53125 156.210938 263.859375 C 156.210938 264.800781 156.542969 265.597656 157.203125 266.246094 C 157.867188 266.898438 158.679688 267.222656 159.632812 267.222656 C 161.265625 267.222656 162.960938 266.5 164.726562 265.054688 Z M 177.078125 269.925781 L 177.078125 248.320312 L 181 248.320312 L 181 252.378906 C 182.550781 249.355469 184.804688 247.84375 187.761719 247.84375 C 188.160156 247.84375 188.578125 247.878906 189.015625 247.945312 L 189.015625 251.605469 C 188.339844 251.378906 187.742188 251.265625 187.226562 251.265625 C 184.746094 251.265625 182.671875 252.738281 181 255.683594 L 181 269.925781 Z M 210.742188 269.230469 C 208.113281 270.027344 205.867188 270.425781 203.996094 270.425781 C 200.8125 270.425781 198.21875 269.367188 196.210938 267.253906 C 194.199219 265.136719 193.195312 262.394531 193.195312 259.023438 C 193.195312 255.75 194.078125 253.0625 195.851562 250.96875 C 197.621094 248.871094 199.886719 247.824219 202.644531 247.824219 C 205.257812 247.824219 207.277344 248.753906 208.703125 250.609375 C 210.128906 252.46875 210.839844 255.105469 210.839844 258.527344 L 210.820312 259.742188 L 197.191406 259.742188 C 197.765625 264.875 200.277344 267.441406 204.734375 267.441406 C 206.363281 267.441406 208.367188 267.003906 210.742188 266.128906 Z M 197.371094 256.796875 L 206.902344 256.796875 C 206.902344 252.777344 205.402344 250.769531 202.40625 250.769531 C 199.394531 250.769531 197.71875 252.777344 197.371094 256.796875 Z M 228.964844 267.183594 C 226.617188 269.34375 224.355469 270.425781 222.179688 270.425781 C 220.390625 270.425781 218.90625 269.863281 217.722656 268.742188 C 216.542969 267.621094 215.953125 266.207031 215.953125 264.496094 C 215.953125 262.136719 216.945312 260.320312 218.929688 259.054688 C 220.910156 257.789062 223.753906 257.15625 227.453125 257.15625 L 228.386719 257.15625 L 228.386719 254.550781 C 228.386719 252.042969 227.101562 250.789062 224.527344 250.789062 C 222.460938 250.789062 220.226562 251.425781 217.824219 252.699219 L 217.824219 249.457031 C 220.464844 248.382812 222.9375 247.84375 225.246094 247.84375 C 227.65625 247.84375 229.4375 248.386719 230.585938 249.476562 C 231.734375 250.5625 232.308594 252.253906 232.308594 254.550781 L 232.308594 264.335938 C 232.308594 266.578125 232.996094 267.699219 234.375 267.699219 C 234.546875 267.699219 234.800781 267.671875 235.132812 267.621094 L 235.410156 269.789062 C 234.523438 270.210938 233.539062 270.425781 232.464844 270.425781 C 230.636719 270.425781 229.46875 269.34375 228.964844 267.183594 Z M 228.386719 265.054688 L 228.386719 259.464844 L 227.074219 259.421875 C 224.925781 259.421875 223.1875 259.832031 221.863281 260.644531 C 220.535156 261.460938 219.871094 262.53125 219.871094 263.859375 C 219.871094 264.800781 220.203125 265.597656 220.867188 266.246094 C 221.53125 266.898438 222.339844 267.222656 223.296875 267.222656 C 224.925781 267.222656 226.625 266.5 228.386719 265.054688 "/>
<path style=" stroke:none;fill-rule:nonzero;fill:rgb(0%,0%,0%);fill-opacity:1;" d="M 166.894531 147.695312 L 166.894531 126.089844 L 170.8125 126.089844 L 170.8125 130.148438 C 172.722656 127.125 175.175781 125.613281 178.175781 125.613281 C 181.066406 125.613281 183.035156 127.125 184.082031 130.148438 C 185.941406 127.113281 188.355469 125.59375 191.324219 125.59375 C 193.234375 125.59375 194.714844 126.152344 195.761719 127.273438 C 196.808594 128.394531 197.332031 129.964844 197.332031 131.980469 L 197.332031 147.695312 L 193.394531 147.695312 L 193.394531 132.597656 C 193.394531 130.128906 192.417969 128.894531 190.46875 128.894531 C 188.441406 128.894531 186.3125 130.335938 184.082031 133.214844 L 184.082031 147.695312 L 180.144531 147.695312 L 180.144531 132.597656 C 180.144531 130.117188 179.148438 128.875 177.160156 128.875 C 175.183594 128.875 173.066406 130.320312 170.8125 133.214844 L 170.8125 147.695312 Z M 205.089844 147.695312 L 205.089844 126.089844 L 209.011719 126.089844 L 209.011719 147.695312 Z M 205.089844 122.171875 L 205.089844 118.253906 L 209.011719 118.253906 L 209.011719 122.171875 Z M 223.554688 148.191406 C 221.761719 148.191406 219.589844 147.777344 217.027344 146.941406 L 217.027344 143.339844 C 219.589844 144.613281 221.816406 145.25 223.714844 145.25 C 224.839844 145.25 225.773438 144.945312 226.519531 144.335938 C 227.261719 143.722656 227.632812 142.960938 227.632812 142.046875 C 227.632812 140.707031 226.589844 139.597656 224.507812 138.722656 L 222.222656 137.75 C 218.839844 136.34375 217.148438 134.320312 217.148438 131.679688 C 217.148438 129.796875 217.8125 128.316406 219.148438 127.234375 C 220.480469 126.152344 222.308594 125.613281 224.628906 125.613281 C 225.835938 125.613281 227.328125 125.777344 229.105469 126.109375 L 229.921875 126.269531 L 229.921875 129.53125 C 227.730469 128.882812 225.992188 128.558594 224.707031 128.558594 C 222.1875 128.558594 220.925781 129.472656 220.925781 131.304688 C 220.925781 132.484375 221.882812 133.476562 223.792969 134.285156 L 225.683594 135.082031 C 227.816406 135.984375 229.328125 136.9375 230.21875 137.9375 C 231.105469 138.9375 231.550781 140.1875 231.550781 141.6875 C 231.550781 143.585938 230.800781 145.144531 229.304688 146.363281 C 227.804688 147.582031 225.886719 148.191406 223.554688 148.191406 Z M 243.925781 148.191406 C 242.136719 148.191406 239.960938 147.777344 237.398438 146.941406 L 237.398438 143.339844 C 239.960938 144.613281 242.1875 145.25 244.085938 145.25 C 245.210938 145.25 246.148438 144.945312 246.890625 144.335938 C 247.632812 143.722656 248.003906 142.960938 248.003906 142.046875 C 248.003906 140.707031 246.964844 139.597656 244.878906 138.722656 L 242.59375 137.75 C 239.210938 136.34375 237.519531 134.320312 237.519531 131.679688 C 237.519531 129.796875 238.1875 128.316406 239.519531 127.234375 C 240.851562 126.152344 242.679688 125.613281 245 125.613281 C 246.207031 125.613281 247.699219 125.777344 249.476562 126.109375 L 250.289062 126.269531 L 250.289062 129.53125 C 248.101562 128.882812 246.367188 128.558594 245.078125 128.558594 C 242.558594 128.558594 241.300781 129.472656 241.300781 131.304688 C 241.300781 132.484375 242.253906 133.476562 244.164062 134.285156 L 246.054688 135.082031 C 248.1875 135.984375 249.699219 136.9375 250.589844 137.9375 C 251.480469 138.9375 251.921875 140.1875 251.921875 141.6875 C 251.921875 143.585938 251.171875 145.144531 249.675781 146.363281 C 248.175781 147.582031 246.261719 148.191406 243.925781 148.191406 Z M 258.566406 147.695312 L 258.566406 126.089844 L 262.488281 126.089844 L 262.488281 147.695312 Z M 258.566406 122.171875 L 258.566406 118.253906 L 262.488281 118.253906 L 262.488281 122.171875 Z M 271.300781 147.695312 L 271.300781 126.089844 L 275.21875 126.089844 L 275.21875 130.148438 C 277.289062 127.125 279.820312 125.613281 282.820312 125.613281 C 284.6875 125.613281 286.179688 126.207031 287.296875 127.394531 C 288.410156 128.582031 288.964844 130.175781 288.964844 132.179688 L 288.964844 147.695312 L 285.046875 147.695312 L 285.046875 133.453125 C 285.046875 131.847656 284.8125 130.703125 284.339844 130.019531 C 283.871094 129.335938 283.089844 128.996094 282.003906 128.996094 C 279.601562 128.996094 277.339844 130.566406 275.21875 133.710938 L 275.21875 147.695312 Z M 296.84375 154.878906 L 297.300781 151.476562 C 299.570312 152.550781 301.804688 153.085938 304.007812 153.085938 C 308.421875 153.085938 310.632812 150.746094 310.632812 146.066406 L 310.632812 142.664062 C 309.1875 145.6875 306.8125 147.199219 303.507812 147.199219 C 300.921875 147.199219 298.867188 146.257812 297.34375 144.375 C 295.816406 142.488281 295.054688 139.949219 295.054688 136.753906 C 295.054688 133.464844 295.921875 130.785156 297.660156 128.71875 C 299.398438 126.648438 301.644531 125.613281 304.402344 125.613281 C 306.816406 125.613281 308.894531 126.59375 310.632812 128.558594 L 310.632812 126.089844 L 314.570312 126.089844 L 314.570312 141.808594 C 314.570312 145.1875 314.394531 147.691406 314.042969 149.316406 C 313.691406 150.941406 313.03125 152.273438 312.0625 153.304688 C 310.351562 155.121094 307.695312 156.03125 304.085938 156.03125 C 301.566406 156.03125 299.152344 155.648438 296.84375 154.878906 Z M 310.632812 140.214844 L 310.632812 131.242188 C 308.90625 129.453125 307.03125 128.558594 305 128.558594 C 303.195312 128.558594 301.785156 129.28125 300.765625 130.726562 C 299.742188 132.171875 299.230469 134.15625 299.230469 136.675781 C 299.230469 141.410156 300.894531 143.777344 304.226562 143.777344 C 306.492188 143.777344 308.628906 142.589844 310.632812 140.214844 Z M 346.101562 144.949219 C 343.753906 147.113281 341.492188 148.191406 339.320312 148.191406 C 337.527344 148.191406 336.042969 147.632812 334.863281 146.511719 C 333.683594 145.390625 333.09375 143.976562 333.09375 142.265625 C 333.09375 139.902344 334.085938 138.089844 336.066406 136.824219 C 338.050781 135.558594 340.890625 134.925781 344.589844 134.925781 L 345.527344 134.925781 L 345.527344 132.316406 C 345.527344 129.8125 344.238281 128.558594 341.664062 128.558594 C 339.597656 128.558594 337.363281 129.195312 334.960938 130.46875 L 334.960938 127.226562 C 337.601562 126.148438 340.074219 125.613281 342.382812 125.613281 C 344.796875 125.613281 346.578125 126.15625 347.722656 127.246094 C 348.871094 128.332031 349.445312 130.023438 349.445312 132.316406 L 349.445312 142.105469 C 349.445312 144.347656 350.136719 145.46875 351.515625 145.46875 C 351.6875 145.46875 351.9375 145.441406 352.269531 145.386719 L 352.550781 147.558594 C 351.660156 147.980469 350.679688 148.191406 349.605469 148.191406 C 347.773438 148.191406 346.605469 147.113281 346.101562 144.949219 Z M 345.527344 142.820312 L 345.527344 137.230469 L 344.214844 137.191406 C 342.0625 137.191406 340.328125 137.601562 339 138.414062 C 337.675781 139.230469 337.011719 140.300781 337.011719 141.628906 C 337.011719 142.570312 337.34375 143.367188 338.007812 144.015625 C 338.667969 144.664062 339.476562 144.992188 340.433594 144.992188 C 342.0625 144.992188 343.761719 144.269531 345.527344 142.820312 Z M 357.878906 147.695312 L 357.878906 126.089844 L 361.800781 126.089844 L 361.800781 130.148438 C 363.351562 127.125 365.605469 125.613281 368.5625 125.613281 C 368.960938 125.613281 369.378906 125.644531 369.816406 125.714844 L 369.816406 129.371094 C 369.140625 129.148438 368.542969 129.035156 368.027344 129.035156 C 365.546875 129.035156 363.472656 130.507812 361.800781 133.453125 L 361.800781 147.695312 Z M 391.542969 147 C 388.914062 147.796875 386.667969 148.191406 384.796875 148.191406 C 381.613281 148.191406 379.019531 147.136719 377.007812 145.019531 C 375 142.90625 373.996094 140.164062 373.996094 136.792969 C 373.996094 133.519531 374.878906 130.832031 376.652344 128.738281 C 378.421875 126.640625 380.6875 125.59375 383.445312 125.59375 C 386.058594 125.59375 388.078125 126.523438 389.503906 128.378906 C 390.929688 130.234375 391.640625 132.875 391.640625 136.296875 L 391.621094 137.511719 L 377.992188 137.511719 C 378.5625 142.644531 381.078125 145.210938 385.535156 145.210938 C 387.164062 145.210938 389.167969 144.769531 391.542969 143.894531 Z M 378.171875 134.566406 L 387.703125 134.566406 C 387.703125 130.546875 386.203125 128.539062 383.207031 128.539062 C 380.195312 128.539062 378.519531 130.546875 378.171875 134.566406 Z M 409.765625 144.949219 C 407.417969 147.113281 405.15625 148.191406 402.980469 148.191406 C 401.191406 148.191406 399.703125 147.632812 398.523438 146.511719 C 397.34375 145.390625 396.753906 143.976562 396.753906 142.265625 C 396.753906 139.902344 397.746094 138.089844 399.730469 136.824219 C 401.710938 135.558594 404.554688 134.925781 408.253906 134.925781 L 409.1875 134.925781 L 409.1875 132.316406 C 409.1875 129.8125 407.902344 128.558594 405.328125 128.558594 C 403.261719 128.558594 401.023438 129.195312 398.625 130.46875 L 398.625 127.226562 C 401.265625 126.148438 403.738281 125.613281 406.046875 125.613281 C 408.460938 125.613281 410.238281 126.15625 411.386719 127.246094 C 412.535156 128.332031 413.105469 130.023438 413.105469 132.316406 L 413.105469 142.105469 C 413.105469 144.347656 413.796875 145.46875 415.175781 145.46875 C 415.347656 145.46875 415.601562 145.441406 415.933594 145.386719 L 416.210938 147.558594 C 415.320312 147.980469 414.339844 148.191406 413.265625 148.191406 C 411.4375 148.191406 410.269531 147.113281 409.765625 144.949219 Z M 409.1875 142.820312 L 409.1875 137.230469 L 407.875 137.191406 C 405.726562 137.191406 403.988281 137.601562 402.664062 138.414062 C 401.335938 139.230469 400.671875 140.300781 400.671875 141.628906 C 400.671875 142.570312 401.003906 143.367188 401.667969 144.015625 C 402.332031 144.664062 403.140625 144.992188 404.09375 144.992188 C 405.726562 144.992188 407.425781 144.269531 409.1875 142.820312 "/>
</g>
</svg>
