<?xml version="1.0" encoding="UTF-8"?>
<svg xmlns="http://www.w3.org/2000/svg" xmlns:xlink="http://www.w3.org/1999/xlink" width="261pt" height="332pt" viewBox="0 0 261 332" version="1.1">
<g id="surface1">
<rect x="0" y="0" width="261" height="332" style="fill:rgb(100%,100%,100%);fill-opacity:1;stroke:none;"/>
<path style="fill:none;stroke-width:10;stroke-linecap:butt;stroke-linejoin:miter;stroke:rgb(0%,0%,0%);stroke-opacity:1;stroke-miterlimit:10;" d="M 228.867188 3428.359375 L 228.867188 -255.390625 " transform="matrix(0.1,0,0,-0.1,0,332)"/>
<path style="fill:none;stroke-width:10;stroke-linecap:butt;stroke-linejoin:miter;stroke:rgb(0%,0%,0%);stroke-opacity:1;stroke-miterlimit:10;" d="M -108.359375 624.101562 L 4206.328125 624.101562 " transform="matrix(0.1,0,0,-0.1,0,332)"/>
<path style="fill:none;stroke-width:10;stroke-linecap:butt;stroke-linejoin:miter;stroke:rgb(0%,0%,0%);stroke-opacity:1;stroke-miterlimit:10;" d="M 228.867188 624.101562 L 228.867188 605 " transform="matrix(0.1,0,0,-0.1,0,332)"/>
<path style=" stroke:none;fill-rule:nonzero;fill:rgb(0%,0%,0%);fill-opacity:1;" d="M 78.386719 279.785156 L 78.386719 279.140625 C 78.601562 278.640625 79.035156 278.09375 79.6875 277.503906 L 80.109375 277.125 C 80.652344 276.636719 80.921875 276.148438 80.921875 275.664062 C 80.921875 275.355469 80.832031 275.113281 80.644531 274.9375 C 80.460938 274.761719 80.207031 274.671875 79.882812 274.671875 C 79.5 274.671875 79.046875 274.820312 78.527344 275.117188 L 78.527344 274.46875 C 79.015625 274.234375 79.503906 274.121094 79.988281 274.121094 C 80.503906 274.121094 80.921875 274.257812 81.234375 274.539062 C 81.546875 274.816406 81.703125 275.1875 81.703125 275.648438 C 81.703125 275.976562 81.625 276.273438 81.46875 276.527344 C 81.308594 276.785156 81.015625 277.097656 80.585938 277.460938 L 80.300781 277.707031 C 79.710938 278.207031 79.367188 278.683594 79.277344 279.140625 L 81.679688 279.140625 L 81.679688 279.785156 "/>
<path style="fill:none;stroke-width:10;stroke-linecap:butt;stroke-linejoin:miter;stroke:rgb(0%,0%,0%);stroke-opacity:1;stroke-miterlimit:10;" d="M 795.820312 624.101562 L 795.820312 605 " transform="matrix(0.1,0,0,-0.1,0,332)"/>
<path style=" stroke:none;fill-rule:nonzero;fill:rgb(0%,0%,0%);fill-opacity:1;" d="M 137.355469 279.785156 L 137.355469 278.21875 L 134.867188 278.21875 L 134.867188 277.664062 L 137.355469 274.257812 L 138.046875 274.257812 L 138.046875 277.617188 L 138.785156 277.617188 L 138.785156 278.21875 L 138.046875 278.21875 L 138.046875 279.785156 Z M 135.589844 277.617188 L 137.402344 277.617188 L 137.402344 275.160156 "/>
<path style="fill:none;stroke-width:10;stroke-linecap:butt;stroke-linejoin:miter;stroke:rgb(0%,0%,0%);stroke-opacity:1;stroke-miterlimit:10;" d="M 1362.734375 624.101562 L 1362.734375 605 " transform="matrix(0.1,0,0,-0.1,0,332)"/>
<path style=" stroke:none;fill-rule:nonzero;fill:rgb(0%,0%,0%);fill-opacity:1;" d="M 192.511719 276.921875 C 192.863281 276.464844 193.304688 276.238281 193.835938 276.238281 C 194.320312 276.238281 194.714844 276.398438 195.023438 276.71875 C 195.328125 277.035156 195.484375 277.449219 195.484375 277.949219 C 195.484375 278.523438 195.3125 278.996094 194.96875 279.367188 C 194.621094 279.738281 194.183594 279.921875 193.652344 279.921875 C 193.042969 279.921875 192.566406 279.679688 192.222656 279.1875 C 191.878906 278.695312 191.710938 278.015625 191.710938 277.144531 C 191.710938 276.1875 191.90625 275.441406 192.300781 274.910156 C 192.695312 274.382812 193.25 274.117188 193.96875 274.117188 C 194.296875 274.117188 194.707031 274.1875 195.199219 274.324219 L 195.199219 274.96875 C 194.679688 274.769531 194.253906 274.667969 193.921875 274.667969 C 192.980469 274.667969 192.511719 275.417969 192.511719 276.921875 Z M 194.746094 278.113281 C 194.746094 277.695312 194.652344 277.363281 194.464844 277.125 C 194.273438 276.886719 194.015625 276.769531 193.679688 276.769531 C 193.367188 276.769531 193.101562 276.871094 192.878906 277.082031 C 192.652344 277.289062 192.539062 277.542969 192.539062 277.835938 C 192.539062 278.296875 192.648438 278.671875 192.859375 278.949219 C 193.074219 279.230469 193.355469 279.371094 193.707031 279.371094 C 194.023438 279.371094 194.273438 279.257812 194.464844 279.027344 C 194.652344 278.800781 194.746094 278.496094 194.746094 278.113281 "/>
<path style="fill:none;stroke-width:10;stroke-linecap:butt;stroke-linejoin:miter;stroke:rgb(0%,0%,0%);stroke-opacity:1;stroke-miterlimit:10;" d="M 1929.6875 624.101562 L 1929.6875 605 " transform="matrix(0.1,0,0,-0.1,0,332)"/>
<path style=" stroke:none;fill-rule:nonzero;fill:rgb(0%,0%,0%);fill-opacity:1;" d="M 249.679688 276.773438 C 249.136719 276.398438 248.867188 275.984375 248.867188 275.527344 C 248.867188 275.109375 249.019531 274.769531 249.328125 274.507812 C 249.632812 274.246094 250.03125 274.117188 250.523438 274.117188 C 250.980469 274.117188 251.351562 274.226562 251.632812 274.449219 C 251.914062 274.671875 252.058594 274.957031 252.058594 275.3125 C 252.058594 275.847656 251.714844 276.335938 251.027344 276.773438 C 251.859375 277.183594 252.277344 277.710938 252.277344 278.355469 C 252.277344 278.816406 252.101562 279.195312 251.753906 279.484375 C 251.402344 279.777344 250.949219 279.921875 250.398438 279.921875 C 249.855469 279.921875 249.417969 279.785156 249.082031 279.511719 C 248.746094 279.234375 248.578125 278.875 248.578125 278.425781 C 248.578125 277.761719 248.945312 277.214844 249.679688 276.773438 Z M 250.613281 276.542969 C 251.128906 276.207031 251.386719 275.828125 251.386719 275.410156 C 251.386719 275.191406 251.300781 275.011719 251.128906 274.875 C 250.960938 274.742188 250.730469 274.671875 250.449219 274.671875 C 250.179688 274.671875 249.960938 274.738281 249.789062 274.871094 C 249.621094 275.007812 249.535156 275.179688 249.535156 275.390625 C 249.535156 275.597656 249.613281 275.78125 249.765625 275.945312 C 249.917969 276.105469 250.203125 276.308594 250.613281 276.542969 Z M 250.078125 277.074219 C 249.78125 277.300781 249.578125 277.503906 249.472656 277.671875 C 249.367188 277.84375 249.316406 278.054688 249.316406 278.308594 C 249.316406 278.625 249.417969 278.882812 249.621094 279.078125 C 249.824219 279.273438 250.09375 279.371094 250.429688 279.371094 C 250.75 279.371094 251.011719 279.285156 251.214844 279.121094 C 251.417969 278.953125 251.519531 278.738281 251.519531 278.46875 C 251.519531 278.257812 251.457031 278.074219 251.328125 277.925781 C 251.203125 277.777344 250.960938 277.597656 250.601562 277.382812 "/>
<path style="fill:none;stroke-width:10;stroke-linecap:butt;stroke-linejoin:miter;stroke:rgb(0%,0%,0%);stroke-opacity:1;stroke-miterlimit:10;" d="M 2496.601562 624.101562 L 2496.601562 605 " transform="matrix(0.1,0,0,-0.1,0,332)"/>
<path style="fill:none;stroke-width:10;stroke-linecap:butt;stroke-linejoin:miter;stroke:rgb(0%,0%,0%);stroke-opacity:1;stroke-miterlimit:10;" d="M 209.765625 57.1875 L 228.867188 57.1875 " transform="matrix(0.1,0,0,-0.1,0,332)"/>
<path style="fill:none;stroke-width:10;stroke-linecap:butt;stroke-linejoin:miter;stroke:rgb(0%,0%,0%);stroke-opacity:1;stroke-miterlimit:10;" d="M 209.765625 340.625 L 228.867188 340.625 " transform="matrix(0.1,0,0,-0.1,0,332)"/>
<path style="fill:none;stroke-width:10;stroke-linecap:butt;stroke-linejoin:miter;stroke:rgb(0%,0%,0%);stroke-opacity:1;stroke-miterlimit:10;" d="M 209.765625 907.578125 L 228.867188 907.578125 " transform="matrix(0.1,0,0,-0.1,0,332)"/>
<path style="fill:none;stroke-width:10;stroke-linecap:butt;stroke-linejoin:miter;stroke:rgb(0%,0%,0%);stroke-opacity:1;stroke-miterlimit:10;" d="M 209.765625 1191.054688 L 228.867188 1191.054688 " transform="matrix(0.1,0,0,-0.1,0,332)"/>
<path style="fill:none;stroke-width:10;stroke-linecap:butt;stroke-linejoin:miter;stroke:rgb(0%,0%,0%);stroke-opacity:1;stroke-miterlimit:10;" d="M 209.765625 1474.492188 L 228.867188 1474.492188 " transform="matrix(0.1,0,0,-0.1,0,332)"/>
<path style="fill:none;stroke-width:10;stroke-linecap:butt;stroke-linejoin:miter;stroke:rgb(0%,0%,0%);stroke-opacity:1;stroke-miterlimit:10;" d="M 209.765625 1757.96875 L 228.867188 1757.96875 " transform="matrix(0.1,0,0,-0.1,0,332)"/>
<path style="fill:none;stroke-width:10;stroke-linecap:butt;stroke-linejoin:miter;stroke:rgb(0%,0%,0%);stroke-opacity:1;stroke-miterlimit:10;" d="M 209.765625 2041.445312 L 228.867188 2041.445312 " transform="matrix(0.1,0,0,-0.1,0,332)"/>
<path style="fill:none;stroke-width:10;stroke-linecap:butt;stroke-linejoin:miter;stroke:rgb(0%,0%,0%);stroke-opacity:1;stroke-miterlimit:10;" d="M 209.765625 2324.882812 L 228.867188 2324.882812 " transform="matrix(0.1,0,0,-0.1,0,332)"/>
<path style="fill:none;stroke-width:10;stroke-linecap:butt;stroke-linejoin:miter;stroke:rgb(0%,0%,0%);stroke-opacity:1;stroke-miterlimit:10;" d="M 209.765625 2608.359375 L 228.867188 2608.359375 " transform="matrix(0.1,0,0,-0.1,0,332)"/>
<path style="fill:none;stroke-width:10;stroke-linecap:butt;stroke-linejoin:miter;stroke:rgb(0%,0%,0%);stroke-opacity:1;stroke-miterlimit:10;" d="M 209.765625 2891.835938 L 228.867188 2891.835938 " transform="matrix(0.1,0,0,-0.1,0,332)"/>
<path style="fill:none;stroke-width:10;stroke-linecap:butt;stroke-linejoin:miter;stroke:rgb(0%,0%,0%);stroke-opacity:1;stroke-miterlimit:10;" d="M 209.765625 3175.273438 L 228.867188 3175.273438 " transform="matrix(0.1,0,0,-0.1,0,332)"/>
<path style=" stroke:none;fill-rule:nonzero;fill:rgb(0%,0%,0%);fill-opacity:1;" d="M 9.3125 326.832031 L 9.3125 326.324219 L 12.355469 326.324219 L 12.355469 326.832031 Z M 15.625 328.859375 L 15.625 327.292969 L 13.140625 327.292969 L 13.140625 326.738281 L 15.625 323.332031 L 16.316406 323.332031 L 16.316406 326.691406 L 17.054688 326.691406 L 17.054688 327.292969 L 16.316406 327.292969 L 16.316406 328.859375 Z M 13.859375 326.691406 L 15.675781 326.691406 L 15.675781 324.234375 "/>
<path style=" stroke:none;fill-rule:nonzero;fill:rgb(0%,0%,0%);fill-opacity:1;" d="M 9.3125 298.789062 L 9.3125 298.28125 L 12.355469 298.28125 L 12.355469 298.789062 Z M 13.382812 300.816406 L 13.382812 300.171875 C 13.59375 299.671875 14.027344 299.125 14.679688 298.535156 L 15.101562 298.15625 C 15.644531 297.667969 15.917969 297.179688 15.917969 296.699219 C 15.917969 296.390625 15.824219 296.144531 15.640625 295.96875 C 15.453125 295.792969 15.199219 295.703125 14.875 295.703125 C 14.492188 295.703125 14.039062 295.851562 13.519531 296.148438 L 13.519531 295.5 C 14.011719 295.269531 14.496094 295.152344 14.980469 295.152344 C 15.496094 295.152344 15.914062 295.289062 16.226562 295.570312 C 16.539062 295.847656 16.699219 296.21875 16.699219 296.679688 C 16.699219 297.011719 16.617188 297.304688 16.460938 297.558594 C 16.300781 297.816406 16.007812 298.128906 15.578125 298.492188 L 15.292969 298.738281 C 14.703125 299.238281 14.363281 299.714844 14.269531 300.171875 L 16.671875 300.171875 L 16.671875 300.816406 "/>
<path style=" stroke:none;fill-rule:nonzero;fill:rgb(0%,0%,0%);fill-opacity:1;" d="M 13.382812 244.09375 L 13.382812 243.449219 C 13.59375 242.949219 14.027344 242.402344 14.679688 241.8125 L 15.101562 241.4375 C 15.644531 240.945312 15.917969 240.460938 15.917969 239.976562 C 15.917969 239.667969 15.824219 239.425781 15.640625 239.246094 C 15.453125 239.070312 15.199219 238.980469 14.875 238.980469 C 14.492188 238.980469 14.039062 239.132812 13.519531 239.425781 L 13.519531 238.777344 C 14.011719 238.546875 14.496094 238.429688 14.980469 238.429688 C 15.496094 238.429688 15.914062 238.570312 16.226562 238.847656 C 16.539062 239.128906 16.699219 239.496094 16.699219 239.957031 C 16.699219 240.289062 16.617188 240.582031 16.460938 240.839844 C 16.300781 241.09375 16.007812 241.40625 15.578125 241.773438 L 15.292969 242.015625 C 14.703125 242.515625 14.363281 242.992188 14.269531 243.449219 L 16.671875 243.449219 L 16.671875 244.09375 "/>
<path style=" stroke:none;fill-rule:nonzero;fill:rgb(0%,0%,0%);fill-opacity:1;" d="M 15.625 216.054688 L 15.625 214.488281 L 13.140625 214.488281 L 13.140625 213.933594 L 15.625 210.527344 L 16.316406 210.527344 L 16.316406 213.886719 L 17.054688 213.886719 L 17.054688 214.488281 L 16.316406 214.488281 L 16.316406 216.054688 Z M 13.859375 213.886719 L 15.675781 213.886719 L 15.675781 211.429688 "/>
<path style=" stroke:none;fill-rule:nonzero;fill:rgb(0%,0%,0%);fill-opacity:1;" d="M 14.0625 184.507812 C 14.410156 184.054688 14.855469 183.824219 15.386719 183.824219 C 15.871094 183.824219 16.265625 183.984375 16.574219 184.304688 C 16.878906 184.625 17.035156 185.035156 17.035156 185.535156 C 17.035156 186.109375 16.859375 186.585938 16.515625 186.953125 C 16.171875 187.324219 15.734375 187.511719 15.203125 187.511719 C 14.59375 187.511719 14.117188 187.265625 13.773438 186.777344 C 13.429688 186.285156 13.257812 185.605469 13.257812 184.734375 C 13.257812 183.773438 13.457031 183.03125 13.851562 182.5 C 14.246094 181.96875 14.800781 181.703125 15.515625 181.703125 C 15.847656 181.703125 16.257812 181.773438 16.75 181.914062 L 16.75 182.554688 C 16.230469 182.355469 15.804688 182.257812 15.472656 182.257812 C 14.53125 182.257812 14.0625 183.007812 14.0625 184.507812 Z M 16.292969 185.699219 C 16.292969 185.28125 16.199219 184.953125 16.011719 184.714844 C 15.824219 184.476562 15.5625 184.355469 15.230469 184.355469 C 14.917969 184.355469 14.652344 184.460938 14.425781 184.671875 C 14.203125 184.878906 14.089844 185.128906 14.089844 185.425781 C 14.089844 185.886719 14.199219 186.257812 14.410156 186.539062 C 14.621094 186.816406 14.90625 186.960938 15.257812 186.960938 C 15.574219 186.960938 15.824219 186.84375 16.011719 186.617188 C 16.199219 186.390625 16.292969 186.085938 16.292969 185.699219 "/>
<path style=" stroke:none;fill-rule:nonzero;fill:rgb(0%,0%,0%);fill-opacity:1;" d="M 14.503906 156.320312 C 13.964844 155.945312 13.695312 155.527344 13.695312 155.074219 C 13.695312 154.65625 13.847656 154.316406 14.15625 154.054688 C 14.460938 153.792969 14.859375 153.660156 15.351562 153.660156 C 15.808594 153.660156 16.175781 153.773438 16.460938 153.996094 C 16.742188 154.214844 16.882812 154.503906 16.882812 154.855469 C 16.882812 155.394531 16.539062 155.878906 15.851562 156.320312 C 16.6875 156.730469 17.105469 157.257812 17.105469 157.902344 C 17.105469 158.363281 16.929688 158.742188 16.578125 159.03125 C 16.230469 159.324219 15.777344 159.46875 15.226562 159.46875 C 14.683594 159.46875 14.246094 159.332031 13.910156 159.054688 C 13.574219 158.78125 13.40625 158.421875 13.40625 157.972656 C 13.40625 157.308594 13.773438 156.757812 14.503906 156.320312 Z M 15.441406 156.089844 C 15.957031 155.75 16.214844 155.375 16.214844 154.957031 C 16.214844 154.734375 16.128906 154.558594 15.957031 154.421875 C 15.785156 154.285156 15.558594 154.21875 15.277344 154.21875 C 15.007812 154.21875 14.785156 154.285156 14.617188 154.417969 C 14.449219 154.550781 14.363281 154.722656 14.363281 154.9375 C 14.363281 155.140625 14.441406 155.328125 14.59375 155.488281 C 14.746094 155.652344 15.03125 155.851562 15.441406 156.089844 Z M 14.90625 156.621094 C 14.609375 156.847656 14.40625 157.046875 14.300781 157.21875 C 14.195312 157.390625 14.144531 157.601562 14.144531 157.855469 C 14.144531 158.171875 14.246094 158.429688 14.449219 158.621094 C 14.652344 158.820312 14.921875 158.914062 15.257812 158.914062 C 15.578125 158.914062 15.839844 158.832031 16.042969 158.664062 C 16.246094 158.5 16.347656 158.28125 16.347656 158.015625 C 16.347656 157.800781 16.285156 157.621094 16.15625 157.472656 C 16.03125 157.324219 15.789062 157.144531 15.425781 156.929688 "/>
<path style=" stroke:none;fill-rule:nonzero;fill:rgb(0%,0%,0%);fill-opacity:1;" d="M 8.796875 130.652344 L 8.796875 130.097656 L 9.902344 130.097656 L 9.902344 125.738281 L 8.796875 126.011719 L 8.796875 125.445312 L 10.644531 124.984375 L 10.644531 130.097656 L 11.746094 130.097656 L 11.746094 130.652344 Z M 15.144531 130.789062 C 14.574219 130.789062 14.113281 130.519531 13.761719 129.984375 C 13.40625 129.449219 13.230469 128.746094 13.230469 127.882812 C 13.230469 127.011719 13.410156 126.3125 13.765625 125.78125 C 14.117188 125.253906 14.585938 124.984375 15.167969 124.984375 C 15.746094 124.984375 16.214844 125.253906 16.570312 125.78125 C 16.921875 126.3125 17.101562 127.007812 17.101562 127.871094 C 17.101562 128.757812 16.921875 129.46875 16.570312 129.996094 C 16.214844 130.523438 15.738281 130.789062 15.144531 130.789062 Z M 15.152344 130.238281 C 15.929688 130.238281 16.320312 129.445312 16.320312 127.863281 C 16.320312 126.3125 15.933594 125.539062 15.167969 125.539062 C 14.398438 125.539062 14.015625 126.320312 14.015625 127.882812 C 14.015625 129.453125 14.394531 130.238281 15.152344 130.238281 "/>
<path style=" stroke:none;fill-rule:nonzero;fill:rgb(0%,0%,0%);fill-opacity:1;" d="M 8.796875 102.609375 L 8.796875 102.054688 L 9.902344 102.054688 L 9.902344 97.695312 L 8.796875 97.972656 L 8.796875 97.402344 L 10.644531 96.945312 L 10.644531 102.054688 L 11.746094 102.054688 L 11.746094 102.609375 Z M 13.382812 102.609375 L 13.382812 101.964844 C 13.59375 101.460938 14.027344 100.917969 14.679688 100.328125 L 15.101562 99.949219 C 15.644531 99.460938 15.917969 98.972656 15.917969 98.488281 C 15.917969 98.179688 15.824219 97.9375 15.640625 97.761719 C 15.453125 97.585938 15.199219 97.496094 14.875 97.496094 C 14.492188 97.496094 14.039062 97.644531 13.519531 97.941406 L 13.519531 97.289062 C 14.011719 97.058594 14.496094 96.945312 14.980469 96.945312 C 15.496094 96.945312 15.914062 97.085938 16.226562 97.363281 C 16.539062 97.640625 16.699219 98.011719 16.699219 98.472656 C 16.699219 98.804688 16.617188 99.097656 16.460938 99.351562 C 16.300781 99.609375 16.007812 99.921875 15.578125 100.285156 L 15.292969 100.527344 C 14.703125 101.027344 14.363281 101.507812 14.269531 101.964844 L 16.671875 101.964844 L 16.671875 102.609375 "/>
<path style=" stroke:none;fill-rule:nonzero;fill:rgb(0%,0%,0%);fill-opacity:1;" d="M 8.796875 73.929688 L 8.796875 73.378906 L 9.902344 73.378906 L 9.902344 69.015625 L 8.796875 69.289062 L 8.796875 68.722656 L 10.644531 68.265625 L 10.644531 73.378906 L 11.746094 73.378906 L 11.746094 73.929688 Z M 15.625 73.929688 L 15.625 72.363281 L 13.140625 72.363281 L 13.140625 71.808594 L 15.625 68.402344 L 16.316406 68.402344 L 16.316406 71.765625 L 17.054688 71.765625 L 17.054688 72.363281 L 16.316406 72.363281 L 16.316406 73.929688 Z M 13.859375 71.765625 L 15.675781 71.765625 L 15.675781 69.304688 "/>
<path style=" stroke:none;fill-rule:nonzero;fill:rgb(0%,0%,0%);fill-opacity:1;" d="M 8.796875 45.886719 L 8.796875 45.335938 L 9.902344 45.335938 L 9.902344 40.972656 L 8.796875 41.25 L 8.796875 40.683594 L 10.644531 40.222656 L 10.644531 45.335938 L 11.746094 45.335938 L 11.746094 45.886719 Z M 14.0625 43.023438 C 14.410156 42.566406 14.855469 42.339844 15.386719 42.339844 C 15.871094 42.339844 16.265625 42.5 16.574219 42.820312 C 16.878906 43.140625 17.035156 43.550781 17.035156 44.050781 C 17.035156 44.625 16.859375 45.097656 16.515625 45.46875 C 16.171875 45.839844 15.734375 46.023438 15.203125 46.023438 C 14.59375 46.023438 14.117188 45.78125 13.773438 45.289062 C 13.429688 44.800781 13.257812 44.117188 13.257812 43.246094 C 13.257812 42.289062 13.457031 41.542969 13.851562 41.015625 C 14.246094 40.484375 14.800781 40.21875 15.515625 40.21875 C 15.847656 40.21875 16.257812 40.289062 16.75 40.429688 L 16.75 41.070312 C 16.230469 40.871094 15.804688 40.769531 15.472656 40.769531 C 14.53125 40.769531 14.0625 41.523438 14.0625 43.023438 Z M 16.292969 44.214844 C 16.292969 43.796875 16.199219 43.46875 16.011719 43.230469 C 15.824219 42.988281 15.5625 42.871094 15.230469 42.871094 C 14.917969 42.871094 14.652344 42.976562 14.425781 43.183594 C 14.203125 43.394531 14.089844 43.644531 14.089844 43.9375 C 14.089844 44.402344 14.199219 44.773438 14.410156 45.054688 C 14.621094 45.332031 14.90625 45.472656 15.257812 45.472656 C 15.574219 45.472656 15.824219 45.359375 16.011719 45.132812 C 16.199219 44.902344 16.292969 44.597656 16.292969 44.214844 "/>
<path style=" stroke:none;fill-rule:nonzero;fill:rgb(0%,0%,0%);fill-opacity:1;" d="M 8.796875 17.207031 L 8.796875 16.65625 L 9.902344 16.65625 L 9.902344 12.292969 L 8.796875 12.570312 L 8.796875 12.003906 L 10.644531 11.542969 L 10.644531 16.65625 L 11.746094 16.65625 L 11.746094 17.207031 Z M 14.503906 14.199219 C 13.964844 13.820312 13.695312 13.40625 13.695312 12.949219 C 13.695312 12.53125 13.847656 12.191406 14.15625 11.929688 C 14.460938 11.671875 14.859375 11.539062 15.351562 11.539062 C 15.808594 11.539062 16.175781 11.648438 16.460938 11.871094 C 16.742188 12.09375 16.882812 12.378906 16.882812 12.734375 C 16.882812 13.269531 16.539062 13.757812 15.851562 14.199219 C 16.6875 14.605469 17.105469 15.132812 17.105469 15.777344 C 17.105469 16.242188 16.929688 16.617188 16.578125 16.910156 C 16.230469 17.199219 15.777344 17.347656 15.226562 17.347656 C 14.683594 17.347656 14.246094 17.207031 13.910156 16.933594 C 13.574219 16.65625 13.40625 16.296875 13.40625 15.847656 C 13.40625 15.1875 13.773438 14.636719 14.503906 14.199219 Z M 15.441406 13.964844 C 15.957031 13.628906 16.214844 13.25 16.214844 12.835938 C 16.214844 12.613281 16.128906 12.433594 15.957031 12.300781 C 15.785156 12.164062 15.558594 12.09375 15.277344 12.09375 C 15.007812 12.09375 14.785156 12.160156 14.617188 12.296875 C 14.449219 12.429688 14.363281 12.601562 14.363281 12.8125 C 14.363281 13.019531 14.441406 13.203125 14.59375 13.367188 C 14.746094 13.53125 15.03125 13.730469 15.441406 13.964844 Z M 14.90625 14.496094 C 14.609375 14.726562 14.40625 14.925781 14.300781 15.097656 C 14.195312 15.265625 14.144531 15.480469 14.144531 15.734375 C 14.144531 16.050781 14.246094 16.304688 14.449219 16.5 C 14.652344 16.695312 14.921875 16.792969 15.257812 16.792969 C 15.578125 16.792969 15.839844 16.710938 16.042969 16.542969 C 16.246094 16.375 16.347656 16.160156 16.347656 15.894531 C 16.347656 15.679688 16.285156 15.496094 16.15625 15.351562 C 16.03125 15.203125 15.789062 15.019531 15.425781 14.808594 "/>
<path style=" stroke:none;fill-rule:nonzero;fill:rgb(0%,0%,0%);fill-opacity:1;" d="M 15.144531 279.921875 C 14.574219 279.921875 14.113281 279.65625 13.761719 279.117188 C 13.40625 278.582031 13.230469 277.882812 13.230469 277.019531 C 13.230469 276.148438 13.410156 275.445312 13.765625 274.914062 C 14.117188 274.386719 14.585938 274.121094 15.167969 274.121094 C 15.746094 274.121094 16.214844 274.386719 16.570312 274.914062 C 16.921875 275.445312 17.101562 276.144531 17.101562 277.007812 C 17.101562 277.894531 16.921875 278.601562 16.570312 279.128906 C 16.214844 279.660156 15.738281 279.921875 15.144531 279.921875 Z M 15.152344 279.371094 C 15.929688 279.371094 16.320312 278.578125 16.320312 276.996094 C 16.320312 275.445312 15.933594 274.671875 15.167969 274.671875 C 14.398438 274.671875 14.015625 275.453125 14.015625 277.019531 C 14.015625 278.585938 14.394531 279.371094 15.152344 279.371094 "/>
<path style="fill-rule:nonzero;fill:rgb(94.139099%,98.046875%,90.234375%);fill-opacity:1;stroke-width:10;stroke-linecap:round;stroke-linejoin:round;stroke:rgb(39.988708%,80.076599%,0%);stroke-opacity:1;stroke-miterlimit:10;" d="M 795.820312 624.101562 L 795.820312 624.101562 M 795.820312 624.101562 L 795.820312 2200.898438 L 1008.398438 2200.898438 L 1008.398438 624.101562 M 1008.398438 624.101562 L 1008.398438 2519.765625 L 1221.015625 2519.765625 L 1221.015625 624.101562 M 1221.015625 624.101562 L 1221.015625 2838.671875 L 1433.59375 2838.671875 L 1433.59375 624.101562 M 1433.59375 624.101562 L 1433.59375 3157.578125 L 1646.210938 3157.578125 L 1646.210938 624.101562 L 795.820312 624.101562 " transform="matrix(0.1,0,0,-0.1,0,332)"/>
<path style="fill:none;stroke-width:25;stroke-linecap:round;stroke-linejoin:round;stroke:rgb(30.200195%,44.163513%,86.131287%);stroke-opacity:1;stroke-miterlimit:10;" d="M -108.359375 685.195312 L -74.53125 735.898438 L -40.742188 786.601562 L -6.914062 837.34375 L 26.875 888.046875 L 60.703125 938.75 L 94.492188 989.453125 L 128.320312 1040.195312 L 162.109375 1090.898438 L 195.9375 1141.601562 L 229.726562 1192.304688 L 263.554688 1243.046875 L 297.34375 1293.75 L 331.171875 1344.453125 L 364.960938 1395.15625 L 398.789062 1445.898438 L 432.578125 1496.601562 L 466.40625 1547.304688 L 500.195312 1598.007812 L 534.023438 1648.710938 L 567.8125 1699.453125 L 601.640625 1750.15625 L 669.21875 1851.5625 L 703.046875 1902.304688 L 736.835938 1953.007812 L 804.492188 2054.414062 L 838.28125 2105.117188 L 872.070312 2155.859375 L 905.898438 2206.5625 L 939.6875 2257.265625 L 973.515625 2307.96875 L 1007.304688 2358.671875 L 1041.132812 2409.414062 L 1074.921875 2460.117188 L 1108.75 2510.820312 L 1142.539062 2561.523438 L 1176.367188 2612.265625 L 1210.15625 2662.96875 L 1243.984375 2713.671875 L 1277.773438 2764.375 L 1311.601562 2815.117188 L 1345.390625 2865.820312 L 1379.21875 2916.523438 L 1413.007812 2967.226562 L 1446.835938 3017.96875 L 1480.625 3068.671875 L 1514.453125 3119.375 L 1582.03125 3220.78125 L 1615.859375 3271.523438 L 1649.6875 3322.226562 L 1683.476562 3372.929688 L 1717.304688 3423.632812 L 1751.09375 3474.375 " transform="matrix(0.1,0,0,-0.1,0,332)"/>
<path style=" stroke:none;fill-rule:nonzero;fill:rgb(0%,19.993591%,80.076599%);fill-opacity:1;" d="M 28.570312 215.753906 L 28.003906 219.726562 C 27.875 220.230469 27.6875 220.800781 27.433594 221.429688 C 27.433594 221.683594 27.371094 221.871094 27.246094 221.996094 C 26.992188 222.628906 26.613281 223.007812 26.109375 223.132812 C 26.109375 223.132812 26.046875 223.132812 25.921875 223.132812 C 25.542969 223.132812 25.226562 223.007812 24.976562 222.753906 C 24.847656 222.628906 24.785156 222.503906 24.785156 222.375 C 24.785156 221.996094 24.976562 221.746094 25.351562 221.617188 C 25.351562 221.617188 25.417969 221.617188 25.542969 221.617188 C 25.792969 221.617188 25.921875 221.683594 25.921875 221.808594 C 25.921875 221.933594 25.921875 221.996094 25.921875 221.996094 C 25.921875 222.25 25.792969 222.4375 25.542969 222.566406 C 25.542969 222.566406 25.480469 222.628906 25.351562 222.753906 C 25.480469 222.878906 25.667969 222.945312 25.921875 222.945312 C 26.300781 222.945312 26.550781 222.503906 26.679688 221.617188 C 26.804688 221.492188 26.867188 221.304688 26.867188 221.050781 L 26.867188 220.671875 L 27.8125 215.753906 L 27.054688 215.753906 C 26.804688 215.753906 26.679688 215.753906 26.679688 215.753906 C 26.679688 215.628906 26.742188 215.503906 26.867188 215.375 L 28.003906 215.375 C 28.128906 214.367188 28.253906 213.734375 28.382812 213.484375 C 28.632812 212.726562 29.011719 212.285156 29.515625 212.160156 C 29.640625 212.160156 29.769531 212.160156 29.894531 212.160156 C 30.273438 212.160156 30.589844 212.285156 30.839844 212.535156 C 30.839844 212.664062 30.839844 212.789062 30.839844 212.914062 C 30.839844 213.292969 30.714844 213.546875 30.460938 213.671875 C 30.460938 213.671875 30.398438 213.671875 30.273438 213.671875 C 30.019531 213.671875 29.894531 213.609375 29.894531 213.484375 C 29.769531 213.355469 29.707031 213.292969 29.707031 213.292969 C 29.707031 213.042969 29.832031 212.851562 30.082031 212.726562 C 30.210938 212.726562 30.335938 212.664062 30.460938 212.535156 C 30.335938 212.410156 30.148438 212.347656 29.894531 212.347656 C 29.640625 212.347656 29.453125 212.472656 29.328125 212.726562 C 29.199219 212.851562 29.074219 213.292969 28.949219 214.050781 L 28.757812 215.375 L 29.707031 215.375 C 29.957031 215.375 30.082031 215.4375 30.082031 215.566406 C 30.082031 215.691406 30.019531 215.753906 29.894531 215.753906 L 28.570312 215.753906 "/>
<path style=" stroke:none;fill-rule:nonzero;fill:rgb(0%,19.993591%,80.076599%);fill-opacity:1;" d="M 35.421875 223.511719 C 35.421875 223.636719 35.421875 223.699219 35.421875 223.699219 C 35.296875 223.699219 35.042969 223.511719 34.667969 223.132812 C 34.160156 222.628906 33.785156 222.0625 33.53125 221.429688 C 32.902344 220.296875 32.585938 219.035156 32.585938 217.644531 C 32.585938 216.257812 32.839844 214.996094 33.34375 213.863281 C 33.847656 212.980469 34.414062 212.285156 35.042969 211.78125 C 35.171875 211.652344 35.296875 211.589844 35.421875 211.589844 C 35.421875 211.589844 35.421875 211.652344 35.421875 211.78125 C 35.421875 211.78125 35.359375 211.84375 35.234375 211.96875 C 33.972656 213.230469 33.34375 215.121094 33.34375 217.644531 C 33.34375 220.167969 33.972656 222.0625 35.234375 223.320312 C 35.359375 223.449219 35.421875 223.511719 35.421875 223.511719 "/>
<path style=" stroke:none;fill-rule:nonzero;fill:rgb(0%,19.993591%,80.076599%);fill-opacity:1;" d="M 40.132812 217.078125 L 39.753906 218.59375 C 39.628906 219.222656 39.566406 219.601562 39.566406 219.726562 C 39.566406 220.105469 39.691406 220.359375 39.945312 220.484375 C 40.070312 220.484375 40.195312 220.484375 40.320312 220.484375 C 40.699219 220.484375 41.015625 220.296875 41.269531 219.914062 C 41.519531 219.664062 41.710938 219.347656 41.835938 218.96875 C 41.835938 218.84375 41.898438 218.78125 42.023438 218.78125 C 42.152344 218.78125 42.214844 218.84375 42.214844 218.96875 C 42.214844 219.097656 42.089844 219.347656 41.835938 219.726562 C 41.332031 220.484375 40.828125 220.863281 40.320312 220.863281 C 39.691406 220.863281 39.25 220.609375 38.996094 220.105469 C 38.996094 219.980469 38.996094 219.914062 38.996094 219.914062 C 38.746094 220.296875 38.429688 220.546875 38.050781 220.671875 C 37.925781 220.800781 37.800781 220.863281 37.671875 220.863281 C 37.167969 220.863281 36.789062 220.671875 36.539062 220.296875 C 36.539062 220.296875 36.539062 220.167969 36.539062 219.914062 C 36.539062 219.664062 36.664062 219.476562 36.914062 219.347656 C 37.042969 219.347656 37.105469 219.347656 37.105469 219.347656 C 37.359375 219.347656 37.546875 219.410156 37.671875 219.539062 C 37.671875 219.664062 37.671875 219.726562 37.671875 219.726562 C 37.671875 219.980469 37.546875 220.167969 37.292969 220.296875 C 37.167969 220.296875 37.105469 220.296875 37.105469 220.296875 C 37.230469 220.421875 37.421875 220.484375 37.671875 220.484375 C 38.050781 220.484375 38.367188 220.230469 38.617188 219.726562 C 38.746094 219.601562 38.808594 219.476562 38.808594 219.347656 C 39.1875 217.710938 39.375 216.699219 39.375 216.320312 C 39.375 215.816406 39.1875 215.566406 38.808594 215.566406 C 38.429688 215.566406 38.050781 215.816406 37.671875 216.320312 C 37.546875 216.449219 37.421875 216.636719 37.292969 216.890625 C 37.292969 216.890625 37.292969 216.953125 37.292969 217.078125 L 37.105469 217.269531 C 36.980469 217.269531 36.914062 217.269531 36.914062 217.269531 C 36.914062 217.015625 37.042969 216.699219 37.292969 216.320312 C 37.671875 215.691406 38.175781 215.375 38.808594 215.375 C 39.4375 215.375 39.878906 215.691406 40.132812 216.320312 C 40.386719 215.816406 40.699219 215.503906 41.078125 215.375 C 41.203125 215.375 41.332031 215.375 41.457031 215.375 C 41.960938 215.375 42.277344 215.503906 42.402344 215.753906 C 42.53125 215.878906 42.59375 216.007812 42.59375 216.132812 C 42.59375 216.511719 42.402344 216.699219 42.023438 216.699219 C 42.023438 216.824219 41.960938 216.890625 41.835938 216.890625 C 41.582031 216.890625 41.457031 216.761719 41.457031 216.511719 C 41.457031 216.511719 41.457031 216.449219 41.457031 216.320312 C 41.457031 216.070312 41.582031 215.878906 41.835938 215.753906 C 41.835938 215.753906 41.898438 215.753906 42.023438 215.753906 C 41.898438 215.628906 41.710938 215.566406 41.457031 215.566406 C 40.828125 215.566406 40.449219 216.007812 40.320312 216.890625 C 40.195312 216.890625 40.132812 216.953125 40.132812 217.078125 "/>
<path style=" stroke:none;fill-rule:nonzero;fill:rgb(0%,19.993591%,80.076599%);fill-opacity:1;" d="M 46.484375 217.644531 C 46.484375 219.035156 46.234375 220.296875 45.730469 221.429688 C 45.351562 222.3125 44.847656 223.007812 44.214844 223.511719 C 44.089844 223.636719 43.964844 223.699219 43.835938 223.699219 C 43.835938 223.699219 43.835938 223.636719 43.835938 223.511719 C 43.835938 223.511719 43.835938 223.449219 43.835938 223.320312 C 45.222656 222.0625 45.917969 220.167969 45.917969 217.644531 C 45.917969 215.121094 45.289062 213.230469 44.027344 211.96875 C 43.898438 211.84375 43.835938 211.78125 43.835938 211.78125 C 43.835938 211.652344 43.835938 211.589844 43.835938 211.589844 C 43.964844 211.589844 44.214844 211.78125 44.59375 212.160156 C 45.097656 212.664062 45.476562 213.230469 45.730469 213.863281 C 46.234375 214.996094 46.484375 216.257812 46.484375 217.644531 "/>
<path style=" stroke:none;fill-rule:nonzero;fill:rgb(0%,19.993591%,80.076599%);fill-opacity:1;" d="M 59.476562 216.699219 L 52.289062 216.699219 C 52.035156 216.699219 51.910156 216.636719 51.910156 216.511719 C 51.910156 216.386719 52.035156 216.320312 52.289062 216.320312 L 59.476562 216.320312 C 59.730469 216.320312 59.855469 216.386719 59.855469 216.511719 C 59.855469 216.636719 59.730469 216.699219 59.476562 216.699219 Z M 59.476562 218.96875 L 52.289062 218.96875 C 52.035156 218.96875 51.910156 218.90625 51.910156 218.78125 C 51.910156 218.65625 52.035156 218.59375 52.289062 218.59375 L 59.476562 218.59375 C 59.730469 218.59375 59.855469 218.65625 59.855469 218.78125 C 59.855469 218.90625 59.730469 218.96875 59.476562 218.96875 "/>
<path style=" stroke:none;fill-rule:nonzero;fill:rgb(0%,19.993591%,80.076599%);fill-opacity:1;" d="M 67.53125 216.320312 C 68.285156 216.574219 68.855469 217.015625 69.230469 217.644531 C 69.359375 217.898438 69.421875 218.214844 69.421875 218.59375 C 69.421875 219.222656 69.167969 219.789062 68.664062 220.296875 C 68.160156 220.671875 67.59375 220.863281 66.960938 220.863281 C 66.078125 220.863281 65.386719 220.671875 64.882812 220.296875 C 64.628906 219.914062 64.503906 219.476562 64.503906 218.96875 C 64.503906 218.59375 64.628906 218.402344 64.882812 218.402344 C 65.007812 218.402344 65.070312 218.402344 65.070312 218.402344 C 65.449219 218.402344 65.699219 218.527344 65.828125 218.78125 C 65.828125 218.90625 65.828125 218.96875 65.828125 218.96875 C 65.828125 219.347656 65.699219 219.601562 65.449219 219.726562 C 65.324219 219.726562 65.195312 219.726562 65.070312 219.726562 C 65.324219 220.230469 65.828125 220.484375 66.582031 220.484375 C 66.710938 220.609375 66.773438 220.671875 66.773438 220.671875 C 67.402344 220.671875 67.78125 220.421875 67.90625 219.914062 C 68.160156 219.539062 68.285156 219.097656 68.285156 218.59375 C 68.285156 217.582031 67.972656 216.953125 67.339844 216.699219 C 67.089844 216.574219 66.898438 216.511719 66.773438 216.511719 L 66.207031 216.511719 C 66.078125 216.511719 66.015625 216.511719 66.015625 216.511719 C 66.015625 216.386719 66.078125 216.320312 66.207031 216.320312 C 66.332031 216.320312 66.457031 216.320312 66.582031 216.320312 C 66.960938 216.320312 67.277344 216.132812 67.53125 215.753906 L 67.71875 215.566406 C 67.972656 215.1875 68.097656 214.746094 68.097656 214.238281 C 68.097656 213.484375 67.78125 213.042969 67.152344 212.914062 C 67.023438 212.914062 66.898438 212.914062 66.773438 212.914062 C 66.269531 212.914062 65.828125 213.105469 65.449219 213.484375 C 65.324219 213.484375 65.257812 213.546875 65.257812 213.671875 C 65.765625 213.671875 66.015625 213.863281 66.015625 214.238281 C 66.015625 214.492188 65.890625 214.683594 65.636719 214.808594 C 65.511719 214.808594 65.449219 214.808594 65.449219 214.808594 C 65.070312 214.808594 64.882812 214.683594 64.882812 214.429688 C 64.753906 214.429688 64.691406 214.367188 64.691406 214.238281 C 64.691406 213.734375 65.007812 213.292969 65.636719 212.914062 C 66.015625 212.664062 66.457031 212.535156 66.960938 212.535156 C 67.71875 212.535156 68.285156 212.789062 68.664062 213.292969 C 69.042969 213.546875 69.230469 213.863281 69.230469 214.238281 C 69.230469 214.996094 68.917969 215.566406 68.285156 215.941406 C 68.035156 216.195312 67.78125 216.320312 67.53125 216.320312 "/>
<path style=" stroke:none;fill-rule:nonzero;fill:rgb(0%,19.993591%,80.076599%);fill-opacity:1;" d="M 73.960938 217.078125 L 73.585938 218.59375 C 73.457031 219.222656 73.394531 219.601562 73.394531 219.726562 C 73.394531 220.105469 73.519531 220.359375 73.773438 220.484375 C 73.898438 220.484375 74.027344 220.484375 74.152344 220.484375 C 74.53125 220.484375 74.84375 220.296875 75.097656 219.914062 C 75.351562 219.664062 75.539062 219.347656 75.664062 218.96875 C 75.664062 218.84375 75.726562 218.78125 75.855469 218.78125 C 75.980469 218.78125 76.042969 218.84375 76.042969 218.96875 C 76.042969 219.097656 75.917969 219.347656 75.664062 219.726562 C 75.160156 220.484375 74.65625 220.863281 74.152344 220.863281 C 73.519531 220.863281 73.078125 220.609375 72.828125 220.105469 C 72.828125 219.980469 72.828125 219.914062 72.828125 219.914062 C 72.574219 220.296875 72.261719 220.546875 71.882812 220.671875 C 71.753906 220.800781 71.628906 220.863281 71.503906 220.863281 C 71 220.863281 70.621094 220.671875 70.367188 220.296875 C 70.367188 220.296875 70.367188 220.167969 70.367188 219.914062 C 70.367188 219.664062 70.492188 219.476562 70.746094 219.347656 C 70.871094 219.347656 70.933594 219.347656 70.933594 219.347656 C 71.1875 219.347656 71.378906 219.410156 71.503906 219.539062 C 71.503906 219.664062 71.503906 219.726562 71.503906 219.726562 C 71.503906 219.980469 71.378906 220.167969 71.125 220.296875 C 71 220.296875 70.933594 220.296875 70.933594 220.296875 C 71.0625 220.421875 71.25 220.484375 71.503906 220.484375 C 71.882812 220.484375 72.195312 220.230469 72.449219 219.726562 C 72.574219 219.601562 72.636719 219.476562 72.636719 219.347656 C 73.015625 217.710938 73.207031 216.699219 73.207031 216.320312 C 73.207031 215.816406 73.015625 215.566406 72.636719 215.566406 C 72.261719 215.566406 71.882812 215.816406 71.503906 216.320312 C 71.378906 216.449219 71.25 216.636719 71.125 216.890625 C 71.125 216.890625 71.125 216.953125 71.125 217.078125 L 70.933594 217.269531 C 70.808594 217.269531 70.746094 217.269531 70.746094 217.269531 C 70.746094 217.015625 70.871094 216.699219 71.125 216.320312 C 71.503906 215.691406 72.007812 215.375 72.636719 215.375 C 73.269531 215.375 73.710938 215.691406 73.960938 216.320312 C 74.214844 215.816406 74.53125 215.503906 74.910156 215.375 C 75.035156 215.375 75.160156 215.375 75.285156 215.375 C 75.792969 215.375 76.105469 215.503906 76.234375 215.753906 C 76.359375 215.878906 76.421875 216.007812 76.421875 216.132812 C 76.421875 216.511719 76.234375 216.699219 75.855469 216.699219 C 75.855469 216.824219 75.792969 216.890625 75.664062 216.890625 C 75.414062 216.890625 75.285156 216.761719 75.285156 216.511719 C 75.285156 216.511719 75.285156 216.449219 75.285156 216.320312 C 75.285156 216.070312 75.414062 215.878906 75.664062 215.753906 C 75.664062 215.753906 75.726562 215.753906 75.855469 215.753906 C 75.726562 215.628906 75.539062 215.566406 75.285156 215.566406 C 74.65625 215.566406 74.277344 216.007812 74.152344 216.890625 C 74.027344 216.890625 73.960938 216.953125 73.960938 217.078125 "/>
<path style=" stroke:none;fill-rule:nonzero;fill:rgb(0%,19.993591%,80.076599%);fill-opacity:1;" d="M 84.519531 217.835938 L 84.519531 221.242188 C 84.519531 221.492188 84.457031 221.617188 84.332031 221.617188 C 84.207031 221.617188 84.140625 221.492188 84.140625 221.242188 L 84.140625 217.835938 L 80.734375 217.835938 C 80.484375 217.835938 80.359375 217.773438 80.359375 217.644531 C 80.359375 217.519531 80.484375 217.457031 80.734375 217.457031 L 84.140625 217.457031 L 84.140625 214.050781 C 84.140625 213.800781 84.207031 213.671875 84.332031 213.671875 C 84.457031 213.671875 84.519531 213.800781 84.519531 214.050781 L 84.519531 217.457031 L 87.925781 217.457031 C 88.179688 217.457031 88.304688 217.519531 88.304688 217.644531 C 88.304688 217.773438 88.179688 217.835938 87.925781 217.835938 L 84.519531 217.835938 "/>
<path style=" stroke:none;fill-rule:nonzero;fill:rgb(0%,19.993591%,80.076599%);fill-opacity:1;" d="M 92.089844 218.59375 L 92.089844 218.214844 L 95.683594 212.535156 C 95.808594 212.535156 95.9375 212.535156 96.0625 212.535156 C 96.1875 212.535156 96.25 212.535156 96.25 212.535156 L 96.25 218.214844 L 97.386719 218.214844 L 97.386719 218.59375 L 96.25 218.59375 L 96.25 219.726562 C 96.25 219.980469 96.3125 220.105469 96.441406 220.105469 C 96.441406 220.230469 96.691406 220.296875 97.199219 220.296875 L 97.386719 220.296875 L 97.386719 220.671875 C 97.007812 220.671875 96.441406 220.671875 95.683594 220.671875 C 94.925781 220.671875 94.421875 220.671875 94.167969 220.671875 L 94.167969 220.296875 L 94.359375 220.296875 C 94.863281 220.296875 95.179688 220.230469 95.304688 220.105469 C 95.304688 219.980469 95.304688 219.855469 95.304688 219.726562 L 95.304688 218.59375 Z M 95.304688 218.214844 L 95.304688 213.863281 L 92.46875 218.214844 L 95.304688 218.214844 "/>
<path style="fill:none;stroke-width:25;stroke-linecap:butt;stroke-linejoin:round;stroke:rgb(100%,30.200195%,30.200195%);stroke-opacity:1;stroke-dasharray:65,40;stroke-miterlimit:10;" d="M 1114.726562 624.101562 L 1114.726562 2519.765625 " transform="matrix(0.1,0,0,-0.1,0,332)"/>
<path style=" stroke:none;fill-rule:nonzero;fill:rgb(100%,0%,0%);fill-opacity:1;" d="M 119.707031 173.054688 L 119.140625 177.027344 C 119.015625 177.53125 118.824219 178.097656 118.570312 178.730469 C 118.570312 178.980469 118.507812 179.171875 118.382812 179.296875 C 118.128906 179.929688 117.753906 180.304688 117.246094 180.433594 C 117.246094 180.433594 117.183594 180.433594 117.058594 180.433594 C 116.679688 180.433594 116.363281 180.304688 116.113281 180.054688 C 115.984375 179.929688 115.921875 179.800781 115.921875 179.675781 C 115.921875 179.296875 116.113281 179.046875 116.492188 178.917969 C 116.492188 178.917969 116.554688 178.917969 116.679688 178.917969 C 116.933594 178.917969 117.058594 178.980469 117.058594 179.109375 C 117.058594 179.234375 117.058594 179.296875 117.058594 179.296875 C 117.058594 179.550781 116.933594 179.738281 116.679688 179.863281 C 116.679688 179.863281 116.617188 179.929688 116.492188 180.054688 C 116.617188 180.179688 116.804688 180.242188 117.058594 180.242188 C 117.4375 180.242188 117.6875 179.800781 117.816406 178.917969 C 117.941406 178.792969 118.003906 178.601562 118.003906 178.351562 L 118.003906 177.972656 L 118.949219 173.054688 L 118.195312 173.054688 C 117.941406 173.054688 117.816406 173.054688 117.816406 173.054688 C 117.816406 172.925781 117.878906 172.800781 118.003906 172.675781 L 119.140625 172.675781 C 119.265625 171.664062 119.390625 171.035156 119.519531 170.78125 C 119.769531 170.027344 120.148438 169.585938 120.652344 169.457031 C 120.777344 169.457031 120.90625 169.457031 121.03125 169.457031 C 121.410156 169.457031 121.726562 169.585938 121.976562 169.835938 C 121.976562 169.964844 121.976562 170.089844 121.976562 170.214844 C 121.976562 170.59375 121.851562 170.847656 121.597656 170.972656 C 121.597656 170.972656 121.535156 170.972656 121.410156 170.972656 C 121.15625 170.972656 121.03125 170.910156 121.03125 170.78125 C 120.90625 170.65625 120.84375 170.59375 120.84375 170.59375 C 120.84375 170.339844 120.96875 170.152344 121.222656 170.027344 C 121.347656 170.027344 121.472656 169.964844 121.597656 169.835938 C 121.472656 169.710938 121.285156 169.648438 121.03125 169.648438 C 120.777344 169.648438 120.589844 169.773438 120.464844 170.027344 C 120.339844 170.152344 120.210938 170.59375 120.085938 171.351562 L 119.894531 172.675781 L 120.84375 172.675781 C 121.09375 172.675781 121.222656 172.738281 121.222656 172.863281 C 121.222656 172.988281 121.15625 173.054688 121.03125 173.054688 L 119.707031 173.054688 "/>
<path style=" stroke:none;fill-rule:nonzero;fill:rgb(100%,0%,0%);fill-opacity:1;" d="M 126.5625 180.8125 C 126.5625 180.9375 126.5625 181 126.5625 181 C 126.433594 181 126.183594 180.8125 125.804688 180.433594 C 125.300781 179.929688 124.921875 179.359375 124.667969 178.730469 C 124.039062 177.59375 123.722656 176.332031 123.722656 174.945312 C 123.722656 173.558594 123.976562 172.296875 124.480469 171.160156 C 124.984375 170.277344 125.550781 169.585938 126.183594 169.078125 C 126.308594 168.953125 126.433594 168.890625 126.5625 168.890625 C 126.5625 168.890625 126.5625 168.953125 126.5625 169.078125 C 126.5625 169.078125 126.496094 169.144531 126.371094 169.269531 C 125.109375 170.53125 124.480469 172.421875 124.480469 174.945312 C 124.480469 177.46875 125.109375 179.359375 126.371094 180.621094 C 126.496094 180.746094 126.5625 180.8125 126.5625 180.8125 "/>
<path style=" stroke:none;fill-rule:nonzero;fill:rgb(100%,0%,0%);fill-opacity:1;" d="M 127.296875 171.304688 L 138.453125 171.304688 L 138.453125 170.820312 L 127.296875 170.820312 Z M 127.296875 171.304688 "/>
<path style=" stroke:none;fill-rule:nonzero;fill:rgb(100%,0%,0%);fill-opacity:1;" d="M 131.269531 174.378906 L 130.890625 175.890625 C 130.765625 176.523438 130.703125 176.898438 130.703125 177.027344 C 130.703125 177.40625 130.828125 177.65625 131.082031 177.78125 C 131.207031 177.78125 131.332031 177.78125 131.460938 177.78125 C 131.839844 177.78125 132.152344 177.59375 132.40625 177.214844 C 132.65625 176.964844 132.847656 176.648438 132.972656 176.269531 C 132.972656 176.144531 133.035156 176.078125 133.160156 176.078125 C 133.289062 176.078125 133.351562 176.144531 133.351562 176.269531 C 133.351562 176.394531 133.226562 176.648438 132.972656 177.027344 C 132.46875 177.78125 131.964844 178.160156 131.460938 178.160156 C 130.828125 178.160156 130.386719 177.910156 130.136719 177.40625 C 130.136719 177.277344 130.136719 177.214844 130.136719 177.214844 C 129.882812 177.59375 129.566406 177.847656 129.1875 177.972656 C 129.0625 178.097656 128.9375 178.160156 128.808594 178.160156 C 128.304688 178.160156 127.925781 177.972656 127.675781 177.59375 C 127.675781 177.59375 127.675781 177.46875 127.675781 177.214844 C 127.675781 176.964844 127.800781 176.773438 128.054688 176.648438 C 128.179688 176.648438 128.242188 176.648438 128.242188 176.648438 C 128.496094 176.648438 128.683594 176.710938 128.808594 176.835938 C 128.808594 176.964844 128.808594 177.027344 128.808594 177.027344 C 128.808594 177.277344 128.683594 177.46875 128.433594 177.59375 C 128.304688 177.59375 128.242188 177.59375 128.242188 177.59375 C 128.367188 177.71875 128.558594 177.78125 128.808594 177.78125 C 129.1875 177.78125 129.503906 177.53125 129.757812 177.027344 C 129.882812 176.898438 129.945312 176.773438 129.945312 176.648438 C 130.324219 175.007812 130.511719 174 130.511719 173.621094 C 130.511719 173.117188 130.324219 172.863281 129.945312 172.863281 C 129.566406 172.863281 129.1875 173.117188 128.808594 173.621094 C 128.683594 173.746094 128.558594 173.9375 128.433594 174.1875 C 128.433594 174.1875 128.433594 174.253906 128.433594 174.378906 L 128.242188 174.566406 C 128.117188 174.566406 128.054688 174.566406 128.054688 174.566406 C 128.054688 174.3125 128.179688 174 128.433594 173.621094 C 128.808594 172.988281 129.316406 172.675781 129.945312 172.675781 C 130.574219 172.675781 131.019531 172.988281 131.269531 173.621094 C 131.523438 173.117188 131.839844 172.800781 132.214844 172.675781 C 132.34375 172.675781 132.46875 172.675781 132.59375 172.675781 C 133.097656 172.675781 133.414062 172.800781 133.539062 173.054688 C 133.664062 173.179688 133.730469 173.304688 133.730469 173.433594 C 133.730469 173.808594 133.539062 174 133.160156 174 C 133.160156 174.125 133.097656 174.1875 132.972656 174.1875 C 132.71875 174.1875 132.59375 174.0625 132.59375 173.808594 C 132.59375 173.808594 132.59375 173.746094 132.59375 173.621094 C 132.59375 173.367188 132.71875 173.179688 132.972656 173.054688 C 132.972656 173.054688 133.035156 173.054688 133.160156 173.054688 C 133.035156 172.925781 132.847656 172.863281 132.59375 172.863281 C 131.964844 172.863281 131.585938 173.304688 131.460938 174.1875 C 131.332031 174.1875 131.269531 174.253906 131.269531 174.378906 "/>
<path style=" stroke:none;fill-rule:nonzero;fill:rgb(100%,0%,0%);fill-opacity:1;" d="M 138.058594 178.332031 L 137.792969 179.789062 L 134.613281 179.789062 C 134.613281 179.613281 134.660156 179.523438 134.746094 179.523438 L 136.335938 177.671875 C 136.953125 176.964844 137.265625 176.34375 137.265625 175.816406 C 137.265625 175.285156 137.085938 174.890625 136.734375 174.625 C 136.558594 174.445312 136.335938 174.359375 136.070312 174.359375 C 135.71875 174.359375 135.410156 174.535156 135.144531 174.890625 C 135.054688 174.976562 135.011719 175.109375 135.011719 175.285156 C 135.011719 175.285156 135.054688 175.285156 135.144531 175.285156 C 135.320312 175.285156 135.453125 175.375 135.542969 175.550781 C 135.542969 175.640625 135.542969 175.683594 135.542969 175.683594 C 135.542969 175.949219 135.410156 176.078125 135.144531 176.078125 C 135.144531 176.167969 135.144531 176.214844 135.144531 176.214844 C 134.878906 176.214844 134.703125 176.125 134.613281 175.949219 C 134.613281 175.859375 134.613281 175.769531 134.613281 175.683594 C 134.613281 175.242188 134.789062 174.890625 135.144531 174.625 C 135.410156 174.269531 135.761719 174.09375 136.203125 174.09375 C 136.820312 174.09375 137.308594 174.3125 137.660156 174.757812 C 137.839844 175.019531 137.96875 175.328125 138.058594 175.683594 C 138.058594 175.683594 138.058594 175.726562 138.058594 175.816406 C 138.058594 176.167969 137.882812 176.566406 137.527344 177.007812 C 137.351562 177.183594 137.085938 177.40625 136.734375 177.671875 L 136.335938 178.199219 L 136.203125 178.199219 L 135.277344 179.128906 L 136.867188 179.128906 C 137.308594 179.128906 137.574219 179.128906 137.660156 179.128906 C 137.660156 179.039062 137.703125 178.773438 137.792969 178.332031 L 138.058594 178.332031 "/>
<path style=" stroke:none;fill-rule:nonzero;fill:rgb(100%,0%,0%);fill-opacity:1;" d="M 141.859375 174.945312 C 141.859375 176.332031 141.609375 177.59375 141.105469 178.730469 C 140.726562 179.613281 140.222656 180.304688 139.589844 180.8125 C 139.464844 180.9375 139.339844 181 139.214844 181 C 139.214844 181 139.214844 180.9375 139.214844 180.8125 C 139.214844 180.8125 139.214844 180.746094 139.214844 180.621094 C 140.601562 179.359375 141.292969 177.46875 141.292969 174.945312 C 141.292969 172.421875 140.664062 170.53125 139.402344 169.269531 C 139.273438 169.144531 139.214844 169.078125 139.214844 169.078125 C 139.214844 168.953125 139.214844 168.890625 139.214844 168.890625 C 139.339844 168.890625 139.589844 169.078125 139.96875 169.457031 C 140.472656 169.964844 140.851562 170.53125 141.105469 171.160156 C 141.609375 172.296875 141.859375 173.558594 141.859375 174.945312 "/>
<path style="fill:none;stroke-width:25;stroke-linecap:round;stroke-linejoin:round;stroke:rgb(30.200195%,30.200195%,30.200195%);stroke-opacity:1;stroke-miterlimit:10;" d="M 1008.398438 340.625 L 1221.015625 340.625 " transform="matrix(0.1,0,0,-0.1,0,332)"/>
<path style=" stroke:none;fill-rule:nonzero;fill:rgb(0%,0%,0%);fill-opacity:1;" d="M 110.835938 305.171875 L 115.1875 313.308594 C 115.1875 313.308594 115.1875 313.371094 115.1875 313.496094 C 115.1875 313.625 115.058594 313.6875 114.808594 313.6875 L 106.292969 313.6875 C 106.039062 313.6875 105.914062 313.625 105.914062 313.496094 C 105.914062 313.371094 105.914062 313.308594 105.914062 313.308594 L 110.265625 305.171875 C 110.394531 305.046875 110.457031 304.984375 110.457031 304.984375 C 110.582031 304.984375 110.710938 305.046875 110.835938 305.171875 Z M 110.457031 305.742188 L 106.484375 313.121094 L 114.617188 313.121094 L 110.457031 305.742188 "/>
<path style=" stroke:none;fill-rule:nonzero;fill:rgb(0%,0%,0%);fill-opacity:1;" d="M 119.894531 310.09375 L 119.515625 311.605469 C 119.390625 312.234375 119.328125 312.613281 119.328125 312.742188 C 119.328125 313.121094 119.453125 313.371094 119.707031 313.496094 C 119.832031 313.496094 119.960938 313.496094 120.085938 313.496094 C 120.464844 313.496094 120.777344 313.308594 121.03125 312.929688 C 121.28125 312.679688 121.472656 312.363281 121.597656 311.984375 C 121.597656 311.859375 121.660156 311.792969 121.789062 311.792969 C 121.914062 311.792969 121.976562 311.859375 121.976562 311.984375 C 121.976562 312.109375 121.851562 312.363281 121.597656 312.742188 C 121.09375 313.496094 120.589844 313.875 120.085938 313.875 C 119.453125 313.875 119.011719 313.625 118.761719 313.121094 C 118.761719 312.992188 118.761719 312.929688 118.761719 312.929688 C 118.507812 313.308594 118.191406 313.5625 117.8125 313.6875 C 117.6875 313.8125 117.5625 313.875 117.4375 313.875 C 116.929688 313.875 116.554688 313.6875 116.300781 313.308594 C 116.300781 313.308594 116.300781 313.183594 116.300781 312.929688 C 116.300781 312.679688 116.425781 312.488281 116.679688 312.363281 C 116.804688 312.363281 116.867188 312.363281 116.867188 312.363281 C 117.121094 312.363281 117.308594 312.425781 117.4375 312.550781 C 117.4375 312.679688 117.4375 312.742188 117.4375 312.742188 C 117.4375 312.992188 117.308594 313.183594 117.058594 313.308594 C 116.929688 313.308594 116.867188 313.308594 116.867188 313.308594 C 116.992188 313.433594 117.183594 313.496094 117.4375 313.496094 C 117.8125 313.496094 118.128906 313.246094 118.382812 312.742188 C 118.507812 312.613281 118.570312 312.488281 118.570312 312.363281 C 118.949219 310.722656 119.140625 309.714844 119.140625 309.335938 C 119.140625 308.832031 118.949219 308.578125 118.570312 308.578125 C 118.191406 308.578125 117.8125 308.832031 117.4375 309.335938 C 117.308594 309.460938 117.183594 309.652344 117.058594 309.902344 C 117.058594 309.902344 117.058594 309.964844 117.058594 310.09375 L 116.867188 310.28125 C 116.742188 310.28125 116.679688 310.28125 116.679688 310.28125 C 116.679688 310.027344 116.804688 309.714844 117.058594 309.335938 C 117.4375 308.703125 117.941406 308.390625 118.570312 308.390625 C 119.203125 308.390625 119.644531 308.703125 119.894531 309.335938 C 120.148438 308.832031 120.464844 308.515625 120.839844 308.390625 C 120.96875 308.390625 121.09375 308.390625 121.21875 308.390625 C 121.722656 308.390625 122.039062 308.515625 122.164062 308.769531 C 122.292969 308.894531 122.355469 309.019531 122.355469 309.144531 C 122.355469 309.523438 122.164062 309.714844 121.789062 309.714844 C 121.789062 309.839844 121.722656 309.902344 121.597656 309.902344 C 121.347656 309.902344 121.21875 309.777344 121.21875 309.523438 C 121.21875 309.523438 121.21875 309.460938 121.21875 309.335938 C 121.21875 309.082031 121.347656 308.894531 121.597656 308.769531 C 121.597656 308.769531 121.660156 308.769531 121.789062 308.769531 C 121.660156 308.640625 121.472656 308.578125 121.21875 308.578125 C 120.589844 308.578125 120.210938 309.019531 120.085938 309.902344 C 119.960938 309.902344 119.894531 309.964844 119.894531 310.09375 "/>
<path style=" stroke:none;fill-rule:nonzero;fill:rgb(0%,0%,0%);fill-opacity:1;" d="M 134.53125 309.714844 L 127.34375 309.714844 C 127.089844 309.714844 126.964844 309.652344 126.964844 309.523438 C 126.964844 309.398438 127.089844 309.335938 127.34375 309.335938 L 134.53125 309.335938 C 134.785156 309.335938 134.910156 309.398438 134.910156 309.523438 C 134.910156 309.652344 134.785156 309.714844 134.53125 309.714844 Z M 134.53125 311.984375 L 127.34375 311.984375 C 127.089844 311.984375 126.964844 311.921875 126.964844 311.792969 C 126.964844 311.667969 127.089844 311.605469 127.34375 311.605469 L 134.53125 311.605469 C 134.785156 311.605469 134.910156 311.667969 134.910156 311.792969 C 134.910156 311.921875 134.785156 311.984375 134.53125 311.984375 "/>
<path style=" stroke:none;fill-rule:nonzero;fill:rgb(0%,0%,0%);fill-opacity:1;" d="M 144.476562 309.902344 C 144.476562 311.039062 144.347656 311.921875 144.097656 312.550781 C 143.59375 313.433594 142.898438 313.875 142.015625 313.875 C 141.257812 313.875 140.691406 313.625 140.3125 313.121094 C 140.1875 312.992188 140.0625 312.867188 139.933594 312.742188 C 139.554688 312.109375 139.367188 311.164062 139.367188 309.902344 C 139.367188 308.640625 139.554688 307.695312 139.933594 307.066406 C 140.3125 306.183594 140.941406 305.675781 141.828125 305.550781 L 142.015625 305.550781 C 142.773438 305.550781 143.339844 305.867188 143.71875 306.496094 C 143.84375 306.625 143.972656 306.8125 144.097656 307.066406 C 144.347656 307.695312 144.476562 308.640625 144.476562 309.902344 Z M 142.015625 313.6875 C 142.519531 313.6875 142.898438 313.433594 143.152344 312.929688 C 143.277344 312.679688 143.339844 312.425781 143.339844 312.171875 C 143.464844 311.667969 143.527344 310.847656 143.527344 309.714844 C 143.527344 308.578125 143.464844 307.757812 143.339844 307.253906 C 143.214844 306.496094 142.898438 306.054688 142.394531 305.929688 C 142.269531 305.929688 142.140625 305.929688 142.015625 305.929688 C 141.386719 305.929688 140.941406 306.183594 140.691406 306.6875 C 140.691406 306.9375 140.628906 307.191406 140.503906 307.445312 C 140.503906 307.820312 140.503906 308.578125 140.503906 309.714844 C 140.503906 310.847656 140.566406 311.667969 140.691406 312.171875 C 140.816406 312.929688 141.132812 313.433594 141.636719 313.6875 C 141.761719 313.6875 141.890625 313.6875 142.015625 313.6875 "/>
<path style=" stroke:none;fill-rule:nonzero;fill:rgb(0%,0%,0%);fill-opacity:1;" d="M 147.3125 313.121094 C 147.3125 313.371094 147.1875 313.5625 146.933594 313.6875 C 146.933594 313.6875 146.871094 313.6875 146.746094 313.6875 C 146.492188 313.6875 146.304688 313.5625 146.179688 313.308594 C 146.179688 313.183594 146.179688 313.121094 146.179688 313.121094 C 146.179688 312.742188 146.242188 312.550781 146.367188 312.550781 C 146.492188 312.425781 146.621094 312.363281 146.746094 312.363281 C 146.996094 312.363281 147.1875 312.488281 147.3125 312.742188 C 147.3125 312.867188 147.3125 312.992188 147.3125 313.121094 "/>
<path style=" stroke:none;fill-rule:nonzero;fill:rgb(0%,0%,0%);fill-opacity:1;" d="M 154.082031 306.308594 L 152.570312 308.578125 C 152.191406 309.082031 151.9375 309.777344 151.8125 310.660156 C 151.6875 311.289062 151.621094 311.984375 151.621094 312.742188 L 151.621094 313.308594 C 151.621094 313.6875 151.433594 313.875 151.054688 313.875 C 150.675781 313.875 150.488281 313.6875 150.488281 313.308594 C 150.488281 311.921875 150.867188 310.535156 151.621094 309.144531 L 152.003906 308.769531 L 153.324219 306.875 L 150.867188 306.875 C 150.109375 306.875 149.730469 306.875 149.730469 306.875 C 149.605469 307.003906 149.480469 307.378906 149.351562 308.011719 L 149.164062 308.011719 L 149.542969 305.550781 L 149.730469 305.550781 C 149.855469 305.675781 149.921875 305.742188 149.921875 305.742188 L 150.109375 305.742188 C 150.234375 305.867188 150.613281 305.929688 151.246094 305.929688 L 154.273438 305.929688 C 154.273438 306.054688 154.210938 306.183594 154.082031 306.308594 "/>
<path style=" stroke:none;fill-rule:nonzero;fill:rgb(0%,0%,0%);fill-opacity:1;" d="M 159.949219 311.226562 C 159.949219 312.109375 159.632812 312.804688 159.003906 313.308594 C 158.496094 313.6875 157.929688 313.875 157.300781 313.875 C 156.542969 313.875 155.910156 313.5625 155.40625 312.929688 C 155.15625 312.550781 155.027344 312.171875 155.027344 311.792969 C 155.027344 311.417969 155.21875 311.164062 155.597656 311.039062 C 155.976562 311.039062 156.164062 311.164062 156.164062 311.417969 C 156.289062 311.542969 156.351562 311.605469 156.351562 311.605469 C 156.351562 311.859375 156.226562 312.046875 155.976562 312.171875 C 155.847656 312.300781 155.722656 312.363281 155.597656 312.363281 C 155.597656 312.363281 155.535156 312.300781 155.40625 312.171875 C 155.535156 312.679688 155.847656 313.054688 156.351562 313.308594 C 156.605469 313.5625 156.921875 313.6875 157.300781 313.6875 C 157.804688 313.6875 158.246094 313.371094 158.625 312.742188 C 158.75 312.488281 158.8125 311.984375 158.8125 311.226562 C 158.8125 310.46875 158.75 309.964844 158.625 309.714844 C 158.371094 309.210938 157.992188 308.957031 157.488281 308.957031 C 156.859375 308.957031 156.351562 309.210938 155.976562 309.714844 C 155.976562 309.839844 155.910156 309.902344 155.785156 309.902344 C 155.785156 309.902344 155.722656 309.839844 155.597656 309.714844 L 155.597656 305.929688 C 155.597656 305.804688 155.660156 305.675781 155.785156 305.550781 C 155.785156 305.550781 155.847656 305.613281 155.976562 305.742188 C 156.480469 305.867188 156.984375 305.929688 157.488281 305.929688 C 158.117188 305.929688 158.6875 305.867188 159.191406 305.742188 C 159.191406 305.613281 159.253906 305.550781 159.378906 305.550781 C 159.378906 305.550781 159.378906 305.613281 159.378906 305.742188 C 159.378906 305.867188 159.253906 306.054688 159.003906 306.308594 C 158.496094 306.8125 157.867188 307.066406 157.109375 307.066406 C 156.730469 307.066406 156.351562 307.003906 155.976562 306.875 L 155.976562 309.144531 C 156.480469 308.769531 157.046875 308.578125 157.679688 308.578125 C 158.308594 308.578125 158.875 308.894531 159.378906 309.523438 C 159.757812 310.027344 159.949219 310.597656 159.949219 311.226562 "/>
<path style=" stroke:none;fill-rule:nonzero;fill:rgb(30.200195%,30.200195%,100%);fill-opacity:1;" d="M 81.492188 269.589844 C 81.492188 270.644531 80.636719 271.5 79.582031 271.5 C 78.523438 271.5 77.667969 270.644531 77.667969 269.589844 C 77.667969 268.535156 78.523438 267.675781 79.582031 267.675781 C 80.636719 267.675781 81.492188 268.535156 81.492188 269.589844 "/>
<path style="fill:none;stroke-width:10;stroke-linecap:round;stroke-linejoin:round;stroke:rgb(0%,0%,0%);stroke-opacity:1;stroke-miterlimit:10;" d="M 814.921875 624.101562 C 814.921875 613.554688 806.367188 605 795.820312 605 C 785.234375 605 776.679688 613.554688 776.679688 624.101562 C 776.679688 634.648438 785.234375 643.242188 795.820312 643.242188 C 806.367188 643.242188 814.921875 634.648438 814.921875 624.101562 Z M 814.921875 624.101562 " transform="matrix(0.1,0,0,-0.1,0,332)"/>
<path style=" stroke:none;fill-rule:nonzero;fill:rgb(30.200195%,30.200195%,100%);fill-opacity:1;" d="M 79.816406 285.863281 L 79.4375 287.378906 C 79.308594 288.007812 79.246094 288.386719 79.246094 288.515625 C 79.246094 288.890625 79.375 289.144531 79.625 289.269531 C 79.75 289.269531 79.878906 289.269531 80.003906 289.269531 C 80.382812 289.269531 80.699219 289.082031 80.949219 288.703125 C 81.203125 288.449219 81.390625 288.136719 81.519531 287.757812 C 81.519531 287.632812 81.582031 287.566406 81.707031 287.566406 C 81.832031 287.566406 81.894531 287.632812 81.894531 287.757812 C 81.894531 287.882812 81.769531 288.136719 81.519531 288.515625 C 81.011719 289.269531 80.507812 289.648438 80.003906 289.648438 C 79.375 289.648438 78.933594 289.398438 78.679688 288.890625 C 78.679688 288.765625 78.679688 288.703125 78.679688 288.703125 C 78.425781 289.082031 78.113281 289.332031 77.734375 289.460938 C 77.605469 289.585938 77.480469 289.648438 77.355469 289.648438 C 76.851562 289.648438 76.472656 289.460938 76.21875 289.082031 C 76.21875 289.082031 76.21875 288.957031 76.21875 288.703125 C 76.21875 288.449219 76.347656 288.261719 76.597656 288.136719 C 76.722656 288.136719 76.789062 288.136719 76.789062 288.136719 C 77.039062 288.136719 77.230469 288.199219 77.355469 288.324219 C 77.355469 288.449219 77.355469 288.515625 77.355469 288.515625 C 77.355469 288.765625 77.230469 288.957031 76.976562 289.082031 C 76.851562 289.082031 76.789062 289.082031 76.789062 289.082031 C 76.914062 289.207031 77.101562 289.269531 77.355469 289.269531 C 77.734375 289.269531 78.046875 289.019531 78.300781 288.515625 C 78.425781 288.386719 78.488281 288.261719 78.488281 288.136719 C 78.867188 286.496094 79.058594 285.488281 79.058594 285.109375 C 79.058594 284.601562 78.867188 284.351562 78.488281 284.351562 C 78.113281 284.351562 77.734375 284.601562 77.355469 285.109375 C 77.230469 285.234375 77.101562 285.421875 76.976562 285.675781 C 76.976562 285.675781 76.976562 285.738281 76.976562 285.863281 L 76.789062 286.054688 C 76.660156 286.054688 76.597656 286.054688 76.597656 286.054688 C 76.597656 285.800781 76.722656 285.488281 76.976562 285.109375 C 77.355469 284.476562 77.859375 284.160156 78.488281 284.160156 C 79.121094 284.160156 79.5625 284.476562 79.816406 285.109375 C 80.066406 284.601562 80.382812 284.289062 80.761719 284.160156 C 80.886719 284.160156 81.011719 284.160156 81.140625 284.160156 C 81.644531 284.160156 81.960938 284.289062 82.085938 284.539062 C 82.210938 284.667969 82.273438 284.792969 82.273438 284.917969 C 82.273438 285.296875 82.085938 285.488281 81.707031 285.488281 C 81.707031 285.613281 81.644531 285.675781 81.519531 285.675781 C 81.265625 285.675781 81.140625 285.550781 81.140625 285.296875 C 81.140625 285.296875 81.140625 285.234375 81.140625 285.109375 C 81.140625 284.855469 81.265625 284.667969 81.519531 284.539062 C 81.519531 284.539062 81.582031 284.539062 81.707031 284.539062 C 81.582031 284.414062 81.390625 284.351562 81.140625 284.351562 C 80.507812 284.351562 80.128906 284.792969 80.003906 285.675781 C 79.878906 285.675781 79.816406 285.738281 79.816406 285.863281 "/>
<path style=" stroke:none;fill-rule:nonzero;fill:rgb(30.200195%,30.200195%,100%);fill-opacity:1;" d="M 86.601562 288.628906 C 86.601562 289.421875 86.515625 290.039062 86.339844 290.480469 C 85.984375 291.097656 85.5 291.410156 84.882812 291.410156 C 84.351562 291.410156 83.953125 291.230469 83.691406 290.878906 C 83.601562 290.789062 83.511719 290.703125 83.425781 290.613281 C 83.160156 290.171875 83.027344 289.511719 83.027344 288.628906 C 83.027344 287.746094 83.160156 287.082031 83.425781 286.640625 C 83.691406 286.023438 84.132812 285.667969 84.75 285.582031 L 84.882812 285.582031 C 85.410156 285.582031 85.808594 285.800781 86.074219 286.242188 C 86.160156 286.332031 86.25 286.464844 86.339844 286.640625 C 86.515625 287.082031 86.601562 287.746094 86.601562 288.628906 Z M 84.882812 291.277344 C 85.234375 291.277344 85.5 291.097656 85.675781 290.746094 C 85.765625 290.570312 85.808594 290.394531 85.808594 290.21875 C 85.898438 289.863281 85.941406 289.289062 85.941406 288.496094 C 85.941406 287.699219 85.898438 287.125 85.808594 286.773438 C 85.71875 286.242188 85.5 285.933594 85.144531 285.847656 C 85.058594 285.847656 84.96875 285.847656 84.882812 285.847656 C 84.441406 285.847656 84.132812 286.023438 83.953125 286.375 C 83.953125 286.550781 83.910156 286.730469 83.820312 286.90625 C 83.820312 287.171875 83.820312 287.699219 83.820312 288.496094 C 83.820312 289.289062 83.867188 289.863281 83.953125 290.21875 C 84.042969 290.746094 84.261719 291.097656 84.617188 291.277344 C 84.703125 291.277344 84.792969 291.277344 84.882812 291.277344 "/>
<path style=" stroke:none;fill-rule:nonzero;fill:rgb(30.200195%,30.200195%,100%);fill-opacity:1;" d="M 102.753906 269.589844 C 102.753906 270.644531 101.898438 271.5 100.839844 271.5 C 99.785156 271.5 98.929688 270.644531 98.929688 269.589844 C 98.929688 268.535156 99.785156 267.675781 100.839844 267.675781 C 101.898438 267.675781 102.753906 268.535156 102.753906 269.589844 "/>
<path style="fill:none;stroke-width:10;stroke-linecap:round;stroke-linejoin:round;stroke:rgb(0%,0%,0%);stroke-opacity:1;stroke-miterlimit:10;" d="M 1027.539062 624.101562 C 1027.539062 613.554688 1018.984375 605 1008.398438 605 C 997.851562 605 989.296875 613.554688 989.296875 624.101562 C 989.296875 634.648438 997.851562 643.242188 1008.398438 643.242188 C 1018.984375 643.242188 1027.539062 634.648438 1027.539062 624.101562 Z M 1027.539062 624.101562 " transform="matrix(0.1,0,0,-0.1,0,332)"/>
<path style=" stroke:none;fill-rule:nonzero;fill:rgb(30.200195%,30.200195%,100%);fill-opacity:1;" d="M 99.570312 285.863281 L 99.195312 287.378906 C 99.066406 288.007812 99.003906 288.386719 99.003906 288.515625 C 99.003906 288.890625 99.128906 289.144531 99.382812 289.269531 C 99.507812 289.269531 99.636719 289.269531 99.761719 289.269531 C 100.140625 289.269531 100.453125 289.082031 100.707031 288.703125 C 100.960938 288.449219 101.148438 288.136719 101.273438 287.757812 C 101.273438 287.632812 101.339844 287.566406 101.464844 287.566406 C 101.589844 287.566406 101.652344 287.632812 101.652344 287.757812 C 101.652344 287.882812 101.527344 288.136719 101.273438 288.515625 C 100.769531 289.269531 100.265625 289.648438 99.761719 289.648438 C 99.128906 289.648438 98.6875 289.398438 98.4375 288.890625 C 98.4375 288.765625 98.4375 288.703125 98.4375 288.703125 C 98.183594 289.082031 97.867188 289.332031 97.492188 289.460938 C 97.363281 289.585938 97.238281 289.648438 97.113281 289.648438 C 96.605469 289.648438 96.230469 289.460938 95.976562 289.082031 C 95.976562 289.082031 95.976562 288.957031 95.976562 288.703125 C 95.976562 288.449219 96.101562 288.261719 96.355469 288.136719 C 96.480469 288.136719 96.542969 288.136719 96.542969 288.136719 C 96.796875 288.136719 96.984375 288.199219 97.113281 288.324219 C 97.113281 288.449219 97.113281 288.515625 97.113281 288.515625 C 97.113281 288.765625 96.984375 288.957031 96.734375 289.082031 C 96.605469 289.082031 96.542969 289.082031 96.542969 289.082031 C 96.671875 289.207031 96.859375 289.269531 97.113281 289.269531 C 97.492188 289.269531 97.804688 289.019531 98.058594 288.515625 C 98.183594 288.386719 98.246094 288.261719 98.246094 288.136719 C 98.625 286.496094 98.816406 285.488281 98.816406 285.109375 C 98.816406 284.601562 98.625 284.351562 98.246094 284.351562 C 97.867188 284.351562 97.492188 284.601562 97.113281 285.109375 C 96.984375 285.234375 96.859375 285.421875 96.734375 285.675781 C 96.734375 285.675781 96.734375 285.738281 96.734375 285.863281 L 96.542969 286.054688 C 96.417969 286.054688 96.355469 286.054688 96.355469 286.054688 C 96.355469 285.800781 96.480469 285.488281 96.734375 285.109375 C 97.113281 284.476562 97.617188 284.160156 98.246094 284.160156 C 98.878906 284.160156 99.320312 284.476562 99.570312 285.109375 C 99.824219 284.601562 100.140625 284.289062 100.519531 284.160156 C 100.644531 284.160156 100.769531 284.160156 100.894531 284.160156 C 101.402344 284.160156 101.714844 284.289062 101.84375 284.539062 C 101.96875 284.667969 102.03125 284.792969 102.03125 284.917969 C 102.03125 285.296875 101.84375 285.488281 101.464844 285.488281 C 101.464844 285.613281 101.402344 285.675781 101.273438 285.675781 C 101.023438 285.675781 100.894531 285.550781 100.894531 285.296875 C 100.894531 285.296875 100.894531 285.234375 100.894531 285.109375 C 100.894531 284.855469 101.023438 284.667969 101.273438 284.539062 C 101.273438 284.539062 101.339844 284.539062 101.464844 284.539062 C 101.339844 284.414062 101.148438 284.351562 100.894531 284.351562 C 100.265625 284.351562 99.886719 284.792969 99.761719 285.675781 C 99.636719 285.675781 99.570312 285.738281 99.570312 285.863281 "/>
<path style=" stroke:none;fill-rule:nonzero;fill:rgb(30.200195%,30.200195%,100%);fill-opacity:1;" d="M 105.035156 285.847656 L 105.035156 290.613281 C 105.035156 290.789062 105.078125 290.878906 105.167969 290.878906 C 105.257812 290.96875 105.476562 291.011719 105.828125 291.011719 L 106.09375 291.011719 L 106.09375 291.277344 C 105.917969 291.277344 105.433594 291.277344 104.636719 291.277344 C 103.933594 291.277344 103.492188 291.277344 103.3125 291.277344 L 103.3125 291.011719 L 103.578125 291.011719 C 104.019531 291.011719 104.285156 290.96875 104.371094 290.878906 C 104.371094 290.789062 104.371094 290.703125 104.371094 290.613281 L 104.371094 286.242188 C 104.109375 286.332031 103.753906 286.375 103.3125 286.375 L 103.3125 286.109375 C 103.933594 286.109375 104.417969 285.933594 104.769531 285.582031 C 104.945312 285.582031 105.035156 285.625 105.035156 285.714844 C 105.035156 285.714844 105.035156 285.757812 105.035156 285.847656 "/>
<path style=" stroke:none;fill-rule:nonzero;fill:rgb(30.200195%,30.200195%,100%);fill-opacity:1;" d="M 124.011719 269.589844 C 124.011719 270.644531 123.15625 271.5 122.101562 271.5 C 121.046875 271.5 120.1875 270.644531 120.1875 269.589844 C 120.1875 268.535156 121.046875 267.675781 122.101562 267.675781 C 123.15625 267.675781 124.011719 268.535156 124.011719 269.589844 "/>
<path style="fill:none;stroke-width:10;stroke-linecap:round;stroke-linejoin:round;stroke:rgb(0%,0%,0%);stroke-opacity:1;stroke-miterlimit:10;" d="M 1240.117188 624.101562 C 1240.117188 613.554688 1231.5625 605 1221.015625 605 C 1210.46875 605 1201.875 613.554688 1201.875 624.101562 C 1201.875 634.648438 1210.46875 643.242188 1221.015625 643.242188 C 1231.5625 643.242188 1240.117188 634.648438 1240.117188 624.101562 Z M 1240.117188 624.101562 " transform="matrix(0.1,0,0,-0.1,0,332)"/>
<path style=" stroke:none;fill-rule:nonzero;fill:rgb(30.200195%,30.200195%,100%);fill-opacity:1;" d="M 120.605469 285.863281 L 120.226562 287.378906 C 120.097656 288.007812 120.035156 288.386719 120.035156 288.515625 C 120.035156 288.890625 120.160156 289.144531 120.414062 289.269531 C 120.539062 289.269531 120.664062 289.269531 120.792969 289.269531 C 121.171875 289.269531 121.484375 289.082031 121.738281 288.703125 C 121.992188 288.449219 122.179688 288.136719 122.304688 287.757812 C 122.304688 287.632812 122.371094 287.566406 122.496094 287.566406 C 122.621094 287.566406 122.683594 287.632812 122.683594 287.757812 C 122.683594 287.882812 122.558594 288.136719 122.304688 288.515625 C 121.800781 289.269531 121.296875 289.648438 120.792969 289.648438 C 120.160156 289.648438 119.722656 289.398438 119.46875 288.890625 C 119.46875 288.765625 119.46875 288.703125 119.46875 288.703125 C 119.214844 289.082031 118.902344 289.332031 118.523438 289.460938 C 118.394531 289.585938 118.269531 289.648438 118.144531 289.648438 C 117.640625 289.648438 117.261719 289.460938 117.007812 289.082031 C 117.007812 289.082031 117.007812 288.957031 117.007812 288.703125 C 117.007812 288.449219 117.136719 288.261719 117.386719 288.136719 C 117.511719 288.136719 117.574219 288.136719 117.574219 288.136719 C 117.828125 288.136719 118.019531 288.199219 118.144531 288.324219 C 118.144531 288.449219 118.144531 288.515625 118.144531 288.515625 C 118.144531 288.765625 118.019531 288.957031 117.765625 289.082031 C 117.640625 289.082031 117.574219 289.082031 117.574219 289.082031 C 117.703125 289.207031 117.890625 289.269531 118.144531 289.269531 C 118.523438 289.269531 118.839844 289.019531 119.089844 288.515625 C 119.214844 288.386719 119.277344 288.261719 119.277344 288.136719 C 119.65625 286.496094 119.847656 285.488281 119.847656 285.109375 C 119.847656 284.601562 119.65625 284.351562 119.277344 284.351562 C 118.902344 284.351562 118.523438 284.601562 118.144531 285.109375 C 118.019531 285.234375 117.890625 285.421875 117.765625 285.675781 C 117.765625 285.675781 117.765625 285.738281 117.765625 285.863281 L 117.574219 286.054688 C 117.449219 286.054688 117.386719 286.054688 117.386719 286.054688 C 117.386719 285.800781 117.511719 285.488281 117.765625 285.109375 C 118.144531 284.476562 118.648438 284.160156 119.277344 284.160156 C 119.910156 284.160156 120.351562 284.476562 120.605469 285.109375 C 120.855469 284.601562 121.171875 284.289062 121.550781 284.160156 C 121.675781 284.160156 121.800781 284.160156 121.929688 284.160156 C 122.433594 284.160156 122.746094 284.289062 122.875 284.539062 C 123 284.667969 123.0625 284.792969 123.0625 284.917969 C 123.0625 285.296875 122.875 285.488281 122.496094 285.488281 C 122.496094 285.613281 122.433594 285.675781 122.304688 285.675781 C 122.054688 285.675781 121.929688 285.550781 121.929688 285.296875 C 121.929688 285.296875 121.929688 285.234375 121.929688 285.109375 C 121.929688 284.855469 122.054688 284.667969 122.304688 284.539062 C 122.304688 284.539062 122.371094 284.539062 122.496094 284.539062 C 122.371094 284.414062 122.179688 284.351562 121.929688 284.351562 C 121.296875 284.351562 120.917969 284.792969 120.792969 285.675781 C 120.664062 285.675781 120.605469 285.738281 120.605469 285.863281 "/>
<path style=" stroke:none;fill-rule:nonzero;fill:rgb(30.200195%,30.200195%,100%);fill-opacity:1;" d="M 127.390625 289.820312 L 127.128906 291.277344 L 123.949219 291.277344 C 123.949219 291.097656 123.992188 291.011719 124.082031 291.011719 L 125.671875 289.15625 C 126.289062 288.449219 126.597656 287.832031 126.597656 287.304688 C 126.597656 286.773438 126.421875 286.375 126.066406 286.109375 C 125.890625 285.933594 125.671875 285.847656 125.40625 285.847656 C 125.050781 285.847656 124.742188 286.023438 124.476562 286.375 C 124.390625 286.464844 124.347656 286.597656 124.347656 286.773438 C 124.347656 286.773438 124.390625 286.773438 124.476562 286.773438 C 124.65625 286.773438 124.785156 286.859375 124.875 287.039062 C 124.875 287.125 124.875 287.171875 124.875 287.171875 C 124.875 287.433594 124.742188 287.566406 124.476562 287.566406 C 124.476562 287.65625 124.476562 287.699219 124.476562 287.699219 C 124.214844 287.699219 124.035156 287.613281 123.949219 287.433594 C 123.949219 287.347656 123.949219 287.257812 123.949219 287.171875 C 123.949219 286.730469 124.125 286.375 124.476562 286.109375 C 124.742188 285.757812 125.097656 285.582031 125.539062 285.582031 C 126.15625 285.582031 126.640625 285.800781 126.996094 286.242188 C 127.171875 286.507812 127.304688 286.816406 127.390625 287.171875 C 127.390625 287.171875 127.390625 287.214844 127.390625 287.304688 C 127.390625 287.65625 127.214844 288.054688 126.863281 288.496094 C 126.6875 288.671875 126.421875 288.890625 126.066406 289.15625 L 125.671875 289.6875 L 125.539062 289.6875 L 124.609375 290.613281 L 126.199219 290.613281 C 126.640625 290.613281 126.90625 290.613281 126.996094 290.613281 C 126.996094 290.527344 127.039062 290.261719 127.128906 289.820312 L 127.390625 289.820312 "/>
<path style=" stroke:none;fill-rule:nonzero;fill:rgb(30.200195%,30.200195%,100%);fill-opacity:1;" d="M 145.273438 269.589844 C 145.273438 270.644531 144.414062 271.5 143.359375 271.5 C 142.304688 271.5 141.449219 270.644531 141.449219 269.589844 C 141.449219 268.535156 142.304688 267.675781 143.359375 267.675781 C 144.414062 267.675781 145.273438 268.535156 145.273438 269.589844 "/>
<path style="fill:none;stroke-width:10;stroke-linecap:round;stroke-linejoin:round;stroke:rgb(0%,0%,0%);stroke-opacity:1;stroke-miterlimit:10;" d="M 1452.734375 624.101562 C 1452.734375 613.554688 1444.140625 605 1433.59375 605 C 1423.046875 605 1414.492188 613.554688 1414.492188 624.101562 C 1414.492188 634.648438 1423.046875 643.242188 1433.59375 643.242188 C 1444.140625 643.242188 1452.734375 634.648438 1452.734375 624.101562 Z M 1452.734375 624.101562 " transform="matrix(0.1,0,0,-0.1,0,332)"/>
<path style=" stroke:none;fill-rule:nonzero;fill:rgb(30.200195%,30.200195%,100%);fill-opacity:1;" d="M 144.183594 286.503906 L 143.804688 288.015625 C 143.679688 288.648438 143.617188 289.023438 143.617188 289.152344 C 143.617188 289.53125 143.742188 289.78125 143.996094 289.90625 C 144.121094 289.90625 144.246094 289.90625 144.375 289.90625 C 144.753906 289.90625 145.066406 289.71875 145.320312 289.339844 C 145.570312 289.089844 145.761719 288.773438 145.886719 288.394531 C 145.886719 288.269531 145.949219 288.207031 146.078125 288.207031 C 146.203125 288.207031 146.265625 288.269531 146.265625 288.394531 C 146.265625 288.519531 146.140625 288.773438 145.886719 289.152344 C 145.382812 289.90625 144.878906 290.285156 144.375 290.285156 C 143.742188 290.285156 143.300781 290.035156 143.050781 289.53125 C 143.050781 289.402344 143.050781 289.339844 143.050781 289.339844 C 142.796875 289.71875 142.480469 289.972656 142.101562 290.097656 C 141.976562 290.222656 141.851562 290.285156 141.726562 290.285156 C 141.21875 290.285156 140.84375 290.097656 140.589844 289.71875 C 140.589844 289.71875 140.589844 289.59375 140.589844 289.339844 C 140.589844 289.089844 140.714844 288.898438 140.96875 288.773438 C 141.09375 288.773438 141.15625 288.773438 141.15625 288.773438 C 141.410156 288.773438 141.597656 288.835938 141.726562 288.960938 C 141.726562 289.089844 141.726562 289.152344 141.726562 289.152344 C 141.726562 289.402344 141.597656 289.59375 141.347656 289.71875 C 141.21875 289.71875 141.15625 289.71875 141.15625 289.71875 C 141.28125 289.84375 141.472656 289.90625 141.726562 289.90625 C 142.101562 289.90625 142.417969 289.65625 142.671875 289.152344 C 142.796875 289.023438 142.859375 288.898438 142.859375 288.773438 C 143.238281 287.132812 143.429688 286.125 143.429688 285.746094 C 143.429688 285.242188 143.238281 284.988281 142.859375 284.988281 C 142.480469 284.988281 142.101562 285.242188 141.726562 285.746094 C 141.597656 285.871094 141.472656 286.0625 141.347656 286.3125 C 141.347656 286.3125 141.347656 286.375 141.347656 286.503906 L 141.15625 286.691406 C 141.03125 286.691406 140.96875 286.691406 140.96875 286.691406 C 140.96875 286.4375 141.09375 286.125 141.347656 285.746094 C 141.726562 285.113281 142.230469 284.800781 142.859375 284.800781 C 143.492188 284.800781 143.933594 285.113281 144.183594 285.746094 C 144.4375 285.242188 144.753906 284.925781 145.128906 284.800781 C 145.257812 284.800781 145.382812 284.800781 145.507812 284.800781 C 146.011719 284.800781 146.328125 284.925781 146.453125 285.175781 C 146.582031 285.304688 146.644531 285.429688 146.644531 285.554688 C 146.644531 285.933594 146.453125 286.125 146.078125 286.125 C 146.078125 286.25 146.011719 286.3125 145.886719 286.3125 C 145.636719 286.3125 145.507812 286.1875 145.507812 285.933594 C 145.507812 285.933594 145.507812 285.871094 145.507812 285.746094 C 145.507812 285.492188 145.636719 285.304688 145.886719 285.175781 C 145.886719 285.175781 145.949219 285.175781 146.078125 285.175781 C 145.949219 285.050781 145.761719 284.988281 145.507812 284.988281 C 144.878906 284.988281 144.5 285.429688 144.375 286.3125 C 144.246094 286.3125 144.183594 286.375 144.183594 286.503906 "/>
<path style=" stroke:none;fill-rule:nonzero;fill:rgb(30.200195%,30.200195%,100%);fill-opacity:1;" d="M 149.648438 288.867188 C 150.179688 289.042969 150.574219 289.351562 150.839844 289.792969 C 150.929688 289.972656 150.972656 290.191406 150.972656 290.457031 C 150.972656 290.898438 150.796875 291.296875 150.441406 291.648438 C 150.089844 291.914062 149.691406 292.046875 149.25 292.046875 C 148.632812 292.046875 148.148438 291.914062 147.792969 291.648438 C 147.617188 291.382812 147.527344 291.074219 147.527344 290.722656 C 147.527344 290.457031 147.617188 290.324219 147.792969 290.324219 C 147.882812 290.324219 147.925781 290.324219 147.925781 290.324219 C 148.191406 290.324219 148.367188 290.414062 148.457031 290.589844 C 148.457031 290.675781 148.457031 290.722656 148.457031 290.722656 C 148.457031 290.984375 148.367188 291.164062 148.191406 291.25 C 148.101562 291.25 148.015625 291.25 147.925781 291.25 C 148.101562 291.605469 148.457031 291.78125 148.984375 291.78125 C 149.074219 291.871094 149.117188 291.914062 149.117188 291.914062 C 149.558594 291.914062 149.824219 291.738281 149.914062 291.382812 C 150.089844 291.117188 150.179688 290.808594 150.179688 290.457031 C 150.179688 289.75 149.957031 289.308594 149.515625 289.132812 C 149.339844 289.042969 149.207031 289 149.117188 289 L 148.722656 289 C 148.632812 289 148.589844 289 148.589844 289 C 148.589844 288.910156 148.632812 288.867188 148.722656 288.867188 C 148.808594 288.867188 148.898438 288.867188 148.984375 288.867188 C 149.25 288.867188 149.472656 288.734375 149.648438 288.46875 L 149.78125 288.335938 C 149.957031 288.074219 150.046875 287.765625 150.046875 287.410156 C 150.046875 286.882812 149.824219 286.570312 149.382812 286.484375 C 149.296875 286.484375 149.207031 286.484375 149.117188 286.484375 C 148.765625 286.484375 148.457031 286.617188 148.191406 286.882812 C 148.101562 286.882812 148.058594 286.925781 148.058594 287.011719 C 148.410156 287.011719 148.589844 287.144531 148.589844 287.410156 C 148.589844 287.585938 148.5 287.71875 148.324219 287.808594 C 148.234375 287.808594 148.191406 287.808594 148.191406 287.808594 C 147.925781 287.808594 147.792969 287.71875 147.792969 287.542969 C 147.707031 287.542969 147.660156 287.5 147.660156 287.410156 C 147.660156 287.058594 147.882812 286.75 148.324219 286.484375 C 148.589844 286.304688 148.898438 286.21875 149.25 286.21875 C 149.78125 286.21875 150.179688 286.394531 150.441406 286.75 C 150.707031 286.925781 150.839844 287.144531 150.839844 287.410156 C 150.839844 287.941406 150.621094 288.335938 150.179688 288.601562 C 150.003906 288.777344 149.824219 288.867188 149.648438 288.867188 "/>
<path style=" stroke:none;fill-rule:nonzero;fill:rgb(30.200195%,30.200195%,100%);fill-opacity:1;" d="M 166.53125 269.589844 C 166.53125 270.644531 165.675781 271.5 164.621094 271.5 C 163.5625 271.5 162.707031 270.644531 162.707031 269.589844 C 162.707031 268.535156 163.5625 267.675781 164.621094 267.675781 C 165.675781 267.675781 166.53125 268.535156 166.53125 269.589844 "/>
<path style="fill:none;stroke-width:10;stroke-linecap:round;stroke-linejoin:round;stroke:rgb(0%,0%,0%);stroke-opacity:1;stroke-miterlimit:10;" d="M 1665.3125 624.101562 C 1665.3125 613.554688 1656.757812 605 1646.210938 605 C 1635.625 605 1627.070312 613.554688 1627.070312 624.101562 C 1627.070312 634.648438 1635.625 643.242188 1646.210938 643.242188 C 1656.757812 643.242188 1665.3125 634.648438 1665.3125 624.101562 Z M 1665.3125 624.101562 " transform="matrix(0.1,0,0,-0.1,0,332)"/>
<path style=" stroke:none;fill-rule:nonzero;fill:rgb(30.200195%,30.200195%,100%);fill-opacity:1;" d="M 165.214844 285.863281 L 164.839844 287.378906 C 164.710938 288.007812 164.648438 288.386719 164.648438 288.515625 C 164.648438 288.890625 164.773438 289.144531 165.027344 289.269531 C 165.152344 289.269531 165.277344 289.269531 165.40625 289.269531 C 165.785156 289.269531 166.097656 289.082031 166.351562 288.703125 C 166.605469 288.449219 166.792969 288.136719 166.917969 287.757812 C 166.917969 287.632812 166.980469 287.566406 167.109375 287.566406 C 167.234375 287.566406 167.296875 287.632812 167.296875 287.757812 C 167.296875 287.882812 167.171875 288.136719 166.917969 288.515625 C 166.414062 289.269531 165.910156 289.648438 165.40625 289.648438 C 164.773438 289.648438 164.332031 289.398438 164.082031 288.890625 C 164.082031 288.765625 164.082031 288.703125 164.082031 288.703125 C 163.828125 289.082031 163.511719 289.332031 163.136719 289.460938 C 163.007812 289.585938 162.882812 289.648438 162.757812 289.648438 C 162.253906 289.648438 161.871094 289.460938 161.621094 289.082031 C 161.621094 289.082031 161.621094 288.957031 161.621094 288.703125 C 161.621094 288.449219 161.746094 288.261719 162 288.136719 C 162.125 288.136719 162.1875 288.136719 162.1875 288.136719 C 162.441406 288.136719 162.628906 288.199219 162.757812 288.324219 C 162.757812 288.449219 162.757812 288.515625 162.757812 288.515625 C 162.757812 288.765625 162.628906 288.957031 162.378906 289.082031 C 162.253906 289.082031 162.1875 289.082031 162.1875 289.082031 C 162.316406 289.207031 162.503906 289.269531 162.757812 289.269531 C 163.136719 289.269531 163.449219 289.019531 163.703125 288.515625 C 163.828125 288.386719 163.890625 288.261719 163.890625 288.136719 C 164.269531 286.496094 164.460938 285.488281 164.460938 285.109375 C 164.460938 284.601562 164.269531 284.351562 163.890625 284.351562 C 163.511719 284.351562 163.136719 284.601562 162.757812 285.109375 C 162.628906 285.234375 162.503906 285.421875 162.378906 285.675781 C 162.378906 285.675781 162.378906 285.738281 162.378906 285.863281 L 162.1875 286.054688 C 162.0625 286.054688 162 286.054688 162 286.054688 C 162 285.800781 162.125 285.488281 162.378906 285.109375 C 162.757812 284.476562 163.261719 284.160156 163.890625 284.160156 C 164.523438 284.160156 164.964844 284.476562 165.214844 285.109375 C 165.46875 284.601562 165.785156 284.289062 166.160156 284.160156 C 166.289062 284.160156 166.414062 284.160156 166.539062 284.160156 C 167.046875 284.160156 167.359375 284.289062 167.488281 284.539062 C 167.613281 284.667969 167.675781 284.792969 167.675781 284.917969 C 167.675781 285.296875 167.488281 285.488281 167.109375 285.488281 C 167.109375 285.613281 167.046875 285.675781 166.917969 285.675781 C 166.667969 285.675781 166.539062 285.550781 166.539062 285.296875 C 166.539062 285.296875 166.539062 285.234375 166.539062 285.109375 C 166.539062 284.855469 166.667969 284.667969 166.917969 284.539062 C 166.917969 284.539062 166.980469 284.539062 167.109375 284.539062 C 166.980469 284.414062 166.792969 284.351562 166.539062 284.351562 C 165.910156 284.351562 165.53125 284.792969 165.40625 285.675781 C 165.277344 285.675781 165.214844 285.738281 165.214844 285.863281 "/>
<path style=" stroke:none;fill-rule:nonzero;fill:rgb(30.200195%,30.200195%,100%);fill-opacity:1;" d="M 168.429688 289.820312 L 168.429688 289.554688 L 170.945312 285.582031 C 171.03125 285.582031 171.121094 285.582031 171.210938 285.582031 C 171.296875 285.582031 171.34375 285.582031 171.34375 285.582031 L 171.34375 289.554688 L 172.136719 289.554688 L 172.136719 289.820312 L 171.34375 289.820312 L 171.34375 290.613281 C 171.34375 290.789062 171.386719 290.878906 171.476562 290.878906 C 171.476562 290.96875 171.652344 291.011719 172.003906 291.011719 L 172.136719 291.011719 L 172.136719 291.277344 C 171.871094 291.277344 171.476562 291.277344 170.945312 291.277344 C 170.414062 291.277344 170.0625 291.277344 169.886719 291.277344 L 169.886719 291.011719 L 170.019531 291.011719 C 170.371094 291.011719 170.59375 290.96875 170.679688 290.878906 C 170.679688 290.789062 170.679688 290.703125 170.679688 290.613281 L 170.679688 289.820312 Z M 170.679688 289.554688 L 170.679688 286.507812 L 168.691406 289.554688 L 170.679688 289.554688 "/>
<path style=" stroke:none;fill-rule:nonzero;fill:rgb(100%,0%,0%);fill-opacity:1;" d="M 113.382812 269.589844 C 113.382812 270.644531 112.527344 271.5 111.472656 271.5 C 110.414062 271.5 109.558594 270.644531 109.558594 269.589844 C 109.558594 268.535156 110.414062 267.675781 111.472656 267.675781 C 112.527344 267.675781 113.382812 268.535156 113.382812 269.589844 "/>
<path style="fill:none;stroke-width:10;stroke-linecap:round;stroke-linejoin:round;stroke:rgb(0%,0%,0%);stroke-opacity:1;stroke-miterlimit:10;" d="M 1133.828125 624.101562 C 1133.828125 613.554688 1125.273438 605 1114.726562 605 C 1104.140625 605 1095.585938 613.554688 1095.585938 624.101562 C 1095.585938 634.648438 1104.140625 643.242188 1114.726562 643.242188 C 1125.273438 643.242188 1133.828125 634.648438 1133.828125 624.101562 Z M 1133.828125 624.101562 " transform="matrix(0.1,0,0,-0.1,0,332)"/>
<path style=" stroke:none;fill-rule:nonzero;fill:rgb(100%,0%,0%);fill-opacity:1;" d="M 115.355469 252.710938 L 126.515625 252.710938 L 126.515625 252.226562 L 115.355469 252.226562 Z M 115.355469 252.710938 "/>
<path style=" stroke:none;fill-rule:nonzero;fill:rgb(100%,0%,0%);fill-opacity:1;" d="M 119.328125 255.78125 L 118.949219 257.296875 C 118.824219 257.925781 118.761719 258.304688 118.761719 258.433594 C 118.761719 258.808594 118.886719 259.0625 119.140625 259.1875 C 119.265625 259.1875 119.390625 259.1875 119.519531 259.1875 C 119.894531 259.1875 120.210938 259 120.464844 258.621094 C 120.714844 258.367188 120.90625 258.054688 121.03125 257.675781 C 121.03125 257.550781 121.09375 257.484375 121.222656 257.484375 C 121.347656 257.484375 121.410156 257.550781 121.410156 257.675781 C 121.410156 257.800781 121.285156 258.054688 121.03125 258.433594 C 120.527344 259.1875 120.023438 259.566406 119.519531 259.566406 C 118.886719 259.566406 118.445312 259.316406 118.195312 258.808594 C 118.195312 258.683594 118.195312 258.621094 118.195312 258.621094 C 117.941406 259 117.625 259.253906 117.246094 259.378906 C 117.121094 259.503906 116.996094 259.566406 116.867188 259.566406 C 116.363281 259.566406 115.984375 259.378906 115.734375 259 C 115.734375 259 115.734375 258.875 115.734375 258.621094 C 115.734375 258.367188 115.859375 258.179688 116.113281 258.054688 C 116.238281 258.054688 116.300781 258.054688 116.300781 258.054688 C 116.554688 258.054688 116.742188 258.117188 116.867188 258.242188 C 116.867188 258.367188 116.867188 258.433594 116.867188 258.433594 C 116.867188 258.683594 116.742188 258.875 116.492188 259 C 116.363281 259 116.300781 259 116.300781 259 C 116.429688 259.125 116.617188 259.1875 116.867188 259.1875 C 117.246094 259.1875 117.5625 258.9375 117.816406 258.433594 C 117.941406 258.304688 118.003906 258.179688 118.003906 258.054688 C 118.382812 256.414062 118.570312 255.40625 118.570312 255.027344 C 118.570312 254.523438 118.382812 254.269531 118.003906 254.269531 C 117.625 254.269531 117.246094 254.523438 116.867188 255.027344 C 116.742188 255.152344 116.617188 255.34375 116.492188 255.59375 C 116.492188 255.59375 116.492188 255.65625 116.492188 255.78125 L 116.300781 255.972656 C 116.175781 255.972656 116.113281 255.972656 116.113281 255.972656 C 116.113281 255.71875 116.238281 255.40625 116.492188 255.027344 C 116.867188 254.394531 117.375 254.082031 118.003906 254.082031 C 118.636719 254.082031 119.078125 254.394531 119.328125 255.027344 C 119.582031 254.523438 119.894531 254.207031 120.273438 254.082031 C 120.402344 254.082031 120.527344 254.082031 120.652344 254.082031 C 121.15625 254.082031 121.472656 254.207031 121.597656 254.460938 C 121.726562 254.585938 121.789062 254.710938 121.789062 254.835938 C 121.789062 255.214844 121.597656 255.40625 121.222656 255.40625 C 121.222656 255.53125 121.15625 255.59375 121.03125 255.59375 C 120.777344 255.59375 120.652344 255.46875 120.652344 255.214844 C 120.652344 255.214844 120.652344 255.152344 120.652344 255.027344 C 120.652344 254.773438 120.777344 254.585938 121.03125 254.460938 C 121.03125 254.460938 121.09375 254.460938 121.222656 254.460938 C 121.09375 254.332031 120.90625 254.269531 120.652344 254.269531 C 120.023438 254.269531 119.644531 254.710938 119.519531 255.59375 C 119.390625 255.59375 119.328125 255.65625 119.328125 255.78125 "/>
<path style=" stroke:none;fill-rule:nonzero;fill:rgb(100%,0%,0%);fill-opacity:1;" d="M 126.117188 259.738281 L 125.851562 261.195312 L 122.671875 261.195312 C 122.671875 261.019531 122.71875 260.929688 122.804688 260.929688 L 124.394531 259.074219 C 125.011719 258.367188 125.324219 257.75 125.324219 257.222656 C 125.324219 256.691406 125.144531 256.292969 124.792969 256.03125 C 124.617188 255.851562 124.394531 255.765625 124.128906 255.765625 C 123.777344 255.765625 123.46875 255.941406 123.203125 256.292969 C 123.113281 256.382812 123.070312 256.515625 123.070312 256.691406 C 123.070312 256.691406 123.113281 256.691406 123.203125 256.691406 C 123.378906 256.691406 123.511719 256.78125 123.601562 256.957031 C 123.601562 257.042969 123.601562 257.089844 123.601562 257.089844 C 123.601562 257.351562 123.46875 257.484375 123.203125 257.484375 C 123.203125 257.574219 123.203125 257.617188 123.203125 257.617188 C 122.9375 257.617188 122.761719 257.53125 122.671875 257.351562 C 122.671875 257.265625 122.671875 257.175781 122.671875 257.089844 C 122.671875 256.648438 122.851562 256.292969 123.203125 256.03125 C 123.46875 255.675781 123.820312 255.5 124.261719 255.5 C 124.882812 255.5 125.367188 255.71875 125.71875 256.160156 C 125.894531 256.425781 126.027344 256.734375 126.117188 257.089844 C 126.117188 257.089844 126.117188 257.132812 126.117188 257.222656 C 126.117188 257.574219 125.941406 257.972656 125.589844 258.414062 C 125.410156 258.589844 125.144531 258.808594 124.792969 259.074219 L 124.394531 259.605469 L 124.261719 259.605469 L 123.335938 260.53125 L 124.925781 260.53125 C 125.367188 260.53125 125.632812 260.53125 125.71875 260.53125 C 125.71875 260.445312 125.765625 260.179688 125.851562 259.738281 L 126.117188 259.738281 "/>
<path style="fill:none;stroke-width:15;stroke-linecap:square;stroke-linejoin:miter;stroke:rgb(12.547302%,12.547302%,12.547302%);stroke-opacity:1;stroke-miterlimit:10;" d="M 1027.539062 340.625 L 998.867188 324.0625 L 998.867188 357.1875 Z M 1027.539062 340.625 " transform="matrix(0.1,0,0,-0.1,0,332)"/>
<path style=" stroke:none;fill-rule:nonzero;fill:rgb(12.547302%,12.547302%,12.547302%);fill-opacity:1;" d="M 102.753906 297.9375 L 99.886719 299.59375 L 99.886719 296.28125 L 102.753906 297.9375 "/>
<path style="fill:none;stroke-width:15;stroke-linecap:square;stroke-linejoin:miter;stroke:rgb(12.547302%,12.547302%,12.547302%);stroke-opacity:1;stroke-miterlimit:10;" d="M 1201.875 340.625 L 1230.585938 324.0625 L 1230.585938 357.1875 Z M 1201.875 340.625 " transform="matrix(0.1,0,0,-0.1,0,332)"/>
<path style=" stroke:none;fill-rule:nonzero;fill:rgb(12.547302%,12.547302%,12.547302%);fill-opacity:1;" d="M 120.1875 297.9375 L 123.058594 299.59375 L 123.058594 296.28125 L 120.1875 297.9375 "/>
</g>
</svg>
