<?xml version="1.0" encoding="UTF-8"?>
<svg xmlns="http://www.w3.org/2000/svg" xmlns:xlink="http://www.w3.org/1999/xlink" width="185pt" height="185pt" viewBox="0 0 185 185" version="1.1">
<g id="surface1">
<rect x="0" y="0" width="185" height="185" style="fill:rgb(100%,100%,100%);fill-opacity:1;stroke:none;"/>
<path style="fill:none;stroke-width:10;stroke-linecap:round;stroke-linejoin:round;stroke:rgb(75.389099%,75.389099%,75.389099%);stroke-opacity:1;stroke-miterlimit:10;" d="M 79.765625 1878.28125 L 79.765625 -332.65625 " transform="matrix(0.1,0,0,-0.1,0,185)"/>
<path style="fill:none;stroke-width:10;stroke-linecap:round;stroke-linejoin:round;stroke:rgb(75.389099%,75.389099%,75.389099%);stroke-opacity:1;stroke-miterlimit:10;" d="M 79.765625 1878.28125 L 79.765625 -332.65625 " transform="matrix(0.1,0,0,-0.1,0,185)"/>
<path style="fill:none;stroke-width:10;stroke-linecap:round;stroke-linejoin:round;stroke:rgb(75.389099%,75.389099%,75.389099%);stroke-opacity:1;stroke-miterlimit:10;" d="M 363.242188 1878.28125 L 363.242188 -332.65625 " transform="matrix(0.1,0,0,-0.1,0,185)"/>
<path style="fill:none;stroke-width:10;stroke-linecap:round;stroke-linejoin:round;stroke:rgb(75.389099%,75.389099%,75.389099%);stroke-opacity:1;stroke-miterlimit:10;" d="M 646.71875 1878.28125 L 646.71875 -332.65625 " transform="matrix(0.1,0,0,-0.1,0,185)"/>
<path style="fill:none;stroke-width:10;stroke-linecap:round;stroke-linejoin:round;stroke:rgb(75.389099%,75.389099%,75.389099%);stroke-opacity:1;stroke-miterlimit:10;" d="M 1213.632812 1878.28125 L 1213.632812 -332.65625 " transform="matrix(0.1,0,0,-0.1,0,185)"/>
<path style="fill:none;stroke-width:10;stroke-linecap:round;stroke-linejoin:round;stroke:rgb(75.389099%,75.389099%,75.389099%);stroke-opacity:1;stroke-miterlimit:10;" d="M 1497.109375 1878.28125 L 1497.109375 -332.65625 " transform="matrix(0.1,0,0,-0.1,0,185)"/>
<path style="fill:none;stroke-width:10;stroke-linecap:round;stroke-linejoin:round;stroke:rgb(75.389099%,75.389099%,75.389099%);stroke-opacity:1;stroke-miterlimit:10;" d="M 1780.585938 1878.28125 L 1780.585938 -332.65625 " transform="matrix(0.1,0,0,-0.1,0,185)"/>
<path style="fill:none;stroke-width:10;stroke-linecap:round;stroke-linejoin:round;stroke:rgb(94.139099%,94.139099%,94.139099%);stroke-opacity:1;stroke-miterlimit:10;" d="M 23.085938 1878.28125 L 23.085938 -332.65625 " transform="matrix(0.1,0,0,-0.1,0,185)"/>
<path style="fill:none;stroke-width:10;stroke-linecap:round;stroke-linejoin:round;stroke:rgb(94.139099%,94.139099%,94.139099%);stroke-opacity:1;stroke-miterlimit:10;" d="M 136.484375 1878.28125 L 136.484375 -332.65625 " transform="matrix(0.1,0,0,-0.1,0,185)"/>
<path style="fill:none;stroke-width:10;stroke-linecap:round;stroke-linejoin:round;stroke:rgb(94.139099%,94.139099%,94.139099%);stroke-opacity:1;stroke-miterlimit:10;" d="M 193.164062 1878.28125 L 193.164062 -332.65625 " transform="matrix(0.1,0,0,-0.1,0,185)"/>
<path style="fill:none;stroke-width:10;stroke-linecap:round;stroke-linejoin:round;stroke:rgb(94.139099%,94.139099%,94.139099%);stroke-opacity:1;stroke-miterlimit:10;" d="M 249.84375 1878.28125 L 249.84375 -332.65625 " transform="matrix(0.1,0,0,-0.1,0,185)"/>
<path style="fill:none;stroke-width:10;stroke-linecap:round;stroke-linejoin:round;stroke:rgb(94.139099%,94.139099%,94.139099%);stroke-opacity:1;stroke-miterlimit:10;" d="M 306.5625 1878.28125 L 306.5625 -332.65625 " transform="matrix(0.1,0,0,-0.1,0,185)"/>
<path style="fill:none;stroke-width:10;stroke-linecap:round;stroke-linejoin:round;stroke:rgb(94.139099%,94.139099%,94.139099%);stroke-opacity:1;stroke-miterlimit:10;" d="M 419.921875 1878.28125 L 419.921875 -332.65625 " transform="matrix(0.1,0,0,-0.1,0,185)"/>
<path style="fill:none;stroke-width:10;stroke-linecap:round;stroke-linejoin:round;stroke:rgb(94.139099%,94.139099%,94.139099%);stroke-opacity:1;stroke-miterlimit:10;" d="M 476.640625 1878.28125 L 476.640625 -332.65625 " transform="matrix(0.1,0,0,-0.1,0,185)"/>
<path style="fill:none;stroke-width:10;stroke-linecap:round;stroke-linejoin:round;stroke:rgb(94.139099%,94.139099%,94.139099%);stroke-opacity:1;stroke-miterlimit:10;" d="M 533.320312 1878.28125 L 533.320312 -332.65625 " transform="matrix(0.1,0,0,-0.1,0,185)"/>
<path style="fill:none;stroke-width:10;stroke-linecap:round;stroke-linejoin:round;stroke:rgb(94.139099%,94.139099%,94.139099%);stroke-opacity:1;stroke-miterlimit:10;" d="M 590 1878.28125 L 590 -332.65625 " transform="matrix(0.1,0,0,-0.1,0,185)"/>
<path style="fill:none;stroke-width:10;stroke-linecap:round;stroke-linejoin:round;stroke:rgb(94.139099%,94.139099%,94.139099%);stroke-opacity:1;stroke-miterlimit:10;" d="M 703.398438 1878.28125 L 703.398438 -332.65625 " transform="matrix(0.1,0,0,-0.1,0,185)"/>
<path style="fill:none;stroke-width:10;stroke-linecap:round;stroke-linejoin:round;stroke:rgb(94.139099%,94.139099%,94.139099%);stroke-opacity:1;stroke-miterlimit:10;" d="M 760.078125 1878.28125 L 760.078125 -332.65625 " transform="matrix(0.1,0,0,-0.1,0,185)"/>
<path style="fill:none;stroke-width:10;stroke-linecap:round;stroke-linejoin:round;stroke:rgb(94.139099%,94.139099%,94.139099%);stroke-opacity:1;stroke-miterlimit:10;" d="M 816.796875 1878.28125 L 816.796875 -332.65625 " transform="matrix(0.1,0,0,-0.1,0,185)"/>
<path style="fill:none;stroke-width:10;stroke-linecap:round;stroke-linejoin:round;stroke:rgb(94.139099%,94.139099%,94.139099%);stroke-opacity:1;stroke-miterlimit:10;" d="M 873.476562 1878.28125 L 873.476562 -332.65625 " transform="matrix(0.1,0,0,-0.1,0,185)"/>
<path style="fill:none;stroke-width:10;stroke-linecap:round;stroke-linejoin:round;stroke:rgb(94.139099%,94.139099%,94.139099%);stroke-opacity:1;stroke-miterlimit:10;" d="M 986.875 1878.28125 L 986.875 -332.65625 " transform="matrix(0.1,0,0,-0.1,0,185)"/>
<path style="fill:none;stroke-width:10;stroke-linecap:round;stroke-linejoin:round;stroke:rgb(94.139099%,94.139099%,94.139099%);stroke-opacity:1;stroke-miterlimit:10;" d="M 1043.554688 1878.28125 L 1043.554688 -332.65625 " transform="matrix(0.1,0,0,-0.1,0,185)"/>
<path style="fill:none;stroke-width:10;stroke-linecap:round;stroke-linejoin:round;stroke:rgb(94.139099%,94.139099%,94.139099%);stroke-opacity:1;stroke-miterlimit:10;" d="M 1100.234375 1878.28125 L 1100.234375 -332.65625 " transform="matrix(0.1,0,0,-0.1,0,185)"/>
<path style="fill:none;stroke-width:10;stroke-linecap:round;stroke-linejoin:round;stroke:rgb(94.139099%,94.139099%,94.139099%);stroke-opacity:1;stroke-miterlimit:10;" d="M 1156.953125 1878.28125 L 1156.953125 -332.65625 " transform="matrix(0.1,0,0,-0.1,0,185)"/>
<path style="fill:none;stroke-width:10;stroke-linecap:round;stroke-linejoin:round;stroke:rgb(94.139099%,94.139099%,94.139099%);stroke-opacity:1;stroke-miterlimit:10;" d="M 1270.3125 1878.28125 L 1270.3125 -332.65625 " transform="matrix(0.1,0,0,-0.1,0,185)"/>
<path style="fill:none;stroke-width:10;stroke-linecap:round;stroke-linejoin:round;stroke:rgb(94.139099%,94.139099%,94.139099%);stroke-opacity:1;stroke-miterlimit:10;" d="M 1327.03125 1878.28125 L 1327.03125 -332.65625 " transform="matrix(0.1,0,0,-0.1,0,185)"/>
<path style="fill:none;stroke-width:10;stroke-linecap:round;stroke-linejoin:round;stroke:rgb(94.139099%,94.139099%,94.139099%);stroke-opacity:1;stroke-miterlimit:10;" d="M 1383.710938 1878.28125 L 1383.710938 -332.65625 " transform="matrix(0.1,0,0,-0.1,0,185)"/>
<path style="fill:none;stroke-width:10;stroke-linecap:round;stroke-linejoin:round;stroke:rgb(94.139099%,94.139099%,94.139099%);stroke-opacity:1;stroke-miterlimit:10;" d="M 1440.390625 1878.28125 L 1440.390625 -332.65625 " transform="matrix(0.1,0,0,-0.1,0,185)"/>
<path style="fill:none;stroke-width:10;stroke-linecap:round;stroke-linejoin:round;stroke:rgb(94.139099%,94.139099%,94.139099%);stroke-opacity:1;stroke-miterlimit:10;" d="M 1553.789062 1878.28125 L 1553.789062 -332.65625 " transform="matrix(0.1,0,0,-0.1,0,185)"/>
<path style="fill:none;stroke-width:10;stroke-linecap:round;stroke-linejoin:round;stroke:rgb(94.139099%,94.139099%,94.139099%);stroke-opacity:1;stroke-miterlimit:10;" d="M 1610.507812 1878.28125 L 1610.507812 -332.65625 " transform="matrix(0.1,0,0,-0.1,0,185)"/>
<path style="fill:none;stroke-width:10;stroke-linecap:round;stroke-linejoin:round;stroke:rgb(94.139099%,94.139099%,94.139099%);stroke-opacity:1;stroke-miterlimit:10;" d="M 1667.1875 1878.28125 L 1667.1875 -332.65625 " transform="matrix(0.1,0,0,-0.1,0,185)"/>
<path style="fill:none;stroke-width:10;stroke-linecap:round;stroke-linejoin:round;stroke:rgb(94.139099%,94.139099%,94.139099%);stroke-opacity:1;stroke-miterlimit:10;" d="M 1723.867188 1878.28125 L 1723.867188 -332.65625 " transform="matrix(0.1,0,0,-0.1,0,185)"/>
<path style="fill:none;stroke-width:10;stroke-linecap:round;stroke-linejoin:round;stroke:rgb(94.139099%,94.139099%,94.139099%);stroke-opacity:1;stroke-miterlimit:10;" d="M 1837.265625 1878.28125 L 1837.265625 -332.65625 " transform="matrix(0.1,0,0,-0.1,0,185)"/>
<path style="fill:none;stroke-width:10;stroke-linecap:round;stroke-linejoin:round;stroke:rgb(75.389099%,75.389099%,75.389099%);stroke-opacity:1;stroke-miterlimit:10;" d="M -183.867188 1778.28125 L 2550.351562 1778.28125 " transform="matrix(0.1,0,0,-0.1,0,185)"/>
<path style="fill:none;stroke-width:10;stroke-linecap:round;stroke-linejoin:round;stroke:rgb(75.389099%,75.389099%,75.389099%);stroke-opacity:1;stroke-miterlimit:10;" d="M -183.867188 1778.28125 L 2550.351562 1778.28125 " transform="matrix(0.1,0,0,-0.1,0,185)"/>
<path style="fill:none;stroke-width:10;stroke-linecap:round;stroke-linejoin:round;stroke:rgb(75.389099%,75.389099%,75.389099%);stroke-opacity:1;stroke-miterlimit:10;" d="M -183.867188 1494.804688 L 2550.351562 1494.804688 " transform="matrix(0.1,0,0,-0.1,0,185)"/>
<path style="fill:none;stroke-width:10;stroke-linecap:round;stroke-linejoin:round;stroke:rgb(75.389099%,75.389099%,75.389099%);stroke-opacity:1;stroke-miterlimit:10;" d="M -183.867188 1211.328125 L 2550.351562 1211.328125 " transform="matrix(0.1,0,0,-0.1,0,185)"/>
<path style="fill:none;stroke-width:10;stroke-linecap:round;stroke-linejoin:round;stroke:rgb(75.389099%,75.389099%,75.389099%);stroke-opacity:1;stroke-miterlimit:10;" d="M -183.867188 927.890625 L 2550.351562 927.890625 " transform="matrix(0.1,0,0,-0.1,0,185)"/>
<path style="fill:none;stroke-width:10;stroke-linecap:round;stroke-linejoin:round;stroke:rgb(75.389099%,75.389099%,75.389099%);stroke-opacity:1;stroke-miterlimit:10;" d="M -183.867188 360.9375 L 2550.351562 360.9375 " transform="matrix(0.1,0,0,-0.1,0,185)"/>
<path style="fill:none;stroke-width:10;stroke-linecap:round;stroke-linejoin:round;stroke:rgb(75.389099%,75.389099%,75.389099%);stroke-opacity:1;stroke-miterlimit:10;" d="M -183.867188 77.5 L 2550.351562 77.5 " transform="matrix(0.1,0,0,-0.1,0,185)"/>
<path style="fill:none;stroke-width:10;stroke-linecap:round;stroke-linejoin:round;stroke:rgb(94.139099%,94.139099%,94.139099%);stroke-opacity:1;stroke-miterlimit:10;" d="M -183.867188 1834.960938 L 2550.351562 1834.960938 " transform="matrix(0.1,0,0,-0.1,0,185)"/>
<path style="fill:none;stroke-width:10;stroke-linecap:round;stroke-linejoin:round;stroke:rgb(94.139099%,94.139099%,94.139099%);stroke-opacity:1;stroke-miterlimit:10;" d="M -183.867188 1834.960938 L 2550.351562 1834.960938 " transform="matrix(0.1,0,0,-0.1,0,185)"/>
<path style="fill:none;stroke-width:10;stroke-linecap:round;stroke-linejoin:round;stroke:rgb(94.139099%,94.139099%,94.139099%);stroke-opacity:1;stroke-miterlimit:10;" d="M -183.867188 1721.5625 L 2550.351562 1721.5625 " transform="matrix(0.1,0,0,-0.1,0,185)"/>
<path style="fill:none;stroke-width:10;stroke-linecap:round;stroke-linejoin:round;stroke:rgb(94.139099%,94.139099%,94.139099%);stroke-opacity:1;stroke-miterlimit:10;" d="M -183.867188 1664.882812 L 2550.351562 1664.882812 " transform="matrix(0.1,0,0,-0.1,0,185)"/>
<path style="fill:none;stroke-width:10;stroke-linecap:round;stroke-linejoin:round;stroke:rgb(94.139099%,94.139099%,94.139099%);stroke-opacity:1;stroke-miterlimit:10;" d="M -183.867188 1608.203125 L 2550.351562 1608.203125 " transform="matrix(0.1,0,0,-0.1,0,185)"/>
<path style="fill:none;stroke-width:10;stroke-linecap:round;stroke-linejoin:round;stroke:rgb(94.139099%,94.139099%,94.139099%);stroke-opacity:1;stroke-miterlimit:10;" d="M -183.867188 1551.484375 L 2550.351562 1551.484375 " transform="matrix(0.1,0,0,-0.1,0,185)"/>
<path style="fill:none;stroke-width:10;stroke-linecap:round;stroke-linejoin:round;stroke:rgb(94.139099%,94.139099%,94.139099%);stroke-opacity:1;stroke-miterlimit:10;" d="M -183.867188 1438.125 L 2550.351562 1438.125 " transform="matrix(0.1,0,0,-0.1,0,185)"/>
<path style="fill:none;stroke-width:10;stroke-linecap:round;stroke-linejoin:round;stroke:rgb(94.139099%,94.139099%,94.139099%);stroke-opacity:1;stroke-miterlimit:10;" d="M -183.867188 1381.40625 L 2550.351562 1381.40625 " transform="matrix(0.1,0,0,-0.1,0,185)"/>
<path style="fill:none;stroke-width:10;stroke-linecap:round;stroke-linejoin:round;stroke:rgb(94.139099%,94.139099%,94.139099%);stroke-opacity:1;stroke-miterlimit:10;" d="M -183.867188 1324.726562 L 2550.351562 1324.726562 " transform="matrix(0.1,0,0,-0.1,0,185)"/>
<path style="fill:none;stroke-width:10;stroke-linecap:round;stroke-linejoin:round;stroke:rgb(94.139099%,94.139099%,94.139099%);stroke-opacity:1;stroke-miterlimit:10;" d="M -183.867188 1268.046875 L 2550.351562 1268.046875 " transform="matrix(0.1,0,0,-0.1,0,185)"/>
<path style="fill:none;stroke-width:10;stroke-linecap:round;stroke-linejoin:round;stroke:rgb(94.139099%,94.139099%,94.139099%);stroke-opacity:1;stroke-miterlimit:10;" d="M -183.867188 1154.648438 L 2550.351562 1154.648438 " transform="matrix(0.1,0,0,-0.1,0,185)"/>
<path style="fill:none;stroke-width:10;stroke-linecap:round;stroke-linejoin:round;stroke:rgb(94.139099%,94.139099%,94.139099%);stroke-opacity:1;stroke-miterlimit:10;" d="M -183.867188 1097.96875 L 2550.351562 1097.96875 " transform="matrix(0.1,0,0,-0.1,0,185)"/>
<path style="fill:none;stroke-width:10;stroke-linecap:round;stroke-linejoin:round;stroke:rgb(94.139099%,94.139099%,94.139099%);stroke-opacity:1;stroke-miterlimit:10;" d="M -183.867188 1041.25 L 2550.351562 1041.25 " transform="matrix(0.1,0,0,-0.1,0,185)"/>
<path style="fill:none;stroke-width:10;stroke-linecap:round;stroke-linejoin:round;stroke:rgb(94.139099%,94.139099%,94.139099%);stroke-opacity:1;stroke-miterlimit:10;" d="M -183.867188 984.570312 L 2550.351562 984.570312 " transform="matrix(0.1,0,0,-0.1,0,185)"/>
<path style="fill:none;stroke-width:10;stroke-linecap:round;stroke-linejoin:round;stroke:rgb(94.139099%,94.139099%,94.139099%);stroke-opacity:1;stroke-miterlimit:10;" d="M -183.867188 871.171875 L 2550.351562 871.171875 " transform="matrix(0.1,0,0,-0.1,0,185)"/>
<path style="fill:none;stroke-width:10;stroke-linecap:round;stroke-linejoin:round;stroke:rgb(94.139099%,94.139099%,94.139099%);stroke-opacity:1;stroke-miterlimit:10;" d="M -183.867188 814.492188 L 2550.351562 814.492188 " transform="matrix(0.1,0,0,-0.1,0,185)"/>
<path style="fill:none;stroke-width:10;stroke-linecap:round;stroke-linejoin:round;stroke:rgb(94.139099%,94.139099%,94.139099%);stroke-opacity:1;stroke-miterlimit:10;" d="M -183.867188 757.8125 L 2550.351562 757.8125 " transform="matrix(0.1,0,0,-0.1,0,185)"/>
<path style="fill:none;stroke-width:10;stroke-linecap:round;stroke-linejoin:round;stroke:rgb(94.139099%,94.139099%,94.139099%);stroke-opacity:1;stroke-miterlimit:10;" d="M -183.867188 701.09375 L 2550.351562 701.09375 " transform="matrix(0.1,0,0,-0.1,0,185)"/>
<path style="fill:none;stroke-width:10;stroke-linecap:round;stroke-linejoin:round;stroke:rgb(94.139099%,94.139099%,94.139099%);stroke-opacity:1;stroke-miterlimit:10;" d="M -183.867188 587.734375 L 2550.351562 587.734375 " transform="matrix(0.1,0,0,-0.1,0,185)"/>
<path style="fill:none;stroke-width:10;stroke-linecap:round;stroke-linejoin:round;stroke:rgb(94.139099%,94.139099%,94.139099%);stroke-opacity:1;stroke-miterlimit:10;" d="M -183.867188 531.015625 L 2550.351562 531.015625 " transform="matrix(0.1,0,0,-0.1,0,185)"/>
<path style="fill:none;stroke-width:10;stroke-linecap:round;stroke-linejoin:round;stroke:rgb(94.139099%,94.139099%,94.139099%);stroke-opacity:1;stroke-miterlimit:10;" d="M -183.867188 474.335938 L 2550.351562 474.335938 " transform="matrix(0.1,0,0,-0.1,0,185)"/>
<path style="fill:none;stroke-width:10;stroke-linecap:round;stroke-linejoin:round;stroke:rgb(94.139099%,94.139099%,94.139099%);stroke-opacity:1;stroke-miterlimit:10;" d="M -183.867188 417.65625 L 2550.351562 417.65625 " transform="matrix(0.1,0,0,-0.1,0,185)"/>
<path style="fill:none;stroke-width:10;stroke-linecap:round;stroke-linejoin:round;stroke:rgb(94.139099%,94.139099%,94.139099%);stroke-opacity:1;stroke-miterlimit:10;" d="M -183.867188 304.257812 L 2550.351562 304.257812 " transform="matrix(0.1,0,0,-0.1,0,185)"/>
<path style="fill:none;stroke-width:10;stroke-linecap:round;stroke-linejoin:round;stroke:rgb(94.139099%,94.139099%,94.139099%);stroke-opacity:1;stroke-miterlimit:10;" d="M -183.867188 247.578125 L 2550.351562 247.578125 " transform="matrix(0.1,0,0,-0.1,0,185)"/>
<path style="fill:none;stroke-width:10;stroke-linecap:round;stroke-linejoin:round;stroke:rgb(94.139099%,94.139099%,94.139099%);stroke-opacity:1;stroke-miterlimit:10;" d="M -183.867188 190.859375 L 2550.351562 190.859375 " transform="matrix(0.1,0,0,-0.1,0,185)"/>
<path style="fill:none;stroke-width:10;stroke-linecap:round;stroke-linejoin:round;stroke:rgb(94.139099%,94.139099%,94.139099%);stroke-opacity:1;stroke-miterlimit:10;" d="M -183.867188 134.179688 L 2550.351562 134.179688 " transform="matrix(0.1,0,0,-0.1,0,185)"/>
<path style="fill:none;stroke-width:10;stroke-linecap:round;stroke-linejoin:round;stroke:rgb(94.139099%,94.139099%,94.139099%);stroke-opacity:1;stroke-miterlimit:10;" d="M -183.867188 20.78125 L 2550.351562 20.78125 " transform="matrix(0.1,0,0,-0.1,0,185)"/>
<path style="fill:none;stroke-width:10;stroke-linecap:butt;stroke-linejoin:miter;stroke:rgb(0%,0%,0%);stroke-opacity:1;stroke-miterlimit:10;" d="M 930.15625 1868.867188 L 930.15625 -332.65625 " transform="matrix(0.1,0,0,-0.1,0,185)"/>
<path style="fill:none;stroke-width:10;stroke-linecap:butt;stroke-linejoin:miter;stroke:rgb(0%,0%,0%);stroke-opacity:1;stroke-miterlimit:10;" d="M 930.15625 1873.554688 L 911.328125 1854.726562 " transform="matrix(0.1,0,0,-0.1,0,185)"/>
<path style="fill:none;stroke-width:10;stroke-linecap:butt;stroke-linejoin:miter;stroke:rgb(0%,0%,0%);stroke-opacity:1;stroke-miterlimit:10;" d="M 930.15625 1873.554688 L 949.023438 1854.726562 " transform="matrix(0.1,0,0,-0.1,0,185)"/>
<path style="fill:none;stroke-width:10;stroke-linecap:butt;stroke-linejoin:miter;stroke:rgb(0%,0%,0%);stroke-opacity:1;stroke-miterlimit:10;" d="M -183.867188 644.414062 L 2540.9375 644.414062 " transform="matrix(0.1,0,0,-0.1,0,185)"/>
<path style=" stroke:none;fill-rule:nonzero;fill:rgb(0%,0%,0%);fill-opacity:1;" d="M 5.476562 126.253906 L 5.476562 125.878906 L 7.722656 125.878906 L 7.722656 126.253906 Z M 8.589844 127.722656 L 8.589844 127.214844 C 8.980469 127.367188 9.285156 127.445312 9.511719 127.445312 C 9.769531 127.445312 9.980469 127.371094 10.144531 127.21875 C 10.308594 127.066406 10.390625 126.871094 10.390625 126.628906 C 10.390625 126.054688 9.988281 125.765625 9.183594 125.765625 L 8.96875 125.765625 L 8.96875 125.398438 L 9.15625 125.398438 C 9.914062 125.398438 10.289062 125.132812 10.289062 124.597656 C 10.289062 124.179688 10.042969 123.972656 9.542969 123.972656 C 9.273438 123.972656 8.972656 124.046875 8.644531 124.203125 L 8.644531 123.726562 C 8.964844 123.617188 9.28125 123.5625 9.582031 123.5625 C 10.417969 123.5625 10.835938 123.878906 10.835938 124.511719 C 10.835938 124.992188 10.550781 125.332031 9.984375 125.539062 C 10.644531 125.691406 10.972656 126.050781 10.972656 126.621094 C 10.972656 127.003906 10.84375 127.308594 10.589844 127.527344 C 10.335938 127.746094 9.988281 127.855469 9.542969 127.855469 C 9.292969 127.855469 8.972656 127.8125 8.589844 127.722656 "/>
<path style=" stroke:none;fill-rule:nonzero;fill:rgb(0%,0%,0%);fill-opacity:1;" d="M 34.230469 126.253906 L 34.230469 125.878906 L 36.480469 125.878906 L 36.480469 126.253906 Z M 37.238281 127.753906 L 37.238281 127.277344 C 37.398438 126.90625 37.71875 126.503906 38.203125 126.066406 L 38.511719 125.785156 C 38.914062 125.421875 39.113281 125.0625 39.113281 124.707031 C 39.113281 124.476562 39.046875 124.296875 38.910156 124.167969 C 38.773438 124.035156 38.585938 123.972656 38.34375 123.972656 C 38.0625 123.972656 37.726562 124.082031 37.34375 124.300781 L 37.34375 123.820312 C 37.703125 123.648438 38.066406 123.5625 38.421875 123.5625 C 38.804688 123.5625 39.113281 123.664062 39.34375 123.871094 C 39.578125 124.078125 39.691406 124.351562 39.691406 124.691406 C 39.691406 124.9375 39.632812 125.15625 39.515625 125.34375 C 39.402344 125.535156 39.183594 125.765625 38.863281 126.035156 L 38.65625 126.214844 C 38.21875 126.585938 37.964844 126.9375 37.898438 127.277344 L 39.671875 127.277344 L 39.671875 127.753906 "/>
<path style=" stroke:none;fill-rule:nonzero;fill:rgb(0%,0%,0%);fill-opacity:1;" d="M 62.515625 126.253906 L 62.515625 125.878906 L 64.765625 125.878906 L 64.765625 126.253906 Z M 65.90625 127.753906 L 65.90625 127.34375 L 66.722656 127.34375 L 66.722656 124.117188 L 65.90625 124.324219 L 65.90625 123.902344 L 67.269531 123.5625 L 67.269531 127.34375 L 68.089844 127.34375 L 68.089844 127.753906 "/>
<path style=" stroke:none;fill-rule:nonzero;fill:rgb(0%,0%,0%);fill-opacity:1;" d="M 121.0625 127.753906 L 121.0625 127.34375 L 121.878906 127.34375 L 121.878906 124.117188 L 121.0625 124.324219 L 121.0625 123.902344 L 122.425781 123.5625 L 122.425781 127.34375 L 123.242188 127.34375 L 123.242188 127.753906 "/>
<path style=" stroke:none;fill-rule:nonzero;fill:rgb(0%,0%,0%);fill-opacity:1;" d="M 148.964844 127.753906 L 148.964844 127.277344 C 149.121094 126.90625 149.445312 126.503906 149.925781 126.066406 L 150.238281 125.785156 C 150.640625 125.421875 150.839844 125.0625 150.839844 124.707031 C 150.839844 124.476562 150.773438 124.296875 150.636719 124.167969 C 150.496094 124.035156 150.308594 123.972656 150.070312 123.972656 C 149.785156 123.972656 149.453125 124.082031 149.066406 124.300781 L 149.066406 123.820312 C 149.429688 123.648438 149.789062 123.5625 150.148438 123.5625 C 150.53125 123.5625 150.839844 123.664062 151.070312 123.871094 C 151.300781 124.078125 151.417969 124.351562 151.417969 124.691406 C 151.417969 124.9375 151.359375 125.15625 151.242188 125.34375 C 151.125 125.535156 150.90625 125.765625 150.589844 126.035156 L 150.378906 126.214844 C 149.941406 126.585938 149.691406 126.9375 149.621094 127.277344 L 151.398438 127.277344 L 151.398438 127.753906 "/>
<path style=" stroke:none;fill-rule:nonzero;fill:rgb(0%,0%,0%);fill-opacity:1;" d="M 177.355469 127.722656 L 177.355469 127.214844 C 177.746094 127.367188 178.054688 127.445312 178.277344 127.445312 C 178.535156 127.445312 178.746094 127.371094 178.910156 127.21875 C 179.074219 127.066406 179.15625 126.871094 179.15625 126.628906 C 179.15625 126.054688 178.753906 125.765625 177.949219 125.765625 L 177.734375 125.765625 L 177.734375 125.398438 L 177.925781 125.398438 C 178.679688 125.398438 179.054688 125.132812 179.054688 124.597656 C 179.054688 124.179688 178.808594 123.972656 178.3125 123.972656 C 178.039062 123.972656 177.738281 124.046875 177.410156 124.203125 L 177.410156 123.726562 C 177.730469 123.617188 178.046875 123.5625 178.347656 123.5625 C 179.183594 123.5625 179.601562 123.878906 179.601562 124.511719 C 179.601562 124.992188 179.320312 125.332031 178.75 125.539062 C 179.410156 125.691406 179.738281 126.050781 179.738281 126.621094 C 179.738281 127.003906 179.609375 127.308594 179.355469 127.527344 C 179.101562 127.746094 178.753906 127.855469 178.3125 127.855469 C 178.058594 127.855469 177.738281 127.8125 177.355469 127.722656 "/>
<path style=" stroke:none;fill-rule:nonzero;fill:rgb(0%,0%,0%);fill-opacity:1;" d="M 83.257812 178.109375 L 83.257812 177.734375 L 85.507812 177.734375 L 85.507812 178.109375 Z M 86.265625 179.609375 L 86.265625 179.132812 C 86.425781 178.761719 86.746094 178.355469 87.226562 177.921875 L 87.539062 177.640625 C 87.941406 177.28125 88.144531 176.917969 88.144531 176.5625 C 88.144531 176.332031 88.074219 176.15625 87.9375 176.023438 C 87.800781 175.894531 87.609375 175.828125 87.371094 175.828125 C 87.089844 175.828125 86.753906 175.9375 86.367188 176.15625 L 86.367188 175.675781 C 86.730469 175.503906 87.09375 175.417969 87.449219 175.417969 C 87.832031 175.417969 88.140625 175.519531 88.371094 175.726562 C 88.605469 175.933594 88.71875 176.207031 88.71875 176.546875 C 88.71875 176.792969 88.660156 177.011719 88.542969 177.199219 C 88.425781 177.390625 88.210938 177.621094 87.890625 177.890625 L 87.679688 178.070312 C 87.246094 178.441406 86.992188 178.792969 86.925781 179.132812 L 88.699219 179.132812 L 88.699219 179.609375 "/>
<path style=" stroke:none;fill-rule:nonzero;fill:rgb(0%,0%,0%);fill-opacity:1;" d="M 83.257812 149.351562 L 83.257812 148.976562 L 85.507812 148.976562 L 85.507812 149.351562 Z M 86.648438 150.851562 L 86.648438 150.445312 L 87.464844 150.445312 L 87.464844 147.21875 L 86.648438 147.421875 L 86.648438 147.003906 L 88.011719 146.660156 L 88.011719 150.445312 L 88.832031 150.445312 L 88.832031 150.851562 "/>
<path style=" stroke:none;fill-rule:nonzero;fill:rgb(0%,0%,0%);fill-opacity:1;" d="M 86.648438 94.28125 L 86.648438 93.875 L 87.464844 93.875 L 87.464844 90.648438 L 86.648438 90.851562 L 86.648438 90.433594 L 88.011719 90.09375 L 88.011719 93.875 L 88.832031 93.875 L 88.832031 94.28125 "/>
<path style=" stroke:none;fill-rule:nonzero;fill:rgb(0%,0%,0%);fill-opacity:1;" d="M 86.265625 65.996094 L 86.265625 65.519531 C 86.425781 65.148438 86.746094 64.746094 87.226562 64.308594 L 87.539062 64.03125 C 87.941406 63.667969 88.144531 63.308594 88.144531 62.949219 C 88.144531 62.722656 88.074219 62.542969 87.9375 62.410156 C 87.800781 62.28125 87.609375 62.214844 87.371094 62.214844 C 87.089844 62.214844 86.753906 62.324219 86.367188 62.546875 L 86.367188 62.0625 C 86.730469 61.894531 87.09375 61.808594 87.449219 61.808594 C 87.832031 61.808594 88.140625 61.910156 88.371094 62.117188 C 88.605469 62.324219 88.71875 62.597656 88.71875 62.9375 C 88.71875 63.183594 88.660156 63.398438 88.542969 63.589844 C 88.425781 63.777344 88.210938 64.007812 87.890625 64.28125 L 87.679688 64.460938 C 87.246094 64.828125 86.992188 65.183594 86.925781 65.519531 L 88.699219 65.519531 L 88.699219 65.996094 "/>
<path style=" stroke:none;fill-rule:nonzero;fill:rgb(0%,0%,0%);fill-opacity:1;" d="M 86.371094 37.683594 L 86.371094 37.175781 C 86.761719 37.328125 87.070312 37.40625 87.292969 37.40625 C 87.554688 37.40625 87.765625 37.328125 87.929688 37.179688 C 88.089844 37.027344 88.171875 36.828125 88.171875 36.589844 C 88.171875 36.015625 87.769531 35.726562 86.964844 35.726562 L 86.75 35.726562 L 86.75 35.359375 L 86.941406 35.355469 C 87.695312 35.355469 88.074219 35.089844 88.074219 34.558594 C 88.074219 34.140625 87.824219 33.933594 87.328125 33.933594 C 87.054688 33.933594 86.753906 34.007812 86.425781 34.160156 L 86.425781 33.6875 C 86.75 33.578125 87.0625 33.523438 87.367188 33.523438 C 88.203125 33.523438 88.621094 33.839844 88.621094 34.46875 C 88.621094 34.949219 88.335938 35.292969 87.765625 35.496094 C 88.425781 35.652344 88.753906 36.011719 88.753906 36.578125 C 88.753906 36.964844 88.628906 37.269531 88.375 37.488281 C 88.121094 37.707031 87.773438 37.816406 87.328125 37.816406 C 87.074219 37.816406 86.757812 37.769531 86.371094 37.683594 "/>
<path style=" stroke:none;fill-rule:nonzero;fill:rgb(0%,0%,0%);fill-opacity:1;" d="M 87.925781 9.429688 L 87.925781 8.269531 L 86.085938 8.269531 L 86.085938 7.859375 L 87.925781 5.339844 L 88.4375 5.339844 L 88.4375 7.824219 L 88.984375 7.824219 L 88.984375 8.269531 L 88.4375 8.269531 L 88.4375 9.429688 Z M 86.621094 7.824219 L 87.964844 7.824219 L 87.964844 6.007812 "/>
<path style=" stroke:none;fill-rule:nonzero;fill:rgb(0%,0%,0%);fill-opacity:1;" d="M 87.570312 127.855469 C 87.148438 127.855469 86.808594 127.65625 86.546875 127.261719 C 86.285156 126.863281 86.15625 126.34375 86.15625 125.707031 C 86.15625 125.0625 86.289062 124.542969 86.550781 124.152344 C 86.8125 123.757812 87.15625 123.5625 87.585938 123.5625 C 88.015625 123.5625 88.363281 123.757812 88.625 124.152344 C 88.886719 124.542969 89.019531 125.058594 89.019531 125.699219 C 89.019531 126.351562 88.886719 126.878906 88.625 127.269531 C 88.363281 127.660156 88.011719 127.855469 87.570312 127.855469 Z M 87.578125 127.445312 C 88.152344 127.445312 88.441406 126.859375 88.441406 125.691406 C 88.441406 124.542969 88.15625 123.972656 87.585938 123.972656 C 87.019531 123.972656 86.734375 124.550781 86.734375 125.707031 C 86.734375 126.867188 87.015625 127.445312 87.578125 127.445312 "/>
<path style="fill-rule:nonzero;fill:rgb(96.09375%,92.1875%,90.234375%);fill-opacity:1;stroke-width:10;stroke-linecap:round;stroke-linejoin:round;stroke:rgb(59.959412%,19.993591%,0%);stroke-opacity:1;stroke-miterlimit:10;" d="M 646.71875 644.414062 L 646.71875 1211.328125 L 651.132812 1220.117188 L 655.546875 1228.789062 L 660 1237.304688 L 664.414062 1245.664062 L 668.867188 1253.90625 L 673.28125 1261.992188 L 677.695312 1269.960938 L 682.148438 1277.773438 L 686.5625 1285.46875 L 691.015625 1293.007812 L 695.429688 1300.390625 L 699.84375 1307.695312 L 704.296875 1314.804688 L 708.710938 1321.796875 L 713.164062 1328.632812 L 717.578125 1335.351562 L 721.992188 1341.914062 L 726.445312 1348.359375 L 730.859375 1354.648438 L 735.273438 1360.820312 L 739.726562 1366.835938 L 744.140625 1372.734375 L 748.59375 1378.476562 L 753.007812 1384.0625 L 757.421875 1389.53125 L 761.875 1394.882812 L 766.289062 1400.078125 L 770.742188 1405.117188 L 775.15625 1410.039062 L 779.570312 1414.804688 L 784.023438 1419.453125 L 788.4375 1423.945312 L 792.851562 1428.28125 L 797.304688 1432.539062 L 801.71875 1436.601562 L 806.171875 1440.546875 L 810.585938 1444.375 L 815 1448.007812 L 819.453125 1451.5625 L 823.867188 1454.960938 L 828.320312 1458.203125 L 832.734375 1461.328125 L 837.148438 1464.296875 L 841.601562 1467.148438 L 846.015625 1469.804688 L 850.429688 1472.382812 L 854.882812 1474.804688 L 859.296875 1477.109375 L 863.75 1479.21875 L 868.164062 1481.25 L 872.578125 1483.125 L 877.03125 1484.84375 L 881.445312 1486.445312 L 885.898438 1487.890625 L 890.3125 1489.21875 L 894.726562 1490.390625 L 899.179688 1491.40625 L 903.59375 1492.304688 L 908.007812 1493.085938 L 912.460938 1493.710938 L 916.875 1494.179688 L 921.328125 1494.53125 L 925.742188 1494.726562 L 930.15625 1494.804688 L 934.609375 1494.726562 L 939.023438 1494.53125 L 943.476562 1494.179688 L 947.890625 1493.710938 L 952.304688 1493.085938 L 956.757812 1492.304688 L 961.171875 1491.40625 L 965.585938 1490.390625 L 970.039062 1489.21875 L 974.453125 1487.890625 L 978.90625 1486.445312 L 983.320312 1484.84375 L 987.734375 1483.125 L 992.1875 1481.25 L 996.601562 1479.21875 L 1001.054688 1477.109375 L 1005.46875 1474.804688 L 1009.882812 1472.382812 L 1014.335938 1469.804688 L 1018.75 1467.148438 L 1023.164062 1464.296875 L 1027.617188 1461.328125 L 1032.03125 1458.203125 L 1036.484375 1454.960938 L 1040.898438 1451.5625 L 1045.3125 1448.007812 L 1049.765625 1444.375 L 1054.179688 1440.546875 L 1058.632812 1436.601562 L 1063.046875 1432.539062 L 1067.460938 1428.28125 L 1071.914062 1423.945312 L 1076.328125 1419.453125 L 1080.742188 1414.804688 L 1085.195312 1410.039062 L 1089.609375 1405.117188 L 1094.0625 1400.078125 L 1098.476562 1394.882812 L 1102.890625 1389.53125 L 1107.34375 1384.0625 L 1111.757812 1378.476562 L 1116.210938 1372.734375 L 1120.625 1366.835938 L 1125.039062 1360.820312 L 1129.492188 1354.648438 L 1133.90625 1348.359375 L 1138.359375 1341.914062 L 1142.773438 1335.351562 L 1147.1875 1328.632812 L 1151.640625 1321.796875 L 1156.054688 1314.804688 L 1160.507812 1307.695312 L 1164.921875 1300.390625 L 1169.335938 1293.007812 L 1173.789062 1285.46875 L 1178.203125 1277.773438 L 1182.617188 1269.960938 L 1187.070312 1261.992188 L 1191.484375 1253.90625 L 1195.9375 1245.664062 L 1200.351562 1237.304688 L 1204.765625 1228.789062 L 1209.21875 1220.117188 L 1213.632812 1211.328125 L 1213.632812 644.414062 L 646.71875 644.414062 " transform="matrix(0.1,0,0,-0.1,0,185)"/>
<path style="fill:none;stroke-width:25;stroke-linecap:round;stroke-linejoin:round;stroke:rgb(86.131287%,30.200195%,30.200195%);stroke-opacity:1;stroke-miterlimit:10;" d="M 200.664062 -382.695312 L 205.976562 -355.3125 L 211.328125 -328.125 L 216.679688 -301.132812 L 221.992188 -274.375 L 227.34375 -247.773438 L 232.695312 -221.40625 L 238.007812 -195.234375 L 243.359375 -169.257812 L 248.710938 -143.476562 L 254.0625 -117.890625 L 259.375 -92.5 L 264.726562 -67.34375 L 270.078125 -42.382812 L 275.390625 -17.617188 L 280.742188 6.953125 L 286.09375 31.328125 L 291.445312 55.507812 L 296.757812 79.453125 L 302.109375 103.242188 L 307.460938 126.796875 L 318.125 173.320312 L 328.828125 219.023438 L 339.492188 263.945312 L 350.15625 308.046875 L 360.859375 351.367188 L 371.523438 393.867188 L 382.226562 435.546875 L 392.890625 476.445312 L 403.554688 516.523438 L 414.257812 555.820312 L 424.921875 594.296875 L 435.625 631.953125 L 446.289062 668.828125 L 456.992188 704.882812 L 467.65625 740.15625 L 478.359375 774.609375 L 489.023438 808.242188 L 499.6875 841.09375 L 510.390625 873.125 L 521.054688 904.335938 L 531.757812 934.765625 L 542.421875 964.414062 L 553.085938 993.203125 L 563.789062 1021.210938 L 574.453125 1048.4375 L 585.15625 1074.84375 L 595.820312 1100.429688 L 606.523438 1125.234375 L 617.1875 1149.21875 L 627.851562 1172.382812 L 649.21875 1216.367188 L 670.585938 1257.109375 L 691.953125 1294.609375 L 713.320312 1328.90625 L 734.6875 1359.960938 L 756.015625 1387.8125 L 777.382812 1412.460938 L 798.75 1433.867188 L 820.117188 1452.070312 L 841.484375 1467.03125 L 862.851562 1478.828125 L 884.179688 1487.34375 L 905.546875 1492.65625 L 926.914062 1494.765625 L 948.28125 1493.632812 L 969.648438 1489.296875 L 991.015625 1481.757812 L 1012.34375 1470.976562 L 1033.710938 1456.992188 L 1055.078125 1439.765625 L 1076.445312 1419.335938 L 1097.8125 1395.664062 L 1119.179688 1368.789062 L 1140.546875 1338.710938 L 1161.875 1305.390625 L 1183.242188 1268.867188 L 1204.609375 1229.101562 L 1225.976562 1186.132812 L 1247.34375 1139.960938 L 1258.007812 1115.625 L 1268.671875 1090.546875 L 1279.375 1064.609375 L 1290.039062 1037.890625 L 1300.742188 1010.390625 L 1311.40625 982.070312 L 1322.109375 952.929688 L 1332.773438 922.96875 L 1343.476562 892.226562 L 1354.140625 860.703125 L 1364.804688 828.359375 L 1375.507812 795.195312 L 1386.171875 761.25 L 1396.875 726.484375 L 1407.539062 690.898438 L 1418.203125 654.53125 L 1428.90625 617.34375 L 1439.570312 579.335938 L 1450.273438 540.546875 L 1460.9375 500.976562 L 1471.601562 460.585938 L 1482.304688 419.375 L 1492.96875 377.34375 L 1503.671875 334.53125 L 1514.335938 290.9375 L 1525.039062 246.523438 L 1535.703125 201.289062 L 1546.40625 155.234375 L 1557.070312 108.398438 L 1562.421875 84.6875 L 1567.734375 60.742188 L 1573.085938 36.640625 L 1578.4375 12.304688 L 1583.789062 -12.226562 L 1589.101562 -36.953125 L 1594.453125 -61.875 L 1599.804688 -86.992188 L 1605.117188 -112.34375 L 1610.46875 -137.851562 L 1615.820312 -163.59375 L 1621.132812 -189.53125 L 1626.484375 -215.664062 L 1631.835938 -241.992188 L 1637.1875 -268.554688 L 1642.5 -295.273438 L 1647.851562 -322.226562 L 1653.203125 -349.375 L 1658.515625 -376.71875 " transform="matrix(0.1,0,0,-0.1,0,185)"/>
<path style=" stroke:none;fill-rule:nonzero;fill:rgb(80.076599%,0%,0%);fill-opacity:1;" d="M 36.21875 172.394531 L 35.796875 175.332031 C 35.703125 175.707031 35.566406 176.125 35.378906 176.59375 C 35.378906 176.78125 35.332031 176.917969 35.238281 177.011719 C 35.050781 177.480469 34.773438 177.761719 34.398438 177.851562 C 34.398438 177.851562 34.351562 177.851562 34.257812 177.851562 C 33.976562 177.851562 33.746094 177.761719 33.558594 177.574219 C 33.464844 177.480469 33.417969 177.386719 33.417969 177.292969 C 33.417969 177.011719 33.558594 176.828125 33.839844 176.734375 C 33.839844 176.734375 33.886719 176.734375 33.976562 176.734375 C 34.164062 176.734375 34.257812 176.78125 34.257812 176.875 C 34.257812 176.964844 34.257812 177.011719 34.257812 177.011719 C 34.257812 177.199219 34.164062 177.339844 33.976562 177.433594 C 33.976562 177.433594 33.933594 177.480469 33.839844 177.574219 C 33.933594 177.667969 34.070312 177.710938 34.257812 177.710938 C 34.539062 177.710938 34.726562 177.386719 34.820312 176.734375 C 34.910156 176.640625 34.957031 176.5 34.957031 176.3125 L 34.957031 176.035156 L 35.65625 172.394531 L 35.097656 172.394531 C 34.910156 172.394531 34.820312 172.394531 34.820312 172.394531 C 34.820312 172.300781 34.863281 172.207031 34.957031 172.113281 L 35.796875 172.113281 C 35.890625 171.367188 35.984375 170.902344 36.078125 170.714844 C 36.265625 170.15625 36.542969 169.828125 36.917969 169.734375 C 37.011719 169.734375 37.105469 169.734375 37.199219 169.734375 C 37.476562 169.734375 37.710938 169.828125 37.898438 170.015625 C 37.898438 170.109375 37.898438 170.203125 37.898438 170.296875 C 37.898438 170.574219 37.804688 170.761719 37.617188 170.855469 C 37.617188 170.855469 37.570312 170.855469 37.476562 170.855469 C 37.289062 170.855469 37.199219 170.808594 37.199219 170.714844 C 37.105469 170.621094 37.058594 170.574219 37.058594 170.574219 C 37.058594 170.390625 37.152344 170.25 37.335938 170.15625 C 37.429688 170.15625 37.523438 170.109375 37.617188 170.015625 C 37.523438 169.921875 37.382812 169.875 37.199219 169.875 C 37.011719 169.875 36.871094 169.96875 36.777344 170.15625 C 36.683594 170.25 36.589844 170.574219 36.496094 171.136719 L 36.359375 172.113281 L 37.058594 172.113281 C 37.242188 172.113281 37.335938 172.160156 37.335938 172.253906 C 37.335938 172.347656 37.289062 172.394531 37.199219 172.394531 L 36.21875 172.394531 "/>
<path style=" stroke:none;fill-rule:nonzero;fill:rgb(80.076599%,0%,0%);fill-opacity:1;" d="M 41.285156 178.132812 C 41.285156 178.226562 41.285156 178.273438 41.285156 178.273438 C 41.195312 178.273438 41.007812 178.132812 40.726562 177.851562 C 40.355469 177.480469 40.074219 177.058594 39.886719 176.59375 C 39.421875 175.753906 39.1875 174.820312 39.1875 173.792969 C 39.1875 172.769531 39.375 171.835938 39.746094 170.996094 C 40.121094 170.34375 40.539062 169.828125 41.007812 169.457031 C 41.101562 169.363281 41.195312 169.316406 41.285156 169.316406 C 41.285156 169.316406 41.285156 169.363281 41.285156 169.457031 C 41.285156 169.457031 41.242188 169.503906 41.148438 169.59375 C 40.214844 170.527344 39.746094 171.929688 39.746094 173.792969 C 39.746094 175.660156 40.214844 177.058594 41.148438 177.992188 C 41.242188 178.085938 41.285156 178.132812 41.285156 178.132812 "/>
<path style=" stroke:none;fill-rule:nonzero;fill:rgb(80.076599%,0%,0%);fill-opacity:1;" d="M 44.769531 173.375 L 44.492188 174.492188 C 44.398438 174.960938 44.351562 175.242188 44.351562 175.332031 C 44.351562 175.613281 44.445312 175.800781 44.628906 175.894531 C 44.722656 175.894531 44.816406 175.894531 44.910156 175.894531 C 45.191406 175.894531 45.421875 175.753906 45.609375 175.472656 C 45.796875 175.289062 45.9375 175.054688 46.03125 174.773438 C 46.03125 174.679688 46.078125 174.632812 46.167969 174.632812 C 46.261719 174.632812 46.308594 174.679688 46.308594 174.773438 C 46.308594 174.867188 46.21875 175.054688 46.03125 175.332031 C 45.65625 175.894531 45.285156 176.171875 44.910156 176.171875 C 44.445312 176.171875 44.117188 175.988281 43.929688 175.613281 C 43.929688 175.519531 43.929688 175.472656 43.929688 175.472656 C 43.742188 175.753906 43.511719 175.941406 43.230469 176.035156 C 43.136719 176.125 43.042969 176.171875 42.953125 176.171875 C 42.578125 176.171875 42.296875 176.035156 42.109375 175.753906 C 42.109375 175.753906 42.109375 175.660156 42.109375 175.472656 C 42.109375 175.289062 42.203125 175.148438 42.390625 175.054688 C 42.484375 175.054688 42.53125 175.054688 42.53125 175.054688 C 42.71875 175.054688 42.859375 175.101562 42.953125 175.195312 C 42.953125 175.289062 42.953125 175.332031 42.953125 175.332031 C 42.953125 175.519531 42.859375 175.660156 42.671875 175.753906 C 42.578125 175.753906 42.53125 175.753906 42.53125 175.753906 C 42.625 175.847656 42.765625 175.894531 42.953125 175.894531 C 43.230469 175.894531 43.464844 175.707031 43.652344 175.332031 C 43.742188 175.242188 43.789062 175.148438 43.789062 175.054688 C 44.070312 173.839844 44.210938 173.09375 44.210938 172.816406 C 44.210938 172.441406 44.070312 172.253906 43.789062 172.253906 C 43.511719 172.253906 43.230469 172.441406 42.953125 172.816406 C 42.859375 172.90625 42.765625 173.046875 42.671875 173.234375 C 42.671875 173.234375 42.671875 173.28125 42.671875 173.375 L 42.53125 173.515625 C 42.4375 173.515625 42.390625 173.515625 42.390625 173.515625 C 42.390625 173.328125 42.484375 173.09375 42.671875 172.816406 C 42.953125 172.347656 43.324219 172.113281 43.789062 172.113281 C 44.257812 172.113281 44.585938 172.347656 44.769531 172.816406 C 44.957031 172.441406 45.191406 172.207031 45.46875 172.113281 C 45.5625 172.113281 45.65625 172.113281 45.75 172.113281 C 46.125 172.113281 46.355469 172.207031 46.449219 172.394531 C 46.542969 172.488281 46.589844 172.582031 46.589844 172.675781 C 46.589844 172.953125 46.449219 173.09375 46.167969 173.09375 C 46.167969 173.1875 46.125 173.234375 46.03125 173.234375 C 45.84375 173.234375 45.75 173.140625 45.75 172.953125 C 45.75 172.953125 45.75 172.90625 45.75 172.816406 C 45.75 172.628906 45.84375 172.488281 46.03125 172.394531 C 46.03125 172.394531 46.078125 172.394531 46.167969 172.394531 C 46.078125 172.300781 45.9375 172.253906 45.75 172.253906 C 45.285156 172.253906 45.003906 172.582031 44.910156 173.234375 C 44.816406 173.234375 44.769531 173.28125 44.769531 173.375 "/>
<path style=" stroke:none;fill-rule:nonzero;fill:rgb(80.076599%,0%,0%);fill-opacity:1;" d="M 49.46875 173.792969 C 49.46875 174.820312 49.28125 175.753906 48.910156 176.59375 C 48.628906 177.246094 48.257812 177.761719 47.789062 178.132812 C 47.695312 178.226562 47.601562 178.273438 47.511719 178.273438 C 47.511719 178.273438 47.511719 178.226562 47.511719 178.132812 C 47.511719 178.132812 47.511719 178.085938 47.511719 177.992188 C 48.535156 177.058594 49.050781 175.660156 49.050781 173.792969 C 49.050781 171.929688 48.582031 170.527344 47.652344 169.59375 C 47.558594 169.503906 47.511719 169.457031 47.511719 169.457031 C 47.511719 169.363281 47.511719 169.316406 47.511719 169.316406 C 47.601562 169.316406 47.789062 169.457031 48.070312 169.734375 C 48.445312 170.109375 48.722656 170.527344 48.910156 170.996094 C 49.28125 171.835938 49.46875 172.769531 49.46875 173.792969 "/>
<path style=" stroke:none;fill-rule:nonzero;fill:rgb(80.076599%,0%,0%);fill-opacity:1;" d="M 59.078125 173.09375 L 53.761719 173.09375 C 53.574219 173.09375 53.480469 173.046875 53.480469 172.953125 C 53.480469 172.859375 53.574219 172.816406 53.761719 172.816406 L 59.078125 172.816406 C 59.265625 172.816406 59.359375 172.859375 59.359375 172.953125 C 59.359375 173.046875 59.265625 173.09375 59.078125 173.09375 Z M 59.078125 174.773438 L 53.761719 174.773438 C 53.574219 174.773438 53.480469 174.726562 53.480469 174.632812 C 53.480469 174.539062 53.574219 174.492188 53.761719 174.492188 L 59.078125 174.492188 C 59.265625 174.492188 59.359375 174.539062 59.359375 174.632812 C 59.359375 174.726562 59.265625 174.773438 59.078125 174.773438 "/>
<path style=" stroke:none;fill-rule:nonzero;fill:rgb(80.076599%,0%,0%);fill-opacity:1;" d="M 65.035156 172.816406 C 65.59375 173 66.015625 173.328125 66.292969 173.792969 C 66.386719 173.980469 66.433594 174.214844 66.433594 174.492188 C 66.433594 174.960938 66.25 175.378906 65.875 175.753906 C 65.503906 176.035156 65.082031 176.171875 64.617188 176.171875 C 63.960938 176.171875 63.449219 176.035156 63.078125 175.753906 C 62.890625 175.472656 62.796875 175.148438 62.796875 174.773438 C 62.796875 174.492188 62.890625 174.355469 63.078125 174.355469 C 63.167969 174.355469 63.214844 174.355469 63.214844 174.355469 C 63.496094 174.355469 63.683594 174.449219 63.777344 174.632812 C 63.777344 174.726562 63.777344 174.773438 63.777344 174.773438 C 63.777344 175.054688 63.683594 175.242188 63.496094 175.332031 C 63.402344 175.332031 63.308594 175.332031 63.214844 175.332031 C 63.402344 175.707031 63.777344 175.894531 64.335938 175.894531 C 64.429688 175.988281 64.476562 176.035156 64.476562 176.035156 C 64.941406 176.035156 65.222656 175.847656 65.316406 175.472656 C 65.503906 175.195312 65.59375 174.867188 65.59375 174.492188 C 65.59375 173.746094 65.363281 173.28125 64.894531 173.09375 C 64.710938 173 64.570312 172.953125 64.476562 172.953125 L 64.054688 172.953125 C 63.960938 172.953125 63.914062 172.953125 63.914062 172.953125 C 63.914062 172.859375 63.960938 172.816406 64.054688 172.816406 C 64.148438 172.816406 64.242188 172.816406 64.335938 172.816406 C 64.617188 172.816406 64.847656 172.675781 65.035156 172.394531 L 65.175781 172.253906 C 65.363281 171.976562 65.457031 171.648438 65.457031 171.277344 C 65.457031 170.714844 65.222656 170.390625 64.753906 170.296875 C 64.660156 170.296875 64.570312 170.296875 64.476562 170.296875 C 64.101562 170.296875 63.777344 170.433594 63.496094 170.714844 C 63.402344 170.714844 63.355469 170.761719 63.355469 170.855469 C 63.730469 170.855469 63.914062 170.996094 63.914062 171.277344 C 63.914062 171.460938 63.824219 171.601562 63.636719 171.695312 C 63.542969 171.695312 63.496094 171.695312 63.496094 171.695312 C 63.214844 171.695312 63.078125 171.601562 63.078125 171.414062 C 62.984375 171.414062 62.9375 171.367188 62.9375 171.277344 C 62.9375 170.902344 63.167969 170.574219 63.636719 170.296875 C 63.914062 170.109375 64.242188 170.015625 64.617188 170.015625 C 65.175781 170.015625 65.59375 170.203125 65.875 170.574219 C 66.15625 170.761719 66.292969 170.996094 66.292969 171.277344 C 66.292969 171.835938 66.0625 172.253906 65.59375 172.535156 C 65.410156 172.722656 65.222656 172.816406 65.035156 172.816406 "/>
<path style=" stroke:none;fill-rule:nonzero;fill:rgb(80.076599%,0%,0%);fill-opacity:1;" d="M 74.722656 173.933594 L 69.824219 173.933594 C 69.636719 173.933594 69.542969 173.886719 69.542969 173.792969 C 69.542969 173.703125 69.636719 173.65625 69.824219 173.65625 L 74.722656 173.65625 C 74.910156 173.65625 75.003906 173.703125 75.003906 173.792969 C 75.003906 173.886719 74.910156 173.933594 74.722656 173.933594 "/>
<path style=" stroke:none;fill-rule:nonzero;fill:rgb(80.076599%,0%,0%);fill-opacity:1;" d="M 80.742188 173.375 L 80.460938 174.492188 C 80.367188 174.960938 80.320312 175.242188 80.320312 175.332031 C 80.320312 175.613281 80.414062 175.800781 80.601562 175.894531 C 80.695312 175.894531 80.789062 175.894531 80.882812 175.894531 C 81.160156 175.894531 81.394531 175.753906 81.582031 175.472656 C 81.769531 175.289062 81.90625 175.054688 82 174.773438 C 82 174.679688 82.046875 174.632812 82.140625 174.632812 C 82.234375 174.632812 82.28125 174.679688 82.28125 174.773438 C 82.28125 174.867188 82.1875 175.054688 82 175.332031 C 81.628906 175.894531 81.253906 176.171875 80.882812 176.171875 C 80.414062 176.171875 80.089844 175.988281 79.902344 175.613281 C 79.902344 175.519531 79.902344 175.472656 79.902344 175.472656 C 79.714844 175.753906 79.480469 175.941406 79.203125 176.035156 C 79.109375 176.125 79.015625 176.171875 78.921875 176.171875 C 78.546875 176.171875 78.269531 176.035156 78.082031 175.753906 C 78.082031 175.753906 78.082031 175.660156 78.082031 175.472656 C 78.082031 175.289062 78.175781 175.148438 78.363281 175.054688 C 78.457031 175.054688 78.503906 175.054688 78.503906 175.054688 C 78.6875 175.054688 78.828125 175.101562 78.921875 175.195312 C 78.921875 175.289062 78.921875 175.332031 78.921875 175.332031 C 78.921875 175.519531 78.828125 175.660156 78.640625 175.753906 C 78.546875 175.753906 78.503906 175.753906 78.503906 175.753906 C 78.59375 175.847656 78.734375 175.894531 78.921875 175.894531 C 79.203125 175.894531 79.433594 175.707031 79.621094 175.332031 C 79.714844 175.242188 79.761719 175.148438 79.761719 175.054688 C 80.042969 173.839844 80.179688 173.09375 80.179688 172.816406 C 80.179688 172.441406 80.042969 172.253906 79.761719 172.253906 C 79.480469 172.253906 79.203125 172.441406 78.921875 172.816406 C 78.828125 172.90625 78.734375 173.046875 78.640625 173.234375 C 78.640625 173.234375 78.640625 173.28125 78.640625 173.375 L 78.503906 173.515625 C 78.410156 173.515625 78.363281 173.515625 78.363281 173.515625 C 78.363281 173.328125 78.457031 173.09375 78.640625 172.816406 C 78.921875 172.347656 79.292969 172.113281 79.761719 172.113281 C 80.226562 172.113281 80.554688 172.347656 80.742188 172.816406 C 80.925781 172.441406 81.160156 172.207031 81.441406 172.113281 C 81.535156 172.113281 81.628906 172.113281 81.71875 172.113281 C 82.09375 172.113281 82.328125 172.207031 82.421875 172.394531 C 82.515625 172.488281 82.558594 172.582031 82.558594 172.675781 C 82.558594 172.953125 82.421875 173.09375 82.140625 173.09375 C 82.140625 173.1875 82.09375 173.234375 82 173.234375 C 81.8125 173.234375 81.71875 173.140625 81.71875 172.953125 C 81.71875 172.953125 81.71875 172.90625 81.71875 172.816406 C 81.71875 172.628906 81.8125 172.488281 82 172.394531 C 82 172.394531 82.046875 172.394531 82.140625 172.394531 C 82.046875 172.300781 81.90625 172.253906 81.71875 172.253906 C 81.253906 172.253906 80.972656 172.582031 80.882812 173.234375 C 80.789062 173.234375 80.742188 173.28125 80.742188 173.375 "/>
<path style=" stroke:none;fill-rule:nonzero;fill:rgb(80.076599%,0%,0%);fill-opacity:1;" d="M 85.761719 171.257812 L 85.566406 172.335938 L 83.214844 172.335938 C 83.214844 172.203125 83.246094 172.140625 83.3125 172.140625 L 84.488281 170.769531 C 84.945312 170.246094 85.175781 169.789062 85.175781 169.398438 C 85.175781 169.003906 85.042969 168.710938 84.78125 168.515625 C 84.652344 168.382812 84.488281 168.320312 84.292969 168.320312 C 84.03125 168.320312 83.800781 168.449219 83.605469 168.710938 C 83.542969 168.777344 83.507812 168.875 83.507812 169.003906 C 83.507812 169.003906 83.542969 169.003906 83.605469 169.003906 C 83.738281 169.003906 83.835938 169.070312 83.902344 169.199219 C 83.902344 169.265625 83.902344 169.296875 83.902344 169.296875 C 83.902344 169.492188 83.800781 169.59375 83.605469 169.59375 C 83.605469 169.65625 83.605469 169.691406 83.605469 169.691406 C 83.410156 169.691406 83.28125 169.625 83.214844 169.492188 C 83.214844 169.429688 83.214844 169.363281 83.214844 169.296875 C 83.214844 168.972656 83.34375 168.710938 83.605469 168.515625 C 83.800781 168.253906 84.0625 168.121094 84.390625 168.121094 C 84.847656 168.121094 85.207031 168.285156 85.46875 168.613281 C 85.597656 168.808594 85.695312 169.035156 85.761719 169.296875 C 85.761719 169.296875 85.761719 169.332031 85.761719 169.398438 C 85.761719 169.65625 85.632812 169.953125 85.371094 170.277344 C 85.238281 170.410156 85.042969 170.570312 84.78125 170.769531 L 84.488281 171.160156 L 84.390625 171.160156 L 83.707031 171.84375 L 84.878906 171.84375 C 85.207031 171.84375 85.402344 171.84375 85.46875 171.84375 C 85.46875 171.78125 85.5 171.585938 85.566406 171.257812 L 85.761719 171.257812 "/>
<path style="fill:none;stroke-width:25;stroke-linecap:round;stroke-linejoin:round;stroke:rgb(30.200195%,30.200195%,30.200195%);stroke-opacity:1;stroke-miterlimit:10;" d="M 646.71875 644.414062 L 646.71875 1211.328125 " transform="matrix(0.1,0,0,-0.1,0,185)"/>
<path style="fill:none;stroke-width:25;stroke-linecap:round;stroke-linejoin:round;stroke:rgb(30.200195%,30.200195%,30.200195%);stroke-opacity:1;stroke-miterlimit:10;" d="M 1213.632812 644.414062 L 1213.632812 1211.328125 " transform="matrix(0.1,0,0,-0.1,0,185)"/>
</g>
</svg>
