<?xml version="1.0" encoding="UTF-8"?>
<svg xmlns="http://www.w3.org/2000/svg" xmlns:xlink="http://www.w3.org/1999/xlink" width="219pt" height="163pt" viewBox="0 0 219 163" version="1.1">
<g id="surface1">
<rect x="0" y="0" width="219" height="163" style="fill:rgb(100%,100%,100%);fill-opacity:1;stroke:none;"/>
<path style="fill:none;stroke-width:10;stroke-linecap:round;stroke-linejoin:round;stroke:rgb(75.389099%,75.389099%,75.389099%);stroke-opacity:1;stroke-miterlimit:10;" d="M 419.023438 1735.664062 L 419.023438 -336.015625 " transform="matrix(0.1,0,0,-0.1,0,163)"/>
<path style="fill:none;stroke-width:10;stroke-linecap:round;stroke-linejoin:round;stroke:rgb(75.389099%,75.389099%,75.389099%);stroke-opacity:1;stroke-miterlimit:10;" d="M 702.5 1735.664062 L 702.5 -336.015625 " transform="matrix(0.1,0,0,-0.1,0,163)"/>
<path style="fill:none;stroke-width:10;stroke-linecap:round;stroke-linejoin:round;stroke:rgb(75.389099%,75.389099%,75.389099%);stroke-opacity:1;stroke-miterlimit:10;" d="M 985.9375 1735.664062 L 985.9375 -336.015625 " transform="matrix(0.1,0,0,-0.1,0,163)"/>
<path style="fill:none;stroke-width:10;stroke-linecap:round;stroke-linejoin:round;stroke:rgb(75.389099%,75.389099%,75.389099%);stroke-opacity:1;stroke-miterlimit:10;" d="M 1269.414062 1735.664062 L 1269.414062 -336.015625 " transform="matrix(0.1,0,0,-0.1,0,163)"/>
<path style="fill:none;stroke-width:10;stroke-linecap:round;stroke-linejoin:round;stroke:rgb(75.389099%,75.389099%,75.389099%);stroke-opacity:1;stroke-miterlimit:10;" d="M 1552.890625 1735.664062 L 1552.890625 -336.015625 " transform="matrix(0.1,0,0,-0.1,0,163)"/>
<path style="fill:none;stroke-width:10;stroke-linecap:round;stroke-linejoin:round;stroke:rgb(75.389099%,75.389099%,75.389099%);stroke-opacity:1;stroke-miterlimit:10;" d="M 1836.367188 1735.664062 L 1836.367188 -336.015625 " transform="matrix(0.1,0,0,-0.1,0,163)"/>
<path style="fill:none;stroke-width:10;stroke-linecap:round;stroke-linejoin:round;stroke:rgb(75.389099%,75.389099%,75.389099%);stroke-opacity:1;stroke-miterlimit:10;" d="M 2119.804688 1735.664062 L 2119.804688 -336.015625 " transform="matrix(0.1,0,0,-0.1,0,163)"/>
<path style="fill:none;stroke-width:10;stroke-linecap:round;stroke-linejoin:round;stroke:rgb(94.139099%,94.139099%,94.139099%);stroke-opacity:1;stroke-miterlimit:10;" d="M 22.1875 1735.664062 L 22.1875 -336.015625 " transform="matrix(0.1,0,0,-0.1,0,163)"/>
<path style="fill:none;stroke-width:10;stroke-linecap:round;stroke-linejoin:round;stroke:rgb(94.139099%,94.139099%,94.139099%);stroke-opacity:1;stroke-miterlimit:10;" d="M 78.867188 1735.664062 L 78.867188 -336.015625 " transform="matrix(0.1,0,0,-0.1,0,163)"/>
<path style="fill:none;stroke-width:10;stroke-linecap:round;stroke-linejoin:round;stroke:rgb(94.139099%,94.139099%,94.139099%);stroke-opacity:1;stroke-miterlimit:10;" d="M 192.265625 1735.664062 L 192.265625 -336.015625 " transform="matrix(0.1,0,0,-0.1,0,163)"/>
<path style="fill:none;stroke-width:10;stroke-linecap:round;stroke-linejoin:round;stroke:rgb(94.139099%,94.139099%,94.139099%);stroke-opacity:1;stroke-miterlimit:10;" d="M 248.945312 1735.664062 L 248.945312 -336.015625 " transform="matrix(0.1,0,0,-0.1,0,163)"/>
<path style="fill:none;stroke-width:10;stroke-linecap:round;stroke-linejoin:round;stroke:rgb(94.139099%,94.139099%,94.139099%);stroke-opacity:1;stroke-miterlimit:10;" d="M 305.625 1735.664062 L 305.625 -336.015625 " transform="matrix(0.1,0,0,-0.1,0,163)"/>
<path style="fill:none;stroke-width:10;stroke-linecap:round;stroke-linejoin:round;stroke:rgb(94.139099%,94.139099%,94.139099%);stroke-opacity:1;stroke-miterlimit:10;" d="M 362.34375 1735.664062 L 362.34375 -336.015625 " transform="matrix(0.1,0,0,-0.1,0,163)"/>
<path style="fill:none;stroke-width:10;stroke-linecap:round;stroke-linejoin:round;stroke:rgb(94.139099%,94.139099%,94.139099%);stroke-opacity:1;stroke-miterlimit:10;" d="M 475.703125 1735.664062 L 475.703125 -336.015625 " transform="matrix(0.1,0,0,-0.1,0,163)"/>
<path style="fill:none;stroke-width:10;stroke-linecap:round;stroke-linejoin:round;stroke:rgb(94.139099%,94.139099%,94.139099%);stroke-opacity:1;stroke-miterlimit:10;" d="M 532.421875 1735.664062 L 532.421875 -336.015625 " transform="matrix(0.1,0,0,-0.1,0,163)"/>
<path style="fill:none;stroke-width:10;stroke-linecap:round;stroke-linejoin:round;stroke:rgb(94.139099%,94.139099%,94.139099%);stroke-opacity:1;stroke-miterlimit:10;" d="M 589.101562 1735.664062 L 589.101562 -336.015625 " transform="matrix(0.1,0,0,-0.1,0,163)"/>
<path style="fill:none;stroke-width:10;stroke-linecap:round;stroke-linejoin:round;stroke:rgb(94.139099%,94.139099%,94.139099%);stroke-opacity:1;stroke-miterlimit:10;" d="M 645.78125 1735.664062 L 645.78125 -336.015625 " transform="matrix(0.1,0,0,-0.1,0,163)"/>
<path style="fill:none;stroke-width:10;stroke-linecap:round;stroke-linejoin:round;stroke:rgb(94.139099%,94.139099%,94.139099%);stroke-opacity:1;stroke-miterlimit:10;" d="M 759.179688 1735.664062 L 759.179688 -336.015625 " transform="matrix(0.1,0,0,-0.1,0,163)"/>
<path style="fill:none;stroke-width:10;stroke-linecap:round;stroke-linejoin:round;stroke:rgb(94.139099%,94.139099%,94.139099%);stroke-opacity:1;stroke-miterlimit:10;" d="M 815.859375 1735.664062 L 815.859375 -336.015625 " transform="matrix(0.1,0,0,-0.1,0,163)"/>
<path style="fill:none;stroke-width:10;stroke-linecap:round;stroke-linejoin:round;stroke:rgb(94.139099%,94.139099%,94.139099%);stroke-opacity:1;stroke-miterlimit:10;" d="M 872.578125 1735.664062 L 872.578125 -336.015625 " transform="matrix(0.1,0,0,-0.1,0,163)"/>
<path style="fill:none;stroke-width:10;stroke-linecap:round;stroke-linejoin:round;stroke:rgb(94.139099%,94.139099%,94.139099%);stroke-opacity:1;stroke-miterlimit:10;" d="M 929.257812 1735.664062 L 929.257812 -336.015625 " transform="matrix(0.1,0,0,-0.1,0,163)"/>
<path style="fill:none;stroke-width:10;stroke-linecap:round;stroke-linejoin:round;stroke:rgb(94.139099%,94.139099%,94.139099%);stroke-opacity:1;stroke-miterlimit:10;" d="M 1042.65625 1735.664062 L 1042.65625 -336.015625 " transform="matrix(0.1,0,0,-0.1,0,163)"/>
<path style="fill:none;stroke-width:10;stroke-linecap:round;stroke-linejoin:round;stroke:rgb(94.139099%,94.139099%,94.139099%);stroke-opacity:1;stroke-miterlimit:10;" d="M 1099.335938 1735.664062 L 1099.335938 -336.015625 " transform="matrix(0.1,0,0,-0.1,0,163)"/>
<path style="fill:none;stroke-width:10;stroke-linecap:round;stroke-linejoin:round;stroke:rgb(94.139099%,94.139099%,94.139099%);stroke-opacity:1;stroke-miterlimit:10;" d="M 1156.054688 1735.664062 L 1156.054688 -336.015625 " transform="matrix(0.1,0,0,-0.1,0,163)"/>
<path style="fill:none;stroke-width:10;stroke-linecap:round;stroke-linejoin:round;stroke:rgb(94.139099%,94.139099%,94.139099%);stroke-opacity:1;stroke-miterlimit:10;" d="M 1212.734375 1735.664062 L 1212.734375 -336.015625 " transform="matrix(0.1,0,0,-0.1,0,163)"/>
<path style="fill:none;stroke-width:10;stroke-linecap:round;stroke-linejoin:round;stroke:rgb(94.139099%,94.139099%,94.139099%);stroke-opacity:1;stroke-miterlimit:10;" d="M 1326.09375 1735.664062 L 1326.09375 -336.015625 " transform="matrix(0.1,0,0,-0.1,0,163)"/>
<path style="fill:none;stroke-width:10;stroke-linecap:round;stroke-linejoin:round;stroke:rgb(94.139099%,94.139099%,94.139099%);stroke-opacity:1;stroke-miterlimit:10;" d="M 1382.8125 1735.664062 L 1382.8125 -336.015625 " transform="matrix(0.1,0,0,-0.1,0,163)"/>
<path style="fill:none;stroke-width:10;stroke-linecap:round;stroke-linejoin:round;stroke:rgb(94.139099%,94.139099%,94.139099%);stroke-opacity:1;stroke-miterlimit:10;" d="M 1439.492188 1735.664062 L 1439.492188 -336.015625 " transform="matrix(0.1,0,0,-0.1,0,163)"/>
<path style="fill:none;stroke-width:10;stroke-linecap:round;stroke-linejoin:round;stroke:rgb(94.139099%,94.139099%,94.139099%);stroke-opacity:1;stroke-miterlimit:10;" d="M 1496.171875 1735.664062 L 1496.171875 -336.015625 " transform="matrix(0.1,0,0,-0.1,0,163)"/>
<path style="fill:none;stroke-width:10;stroke-linecap:round;stroke-linejoin:round;stroke:rgb(94.139099%,94.139099%,94.139099%);stroke-opacity:1;stroke-miterlimit:10;" d="M 1609.570312 1735.664062 L 1609.570312 -336.015625 " transform="matrix(0.1,0,0,-0.1,0,163)"/>
<path style="fill:none;stroke-width:10;stroke-linecap:round;stroke-linejoin:round;stroke:rgb(94.139099%,94.139099%,94.139099%);stroke-opacity:1;stroke-miterlimit:10;" d="M 1666.289062 1735.664062 L 1666.289062 -336.015625 " transform="matrix(0.1,0,0,-0.1,0,163)"/>
<path style="fill:none;stroke-width:10;stroke-linecap:round;stroke-linejoin:round;stroke:rgb(94.139099%,94.139099%,94.139099%);stroke-opacity:1;stroke-miterlimit:10;" d="M 1722.96875 1735.664062 L 1722.96875 -336.015625 " transform="matrix(0.1,0,0,-0.1,0,163)"/>
<path style="fill:none;stroke-width:10;stroke-linecap:round;stroke-linejoin:round;stroke:rgb(94.139099%,94.139099%,94.139099%);stroke-opacity:1;stroke-miterlimit:10;" d="M 1779.648438 1735.664062 L 1779.648438 -336.015625 " transform="matrix(0.1,0,0,-0.1,0,163)"/>
<path style="fill:none;stroke-width:10;stroke-linecap:round;stroke-linejoin:round;stroke:rgb(94.139099%,94.139099%,94.139099%);stroke-opacity:1;stroke-miterlimit:10;" d="M 1893.046875 1735.664062 L 1893.046875 -336.015625 " transform="matrix(0.1,0,0,-0.1,0,163)"/>
<path style="fill:none;stroke-width:10;stroke-linecap:round;stroke-linejoin:round;stroke:rgb(94.139099%,94.139099%,94.139099%);stroke-opacity:1;stroke-miterlimit:10;" d="M 1949.726562 1735.664062 L 1949.726562 -336.015625 " transform="matrix(0.1,0,0,-0.1,0,163)"/>
<path style="fill:none;stroke-width:10;stroke-linecap:round;stroke-linejoin:round;stroke:rgb(94.139099%,94.139099%,94.139099%);stroke-opacity:1;stroke-miterlimit:10;" d="M 2006.445312 1735.664062 L 2006.445312 -336.015625 " transform="matrix(0.1,0,0,-0.1,0,163)"/>
<path style="fill:none;stroke-width:10;stroke-linecap:round;stroke-linejoin:round;stroke:rgb(94.139099%,94.139099%,94.139099%);stroke-opacity:1;stroke-miterlimit:10;" d="M 2063.125 1735.664062 L 2063.125 -336.015625 " transform="matrix(0.1,0,0,-0.1,0,163)"/>
<path style="fill:none;stroke-width:10;stroke-linecap:round;stroke-linejoin:round;stroke:rgb(94.139099%,94.139099%,94.139099%);stroke-opacity:1;stroke-miterlimit:10;" d="M 2176.523438 1735.664062 L 2176.523438 -336.015625 " transform="matrix(0.1,0,0,-0.1,0,163)"/>
<path style="fill:none;stroke-width:10;stroke-linecap:round;stroke-linejoin:round;stroke:rgb(75.389099%,75.389099%,75.389099%);stroke-opacity:1;stroke-miterlimit:10;" d="M -75.46875 1494.804688 L 2562.265625 1494.804688 " transform="matrix(0.1,0,0,-0.1,0,163)"/>
<path style="fill:none;stroke-width:10;stroke-linecap:round;stroke-linejoin:round;stroke:rgb(75.389099%,75.389099%,75.389099%);stroke-opacity:1;stroke-miterlimit:10;" d="M -75.46875 1494.804688 L 2562.265625 1494.804688 " transform="matrix(0.1,0,0,-0.1,0,163)"/>
<path style="fill:none;stroke-width:10;stroke-linecap:round;stroke-linejoin:round;stroke:rgb(75.389099%,75.389099%,75.389099%);stroke-opacity:1;stroke-miterlimit:10;" d="M -75.46875 1211.367188 L 2562.265625 1211.367188 " transform="matrix(0.1,0,0,-0.1,0,163)"/>
<path style="fill:none;stroke-width:10;stroke-linecap:round;stroke-linejoin:round;stroke:rgb(75.389099%,75.389099%,75.389099%);stroke-opacity:1;stroke-miterlimit:10;" d="M -75.46875 927.890625 L 2562.265625 927.890625 " transform="matrix(0.1,0,0,-0.1,0,163)"/>
<path style="fill:none;stroke-width:10;stroke-linecap:round;stroke-linejoin:round;stroke:rgb(75.389099%,75.389099%,75.389099%);stroke-opacity:1;stroke-miterlimit:10;" d="M -75.46875 360.976562 L 2562.265625 360.976562 " transform="matrix(0.1,0,0,-0.1,0,163)"/>
<path style="fill:none;stroke-width:10;stroke-linecap:round;stroke-linejoin:round;stroke:rgb(75.389099%,75.389099%,75.389099%);stroke-opacity:1;stroke-miterlimit:10;" d="M -75.46875 77.5 L 2562.265625 77.5 " transform="matrix(0.1,0,0,-0.1,0,163)"/>
<path style="fill:none;stroke-width:10;stroke-linecap:round;stroke-linejoin:round;stroke:rgb(94.139099%,94.139099%,94.139099%);stroke-opacity:1;stroke-miterlimit:10;" d="M -75.46875 1608.203125 L 2562.265625 1608.203125 " transform="matrix(0.1,0,0,-0.1,0,163)"/>
<path style="fill:none;stroke-width:10;stroke-linecap:round;stroke-linejoin:round;stroke:rgb(94.139099%,94.139099%,94.139099%);stroke-opacity:1;stroke-miterlimit:10;" d="M -75.46875 1551.523438 L 2562.265625 1551.523438 " transform="matrix(0.1,0,0,-0.1,0,163)"/>
<path style="fill:none;stroke-width:10;stroke-linecap:round;stroke-linejoin:round;stroke:rgb(94.139099%,94.139099%,94.139099%);stroke-opacity:1;stroke-miterlimit:10;" d="M -75.46875 1438.125 L 2562.265625 1438.125 " transform="matrix(0.1,0,0,-0.1,0,163)"/>
<path style="fill:none;stroke-width:10;stroke-linecap:round;stroke-linejoin:round;stroke:rgb(94.139099%,94.139099%,94.139099%);stroke-opacity:1;stroke-miterlimit:10;" d="M -75.46875 1381.445312 L 2562.265625 1381.445312 " transform="matrix(0.1,0,0,-0.1,0,163)"/>
<path style="fill:none;stroke-width:10;stroke-linecap:round;stroke-linejoin:round;stroke:rgb(94.139099%,94.139099%,94.139099%);stroke-opacity:1;stroke-miterlimit:10;" d="M -75.46875 1324.726562 L 2562.265625 1324.726562 " transform="matrix(0.1,0,0,-0.1,0,163)"/>
<path style="fill:none;stroke-width:10;stroke-linecap:round;stroke-linejoin:round;stroke:rgb(94.139099%,94.139099%,94.139099%);stroke-opacity:1;stroke-miterlimit:10;" d="M -75.46875 1268.046875 L 2562.265625 1268.046875 " transform="matrix(0.1,0,0,-0.1,0,163)"/>
<path style="fill:none;stroke-width:10;stroke-linecap:round;stroke-linejoin:round;stroke:rgb(94.139099%,94.139099%,94.139099%);stroke-opacity:1;stroke-miterlimit:10;" d="M -75.46875 1154.648438 L 2562.265625 1154.648438 " transform="matrix(0.1,0,0,-0.1,0,163)"/>
<path style="fill:none;stroke-width:10;stroke-linecap:round;stroke-linejoin:round;stroke:rgb(94.139099%,94.139099%,94.139099%);stroke-opacity:1;stroke-miterlimit:10;" d="M -75.46875 1097.96875 L 2562.265625 1097.96875 " transform="matrix(0.1,0,0,-0.1,0,163)"/>
<path style="fill:none;stroke-width:10;stroke-linecap:round;stroke-linejoin:round;stroke:rgb(94.139099%,94.139099%,94.139099%);stroke-opacity:1;stroke-miterlimit:10;" d="M -75.46875 1041.289062 L 2562.265625 1041.289062 " transform="matrix(0.1,0,0,-0.1,0,163)"/>
<path style="fill:none;stroke-width:10;stroke-linecap:round;stroke-linejoin:round;stroke:rgb(94.139099%,94.139099%,94.139099%);stroke-opacity:1;stroke-miterlimit:10;" d="M -75.46875 984.570312 L 2562.265625 984.570312 " transform="matrix(0.1,0,0,-0.1,0,163)"/>
<path style="fill:none;stroke-width:10;stroke-linecap:round;stroke-linejoin:round;stroke:rgb(94.139099%,94.139099%,94.139099%);stroke-opacity:1;stroke-miterlimit:10;" d="M -75.46875 871.210938 L 2562.265625 871.210938 " transform="matrix(0.1,0,0,-0.1,0,163)"/>
<path style="fill:none;stroke-width:10;stroke-linecap:round;stroke-linejoin:round;stroke:rgb(94.139099%,94.139099%,94.139099%);stroke-opacity:1;stroke-miterlimit:10;" d="M -75.46875 814.492188 L 2562.265625 814.492188 " transform="matrix(0.1,0,0,-0.1,0,163)"/>
<path style="fill:none;stroke-width:10;stroke-linecap:round;stroke-linejoin:round;stroke:rgb(94.139099%,94.139099%,94.139099%);stroke-opacity:1;stroke-miterlimit:10;" d="M -75.46875 757.8125 L 2562.265625 757.8125 " transform="matrix(0.1,0,0,-0.1,0,163)"/>
<path style="fill:none;stroke-width:10;stroke-linecap:round;stroke-linejoin:round;stroke:rgb(94.139099%,94.139099%,94.139099%);stroke-opacity:1;stroke-miterlimit:10;" d="M -75.46875 701.132812 L 2562.265625 701.132812 " transform="matrix(0.1,0,0,-0.1,0,163)"/>
<path style="fill:none;stroke-width:10;stroke-linecap:round;stroke-linejoin:round;stroke:rgb(94.139099%,94.139099%,94.139099%);stroke-opacity:1;stroke-miterlimit:10;" d="M -75.46875 587.734375 L 2562.265625 587.734375 " transform="matrix(0.1,0,0,-0.1,0,163)"/>
<path style="fill:none;stroke-width:10;stroke-linecap:round;stroke-linejoin:round;stroke:rgb(94.139099%,94.139099%,94.139099%);stroke-opacity:1;stroke-miterlimit:10;" d="M -75.46875 531.054688 L 2562.265625 531.054688 " transform="matrix(0.1,0,0,-0.1,0,163)"/>
<path style="fill:none;stroke-width:10;stroke-linecap:round;stroke-linejoin:round;stroke:rgb(94.139099%,94.139099%,94.139099%);stroke-opacity:1;stroke-miterlimit:10;" d="M -75.46875 474.335938 L 2562.265625 474.335938 " transform="matrix(0.1,0,0,-0.1,0,163)"/>
<path style="fill:none;stroke-width:10;stroke-linecap:round;stroke-linejoin:round;stroke:rgb(94.139099%,94.139099%,94.139099%);stroke-opacity:1;stroke-miterlimit:10;" d="M -75.46875 417.65625 L 2562.265625 417.65625 " transform="matrix(0.1,0,0,-0.1,0,163)"/>
<path style="fill:none;stroke-width:10;stroke-linecap:round;stroke-linejoin:round;stroke:rgb(94.139099%,94.139099%,94.139099%);stroke-opacity:1;stroke-miterlimit:10;" d="M -75.46875 304.257812 L 2562.265625 304.257812 " transform="matrix(0.1,0,0,-0.1,0,163)"/>
<path style="fill:none;stroke-width:10;stroke-linecap:round;stroke-linejoin:round;stroke:rgb(94.139099%,94.139099%,94.139099%);stroke-opacity:1;stroke-miterlimit:10;" d="M -75.46875 247.578125 L 2562.265625 247.578125 " transform="matrix(0.1,0,0,-0.1,0,163)"/>
<path style="fill:none;stroke-width:10;stroke-linecap:round;stroke-linejoin:round;stroke:rgb(94.139099%,94.139099%,94.139099%);stroke-opacity:1;stroke-miterlimit:10;" d="M -75.46875 190.898438 L 2562.265625 190.898438 " transform="matrix(0.1,0,0,-0.1,0,163)"/>
<path style="fill:none;stroke-width:10;stroke-linecap:round;stroke-linejoin:round;stroke:rgb(94.139099%,94.139099%,94.139099%);stroke-opacity:1;stroke-miterlimit:10;" d="M -75.46875 134.179688 L 2562.265625 134.179688 " transform="matrix(0.1,0,0,-0.1,0,163)"/>
<path style="fill:none;stroke-width:10;stroke-linecap:round;stroke-linejoin:round;stroke:rgb(94.139099%,94.139099%,94.139099%);stroke-opacity:1;stroke-miterlimit:10;" d="M -75.46875 20.820312 L 2562.265625 20.820312 " transform="matrix(0.1,0,0,-0.1,0,163)"/>
<path style="fill:none;stroke-width:10;stroke-linecap:butt;stroke-linejoin:miter;stroke:rgb(0%,0%,0%);stroke-opacity:1;stroke-miterlimit:10;" d="M 135.546875 1728.125 L 135.546875 -336.015625 " transform="matrix(0.1,0,0,-0.1,0,163)"/>
<path style="fill:none;stroke-width:10;stroke-linecap:butt;stroke-linejoin:miter;stroke:rgb(0%,0%,0%);stroke-opacity:1;stroke-miterlimit:10;" d="M -75.46875 644.414062 L 2554.726562 644.414062 " transform="matrix(0.1,0,0,-0.1,0,163)"/>
<path style=" stroke:none;fill-rule:nonzero;fill:rgb(0%,0%,0%);fill-opacity:1;" d="M 41.8125 104.527344 L 41.8125 104.199219 L 42.46875 104.199219 L 42.46875 101.617188 L 41.8125 101.78125 L 41.8125 101.445312 L 42.90625 101.171875 L 42.90625 104.199219 L 43.558594 104.199219 L 43.558594 104.527344 "/>
<path style=" stroke:none;fill-rule:nonzero;fill:rgb(0%,0%,0%);fill-opacity:1;" d="M 69.808594 104.527344 L 69.808594 104.144531 C 69.9375 103.847656 70.191406 103.527344 70.578125 103.175781 L 70.828125 102.953125 C 71.152344 102.664062 71.3125 102.375 71.3125 102.089844 C 71.3125 101.90625 71.257812 101.761719 71.144531 101.65625 C 71.035156 101.554688 70.886719 101.5 70.695312 101.5 C 70.46875 101.5 70.199219 101.589844 69.890625 101.765625 L 69.890625 101.378906 C 70.183594 101.242188 70.46875 101.171875 70.757812 101.171875 C 71.0625 101.171875 71.308594 101.257812 71.496094 101.421875 C 71.679688 101.585938 71.773438 101.804688 71.773438 102.078125 C 71.773438 102.273438 71.726562 102.449219 71.632812 102.601562 C 71.539062 102.753906 71.363281 102.9375 71.109375 103.152344 L 70.941406 103.296875 C 70.59375 103.59375 70.390625 103.875 70.335938 104.144531 L 71.757812 104.144531 L 71.757812 104.527344 "/>
<path style=" stroke:none;fill-rule:nonzero;fill:rgb(0%,0%,0%);fill-opacity:1;" d="M 98.195312 104.503906 L 98.195312 104.097656 C 98.507812 104.21875 98.753906 104.28125 98.933594 104.28125 C 99.140625 104.28125 99.3125 104.222656 99.441406 104.101562 C 99.570312 103.976562 99.636719 103.820312 99.636719 103.628906 C 99.636719 103.167969 99.316406 102.9375 98.671875 102.9375 L 98.5 102.9375 L 98.5 102.644531 L 98.652344 102.640625 C 99.253906 102.640625 99.558594 102.429688 99.558594 102.003906 C 99.558594 101.667969 99.359375 101.5 98.960938 101.5 C 98.742188 101.5 98.503906 101.5625 98.238281 101.683594 L 98.238281 101.304688 C 98.496094 101.21875 98.75 101.171875 98.992188 101.171875 C 99.660156 101.171875 99.996094 101.425781 99.996094 101.933594 C 99.996094 102.316406 99.769531 102.589844 99.3125 102.753906 C 99.839844 102.878906 100.105469 103.164062 100.105469 103.621094 C 100.105469 103.929688 100.003906 104.171875 99.796875 104.347656 C 99.59375 104.523438 99.316406 104.609375 98.960938 104.609375 C 98.757812 104.609375 98.503906 104.574219 98.195312 104.503906 "/>
<path style=" stroke:none;fill-rule:nonzero;fill:rgb(0%,0%,0%);fill-opacity:1;" d="M 127.742188 104.527344 L 127.742188 103.601562 L 126.269531 103.601562 L 126.269531 103.273438 L 127.742188 101.253906 L 128.152344 101.253906 L 128.152344 103.246094 L 128.589844 103.246094 L 128.589844 103.601562 L 128.152344 103.601562 L 128.152344 104.527344 Z M 126.695312 103.246094 L 127.769531 103.246094 L 127.769531 101.789062 "/>
<path style=" stroke:none;fill-rule:nonzero;fill:rgb(0%,0%,0%);fill-opacity:1;" d="M 154.890625 104.542969 L 154.890625 104.152344 C 155.105469 104.238281 155.3125 104.28125 155.507812 104.28125 C 155.722656 104.28125 155.894531 104.21875 156.015625 104.09375 C 156.140625 103.964844 156.199219 103.789062 156.199219 103.570312 C 156.199219 103.078125 155.863281 102.832031 155.1875 102.832031 C 155.109375 102.832031 155.027344 102.835938 154.945312 102.847656 L 154.945312 101.253906 L 156.601562 101.253906 L 156.601562 101.636719 L 155.328125 101.636719 L 155.328125 102.5 C 155.746094 102.5 156.074219 102.59375 156.3125 102.789062 C 156.546875 102.980469 156.664062 103.25 156.664062 103.589844 C 156.664062 103.910156 156.558594 104.15625 156.34375 104.339844 C 156.128906 104.519531 155.832031 104.609375 155.453125 104.609375 C 155.285156 104.609375 155.097656 104.585938 154.890625 104.542969 "/>
<path style=" stroke:none;fill-rule:nonzero;fill:rgb(0%,0%,0%);fill-opacity:1;" d="M 183.417969 102.832031 C 183.628906 102.5625 183.890625 102.425781 184.203125 102.425781 C 184.488281 102.425781 184.722656 102.523438 184.90625 102.710938 C 185.089844 102.902344 185.179688 103.144531 185.179688 103.441406 C 185.179688 103.78125 185.078125 104.058594 184.871094 104.28125 C 184.667969 104.5 184.410156 104.609375 184.097656 104.609375 C 183.734375 104.609375 183.453125 104.464844 183.25 104.175781 C 183.046875 103.882812 182.945312 103.480469 182.945312 102.964844 C 182.945312 102.398438 183.0625 101.957031 183.296875 101.644531 C 183.527344 101.328125 183.855469 101.171875 184.28125 101.171875 C 184.476562 101.171875 184.71875 101.214844 185.011719 101.296875 L 185.011719 101.675781 C 184.703125 101.558594 184.449219 101.5 184.253906 101.5 C 183.699219 101.5 183.417969 101.945312 183.417969 102.832031 Z M 184.742188 103.539062 C 184.742188 103.289062 184.6875 103.09375 184.574219 102.953125 C 184.464844 102.8125 184.308594 102.742188 184.109375 102.742188 C 183.925781 102.742188 183.769531 102.804688 183.636719 102.925781 C 183.503906 103.050781 183.4375 103.199219 183.4375 103.375 C 183.4375 103.648438 183.5 103.867188 183.625 104.035156 C 183.753906 104.199219 183.917969 104.28125 184.128906 104.28125 C 184.3125 104.28125 184.464844 104.214844 184.574219 104.082031 C 184.6875 103.945312 184.742188 103.765625 184.742188 103.539062 "/>
<path style=" stroke:none;fill-rule:nonzero;fill:rgb(0%,0%,0%);fill-opacity:1;" d="M 211.625 104.527344 C 211.667969 104.273438 211.726562 104.050781 211.804688 103.867188 C 211.886719 103.679688 212.023438 103.425781 212.226562 103.101562 L 213.117188 101.664062 L 211.433594 101.664062 L 211.433594 101.253906 L 213.535156 101.253906 L 213.535156 101.664062 C 212.695312 102.902344 212.226562 103.855469 212.125 104.527344 "/>
<path style=" stroke:none;fill-rule:nonzero;fill:rgb(0%,0%,0%);fill-opacity:1;" d="M 5.515625 155.78125 L 5.515625 155.480469 L 7.316406 155.480469 L 7.316406 155.78125 Z M 7.921875 156.980469 L 7.921875 156.597656 C 8.050781 156.300781 8.304688 155.980469 8.691406 155.628906 L 8.941406 155.40625 C 9.261719 155.117188 9.425781 154.828125 9.425781 154.542969 C 9.425781 154.359375 9.371094 154.214844 9.261719 154.109375 C 9.148438 154.007812 9 153.953125 8.808594 153.953125 C 8.582031 153.953125 8.3125 154.042969 8.003906 154.21875 L 8.003906 153.832031 C 8.296875 153.695312 8.582031 153.625 8.871094 153.625 C 9.175781 153.625 9.421875 153.707031 9.609375 153.875 C 9.792969 154.039062 9.886719 154.257812 9.886719 154.53125 C 9.886719 154.726562 9.839844 154.902344 9.746094 155.050781 C 9.652344 155.203125 9.476562 155.386719 9.222656 155.605469 L 9.054688 155.75 C 8.707031 156.046875 8.503906 156.328125 8.449219 156.597656 L 9.871094 156.597656 L 9.871094 156.980469 "/>
<path style=" stroke:none;fill-rule:nonzero;fill:rgb(0%,0%,0%);fill-opacity:1;" d="M 5.515625 127.476562 L 5.515625 127.175781 L 7.316406 127.175781 L 7.316406 127.476562 Z M 8.226562 128.679688 L 8.226562 128.351562 L 8.882812 128.351562 L 8.882812 125.769531 L 8.226562 125.933594 L 8.226562 125.597656 L 9.320312 125.324219 L 9.320312 128.351562 L 9.976562 128.351562 L 9.976562 128.679688 "/>
<path style=" stroke:none;fill-rule:nonzero;fill:rgb(0%,0%,0%);fill-opacity:1;" d="M 8.226562 72.074219 L 8.226562 71.746094 L 8.882812 71.746094 L 8.882812 69.164062 L 8.226562 69.328125 L 8.226562 68.992188 L 9.320312 68.722656 L 9.320312 71.746094 L 9.976562 71.746094 L 9.976562 72.074219 "/>
<path style=" stroke:none;fill-rule:nonzero;fill:rgb(0%,0%,0%);fill-opacity:1;" d="M 7.921875 43.394531 L 7.921875 43.015625 C 8.050781 42.71875 8.304688 42.394531 8.691406 42.046875 L 8.941406 41.820312 C 9.261719 41.53125 9.425781 41.242188 9.425781 40.957031 C 9.425781 40.773438 9.371094 40.632812 9.261719 40.527344 C 9.148438 40.421875 9 40.367188 8.808594 40.367188 C 8.582031 40.367188 8.3125 40.457031 8.003906 40.632812 L 8.003906 40.246094 C 8.296875 40.109375 8.582031 40.042969 8.871094 40.042969 C 9.175781 40.042969 9.421875 40.125 9.609375 40.289062 C 9.792969 40.453125 9.886719 40.671875 9.886719 40.945312 C 9.886719 41.140625 9.839844 41.316406 9.746094 41.46875 C 9.652344 41.621094 9.476562 41.804688 9.222656 42.019531 L 9.054688 42.164062 C 8.707031 42.460938 8.503906 42.742188 8.449219 43.015625 L 9.871094 43.015625 L 9.871094 43.394531 "/>
<path style=" stroke:none;fill-rule:nonzero;fill:rgb(0%,0%,0%);fill-opacity:1;" d="M 8.007812 15.070312 L 8.007812 14.664062 C 8.320312 14.785156 8.566406 14.847656 8.746094 14.847656 C 8.953125 14.847656 9.121094 14.789062 9.253906 14.664062 C 9.382812 14.546875 9.449219 14.386719 9.449219 14.195312 C 9.449219 13.734375 9.125 13.503906 8.480469 13.503906 L 8.308594 13.503906 L 8.308594 13.210938 L 8.460938 13.207031 C 9.066406 13.207031 9.367188 12.996094 9.367188 12.570312 C 9.367188 12.234375 9.167969 12.066406 8.773438 12.066406 C 8.554688 12.066406 8.3125 12.128906 8.050781 12.25 L 8.050781 11.871094 C 8.308594 11.785156 8.558594 11.738281 8.804688 11.738281 C 9.472656 11.738281 9.808594 11.992188 9.808594 12.496094 C 9.808594 12.882812 9.578125 13.15625 9.125 13.320312 C 9.652344 13.441406 9.914062 13.730469 9.914062 14.1875 C 9.914062 14.496094 9.8125 14.738281 9.609375 14.914062 C 9.40625 15.089844 9.128906 15.175781 8.773438 15.175781 C 8.570312 15.175781 8.316406 15.140625 8.007812 15.070312 "/>
<path style=" stroke:none;fill-rule:nonzero;fill:rgb(0%,0%,0%);fill-opacity:1;" d="M 8.96875 104.609375 C 8.628906 104.609375 8.355469 104.453125 8.148438 104.132812 C 7.9375 103.816406 7.835938 103.402344 7.835938 102.890625 C 7.835938 102.375 7.9375 101.957031 8.148438 101.644531 C 8.359375 101.332031 8.636719 101.171875 8.980469 101.171875 C 9.324219 101.171875 9.601562 101.332031 9.808594 101.644531 C 10.019531 101.957031 10.125 102.371094 10.125 102.882812 C 10.125 103.40625 10.019531 103.828125 9.808594 104.140625 C 9.601562 104.453125 9.320312 104.609375 8.96875 104.609375 Z M 8.972656 104.28125 C 9.433594 104.28125 9.664062 103.8125 9.664062 102.875 C 9.664062 101.960938 9.4375 101.5 8.980469 101.5 C 8.527344 101.5 8.300781 101.964844 8.300781 102.890625 C 8.300781 103.820312 8.523438 104.28125 8.972656 104.28125 "/>
<path style="fill:none;stroke-width:25;stroke-linecap:round;stroke-linejoin:round;stroke:rgb(30.200195%,57.617188%,30.200195%);stroke-opacity:1;stroke-miterlimit:10;" d="M 135.546875 927.890625 L 151.210938 958.320312 M 151.210938 958.320312 L 171.796875 995.78125 M 171.796875 995.78125 L 192.421875 1030.195312 L 213.046875 1061.640625 L 233.632812 1090.117188 L 254.257812 1115.585938 M 254.257812 1115.585938 L 274.84375 1138.046875 L 295.46875 1157.5 L 316.054688 1173.945312 L 336.679688 1187.421875 L 357.265625 1197.890625 L 377.890625 1205.390625 L 398.476562 1209.882812 L 419.101562 1211.367188 L 439.726562 1209.84375 L 460.3125 1205.351562 L 480.9375 1197.851562 L 501.523438 1187.34375 L 522.148438 1173.867188 L 542.734375 1157.34375 L 563.359375 1137.851562 L 583.945312 1115.390625 M 583.945312 1115.390625 L 604.570312 1089.921875 L 625.195312 1061.445312 L 645.78125 1029.960938 L 666.40625 995.507812 M 666.40625 995.507812 L 686.992188 958.046875 M 686.992188 958.046875 L 702.5 927.890625 " transform="matrix(0.1,0,0,-0.1,0,163)"/>
<path style=" stroke:none;fill-rule:nonzero;fill:rgb(0%,39.208984%,0%);fill-opacity:1;" d="M 28 61.933594 L 27.328125 64.621094 C 27.179688 65.070312 26.917969 65.445312 26.542969 65.742188 C 26.246094 65.96875 25.949219 66.078125 25.648438 66.078125 C 25.347656 66.078125 25.125 65.96875 24.976562 65.742188 C 24.902344 65.667969 24.863281 65.59375 24.863281 65.519531 C 24.863281 65.21875 24.976562 65.070312 25.199219 65.070312 C 25.199219 64.996094 25.238281 64.957031 25.3125 64.957031 C 25.460938 64.957031 25.535156 65.03125 25.535156 65.183594 C 25.535156 65.183594 25.535156 65.21875 25.535156 65.292969 C 25.535156 65.367188 25.5 65.445312 25.425781 65.519531 C 25.347656 65.59375 25.238281 65.632812 25.089844 65.632812 C 25.164062 65.855469 25.347656 65.96875 25.648438 65.96875 C 25.949219 65.96875 26.207031 65.816406 26.433594 65.519531 C 26.65625 65.21875 26.804688 64.882812 26.882812 64.511719 C 26.882812 64.4375 26.882812 64.398438 26.882812 64.398438 C 26.65625 64.621094 26.433594 64.734375 26.207031 64.734375 C 25.835938 64.734375 25.574219 64.585938 25.425781 64.285156 C 25.347656 64.136719 25.3125 63.988281 25.3125 63.839844 C 25.3125 63.613281 25.425781 63.128906 25.648438 62.382812 C 25.648438 62.382812 25.6875 62.382812 25.761719 62.382812 C 25.835938 62.15625 25.871094 61.972656 25.871094 61.820312 C 25.871094 61.671875 25.796875 61.597656 25.648438 61.597656 C 25.425781 61.597656 25.199219 61.820312 24.976562 62.269531 C 24.976562 62.34375 24.976562 62.417969 24.976562 62.492188 C 24.902344 62.570312 24.863281 62.605469 24.863281 62.605469 C 24.789062 62.605469 24.753906 62.605469 24.753906 62.605469 C 24.753906 62.457031 24.789062 62.308594 24.863281 62.15625 C 25.089844 61.710938 25.347656 61.484375 25.648438 61.484375 C 25.949219 61.484375 26.132812 61.597656 26.207031 61.820312 C 26.28125 61.894531 26.320312 61.972656 26.320312 62.046875 C 26.320312 62.121094 26.246094 62.308594 26.097656 62.605469 C 25.871094 63.203125 25.761719 63.652344 25.761719 63.949219 C 25.761719 64.324219 25.910156 64.511719 26.207031 64.511719 C 26.507812 64.511719 26.730469 64.359375 26.882812 64.0625 C 26.957031 63.988281 26.992188 63.949219 26.992188 63.949219 L 27.328125 62.605469 C 27.402344 62.457031 27.441406 62.269531 27.441406 62.046875 C 27.515625 61.820312 27.554688 61.710938 27.554688 61.710938 C 27.628906 61.5625 27.738281 61.484375 27.890625 61.484375 C 27.964844 61.5625 28 61.636719 28 61.710938 C 28 61.785156 28 61.859375 28 61.933594 "/>
<path style=" stroke:none;fill-rule:nonzero;fill:rgb(0%,39.208984%,0%);fill-opacity:1;" d="M 35.222656 62.269531 L 30.964844 62.269531 C 30.816406 62.269531 30.738281 62.230469 30.738281 62.15625 C 30.738281 62.082031 30.816406 62.046875 30.964844 62.046875 L 35.222656 62.046875 C 35.371094 62.046875 35.445312 62.082031 35.445312 62.15625 C 35.445312 62.230469 35.371094 62.269531 35.222656 62.269531 Z M 35.222656 63.613281 L 30.964844 63.613281 C 30.816406 63.613281 30.738281 63.578125 30.738281 63.503906 C 30.738281 63.425781 30.816406 63.390625 30.964844 63.390625 L 35.222656 63.390625 C 35.371094 63.390625 35.445312 63.425781 35.445312 63.503906 C 35.445312 63.578125 35.371094 63.613281 35.222656 63.613281 "/>
<path style=" stroke:none;fill-rule:nonzero;fill:rgb(0%,39.208984%,0%);fill-opacity:1;" d="M 41.222656 61.933594 L 40.4375 65.070312 C 40.363281 65.367188 40.175781 65.632812 39.878906 65.855469 C 39.578125 66.003906 39.242188 66.078125 38.867188 66.078125 C 38.347656 66.078125 38.046875 65.96875 37.972656 65.742188 C 37.972656 65.742188 37.972656 65.707031 37.972656 65.632812 C 37.972656 65.480469 38.046875 65.367188 38.195312 65.292969 C 38.269531 65.292969 38.308594 65.292969 38.308594 65.292969 C 38.457031 65.292969 38.570312 65.332031 38.644531 65.40625 C 38.644531 65.40625 38.644531 65.445312 38.644531 65.519531 C 38.644531 65.667969 38.570312 65.78125 38.421875 65.855469 C 38.421875 65.855469 38.382812 65.855469 38.308594 65.855469 C 38.457031 65.929688 38.644531 65.96875 38.867188 65.96875 C 39.390625 65.96875 39.765625 65.707031 39.988281 65.183594 L 40.214844 64.175781 C 39.988281 64.398438 39.726562 64.546875 39.429688 64.621094 C 39.429688 64.621094 39.390625 64.621094 39.316406 64.621094 C 39.019531 64.621094 38.757812 64.472656 38.53125 64.175781 C 38.457031 63.949219 38.421875 63.726562 38.421875 63.503906 C 38.421875 62.980469 38.605469 62.492188 38.980469 62.046875 C 39.28125 61.671875 39.617188 61.484375 39.988281 61.484375 L 40.101562 61.484375 C 40.324219 61.484375 40.511719 61.597656 40.660156 61.820312 L 40.773438 61.933594 C 40.773438 61.710938 40.847656 61.597656 40.996094 61.597656 C 41.148438 61.597656 41.222656 61.671875 41.222656 61.820312 Z M 40.324219 63.726562 L 40.660156 62.382812 C 40.660156 62.308594 40.660156 62.269531 40.660156 62.269531 C 40.660156 62.121094 40.625 62.007812 40.550781 61.933594 C 40.472656 61.785156 40.398438 61.710938 40.324219 61.710938 C 40.25 61.636719 40.175781 61.597656 40.101562 61.597656 C 39.878906 61.597656 39.652344 61.746094 39.429688 62.046875 C 39.355469 62.121094 39.316406 62.195312 39.316406 62.269531 C 39.167969 62.570312 39.054688 62.980469 38.980469 63.503906 C 38.90625 63.578125 38.867188 63.6875 38.867188 63.839844 C 38.867188 64.136719 38.980469 64.324219 39.203125 64.398438 C 39.203125 64.472656 39.242188 64.511719 39.316406 64.511719 C 39.539062 64.511719 39.765625 64.398438 39.988281 64.175781 C 40.136719 64.023438 40.25 63.875 40.324219 63.726562 "/>
<path style=" stroke:none;fill-rule:nonzero;fill:rgb(0%,39.208984%,0%);fill-opacity:1;" d="M 43.890625 66.300781 C 43.890625 66.378906 43.890625 66.414062 43.890625 66.414062 C 43.816406 66.414062 43.664062 66.300781 43.441406 66.078125 C 43.144531 65.78125 42.917969 65.445312 42.769531 65.070312 C 42.398438 64.398438 42.210938 63.652344 42.210938 62.828125 C 42.210938 62.007812 42.359375 61.261719 42.65625 60.589844 C 42.957031 60.066406 43.292969 59.65625 43.664062 59.355469 C 43.742188 59.28125 43.816406 59.246094 43.890625 59.246094 C 43.890625 59.246094 43.890625 59.28125 43.890625 59.355469 C 43.890625 59.355469 43.851562 59.394531 43.777344 59.46875 C 43.03125 60.214844 42.65625 61.335938 42.65625 62.828125 C 42.65625 64.324219 43.03125 65.445312 43.777344 66.191406 C 43.851562 66.265625 43.890625 66.300781 43.890625 66.300781 "/>
<path style=" stroke:none;fill-rule:nonzero;fill:rgb(0%,39.208984%,0%);fill-opacity:1;" d="M 46.679688 62.492188 L 46.453125 63.390625 C 46.378906 63.765625 46.34375 63.988281 46.34375 64.0625 C 46.34375 64.285156 46.417969 64.4375 46.566406 64.511719 C 46.640625 64.511719 46.714844 64.511719 46.789062 64.511719 C 47.015625 64.511719 47.203125 64.398438 47.351562 64.175781 C 47.5 64.023438 47.613281 63.839844 47.6875 63.613281 C 47.6875 63.539062 47.722656 63.503906 47.796875 63.503906 C 47.875 63.503906 47.910156 63.539062 47.910156 63.613281 C 47.910156 63.6875 47.835938 63.839844 47.6875 64.0625 C 47.386719 64.511719 47.089844 64.734375 46.789062 64.734375 C 46.417969 64.734375 46.15625 64.585938 46.007812 64.285156 C 46.007812 64.210938 46.007812 64.175781 46.007812 64.175781 C 45.855469 64.398438 45.667969 64.546875 45.445312 64.621094 C 45.371094 64.699219 45.296875 64.734375 45.222656 64.734375 C 44.921875 64.734375 44.699219 64.621094 44.550781 64.398438 C 44.550781 64.398438 44.550781 64.324219 44.550781 64.175781 C 44.550781 64.023438 44.625 63.914062 44.773438 63.839844 C 44.847656 63.839844 44.886719 63.839844 44.886719 63.839844 C 45.035156 63.839844 45.148438 63.875 45.222656 63.949219 C 45.222656 64.023438 45.222656 64.0625 45.222656 64.0625 C 45.222656 64.210938 45.148438 64.324219 44.996094 64.398438 C 44.921875 64.398438 44.886719 64.398438 44.886719 64.398438 C 44.960938 64.472656 45.074219 64.511719 45.222656 64.511719 C 45.445312 64.511719 45.632812 64.359375 45.78125 64.0625 C 45.855469 63.988281 45.894531 63.914062 45.894531 63.839844 C 46.117188 62.867188 46.230469 62.269531 46.230469 62.046875 C 46.230469 61.746094 46.117188 61.597656 45.894531 61.597656 C 45.667969 61.597656 45.445312 61.746094 45.222656 62.046875 C 45.148438 62.121094 45.074219 62.230469 44.996094 62.382812 C 44.996094 62.382812 44.996094 62.417969 44.996094 62.492188 L 44.886719 62.605469 C 44.8125 62.605469 44.773438 62.605469 44.773438 62.605469 C 44.773438 62.457031 44.847656 62.269531 44.996094 62.046875 C 45.222656 61.671875 45.519531 61.484375 45.894531 61.484375 C 46.269531 61.484375 46.527344 61.671875 46.679688 62.046875 C 46.828125 61.746094 47.015625 61.5625 47.238281 61.484375 C 47.3125 61.484375 47.386719 61.484375 47.460938 61.484375 C 47.761719 61.484375 47.949219 61.5625 48.023438 61.710938 C 48.097656 61.785156 48.136719 61.859375 48.136719 61.933594 C 48.136719 62.15625 48.023438 62.269531 47.796875 62.269531 C 47.796875 62.34375 47.761719 62.382812 47.6875 62.382812 C 47.535156 62.382812 47.460938 62.308594 47.460938 62.15625 C 47.460938 62.15625 47.460938 62.121094 47.460938 62.046875 C 47.460938 61.894531 47.535156 61.785156 47.6875 61.710938 C 47.6875 61.710938 47.722656 61.710938 47.796875 61.710938 C 47.722656 61.636719 47.613281 61.597656 47.460938 61.597656 C 47.089844 61.597656 46.863281 61.859375 46.789062 62.382812 C 46.714844 62.382812 46.679688 62.417969 46.679688 62.492188 "/>
<path style=" stroke:none;fill-rule:nonzero;fill:rgb(0%,39.208984%,0%);fill-opacity:1;" d="M 50.441406 62.828125 C 50.441406 63.652344 50.289062 64.398438 49.992188 65.070312 C 49.769531 65.59375 49.46875 66.003906 49.09375 66.300781 C 49.019531 66.378906 48.945312 66.414062 48.871094 66.414062 C 48.871094 66.414062 48.871094 66.378906 48.871094 66.300781 C 48.871094 66.300781 48.871094 66.265625 48.871094 66.191406 C 49.691406 65.445312 50.105469 64.324219 50.105469 62.828125 C 50.105469 61.335938 49.730469 60.214844 48.984375 59.46875 C 48.910156 59.394531 48.871094 59.355469 48.871094 59.355469 C 48.871094 59.28125 48.871094 59.246094 48.871094 59.246094 C 48.945312 59.246094 49.09375 59.355469 49.320312 59.582031 C 49.617188 59.878906 49.84375 60.214844 49.992188 60.589844 C 50.289062 61.261719 50.441406 62.007812 50.441406 62.828125 "/>
<path style="fill:none;stroke-width:25;stroke-linecap:round;stroke-linejoin:round;stroke:rgb(30.200195%,57.617188%,30.200195%);stroke-opacity:1;stroke-miterlimit:10;" d="M 702.5 927.890625 L 707.617188 922.773438 M 707.617188 922.773438 L 748.828125 881.5625 M 748.828125 881.5625 L 769.414062 860.9375 L 790.039062 840.351562 L 810.625 819.726562 L 831.25 799.140625 L 851.835938 778.515625 L 872.460938 757.929688 L 913.671875 716.71875 M 913.671875 716.71875 L 954.882812 675.507812 M 954.882812 675.507812 L 975.507812 654.882812 M 975.507812 654.882812 L 985.9375 644.414062 " transform="matrix(0.1,0,0,-0.1,0,163)"/>
<path style="fill:none;stroke-width:25;stroke-linecap:round;stroke-linejoin:round;stroke:rgb(30.200195%,57.617188%,30.200195%);stroke-opacity:1;stroke-miterlimit:10;" d="M 985.9375 644.414062 L 996.09375 624.492188 M 996.09375 624.492188 L 1006.40625 605 L 1016.71875 586.25 L 1037.304688 551.015625 L 1057.929688 518.75 L 1078.554688 489.492188 M 1078.554688 489.492188 L 1099.140625 463.242188 L 1119.765625 440 L 1140.351562 419.726562 L 1160.976562 402.460938 L 1181.5625 388.203125 L 1202.1875 376.914062 L 1222.773438 368.632812 L 1243.398438 363.359375 M 1243.398438 363.359375 L 1263.984375 361.054688 L 1284.609375 361.757812 L 1305.195312 365.46875 L 1325.820312 372.1875 L 1346.445312 381.875 L 1367.03125 394.570312 L 1387.65625 410.273438 L 1408.242188 428.945312 M 1408.242188 428.945312 L 1428.867188 450.625 L 1449.453125 475.3125 L 1470.078125 503.007812 L 1490.664062 533.671875 M 1490.664062 533.671875 L 1511.289062 567.34375 L 1531.875 604.023438 M 1531.875 604.023438 L 1542.1875 623.476562 L 1552.5 643.671875 M 1552.5 643.671875 L 1552.890625 644.414062 " transform="matrix(0.1,0,0,-0.1,0,163)"/>
<path style="fill:none;stroke-width:25;stroke-linecap:round;stroke-linejoin:round;stroke:rgb(30.200195%,57.617188%,30.200195%);stroke-opacity:1;stroke-miterlimit:10;" d="M 1552.890625 644.414062 L 1573.125 669.726562 M 1573.125 669.726562 L 1593.710938 695.46875 L 1614.335938 721.210938 L 1634.921875 746.992188 L 1655.546875 772.734375 L 1676.132812 798.515625 L 1696.757812 824.257812 L 1717.34375 850.039062 L 1737.96875 875.78125 L 1758.554688 901.5625 L 1799.804688 953.046875 L 1820.390625 978.828125 L 1841.015625 1004.570312 L 1861.601562 1030.351562 L 1882.226562 1056.09375 L 1902.8125 1081.875 M 1902.8125 1081.875 L 1923.4375 1107.617188 L 1944.023438 1133.359375 L 1964.648438 1159.140625 L 1985.234375 1184.882812 L 2005.859375 1210.664062 L 2026.484375 1236.40625 L 2047.070312 1262.1875 L 2067.695312 1287.929688 M 2067.695312 1287.929688 L 2088.28125 1313.671875 L 2108.90625 1339.453125 M 2108.90625 1339.453125 L 2119.804688 1353.085938 " transform="matrix(0.1,0,0,-0.1,0,163)"/>
</g>
</svg>
