<svg version="1.1" xmlns="http://www.w3.org/2000/svg" xmlns:xlink="http://www.w3.org/1999/xlink" width="379" height="380"><defs><clipPath id="VMVphxEkFwKq"><path fill="none" stroke="none" d=" M 0 0 L 379 0 L 379 380 L 0 380 L 0 0 Z"/></clipPath></defs><g transform="scale(1,1)" clip-path="url(#VMVphxEkFwKq)"><g transform="translate(-175,-101)"><rect fill="rgb(255,255,255)" stroke="none" x="0" y="0" width="912" height="700" fill-opacity="1"/><path fill="none" stroke="rgb(192,192,192)" paint-order="fill stroke markers" d=" M 55.5 0.5 L 55.5 700.5 M 55.5 0.5 L 55.5 700.5 M 117.5 0.5 L 117.5 700.5 M 179.5 0.5 L 179.5 700.5 M 240.5 0.5 L 240.5 700.5 M 302.5 0.5 L 302.5 700.5 M 426.5 0.5 L 426.5 700.5 M 488.5 0.5 L 488.5 700.5 M 549.5 0.5 L 549.5 700.5 M 611.5 0.5 L 611.5 700.5 M 673.5 0.5 L 673.5 700.5 M 735.5 0.5 L 735.5 700.5 M 796.5 0.5 L 796.5 700.5 M 858.5 0.5 L 858.5 700.5" stroke-opacity="1" stroke-linecap="round" stroke-linejoin="round" stroke-miterlimit="10"/><path fill="none" stroke="rgb(192,192,192)" paint-order="fill stroke markers" d=" M 6.5 0.5 L 6.5 700.5 M 18.5 0.5 L 18.5 700.5 M 30.5 0.5 L 30.5 700.5 M 43.5 0.5 L 43.5 700.5 M 67.5 0.5 L 67.5 700.5 M 80.5 0.5 L 80.5 700.5 M 92.5 0.5 L 92.5 700.5 M 104.5 0.5 L 104.5 700.5 M 129.5 0.5 L 129.5 700.5 M 141.5 0.5 L 141.5 700.5 M 154.5 0.5 L 154.5 700.5 M 166.5 0.5 L 166.5 700.5 M 191.5 0.5 L 191.5 700.5 M 203.5 0.5 L 203.5 700.5 M 216.5 0.5 L 216.5 700.5 M 228.5 0.5 L 228.5 700.5 M 253.5 0.5 L 253.5 700.5 M 265.5 0.5 L 265.5 700.5 M 277.5 0.5 L 277.5 700.5 M 290.5 0.5 L 290.5 700.5 M 315.5 0.5 L 315.5 700.5 M 327.5 0.5 L 327.5 700.5 M 339.5 0.5 L 339.5 700.5 M 352.5 0.5 L 352.5 700.5 M 376.5 0.5 L 376.5 700.5 M 389.5 0.5 L 389.5 700.5 M 401.5 0.5 L 401.5 700.5 M 413.5 0.5 L 413.5 700.5 M 438.5 0.5 L 438.5 700.5 M 450.5 0.5 L 450.5 700.5 M 463.5 0.5 L 463.5 700.5 M 475.5 0.5 L 475.5 700.5 M 500.5 0.5 L 500.5 700.5 M 512.5 0.5 L 512.5 700.5 M 525.5 0.5 L 525.5 700.5 M 537.5 0.5 L 537.5 700.5 M 562.5 0.5 L 562.5 700.5 M 574.5 0.5 L 574.5 700.5 M 586.5 0.5 L 586.5 700.5 M 599.5 0.5 L 599.5 700.5 M 623.5 0.5 L 623.5 700.5 M 636.5 0.5 L 636.5 700.5 M 648.5 0.5 L 648.5 700.5 M 661.5 0.5 L 661.5 700.5 M 685.5 0.5 L 685.5 700.5 M 698.5 0.5 L 698.5 700.5 M 710.5 0.5 L 710.5 700.5 M 722.5 0.5 L 722.5 700.5 M 747.5 0.5 L 747.5 700.5 M 759.5 0.5 L 759.5 700.5 M 772.5 0.5 L 772.5 700.5 M 784.5 0.5 L 784.5 700.5 M 809.5 0.5 L 809.5 700.5 M 821.5 0.5 L 821.5 700.5 M 834.5 0.5 L 834.5 700.5 M 846.5 0.5 L 846.5 700.5 M 871.5 0.5 L 871.5 700.5 M 883.5 0.5 L 883.5 700.5 M 895.5 0.5 L 895.5 700.5 M 908.5 0.5 L 908.5 700.5" stroke-opacity="0.23529411764705882" stroke-linecap="round" stroke-linejoin="round" stroke-miterlimit="10"/><path fill="none" stroke="rgb(192,192,192)" paint-order="fill stroke markers" d=" M 0.5 43.5 L 912.5 43.5 M 0.5 43.5 L 912.5 43.5 M 0.5 105.5 L 912.5 105.5 M 0.5 167.5 L 912.5 167.5 M 0.5 229.5 L 912.5 229.5 M 0.5 352.5 L 912.5 352.5 M 0.5 414.5 L 912.5 414.5 M 0.5 476.5 L 912.5 476.5 M 0.5 538.5 L 912.5 538.5 M 0.5 599.5 L 912.5 599.5 M 0.5 661.5 L 912.5 661.5" stroke-opacity="1" stroke-linecap="round" stroke-linejoin="round" stroke-miterlimit="10"/><path fill="none" stroke="rgb(192,192,192)" paint-order="fill stroke markers" d=" M 0.5 6.5 L 912.5 6.5 M 0.5 6.5 L 912.5 6.5 M 0.5 19.5 L 912.5 19.5 M 0.5 31.5 L 912.5 31.5 M 0.5 56.5 L 912.5 56.5 M 0.5 68.5 L 912.5 68.5 M 0.5 80.5 L 912.5 80.5 M 0.5 93.5 L 912.5 93.5 M 0.5 117.5 L 912.5 117.5 M 0.5 130.5 L 912.5 130.5 M 0.5 142.5 L 912.5 142.5 M 0.5 154.5 L 912.5 154.5 M 0.5 179.5 L 912.5 179.5 M 0.5 192.5 L 912.5 192.5 M 0.5 204.5 L 912.5 204.5 M 0.5 216.5 L 912.5 216.5 M 0.5 241.5 L 912.5 241.5 M 0.5 253.5 L 912.5 253.5 M 0.5 266.5 L 912.5 266.5 M 0.5 278.5 L 912.5 278.5 M 0.5 303.5 L 912.5 303.5 M 0.5 315.5 L 912.5 315.5 M 0.5 327.5 L 912.5 327.5 M 0.5 340.5 L 912.5 340.5 M 0.5 365.5 L 912.5 365.5 M 0.5 377.5 L 912.5 377.5 M 0.5 389.5 L 912.5 389.5 M 0.5 402.5 L 912.5 402.5 M 0.5 426.5 L 912.5 426.5 M 0.5 439.5 L 912.5 439.5 M 0.5 451.5 L 912.5 451.5 M 0.5 463.5 L 912.5 463.5 M 0.5 488.5 L 912.5 488.5 M 0.5 500.5 L 912.5 500.5 M 0.5 513.5 L 912.5 513.5 M 0.5 525.5 L 912.5 525.5 M 0.5 550.5 L 912.5 550.5 M 0.5 562.5 L 912.5 562.5 M 0.5 575.5 L 912.5 575.5 M 0.5 587.5 L 912.5 587.5 M 0.5 612.5 L 912.5 612.5 M 0.5 624.5 L 912.5 624.5 M 0.5 636.5 L 912.5 636.5 M 0.5 649.5 L 912.5 649.5 M 0.5 673.5 L 912.5 673.5 M 0.5 686.5 L 912.5 686.5 M 0.5 698.5 L 912.5 698.5" stroke-opacity="0.23529411764705882" stroke-linecap="round" stroke-linejoin="round" stroke-miterlimit="10"/><path fill="none" stroke="rgb(0,0,0)" paint-order="fill stroke markers" d=" M 364.5 2.5 L 364.5 700.5" stroke-opacity="1" stroke-miterlimit="10"/><path fill="none" stroke="rgb(0,0,0)" paint-order="fill stroke markers" d=" M 364.5 1.5 L 360.5 5.5" stroke-opacity="1" stroke-miterlimit="10"/><path fill="none" stroke="rgb(0,0,0)" paint-order="fill stroke markers" d=" M 364.5 1.5 L 368.5 5.5" stroke-opacity="1" stroke-miterlimit="10"/><path fill="none" stroke="rgb(0,0,0)" paint-order="fill stroke markers" d=" M 0.5 290.5 L 910.5 290.5" stroke-opacity="1" stroke-miterlimit="10"/><path fill="none" stroke="rgb(0,0,0)" paint-order="fill stroke markers" d=" M 911.5 290.5 L 907.5 286.5" stroke-opacity="1" stroke-miterlimit="10"/><path fill="none" stroke="rgb(0,0,0)" paint-order="fill stroke markers" d=" M 911.5 290.5 L 907.5 294.5" stroke-opacity="1" stroke-miterlimit="10"/><text fill="rgb(0,0,0)" stroke="none" font-family="geogebra-sans-serif, sans-serif" font-size="12px" font-style="normal" font-weight="normal" text-decoration="normal" x="50" y="306" text-anchor="start" dominant-baseline="alphabetic" fill-opacity="1">–5</text><text fill="none" stroke="rgb(255,255,255)" font-family="geogebra-sans-serif, sans-serif" font-size="12px" font-style="normal" font-weight="normal" text-decoration="normal" x="50" y="306" text-anchor="start" dominant-baseline="alphabetic" stroke-opacity="1" stroke-linejoin="bevel" stroke-miterlimit="10" stroke-width="3">–5</text><text fill="rgb(0,0,0)" stroke="none" font-family="geogebra-sans-serif, sans-serif" font-size="12px" font-style="normal" font-weight="normal" text-decoration="normal" x="50" y="306" text-anchor="start" dominant-baseline="alphabetic" fill-opacity="1">–5</text><text fill="rgb(0,0,0)" stroke="none" font-family="geogebra-sans-serif, sans-serif" font-size="12px" font-style="normal" font-weight="normal" text-decoration="normal" x="112" y="306" text-anchor="start" dominant-baseline="alphabetic" fill-opacity="1">–4</text><text fill="none" stroke="rgb(255,255,255)" font-family="geogebra-sans-serif, sans-serif" font-size="12px" font-style="normal" font-weight="normal" text-decoration="normal" x="112" y="306" text-anchor="start" dominant-baseline="alphabetic" stroke-opacity="1" stroke-linejoin="bevel" stroke-miterlimit="10" stroke-width="3">–4</text><text fill="rgb(0,0,0)" stroke="none" font-family="geogebra-sans-serif, sans-serif" font-size="12px" font-style="normal" font-weight="normal" text-decoration="normal" x="112" y="306" text-anchor="start" dominant-baseline="alphabetic" fill-opacity="1">–4</text><text fill="rgb(0,0,0)" stroke="none" font-family="geogebra-sans-serif, sans-serif" font-size="12px" font-style="normal" font-weight="normal" text-decoration="normal" x="174" y="306" text-anchor="start" dominant-baseline="alphabetic" fill-opacity="1">–3</text><text fill="none" stroke="rgb(255,255,255)" font-family="geogebra-sans-serif, sans-serif" font-size="12px" font-style="normal" font-weight="normal" text-decoration="normal" x="174" y="306" text-anchor="start" dominant-baseline="alphabetic" stroke-opacity="1" stroke-linejoin="bevel" stroke-miterlimit="10" stroke-width="3">–3</text><text fill="rgb(0,0,0)" stroke="none" font-family="geogebra-sans-serif, sans-serif" font-size="12px" font-style="normal" font-weight="normal" text-decoration="normal" x="174" y="306" text-anchor="start" dominant-baseline="alphabetic" fill-opacity="1">–3</text><text fill="rgb(0,0,0)" stroke="none" font-family="geogebra-sans-serif, sans-serif" font-size="12px" font-style="normal" font-weight="normal" text-decoration="normal" x="235" y="306" text-anchor="start" dominant-baseline="alphabetic" fill-opacity="1">–2</text><text fill="none" stroke="rgb(255,255,255)" font-family="geogebra-sans-serif, sans-serif" font-size="12px" font-style="normal" font-weight="normal" text-decoration="normal" x="235" y="306" text-anchor="start" dominant-baseline="alphabetic" stroke-opacity="1" stroke-linejoin="bevel" stroke-miterlimit="10" stroke-width="3">–2</text><text fill="rgb(0,0,0)" stroke="none" font-family="geogebra-sans-serif, sans-serif" font-size="12px" font-style="normal" font-weight="normal" text-decoration="normal" x="235" y="306" text-anchor="start" dominant-baseline="alphabetic" fill-opacity="1">–2</text><text fill="rgb(0,0,0)" stroke="none" font-family="geogebra-sans-serif, sans-serif" font-size="12px" font-style="normal" font-weight="normal" text-decoration="normal" x="297" y="306" text-anchor="start" dominant-baseline="alphabetic" fill-opacity="1">–1</text><text fill="none" stroke="rgb(255,255,255)" font-family="geogebra-sans-serif, sans-serif" font-size="12px" font-style="normal" font-weight="normal" text-decoration="normal" x="297" y="306" text-anchor="start" dominant-baseline="alphabetic" stroke-opacity="1" stroke-linejoin="bevel" stroke-miterlimit="10" stroke-width="3">–1</text><text fill="rgb(0,0,0)" stroke="none" font-family="geogebra-sans-serif, sans-serif" font-size="12px" font-style="normal" font-weight="normal" text-decoration="normal" x="297" y="306" text-anchor="start" dominant-baseline="alphabetic" fill-opacity="1">–1</text><text fill="rgb(0,0,0)" stroke="none" font-family="geogebra-sans-serif, sans-serif" font-size="12px" font-style="normal" font-weight="normal" text-decoration="normal" x="424" y="306" text-anchor="start" dominant-baseline="alphabetic" fill-opacity="1">1</text><text fill="none" stroke="rgb(255,255,255)" font-family="geogebra-sans-serif, sans-serif" font-size="12px" font-style="normal" font-weight="normal" text-decoration="normal" x="424" y="306" text-anchor="start" dominant-baseline="alphabetic" stroke-opacity="1" stroke-linejoin="bevel" stroke-miterlimit="10" stroke-width="3">1</text><text fill="rgb(0,0,0)" stroke="none" font-family="geogebra-sans-serif, sans-serif" font-size="12px" font-style="normal" font-weight="normal" text-decoration="normal" x="424" y="306" text-anchor="start" dominant-baseline="alphabetic" fill-opacity="1">1</text><text fill="rgb(0,0,0)" stroke="none" font-family="geogebra-sans-serif, sans-serif" font-size="12px" font-style="normal" font-weight="normal" text-decoration="normal" x="486" y="306" text-anchor="start" dominant-baseline="alphabetic" fill-opacity="1">2</text><text fill="none" stroke="rgb(255,255,255)" font-family="geogebra-sans-serif, sans-serif" font-size="12px" font-style="normal" font-weight="normal" text-decoration="normal" x="486" y="306" text-anchor="start" dominant-baseline="alphabetic" stroke-opacity="1" stroke-linejoin="bevel" stroke-miterlimit="10" stroke-width="3">2</text><text fill="rgb(0,0,0)" stroke="none" font-family="geogebra-sans-serif, sans-serif" font-size="12px" font-style="normal" font-weight="normal" text-decoration="normal" x="486" y="306" text-anchor="start" dominant-baseline="alphabetic" fill-opacity="1">2</text><text fill="rgb(0,0,0)" stroke="none" font-family="geogebra-sans-serif, sans-serif" font-size="12px" font-style="normal" font-weight="normal" text-decoration="normal" x="547" y="306" text-anchor="start" dominant-baseline="alphabetic" fill-opacity="1">3</text><text fill="none" stroke="rgb(255,255,255)" font-family="geogebra-sans-serif, sans-serif" font-size="12px" font-style="normal" font-weight="normal" text-decoration="normal" x="547" y="306" text-anchor="start" dominant-baseline="alphabetic" stroke-opacity="1" stroke-linejoin="bevel" stroke-miterlimit="10" stroke-width="3">3</text><text fill="rgb(0,0,0)" stroke="none" font-family="geogebra-sans-serif, sans-serif" font-size="12px" font-style="normal" font-weight="normal" text-decoration="normal" x="547" y="306" text-anchor="start" dominant-baseline="alphabetic" fill-opacity="1">3</text><text fill="rgb(0,0,0)" stroke="none" font-family="geogebra-sans-serif, sans-serif" font-size="12px" font-style="normal" font-weight="normal" text-decoration="normal" x="609" y="306" text-anchor="start" dominant-baseline="alphabetic" fill-opacity="1">4</text><text fill="none" stroke="rgb(255,255,255)" font-family="geogebra-sans-serif, sans-serif" font-size="12px" font-style="normal" font-weight="normal" text-decoration="normal" x="609" y="306" text-anchor="start" dominant-baseline="alphabetic" stroke-opacity="1" stroke-linejoin="bevel" stroke-miterlimit="10" stroke-width="3">4</text><text fill="rgb(0,0,0)" stroke="none" font-family="geogebra-sans-serif, sans-serif" font-size="12px" font-style="normal" font-weight="normal" text-decoration="normal" x="609" y="306" text-anchor="start" dominant-baseline="alphabetic" fill-opacity="1">4</text><text fill="rgb(0,0,0)" stroke="none" font-family="geogebra-sans-serif, sans-serif" font-size="12px" font-style="normal" font-weight="normal" text-decoration="normal" x="671" y="306" text-anchor="start" dominant-baseline="alphabetic" fill-opacity="1">5</text><text fill="none" stroke="rgb(255,255,255)" font-family="geogebra-sans-serif, sans-serif" font-size="12px" font-style="normal" font-weight="normal" text-decoration="normal" x="671" y="306" text-anchor="start" dominant-baseline="alphabetic" stroke-opacity="1" stroke-linejoin="bevel" stroke-miterlimit="10" stroke-width="3">5</text><text fill="rgb(0,0,0)" stroke="none" font-family="geogebra-sans-serif, sans-serif" font-size="12px" font-style="normal" font-weight="normal" text-decoration="normal" x="671" y="306" text-anchor="start" dominant-baseline="alphabetic" fill-opacity="1">5</text><text fill="rgb(0,0,0)" stroke="none" font-family="geogebra-sans-serif, sans-serif" font-size="12px" font-style="normal" font-weight="normal" text-decoration="normal" x="733" y="306" text-anchor="start" dominant-baseline="alphabetic" fill-opacity="1">6</text><text fill="none" stroke="rgb(255,255,255)" font-family="geogebra-sans-serif, sans-serif" font-size="12px" font-style="normal" font-weight="normal" text-decoration="normal" x="733" y="306" text-anchor="start" dominant-baseline="alphabetic" stroke-opacity="1" stroke-linejoin="bevel" stroke-miterlimit="10" stroke-width="3">6</text><text fill="rgb(0,0,0)" stroke="none" font-family="geogebra-sans-serif, sans-serif" font-size="12px" font-style="normal" font-weight="normal" text-decoration="normal" x="733" y="306" text-anchor="start" dominant-baseline="alphabetic" fill-opacity="1">6</text><text fill="rgb(0,0,0)" stroke="none" font-family="geogebra-sans-serif, sans-serif" font-size="12px" font-style="normal" font-weight="normal" text-decoration="normal" x="794" y="306" text-anchor="start" dominant-baseline="alphabetic" fill-opacity="1">7</text><text fill="none" stroke="rgb(255,255,255)" font-family="geogebra-sans-serif, sans-serif" font-size="12px" font-style="normal" font-weight="normal" text-decoration="normal" x="794" y="306" text-anchor="start" dominant-baseline="alphabetic" stroke-opacity="1" stroke-linejoin="bevel" stroke-miterlimit="10" stroke-width="3">7</text><text fill="rgb(0,0,0)" stroke="none" font-family="geogebra-sans-serif, sans-serif" font-size="12px" font-style="normal" font-weight="normal" text-decoration="normal" x="794" y="306" text-anchor="start" dominant-baseline="alphabetic" fill-opacity="1">7</text><text fill="rgb(0,0,0)" stroke="none" font-family="geogebra-sans-serif, sans-serif" font-size="12px" font-style="normal" font-weight="normal" text-decoration="normal" x="856" y="306" text-anchor="start" dominant-baseline="alphabetic" fill-opacity="1">8</text><text fill="none" stroke="rgb(255,255,255)" font-family="geogebra-sans-serif, sans-serif" font-size="12px" font-style="normal" font-weight="normal" text-decoration="normal" x="856" y="306" text-anchor="start" dominant-baseline="alphabetic" stroke-opacity="1" stroke-linejoin="bevel" stroke-miterlimit="10" stroke-width="3">8</text><text fill="rgb(0,0,0)" stroke="none" font-family="geogebra-sans-serif, sans-serif" font-size="12px" font-style="normal" font-weight="normal" text-decoration="normal" x="856" y="306" text-anchor="start" dominant-baseline="alphabetic" fill-opacity="1">8</text><text fill="rgb(0,0,0)" stroke="none" font-family="geogebra-sans-serif, sans-serif" font-size="12px" font-style="normal" font-weight="normal" text-decoration="normal" x="344" y="666" text-anchor="start" dominant-baseline="alphabetic" fill-opacity="1">–6</text><text fill="none" stroke="rgb(255,255,255)" font-family="geogebra-sans-serif, sans-serif" font-size="12px" font-style="normal" font-weight="normal" text-decoration="normal" x="344" y="666" text-anchor="start" dominant-baseline="alphabetic" stroke-opacity="1" stroke-linejoin="bevel" stroke-miterlimit="10" stroke-width="3">–6</text><text fill="rgb(0,0,0)" stroke="none" font-family="geogebra-sans-serif, sans-serif" font-size="12px" font-style="normal" font-weight="normal" text-decoration="normal" x="344" y="666" text-anchor="start" dominant-baseline="alphabetic" fill-opacity="1">–6</text><text fill="rgb(0,0,0)" stroke="none" font-family="geogebra-sans-serif, sans-serif" font-size="12px" font-style="normal" font-weight="normal" text-decoration="normal" x="344" y="604" text-anchor="start" dominant-baseline="alphabetic" fill-opacity="1">–5</text><text fill="none" stroke="rgb(255,255,255)" font-family="geogebra-sans-serif, sans-serif" font-size="12px" font-style="normal" font-weight="normal" text-decoration="normal" x="344" y="604" text-anchor="start" dominant-baseline="alphabetic" stroke-opacity="1" stroke-linejoin="bevel" stroke-miterlimit="10" stroke-width="3">–5</text><text fill="rgb(0,0,0)" stroke="none" font-family="geogebra-sans-serif, sans-serif" font-size="12px" font-style="normal" font-weight="normal" text-decoration="normal" x="344" y="604" text-anchor="start" dominant-baseline="alphabetic" fill-opacity="1">–5</text><text fill="rgb(0,0,0)" stroke="none" font-family="geogebra-sans-serif, sans-serif" font-size="12px" font-style="normal" font-weight="normal" text-decoration="normal" x="344" y="543" text-anchor="start" dominant-baseline="alphabetic" fill-opacity="1">–4</text><text fill="none" stroke="rgb(255,255,255)" font-family="geogebra-sans-serif, sans-serif" font-size="12px" font-style="normal" font-weight="normal" text-decoration="normal" x="344" y="543" text-anchor="start" dominant-baseline="alphabetic" stroke-opacity="1" stroke-linejoin="bevel" stroke-miterlimit="10" stroke-width="3">–4</text><text fill="rgb(0,0,0)" stroke="none" font-family="geogebra-sans-serif, sans-serif" font-size="12px" font-style="normal" font-weight="normal" text-decoration="normal" x="344" y="543" text-anchor="start" dominant-baseline="alphabetic" fill-opacity="1">–4</text><text fill="rgb(0,0,0)" stroke="none" font-family="geogebra-sans-serif, sans-serif" font-size="12px" font-style="normal" font-weight="normal" text-decoration="normal" x="344" y="481" text-anchor="start" dominant-baseline="alphabetic" fill-opacity="1">–3</text><text fill="none" stroke="rgb(255,255,255)" font-family="geogebra-sans-serif, sans-serif" font-size="12px" font-style="normal" font-weight="normal" text-decoration="normal" x="344" y="481" text-anchor="start" dominant-baseline="alphabetic" stroke-opacity="1" stroke-linejoin="bevel" stroke-miterlimit="10" stroke-width="3">–3</text><text fill="rgb(0,0,0)" stroke="none" font-family="geogebra-sans-serif, sans-serif" font-size="12px" font-style="normal" font-weight="normal" text-decoration="normal" x="344" y="481" text-anchor="start" dominant-baseline="alphabetic" fill-opacity="1">–3</text><text fill="rgb(0,0,0)" stroke="none" font-family="geogebra-sans-serif, sans-serif" font-size="12px" font-style="normal" font-weight="normal" text-decoration="normal" x="344" y="419" text-anchor="start" dominant-baseline="alphabetic" fill-opacity="1">–2</text><text fill="none" stroke="rgb(255,255,255)" font-family="geogebra-sans-serif, sans-serif" font-size="12px" font-style="normal" font-weight="normal" text-decoration="normal" x="344" y="419" text-anchor="start" dominant-baseline="alphabetic" stroke-opacity="1" stroke-linejoin="bevel" stroke-miterlimit="10" stroke-width="3">–2</text><text fill="rgb(0,0,0)" stroke="none" font-family="geogebra-sans-serif, sans-serif" font-size="12px" font-style="normal" font-weight="normal" text-decoration="normal" x="344" y="419" text-anchor="start" dominant-baseline="alphabetic" fill-opacity="1">–2</text><text fill="rgb(0,0,0)" stroke="none" font-family="geogebra-sans-serif, sans-serif" font-size="12px" font-style="normal" font-weight="normal" text-decoration="normal" x="344" y="357" text-anchor="start" dominant-baseline="alphabetic" fill-opacity="1">–1</text><text fill="none" stroke="rgb(255,255,255)" font-family="geogebra-sans-serif, sans-serif" font-size="12px" font-style="normal" font-weight="normal" text-decoration="normal" x="344" y="357" text-anchor="start" dominant-baseline="alphabetic" stroke-opacity="1" stroke-linejoin="bevel" stroke-miterlimit="10" stroke-width="3">–1</text><text fill="rgb(0,0,0)" stroke="none" font-family="geogebra-sans-serif, sans-serif" font-size="12px" font-style="normal" font-weight="normal" text-decoration="normal" x="344" y="357" text-anchor="start" dominant-baseline="alphabetic" fill-opacity="1">–1</text><text fill="rgb(0,0,0)" stroke="none" font-family="geogebra-sans-serif, sans-serif" font-size="12px" font-style="normal" font-weight="normal" text-decoration="normal" x="350" y="234" text-anchor="start" dominant-baseline="alphabetic" fill-opacity="1">1</text><text fill="none" stroke="rgb(255,255,255)" font-family="geogebra-sans-serif, sans-serif" font-size="12px" font-style="normal" font-weight="normal" text-decoration="normal" x="350" y="234" text-anchor="start" dominant-baseline="alphabetic" stroke-opacity="1" stroke-linejoin="bevel" stroke-miterlimit="10" stroke-width="3">1</text><text fill="rgb(0,0,0)" stroke="none" font-family="geogebra-sans-serif, sans-serif" font-size="12px" font-style="normal" font-weight="normal" text-decoration="normal" x="350" y="234" text-anchor="start" dominant-baseline="alphabetic" fill-opacity="1">1</text><text fill="rgb(0,0,0)" stroke="none" font-family="geogebra-sans-serif, sans-serif" font-size="12px" font-style="normal" font-weight="normal" text-decoration="normal" x="350" y="172" text-anchor="start" dominant-baseline="alphabetic" fill-opacity="1">2</text><text fill="none" stroke="rgb(255,255,255)" font-family="geogebra-sans-serif, sans-serif" font-size="12px" font-style="normal" font-weight="normal" text-decoration="normal" x="350" y="172" text-anchor="start" dominant-baseline="alphabetic" stroke-opacity="1" stroke-linejoin="bevel" stroke-miterlimit="10" stroke-width="3">2</text><text fill="rgb(0,0,0)" stroke="none" font-family="geogebra-sans-serif, sans-serif" font-size="12px" font-style="normal" font-weight="normal" text-decoration="normal" x="350" y="172" text-anchor="start" dominant-baseline="alphabetic" fill-opacity="1">2</text><text fill="rgb(0,0,0)" stroke="none" font-family="geogebra-sans-serif, sans-serif" font-size="12px" font-style="normal" font-weight="normal" text-decoration="normal" x="350" y="110" text-anchor="start" dominant-baseline="alphabetic" fill-opacity="1">3</text><text fill="none" stroke="rgb(255,255,255)" font-family="geogebra-sans-serif, sans-serif" font-size="12px" font-style="normal" font-weight="normal" text-decoration="normal" x="350" y="110" text-anchor="start" dominant-baseline="alphabetic" stroke-opacity="1" stroke-linejoin="bevel" stroke-miterlimit="10" stroke-width="3">3</text><text fill="rgb(0,0,0)" stroke="none" font-family="geogebra-sans-serif, sans-serif" font-size="12px" font-style="normal" font-weight="normal" text-decoration="normal" x="350" y="110" text-anchor="start" dominant-baseline="alphabetic" fill-opacity="1">3</text><text fill="rgb(0,0,0)" stroke="none" font-family="geogebra-sans-serif, sans-serif" font-size="12px" font-style="normal" font-weight="normal" text-decoration="normal" x="350" y="48" text-anchor="start" dominant-baseline="alphabetic" fill-opacity="1">4</text><text fill="none" stroke="rgb(255,255,255)" font-family="geogebra-sans-serif, sans-serif" font-size="12px" font-style="normal" font-weight="normal" text-decoration="normal" x="350" y="48" text-anchor="start" dominant-baseline="alphabetic" stroke-opacity="1" stroke-linejoin="bevel" stroke-miterlimit="10" stroke-width="3">4</text><text fill="rgb(0,0,0)" stroke="none" font-family="geogebra-sans-serif, sans-serif" font-size="12px" font-style="normal" font-weight="normal" text-decoration="normal" x="350" y="48" text-anchor="start" dominant-baseline="alphabetic" fill-opacity="1">4</text><text fill="rgb(0,0,0)" stroke="none" font-family="geogebra-sans-serif, sans-serif" font-size="12px" font-style="normal" font-weight="normal" text-decoration="normal" x="350" y="306" text-anchor="start" dominant-baseline="alphabetic" fill-opacity="1">0</text><text fill="none" stroke="rgb(255,255,255)" font-family="geogebra-sans-serif, sans-serif" font-size="12px" font-style="normal" font-weight="normal" text-decoration="normal" x="350" y="306" text-anchor="start" dominant-baseline="alphabetic" stroke-opacity="1" stroke-linejoin="bevel" stroke-miterlimit="10" stroke-width="3">0</text><text fill="rgb(0,0,0)" stroke="none" font-family="geogebra-sans-serif, sans-serif" font-size="12px" font-style="normal" font-weight="normal" text-decoration="normal" x="350" y="306" text-anchor="start" dominant-baseline="alphabetic" fill-opacity="1">0</text><path fill="none" stroke="rgb(153,51,255)" paint-order="fill stroke markers" d=" M 240.855209224254 167.3348871461569 L 242.25 165.95583931854392 M 242.25 165.95583931854392 L 245.8125 162.57646074806075 L 249.375 159.4024857808781 L 252.9375 156.433914416996 L 256.5 153.67074665641445 M 256.5 153.67074665641445 L 260.0625 151.11298249913347 L 263.625 148.76062194515302 L 267.1875 146.61366499447314 L 270.75 144.67211164709377 L 274.3125 142.93596190301497 L 277.875 141.40521576223676 L 281.4375 140.07987322475907 L 285 138.95993429058194 M 285 138.95993429058194 L 288.5625 138.04539895970535 L 292.125 137.33626723212927 L 295.6875 136.8325391078538 L 299.25 136.53421458687885 L 302.8125 136.44129366920447 L 306.375 136.5537763548306 L 309.9375 136.87166264375733 L 313.5 137.3949525359846 L 317.0625 138.12364603151238 L 320.625 139.05774313034075 L 324.1875 140.19724383246964 L 327.75 141.5421481378991 L 331.3125 143.09245604662914 L 334.875 144.84816755865967 L 338.4375 146.8092826739908 L 342 148.97580139262243 M 342 148.97580139262243 L 345.5625 151.34772371455463 L 349.125 153.9250496397874 L 352.6875 156.7077791683207 L 356.25 159.69591230015456 L 359.8125 162.88944903528898 L 363.375 166.28838937372393 L 366.9375 169.79101420442527 L 370.5 173.10626665938923 L 374.0625 176.21611551105264 L 377.625 179.12056075941547 L 381.1875 181.81960240447776 L 384.75 184.31324044623952 L 388.3125 186.60147488470074 L 391.875 188.68430571986136 L 395.4375 190.56173295172147 L 399 192.233756580281 L 402.5625 193.70037660554004 L 406.125 194.96159302749848 L 409.6875 196.01740584615638 L 413.25 196.86781506151374 L 416.8125 197.51282067357053 L 420.375 197.95242268232678 L 423.9375 198.1866210877825 L 427.5 198.21541588993762 L 431.0625 198.03880708879225 L 434.625 197.6567946843463 L 438.1875 197.0693786765998 L 441.75 196.27655906555276 L 445.3125 195.27833585120516 L 448.875 194.07470903355699 L 452.4375 192.6656786126083 L 456 191.05124458835905 M 456 191.05124458835905 L 459.5625 189.23140696080927 L 463.125 187.2061657299589 L 466.6875 184.97552089580802 L 470.25 182.53947245835656 L 473.8125 179.89802041760458 L 477.375 177.05116477355205 L 480.9375 173.99890552619894 L 484.5 170.74124267554527 M 484.5 170.74124267554527 L 488.00581631242216 167.33488591040393" stroke-opacity="0.6980392156862745" stroke-linecap="round" stroke-linejoin="round" stroke-miterlimit="10" stroke-width="2.5"/><g transform="scale(19,19)"><g transform="translate(13.473684210526315,8.99912147368421)"><path fill="rgb(153,51,255)" stroke="none" paint-order="stroke fill markers" d=" M 0.303 -0.325 L 0.241 -0.076 Q 0.23700000000000002 -0.061 0.23700000000000002 -0.053 Q 0.23700000000000002 -0.039 0.25 -0.036000000000000004 Q 0.257 -0.034 0.269 -0.033 Q 0.294 -0.031 0.321 -0.031 Q 0.34600000000000003 -0.031 0.34900000000000003 -0.03 L 0.354 -0.023 Q 0.355 -0.021 0.355 -0.019 Q 0.355 0 0.334 0 L 0.186 -0.003 L 0.185 -0.003 L 0.054 0 L 0.053 0 Q 0.038 0 0.038 -0.012 Q 0.038 -0.029 0.054 -0.031 L 0.066 -0.031 Q 0.131 -0.031 0.14400000000000002 -0.045 Q 0.15 -0.052000000000000005 0.156 -0.073 Q 0.156 -0.074 0.157 -0.078 L 0.289 -0.607 Q 0.294 -0.625 0.294 -0.631 Q 0.294 -0.648 0.248 -0.649 L 0.247 -0.649 L 0.229 -0.649 Q 0.203 -0.649 0.201 -0.66 Q 0.201 -0.678 0.217 -0.68 L 0.231 -0.68 L 0.721 -0.68 Q 0.745 -0.68 0.747 -0.673 L 0.748 -0.673 Q 0.75 -0.667 0.748 -0.653 L 0.728 -0.48 Q 0.721 -0.457 0.714 -0.455 Q 0.7020000000000001 -0.455 0.7020000000000001 -0.467 Q 0.7020000000000001 -0.47200000000000003 0.704 -0.485 Q 0.707 -0.512 0.707 -0.539 Q 0.707 -0.606 0.673 -0.628 L 0.672 -0.629 Q 0.64 -0.649 0.561 -0.649 L 0.429 -0.649 Q 0.392 -0.649 0.385 -0.638 L 0.384 -0.638 L 0.384 -0.637 Q 0.381 -0.633 0.379 -0.625 L 0.379 -0.624 L 0.378 -0.623 Q 0.377 -0.619 0.375 -0.61 L 0.311 -0.356 L 0.402 -0.356 Q 0.47500000000000003 -0.356 0.5 -0.383 L 0.501 -0.384 Q 0.518 -0.403 0.531 -0.452 Q 0.536 -0.47100000000000003 0.546 -0.47300000000000003 Q 0.557 -0.47300000000000003 0.558 -0.462 Q 0.558 -0.457 0.555 -0.446 L 0.5 -0.229 Q 0.49 -0.209 0.485 -0.20800000000000002 Q 0.47300000000000003 -0.20800000000000002 0.47300000000000003 -0.22 Q 0.47300000000000003 -0.224 0.47600000000000003 -0.231 Q 0.483 -0.261 0.483 -0.28 Q 0.483 -0.309 0.461 -0.318 L 0.461 -0.318 Q 0.442 -0.325 0.4 -0.325 L 0.303 -0.325 Z"/></g></g><path fill="none" stroke="rgb(0,153,0)" paint-order="fill stroke markers" d=" M 240.855209224254 290.91019007236457 L 242.25 289.5311422447516 M 242.25 289.5311422447516 L 245.8125 286.1517636742684 L 249.375 282.9777887070858 L 252.9375 280.00921734320366 L 256.5 277.24604958262216 M 256.5 277.24604958262216 L 260.0625 274.6882854253412 L 263.625 272.3359248713607 L 267.1875 270.1889679206808 L 270.75 268.24741457330146 L 274.3125 266.5112648292227 L 277.875 264.9805186884444 L 281.4375 263.6551761509667 L 285 262.5352372167896 M 285 262.5352372167896 L 288.5625 261.62070188591304 L 292.125 260.911570158337 L 295.6875 260.40784203406145 L 299.25 260.10951751308653 L 302.8125 260.0165965954121 L 306.375 260.1290792810383 L 309.9375 260.446965569965 L 313.5 260.97025546219226 L 317.0625 261.69894895772006 L 320.625 262.63304605654844 L 324.1875 263.7725467586773 L 327.75 265.1174510641068 L 331.3125 266.6677589728368 L 334.875 268.4234704848674 L 338.4375 270.3845856001985 L 342 272.55110431883014 M 342 272.55110431883014 L 345.5625 274.9230266407623 L 349.125 277.50035256599506 L 352.6875 280.28308209452837 L 356.25 283.27121522636224 L 359.8125 286.46475196149663 L 363.375 289.86369229993164 L 366.9375 293.3663171306329 L 370.5 296.6815695855969 L 374.0625 299.7914184372603 L 377.625 302.6958636856231 L 381.1875 305.39490533068545 L 384.75 307.8885433724472 L 388.3125 310.1767778109084 L 391.875 312.25960864606907 L 395.4375 314.1370358779292 L 399 315.8090595064887 L 402.5625 317.2756795317477 L 406.125 318.53689595370616 L 409.6875 319.59270877236406 L 413.25 320.4431179877214 L 416.8125 321.0881235997782 L 420.375 321.52772560853447 L 423.9375 321.76192401399015 L 427.5 321.79071881614533 L 431.0625 321.61411001499994 L 434.625 321.232097610554 L 438.1875 320.6446816028075 L 441.75 319.8518619917604 L 445.3125 318.8536387774128 L 448.875 317.6500119597647 L 452.4375 316.240981538816 L 456 314.62654751456677 M 456 314.62654751456677 L 459.5625 312.80670988701695 L 463.125 310.7814686561666 L 466.6875 308.55082382201573 L 470.25 306.11477538456427 L 473.8125 303.47332334381224 L 477.375 300.6264676997597 L 480.9375 297.5742084524066 L 484.5 294.316545601753 M 484.5 294.316545601753 L 488.00581631242216 290.9101888366116" stroke-opacity="0.6980392156862745" stroke-linecap="round" stroke-linejoin="round" stroke-miterlimit="10" stroke-width="2.5"/><g transform="scale(19,19)"><g transform="translate(13.421052631578947,13.735963578947368)"><path fill="rgb(0,153,0)" stroke="none" paint-order="stroke fill markers" d=" M 0.763 -0.606 L 0.628 -0.066 L 0.625 -0.049 Q 0.625 -0.032 0.672 -0.031 L 0.673 -0.031 L 0.6900000000000001 -0.031 Q 0.716 -0.031 0.718 -0.02 Q 0.718 0 0.6980000000000001 0 L 0.634 -0.002 L 0.633 -0.002 L 0.5710000000000001 -0.003 L 0.5690000000000001 -0.003 L 0.443 0 L 0.442 0 Q 0.428 0 0.428 -0.011 Q 0.428 -0.029 0.442 -0.031 L 0.442 -0.031 L 0.442 -0.031 L 0.452 -0.031 Q 0.515 -0.031 0.529 -0.041 L 0.53 -0.042 Q 0.538 -0.049 0.543 -0.064 L 0.612 -0.34 L 0.307 -0.34 L 0.23900000000000002 -0.066 L 0.23600000000000002 -0.049 Q 0.23600000000000002 -0.032 0.28200000000000003 -0.031 L 0.28200000000000003 -0.031 L 0.28200000000000003 -0.031 L 0.301 -0.031 Q 0.327 -0.031 0.329 -0.02 Q 0.329 0 0.309 0 L 0.245 -0.002 L 0.244 -0.002 L 0.182 -0.003 L 0.18 -0.003 L 0.054 0 L 0.053 0 Q 0.039 0 0.039 -0.011 Q 0.039 -0.029 0.054 -0.031 L 0.066 -0.031 Q 0.131 -0.031 0.14400000000000002 -0.045 Q 0.15 -0.052000000000000005 0.156 -0.073 Q 0.156 -0.074 0.157 -0.078 L 0.291 -0.615 Q 0.295 -0.631 0.295 -0.634 Q 0.295 -0.646 0.279 -0.649 L 0.278 -0.649 L 0.277 -0.649 Q 0.274 -0.649 0.268 -0.65 Q 0.251 -0.652 0.23 -0.652 Q 0.20400000000000001 -0.652 0.202 -0.663 Q 0.202 -0.683 0.221 -0.683 L 0.34900000000000003 -0.68 L 0.35000000000000003 -0.68 L 0.47700000000000004 -0.683 L 0.47800000000000004 -0.683 Q 0.492 -0.683 0.492 -0.672 Q 0.492 -0.655 0.47800000000000004 -0.653 L 0.47700000000000004 -0.653 L 0.47700000000000004 -0.653 L 0.47700000000000004 -0.653 L 0.47600000000000003 -0.652 L 0.458 -0.652 Q 0.397 -0.652 0.385 -0.635 L 0.384 -0.635 L 0.384 -0.634 Q 0.379 -0.627 0.374 -0.606 L 0.315 -0.371 L 0.62 -0.371 L 0.68 -0.615 Q 0.684 -0.632 0.684 -0.634 Q 0.684 -0.646 0.668 -0.649 Q 0.665 -0.649 0.657 -0.65 Q 0.64 -0.652 0.619 -0.652 Q 0.593 -0.652 0.591 -0.663 Q 0.591 -0.683 0.61 -0.683 L 0.738 -0.68 L 0.739 -0.68 L 0.866 -0.683 L 0.867 -0.683 Q 0.881 -0.683 0.881 -0.672 Q 0.881 -0.655 0.867 -0.653 L 0.866 -0.653 Q 0.861 -0.652 0.847 -0.652 Q 0.786 -0.652 0.774 -0.636 Q 0.769 -0.629 0.763 -0.606 Z"/></g></g><path fill="none" stroke="rgb(0,0,255)" paint-order="fill stroke markers" d=" M 240.855209224254 321.8040158039165 L 242.25 320.42496797630355 M 242.25 320.42496797630355 L 245.8125 317.04558940582035 L 249.375 313.8716144386377 L 252.9375 310.9030430747556 L 256.5 308.13987531417405 M 256.5 308.13987531417405 L 260.0625 305.58211115689306 L 263.625 303.22975060291265 L 267.1875 301.08279365223274 L 270.75 299.1412403048534 L 274.3125 297.4050905607746 L 277.875 295.87434441999636 L 281.4375 294.54900188251867 L 285 293.42906294834154 M 285 293.42906294834154 L 288.5625 292.5145276174649 L 292.125 291.80539588988887 L 295.6875 291.3016677656134 L 299.25 291.0033432446385 L 302.8125 290.91042232696407 L 306.375 291.02290501259023 L 309.9375 291.3407913015169 L 313.5 291.8640811937442 L 317.0625 292.592774689272 L 320.625 293.5268717881004 L 324.1875 294.66637249022926 L 327.75 296.0112767956587 L 331.3125 297.56158470438874 L 334.875 299.31729621641927 L 338.4375 301.27841133175036 L 342 303.444930050382 M 342 303.444930050382 L 345.5625 305.81685237231426 L 349.125 308.394178297547 L 352.6875 311.1769078260803 L 356.25 314.1650409579142 L 359.8125 317.3585776930486 L 363.375 320.7575180314835 L 366.9375 324.26014286218486 L 370.5 327.57539531714883 L 374.0625 330.68524416881223 L 377.625 333.58968941717507 L 381.1875 336.2887310622374 L 384.75 338.78236910399914 L 388.3125 341.07060354246033 L 391.875 343.15343437762095 L 395.4375 345.03086160948106 L 399 346.7028852380406 L 402.5625 348.16950526329964 L 406.125 349.43072168525805 L 409.6875 350.486534503916 L 413.25 351.33694371927334 L 416.8125 351.98194933133016 L 420.375 352.4215513400864 L 423.9375 352.6557497455421 L 427.5 352.6845445476972 L 431.0625 352.5079357465518 L 434.625 352.1259233421059 L 438.1875 351.5385073343594 L 441.75 350.74568772331236 L 445.3125 349.74746450896475 L 448.875 348.5438376913166 L 452.4375 347.1348072703679 L 456 345.52037324611865 M 456 345.52037324611865 L 459.5625 343.7005356185689 L 463.125 341.6752943877185 L 466.6875 339.4446495535676 L 470.25 337.0086011161162 L 473.8125 334.3671490753642 L 477.375 331.52029343131164 L 480.9375 328.46803418395854 L 484.5 325.2103713333049 M 484.5 325.2103713333049 L 488.00581631242216 321.80401456816355" stroke-opacity="0.6980392156862745" stroke-linecap="round" stroke-linejoin="round" stroke-miterlimit="10" stroke-width="2.5"/><g transform="scale(19,19)"><g transform="translate(13.473684210526315,17.157016210526315)"><path fill="rgb(0,0,255)" stroke="none" paint-order="stroke fill markers" d=" M 0.76 -0.6950000000000001 L 0.6970000000000001 -0.44 Q 0.6920000000000001 -0.422 0.687 -0.421 L 0.686 -0.42 L 0.679 -0.42 Q 0.664 -0.42 0.664 -0.43 L 0.667 -0.47900000000000004 L 0.667 -0.481 Q 0.667 -0.605 0.589 -0.652 L 0.588 -0.653 Q 0.553 -0.674 0.506 -0.674 Q 0.399 -0.674 0.303 -0.593 Q 0.276 -0.5710000000000001 0.256 -0.545 Q 0.16 -0.427 0.14300000000000002 -0.255 Q 0.14100000000000001 -0.234 0.14100000000000001 -0.219 Q 0.14100000000000001 -0.082 0.245 -0.031 Q 0.289 -0.009000000000000001 0.342 -0.009000000000000001 Q 0.427 -0.009000000000000001 0.483 -0.052000000000000005 Q 0.523 -0.082 0.535 -0.13 Q 0.556 -0.20800000000000002 0.556 -0.221 Q 0.556 -0.234 0.541 -0.23800000000000002 Q 0.536 -0.23900000000000002 0.525 -0.24 Q 0.502 -0.242 0.47200000000000003 -0.242 Q 0.445 -0.242 0.443 -0.248 Q 0.442 -0.249 0.442 -0.253 Q 0.442 -0.273 0.463 -0.273 L 0.602 -0.27 L 0.603 -0.27 L 0.707 -0.273 L 0.708 -0.273 Q 0.721 -0.273 0.721 -0.262 Q 0.721 -0.242 0.705 -0.242 Q 0.659 -0.241 0.65 -0.232 Q 0.644 -0.225 0.636 -0.194 Q 0.636 -0.196 0.626 -0.155 Q 0.624 -0.148 0.623 -0.14300000000000002 L 0.604 -0.066 Q 0.59 -0.008 0.587 -0.005 Q 0.587 -0.001 0.58 -0.001 Q 0.5690000000000001 -0.001 0.546 -0.039 Q 0.539 -0.052000000000000005 0.535 -0.063 Q 0.501 -0.025 0.458 -0.006 L 0.448 -0.002 Q 0.39 0.022 0.323 0.022 Q 0.188 0.022 0.111 -0.07200000000000001 Q 0.05 -0.146 0.05 -0.252 Q 0.05 -0.401 0.159 -0.531 Q 0.26 -0.652 0.398 -0.6910000000000001 Q 0.449 -0.705 0.498 -0.705 Q 0.607 -0.705 0.664 -0.616 L 0.734 -0.6930000000000001 Q 0.746 -0.705 0.749 -0.705 Q 0.76 -0.705 0.76 -0.6950000000000001 Z"/></g></g></g></g></svg>