<?xml version="1.0" encoding="UTF-8"?>
<svg xmlns="http://www.w3.org/2000/svg" xmlns:xlink="http://www.w3.org/1999/xlink" width="186pt" height="185pt" viewBox="0 0 186 185" version="1.1">
<g id="surface1">
<rect x="0" y="0" width="186" height="185" style="fill:rgb(100%,100%,100%);fill-opacity:1;stroke:none;"/>
<path style="fill:none;stroke-width:10;stroke-linecap:round;stroke-linejoin:round;stroke:rgb(75.389099%,75.389099%,75.389099%);stroke-opacity:1;stroke-miterlimit:10;" d="M 79.375 2467.96875 L 79.375 -190.9375 " transform="matrix(0.1,0,0,-0.1,0,185)"/>
<path style="fill:none;stroke-width:10;stroke-linecap:round;stroke-linejoin:round;stroke:rgb(75.389099%,75.389099%,75.389099%);stroke-opacity:1;stroke-miterlimit:10;" d="M 362.851562 2467.96875 L 362.851562 -190.9375 " transform="matrix(0.1,0,0,-0.1,0,185)"/>
<path style="fill:none;stroke-width:10;stroke-linecap:round;stroke-linejoin:round;stroke:rgb(75.389099%,75.389099%,75.389099%);stroke-opacity:1;stroke-miterlimit:10;" d="M 646.289062 2467.96875 L 646.289062 -190.9375 " transform="matrix(0.1,0,0,-0.1,0,185)"/>
<path style="fill:none;stroke-width:10;stroke-linecap:round;stroke-linejoin:round;stroke:rgb(75.389099%,75.389099%,75.389099%);stroke-opacity:1;stroke-miterlimit:10;" d="M 1213.242188 2467.96875 L 1213.242188 -190.9375 " transform="matrix(0.1,0,0,-0.1,0,185)"/>
<path style="fill:none;stroke-width:10;stroke-linecap:round;stroke-linejoin:round;stroke:rgb(75.389099%,75.389099%,75.389099%);stroke-opacity:1;stroke-miterlimit:10;" d="M 1496.679688 2467.96875 L 1496.679688 -190.9375 " transform="matrix(0.1,0,0,-0.1,0,185)"/>
<path style="fill:none;stroke-width:10;stroke-linecap:round;stroke-linejoin:round;stroke:rgb(75.389099%,75.389099%,75.389099%);stroke-opacity:1;stroke-miterlimit:10;" d="M 1780.15625 2467.96875 L 1780.15625 -190.9375 " transform="matrix(0.1,0,0,-0.1,0,185)"/>
<path style="fill:none;stroke-width:10;stroke-linecap:round;stroke-linejoin:round;stroke:rgb(94.139099%,94.139099%,94.139099%);stroke-opacity:1;stroke-miterlimit:10;" d="M 22.695312 2467.96875 L 22.695312 -190.9375 " transform="matrix(0.1,0,0,-0.1,0,185)"/>
<path style="fill:none;stroke-width:10;stroke-linecap:round;stroke-linejoin:round;stroke:rgb(94.139099%,94.139099%,94.139099%);stroke-opacity:1;stroke-miterlimit:10;" d="M 136.054688 2467.96875 L 136.054688 -190.9375 " transform="matrix(0.1,0,0,-0.1,0,185)"/>
<path style="fill:none;stroke-width:10;stroke-linecap:round;stroke-linejoin:round;stroke:rgb(94.139099%,94.139099%,94.139099%);stroke-opacity:1;stroke-miterlimit:10;" d="M 192.773438 2467.96875 L 192.773438 -190.9375 " transform="matrix(0.1,0,0,-0.1,0,185)"/>
<path style="fill:none;stroke-width:10;stroke-linecap:round;stroke-linejoin:round;stroke:rgb(94.139099%,94.139099%,94.139099%);stroke-opacity:1;stroke-miterlimit:10;" d="M 249.453125 2467.96875 L 249.453125 -190.9375 " transform="matrix(0.1,0,0,-0.1,0,185)"/>
<path style="fill:none;stroke-width:10;stroke-linecap:round;stroke-linejoin:round;stroke:rgb(94.139099%,94.139099%,94.139099%);stroke-opacity:1;stroke-miterlimit:10;" d="M 306.132812 2467.96875 L 306.132812 -190.9375 " transform="matrix(0.1,0,0,-0.1,0,185)"/>
<path style="fill:none;stroke-width:10;stroke-linecap:round;stroke-linejoin:round;stroke:rgb(94.139099%,94.139099%,94.139099%);stroke-opacity:1;stroke-miterlimit:10;" d="M 419.53125 2467.96875 L 419.53125 -190.9375 " transform="matrix(0.1,0,0,-0.1,0,185)"/>
<path style="fill:none;stroke-width:10;stroke-linecap:round;stroke-linejoin:round;stroke:rgb(94.139099%,94.139099%,94.139099%);stroke-opacity:1;stroke-miterlimit:10;" d="M 476.210938 2467.96875 L 476.210938 -190.9375 " transform="matrix(0.1,0,0,-0.1,0,185)"/>
<path style="fill:none;stroke-width:10;stroke-linecap:round;stroke-linejoin:round;stroke:rgb(94.139099%,94.139099%,94.139099%);stroke-opacity:1;stroke-miterlimit:10;" d="M 532.929688 2467.96875 L 532.929688 -190.9375 " transform="matrix(0.1,0,0,-0.1,0,185)"/>
<path style="fill:none;stroke-width:10;stroke-linecap:round;stroke-linejoin:round;stroke:rgb(94.139099%,94.139099%,94.139099%);stroke-opacity:1;stroke-miterlimit:10;" d="M 589.609375 2467.96875 L 589.609375 -190.9375 " transform="matrix(0.1,0,0,-0.1,0,185)"/>
<path style="fill:none;stroke-width:10;stroke-linecap:round;stroke-linejoin:round;stroke:rgb(94.139099%,94.139099%,94.139099%);stroke-opacity:1;stroke-miterlimit:10;" d="M 703.007812 2467.96875 L 703.007812 -190.9375 " transform="matrix(0.1,0,0,-0.1,0,185)"/>
<path style="fill:none;stroke-width:10;stroke-linecap:round;stroke-linejoin:round;stroke:rgb(94.139099%,94.139099%,94.139099%);stroke-opacity:1;stroke-miterlimit:10;" d="M 759.6875 2467.96875 L 759.6875 -190.9375 " transform="matrix(0.1,0,0,-0.1,0,185)"/>
<path style="fill:none;stroke-width:10;stroke-linecap:round;stroke-linejoin:round;stroke:rgb(94.139099%,94.139099%,94.139099%);stroke-opacity:1;stroke-miterlimit:10;" d="M 816.367188 2467.96875 L 816.367188 -190.9375 " transform="matrix(0.1,0,0,-0.1,0,185)"/>
<path style="fill:none;stroke-width:10;stroke-linecap:round;stroke-linejoin:round;stroke:rgb(94.139099%,94.139099%,94.139099%);stroke-opacity:1;stroke-miterlimit:10;" d="M 873.085938 2467.96875 L 873.085938 -190.9375 " transform="matrix(0.1,0,0,-0.1,0,185)"/>
<path style="fill:none;stroke-width:10;stroke-linecap:round;stroke-linejoin:round;stroke:rgb(94.139099%,94.139099%,94.139099%);stroke-opacity:1;stroke-miterlimit:10;" d="M 986.445312 2467.96875 L 986.445312 -190.9375 " transform="matrix(0.1,0,0,-0.1,0,185)"/>
<path style="fill:none;stroke-width:10;stroke-linecap:round;stroke-linejoin:round;stroke:rgb(94.139099%,94.139099%,94.139099%);stroke-opacity:1;stroke-miterlimit:10;" d="M 1043.164062 2467.96875 L 1043.164062 -190.9375 " transform="matrix(0.1,0,0,-0.1,0,185)"/>
<path style="fill:none;stroke-width:10;stroke-linecap:round;stroke-linejoin:round;stroke:rgb(94.139099%,94.139099%,94.139099%);stroke-opacity:1;stroke-miterlimit:10;" d="M 1099.84375 2467.96875 L 1099.84375 -190.9375 " transform="matrix(0.1,0,0,-0.1,0,185)"/>
<path style="fill:none;stroke-width:10;stroke-linecap:round;stroke-linejoin:round;stroke:rgb(94.139099%,94.139099%,94.139099%);stroke-opacity:1;stroke-miterlimit:10;" d="M 1156.523438 2467.96875 L 1156.523438 -190.9375 " transform="matrix(0.1,0,0,-0.1,0,185)"/>
<path style="fill:none;stroke-width:10;stroke-linecap:round;stroke-linejoin:round;stroke:rgb(94.139099%,94.139099%,94.139099%);stroke-opacity:1;stroke-miterlimit:10;" d="M 1269.921875 2467.96875 L 1269.921875 -190.9375 " transform="matrix(0.1,0,0,-0.1,0,185)"/>
<path style="fill:none;stroke-width:10;stroke-linecap:round;stroke-linejoin:round;stroke:rgb(94.139099%,94.139099%,94.139099%);stroke-opacity:1;stroke-miterlimit:10;" d="M 1326.601562 2467.96875 L 1326.601562 -190.9375 " transform="matrix(0.1,0,0,-0.1,0,185)"/>
<path style="fill:none;stroke-width:10;stroke-linecap:round;stroke-linejoin:round;stroke:rgb(94.139099%,94.139099%,94.139099%);stroke-opacity:1;stroke-miterlimit:10;" d="M 1383.320312 2467.96875 L 1383.320312 -190.9375 " transform="matrix(0.1,0,0,-0.1,0,185)"/>
<path style="fill:none;stroke-width:10;stroke-linecap:round;stroke-linejoin:round;stroke:rgb(94.139099%,94.139099%,94.139099%);stroke-opacity:1;stroke-miterlimit:10;" d="M 1440 2467.96875 L 1440 -190.9375 " transform="matrix(0.1,0,0,-0.1,0,185)"/>
<path style="fill:none;stroke-width:10;stroke-linecap:round;stroke-linejoin:round;stroke:rgb(94.139099%,94.139099%,94.139099%);stroke-opacity:1;stroke-miterlimit:10;" d="M 1553.398438 2467.96875 L 1553.398438 -190.9375 " transform="matrix(0.1,0,0,-0.1,0,185)"/>
<path style="fill:none;stroke-width:10;stroke-linecap:round;stroke-linejoin:round;stroke:rgb(94.139099%,94.139099%,94.139099%);stroke-opacity:1;stroke-miterlimit:10;" d="M 1610.078125 2467.96875 L 1610.078125 -190.9375 " transform="matrix(0.1,0,0,-0.1,0,185)"/>
<path style="fill:none;stroke-width:10;stroke-linecap:round;stroke-linejoin:round;stroke:rgb(94.139099%,94.139099%,94.139099%);stroke-opacity:1;stroke-miterlimit:10;" d="M 1666.757812 2467.96875 L 1666.757812 -190.9375 " transform="matrix(0.1,0,0,-0.1,0,185)"/>
<path style="fill:none;stroke-width:10;stroke-linecap:round;stroke-linejoin:round;stroke:rgb(94.139099%,94.139099%,94.139099%);stroke-opacity:1;stroke-miterlimit:10;" d="M 1723.476562 2467.96875 L 1723.476562 -190.9375 " transform="matrix(0.1,0,0,-0.1,0,185)"/>
<path style="fill:none;stroke-width:10;stroke-linecap:round;stroke-linejoin:round;stroke:rgb(94.139099%,94.139099%,94.139099%);stroke-opacity:1;stroke-miterlimit:10;" d="M 1836.835938 2467.96875 L 1836.835938 -190.9375 " transform="matrix(0.1,0,0,-0.1,0,185)"/>
<path style="fill:none;stroke-width:10;stroke-linecap:round;stroke-linejoin:round;stroke:rgb(75.389099%,75.389099%,75.389099%);stroke-opacity:1;stroke-miterlimit:10;" d="M -447.890625 1781.953125 L 2840.3125 1781.953125 " transform="matrix(0.1,0,0,-0.1,0,185)"/>
<path style="fill:none;stroke-width:10;stroke-linecap:round;stroke-linejoin:round;stroke:rgb(75.389099%,75.389099%,75.389099%);stroke-opacity:1;stroke-miterlimit:10;" d="M -447.890625 1498.515625 L 2840.3125 1498.515625 " transform="matrix(0.1,0,0,-0.1,0,185)"/>
<path style="fill:none;stroke-width:10;stroke-linecap:round;stroke-linejoin:round;stroke:rgb(75.389099%,75.389099%,75.389099%);stroke-opacity:1;stroke-miterlimit:10;" d="M -447.890625 1215.039062 L 2840.3125 1215.039062 " transform="matrix(0.1,0,0,-0.1,0,185)"/>
<path style="fill:none;stroke-width:10;stroke-linecap:round;stroke-linejoin:round;stroke:rgb(75.389099%,75.389099%,75.389099%);stroke-opacity:1;stroke-miterlimit:10;" d="M -447.890625 648.125 L 2840.3125 648.125 " transform="matrix(0.1,0,0,-0.1,0,185)"/>
<path style="fill:none;stroke-width:10;stroke-linecap:round;stroke-linejoin:round;stroke:rgb(75.389099%,75.389099%,75.389099%);stroke-opacity:1;stroke-miterlimit:10;" d="M -447.890625 364.648438 L 2840.3125 364.648438 " transform="matrix(0.1,0,0,-0.1,0,185)"/>
<path style="fill:none;stroke-width:10;stroke-linecap:round;stroke-linejoin:round;stroke:rgb(75.389099%,75.389099%,75.389099%);stroke-opacity:1;stroke-miterlimit:10;" d="M -447.890625 81.171875 L 2840.3125 81.171875 " transform="matrix(0.1,0,0,-0.1,0,185)"/>
<path style="fill:none;stroke-width:10;stroke-linecap:round;stroke-linejoin:round;stroke:rgb(94.139099%,94.139099%,94.139099%);stroke-opacity:1;stroke-miterlimit:10;" d="M -447.890625 1838.671875 L 2840.3125 1838.671875 " transform="matrix(0.1,0,0,-0.1,0,185)"/>
<path style="fill:none;stroke-width:10;stroke-linecap:round;stroke-linejoin:round;stroke:rgb(94.139099%,94.139099%,94.139099%);stroke-opacity:1;stroke-miterlimit:10;" d="M -447.890625 1725.273438 L 2840.3125 1725.273438 " transform="matrix(0.1,0,0,-0.1,0,185)"/>
<path style="fill:none;stroke-width:10;stroke-linecap:round;stroke-linejoin:round;stroke:rgb(94.139099%,94.139099%,94.139099%);stroke-opacity:1;stroke-miterlimit:10;" d="M -447.890625 1668.59375 L 2840.3125 1668.59375 " transform="matrix(0.1,0,0,-0.1,0,185)"/>
<path style="fill:none;stroke-width:10;stroke-linecap:round;stroke-linejoin:round;stroke:rgb(94.139099%,94.139099%,94.139099%);stroke-opacity:1;stroke-miterlimit:10;" d="M -447.890625 1611.875 L 2840.3125 1611.875 " transform="matrix(0.1,0,0,-0.1,0,185)"/>
<path style="fill:none;stroke-width:10;stroke-linecap:round;stroke-linejoin:round;stroke:rgb(94.139099%,94.139099%,94.139099%);stroke-opacity:1;stroke-miterlimit:10;" d="M -447.890625 1555.195312 L 2840.3125 1555.195312 " transform="matrix(0.1,0,0,-0.1,0,185)"/>
<path style="fill:none;stroke-width:10;stroke-linecap:round;stroke-linejoin:round;stroke:rgb(94.139099%,94.139099%,94.139099%);stroke-opacity:1;stroke-miterlimit:10;" d="M -447.890625 1441.796875 L 2840.3125 1441.796875 " transform="matrix(0.1,0,0,-0.1,0,185)"/>
<path style="fill:none;stroke-width:10;stroke-linecap:round;stroke-linejoin:round;stroke:rgb(94.139099%,94.139099%,94.139099%);stroke-opacity:1;stroke-miterlimit:10;" d="M -447.890625 1385.117188 L 2840.3125 1385.117188 " transform="matrix(0.1,0,0,-0.1,0,185)"/>
<path style="fill:none;stroke-width:10;stroke-linecap:round;stroke-linejoin:round;stroke:rgb(94.139099%,94.139099%,94.139099%);stroke-opacity:1;stroke-miterlimit:10;" d="M -447.890625 1328.4375 L 2840.3125 1328.4375 " transform="matrix(0.1,0,0,-0.1,0,185)"/>
<path style="fill:none;stroke-width:10;stroke-linecap:round;stroke-linejoin:round;stroke:rgb(94.139099%,94.139099%,94.139099%);stroke-opacity:1;stroke-miterlimit:10;" d="M -447.890625 1271.71875 L 2840.3125 1271.71875 " transform="matrix(0.1,0,0,-0.1,0,185)"/>
<path style="fill:none;stroke-width:10;stroke-linecap:round;stroke-linejoin:round;stroke:rgb(94.139099%,94.139099%,94.139099%);stroke-opacity:1;stroke-miterlimit:10;" d="M -447.890625 1158.359375 L 2840.3125 1158.359375 " transform="matrix(0.1,0,0,-0.1,0,185)"/>
<path style="fill:none;stroke-width:10;stroke-linecap:round;stroke-linejoin:round;stroke:rgb(94.139099%,94.139099%,94.139099%);stroke-opacity:1;stroke-miterlimit:10;" d="M -447.890625 1101.640625 L 2840.3125 1101.640625 " transform="matrix(0.1,0,0,-0.1,0,185)"/>
<path style="fill:none;stroke-width:10;stroke-linecap:round;stroke-linejoin:round;stroke:rgb(94.139099%,94.139099%,94.139099%);stroke-opacity:1;stroke-miterlimit:10;" d="M -447.890625 1044.960938 L 2840.3125 1044.960938 " transform="matrix(0.1,0,0,-0.1,0,185)"/>
<path style="fill:none;stroke-width:10;stroke-linecap:round;stroke-linejoin:round;stroke:rgb(94.139099%,94.139099%,94.139099%);stroke-opacity:1;stroke-miterlimit:10;" d="M -447.890625 988.28125 L 2840.3125 988.28125 " transform="matrix(0.1,0,0,-0.1,0,185)"/>
<path style="fill:none;stroke-width:10;stroke-linecap:round;stroke-linejoin:round;stroke:rgb(94.139099%,94.139099%,94.139099%);stroke-opacity:1;stroke-miterlimit:10;" d="M -447.890625 874.882812 L 2840.3125 874.882812 " transform="matrix(0.1,0,0,-0.1,0,185)"/>
<path style="fill:none;stroke-width:10;stroke-linecap:round;stroke-linejoin:round;stroke:rgb(94.139099%,94.139099%,94.139099%);stroke-opacity:1;stroke-miterlimit:10;" d="M -447.890625 818.203125 L 2840.3125 818.203125 " transform="matrix(0.1,0,0,-0.1,0,185)"/>
<path style="fill:none;stroke-width:10;stroke-linecap:round;stroke-linejoin:round;stroke:rgb(94.139099%,94.139099%,94.139099%);stroke-opacity:1;stroke-miterlimit:10;" d="M -447.890625 761.484375 L 2840.3125 761.484375 " transform="matrix(0.1,0,0,-0.1,0,185)"/>
<path style="fill:none;stroke-width:10;stroke-linecap:round;stroke-linejoin:round;stroke:rgb(94.139099%,94.139099%,94.139099%);stroke-opacity:1;stroke-miterlimit:10;" d="M -447.890625 704.804688 L 2840.3125 704.804688 " transform="matrix(0.1,0,0,-0.1,0,185)"/>
<path style="fill:none;stroke-width:10;stroke-linecap:round;stroke-linejoin:round;stroke:rgb(94.139099%,94.139099%,94.139099%);stroke-opacity:1;stroke-miterlimit:10;" d="M -447.890625 591.40625 L 2840.3125 591.40625 " transform="matrix(0.1,0,0,-0.1,0,185)"/>
<path style="fill:none;stroke-width:10;stroke-linecap:round;stroke-linejoin:round;stroke:rgb(94.139099%,94.139099%,94.139099%);stroke-opacity:1;stroke-miterlimit:10;" d="M -447.890625 534.726562 L 2840.3125 534.726562 " transform="matrix(0.1,0,0,-0.1,0,185)"/>
<path style="fill:none;stroke-width:10;stroke-linecap:round;stroke-linejoin:round;stroke:rgb(94.139099%,94.139099%,94.139099%);stroke-opacity:1;stroke-miterlimit:10;" d="M -447.890625 478.046875 L 2840.3125 478.046875 " transform="matrix(0.1,0,0,-0.1,0,185)"/>
<path style="fill:none;stroke-width:10;stroke-linecap:round;stroke-linejoin:round;stroke:rgb(94.139099%,94.139099%,94.139099%);stroke-opacity:1;stroke-miterlimit:10;" d="M -447.890625 421.328125 L 2840.3125 421.328125 " transform="matrix(0.1,0,0,-0.1,0,185)"/>
<path style="fill:none;stroke-width:10;stroke-linecap:round;stroke-linejoin:round;stroke:rgb(94.139099%,94.139099%,94.139099%);stroke-opacity:1;stroke-miterlimit:10;" d="M -447.890625 307.96875 L 2840.3125 307.96875 " transform="matrix(0.1,0,0,-0.1,0,185)"/>
<path style="fill:none;stroke-width:10;stroke-linecap:round;stroke-linejoin:round;stroke:rgb(94.139099%,94.139099%,94.139099%);stroke-opacity:1;stroke-miterlimit:10;" d="M -447.890625 251.25 L 2840.3125 251.25 " transform="matrix(0.1,0,0,-0.1,0,185)"/>
<path style="fill:none;stroke-width:10;stroke-linecap:round;stroke-linejoin:round;stroke:rgb(94.139099%,94.139099%,94.139099%);stroke-opacity:1;stroke-miterlimit:10;" d="M -447.890625 194.570312 L 2840.3125 194.570312 " transform="matrix(0.1,0,0,-0.1,0,185)"/>
<path style="fill:none;stroke-width:10;stroke-linecap:round;stroke-linejoin:round;stroke:rgb(94.139099%,94.139099%,94.139099%);stroke-opacity:1;stroke-miterlimit:10;" d="M -447.890625 137.890625 L 2840.3125 137.890625 " transform="matrix(0.1,0,0,-0.1,0,185)"/>
<path style="fill:none;stroke-width:10;stroke-linecap:round;stroke-linejoin:round;stroke:rgb(94.139099%,94.139099%,94.139099%);stroke-opacity:1;stroke-miterlimit:10;" d="M -447.890625 24.492188 L 2840.3125 24.492188 " transform="matrix(0.1,0,0,-0.1,0,185)"/>
<path style="fill:none;stroke-width:10;stroke-linecap:butt;stroke-linejoin:miter;stroke:rgb(0%,0%,0%);stroke-opacity:1;stroke-miterlimit:10;" d="M 929.765625 2456.601562 L 929.765625 -190.9375 " transform="matrix(0.1,0,0,-0.1,0,185)"/>
<path style="fill:none;stroke-width:10;stroke-linecap:butt;stroke-linejoin:miter;stroke:rgb(0%,0%,0%);stroke-opacity:1;stroke-miterlimit:10;" d="M -447.890625 931.5625 L 2828.984375 931.5625 " transform="matrix(0.1,0,0,-0.1,0,185)"/>
<path style=" stroke:none;fill-rule:nonzero;fill:rgb(0%,0%,0%);fill-opacity:1;" d="M 5.449219 99.109375 L 5.449219 98.65625 L 8.15625 98.65625 L 8.15625 99.109375 Z M 9.195312 100.878906 L 9.195312 100.265625 C 9.664062 100.453125 10.035156 100.542969 10.304688 100.542969 C 10.617188 100.542969 10.871094 100.453125 11.066406 100.269531 C 11.261719 100.089844 11.359375 99.851562 11.359375 99.5625 C 11.359375 98.871094 10.878906 98.523438 9.910156 98.523438 L 9.648438 98.523438 L 9.648438 98.082031 L 9.878906 98.078125 C 10.785156 98.078125 11.242188 97.761719 11.242188 97.121094 C 11.242188 96.617188 10.941406 96.367188 10.34375 96.367188 C 10.015625 96.367188 9.65625 96.457031 9.261719 96.640625 L 9.261719 96.070312 C 9.648438 95.941406 10.027344 95.875 10.390625 95.875 C 11.394531 95.875 11.898438 96.253906 11.898438 97.015625 C 11.898438 97.589844 11.554688 98.003906 10.871094 98.25 C 11.664062 98.433594 12.0625 98.867188 12.0625 99.550781 C 12.0625 100.015625 11.910156 100.378906 11.601562 100.640625 C 11.296875 100.90625 10.878906 101.035156 10.34375 101.035156 C 10.039062 101.035156 9.65625 100.984375 9.195312 100.878906 "/>
<path style=" stroke:none;fill-rule:nonzero;fill:rgb(0%,0%,0%);fill-opacity:1;" d="M 33.796875 99.109375 L 33.796875 98.65625 L 36.5 98.65625 L 36.5 99.109375 Z M 37.414062 100.914062 L 37.414062 100.339844 C 37.605469 99.894531 37.992188 99.410156 38.570312 98.882812 L 38.945312 98.546875 C 39.429688 98.113281 39.671875 97.679688 39.671875 97.25 C 39.671875 96.972656 39.589844 96.757812 39.421875 96.601562 C 39.257812 96.445312 39.03125 96.367188 38.742188 96.367188 C 38.402344 96.367188 38 96.496094 37.539062 96.761719 L 37.539062 96.183594 C 37.972656 95.976562 38.40625 95.875 38.835938 95.875 C 39.296875 95.875 39.667969 95.996094 39.945312 96.246094 C 40.226562 96.492188 40.363281 96.824219 40.363281 97.234375 C 40.363281 97.527344 40.292969 97.789062 40.152344 98.015625 C 40.011719 98.246094 39.75 98.523438 39.367188 98.847656 L 39.117188 99.0625 C 38.589844 99.507812 38.289062 99.933594 38.207031 100.339844 L 40.34375 100.339844 L 40.34375 100.914062 "/>
<path style=" stroke:none;fill-rule:nonzero;fill:rgb(0%,0%,0%);fill-opacity:1;" d="M 62.144531 99.109375 L 62.144531 98.65625 L 64.847656 98.65625 L 64.847656 99.109375 Z M 66.21875 100.914062 L 66.21875 100.421875 L 67.203125 100.421875 L 67.203125 96.542969 L 66.21875 96.789062 L 66.21875 96.28125 L 67.859375 95.875 L 67.859375 100.421875 L 68.84375 100.421875 L 68.84375 100.914062 "/>
<path style=" stroke:none;fill-rule:nonzero;fill:rgb(0%,0%,0%);fill-opacity:1;" d="M 120.644531 100.914062 L 120.644531 100.421875 L 121.628906 100.421875 L 121.628906 96.542969 L 120.644531 96.789062 L 120.644531 96.28125 L 122.285156 95.875 L 122.285156 100.421875 L 123.269531 100.421875 L 123.269531 100.914062 "/>
<path style=" stroke:none;fill-rule:nonzero;fill:rgb(0%,0%,0%);fill-opacity:1;" d="M 148.53125 100.914062 L 148.53125 100.339844 C 148.722656 99.894531 149.109375 99.410156 149.6875 98.882812 L 150.0625 98.546875 C 150.546875 98.113281 150.789062 97.679688 150.789062 97.25 C 150.789062 96.972656 150.707031 96.757812 150.539062 96.601562 C 150.375 96.445312 150.148438 96.367188 149.863281 96.367188 C 149.519531 96.367188 149.117188 96.496094 148.65625 96.761719 L 148.65625 96.183594 C 149.09375 95.976562 149.523438 95.875 149.953125 95.875 C 150.414062 95.875 150.785156 95.996094 151.0625 96.246094 C 151.34375 96.492188 151.484375 96.824219 151.484375 97.234375 C 151.484375 97.527344 151.414062 97.789062 151.273438 98.015625 C 151.132812 98.246094 150.871094 98.523438 150.484375 98.847656 L 150.234375 99.0625 C 149.710938 99.507812 149.40625 99.933594 149.324219 100.339844 L 151.460938 100.339844 L 151.460938 100.914062 "/>
<path style=" stroke:none;fill-rule:nonzero;fill:rgb(0%,0%,0%);fill-opacity:1;" d="M 177.007812 100.878906 L 177.007812 100.265625 C 177.476562 100.453125 177.84375 100.542969 178.113281 100.542969 C 178.429688 100.542969 178.683594 100.453125 178.878906 100.269531 C 179.074219 100.089844 179.171875 99.851562 179.171875 99.5625 C 179.171875 98.871094 178.6875 98.523438 177.71875 98.523438 L 177.460938 98.523438 L 177.460938 98.082031 L 177.691406 98.078125 C 178.597656 98.078125 179.050781 97.761719 179.050781 97.121094 C 179.050781 96.617188 178.753906 96.367188 178.15625 96.367188 C 177.828125 96.367188 177.464844 96.457031 177.070312 96.640625 L 177.070312 96.070312 C 177.460938 95.941406 177.835938 95.875 178.203125 95.875 C 179.207031 95.875 179.710938 96.253906 179.710938 97.015625 C 179.710938 97.589844 179.367188 98.003906 178.683594 98.25 C 179.476562 98.433594 179.871094 98.867188 179.871094 99.550781 C 179.871094 100.015625 179.71875 100.378906 179.414062 100.640625 C 179.109375 100.90625 178.6875 101.035156 178.15625 101.035156 C 177.851562 101.035156 177.46875 100.984375 177.007812 100.878906 "/>
<path style=" stroke:none;fill-rule:nonzero;fill:rgb(0%,0%,0%);fill-opacity:1;" d="M 81.417969 177.914062 L 81.417969 177.460938 L 84.125 177.460938 L 84.125 177.914062 Z M 85.164062 179.679688 L 85.164062 179.070312 C 85.632812 179.253906 86.003906 179.347656 86.273438 179.347656 C 86.585938 179.347656 86.839844 179.257812 87.035156 179.074219 C 87.230469 178.890625 87.328125 178.65625 87.328125 178.363281 C 87.328125 177.671875 86.84375 177.328125 85.878906 177.328125 L 85.617188 177.328125 L 85.617188 176.886719 L 85.847656 176.882812 C 86.757812 176.882812 87.210938 176.5625 87.210938 175.921875 C 87.210938 175.421875 86.910156 175.167969 86.3125 175.167969 C 85.984375 175.167969 85.625 175.261719 85.230469 175.445312 L 85.230469 174.875 C 85.617188 174.742188 85.992188 174.675781 86.359375 174.675781 C 87.363281 174.675781 87.867188 175.058594 87.867188 175.816406 C 87.867188 176.394531 87.527344 176.804688 86.839844 177.050781 C 87.632812 177.238281 88.03125 177.671875 88.03125 178.355469 C 88.03125 178.816406 87.878906 179.179688 87.570312 179.445312 C 87.265625 179.707031 86.847656 179.839844 86.3125 179.839844 C 86.007812 179.839844 85.625 179.785156 85.164062 179.679688 "/>
<path style=" stroke:none;fill-rule:nonzero;fill:rgb(0%,0%,0%);fill-opacity:1;" d="M 81.417969 149.566406 L 81.417969 149.113281 L 84.125 149.113281 L 84.125 149.566406 Z M 85.035156 151.371094 L 85.035156 150.796875 C 85.226562 150.351562 85.613281 149.863281 86.195312 149.339844 L 86.570312 149.003906 C 87.050781 148.570312 87.292969 148.136719 87.292969 147.707031 C 87.292969 147.429688 87.210938 147.214844 87.046875 147.058594 C 86.878906 146.902344 86.652344 146.824219 86.367188 146.824219 C 86.023438 146.824219 85.621094 146.953125 85.160156 147.21875 L 85.160156 146.640625 C 85.597656 146.433594 86.03125 146.332031 86.460938 146.332031 C 86.917969 146.332031 87.289062 146.453125 87.570312 146.703125 C 87.847656 146.949219 87.988281 147.28125 87.988281 147.691406 C 87.988281 147.984375 87.917969 148.246094 87.777344 148.472656 C 87.636719 148.703125 87.375 148.976562 86.988281 149.304688 L 86.738281 149.519531 C 86.214844 149.964844 85.910156 150.390625 85.828125 150.796875 L 87.964844 150.796875 L 87.964844 151.371094 "/>
<path style=" stroke:none;fill-rule:nonzero;fill:rgb(0%,0%,0%);fill-opacity:1;" d="M 81.417969 121.21875 L 81.417969 120.769531 L 84.125 120.769531 L 84.125 121.21875 Z M 85.496094 123.023438 L 85.496094 122.53125 L 86.480469 122.53125 L 86.480469 118.652344 L 85.496094 118.898438 L 85.496094 118.394531 L 87.136719 117.984375 L 87.136719 122.53125 L 88.121094 122.53125 L 88.121094 123.023438 "/>
<path style=" stroke:none;fill-rule:nonzero;fill:rgb(0%,0%,0%);fill-opacity:1;" d="M 85.496094 66.332031 L 85.496094 65.839844 L 86.480469 65.839844 L 86.480469 61.960938 L 85.496094 62.203125 L 85.496094 61.699219 L 87.136719 61.289062 L 87.136719 65.839844 L 88.121094 65.839844 L 88.121094 66.332031 "/>
<path style=" stroke:none;fill-rule:nonzero;fill:rgb(0%,0%,0%);fill-opacity:1;" d="M 85.035156 37.984375 L 85.035156 37.410156 C 85.226562 36.964844 85.613281 36.480469 86.195312 35.953125 L 86.570312 35.617188 C 87.050781 35.183594 87.292969 34.75 87.292969 34.320312 C 87.292969 34.046875 87.210938 33.828125 87.046875 33.671875 C 86.878906 33.515625 86.652344 33.4375 86.367188 33.4375 C 86.023438 33.4375 85.621094 33.566406 85.160156 33.832031 L 85.160156 33.253906 C 85.597656 33.046875 86.03125 32.945312 86.460938 32.945312 C 86.917969 32.945312 87.289062 33.070312 87.570312 33.316406 C 87.847656 33.566406 87.988281 33.894531 87.988281 34.304688 C 87.988281 34.597656 87.917969 34.859375 87.777344 35.085938 C 87.636719 35.316406 87.375 35.59375 86.988281 35.917969 L 86.738281 36.132812 C 86.214844 36.578125 85.910156 37.003906 85.828125 37.410156 L 87.964844 37.410156 L 87.964844 37.984375 "/>
<path style=" stroke:none;fill-rule:nonzero;fill:rgb(0%,0%,0%);fill-opacity:1;" d="M 85.164062 9.601562 L 85.164062 8.988281 C 85.632812 9.175781 86.003906 9.269531 86.273438 9.269531 C 86.585938 9.269531 86.839844 9.179688 87.035156 8.996094 C 87.230469 8.8125 87.328125 8.574219 87.328125 8.285156 C 87.328125 7.59375 86.84375 7.25 85.878906 7.25 L 85.617188 7.25 L 85.617188 6.808594 L 85.847656 6.804688 C 86.757812 6.804688 87.210938 6.484375 87.210938 5.84375 C 87.210938 5.339844 86.910156 5.089844 86.3125 5.089844 C 85.984375 5.089844 85.625 5.183594 85.230469 5.367188 L 85.230469 4.796875 C 85.617188 4.664062 85.992188 4.597656 86.359375 4.597656 C 87.363281 4.597656 87.867188 4.980469 87.867188 5.738281 C 87.867188 6.316406 87.527344 6.726562 86.839844 6.972656 C 87.632812 7.15625 88.03125 7.589844 88.03125 8.277344 C 88.03125 8.738281 87.878906 9.101562 87.570312 9.363281 C 87.265625 9.628906 86.847656 9.761719 86.3125 9.761719 C 86.007812 9.761719 85.625 9.707031 85.164062 9.601562 "/>
<path style=" stroke:none;fill-rule:nonzero;fill:rgb(0%,0%,0%);fill-opacity:1;" d="M 86.605469 101.035156 C 86.097656 101.035156 85.6875 100.796875 85.375 100.320312 C 85.0625 99.84375 84.90625 99.21875 84.90625 98.453125 C 84.90625 97.675781 85.0625 97.054688 85.378906 96.582031 C 85.695312 96.109375 86.109375 95.875 86.625 95.875 C 87.140625 95.875 87.554688 96.109375 87.871094 96.582031 C 88.1875 97.054688 88.34375 97.671875 88.34375 98.441406 C 88.34375 99.230469 88.1875 99.859375 87.871094 100.332031 C 87.554688 100.800781 87.132812 101.035156 86.605469 101.035156 Z M 86.613281 100.542969 C 87.304688 100.542969 87.652344 99.839844 87.652344 98.433594 C 87.652344 97.054688 87.308594 96.367188 86.625 96.367188 C 85.941406 96.367188 85.601562 97.0625 85.601562 98.453125 C 85.601562 99.847656 85.9375 100.542969 86.613281 100.542969 "/>
<path style="fill:none;stroke-width:25;stroke-linecap:round;stroke-linejoin:round;stroke:rgb(30.200195%,30.200195%,100%);stroke-opacity:1;stroke-miterlimit:10;" d="M 362.851562 931.5625 L 374.179688 942.695312 M 374.179688 942.695312 L 399.84375 966.171875 L 425.546875 987.34375 L 451.25 1006.210938 L 476.914062 1022.695312 L 502.617188 1036.875 L 528.320312 1048.75 L 553.984375 1058.28125 L 579.6875 1065.46875 L 605.390625 1070.351562 L 631.054688 1072.890625 L 656.757812 1073.125 L 682.421875 1071.015625 L 708.125 1066.5625 L 733.828125 1059.804688 L 759.492188 1050.703125 L 785.195312 1039.296875 M 785.195312 1039.296875 L 810.898438 1025.546875 L 836.5625 1009.453125 L 862.265625 991.054688 L 887.96875 970.3125 M 887.96875 970.3125 L 913.632812 947.226562 M 913.632812 947.226562 L 929.765625 931.5625 " transform="matrix(0.1,0,0,-0.1,0,185)"/>
<path style=" stroke:none;fill-rule:nonzero;fill:rgb(0%,0%,100%);fill-opacity:1;" d="M 45.664062 73.65625 L 44.992188 76.347656 C 44.878906 76.460938 44.824219 76.515625 44.824219 76.515625 L 44.65625 76.515625 C 44.542969 76.515625 44.484375 76.460938 44.484375 76.347656 L 44.65625 75.84375 C 44.65625 74.945312 44.375 74.328125 43.8125 73.992188 C 43.476562 73.878906 43.140625 73.824219 42.804688 73.824219 C 42.128906 73.824219 41.402344 74.105469 40.613281 74.664062 C 40.503906 74.777344 40.335938 74.945312 40.109375 75.171875 C 39.4375 76.066406 39.042969 77.132812 38.933594 78.367188 C 38.933594 78.480469 38.933594 78.59375 38.933594 78.703125 C 38.933594 79.714844 39.324219 80.386719 40.109375 80.726562 C 40.335938 80.835938 40.671875 80.894531 41.121094 80.894531 C 41.679688 80.894531 42.1875 80.78125 42.636719 80.558594 C 42.859375 80.332031 43.027344 80.050781 43.140625 79.714844 C 43.363281 79.152344 43.476562 78.816406 43.476562 78.703125 C 43.476562 78.59375 43.421875 78.535156 43.308594 78.535156 C 43.195312 78.535156 43.140625 78.535156 43.140625 78.535156 C 42.914062 78.535156 42.691406 78.535156 42.464844 78.535156 C 42.242188 78.535156 42.128906 78.480469 42.128906 78.367188 C 42.128906 78.257812 42.242188 78.199219 42.464844 78.199219 L 44.992188 78.199219 C 45.101562 78.199219 45.160156 78.199219 45.160156 78.199219 C 45.160156 78.425781 45.101562 78.535156 44.992188 78.535156 C 44.65625 78.535156 44.484375 78.535156 44.484375 78.535156 C 44.375 78.648438 44.316406 78.816406 44.316406 79.042969 C 44.316406 78.929688 44.261719 79.042969 44.148438 79.378906 C 44.148438 79.492188 44.148438 79.546875 44.148438 79.546875 L 43.980469 80.386719 C 43.867188 80.726562 43.8125 80.949219 43.8125 81.0625 C 43.8125 81.0625 43.757812 81.0625 43.644531 81.0625 C 43.53125 81.0625 43.421875 80.949219 43.308594 80.726562 C 43.195312 80.613281 43.140625 80.5 43.140625 80.386719 C 42.914062 80.613281 42.636719 80.835938 42.296875 81.0625 C 41.847656 81.171875 41.402344 81.230469 40.953125 81.230469 C 39.941406 81.230469 39.15625 80.894531 38.59375 80.21875 C 38.148438 79.769531 37.921875 79.152344 37.921875 78.367188 C 37.921875 77.246094 38.316406 76.238281 39.101562 75.339844 C 39.886719 74.441406 40.726562 73.878906 41.625 73.65625 C 42.074219 73.542969 42.464844 73.488281 42.804688 73.488281 C 43.589844 73.488281 44.148438 73.824219 44.484375 74.496094 L 45.328125 73.65625 C 45.441406 73.542969 45.496094 73.488281 45.496094 73.488281 C 45.609375 73.488281 45.664062 73.542969 45.664062 73.65625 "/>
<path style="fill:none;stroke-width:25;stroke-linecap:round;stroke-linejoin:round;stroke:rgb(30.200195%,30.200195%,100%);stroke-opacity:1;stroke-miterlimit:10;" d="M 929.765625 931.5625 L 939.335938 922.1875 M 939.335938 922.1875 L 965.039062 898.515625 L 990.703125 877.1875 M 990.703125 877.1875 L 1016.40625 858.164062 L 1042.109375 841.523438 L 1067.773438 827.148438 L 1093.476562 815.15625 L 1119.140625 805.46875 L 1144.84375 798.085938 L 1170.546875 793.046875 L 1196.210938 790.351562 M 1196.210938 790.351562 L 1221.914062 789.960938 L 1247.617188 791.914062 L 1273.28125 796.210938 L 1298.984375 802.8125 L 1324.648438 811.757812 L 1350.351562 823.007812 L 1376.054688 836.601562 L 1401.71875 852.539062 M 1401.71875 852.539062 L 1427.421875 870.78125 L 1453.125 891.328125 M 1453.125 891.328125 L 1478.789062 914.257812 M 1478.789062 914.257812 L 1496.679688 931.5625 " transform="matrix(0.1,0,0,-0.1,0,185)"/>
<path style="fill:none;stroke-width:25;stroke-linecap:round;stroke-linejoin:round;stroke:rgb(30.200195%,72.068787%,30.200195%);stroke-opacity:1;stroke-miterlimit:10;" d="M 362.851562 1498.515625 L 374.179688 1509.609375 M 374.179688 1509.609375 L 399.84375 1533.125 L 425.546875 1554.296875 L 451.25 1573.125 L 476.914062 1589.648438 L 502.617188 1603.828125 L 528.320312 1615.664062 L 553.984375 1625.195312 L 579.6875 1632.421875 L 605.390625 1637.265625 L 631.054688 1639.84375 L 656.757812 1640.039062 L 682.421875 1637.929688 L 708.125 1633.476562 L 733.828125 1626.71875 L 759.492188 1617.617188 L 785.195312 1606.210938 M 785.195312 1606.210938 L 810.898438 1592.460938 L 836.5625 1576.367188 L 862.265625 1557.96875 L 887.96875 1537.226562 M 887.96875 1537.226562 L 913.632812 1514.179688 M 913.632812 1514.179688 L 929.765625 1498.515625 " transform="matrix(0.1,0,0,-0.1,0,185)"/>
<path style=" stroke:none;fill-rule:nonzero;fill:rgb(0%,59.959412%,0%);fill-opacity:1;" d="M 41.183594 20.265625 L 40.507812 22.960938 C 40.507812 23.070312 40.507812 23.183594 40.507812 23.296875 C 40.507812 23.410156 40.566406 23.464844 40.675781 23.464844 C 40.675781 23.464844 40.734375 23.464844 40.84375 23.464844 C 41.070312 23.464844 41.292969 23.464844 41.519531 23.464844 C 41.632812 23.464844 41.6875 23.464844 41.6875 23.464844 L 41.855469 23.632812 C 41.855469 23.746094 41.742188 23.800781 41.519531 23.800781 L 38.488281 23.800781 C 38.378906 23.800781 38.320312 23.746094 38.320312 23.632812 C 38.320312 23.519531 38.378906 23.464844 38.488281 23.464844 L 38.65625 23.464844 C 39.105469 23.464844 39.386719 23.410156 39.5 23.296875 C 39.609375 23.296875 39.667969 23.183594 39.667969 22.960938 L 41.015625 17.238281 C 41.125 17.125 41.183594 17.070312 41.183594 17.070312 C 41.183594 16.957031 41.015625 16.84375 40.675781 16.734375 L 40.507812 16.734375 C 40.285156 16.734375 40.171875 16.734375 40.171875 16.734375 C 40.171875 16.621094 40.226562 16.507812 40.339844 16.394531 L 45.726562 16.394531 C 45.949219 16.394531 46.0625 16.453125 46.0625 16.5625 C 46.0625 16.5625 46.0625 16.621094 46.0625 16.734375 L 45.894531 18.585938 C 45.78125 18.808594 45.726562 18.921875 45.726562 18.921875 C 45.613281 18.921875 45.558594 18.863281 45.558594 18.753906 C 45.558594 18.753906 45.558594 18.695312 45.558594 18.585938 C 45.558594 18.359375 45.558594 18.191406 45.558594 18.078125 C 45.558594 17.519531 45.445312 17.183594 45.222656 17.070312 C 44.996094 16.84375 44.605469 16.734375 44.042969 16.734375 L 42.527344 16.734375 C 42.304688 16.734375 42.191406 16.789062 42.191406 16.902344 C 42.078125 16.902344 42.023438 16.957031 42.023438 17.070312 C 42.023438 17.070312 42.023438 17.125 42.023438 17.238281 L 41.351562 19.929688 L 42.359375 19.929688 C 42.808594 19.929688 43.144531 19.816406 43.371094 19.59375 C 43.480469 19.480469 43.59375 19.257812 43.707031 18.921875 C 43.707031 18.808594 43.761719 18.753906 43.875 18.753906 C 43.988281 18.753906 44.042969 18.753906 44.042969 18.753906 C 44.042969 18.863281 44.042969 18.921875 44.042969 18.921875 L 43.371094 21.277344 C 43.257812 21.5 43.203125 21.613281 43.203125 21.613281 C 43.089844 21.613281 43.035156 21.558594 43.035156 21.445312 C 43.035156 21.445312 43.035156 21.390625 43.035156 21.277344 C 43.144531 21.050781 43.203125 20.882812 43.203125 20.773438 C 43.203125 20.546875 43.144531 20.4375 43.035156 20.4375 C 42.808594 20.324219 42.585938 20.265625 42.359375 20.265625 L 41.183594 20.265625 "/>
<path style="fill:none;stroke-width:25;stroke-linecap:round;stroke-linejoin:round;stroke:rgb(30.200195%,72.068787%,30.200195%);stroke-opacity:1;stroke-miterlimit:10;" d="M 929.765625 1498.515625 L 939.335938 1489.101562 M 939.335938 1489.101562 L 965.039062 1465.429688 L 990.703125 1444.101562 M 990.703125 1444.101562 L 1016.40625 1425.117188 L 1042.109375 1408.4375 L 1067.773438 1394.101562 L 1093.476562 1382.070312 L 1119.140625 1372.382812 L 1144.84375 1365.039062 L 1170.546875 1360 L 1196.210938 1357.265625 M 1196.210938 1357.265625 L 1221.914062 1356.914062 L 1247.617188 1358.867188 L 1273.28125 1363.125 L 1298.984375 1369.726562 L 1324.648438 1378.671875 L 1350.351562 1389.921875 L 1376.054688 1403.515625 L 1401.71875 1419.453125 M 1401.71875 1419.453125 L 1427.421875 1437.695312 L 1453.125 1458.28125 M 1453.125 1458.28125 L 1478.789062 1481.171875 M 1478.789062 1481.171875 L 1496.679688 1498.515625 " transform="matrix(0.1,0,0,-0.1,0,185)"/>
<path style="fill:none;stroke-width:25;stroke-linecap:round;stroke-linejoin:round;stroke:rgb(58.201599%,30.200195%,86.131287%);stroke-opacity:1;stroke-miterlimit:10;" d="M 362.851562 648.125 L 374.179688 659.21875 M 374.179688 659.21875 L 399.84375 682.734375 L 425.546875 703.90625 L 451.25 722.734375 L 476.914062 739.257812 L 502.617188 753.4375 L 528.320312 765.273438 L 553.984375 774.804688 L 579.6875 782.03125 L 605.390625 786.875 L 631.054688 789.453125 L 656.757812 789.648438 L 682.421875 787.539062 L 708.125 783.085938 L 733.828125 776.328125 L 759.492188 767.226562 L 785.195312 755.820312 M 785.195312 755.820312 L 810.898438 742.070312 L 836.5625 725.976562 L 862.265625 707.578125 L 887.96875 686.835938 M 887.96875 686.835938 L 913.632812 663.789062 M 913.632812 663.789062 L 929.765625 648.125 " transform="matrix(0.1,0,0,-0.1,0,185)"/>
<path style=" stroke:none;fill-rule:nonzero;fill:rgb(39.988708%,0%,80.076599%);fill-opacity:1;" d="M 45.664062 104.542969 L 44.148438 110.433594 L 44.148438 110.605469 C 44.148438 110.714844 44.316406 110.773438 44.65625 110.773438 L 44.824219 110.773438 C 45.046875 110.773438 45.160156 110.828125 45.160156 110.941406 C 45.160156 111.050781 45.101562 111.109375 44.992188 111.109375 L 42.128906 111.109375 C 42.019531 111.109375 41.960938 111.050781 41.960938 110.941406 C 41.960938 110.828125 42.019531 110.773438 42.128906 110.773438 L 42.296875 110.773438 C 42.746094 110.773438 43.027344 110.714844 43.140625 110.605469 C 43.140625 110.605469 43.195312 110.546875 43.308594 110.433594 L 43.980469 107.40625 L 40.785156 107.40625 L 39.941406 110.433594 L 39.941406 110.605469 C 39.941406 110.714844 40.109375 110.773438 40.445312 110.773438 L 40.613281 110.773438 C 40.839844 110.773438 40.953125 110.828125 40.953125 110.941406 C 40.953125 111.050781 40.894531 111.109375 40.785156 111.109375 L 37.921875 111.109375 C 37.808594 111.109375 37.753906 111.050781 37.753906 110.941406 C 37.753906 110.828125 37.808594 110.773438 37.921875 110.773438 L 38.089844 110.773438 C 38.539062 110.773438 38.820312 110.714844 38.933594 110.605469 C 39.042969 110.605469 39.101562 110.492188 39.101562 110.265625 L 40.613281 104.542969 C 40.613281 104.433594 40.613281 104.320312 40.613281 104.207031 C 40.613281 104.207031 40.558594 104.152344 40.445312 104.039062 C 40.445312 104.039062 40.390625 104.039062 40.277344 104.039062 C 40.167969 104.039062 40.054688 104.039062 39.941406 104.039062 C 39.71875 104.039062 39.605469 104.039062 39.605469 104.039062 C 39.605469 103.816406 39.660156 103.703125 39.773438 103.703125 L 42.636719 103.703125 C 42.636719 103.703125 42.636719 103.757812 42.636719 103.871094 C 42.636719 103.984375 42.636719 104.039062 42.636719 104.039062 L 42.296875 104.039062 C 41.847656 104.039062 41.625 104.09375 41.625 104.207031 C 41.511719 104.320312 41.457031 104.433594 41.457031 104.542969 L 40.785156 107.070312 L 44.148438 107.070312 L 44.824219 104.542969 C 44.824219 104.433594 44.824219 104.320312 44.824219 104.207031 C 44.824219 104.207031 44.765625 104.152344 44.65625 104.039062 C 44.65625 104.039062 44.597656 104.039062 44.484375 104.039062 C 44.375 104.039062 44.261719 104.039062 44.148438 104.039062 C 43.925781 104.039062 43.8125 104.039062 43.8125 104.039062 C 43.8125 103.816406 43.867188 103.703125 43.980469 103.703125 L 46.675781 103.703125 C 46.785156 103.703125 46.84375 103.757812 46.84375 103.871094 C 46.84375 103.984375 46.785156 104.039062 46.675781 104.039062 C 46.675781 104.039062 46.617188 104.039062 46.507812 104.039062 C 46.058594 104.039062 45.832031 104.09375 45.832031 104.207031 C 45.71875 104.320312 45.664062 104.433594 45.664062 104.542969 "/>
<path style="fill:none;stroke-width:25;stroke-linecap:round;stroke-linejoin:round;stroke:rgb(58.201599%,30.200195%,86.131287%);stroke-opacity:1;stroke-miterlimit:10;" d="M 929.765625 648.125 L 939.335938 638.710938 M 939.335938 638.710938 L 965.039062 615.039062 L 990.703125 593.710938 M 990.703125 593.710938 L 1016.40625 574.726562 L 1042.109375 558.046875 L 1067.773438 543.710938 L 1093.476562 531.679688 L 1119.140625 521.992188 L 1144.84375 514.648438 L 1170.546875 509.609375 L 1196.210938 506.875 M 1196.210938 506.875 L 1221.914062 506.523438 L 1247.617188 508.476562 L 1273.28125 512.734375 L 1298.984375 519.335938 L 1324.648438 528.28125 L 1350.351562 539.53125 L 1376.054688 553.125 L 1401.71875 569.0625 M 1401.71875 569.0625 L 1427.421875 587.304688 L 1453.125 607.890625 M 1453.125 607.890625 L 1478.789062 630.78125 M 1478.789062 630.78125 L 1496.679688 648.125 " transform="matrix(0.1,0,0,-0.1,0,185)"/>
</g>
</svg>
