<?xml version="1.0" encoding="UTF-8"?>
<svg xmlns="http://www.w3.org/2000/svg" xmlns:xlink="http://www.w3.org/1999/xlink" width="840pt" height="422pt" viewBox="0 0 840 422" version="1.1">
<g id="surface1">
<rect x="0" y="0" width="840" height="422" style="fill:rgb(100%,100%,100%);fill-opacity:1;stroke:none;"/>
<path style="fill:none;stroke-width:10;stroke-linecap:round;stroke-linejoin:round;stroke:rgb(75.389099%,75.389099%,75.389099%);stroke-opacity:1;stroke-miterlimit:10;" d="M 361.5625 4252.539062 L 361.5625 -832.34375 " transform="matrix(0.1,0,0,-0.1,0,422)"/>
<path style="fill:none;stroke-width:10;stroke-linecap:round;stroke-linejoin:round;stroke:rgb(75.389099%,75.389099%,75.389099%);stroke-opacity:1;stroke-miterlimit:10;" d="M 1495.429688 4252.539062 L 1495.429688 -832.34375 " transform="matrix(0.1,0,0,-0.1,0,422)"/>
<path style="fill:none;stroke-width:10;stroke-linecap:round;stroke-linejoin:round;stroke:rgb(75.389099%,75.389099%,75.389099%);stroke-opacity:1;stroke-miterlimit:10;" d="M 2062.34375 4252.539062 L 2062.34375 -832.34375 " transform="matrix(0.1,0,0,-0.1,0,422)"/>
<path style="fill:none;stroke-width:10;stroke-linecap:round;stroke-linejoin:round;stroke:rgb(75.389099%,75.389099%,75.389099%);stroke-opacity:1;stroke-miterlimit:10;" d="M 2629.296875 4252.539062 L 2629.296875 -832.34375 " transform="matrix(0.1,0,0,-0.1,0,422)"/>
<path style="fill:none;stroke-width:10;stroke-linecap:round;stroke-linejoin:round;stroke:rgb(75.389099%,75.389099%,75.389099%);stroke-opacity:1;stroke-miterlimit:10;" d="M 3196.210938 4252.539062 L 3196.210938 -832.34375 " transform="matrix(0.1,0,0,-0.1,0,422)"/>
<path style="fill:none;stroke-width:10;stroke-linecap:round;stroke-linejoin:round;stroke:rgb(75.389099%,75.389099%,75.389099%);stroke-opacity:1;stroke-miterlimit:10;" d="M 3763.125 4252.539062 L 3763.125 -832.34375 " transform="matrix(0.1,0,0,-0.1,0,422)"/>
<path style="fill:none;stroke-width:10;stroke-linecap:round;stroke-linejoin:round;stroke:rgb(75.389099%,75.389099%,75.389099%);stroke-opacity:1;stroke-miterlimit:10;" d="M 4330.078125 4252.539062 L 4330.078125 -832.34375 " transform="matrix(0.1,0,0,-0.1,0,422)"/>
<path style="fill:none;stroke-width:10;stroke-linecap:round;stroke-linejoin:round;stroke:rgb(75.389099%,75.389099%,75.389099%);stroke-opacity:1;stroke-miterlimit:10;" d="M 4896.992188 4252.539062 L 4896.992188 -832.34375 " transform="matrix(0.1,0,0,-0.1,0,422)"/>
<path style="fill:none;stroke-width:10;stroke-linecap:round;stroke-linejoin:round;stroke:rgb(75.389099%,75.389099%,75.389099%);stroke-opacity:1;stroke-miterlimit:10;" d="M 5463.945312 4252.539062 L 5463.945312 -832.34375 " transform="matrix(0.1,0,0,-0.1,0,422)"/>
<path style="fill:none;stroke-width:10;stroke-linecap:round;stroke-linejoin:round;stroke:rgb(75.389099%,75.389099%,75.389099%);stroke-opacity:1;stroke-miterlimit:10;" d="M 6030.859375 4252.539062 L 6030.859375 -832.34375 " transform="matrix(0.1,0,0,-0.1,0,422)"/>
<path style="fill:none;stroke-width:10;stroke-linecap:round;stroke-linejoin:round;stroke:rgb(75.389099%,75.389099%,75.389099%);stroke-opacity:1;stroke-miterlimit:10;" d="M 6597.773438 4252.539062 L 6597.773438 -832.34375 " transform="matrix(0.1,0,0,-0.1,0,422)"/>
<path style="fill:none;stroke-width:10;stroke-linecap:round;stroke-linejoin:round;stroke:rgb(75.389099%,75.389099%,75.389099%);stroke-opacity:1;stroke-miterlimit:10;" d="M 7164.726562 4252.539062 L 7164.726562 -832.34375 " transform="matrix(0.1,0,0,-0.1,0,422)"/>
<path style="fill:none;stroke-width:10;stroke-linecap:round;stroke-linejoin:round;stroke:rgb(75.389099%,75.389099%,75.389099%);stroke-opacity:1;stroke-miterlimit:10;" d="M 7731.640625 4252.539062 L 7731.640625 -832.34375 " transform="matrix(0.1,0,0,-0.1,0,422)"/>
<path style="fill:none;stroke-width:10;stroke-linecap:round;stroke-linejoin:round;stroke:rgb(75.389099%,75.389099%,75.389099%);stroke-opacity:1;stroke-miterlimit:10;" d="M 8298.554688 4252.539062 L 8298.554688 -832.34375 " transform="matrix(0.1,0,0,-0.1,0,422)"/>
<path style="fill:none;stroke-width:10;stroke-linecap:round;stroke-linejoin:round;stroke:rgb(94.139099%,94.139099%,94.139099%);stroke-opacity:1;stroke-miterlimit:10;" d="M 21.40625 4252.539062 L 21.40625 -832.34375 " transform="matrix(0.1,0,0,-0.1,0,422)"/>
<path style="fill:none;stroke-width:10;stroke-linecap:round;stroke-linejoin:round;stroke:rgb(94.139099%,94.139099%,94.139099%);stroke-opacity:1;stroke-miterlimit:10;" d="M 134.804688 4252.539062 L 134.804688 -832.34375 " transform="matrix(0.1,0,0,-0.1,0,422)"/>
<path style="fill:none;stroke-width:10;stroke-linecap:round;stroke-linejoin:round;stroke:rgb(94.139099%,94.139099%,94.139099%);stroke-opacity:1;stroke-miterlimit:10;" d="M 248.164062 4252.539062 L 248.164062 -832.34375 " transform="matrix(0.1,0,0,-0.1,0,422)"/>
<path style="fill:none;stroke-width:10;stroke-linecap:round;stroke-linejoin:round;stroke:rgb(94.139099%,94.139099%,94.139099%);stroke-opacity:1;stroke-miterlimit:10;" d="M 474.960938 4252.539062 L 474.960938 -832.34375 " transform="matrix(0.1,0,0,-0.1,0,422)"/>
<path style="fill:none;stroke-width:10;stroke-linecap:round;stroke-linejoin:round;stroke:rgb(94.139099%,94.139099%,94.139099%);stroke-opacity:1;stroke-miterlimit:10;" d="M 588.320312 4252.539062 L 588.320312 -832.34375 " transform="matrix(0.1,0,0,-0.1,0,422)"/>
<path style="fill:none;stroke-width:10;stroke-linecap:round;stroke-linejoin:round;stroke:rgb(94.139099%,94.139099%,94.139099%);stroke-opacity:1;stroke-miterlimit:10;" d="M 701.71875 4252.539062 L 701.71875 -832.34375 " transform="matrix(0.1,0,0,-0.1,0,422)"/>
<path style="fill:none;stroke-width:10;stroke-linecap:round;stroke-linejoin:round;stroke:rgb(94.139099%,94.139099%,94.139099%);stroke-opacity:1;stroke-miterlimit:10;" d="M 815.117188 4252.539062 L 815.117188 -832.34375 " transform="matrix(0.1,0,0,-0.1,0,422)"/>
<path style="fill:none;stroke-width:10;stroke-linecap:round;stroke-linejoin:round;stroke:rgb(94.139099%,94.139099%,94.139099%);stroke-opacity:1;stroke-miterlimit:10;" d="M 1041.875 4252.539062 L 1041.875 -832.34375 " transform="matrix(0.1,0,0,-0.1,0,422)"/>
<path style="fill:none;stroke-width:10;stroke-linecap:round;stroke-linejoin:round;stroke:rgb(94.139099%,94.139099%,94.139099%);stroke-opacity:1;stroke-miterlimit:10;" d="M 1155.273438 4252.539062 L 1155.273438 -832.34375 " transform="matrix(0.1,0,0,-0.1,0,422)"/>
<path style="fill:none;stroke-width:10;stroke-linecap:round;stroke-linejoin:round;stroke:rgb(94.139099%,94.139099%,94.139099%);stroke-opacity:1;stroke-miterlimit:10;" d="M 1268.632812 4252.539062 L 1268.632812 -832.34375 " transform="matrix(0.1,0,0,-0.1,0,422)"/>
<path style="fill:none;stroke-width:10;stroke-linecap:round;stroke-linejoin:round;stroke:rgb(94.139099%,94.139099%,94.139099%);stroke-opacity:1;stroke-miterlimit:10;" d="M 1382.03125 4252.539062 L 1382.03125 -832.34375 " transform="matrix(0.1,0,0,-0.1,0,422)"/>
<path style="fill:none;stroke-width:10;stroke-linecap:round;stroke-linejoin:round;stroke:rgb(94.139099%,94.139099%,94.139099%);stroke-opacity:1;stroke-miterlimit:10;" d="M 1608.828125 4252.539062 L 1608.828125 -832.34375 " transform="matrix(0.1,0,0,-0.1,0,422)"/>
<path style="fill:none;stroke-width:10;stroke-linecap:round;stroke-linejoin:round;stroke:rgb(94.139099%,94.139099%,94.139099%);stroke-opacity:1;stroke-miterlimit:10;" d="M 1722.1875 4252.539062 L 1722.1875 -832.34375 " transform="matrix(0.1,0,0,-0.1,0,422)"/>
<path style="fill:none;stroke-width:10;stroke-linecap:round;stroke-linejoin:round;stroke:rgb(94.139099%,94.139099%,94.139099%);stroke-opacity:1;stroke-miterlimit:10;" d="M 1835.585938 4252.539062 L 1835.585938 -832.34375 " transform="matrix(0.1,0,0,-0.1,0,422)"/>
<path style="fill:none;stroke-width:10;stroke-linecap:round;stroke-linejoin:round;stroke:rgb(94.139099%,94.139099%,94.139099%);stroke-opacity:1;stroke-miterlimit:10;" d="M 1948.945312 4252.539062 L 1948.945312 -832.34375 " transform="matrix(0.1,0,0,-0.1,0,422)"/>
<path style="fill:none;stroke-width:10;stroke-linecap:round;stroke-linejoin:round;stroke:rgb(94.139099%,94.139099%,94.139099%);stroke-opacity:1;stroke-miterlimit:10;" d="M 2175.742188 4252.539062 L 2175.742188 -832.34375 " transform="matrix(0.1,0,0,-0.1,0,422)"/>
<path style="fill:none;stroke-width:10;stroke-linecap:round;stroke-linejoin:round;stroke:rgb(94.139099%,94.139099%,94.139099%);stroke-opacity:1;stroke-miterlimit:10;" d="M 2289.101562 4252.539062 L 2289.101562 -832.34375 " transform="matrix(0.1,0,0,-0.1,0,422)"/>
<path style="fill:none;stroke-width:10;stroke-linecap:round;stroke-linejoin:round;stroke:rgb(94.139099%,94.139099%,94.139099%);stroke-opacity:1;stroke-miterlimit:10;" d="M 2402.5 4252.539062 L 2402.5 -832.34375 " transform="matrix(0.1,0,0,-0.1,0,422)"/>
<path style="fill:none;stroke-width:10;stroke-linecap:round;stroke-linejoin:round;stroke:rgb(94.139099%,94.139099%,94.139099%);stroke-opacity:1;stroke-miterlimit:10;" d="M 2515.898438 4252.539062 L 2515.898438 -832.34375 " transform="matrix(0.1,0,0,-0.1,0,422)"/>
<path style="fill:none;stroke-width:10;stroke-linecap:round;stroke-linejoin:round;stroke:rgb(94.139099%,94.139099%,94.139099%);stroke-opacity:1;stroke-miterlimit:10;" d="M 2742.65625 4252.539062 L 2742.65625 -832.34375 " transform="matrix(0.1,0,0,-0.1,0,422)"/>
<path style="fill:none;stroke-width:10;stroke-linecap:round;stroke-linejoin:round;stroke:rgb(94.139099%,94.139099%,94.139099%);stroke-opacity:1;stroke-miterlimit:10;" d="M 2856.054688 4252.539062 L 2856.054688 -832.34375 " transform="matrix(0.1,0,0,-0.1,0,422)"/>
<path style="fill:none;stroke-width:10;stroke-linecap:round;stroke-linejoin:round;stroke:rgb(94.139099%,94.139099%,94.139099%);stroke-opacity:1;stroke-miterlimit:10;" d="M 2969.453125 4252.539062 L 2969.453125 -832.34375 " transform="matrix(0.1,0,0,-0.1,0,422)"/>
<path style="fill:none;stroke-width:10;stroke-linecap:round;stroke-linejoin:round;stroke:rgb(94.139099%,94.139099%,94.139099%);stroke-opacity:1;stroke-miterlimit:10;" d="M 3082.8125 4252.539062 L 3082.8125 -832.34375 " transform="matrix(0.1,0,0,-0.1,0,422)"/>
<path style="fill:none;stroke-width:10;stroke-linecap:round;stroke-linejoin:round;stroke:rgb(94.139099%,94.139099%,94.139099%);stroke-opacity:1;stroke-miterlimit:10;" d="M 3309.609375 4252.539062 L 3309.609375 -832.34375 " transform="matrix(0.1,0,0,-0.1,0,422)"/>
<path style="fill:none;stroke-width:10;stroke-linecap:round;stroke-linejoin:round;stroke:rgb(94.139099%,94.139099%,94.139099%);stroke-opacity:1;stroke-miterlimit:10;" d="M 3422.96875 4252.539062 L 3422.96875 -832.34375 " transform="matrix(0.1,0,0,-0.1,0,422)"/>
<path style="fill:none;stroke-width:10;stroke-linecap:round;stroke-linejoin:round;stroke:rgb(94.139099%,94.139099%,94.139099%);stroke-opacity:1;stroke-miterlimit:10;" d="M 3536.367188 4252.539062 L 3536.367188 -832.34375 " transform="matrix(0.1,0,0,-0.1,0,422)"/>
<path style="fill:none;stroke-width:10;stroke-linecap:round;stroke-linejoin:round;stroke:rgb(94.139099%,94.139099%,94.139099%);stroke-opacity:1;stroke-miterlimit:10;" d="M 3649.765625 4252.539062 L 3649.765625 -832.34375 " transform="matrix(0.1,0,0,-0.1,0,422)"/>
<path style="fill:none;stroke-width:10;stroke-linecap:round;stroke-linejoin:round;stroke:rgb(94.139099%,94.139099%,94.139099%);stroke-opacity:1;stroke-miterlimit:10;" d="M 3876.523438 4252.539062 L 3876.523438 -832.34375 " transform="matrix(0.1,0,0,-0.1,0,422)"/>
<path style="fill:none;stroke-width:10;stroke-linecap:round;stroke-linejoin:round;stroke:rgb(94.139099%,94.139099%,94.139099%);stroke-opacity:1;stroke-miterlimit:10;" d="M 3989.921875 4252.539062 L 3989.921875 -832.34375 " transform="matrix(0.1,0,0,-0.1,0,422)"/>
<path style="fill:none;stroke-width:10;stroke-linecap:round;stroke-linejoin:round;stroke:rgb(94.139099%,94.139099%,94.139099%);stroke-opacity:1;stroke-miterlimit:10;" d="M 4103.28125 4252.539062 L 4103.28125 -832.34375 " transform="matrix(0.1,0,0,-0.1,0,422)"/>
<path style="fill:none;stroke-width:10;stroke-linecap:round;stroke-linejoin:round;stroke:rgb(94.139099%,94.139099%,94.139099%);stroke-opacity:1;stroke-miterlimit:10;" d="M 4216.679688 4252.539062 L 4216.679688 -832.34375 " transform="matrix(0.1,0,0,-0.1,0,422)"/>
<path style="fill:none;stroke-width:10;stroke-linecap:round;stroke-linejoin:round;stroke:rgb(94.139099%,94.139099%,94.139099%);stroke-opacity:1;stroke-miterlimit:10;" d="M 4443.4375 4252.539062 L 4443.4375 -832.34375 " transform="matrix(0.1,0,0,-0.1,0,422)"/>
<path style="fill:none;stroke-width:10;stroke-linecap:round;stroke-linejoin:round;stroke:rgb(94.139099%,94.139099%,94.139099%);stroke-opacity:1;stroke-miterlimit:10;" d="M 4556.835938 4252.539062 L 4556.835938 -832.34375 " transform="matrix(0.1,0,0,-0.1,0,422)"/>
<path style="fill:none;stroke-width:10;stroke-linecap:round;stroke-linejoin:round;stroke:rgb(94.139099%,94.139099%,94.139099%);stroke-opacity:1;stroke-miterlimit:10;" d="M 4670.234375 4252.539062 L 4670.234375 -832.34375 " transform="matrix(0.1,0,0,-0.1,0,422)"/>
<path style="fill:none;stroke-width:10;stroke-linecap:round;stroke-linejoin:round;stroke:rgb(94.139099%,94.139099%,94.139099%);stroke-opacity:1;stroke-miterlimit:10;" d="M 4783.59375 4252.539062 L 4783.59375 -832.34375 " transform="matrix(0.1,0,0,-0.1,0,422)"/>
<path style="fill:none;stroke-width:10;stroke-linecap:round;stroke-linejoin:round;stroke:rgb(94.139099%,94.139099%,94.139099%);stroke-opacity:1;stroke-miterlimit:10;" d="M 5010.390625 4252.539062 L 5010.390625 -832.34375 " transform="matrix(0.1,0,0,-0.1,0,422)"/>
<path style="fill:none;stroke-width:10;stroke-linecap:round;stroke-linejoin:round;stroke:rgb(94.139099%,94.139099%,94.139099%);stroke-opacity:1;stroke-miterlimit:10;" d="M 5123.789062 4252.539062 L 5123.789062 -832.34375 " transform="matrix(0.1,0,0,-0.1,0,422)"/>
<path style="fill:none;stroke-width:10;stroke-linecap:round;stroke-linejoin:round;stroke:rgb(94.139099%,94.139099%,94.139099%);stroke-opacity:1;stroke-miterlimit:10;" d="M 5237.148438 4252.539062 L 5237.148438 -832.34375 " transform="matrix(0.1,0,0,-0.1,0,422)"/>
<path style="fill:none;stroke-width:10;stroke-linecap:round;stroke-linejoin:round;stroke:rgb(94.139099%,94.139099%,94.139099%);stroke-opacity:1;stroke-miterlimit:10;" d="M 5350.546875 4252.539062 L 5350.546875 -832.34375 " transform="matrix(0.1,0,0,-0.1,0,422)"/>
<path style="fill:none;stroke-width:10;stroke-linecap:round;stroke-linejoin:round;stroke:rgb(94.139099%,94.139099%,94.139099%);stroke-opacity:1;stroke-miterlimit:10;" d="M 5577.304688 4252.539062 L 5577.304688 -832.34375 " transform="matrix(0.1,0,0,-0.1,0,422)"/>
<path style="fill:none;stroke-width:10;stroke-linecap:round;stroke-linejoin:round;stroke:rgb(94.139099%,94.139099%,94.139099%);stroke-opacity:1;stroke-miterlimit:10;" d="M 5690.703125 4252.539062 L 5690.703125 -832.34375 " transform="matrix(0.1,0,0,-0.1,0,422)"/>
<path style="fill:none;stroke-width:10;stroke-linecap:round;stroke-linejoin:round;stroke:rgb(94.139099%,94.139099%,94.139099%);stroke-opacity:1;stroke-miterlimit:10;" d="M 5804.0625 4252.539062 L 5804.0625 -832.34375 " transform="matrix(0.1,0,0,-0.1,0,422)"/>
<path style="fill:none;stroke-width:10;stroke-linecap:round;stroke-linejoin:round;stroke:rgb(94.139099%,94.139099%,94.139099%);stroke-opacity:1;stroke-miterlimit:10;" d="M 5917.460938 4252.539062 L 5917.460938 -832.34375 " transform="matrix(0.1,0,0,-0.1,0,422)"/>
<path style="fill:none;stroke-width:10;stroke-linecap:round;stroke-linejoin:round;stroke:rgb(94.139099%,94.139099%,94.139099%);stroke-opacity:1;stroke-miterlimit:10;" d="M 6144.257812 4252.539062 L 6144.257812 -832.34375 " transform="matrix(0.1,0,0,-0.1,0,422)"/>
<path style="fill:none;stroke-width:10;stroke-linecap:round;stroke-linejoin:round;stroke:rgb(94.139099%,94.139099%,94.139099%);stroke-opacity:1;stroke-miterlimit:10;" d="M 6257.617188 4252.539062 L 6257.617188 -832.34375 " transform="matrix(0.1,0,0,-0.1,0,422)"/>
<path style="fill:none;stroke-width:10;stroke-linecap:round;stroke-linejoin:round;stroke:rgb(94.139099%,94.139099%,94.139099%);stroke-opacity:1;stroke-miterlimit:10;" d="M 6371.015625 4252.539062 L 6371.015625 -832.34375 " transform="matrix(0.1,0,0,-0.1,0,422)"/>
<path style="fill:none;stroke-width:10;stroke-linecap:round;stroke-linejoin:round;stroke:rgb(94.139099%,94.139099%,94.139099%);stroke-opacity:1;stroke-miterlimit:10;" d="M 6484.414062 4252.539062 L 6484.414062 -832.34375 " transform="matrix(0.1,0,0,-0.1,0,422)"/>
<path style="fill:none;stroke-width:10;stroke-linecap:round;stroke-linejoin:round;stroke:rgb(94.139099%,94.139099%,94.139099%);stroke-opacity:1;stroke-miterlimit:10;" d="M 6711.171875 4252.539062 L 6711.171875 -832.34375 " transform="matrix(0.1,0,0,-0.1,0,422)"/>
<path style="fill:none;stroke-width:10;stroke-linecap:round;stroke-linejoin:round;stroke:rgb(94.139099%,94.139099%,94.139099%);stroke-opacity:1;stroke-miterlimit:10;" d="M 6824.53125 4252.539062 L 6824.53125 -832.34375 " transform="matrix(0.1,0,0,-0.1,0,422)"/>
<path style="fill:none;stroke-width:10;stroke-linecap:round;stroke-linejoin:round;stroke:rgb(94.139099%,94.139099%,94.139099%);stroke-opacity:1;stroke-miterlimit:10;" d="M 6937.929688 4252.539062 L 6937.929688 -832.34375 " transform="matrix(0.1,0,0,-0.1,0,422)"/>
<path style="fill:none;stroke-width:10;stroke-linecap:round;stroke-linejoin:round;stroke:rgb(94.139099%,94.139099%,94.139099%);stroke-opacity:1;stroke-miterlimit:10;" d="M 7051.328125 4252.539062 L 7051.328125 -832.34375 " transform="matrix(0.1,0,0,-0.1,0,422)"/>
<path style="fill:none;stroke-width:10;stroke-linecap:round;stroke-linejoin:round;stroke:rgb(94.139099%,94.139099%,94.139099%);stroke-opacity:1;stroke-miterlimit:10;" d="M 7278.085938 4252.539062 L 7278.085938 -832.34375 " transform="matrix(0.1,0,0,-0.1,0,422)"/>
<path style="fill:none;stroke-width:10;stroke-linecap:round;stroke-linejoin:round;stroke:rgb(94.139099%,94.139099%,94.139099%);stroke-opacity:1;stroke-miterlimit:10;" d="M 7391.484375 4252.539062 L 7391.484375 -832.34375 " transform="matrix(0.1,0,0,-0.1,0,422)"/>
<path style="fill:none;stroke-width:10;stroke-linecap:round;stroke-linejoin:round;stroke:rgb(94.139099%,94.139099%,94.139099%);stroke-opacity:1;stroke-miterlimit:10;" d="M 7504.882812 4252.539062 L 7504.882812 -832.34375 " transform="matrix(0.1,0,0,-0.1,0,422)"/>
<path style="fill:none;stroke-width:10;stroke-linecap:round;stroke-linejoin:round;stroke:rgb(94.139099%,94.139099%,94.139099%);stroke-opacity:1;stroke-miterlimit:10;" d="M 7618.242188 4252.539062 L 7618.242188 -832.34375 " transform="matrix(0.1,0,0,-0.1,0,422)"/>
<path style="fill:none;stroke-width:10;stroke-linecap:round;stroke-linejoin:round;stroke:rgb(94.139099%,94.139099%,94.139099%);stroke-opacity:1;stroke-miterlimit:10;" d="M 7845.039062 4252.539062 L 7845.039062 -832.34375 " transform="matrix(0.1,0,0,-0.1,0,422)"/>
<path style="fill:none;stroke-width:10;stroke-linecap:round;stroke-linejoin:round;stroke:rgb(94.139099%,94.139099%,94.139099%);stroke-opacity:1;stroke-miterlimit:10;" d="M 7958.398438 4252.539062 L 7958.398438 -832.34375 " transform="matrix(0.1,0,0,-0.1,0,422)"/>
<path style="fill:none;stroke-width:10;stroke-linecap:round;stroke-linejoin:round;stroke:rgb(94.139099%,94.139099%,94.139099%);stroke-opacity:1;stroke-miterlimit:10;" d="M 8071.796875 4252.539062 L 8071.796875 -832.34375 " transform="matrix(0.1,0,0,-0.1,0,422)"/>
<path style="fill:none;stroke-width:10;stroke-linecap:round;stroke-linejoin:round;stroke:rgb(94.139099%,94.139099%,94.139099%);stroke-opacity:1;stroke-miterlimit:10;" d="M 8185.195312 4252.539062 L 8185.195312 -832.34375 " transform="matrix(0.1,0,0,-0.1,0,422)"/>
<path style="fill:none;stroke-width:10;stroke-linecap:round;stroke-linejoin:round;stroke:rgb(75.389099%,75.389099%,75.389099%);stroke-opacity:1;stroke-miterlimit:10;" d="M -292.734375 4088.4375 L 10722.695312 4088.4375 " transform="matrix(0.1,0,0,-0.1,0,422)"/>
<path style="fill:none;stroke-width:10;stroke-linecap:round;stroke-linejoin:round;stroke:rgb(75.389099%,75.389099%,75.389099%);stroke-opacity:1;stroke-miterlimit:10;" d="M -292.734375 4088.4375 L 10722.695312 4088.4375 " transform="matrix(0.1,0,0,-0.1,0,422)"/>
<path style="fill:none;stroke-width:10;stroke-linecap:round;stroke-linejoin:round;stroke:rgb(75.389099%,75.389099%,75.389099%);stroke-opacity:1;stroke-miterlimit:10;" d="M -292.734375 3521.484375 L 10722.695312 3521.484375 " transform="matrix(0.1,0,0,-0.1,0,422)"/>
<path style="fill:none;stroke-width:10;stroke-linecap:round;stroke-linejoin:round;stroke:rgb(75.389099%,75.389099%,75.389099%);stroke-opacity:1;stroke-miterlimit:10;" d="M -292.734375 2954.570312 L 10722.695312 2954.570312 " transform="matrix(0.1,0,0,-0.1,0,422)"/>
<path style="fill:none;stroke-width:10;stroke-linecap:round;stroke-linejoin:round;stroke:rgb(75.389099%,75.389099%,75.389099%);stroke-opacity:1;stroke-miterlimit:10;" d="M -292.734375 2387.65625 L 10722.695312 2387.65625 " transform="matrix(0.1,0,0,-0.1,0,422)"/>
<path style="fill:none;stroke-width:10;stroke-linecap:round;stroke-linejoin:round;stroke:rgb(75.389099%,75.389099%,75.389099%);stroke-opacity:1;stroke-miterlimit:10;" d="M -292.734375 1820.703125 L 10722.695312 1820.703125 " transform="matrix(0.1,0,0,-0.1,0,422)"/>
<path style="fill:none;stroke-width:10;stroke-linecap:round;stroke-linejoin:round;stroke:rgb(75.389099%,75.389099%,75.389099%);stroke-opacity:1;stroke-miterlimit:10;" d="M -292.734375 1253.789062 L 10722.695312 1253.789062 " transform="matrix(0.1,0,0,-0.1,0,422)"/>
<path style="fill:none;stroke-width:10;stroke-linecap:round;stroke-linejoin:round;stroke:rgb(75.389099%,75.389099%,75.389099%);stroke-opacity:1;stroke-miterlimit:10;" d="M -292.734375 119.921875 L 10722.695312 119.921875 " transform="matrix(0.1,0,0,-0.1,0,422)"/>
<path style="fill:none;stroke-width:10;stroke-linecap:round;stroke-linejoin:round;stroke:rgb(94.139099%,94.139099%,94.139099%);stroke-opacity:1;stroke-miterlimit:10;" d="M -292.734375 4201.796875 L 10722.695312 4201.796875 " transform="matrix(0.1,0,0,-0.1,0,422)"/>
<path style="fill:none;stroke-width:10;stroke-linecap:round;stroke-linejoin:round;stroke:rgb(94.139099%,94.139099%,94.139099%);stroke-opacity:1;stroke-miterlimit:10;" d="M -292.734375 4201.796875 L 10722.695312 4201.796875 " transform="matrix(0.1,0,0,-0.1,0,422)"/>
<path style="fill:none;stroke-width:10;stroke-linecap:round;stroke-linejoin:round;stroke:rgb(94.139099%,94.139099%,94.139099%);stroke-opacity:1;stroke-miterlimit:10;" d="M -292.734375 3975.039062 L 10722.695312 3975.039062 " transform="matrix(0.1,0,0,-0.1,0,422)"/>
<path style="fill:none;stroke-width:10;stroke-linecap:round;stroke-linejoin:round;stroke:rgb(94.139099%,94.139099%,94.139099%);stroke-opacity:1;stroke-miterlimit:10;" d="M -292.734375 3861.640625 L 10722.695312 3861.640625 " transform="matrix(0.1,0,0,-0.1,0,422)"/>
<path style="fill:none;stroke-width:10;stroke-linecap:round;stroke-linejoin:round;stroke:rgb(94.139099%,94.139099%,94.139099%);stroke-opacity:1;stroke-miterlimit:10;" d="M -292.734375 3748.28125 L 10722.695312 3748.28125 " transform="matrix(0.1,0,0,-0.1,0,422)"/>
<path style="fill:none;stroke-width:10;stroke-linecap:round;stroke-linejoin:round;stroke:rgb(94.139099%,94.139099%,94.139099%);stroke-opacity:1;stroke-miterlimit:10;" d="M -292.734375 3634.882812 L 10722.695312 3634.882812 " transform="matrix(0.1,0,0,-0.1,0,422)"/>
<path style="fill:none;stroke-width:10;stroke-linecap:round;stroke-linejoin:round;stroke:rgb(94.139099%,94.139099%,94.139099%);stroke-opacity:1;stroke-miterlimit:10;" d="M -292.734375 3408.125 L 10722.695312 3408.125 " transform="matrix(0.1,0,0,-0.1,0,422)"/>
<path style="fill:none;stroke-width:10;stroke-linecap:round;stroke-linejoin:round;stroke:rgb(94.139099%,94.139099%,94.139099%);stroke-opacity:1;stroke-miterlimit:10;" d="M -292.734375 3294.726562 L 10722.695312 3294.726562 " transform="matrix(0.1,0,0,-0.1,0,422)"/>
<path style="fill:none;stroke-width:10;stroke-linecap:round;stroke-linejoin:round;stroke:rgb(94.139099%,94.139099%,94.139099%);stroke-opacity:1;stroke-miterlimit:10;" d="M -292.734375 3181.328125 L 10722.695312 3181.328125 " transform="matrix(0.1,0,0,-0.1,0,422)"/>
<path style="fill:none;stroke-width:10;stroke-linecap:round;stroke-linejoin:round;stroke:rgb(94.139099%,94.139099%,94.139099%);stroke-opacity:1;stroke-miterlimit:10;" d="M -292.734375 3067.96875 L 10722.695312 3067.96875 " transform="matrix(0.1,0,0,-0.1,0,422)"/>
<path style="fill:none;stroke-width:10;stroke-linecap:round;stroke-linejoin:round;stroke:rgb(94.139099%,94.139099%,94.139099%);stroke-opacity:1;stroke-miterlimit:10;" d="M -292.734375 2841.171875 L 10722.695312 2841.171875 " transform="matrix(0.1,0,0,-0.1,0,422)"/>
<path style="fill:none;stroke-width:10;stroke-linecap:round;stroke-linejoin:round;stroke:rgb(94.139099%,94.139099%,94.139099%);stroke-opacity:1;stroke-miterlimit:10;" d="M -292.734375 2727.8125 L 10722.695312 2727.8125 " transform="matrix(0.1,0,0,-0.1,0,422)"/>
<path style="fill:none;stroke-width:10;stroke-linecap:round;stroke-linejoin:round;stroke:rgb(94.139099%,94.139099%,94.139099%);stroke-opacity:1;stroke-miterlimit:10;" d="M -292.734375 2614.414062 L 10722.695312 2614.414062 " transform="matrix(0.1,0,0,-0.1,0,422)"/>
<path style="fill:none;stroke-width:10;stroke-linecap:round;stroke-linejoin:round;stroke:rgb(94.139099%,94.139099%,94.139099%);stroke-opacity:1;stroke-miterlimit:10;" d="M -292.734375 2501.015625 L 10722.695312 2501.015625 " transform="matrix(0.1,0,0,-0.1,0,422)"/>
<path style="fill:none;stroke-width:10;stroke-linecap:round;stroke-linejoin:round;stroke:rgb(94.139099%,94.139099%,94.139099%);stroke-opacity:1;stroke-miterlimit:10;" d="M -292.734375 2274.257812 L 10722.695312 2274.257812 " transform="matrix(0.1,0,0,-0.1,0,422)"/>
<path style="fill:none;stroke-width:10;stroke-linecap:round;stroke-linejoin:round;stroke:rgb(94.139099%,94.139099%,94.139099%);stroke-opacity:1;stroke-miterlimit:10;" d="M -292.734375 2160.859375 L 10722.695312 2160.859375 " transform="matrix(0.1,0,0,-0.1,0,422)"/>
<path style="fill:none;stroke-width:10;stroke-linecap:round;stroke-linejoin:round;stroke:rgb(94.139099%,94.139099%,94.139099%);stroke-opacity:1;stroke-miterlimit:10;" d="M -292.734375 2047.460938 L 10722.695312 2047.460938 " transform="matrix(0.1,0,0,-0.1,0,422)"/>
<path style="fill:none;stroke-width:10;stroke-linecap:round;stroke-linejoin:round;stroke:rgb(94.139099%,94.139099%,94.139099%);stroke-opacity:1;stroke-miterlimit:10;" d="M -292.734375 1934.101562 L 10722.695312 1934.101562 " transform="matrix(0.1,0,0,-0.1,0,422)"/>
<path style="fill:none;stroke-width:10;stroke-linecap:round;stroke-linejoin:round;stroke:rgb(94.139099%,94.139099%,94.139099%);stroke-opacity:1;stroke-miterlimit:10;" d="M -292.734375 1707.304688 L 10722.695312 1707.304688 " transform="matrix(0.1,0,0,-0.1,0,422)"/>
<path style="fill:none;stroke-width:10;stroke-linecap:round;stroke-linejoin:round;stroke:rgb(94.139099%,94.139099%,94.139099%);stroke-opacity:1;stroke-miterlimit:10;" d="M -292.734375 1593.945312 L 10722.695312 1593.945312 " transform="matrix(0.1,0,0,-0.1,0,422)"/>
<path style="fill:none;stroke-width:10;stroke-linecap:round;stroke-linejoin:round;stroke:rgb(94.139099%,94.139099%,94.139099%);stroke-opacity:1;stroke-miterlimit:10;" d="M -292.734375 1480.546875 L 10722.695312 1480.546875 " transform="matrix(0.1,0,0,-0.1,0,422)"/>
<path style="fill:none;stroke-width:10;stroke-linecap:round;stroke-linejoin:round;stroke:rgb(94.139099%,94.139099%,94.139099%);stroke-opacity:1;stroke-miterlimit:10;" d="M -292.734375 1367.1875 L 10722.695312 1367.1875 " transform="matrix(0.1,0,0,-0.1,0,422)"/>
<path style="fill:none;stroke-width:10;stroke-linecap:round;stroke-linejoin:round;stroke:rgb(94.139099%,94.139099%,94.139099%);stroke-opacity:1;stroke-miterlimit:10;" d="M -292.734375 1140.390625 L 10722.695312 1140.390625 " transform="matrix(0.1,0,0,-0.1,0,422)"/>
<path style="fill:none;stroke-width:10;stroke-linecap:round;stroke-linejoin:round;stroke:rgb(94.139099%,94.139099%,94.139099%);stroke-opacity:1;stroke-miterlimit:10;" d="M -292.734375 1026.992188 L 10722.695312 1026.992188 " transform="matrix(0.1,0,0,-0.1,0,422)"/>
<path style="fill:none;stroke-width:10;stroke-linecap:round;stroke-linejoin:round;stroke:rgb(94.139099%,94.139099%,94.139099%);stroke-opacity:1;stroke-miterlimit:10;" d="M -292.734375 913.632812 L 10722.695312 913.632812 " transform="matrix(0.1,0,0,-0.1,0,422)"/>
<path style="fill:none;stroke-width:10;stroke-linecap:round;stroke-linejoin:round;stroke:rgb(94.139099%,94.139099%,94.139099%);stroke-opacity:1;stroke-miterlimit:10;" d="M -292.734375 800.234375 L 10722.695312 800.234375 " transform="matrix(0.1,0,0,-0.1,0,422)"/>
<path style="fill:none;stroke-width:10;stroke-linecap:round;stroke-linejoin:round;stroke:rgb(94.139099%,94.139099%,94.139099%);stroke-opacity:1;stroke-miterlimit:10;" d="M -292.734375 573.476562 L 10722.695312 573.476562 " transform="matrix(0.1,0,0,-0.1,0,422)"/>
<path style="fill:none;stroke-width:10;stroke-linecap:round;stroke-linejoin:round;stroke:rgb(94.139099%,94.139099%,94.139099%);stroke-opacity:1;stroke-miterlimit:10;" d="M -292.734375 460.078125 L 10722.695312 460.078125 " transform="matrix(0.1,0,0,-0.1,0,422)"/>
<path style="fill:none;stroke-width:10;stroke-linecap:round;stroke-linejoin:round;stroke:rgb(94.139099%,94.139099%,94.139099%);stroke-opacity:1;stroke-miterlimit:10;" d="M -292.734375 346.679688 L 10722.695312 346.679688 " transform="matrix(0.1,0,0,-0.1,0,422)"/>
<path style="fill:none;stroke-width:10;stroke-linecap:round;stroke-linejoin:round;stroke:rgb(94.139099%,94.139099%,94.139099%);stroke-opacity:1;stroke-miterlimit:10;" d="M -292.734375 233.320312 L 10722.695312 233.320312 " transform="matrix(0.1,0,0,-0.1,0,422)"/>
<path style="fill:none;stroke-width:10;stroke-linecap:round;stroke-linejoin:round;stroke:rgb(94.139099%,94.139099%,94.139099%);stroke-opacity:1;stroke-miterlimit:10;" d="M -292.734375 6.523438 L 10722.695312 6.523438 " transform="matrix(0.1,0,0,-0.1,0,422)"/>
<path style="fill:none;stroke-width:10;stroke-linecap:butt;stroke-linejoin:miter;stroke:rgb(0%,0%,0%);stroke-opacity:1;stroke-miterlimit:10;" d="M 928.476562 4230.859375 L 928.476562 -832.34375 " transform="matrix(0.1,0,0,-0.1,0,422)"/>
<path style="fill:none;stroke-width:10;stroke-linecap:butt;stroke-linejoin:miter;stroke:rgb(0%,0%,0%);stroke-opacity:1;stroke-miterlimit:10;" d="M 928.476562 4241.679688 L 885.117188 4198.320312 " transform="matrix(0.1,0,0,-0.1,0,422)"/>
<path style="fill:none;stroke-width:10;stroke-linecap:butt;stroke-linejoin:miter;stroke:rgb(0%,0%,0%);stroke-opacity:1;stroke-miterlimit:10;" d="M 928.476562 4241.679688 L 971.875 4198.320312 " transform="matrix(0.1,0,0,-0.1,0,422)"/>
<path style="fill:none;stroke-width:10;stroke-linecap:butt;stroke-linejoin:miter;stroke:rgb(0%,0%,0%);stroke-opacity:1;stroke-miterlimit:10;" d="M -292.734375 686.835938 L 10701.015625 686.835938 " transform="matrix(0.1,0,0,-0.1,0,422)"/>
<path style=" stroke:none;fill-rule:nonzero;fill:rgb(0%,0%,0%);fill-opacity:1;" d="M 31.023438 366.261719 L 31.023438 365.398438 L 36.195312 365.398438 L 36.195312 366.261719 Z M 37.941406 369.710938 L 37.941406 368.613281 C 38.304688 367.761719 39.042969 366.832031 40.152344 365.828125 L 40.871094 365.1875 C 41.792969 364.351562 42.257812 363.523438 42.257812 362.703125 C 42.257812 362.179688 42.097656 361.765625 41.78125 361.464844 C 41.46875 361.164062 41.035156 361.015625 40.484375 361.015625 C 39.832031 361.015625 39.0625 361.265625 38.175781 361.769531 L 38.175781 360.664062 C 39.011719 360.269531 39.839844 360.074219 40.660156 360.074219 C 41.542969 360.074219 42.25 360.308594 42.78125 360.785156 C 43.316406 361.257812 43.585938 361.886719 43.585938 362.671875 C 43.585938 363.234375 43.449219 363.734375 43.179688 364.171875 C 42.910156 364.605469 42.410156 365.136719 41.679688 365.757812 L 41.195312 366.171875 C 40.191406 367.023438 39.609375 367.835938 39.453125 368.613281 L 43.539062 368.613281 L 43.539062 369.710938 "/>
<path style=" stroke:none;fill-rule:nonzero;fill:rgb(0%,0%,0%);fill-opacity:1;" d="M 147.445312 369.710938 L 147.445312 368.613281 C 147.8125 367.761719 148.546875 366.832031 149.65625 365.828125 L 150.375 365.1875 C 151.296875 364.351562 151.761719 363.523438 151.761719 362.703125 C 151.761719 362.179688 151.601562 361.765625 151.285156 361.464844 C 150.972656 361.164062 150.539062 361.015625 149.988281 361.015625 C 149.335938 361.015625 148.566406 361.265625 147.679688 361.769531 L 147.679688 360.664062 C 148.515625 360.269531 149.34375 360.074219 150.164062 360.074219 C 151.046875 360.074219 151.753906 360.308594 152.285156 360.785156 C 152.820312 361.257812 153.089844 361.886719 153.089844 362.671875 C 153.089844 363.234375 152.953125 363.734375 152.683594 364.171875 C 152.414062 364.605469 151.914062 365.136719 151.183594 365.757812 L 150.699219 366.171875 C 149.695312 367.023438 149.113281 367.835938 148.957031 368.613281 L 153.042969 368.613281 L 153.042969 369.710938 "/>
<path style=" stroke:none;fill-rule:nonzero;fill:rgb(0%,0%,0%);fill-opacity:1;" d="M 208.726562 369.710938 L 208.726562 367.046875 L 204.496094 367.046875 L 204.496094 366.101562 L 208.726562 360.308594 L 209.902344 360.308594 L 209.902344 366.027344 L 211.160156 366.027344 L 211.160156 367.046875 L 209.902344 367.046875 L 209.902344 369.710938 Z M 205.722656 366.027344 L 208.808594 366.027344 L 208.808594 361.847656 "/>
<path style=" stroke:none;fill-rule:nonzero;fill:rgb(0%,0%,0%);fill-opacity:1;" d="M 262.441406 364.839844 C 263.039062 364.0625 263.792969 363.675781 264.699219 363.675781 C 265.519531 363.675781 266.191406 363.949219 266.714844 364.492188 C 267.238281 365.035156 267.5 365.734375 267.5 366.585938 C 267.5 367.5625 267.207031 368.367188 266.621094 369 C 266.03125 369.628906 265.289062 369.945312 264.386719 369.945312 C 263.347656 369.945312 262.539062 369.527344 261.953125 368.695312 C 261.371094 367.859375 261.078125 366.703125 261.078125 365.21875 C 261.078125 363.589844 261.414062 362.324219 262.085938 361.421875 C 262.753906 360.519531 263.699219 360.066406 264.921875 360.066406 C 265.480469 360.066406 266.179688 360.1875 267.015625 360.421875 L 267.015625 361.515625 C 266.132812 361.175781 265.40625 361.007812 264.84375 361.007812 C 263.242188 361.007812 262.441406 362.285156 262.441406 364.839844 Z M 266.242188 366.863281 C 266.242188 366.152344 266.082031 365.59375 265.761719 365.1875 C 265.441406 364.78125 265 364.578125 264.429688 364.578125 C 263.902344 364.578125 263.445312 364.753906 263.066406 365.109375 C 262.683594 365.46875 262.492188 365.894531 262.492188 366.394531 C 262.492188 367.183594 262.675781 367.816406 263.035156 368.289062 C 263.398438 368.765625 263.878906 369.003906 264.476562 369.003906 C 265.015625 369.003906 265.441406 368.8125 265.761719 368.425781 C 266.082031 368.035156 266.242188 367.515625 266.242188 366.863281 "/>
<path style=" stroke:none;fill-rule:nonzero;fill:rgb(0%,0%,0%);fill-opacity:1;" d="M 319.578125 364.589844 C 318.65625 363.949219 318.199219 363.242188 318.199219 362.46875 C 318.199219 361.757812 318.460938 361.179688 318.980469 360.734375 C 319.5 360.289062 320.179688 360.066406 321.019531 360.066406 C 321.792969 360.066406 322.421875 360.253906 322.902344 360.632812 C 323.382812 361.007812 323.625 361.5 323.625 362.101562 C 323.625 363.011719 323.039062 363.839844 321.871094 364.589844 C 323.289062 365.285156 324 366.179688 324 367.277344 C 324 368.066406 323.699219 368.707031 323.105469 369.203125 C 322.511719 369.699219 321.742188 369.945312 320.804688 369.945312 C 319.878906 369.945312 319.132812 369.710938 318.5625 369.242188 C 317.992188 368.777344 317.710938 368.160156 317.710938 367.398438 C 317.710938 366.273438 318.332031 365.335938 319.578125 364.589844 Z M 321.171875 364.195312 C 322.046875 363.621094 322.488281 362.980469 322.488281 362.273438 C 322.488281 361.894531 322.339844 361.589844 322.046875 361.359375 C 321.757812 361.128906 321.371094 361.015625 320.890625 361.015625 C 320.429688 361.015625 320.054688 361.128906 319.769531 361.351562 C 319.480469 361.582031 319.335938 361.875 319.335938 362.234375 C 319.335938 362.585938 319.464844 362.898438 319.726562 363.175781 C 319.988281 363.453125 320.46875 363.792969 321.171875 364.195312 Z M 320.257812 365.097656 C 319.753906 365.488281 319.410156 365.828125 319.230469 366.117188 C 319.050781 366.40625 318.960938 366.769531 318.960938 367.203125 C 318.960938 367.738281 319.136719 368.175781 319.480469 368.507812 C 319.828125 368.839844 320.285156 369.003906 320.855469 369.003906 C 321.398438 369.003906 321.847656 368.863281 322.191406 368.578125 C 322.535156 368.296875 322.710938 367.925781 322.710938 367.472656 C 322.710938 367.109375 322.601562 366.800781 322.386719 366.550781 C 322.175781 366.296875 321.761719 365.988281 321.144531 365.625 "/>
<path style=" stroke:none;fill-rule:nonzero;fill:rgb(0%,0%,0%);fill-opacity:1;" d="M 372.753906 369.710938 L 372.753906 368.769531 L 374.632812 368.769531 L 374.632812 361.351562 L 372.753906 361.820312 L 372.753906 360.855469 L 375.890625 360.074219 L 375.890625 368.769531 L 377.769531 368.769531 L 377.769531 369.710938 Z M 383.546875 369.945312 C 382.578125 369.945312 381.792969 369.488281 381.191406 368.578125 C 380.59375 367.664062 380.292969 366.472656 380.292969 365.003906 C 380.292969 363.519531 380.597656 362.328125 381.199219 361.425781 C 381.804688 360.523438 382.597656 360.074219 383.585938 360.074219 C 384.570312 360.074219 385.367188 360.523438 385.96875 361.425781 C 386.574219 362.328125 386.875 363.515625 386.875 364.984375 C 386.875 366.492188 386.574219 367.695312 385.96875 368.59375 C 385.367188 369.496094 384.558594 369.945312 383.546875 369.945312 Z M 383.558594 369.003906 C 384.886719 369.003906 385.546875 367.660156 385.546875 364.964844 C 385.546875 362.332031 384.894531 361.015625 383.585938 361.015625 C 382.28125 361.015625 381.628906 362.34375 381.628906 365.003906 C 381.628906 367.671875 382.273438 369.003906 383.558594 369.003906 "/>
<path style=" stroke:none;fill-rule:nonzero;fill:rgb(0%,0%,0%);fill-opacity:1;" d="M 429.128906 369.710938 L 429.128906 368.769531 L 431.011719 368.769531 L 431.011719 361.351562 L 429.128906 361.820312 L 429.128906 360.855469 L 432.269531 360.074219 L 432.269531 368.769531 L 434.148438 368.769531 L 434.148438 369.710938 Z M 436.925781 369.710938 L 436.925781 368.613281 C 437.289062 367.761719 438.027344 366.832031 439.136719 365.828125 L 439.855469 365.1875 C 440.777344 364.351562 441.238281 363.523438 441.238281 362.703125 C 441.238281 362.179688 441.082031 361.765625 440.765625 361.464844 C 440.449219 361.164062 440.019531 361.015625 439.46875 361.015625 C 438.816406 361.015625 438.046875 361.265625 437.160156 361.769531 L 437.160156 360.664062 C 437.996094 360.269531 438.824219 360.074219 439.644531 360.074219 C 440.527344 360.074219 441.234375 360.308594 441.765625 360.785156 C 442.300781 361.257812 442.566406 361.886719 442.566406 362.671875 C 442.566406 363.234375 442.433594 363.734375 442.164062 364.171875 C 441.894531 364.605469 441.394531 365.136719 440.660156 365.757812 L 440.179688 366.171875 C 439.175781 367.023438 438.59375 367.835938 438.4375 368.613281 L 442.523438 368.613281 L 442.523438 369.710938 "/>
<path style=" stroke:none;fill-rule:nonzero;fill:rgb(0%,0%,0%);fill-opacity:1;" d="M 485.507812 369.710938 L 485.507812 368.769531 L 487.386719 368.769531 L 487.386719 361.351562 L 485.507812 361.820312 L 485.507812 360.855469 L 488.644531 360.074219 L 488.644531 368.769531 L 490.527344 368.769531 L 490.527344 369.710938 Z M 497.121094 369.710938 L 497.121094 367.046875 L 492.890625 367.046875 L 492.890625 366.101562 L 497.121094 360.308594 L 498.296875 360.308594 L 498.296875 366.027344 L 499.554688 366.027344 L 499.554688 367.046875 L 498.296875 367.046875 L 498.296875 369.710938 Z M 494.117188 366.027344 L 497.203125 366.027344 L 497.203125 361.847656 "/>
<path style=" stroke:none;fill-rule:nonzero;fill:rgb(0%,0%,0%);fill-opacity:1;" d="M 541.886719 369.710938 L 541.886719 368.769531 L 543.765625 368.769531 L 543.765625 361.351562 L 541.886719 361.820312 L 541.886719 360.855469 L 545.023438 360.074219 L 545.023438 368.769531 L 546.90625 368.769531 L 546.90625 369.710938 Z M 550.839844 364.839844 C 551.4375 364.0625 552.1875 363.675781 553.09375 363.675781 C 553.914062 363.675781 554.589844 363.949219 555.109375 364.492188 C 555.632812 365.035156 555.894531 365.734375 555.894531 366.585938 C 555.894531 367.5625 555.601562 368.367188 555.015625 369 C 554.429688 369.628906 553.683594 369.945312 552.78125 369.945312 C 551.746094 369.945312 550.933594 369.527344 550.351562 368.695312 C 549.765625 367.859375 549.472656 366.703125 549.472656 365.21875 C 549.472656 363.589844 549.808594 362.324219 550.480469 361.421875 C 551.152344 360.519531 552.097656 360.066406 553.316406 360.066406 C 553.875 360.066406 554.574219 360.1875 555.414062 360.421875 L 555.414062 361.515625 C 554.527344 361.175781 553.804688 361.007812 553.238281 361.007812 C 551.640625 361.007812 550.839844 362.285156 550.839844 364.839844 Z M 554.636719 366.863281 C 554.636719 366.152344 554.476562 365.59375 554.15625 365.1875 C 553.839844 364.78125 553.394531 364.578125 552.828125 364.578125 C 552.296875 364.578125 551.84375 364.753906 551.460938 365.109375 C 551.078125 365.46875 550.890625 365.894531 550.890625 366.394531 C 550.890625 367.183594 551.070312 367.816406 551.433594 368.289062 C 551.796875 368.765625 552.273438 369.003906 552.871094 369.003906 C 553.410156 369.003906 553.839844 368.8125 554.15625 368.425781 C 554.476562 368.035156 554.636719 367.515625 554.636719 366.863281 "/>
<path style=" stroke:none;fill-rule:nonzero;fill:rgb(0%,0%,0%);fill-opacity:1;" d="M 599.347656 369.710938 L 599.347656 368.769531 L 601.230469 368.769531 L 601.230469 361.351562 L 599.347656 361.820312 L 599.347656 360.855469 L 602.484375 360.074219 L 602.484375 368.769531 L 604.367188 368.769531 L 604.367188 369.710938 Z M 609.058594 364.589844 C 608.136719 363.949219 607.679688 363.242188 607.679688 362.46875 C 607.679688 361.757812 607.9375 361.179688 608.460938 360.734375 C 608.980469 360.289062 609.660156 360.066406 610.5 360.066406 C 611.273438 360.066406 611.902344 360.253906 612.382812 360.632812 C 612.863281 361.007812 613.105469 361.5 613.105469 362.101562 C 613.105469 363.011719 612.519531 363.839844 611.351562 364.589844 C 612.769531 365.285156 613.480469 366.179688 613.480469 367.277344 C 613.480469 368.066406 613.179688 368.707031 612.585938 369.203125 C 611.992188 369.699219 611.222656 369.945312 610.28125 369.945312 C 609.359375 369.945312 608.613281 369.710938 608.042969 369.242188 C 607.476562 368.777344 607.1875 368.160156 607.1875 367.398438 C 607.1875 366.273438 607.8125 365.335938 609.058594 364.589844 Z M 610.652344 364.195312 C 611.527344 363.621094 611.96875 362.980469 611.96875 362.273438 C 611.96875 361.894531 611.820312 361.589844 611.527344 361.359375 C 611.234375 361.128906 610.851562 361.015625 610.371094 361.015625 C 609.910156 361.015625 609.535156 361.128906 609.246094 361.351562 C 608.960938 361.582031 608.816406 361.875 608.816406 362.234375 C 608.816406 362.585938 608.945312 362.898438 609.207031 363.175781 C 609.46875 363.453125 609.949219 363.792969 610.652344 364.195312 Z M 609.738281 365.097656 C 609.234375 365.488281 608.890625 365.828125 608.710938 366.117188 C 608.53125 366.40625 608.441406 366.769531 608.441406 367.203125 C 608.441406 367.738281 608.613281 368.175781 608.960938 368.507812 C 609.308594 368.839844 609.765625 369.003906 610.335938 369.003906 C 610.878906 369.003906 611.324219 368.863281 611.671875 368.578125 C 612.015625 368.296875 612.1875 367.925781 612.1875 367.472656 C 612.1875 367.109375 612.082031 366.800781 611.867188 366.550781 C 611.65625 366.296875 611.242188 365.988281 610.628906 365.625 "/>
<path style=" stroke:none;fill-rule:nonzero;fill:rgb(0%,0%,0%);fill-opacity:1;" d="M 654.851562 369.710938 L 654.851562 368.613281 C 655.214844 367.761719 655.949219 366.832031 657.0625 365.828125 L 657.777344 365.1875 C 658.703125 364.351562 659.164062 363.523438 659.164062 362.703125 C 659.164062 362.179688 659.003906 361.765625 658.691406 361.464844 C 658.375 361.164062 657.941406 361.015625 657.390625 361.015625 C 656.738281 361.015625 655.96875 361.265625 655.085938 361.769531 L 655.085938 360.664062 C 655.917969 360.269531 656.746094 360.074219 657.570312 360.074219 C 658.449219 360.074219 659.15625 360.308594 659.691406 360.785156 C 660.222656 361.257812 660.492188 361.886719 660.492188 362.671875 C 660.492188 363.234375 660.355469 363.734375 660.089844 364.171875 C 659.820312 364.605469 659.316406 365.136719 658.585938 365.757812 L 658.101562 366.171875 C 657.097656 367.023438 656.519531 367.835938 656.363281 368.613281 L 660.445312 368.613281 L 660.445312 369.710938 Z M 666.523438 369.945312 C 665.550781 369.945312 664.765625 369.488281 664.167969 368.578125 C 663.570312 367.664062 663.269531 366.472656 663.269531 365.003906 C 663.269531 363.519531 663.570312 362.328125 664.175781 361.425781 C 664.777344 360.523438 665.574219 360.074219 666.558594 360.074219 C 667.546875 360.074219 668.34375 360.523438 668.945312 361.425781 C 669.550781 362.328125 669.851562 363.515625 669.851562 364.984375 C 669.851562 366.492188 669.550781 367.695312 668.945312 368.59375 C 668.34375 369.496094 667.535156 369.945312 666.523438 369.945312 Z M 666.535156 369.003906 C 667.859375 369.003906 668.523438 367.660156 668.523438 364.964844 C 668.523438 362.332031 667.867188 361.015625 666.558594 361.015625 C 665.253906 361.015625 664.601562 362.34375 664.601562 365.003906 C 664.601562 367.671875 665.246094 369.003906 666.535156 369.003906 "/>
<path style=" stroke:none;fill-rule:nonzero;fill:rgb(0%,0%,0%);fill-opacity:1;" d="M 711.226562 369.710938 L 711.226562 368.613281 C 711.59375 367.761719 712.328125 366.832031 713.4375 365.828125 L 714.15625 365.1875 C 715.078125 364.351562 715.539062 363.523438 715.539062 362.703125 C 715.539062 362.179688 715.382812 361.765625 715.066406 361.464844 C 714.753906 361.164062 714.320312 361.015625 713.769531 361.015625 C 713.117188 361.015625 712.347656 361.265625 711.464844 361.769531 L 711.464844 360.664062 C 712.296875 360.269531 713.125 360.074219 713.945312 360.074219 C 714.828125 360.074219 715.535156 360.308594 716.070312 360.785156 C 716.601562 361.257812 716.867188 361.886719 716.867188 362.671875 C 716.867188 363.234375 716.734375 363.734375 716.464844 364.171875 C 716.195312 364.605469 715.695312 365.136719 714.964844 365.757812 L 714.480469 366.171875 C 713.476562 367.023438 712.894531 367.835938 712.738281 368.613281 L 716.824219 368.613281 L 716.824219 369.710938 Z M 719.902344 369.710938 L 719.902344 368.613281 C 720.265625 367.761719 721.003906 366.832031 722.113281 365.828125 L 722.828125 365.1875 C 723.753906 364.351562 724.214844 363.523438 724.214844 362.703125 C 724.214844 362.179688 724.058594 361.765625 723.742188 361.464844 C 723.425781 361.164062 722.992188 361.015625 722.441406 361.015625 C 721.789062 361.015625 721.019531 361.265625 720.136719 361.769531 L 720.136719 360.664062 C 720.972656 360.269531 721.800781 360.074219 722.621094 360.074219 C 723.5 360.074219 724.210938 360.308594 724.742188 360.785156 C 725.277344 361.257812 725.542969 361.886719 725.542969 362.671875 C 725.542969 363.234375 725.40625 363.734375 725.140625 364.171875 C 724.871094 364.605469 724.371094 365.136719 723.636719 365.757812 L 723.152344 366.171875 C 722.148438 367.023438 721.570312 367.835938 721.414062 368.613281 L 725.496094 368.613281 L 725.496094 369.710938 "/>
<path style=" stroke:none;fill-rule:nonzero;fill:rgb(0%,0%,0%);fill-opacity:1;" d="M 768.691406 369.710938 L 768.691406 368.613281 C 769.054688 367.761719 769.789062 366.832031 770.902344 365.828125 L 771.617188 365.1875 C 772.542969 364.351562 773.003906 363.523438 773.003906 362.703125 C 773.003906 362.179688 772.847656 361.765625 772.53125 361.464844 C 772.214844 361.164062 771.78125 361.015625 771.230469 361.015625 C 770.578125 361.015625 769.8125 361.265625 768.925781 361.769531 L 768.925781 360.664062 C 769.761719 360.269531 770.589844 360.074219 771.410156 360.074219 C 772.289062 360.074219 772.996094 360.308594 773.53125 360.785156 C 774.0625 361.257812 774.332031 361.886719 774.332031 362.671875 C 774.332031 363.234375 774.195312 363.734375 773.929688 364.171875 C 773.660156 364.605469 773.15625 365.136719 772.425781 365.757812 L 771.941406 366.171875 C 770.9375 367.023438 770.359375 367.835938 770.203125 368.613281 L 774.285156 368.613281 L 774.285156 369.710938 Z M 781.183594 369.710938 L 781.183594 367.046875 L 776.949219 367.046875 L 776.949219 366.101562 L 781.183594 360.308594 L 782.355469 360.308594 L 782.355469 366.027344 L 783.613281 366.027344 L 783.613281 367.046875 L 782.355469 367.046875 L 782.355469 369.710938 Z M 778.175781 366.027344 L 781.265625 366.027344 L 781.265625 361.847656 "/>
<path style=" stroke:none;fill-rule:nonzero;fill:rgb(0%,0%,0%);fill-opacity:1;" d="M 825.066406 369.710938 L 825.066406 368.613281 C 825.433594 367.761719 826.171875 366.832031 827.277344 365.828125 L 827.996094 365.1875 C 828.921875 364.351562 829.382812 363.523438 829.382812 362.703125 C 829.382812 362.179688 829.222656 361.765625 828.910156 361.464844 C 828.59375 361.164062 828.160156 361.015625 827.609375 361.015625 C 826.957031 361.015625 826.1875 361.265625 825.304688 361.769531 L 825.304688 360.664062 C 826.136719 360.269531 826.964844 360.074219 827.789062 360.074219 C 828.667969 360.074219 829.375 360.308594 829.910156 360.785156 C 830.441406 361.257812 830.710938 361.886719 830.710938 362.671875 C 830.710938 363.234375 830.574219 363.734375 830.304688 364.171875 C 830.035156 364.605469 829.535156 365.136719 828.804688 365.757812 L 828.320312 366.171875 C 827.316406 367.023438 826.738281 367.835938 826.578125 368.613281 L 830.664062 368.613281 L 830.664062 369.710938 Z M 834.898438 364.839844 C 835.496094 364.0625 836.246094 363.675781 837.152344 363.675781 C 837.976562 363.675781 838.648438 363.949219 839.171875 364.492188 C 839.691406 365.035156 839.953125 365.734375 839.953125 366.585938 C 839.953125 367.5625 839.660156 368.367188 839.074219 369 C 838.488281 369.628906 837.742188 369.945312 836.84375 369.945312 C 835.804688 369.945312 834.992188 369.527344 834.410156 368.695312 C 833.824219 367.859375 833.53125 366.703125 833.53125 365.21875 C 833.53125 363.589844 833.867188 362.324219 834.539062 361.421875 C 835.210938 360.519531 836.15625 360.066406 837.375 360.066406 C 837.933594 360.066406 838.632812 360.1875 839.472656 360.421875 L 839.472656 361.515625 C 838.585938 361.175781 837.863281 361.007812 837.300781 361.007812 C 835.699219 361.007812 834.898438 362.285156 834.898438 364.839844 Z M 838.695312 366.863281 C 838.695312 366.152344 838.535156 365.59375 838.21875 365.1875 C 837.898438 364.78125 837.453125 364.578125 836.886719 364.578125 C 836.355469 364.578125 835.902344 364.753906 835.519531 365.109375 C 835.140625 365.46875 834.949219 365.894531 834.949219 366.394531 C 834.949219 367.183594 835.128906 367.816406 835.492188 368.289062 C 835.855469 368.765625 836.335938 369.003906 836.929688 369.003906 C 837.46875 369.003906 837.898438 368.8125 838.21875 368.425781 C 838.535156 368.035156 838.695312 367.515625 838.695312 366.863281 "/>
<path style=" stroke:none;fill-rule:nonzero;fill:rgb(0%,0%,0%);fill-opacity:1;" d="M 70.054688 411.796875 L 70.054688 410.933594 L 75.226562 410.933594 L 75.226562 411.796875 Z M 77.851562 415.246094 L 77.851562 414.304688 L 79.730469 414.304688 L 79.730469 406.886719 L 77.851562 407.355469 L 77.851562 406.390625 L 80.988281 405.609375 L 80.988281 414.304688 L 82.867188 414.304688 L 82.867188 415.246094 "/>
<path style=" stroke:none;fill-rule:nonzero;fill:rgb(0%,0%,0%);fill-opacity:1;" d="M 77.851562 301.40625 L 77.851562 300.464844 L 79.730469 300.464844 L 79.730469 293.046875 L 77.851562 293.515625 L 77.851562 292.550781 L 80.988281 291.769531 L 80.988281 300.464844 L 82.867188 300.464844 L 82.867188 301.40625 "/>
<path style=" stroke:none;fill-rule:nonzero;fill:rgb(0%,0%,0%);fill-opacity:1;" d="M 76.972656 245.027344 L 76.972656 243.929688 C 77.339844 243.078125 78.074219 242.148438 79.183594 241.144531 L 79.902344 240.503906 C 80.824219 239.671875 81.285156 238.84375 81.285156 238.019531 C 81.285156 237.496094 81.128906 237.082031 80.8125 236.78125 C 80.5 236.480469 80.066406 236.332031 79.515625 236.332031 C 78.863281 236.332031 78.09375 236.582031 77.207031 237.085938 L 77.207031 235.980469 C 78.042969 235.589844 78.871094 235.390625 79.691406 235.390625 C 80.574219 235.390625 81.28125 235.628906 81.816406 236.101562 C 82.347656 236.578125 82.613281 237.207031 82.613281 237.988281 C 82.613281 238.554688 82.480469 239.050781 82.210938 239.488281 C 81.941406 239.925781 81.441406 240.453125 80.710938 241.078125 L 80.226562 241.488281 C 79.222656 242.339844 78.640625 243.152344 78.484375 243.929688 L 82.570312 243.929688 L 82.570312 245.027344 "/>
<path style=" stroke:none;fill-rule:nonzero;fill:rgb(0%,0%,0%);fill-opacity:1;" d="M 77.214844 188.578125 L 77.214844 187.410156 C 78.113281 187.765625 78.820312 187.945312 79.335938 187.945312 C 79.933594 187.945312 80.417969 187.769531 80.792969 187.421875 C 81.167969 187.070312 81.355469 186.617188 81.355469 186.0625 C 81.355469 184.742188 80.429688 184.082031 78.582031 184.082031 L 78.085938 184.082031 L 78.085938 183.238281 L 78.523438 183.230469 C 80.261719 183.230469 81.128906 182.617188 81.128906 181.394531 C 81.128906 180.433594 80.554688 179.953125 79.414062 179.953125 C 78.785156 179.953125 78.097656 180.128906 77.34375 180.480469 L 77.34375 179.386719 C 78.082031 179.136719 78.804688 179.011719 79.503906 179.011719 C 81.425781 179.011719 82.386719 179.738281 82.386719 181.191406 C 82.386719 182.296875 81.730469 183.085938 80.421875 183.554688 C 81.941406 183.90625 82.699219 184.738281 82.699219 186.046875 C 82.699219 186.929688 82.40625 187.625 81.820312 188.128906 C 81.234375 188.632812 80.433594 188.886719 79.414062 188.886719 C 78.832031 188.886719 78.101562 188.78125 77.214844 188.578125 "/>
<path style=" stroke:none;fill-rule:nonzero;fill:rgb(0%,0%,0%);fill-opacity:1;" d="M 80.792969 131.1875 L 80.792969 128.527344 L 76.558594 128.527344 L 76.558594 127.578125 L 80.792969 121.785156 L 81.96875 121.785156 L 81.96875 127.503906 L 83.222656 127.503906 L 83.222656 128.527344 L 81.96875 128.527344 L 81.96875 131.1875 Z M 77.785156 127.503906 L 80.875 127.503906 L 80.875 123.324219 "/>
<path style=" stroke:none;fill-rule:nonzero;fill:rgb(0%,0%,0%);fill-opacity:1;" d="M 77.476562 74.847656 L 77.476562 73.730469 C 78.097656 73.980469 78.691406 74.105469 79.253906 74.105469 C 79.871094 74.105469 80.359375 73.921875 80.710938 73.558594 C 81.066406 73.195312 81.242188 72.691406 81.242188 72.050781 C 81.242188 70.640625 80.269531 69.9375 78.328125 69.9375 C 78.105469 69.9375 77.875 69.953125 77.632812 69.980469 L 77.632812 65.40625 L 82.394531 65.40625 L 82.394531 66.5 L 78.734375 66.5 L 78.734375 68.976562 C 79.941406 68.976562 80.882812 69.253906 81.558594 69.808594 C 82.238281 70.363281 82.578125 71.132812 82.578125 72.117188 C 82.578125 73.03125 82.269531 73.746094 81.652344 74.265625 C 81.035156 74.785156 80.179688 75.046875 79.089844 75.046875 C 78.613281 75.046875 78.078125 74.980469 77.476562 74.847656 "/>
<path style=" stroke:none;fill-rule:nonzero;fill:rgb(0%,0%,0%);fill-opacity:1;" d="M 78.128906 13.558594 C 78.726562 12.785156 79.480469 12.394531 80.386719 12.394531 C 81.207031 12.394531 81.878906 12.667969 82.402344 13.210938 C 82.925781 13.757812 83.1875 14.453125 83.1875 15.304688 C 83.1875 16.285156 82.894531 17.089844 82.304688 17.71875 C 81.71875 18.351562 80.976562 18.664062 80.074219 18.664062 C 79.035156 18.664062 78.226562 18.25 77.640625 17.414062 C 77.054688 16.578125 76.765625 15.421875 76.765625 13.941406 C 76.765625 12.308594 77.097656 11.042969 77.769531 10.140625 C 78.441406 9.238281 79.386719 8.789062 80.605469 8.789062 C 81.167969 8.789062 81.863281 8.90625 82.703125 9.144531 L 82.703125 10.234375 C 81.820312 9.898438 81.09375 9.726562 80.53125 9.726562 C 78.929688 9.726562 78.128906 11.003906 78.128906 13.558594 Z M 81.929688 15.585938 C 81.929688 14.875 81.769531 14.316406 81.449219 13.90625 C 81.128906 13.503906 80.683594 13.296875 80.117188 13.296875 C 79.589844 13.296875 79.132812 13.476562 78.753906 13.832031 C 78.371094 14.1875 78.179688 14.617188 78.179688 15.113281 C 78.179688 15.902344 78.363281 16.535156 78.722656 17.011719 C 79.085938 17.488281 79.566406 17.726562 80.164062 17.726562 C 80.699219 17.726562 81.128906 17.53125 81.449219 17.144531 C 81.769531 16.757812 81.929688 16.238281 81.929688 15.585938 "/>
<path style=" stroke:none;fill-rule:nonzero;fill:rgb(0%,0%,0%);fill-opacity:1;" d="M 79.972656 369.945312 C 79.003906 369.945312 78.21875 369.488281 77.617188 368.578125 C 77.019531 367.664062 76.71875 366.472656 76.71875 365.003906 C 76.71875 363.519531 77.019531 362.328125 77.625 361.425781 C 78.226562 360.523438 79.023438 360.074219 80.011719 360.074219 C 80.996094 360.074219 81.792969 360.523438 82.394531 361.425781 C 83 362.328125 83.300781 363.515625 83.300781 364.984375 C 83.300781 366.492188 83 367.695312 82.394531 368.59375 C 81.792969 369.496094 80.984375 369.945312 79.972656 369.945312 Z M 79.984375 369.003906 C 81.308594 369.003906 81.972656 367.660156 81.972656 364.964844 C 81.972656 362.332031 81.320312 361.015625 80.011719 361.015625 C 78.707031 361.015625 78.054688 362.34375 78.054688 365.003906 C 78.054688 367.671875 78.699219 369.003906 79.984375 369.003906 "/>
<path style="fill:none;stroke-width:25;stroke-linecap:round;stroke-linejoin:round;stroke:rgb(30.200195%,30.200195%,100%);stroke-opacity:1;stroke-miterlimit:10;" d="M -292.734375 3094.492188 L -249.6875 3038.90625 L -206.679688 2981.523438 L -163.632812 2922.695312 L -120.625 2862.65625 L -77.578125 2801.679688 L -34.570312 2740.117188 L 8.476562 2678.242188 L 51.484375 2616.367188 L 94.53125 2554.84375 L 137.578125 2493.90625 L 180.585938 2433.945312 L 223.632812 2375.234375 L 266.640625 2318.085938 L 309.6875 2262.8125 L 352.695312 2209.6875 L 395.742188 2158.945312 L 438.75 2110.976562 L 481.796875 2065.898438 L 524.804688 2024.0625 L 567.851562 1985.625 L 610.859375 1950.820312 L 653.90625 1919.84375 L 696.953125 1892.8125 L 739.960938 1869.921875 L 783.007812 1851.328125 L 826.015625 1837.03125 L 869.0625 1827.1875 L 912.070312 1821.796875 L 955.117188 1820.9375 L 998.125 1824.570312 L 1041.171875 1832.695312 L 1084.21875 1845.3125 L 1127.226562 1862.304688 L 1170.234375 1883.554688 L 1213.28125 1908.984375 L 1256.328125 1938.476562 L 1299.335938 1971.835938 L 1342.382812 2008.90625 L 1385.390625 2049.453125 L 1428.4375 2093.320312 L 1471.445312 2140.234375 L 1514.492188 2189.921875 L 1557.539062 2242.148438 L 1600.546875 2296.640625 L 1643.554688 2353.125 L 1686.601562 2411.289062 L 1729.648438 2470.78125 L 1772.65625 2531.367188 L 1815.703125 2592.734375 L 1858.710938 2654.492188 L 1901.757812 2716.40625 L 1944.765625 2778.125 L 1987.8125 2839.375 L 2030.820312 2899.804688 L 2073.867188 2959.101562 L 2116.875 3017.109375 L 2159.921875 3073.398438 L 2202.96875 3127.773438 L 2245.976562 3180.039062 L 2289.023438 3229.882812 L 2332.03125 3277.109375 L 2375.078125 3321.5625 L 2418.085938 3363.007812 L 2461.132812 3401.289062 L 2504.140625 3436.328125 L 2547.1875 3467.929688 L 2590.195312 3496.054688 L 2633.242188 3520.625 L 2676.289062 3541.601562 L 2719.296875 3558.90625 L 2762.34375 3572.617188 L 2805.351562 3582.65625 L 2848.398438 3589.140625 L 2891.40625 3592.148438 L 2934.453125 3591.679688 L 2977.460938 3587.929688 L 3020.507812 3580.976562 L 3063.515625 3570.976562 L 3106.5625 3558.125 L 3149.609375 3542.539062 L 3192.617188 3524.453125 L 3235.625 3504.101562 L 3278.671875 3481.679688 L 3321.71875 3457.421875 L 3364.726562 3431.5625 L 3407.773438 3404.375 L 3450.78125 3376.054688 L 3493.828125 3346.953125 L 3536.835938 3317.304688 L 3579.882812 3287.304688 L 3622.890625 3257.304688 L 3665.9375 3227.5 L 3708.945312 3198.203125 L 3751.992188 3169.609375 L 3795.039062 3141.953125 L 3838.046875 3115.546875 L 3881.09375 3090.507812 L 3924.101562 3067.070312 L 3967.148438 3045.46875 L 4010.15625 3025.820312 L 4053.203125 3008.320312 L 4096.210938 2993.125 L 4139.257812 2980.273438 L 4182.304688 2969.960938 L 4225.3125 2962.226562 L 4268.359375 2957.148438 L 4311.367188 2954.765625 L 4354.414062 2955.078125 L 4397.421875 2958.085938 L 4440.46875 2963.789062 L 4483.476562 2972.148438 L 4526.523438 2983.046875 L 4569.53125 2996.445312 L 4612.578125 3012.1875 L 4655.585938 3030.195312 L 4698.632812 3050.3125 L 4741.640625 3072.34375 L 4784.6875 3096.171875 L 4827.734375 3121.5625 L 4870.742188 3148.28125 L 4913.789062 3176.171875 L 4956.796875 3204.960938 L 4999.84375 3234.375 L 5042.851562 3264.257812 L 5085.898438 3294.296875 L 5128.90625 3324.21875 L 5171.953125 3353.789062 L 5214.960938 3382.734375 L 5258.007812 3410.78125 L 5301.054688 3437.695312 L 5344.0625 3463.203125 L 5387.109375 3487.070312 L 5430.117188 3509.023438 L 5473.164062 3528.867188 L 5516.171875 3546.40625 L 5559.21875 3561.367188 L 5602.226562 3573.554688 L 5645.273438 3582.851562 L 5688.28125 3589.101562 L 5731.328125 3592.109375 L 5774.375 3591.757812 L 5817.382812 3587.96875 L 5860.390625 3580.664062 L 5903.4375 3569.765625 L 5946.484375 3555.234375 L 5989.492188 3537.03125 L 6032.539062 3515.234375 L 6075.546875 3489.84375 L 6118.59375 3460.898438 L 6161.601562 3428.476562 L 6204.648438 3392.695312 L 6247.695312 3353.632812 L 6290.703125 3311.484375 L 6333.710938 3266.40625 L 6376.757812 3218.554688 L 6419.804688 3168.125 L 6462.8125 3115.351562 L 6505.859375 3060.46875 L 6548.867188 3003.789062 L 6591.914062 2945.46875 L 6634.921875 2885.859375 L 6677.96875 2825.195312 L 6721.015625 2763.828125 L 6764.023438 2702.03125 L 6807.03125 2640.15625 L 6850.078125 2578.4375 L 6893.125 2517.226562 L 6936.132812 2456.875 L 6979.179688 2397.65625 L 7022.1875 2339.84375 L 7065.234375 2283.828125 L 7108.242188 2229.804688 L 7151.289062 2178.164062 L 7194.296875 2129.0625 L 7237.34375 2082.851562 L 7280.351562 2039.765625 L 7323.398438 1999.960938 L 7366.445312 1963.789062 L 7409.453125 1931.289062 L 7452.5 1902.734375 L 7495.507812 1878.242188 L 7538.554688 1857.96875 L 7581.5625 1841.992188 L 7624.609375 1830.429688 L 7667.617188 1823.320312 L 7710.664062 1820.703125 L 7753.671875 1822.65625 L 7796.71875 1829.0625 L 7839.765625 1839.960938 L 7882.773438 1855.234375 L 7925.78125 1874.882812 L 7968.828125 1898.710938 L 8011.875 1926.679688 L 8054.882812 1958.554688 L 8097.929688 1994.21875 L 8140.9375 2033.476562 L 8183.984375 2076.09375 L 8226.992188 2121.835938 L 8270.039062 2170.507812 L 8313.085938 2221.796875 L 8356.09375 2275.46875 L 8399.140625 2331.210938 L 8442.148438 2388.75 L 8485.195312 2447.773438 L 8528.203125 2508.007812 L 8571.25 2569.0625 L 8614.257812 2630.703125 L 8657.304688 2692.617188 L 8700.3125 2754.453125 L 8743.359375 2815.898438 L 8786.40625 2876.679688 L 8829.414062 2936.445312 L 8872.460938 2994.960938 L 8915.46875 3051.953125 L 8958.515625 3107.148438 L 9001.523438 3160.234375 L 9044.570312 3211.015625 L 9087.578125 3259.296875 L 9130.625 3304.804688 L 9173.632812 3347.421875 L 9216.679688 3386.953125 L 9259.726562 3423.242188 L 9302.734375 3456.171875 L 9345.78125 3485.664062 L 9388.789062 3511.601562 L 9431.835938 3533.984375 L 9474.84375 3552.695312 L 9517.890625 3567.773438 L 9560.898438 3579.21875 L 9603.945312 3587.070312 L 9646.953125 3591.40625 L 9690 3592.265625 L 9733.007812 3589.765625 L 9776.054688 3584.023438 L 9819.0625 3575.195312 L 9862.109375 3563.398438 L 9905.15625 3548.828125 L 9948.164062 3531.71875 L 9991.210938 3512.1875 L 10034.21875 3490.546875 L 10077.304688 3466.953125 L 10120.3125 3441.679688 L 10163.28125 3414.960938 L 10206.289062 3387.070312 L 10249.414062 3358.242188 L 10292.382812 3328.75 L 10335.390625 3298.867188 L 10378.515625 3268.828125 L 10421.484375 3238.90625 L 10464.492188 3209.375 L 10507.5 3180.507812 L 10550.585938 3152.460938 L 10593.59375 3125.546875 L 10636.601562 3099.921875 L 10679.6875 3075.898438 L 10722.695312 3053.554688 " transform="matrix(0.1,0,0,-0.1,0,422)"/>
<path style=" stroke:none;fill-rule:nonzero;fill:rgb(0%,0%,100%);fill-opacity:1;" d="M 30.578125 160.597656 L 28.648438 168.320312 C 28.21875 169.609375 27.464844 170.683594 26.394531 171.539062 C 25.535156 172.183594 24.675781 172.503906 23.820312 172.503906 C 22.960938 172.503906 22.316406 172.183594 21.886719 171.539062 C 21.671875 171.324219 21.566406 171.109375 21.566406 170.894531 C 21.566406 170.039062 21.886719 169.609375 22.53125 169.609375 C 22.53125 169.394531 22.636719 169.285156 22.851562 169.285156 C 23.28125 169.285156 23.496094 169.503906 23.496094 169.929688 C 23.496094 169.929688 23.496094 170.039062 23.496094 170.253906 C 23.496094 170.46875 23.390625 170.683594 23.175781 170.894531 C 22.960938 171.109375 22.636719 171.21875 22.210938 171.21875 C 22.421875 171.863281 22.960938 172.183594 23.820312 172.183594 C 24.675781 172.183594 25.425781 171.753906 26.070312 170.894531 C 26.714844 170.039062 27.144531 169.070312 27.359375 168 C 27.359375 167.785156 27.359375 167.679688 27.359375 167.679688 C 26.714844 168.320312 26.070312 168.644531 25.425781 168.644531 C 24.355469 168.644531 23.605469 168.214844 23.175781 167.355469 C 22.960938 166.925781 22.851562 166.496094 22.851562 166.066406 C 22.851562 165.425781 23.175781 164.03125 23.820312 161.882812 C 23.820312 161.882812 23.925781 161.882812 24.140625 161.882812 C 24.355469 161.238281 24.460938 160.703125 24.460938 160.273438 C 24.460938 159.84375 24.246094 159.632812 23.820312 159.632812 C 23.175781 159.632812 22.53125 160.273438 21.886719 161.5625 C 21.886719 161.777344 21.886719 161.992188 21.886719 162.207031 C 21.671875 162.421875 21.566406 162.527344 21.566406 162.527344 C 21.351562 162.527344 21.242188 162.527344 21.242188 162.527344 C 21.242188 162.097656 21.351562 161.667969 21.566406 161.238281 C 22.210938 159.953125 22.960938 159.308594 23.820312 159.308594 C 24.675781 159.308594 25.214844 159.632812 25.425781 160.273438 C 25.640625 160.488281 25.75 160.703125 25.75 160.917969 C 25.75 161.132812 25.535156 161.667969 25.105469 162.527344 C 24.460938 164.242188 24.140625 165.53125 24.140625 166.390625 C 24.140625 167.464844 24.570312 168 25.425781 168 C 26.285156 168 26.929688 167.570312 27.359375 166.710938 C 27.574219 166.496094 27.679688 166.390625 27.679688 166.390625 L 28.648438 162.527344 C 28.859375 162.097656 28.96875 161.5625 28.96875 160.917969 C 29.183594 160.273438 29.289062 159.953125 29.289062 159.953125 C 29.503906 159.523438 29.828125 159.308594 30.257812 159.308594 C 30.46875 159.523438 30.578125 159.738281 30.578125 159.953125 C 30.578125 160.167969 30.578125 160.382812 30.578125 160.597656 "/>
<path style=" stroke:none;fill-rule:nonzero;fill:rgb(0%,0%,100%);fill-opacity:1;" d="M 51.324219 161.5625 L 39.09375 161.5625 C 38.664062 161.5625 38.449219 161.453125 38.449219 161.238281 C 38.449219 161.023438 38.664062 160.917969 39.09375 160.917969 L 51.324219 160.917969 C 51.753906 160.917969 51.96875 161.023438 51.96875 161.238281 C 51.96875 161.453125 51.753906 161.5625 51.324219 161.5625 Z M 51.324219 165.425781 L 39.09375 165.425781 C 38.664062 165.425781 38.449219 165.316406 38.449219 165.101562 C 38.449219 164.886719 38.664062 164.78125 39.09375 164.78125 L 51.324219 164.78125 C 51.753906 164.78125 51.96875 164.886719 51.96875 165.101562 C 51.96875 165.316406 51.753906 165.425781 51.324219 165.425781 "/>
<path style=" stroke:none;fill-rule:nonzero;fill:rgb(0%,0%,100%);fill-opacity:1;" d="M 60.835938 167.035156 L 61.800781 162.207031 C 62.015625 161.347656 62.125 160.8125 62.125 160.597656 C 62.125 159.953125 61.910156 159.632812 61.480469 159.632812 C 61.050781 159.632812 60.621094 160.273438 60.191406 161.5625 C 60.191406 161.777344 60.191406 161.992188 60.191406 162.207031 C 59.976562 162.421875 59.871094 162.527344 59.871094 162.527344 C 59.65625 162.527344 59.546875 162.527344 59.546875 162.527344 C 59.546875 162.3125 59.65625 161.777344 59.871094 160.917969 C 59.871094 160.703125 59.976562 160.488281 60.191406 160.273438 C 60.40625 159.632812 60.835938 159.308594 61.480469 159.308594 C 61.480469 159.308594 61.585938 159.308594 61.800781 159.308594 C 62.445312 159.308594 62.980469 159.632812 63.410156 160.273438 C 63.410156 160.273438 63.410156 160.382812 63.410156 160.597656 C 63.410156 160.597656 63.410156 160.703125 63.410156 160.917969 C 64.269531 159.84375 65.234375 159.308594 66.308594 159.308594 C 66.953125 159.308594 67.382812 159.523438 67.59375 159.953125 C 67.808594 160.167969 67.917969 160.382812 67.917969 160.597656 C 67.917969 161.023438 67.703125 161.347656 67.273438 161.5625 C 67.058594 161.777344 66.84375 161.882812 66.628906 161.882812 C 66.199219 161.882812 65.984375 161.667969 65.984375 161.238281 C 65.984375 161.238281 65.984375 161.132812 65.984375 160.917969 C 65.984375 160.488281 66.199219 160.167969 66.628906 159.953125 C 66.84375 159.953125 66.953125 159.953125 66.953125 159.953125 L 66.628906 159.632812 C 66.414062 159.632812 66.308594 159.632812 66.308594 159.632812 C 65.664062 159.632812 65.019531 159.84375 64.375 160.273438 C 63.949219 160.703125 63.625 161.238281 63.410156 161.882812 L 62.765625 164.78125 L 61.800781 168 C 61.800781 168.429688 61.585938 168.644531 61.15625 168.644531 C 60.730469 168.429688 60.515625 168.214844 60.515625 168 C 60.515625 168 60.621094 167.679688 60.835938 167.035156 "/>
<path style=" stroke:none;fill-rule:nonzero;fill:rgb(0%,0%,100%);fill-opacity:1;" d="M 75.53125 173.148438 C 75.53125 173.363281 75.53125 173.472656 75.53125 173.472656 C 75.316406 173.472656 74.886719 173.148438 74.242188 172.503906 C 73.382812 171.648438 72.742188 170.683594 72.3125 169.609375 C 71.238281 167.679688 70.703125 165.53125 70.703125 163.171875 C 70.703125 160.8125 71.132812 158.664062 71.988281 156.734375 C 72.847656 155.230469 73.8125 154.050781 74.886719 153.191406 C 75.101562 152.980469 75.316406 152.871094 75.53125 152.871094 C 75.53125 152.871094 75.53125 152.980469 75.53125 153.191406 C 75.53125 153.191406 75.421875 153.300781 75.207031 153.515625 C 73.0625 155.660156 71.988281 158.878906 71.988281 163.171875 C 71.988281 167.464844 73.0625 170.683594 75.207031 172.828125 C 75.421875 173.042969 75.53125 173.148438 75.53125 173.148438 "/>
<path style=" stroke:none;fill-rule:nonzero;fill:rgb(0%,0%,100%);fill-opacity:1;" d="M 80.964844 159.953125 L 79.355469 166.066406 C 79.355469 166.496094 79.355469 166.820312 79.355469 167.035156 C 79.355469 167.679688 79.570312 168 80 168 C 80.859375 168 81.609375 167.355469 82.253906 166.066406 L 82.574219 165.425781 C 82.789062 165.210938 82.898438 165.101562 82.898438 165.101562 C 83.113281 165.101562 83.21875 165.210938 83.21875 165.425781 C 83.21875 165.640625 83.003906 165.960938 82.574219 166.390625 C 81.929688 167.890625 81.074219 168.644531 80 168.644531 C 79.140625 168.644531 78.605469 168.320312 78.390625 167.679688 C 78.175781 167.246094 78.070312 166.925781 78.070312 166.710938 C 78.070312 166.496094 78.5 164.671875 79.355469 161.238281 L 79.679688 159.953125 L 77.746094 159.953125 C 77.53125 159.953125 77.425781 159.953125 77.425781 159.953125 L 77.105469 159.953125 C 77.105469 159.738281 77.210938 159.523438 77.425781 159.308594 L 79.679688 159.308594 L 80.644531 156.089844 C 80.644531 155.660156 80.859375 155.445312 81.289062 155.445312 C 81.71875 155.445312 81.929688 155.660156 81.929688 156.089844 C 81.929688 156.089844 81.71875 157.164062 81.289062 159.308594 L 82.898438 159.308594 C 83.328125 159.308594 83.539062 159.414062 83.539062 159.632812 C 83.539062 159.84375 83.433594 159.953125 83.21875 159.953125 L 80.964844 159.953125 "/>
<path style=" stroke:none;fill-rule:nonzero;fill:rgb(0%,0%,100%);fill-opacity:1;" d="M 90.015625 163.171875 C 90.015625 165.53125 89.585938 167.679688 88.726562 169.609375 C 88.082031 171.109375 87.226562 172.289062 86.152344 173.148438 C 85.9375 173.363281 85.722656 173.472656 85.507812 173.472656 C 85.507812 173.472656 85.507812 173.363281 85.507812 173.148438 C 85.507812 173.148438 85.507812 173.042969 85.507812 172.828125 C 87.867188 170.683594 89.046875 167.464844 89.046875 163.171875 C 89.046875 158.878906 87.976562 155.660156 85.832031 153.515625 C 85.617188 153.300781 85.507812 153.191406 85.507812 153.191406 C 85.507812 152.980469 85.507812 152.871094 85.507812 152.871094 C 85.722656 152.871094 86.152344 153.191406 86.796875 153.835938 C 87.652344 154.695312 88.296875 155.660156 88.726562 156.734375 C 89.585938 158.664062 90.015625 160.8125 90.015625 163.171875 "/>
<path style=" stroke:none;fill-rule:nonzero;fill:rgb(0%,0%,0%);fill-opacity:1;" d="M 106.835938 50.957031 L 106.835938 41.757812 L 108.503906 41.757812 L 108.503906 43.484375 C 109.316406 42.199219 110.363281 41.554688 111.636719 41.554688 C 112.867188 41.554688 113.707031 42.199219 114.152344 43.484375 C 114.945312 42.191406 115.972656 41.546875 117.238281 41.546875 C 118.050781 41.546875 118.679688 41.785156 119.125 42.261719 C 119.570312 42.738281 119.796875 43.40625 119.796875 44.265625 L 119.796875 50.957031 L 118.117188 50.957031 L 118.117188 44.527344 C 118.117188 43.476562 117.703125 42.953125 116.871094 42.953125 C 116.007812 42.953125 115.101562 43.566406 114.152344 44.789062 L 114.152344 50.957031 L 112.476562 50.957031 L 112.476562 44.527344 C 112.476562 43.472656 112.054688 42.945312 111.207031 42.945312 C 110.363281 42.945312 109.464844 43.558594 108.503906 44.789062 L 108.503906 50.957031 Z M 129.839844 50.660156 C 128.722656 51 127.765625 51.167969 126.96875 51.167969 C 125.613281 51.167969 124.507812 50.71875 123.652344 49.816406 C 122.796875 48.917969 122.371094 47.75 122.371094 46.316406 C 122.371094 44.921875 122.746094 43.777344 123.5 42.886719 C 124.253906 41.992188 125.21875 41.546875 126.394531 41.546875 C 127.507812 41.546875 128.367188 41.941406 128.972656 42.730469 C 129.578125 43.523438 129.882812 44.648438 129.882812 46.105469 L 129.875 46.621094 L 124.074219 46.621094 C 124.316406 48.804688 125.386719 49.898438 127.28125 49.898438 C 127.976562 49.898438 128.828125 49.710938 129.839844 49.339844 Z M 124.148438 45.367188 L 128.207031 45.367188 C 128.207031 43.65625 127.566406 42.800781 126.292969 42.800781 C 125.011719 42.800781 124.296875 43.65625 124.148438 45.367188 Z M 132.890625 54.015625 L 133.085938 52.566406 C 134.050781 53.023438 135.003906 53.253906 135.9375 53.253906 C 137.820312 53.253906 138.761719 52.257812 138.761719 50.261719 L 138.761719 48.8125 C 138.144531 50.101562 137.132812 50.746094 135.726562 50.746094 C 134.628906 50.746094 133.75 50.34375 133.101562 49.542969 C 132.453125 48.742188 132.128906 47.660156 132.128906 46.296875 C 132.128906 44.898438 132.496094 43.757812 133.238281 42.878906 C 133.976562 41.996094 134.933594 41.554688 136.109375 41.554688 C 137.136719 41.554688 138.019531 41.972656 138.761719 42.808594 L 138.761719 41.757812 L 140.4375 41.757812 L 140.4375 48.449219 C 140.4375 49.890625 140.363281 50.957031 140.214844 51.648438 C 140.0625 52.339844 139.78125 52.90625 139.371094 53.347656 C 138.640625 54.121094 137.507812 54.507812 135.972656 54.507812 C 134.898438 54.507812 133.871094 54.34375 132.890625 54.015625 Z M 138.761719 47.773438 L 138.761719 43.953125 C 138.027344 43.191406 137.226562 42.808594 136.363281 42.808594 C 135.59375 42.808594 134.992188 43.117188 134.558594 43.730469 C 134.125 44.347656 133.90625 45.191406 133.90625 46.265625 C 133.90625 48.28125 134.613281 49.289062 136.03125 49.289062 C 136.996094 49.289062 137.90625 48.78125 138.761719 47.773438 Z M 148.441406 49.789062 C 147.441406 50.710938 146.480469 51.167969 145.554688 51.167969 C 144.789062 51.167969 144.160156 50.929688 143.65625 50.453125 C 143.152344 49.976562 142.902344 49.371094 142.902344 48.644531 C 142.902344 47.640625 143.324219 46.867188 144.167969 46.328125 C 145.011719 45.789062 146.222656 45.519531 147.796875 45.519531 L 148.195312 45.519531 L 148.195312 44.410156 C 148.195312 43.34375 147.648438 42.808594 146.554688 42.808594 C 145.671875 42.808594 144.71875 43.078125 143.699219 43.621094 L 143.699219 42.242188 C 144.820312 41.785156 145.875 41.554688 146.859375 41.554688 C 147.886719 41.554688 148.644531 41.785156 149.132812 42.25 C 149.621094 42.714844 149.863281 43.433594 149.863281 44.410156 L 149.863281 48.578125 C 149.863281 49.53125 150.15625 50.007812 150.746094 50.007812 C 150.820312 50.007812 150.925781 49.996094 151.066406 49.976562 L 151.1875 50.898438 C 150.808594 51.078125 150.390625 51.167969 149.933594 51.167969 C 149.152344 51.167969 148.65625 50.710938 148.441406 49.789062 Z M 148.195312 48.882812 L 148.195312 46.503906 L 147.636719 46.484375 C 146.722656 46.484375 145.980469 46.660156 145.417969 47.007812 C 144.851562 47.351562 144.570312 47.808594 144.570312 48.375 C 144.570312 48.773438 144.710938 49.113281 144.992188 49.390625 C 145.277344 49.667969 145.621094 49.804688 146.027344 49.804688 C 146.722656 49.804688 147.445312 49.496094 148.195312 48.882812 Z M 154.523438 50.957031 L 151.890625 41.757812 L 153.523438 41.757812 L 155.539062 48.882812 L 157.714844 41.757812 L 159.386719 41.757812 L 161.289062 48.882812 L 163.605469 41.757812 L 165.035156 41.757812 L 162.035156 50.957031 L 160.359375 50.957031 L 158.410156 43.835938 L 156.210938 50.957031 Z M 171.210938 49.789062 C 170.210938 50.710938 169.246094 51.167969 168.320312 51.167969 C 167.558594 51.167969 166.925781 50.929688 166.425781 50.453125 C 165.921875 49.976562 165.671875 49.371094 165.671875 48.644531 C 165.671875 47.640625 166.09375 46.867188 166.9375 46.328125 C 167.78125 45.789062 168.992188 45.519531 170.566406 45.519531 L 170.964844 45.519531 L 170.964844 44.410156 C 170.964844 43.34375 170.414062 42.808594 169.320312 42.808594 C 168.441406 42.808594 167.488281 43.078125 166.464844 43.621094 L 166.464844 42.242188 C 167.589844 41.785156 168.644531 41.554688 169.625 41.554688 C 170.652344 41.554688 171.410156 41.785156 171.898438 42.25 C 172.386719 42.714844 172.632812 43.433594 172.632812 44.410156 L 172.632812 48.578125 C 172.632812 49.53125 172.925781 50.007812 173.515625 50.007812 C 173.585938 50.007812 173.695312 49.996094 173.835938 49.976562 L 173.953125 50.898438 C 173.574219 51.078125 173.15625 51.167969 172.699219 51.167969 C 171.921875 51.167969 171.425781 50.710938 171.210938 49.789062 Z M 170.964844 48.882812 L 170.964844 46.503906 L 170.40625 46.484375 C 169.488281 46.484375 168.75 46.660156 168.1875 47.007812 C 167.621094 47.351562 167.339844 47.808594 167.339844 48.375 C 167.339844 48.773438 167.480469 49.113281 167.761719 49.390625 C 168.046875 49.667969 168.390625 49.804688 168.796875 49.804688 C 169.488281 49.804688 170.214844 49.496094 170.964844 48.882812 Z M 178.984375 51.167969 C 178.136719 51.167969 177.476562 50.925781 177.003906 50.441406 C 176.527344 49.953125 176.292969 49.28125 176.292969 48.414062 L 176.292969 43.011719 L 175.140625 43.011719 L 175.140625 41.757812 L 176.292969 41.757812 L 176.292969 40.089844 L 177.960938 39.929688 L 177.960938 41.757812 L 180.367188 41.757812 L 180.367188 43.011719 L 177.960938 43.011719 L 177.960938 48.109375 C 177.960938 49.3125 178.480469 49.914062 179.519531 49.914062 C 179.738281 49.914062 180.007812 49.878906 180.324219 49.804688 L 180.324219 50.957031 C 179.808594 51.097656 179.363281 51.167969 178.984375 51.167969 Z M 185.492188 51.167969 C 184.644531 51.167969 183.984375 50.925781 183.507812 50.441406 C 183.035156 49.953125 182.796875 49.28125 182.796875 48.414062 L 182.796875 43.011719 L 181.644531 43.011719 L 181.644531 41.757812 L 182.796875 41.757812 L 182.796875 40.089844 L 184.464844 39.929688 L 184.464844 41.757812 L 186.871094 41.757812 L 186.871094 43.011719 L 184.464844 43.011719 L 184.464844 48.109375 C 184.464844 49.3125 184.984375 49.914062 186.023438 49.914062 C 186.246094 49.914062 186.511719 49.878906 186.828125 49.804688 L 186.828125 50.957031 C 186.316406 51.097656 185.867188 51.167969 185.492188 51.167969 Z M 191.675781 51.167969 C 190.910156 51.167969 189.984375 50.992188 188.894531 50.636719 L 188.894531 49.101562 C 189.984375 49.644531 190.933594 49.914062 191.742188 49.914062 C 192.222656 49.914062 192.621094 49.785156 192.9375 49.527344 C 193.253906 49.265625 193.410156 48.941406 193.410156 48.550781 C 193.410156 47.980469 192.96875 47.511719 192.078125 47.136719 L 191.105469 46.722656 C 189.664062 46.121094 188.945312 45.261719 188.945312 44.140625 C 188.945312 43.335938 189.230469 42.707031 189.796875 42.246094 C 190.363281 41.785156 191.144531 41.554688 192.132812 41.554688 C 192.644531 41.554688 193.28125 41.625 194.035156 41.765625 L 194.382812 41.835938 L 194.382812 43.222656 C 193.453125 42.945312 192.714844 42.808594 192.164062 42.808594 C 191.09375 42.808594 190.554688 43.199219 190.554688 43.976562 C 190.554688 44.480469 190.964844 44.902344 191.773438 45.246094 L 192.578125 45.585938 C 193.488281 45.972656 194.132812 46.375 194.511719 46.800781 C 194.890625 47.230469 195.078125 47.761719 195.078125 48.398438 C 195.078125 49.207031 194.761719 49.871094 194.121094 50.390625 C 193.484375 50.910156 192.667969 51.167969 191.675781 51.167969 "/>
<path style=" stroke:none;fill-rule:nonzero;fill:rgb(0%,0%,0%);fill-opacity:1;" d="M 687.964844 335.015625 L 687.964844 321.640625 L 689.632812 321.640625 L 689.632812 327.546875 C 690.515625 326.257812 691.59375 325.613281 692.867188 325.613281 C 693.664062 325.613281 694.300781 325.867188 694.773438 326.371094 C 695.25 326.878906 695.484375 327.558594 695.484375 328.410156 L 695.484375 335.015625 L 693.816406 335.015625 L 693.816406 328.953125 C 693.816406 328.269531 693.71875 327.78125 693.515625 327.492188 C 693.316406 327.199219 692.984375 327.054688 692.519531 327.054688 C 691.5 327.054688 690.535156 327.722656 689.632812 329.0625 L 689.632812 335.015625 Z M 702.40625 335.226562 C 701.089844 335.226562 700.039062 334.792969 699.253906 333.917969 C 698.46875 333.046875 698.078125 331.878906 698.078125 330.417969 C 698.078125 328.9375 698.472656 327.765625 699.257812 326.90625 C 700.046875 326.042969 701.117188 325.613281 702.464844 325.613281 C 703.816406 325.613281 704.882812 326.042969 705.671875 326.90625 C 706.460938 327.765625 706.851562 328.933594 706.851562 330.398438 C 706.851562 331.902344 706.457031 333.082031 705.667969 333.941406 C 704.878906 334.796875 703.789062 335.226562 702.40625 335.226562 Z M 702.433594 333.972656 C 704.199219 333.972656 705.082031 332.78125 705.082031 330.398438 C 705.082031 328.046875 704.210938 326.867188 702.464844 326.867188 C 700.726562 326.867188 699.855469 328.050781 699.855469 330.417969 C 699.855469 332.789062 700.714844 333.972656 702.433594 333.972656 Z M 715.398438 335.015625 L 715.398438 333.289062 C 714.511719 334.582031 713.4375 335.226562 712.171875 335.226562 C 711.371094 335.226562 710.730469 334.976562 710.257812 334.46875 C 709.785156 333.964844 709.546875 333.28125 709.546875 332.425781 L 709.546875 325.816406 L 711.214844 325.816406 L 711.214844 331.882812 C 711.214844 332.570312 711.316406 333.0625 711.515625 333.351562 C 711.714844 333.644531 712.050781 333.789062 712.519531 333.789062 C 713.535156 333.789062 714.496094 333.117188 715.398438 331.78125 L 715.398438 325.816406 L 717.066406 325.816406 L 717.066406 335.015625 Z M 720.488281 335.015625 L 720.488281 325.816406 L 722.160156 325.816406 L 722.160156 327.546875 C 722.820312 326.257812 723.777344 325.613281 725.039062 325.613281 C 725.207031 325.613281 725.386719 325.628906 725.570312 325.65625 L 725.570312 327.214844 C 725.285156 327.117188 725.03125 327.070312 724.808594 327.070312 C 723.753906 327.070312 722.871094 327.699219 722.160156 328.953125 L 722.160156 335.015625 Z M 730.519531 335.226562 C 729.757812 335.226562 728.828125 335.050781 727.742188 334.695312 L 727.742188 333.160156 C 728.828125 333.703125 729.777344 333.972656 730.585938 333.972656 C 731.066406 333.972656 731.464844 333.84375 731.78125 333.585938 C 732.097656 333.324219 732.253906 333 732.253906 332.609375 C 732.253906 332.039062 731.8125 331.570312 730.925781 331.195312 L 729.953125 330.78125 C 728.511719 330.183594 727.789062 329.320312 727.789062 328.199219 C 727.789062 327.394531 728.074219 326.765625 728.644531 326.304688 C 729.210938 325.84375 729.988281 325.613281 730.976562 325.613281 C 731.488281 325.613281 732.125 325.683594 732.882812 325.828125 L 733.230469 325.894531 L 733.230469 327.28125 C 732.296875 327.007812 731.558594 326.867188 731.011719 326.867188 C 729.9375 326.867188 729.402344 327.257812 729.402344 328.035156 C 729.402344 328.539062 729.808594 328.964844 730.621094 329.308594 L 731.425781 329.644531 C 732.335938 330.03125 732.976562 330.433594 733.355469 330.863281 C 733.734375 331.289062 733.925781 331.820312 733.925781 332.457031 C 733.925781 333.265625 733.605469 333.929688 732.96875 334.449219 C 732.328125 334.96875 731.511719 335.226562 730.519531 335.226562 "/>
</g>
</svg>
