<?xml version="1.0" encoding="UTF-8"?>
<svg xmlns="http://www.w3.org/2000/svg" xmlns:xlink="http://www.w3.org/1999/xlink" width="120pt" height="118pt" viewBox="0 0 120 118" version="1.1">
<g id="surface1">
<rect x="0" y="0" width="120" height="118" style="fill:rgb(100%,100%,100%);fill-opacity:1;stroke:none;"/>
<path style="fill:none;stroke-width:10;stroke-linecap:round;stroke-linejoin:round;stroke:rgb(75.389099%,75.389099%,75.389099%);stroke-opacity:1;stroke-miterlimit:10;" d="M 36.523438 1356.875 L 36.523438 -208.398438 " transform="matrix(0.1,0,0,-0.1,0,118)"/>
<path style="fill:none;stroke-width:10;stroke-linecap:round;stroke-linejoin:round;stroke:rgb(75.389099%,75.389099%,75.389099%);stroke-opacity:1;stroke-miterlimit:10;" d="M 320 1356.875 L 320 -208.398438 " transform="matrix(0.1,0,0,-0.1,0,118)"/>
<path style="fill:none;stroke-width:10;stroke-linecap:round;stroke-linejoin:round;stroke:rgb(75.389099%,75.389099%,75.389099%);stroke-opacity:1;stroke-miterlimit:10;" d="M 886.914062 1356.875 L 886.914062 -208.398438 " transform="matrix(0.1,0,0,-0.1,0,118)"/>
<path style="fill:none;stroke-width:10;stroke-linecap:round;stroke-linejoin:round;stroke:rgb(75.389099%,75.389099%,75.389099%);stroke-opacity:1;stroke-miterlimit:10;" d="M 1170.390625 1356.875 L 1170.390625 -208.398438 " transform="matrix(0.1,0,0,-0.1,0,118)"/>
<path style="fill:none;stroke-width:10;stroke-linecap:round;stroke-linejoin:round;stroke:rgb(94.139099%,94.139099%,94.139099%);stroke-opacity:1;stroke-miterlimit:10;" d="M 93.242188 1356.875 L 93.242188 -208.398438 " transform="matrix(0.1,0,0,-0.1,0,118)"/>
<path style="fill:none;stroke-width:10;stroke-linecap:round;stroke-linejoin:round;stroke:rgb(94.139099%,94.139099%,94.139099%);stroke-opacity:1;stroke-miterlimit:10;" d="M 149.921875 1356.875 L 149.921875 -208.398438 " transform="matrix(0.1,0,0,-0.1,0,118)"/>
<path style="fill:none;stroke-width:10;stroke-linecap:round;stroke-linejoin:round;stroke:rgb(94.139099%,94.139099%,94.139099%);stroke-opacity:1;stroke-miterlimit:10;" d="M 206.601562 1356.875 L 206.601562 -208.398438 " transform="matrix(0.1,0,0,-0.1,0,118)"/>
<path style="fill:none;stroke-width:10;stroke-linecap:round;stroke-linejoin:round;stroke:rgb(94.139099%,94.139099%,94.139099%);stroke-opacity:1;stroke-miterlimit:10;" d="M 263.320312 1356.875 L 263.320312 -208.398438 " transform="matrix(0.1,0,0,-0.1,0,118)"/>
<path style="fill:none;stroke-width:10;stroke-linecap:round;stroke-linejoin:round;stroke:rgb(94.139099%,94.139099%,94.139099%);stroke-opacity:1;stroke-miterlimit:10;" d="M 376.679688 1356.875 L 376.679688 -208.398438 " transform="matrix(0.1,0,0,-0.1,0,118)"/>
<path style="fill:none;stroke-width:10;stroke-linecap:round;stroke-linejoin:round;stroke:rgb(94.139099%,94.139099%,94.139099%);stroke-opacity:1;stroke-miterlimit:10;" d="M 433.398438 1356.875 L 433.398438 -208.398438 " transform="matrix(0.1,0,0,-0.1,0,118)"/>
<path style="fill:none;stroke-width:10;stroke-linecap:round;stroke-linejoin:round;stroke:rgb(94.139099%,94.139099%,94.139099%);stroke-opacity:1;stroke-miterlimit:10;" d="M 490.078125 1356.875 L 490.078125 -208.398438 " transform="matrix(0.1,0,0,-0.1,0,118)"/>
<path style="fill:none;stroke-width:10;stroke-linecap:round;stroke-linejoin:round;stroke:rgb(94.139099%,94.139099%,94.139099%);stroke-opacity:1;stroke-miterlimit:10;" d="M 546.757812 1356.875 L 546.757812 -208.398438 " transform="matrix(0.1,0,0,-0.1,0,118)"/>
<path style="fill:none;stroke-width:10;stroke-linecap:round;stroke-linejoin:round;stroke:rgb(94.139099%,94.139099%,94.139099%);stroke-opacity:1;stroke-miterlimit:10;" d="M 660.15625 1356.875 L 660.15625 -208.398438 " transform="matrix(0.1,0,0,-0.1,0,118)"/>
<path style="fill:none;stroke-width:10;stroke-linecap:round;stroke-linejoin:round;stroke:rgb(94.139099%,94.139099%,94.139099%);stroke-opacity:1;stroke-miterlimit:10;" d="M 716.835938 1356.875 L 716.835938 -208.398438 " transform="matrix(0.1,0,0,-0.1,0,118)"/>
<path style="fill:none;stroke-width:10;stroke-linecap:round;stroke-linejoin:round;stroke:rgb(94.139099%,94.139099%,94.139099%);stroke-opacity:1;stroke-miterlimit:10;" d="M 773.515625 1356.875 L 773.515625 -208.398438 " transform="matrix(0.1,0,0,-0.1,0,118)"/>
<path style="fill:none;stroke-width:10;stroke-linecap:round;stroke-linejoin:round;stroke:rgb(94.139099%,94.139099%,94.139099%);stroke-opacity:1;stroke-miterlimit:10;" d="M 830.234375 1356.875 L 830.234375 -208.398438 " transform="matrix(0.1,0,0,-0.1,0,118)"/>
<path style="fill:none;stroke-width:10;stroke-linecap:round;stroke-linejoin:round;stroke:rgb(94.139099%,94.139099%,94.139099%);stroke-opacity:1;stroke-miterlimit:10;" d="M 943.59375 1356.875 L 943.59375 -208.398438 " transform="matrix(0.1,0,0,-0.1,0,118)"/>
<path style="fill:none;stroke-width:10;stroke-linecap:round;stroke-linejoin:round;stroke:rgb(94.139099%,94.139099%,94.139099%);stroke-opacity:1;stroke-miterlimit:10;" d="M 1000.3125 1356.875 L 1000.3125 -208.398438 " transform="matrix(0.1,0,0,-0.1,0,118)"/>
<path style="fill:none;stroke-width:10;stroke-linecap:round;stroke-linejoin:round;stroke:rgb(94.139099%,94.139099%,94.139099%);stroke-opacity:1;stroke-miterlimit:10;" d="M 1056.992188 1356.875 L 1056.992188 -208.398438 " transform="matrix(0.1,0,0,-0.1,0,118)"/>
<path style="fill:none;stroke-width:10;stroke-linecap:round;stroke-linejoin:round;stroke:rgb(94.139099%,94.139099%,94.139099%);stroke-opacity:1;stroke-miterlimit:10;" d="M 1113.710938 1356.875 L 1113.710938 -208.398438 " transform="matrix(0.1,0,0,-0.1,0,118)"/>
<path style="fill:none;stroke-width:10;stroke-linecap:round;stroke-linejoin:round;stroke:rgb(75.389099%,75.389099%,75.389099%);stroke-opacity:1;stroke-miterlimit:10;" d="M -367.109375 1165.15625 L 1965.742188 1165.15625 " transform="matrix(0.1,0,0,-0.1,0,118)"/>
<path style="fill:none;stroke-width:10;stroke-linecap:round;stroke-linejoin:round;stroke:rgb(75.389099%,75.389099%,75.389099%);stroke-opacity:1;stroke-miterlimit:10;" d="M -367.109375 1165.15625 L 1965.742188 1165.15625 " transform="matrix(0.1,0,0,-0.1,0,118)"/>
<path style="fill:none;stroke-width:10;stroke-linecap:round;stroke-linejoin:round;stroke:rgb(75.389099%,75.389099%,75.389099%);stroke-opacity:1;stroke-miterlimit:10;" d="M -367.109375 881.71875 L 1965.742188 881.71875 " transform="matrix(0.1,0,0,-0.1,0,118)"/>
<path style="fill:none;stroke-width:10;stroke-linecap:round;stroke-linejoin:round;stroke:rgb(75.389099%,75.389099%,75.389099%);stroke-opacity:1;stroke-miterlimit:10;" d="M -367.109375 314.765625 L 1965.742188 314.765625 " transform="matrix(0.1,0,0,-0.1,0,118)"/>
<path style="fill:none;stroke-width:10;stroke-linecap:round;stroke-linejoin:round;stroke:rgb(75.389099%,75.389099%,75.389099%);stroke-opacity:1;stroke-miterlimit:10;" d="M -367.109375 31.328125 L 1965.742188 31.328125 " transform="matrix(0.1,0,0,-0.1,0,118)"/>
<path style="fill:none;stroke-width:10;stroke-linecap:round;stroke-linejoin:round;stroke:rgb(94.139099%,94.139099%,94.139099%);stroke-opacity:1;stroke-miterlimit:10;" d="M -367.109375 1108.476562 L 1965.742188 1108.476562 " transform="matrix(0.1,0,0,-0.1,0,118)"/>
<path style="fill:none;stroke-width:10;stroke-linecap:round;stroke-linejoin:round;stroke:rgb(94.139099%,94.139099%,94.139099%);stroke-opacity:1;stroke-miterlimit:10;" d="M -367.109375 1051.796875 L 1965.742188 1051.796875 " transform="matrix(0.1,0,0,-0.1,0,118)"/>
<path style="fill:none;stroke-width:10;stroke-linecap:round;stroke-linejoin:round;stroke:rgb(94.139099%,94.139099%,94.139099%);stroke-opacity:1;stroke-miterlimit:10;" d="M -367.109375 995.078125 L 1965.742188 995.078125 " transform="matrix(0.1,0,0,-0.1,0,118)"/>
<path style="fill:none;stroke-width:10;stroke-linecap:round;stroke-linejoin:round;stroke:rgb(94.139099%,94.139099%,94.139099%);stroke-opacity:1;stroke-miterlimit:10;" d="M -367.109375 938.398438 L 1965.742188 938.398438 " transform="matrix(0.1,0,0,-0.1,0,118)"/>
<path style="fill:none;stroke-width:10;stroke-linecap:round;stroke-linejoin:round;stroke:rgb(94.139099%,94.139099%,94.139099%);stroke-opacity:1;stroke-miterlimit:10;" d="M -367.109375 825 L 1965.742188 825 " transform="matrix(0.1,0,0,-0.1,0,118)"/>
<path style="fill:none;stroke-width:10;stroke-linecap:round;stroke-linejoin:round;stroke:rgb(94.139099%,94.139099%,94.139099%);stroke-opacity:1;stroke-miterlimit:10;" d="M -367.109375 768.320312 L 1965.742188 768.320312 " transform="matrix(0.1,0,0,-0.1,0,118)"/>
<path style="fill:none;stroke-width:10;stroke-linecap:round;stroke-linejoin:round;stroke:rgb(94.139099%,94.139099%,94.139099%);stroke-opacity:1;stroke-miterlimit:10;" d="M -367.109375 711.640625 L 1965.742188 711.640625 " transform="matrix(0.1,0,0,-0.1,0,118)"/>
<path style="fill:none;stroke-width:10;stroke-linecap:round;stroke-linejoin:round;stroke:rgb(94.139099%,94.139099%,94.139099%);stroke-opacity:1;stroke-miterlimit:10;" d="M -367.109375 654.921875 L 1965.742188 654.921875 " transform="matrix(0.1,0,0,-0.1,0,118)"/>
<path style="fill:none;stroke-width:10;stroke-linecap:round;stroke-linejoin:round;stroke:rgb(94.139099%,94.139099%,94.139099%);stroke-opacity:1;stroke-miterlimit:10;" d="M -367.109375 541.5625 L 1965.742188 541.5625 " transform="matrix(0.1,0,0,-0.1,0,118)"/>
<path style="fill:none;stroke-width:10;stroke-linecap:round;stroke-linejoin:round;stroke:rgb(94.139099%,94.139099%,94.139099%);stroke-opacity:1;stroke-miterlimit:10;" d="M -367.109375 484.84375 L 1965.742188 484.84375 " transform="matrix(0.1,0,0,-0.1,0,118)"/>
<path style="fill:none;stroke-width:10;stroke-linecap:round;stroke-linejoin:round;stroke:rgb(94.139099%,94.139099%,94.139099%);stroke-opacity:1;stroke-miterlimit:10;" d="M -367.109375 428.164062 L 1965.742188 428.164062 " transform="matrix(0.1,0,0,-0.1,0,118)"/>
<path style="fill:none;stroke-width:10;stroke-linecap:round;stroke-linejoin:round;stroke:rgb(94.139099%,94.139099%,94.139099%);stroke-opacity:1;stroke-miterlimit:10;" d="M -367.109375 371.484375 L 1965.742188 371.484375 " transform="matrix(0.1,0,0,-0.1,0,118)"/>
<path style="fill:none;stroke-width:10;stroke-linecap:round;stroke-linejoin:round;stroke:rgb(94.139099%,94.139099%,94.139099%);stroke-opacity:1;stroke-miterlimit:10;" d="M -367.109375 258.085938 L 1965.742188 258.085938 " transform="matrix(0.1,0,0,-0.1,0,118)"/>
<path style="fill:none;stroke-width:10;stroke-linecap:round;stroke-linejoin:round;stroke:rgb(94.139099%,94.139099%,94.139099%);stroke-opacity:1;stroke-miterlimit:10;" d="M -367.109375 201.40625 L 1965.742188 201.40625 " transform="matrix(0.1,0,0,-0.1,0,118)"/>
<path style="fill:none;stroke-width:10;stroke-linecap:round;stroke-linejoin:round;stroke:rgb(94.139099%,94.139099%,94.139099%);stroke-opacity:1;stroke-miterlimit:10;" d="M -367.109375 144.6875 L 1965.742188 144.6875 " transform="matrix(0.1,0,0,-0.1,0,118)"/>
<path style="fill:none;stroke-width:10;stroke-linecap:round;stroke-linejoin:round;stroke:rgb(94.139099%,94.139099%,94.139099%);stroke-opacity:1;stroke-miterlimit:10;" d="M -367.109375 88.007812 L 1965.742188 88.007812 " transform="matrix(0.1,0,0,-0.1,0,118)"/>
<path style="fill:none;stroke-width:10;stroke-linecap:butt;stroke-linejoin:miter;stroke:rgb(0%,0%,0%);stroke-opacity:1;stroke-miterlimit:10;" d="M 603.4375 1350.195312 L 603.4375 -208.398438 " transform="matrix(0.1,0,0,-0.1,0,118)"/>
<path style="fill:none;stroke-width:10;stroke-linecap:butt;stroke-linejoin:miter;stroke:rgb(0%,0%,0%);stroke-opacity:1;stroke-miterlimit:10;" d="M -367.109375 598.242188 L 1959.101562 598.242188 " transform="matrix(0.1,0,0,-0.1,0,118)"/>
<path style=" stroke:none;fill-rule:nonzero;fill:rgb(0%,0%,0%);fill-opacity:1;" d="M 1.875 62.347656 L 1.875 62.085938 L 3.464844 62.085938 L 3.464844 62.347656 Z M 4.003906 63.410156 L 4.003906 63.074219 C 4.117188 62.8125 4.34375 62.527344 4.683594 62.21875 L 4.90625 62.019531 C 5.1875 61.761719 5.332031 61.507812 5.332031 61.253906 C 5.332031 61.09375 5.28125 60.964844 5.1875 60.875 C 5.089844 60.78125 4.957031 60.734375 4.785156 60.734375 C 4.585938 60.734375 4.347656 60.8125 4.074219 60.96875 L 4.074219 60.628906 C 4.332031 60.507812 4.585938 60.445312 4.839844 60.445312 C 5.113281 60.445312 5.328125 60.519531 5.492188 60.664062 C 5.65625 60.808594 5.738281 61.003906 5.738281 61.246094 C 5.738281 61.417969 5.699219 61.574219 5.617188 61.707031 C 5.53125 61.839844 5.378906 62.003906 5.152344 62.195312 L 5.003906 62.324219 C 4.695312 62.585938 4.515625 62.835938 4.46875 63.074219 L 5.726562 63.074219 L 5.726562 63.410156 "/>
<path style=" stroke:none;fill-rule:nonzero;fill:rgb(0%,0%,0%);fill-opacity:1;" d="M 30.242188 62.347656 L 30.242188 62.085938 L 31.835938 62.085938 L 31.835938 62.347656 Z M 32.640625 63.410156 L 32.640625 63.121094 L 33.21875 63.121094 L 33.21875 60.839844 L 32.640625 60.984375 L 32.640625 60.683594 L 33.609375 60.445312 L 33.609375 63.121094 L 34.1875 63.121094 L 34.1875 63.410156 "/>
<path style=" stroke:none;fill-rule:nonzero;fill:rgb(0%,0%,0%);fill-opacity:1;" d="M 88.378906 63.410156 L 88.378906 63.121094 L 88.957031 63.121094 L 88.957031 60.839844 L 88.378906 60.984375 L 88.378906 60.683594 L 89.34375 60.445312 L 89.34375 63.121094 L 89.921875 63.121094 L 89.921875 63.410156 "/>
<path style=" stroke:none;fill-rule:nonzero;fill:rgb(0%,0%,0%);fill-opacity:1;" d="M 116.476562 63.410156 L 116.476562 63.074219 C 116.589844 62.8125 116.816406 62.527344 117.15625 62.21875 L 117.378906 62.019531 C 117.660156 61.761719 117.804688 61.507812 117.804688 61.253906 C 117.804688 61.09375 117.753906 60.964844 117.65625 60.875 C 117.5625 60.78125 117.429688 60.734375 117.257812 60.734375 C 117.058594 60.734375 116.820312 60.8125 116.546875 60.96875 L 116.546875 60.628906 C 116.804688 60.507812 117.058594 60.445312 117.3125 60.445312 C 117.585938 60.445312 117.800781 60.519531 117.964844 60.664062 C 118.128906 60.808594 118.214844 61.003906 118.214844 61.246094 C 118.214844 61.417969 118.171875 61.574219 118.089844 61.707031 C 118.003906 61.839844 117.851562 62.003906 117.625 62.195312 L 117.476562 62.324219 C 117.167969 62.585938 116.988281 62.835938 116.941406 63.074219 L 118.199219 63.074219 L 118.199219 63.410156 "/>
<path style=" stroke:none;fill-rule:nonzero;fill:rgb(0%,0%,0%);fill-opacity:1;" d="M 53.269531 115.414062 L 53.269531 115.148438 L 54.863281 115.148438 L 54.863281 115.414062 Z M 55.402344 116.476562 L 55.402344 116.140625 C 55.511719 115.875 55.738281 115.589844 56.082031 115.28125 L 56.300781 115.085938 C 56.585938 114.828125 56.726562 114.574219 56.726562 114.320312 C 56.726562 114.160156 56.679688 114.03125 56.582031 113.9375 C 56.484375 113.847656 56.351562 113.800781 56.183594 113.800781 C 55.980469 113.800781 55.746094 113.878906 55.472656 114.03125 L 55.472656 113.691406 C 55.730469 113.570312 55.984375 113.511719 56.238281 113.511719 C 56.507812 113.511719 56.726562 113.582031 56.890625 113.730469 C 57.054688 113.875 57.136719 114.070312 57.136719 114.3125 C 57.136719 114.484375 57.09375 114.636719 57.011719 114.773438 C 56.929688 114.90625 56.777344 115.070312 56.550781 115.261719 L 56.402344 115.386719 C 56.09375 115.648438 55.914062 115.898438 55.867188 116.140625 L 57.125 116.140625 L 57.125 116.476562 "/>
<path style=" stroke:none;fill-rule:nonzero;fill:rgb(0%,0%,0%);fill-opacity:1;" d="M 53.269531 87.046875 L 53.269531 86.78125 L 54.863281 86.78125 L 54.863281 87.046875 Z M 55.671875 88.109375 L 55.671875 87.820312 L 56.25 87.820312 L 56.25 85.535156 L 55.671875 85.679688 L 55.671875 85.382812 L 56.636719 85.140625 L 56.636719 87.820312 L 57.214844 87.820312 L 57.214844 88.109375 "/>
<path style=" stroke:none;fill-rule:nonzero;fill:rgb(0%,0%,0%);fill-opacity:1;" d="M 55.671875 31.371094 L 55.671875 31.082031 L 56.25 31.082031 L 56.25 28.796875 L 55.671875 28.945312 L 55.671875 28.644531 L 56.636719 28.40625 L 56.636719 31.082031 L 57.214844 31.082031 L 57.214844 31.371094 "/>
<path style=" stroke:none;fill-rule:nonzero;fill:rgb(0%,0%,0%);fill-opacity:1;" d="M 55.402344 3.003906 L 55.402344 2.664062 C 55.511719 2.402344 55.738281 2.117188 56.082031 1.808594 L 56.300781 1.609375 C 56.585938 1.355469 56.726562 1.101562 56.726562 0.847656 C 56.726562 0.683594 56.679688 0.558594 56.582031 0.464844 C 56.484375 0.371094 56.351562 0.328125 56.183594 0.328125 C 55.980469 0.328125 55.746094 0.402344 55.472656 0.558594 L 55.472656 0.21875 C 55.730469 0.0976562 55.984375 0.0351562 56.238281 0.0351562 C 56.507812 0.0351562 56.726562 0.109375 56.890625 0.257812 C 57.054688 0.402344 57.136719 0.597656 57.136719 0.835938 C 57.136719 1.011719 57.09375 1.164062 57.011719 1.296875 C 56.929688 1.433594 56.777344 1.597656 56.550781 1.785156 L 56.402344 1.914062 C 56.09375 2.175781 55.914062 2.425781 55.867188 2.664062 L 57.125 2.664062 L 57.125 3.003906 "/>
<path style=" stroke:none;fill-rule:nonzero;fill:rgb(0%,0%,0%);fill-opacity:1;" d="M 56.324219 63.484375 C 56.023438 63.484375 55.785156 63.34375 55.597656 63.0625 C 55.414062 62.78125 55.324219 62.414062 55.324219 61.960938 C 55.324219 61.507812 55.414062 61.140625 55.601562 60.863281 C 55.785156 60.585938 56.03125 60.445312 56.335938 60.445312 C 56.640625 60.445312 56.882812 60.585938 57.070312 60.863281 C 57.253906 61.140625 57.347656 61.503906 57.347656 61.957031 C 57.347656 62.421875 57.253906 62.792969 57.070312 63.070312 C 56.882812 63.34375 56.636719 63.484375 56.324219 63.484375 Z M 56.328125 63.195312 C 56.734375 63.195312 56.941406 62.78125 56.941406 61.949219 C 56.941406 61.140625 56.738281 60.734375 56.335938 60.734375 C 55.933594 60.734375 55.734375 61.144531 55.734375 61.960938 C 55.734375 62.785156 55.929688 63.195312 56.328125 63.195312 "/>
<path style="fill:none;stroke-width:25;stroke-linecap:round;stroke-linejoin:round;stroke:rgb(30.200195%,30.200195%,100%);stroke-opacity:1;stroke-miterlimit:10;" d="M 42.96875 -226.601562 L 47.5 -208.632812 L 52.070312 -190.859375 L 56.640625 -173.203125 L 61.171875 -155.664062 L 65.742188 -138.320312 L 70.3125 -121.09375 L 74.84375 -104.0625 L 79.414062 -87.109375 L 83.945312 -70.351562 L 88.515625 -53.710938 L 97.617188 -20.898438 L 106.757812 11.328125 L 115.859375 42.96875 L 124.960938 74.023438 L 134.101562 104.492188 L 143.203125 134.375 L 152.304688 163.671875 L 161.40625 192.382812 L 170.546875 220.507812 L 179.648438 248.046875 L 188.75 275.039062 L 197.890625 301.40625 L 206.992188 327.1875 L 216.09375 352.382812 L 225.234375 376.992188 L 234.335938 401.015625 L 243.4375 424.453125 L 252.539062 447.304688 L 261.679688 469.570312 L 270.78125 491.25 L 279.882812 512.34375 L 289.023438 532.851562 L 298.125 552.8125 L 307.226562 572.148438 L 316.328125 590.898438 L 325.46875 609.0625 L 334.570312 626.640625 L 343.671875 643.632812 L 361.914062 675.859375 L 380.117188 705.742188 L 398.359375 733.320312 L 416.5625 758.515625 L 434.804688 781.367188 L 453.046875 801.875 L 471.25 820.039062 L 489.492188 835.898438 L 507.695312 849.375 L 525.9375 860.507812 L 544.140625 869.296875 L 562.382812 875.742188 L 580.625 879.84375 L 598.828125 881.640625 L 617.070312 881.054688 L 635.273438 878.125 L 653.515625 872.851562 L 671.757812 865.273438 L 689.960938 855.3125 L 708.203125 843.007812 L 726.40625 828.359375 L 744.648438 811.367188 L 762.851562 792.070312 L 781.09375 770.390625 L 799.335938 746.367188 L 817.539062 720 L 835.78125 691.328125 L 853.984375 660.273438 L 863.125 643.867188 L 872.226562 626.875 L 881.328125 609.296875 L 890.429688 591.132812 L 899.570312 572.382812 L 908.671875 553.046875 L 917.773438 533.164062 L 926.914062 512.65625 L 936.015625 491.5625 L 945.117188 469.882812 L 954.21875 447.617188 L 963.359375 424.765625 L 972.460938 401.328125 L 981.5625 377.304688 L 990.703125 352.734375 L 999.804688 327.539062 L 1008.90625 301.757812 L 1018.046875 275.390625 L 1027.148438 248.4375 L 1036.25 220.898438 L 1045.351562 192.773438 L 1054.492188 164.0625 L 1063.59375 134.765625 L 1072.695312 104.921875 L 1081.835938 74.453125 L 1090.9375 43.398438 L 1100.039062 11.757812 L 1109.140625 -20.46875 L 1118.28125 -53.28125 L 1122.8125 -69.882812 L 1127.382812 -86.679688 L 1131.953125 -103.59375 L 1136.484375 -120.625 L 1141.054688 -137.851562 L 1145.625 -155.195312 L 1150.15625 -172.695312 L 1154.726562 -190.351562 L 1159.296875 -208.164062 L 1163.828125 -226.09375 " transform="matrix(0.1,0,0,-0.1,0,118)"/>
<path style=" stroke:none;fill-rule:nonzero;fill:rgb(0%,0%,100%);fill-opacity:1;" d="M 19.632812 107.03125 L 19.335938 109.113281 C 19.269531 109.375 19.171875 109.671875 19.039062 110.003906 C 19.039062 110.136719 19.007812 110.234375 18.941406 110.300781 C 18.808594 110.632812 18.609375 110.828125 18.34375 110.894531 C 18.34375 110.894531 18.3125 110.894531 18.246094 110.894531 C 18.046875 110.894531 17.882812 110.828125 17.75 110.699219 C 17.683594 110.632812 17.652344 110.566406 17.652344 110.5 C 17.652344 110.300781 17.75 110.167969 17.949219 110.101562 C 17.949219 110.101562 17.980469 110.101562 18.046875 110.101562 C 18.179688 110.101562 18.246094 110.136719 18.246094 110.203125 C 18.246094 110.269531 18.246094 110.300781 18.246094 110.300781 C 18.246094 110.433594 18.179688 110.53125 18.046875 110.597656 C 18.046875 110.597656 18.015625 110.632812 17.949219 110.699219 C 18.015625 110.761719 18.113281 110.796875 18.246094 110.796875 C 18.445312 110.796875 18.578125 110.566406 18.644531 110.101562 C 18.710938 110.035156 18.742188 109.9375 18.742188 109.804688 L 18.742188 109.605469 L 19.238281 107.03125 L 18.839844 107.03125 C 18.710938 107.03125 18.644531 107.03125 18.644531 107.03125 C 18.644531 106.964844 18.675781 106.898438 18.742188 106.832031 L 19.335938 106.832031 C 19.402344 106.304688 19.46875 105.972656 19.535156 105.84375 C 19.667969 105.445312 19.863281 105.214844 20.128906 105.148438 C 20.195312 105.148438 20.261719 105.148438 20.328125 105.148438 C 20.527344 105.148438 20.691406 105.214844 20.824219 105.347656 C 20.824219 105.414062 20.824219 105.480469 20.824219 105.542969 C 20.824219 105.742188 20.757812 105.875 20.625 105.941406 C 20.625 105.941406 20.589844 105.941406 20.527344 105.941406 C 20.394531 105.941406 20.328125 105.90625 20.328125 105.84375 C 20.261719 105.777344 20.226562 105.742188 20.226562 105.742188 C 20.226562 105.609375 20.292969 105.511719 20.425781 105.445312 C 20.492188 105.445312 20.558594 105.414062 20.625 105.347656 C 20.558594 105.28125 20.460938 105.246094 20.328125 105.246094 C 20.195312 105.246094 20.097656 105.3125 20.03125 105.445312 C 19.964844 105.511719 19.898438 105.742188 19.832031 106.140625 L 19.734375 106.832031 L 20.226562 106.832031 C 20.359375 106.832031 20.425781 106.867188 20.425781 106.933594 C 20.425781 107 20.394531 107.03125 20.328125 107.03125 L 19.632812 107.03125 "/>
<path style=" stroke:none;fill-rule:nonzero;fill:rgb(0%,0%,100%);fill-opacity:1;" d="M 23.222656 111.09375 C 23.222656 111.160156 23.222656 111.191406 23.222656 111.191406 C 23.15625 111.191406 23.023438 111.09375 22.828125 110.894531 C 22.5625 110.632812 22.363281 110.332031 22.230469 110.003906 C 21.902344 109.410156 21.734375 108.75 21.734375 108.023438 C 21.734375 107.296875 21.867188 106.636719 22.132812 106.039062 C 22.398438 105.578125 22.695312 105.214844 23.023438 104.949219 C 23.089844 104.882812 23.15625 104.851562 23.222656 104.851562 C 23.222656 104.851562 23.222656 104.882812 23.222656 104.949219 C 23.222656 104.949219 23.191406 104.984375 23.125 105.050781 C 22.464844 105.710938 22.132812 106.703125 22.132812 108.023438 C 22.132812 109.34375 22.464844 110.332031 23.125 110.996094 C 23.191406 111.0625 23.222656 111.09375 23.222656 111.09375 "/>
<path style=" stroke:none;fill-rule:nonzero;fill:rgb(0%,0%,100%);fill-opacity:1;" d="M 25.6875 107.726562 L 25.492188 108.519531 C 25.425781 108.847656 25.390625 109.046875 25.390625 109.113281 C 25.390625 109.308594 25.457031 109.441406 25.589844 109.507812 C 25.65625 109.507812 25.722656 109.507812 25.789062 109.507812 C 25.984375 109.507812 26.152344 109.410156 26.28125 109.210938 C 26.414062 109.078125 26.515625 108.914062 26.582031 108.714844 C 26.582031 108.648438 26.613281 108.617188 26.679688 108.617188 C 26.746094 108.617188 26.777344 108.648438 26.777344 108.714844 C 26.777344 108.78125 26.710938 108.914062 26.582031 109.113281 C 26.316406 109.507812 26.050781 109.707031 25.789062 109.707031 C 25.457031 109.707031 25.226562 109.574219 25.09375 109.308594 C 25.09375 109.242188 25.09375 109.210938 25.09375 109.210938 C 24.960938 109.410156 24.796875 109.542969 24.597656 109.605469 C 24.53125 109.671875 24.464844 109.707031 24.402344 109.707031 C 24.136719 109.707031 23.9375 109.605469 23.804688 109.410156 C 23.804688 109.410156 23.804688 109.34375 23.804688 109.210938 C 23.804688 109.078125 23.871094 108.980469 24.003906 108.914062 C 24.070312 108.914062 24.101562 108.914062 24.101562 108.914062 C 24.234375 108.914062 24.335938 108.945312 24.402344 109.011719 C 24.402344 109.078125 24.402344 109.113281 24.402344 109.113281 C 24.402344 109.242188 24.335938 109.34375 24.203125 109.410156 C 24.136719 109.410156 24.101562 109.410156 24.101562 109.410156 C 24.167969 109.476562 24.269531 109.507812 24.402344 109.507812 C 24.597656 109.507812 24.765625 109.375 24.894531 109.113281 C 24.960938 109.046875 24.996094 108.980469 24.996094 108.914062 C 25.195312 108.054688 25.292969 107.527344 25.292969 107.328125 C 25.292969 107.066406 25.195312 106.933594 24.996094 106.933594 C 24.796875 106.933594 24.597656 107.066406 24.402344 107.328125 C 24.335938 107.394531 24.269531 107.492188 24.203125 107.625 C 24.203125 107.625 24.203125 107.660156 24.203125 107.726562 L 24.101562 107.824219 C 24.035156 107.824219 24.003906 107.824219 24.003906 107.824219 C 24.003906 107.691406 24.070312 107.527344 24.203125 107.328125 C 24.402344 107 24.664062 106.832031 24.996094 106.832031 C 25.324219 106.832031 25.554688 107 25.6875 107.328125 C 25.820312 107.066406 25.984375 106.898438 26.183594 106.832031 C 26.25 106.832031 26.316406 106.832031 26.382812 106.832031 C 26.648438 106.832031 26.8125 106.898438 26.878906 107.03125 C 26.945312 107.097656 26.976562 107.164062 26.976562 107.230469 C 26.976562 107.425781 26.878906 107.527344 26.679688 107.527344 C 26.679688 107.59375 26.648438 107.625 26.582031 107.625 C 26.449219 107.625 26.382812 107.558594 26.382812 107.425781 C 26.382812 107.425781 26.382812 107.394531 26.382812 107.328125 C 26.382812 107.195312 26.449219 107.097656 26.582031 107.03125 C 26.582031 107.03125 26.613281 107.03125 26.679688 107.03125 C 26.613281 106.964844 26.515625 106.933594 26.382812 106.933594 C 26.050781 106.933594 25.855469 107.164062 25.789062 107.625 C 25.722656 107.625 25.6875 107.660156 25.6875 107.726562 "/>
<path style=" stroke:none;fill-rule:nonzero;fill:rgb(0%,0%,100%);fill-opacity:1;" d="M 29.015625 108.023438 C 29.015625 108.75 28.882812 109.410156 28.617188 110.003906 C 28.421875 110.464844 28.15625 110.828125 27.828125 111.09375 C 27.761719 111.160156 27.695312 111.191406 27.628906 111.191406 C 27.628906 111.191406 27.628906 111.160156 27.628906 111.09375 C 27.628906 111.09375 27.628906 111.0625 27.628906 110.996094 C 28.355469 110.332031 28.71875 109.34375 28.71875 108.023438 C 28.71875 106.703125 28.386719 105.710938 27.726562 105.050781 C 27.660156 104.984375 27.628906 104.949219 27.628906 104.949219 C 27.628906 104.882812 27.628906 104.851562 27.628906 104.851562 C 27.695312 104.851562 27.828125 104.949219 28.023438 105.148438 C 28.289062 105.414062 28.488281 105.710938 28.617188 106.039062 C 28.882812 106.636719 29.015625 107.296875 29.015625 108.023438 "/>
<path style=" stroke:none;fill-rule:nonzero;fill:rgb(0%,0%,100%);fill-opacity:1;" d="M 35.820312 107.527344 L 32.054688 107.527344 C 31.921875 107.527344 31.855469 107.492188 31.855469 107.425781 C 31.855469 107.363281 31.921875 107.328125 32.054688 107.328125 L 35.820312 107.328125 C 35.953125 107.328125 36.015625 107.363281 36.015625 107.425781 C 36.015625 107.492188 35.953125 107.527344 35.820312 107.527344 Z M 35.820312 108.714844 L 32.054688 108.714844 C 31.921875 108.714844 31.855469 108.683594 31.855469 108.617188 C 31.855469 108.550781 31.921875 108.519531 32.054688 108.519531 L 35.820312 108.519531 C 35.953125 108.519531 36.015625 108.550781 36.015625 108.617188 C 36.015625 108.683594 35.953125 108.714844 35.820312 108.714844 "/>
<path style=" stroke:none;fill-rule:nonzero;fill:rgb(0%,0%,100%);fill-opacity:1;" d="M 40.035156 105.542969 L 40.035156 109.113281 C 40.035156 109.242188 40.070312 109.308594 40.136719 109.308594 C 40.199219 109.375 40.367188 109.410156 40.628906 109.410156 L 40.828125 109.410156 L 40.828125 109.605469 C 40.695312 109.605469 40.332031 109.605469 39.738281 109.605469 C 39.210938 109.605469 38.878906 109.605469 38.746094 109.605469 L 38.746094 109.410156 L 38.945312 109.410156 C 39.277344 109.410156 39.472656 109.375 39.539062 109.308594 C 39.539062 109.242188 39.539062 109.179688 39.539062 109.113281 L 39.539062 105.84375 C 39.34375 105.90625 39.078125 105.941406 38.746094 105.941406 L 38.746094 105.742188 C 39.210938 105.742188 39.574219 105.609375 39.835938 105.347656 C 39.96875 105.347656 40.035156 105.378906 40.035156 105.445312 C 40.035156 105.445312 40.035156 105.480469 40.035156 105.542969 "/>
<path style=" stroke:none;fill-rule:nonzero;fill:rgb(0%,0%,100%);fill-opacity:1;" d="M 46.894531 108.121094 L 43.425781 108.121094 C 43.292969 108.121094 43.226562 108.089844 43.226562 108.023438 C 43.226562 107.957031 43.292969 107.921875 43.425781 107.921875 L 46.894531 107.921875 C 47.027344 107.921875 47.09375 107.957031 47.09375 108.023438 C 47.09375 108.089844 47.027344 108.121094 46.894531 108.121094 "/>
<path style=" stroke:none;fill-rule:nonzero;fill:rgb(0%,0%,100%);fill-opacity:1;" d="M 51.15625 107.726562 L 50.957031 108.519531 C 50.890625 108.847656 50.855469 109.046875 50.855469 109.113281 C 50.855469 109.308594 50.921875 109.441406 51.054688 109.507812 C 51.121094 109.507812 51.1875 109.507812 51.253906 109.507812 C 51.453125 109.507812 51.617188 109.410156 51.75 109.210938 C 51.882812 109.078125 51.980469 108.914062 52.046875 108.714844 C 52.046875 108.648438 52.078125 108.617188 52.144531 108.617188 C 52.210938 108.617188 52.246094 108.648438 52.246094 108.714844 C 52.246094 108.78125 52.179688 108.914062 52.046875 109.113281 C 51.78125 109.507812 51.519531 109.707031 51.253906 109.707031 C 50.921875 109.707031 50.691406 109.574219 50.558594 109.308594 C 50.558594 109.242188 50.558594 109.210938 50.558594 109.210938 C 50.429688 109.410156 50.261719 109.542969 50.066406 109.605469 C 50 109.671875 49.933594 109.707031 49.867188 109.707031 C 49.601562 109.707031 49.40625 109.605469 49.273438 109.410156 C 49.273438 109.410156 49.273438 109.34375 49.273438 109.210938 C 49.273438 109.078125 49.339844 108.980469 49.46875 108.914062 C 49.535156 108.914062 49.570312 108.914062 49.570312 108.914062 C 49.703125 108.914062 49.800781 108.945312 49.867188 109.011719 C 49.867188 109.078125 49.867188 109.113281 49.867188 109.113281 C 49.867188 109.242188 49.800781 109.34375 49.667969 109.410156 C 49.601562 109.410156 49.570312 109.410156 49.570312 109.410156 C 49.636719 109.476562 49.734375 109.507812 49.867188 109.507812 C 50.066406 109.507812 50.230469 109.375 50.363281 109.113281 C 50.429688 109.046875 50.460938 108.980469 50.460938 108.914062 C 50.660156 108.054688 50.757812 107.527344 50.757812 107.328125 C 50.757812 107.066406 50.660156 106.933594 50.460938 106.933594 C 50.261719 106.933594 50.066406 107.066406 49.867188 107.328125 C 49.800781 107.394531 49.734375 107.492188 49.667969 107.625 C 49.667969 107.625 49.667969 107.660156 49.667969 107.726562 L 49.570312 107.824219 C 49.503906 107.824219 49.46875 107.824219 49.46875 107.824219 C 49.46875 107.691406 49.535156 107.527344 49.667969 107.328125 C 49.867188 107 50.132812 106.832031 50.460938 106.832031 C 50.792969 106.832031 51.023438 107 51.15625 107.328125 C 51.285156 107.066406 51.453125 106.898438 51.648438 106.832031 C 51.714844 106.832031 51.78125 106.832031 51.847656 106.832031 C 52.113281 106.832031 52.277344 106.898438 52.34375 107.03125 C 52.410156 107.097656 52.441406 107.164062 52.441406 107.230469 C 52.441406 107.425781 52.34375 107.527344 52.144531 107.527344 C 52.144531 107.59375 52.113281 107.625 52.046875 107.625 C 51.914062 107.625 51.847656 107.558594 51.847656 107.425781 C 51.847656 107.425781 51.847656 107.394531 51.847656 107.328125 C 51.847656 107.195312 51.914062 107.097656 52.046875 107.03125 C 52.046875 107.03125 52.078125 107.03125 52.144531 107.03125 C 52.078125 106.964844 51.980469 106.933594 51.847656 106.933594 C 51.519531 106.933594 51.320312 107.164062 51.253906 107.625 C 51.1875 107.625 51.15625 107.660156 51.15625 107.726562 "/>
<path style=" stroke:none;fill-rule:nonzero;fill:rgb(0%,0%,100%);fill-opacity:1;" d="M 54.710938 106.226562 L 54.570312 106.988281 L 52.90625 106.988281 C 52.90625 106.898438 52.929688 106.851562 52.976562 106.851562 L 53.808594 105.878906 C 54.132812 105.511719 54.292969 105.1875 54.292969 104.910156 C 54.292969 104.632812 54.199219 104.421875 54.015625 104.285156 C 53.921875 104.191406 53.808594 104.144531 53.667969 104.144531 C 53.484375 104.144531 53.324219 104.238281 53.183594 104.421875 C 53.136719 104.46875 53.113281 104.539062 53.113281 104.632812 C 53.113281 104.632812 53.136719 104.632812 53.183594 104.632812 C 53.277344 104.632812 53.34375 104.675781 53.390625 104.769531 C 53.390625 104.816406 53.390625 104.839844 53.390625 104.839844 C 53.390625 104.976562 53.324219 105.046875 53.183594 105.046875 C 53.183594 105.09375 53.183594 105.117188 53.183594 105.117188 C 53.042969 105.117188 52.953125 105.070312 52.90625 104.976562 C 52.90625 104.929688 52.90625 104.886719 52.90625 104.839844 C 52.90625 104.609375 53 104.421875 53.183594 104.285156 C 53.324219 104.097656 53.507812 104.007812 53.738281 104.007812 C 54.0625 104.007812 54.316406 104.121094 54.5 104.351562 C 54.59375 104.492188 54.664062 104.65625 54.710938 104.839844 C 54.710938 104.839844 54.710938 104.863281 54.710938 104.910156 C 54.710938 105.09375 54.617188 105.300781 54.433594 105.53125 C 54.339844 105.625 54.199219 105.742188 54.015625 105.878906 L 53.808594 106.15625 L 53.738281 106.15625 L 53.253906 106.644531 L 54.085938 106.644531 C 54.316406 106.644531 54.457031 106.644531 54.5 106.644531 C 54.5 106.597656 54.523438 106.457031 54.570312 106.226562 L 54.710938 106.226562 "/>
<path style="fill:none;stroke-width:25;stroke-linecap:round;stroke-linejoin:round;stroke:rgb(86.131287%,30.200195%,30.200195%);stroke-opacity:1;stroke-miterlimit:10;" d="M -111.953125 1374.53125 L -102.851562 1351.210938 L -93.75 1328.203125 L -84.609375 1305.507812 L -75.507812 1283.085938 L -66.40625 1260.976562 L -57.304688 1239.140625 L -48.164062 1217.617188 L -39.0625 1196.40625 L -29.960938 1175.507812 L -20.820312 1154.882812 L -11.71875 1134.53125 L -2.617188 1114.53125 L 6.523438 1094.804688 L 15.625 1075.390625 L 24.726562 1056.25 L 33.828125 1037.421875 L 42.96875 1018.90625 L 52.070312 1000.664062 L 61.171875 982.734375 L 70.3125 965.117188 L 79.414062 947.773438 L 88.515625 930.742188 L 106.757812 897.578125 L 124.960938 865.585938 L 143.203125 834.804688 L 161.40625 805.234375 L 179.648438 776.835938 L 197.890625 749.648438 L 216.09375 723.632812 L 234.335938 698.828125 L 252.539062 675.195312 L 270.78125 652.8125 L 289.023438 631.5625 L 307.226562 611.5625 L 325.46875 592.734375 L 343.671875 575.078125 L 361.914062 558.632812 L 380.117188 543.398438 L 398.359375 529.335938 L 416.5625 516.523438 L 434.804688 504.84375 L 453.046875 494.375 L 471.25 485.117188 L 489.492188 477.03125 L 507.695312 470.15625 L 525.9375 464.492188 L 544.140625 460 L 562.382812 456.71875 L 580.625 454.609375 L 598.828125 453.710938 L 617.070312 454.023438 L 635.273438 455.507812 L 653.515625 458.164062 L 671.757812 462.070312 L 689.960938 467.148438 L 708.203125 473.398438 L 726.40625 480.859375 L 744.648438 489.53125 L 762.851562 499.414062 L 781.09375 510.429688 L 799.335938 522.695312 L 817.539062 536.132812 L 835.78125 550.78125 L 853.984375 566.601562 L 872.226562 583.632812 L 890.429688 601.875 L 908.671875 621.289062 L 926.914062 641.914062 L 945.117188 663.710938 L 963.359375 686.71875 L 981.5625 710.898438 L 999.804688 736.289062 L 1018.046875 762.890625 L 1036.25 790.664062 L 1054.492188 819.648438 L 1072.695312 849.84375 L 1090.9375 881.210938 L 1109.140625 913.789062 L 1118.28125 930.507812 L 1127.382812 947.539062 L 1136.484375 964.882812 L 1145.625 982.5 L 1154.726562 1000.429688 L 1163.828125 1018.632812 L 1172.96875 1037.1875 L 1182.070312 1056.015625 L 1191.171875 1075.117188 L 1200.273438 1094.53125 L 1209.414062 1114.257812 L 1218.515625 1134.296875 L 1227.617188 1154.609375 L 1236.71875 1175.195312 L 1245.859375 1196.132812 L 1254.960938 1217.34375 L 1264.0625 1238.867188 L 1273.203125 1260.664062 L 1282.304688 1282.773438 L 1291.40625 1305.195312 L 1300.546875 1327.890625 L 1309.648438 1350.898438 L 1318.75 1374.21875 " transform="matrix(0.1,0,0,-0.1,0,118)"/>
<path style=" stroke:none;fill-rule:nonzero;fill:rgb(80.076599%,0%,0%);fill-opacity:1;" d="M 9.3125 10.003906 L 8.621094 12.777344 C 8.554688 13.042969 8.386719 13.273438 8.125 13.472656 C 7.859375 13.601562 7.5625 13.671875 7.234375 13.671875 C 6.769531 13.671875 6.507812 13.570312 6.441406 13.371094 C 6.441406 13.371094 6.441406 13.339844 6.441406 13.273438 C 6.441406 13.140625 6.507812 13.042969 6.636719 12.976562 C 6.703125 12.976562 6.738281 12.976562 6.738281 12.976562 C 6.871094 12.976562 6.96875 13.007812 7.035156 13.074219 C 7.035156 13.074219 7.035156 13.109375 7.035156 13.175781 C 7.035156 13.304688 6.96875 13.40625 6.835938 13.472656 C 6.835938 13.472656 6.804688 13.472656 6.738281 13.472656 C 6.871094 13.535156 7.035156 13.570312 7.234375 13.570312 C 7.695312 13.570312 8.023438 13.339844 8.222656 12.878906 L 8.421875 11.984375 C 8.222656 12.183594 7.992188 12.316406 7.726562 12.382812 C 7.726562 12.382812 7.695312 12.382812 7.628906 12.382812 C 7.363281 12.382812 7.132812 12.25 6.9375 11.984375 C 6.871094 11.785156 6.835938 11.589844 6.835938 11.390625 C 6.835938 10.929688 7 10.5 7.332031 10.101562 C 7.597656 9.773438 7.894531 9.605469 8.222656 9.605469 L 8.324219 9.605469 C 8.519531 9.605469 8.6875 9.707031 8.820312 9.902344 L 8.917969 10.003906 C 8.917969 9.804688 8.984375 9.707031 9.113281 9.707031 C 9.246094 9.707031 9.3125 9.773438 9.3125 9.902344 Z M 8.519531 11.589844 L 8.820312 10.398438 C 8.820312 10.335938 8.820312 10.300781 8.820312 10.300781 C 8.820312 10.167969 8.785156 10.070312 8.71875 10.003906 C 8.652344 9.871094 8.585938 9.804688 8.519531 9.804688 C 8.457031 9.738281 8.386719 9.707031 8.324219 9.707031 C 8.125 9.707031 7.925781 9.839844 7.726562 10.101562 C 7.664062 10.167969 7.628906 10.234375 7.628906 10.300781 C 7.496094 10.566406 7.398438 10.929688 7.332031 11.390625 C 7.265625 11.457031 7.234375 11.554688 7.234375 11.6875 C 7.234375 11.953125 7.332031 12.117188 7.53125 12.183594 C 7.53125 12.25 7.5625 12.28125 7.628906 12.28125 C 7.828125 12.28125 8.023438 12.183594 8.222656 11.984375 C 8.355469 11.851562 8.457031 11.722656 8.519531 11.589844 "/>
<path style=" stroke:none;fill-rule:nonzero;fill:rgb(80.076599%,0%,0%);fill-opacity:1;" d="M 11.671875 13.867188 C 11.671875 13.933594 11.671875 13.96875 11.671875 13.96875 C 11.609375 13.96875 11.476562 13.867188 11.277344 13.671875 C 11.011719 13.40625 10.816406 13.109375 10.683594 12.777344 C 10.351562 12.183594 10.1875 11.523438 10.1875 10.796875 C 10.1875 10.070312 10.320312 9.410156 10.585938 8.8125 C 10.847656 8.351562 11.144531 7.988281 11.476562 7.726562 C 11.542969 7.660156 11.609375 7.625 11.671875 7.625 C 11.671875 7.625 11.671875 7.660156 11.671875 7.726562 C 11.671875 7.726562 11.640625 7.757812 11.574219 7.824219 C 10.914062 8.484375 10.585938 9.476562 10.585938 10.796875 C 10.585938 12.117188 10.914062 13.109375 11.574219 13.769531 C 11.640625 13.835938 11.671875 13.867188 11.671875 13.867188 "/>
<path style=" stroke:none;fill-rule:nonzero;fill:rgb(80.076599%,0%,0%);fill-opacity:1;" d="M 14.140625 10.5 L 13.941406 11.289062 C 13.875 11.621094 13.84375 11.820312 13.84375 11.886719 C 13.84375 12.085938 13.910156 12.214844 14.039062 12.28125 C 14.105469 12.28125 14.171875 12.28125 14.238281 12.28125 C 14.4375 12.28125 14.601562 12.183594 14.734375 11.984375 C 14.867188 11.851562 14.964844 11.6875 15.03125 11.488281 C 15.03125 11.421875 15.066406 11.390625 15.132812 11.390625 C 15.195312 11.390625 15.230469 11.421875 15.230469 11.488281 C 15.230469 11.554688 15.164062 11.6875 15.03125 11.886719 C 14.769531 12.28125 14.503906 12.480469 14.238281 12.480469 C 13.910156 12.480469 13.675781 12.347656 13.546875 12.085938 C 13.546875 12.019531 13.546875 11.984375 13.546875 11.984375 C 13.414062 12.183594 13.246094 12.316406 13.050781 12.382812 C 12.984375 12.445312 12.917969 12.480469 12.851562 12.480469 C 12.585938 12.480469 12.390625 12.382812 12.257812 12.183594 C 12.257812 12.183594 12.257812 12.117188 12.257812 11.984375 C 12.257812 11.851562 12.324219 11.753906 12.457031 11.6875 C 12.523438 11.6875 12.554688 11.6875 12.554688 11.6875 C 12.6875 11.6875 12.785156 11.722656 12.851562 11.785156 C 12.851562 11.851562 12.851562 11.886719 12.851562 11.886719 C 12.851562 12.019531 12.785156 12.117188 12.652344 12.183594 C 12.585938 12.183594 12.554688 12.183594 12.554688 12.183594 C 12.621094 12.25 12.71875 12.28125 12.851562 12.28125 C 13.050781 12.28125 13.214844 12.148438 13.347656 11.886719 C 13.414062 11.820312 13.445312 11.753906 13.445312 11.6875 C 13.644531 10.828125 13.742188 10.300781 13.742188 10.101562 C 13.742188 9.839844 13.644531 9.707031 13.445312 9.707031 C 13.246094 9.707031 13.050781 9.839844 12.851562 10.101562 C 12.785156 10.167969 12.71875 10.269531 12.652344 10.398438 C 12.652344 10.398438 12.652344 10.433594 12.652344 10.5 L 12.554688 10.597656 C 12.488281 10.597656 12.457031 10.597656 12.457031 10.597656 C 12.457031 10.464844 12.523438 10.300781 12.652344 10.101562 C 12.851562 9.773438 13.117188 9.605469 13.445312 9.605469 C 13.777344 9.605469 14.007812 9.773438 14.140625 10.101562 C 14.273438 9.839844 14.4375 9.671875 14.636719 9.605469 C 14.703125 9.605469 14.769531 9.605469 14.832031 9.605469 C 15.097656 9.605469 15.261719 9.671875 15.328125 9.804688 C 15.394531 9.871094 15.429688 9.9375 15.429688 10.003906 C 15.429688 10.203125 15.328125 10.300781 15.132812 10.300781 C 15.132812 10.367188 15.097656 10.398438 15.03125 10.398438 C 14.898438 10.398438 14.832031 10.335938 14.832031 10.203125 C 14.832031 10.203125 14.832031 10.167969 14.832031 10.101562 C 14.832031 9.96875 14.898438 9.871094 15.03125 9.804688 C 15.03125 9.804688 15.066406 9.804688 15.132812 9.804688 C 15.066406 9.738281 14.964844 9.707031 14.832031 9.707031 C 14.503906 9.707031 14.304688 9.9375 14.238281 10.398438 C 14.171875 10.398438 14.140625 10.433594 14.140625 10.5 "/>
<path style=" stroke:none;fill-rule:nonzero;fill:rgb(80.076599%,0%,0%);fill-opacity:1;" d="M 17.46875 10.796875 C 17.46875 11.523438 17.335938 12.183594 17.070312 12.777344 C 16.871094 13.238281 16.609375 13.601562 16.277344 13.867188 C 16.210938 13.933594 16.144531 13.96875 16.078125 13.96875 C 16.078125 13.96875 16.078125 13.933594 16.078125 13.867188 C 16.078125 13.867188 16.078125 13.835938 16.078125 13.769531 C 16.804688 13.109375 17.167969 12.117188 17.167969 10.796875 C 17.167969 9.476562 16.839844 8.484375 16.179688 7.824219 C 16.113281 7.757812 16.078125 7.726562 16.078125 7.726562 C 16.078125 7.660156 16.078125 7.625 16.078125 7.625 C 16.144531 7.625 16.277344 7.726562 16.476562 7.921875 C 16.738281 8.1875 16.9375 8.484375 17.070312 8.8125 C 17.335938 9.410156 17.46875 10.070312 17.46875 10.796875 "/>
<path style=" stroke:none;fill-rule:nonzero;fill:rgb(80.076599%,0%,0%);fill-opacity:1;" d="M 24.269531 10.300781 L 20.503906 10.300781 C 20.371094 10.300781 20.308594 10.269531 20.308594 10.203125 C 20.308594 10.136719 20.371094 10.101562 20.503906 10.101562 L 24.269531 10.101562 C 24.402344 10.101562 24.46875 10.136719 24.46875 10.203125 C 24.46875 10.269531 24.402344 10.300781 24.269531 10.300781 Z M 24.269531 11.488281 L 20.503906 11.488281 C 20.371094 11.488281 20.308594 11.457031 20.308594 11.390625 C 20.308594 11.324219 20.371094 11.289062 20.503906 11.289062 L 24.269531 11.289062 C 24.402344 11.289062 24.46875 11.324219 24.46875 11.390625 C 24.46875 11.457031 24.402344 11.488281 24.269531 11.488281 "/>
<path style=" stroke:none;fill-rule:nonzero;fill:rgb(80.076599%,0%,0%);fill-opacity:1;" d="M 29.246094 4.027344 L 29.246094 7.597656 C 29.246094 7.726562 29.28125 7.792969 29.347656 7.792969 C 29.414062 7.859375 29.578125 7.894531 29.84375 7.894531 L 30.039062 7.894531 L 30.039062 8.089844 C 29.90625 8.089844 29.542969 8.089844 28.949219 8.089844 C 28.421875 8.089844 28.09375 8.089844 27.960938 8.089844 L 27.960938 7.894531 L 28.15625 7.894531 C 28.488281 7.894531 28.6875 7.859375 28.753906 7.792969 C 28.753906 7.726562 28.753906 7.660156 28.753906 7.597656 L 28.753906 4.328125 C 28.554688 4.394531 28.289062 4.425781 27.960938 4.425781 L 27.960938 4.226562 C 28.421875 4.226562 28.785156 4.09375 29.050781 3.832031 C 29.179688 3.832031 29.246094 3.863281 29.246094 3.929688 C 29.246094 3.929688 29.246094 3.964844 29.246094 4.027344 "/>
<path style=" stroke:none;fill-rule:nonzero;fill:rgb(80.076599%,0%,0%);fill-opacity:1;" d="M 27.363281 10.921875 L 30.535156 10.921875 L 30.535156 10.667969 L 27.363281 10.667969 Z M 27.363281 10.921875 "/>
<path style=" stroke:none;fill-rule:nonzero;fill:rgb(80.076599%,0%,0%);fill-opacity:1;" d="M 30.238281 15.640625 L 30.039062 16.730469 L 27.664062 16.730469 C 27.664062 16.597656 27.695312 16.53125 27.761719 16.53125 L 28.949219 15.144531 C 29.414062 14.617188 29.644531 14.15625 29.644531 13.757812 C 29.644531 13.363281 29.511719 13.066406 29.246094 12.867188 C 29.117188 12.734375 28.949219 12.667969 28.753906 12.667969 C 28.488281 12.667969 28.257812 12.800781 28.058594 13.066406 C 27.992188 13.132812 27.960938 13.230469 27.960938 13.363281 C 27.960938 13.363281 27.992188 13.363281 28.058594 13.363281 C 28.191406 13.363281 28.289062 13.429688 28.355469 13.5625 C 28.355469 13.628906 28.355469 13.660156 28.355469 13.660156 C 28.355469 13.859375 28.257812 13.957031 28.058594 13.957031 C 28.058594 14.023438 28.058594 14.054688 28.058594 14.054688 C 27.859375 14.054688 27.726562 13.988281 27.664062 13.859375 C 27.664062 13.792969 27.664062 13.726562 27.664062 13.660156 C 27.664062 13.328125 27.792969 13.066406 28.058594 12.867188 C 28.257812 12.601562 28.519531 12.472656 28.851562 12.472656 C 29.3125 12.472656 29.675781 12.636719 29.941406 12.964844 C 30.074219 13.164062 30.171875 13.394531 30.238281 13.660156 C 30.238281 13.660156 30.238281 13.691406 30.238281 13.757812 C 30.238281 14.023438 30.105469 14.320312 29.84375 14.648438 C 29.710938 14.78125 29.511719 14.949219 29.246094 15.144531 L 28.949219 15.542969 L 28.851562 15.542969 L 28.15625 16.234375 L 29.347656 16.234375 C 29.675781 16.234375 29.875 16.234375 29.941406 16.234375 C 29.941406 16.171875 29.972656 15.972656 30.039062 15.640625 L 30.238281 15.640625 "/>
<path style=" stroke:none;fill-rule:nonzero;fill:rgb(80.076599%,0%,0%);fill-opacity:1;" d="M 34.433594 10.5 L 34.234375 11.289062 C 34.171875 11.621094 34.136719 11.820312 34.136719 11.886719 C 34.136719 12.085938 34.203125 12.214844 34.335938 12.28125 C 34.402344 12.28125 34.46875 12.28125 34.535156 12.28125 C 34.730469 12.28125 34.898438 12.183594 35.027344 11.984375 C 35.160156 11.851562 35.261719 11.6875 35.328125 11.488281 C 35.328125 11.421875 35.359375 11.390625 35.425781 11.390625 C 35.492188 11.390625 35.523438 11.421875 35.523438 11.488281 C 35.523438 11.554688 35.457031 11.6875 35.328125 11.886719 C 35.0625 12.28125 34.796875 12.480469 34.535156 12.480469 C 34.203125 12.480469 33.972656 12.347656 33.839844 12.085938 C 33.839844 12.019531 33.839844 11.984375 33.839844 11.984375 C 33.707031 12.183594 33.542969 12.316406 33.34375 12.382812 C 33.277344 12.445312 33.210938 12.480469 33.148438 12.480469 C 32.882812 12.480469 32.683594 12.382812 32.550781 12.183594 C 32.550781 12.183594 32.550781 12.117188 32.550781 11.984375 C 32.550781 11.851562 32.617188 11.753906 32.75 11.6875 C 32.816406 11.6875 32.847656 11.6875 32.847656 11.6875 C 32.980469 11.6875 33.082031 11.722656 33.148438 11.785156 C 33.148438 11.851562 33.148438 11.886719 33.148438 11.886719 C 33.148438 12.019531 33.082031 12.117188 32.949219 12.183594 C 32.882812 12.183594 32.847656 12.183594 32.847656 12.183594 C 32.914062 12.25 33.015625 12.28125 33.148438 12.28125 C 33.34375 12.28125 33.511719 12.148438 33.640625 11.886719 C 33.707031 11.820312 33.742188 11.753906 33.742188 11.6875 C 33.9375 10.828125 34.039062 10.300781 34.039062 10.101562 C 34.039062 9.839844 33.9375 9.707031 33.742188 9.707031 C 33.542969 9.707031 33.34375 9.839844 33.148438 10.101562 C 33.082031 10.167969 33.015625 10.269531 32.949219 10.398438 C 32.949219 10.398438 32.949219 10.433594 32.949219 10.5 L 32.847656 10.597656 C 32.78125 10.597656 32.75 10.597656 32.75 10.597656 C 32.75 10.464844 32.816406 10.300781 32.949219 10.101562 C 33.148438 9.773438 33.410156 9.605469 33.742188 9.605469 C 34.070312 9.605469 34.300781 9.773438 34.433594 10.101562 C 34.566406 9.839844 34.730469 9.671875 34.929688 9.605469 C 34.996094 9.605469 35.0625 9.605469 35.128906 9.605469 C 35.390625 9.605469 35.558594 9.671875 35.625 9.804688 C 35.691406 9.871094 35.722656 9.9375 35.722656 10.003906 C 35.722656 10.203125 35.625 10.300781 35.425781 10.300781 C 35.425781 10.367188 35.390625 10.398438 35.328125 10.398438 C 35.195312 10.398438 35.128906 10.335938 35.128906 10.203125 C 35.128906 10.203125 35.128906 10.167969 35.128906 10.101562 C 35.128906 9.96875 35.195312 9.871094 35.328125 9.804688 C 35.328125 9.804688 35.359375 9.804688 35.425781 9.804688 C 35.359375 9.738281 35.261719 9.707031 35.128906 9.707031 C 34.796875 9.707031 34.597656 9.9375 34.535156 10.398438 C 34.46875 10.398438 34.433594 10.433594 34.433594 10.5 "/>
<path style=" stroke:none;fill-rule:nonzero;fill:rgb(80.076599%,0%,0%);fill-opacity:1;" d="M 37.988281 9 L 37.851562 9.761719 L 36.1875 9.761719 C 36.1875 9.671875 36.210938 9.625 36.253906 9.625 L 37.085938 8.652344 C 37.410156 8.285156 37.574219 7.960938 37.574219 7.683594 C 37.574219 7.40625 37.480469 7.195312 37.296875 7.058594 C 37.203125 6.964844 37.085938 6.921875 36.949219 6.921875 C 36.765625 6.921875 36.601562 7.011719 36.464844 7.195312 C 36.417969 7.242188 36.394531 7.3125 36.394531 7.40625 C 36.394531 7.40625 36.417969 7.40625 36.464844 7.40625 C 36.554688 7.40625 36.625 7.449219 36.671875 7.542969 C 36.671875 7.589844 36.671875 7.613281 36.671875 7.613281 C 36.671875 7.753906 36.601562 7.820312 36.464844 7.820312 C 36.464844 7.867188 36.464844 7.890625 36.464844 7.890625 C 36.324219 7.890625 36.230469 7.84375 36.1875 7.753906 C 36.1875 7.703125 36.1875 7.660156 36.1875 7.613281 C 36.1875 7.382812 36.277344 7.195312 36.464844 7.058594 C 36.601562 6.871094 36.785156 6.78125 37.019531 6.78125 C 37.34375 6.78125 37.597656 6.894531 37.78125 7.128906 C 37.875 7.265625 37.941406 7.429688 37.988281 7.613281 C 37.988281 7.613281 37.988281 7.636719 37.988281 7.683594 C 37.988281 7.867188 37.898438 8.074219 37.710938 8.308594 C 37.617188 8.398438 37.480469 8.515625 37.296875 8.652344 L 37.085938 8.929688 L 37.019531 8.929688 L 36.53125 9.414062 L 37.363281 9.414062 C 37.597656 9.414062 37.734375 9.414062 37.78125 9.414062 C 37.78125 9.371094 37.804688 9.230469 37.851562 9 L 37.988281 9 "/>
<path style=" stroke:none;fill-rule:nonzero;fill:rgb(80.076599%,0%,0%);fill-opacity:1;" d="M 43.933594 10.894531 L 40.46875 10.894531 C 40.335938 10.894531 40.269531 10.863281 40.269531 10.796875 C 40.269531 10.730469 40.335938 10.695312 40.46875 10.695312 L 43.933594 10.695312 C 44.066406 10.695312 44.132812 10.730469 44.132812 10.796875 C 44.132812 10.863281 44.066406 10.894531 43.933594 10.894531 "/>
<path style=" stroke:none;fill-rule:nonzero;fill:rgb(80.076599%,0%,0%);fill-opacity:1;" d="M 48.757812 4.027344 L 48.757812 7.597656 C 48.757812 7.726562 48.789062 7.792969 48.855469 7.792969 C 48.921875 7.859375 49.089844 7.894531 49.351562 7.894531 L 49.550781 7.894531 L 49.550781 8.089844 C 49.417969 8.089844 49.054688 8.089844 48.460938 8.089844 C 47.933594 8.089844 47.601562 8.089844 47.46875 8.089844 L 47.46875 7.894531 L 47.667969 7.894531 C 48 7.894531 48.195312 7.859375 48.261719 7.792969 C 48.261719 7.726562 48.261719 7.660156 48.261719 7.597656 L 48.261719 4.328125 C 48.066406 4.394531 47.800781 4.425781 47.46875 4.425781 L 47.46875 4.226562 C 47.933594 4.226562 48.296875 4.09375 48.558594 3.832031 C 48.691406 3.832031 48.757812 3.863281 48.757812 3.929688 C 48.757812 3.929688 48.757812 3.964844 48.757812 4.027344 "/>
<path style=" stroke:none;fill-rule:nonzero;fill:rgb(80.076599%,0%,0%);fill-opacity:1;" d="M 46.875 10.921875 L 50.046875 10.921875 L 50.046875 10.667969 L 46.875 10.667969 Z M 46.875 10.921875 "/>
<path style=" stroke:none;fill-rule:nonzero;fill:rgb(80.076599%,0%,0%);fill-opacity:1;" d="M 49.75 15.640625 L 49.550781 16.730469 L 47.171875 16.730469 C 47.171875 16.597656 47.207031 16.53125 47.273438 16.53125 L 48.460938 15.144531 C 48.921875 14.617188 49.15625 14.15625 49.15625 13.757812 C 49.15625 13.363281 49.023438 13.066406 48.757812 12.867188 C 48.625 12.734375 48.460938 12.667969 48.261719 12.667969 C 48 12.667969 47.765625 12.800781 47.570312 13.066406 C 47.503906 13.132812 47.46875 13.230469 47.46875 13.363281 C 47.46875 13.363281 47.503906 13.363281 47.570312 13.363281 C 47.703125 13.363281 47.800781 13.429688 47.867188 13.5625 C 47.867188 13.628906 47.867188 13.660156 47.867188 13.660156 C 47.867188 13.859375 47.765625 13.957031 47.570312 13.957031 C 47.570312 14.023438 47.570312 14.054688 47.570312 14.054688 C 47.371094 14.054688 47.238281 13.988281 47.171875 13.859375 C 47.171875 13.792969 47.171875 13.726562 47.171875 13.660156 C 47.171875 13.328125 47.304688 13.066406 47.570312 12.867188 C 47.765625 12.601562 48.03125 12.472656 48.363281 12.472656 C 48.824219 12.472656 49.1875 12.636719 49.453125 12.964844 C 49.582031 13.164062 49.683594 13.394531 49.75 13.660156 C 49.75 13.660156 49.75 13.691406 49.75 13.757812 C 49.75 14.023438 49.617188 14.320312 49.351562 14.648438 C 49.21875 14.78125 49.023438 14.949219 48.757812 15.144531 L 48.460938 15.542969 L 48.363281 15.542969 L 47.667969 16.234375 L 48.855469 16.234375 C 49.1875 16.234375 49.386719 16.234375 49.453125 16.234375 C 49.453125 16.171875 49.484375 15.972656 49.550781 15.640625 L 49.75 15.640625 "/>
<path style="fill:none;stroke-width:50;stroke-linecap:round;stroke-linejoin:round;stroke:rgb(60.742188%,60.742188%,60.742188%);stroke-opacity:1;stroke-miterlimit:10;" d="M -266.992188 1193.359375 L 400.507812 1193.359375 " transform="matrix(0.1,0,0,-0.1,0,118)"/>
</g>
</svg>
