<?xml version="1.0" encoding="UTF-8"?>
<svg xmlns="http://www.w3.org/2000/svg" xmlns:xlink="http://www.w3.org/1999/xlink" width="555pt" height="555pt" viewBox="0 0 555 555" version="1.1">
<defs>
<clipPath id="clip1">
  <path d="M 512 8 L 548.0625 8 L 548.0625 56 L 512 56 Z M 512 8 "/>
</clipPath>
<clipPath id="clip2">
  <path d="M 6.9375 496 L 42 496 L 42 545 L 6.9375 545 Z M 6.9375 496 "/>
</clipPath>
<clipPath id="clip3">
  <path d="M 181 258 L 198 258 L 198 276.113281 L 181 276.113281 Z M 181 258 "/>
</clipPath>
<clipPath id="clip4">
  <path d="M 374 362 L 391 362 L 391 380.175781 L 374 380.175781 Z M 374 362 "/>
</clipPath>
<clipPath id="clip5">
  <path d="M 454 367 L 470.363281 367 L 470.363281 370 L 454 370 Z M 454 367 "/>
</clipPath>
<clipPath id="clip6">
  <path d="M 66 536 L 72.148438 536 L 72.148438 538 L 66 538 Z M 66 536 "/>
</clipPath>
</defs>
<g id="surface1">
<rect x="0" y="0" width="555" height="555" style="fill:rgb(100%,100%,100%);fill-opacity:1;stroke:none;"/>
<path style="fill:none;stroke-width:20.8125;stroke-linecap:butt;stroke-linejoin:round;stroke:rgb(0%,0%,0%);stroke-opacity:1;stroke-miterlimit:10;" d="M 5369.414062 5221.210938 L 5369.414062 5221.210938 " transform="matrix(0.1,0,0,-0.1,0,555)"/>
<g clip-path="url(#clip1)" clip-rule="nonzero">
<path style="fill:none;stroke-width:13.875;stroke-linecap:square;stroke-linejoin:miter;stroke:rgb(0%,0%,0%);stroke-opacity:1;stroke-miterlimit:10;" d="M 5404.101562 5228.164062 C 5404.101562 5205.15625 5385.46875 5186.523438 5362.460938 5186.523438 C 5339.492188 5186.523438 5320.859375 5205.15625 5320.859375 5228.164062 C 5320.859375 5251.132812 5339.492188 5269.804688 5362.460938 5269.804688 C 5385.46875 5269.804688 5404.101562 5251.132812 5404.101562 5228.164062 Z M 5404.101562 5228.164062 " transform="matrix(0.1,0,0,-0.1,0,555)"/>
</g>
<path style=" stroke:none;fill-rule:nonzero;fill:rgb(0%,0%,0%);fill-opacity:1;" d="M 540.410156 32.183594 C 540.410156 34.484375 538.546875 36.347656 536.246094 36.347656 C 533.949219 36.347656 532.085938 34.484375 532.085938 32.183594 C 532.085938 29.886719 533.949219 28.019531 536.246094 28.019531 C 538.546875 28.019531 540.410156 29.886719 540.410156 32.183594 "/>
<g clip-path="url(#clip2)" clip-rule="nonzero">
<path style="fill:none;stroke-width:13.875;stroke-linecap:square;stroke-linejoin:miter;stroke:rgb(0%,0%,0%);stroke-opacity:1;stroke-miterlimit:10;" d="M 215.078125 342.421875 C 215.078125 319.453125 196.445312 300.820312 173.4375 300.820312 C 150.429688 300.820312 131.796875 319.453125 131.796875 342.421875 C 131.796875 365.429688 150.429688 384.0625 173.4375 384.0625 C 196.445312 384.0625 215.078125 365.429688 215.078125 342.421875 Z M 215.078125 342.421875 " transform="matrix(0.1,0,0,-0.1,0,555)"/>
</g>
<path style=" stroke:none;fill-rule:nonzero;fill:rgb(0%,0%,0%);fill-opacity:1;" d="M 21.507812 520.757812 C 21.507812 523.054688 19.644531 524.917969 17.34375 524.917969 C 15.042969 524.917969 13.179688 523.054688 13.179688 520.757812 C 13.179688 518.457031 15.042969 516.59375 17.34375 516.59375 C 19.644531 516.59375 21.507812 518.457031 21.507812 520.757812 "/>
<path style="fill:none;stroke-width:27.75;stroke-linecap:butt;stroke-linejoin:round;stroke:rgb(100%,0%,0%);stroke-opacity:1;stroke-miterlimit:10;" d="M 180.390625 335.507812 L 5369.414062 5221.210938 " transform="matrix(0.1,0,0,-0.1,0,555)"/>
<path style="fill:none;stroke-width:27.75;stroke-linecap:butt;stroke-linejoin:round;stroke:rgb(0%,0%,100%);stroke-opacity:1;stroke-miterlimit:10;" d="M 180.390625 335.507812 L 207.65625 325.039062 L 231.40625 316.25 L 258.085938 306.757812 L 284.960938 297.539062 L 311.71875 288.710938 L 336.523438 280.859375 L 362.1875 273.085938 L 388.710938 265.390625 L 415.195312 258.085938 L 442.421875 250.9375 L 466.40625 244.960938 L 493.398438 238.554688 L 520.507812 232.539062 L 546.640625 227.109375 L 570.351562 222.460938 L 598.554688 217.265625 L 622.460938 213.242188 L 650.234375 208.90625 L 674.84375 205.390625 L 701.835938 201.914062 L 727.539062 198.945312 L 754.375 196.171875 L 779.023438 193.984375 L 805.585938 191.992188 L 833.164062 190.273438 L 857.1875 189.101562 L 883.125 188.164062 L 909.921875 187.539062 L 936.171875 187.34375 L 961.523438 187.421875 L 989.6875 187.929688 L 1015 188.75 L 1042.03125 189.960938 L 1066.523438 191.40625 L 1093.28125 193.320312 L 1118.476562 195.46875 L 1144.804688 198.046875 L 1170.546875 200.9375 L 1197.539062 204.296875 L 1223.476562 207.890625 L 1250.039062 211.953125 L 1276.328125 216.289062 L 1300.546875 220.625 L 1328.242188 225.9375 L 1353.046875 231.015625 L 1379.492188 236.835938 L 1404.804688 242.695312 L 1432.890625 249.570312 L 1457.226562 255.898438 L 1484.84375 263.4375 L 1510.039062 270.625 L 1537.539062 278.867188 L 1561.328125 286.289062 L 1588.359375 295.078125 L 1614.492188 303.945312 L 1640.625 313.164062 L 1666.640625 322.695312 L 1691.640625 332.1875 L 1718.671875 342.773438 L 1744.414062 353.242188 L 1771.523438 364.609375 L 1796.054688 375.234375 L 1823.164062 387.34375 L 1849.140625 399.296875 L 1875.039062 411.5625 L 1902.148438 424.726562 L 1927.03125 437.1875 L 1952.578125 450.273438 L 1980.78125 465.117188 L 2006.289062 478.90625 L 2032.382812 493.359375 L 2058.945312 508.4375 L 2083.320312 522.578125 L 2109.335938 538.007812 L 2135.15625 553.671875 L 2162.734375 570.820312 L 2187.109375 586.25 L 2215.234375 604.414062 L 2240.585938 621.210938 L 2265.703125 638.085938 L 2292.695312 656.640625 L 2319.765625 675.664062 L 2344.414062 693.28125 L 2370.625 712.304688 L 2396.171875 731.210938 L 2423.867188 752.109375 L 2447.851562 770.507812 L 2475.351562 792.03125 L 2501.25 812.578125 L 2526.875 833.28125 L 2552.539062 854.335938 L 2578.671875 876.132812 L 2606.40625 899.648438 L 2631.835938 921.5625 L 2656.953125 943.515625 L 2683.75 967.34375 L 2710.546875 991.484375 L 2734.53125 1013.4375 L 2763.046875 1039.84375 L 2786.835938 1062.304688 L 2814.6875 1088.90625 L 2841.289062 1114.648438 L 2865.039062 1137.96875 L 2891.71875 1164.492188 L 2918.59375 1191.601562 L 2945.3125 1218.945312 L 2970.117188 1244.609375 L 2995.820312 1271.523438 L 3022.34375 1299.726562 L 3048.828125 1328.164062 L 3076.054688 1357.851562 L 3100.039062 1384.257812 L 3127.03125 1414.375 L 3154.140625 1444.960938 L 3180.234375 1474.84375 L 3203.984375 1502.265625 L 3232.1875 1535.234375 L 3256.054688 1563.476562 L 3283.867188 1596.71875 L 3308.476562 1626.484375 L 3335.46875 1659.453125 L 3361.171875 1691.210938 L 3388.007812 1724.726562 L 3412.617188 1755.820312 L 3439.21875 1789.726562 L 3466.796875 1825.3125 L 3490.820312 1856.601562 L 3516.757812 1890.742188 L 3543.554688 1926.367188 L 3569.765625 1961.5625 L 3595.15625 1995.976562 L 3623.320312 2034.570312 L 3648.632812 2069.570312 L 3675.664062 2107.34375 L 3700.15625 2141.875 L 3726.914062 2179.960938 L 3752.109375 2216.171875 L 3778.4375 2254.335938 L 3804.179688 2291.992188 L 3831.132812 2331.796875 L 3857.109375 2370.507812 L 3883.632812 2410.390625 L 3909.960938 2450.351562 L 3934.140625 2487.382812 L 3961.875 2530.195312 L 3986.679688 2568.789062 L 4013.125 2610.3125 L 4038.4375 2650.390625 L 4066.523438 2695.273438 L 4090.859375 2734.453125 L 4118.476562 2779.296875 L 4143.632812 2820.507812 L 4171.171875 2865.976562 L 4194.921875 2905.507812 L 4221.992188 2950.898438 L 4248.125 2995.078125 L 4274.21875 3039.609375 L 4300.273438 3084.296875 L 4325.234375 3127.539062 L 4352.265625 3174.6875 L 4378.046875 3219.960938 L 4405.15625 3267.96875 L 4429.6875 3311.757812 L 4456.796875 3360.507812 L 4482.773438 3407.578125 L 4508.671875 3454.84375 L 4535.742188 3504.609375 L 4560.664062 3550.742188 L 4586.210938 3598.359375 L 4614.375 3651.289062 L 4639.921875 3699.609375 L 4666.015625 3749.335938 L 4692.539062 3800.234375 L 4716.953125 3847.382812 L 4742.96875 3897.96875 L 4768.789062 3948.515625 L 4796.367188 4002.96875 L 4820.742188 4051.328125 L 4848.867188 4107.5 L 4874.21875 4158.554688 L 4899.335938 4209.375 L 4926.289062 4264.414062 L 4953.398438 4320.039062 L 4978.046875 4370.976562 L 5004.257812 4425.390625 L 5029.804688 4478.867188 L 5057.5 4537.226562 L 5081.484375 4588.007812 L 5108.984375 4646.71875 L 5134.882812 4702.226562 L 5160.507812 4757.578125 L 5186.171875 4813.28125 L 5212.304688 4870.46875 L 5240.039062 4931.484375 L 5265.46875 4987.734375 L 5290.585938 5043.59375 L 5317.382812 5103.671875 L 5344.140625 5164.023438 L 5369.414062 5221.210938 " transform="matrix(0.1,0,0,-0.1,0,555)"/>
<g clip-path="url(#clip3)" clip-rule="nonzero">
<path style=" stroke:none;fill-rule:nonzero;fill:rgb(100%,0%,0%);fill-opacity:1;" d="M 181.695312 276.761719 C 183.199219 275.722656 185.078125 274.160156 187.332031 272.078125 L 187.789062 271.644531 C 187.703125 269.753906 187.464844 267.757812 187.074219 265.660156 C 186.683594 263.566406 186.277344 262.050781 185.859375 261.109375 C 185.496094 260.34375 185.214844 259.890625 185.003906 259.753906 C 184.792969 259.617188 184.234375 259.527344 183.324219 259.484375 L 183.039062 259.460938 L 183.171875 258.703125 L 187.59375 258.703125 C 188.863281 261.695312 189.59375 265.191406 189.785156 269.195312 L 191.277344 267.289062 C 192.769531 265.394531 193.757812 264.011719 194.25 263.136719 C 194.742188 262.261719 194.988281 261.457031 194.988281 260.71875 C 194.988281 259.953125 194.660156 259.28125 194.011719 258.703125 L 197.023438 258.703125 C 197.214844 259.0625 197.308594 259.410156 197.308594 259.742188 C 197.308594 260.4375 197.078125 261.160156 196.621094 261.910156 C 196.167969 262.664062 195.226562 263.898438 193.792969 265.617188 L 189.15625 271.144531 C 187.320312 273.359375 185.945312 275.230469 185.035156 276.761719 L 181.695312 276.761719 "/>
</g>
<path style=" stroke:none;fill-rule:nonzero;fill:rgb(100%,0%,0%);fill-opacity:1;" d="M 206.152344 267.59375 L 206.390625 266.378906 L 220.828125 266.378906 L 220.589844 267.59375 Z M 207.039062 263.058594 L 207.277344 261.867188 L 221.738281 261.867188 L 221.480469 263.058594 L 207.039062 263.058594 "/>
<path style=" stroke:none;fill-rule:nonzero;fill:rgb(100%,0%,0%);fill-opacity:1;" d="M 231.496094 271.949219 L 233.511719 261.867188 C 233.640625 261.203125 233.707031 260.625 233.707031 260.132812 C 233.707031 259.773438 233.394531 259.570312 232.773438 259.527344 L 231.949219 259.484375 L 231.734375 259.460938 L 231.886719 258.703125 L 236.546875 258.703125 L 235.464844 264.121094 C 237.890625 260.320312 240.117188 258.421875 242.140625 258.421875 C 243.46875 258.421875 244.136719 259.171875 244.136719 260.675781 C 244.136719 260.980469 244.097656 261.296875 244.027344 261.628906 L 243.851562 262.433594 L 243.507812 264.121094 C 246.0625 260.308594 248.316406 258.398438 250.269531 258.398438 C 251.585938 258.398438 252.242188 259.214844 252.242188 260.851562 C 252.242188 261.238281 252.171875 261.796875 252.023438 262.519531 L 250.769531 268.785156 C 250.636719 269.464844 250.574219 270.042969 250.574219 270.519531 C 250.574219 270.878906 250.890625 271.082031 251.527344 271.125 L 252.328125 271.191406 L 252.566406 271.191406 L 252.394531 271.949219 L 247.730469 271.949219 L 249.769531 261.804688 C 249.828125 261.515625 249.859375 261.28125 249.859375 261.109375 C 249.859375 260.503906 249.632812 260.199219 249.183594 260.199219 C 248.535156 260.199219 247.605469 260.773438 246.390625 261.921875 C 245.175781 263.070312 244.140625 264.363281 243.289062 265.792969 L 242.03125 271.949219 L 239.625 271.949219 L 241.640625 261.804688 C 241.699219 261.5 241.726562 261.269531 241.726562 261.109375 C 241.726562 260.503906 241.511719 260.199219 241.078125 260.199219 C 240.410156 260.199219 239.476562 260.769531 238.269531 261.910156 C 237.0625 263.054688 236.011719 264.367188 235.117188 265.855469 L 233.902344 271.949219 L 231.496094 271.949219 "/>
<path style=" stroke:none;fill-rule:nonzero;fill:rgb(100%,0%,0%);fill-opacity:1;" d="M 264.554688 265.230469 L 263.058594 261.867188 L 262.453125 260.632812 C 262.238281 260.15625 262.054688 259.855469 261.910156 259.734375 C 261.765625 259.609375 261.5 259.539062 261.109375 259.527344 L 260.371094 259.484375 L 260.15625 259.460938 L 260.285156 258.703125 L 264.253906 258.703125 L 266.683594 263.90625 L 267.222656 263.453125 C 268.8125 262.164062 269.609375 261.097656 269.609375 260.242188 C 269.609375 259.792969 269.429688 259.28125 269.066406 258.703125 L 271.472656 258.703125 C 271.558594 258.992188 271.601562 259.246094 271.601562 259.460938 C 271.601562 260.15625 271.355469 260.785156 270.863281 261.359375 C 270.375 261.929688 269.269531 262.867188 267.550781 264.164062 L 266.964844 264.601562 L 268.980469 268.804688 L 269.714844 270.148438 C 270.035156 270.773438 270.4375 271.105469 270.929688 271.144531 L 271.730469 271.191406 L 271.949219 271.191406 L 271.796875 271.949219 L 267.808594 271.949219 L 264.945312 265.921875 L 263.90625 266.855469 C 262.246094 268.34375 261.414062 269.628906 261.414062 270.714844 C 261.414062 271.144531 261.550781 271.558594 261.824219 271.949219 L 259.222656 271.949219 C 259.195312 271.71875 259.179688 271.546875 259.179688 271.429688 C 259.179688 270.390625 259.9375 269.203125 261.457031 267.871094 L 263.34375 266.269531 L 264.554688 265.230469 "/>
<g clip-path="url(#clip4)" clip-rule="nonzero">
<path style=" stroke:none;fill-rule:nonzero;fill:rgb(0%,0%,100%);fill-opacity:1;" d="M 374.558594 380.824219 C 376.0625 379.785156 377.941406 378.222656 380.195312 376.140625 L 380.652344 375.710938 C 380.566406 373.816406 380.324219 371.820312 379.9375 369.722656 C 379.546875 367.628906 379.140625 366.109375 378.722656 365.171875 C 378.359375 364.40625 378.074219 363.953125 377.863281 363.816406 C 377.65625 363.679688 377.097656 363.589844 376.1875 363.546875 L 375.902344 363.523438 L 376.03125 362.765625 L 380.457031 362.765625 C 381.726562 365.757812 382.457031 369.253906 382.644531 373.257812 L 384.140625 371.351562 C 385.632812 369.457031 386.621094 368.074219 387.113281 367.199219 C 387.605469 366.324219 387.847656 365.519531 387.847656 364.78125 C 387.847656 364.015625 387.523438 363.34375 386.875 362.765625 L 389.886719 362.765625 C 390.074219 363.128906 390.167969 363.472656 390.167969 363.808594 C 390.167969 364.5 389.941406 365.222656 389.484375 365.972656 C 389.03125 366.726562 388.089844 367.960938 386.65625 369.679688 L 382.019531 375.210938 C 380.183594 377.421875 378.808594 379.292969 377.898438 380.824219 L 374.558594 380.824219 "/>
</g>
<path style=" stroke:none;fill-rule:nonzero;fill:rgb(0%,0%,100%);fill-opacity:1;" d="M 399.015625 371.652344 L 399.253906 370.441406 L 413.691406 370.441406 L 413.453125 371.652344 Z M 399.902344 367.121094 L 400.140625 365.929688 L 414.601562 365.929688 L 414.34375 367.121094 L 399.902344 367.121094 "/>
<path style=" stroke:none;fill-rule:nonzero;fill:rgb(0%,0%,100%);fill-opacity:1;" d="M 428.28125 369.289062 L 426.785156 365.929688 L 426.179688 364.695312 C 425.964844 364.21875 425.78125 363.917969 425.636719 363.796875 C 425.492188 363.671875 425.222656 363.605469 424.835938 363.589844 L 424.097656 363.546875 L 423.882812 363.523438 L 424.011719 362.765625 L 427.980469 362.765625 L 430.40625 367.96875 L 430.949219 367.515625 C 432.539062 366.226562 433.332031 365.15625 433.332031 364.304688 C 433.332031 363.855469 433.152344 363.34375 432.789062 362.765625 L 435.199219 362.765625 C 435.285156 363.054688 435.328125 363.308594 435.328125 363.523438 C 435.328125 364.21875 435.082031 364.851562 434.589844 365.421875 C 434.097656 365.992188 432.992188 366.929688 431.273438 368.230469 L 430.6875 368.664062 L 432.703125 372.867188 L 433.441406 374.214844 C 433.757812 374.835938 434.164062 375.164062 434.65625 375.210938 L 435.457031 375.253906 L 435.675781 375.253906 L 435.523438 376.011719 L 431.53125 376.011719 L 428.671875 369.984375 L 427.632812 370.917969 C 425.96875 372.40625 425.136719 373.691406 425.136719 374.777344 C 425.136719 375.210938 425.277344 375.621094 425.550781 376.011719 L 422.949219 376.011719 C 422.921875 375.78125 422.902344 375.605469 422.902344 375.492188 C 422.902344 374.453125 423.664062 373.265625 425.179688 371.9375 L 427.066406 370.332031 L 428.28125 369.289062 "/>
<path style=" stroke:none;fill-rule:nonzero;fill:rgb(0%,0%,100%);fill-opacity:1;" d="M 435.957031 360.75 L 436.171875 359.6875 C 436.867188 358.269531 438.242188 356.761719 440.292969 355.15625 L 441.269531 354.394531 C 443.59375 352.589844 444.757812 350.949219 444.757812 349.476562 C 444.757812 347.800781 443.953125 346.960938 442.351562 346.960938 C 440.804688 346.960938 439.902344 347.460938 439.640625 348.457031 L 439.445312 349.214844 L 439.402344 349.390625 L 438.472656 349.390625 L 438.882812 347.285156 C 440.167969 346.664062 441.496094 346.355469 442.871094 346.355469 C 444.070312 346.355469 445.015625 346.625 445.699219 347.164062 C 446.386719 347.710938 446.730469 348.457031 446.730469 349.410156 C 446.730469 350.320312 446.46875 351.121094 445.941406 351.816406 C 445.414062 352.511719 444.46875 353.285156 443.109375 354.136719 L 441.65625 355.046875 C 439.375 356.476562 438.230469 357.828125 438.230469 359.101562 L 444.78125 359.101562 L 444.324219 360.75 L 435.957031 360.75 "/>
<g clip-path="url(#clip5)" clip-rule="nonzero">
<path style=" stroke:none;fill-rule:nonzero;fill:rgb(0%,0%,100%);fill-opacity:1;" d="M 471.46875 369.160156 L 454.988281 369.160156 L 455.230469 367.859375 L 471.703125 367.859375 L 471.46875 369.160156 "/>
</g>
<path style=" stroke:none;fill-rule:nonzero;fill:rgb(0%,0%,100%);fill-opacity:1;" d="M 489.722656 357.800781 L 486.730469 372.847656 C 486.601562 373.527344 486.535156 374.113281 486.535156 374.601562 C 486.535156 374.949219 486.847656 375.144531 487.46875 375.1875 L 488.289062 375.253906 L 489.722656 375.253906 L 489.570312 376.011719 L 480.246094 376.011719 L 480.378906 375.253906 L 481.828125 375.253906 C 482.597656 375.253906 483.121094 375.175781 483.402344 375.027344 C 483.683594 374.871094 483.890625 374.550781 484.019531 374.058594 L 484.324219 372.847656 L 486.554688 361.660156 L 486.730469 360.425781 L 486.816406 359.992188 C 486.757812 359.714844 486.511719 359.578125 486.078125 359.578125 C 485.921875 359.578125 485.453125 359.652344 484.671875 359.796875 L 483.414062 360.035156 L 483.5625 359.273438 L 489.722656 357.800781 "/>
<path style="fill:none;stroke-width:13.875;stroke-linecap:butt;stroke-linejoin:round;stroke:rgb(0%,0%,0%);stroke-opacity:1;stroke-miterlimit:10;" d="M 180.390625 1051.015625 L 5369.414062 1051.015625 " transform="matrix(0.1,0,0,-0.1,0,555)"/>
<path style=" stroke:none;fill-rule:nonzero;fill:rgb(0%,0%,0%);fill-opacity:1;" d="M 315.308594 487.359375 C 315.597656 487.660156 315.8125 487.972656 315.960938 488.289062 C 316.074219 488.492188 316.25 489.042969 316.480469 489.9375 L 317.261719 488.789062 C 317.464844 488.5 317.710938 488.230469 318.007812 487.976562 C 318.304688 487.722656 318.558594 487.546875 318.777344 487.445312 C 318.921875 487.386719 319.078125 487.359375 319.253906 487.359375 C 319.5 487.359375 319.699219 487.425781 319.851562 487.566406 C 320.003906 487.703125 320.078125 487.863281 320.078125 488.054688 C 320.078125 488.285156 320.035156 488.441406 319.949219 488.527344 C 319.789062 488.671875 319.601562 488.746094 319.382812 488.746094 C 319.253906 488.746094 319.125 488.71875 318.996094 488.660156 C 318.71875 488.574219 318.53125 488.527344 318.429688 488.527344 C 318.285156 488.527344 318.121094 488.609375 317.933594 488.769531 C 317.570312 489.070312 317.136719 489.664062 316.632812 490.542969 L 317.347656 493.558594 C 317.464844 494.023438 317.554688 494.300781 317.628906 494.394531 C 317.703125 494.488281 317.78125 494.535156 317.867188 494.535156 C 317.984375 494.535156 318.128906 494.46875 318.300781 494.339844 C 318.617188 494.066406 318.894531 493.710938 319.125 493.277344 L 319.425781 493.429688 C 319.050781 494.125 318.582031 494.699219 318.019531 495.164062 C 317.703125 495.421875 317.425781 495.554688 317.195312 495.554688 C 316.863281 495.554688 316.601562 495.363281 316.414062 494.992188 C 316.285156 494.757812 316.03125 493.777344 315.65625 492.042969 C 314.730469 493.632812 313.992188 494.652344 313.445312 495.097656 C 313.082031 495.402344 312.734375 495.554688 312.402344 495.554688 C 312.171875 495.554688 311.957031 495.464844 311.753906 495.292969 C 311.621094 495.164062 311.558594 494.992188 311.558594 494.773438 C 311.558594 494.585938 311.621094 494.425781 311.753906 494.296875 C 311.882812 494.167969 312.042969 494.101562 312.230469 494.101562 C 312.417969 494.101562 312.613281 494.195312 312.816406 494.382812 C 312.972656 494.511719 313.097656 494.578125 313.183594 494.578125 C 313.242188 494.578125 313.328125 494.535156 313.445312 494.449219 C 313.71875 494.214844 314.09375 493.730469 314.570312 492.996094 C 315.046875 492.257812 315.359375 491.722656 315.503906 491.390625 C 315.144531 489.960938 314.945312 489.210938 314.917969 489.136719 C 314.789062 488.746094 314.617188 488.472656 314.398438 488.3125 C 314.179688 488.152344 313.855469 488.074219 313.421875 488.074219 C 313.292969 488.074219 313.140625 488.082031 312.96875 488.097656 L 312.96875 487.769531 L 315.308594 487.359375 "/>
<path style="fill:none;stroke-width:1.2;stroke-linecap:butt;stroke-linejoin:round;stroke:rgb(0%,0%,0%);stroke-opacity:1;stroke-miterlimit:10;" d="M 940.273438 1051.015625 L 940.273438 995.507812 " transform="matrix(0.1,0,0,-0.1,0,555)"/>
<path style=" stroke:none;fill-rule:nonzero;fill:rgb(0%,0%,0%);fill-opacity:1;" d="M 82.511719 465.851562 C 82.511719 464.492188 82.71875 463.320312 83.132812 462.328125 C 83.542969 461.339844 84.089844 460.605469 84.769531 460.128906 C 85.300781 459.753906 85.851562 459.566406 86.414062 459.566406 C 87.324219 459.566406 88.140625 460.027344 88.863281 460.953125 C 89.777344 462.109375 90.230469 463.675781 90.230469 465.65625 C 90.230469 467.042969 90.03125 468.222656 89.636719 469.191406 C 89.238281 470.160156 88.726562 470.863281 88.105469 471.304688 C 87.484375 471.746094 86.890625 471.964844 86.328125 471.964844 C 85.1875 471.964844 84.234375 471.292969 83.46875 469.949219 C 82.832031 468.808594 82.511719 467.441406 82.511719 465.851562 Z M 84.246094 466.070312 C 84.246094 467.714844 84.449219 469.0625 84.855469 470.101562 C 85.1875 470.96875 85.683594 471.402344 86.351562 471.402344 C 86.667969 471.402344 86.996094 471.261719 87.335938 470.980469 C 87.675781 470.699219 87.933594 470.21875 88.105469 469.539062 C 88.382812 468.539062 88.519531 467.117188 88.519531 465.269531 C 88.519531 463.910156 88.375 462.773438 88.085938 461.863281 C 87.882812 461.183594 87.605469 460.707031 87.261719 460.433594 C 87.03125 460.246094 86.738281 460.152344 86.394531 460.152344 C 86.003906 460.152344 85.648438 460.324219 85.332031 460.671875 C 84.910156 461.160156 84.625 461.933594 84.476562 462.980469 C 84.324219 464.027344 84.246094 465.058594 84.246094 466.070312 "/>
<path style="fill:none;stroke-width:1.2;stroke-linecap:butt;stroke-linejoin:round;stroke:rgb(0%,0%,0%);stroke-opacity:1;stroke-miterlimit:10;" d="M 1857.578125 1051.015625 L 1857.578125 995.507812 " transform="matrix(0.1,0,0,-0.1,0,555)"/>
<path style=" stroke:none;fill-rule:nonzero;fill:rgb(0%,0%,0%);fill-opacity:1;" d="M 174.085938 468.628906 C 174.085938 467.269531 174.292969 466.09375 174.707031 465.105469 C 175.117188 464.113281 175.664062 463.378906 176.339844 462.90625 C 176.878906 462.527344 177.425781 462.339844 177.988281 462.339844 C 178.898438 462.339844 179.71875 462.804688 180.4375 463.726562 C 181.351562 464.886719 181.804688 466.453125 181.804688 468.433594 C 181.804688 469.820312 181.605469 470.996094 181.210938 471.964844 C 180.8125 472.933594 180.300781 473.640625 179.679688 474.078125 C 179.058594 474.519531 178.46875 474.742188 177.902344 474.742188 C 176.761719 474.742188 175.808594 474.070312 175.039062 472.726562 C 174.40625 471.582031 174.085938 470.21875 174.085938 468.628906 Z M 175.820312 468.84375 C 175.820312 470.492188 176.023438 471.835938 176.429688 472.875 C 176.761719 473.742188 177.261719 474.179688 177.925781 474.179688 C 178.242188 474.179688 178.570312 474.035156 178.910156 473.753906 C 179.25 473.472656 179.507812 472.992188 179.679688 472.3125 C 179.953125 471.316406 180.09375 469.890625 180.09375 468.042969 C 180.09375 466.683594 179.949219 465.550781 179.660156 464.640625 C 179.457031 463.960938 179.183594 463.480469 178.835938 463.207031 C 178.605469 463.019531 178.3125 462.925781 177.96875 462.925781 C 177.578125 462.925781 177.222656 463.097656 176.90625 463.445312 C 176.484375 463.9375 176.203125 464.707031 176.050781 465.753906 C 175.898438 466.800781 175.820312 467.832031 175.820312 468.84375 Z M 184.710938 472.8125 C 184.984375 472.8125 185.214844 472.910156 185.40625 473.105469 C 185.59375 473.300781 185.6875 473.527344 185.6875 473.785156 C 185.6875 474.0625 185.59375 474.292969 185.40625 474.480469 C 185.214844 474.667969 184.984375 474.761719 184.710938 474.761719 C 184.4375 474.761719 184.203125 474.667969 184.015625 474.480469 C 183.828125 474.292969 183.734375 474.0625 183.734375 473.785156 C 183.734375 473.511719 183.828125 473.28125 184.015625 473.09375 C 184.203125 472.90625 184.4375 472.8125 184.710938 472.8125 Z M 194.789062 462.578125 L 194.097656 464.074219 L 190.519531 464.074219 L 189.742188 465.679688 C 191.285156 465.910156 192.515625 466.488281 193.425781 467.414062 C 194.203125 468.207031 194.597656 469.148438 194.597656 470.230469 C 194.597656 470.867188 194.46875 471.453125 194.21875 471.988281 C 193.964844 472.523438 193.640625 472.976562 193.253906 473.355469 C 192.863281 473.730469 192.429688 474.027344 191.949219 474.242188 C 191.285156 474.574219 190.59375 474.742188 189.871094 474.742188 C 189.160156 474.742188 188.644531 474.617188 188.320312 474.371094 C 187.996094 474.128906 187.832031 473.859375 187.832031 473.570312 C 187.832031 473.398438 187.902344 473.25 188.039062 473.125 C 188.175781 473.003906 188.34375 472.941406 188.546875 472.941406 C 188.691406 472.941406 188.820312 472.964844 188.9375 473.007812 C 189.054688 473.050781 189.246094 473.171875 189.523438 473.375 C 189.972656 473.679688 190.417969 473.832031 190.867188 473.832031 C 191.5625 473.832031 192.164062 473.570312 192.679688 473.050781 C 193.191406 472.53125 193.445312 471.894531 193.445312 471.140625 C 193.445312 470.417969 193.214844 469.746094 192.753906 469.125 C 192.289062 468.503906 191.65625 468.019531 190.84375 467.671875 C 190.195312 467.414062 189.320312 467.261719 188.222656 467.21875 L 190.519531 462.578125 L 194.789062 462.578125 "/>
<path style="fill:none;stroke-width:1.2;stroke-linecap:butt;stroke-linejoin:round;stroke:rgb(0%,0%,0%);stroke-opacity:1;stroke-miterlimit:10;" d="M 2774.882812 1051.015625 L 2774.882812 995.507812 " transform="matrix(0.1,0,0,-0.1,0,555)"/>
<path style=" stroke:none;fill-rule:nonzero;fill:rgb(0%,0%,0%);fill-opacity:1;" d="M 274.074219 463.75 L 276.980469 462.339844 L 277.261719 462.339844 L 277.261719 472.421875 C 277.261719 473.085938 277.289062 473.503906 277.347656 473.667969 C 277.40625 473.835938 277.519531 473.960938 277.695312 474.046875 C 277.867188 474.132812 278.222656 474.183594 278.757812 474.199219 L 278.757812 474.523438 L 274.269531 474.523438 L 274.269531 474.199219 C 274.832031 474.183594 275.199219 474.132812 275.363281 474.046875 C 275.53125 473.960938 275.644531 473.84375 275.710938 473.699219 C 275.773438 473.554688 275.808594 473.128906 275.808594 472.421875 L 275.808594 465.980469 C 275.808594 465.101562 275.78125 464.539062 275.722656 464.292969 C 275.679688 464.101562 275.601562 463.964844 275.492188 463.878906 C 275.386719 463.792969 275.253906 463.75 275.09375 463.75 C 274.875 463.75 274.578125 463.84375 274.203125 464.03125 L 274.074219 463.75 "/>
<path style="fill:none;stroke-width:1.2;stroke-linecap:butt;stroke-linejoin:round;stroke:rgb(0%,0%,0%);stroke-opacity:1;stroke-miterlimit:10;" d="M 3692.1875 1051.015625 L 3692.1875 995.507812 " transform="matrix(0.1,0,0,-0.1,0,555)"/>
<path style=" stroke:none;fill-rule:nonzero;fill:rgb(0%,0%,0%);fill-opacity:1;" d="M 360.097656 463.75 L 363.003906 462.339844 L 363.285156 462.339844 L 363.285156 472.421875 C 363.285156 473.085938 363.316406 473.503906 363.371094 473.667969 C 363.429688 473.835938 363.546875 473.960938 363.71875 474.046875 C 363.894531 474.132812 364.246094 474.183594 364.78125 474.199219 L 364.78125 474.523438 L 360.292969 474.523438 L 360.292969 474.199219 C 360.859375 474.183594 361.222656 474.132812 361.386719 474.046875 C 361.554688 473.960938 361.671875 473.84375 361.734375 473.699219 C 361.800781 473.554688 361.835938 473.128906 361.835938 472.421875 L 361.835938 465.980469 C 361.835938 465.101562 361.804688 464.539062 361.746094 464.292969 C 361.703125 464.101562 361.628906 463.964844 361.519531 463.878906 C 361.410156 463.792969 361.277344 463.75 361.117188 463.75 C 360.902344 463.75 360.605469 463.84375 360.230469 464.03125 Z M 369.246094 472.8125 C 369.523438 472.8125 369.753906 472.910156 369.941406 473.105469 C 370.128906 473.300781 370.222656 473.527344 370.222656 473.785156 C 370.222656 474.0625 370.128906 474.292969 369.941406 474.480469 C 369.753906 474.667969 369.523438 474.761719 369.246094 474.761719 C 368.972656 474.761719 368.742188 474.667969 368.554688 474.480469 C 368.367188 474.292969 368.269531 474.0625 368.269531 473.785156 C 368.269531 473.511719 368.367188 473.28125 368.554688 473.09375 C 368.742188 472.90625 368.972656 472.8125 369.246094 472.8125 Z M 379.328125 462.578125 L 378.636719 464.074219 L 375.058594 464.074219 L 374.277344 465.679688 C 375.824219 465.910156 377.054688 466.488281 377.964844 467.414062 C 378.742188 468.207031 379.132812 469.148438 379.132812 470.230469 C 379.132812 470.867188 379.007812 471.453125 378.753906 471.988281 C 378.503906 472.523438 378.179688 472.976562 377.789062 473.355469 C 377.398438 473.730469 376.964844 474.027344 376.488281 474.242188 C 375.824219 474.574219 375.128906 474.742188 374.40625 474.742188 C 373.699219 474.742188 373.183594 474.617188 372.855469 474.371094 C 372.53125 474.128906 372.371094 473.859375 372.371094 473.570312 C 372.371094 473.398438 372.4375 473.25 372.574219 473.125 C 372.714844 473.003906 372.882812 472.941406 373.085938 472.941406 C 373.230469 472.941406 373.359375 472.964844 373.476562 473.007812 C 373.589844 473.050781 373.785156 473.171875 374.058594 473.375 C 374.507812 473.679688 374.957031 473.832031 375.40625 473.832031 C 376.097656 473.832031 376.703125 473.570312 377.214844 473.050781 C 377.730469 472.53125 377.984375 471.894531 377.984375 471.140625 C 377.984375 470.417969 377.753906 469.746094 377.289062 469.125 C 376.828125 468.503906 376.191406 468.019531 375.382812 467.671875 C 374.734375 467.414062 373.859375 467.261719 372.761719 467.21875 L 375.058594 462.578125 L 379.328125 462.578125 "/>
<path style="fill:none;stroke-width:1.2;stroke-linecap:butt;stroke-linejoin:round;stroke:rgb(0%,0%,0%);stroke-opacity:1;stroke-miterlimit:10;" d="M 4609.492188 1051.015625 L 4609.492188 995.507812 " transform="matrix(0.1,0,0,-0.1,0,555)"/>
<path style=" stroke:none;fill-rule:nonzero;fill:rgb(0%,0%,0%);fill-opacity:1;" d="M 464.746094 472.226562 L 463.921875 474.523438 L 456.878906 474.523438 L 456.878906 474.199219 C 458.941406 472.304688 460.398438 470.757812 461.246094 469.558594 C 462.09375 468.359375 462.511719 467.269531 462.511719 466.285156 C 462.511719 465.519531 462.28125 464.894531 461.820312 464.410156 C 461.359375 463.925781 460.800781 463.683594 460.148438 463.683594 C 459.574219 463.683594 459.050781 463.851562 458.578125 464.195312 C 458.109375 464.535156 457.765625 465.035156 457.550781 465.699219 L 457.222656 465.699219 C 457.367188 464.617188 457.746094 463.785156 458.351562 463.207031 C 458.960938 462.628906 459.71875 462.339844 460.628906 462.339844 C 461.597656 462.339844 462.40625 462.652344 463.054688 463.273438 C 463.707031 463.894531 464.03125 464.625 464.03125 465.460938 C 464.03125 466.070312 463.886719 466.675781 463.597656 467.285156 C 463.164062 468.238281 462.464844 469.242188 461.496094 470.296875 C 460.035156 471.902344 459.117188 472.871094 458.742188 473.203125 L 461.863281 473.203125 C 462.5 473.203125 462.945312 473.175781 463.195312 473.125 C 463.449219 473.074219 463.679688 472.976562 463.890625 472.832031 C 464.101562 472.691406 464.277344 472.488281 464.421875 472.226562 L 464.746094 472.226562 "/>
<path style="fill:none;stroke-width:13.875;stroke-linecap:butt;stroke-linejoin:round;stroke:rgb(0%,0%,0%);stroke-opacity:1;stroke-miterlimit:10;" d="M 940.273438 187.304688 L 940.273438 5369.414062 " transform="matrix(0.1,0,0,-0.1,0,555)"/>
<path style="fill:none;stroke-width:1.2;stroke-linecap:butt;stroke-linejoin:round;stroke:rgb(0%,0%,0%);stroke-opacity:1;stroke-miterlimit:10;" d="M 940.273438 187.304688 L 884.804688 187.304688 " transform="matrix(0.1,0,0,-0.1,0,555)"/>
<g clip-path="url(#clip6)" clip-rule="nonzero">
<path style=" stroke:none;fill-rule:nonzero;fill:rgb(0%,0%,0%);fill-opacity:1;" d="M 66.882812 537.570312 L 78.804688 537.570312 L 78.804688 536.636719 L 66.882812 536.636719 Z M 66.882812 537.570312 "/>
</g>
<path style=" stroke:none;fill-rule:nonzero;fill:rgb(0%,0%,0%);fill-opacity:1;" d="M 77.050781 531.738281 L 79.953125 530.328125 L 80.234375 530.328125 L 80.234375 540.410156 C 80.234375 541.074219 80.265625 541.488281 80.324219 541.65625 C 80.382812 541.820312 80.496094 541.949219 80.667969 542.035156 C 80.84375 542.121094 81.199219 542.171875 81.730469 542.1875 L 81.730469 542.511719 L 77.246094 542.511719 L 77.246094 542.1875 C 77.808594 542.171875 78.171875 542.121094 78.339844 542.035156 C 78.507812 541.949219 78.621094 541.832031 78.6875 541.6875 C 78.75 541.542969 78.785156 541.117188 78.785156 540.410156 L 78.785156 533.96875 C 78.785156 533.089844 78.753906 532.527344 78.699219 532.28125 C 78.652344 532.089844 78.578125 531.953125 78.46875 531.867188 C 78.359375 531.78125 78.226562 531.738281 78.070312 531.738281 C 77.851562 531.738281 77.554688 531.832031 77.179688 532.019531 L 77.050781 531.738281 "/>
<path style="fill:none;stroke-width:1.2;stroke-linecap:butt;stroke-linejoin:round;stroke:rgb(0%,0%,0%);stroke-opacity:1;stroke-miterlimit:10;" d="M 940.273438 1051.015625 L 884.804688 1051.015625 " transform="matrix(0.1,0,0,-0.1,0,555)"/>
<path style="fill:none;stroke-width:1.2;stroke-linecap:butt;stroke-linejoin:round;stroke:rgb(0%,0%,0%);stroke-opacity:1;stroke-miterlimit:10;" d="M 940.273438 1914.6875 L 884.804688 1914.6875 " transform="matrix(0.1,0,0,-0.1,0,555)"/>
<path style=" stroke:none;fill-rule:nonzero;fill:rgb(0%,0%,0%);fill-opacity:1;" d="M 77.050781 359.6875 L 79.953125 358.277344 L 80.234375 358.277344 L 80.234375 368.359375 C 80.234375 369.023438 80.265625 369.441406 80.324219 369.605469 C 80.382812 369.769531 80.496094 369.898438 80.667969 369.984375 C 80.84375 370.070312 81.199219 370.121094 81.730469 370.136719 L 81.730469 370.460938 L 77.246094 370.460938 L 77.246094 370.136719 C 77.808594 370.121094 78.171875 370.070312 78.339844 369.984375 C 78.507812 369.898438 78.621094 369.78125 78.6875 369.636719 C 78.75 369.492188 78.785156 369.066406 78.785156 368.359375 L 78.785156 361.921875 C 78.785156 361.039062 78.753906 360.476562 78.699219 360.230469 C 78.652344 360.039062 78.578125 359.902344 78.46875 359.816406 C 78.359375 359.730469 78.226562 359.6875 78.070312 359.6875 C 77.851562 359.6875 77.554688 359.78125 77.179688 359.96875 L 77.050781 359.6875 "/>
<path style="fill:none;stroke-width:1.2;stroke-linecap:butt;stroke-linejoin:round;stroke:rgb(0%,0%,0%);stroke-opacity:1;stroke-miterlimit:10;" d="M 940.273438 2778.359375 L 884.804688 2778.359375 " transform="matrix(0.1,0,0,-0.1,0,555)"/>
<path style=" stroke:none;fill-rule:nonzero;fill:rgb(0%,0%,0%);fill-opacity:1;" d="M 83.183594 280.75 L 82.359375 283.050781 L 75.316406 283.050781 L 75.316406 282.722656 C 77.382812 280.832031 78.839844 279.285156 79.683594 278.085938 C 80.53125 276.886719 80.953125 275.792969 80.953125 274.8125 C 80.953125 274.046875 80.71875 273.421875 80.257812 272.933594 C 79.796875 272.453125 79.238281 272.210938 78.589844 272.210938 C 78.011719 272.210938 77.488281 272.378906 77.015625 272.71875 C 76.546875 273.058594 76.203125 273.5625 75.988281 274.226562 L 75.660156 274.226562 C 75.804688 273.140625 76.183594 272.3125 76.789062 271.730469 C 77.398438 271.15625 78.15625 270.863281 79.066406 270.863281 C 80.035156 270.863281 80.84375 271.175781 81.492188 271.796875 C 82.144531 272.417969 82.46875 273.148438 82.46875 273.988281 C 82.46875 274.59375 82.324219 275.199219 82.035156 275.808594 C 81.601562 276.761719 80.902344 277.765625 79.933594 278.820312 C 78.472656 280.425781 77.554688 281.394531 77.179688 281.726562 L 80.300781 281.726562 C 80.9375 281.726562 81.382812 281.699219 81.636719 281.652344 C 81.886719 281.601562 82.117188 281.503906 82.328125 281.359375 C 82.539062 281.214844 82.714844 281.011719 82.859375 280.75 L 83.183594 280.75 "/>
<path style="fill:none;stroke-width:1.2;stroke-linecap:butt;stroke-linejoin:round;stroke:rgb(0%,0%,0%);stroke-opacity:1;stroke-miterlimit:10;" d="M 940.273438 3642.03125 L 884.804688 3642.03125 " transform="matrix(0.1,0,0,-0.1,0,555)"/>
<path style=" stroke:none;fill-rule:nonzero;fill:rgb(0%,0%,0%);fill-opacity:1;" d="M 75.835938 187.355469 C 76.183594 186.546875 76.617188 185.925781 77.136719 185.492188 C 77.65625 185.058594 78.300781 184.839844 79.066406 184.839844 C 80.035156 184.839844 80.769531 185.152344 81.277344 185.773438 C 81.667969 186.234375 81.863281 186.726562 81.863281 187.246094 C 81.863281 188.128906 81.3125 189.03125 80.214844 189.957031 C 80.953125 190.246094 81.507812 190.65625 81.882812 191.191406 C 82.261719 191.726562 82.449219 192.355469 82.449219 193.078125 C 82.449219 194.105469 82.113281 194.992188 81.449219 195.746094 C 80.597656 196.742188 79.363281 197.242188 77.742188 197.242188 C 76.933594 197.242188 76.386719 197.140625 76.09375 196.9375 C 75.804688 196.734375 75.660156 196.519531 75.660156 196.285156 C 75.660156 196.113281 75.730469 195.964844 75.867188 195.84375 C 76.003906 195.71875 76.167969 195.65625 76.355469 195.65625 C 76.5 195.65625 76.652344 195.679688 76.8125 195.722656 C 76.910156 195.753906 77.140625 195.855469 77.492188 196.039062 C 77.847656 196.21875 78.089844 196.332031 78.21875 196.375 C 78.4375 196.429688 78.667969 196.460938 78.914062 196.460938 C 79.507812 196.460938 80.027344 196.230469 80.476562 195.765625 C 80.921875 195.304688 81.148438 194.753906 81.148438 194.121094 C 81.148438 193.65625 81.046875 193.210938 80.84375 192.773438 C 80.683594 192.441406 80.511719 192.1875 80.324219 192.015625 C 80.078125 191.785156 79.734375 191.574219 79.292969 191.386719 C 78.851562 191.199219 78.402344 191.105469 77.9375 191.105469 L 77.65625 191.105469 L 77.65625 190.824219 C 78.117188 190.765625 78.585938 190.601562 79.054688 190.324219 C 79.523438 190.050781 79.863281 189.722656 80.074219 189.339844 C 80.28125 188.953125 80.386719 188.527344 80.386719 188.050781 C 80.386719 187.457031 80.199219 186.972656 79.824219 186.597656 C 79.449219 186.222656 78.980469 186.03125 78.414062 186.03125 C 77.503906 186.03125 76.746094 186.519531 76.140625 187.484375 L 75.835938 187.355469 "/>
<path style="fill:none;stroke-width:1.2;stroke-linecap:butt;stroke-linejoin:round;stroke:rgb(0%,0%,0%);stroke-opacity:1;stroke-miterlimit:10;" d="M 940.273438 4505.742188 L 884.804688 4505.742188 " transform="matrix(0.1,0,0,-0.1,0,555)"/>
<path style=" stroke:none;fill-rule:nonzero;fill:rgb(0%,0%,0%);fill-opacity:1;" d="M 83.316406 106.597656 L 83.316406 107.855469 L 81.710938 107.855469 L 81.710938 111 L 80.257812 111 L 80.257812 107.855469 L 75.207031 107.855469 L 75.207031 106.730469 L 80.757812 98.816406 L 81.710938 98.816406 L 81.710938 106.597656 Z M 80.257812 106.597656 L 80.257812 100.660156 L 76.074219 106.597656 L 80.257812 106.597656 "/>
<path style="fill:none;stroke-width:1.2;stroke-linecap:butt;stroke-linejoin:round;stroke:rgb(0%,0%,0%);stroke-opacity:1;stroke-miterlimit:10;" d="M 940.273438 5369.414062 L 884.804688 5369.414062 " transform="matrix(0.1,0,0,-0.1,0,555)"/>
<path style=" stroke:none;fill-rule:nonzero;fill:rgb(0%,0%,0%);fill-opacity:1;" d="M 82.75 13.027344 L 82.058594 14.523438 L 78.480469 14.523438 L 77.699219 16.128906 C 79.246094 16.359375 80.476562 16.9375 81.386719 17.863281 C 82.164062 18.660156 82.554688 19.597656 82.554688 20.683594 C 82.554688 21.316406 82.429688 21.902344 82.175781 22.4375 C 81.921875 22.972656 81.601562 23.429688 81.210938 23.804688 C 80.820312 24.179688 80.386719 24.476562 79.910156 24.691406 C 79.246094 25.023438 78.550781 25.191406 77.832031 25.191406 C 77.121094 25.191406 76.605469 25.070312 76.28125 24.824219 C 75.953125 24.578125 75.792969 24.308594 75.792969 24.019531 C 75.792969 23.847656 75.859375 23.699219 75.996094 23.578125 C 76.136719 23.453125 76.304688 23.390625 76.507812 23.390625 C 76.652344 23.390625 76.78125 23.414062 76.898438 23.457031 C 77.011719 23.5 77.207031 23.621094 77.484375 23.824219 C 77.929688 24.128906 78.378906 24.28125 78.828125 24.28125 C 79.519531 24.28125 80.125 24.019531 80.636719 23.5 C 81.152344 22.980469 81.40625 22.34375 81.40625 21.59375 C 81.40625 20.871094 81.175781 20.199219 80.714844 19.578125 C 80.25 18.953125 79.613281 18.472656 78.804688 18.125 C 78.15625 17.863281 77.28125 17.710938 76.183594 17.667969 L 78.480469 13.027344 L 82.75 13.027344 "/>
</g>
</svg>
