<?xml version="1.0" encoding="UTF-8"?>
<svg xmlns="http://www.w3.org/2000/svg" xmlns:xlink="http://www.w3.org/1999/xlink" width="555pt" height="555pt" viewBox="0 0 555 555" version="1.1">
<defs>
<clipPath id="clip1">
  <path d="M 301 16 L 515 16 L 515 539.101562 L 301 539.101562 Z M 301 16 "/>
</clipPath>
<clipPath id="clip2">
  <path d="M 488 6.9375 L 536 6.9375 L 536 42 L 488 42 Z M 488 6.9375 "/>
</clipPath>
<clipPath id="clip3">
  <path d="M 279 511 L 328 511 L 328 548.0625 L 279 548.0625 Z M 279 511 "/>
</clipPath>
<clipPath id="clip4">
  <path d="M 113 103 L 130 103 L 130 120.710938 L 113 120.710938 Z M 113 103 "/>
</clipPath>
<clipPath id="clip5">
  <path d="M 149 108 L 165.113281 108 L 165.113281 110 L 149 110 Z M 149 108 "/>
</clipPath>
<clipPath id="clip6">
  <path d="M 171 103 L 188 103 L 188 120.710938 L 171 120.710938 Z M 171 103 "/>
</clipPath>
<clipPath id="clip7">
  <path d="M 195 108 L 210.898438 108 L 210.898438 110 L 195 110 Z M 195 108 "/>
</clipPath>
<clipPath id="clip8">
  <path d="M 392 340 L 409 340 L 409 357.976562 L 392 357.976562 Z M 392 340 "/>
</clipPath>
<clipPath id="clip9">
  <path d="M 482 345 L 498.113281 345 L 498.113281 347 L 482 347 Z M 482 345 "/>
</clipPath>
<clipPath id="clip10">
  <path d="M 6.9375 387 L 544 387 L 544 389 L 6.9375 389 Z M 6.9375 387 "/>
</clipPath>
<clipPath id="clip11">
  <path d="M 58 406 L 63.824219 406 L 63.824219 408 L 58 408 Z M 58 406 "/>
</clipPath>
<clipPath id="clip12">
  <path d="M 177 406 L 183.148438 406 L 183.148438 408 L 177 408 Z M 177 406 "/>
</clipPath>
<clipPath id="clip13">
  <path d="M 255 201 L 265 201 L 265 213.675781 L 255 213.675781 Z M 255 201 "/>
</clipPath>
<clipPath id="clip14">
  <path d="M 277 536 L 283.050781 536 L 283.050781 538 L 277 538 Z M 277 536 "/>
</clipPath>
</defs>
<g id="surface1">
<rect x="0" y="0" width="555" height="555" style="fill:rgb(100%,100%,100%);fill-opacity:1;stroke:none;"/>
<path style="fill:none;stroke-width:27.75;stroke-linecap:butt;stroke-linejoin:round;stroke:rgb(100%,0%,0%);stroke-opacity:1;stroke-miterlimit:10;" d="M 5127.5 5369.492188 L 5029.296875 5337.8125 L 4996.601562 5327.304688 L 4868.59375 5286.054688 L 4782.382812 5258.242188 L 4707.890625 5234.257812 L 4568.125 5189.21875 L 4484.375 5162.1875 L 4388.398438 5128.828125 L 4353.90625 5116.875 L 4230.78125 5074.0625 L 4139.6875 5042.421875 L 4073.125 5019.296875 L 3925.46875 4967.96875 L 3915.507812 4964.53125 L 3887.851562 4954.921875 L 3760.742188 4906.992188 L 3711.210938 4888.320312 L 3606.601562 4848.867188 L 3496.992188 4807.578125 L 3452.421875 4790.742188 L 3338.007812 4747.617188 L 3299.257812 4731.640625 L 3282.773438 4724.882812 L 3149.023438 4669.765625 L 3068.554688 4636.601562 L 2998.75 4607.851562 L 2854.335938 4548.398438 L 2848.515625 4545.976562 L 2834.804688 4540.3125 L 2702.265625 4480.15625 L 2640.078125 4451.914062 L 2556.484375 4413.945312 L 2425.859375 4354.648438 L 2410.664062 4347.773438 L 2378.242188 4333.046875 L 2268.828125 4277.695312 L 2211.640625 4248.789062 L 2128.125 4206.5625 L 1997.421875 4140.46875 L 1987.421875 4135.390625 L 1968.398438 4125.742188 L 1851.875 4059.296875 L 1783.203125 4020.078125 L 1717.148438 3982.382812 L 1605.15625 3918.476562 L 1583.554688 3904.375 L 1568.945312 3894.765625 L 1455.78125 3820.703125 L 1354.726562 3754.53125 L 1328.046875 3737.03125 L 1288.554688 3711.171875 L 1206.015625 3647.8125 L 1140.507812 3597.5 L 1086.601562 3556.09375 L 1018.632812 3503.90625 L 971.523438 3460.15625 L 926.289062 3418.164062 L 862.1875 3358.632812 L 795.351562 3296.601562 L 757.734375 3252.421875 L 712.070312 3198.828125 L 660.898438 3138.828125 L 618.75 3089.335938 L 573.085938 3016.523438 L 497.8125 2896.484375 L 492.1875 2887.5 L 488.789062 2882.03125 L 431.328125 2739.101562 L 405.46875 2674.765625 L 387.65625 2574.0625 L 368.828125 2467.460938 L 378.828125 2260.195312 L 435.46875 2052.890625 L 538.789062 1845.625 L 688.710938 1638.320312 L 885.351562 1431.054688 L 1128.59375 1223.75 L 1418.515625 1016.484375 L 1755.117188 809.179688 L 2138.320312 601.914062 L 2568.203125 394.609375 L 3044.726562 187.304688 " transform="matrix(0.1,0,0,-0.1,0,555)"/>
<g clip-path="url(#clip1)" clip-rule="nonzero">
<path style="fill:none;stroke-width:27.75;stroke-linecap:butt;stroke-linejoin:round;stroke:rgb(0%,0%,100%);stroke-opacity:1;stroke-miterlimit:10;" d="M 3029.921875 150.46875 L 5127.851562 5370.390625 " transform="matrix(0.1,0,0,-0.1,0,555)"/>
</g>
<g clip-path="url(#clip2)" clip-rule="nonzero">
<path style="fill:none;stroke-width:13.875;stroke-linecap:square;stroke-linejoin:miter;stroke:rgb(0%,0%,0%);stroke-opacity:1;stroke-miterlimit:10;" d="M 5162.1875 5376.40625 C 5162.1875 5353.4375 5143.554688 5334.804688 5120.585938 5334.804688 C 5097.578125 5334.804688 5078.945312 5353.4375 5078.945312 5376.40625 C 5078.945312 5399.414062 5097.578125 5418.046875 5120.585938 5418.046875 C 5143.554688 5418.046875 5162.1875 5399.414062 5162.1875 5376.40625 Z M 5162.1875 5376.40625 " transform="matrix(0.1,0,0,-0.1,0,555)"/>
</g>
<path style=" stroke:none;fill-rule:nonzero;fill:rgb(0%,0%,0%);fill-opacity:1;" d="M 516.21875 17.359375 C 516.21875 19.65625 514.355469 21.519531 512.058594 21.519531 C 509.757812 21.519531 507.894531 19.65625 507.894531 17.359375 C 507.894531 15.058594 509.757812 13.195312 512.058594 13.195312 C 514.355469 13.195312 516.21875 15.058594 516.21875 17.359375 "/>
<g clip-path="url(#clip3)" clip-rule="nonzero">
<path style="fill:none;stroke-width:13.875;stroke-linecap:square;stroke-linejoin:miter;stroke:rgb(0%,0%,0%);stroke-opacity:1;stroke-miterlimit:10;" d="M 3079.414062 194.257812 C 3079.414062 171.25 3060.78125 152.617188 3037.8125 152.617188 C 3014.804688 152.617188 2996.171875 171.25 2996.171875 194.257812 C 2996.171875 217.226562 3014.804688 235.859375 3037.8125 235.859375 C 3060.78125 235.859375 3079.414062 217.226562 3079.414062 194.257812 Z M 3079.414062 194.257812 " transform="matrix(0.1,0,0,-0.1,0,555)"/>
</g>
<path style=" stroke:none;fill-rule:nonzero;fill:rgb(0%,0%,0%);fill-opacity:1;" d="M 307.941406 535.574219 C 307.941406 537.875 306.078125 539.738281 303.78125 539.738281 C 301.480469 539.738281 299.617188 537.875 299.617188 535.574219 C 299.617188 533.277344 301.480469 531.414062 303.78125 531.414062 C 306.078125 531.414062 307.941406 533.277344 307.941406 535.574219 "/>
<path style=" stroke:none;fill-rule:nonzero;fill:rgb(100%,0%,0%);fill-opacity:1;" d="M 74.46875 109.828125 L 72.972656 106.46875 L 72.367188 105.234375 C 72.148438 104.757812 71.96875 104.457031 71.824219 104.335938 C 71.679688 104.210938 71.414062 104.140625 71.023438 104.128906 L 70.285156 104.085938 L 70.070312 104.0625 L 70.199219 103.304688 L 74.164062 103.304688 L 76.59375 108.507812 L 77.136719 108.050781 C 78.726562 106.765625 79.519531 105.695312 79.519531 104.84375 C 79.519531 104.394531 79.339844 103.882812 78.980469 103.304688 L 81.386719 103.304688 C 81.472656 103.59375 81.515625 103.847656 81.515625 104.0625 C 81.515625 104.757812 81.269531 105.390625 80.777344 105.960938 C 80.285156 106.53125 79.179688 107.464844 77.460938 108.765625 L 76.875 109.199219 L 78.890625 113.40625 L 79.628906 114.75 C 79.949219 115.371094 80.351562 115.703125 80.84375 115.746094 L 81.644531 115.789062 L 81.863281 115.789062 L 81.710938 116.550781 L 77.722656 116.550781 L 74.859375 110.523438 L 73.820312 111.453125 C 72.15625 112.945312 71.328125 114.230469 71.328125 115.3125 C 71.328125 115.746094 71.464844 116.160156 71.738281 116.550781 L 69.136719 116.550781 C 69.105469 116.320312 69.09375 116.144531 69.09375 116.03125 C 69.09375 114.988281 69.851562 113.804688 71.371094 112.472656 L 73.253906 110.871094 L 74.46875 109.828125 "/>
<path style=" stroke:none;fill-rule:nonzero;fill:rgb(100%,0%,0%);fill-opacity:1;" d="M 90.988281 112.191406 L 91.226562 110.976562 L 105.667969 110.976562 L 105.429688 112.191406 Z M 91.878906 107.660156 L 92.117188 106.46875 L 106.578125 106.46875 L 106.316406 107.660156 L 91.878906 107.660156 "/>
<g clip-path="url(#clip4)" clip-rule="nonzero">
<path style=" stroke:none;fill-rule:nonzero;fill:rgb(100%,0%,0%);fill-opacity:1;" d="M 113.710938 121.363281 C 115.214844 120.320312 117.09375 118.761719 119.347656 116.679688 L 119.800781 116.246094 C 119.714844 114.351562 119.476562 112.359375 119.085938 110.261719 C 118.695312 108.167969 118.289062 106.648438 117.871094 105.710938 C 117.511719 104.945312 117.226562 104.492188 117.015625 104.355469 C 116.808594 104.21875 116.246094 104.128906 115.335938 104.085938 L 115.054688 104.0625 L 115.183594 103.304688 L 119.605469 103.304688 C 120.878906 106.296875 121.609375 109.792969 121.796875 113.796875 L 123.292969 111.890625 C 124.78125 109.996094 125.769531 108.613281 126.261719 107.738281 C 126.753906 106.863281 127 106.058594 127 105.320312 C 127 104.554688 126.675781 103.882812 126.023438 103.304688 L 129.039062 103.304688 C 129.226562 103.664062 129.320312 104.011719 129.320312 104.34375 C 129.320312 105.039062 129.09375 105.761719 128.636719 106.511719 C 128.179688 107.265625 127.238281 108.5 125.808594 110.21875 L 121.167969 115.746094 C 119.332031 117.960938 117.960938 119.832031 117.046875 121.363281 L 113.710938 121.363281 "/>
</g>
<path style=" stroke:none;fill-rule:nonzero;fill:rgb(100%,0%,0%);fill-opacity:1;" d="M 130.707031 101.285156 L 130.921875 100.226562 C 131.617188 98.808594 132.988281 97.296875 135.042969 95.695312 L 136.019531 94.933594 C 138.34375 93.128906 139.507812 91.488281 139.507812 90.015625 C 139.507812 88.335938 138.707031 87.5 137.101562 87.5 C 135.554688 87.5 134.652344 87.996094 134.390625 88.996094 L 134.195312 89.753906 L 134.152344 89.925781 L 133.222656 89.925781 L 133.632812 87.824219 C 134.921875 87.203125 136.25 86.890625 137.621094 86.890625 C 138.820312 86.890625 139.765625 87.164062 140.453125 87.703125 C 141.136719 88.246094 141.480469 88.996094 141.480469 89.949219 C 141.480469 90.859375 141.21875 91.660156 140.691406 92.355469 C 140.164062 93.050781 139.21875 93.820312 137.859375 94.675781 L 136.410156 95.585938 C 134.125 97.015625 132.984375 98.367188 132.984375 99.640625 L 139.53125 99.640625 L 139.074219 101.285156 L 130.707031 101.285156 "/>
<g clip-path="url(#clip5)" clip-rule="nonzero">
<path style=" stroke:none;fill-rule:nonzero;fill:rgb(100%,0%,0%);fill-opacity:1;" d="M 166.21875 109.699219 L 149.738281 109.699219 L 149.980469 108.398438 L 166.453125 108.398438 L 166.21875 109.699219 "/>
</g>
<g clip-path="url(#clip6)" clip-rule="nonzero">
<path style=" stroke:none;fill-rule:nonzero;fill:rgb(100%,0%,0%);fill-opacity:1;" d="M 171.984375 121.363281 C 173.488281 120.320312 175.367188 118.761719 177.621094 116.679688 L 178.074219 116.246094 C 177.988281 114.351562 177.75 112.359375 177.359375 110.261719 C 176.96875 108.167969 176.566406 106.648438 176.148438 105.710938 C 175.785156 104.945312 175.5 104.492188 175.289062 104.355469 C 175.078125 104.21875 174.519531 104.128906 173.609375 104.085938 L 173.328125 104.0625 L 173.457031 103.304688 L 177.882812 103.304688 C 179.152344 106.296875 179.882812 109.792969 180.070312 113.796875 L 181.566406 111.890625 C 183.054688 109.996094 184.046875 108.613281 184.539062 107.738281 C 185.027344 106.863281 185.273438 106.058594 185.273438 105.320312 C 185.273438 104.554688 184.949219 103.882812 184.300781 103.304688 L 187.3125 103.304688 C 187.5 103.664062 187.59375 104.011719 187.59375 104.34375 C 187.59375 105.039062 187.367188 105.761719 186.910156 106.511719 C 186.453125 107.265625 185.511719 108.5 184.082031 110.21875 L 179.441406 115.746094 C 177.605469 117.960938 176.234375 119.832031 175.324219 121.363281 L 171.984375 121.363281 "/>
</g>
<g clip-path="url(#clip7)" clip-rule="nonzero">
<path style=" stroke:none;fill-rule:nonzero;fill:rgb(100%,0%,0%);fill-opacity:1;" d="M 212.003906 109.699219 L 195.527344 109.699219 L 195.765625 108.398438 L 212.242188 108.398438 L 212.003906 109.699219 "/>
</g>
<path style=" stroke:none;fill-rule:nonzero;fill:rgb(100%,0%,0%);fill-opacity:1;" d="M 220.003906 116.550781 L 220.265625 115.207031 C 221.160156 113.371094 222.929688 111.417969 225.578125 109.351562 L 226.8125 108.398438 C 229.789062 106.070312 231.277344 103.960938 231.277344 102.066406 C 231.277344 99.898438 230.253906 98.816406 228.199219 98.816406 C 226.21875 98.816406 225.0625 99.453125 224.730469 100.722656 L 224.472656 101.742188 L 224.40625 101.960938 L 223.214844 101.960938 L 223.753906 99.226562 C 225.386719 98.433594 227.09375 98.035156 228.871094 98.035156 C 230.417969 98.035156 231.632812 98.386719 232.515625 99.085938 C 233.394531 99.789062 233.835938 100.753906 233.835938 101.980469 C 233.835938 103.152344 233.496094 104.183594 232.816406 105.082031 C 232.140625 105.976562 230.929688 106.960938 229.195312 108.03125 L 227.3125 109.222656 C 224.390625 111.058594 222.929688 112.800781 222.929688 114.445312 L 231.320312 114.445312 L 230.757812 116.550781 L 220.003906 116.550781 "/>
<g clip-path="url(#clip8)" clip-rule="nonzero">
<path style=" stroke:none;fill-rule:nonzero;fill:rgb(0%,0%,100%);fill-opacity:1;" d="M 392.597656 358.625 C 394.101562 357.585938 395.980469 356.023438 398.234375 353.941406 L 398.6875 353.507812 C 398.601562 351.613281 398.363281 349.621094 397.972656 347.523438 C 397.582031 345.429688 397.179688 343.910156 396.761719 342.972656 C 396.398438 342.207031 396.113281 341.753906 395.902344 341.617188 C 395.691406 341.480469 395.132812 341.390625 394.222656 341.347656 L 393.941406 341.324219 L 394.070312 340.566406 L 398.492188 340.566406 C 399.765625 343.558594 400.496094 347.054688 400.683594 351.058594 L 402.179688 349.148438 C 403.667969 347.257812 404.65625 345.871094 405.148438 345 C 405.640625 344.125 405.886719 343.320312 405.886719 342.582031 C 405.886719 341.816406 405.5625 341.144531 404.910156 340.566406 L 407.925781 340.566406 C 408.113281 340.925781 408.207031 341.273438 408.207031 341.605469 C 408.207031 342.300781 407.980469 343.023438 407.523438 343.773438 C 407.066406 344.527344 406.125 345.761719 404.691406 347.480469 L 400.054688 353.007812 C 398.21875 355.222656 396.847656 357.09375 395.9375 358.625 L 392.597656 358.625 "/>
</g>
<path style=" stroke:none;fill-rule:nonzero;fill:rgb(0%,0%,100%);fill-opacity:1;" d="M 417.050781 349.453125 L 417.289062 348.238281 L 431.730469 348.238281 L 431.488281 349.453125 Z M 417.941406 344.921875 L 418.179688 343.730469 L 432.640625 343.730469 L 432.378906 344.921875 L 417.941406 344.921875 "/>
<path style=" stroke:none;fill-rule:nonzero;fill:rgb(0%,0%,100%);fill-opacity:1;" d="M 442.003906 353.8125 L 442.265625 352.46875 C 443.160156 350.632812 444.929688 348.683594 447.578125 346.613281 L 448.8125 345.660156 C 451.789062 343.332031 453.277344 341.222656 453.277344 339.328125 C 453.277344 337.160156 452.253906 336.078125 450.199219 336.078125 C 448.21875 336.078125 447.0625 336.714844 446.730469 337.984375 L 446.472656 339.003906 L 446.40625 339.222656 L 445.214844 339.222656 L 445.753906 336.488281 C 447.386719 335.695312 449.09375 335.296875 450.871094 335.296875 C 452.417969 335.296875 453.632812 335.648438 454.515625 336.351562 C 455.394531 337.050781 455.835938 338.015625 455.835938 339.242188 C 455.835938 340.414062 455.496094 341.445312 454.816406 342.34375 C 454.140625 343.238281 452.929688 344.222656 451.195312 345.292969 L 449.3125 346.484375 C 446.390625 348.320312 444.929688 350.0625 444.929688 351.710938 L 453.320312 351.710938 L 452.757812 353.8125 L 442.003906 353.8125 "/>
<path style=" stroke:none;fill-rule:nonzero;fill:rgb(0%,0%,100%);fill-opacity:1;" d="M 467.132812 347.089844 L 465.636719 343.730469 L 465.027344 342.496094 C 464.8125 342.019531 464.632812 341.71875 464.484375 341.597656 C 464.34375 341.472656 464.074219 341.402344 463.683594 341.390625 L 462.949219 341.347656 L 462.730469 341.324219 L 462.859375 340.566406 L 466.828125 340.566406 L 469.257812 345.769531 L 469.796875 345.3125 C 471.386719 344.027344 472.183594 342.957031 472.183594 342.105469 C 472.183594 341.65625 472.003906 341.144531 471.640625 340.566406 L 474.046875 340.566406 C 474.132812 340.855469 474.179688 341.105469 474.179688 341.324219 C 474.179688 342.019531 473.929688 342.648438 473.441406 343.222656 C 472.949219 343.792969 471.84375 344.730469 470.125 346.027344 L 469.539062 346.464844 L 471.554688 350.667969 L 472.289062 352.011719 C 472.609375 352.632812 473.015625 352.964844 473.503906 353.007812 L 474.308594 353.054688 L 474.523438 353.054688 L 474.371094 353.8125 L 470.382812 353.8125 L 467.523438 347.785156 L 466.480469 348.71875 C 464.820312 350.207031 463.988281 351.492188 463.988281 352.574219 C 463.988281 353.007812 464.125 353.421875 464.398438 353.8125 L 461.800781 353.8125 C 461.769531 353.582031 461.753906 353.40625 461.753906 353.292969 C 461.753906 352.253906 462.511719 351.066406 464.03125 349.734375 L 465.917969 348.132812 L 467.132812 347.089844 "/>
<g clip-path="url(#clip9)" clip-rule="nonzero">
<path style=" stroke:none;fill-rule:nonzero;fill:rgb(0%,0%,100%);fill-opacity:1;" d="M 499.21875 346.960938 L 482.738281 346.960938 L 482.980469 345.660156 L 499.453125 345.660156 L 499.21875 346.960938 "/>
</g>
<path style=" stroke:none;fill-rule:nonzero;fill:rgb(0%,0%,100%);fill-opacity:1;" d="M 517.472656 335.601562 L 514.480469 350.644531 C 514.351562 351.324219 514.285156 351.910156 514.285156 352.402344 C 514.285156 352.75 514.597656 352.945312 515.21875 352.988281 L 516.039062 353.054688 L 517.472656 353.054688 L 517.320312 353.8125 L 507.996094 353.8125 L 508.128906 353.054688 L 509.578125 353.054688 C 510.347656 353.054688 510.871094 352.976562 511.152344 352.824219 C 511.433594 352.671875 511.640625 352.351562 511.769531 351.859375 L 512.074219 350.644531 L 514.304688 339.460938 L 514.480469 338.222656 L 514.566406 337.789062 C 514.507812 337.515625 514.261719 337.378906 513.828125 337.378906 C 513.671875 337.378906 513.203125 337.449219 512.421875 337.59375 L 511.164062 337.835938 L 511.3125 337.074219 L 517.472656 335.601562 "/>
<g clip-path="url(#clip10)" clip-rule="nonzero">
<path style="fill:none;stroke-width:13.875;stroke-linecap:butt;stroke-linejoin:round;stroke:rgb(0%,0%,0%);stroke-opacity:1;stroke-miterlimit:10;" d="M 69.375 1667.929688 L 5425.039062 1667.929688 " transform="matrix(0.1,0,0,-0.1,0,555)"/>
</g>
<path style=" stroke:none;fill-rule:nonzero;fill:rgb(0%,0%,0%);fill-opacity:1;" d="M 423.535156 426.308594 C 423.824219 426.613281 424.039062 426.921875 424.183594 427.238281 C 424.300781 427.441406 424.472656 427.992188 424.703125 428.890625 L 425.484375 427.738281 C 425.6875 427.449219 425.9375 427.179688 426.234375 426.925781 C 426.527344 426.675781 426.785156 426.496094 427.003906 426.394531 C 427.148438 426.335938 427.304688 426.308594 427.480469 426.308594 C 427.726562 426.308594 427.925781 426.378906 428.074219 426.515625 C 428.226562 426.652344 428.304688 426.8125 428.304688 427.003906 C 428.304688 427.234375 428.261719 427.394531 428.171875 427.480469 C 428.015625 427.621094 427.824219 427.695312 427.609375 427.695312 C 427.480469 427.695312 427.351562 427.667969 427.21875 427.609375 C 426.945312 427.523438 426.757812 427.480469 426.65625 427.480469 C 426.511719 427.480469 426.34375 427.558594 426.15625 427.71875 C 425.796875 428.019531 425.363281 428.613281 424.855469 429.496094 L 425.570312 432.507812 C 425.6875 432.972656 425.78125 433.25 425.851562 433.34375 C 425.925781 433.4375 426.003906 433.484375 426.089844 433.484375 C 426.207031 433.484375 426.351562 433.421875 426.527344 433.289062 C 426.84375 433.015625 427.117188 432.660156 427.351562 432.226562 L 427.652344 432.378906 C 427.277344 433.074219 426.808594 433.652344 426.242188 434.113281 C 425.925781 434.371094 425.652344 434.503906 425.421875 434.503906 C 425.085938 434.503906 424.828125 434.316406 424.640625 433.941406 C 424.511719 433.710938 424.257812 432.726562 423.882812 430.992188 C 422.957031 432.582031 422.21875 433.601562 421.671875 434.050781 C 421.308594 434.351562 420.960938 434.503906 420.628906 434.503906 C 420.398438 434.503906 420.179688 434.414062 419.976562 434.242188 C 419.847656 434.113281 419.78125 433.941406 419.78125 433.722656 C 419.78125 433.535156 419.847656 433.375 419.976562 433.246094 C 420.109375 433.117188 420.265625 433.050781 420.453125 433.050781 C 420.644531 433.050781 420.839844 433.144531 421.039062 433.332031 C 421.199219 433.464844 421.324219 433.527344 421.410156 433.527344 C 421.46875 433.527344 421.554688 433.484375 421.671875 433.398438 C 421.945312 433.164062 422.320312 432.683594 422.796875 431.945312 C 423.273438 431.210938 423.585938 430.671875 423.730469 430.339844 C 423.367188 428.910156 423.171875 428.160156 423.144531 428.085938 C 423.015625 427.695312 422.839844 427.421875 422.621094 427.261719 C 422.40625 427.101562 422.082031 427.023438 421.648438 427.023438 C 421.515625 427.023438 421.367188 427.03125 421.191406 427.046875 L 421.191406 426.71875 L 423.535156 426.308594 "/>
<path style="fill:none;stroke-width:1.2;stroke-linecap:butt;stroke-linejoin:round;stroke:rgb(0%,0%,0%);stroke-opacity:1;stroke-miterlimit:10;" d="M 664.453125 1667.929688 L 664.453125 1612.421875 " transform="matrix(0.1,0,0,-0.1,0,555)"/>
<g clip-path="url(#clip11)" clip-rule="nonzero">
<path style=" stroke:none;fill-rule:nonzero;fill:rgb(0%,0%,0%);fill-opacity:1;" d="M 58.554688 407.144531 L 70.480469 407.144531 L 70.480469 406.210938 L 58.554688 406.210938 Z M 58.554688 407.144531 "/>
</g>
<path style=" stroke:none;fill-rule:nonzero;fill:rgb(0%,0%,0%);fill-opacity:1;" d="M 74.859375 409.789062 L 74.035156 412.085938 L 66.988281 412.085938 L 66.988281 411.761719 C 69.058594 409.867188 70.511719 408.320312 71.359375 407.121094 C 72.203125 405.921875 72.628906 404.832031 72.628906 403.847656 C 72.628906 403.082031 72.394531 402.457031 71.933594 401.972656 C 71.46875 401.488281 70.914062 401.246094 70.265625 401.246094 C 69.683594 401.246094 69.160156 401.414062 68.691406 401.757812 C 68.222656 402.097656 67.878906 402.597656 67.660156 403.261719 L 67.335938 403.261719 C 67.480469 402.179688 67.855469 401.347656 68.464844 400.769531 C 69.070312 400.191406 69.832031 399.902344 70.742188 399.902344 C 71.710938 399.902344 72.519531 400.214844 73.167969 400.835938 C 73.820312 401.457031 74.144531 402.1875 74.144531 403.023438 C 74.144531 403.632812 74 404.238281 73.710938 404.847656 C 73.277344 405.800781 72.578125 406.804688 71.609375 407.859375 C 70.148438 409.464844 69.230469 410.433594 68.855469 410.765625 L 71.976562 410.765625 C 72.613281 410.765625 73.058594 410.738281 73.308594 410.6875 C 73.5625 410.636719 73.792969 410.539062 74.003906 410.394531 C 74.214844 410.253906 74.390625 410.050781 74.535156 409.789062 L 74.859375 409.789062 "/>
<path style="fill:none;stroke-width:1.2;stroke-linecap:butt;stroke-linejoin:round;stroke:rgb(0%,0%,0%);stroke-opacity:1;stroke-miterlimit:10;" d="M 1854.609375 1667.929688 L 1854.609375 1612.421875 " transform="matrix(0.1,0,0,-0.1,0,555)"/>
<g clip-path="url(#clip12)" clip-rule="nonzero">
<path style=" stroke:none;fill-rule:nonzero;fill:rgb(0%,0%,0%);fill-opacity:1;" d="M 177.882812 407.144531 L 189.804688 407.144531 L 189.804688 406.210938 L 177.882812 406.210938 Z M 177.882812 407.144531 "/>
</g>
<path style=" stroke:none;fill-rule:nonzero;fill:rgb(0%,0%,0%);fill-opacity:1;" d="M 188.050781 401.3125 L 190.953125 399.902344 L 191.234375 399.902344 L 191.234375 409.984375 C 191.234375 410.648438 191.265625 411.066406 191.320312 411.230469 C 191.382812 411.394531 191.496094 411.523438 191.667969 411.609375 C 191.84375 411.695312 192.195312 411.746094 192.730469 411.761719 L 192.730469 412.085938 L 188.242188 412.085938 L 188.242188 411.761719 C 188.808594 411.746094 189.171875 411.695312 189.339844 411.609375 C 189.503906 411.523438 189.621094 411.40625 189.683594 411.261719 C 189.75 411.117188 189.785156 410.691406 189.785156 409.984375 L 189.785156 403.546875 C 189.785156 402.664062 189.753906 402.101562 189.695312 401.855469 C 189.652344 401.664062 189.578125 401.527344 189.46875 401.441406 C 189.359375 401.355469 189.226562 401.3125 189.066406 401.3125 C 188.851562 401.3125 188.554688 401.40625 188.179688 401.59375 L 188.050781 401.3125 "/>
<path style="fill:none;stroke-width:1.2;stroke-linecap:butt;stroke-linejoin:round;stroke:rgb(0%,0%,0%);stroke-opacity:1;stroke-miterlimit:10;" d="M 3044.726562 1667.929688 L 3044.726562 1612.421875 " transform="matrix(0.1,0,0,-0.1,0,555)"/>
<path style=" stroke:none;fill-rule:nonzero;fill:rgb(0%,0%,0%);fill-opacity:1;" d="M 293.410156 403.414062 C 293.410156 402.054688 293.617188 400.882812 294.03125 399.890625 C 294.441406 398.902344 294.988281 398.167969 295.664062 397.691406 C 296.203125 397.316406 296.753906 397.128906 297.316406 397.128906 C 298.226562 397.128906 299.042969 397.589844 299.765625 398.515625 C 300.675781 399.671875 301.128906 401.238281 301.128906 403.21875 C 301.128906 404.605469 300.933594 405.785156 300.535156 406.753906 C 300.136719 407.722656 299.628906 408.425781 299.007812 408.867188 C 298.386719 409.308594 297.792969 409.527344 297.226562 409.527344 C 296.085938 409.527344 295.132812 408.855469 294.367188 407.511719 C 293.730469 406.371094 293.410156 405.003906 293.410156 403.414062 Z M 295.144531 403.632812 C 295.144531 405.277344 295.347656 406.621094 295.753906 407.664062 C 296.085938 408.53125 296.585938 408.964844 297.25 408.964844 C 297.566406 408.964844 297.894531 408.824219 298.234375 408.542969 C 298.574219 408.261719 298.832031 407.777344 299.007812 407.101562 C 299.28125 406.101562 299.417969 404.679688 299.417969 402.828125 C 299.417969 401.472656 299.273438 400.335938 298.984375 399.425781 C 298.78125 398.746094 298.507812 398.269531 298.160156 397.996094 C 297.929688 397.808594 297.640625 397.714844 297.292969 397.714844 C 296.902344 397.714844 296.550781 397.886719 296.230469 398.234375 C 295.8125 398.726562 295.527344 399.496094 295.375 400.542969 C 295.222656 401.589844 295.144531 402.621094 295.144531 403.632812 "/>
<path style="fill:none;stroke-width:1.2;stroke-linecap:butt;stroke-linejoin:round;stroke:rgb(0%,0%,0%);stroke-opacity:1;stroke-miterlimit:10;" d="M 4234.882812 1667.929688 L 4234.882812 1612.421875 " transform="matrix(0.1,0,0,-0.1,0,555)"/>
<path style=" stroke:none;fill-rule:nonzero;fill:rgb(0%,0%,0%);fill-opacity:1;" d="M 421.148438 401.3125 L 424.054688 399.902344 L 424.335938 399.902344 L 424.335938 409.984375 C 424.335938 410.648438 424.367188 411.066406 424.421875 411.230469 C 424.480469 411.394531 424.597656 411.523438 424.769531 411.609375 C 424.941406 411.695312 425.296875 411.746094 425.832031 411.761719 L 425.832031 412.085938 L 421.34375 412.085938 L 421.34375 411.761719 C 421.90625 411.746094 422.273438 411.695312 422.4375 411.609375 C 422.605469 411.523438 422.722656 411.40625 422.785156 411.261719 C 422.851562 411.117188 422.882812 410.691406 422.882812 409.984375 L 422.882812 403.546875 C 422.882812 402.664062 422.855469 402.101562 422.796875 401.855469 C 422.753906 401.664062 422.675781 401.527344 422.570312 401.441406 C 422.460938 401.355469 422.328125 401.3125 422.167969 401.3125 C 421.949219 401.3125 421.652344 401.40625 421.28125 401.59375 L 421.148438 401.3125 "/>
<path style="fill:none;stroke-width:1.2;stroke-linecap:butt;stroke-linejoin:round;stroke:rgb(0%,0%,0%);stroke-opacity:1;stroke-miterlimit:10;" d="M 5425.039062 1667.929688 L 5425.039062 1612.421875 " transform="matrix(0.1,0,0,-0.1,0,555)"/>
<path style=" stroke:none;fill-rule:nonzero;fill:rgb(0%,0%,0%);fill-opacity:1;" d="M 545.222656 409.789062 L 544.398438 412.085938 L 537.351562 412.085938 L 537.351562 411.761719 C 539.417969 409.867188 540.875 408.320312 541.71875 407.121094 C 542.566406 405.921875 542.988281 404.832031 542.988281 403.847656 C 542.988281 403.082031 542.757812 402.457031 542.296875 401.972656 C 541.832031 401.488281 541.277344 401.246094 540.625 401.246094 C 540.046875 401.246094 539.523438 401.414062 539.054688 401.757812 C 538.585938 402.097656 538.238281 402.597656 538.023438 403.261719 L 537.699219 403.261719 C 537.84375 402.179688 538.21875 401.347656 538.824219 400.769531 C 539.433594 400.191406 540.191406 399.902344 541.101562 399.902344 C 542.070312 399.902344 542.878906 400.214844 543.53125 400.835938 C 544.183594 401.457031 544.507812 402.1875 544.507812 403.023438 C 544.507812 403.632812 544.363281 404.238281 544.074219 404.847656 C 543.640625 405.800781 542.9375 406.804688 541.96875 407.859375 C 540.511719 409.464844 539.59375 410.433594 539.21875 410.765625 L 542.339844 410.765625 C 542.976562 410.765625 543.417969 410.738281 543.671875 410.6875 C 543.925781 410.636719 544.15625 410.539062 544.363281 410.394531 C 544.574219 410.253906 544.753906 410.050781 544.894531 409.789062 L 545.222656 409.789062 "/>
<path style="fill:none;stroke-width:13.875;stroke-linecap:butt;stroke-linejoin:round;stroke:rgb(0%,0%,0%);stroke-opacity:1;stroke-miterlimit:10;" d="M 3044.726562 187.304688 L 3044.726562 5369.492188 " transform="matrix(0.1,0,0,-0.1,0,555)"/>
<g clip-path="url(#clip13)" clip-rule="nonzero">
<path style=" stroke:none;fill-rule:nonzero;fill:rgb(0%,0%,0%);fill-opacity:1;" d="M 259.570312 201.535156 C 259.773438 201.882812 259.910156 202.203125 259.984375 202.5 C 260.054688 202.792969 260.132812 203.378906 260.21875 204.242188 L 260.589844 208.578125 C 260.949219 208.160156 261.464844 207.488281 262.128906 206.5625 C 262.445312 206.117188 262.84375 205.507812 263.320312 204.742188 C 263.609375 204.28125 263.789062 203.953125 263.863281 203.765625 C 263.890625 203.664062 263.90625 203.5625 263.90625 203.464844 C 263.90625 203.40625 263.882812 203.355469 263.839844 203.3125 C 263.796875 203.269531 263.6875 203.21875 263.515625 203.160156 C 263.34375 203.101562 263.203125 203 263.09375 202.855469 C 262.984375 202.710938 262.929688 202.539062 262.929688 202.335938 C 262.929688 202.105469 263 201.914062 263.136719 201.761719 C 263.273438 201.609375 263.453125 201.535156 263.667969 201.535156 C 263.925781 201.535156 264.148438 201.644531 264.328125 201.859375 C 264.511719 202.074219 264.601562 202.371094 264.601562 202.746094 C 264.601562 203.210938 264.441406 203.742188 264.121094 204.339844 C 263.804688 204.941406 263.195312 205.855469 262.292969 207.085938 C 261.386719 208.3125 260.292969 209.65625 259.007812 211.117188 C 258.125 212.113281 257.46875 212.746094 257.035156 213.011719 C 256.601562 213.28125 256.230469 213.414062 255.929688 213.414062 C 255.738281 213.414062 255.578125 213.34375 255.441406 213.199219 C 255.304688 213.054688 255.234375 212.894531 255.234375 212.71875 C 255.234375 212.488281 255.332031 212.277344 255.527344 212.09375 C 255.722656 211.90625 255.929688 211.808594 256.144531 211.808594 C 256.261719 211.808594 256.359375 211.839844 256.449219 211.894531 C 256.492188 211.925781 256.542969 212.007812 256.601562 212.144531 C 256.65625 212.28125 256.707031 212.371094 256.75 212.414062 C 256.78125 212.445312 256.816406 212.460938 256.859375 212.460938 C 256.890625 212.460938 256.945312 212.433594 257.035156 212.371094 C 257.367188 212.171875 257.742188 211.851562 258.160156 211.421875 C 258.722656 210.84375 259.144531 210.371094 259.417969 210.011719 L 258.921875 204.4375 C 258.847656 203.515625 258.730469 202.949219 258.5625 202.746094 C 258.394531 202.546875 258.117188 202.445312 257.726562 202.445312 C 257.597656 202.445312 257.371094 202.464844 257.054688 202.511719 L 256.988281 202.183594 L 259.570312 201.535156 "/>
</g>
<path style="fill:none;stroke-width:1.2;stroke-linecap:butt;stroke-linejoin:round;stroke:rgb(0%,0%,0%);stroke-opacity:1;stroke-miterlimit:10;" d="M 3044.726562 187.304688 L 2989.257812 187.304688 " transform="matrix(0.1,0,0,-0.1,0,555)"/>
<g clip-path="url(#clip14)" clip-rule="nonzero">
<path style=" stroke:none;fill-rule:nonzero;fill:rgb(0%,0%,0%);fill-opacity:1;" d="M 277.78125 537.570312 L 289.703125 537.570312 L 289.703125 536.636719 L 277.78125 536.636719 Z M 277.78125 537.570312 "/>
</g>
<path style=" stroke:none;fill-rule:nonzero;fill:rgb(0%,0%,0%);fill-opacity:1;" d="M 287.949219 531.738281 L 290.855469 530.328125 L 291.136719 530.328125 L 291.136719 540.410156 C 291.136719 541.074219 291.164062 541.488281 291.222656 541.65625 C 291.28125 541.820312 291.394531 541.949219 291.570312 542.035156 C 291.742188 542.121094 292.097656 542.171875 292.632812 542.1875 L 292.632812 542.511719 L 288.144531 542.511719 L 288.144531 542.1875 C 288.707031 542.171875 289.074219 542.121094 289.238281 542.035156 C 289.40625 541.949219 289.519531 541.832031 289.585938 541.6875 C 289.648438 541.542969 289.683594 541.117188 289.683594 540.410156 L 289.683594 533.96875 C 289.683594 533.089844 289.65625 532.527344 289.597656 532.28125 C 289.554688 532.089844 289.476562 531.953125 289.367188 531.867188 C 289.261719 531.78125 289.128906 531.738281 288.96875 531.738281 C 288.75 531.738281 288.453125 531.832031 288.078125 532.019531 L 287.949219 531.738281 "/>
<path style="fill:none;stroke-width:1.2;stroke-linecap:butt;stroke-linejoin:round;stroke:rgb(0%,0%,0%);stroke-opacity:1;stroke-miterlimit:10;" d="M 3044.726562 1667.929688 L 2989.257812 1667.929688 " transform="matrix(0.1,0,0,-0.1,0,555)"/>
<path style="fill:none;stroke-width:1.2;stroke-linecap:butt;stroke-linejoin:round;stroke:rgb(0%,0%,0%);stroke-opacity:1;stroke-miterlimit:10;" d="M 3044.726562 3148.554688 L 2989.257812 3148.554688 " transform="matrix(0.1,0,0,-0.1,0,555)"/>
<path style=" stroke:none;fill-rule:nonzero;fill:rgb(0%,0%,0%);fill-opacity:1;" d="M 287.949219 236.199219 L 290.855469 234.789062 L 291.136719 234.789062 L 291.136719 244.871094 C 291.136719 245.535156 291.164062 245.953125 291.222656 246.117188 C 291.28125 246.285156 291.394531 246.410156 291.570312 246.496094 C 291.742188 246.585938 292.097656 246.636719 292.632812 246.648438 L 292.632812 246.976562 L 288.144531 246.976562 L 288.144531 246.648438 C 288.707031 246.636719 289.074219 246.585938 289.238281 246.496094 C 289.40625 246.410156 289.519531 246.296875 289.585938 246.152344 C 289.648438 246.007812 289.683594 245.578125 289.683594 244.871094 L 289.683594 238.433594 C 289.683594 237.550781 289.65625 236.988281 289.597656 236.742188 C 289.554688 236.554688 289.476562 236.414062 289.367188 236.328125 C 289.261719 236.242188 289.128906 236.199219 288.96875 236.199219 C 288.75 236.199219 288.453125 236.292969 288.078125 236.480469 L 287.949219 236.199219 "/>
<path style="fill:none;stroke-width:1.2;stroke-linecap:butt;stroke-linejoin:round;stroke:rgb(0%,0%,0%);stroke-opacity:1;stroke-miterlimit:10;" d="M 3044.726562 4629.179688 L 2989.257812 4629.179688 " transform="matrix(0.1,0,0,-0.1,0,555)"/>
<path style=" stroke:none;fill-rule:nonzero;fill:rgb(0%,0%,0%);fill-opacity:1;" d="M 294.085938 96.214844 L 293.261719 98.511719 L 286.214844 98.511719 L 286.214844 98.1875 C 288.28125 96.292969 289.738281 94.746094 290.582031 93.546875 C 291.429688 92.347656 291.851562 91.257812 291.851562 90.273438 C 291.851562 89.507812 291.621094 88.882812 291.15625 88.398438 C 290.695312 87.914062 290.140625 87.671875 289.488281 87.671875 C 288.910156 87.671875 288.386719 87.84375 287.914062 88.183594 C 287.445312 88.519531 287.101562 89.023438 286.886719 89.6875 L 286.5625 89.6875 C 286.707031 88.605469 287.082031 87.773438 287.6875 87.195312 C 288.296875 86.617188 289.054688 86.328125 289.964844 86.328125 C 290.933594 86.328125 291.742188 86.640625 292.394531 87.261719 C 293.042969 87.882812 293.367188 88.613281 293.367188 89.449219 C 293.367188 90.058594 293.226562 90.664062 292.9375 91.269531 C 292.503906 92.226562 291.800781 93.230469 290.832031 94.285156 C 289.371094 95.890625 288.453125 96.855469 288.078125 97.191406 L 291.203125 97.191406 C 291.835938 97.191406 292.28125 97.164062 292.535156 97.113281 C 292.789062 97.0625 293.019531 96.964844 293.226562 96.820312 C 293.4375 96.675781 293.613281 96.476562 293.757812 96.214844 L 294.085938 96.214844 "/>
</g>
</svg>
