<?xml version="1.0" encoding="UTF-8"?>
<svg xmlns="http://www.w3.org/2000/svg" xmlns:xlink="http://www.w3.org/1999/xlink" width="129pt" height="123pt" viewBox="0 0 129 123" version="1.1">
<g id="surface1">
<rect x="0" y="0" width="129" height="123" style="fill:rgb(100%,100%,100%);fill-opacity:1;stroke:none;"/>
<path style="fill:none;stroke-width:10;stroke-linecap:round;stroke-linejoin:round;stroke:rgb(75.389099%,75.389099%,75.389099%);stroke-opacity:1;stroke-miterlimit:10;" d="M 85.117188 1301.40625 L 85.117188 -791.40625 " transform="matrix(0.1,0,0,-0.1,0,123)"/>
<path style="fill:none;stroke-width:10;stroke-linecap:round;stroke-linejoin:round;stroke:rgb(75.389099%,75.389099%,75.389099%);stroke-opacity:1;stroke-miterlimit:10;" d="M 652.03125 1301.40625 L 652.03125 -791.40625 " transform="matrix(0.1,0,0,-0.1,0,123)"/>
<path style="fill:none;stroke-width:10;stroke-linecap:round;stroke-linejoin:round;stroke:rgb(75.389099%,75.389099%,75.389099%);stroke-opacity:1;stroke-miterlimit:10;" d="M 935.507812 1301.40625 L 935.507812 -791.40625 " transform="matrix(0.1,0,0,-0.1,0,123)"/>
<path style="fill:none;stroke-width:10;stroke-linecap:round;stroke-linejoin:round;stroke:rgb(75.389099%,75.389099%,75.389099%);stroke-opacity:1;stroke-miterlimit:10;" d="M 1218.984375 1301.40625 L 1218.984375 -791.40625 " transform="matrix(0.1,0,0,-0.1,0,123)"/>
<path style="fill:none;stroke-width:10;stroke-linecap:round;stroke-linejoin:round;stroke:rgb(94.139099%,94.139099%,94.139099%);stroke-opacity:1;stroke-miterlimit:10;" d="M 28.4375 1301.40625 L 28.4375 -791.40625 " transform="matrix(0.1,0,0,-0.1,0,123)"/>
<path style="fill:none;stroke-width:10;stroke-linecap:round;stroke-linejoin:round;stroke:rgb(94.139099%,94.139099%,94.139099%);stroke-opacity:1;stroke-miterlimit:10;" d="M 141.796875 1301.40625 L 141.796875 -791.40625 " transform="matrix(0.1,0,0,-0.1,0,123)"/>
<path style="fill:none;stroke-width:10;stroke-linecap:round;stroke-linejoin:round;stroke:rgb(94.139099%,94.139099%,94.139099%);stroke-opacity:1;stroke-miterlimit:10;" d="M 198.515625 1301.40625 L 198.515625 -791.40625 " transform="matrix(0.1,0,0,-0.1,0,123)"/>
<path style="fill:none;stroke-width:10;stroke-linecap:round;stroke-linejoin:round;stroke:rgb(94.139099%,94.139099%,94.139099%);stroke-opacity:1;stroke-miterlimit:10;" d="M 255.195312 1301.40625 L 255.195312 -791.40625 " transform="matrix(0.1,0,0,-0.1,0,123)"/>
<path style="fill:none;stroke-width:10;stroke-linecap:round;stroke-linejoin:round;stroke:rgb(94.139099%,94.139099%,94.139099%);stroke-opacity:1;stroke-miterlimit:10;" d="M 311.875 1301.40625 L 311.875 -791.40625 " transform="matrix(0.1,0,0,-0.1,0,123)"/>
<path style="fill:none;stroke-width:10;stroke-linecap:round;stroke-linejoin:round;stroke:rgb(94.139099%,94.139099%,94.139099%);stroke-opacity:1;stroke-miterlimit:10;" d="M 425.273438 1301.40625 L 425.273438 -791.40625 " transform="matrix(0.1,0,0,-0.1,0,123)"/>
<path style="fill:none;stroke-width:10;stroke-linecap:round;stroke-linejoin:round;stroke:rgb(94.139099%,94.139099%,94.139099%);stroke-opacity:1;stroke-miterlimit:10;" d="M 481.953125 1301.40625 L 481.953125 -791.40625 " transform="matrix(0.1,0,0,-0.1,0,123)"/>
<path style="fill:none;stroke-width:10;stroke-linecap:round;stroke-linejoin:round;stroke:rgb(94.139099%,94.139099%,94.139099%);stroke-opacity:1;stroke-miterlimit:10;" d="M 538.671875 1301.40625 L 538.671875 -791.40625 " transform="matrix(0.1,0,0,-0.1,0,123)"/>
<path style="fill:none;stroke-width:10;stroke-linecap:round;stroke-linejoin:round;stroke:rgb(94.139099%,94.139099%,94.139099%);stroke-opacity:1;stroke-miterlimit:10;" d="M 595.351562 1301.40625 L 595.351562 -791.40625 " transform="matrix(0.1,0,0,-0.1,0,123)"/>
<path style="fill:none;stroke-width:10;stroke-linecap:round;stroke-linejoin:round;stroke:rgb(94.139099%,94.139099%,94.139099%);stroke-opacity:1;stroke-miterlimit:10;" d="M 708.75 1301.40625 L 708.75 -791.40625 " transform="matrix(0.1,0,0,-0.1,0,123)"/>
<path style="fill:none;stroke-width:10;stroke-linecap:round;stroke-linejoin:round;stroke:rgb(94.139099%,94.139099%,94.139099%);stroke-opacity:1;stroke-miterlimit:10;" d="M 765.429688 1301.40625 L 765.429688 -791.40625 " transform="matrix(0.1,0,0,-0.1,0,123)"/>
<path style="fill:none;stroke-width:10;stroke-linecap:round;stroke-linejoin:round;stroke:rgb(94.139099%,94.139099%,94.139099%);stroke-opacity:1;stroke-miterlimit:10;" d="M 822.109375 1301.40625 L 822.109375 -791.40625 " transform="matrix(0.1,0,0,-0.1,0,123)"/>
<path style="fill:none;stroke-width:10;stroke-linecap:round;stroke-linejoin:round;stroke:rgb(94.139099%,94.139099%,94.139099%);stroke-opacity:1;stroke-miterlimit:10;" d="M 878.828125 1301.40625 L 878.828125 -791.40625 " transform="matrix(0.1,0,0,-0.1,0,123)"/>
<path style="fill:none;stroke-width:10;stroke-linecap:round;stroke-linejoin:round;stroke:rgb(94.139099%,94.139099%,94.139099%);stroke-opacity:1;stroke-miterlimit:10;" d="M 992.1875 1301.40625 L 992.1875 -791.40625 " transform="matrix(0.1,0,0,-0.1,0,123)"/>
<path style="fill:none;stroke-width:10;stroke-linecap:round;stroke-linejoin:round;stroke:rgb(94.139099%,94.139099%,94.139099%);stroke-opacity:1;stroke-miterlimit:10;" d="M 1048.90625 1301.40625 L 1048.90625 -791.40625 " transform="matrix(0.1,0,0,-0.1,0,123)"/>
<path style="fill:none;stroke-width:10;stroke-linecap:round;stroke-linejoin:round;stroke:rgb(94.139099%,94.139099%,94.139099%);stroke-opacity:1;stroke-miterlimit:10;" d="M 1105.585938 1301.40625 L 1105.585938 -791.40625 " transform="matrix(0.1,0,0,-0.1,0,123)"/>
<path style="fill:none;stroke-width:10;stroke-linecap:round;stroke-linejoin:round;stroke:rgb(94.139099%,94.139099%,94.139099%);stroke-opacity:1;stroke-miterlimit:10;" d="M 1162.265625 1301.40625 L 1162.265625 -791.40625 " transform="matrix(0.1,0,0,-0.1,0,123)"/>
<path style="fill:none;stroke-width:10;stroke-linecap:round;stroke-linejoin:round;stroke:rgb(94.139099%,94.139099%,94.139099%);stroke-opacity:1;stroke-miterlimit:10;" d="M 1275.664062 1301.40625 L 1275.664062 -791.40625 " transform="matrix(0.1,0,0,-0.1,0,123)"/>
<path style="fill:none;stroke-width:10;stroke-linecap:round;stroke-linejoin:round;stroke:rgb(75.389099%,75.389099%,75.389099%);stroke-opacity:1;stroke-miterlimit:10;" d="M -780.898438 975.742188 L 1807.226562 975.742188 " transform="matrix(0.1,0,0,-0.1,0,123)"/>
<path style="fill:none;stroke-width:10;stroke-linecap:round;stroke-linejoin:round;stroke:rgb(75.389099%,75.389099%,75.389099%);stroke-opacity:1;stroke-miterlimit:10;" d="M -780.898438 692.265625 L 1807.226562 692.265625 " transform="matrix(0.1,0,0,-0.1,0,123)"/>
<path style="fill:none;stroke-width:10;stroke-linecap:round;stroke-linejoin:round;stroke:rgb(75.389099%,75.389099%,75.389099%);stroke-opacity:1;stroke-miterlimit:10;" d="M -780.898438 408.789062 L 1807.226562 408.789062 " transform="matrix(0.1,0,0,-0.1,0,123)"/>
<path style="fill:none;stroke-width:10;stroke-linecap:round;stroke-linejoin:round;stroke:rgb(94.139099%,94.139099%,94.139099%);stroke-opacity:1;stroke-miterlimit:10;" d="M -780.898438 1202.5 L 1807.226562 1202.5 " transform="matrix(0.1,0,0,-0.1,0,123)"/>
<path style="fill:none;stroke-width:10;stroke-linecap:round;stroke-linejoin:round;stroke:rgb(94.139099%,94.139099%,94.139099%);stroke-opacity:1;stroke-miterlimit:10;" d="M -780.898438 1145.78125 L 1807.226562 1145.78125 " transform="matrix(0.1,0,0,-0.1,0,123)"/>
<path style="fill:none;stroke-width:10;stroke-linecap:round;stroke-linejoin:round;stroke:rgb(94.139099%,94.139099%,94.139099%);stroke-opacity:1;stroke-miterlimit:10;" d="M -780.898438 1089.101562 L 1807.226562 1089.101562 " transform="matrix(0.1,0,0,-0.1,0,123)"/>
<path style="fill:none;stroke-width:10;stroke-linecap:round;stroke-linejoin:round;stroke:rgb(94.139099%,94.139099%,94.139099%);stroke-opacity:1;stroke-miterlimit:10;" d="M -780.898438 1032.421875 L 1807.226562 1032.421875 " transform="matrix(0.1,0,0,-0.1,0,123)"/>
<path style="fill:none;stroke-width:10;stroke-linecap:round;stroke-linejoin:round;stroke:rgb(94.139099%,94.139099%,94.139099%);stroke-opacity:1;stroke-miterlimit:10;" d="M -780.898438 919.023438 L 1807.226562 919.023438 " transform="matrix(0.1,0,0,-0.1,0,123)"/>
<path style="fill:none;stroke-width:10;stroke-linecap:round;stroke-linejoin:round;stroke:rgb(94.139099%,94.139099%,94.139099%);stroke-opacity:1;stroke-miterlimit:10;" d="M -780.898438 862.34375 L 1807.226562 862.34375 " transform="matrix(0.1,0,0,-0.1,0,123)"/>
<path style="fill:none;stroke-width:10;stroke-linecap:round;stroke-linejoin:round;stroke:rgb(94.139099%,94.139099%,94.139099%);stroke-opacity:1;stroke-miterlimit:10;" d="M -780.898438 805.664062 L 1807.226562 805.664062 " transform="matrix(0.1,0,0,-0.1,0,123)"/>
<path style="fill:none;stroke-width:10;stroke-linecap:round;stroke-linejoin:round;stroke:rgb(94.139099%,94.139099%,94.139099%);stroke-opacity:1;stroke-miterlimit:10;" d="M -780.898438 748.945312 L 1807.226562 748.945312 " transform="matrix(0.1,0,0,-0.1,0,123)"/>
<path style="fill:none;stroke-width:10;stroke-linecap:round;stroke-linejoin:round;stroke:rgb(94.139099%,94.139099%,94.139099%);stroke-opacity:1;stroke-miterlimit:10;" d="M -780.898438 635.546875 L 1807.226562 635.546875 " transform="matrix(0.1,0,0,-0.1,0,123)"/>
<path style="fill:none;stroke-width:10;stroke-linecap:round;stroke-linejoin:round;stroke:rgb(94.139099%,94.139099%,94.139099%);stroke-opacity:1;stroke-miterlimit:10;" d="M -780.898438 578.867188 L 1807.226562 578.867188 " transform="matrix(0.1,0,0,-0.1,0,123)"/>
<path style="fill:none;stroke-width:10;stroke-linecap:round;stroke-linejoin:round;stroke:rgb(94.139099%,94.139099%,94.139099%);stroke-opacity:1;stroke-miterlimit:10;" d="M -780.898438 522.1875 L 1807.226562 522.1875 " transform="matrix(0.1,0,0,-0.1,0,123)"/>
<path style="fill:none;stroke-width:10;stroke-linecap:round;stroke-linejoin:round;stroke:rgb(94.139099%,94.139099%,94.139099%);stroke-opacity:1;stroke-miterlimit:10;" d="M -780.898438 465.46875 L 1807.226562 465.46875 " transform="matrix(0.1,0,0,-0.1,0,123)"/>
<path style="fill:none;stroke-width:10;stroke-linecap:round;stroke-linejoin:round;stroke:rgb(94.139099%,94.139099%,94.139099%);stroke-opacity:1;stroke-miterlimit:10;" d="M -780.898438 352.109375 L 1807.226562 352.109375 " transform="matrix(0.1,0,0,-0.1,0,123)"/>
<path style="fill:none;stroke-width:10;stroke-linecap:round;stroke-linejoin:round;stroke:rgb(94.139099%,94.139099%,94.139099%);stroke-opacity:1;stroke-miterlimit:10;" d="M -780.898438 295.390625 L 1807.226562 295.390625 " transform="matrix(0.1,0,0,-0.1,0,123)"/>
<path style="fill:none;stroke-width:10;stroke-linecap:round;stroke-linejoin:round;stroke:rgb(94.139099%,94.139099%,94.139099%);stroke-opacity:1;stroke-miterlimit:10;" d="M -780.898438 238.710938 L 1807.226562 238.710938 " transform="matrix(0.1,0,0,-0.1,0,123)"/>
<path style="fill:none;stroke-width:10;stroke-linecap:round;stroke-linejoin:round;stroke:rgb(94.139099%,94.139099%,94.139099%);stroke-opacity:1;stroke-miterlimit:10;" d="M -780.898438 182.03125 L 1807.226562 182.03125 " transform="matrix(0.1,0,0,-0.1,0,123)"/>
<path style="fill:none;stroke-width:10;stroke-linecap:round;stroke-linejoin:round;stroke:rgb(94.139099%,94.139099%,94.139099%);stroke-opacity:1;stroke-miterlimit:10;" d="M -780.898438 68.632812 L 1807.226562 68.632812 " transform="matrix(0.1,0,0,-0.1,0,123)"/>
<path style="fill:none;stroke-width:10;stroke-linecap:round;stroke-linejoin:round;stroke:rgb(94.139099%,94.139099%,94.139099%);stroke-opacity:1;stroke-miterlimit:10;" d="M -780.898438 11.953125 L 1807.226562 11.953125 " transform="matrix(0.1,0,0,-0.1,0,123)"/>
<path style="fill:none;stroke-width:10;stroke-linecap:butt;stroke-linejoin:miter;stroke:rgb(0%,0%,0%);stroke-opacity:1;stroke-miterlimit:10;" d="M 368.59375 1292.460938 L 368.59375 -791.40625 " transform="matrix(0.1,0,0,-0.1,0,123)"/>
<path style="fill:none;stroke-width:10;stroke-linecap:butt;stroke-linejoin:miter;stroke:rgb(0%,0%,0%);stroke-opacity:1;stroke-miterlimit:10;" d="M -780.898438 125.3125 L 1798.28125 125.3125 " transform="matrix(0.1,0,0,-0.1,0,123)"/>
<path style=" stroke:none;fill-rule:nonzero;fill:rgb(0%,0%,0%);fill-opacity:1;" d="M 6.523438 115.9375 L 6.523438 115.582031 L 8.648438 115.582031 L 8.648438 115.9375 Z M 9.730469 117.355469 L 9.730469 116.96875 L 10.503906 116.96875 L 10.503906 113.917969 L 9.730469 114.109375 L 9.730469 113.710938 L 11.023438 113.390625 L 11.023438 116.96875 L 11.796875 116.96875 L 11.796875 117.355469 "/>
<path style=" stroke:none;fill-rule:nonzero;fill:rgb(0%,0%,0%);fill-opacity:1;" d="M 65.0625 117.355469 L 65.0625 116.96875 L 65.835938 116.96875 L 65.835938 113.917969 L 65.0625 114.109375 L 65.0625 113.710938 L 66.351562 113.390625 L 66.351562 116.96875 L 67.128906 116.96875 L 67.128906 117.355469 "/>
<path style=" stroke:none;fill-rule:nonzero;fill:rgb(0%,0%,0%);fill-opacity:1;" d="M 92.8125 117.355469 L 92.8125 116.90625 C 92.964844 116.554688 93.265625 116.171875 93.722656 115.761719 L 94.019531 115.496094 C 94.398438 115.152344 94.589844 114.8125 94.589844 114.472656 C 94.589844 114.257812 94.523438 114.085938 94.394531 113.964844 C 94.265625 113.839844 94.085938 113.777344 93.859375 113.777344 C 93.589844 113.777344 93.273438 113.882812 92.910156 114.089844 L 92.910156 113.632812 C 93.253906 113.472656 93.59375 113.390625 93.933594 113.390625 C 94.292969 113.390625 94.585938 113.488281 94.804688 113.683594 C 95.023438 113.878906 95.136719 114.136719 95.136719 114.460938 C 95.136719 114.691406 95.078125 114.898438 94.96875 115.078125 C 94.859375 115.257812 94.652344 115.476562 94.351562 115.730469 L 94.152344 115.902344 C 93.738281 116.25 93.5 116.585938 93.433594 116.90625 L 95.117188 116.90625 L 95.117188 117.355469 "/>
<path style=" stroke:none;fill-rule:nonzero;fill:rgb(0%,0%,0%);fill-opacity:1;" d="M 121.472656 117.328125 L 121.472656 116.847656 C 121.839844 116.992188 122.132812 117.066406 122.34375 117.066406 C 122.589844 117.066406 122.789062 116.996094 122.945312 116.851562 C 123.097656 116.707031 123.175781 116.519531 123.175781 116.292969 C 123.175781 115.75 122.796875 115.476562 122.03125 115.476562 L 121.828125 115.476562 L 121.828125 115.128906 L 122.007812 115.125 C 122.722656 115.125 123.082031 114.875 123.082031 114.371094 C 123.082031 113.976562 122.847656 113.777344 122.375 113.777344 C 122.117188 113.777344 121.835938 113.851562 121.523438 113.996094 L 121.523438 113.546875 C 121.828125 113.441406 122.125 113.390625 122.410156 113.390625 C 123.203125 113.390625 123.597656 113.691406 123.597656 114.289062 C 123.597656 114.742188 123.328125 115.066406 122.789062 115.261719 C 123.414062 115.40625 123.726562 115.746094 123.726562 116.285156 C 123.726562 116.648438 123.605469 116.9375 123.367188 117.144531 C 123.125 117.351562 122.796875 117.453125 122.375 117.453125 C 122.136719 117.453125 121.835938 117.414062 121.472656 117.328125 "/>
<path style=" stroke:none;fill-rule:nonzero;fill:rgb(0%,0%,0%);fill-opacity:1;" d="M 30.703125 84.335938 L 30.703125 83.949219 L 31.476562 83.949219 L 31.476562 80.894531 L 30.703125 81.089844 L 30.703125 80.691406 L 31.992188 80.371094 L 31.992188 83.949219 L 32.769531 83.949219 L 32.769531 84.335938 "/>
<path style=" stroke:none;fill-rule:nonzero;fill:rgb(0%,0%,0%);fill-opacity:1;" d="M 30.339844 55.777344 L 30.339844 55.324219 C 30.492188 54.976562 30.792969 54.59375 31.25 54.179688 L 31.546875 53.917969 C 31.925781 53.574219 32.117188 53.230469 32.117188 52.894531 C 32.117188 52.679688 32.050781 52.507812 31.921875 52.382812 C 31.792969 52.261719 31.613281 52.199219 31.386719 52.199219 C 31.117188 52.199219 30.800781 52.300781 30.4375 52.511719 L 30.4375 52.054688 C 30.78125 51.894531 31.121094 51.8125 31.460938 51.8125 C 31.824219 51.8125 32.113281 51.910156 32.335938 52.105469 C 32.554688 52.300781 32.664062 52.558594 32.664062 52.882812 C 32.664062 53.113281 32.609375 53.320312 32.496094 53.496094 C 32.386719 53.675781 32.179688 53.894531 31.878906 54.152344 L 31.679688 54.320312 C 31.265625 54.671875 31.027344 55.007812 30.964844 55.324219 L 32.644531 55.324219 L 32.644531 55.777344 "/>
<path style=" stroke:none;fill-rule:nonzero;fill:rgb(0%,0%,0%);fill-opacity:1;" d="M 30.441406 27.191406 L 30.441406 26.710938 C 30.808594 26.855469 31.101562 26.929688 31.3125 26.929688 C 31.558594 26.929688 31.761719 26.855469 31.914062 26.714844 C 32.070312 26.570312 32.144531 26.382812 32.144531 26.15625 C 32.144531 25.613281 31.765625 25.339844 31.003906 25.339844 L 30.800781 25.339844 L 30.800781 24.992188 L 30.980469 24.988281 C 31.695312 24.988281 32.050781 24.738281 32.050781 24.234375 C 32.050781 23.839844 31.816406 23.640625 31.34375 23.640625 C 31.085938 23.640625 30.804688 23.710938 30.492188 23.855469 L 30.492188 23.40625 C 30.796875 23.304688 31.09375 23.253906 31.382812 23.253906 C 32.171875 23.253906 32.570312 23.550781 32.570312 24.148438 C 32.570312 24.605469 32.300781 24.929688 31.761719 25.121094 C 32.386719 25.269531 32.699219 25.609375 32.699219 26.148438 C 32.699219 26.511719 32.578125 26.796875 32.335938 27.003906 C 32.097656 27.214844 31.765625 27.316406 31.34375 27.316406 C 31.105469 27.316406 30.804688 27.273438 30.441406 27.191406 "/>
<path style=" stroke:none;fill-rule:nonzero;fill:rgb(0%,0%,0%);fill-opacity:1;" d="M 31.574219 117.453125 C 31.175781 117.453125 30.851562 117.265625 30.605469 116.890625 C 30.359375 116.515625 30.238281 116.023438 30.238281 115.417969 C 30.238281 114.808594 30.359375 114.320312 30.609375 113.949219 C 30.859375 113.578125 31.183594 113.390625 31.589844 113.390625 C 31.996094 113.390625 32.324219 113.578125 32.574219 113.949219 C 32.820312 114.320312 32.945312 114.808594 32.945312 115.414062 C 32.945312 116.03125 32.820312 116.527344 32.574219 116.898438 C 32.324219 117.269531 31.992188 117.453125 31.574219 117.453125 Z M 31.582031 117.066406 C 32.125 117.066406 32.398438 116.511719 32.398438 115.40625 C 32.398438 114.320312 32.128906 113.777344 31.589844 113.777344 C 31.054688 113.777344 30.785156 114.324219 30.785156 115.417969 C 30.785156 116.519531 31.050781 117.066406 31.582031 117.066406 "/>
<path style="fill-rule:nonzero;fill:rgb(80.076599%,91.992188%,80.076599%);fill-opacity:1;stroke-width:10;stroke-linecap:round;stroke-linejoin:round;stroke:rgb(0%,59.959412%,0%);stroke-opacity:1;stroke-miterlimit:10;" d="M 368.59375 125.3125 L 368.59375 975.742188 L 433.984375 975.742188 L 438.046875 975.703125 L 462.578125 975.703125 L 466.640625 975.664062 L 474.84375 975.664062 L 478.90625 975.625 L 483.007812 975.625 L 487.109375 975.585938 L 491.171875 975.546875 L 495.273438 975.507812 L 499.335938 975.46875 L 503.4375 975.429688 L 507.539062 975.351562 L 511.601562 975.273438 L 515.703125 975.195312 L 519.765625 975.117188 L 527.96875 974.882812 L 532.03125 974.765625 L 536.132812 974.609375 L 540.234375 974.414062 L 544.296875 974.21875 L 548.398438 973.984375 L 552.460938 973.75 L 556.5625 973.476562 L 560.664062 973.164062 L 564.726562 972.8125 L 568.828125 972.421875 L 572.890625 971.992188 L 576.992188 971.523438 L 581.09375 971.015625 L 585.15625 970.429688 L 589.257812 969.804688 L 593.359375 969.140625 L 597.421875 968.398438 L 601.523438 967.578125 L 605.585938 966.640625 L 609.6875 965.703125 L 613.789062 964.609375 L 617.851562 963.476562 L 621.953125 962.226562 L 626.015625 960.859375 L 630.117188 959.375 L 634.21875 957.8125 L 638.28125 956.09375 L 642.382812 954.21875 L 646.445312 952.265625 L 650.546875 950.117188 L 654.648438 947.8125 L 658.710938 945.351562 L 662.8125 942.695312 L 666.914062 939.882812 L 670.976562 936.835938 L 675.078125 933.632812 L 679.140625 930.15625 L 683.242188 926.484375 L 687.34375 922.578125 L 691.40625 918.398438 L 695.507812 913.945312 L 699.570312 909.21875 L 703.671875 904.21875 L 707.773438 898.90625 L 711.835938 893.28125 L 715.9375 887.34375 L 720.039062 881.015625 L 724.101562 874.375 L 728.203125 867.34375 L 732.265625 859.882812 L 736.367188 852.070312 L 740.429688 843.828125 L 744.53125 835.15625 L 748.632812 826.015625 L 752.695312 816.40625 L 756.796875 806.328125 L 760.898438 795.742188 L 764.960938 784.648438 L 769.0625 773.007812 L 773.164062 760.859375 L 777.226562 748.125 L 781.328125 734.804688 L 785.390625 720.9375 L 789.492188 706.445312 L 793.554688 691.328125 L 797.65625 675.585938 L 801.757812 659.179688 L 805.820312 642.148438 L 809.921875 624.453125 L 814.023438 606.054688 L 818.085938 586.992188 L 822.1875 567.226562 L 826.25 546.757812 L 830.351562 525.585938 L 834.453125 503.710938 L 838.515625 481.09375 L 842.617188 457.8125 L 846.679688 433.789062 L 850.78125 409.023438 L 854.882812 383.59375 L 858.945312 357.460938 L 863.046875 330.664062 L 867.148438 303.203125 L 871.210938 275.039062 L 875.3125 246.289062 L 879.375 216.914062 L 883.476562 186.914062 L 887.578125 156.40625 L 891.640625 125.3125 L 368.59375 125.3125 " transform="matrix(0.1,0,0,-0.1,0,123)"/>
<path style=" stroke:none;fill-rule:nonzero;fill:rgb(0%,59.959412%,0%);fill-opacity:1;" d="M 59.402344 70.238281 L 58.875 72.359375 L 59.800781 72.359375 C 60.417969 72.359375 60.90625 72.226562 61.257812 71.960938 C 61.523438 71.695312 61.65625 71.34375 61.65625 70.902344 C 61.65625 70.8125 61.65625 70.769531 61.65625 70.769531 C 61.65625 70.238281 61.300781 69.929688 60.597656 69.839844 C 60.507812 69.839844 60.375 69.839844 60.199219 69.839844 C 59.84375 69.839844 59.667969 69.839844 59.667969 69.839844 C 59.582031 69.929688 59.492188 70.015625 59.402344 70.105469 C 59.402344 70.105469 59.402344 70.148438 59.402344 70.238281 Z M 60.597656 72.488281 C 61.125 72.667969 61.390625 72.976562 61.390625 73.417969 C 61.390625 73.417969 61.390625 73.460938 61.390625 73.550781 C 61.390625 73.636719 61.390625 73.769531 61.390625 73.949219 C 61.300781 74.390625 61.257812 74.699219 61.257812 74.875 C 61.257812 75.140625 61.347656 75.316406 61.523438 75.40625 C 61.523438 75.40625 61.566406 75.40625 61.65625 75.40625 C 61.921875 75.40625 62.140625 75.273438 62.316406 75.007812 C 62.316406 74.917969 62.363281 74.785156 62.449219 74.609375 C 62.449219 74.523438 62.496094 74.476562 62.582031 74.476562 C 62.582031 74.476562 62.582031 74.523438 62.582031 74.609375 C 62.582031 74.699219 62.539062 74.875 62.449219 75.140625 C 62.363281 75.226562 62.230469 75.359375 62.054688 75.535156 C 61.875 75.535156 61.742188 75.535156 61.65625 75.535156 C 61.125 75.535156 60.773438 75.40625 60.597656 75.140625 C 60.507812 75.050781 60.464844 74.875 60.464844 74.609375 C 60.464844 74.523438 60.507812 74.300781 60.597656 73.949219 C 60.683594 73.683594 60.726562 73.507812 60.726562 73.417969 C 60.726562 73.0625 60.550781 72.800781 60.199219 72.621094 C 60.109375 72.621094 59.976562 72.621094 59.800781 72.621094 L 58.742188 72.621094 L 58.210938 74.875 L 58.210938 75.007812 C 58.210938 75.09375 58.34375 75.140625 58.609375 75.140625 L 58.742188 75.140625 C 58.917969 75.140625 59.007812 75.183594 59.007812 75.273438 C 59.007812 75.359375 58.960938 75.40625 58.875 75.40625 L 56.753906 75.40625 C 56.664062 75.40625 56.621094 75.359375 56.621094 75.273438 C 56.621094 75.183594 56.664062 75.140625 56.753906 75.140625 C 57.195312 75.140625 57.417969 75.09375 57.417969 75.007812 C 57.503906 75.007812 57.550781 74.917969 57.550781 74.742188 L 58.742188 70.238281 C 58.742188 70.148438 58.742188 70.0625 58.742188 69.972656 C 58.742188 69.972656 58.699219 69.929688 58.609375 69.839844 C 58.609375 69.839844 58.566406 69.839844 58.476562 69.839844 C 58.386719 69.839844 58.300781 69.839844 58.210938 69.839844 C 58.035156 69.839844 57.945312 69.839844 57.945312 69.839844 C 57.945312 69.664062 57.992188 69.574219 58.078125 69.574219 L 60.597656 69.574219 C 61.300781 69.574219 61.832031 69.796875 62.183594 70.238281 C 62.363281 70.414062 62.449219 70.636719 62.449219 70.902344 C 62.449219 71.34375 62.140625 71.738281 61.523438 72.09375 C 61.257812 72.269531 60.949219 72.402344 60.597656 72.488281 "/>
<path style="fill:none;stroke-width:25;stroke-linecap:round;stroke-linejoin:round;stroke:rgb(30.200195%,30.200195%,100%);stroke-opacity:1;stroke-miterlimit:10;" d="M -780.898438 -360.742188 L -779.648438 -398.320312 L -778.359375 -434.21875 L -777.109375 -468.398438 L -775.859375 -500.703125 L -774.570312 -531.09375 L -773.320312 -559.492188 L -772.03125 -585.78125 L -770.78125 -609.960938 L -768.242188 -651.640625 L -765.742188 -684.21875 L -760.664062 -720.976562 L -759.414062 -724.179688 L -756.875 -723.515625 L -755.625 -719.609375 L -753.085938 -704.882812 L -750.546875 -681.171875 L -748.046875 -648.828125 L -745.507812 -608.28125 L -744.257812 -585.15625 L -742.96875 -560.15625 L -741.71875 -533.398438 L -740.46875 -505 L -739.179688 -475 L -737.929688 -443.515625 L -736.679688 -410.625 L -735.390625 -376.445312 L -734.140625 -341.015625 L -732.851562 -304.492188 L -731.601562 -266.992188 L -730.351562 -228.515625 L -729.0625 -189.296875 L -727.8125 -149.335938 L -726.5625 -108.828125 L -725.273438 -67.773438 L -724.023438 -26.367188 L -722.773438 15.3125 L -721.484375 57.1875 L -718.984375 141.015625 L -717.695312 182.773438 L -716.445312 224.296875 L -715.195312 265.46875 L -713.90625 306.25 L -712.65625 346.484375 L -711.40625 386.09375 L -710.117188 425.039062 L -708.867188 463.164062 L -707.617188 500.390625 L -706.328125 536.679688 L -705.078125 571.953125 L -703.828125 606.09375 L -702.539062 639.0625 L -701.289062 670.78125 L -700 701.171875 L -698.75 730.234375 L -697.5 757.851562 L -696.210938 783.984375 L -694.960938 808.59375 L -692.421875 853.046875 L -689.921875 890.9375 L -687.382812 922.03125 L -684.84375 946.09375 L -679.804688 972.929688 L -678.515625 975.195312 L -676.015625 974.414062 L -674.726562 971.367188 L -672.226562 960.195312 L -669.6875 942.265625 L -667.148438 917.890625 L -664.648438 887.34375 L -662.109375 850.9375 L -659.570312 809.023438 L -658.320312 786.171875 L -657.070312 762.070312 L -655.78125 736.835938 L -654.53125 710.507812 L -653.242188 683.125 L -651.992188 654.726562 L -650.742188 625.429688 L -649.453125 595.273438 L -648.203125 564.335938 L -646.953125 532.65625 L -645.664062 500.273438 L -644.414062 467.304688 L -643.164062 433.828125 L -641.875 399.84375 L -640.625 365.429688 L -639.335938 330.703125 L -638.085938 295.703125 L -636.835938 260.46875 L -635.546875 225.078125 L -634.296875 189.609375 L -633.046875 154.101562 L -631.757812 118.671875 L -630.507812 83.320312 L -629.257812 48.125 L -627.96875 13.164062 L -626.71875 -21.523438 L -625.46875 -55.859375 L -624.179688 -89.84375 L -622.929688 -123.359375 L -621.679688 -156.367188 L -620.390625 -188.789062 L -619.140625 -220.664062 L -617.890625 -251.875 L -616.601562 -282.382812 L -615.351562 -312.148438 L -614.0625 -341.09375 L -612.8125 -369.257812 L -611.5625 -396.5625 L -610.3125 -422.929688 L -609.023438 -448.359375 L -607.773438 -472.851562 L -606.484375 -496.328125 L -603.984375 -540.117188 L -601.445312 -579.609375 L -598.90625 -614.570312 L -596.40625 -644.882812 L -593.867188 -670.390625 L -588.828125 -706.875 L -583.75 -723.75 L -581.210938 -724.882812 L -579.335938 -722.617188 L -576.171875 -712.890625 L -573.632812 -700 L -568.59375 -661.09375 L -566.054688 -635.429688 L -563.515625 -605.898438 L -561.015625 -572.734375 L -558.476562 -536.132812 L -555.9375 -496.367188 L -553.4375 -453.671875 L -552.148438 -431.289062 L -550.898438 -408.320312 L -549.648438 -384.726562 L -548.359375 -360.585938 L -547.109375 -335.898438 L -545.859375 -310.742188 L -544.570312 -285.117188 L -543.320312 -259.0625 L -542.070312 -232.617188 L -540.78125 -205.820312 L -539.53125 -178.710938 L -538.242188 -151.328125 L -536.992188 -123.710938 L -535.742188 -95.859375 L -534.453125 -67.8125 L -533.203125 -39.648438 L -531.953125 -11.367188 L -530.664062 16.992188 L -528.164062 73.789062 L -526.875 102.1875 L -525.625 130.507812 L -524.375 158.75 L -523.085938 186.875 L -521.835938 214.84375 L -520.546875 242.65625 L -519.296875 270.273438 L -518.046875 297.65625 L -516.757812 324.726562 L -515.507812 351.5625 L -514.257812 378.046875 L -512.96875 404.21875 L -511.71875 430 L -510.46875 455.429688 L -509.179688 480.390625 L -507.929688 504.960938 L -506.679688 529.0625 L -505.390625 552.65625 L -504.140625 575.78125 L -502.890625 598.398438 L -500.351562 641.953125 L -497.8125 683.242188 L -495.3125 722.109375 L -492.773438 758.4375 L -490.234375 792.1875 L -487.695312 823.203125 L -485.195312 851.484375 L -482.65625 876.875 L -477.617188 919.101562 L -472.539062 949.609375 L -467.5 968.398438 L -466.210938 971.25 L -464.335938 974.257812 L -461.796875 975.742188 L -459.257812 974.414062 L -457.382812 971.601562 L -454.84375 965.546875 L -452.304688 956.835938 L -447.265625 931.835938 L -442.226562 897.304688 L -437.148438 854.023438 L -434.648438 829.375 L -432.109375 802.851562 L -429.570312 774.570312 L -427.070312 744.648438 L -424.53125 713.203125 L -421.992188 680.351562 L -419.453125 646.210938 L -416.953125 610.898438 L -414.414062 574.570312 L -411.875 537.265625 L -409.375 499.179688 L -406.835938 460.351562 L -404.296875 420.976562 L -401.757812 381.132812 L -399.257812 340.898438 L -396.71875 300.429688 L -394.179688 259.804688 L -391.679688 219.140625 L -389.140625 178.554688 L -386.601562 138.085938 L -384.101562 97.851562 L -381.5625 57.96875 L -379.023438 18.476562 L -376.523438 -20.507812 L -373.984375 -58.90625 L -371.445312 -96.679688 L -368.90625 -133.710938 L -366.40625 -169.960938 L -363.867188 -205.390625 L -361.328125 -239.921875 L -358.828125 -273.476562 L -356.289062 -306.054688 L -353.75 -337.578125 L -351.210938 -368.007812 L -348.710938 -397.304688 L -346.171875 -425.429688 L -343.632812 -452.382812 L -341.132812 -478.125 L -338.59375 -502.617188 L -336.054688 -525.859375 L -331.015625 -568.476562 L -325.9375 -605.9375 L -320.898438 -638.164062 L -315.859375 -665.195312 L -305.742188 -703.867188 L -300.664062 -715.664062 L -298.164062 -719.765625 L -295.625 -722.695312 L -293.085938 -724.453125 L -290.585938 -725.078125 L -288.046875 -724.570312 L -285.507812 -722.96875 L -282.96875 -720.351562 L -280.46875 -716.679688 L -275.390625 -706.328125 L -265.3125 -674.648438 L -260.234375 -653.75 L -255.195312 -629.84375 L -250.117188 -603.203125 L -245.078125 -574.023438 L -240.039062 -542.617188 L -234.960938 -509.21875 L -229.921875 -474.0625 L -224.84375 -437.382812 L -219.804688 -399.375 L -214.726562 -360.3125 L -209.6875 -320.390625 L -204.648438 -279.765625 L -199.570312 -238.632812 L -194.53125 -197.226562 L -189.492188 -155.625 L -184.414062 -114.0625 L -179.375 -72.617188 L -174.296875 -31.445312 L -169.257812 9.335938 L -164.179688 49.648438 L -159.140625 89.375 L -154.101562 128.398438 L -149.023438 166.679688 L -143.984375 204.140625 L -138.90625 240.703125 L -133.867188 276.367188 L -128.828125 311.015625 L -123.75 344.6875 L -118.710938 377.304688 L -113.632812 408.867188 L -108.59375 439.375 L -103.554688 468.789062 L -98.476562 497.109375 L -93.4375 524.335938 L -88.359375 550.46875 L -83.320312 575.507812 L -78.28125 599.53125 L -73.203125 622.460938 L -63.085938 665.234375 L -53.007812 704.023438 L -42.890625 739.023438 L -32.773438 770.46875 L -22.65625 798.515625 L -12.539062 823.476562 L 7.65625 865 L 27.890625 896.875 L 48.125 920.820312 L 68.320312 938.476562 L 88.554688 951.132812 L 108.75 960 L 128.984375 966.054688 L 149.21875 970.039062 L 169.414062 972.539062 L 189.648438 974.0625 L 209.882812 974.921875 L 230.078125 975.351562 L 250.3125 975.585938 L 270.507812 975.664062 L 310.976562 975.742188 L 432.265625 975.742188 L 472.734375 975.664062 L 492.929688 975.546875 L 513.164062 975.273438 L 533.398438 974.6875 L 553.59375 973.671875 L 573.828125 971.914062 L 594.023438 969.023438 L 614.257812 964.492188 L 634.492188 957.695312 L 654.6875 947.773438 L 674.921875 933.75 L 695.15625 914.375 L 715.351562 888.203125 L 735.585938 853.632812 L 745.703125 832.617188 L 755.78125 808.828125 L 765.898438 782.03125 L 776.015625 751.992188 L 786.132812 718.4375 L 796.25 681.171875 L 806.328125 640 L 811.40625 617.890625 L 816.445312 594.726562 L 821.523438 570.507812 L 826.5625 545.234375 L 831.601562 518.90625 L 836.679688 491.445312 L 841.71875 462.890625 L 846.796875 433.28125 L 851.835938 402.578125 L 856.875 370.78125 L 861.953125 337.929688 L 866.992188 304.0625 L 872.070312 269.179688 L 877.109375 233.359375 L 882.1875 196.601562 L 887.226562 158.984375 L 892.265625 120.546875 L 897.34375 81.367188 L 902.382812 41.523438 L 907.421875 1.132812 L 912.5 -39.765625 L 917.539062 -81.015625 L 922.617188 -122.5 L 927.65625 -164.0625 L 932.734375 -205.625 L 937.773438 -247.03125 L 942.8125 -288.046875 L 947.890625 -328.515625 L 952.929688 -368.320312 L 957.96875 -407.1875 L 963.046875 -444.921875 L 968.085938 -481.328125 L 973.164062 -516.132812 L 978.203125 -549.179688 L 983.28125 -580.15625 L 988.320312 -608.828125 L 993.359375 -634.921875 L 998.4375 -658.242188 L 1008.554688 -695.390625 L 1018.632812 -718.28125 L 1021.171875 -721.523438 L 1023.710938 -723.75 L 1026.210938 -724.882812 L 1028.75 -724.960938 L 1031.289062 -723.867188 L 1033.828125 -721.640625 L 1036.328125 -718.28125 L 1038.867188 -713.671875 L 1043.90625 -700.859375 L 1048.984375 -683.046875 L 1054.023438 -660.15625 L 1059.101562 -632.070312 L 1064.140625 -598.75 L 1069.21875 -560.234375 L 1074.257812 -516.5625 L 1076.796875 -492.8125 L 1079.296875 -467.8125 L 1081.835938 -441.601562 L 1084.375 -414.140625 L 1086.875 -385.546875 L 1089.414062 -355.78125 L 1091.953125 -324.921875 L 1094.453125 -292.96875 L 1096.992188 -260 L 1099.53125 -226.015625 L 1102.03125 -191.132812 L 1104.570312 -155.351562 L 1107.109375 -118.789062 L 1109.648438 -81.445312 L 1112.148438 -43.398438 L 1114.6875 -4.765625 L 1117.226562 34.453125 L 1119.765625 74.101562 L 1122.265625 114.140625 L 1124.804688 154.453125 L 1127.34375 195 L 1129.84375 235.625 L 1132.382812 276.289062 L 1134.921875 316.875 L 1137.421875 357.265625 L 1139.960938 397.34375 L 1142.5 437.03125 L 1145.039062 476.171875 L 1147.539062 514.6875 L 1150.078125 552.5 L 1152.617188 589.414062 L 1155.117188 625.351562 L 1157.65625 660.195312 L 1160.195312 693.828125 L 1162.695312 726.132812 L 1165.234375 756.992188 L 1167.773438 786.25 L 1170.3125 813.828125 L 1172.8125 839.609375 L 1175.351562 863.476562 L 1180.390625 905.039062 L 1185.46875 937.695312 L 1190.507812 960.664062 L 1195.585938 973.320312 L 1198.085938 975.585938 L 1200.625 975.078125 L 1203.164062 971.71875 L 1205.664062 965.507812 L 1210.742188 944.335938 L 1215.78125 911.484375 L 1220.859375 866.914062 L 1223.359375 840.351562 L 1225.898438 810.9375 L 1228.4375 778.828125 L 1230.9375 744.023438 L 1233.476562 706.640625 L 1236.015625 666.757812 L 1238.554688 624.53125 L 1241.054688 580.078125 L 1242.34375 557.070312 L 1243.59375 533.554688 L 1244.84375 509.53125 L 1246.132812 485.078125 L 1247.382812 460.15625 L 1248.632812 434.84375 L 1249.921875 409.101562 L 1251.171875 383.007812 L 1252.421875 356.601562 L 1253.710938 329.84375 L 1254.960938 302.773438 L 1256.210938 275.46875 L 1257.5 247.890625 L 1258.75 220.117188 L 1260.039062 192.1875 L 1261.289062 164.0625 L 1262.539062 135.859375 L 1263.828125 107.539062 L 1266.328125 50.742188 L 1267.617188 22.34375 L 1268.867188 -6.015625 L 1270.117188 -34.335938 L 1271.40625 -62.5 L 1272.65625 -90.585938 L 1273.90625 -118.4375 L 1275.195312 -146.132812 L 1276.445312 -173.554688 L 1277.695312 -200.742188 L 1278.984375 -227.578125 L 1280.234375 -254.101562 L 1281.484375 -280.195312 L 1282.773438 -305.9375 L 1284.023438 -331.171875 L 1285.273438 -355.9375 L 1286.5625 -380.195312 L 1287.8125 -403.90625 L 1289.101562 -426.992188 L 1291.601562 -471.289062 L 1294.140625 -512.851562 L 1296.679688 -551.367188 L 1299.21875 -586.601562 L 1301.71875 -618.320312 L 1304.257812 -646.328125 L 1306.796875 -670.351562 L 1311.835938 -705.78125 L 1316.875 -723.28125 L 1319.257812 -725.039062 L 1321.953125 -721.914062 L 1324.453125 -713.945312 L 1326.992188 -701.09375 L 1332.03125 -660.625 L 1334.570312 -633.164062 L 1337.109375 -600.9375 L 1339.648438 -564.140625 L 1342.148438 -522.890625 L 1343.4375 -500.625 L 1344.6875 -477.34375 L 1345.9375 -453.085938 L 1347.226562 -427.8125 L 1348.476562 -401.601562 L 1349.765625 -374.492188 L 1351.015625 -346.484375 L 1352.265625 -317.65625 L 1353.554688 -288.046875 L 1354.804688 -257.695312 L 1356.054688 -226.601562 L 1357.34375 -194.882812 L 1358.59375 -162.539062 L 1359.84375 -129.609375 L 1361.132812 -96.210938 L 1362.382812 -62.304688 L 1363.632812 -28.046875 L 1364.921875 6.601562 L 1366.171875 41.484375 L 1367.421875 76.640625 L 1368.710938 111.992188 L 1369.960938 147.421875 L 1371.210938 182.890625 L 1372.5 218.398438 L 1373.75 253.789062 L 1375.039062 289.0625 L 1376.289062 324.101562 L 1377.539062 358.90625 L 1378.828125 393.359375 L 1380.078125 427.421875 L 1381.328125 461.015625 L 1382.617188 494.101562 L 1383.867188 526.5625 L 1385.117188 558.398438 L 1386.40625 589.492188 L 1387.65625 619.804688 L 1388.90625 649.257812 L 1390.195312 677.8125 L 1391.445312 705.390625 L 1392.695312 731.953125 L 1393.984375 757.421875 L 1395.234375 781.71875 L 1396.484375 804.804688 L 1397.773438 826.640625 L 1400.273438 866.367188 L 1402.8125 900.429688 L 1405.351562 928.515625 L 1407.890625 950.3125 L 1412.929688 973.984375 L 1415.3125 975.546875 L 1417.96875 969.804688 L 1420.507812 957.070312 L 1423.046875 937.1875 L 1425.585938 910.234375 L 1428.085938 876.367188 L 1430.625 835.78125 L 1431.875 813.046875 L 1433.164062 788.75 L 1434.414062 762.890625 L 1435.664062 735.546875 L 1436.953125 706.796875 L 1438.203125 676.640625 L 1439.453125 645.15625 L 1440.742188 612.421875 L 1441.992188 578.476562 L 1443.242188 543.4375 L 1444.53125 507.34375 L 1445.78125 470.273438 L 1447.03125 432.304688 L 1448.320312 393.515625 L 1449.570312 354.023438 L 1450.859375 313.90625 L 1452.109375 273.242188 L 1453.359375 232.109375 L 1454.648438 190.625 L 1455.898438 148.90625 L 1457.148438 107.03125 L 1458.4375 65.117188 L 1459.6875 23.203125 L 1460.9375 -18.515625 L 1462.226562 -60 L 1463.476562 -101.09375 L 1464.726562 -141.71875 L 1466.015625 -181.796875 L 1467.265625 -221.171875 L 1468.554688 -259.765625 L 1469.804688 -297.5 L 1471.054688 -334.21875 L 1472.304688 -369.84375 L 1473.59375 -404.257812 L 1474.84375 -437.421875 L 1476.132812 -469.179688 L 1477.382812 -499.453125 L 1478.632812 -528.164062 L 1479.921875 -555.234375 L 1481.171875 -580.546875 L 1482.421875 -604.0625 L 1483.710938 -625.664062 L 1486.210938 -662.929688 L 1488.75 -691.835938 L 1493.828125 -722.929688 L 1496.328125 -724.53125 L 1497.617188 -721.757812 L 1498.867188 -716.601562 L 1503.90625 -672.148438 L 1506.445312 -635.820312 L 1507.695312 -614.296875 L 1508.984375 -590.507812 L 1510.234375 -564.609375 L 1511.484375 -536.601562 L 1512.773438 -506.601562 L 1514.023438 -474.648438 L 1515.273438 -440.820312 L 1516.5625 -405.234375 L 1517.8125 -367.96875 L 1519.0625 -329.140625 L 1520.351562 -288.828125 L 1521.601562 -247.1875 L 1522.890625 -204.296875 L 1524.140625 -160.3125 L 1524.765625 -137.929688 L 1525.390625 -115.3125 L 1526.054688 -92.5 L 1526.640625 -69.492188 L 1527.304688 -46.328125 L 1527.929688 -22.96875 L 1528.554688 0.507812 L 1529.179688 24.101562 L 1529.804688 47.8125 L 1530.46875 71.640625 L 1531.09375 95.507812 L 1531.71875 119.414062 L 1532.34375 143.359375 L 1532.96875 167.34375 L 1533.632812 191.289062 L 1534.882812 239.101562 L 1535.507812 262.890625 L 1536.132812 286.640625 L 1536.757812 310.273438 L 1537.421875 333.75 L 1538.046875 357.109375 L 1538.671875 380.3125 L 1539.296875 403.320312 L 1539.921875 426.132812 L 1540.585938 448.75 L 1541.835938 493.203125 L 1543.085938 536.523438 L 1544.375 578.59375 L 1545.625 619.257812 L 1546.875 658.359375 L 1548.164062 695.78125 L 1549.414062 731.367188 L 1550.664062 764.960938 L 1551.953125 796.484375 L 1553.203125 825.78125 L 1554.453125 852.773438 L 1555.742188 877.304688 L 1556.992188 899.296875 L 1559.53125 935.351562 L 1564.570312 973.515625 L 1567.109375 974.765625 L 1568.359375 970.898438 L 1569.648438 963.945312 L 1572.148438 940.9375 L 1574.6875 905.9375 L 1575.9375 884.101562 L 1577.226562 859.414062 L 1578.476562 831.914062 L 1579.726562 801.757812 L 1581.015625 769.0625 L 1582.265625 733.828125 L 1583.515625 696.25 L 1584.804688 656.445312 L 1586.054688 614.570312 L 1587.304688 570.703125 L 1587.96875 548.085938 L 1588.59375 525.039062 L 1589.21875 501.601562 L 1589.84375 477.773438 L 1590.46875 453.59375 L 1591.132812 429.0625 L 1591.757812 404.179688 L 1592.382812 379.023438 L 1593.007812 353.59375 L 1593.632812 327.929688 L 1594.257812 302.03125 L 1594.921875 275.9375 L 1595.546875 249.6875 L 1596.171875 223.242188 L 1596.796875 196.71875 L 1597.421875 170.078125 L 1598.085938 143.359375 L 1598.710938 116.601562 L 1599.335938 89.804688 L 1599.960938 63.046875 L 1600.585938 36.328125 L 1601.210938 9.648438 L 1601.875 -16.953125 L 1602.5 -43.398438 L 1603.125 -69.726562 L 1603.75 -95.898438 L 1604.375 -121.835938 L 1605.039062 -147.578125 L 1605.664062 -173.085938 L 1606.289062 -198.28125 L 1606.914062 -223.203125 L 1607.539062 -247.773438 L 1608.164062 -271.992188 L 1608.828125 -295.859375 L 1609.453125 -319.296875 L 1610.078125 -342.265625 L 1611.328125 -386.875 L 1612.617188 -429.453125 L 1613.867188 -469.84375 L 1615.117188 -507.8125 L 1616.40625 -543.203125 L 1617.65625 -575.859375 L 1618.90625 -605.625 L 1620.195312 -632.34375 L 1622.695312 -676.171875 L 1625.234375 -706.484375 L 1627.773438 -722.5 L 1628.710938 -724.726562 L 1630.9375 -721.796875 L 1631.5625 -718.867188 L 1632.8125 -710.195312 L 1635.351562 -681.757812 L 1637.890625 -638.828125 L 1639.140625 -612.070312 L 1640.390625 -581.953125 L 1641.640625 -548.554688 L 1642.929688 -512.03125 L 1644.179688 -472.539062 L 1645.46875 -430.195312 L 1646.09375 -408.046875 L 1646.71875 -385.234375 L 1647.34375 -361.796875 L 1647.96875 -337.8125 L 1648.59375 -313.242188 L 1649.257812 -288.125 L 1649.882812 -262.539062 L 1650.507812 -236.445312 L 1651.132812 -209.921875 L 1651.757812 -182.96875 L 1652.421875 -155.625 L 1653.046875 -127.929688 L 1653.671875 -99.921875 L 1654.296875 -71.601562 L 1654.921875 -43.007812 L 1655.585938 -14.21875 L 1656.210938 14.804688 L 1656.835938 43.945312 L 1657.460938 73.242188 L 1658.085938 102.617188 L 1658.710938 132.070312 L 1659.375 161.523438 L 1660 190.9375 L 1660.625 220.3125 L 1661.25 249.648438 L 1661.875 278.828125 L 1662.539062 307.851562 L 1663.164062 336.679688 L 1663.789062 365.273438 L 1664.414062 393.59375 L 1665.039062 421.640625 L 1665.664062 449.335938 L 1666.328125 476.679688 L 1666.953125 503.59375 L 1667.578125 530.078125 L 1668.203125 556.09375 L 1668.828125 581.601562 L 1669.453125 606.5625 L 1670.117188 630.976562 L 1670.742188 654.765625 L 1671.367188 677.929688 L 1671.992188 700.390625 L 1673.242188 743.28125 L 1674.53125 783.085938 L 1675.78125 819.6875 L 1677.03125 852.851562 L 1678.320312 882.382812 L 1679.570312 908.085938 L 1680.859375 929.84375 L 1683.359375 961.015625 L 1685.898438 974.960938 L 1688.4375 971.25 L 1690.9375 949.765625 L 1693.476562 910.703125 L 1694.726562 884.804688 L 1696.015625 854.765625 L 1697.265625 820.742188 L 1698.515625 782.890625 L 1699.804688 741.40625 L 1700.429688 719.375 L 1701.054688 696.523438 L 1701.679688 672.851562 L 1702.304688 648.398438 L 1702.96875 623.242188 L 1703.59375 597.34375 L 1704.21875 570.78125 L 1704.84375 543.554688 L 1705.46875 515.78125 L 1706.09375 487.382812 L 1706.757812 458.515625 L 1707.382812 429.101562 L 1708.007812 399.257812 L 1708.632812 369.023438 L 1709.257812 338.398438 L 1709.921875 307.460938 L 1710.546875 276.25 L 1711.171875 244.765625 L 1711.796875 213.085938 L 1712.421875 181.289062 L 1713.085938 149.335938 L 1714.960938 53.359375 L 1715.585938 21.445312 L 1716.210938 -10.351562 L 1716.875 -41.992188 L 1717.5 -73.4375 L 1718.125 -104.570312 L 1718.75 -135.429688 L 1719.375 -165.976562 L 1720.039062 -196.09375 L 1720.664062 -225.78125 L 1721.289062 -255 L 1721.914062 -283.671875 L 1722.539062 -311.796875 L 1723.164062 -339.296875 L 1723.789062 -366.171875 L 1724.453125 -392.34375 L 1725.078125 -417.773438 L 1725.703125 -442.421875 L 1726.328125 -466.289062 L 1726.953125 -489.296875 L 1727.617188 -511.40625 L 1728.867188 -552.8125 L 1730.117188 -590.3125 L 1731.40625 -623.632812 L 1732.65625 -652.5 L 1733.90625 -676.796875 L 1736.445312 -710.859375 L 1738.984375 -724.765625 L 1740.859375 -721.601562 L 1741.484375 -717.929688 L 1744.023438 -690.390625 L 1745.273438 -668.90625 L 1746.5625 -642.5 L 1747.8125 -611.210938 L 1749.0625 -575.273438 L 1750.351562 -534.84375 L 1750.976562 -513.007812 L 1751.601562 -490.15625 L 1752.226562 -466.328125 L 1752.851562 -441.523438 L 1753.515625 -415.78125 L 1754.140625 -389.179688 L 1754.765625 -361.71875 L 1755.390625 -333.4375 L 1756.015625 -304.414062 L 1756.640625 -274.6875 L 1757.304688 -244.257812 L 1757.929688 -213.242188 L 1758.554688 -181.601562 L 1759.179688 -149.492188 L 1759.804688 -116.875 L 1760.46875 -83.867188 L 1761.09375 -50.429688 L 1761.71875 -16.71875 L 1762.34375 17.265625 L 1762.96875 51.445312 L 1763.59375 85.78125 L 1764.257812 120.195312 L 1764.882812 154.6875 L 1765.507812 189.140625 L 1766.132812 223.515625 L 1766.757812 257.773438 L 1767.421875 291.835938 L 1768.046875 325.664062 L 1768.671875 359.179688 L 1769.296875 392.34375 L 1769.921875 425.078125 L 1770.546875 457.34375 L 1771.210938 489.101562 L 1771.835938 520.234375 L 1772.460938 550.78125 L 1773.085938 580.625 L 1773.710938 609.726562 L 1774.375 638.007812 L 1775 665.507812 L 1775.625 692.070312 L 1776.25 717.695312 L 1776.875 742.34375 L 1777.539062 765.976562 L 1778.164062 788.554688 L 1779.414062 830.273438 L 1780.664062 867.226562 L 1781.953125 899.140625 L 1783.203125 925.78125 L 1784.453125 946.914062 L 1786.992188 971.992188 L 1787.617188 974.570312 L 1792.03125 950.9375 L 1793.320312 930.78125 L 1794.570312 904.882812 L 1795.859375 873.359375 L 1797.109375 836.367188 L 1798.359375 794.21875 L 1798.984375 771.25 L 1799.648438 747.109375 L 1800.273438 721.835938 L 1800.898438 695.429688 L 1801.523438 668.007812 L 1802.148438 639.53125 L 1802.773438 610.078125 L 1803.4375 579.726562 L 1804.0625 548.515625 L 1804.6875 516.523438 L 1805.3125 483.75 L 1805.9375 450.273438 L 1806.5625 416.210938 L 1807.226562 381.5625 " transform="matrix(0.1,0,0,-0.1,0,123)"/>
<path style=" stroke:none;fill-rule:nonzero;fill:rgb(26.660156%,26.660156%,26.660156%);fill-opacity:1;" d="M 90.949219 110.46875 C 90.949219 111.453125 90.152344 112.25 89.164062 112.25 C 88.179688 112.25 87.378906 111.453125 87.378906 110.46875 C 87.378906 109.480469 88.179688 108.683594 89.164062 108.683594 C 90.152344 108.683594 90.949219 109.480469 90.949219 110.46875 "/>
<path style="fill:none;stroke-width:10;stroke-linecap:round;stroke-linejoin:round;stroke:rgb(0%,0%,0%);stroke-opacity:1;stroke-miterlimit:10;" d="M 909.492188 125.3125 C 909.492188 115.46875 901.523438 107.5 891.640625 107.5 C 881.796875 107.5 873.789062 115.46875 873.789062 125.3125 C 873.789062 135.195312 881.796875 143.164062 891.640625 143.164062 C 901.523438 143.164062 909.492188 135.195312 909.492188 125.3125 Z M 909.492188 125.3125 " transform="matrix(0.1,0,0,-0.1,0,123)"/>
<path style=" stroke:none;fill-rule:nonzero;fill:rgb(26.660156%,26.660156%,26.660156%);fill-opacity:1;" d="M 75.699219 97.757812 L 75.699219 102.523438 C 75.699219 102.703125 75.742188 102.789062 75.832031 102.789062 C 75.917969 102.878906 76.140625 102.921875 76.492188 102.921875 L 76.757812 102.921875 L 76.757812 103.1875 C 76.582031 103.1875 76.09375 103.1875 75.300781 103.1875 C 74.59375 103.1875 74.152344 103.1875 73.976562 103.1875 L 73.976562 102.921875 L 74.242188 102.921875 C 74.683594 102.921875 74.949219 102.878906 75.035156 102.789062 C 75.035156 102.703125 75.035156 102.613281 75.035156 102.523438 L 75.035156 98.152344 C 74.769531 98.242188 74.417969 98.285156 73.976562 98.285156 L 73.976562 98.019531 C 74.59375 98.019531 75.078125 97.84375 75.433594 97.492188 C 75.609375 97.492188 75.699219 97.535156 75.699219 97.621094 C 75.699219 97.621094 75.699219 97.667969 75.699219 97.757812 "/>
<path style=" stroke:none;fill-rule:nonzero;fill:rgb(26.660156%,26.660156%,26.660156%);fill-opacity:1;" d="M 79.011719 102.789062 C 79.011719 102.964844 78.921875 103.097656 78.746094 103.1875 C 78.746094 103.1875 78.699219 103.1875 78.613281 103.1875 C 78.433594 103.1875 78.304688 103.097656 78.214844 102.921875 C 78.214844 102.835938 78.214844 102.789062 78.214844 102.789062 C 78.214844 102.523438 78.257812 102.390625 78.347656 102.390625 C 78.433594 102.304688 78.523438 102.261719 78.613281 102.261719 C 78.789062 102.261719 78.921875 102.347656 79.011719 102.523438 C 79.011719 102.613281 79.011719 102.703125 79.011719 102.789062 "/>
<path style=" stroke:none;fill-rule:nonzero;fill:rgb(26.660156%,26.660156%,26.660156%);fill-opacity:1;" d="M 81.101562 99.34375 L 82.160156 100.007812 C 82.777344 99.65625 83.085938 99.257812 83.085938 98.816406 C 83.085938 98.460938 82.910156 98.152344 82.558594 97.886719 C 82.378906 97.800781 82.160156 97.757812 81.894531 97.757812 C 81.453125 97.757812 81.144531 97.886719 80.96875 98.152344 C 80.789062 98.328125 80.703125 98.507812 80.703125 98.683594 C 80.703125 98.949219 80.835938 99.167969 81.101562 99.34375 Z M 82.425781 100.140625 C 82.867188 100.40625 83.132812 100.582031 83.21875 100.667969 C 83.484375 101.023438 83.617188 101.375 83.617188 101.730469 C 83.617188 102.261719 83.441406 102.703125 83.085938 103.054688 C 82.734375 103.230469 82.335938 103.320312 81.894531 103.320312 C 81.363281 103.320312 80.921875 103.1875 80.570312 102.921875 C 80.304688 102.65625 80.171875 102.304688 80.171875 101.863281 C 80.171875 101.242188 80.570312 100.757812 81.363281 100.40625 C 81.011719 100.140625 80.789062 99.964844 80.703125 99.875 C 80.4375 99.609375 80.304688 99.300781 80.304688 98.949219 C 80.304688 98.507812 80.527344 98.152344 80.96875 97.886719 C 81.230469 97.621094 81.542969 97.492188 81.894531 97.492188 C 82.425781 97.492188 82.820312 97.667969 83.085938 98.019531 C 83.351562 98.199219 83.484375 98.460938 83.484375 98.816406 C 83.484375 99.34375 83.132812 99.785156 82.425781 100.140625 Z M 81.496094 100.539062 C 80.878906 100.890625 80.570312 101.332031 80.570312 101.863281 C 80.570312 102.304688 80.746094 102.65625 81.101562 102.921875 C 81.363281 103.097656 81.628906 103.1875 81.894531 103.1875 C 82.335938 103.1875 82.691406 103.011719 82.953125 102.65625 C 83.132812 102.480469 83.21875 102.304688 83.21875 102.128906 C 83.21875 101.773438 83.042969 101.464844 82.691406 101.199219 C 82.691406 101.199219 82.644531 101.199219 82.558594 101.199219 L 81.496094 100.539062 "/>
<path style=" stroke:none;fill-rule:nonzero;fill:rgb(26.660156%,26.660156%,26.660156%);fill-opacity:1;" d="M 84.28125 101.730469 L 84.28125 101.464844 L 86.796875 97.492188 C 86.886719 97.492188 86.972656 97.492188 87.0625 97.492188 C 87.148438 97.492188 87.195312 97.492188 87.195312 97.492188 L 87.195312 101.464844 L 87.988281 101.464844 L 87.988281 101.730469 L 87.195312 101.730469 L 87.195312 102.523438 C 87.195312 102.703125 87.238281 102.789062 87.328125 102.789062 C 87.328125 102.878906 87.503906 102.921875 87.855469 102.921875 L 87.988281 102.921875 L 87.988281 103.1875 C 87.722656 103.1875 87.328125 103.1875 86.796875 103.1875 C 86.265625 103.1875 85.914062 103.1875 85.734375 103.1875 L 85.734375 102.921875 L 85.867188 102.921875 C 86.222656 102.921875 86.441406 102.878906 86.53125 102.789062 C 86.53125 102.703125 86.53125 102.613281 86.53125 102.523438 L 86.53125 101.730469 Z M 86.53125 101.464844 L 86.53125 98.417969 L 84.542969 101.464844 L 86.53125 101.464844 "/>
<path style=" stroke:none;fill-rule:nonzero;fill:rgb(26.660156%,26.660156%,26.660156%);fill-opacity:1;" d="M 92.09375 101.464844 C 92.09375 102.082031 91.875 102.570312 91.433594 102.921875 C 91.078125 103.1875 90.683594 103.320312 90.242188 103.320312 C 89.710938 103.320312 89.269531 103.097656 88.914062 102.65625 C 88.738281 102.390625 88.652344 102.128906 88.652344 101.863281 C 88.652344 101.597656 88.78125 101.421875 89.046875 101.332031 C 89.3125 101.332031 89.445312 101.421875 89.445312 101.597656 C 89.535156 101.683594 89.578125 101.730469 89.578125 101.730469 C 89.578125 101.90625 89.488281 102.039062 89.3125 102.128906 C 89.226562 102.214844 89.136719 102.261719 89.046875 102.261719 C 89.046875 102.261719 89.003906 102.214844 88.914062 102.128906 C 89.003906 102.480469 89.226562 102.746094 89.578125 102.921875 C 89.753906 103.097656 89.976562 103.1875 90.242188 103.1875 C 90.59375 103.1875 90.902344 102.964844 91.167969 102.523438 C 91.257812 102.347656 91.300781 101.996094 91.300781 101.464844 C 91.300781 100.933594 91.257812 100.582031 91.167969 100.40625 C 90.992188 100.050781 90.726562 99.875 90.371094 99.875 C 89.929688 99.875 89.578125 100.050781 89.3125 100.40625 C 89.3125 100.492188 89.269531 100.539062 89.179688 100.539062 C 89.179688 100.539062 89.136719 100.492188 89.046875 100.40625 L 89.046875 97.757812 C 89.046875 97.667969 89.09375 97.578125 89.179688 97.492188 C 89.179688 97.492188 89.226562 97.535156 89.3125 97.621094 C 89.667969 97.710938 90.019531 97.757812 90.371094 97.757812 C 90.816406 97.757812 91.210938 97.710938 91.566406 97.621094 C 91.566406 97.535156 91.609375 97.492188 91.699219 97.492188 C 91.699219 97.492188 91.699219 97.535156 91.699219 97.621094 C 91.699219 97.710938 91.609375 97.84375 91.433594 98.019531 C 91.078125 98.375 90.636719 98.550781 90.109375 98.550781 C 89.84375 98.550781 89.578125 98.507812 89.3125 98.417969 L 89.3125 100.007812 C 89.667969 99.742188 90.0625 99.609375 90.503906 99.609375 C 90.949219 99.609375 91.34375 99.832031 91.699219 100.273438 C 91.964844 100.625 92.09375 101.023438 92.09375 101.464844 "/>
<path style=" stroke:none;fill-rule:nonzero;fill:rgb(26.660156%,26.660156%,26.660156%);fill-opacity:1;" d="M 96.335938 101.730469 L 96.070312 103.1875 L 92.890625 103.1875 C 92.890625 103.011719 92.933594 102.921875 93.023438 102.921875 L 94.613281 101.066406 C 95.230469 100.359375 95.539062 99.742188 95.539062 99.214844 C 95.539062 98.683594 95.363281 98.285156 95.011719 98.019531 C 94.832031 97.84375 94.613281 97.757812 94.347656 97.757812 C 93.992188 97.757812 93.683594 97.933594 93.417969 98.285156 C 93.332031 98.375 93.289062 98.507812 93.289062 98.683594 C 93.289062 98.683594 93.332031 98.683594 93.417969 98.683594 C 93.597656 98.683594 93.730469 98.773438 93.816406 98.949219 C 93.816406 99.035156 93.816406 99.082031 93.816406 99.082031 C 93.816406 99.34375 93.683594 99.476562 93.417969 99.476562 C 93.417969 99.566406 93.417969 99.609375 93.417969 99.609375 C 93.15625 99.609375 92.976562 99.523438 92.890625 99.34375 C 92.890625 99.257812 92.890625 99.167969 92.890625 99.082031 C 92.890625 98.640625 93.066406 98.285156 93.417969 98.019531 C 93.683594 97.667969 94.039062 97.492188 94.480469 97.492188 C 95.097656 97.492188 95.582031 97.710938 95.9375 98.152344 C 96.113281 98.417969 96.246094 98.726562 96.335938 99.082031 C 96.335938 99.082031 96.335938 99.125 96.335938 99.214844 C 96.335938 99.566406 96.15625 99.964844 95.804688 100.40625 C 95.628906 100.582031 95.363281 100.800781 95.011719 101.066406 L 94.613281 101.597656 L 94.480469 101.597656 L 93.550781 102.523438 L 95.140625 102.523438 C 95.582031 102.523438 95.847656 102.523438 95.9375 102.523438 C 95.9375 102.4375 95.980469 102.171875 96.070312 101.730469 L 96.335938 101.730469 "/>
<path style=" stroke:none;fill-rule:nonzero;fill:rgb(26.660156%,26.660156%,26.660156%);fill-opacity:1;" d="M 100.707031 98.019531 L 99.644531 99.609375 C 99.382812 99.964844 99.203125 100.449219 99.117188 101.066406 C 99.027344 101.507812 98.984375 101.996094 98.984375 102.523438 L 98.984375 102.921875 C 98.984375 103.1875 98.851562 103.320312 98.585938 103.320312 C 98.320312 103.320312 98.1875 103.1875 98.1875 102.921875 C 98.1875 101.949219 98.453125 100.980469 98.984375 100.007812 L 99.25 99.742188 L 100.175781 98.417969 L 98.453125 98.417969 C 97.925781 98.417969 97.660156 98.417969 97.660156 98.417969 C 97.570312 98.507812 97.480469 98.773438 97.394531 99.214844 L 97.261719 99.214844 L 97.527344 97.492188 L 97.660156 97.492188 C 97.746094 97.578125 97.792969 97.621094 97.792969 97.621094 L 97.925781 97.621094 C 98.011719 97.710938 98.277344 97.757812 98.71875 97.757812 L 100.839844 97.757812 C 100.839844 97.84375 100.792969 97.933594 100.707031 98.019531 "/>
<path style=" stroke:none;fill-rule:nonzero;fill:rgb(0%,0%,0%);fill-opacity:1;" d="M 42.761719 14.546875 L 42.363281 17.328125 C 42.273438 17.683594 42.144531 18.078125 41.964844 18.519531 C 41.964844 18.699219 41.921875 18.828125 41.832031 18.917969 C 41.65625 19.359375 41.390625 19.625 41.039062 19.714844 C 41.039062 19.714844 40.996094 19.714844 40.90625 19.714844 C 40.640625 19.714844 40.421875 19.625 40.242188 19.449219 C 40.15625 19.359375 40.109375 19.273438 40.109375 19.183594 C 40.109375 18.917969 40.242188 18.742188 40.507812 18.652344 C 40.507812 18.652344 40.554688 18.652344 40.640625 18.652344 C 40.816406 18.652344 40.90625 18.699219 40.90625 18.785156 C 40.90625 18.875 40.90625 18.917969 40.90625 18.917969 C 40.90625 19.097656 40.816406 19.226562 40.640625 19.316406 C 40.640625 19.316406 40.597656 19.359375 40.507812 19.449219 C 40.597656 19.535156 40.730469 19.582031 40.90625 19.582031 C 41.171875 19.582031 41.347656 19.273438 41.4375 18.652344 C 41.523438 18.566406 41.570312 18.433594 41.570312 18.257812 L 41.570312 17.992188 L 42.230469 14.546875 L 41.703125 14.546875 C 41.523438 14.546875 41.4375 14.546875 41.4375 14.546875 C 41.4375 14.460938 41.480469 14.371094 41.570312 14.28125 L 42.363281 14.28125 C 42.453125 13.574219 42.539062 13.132812 42.628906 12.957031 C 42.804688 12.429688 43.070312 12.117188 43.421875 12.03125 C 43.511719 12.03125 43.601562 12.03125 43.6875 12.03125 C 43.953125 12.03125 44.171875 12.117188 44.351562 12.296875 C 44.351562 12.382812 44.351562 12.472656 44.351562 12.558594 C 44.351562 12.824219 44.261719 13.003906 44.085938 13.089844 C 44.085938 13.089844 44.042969 13.089844 43.953125 13.089844 C 43.777344 13.089844 43.6875 13.046875 43.6875 12.957031 C 43.601562 12.871094 43.554688 12.824219 43.554688 12.824219 C 43.554688 12.648438 43.644531 12.515625 43.820312 12.429688 C 43.910156 12.429688 43.996094 12.382812 44.085938 12.296875 C 43.996094 12.207031 43.863281 12.164062 43.6875 12.164062 C 43.511719 12.164062 43.378906 12.25 43.289062 12.429688 C 43.203125 12.515625 43.113281 12.824219 43.027344 13.355469 L 42.894531 14.28125 L 43.554688 14.28125 C 43.730469 14.28125 43.820312 14.328125 43.820312 14.414062 C 43.820312 14.503906 43.777344 14.546875 43.6875 14.546875 L 42.761719 14.546875 "/>
<path style=" stroke:none;fill-rule:nonzero;fill:rgb(0%,0%,0%);fill-opacity:1;" d="M 47.558594 19.980469 C 47.558594 20.066406 47.558594 20.109375 47.558594 20.109375 C 47.472656 20.109375 47.292969 19.980469 47.03125 19.714844 C 46.675781 19.359375 46.410156 18.964844 46.234375 18.519531 C 45.792969 17.726562 45.574219 16.84375 45.574219 15.871094 C 45.574219 14.902344 45.75 14.019531 46.101562 13.222656 C 46.457031 12.605469 46.851562 12.117188 47.292969 11.765625 C 47.382812 11.675781 47.472656 11.632812 47.558594 11.632812 C 47.558594 11.632812 47.558594 11.675781 47.558594 11.765625 C 47.558594 11.765625 47.515625 11.808594 47.425781 11.898438 C 46.542969 12.78125 46.101562 14.105469 46.101562 15.871094 C 46.101562 17.636719 46.542969 18.964844 47.425781 19.847656 C 47.515625 19.933594 47.558594 19.980469 47.558594 19.980469 "/>
<path style=" stroke:none;fill-rule:nonzero;fill:rgb(0%,0%,0%);fill-opacity:1;" d="M 50.855469 15.476562 L 50.589844 16.535156 C 50.503906 16.976562 50.460938 17.242188 50.460938 17.328125 C 50.460938 17.59375 50.546875 17.769531 50.722656 17.859375 C 50.8125 17.859375 50.902344 17.859375 50.988281 17.859375 C 51.253906 17.859375 51.472656 17.726562 51.652344 17.460938 C 51.828125 17.285156 51.960938 17.0625 52.046875 16.800781 C 52.046875 16.710938 52.09375 16.667969 52.179688 16.667969 C 52.269531 16.667969 52.3125 16.710938 52.3125 16.800781 C 52.3125 16.886719 52.226562 17.0625 52.046875 17.328125 C 51.695312 17.859375 51.34375 18.125 50.988281 18.125 C 50.546875 18.125 50.238281 17.949219 50.0625 17.59375 C 50.0625 17.507812 50.0625 17.460938 50.0625 17.460938 C 49.886719 17.726562 49.664062 17.902344 49.398438 17.992188 C 49.3125 18.078125 49.222656 18.125 49.132812 18.125 C 48.78125 18.125 48.515625 17.992188 48.339844 17.726562 C 48.339844 17.726562 48.339844 17.636719 48.339844 17.460938 C 48.339844 17.285156 48.425781 17.152344 48.605469 17.0625 C 48.691406 17.0625 48.738281 17.0625 48.738281 17.0625 C 48.914062 17.0625 49.046875 17.109375 49.132812 17.195312 C 49.132812 17.285156 49.132812 17.328125 49.132812 17.328125 C 49.132812 17.507812 49.046875 17.636719 48.871094 17.726562 C 48.78125 17.726562 48.738281 17.726562 48.738281 17.726562 C 48.824219 17.816406 48.957031 17.859375 49.132812 17.859375 C 49.398438 17.859375 49.621094 17.683594 49.796875 17.328125 C 49.886719 17.242188 49.929688 17.152344 49.929688 17.0625 C 50.195312 15.914062 50.328125 15.210938 50.328125 14.945312 C 50.328125 14.589844 50.195312 14.414062 49.929688 14.414062 C 49.664062 14.414062 49.398438 14.589844 49.132812 14.945312 C 49.046875 15.03125 48.957031 15.164062 48.871094 15.34375 C 48.871094 15.34375 48.871094 15.386719 48.871094 15.476562 L 48.738281 15.605469 C 48.648438 15.605469 48.605469 15.605469 48.605469 15.605469 C 48.605469 15.429688 48.691406 15.210938 48.871094 14.945312 C 49.132812 14.503906 49.488281 14.28125 49.929688 14.28125 C 50.371094 14.28125 50.679688 14.503906 50.855469 14.945312 C 51.03125 14.589844 51.253906 14.371094 51.519531 14.28125 C 51.605469 14.28125 51.695312 14.28125 51.785156 14.28125 C 52.136719 14.28125 52.359375 14.371094 52.445312 14.546875 C 52.535156 14.636719 52.578125 14.722656 52.578125 14.8125 C 52.578125 15.078125 52.445312 15.210938 52.179688 15.210938 C 52.179688 15.296875 52.136719 15.34375 52.046875 15.34375 C 51.871094 15.34375 51.785156 15.253906 51.785156 15.078125 C 51.785156 15.078125 51.785156 15.03125 51.785156 14.945312 C 51.785156 14.769531 51.871094 14.636719 52.046875 14.546875 C 52.046875 14.546875 52.09375 14.546875 52.179688 14.546875 C 52.09375 14.460938 51.960938 14.414062 51.785156 14.414062 C 51.34375 14.414062 51.078125 14.722656 50.988281 15.34375 C 50.902344 15.34375 50.855469 15.386719 50.855469 15.476562 "/>
<path style=" stroke:none;fill-rule:nonzero;fill:rgb(0%,0%,0%);fill-opacity:1;" d="M 55.304688 15.871094 C 55.304688 16.84375 55.128906 17.726562 54.773438 18.519531 C 54.511719 19.140625 54.15625 19.625 53.714844 19.980469 C 53.625 20.066406 53.539062 20.109375 53.449219 20.109375 C 53.449219 20.109375 53.449219 20.066406 53.449219 19.980469 C 53.449219 19.980469 53.449219 19.933594 53.449219 19.847656 C 54.421875 18.964844 54.90625 17.636719 54.90625 15.871094 C 54.90625 14.105469 54.464844 12.78125 53.582031 11.898438 C 53.492188 11.808594 53.449219 11.765625 53.449219 11.765625 C 53.449219 11.675781 53.449219 11.632812 53.449219 11.632812 C 53.539062 11.632812 53.714844 11.765625 53.980469 12.03125 C 54.332031 12.382812 54.597656 12.78125 54.773438 13.222656 C 55.128906 14.019531 55.304688 14.902344 55.304688 15.871094 "/>
<path style=" stroke:none;fill-rule:nonzero;fill:rgb(0%,0%,0%);fill-opacity:1;" d="M 64.402344 15.210938 L 59.367188 15.210938 C 59.191406 15.210938 59.101562 15.164062 59.101562 15.078125 C 59.101562 14.988281 59.191406 14.945312 59.367188 14.945312 L 64.402344 14.945312 C 64.578125 14.945312 64.664062 14.988281 64.664062 15.078125 C 64.664062 15.164062 64.578125 15.210938 64.402344 15.210938 Z M 64.402344 16.800781 L 59.367188 16.800781 C 59.191406 16.800781 59.101562 16.753906 59.101562 16.667969 C 59.101562 16.578125 59.191406 16.535156 59.367188 16.535156 L 64.402344 16.535156 C 64.578125 16.535156 64.664062 16.578125 64.664062 16.667969 C 64.664062 16.753906 64.578125 16.800781 64.402344 16.800781 "/>
<path style=" stroke:none;fill-rule:nonzero;fill:rgb(0%,0%,0%);fill-opacity:1;" d="M 70.039062 14.945312 C 70.570312 15.121094 70.964844 15.429688 71.230469 15.871094 C 71.320312 16.050781 71.363281 16.269531 71.363281 16.535156 C 71.363281 16.976562 71.1875 17.371094 70.832031 17.726562 C 70.480469 17.992188 70.082031 18.125 69.640625 18.125 C 69.023438 18.125 68.539062 17.992188 68.183594 17.726562 C 68.007812 17.460938 67.917969 17.152344 67.917969 16.800781 C 67.917969 16.535156 68.007812 16.402344 68.183594 16.402344 C 68.273438 16.402344 68.316406 16.402344 68.316406 16.402344 C 68.582031 16.402344 68.757812 16.488281 68.847656 16.667969 C 68.847656 16.753906 68.847656 16.800781 68.847656 16.800781 C 68.847656 17.0625 68.757812 17.242188 68.582031 17.328125 C 68.492188 17.328125 68.40625 17.328125 68.316406 17.328125 C 68.492188 17.683594 68.847656 17.859375 69.375 17.859375 C 69.464844 17.949219 69.507812 17.992188 69.507812 17.992188 C 69.949219 17.992188 70.214844 17.816406 70.304688 17.460938 C 70.480469 17.195312 70.570312 16.886719 70.570312 16.535156 C 70.570312 15.828125 70.347656 15.386719 69.90625 15.210938 C 69.730469 15.121094 69.597656 15.078125 69.507812 15.078125 L 69.109375 15.078125 C 69.023438 15.078125 68.980469 15.078125 68.980469 15.078125 C 68.980469 14.988281 69.023438 14.945312 69.109375 14.945312 C 69.199219 14.945312 69.289062 14.945312 69.375 14.945312 C 69.640625 14.945312 69.863281 14.8125 70.039062 14.546875 L 70.171875 14.414062 C 70.347656 14.148438 70.4375 13.839844 70.4375 13.488281 C 70.4375 12.957031 70.214844 12.648438 69.773438 12.558594 C 69.683594 12.558594 69.597656 12.558594 69.507812 12.558594 C 69.15625 12.558594 68.847656 12.691406 68.582031 12.957031 C 68.492188 12.957031 68.449219 13.003906 68.449219 13.089844 C 68.800781 13.089844 68.980469 13.222656 68.980469 13.488281 C 68.980469 13.664062 68.890625 13.796875 68.714844 13.886719 C 68.625 13.886719 68.582031 13.886719 68.582031 13.886719 C 68.316406 13.886719 68.183594 13.796875 68.183594 13.621094 C 68.09375 13.621094 68.050781 13.574219 68.050781 13.488281 C 68.050781 13.132812 68.273438 12.824219 68.714844 12.558594 C 68.980469 12.382812 69.289062 12.296875 69.640625 12.296875 C 70.171875 12.296875 70.570312 12.472656 70.832031 12.824219 C 71.097656 13.003906 71.230469 13.222656 71.230469 13.488281 C 71.230469 14.019531 71.011719 14.414062 70.570312 14.679688 C 70.390625 14.855469 70.214844 14.945312 70.039062 14.945312 "/>
<path style=" stroke:none;fill-rule:nonzero;fill:rgb(0%,0%,0%);fill-opacity:1;" d="M 76.21875 14.679688 C 76.042969 14.503906 75.734375 14.414062 75.292969 14.414062 C 74.941406 14.414062 74.675781 14.589844 74.5 14.945312 C 74.234375 15.210938 74.101562 15.605469 74.101562 16.136719 C 74.101562 16.933594 74.367188 17.460938 74.894531 17.726562 C 75.074219 17.816406 75.25 17.859375 75.425781 17.859375 C 75.957031 17.859375 76.308594 17.550781 76.484375 16.933594 C 76.484375 16.933594 76.53125 16.933594 76.617188 16.933594 C 76.707031 16.933594 76.75 16.933594 76.75 16.933594 C 76.75 17.109375 76.664062 17.285156 76.484375 17.460938 C 76.21875 17.902344 75.824219 18.125 75.292969 18.125 C 74.765625 18.125 74.320312 17.902344 73.96875 17.460938 C 73.617188 17.109375 73.4375 16.667969 73.4375 16.136719 C 73.4375 15.605469 73.660156 15.121094 74.101562 14.679688 C 74.453125 14.328125 74.851562 14.148438 75.292969 14.148438 C 75.734375 14.148438 76.089844 14.28125 76.351562 14.546875 C 76.53125 14.722656 76.617188 14.902344 76.617188 15.078125 C 76.617188 15.34375 76.53125 15.476562 76.351562 15.476562 C 76.265625 15.476562 76.21875 15.476562 76.21875 15.476562 C 76.042969 15.476562 75.910156 15.386719 75.824219 15.210938 C 75.824219 15.210938 75.824219 15.164062 75.824219 15.078125 C 75.824219 14.902344 75.910156 14.769531 76.089844 14.679688 C 76.175781 14.679688 76.21875 14.679688 76.21875 14.679688 "/>
<path style=" stroke:none;fill-rule:nonzero;fill:rgb(0%,0%,0%);fill-opacity:1;" d="M 80.917969 16.136719 C 80.917969 16.753906 80.695312 17.242188 80.253906 17.59375 C 79.902344 17.949219 79.503906 18.125 79.0625 18.125 C 78.53125 18.125 78.089844 17.902344 77.738281 17.460938 C 77.382812 17.109375 77.207031 16.667969 77.207031 16.136719 C 77.207031 15.605469 77.382812 15.121094 77.738281 14.679688 C 78.089844 14.328125 78.53125 14.148438 79.0625 14.148438 C 79.589844 14.148438 80.03125 14.371094 80.386719 14.8125 C 80.738281 15.253906 80.917969 15.695312 80.917969 16.136719 Z M 79.0625 17.859375 C 79.414062 17.859375 79.722656 17.726562 79.988281 17.460938 L 79.988281 17.195312 C 80.164062 17.019531 80.253906 16.667969 80.253906 16.136719 C 80.253906 15.605469 80.164062 15.210938 79.988281 14.945312 C 79.722656 14.589844 79.414062 14.414062 79.0625 14.414062 C 78.707031 14.414062 78.398438 14.546875 78.132812 14.8125 C 78.132812 14.8125 78.132812 14.855469 78.132812 14.945312 C 77.957031 15.210938 77.871094 15.605469 77.871094 16.136719 C 77.871094 16.667969 77.957031 17.0625 78.132812 17.328125 C 78.3125 17.683594 78.621094 17.859375 79.0625 17.859375 "/>
<path style=" stroke:none;fill-rule:nonzero;fill:rgb(0%,0%,0%);fill-opacity:1;" d="M 82.902344 16.402344 C 82.460938 16.226562 82.152344 16.09375 81.976562 16.003906 C 81.886719 16.003906 81.84375 16.003906 81.84375 16.003906 C 81.578125 15.738281 81.445312 15.476562 81.445312 15.210938 C 81.445312 14.855469 81.621094 14.589844 81.976562 14.414062 C 82.242188 14.238281 82.507812 14.148438 82.769531 14.148438 C 83.125 14.148438 83.390625 14.238281 83.566406 14.414062 C 83.652344 14.414062 83.699219 14.371094 83.699219 14.28125 C 83.785156 14.195312 83.875 14.148438 83.964844 14.148438 C 83.964844 14.238281 83.964844 14.328125 83.964844 14.414062 L 83.964844 15.210938 C 83.964844 15.386719 83.964844 15.476562 83.964844 15.476562 C 83.875 15.476562 83.832031 15.429688 83.832031 15.34375 C 83.742188 14.8125 83.523438 14.503906 83.167969 14.414062 C 83.082031 14.414062 82.949219 14.414062 82.769531 14.414062 C 82.242188 14.414062 81.933594 14.546875 81.84375 14.8125 C 81.84375 14.902344 81.84375 14.945312 81.84375 14.945312 C 81.84375 15.296875 82.066406 15.519531 82.507812 15.605469 C 82.59375 15.605469 82.726562 15.652344 82.902344 15.738281 C 83.34375 15.828125 83.652344 15.914062 83.832031 16.003906 C 83.832031 16.003906 83.832031 16.050781 83.832031 16.136719 C 84.09375 16.3125 84.226562 16.578125 84.226562 16.933594 C 84.226562 17.371094 84.050781 17.683594 83.699219 17.859375 C 83.433594 18.035156 83.167969 18.125 82.902344 18.125 C 82.550781 18.125 82.242188 17.992188 81.976562 17.726562 L 81.710938 17.859375 C 81.621094 18.035156 81.578125 18.125 81.578125 18.125 C 81.488281 18.035156 81.445312 17.949219 81.445312 17.859375 L 81.445312 16.800781 C 81.445312 16.621094 81.488281 16.535156 81.578125 16.535156 C 81.667969 16.535156 81.710938 16.578125 81.710938 16.667969 C 81.886719 17.371094 82.152344 17.769531 82.507812 17.859375 C 82.59375 17.859375 82.726562 17.859375 82.902344 17.859375 C 83.34375 17.859375 83.652344 17.683594 83.832031 17.328125 C 83.832031 17.242188 83.832031 17.152344 83.832031 17.0625 C 83.832031 16.710938 83.523438 16.488281 82.902344 16.402344 "/>
<path style=" stroke:none;fill-rule:nonzero;fill:rgb(0%,0%,0%);fill-opacity:1;" d="M 91.503906 26.039062 C 90.882812 25.421875 90.308594 24.714844 89.78125 23.921875 C 89.25 23.125 88.832031 22.285156 88.523438 21.402344 C 88.210938 20.519531 87.992188 19.617188 87.859375 18.6875 C 87.726562 17.761719 87.660156 16.8125 87.660156 15.839844 C 87.660156 14.867188 87.726562 13.917969 87.859375 12.992188 C 87.992188 12.066406 88.210938 11.160156 88.523438 10.277344 C 88.832031 9.394531 89.25 8.574219 89.78125 7.824219 C 90.308594 7.074219 90.882812 6.390625 91.503906 5.773438 C 91.503906 5.683594 91.546875 5.640625 91.636719 5.640625 L 91.765625 5.640625 C 91.855469 5.640625 91.898438 5.660156 91.898438 5.707031 C 91.898438 5.75 91.898438 5.773438 91.898438 5.773438 C 91.195312 6.480469 90.617188 7.207031 90.175781 7.957031 C 89.734375 8.710938 89.382812 9.527344 89.117188 10.410156 C 88.851562 11.292969 88.675781 12.195312 88.589844 13.125 C 88.5 14.050781 88.457031 14.957031 88.457031 15.839844 C 88.457031 16.8125 88.5 17.738281 88.589844 18.621094 C 88.675781 19.503906 88.851562 20.386719 89.117188 21.269531 C 89.382812 22.15625 89.757812 22.992188 90.242188 23.789062 C 90.730469 24.582031 91.28125 25.289062 91.898438 25.90625 C 91.898438 25.996094 91.898438 26.039062 91.898438 26.039062 C 91.898438 26.039062 91.855469 26.039062 91.765625 26.039062 L 91.636719 26.039062 C 91.546875 26.039062 91.503906 26.039062 91.503906 26.039062 "/>
<path style=" stroke:none;fill-rule:nonzero;fill:rgb(0%,0%,0%);fill-opacity:1;" d="M 95.980469 9.738281 L 95.714844 10.800781 C 95.625 11.238281 95.582031 11.503906 95.582031 11.59375 C 95.582031 11.859375 95.667969 12.035156 95.847656 12.121094 C 95.933594 12.121094 96.023438 12.121094 96.109375 12.121094 C 96.375 12.121094 96.597656 11.992188 96.773438 11.726562 C 96.949219 11.550781 97.082031 11.328125 97.171875 11.0625 C 97.171875 10.976562 97.214844 10.929688 97.304688 10.929688 C 97.390625 10.929688 97.4375 10.976562 97.4375 11.0625 C 97.4375 11.152344 97.347656 11.328125 97.171875 11.59375 C 96.816406 12.121094 96.464844 12.390625 96.109375 12.390625 C 95.667969 12.390625 95.359375 12.210938 95.183594 11.859375 C 95.183594 11.769531 95.183594 11.726562 95.183594 11.726562 C 95.007812 11.992188 94.785156 12.167969 94.523438 12.257812 C 94.433594 12.34375 94.34375 12.390625 94.257812 12.390625 C 93.902344 12.390625 93.636719 12.257812 93.460938 11.992188 C 93.460938 11.992188 93.460938 11.902344 93.460938 11.726562 C 93.460938 11.550781 93.550781 11.417969 93.726562 11.328125 C 93.816406 11.328125 93.859375 11.328125 93.859375 11.328125 C 94.035156 11.328125 94.167969 11.371094 94.257812 11.460938 C 94.257812 11.550781 94.257812 11.59375 94.257812 11.59375 C 94.257812 11.769531 94.167969 11.902344 93.992188 11.992188 C 93.902344 11.992188 93.859375 11.992188 93.859375 11.992188 C 93.949219 12.078125 94.082031 12.121094 94.257812 12.121094 C 94.523438 12.121094 94.742188 11.945312 94.917969 11.59375 C 95.007812 11.503906 95.050781 11.417969 95.050781 11.328125 C 95.316406 10.179688 95.449219 9.472656 95.449219 9.210938 C 95.449219 8.855469 95.316406 8.679688 95.050781 8.679688 C 94.785156 8.679688 94.523438 8.855469 94.257812 9.210938 C 94.167969 9.296875 94.082031 9.429688 93.992188 9.605469 C 93.992188 9.605469 93.992188 9.652344 93.992188 9.738281 L 93.859375 9.871094 C 93.769531 9.871094 93.726562 9.871094 93.726562 9.871094 C 93.726562 9.695312 93.816406 9.472656 93.992188 9.210938 C 94.257812 8.769531 94.609375 8.546875 95.050781 8.546875 C 95.492188 8.546875 95.800781 8.769531 95.980469 9.210938 C 96.15625 8.855469 96.375 8.636719 96.640625 8.546875 C 96.730469 8.546875 96.816406 8.546875 96.90625 8.546875 C 97.257812 8.546875 97.480469 8.636719 97.570312 8.8125 C 97.65625 8.898438 97.699219 8.988281 97.699219 9.078125 C 97.699219 9.34375 97.570312 9.472656 97.304688 9.472656 C 97.304688 9.5625 97.257812 9.605469 97.171875 9.605469 C 96.996094 9.605469 96.90625 9.519531 96.90625 9.34375 C 96.90625 9.34375 96.90625 9.296875 96.90625 9.210938 C 96.90625 9.03125 96.996094 8.898438 97.171875 8.8125 C 97.171875 8.8125 97.214844 8.8125 97.304688 8.8125 C 97.214844 8.722656 97.082031 8.679688 96.90625 8.679688 C 96.464844 8.679688 96.199219 8.988281 96.109375 9.605469 C 96.023438 9.605469 95.980469 9.652344 95.980469 9.738281 "/>
<path style=" stroke:none;fill-rule:nonzero;fill:rgb(0%,0%,0%);fill-opacity:1;" d="M 99.804688 7.046875 C 100.175781 7.171875 100.453125 7.386719 100.640625 7.695312 C 100.699219 7.820312 100.730469 7.972656 100.730469 8.160156 C 100.730469 8.46875 100.609375 8.746094 100.359375 8.992188 C 100.113281 9.179688 99.835938 9.273438 99.527344 9.273438 C 99.09375 9.273438 98.753906 9.179688 98.507812 8.992188 C 98.382812 8.808594 98.320312 8.59375 98.320312 8.34375 C 98.320312 8.160156 98.382812 8.066406 98.507812 8.066406 C 98.566406 8.066406 98.597656 8.066406 98.597656 8.066406 C 98.785156 8.066406 98.90625 8.128906 98.96875 8.253906 C 98.96875 8.3125 98.96875 8.34375 98.96875 8.34375 C 98.96875 8.53125 98.90625 8.652344 98.785156 8.714844 C 98.722656 8.714844 98.660156 8.714844 98.597656 8.714844 C 98.722656 8.964844 98.96875 9.085938 99.339844 9.085938 C 99.402344 9.148438 99.433594 9.179688 99.433594 9.179688 C 99.742188 9.179688 99.929688 9.054688 99.988281 8.808594 C 100.113281 8.621094 100.175781 8.40625 100.175781 8.160156 C 100.175781 7.664062 100.019531 7.355469 99.710938 7.230469 C 99.589844 7.171875 99.496094 7.140625 99.433594 7.140625 L 99.15625 7.140625 C 99.09375 7.140625 99.0625 7.140625 99.0625 7.140625 C 99.0625 7.078125 99.09375 7.046875 99.15625 7.046875 C 99.21875 7.046875 99.277344 7.046875 99.339844 7.046875 C 99.527344 7.046875 99.679688 6.953125 99.804688 6.769531 L 99.898438 6.675781 C 100.019531 6.488281 100.082031 6.273438 100.082031 6.027344 C 100.082031 5.65625 99.929688 5.4375 99.617188 5.378906 C 99.558594 5.378906 99.496094 5.378906 99.433594 5.378906 C 99.1875 5.378906 98.96875 5.46875 98.785156 5.65625 C 98.722656 5.65625 98.691406 5.6875 98.691406 5.746094 C 98.9375 5.746094 99.0625 5.839844 99.0625 6.027344 C 99.0625 6.148438 99 6.242188 98.878906 6.304688 C 98.816406 6.304688 98.785156 6.304688 98.785156 6.304688 C 98.597656 6.304688 98.507812 6.242188 98.507812 6.117188 C 98.445312 6.117188 98.414062 6.089844 98.414062 6.027344 C 98.414062 5.777344 98.566406 5.5625 98.878906 5.378906 C 99.0625 5.253906 99.277344 5.191406 99.527344 5.191406 C 99.898438 5.191406 100.175781 5.316406 100.359375 5.5625 C 100.546875 5.6875 100.640625 5.839844 100.640625 6.027344 C 100.640625 6.398438 100.484375 6.675781 100.175781 6.859375 C 100.050781 6.984375 99.929688 7.046875 99.804688 7.046875 "/>
<path style=" stroke:none;fill-rule:nonzero;fill:rgb(0%,0%,0%);fill-opacity:1;" d="M 93.195312 16.042969 L 101.234375 16.042969 L 101.234375 15.703125 L 93.195312 15.703125 Z M 93.195312 16.042969 "/>
<path style=" stroke:none;fill-rule:nonzero;fill:rgb(0%,0%,0%);fill-opacity:1;" d="M 95.359375 22.351562 L 95.359375 22.085938 L 97.878906 18.109375 C 97.964844 18.109375 98.054688 18.109375 98.140625 18.109375 C 98.230469 18.109375 98.273438 18.109375 98.273438 18.109375 L 98.273438 22.085938 L 99.070312 22.085938 L 99.070312 22.351562 L 98.273438 22.351562 L 98.273438 23.144531 C 98.273438 23.320312 98.320312 23.410156 98.40625 23.410156 C 98.40625 23.5 98.585938 23.542969 98.9375 23.542969 L 99.070312 23.542969 L 99.070312 23.808594 C 98.804688 23.808594 98.40625 23.808594 97.878906 23.808594 C 97.347656 23.808594 96.992188 23.808594 96.816406 23.808594 L 96.816406 23.542969 L 96.949219 23.542969 C 97.304688 23.542969 97.523438 23.5 97.613281 23.410156 C 97.613281 23.320312 97.613281 23.234375 97.613281 23.144531 L 97.613281 22.351562 Z M 97.613281 22.085938 L 97.613281 19.039062 L 95.625 22.085938 L 97.613281 22.085938 "/>
<path style=" stroke:none;fill-rule:nonzero;fill:rgb(0%,0%,0%);fill-opacity:1;" d="M 102.648438 26.039062 C 102.558594 26.039062 102.515625 25.996094 102.515625 25.90625 C 103.222656 25.289062 103.796875 24.582031 104.238281 23.789062 C 104.679688 22.992188 105.03125 22.175781 105.296875 21.339844 C 105.5625 20.5 105.738281 19.617188 105.828125 18.6875 C 105.914062 17.761719 105.960938 16.8125 105.960938 15.839844 C 105.960938 14.867188 105.914062 13.941406 105.828125 13.058594 C 105.738281 12.175781 105.5625 11.292969 105.296875 10.410156 C 105.03125 9.527344 104.679688 8.710938 104.238281 7.957031 C 103.796875 7.207031 103.222656 6.480469 102.515625 5.773438 C 102.515625 5.683594 102.558594 5.640625 102.648438 5.640625 L 102.78125 5.640625 C 102.867188 5.640625 102.914062 5.683594 102.914062 5.773438 C 103.617188 6.390625 104.214844 7.074219 104.699219 7.824219 C 105.1875 8.574219 105.585938 9.394531 105.894531 10.277344 C 106.203125 11.160156 106.421875 12.066406 106.554688 12.992188 C 106.6875 13.917969 106.753906 14.867188 106.753906 15.839844 C 106.753906 16.8125 106.6875 17.761719 106.554688 18.6875 C 106.421875 19.617188 106.203125 20.519531 105.894531 21.402344 C 105.585938 22.285156 105.1875 23.125 104.699219 23.921875 C 104.214844 24.714844 103.617188 25.421875 102.914062 26.039062 C 102.914062 26.039062 102.867188 26.039062 102.78125 26.039062 L 102.648438 26.039062 "/>
</g>
</svg>
