<?xml version="1.0" encoding="UTF-8"?>
<svg xmlns="http://www.w3.org/2000/svg" xmlns:xlink="http://www.w3.org/1999/xlink" width="116pt" height="115pt" viewBox="0 0 116 115" version="1.1">
<g id="surface1">
<rect x="0" y="0" width="116" height="115" style="fill:rgb(100%,100%,100%);fill-opacity:1;stroke:none;"/>
<path style="fill:none;stroke-width:10;stroke-linecap:round;stroke-linejoin:round;stroke:rgb(75.389099%,75.389099%,75.389099%);stroke-opacity:1;stroke-miterlimit:10;" d="M 471.367188 1390.703125 L 471.367188 -177.226562 " transform="matrix(0.1,0,0,-0.1,0,115)"/>
<path style="fill:none;stroke-width:10;stroke-linecap:round;stroke-linejoin:round;stroke:rgb(75.389099%,75.389099%,75.389099%);stroke-opacity:1;stroke-miterlimit:10;" d="M 754.804688 1390.703125 L 754.804688 -177.226562 " transform="matrix(0.1,0,0,-0.1,0,115)"/>
<path style="fill:none;stroke-width:10;stroke-linecap:round;stroke-linejoin:round;stroke:rgb(75.389099%,75.389099%,75.389099%);stroke-opacity:1;stroke-miterlimit:10;" d="M 1038.28125 1390.703125 L 1038.28125 -177.226562 " transform="matrix(0.1,0,0,-0.1,0,115)"/>
<path style="fill:none;stroke-width:10;stroke-linecap:round;stroke-linejoin:round;stroke:rgb(94.139099%,94.139099%,94.139099%);stroke-opacity:1;stroke-miterlimit:10;" d="M 17.8125 1390.703125 L 17.8125 -177.226562 " transform="matrix(0.1,0,0,-0.1,0,115)"/>
<path style="fill:none;stroke-width:10;stroke-linecap:round;stroke-linejoin:round;stroke:rgb(94.139099%,94.139099%,94.139099%);stroke-opacity:1;stroke-miterlimit:10;" d="M 74.492188 1390.703125 L 74.492188 -177.226562 " transform="matrix(0.1,0,0,-0.1,0,115)"/>
<path style="fill:none;stroke-width:10;stroke-linecap:round;stroke-linejoin:round;stroke:rgb(94.139099%,94.139099%,94.139099%);stroke-opacity:1;stroke-miterlimit:10;" d="M 131.210938 1390.703125 L 131.210938 -177.226562 " transform="matrix(0.1,0,0,-0.1,0,115)"/>
<path style="fill:none;stroke-width:10;stroke-linecap:round;stroke-linejoin:round;stroke:rgb(94.139099%,94.139099%,94.139099%);stroke-opacity:1;stroke-miterlimit:10;" d="M 244.570312 1390.703125 L 244.570312 -177.226562 " transform="matrix(0.1,0,0,-0.1,0,115)"/>
<path style="fill:none;stroke-width:10;stroke-linecap:round;stroke-linejoin:round;stroke:rgb(94.139099%,94.139099%,94.139099%);stroke-opacity:1;stroke-miterlimit:10;" d="M 301.289062 1390.703125 L 301.289062 -177.226562 " transform="matrix(0.1,0,0,-0.1,0,115)"/>
<path style="fill:none;stroke-width:10;stroke-linecap:round;stroke-linejoin:round;stroke:rgb(94.139099%,94.139099%,94.139099%);stroke-opacity:1;stroke-miterlimit:10;" d="M 357.96875 1390.703125 L 357.96875 -177.226562 " transform="matrix(0.1,0,0,-0.1,0,115)"/>
<path style="fill:none;stroke-width:10;stroke-linecap:round;stroke-linejoin:round;stroke:rgb(94.139099%,94.139099%,94.139099%);stroke-opacity:1;stroke-miterlimit:10;" d="M 414.648438 1390.703125 L 414.648438 -177.226562 " transform="matrix(0.1,0,0,-0.1,0,115)"/>
<path style="fill:none;stroke-width:10;stroke-linecap:round;stroke-linejoin:round;stroke:rgb(94.139099%,94.139099%,94.139099%);stroke-opacity:1;stroke-miterlimit:10;" d="M 528.046875 1390.703125 L 528.046875 -177.226562 " transform="matrix(0.1,0,0,-0.1,0,115)"/>
<path style="fill:none;stroke-width:10;stroke-linecap:round;stroke-linejoin:round;stroke:rgb(94.139099%,94.139099%,94.139099%);stroke-opacity:1;stroke-miterlimit:10;" d="M 584.726562 1390.703125 L 584.726562 -177.226562 " transform="matrix(0.1,0,0,-0.1,0,115)"/>
<path style="fill:none;stroke-width:10;stroke-linecap:round;stroke-linejoin:round;stroke:rgb(94.139099%,94.139099%,94.139099%);stroke-opacity:1;stroke-miterlimit:10;" d="M 641.445312 1390.703125 L 641.445312 -177.226562 " transform="matrix(0.1,0,0,-0.1,0,115)"/>
<path style="fill:none;stroke-width:10;stroke-linecap:round;stroke-linejoin:round;stroke:rgb(94.139099%,94.139099%,94.139099%);stroke-opacity:1;stroke-miterlimit:10;" d="M 698.125 1390.703125 L 698.125 -177.226562 " transform="matrix(0.1,0,0,-0.1,0,115)"/>
<path style="fill:none;stroke-width:10;stroke-linecap:round;stroke-linejoin:round;stroke:rgb(94.139099%,94.139099%,94.139099%);stroke-opacity:1;stroke-miterlimit:10;" d="M 811.523438 1390.703125 L 811.523438 -177.226562 " transform="matrix(0.1,0,0,-0.1,0,115)"/>
<path style="fill:none;stroke-width:10;stroke-linecap:round;stroke-linejoin:round;stroke:rgb(94.139099%,94.139099%,94.139099%);stroke-opacity:1;stroke-miterlimit:10;" d="M 868.203125 1390.703125 L 868.203125 -177.226562 " transform="matrix(0.1,0,0,-0.1,0,115)"/>
<path style="fill:none;stroke-width:10;stroke-linecap:round;stroke-linejoin:round;stroke:rgb(94.139099%,94.139099%,94.139099%);stroke-opacity:1;stroke-miterlimit:10;" d="M 924.882812 1390.703125 L 924.882812 -177.226562 " transform="matrix(0.1,0,0,-0.1,0,115)"/>
<path style="fill:none;stroke-width:10;stroke-linecap:round;stroke-linejoin:round;stroke:rgb(94.139099%,94.139099%,94.139099%);stroke-opacity:1;stroke-miterlimit:10;" d="M 981.601562 1390.703125 L 981.601562 -177.226562 " transform="matrix(0.1,0,0,-0.1,0,115)"/>
<path style="fill:none;stroke-width:10;stroke-linecap:round;stroke-linejoin:round;stroke:rgb(94.139099%,94.139099%,94.139099%);stroke-opacity:1;stroke-miterlimit:10;" d="M 1094.960938 1390.703125 L 1094.960938 -177.226562 " transform="matrix(0.1,0,0,-0.1,0,115)"/>
<path style="fill:none;stroke-width:10;stroke-linecap:round;stroke-linejoin:round;stroke:rgb(94.139099%,94.139099%,94.139099%);stroke-opacity:1;stroke-miterlimit:10;" d="M 1151.679688 1390.703125 L 1151.679688 -177.226562 " transform="matrix(0.1,0,0,-0.1,0,115)"/>
<path style="fill:none;stroke-width:10;stroke-linecap:round;stroke-linejoin:round;stroke:rgb(75.389099%,75.389099%,75.389099%);stroke-opacity:1;stroke-miterlimit:10;" d="M -722.109375 1027.734375 L 1216.914062 1027.734375 " transform="matrix(0.1,0,0,-0.1,0,115)"/>
<path style="fill:none;stroke-width:10;stroke-linecap:round;stroke-linejoin:round;stroke:rgb(75.389099%,75.389099%,75.389099%);stroke-opacity:1;stroke-miterlimit:10;" d="M -722.109375 744.257812 L 1216.914062 744.257812 " transform="matrix(0.1,0,0,-0.1,0,115)"/>
<path style="fill:none;stroke-width:10;stroke-linecap:round;stroke-linejoin:round;stroke:rgb(75.389099%,75.389099%,75.389099%);stroke-opacity:1;stroke-miterlimit:10;" d="M -722.109375 460.78125 L 1216.914062 460.78125 " transform="matrix(0.1,0,0,-0.1,0,115)"/>
<path style="fill:none;stroke-width:10;stroke-linecap:round;stroke-linejoin:round;stroke:rgb(94.139099%,94.139099%,94.139099%);stroke-opacity:1;stroke-miterlimit:10;" d="M -722.109375 1141.09375 L 1216.914062 1141.09375 " transform="matrix(0.1,0,0,-0.1,0,115)"/>
<path style="fill:none;stroke-width:10;stroke-linecap:round;stroke-linejoin:round;stroke:rgb(94.139099%,94.139099%,94.139099%);stroke-opacity:1;stroke-miterlimit:10;" d="M -722.109375 1084.414062 L 1216.914062 1084.414062 " transform="matrix(0.1,0,0,-0.1,0,115)"/>
<path style="fill:none;stroke-width:10;stroke-linecap:round;stroke-linejoin:round;stroke:rgb(94.139099%,94.139099%,94.139099%);stroke-opacity:1;stroke-miterlimit:10;" d="M -722.109375 971.015625 L 1216.914062 971.015625 " transform="matrix(0.1,0,0,-0.1,0,115)"/>
<path style="fill:none;stroke-width:10;stroke-linecap:round;stroke-linejoin:round;stroke:rgb(94.139099%,94.139099%,94.139099%);stroke-opacity:1;stroke-miterlimit:10;" d="M -722.109375 914.335938 L 1216.914062 914.335938 " transform="matrix(0.1,0,0,-0.1,0,115)"/>
<path style="fill:none;stroke-width:10;stroke-linecap:round;stroke-linejoin:round;stroke:rgb(94.139099%,94.139099%,94.139099%);stroke-opacity:1;stroke-miterlimit:10;" d="M -722.109375 857.65625 L 1216.914062 857.65625 " transform="matrix(0.1,0,0,-0.1,0,115)"/>
<path style="fill:none;stroke-width:10;stroke-linecap:round;stroke-linejoin:round;stroke:rgb(94.139099%,94.139099%,94.139099%);stroke-opacity:1;stroke-miterlimit:10;" d="M -722.109375 800.9375 L 1216.914062 800.9375 " transform="matrix(0.1,0,0,-0.1,0,115)"/>
<path style="fill:none;stroke-width:10;stroke-linecap:round;stroke-linejoin:round;stroke:rgb(94.139099%,94.139099%,94.139099%);stroke-opacity:1;stroke-miterlimit:10;" d="M -722.109375 687.578125 L 1216.914062 687.578125 " transform="matrix(0.1,0,0,-0.1,0,115)"/>
<path style="fill:none;stroke-width:10;stroke-linecap:round;stroke-linejoin:round;stroke:rgb(94.139099%,94.139099%,94.139099%);stroke-opacity:1;stroke-miterlimit:10;" d="M -722.109375 630.859375 L 1216.914062 630.859375 " transform="matrix(0.1,0,0,-0.1,0,115)"/>
<path style="fill:none;stroke-width:10;stroke-linecap:round;stroke-linejoin:round;stroke:rgb(94.139099%,94.139099%,94.139099%);stroke-opacity:1;stroke-miterlimit:10;" d="M -722.109375 574.179688 L 1216.914062 574.179688 " transform="matrix(0.1,0,0,-0.1,0,115)"/>
<path style="fill:none;stroke-width:10;stroke-linecap:round;stroke-linejoin:round;stroke:rgb(94.139099%,94.139099%,94.139099%);stroke-opacity:1;stroke-miterlimit:10;" d="M -722.109375 517.460938 L 1216.914062 517.460938 " transform="matrix(0.1,0,0,-0.1,0,115)"/>
<path style="fill:none;stroke-width:10;stroke-linecap:round;stroke-linejoin:round;stroke:rgb(94.139099%,94.139099%,94.139099%);stroke-opacity:1;stroke-miterlimit:10;" d="M -722.109375 404.101562 L 1216.914062 404.101562 " transform="matrix(0.1,0,0,-0.1,0,115)"/>
<path style="fill:none;stroke-width:10;stroke-linecap:round;stroke-linejoin:round;stroke:rgb(94.139099%,94.139099%,94.139099%);stroke-opacity:1;stroke-miterlimit:10;" d="M -722.109375 347.382812 L 1216.914062 347.382812 " transform="matrix(0.1,0,0,-0.1,0,115)"/>
<path style="fill:none;stroke-width:10;stroke-linecap:round;stroke-linejoin:round;stroke:rgb(94.139099%,94.139099%,94.139099%);stroke-opacity:1;stroke-miterlimit:10;" d="M -722.109375 290.703125 L 1216.914062 290.703125 " transform="matrix(0.1,0,0,-0.1,0,115)"/>
<path style="fill:none;stroke-width:10;stroke-linecap:round;stroke-linejoin:round;stroke:rgb(94.139099%,94.139099%,94.139099%);stroke-opacity:1;stroke-miterlimit:10;" d="M -722.109375 234.023438 L 1216.914062 234.023438 " transform="matrix(0.1,0,0,-0.1,0,115)"/>
<path style="fill:none;stroke-width:10;stroke-linecap:round;stroke-linejoin:round;stroke:rgb(94.139099%,94.139099%,94.139099%);stroke-opacity:1;stroke-miterlimit:10;" d="M -722.109375 120.625 L 1216.914062 120.625 " transform="matrix(0.1,0,0,-0.1,0,115)"/>
<path style="fill:none;stroke-width:10;stroke-linecap:round;stroke-linejoin:round;stroke:rgb(94.139099%,94.139099%,94.139099%);stroke-opacity:1;stroke-miterlimit:10;" d="M -722.109375 63.945312 L 1216.914062 63.945312 " transform="matrix(0.1,0,0,-0.1,0,115)"/>
<path style="fill:none;stroke-width:10;stroke-linecap:round;stroke-linejoin:round;stroke:rgb(94.139099%,94.139099%,94.139099%);stroke-opacity:1;stroke-miterlimit:10;" d="M -722.109375 7.226562 L 1216.914062 7.226562 " transform="matrix(0.1,0,0,-0.1,0,115)"/>
<path style="fill:none;stroke-width:10;stroke-linecap:butt;stroke-linejoin:miter;stroke:rgb(0%,0%,0%);stroke-opacity:1;stroke-miterlimit:10;" d="M 187.890625 1384.023438 L 187.890625 -177.226562 " transform="matrix(0.1,0,0,-0.1,0,115)"/>
<path style="fill:none;stroke-width:10;stroke-linecap:butt;stroke-linejoin:miter;stroke:rgb(0%,0%,0%);stroke-opacity:1;stroke-miterlimit:10;" d="M -722.109375 177.304688 L 1210.234375 177.304688 " transform="matrix(0.1,0,0,-0.1,0,115)"/>
<path style=" stroke:none;fill-rule:nonzero;fill:rgb(0%,0%,0%);fill-opacity:1;" d="M 46.738281 102.300781 L 46.738281 102.011719 L 47.320312 102.011719 L 47.320312 99.722656 L 46.738281 99.867188 L 46.738281 99.570312 L 47.707031 99.328125 L 47.707031 102.011719 L 48.285156 102.011719 L 48.285156 102.300781 "/>
<path style=" stroke:none;fill-rule:nonzero;fill:rgb(0%,0%,0%);fill-opacity:1;" d="M 74.886719 102.300781 L 74.886719 101.960938 C 74.996094 101.699219 75.222656 101.414062 75.566406 101.101562 L 75.789062 100.90625 C 76.074219 100.648438 76.214844 100.394531 76.214844 100.140625 C 76.214844 99.976562 76.167969 99.851562 76.070312 99.757812 C 75.972656 99.664062 75.839844 99.617188 75.667969 99.617188 C 75.46875 99.617188 75.230469 99.695312 74.957031 99.851562 L 74.957031 99.511719 C 75.214844 99.390625 75.46875 99.328125 75.722656 99.328125 C 75.996094 99.328125 76.214844 99.402344 76.378906 99.546875 C 76.542969 99.695312 76.625 99.886719 76.625 100.128906 C 76.625 100.304688 76.582031 100.457031 76.5 100.59375 C 76.417969 100.726562 76.261719 100.890625 76.035156 101.082031 L 75.886719 101.210938 C 75.578125 101.472656 75.398438 101.722656 75.351562 101.960938 L 76.609375 101.960938 L 76.609375 102.300781 "/>
<path style=" stroke:none;fill-rule:nonzero;fill:rgb(0%,0%,0%);fill-opacity:1;" d="M 103.375 102.277344 L 103.375 101.917969 C 103.652344 102.027344 103.871094 102.082031 104.03125 102.082031 C 104.214844 102.082031 104.363281 102.027344 104.480469 101.921875 C 104.597656 101.8125 104.652344 101.675781 104.652344 101.503906 C 104.652344 101.09375 104.367188 100.890625 103.796875 100.890625 L 103.644531 100.890625 L 103.644531 100.632812 L 103.78125 100.628906 C 104.316406 100.628906 104.582031 100.441406 104.582031 100.0625 C 104.582031 99.765625 104.40625 99.617188 104.054688 99.617188 C 103.859375 99.617188 103.648438 99.671875 103.414062 99.78125 L 103.414062 99.445312 C 103.644531 99.367188 103.867188 99.328125 104.082031 99.328125 C 104.675781 99.328125 104.972656 99.550781 104.972656 100 C 104.972656 100.339844 104.769531 100.585938 104.367188 100.730469 C 104.832031 100.835938 105.066406 101.09375 105.066406 101.496094 C 105.066406 101.769531 104.976562 101.984375 104.796875 102.140625 C 104.617188 102.292969 104.367188 102.371094 104.054688 102.371094 C 103.875 102.371094 103.648438 102.339844 103.375 102.277344 "/>
<path style=" stroke:none;fill-rule:nonzero;fill:rgb(0%,0%,0%);fill-opacity:1;" d="M 14.308594 70.539062 L 14.308594 70.25 L 14.890625 70.25 L 14.890625 67.960938 L 14.308594 68.105469 L 14.308594 67.808594 L 15.277344 67.570312 L 15.277344 70.25 L 15.859375 70.25 L 15.859375 70.539062 "/>
<path style=" stroke:none;fill-rule:nonzero;fill:rgb(0%,0%,0%);fill-opacity:1;" d="M 14.039062 42.125 L 14.039062 41.785156 C 14.152344 41.523438 14.378906 41.234375 14.722656 40.925781 L 14.941406 40.730469 C 15.226562 40.472656 15.371094 40.214844 15.371094 39.964844 C 15.371094 39.800781 15.320312 39.671875 15.222656 39.582031 C 15.125 39.488281 14.992188 39.441406 14.824219 39.441406 C 14.621094 39.441406 14.386719 39.519531 14.113281 39.675781 L 14.113281 39.335938 C 14.371094 39.214844 14.625 39.152344 14.878906 39.152344 C 15.148438 39.152344 15.367188 39.226562 15.53125 39.371094 C 15.699219 39.519531 15.78125 39.710938 15.78125 39.953125 C 15.78125 40.128906 15.738281 40.28125 15.65625 40.414062 C 15.570312 40.550781 15.417969 40.714844 15.191406 40.90625 L 15.042969 41.03125 C 14.734375 41.292969 14.554688 41.546875 14.507812 41.785156 L 15.765625 41.785156 L 15.765625 42.125 "/>
<path style=" stroke:none;fill-rule:nonzero;fill:rgb(0%,0%,0%);fill-opacity:1;" d="M 14.113281 13.683594 L 14.113281 13.324219 C 14.390625 13.433594 14.609375 13.488281 14.769531 13.488281 C 14.953125 13.488281 15.101562 13.4375 15.21875 13.328125 C 15.332031 13.21875 15.390625 13.082031 15.390625 12.910156 C 15.390625 12.503906 15.105469 12.296875 14.535156 12.296875 L 14.382812 12.296875 L 14.382812 12.039062 L 14.519531 12.035156 C 15.054688 12.035156 15.320312 11.847656 15.320312 11.46875 C 15.320312 11.171875 15.144531 11.023438 14.792969 11.023438 C 14.597656 11.023438 14.386719 11.078125 14.152344 11.1875 L 14.152344 10.851562 C 14.382812 10.773438 14.605469 10.734375 14.820312 10.734375 C 15.414062 10.734375 15.710938 10.960938 15.710938 11.40625 C 15.710938 11.746094 15.507812 11.992188 15.101562 12.136719 C 15.570312 12.242188 15.804688 12.5 15.804688 12.902344 C 15.804688 13.175781 15.714844 13.390625 15.535156 13.546875 C 15.355469 13.703125 15.105469 13.777344 14.792969 13.777344 C 14.613281 13.777344 14.386719 13.746094 14.113281 13.683594 "/>
<path style=" stroke:none;fill-rule:nonzero;fill:rgb(0%,0%,0%);fill-opacity:1;" d="M 14.964844 102.371094 C 14.664062 102.371094 14.421875 102.230469 14.238281 101.949219 C 14.054688 101.667969 13.960938 101.300781 13.960938 100.847656 C 13.960938 100.390625 14.054688 100.023438 14.242188 99.746094 C 14.425781 99.46875 14.671875 99.328125 14.976562 99.328125 C 15.28125 99.328125 15.527344 99.46875 15.710938 99.746094 C 15.898438 100.023438 15.992188 100.390625 15.992188 100.84375 C 15.992188 101.308594 15.898438 101.679688 15.710938 101.957031 C 15.527344 102.234375 15.277344 102.371094 14.964844 102.371094 Z M 14.96875 102.082031 C 15.378906 102.082031 15.582031 101.667969 15.582031 100.835938 C 15.582031 100.023438 15.378906 99.617188 14.976562 99.617188 C 14.574219 99.617188 14.371094 100.027344 14.371094 100.847656 C 14.371094 101.671875 14.570312 102.082031 14.96875 102.082031 "/>
<path style="fill:none;stroke-width:25;stroke-linecap:round;stroke-linejoin:round;stroke:rgb(30.200195%,57.617188%,30.200195%);stroke-opacity:1;stroke-miterlimit:10;" d="M -653.945312 1427.382812 L -646.367188 1405 L -638.789062 1382.8125 L -631.210938 1360.820312 L -623.632812 1339.023438 L -616.09375 1317.421875 L -608.515625 1296.054688 L -600.9375 1274.882812 L -593.359375 1253.90625 L -585.78125 1233.125 L -578.203125 1212.539062 L -570.625 1192.1875 L -563.046875 1172.03125 L -555.46875 1152.03125 L -547.890625 1132.304688 L -540.351562 1112.734375 L -532.773438 1093.398438 L -525.195312 1074.21875 L -517.617188 1055.273438 L -510.039062 1036.523438 L -502.460938 1017.96875 L -494.882812 999.609375 L -487.304688 981.484375 L -479.726562 963.554688 L -472.1875 945.820312 L -464.609375 928.28125 L -457.03125 910.9375 L -449.453125 893.789062 L -441.875 876.875 L -434.296875 860.15625 L -419.140625 827.304688 L -403.984375 795.273438 L -388.867188 764.023438 L -373.710938 733.632812 L -358.554688 704.023438 L -343.398438 675.234375 L -328.242188 647.226562 L -313.085938 620.039062 L -297.96875 593.671875 L -282.8125 568.125 L -267.65625 543.359375 L -252.5 519.453125 L -237.34375 496.289062 L -222.226562 473.984375 L -207.070312 452.460938 L -191.914062 431.757812 L -176.757812 411.875 L -161.601562 392.8125 L -146.484375 374.53125 L -131.328125 357.070312 L -116.171875 340.390625 L -101.015625 324.570312 L -85.859375 309.53125 L -70.742188 295.3125 L -55.585938 281.875 L -40.429688 269.257812 L -25.273438 257.460938 L -10.117188 246.484375 L 5 236.328125 L 20.15625 226.953125 L 35.3125 218.398438 L 50.46875 210.625 L 65.625 203.710938 L 80.742188 197.578125 L 95.898438 192.226562 L 111.054688 187.734375 L 126.210938 184.023438 L 141.367188 181.132812 L 156.484375 179.0625 L 171.640625 177.773438 L 186.796875 177.304688 L 201.953125 177.65625 L 217.109375 178.828125 L 232.226562 180.78125 L 247.382812 183.554688 L 262.539062 187.148438 L 277.695312 191.5625 L 292.851562 196.757812 L 307.96875 202.773438 L 323.125 209.609375 L 338.28125 217.226562 L 353.4375 225.664062 L 368.59375 234.921875 L 383.710938 244.960938 L 398.867188 255.859375 L 414.023438 267.539062 L 429.179688 280 L 444.335938 293.320312 L 459.492188 307.421875 L 474.609375 322.34375 L 489.765625 338.085938 L 504.921875 354.609375 L 520.078125 371.953125 L 535.234375 390.117188 L 550.351562 409.0625 L 565.507812 428.867188 L 580.664062 449.453125 L 595.820312 470.820312 L 610.976562 493.046875 L 626.09375 516.054688 L 641.25 539.882812 L 656.40625 564.53125 L 671.5625 589.960938 L 686.71875 616.210938 L 701.835938 643.28125 L 716.992188 671.132812 L 732.148438 699.804688 L 747.304688 729.296875 L 762.460938 759.609375 L 777.578125 790.742188 L 792.734375 822.65625 L 807.890625 855.351562 L 815.46875 872.03125 L 823.046875 888.90625 L 830.625 905.976562 L 838.203125 923.242188 L 845.78125 940.742188 L 853.320312 958.398438 L 860.898438 976.289062 L 868.476562 994.375 L 876.054688 1012.65625 L 883.632812 1031.171875 L 891.210938 1049.84375 L 898.789062 1068.75 L 906.367188 1087.851562 L 913.945312 1107.148438 L 921.523438 1126.640625 L 929.0625 1146.328125 L 936.640625 1166.25 L 944.21875 1186.367188 L 951.796875 1206.679688 L 959.375 1227.1875 L 966.953125 1247.890625 L 974.53125 1268.828125 L 982.109375 1289.921875 L 989.6875 1311.25 L 997.265625 1332.773438 L 1004.804688 1354.53125 L 1012.382812 1376.445312 L 1019.960938 1398.59375 L 1027.539062 1420.898438 " transform="matrix(0.1,0,0,-0.1,0,115)"/>
<path style="fill:none;stroke-width:25;stroke-linecap:round;stroke-linejoin:round;stroke:rgb(30.200195%,30.200195%,86.131287%);stroke-opacity:1;stroke-miterlimit:10;" d="M 20.15625 1412.773438 L 27.734375 1393.242188 L 35.3125 1373.945312 L 42.890625 1354.804688 L 50.46875 1335.898438 L 58.046875 1317.1875 L 65.625 1298.632812 L 73.203125 1280.351562 L 80.742188 1262.226562 L 88.320312 1244.296875 L 95.898438 1226.601562 L 103.476562 1209.101562 L 111.054688 1191.796875 L 118.632812 1174.6875 L 126.210938 1157.8125 L 141.367188 1124.609375 L 156.484375 1092.226562 L 171.640625 1060.664062 L 186.796875 1029.882812 L 201.953125 999.960938 L 217.109375 970.820312 L 232.226562 942.460938 L 247.382812 914.960938 L 262.539062 888.242188 L 277.695312 862.34375 L 292.851562 837.226562 L 307.96875 812.96875 L 323.125 789.492188 L 338.28125 766.835938 L 353.4375 744.960938 L 368.59375 723.90625 L 383.710938 703.671875 L 398.867188 684.257812 L 414.023438 665.664062 L 429.179688 647.851562 L 444.335938 630.820312 L 459.492188 614.648438 L 474.609375 599.257812 L 489.765625 584.6875 L 504.921875 570.9375 L 520.078125 558.007812 L 535.234375 545.859375 L 550.351562 534.53125 L 565.507812 523.984375 L 580.664062 514.296875 L 595.820312 505.390625 L 610.976562 497.304688 L 626.09375 490 L 641.25 483.515625 L 656.40625 477.851562 L 671.5625 473.007812 L 686.71875 468.984375 L 701.835938 465.742188 L 716.992188 463.320312 L 732.148438 461.679688 L 747.304688 460.898438 L 762.460938 460.898438 L 777.578125 461.71875 L 792.734375 463.320312 L 807.890625 465.742188 L 823.046875 468.984375 L 838.203125 473.046875 L 853.320312 477.890625 L 868.476562 483.59375 L 883.632812 490.078125 L 898.789062 497.34375 L 913.945312 505.429688 L 929.0625 514.335938 L 944.21875 524.0625 L 959.375 534.609375 L 974.53125 545.9375 L 989.6875 558.085938 L 1004.804688 571.015625 L 1019.960938 584.804688 L 1035.117188 599.375 L 1050.273438 614.765625 L 1065.429688 630.9375 L 1080.585938 647.96875 L 1095.703125 665.78125 L 1110.859375 684.414062 L 1126.015625 703.828125 L 1141.171875 724.0625 L 1156.328125 745.117188 L 1171.445312 766.992188 L 1186.601562 789.648438 L 1201.757812 813.125 L 1216.914062 837.421875 " transform="matrix(0.1,0,0,-0.1,0,115)"/>
<path style="fill:none;stroke-width:25;stroke-linecap:round;stroke-linejoin:round;stroke:rgb(100%,30.200195%,30.200195%);stroke-opacity:1;stroke-miterlimit:10;" d="M 187.890625 -20.117188 L 187.890625 1166.71875 " transform="matrix(0.1,0,0,-0.1,0,115)"/>
<path style=" stroke:none;fill-rule:nonzero;fill:rgb(26.660156%,26.660156%,26.660156%);fill-opacity:1;" d="M 62.644531 65.378906 C 62.644531 66.117188 62.046875 66.714844 61.308594 66.714844 C 60.570312 66.714844 59.972656 66.117188 59.972656 65.378906 C 59.972656 64.640625 60.570312 64.039062 61.308594 64.039062 C 62.046875 64.039062 62.644531 64.640625 62.644531 65.378906 "/>
<path style="fill:none;stroke-width:10;stroke-linecap:round;stroke-linejoin:round;stroke:rgb(0%,0%,0%);stroke-opacity:1;stroke-miterlimit:10;" d="M 626.445312 496.210938 C 626.445312 488.828125 620.46875 482.851562 613.085938 482.851562 C 605.703125 482.851562 599.726562 488.828125 599.726562 496.210938 C 599.726562 503.59375 605.703125 509.609375 613.085938 509.609375 C 620.46875 509.609375 626.445312 503.59375 626.445312 496.210938 Z M 626.445312 496.210938 " transform="matrix(0.1,0,0,-0.1,0,115)"/>
<path style=" stroke:none;fill-rule:nonzero;fill:rgb(26.660156%,26.660156%,26.660156%);fill-opacity:1;" d="M 64.679688 85.78125 C 64.214844 85.316406 63.785156 84.789062 63.390625 84.191406 C 62.992188 83.597656 62.675781 82.96875 62.445312 82.308594 C 62.214844 81.644531 62.050781 80.96875 61.949219 80.273438 C 61.851562 79.578125 61.800781 78.867188 61.800781 78.140625 C 61.800781 77.410156 61.851562 76.699219 61.949219 76.003906 C 62.050781 75.308594 62.214844 74.632812 62.445312 73.96875 C 62.675781 73.308594 62.992188 72.695312 63.390625 72.132812 C 63.785156 71.570312 64.214844 71.058594 64.679688 70.597656 C 64.679688 70.53125 64.710938 70.496094 64.777344 70.496094 L 64.878906 70.496094 C 64.945312 70.496094 64.976562 70.511719 64.976562 70.546875 C 64.976562 70.578125 64.976562 70.597656 64.976562 70.597656 C 64.449219 71.125 64.019531 71.671875 63.6875 72.234375 C 63.355469 72.796875 63.089844 73.40625 62.894531 74.070312 C 62.695312 74.730469 62.5625 75.410156 62.496094 76.105469 C 62.429688 76.800781 62.398438 77.476562 62.398438 78.140625 C 62.398438 78.867188 62.429688 79.5625 62.496094 80.222656 C 62.5625 80.886719 62.695312 81.546875 62.894531 82.207031 C 63.089844 82.871094 63.371094 83.5 63.738281 84.09375 C 64.101562 84.691406 64.515625 85.21875 64.976562 85.683594 C 64.976562 85.746094 64.976562 85.78125 64.976562 85.78125 C 64.976562 85.78125 64.945312 85.78125 64.878906 85.78125 L 64.777344 85.78125 C 64.710938 85.78125 64.679688 85.78125 64.679688 85.78125 "/>
<path style=" stroke:none;fill-rule:nonzero;fill:rgb(26.660156%,26.660156%,26.660156%);fill-opacity:1;" d="M 67.835938 73.171875 C 68.230469 73.304688 68.53125 73.535156 68.726562 73.867188 C 68.792969 73.996094 68.828125 74.164062 68.828125 74.363281 C 68.828125 74.691406 68.695312 74.992188 68.429688 75.253906 C 68.164062 75.453125 67.867188 75.550781 67.535156 75.550781 C 67.074219 75.550781 66.710938 75.453125 66.445312 75.253906 C 66.3125 75.054688 66.246094 74.824219 66.246094 74.558594 C 66.246094 74.363281 66.3125 74.261719 66.445312 74.261719 C 66.511719 74.261719 66.542969 74.261719 66.542969 74.261719 C 66.742188 74.261719 66.875 74.328125 66.941406 74.460938 C 66.941406 74.527344 66.941406 74.558594 66.941406 74.558594 C 66.941406 74.757812 66.875 74.890625 66.742188 74.957031 C 66.675781 74.957031 66.609375 74.957031 66.542969 74.957031 C 66.675781 75.222656 66.941406 75.355469 67.339844 75.355469 C 67.40625 75.421875 67.4375 75.453125 67.4375 75.453125 C 67.769531 75.453125 67.96875 75.320312 68.03125 75.054688 C 68.164062 74.859375 68.230469 74.625 68.230469 74.363281 C 68.230469 73.832031 68.066406 73.5 67.734375 73.371094 C 67.601562 73.304688 67.503906 73.269531 67.4375 73.269531 L 67.140625 73.269531 C 67.074219 73.269531 67.039062 73.269531 67.039062 73.269531 C 67.039062 73.203125 67.074219 73.171875 67.140625 73.171875 C 67.207031 73.171875 67.273438 73.171875 67.339844 73.171875 C 67.535156 73.171875 67.703125 73.070312 67.835938 72.871094 L 67.933594 72.773438 C 68.066406 72.574219 68.132812 72.34375 68.132812 72.078125 C 68.132812 71.683594 67.96875 71.449219 67.636719 71.382812 C 67.570312 71.382812 67.503906 71.382812 67.4375 71.382812 C 67.171875 71.382812 66.941406 71.484375 66.742188 71.683594 C 66.675781 71.683594 66.644531 71.714844 66.644531 71.78125 C 66.90625 71.78125 67.039062 71.878906 67.039062 72.078125 C 67.039062 72.210938 66.972656 72.308594 66.84375 72.378906 C 66.777344 72.378906 66.742188 72.378906 66.742188 72.378906 C 66.542969 72.378906 66.445312 72.308594 66.445312 72.179688 C 66.378906 72.179688 66.347656 72.144531 66.347656 72.078125 C 66.347656 71.816406 66.511719 71.582031 66.84375 71.382812 C 67.039062 71.253906 67.273438 71.1875 67.535156 71.1875 C 67.933594 71.1875 68.230469 71.320312 68.429688 71.582031 C 68.628906 71.714844 68.726562 71.878906 68.726562 72.078125 C 68.726562 72.476562 68.5625 72.773438 68.230469 72.972656 C 68.097656 73.105469 67.96875 73.171875 67.835938 73.171875 "/>
<path style=" stroke:none;fill-rule:nonzero;fill:rgb(26.660156%,26.660156%,26.660156%);fill-opacity:1;" d="M 65.949219 78.289062 L 69.125 78.289062 L 69.125 78.035156 L 65.949219 78.035156 Z M 65.949219 78.289062 "/>
<path style=" stroke:none;fill-rule:nonzero;fill:rgb(26.660156%,26.660156%,26.660156%);fill-opacity:1;" d="M 68.828125 83.015625 L 68.628906 84.109375 L 66.246094 84.109375 C 66.246094 83.976562 66.28125 83.910156 66.347656 83.910156 L 67.535156 82.519531 C 68 81.992188 68.230469 81.527344 68.230469 81.128906 C 68.230469 80.734375 68.097656 80.433594 67.835938 80.238281 C 67.703125 80.105469 67.535156 80.039062 67.339844 80.039062 C 67.074219 80.039062 66.84375 80.171875 66.644531 80.433594 C 66.578125 80.503906 66.542969 80.601562 66.542969 80.734375 C 66.542969 80.734375 66.578125 80.734375 66.644531 80.734375 C 66.777344 80.734375 66.875 80.800781 66.941406 80.933594 C 66.941406 80.996094 66.941406 81.03125 66.941406 81.03125 C 66.941406 81.230469 66.84375 81.328125 66.644531 81.328125 C 66.644531 81.394531 66.644531 81.429688 66.644531 81.429688 C 66.445312 81.429688 66.3125 81.363281 66.246094 81.230469 C 66.246094 81.164062 66.246094 81.097656 66.246094 81.03125 C 66.246094 80.699219 66.378906 80.433594 66.644531 80.238281 C 66.84375 79.972656 67.105469 79.839844 67.4375 79.839844 C 67.902344 79.839844 68.265625 80.003906 68.53125 80.335938 C 68.660156 80.535156 68.761719 80.765625 68.828125 81.03125 C 68.828125 81.03125 68.828125 81.066406 68.828125 81.128906 C 68.828125 81.394531 68.695312 81.691406 68.429688 82.023438 C 68.296875 82.15625 68.097656 82.320312 67.835938 82.519531 L 67.535156 82.917969 L 67.4375 82.917969 L 66.742188 83.613281 L 67.933594 83.613281 C 68.265625 83.613281 68.464844 83.613281 68.53125 83.613281 C 68.53125 83.546875 68.5625 83.347656 68.628906 83.015625 L 68.828125 83.015625 "/>
<path style=" stroke:none;fill-rule:nonzero;fill:rgb(26.660156%,26.660156%,26.660156%);fill-opacity:1;" d="M 72.234375 79.75 C 72.234375 80.148438 72.105469 80.511719 71.839844 80.84375 C 71.773438 80.910156 71.707031 80.941406 71.640625 80.941406 C 71.640625 80.875 71.640625 80.84375 71.640625 80.84375 C 71.90625 80.578125 72.070312 80.246094 72.136719 79.851562 C 72.136719 79.851562 72.136719 79.816406 72.136719 79.75 C 72.136719 79.683594 72.105469 79.652344 72.039062 79.652344 C 71.972656 79.71875 71.90625 79.75 71.839844 79.75 C 71.707031 79.75 71.605469 79.683594 71.542969 79.550781 C 71.542969 79.484375 71.542969 79.453125 71.542969 79.453125 C 71.542969 79.253906 71.574219 79.121094 71.640625 79.054688 C 71.707031 79.054688 71.773438 79.054688 71.839844 79.054688 C 72.039062 79.054688 72.167969 79.1875 72.234375 79.453125 C 72.234375 79.519531 72.234375 79.617188 72.234375 79.75 "/>
<path style=" stroke:none;fill-rule:nonzero;fill:rgb(26.660156%,26.660156%,26.660156%);fill-opacity:1;" d="M 77.519531 73.46875 C 77.386719 73.867188 77.121094 74.0625 76.726562 74.0625 C 76.394531 74.0625 76.097656 73.898438 75.832031 73.566406 C 75.632812 73.304688 75.535156 72.988281 75.535156 72.625 C 75.535156 72.261719 75.632812 71.945312 75.832031 71.683594 L 75.929688 71.582031 C 76.195312 71.320312 76.492188 71.1875 76.824219 71.1875 C 77.289062 71.1875 77.617188 71.417969 77.816406 71.878906 C 78.015625 72.210938 78.113281 72.707031 78.113281 73.371094 C 78.113281 74.097656 77.917969 74.660156 77.519531 75.054688 C 77.253906 75.386719 76.925781 75.550781 76.527344 75.550781 C 76.128906 75.550781 75.867188 75.453125 75.734375 75.253906 C 75.667969 75.121094 75.632812 74.992188 75.632812 74.859375 C 75.632812 74.726562 75.734375 74.625 75.929688 74.558594 C 76.0625 74.558594 76.164062 74.625 76.230469 74.757812 C 76.230469 74.824219 76.230469 74.859375 76.230469 74.859375 C 76.230469 75.054688 76.164062 75.15625 76.03125 75.15625 C 75.964844 75.15625 75.929688 75.15625 75.929688 75.15625 C 76.0625 75.355469 76.261719 75.453125 76.527344 75.453125 C 76.859375 75.453125 77.121094 75.289062 77.320312 74.957031 C 77.453125 74.625 77.519531 74.195312 77.519531 73.667969 Z M 76.824219 73.964844 C 77.15625 73.964844 77.386719 73.765625 77.519531 73.371094 C 77.519531 73.171875 77.519531 72.972656 77.519531 72.773438 C 77.519531 72.378906 77.488281 72.078125 77.421875 71.878906 C 77.355469 71.617188 77.1875 71.449219 76.925781 71.382812 C 76.925781 71.382812 76.890625 71.382812 76.824219 71.382812 C 76.558594 71.382812 76.363281 71.515625 76.230469 71.78125 C 76.097656 71.914062 76.03125 72.179688 76.03125 72.574219 L 76.03125 72.675781 C 76.03125 73.070312 76.097656 73.371094 76.230469 73.566406 C 76.363281 73.832031 76.558594 73.964844 76.824219 73.964844 "/>
<path style=" stroke:none;fill-rule:nonzero;fill:rgb(26.660156%,26.660156%,26.660156%);fill-opacity:1;" d="M 75.238281 78.289062 L 78.414062 78.289062 L 78.414062 78.035156 L 75.238281 78.035156 Z M 75.238281 78.289062 "/>
<path style=" stroke:none;fill-rule:nonzero;fill:rgb(26.660156%,26.660156%,26.660156%);fill-opacity:1;" d="M 76.230469 81.230469 L 77.023438 81.726562 C 77.488281 81.460938 77.71875 81.164062 77.71875 80.832031 C 77.71875 80.566406 77.585938 80.335938 77.320312 80.136719 C 77.1875 80.070312 77.023438 80.039062 76.824219 80.039062 C 76.492188 80.039062 76.261719 80.136719 76.128906 80.335938 C 75.996094 80.46875 75.929688 80.601562 75.929688 80.734375 C 75.929688 80.933594 76.03125 81.097656 76.230469 81.230469 Z M 77.222656 81.824219 C 77.550781 82.023438 77.75 82.15625 77.816406 82.222656 C 78.015625 82.488281 78.113281 82.75 78.113281 83.015625 C 78.113281 83.414062 77.984375 83.742188 77.71875 84.007812 C 77.453125 84.140625 77.15625 84.207031 76.824219 84.207031 C 76.429688 84.207031 76.097656 84.109375 75.832031 83.910156 C 75.632812 83.710938 75.535156 83.445312 75.535156 83.117188 C 75.535156 82.652344 75.832031 82.289062 76.429688 82.023438 C 76.164062 81.824219 75.996094 81.691406 75.929688 81.625 C 75.734375 81.429688 75.632812 81.195312 75.632812 80.933594 C 75.632812 80.601562 75.800781 80.335938 76.128906 80.136719 C 76.328125 79.941406 76.558594 79.839844 76.824219 79.839844 C 77.222656 79.839844 77.519531 79.972656 77.71875 80.238281 C 77.917969 80.371094 78.015625 80.566406 78.015625 80.832031 C 78.015625 81.230469 77.75 81.558594 77.222656 81.824219 Z M 76.527344 82.121094 C 76.0625 82.386719 75.832031 82.71875 75.832031 83.117188 C 75.832031 83.445312 75.964844 83.710938 76.230469 83.910156 C 76.429688 84.042969 76.625 84.109375 76.824219 84.109375 C 77.15625 84.109375 77.421875 83.976562 77.617188 83.710938 C 77.75 83.578125 77.816406 83.445312 77.816406 83.3125 C 77.816406 83.050781 77.683594 82.816406 77.421875 82.617188 C 77.421875 82.617188 77.386719 82.617188 77.320312 82.617188 L 76.527344 82.121094 "/>
<path style=" stroke:none;fill-rule:nonzero;fill:rgb(26.660156%,26.660156%,26.660156%);fill-opacity:1;" d="M 79.472656 85.78125 C 79.40625 85.78125 79.375 85.746094 79.375 85.683594 C 79.902344 85.21875 80.332031 84.691406 80.664062 84.09375 C 80.996094 83.5 81.257812 82.886719 81.457031 82.257812 C 81.65625 81.628906 81.789062 80.96875 81.855469 80.273438 C 81.921875 79.578125 81.953125 78.867188 81.953125 78.140625 C 81.953125 77.410156 81.921875 76.714844 81.855469 76.054688 C 81.789062 75.394531 81.65625 74.730469 81.457031 74.070312 C 81.257812 73.40625 80.996094 72.796875 80.664062 72.234375 C 80.332031 71.671875 79.902344 71.125 79.375 70.597656 C 79.375 70.53125 79.40625 70.496094 79.472656 70.496094 L 79.574219 70.496094 C 79.636719 70.496094 79.671875 70.53125 79.671875 70.597656 C 80.199219 71.058594 80.648438 71.570312 81.011719 72.132812 C 81.375 72.695312 81.671875 73.308594 81.90625 73.96875 C 82.136719 74.632812 82.300781 75.308594 82.402344 76.003906 C 82.5 76.699219 82.550781 77.410156 82.550781 78.140625 C 82.550781 78.867188 82.5 79.578125 82.402344 80.273438 C 82.300781 80.96875 82.136719 81.644531 81.90625 82.308594 C 81.671875 82.96875 81.375 83.597656 81.011719 84.191406 C 80.648438 84.789062 80.199219 85.316406 79.671875 85.78125 C 79.671875 85.78125 79.636719 85.78125 79.574219 85.78125 L 79.472656 85.78125 "/>
<path style=" stroke:none;fill-rule:nonzero;fill:rgb(0%,0%,0%);fill-opacity:1;" d="M 30.796875 58.640625 L 30.402344 60.226562 L 31.097656 60.226562 C 31.558594 60.226562 31.921875 60.128906 32.1875 59.929688 C 32.386719 59.730469 32.484375 59.46875 32.484375 59.136719 C 32.484375 59.070312 32.484375 59.039062 32.484375 59.039062 C 32.484375 58.640625 32.222656 58.410156 31.691406 58.34375 C 31.625 58.34375 31.527344 58.34375 31.394531 58.34375 C 31.128906 58.34375 30.996094 58.34375 30.996094 58.34375 C 30.929688 58.410156 30.863281 58.476562 30.796875 58.542969 C 30.796875 58.542969 30.796875 58.574219 30.796875 58.640625 Z M 31.691406 60.328125 C 32.089844 60.460938 32.289062 60.691406 32.289062 61.023438 C 32.289062 61.023438 32.289062 61.054688 32.289062 61.121094 C 32.289062 61.1875 32.289062 61.285156 32.289062 61.417969 C 32.222656 61.75 32.1875 61.980469 32.1875 62.113281 C 32.1875 62.3125 32.253906 62.445312 32.386719 62.511719 C 32.386719 62.511719 32.417969 62.511719 32.484375 62.511719 C 32.683594 62.511719 32.851562 62.410156 32.980469 62.214844 C 32.980469 62.148438 33.015625 62.046875 33.082031 61.914062 C 33.082031 61.847656 33.113281 61.816406 33.179688 61.816406 C 33.179688 61.816406 33.179688 61.847656 33.179688 61.914062 C 33.179688 61.980469 33.148438 62.113281 33.082031 62.3125 C 33.015625 62.378906 32.914062 62.476562 32.785156 62.609375 C 32.652344 62.609375 32.550781 62.609375 32.484375 62.609375 C 32.089844 62.609375 31.824219 62.511719 31.691406 62.3125 C 31.625 62.246094 31.59375 62.113281 31.59375 61.914062 C 31.59375 61.847656 31.625 61.683594 31.691406 61.417969 C 31.757812 61.222656 31.792969 61.089844 31.792969 61.023438 C 31.792969 60.757812 31.660156 60.558594 31.394531 60.425781 C 31.328125 60.425781 31.230469 60.425781 31.097656 60.425781 L 30.300781 60.425781 L 29.90625 62.113281 L 29.90625 62.214844 C 29.90625 62.28125 30.003906 62.3125 30.203125 62.3125 L 30.300781 62.3125 C 30.433594 62.3125 30.5 62.34375 30.5 62.410156 C 30.5 62.476562 30.46875 62.511719 30.402344 62.511719 L 28.8125 62.511719 C 28.746094 62.511719 28.714844 62.476562 28.714844 62.410156 C 28.714844 62.34375 28.746094 62.3125 28.8125 62.3125 C 29.144531 62.3125 29.308594 62.28125 29.308594 62.214844 C 29.375 62.214844 29.410156 62.148438 29.410156 62.015625 L 30.300781 58.640625 C 30.300781 58.574219 30.300781 58.507812 30.300781 58.441406 C 30.300781 58.441406 30.269531 58.410156 30.203125 58.34375 C 30.203125 58.34375 30.171875 58.34375 30.105469 58.34375 C 30.039062 58.34375 29.972656 58.34375 29.90625 58.34375 C 29.773438 58.34375 29.707031 58.34375 29.707031 58.34375 C 29.707031 58.210938 29.738281 58.144531 29.804688 58.144531 L 31.691406 58.144531 C 32.222656 58.144531 32.617188 58.308594 32.882812 58.640625 C 33.015625 58.773438 33.082031 58.9375 33.082031 59.136719 C 33.082031 59.46875 32.851562 59.765625 32.386719 60.03125 C 32.1875 60.164062 31.957031 60.261719 31.691406 60.328125 "/>
<path style=" stroke:none;fill-rule:nonzero;fill:rgb(0%,0%,0%);fill-opacity:1;" d="M 36.410156 24.394531 L 35.714844 27.175781 C 35.648438 27.441406 35.480469 27.671875 35.21875 27.871094 C 34.953125 28.003906 34.65625 28.070312 34.324219 28.070312 C 33.863281 28.070312 33.597656 27.96875 33.53125 27.769531 C 33.53125 27.769531 33.53125 27.738281 33.53125 27.671875 C 33.53125 27.539062 33.597656 27.441406 33.730469 27.375 C 33.796875 27.375 33.828125 27.375 33.828125 27.375 C 33.960938 27.375 34.058594 27.40625 34.125 27.472656 C 34.125 27.472656 34.125 27.507812 34.125 27.570312 C 34.125 27.703125 34.058594 27.804688 33.925781 27.871094 C 33.925781 27.871094 33.894531 27.871094 33.828125 27.871094 C 33.960938 27.9375 34.125 27.96875 34.324219 27.96875 C 34.789062 27.96875 35.117188 27.738281 35.316406 27.273438 L 35.515625 26.382812 C 35.316406 26.578125 35.085938 26.710938 34.820312 26.777344 C 34.820312 26.777344 34.789062 26.777344 34.722656 26.777344 C 34.457031 26.777344 34.226562 26.644531 34.027344 26.382812 C 33.960938 26.183594 33.925781 25.984375 33.925781 25.785156 C 33.925781 25.324219 34.09375 24.890625 34.421875 24.496094 C 34.6875 24.164062 34.984375 24 35.316406 24 L 35.417969 24 C 35.613281 24 35.78125 24.097656 35.914062 24.296875 L 36.011719 24.394531 C 36.011719 24.199219 36.078125 24.097656 36.210938 24.097656 C 36.34375 24.097656 36.410156 24.164062 36.410156 24.296875 Z M 35.613281 25.984375 L 35.914062 24.792969 C 35.914062 24.726562 35.914062 24.695312 35.914062 24.695312 C 35.914062 24.5625 35.878906 24.460938 35.8125 24.394531 C 35.746094 24.265625 35.679688 24.199219 35.613281 24.199219 C 35.546875 24.132812 35.480469 24.097656 35.417969 24.097656 C 35.21875 24.097656 35.019531 24.230469 34.820312 24.496094 C 34.753906 24.5625 34.722656 24.628906 34.722656 24.695312 C 34.589844 24.957031 34.488281 25.324219 34.421875 25.785156 C 34.359375 25.851562 34.324219 25.949219 34.324219 26.082031 C 34.324219 26.347656 34.421875 26.511719 34.621094 26.578125 C 34.621094 26.644531 34.65625 26.679688 34.722656 26.679688 C 34.921875 26.679688 35.117188 26.578125 35.316406 26.382812 C 35.449219 26.25 35.546875 26.117188 35.613281 25.984375 "/>
<path style=" stroke:none;fill-rule:nonzero;fill:rgb(0%,0%,0%);fill-opacity:1;" d="M 38.773438 28.265625 C 38.773438 28.332031 38.773438 28.367188 38.773438 28.367188 C 38.707031 28.367188 38.574219 28.265625 38.375 28.070312 C 38.113281 27.804688 37.914062 27.507812 37.78125 27.175781 C 37.449219 26.578125 37.285156 25.917969 37.285156 25.191406 C 37.285156 24.460938 37.417969 23.800781 37.679688 23.207031 C 37.945312 22.742188 38.242188 22.378906 38.574219 22.113281 C 38.640625 22.046875 38.707031 22.015625 38.773438 22.015625 C 38.773438 22.015625 38.773438 22.046875 38.773438 22.113281 C 38.773438 22.113281 38.738281 22.148438 38.675781 22.210938 C 38.011719 22.875 37.679688 23.867188 37.679688 25.191406 C 37.679688 26.511719 38.011719 27.507812 38.675781 28.167969 C 38.738281 28.234375 38.773438 28.265625 38.773438 28.265625 "/>
<path style=" stroke:none;fill-rule:nonzero;fill:rgb(0%,0%,0%);fill-opacity:1;" d="M 41.242188 24.890625 L 41.042969 25.6875 C 40.980469 26.015625 40.945312 26.214844 40.945312 26.28125 C 40.945312 26.480469 41.011719 26.613281 41.144531 26.679688 C 41.210938 26.679688 41.277344 26.679688 41.34375 26.679688 C 41.542969 26.679688 41.707031 26.578125 41.839844 26.382812 C 41.972656 26.25 42.070312 26.082031 42.136719 25.886719 C 42.136719 25.820312 42.167969 25.785156 42.234375 25.785156 C 42.300781 25.785156 42.335938 25.820312 42.335938 25.886719 C 42.335938 25.949219 42.269531 26.082031 42.136719 26.28125 C 41.871094 26.679688 41.605469 26.878906 41.34375 26.878906 C 41.011719 26.878906 40.78125 26.746094 40.648438 26.480469 C 40.648438 26.414062 40.648438 26.382812 40.648438 26.382812 C 40.515625 26.578125 40.351562 26.710938 40.152344 26.777344 C 40.085938 26.84375 40.019531 26.878906 39.953125 26.878906 C 39.6875 26.878906 39.488281 26.777344 39.359375 26.578125 C 39.359375 26.578125 39.359375 26.511719 39.359375 26.382812 C 39.359375 26.25 39.421875 26.148438 39.554688 26.082031 C 39.621094 26.082031 39.65625 26.082031 39.65625 26.082031 C 39.789062 26.082031 39.886719 26.117188 39.953125 26.183594 C 39.953125 26.25 39.953125 26.28125 39.953125 26.28125 C 39.953125 26.414062 39.886719 26.511719 39.753906 26.578125 C 39.6875 26.578125 39.65625 26.578125 39.65625 26.578125 C 39.722656 26.644531 39.820312 26.679688 39.953125 26.679688 C 40.152344 26.679688 40.316406 26.546875 40.449219 26.28125 C 40.515625 26.214844 40.546875 26.148438 40.546875 26.082031 C 40.746094 25.222656 40.847656 24.695312 40.847656 24.496094 C 40.847656 24.230469 40.746094 24.097656 40.546875 24.097656 C 40.351562 24.097656 40.152344 24.230469 39.953125 24.496094 C 39.886719 24.5625 39.820312 24.660156 39.753906 24.792969 C 39.753906 24.792969 39.753906 24.828125 39.753906 24.890625 L 39.65625 24.992188 C 39.589844 24.992188 39.554688 24.992188 39.554688 24.992188 C 39.554688 24.859375 39.621094 24.695312 39.753906 24.496094 C 39.953125 24.164062 40.21875 24 40.546875 24 C 40.878906 24 41.109375 24.164062 41.242188 24.496094 C 41.375 24.230469 41.542969 24.066406 41.738281 24 C 41.804688 24 41.871094 24 41.9375 24 C 42.203125 24 42.367188 24.066406 42.433594 24.199219 C 42.5 24.265625 42.535156 24.328125 42.535156 24.394531 C 42.535156 24.59375 42.433594 24.695312 42.234375 24.695312 C 42.234375 24.761719 42.203125 24.792969 42.136719 24.792969 C 42.003906 24.792969 41.9375 24.726562 41.9375 24.59375 C 41.9375 24.59375 41.9375 24.5625 41.9375 24.496094 C 41.9375 24.363281 42.003906 24.265625 42.136719 24.199219 C 42.136719 24.199219 42.167969 24.199219 42.234375 24.199219 C 42.167969 24.132812 42.070312 24.097656 41.9375 24.097656 C 41.605469 24.097656 41.410156 24.328125 41.34375 24.792969 C 41.277344 24.792969 41.242188 24.828125 41.242188 24.890625 "/>
<path style=" stroke:none;fill-rule:nonzero;fill:rgb(0%,0%,0%);fill-opacity:1;" d="M 44.578125 25.191406 C 44.578125 25.917969 44.445312 26.578125 44.179688 27.175781 C 43.980469 27.636719 43.714844 28.003906 43.386719 28.265625 C 43.320312 28.332031 43.253906 28.367188 43.1875 28.367188 C 43.1875 28.367188 43.1875 28.332031 43.1875 28.265625 C 43.1875 28.265625 43.1875 28.234375 43.1875 28.167969 C 43.914062 27.507812 44.277344 26.511719 44.277344 25.191406 C 44.277344 23.867188 43.949219 22.875 43.285156 22.210938 C 43.21875 22.148438 43.1875 22.113281 43.1875 22.113281 C 43.1875 22.046875 43.1875 22.015625 43.1875 22.015625 C 43.253906 22.015625 43.386719 22.113281 43.582031 22.3125 C 43.847656 22.578125 44.046875 22.875 44.179688 23.207031 C 44.445312 23.800781 44.578125 24.460938 44.578125 25.191406 "/>
<path style=" stroke:none;fill-rule:nonzero;fill:rgb(0%,0%,0%);fill-opacity:1;" d="M 51.390625 24.695312 L 47.621094 24.695312 C 47.488281 24.695312 47.421875 24.660156 47.421875 24.59375 C 47.421875 24.527344 47.488281 24.496094 47.621094 24.496094 L 51.390625 24.496094 C 51.523438 24.496094 51.589844 24.527344 51.589844 24.59375 C 51.589844 24.660156 51.523438 24.695312 51.390625 24.695312 Z M 51.390625 25.886719 L 47.621094 25.886719 C 47.488281 25.886719 47.421875 25.851562 47.421875 25.785156 C 47.421875 25.71875 47.488281 25.6875 47.621094 25.6875 L 51.390625 25.6875 C 51.523438 25.6875 51.589844 25.71875 51.589844 25.785156 C 51.589844 25.851562 51.523438 25.886719 51.390625 25.886719 "/>
<path style=" stroke:none;fill-rule:nonzero;fill:rgb(0%,0%,0%);fill-opacity:1;" d="M 55.613281 22.707031 L 55.613281 26.28125 C 55.613281 26.414062 55.648438 26.480469 55.714844 26.480469 C 55.78125 26.546875 55.945312 26.578125 56.210938 26.578125 L 56.410156 26.578125 L 56.410156 26.777344 C 56.277344 26.777344 55.914062 26.777344 55.316406 26.777344 C 54.789062 26.777344 54.457031 26.777344 54.324219 26.777344 L 54.324219 26.578125 L 54.523438 26.578125 C 54.855469 26.578125 55.050781 26.546875 55.117188 26.480469 C 55.117188 26.414062 55.117188 26.347656 55.117188 26.28125 L 55.117188 23.007812 C 54.921875 23.074219 54.65625 23.105469 54.324219 23.105469 L 54.324219 22.90625 C 54.789062 22.90625 55.152344 22.773438 55.417969 22.511719 C 55.546875 22.511719 55.613281 22.542969 55.613281 22.609375 C 55.613281 22.609375 55.613281 22.644531 55.613281 22.707031 "/>
<path style=" stroke:none;fill-rule:nonzero;fill:rgb(0%,0%,0%);fill-opacity:1;" d="M 60.898438 25.289062 L 60.898438 27.074219 C 60.898438 27.207031 60.863281 27.273438 60.796875 27.273438 C 60.730469 27.273438 60.699219 27.207031 60.699219 27.074219 L 60.699219 25.289062 L 58.910156 25.289062 C 58.78125 25.289062 58.714844 25.257812 58.714844 25.191406 C 58.714844 25.125 58.78125 25.089844 58.910156 25.089844 L 60.699219 25.089844 L 60.699219 23.304688 C 60.699219 23.171875 60.730469 23.105469 60.796875 23.105469 C 60.863281 23.105469 60.898438 23.171875 60.898438 23.304688 L 60.898438 25.089844 L 62.683594 25.089844 C 62.816406 25.089844 62.882812 25.125 62.882812 25.191406 C 62.882812 25.257812 62.816406 25.289062 62.683594 25.289062 L 60.898438 25.289062 "/>
<path style=" stroke:none;fill-rule:nonzero;fill:rgb(0%,0%,0%);fill-opacity:1;" d="M 67.316406 18.410156 L 67.316406 21.984375 C 67.316406 22.117188 67.347656 22.183594 67.414062 22.183594 C 67.480469 22.25 67.648438 22.28125 67.910156 22.28125 L 68.109375 22.28125 L 68.109375 22.480469 C 67.976562 22.480469 67.613281 22.480469 67.019531 22.480469 C 66.488281 22.480469 66.160156 22.480469 66.027344 22.480469 L 66.027344 22.28125 L 66.226562 22.28125 C 66.554688 22.28125 66.753906 22.25 66.820312 22.183594 C 66.820312 22.117188 66.820312 22.050781 66.820312 21.984375 L 66.820312 18.710938 C 66.621094 18.777344 66.355469 18.808594 66.027344 18.808594 L 66.027344 18.609375 C 66.488281 18.609375 66.851562 18.476562 67.117188 18.214844 C 67.25 18.214844 67.316406 18.246094 67.316406 18.3125 C 67.316406 18.3125 67.316406 18.34375 67.316406 18.410156 "/>
<path style=" stroke:none;fill-rule:nonzero;fill:rgb(0%,0%,0%);fill-opacity:1;" d="M 65.429688 25.316406 L 68.605469 25.316406 L 68.605469 25.0625 L 65.429688 25.0625 Z M 65.429688 25.316406 "/>
<path style=" stroke:none;fill-rule:nonzero;fill:rgb(0%,0%,0%);fill-opacity:1;" d="M 68.308594 30.042969 L 68.109375 31.136719 L 65.726562 31.136719 C 65.726562 31.003906 65.761719 30.9375 65.828125 30.9375 L 67.019531 29.546875 C 67.480469 29.019531 67.714844 28.554688 67.714844 28.15625 C 67.714844 27.761719 67.582031 27.464844 67.316406 27.265625 C 67.183594 27.132812 67.019531 27.066406 66.820312 27.066406 C 66.554688 27.066406 66.324219 27.199219 66.125 27.464844 C 66.058594 27.527344 66.027344 27.628906 66.027344 27.761719 C 66.027344 27.761719 66.058594 27.761719 66.125 27.761719 C 66.257812 27.761719 66.355469 27.828125 66.421875 27.960938 C 66.421875 28.027344 66.421875 28.058594 66.421875 28.058594 C 66.421875 28.257812 66.324219 28.355469 66.125 28.355469 C 66.125 28.421875 66.125 28.457031 66.125 28.457031 C 65.925781 28.457031 65.792969 28.390625 65.726562 28.257812 C 65.726562 28.191406 65.726562 28.125 65.726562 28.058594 C 65.726562 27.726562 65.859375 27.464844 66.125 27.265625 C 66.324219 27 66.589844 26.867188 66.917969 26.867188 C 67.382812 26.867188 67.746094 27.03125 68.011719 27.363281 C 68.144531 27.5625 68.242188 27.792969 68.308594 28.058594 C 68.308594 28.058594 68.308594 28.089844 68.308594 28.15625 C 68.308594 28.421875 68.175781 28.71875 67.910156 29.050781 C 67.78125 29.183594 67.582031 29.347656 67.316406 29.546875 L 67.019531 29.945312 L 66.917969 29.945312 L 66.226562 30.640625 L 67.414062 30.640625 C 67.746094 30.640625 67.945312 30.640625 68.011719 30.640625 C 68.011719 30.574219 68.042969 30.375 68.109375 30.042969 L 68.308594 30.042969 "/>
<path style=" stroke:none;fill-rule:nonzero;fill:rgb(0%,0%,0%);fill-opacity:1;" d="M 72.511719 28.265625 C 72.511719 28.332031 72.511719 28.367188 72.511719 28.367188 C 72.445312 28.367188 72.3125 28.265625 72.113281 28.070312 C 71.851562 27.804688 71.652344 27.507812 71.519531 27.175781 C 71.1875 26.578125 71.023438 25.917969 71.023438 25.191406 C 71.023438 24.460938 71.15625 23.800781 71.421875 23.207031 C 71.683594 22.742188 71.984375 22.378906 72.3125 22.113281 C 72.378906 22.046875 72.445312 22.015625 72.511719 22.015625 C 72.511719 22.015625 72.511719 22.046875 72.511719 22.113281 C 72.511719 22.113281 72.480469 22.148438 72.414062 22.210938 C 71.75 22.875 71.421875 23.867188 71.421875 25.191406 C 71.421875 26.511719 71.75 27.507812 72.414062 28.167969 C 72.480469 28.234375 72.511719 28.265625 72.511719 28.265625 "/>
<path style=" stroke:none;fill-rule:nonzero;fill:rgb(0%,0%,0%);fill-opacity:1;" d="M 74.980469 24.890625 L 74.785156 25.6875 C 74.71875 26.015625 74.683594 26.214844 74.683594 26.28125 C 74.683594 26.480469 74.75 26.613281 74.882812 26.679688 C 74.949219 26.679688 75.015625 26.679688 75.082031 26.679688 C 75.28125 26.679688 75.445312 26.578125 75.578125 26.382812 C 75.710938 26.25 75.808594 26.082031 75.875 25.886719 C 75.875 25.820312 75.910156 25.785156 75.972656 25.785156 C 76.039062 25.785156 76.074219 25.820312 76.074219 25.886719 C 76.074219 25.949219 76.007812 26.082031 75.875 26.28125 C 75.609375 26.679688 75.347656 26.878906 75.082031 26.878906 C 74.75 26.878906 74.519531 26.746094 74.386719 26.480469 C 74.386719 26.414062 74.386719 26.382812 74.386719 26.382812 C 74.253906 26.578125 74.089844 26.710938 73.890625 26.777344 C 73.824219 26.84375 73.757812 26.878906 73.691406 26.878906 C 73.425781 26.878906 73.230469 26.777344 73.097656 26.578125 C 73.097656 26.578125 73.097656 26.511719 73.097656 26.382812 C 73.097656 26.25 73.164062 26.148438 73.292969 26.082031 C 73.359375 26.082031 73.394531 26.082031 73.394531 26.082031 C 73.527344 26.082031 73.625 26.117188 73.691406 26.183594 C 73.691406 26.25 73.691406 26.28125 73.691406 26.28125 C 73.691406 26.414062 73.625 26.511719 73.492188 26.578125 C 73.425781 26.578125 73.394531 26.578125 73.394531 26.578125 C 73.460938 26.644531 73.558594 26.679688 73.691406 26.679688 C 73.890625 26.679688 74.054688 26.546875 74.1875 26.28125 C 74.253906 26.214844 74.289062 26.148438 74.289062 26.082031 C 74.484375 25.222656 74.585938 24.695312 74.585938 24.496094 C 74.585938 24.230469 74.484375 24.097656 74.289062 24.097656 C 74.089844 24.097656 73.890625 24.230469 73.691406 24.496094 C 73.625 24.5625 73.558594 24.660156 73.492188 24.792969 C 73.492188 24.792969 73.492188 24.828125 73.492188 24.890625 L 73.394531 24.992188 C 73.328125 24.992188 73.292969 24.992188 73.292969 24.992188 C 73.292969 24.859375 73.359375 24.695312 73.492188 24.496094 C 73.691406 24.164062 73.957031 24 74.289062 24 C 74.617188 24 74.851562 24.164062 74.980469 24.496094 C 75.113281 24.230469 75.28125 24.066406 75.476562 24 C 75.542969 24 75.609375 24 75.675781 24 C 75.941406 24 76.105469 24.066406 76.171875 24.199219 C 76.238281 24.265625 76.273438 24.328125 76.273438 24.394531 C 76.273438 24.59375 76.171875 24.695312 75.972656 24.695312 C 75.972656 24.761719 75.941406 24.792969 75.875 24.792969 C 75.742188 24.792969 75.675781 24.726562 75.675781 24.59375 C 75.675781 24.59375 75.675781 24.5625 75.675781 24.496094 C 75.675781 24.363281 75.742188 24.265625 75.875 24.199219 C 75.875 24.199219 75.910156 24.199219 75.972656 24.199219 C 75.910156 24.132812 75.808594 24.097656 75.675781 24.097656 C 75.347656 24.097656 75.148438 24.328125 75.082031 24.792969 C 75.015625 24.792969 74.980469 24.828125 74.980469 24.890625 "/>
<path style=" stroke:none;fill-rule:nonzero;fill:rgb(0%,0%,0%);fill-opacity:1;" d="M 82.109375 25.289062 L 78.636719 25.289062 C 78.503906 25.289062 78.4375 25.257812 78.4375 25.191406 C 78.4375 25.125 78.503906 25.089844 78.636719 25.089844 L 82.109375 25.089844 C 82.242188 25.089844 82.308594 25.125 82.308594 25.191406 C 82.308594 25.257812 82.242188 25.289062 82.109375 25.289062 "/>
<path style=" stroke:none;fill-rule:nonzero;fill:rgb(0%,0%,0%);fill-opacity:1;" d="M 87.171875 25.6875 L 86.972656 26.777344 L 84.589844 26.777344 C 84.589844 26.644531 84.621094 26.578125 84.6875 26.578125 L 85.878906 25.191406 C 86.34375 24.660156 86.574219 24.199219 86.574219 23.800781 C 86.574219 23.402344 86.441406 23.105469 86.175781 22.90625 C 86.046875 22.773438 85.878906 22.707031 85.679688 22.707031 C 85.417969 22.707031 85.183594 22.839844 84.988281 23.105469 C 84.921875 23.171875 84.886719 23.269531 84.886719 23.402344 C 84.886719 23.402344 84.921875 23.402344 84.988281 23.402344 C 85.117188 23.402344 85.21875 23.46875 85.285156 23.601562 C 85.285156 23.667969 85.285156 23.703125 85.285156 23.703125 C 85.285156 23.898438 85.183594 24 84.988281 24 C 84.988281 24.066406 84.988281 24.097656 84.988281 24.097656 C 84.789062 24.097656 84.65625 24.03125 84.589844 23.898438 C 84.589844 23.832031 84.589844 23.765625 84.589844 23.703125 C 84.589844 23.371094 84.722656 23.105469 84.988281 22.90625 C 85.183594 22.644531 85.449219 22.511719 85.78125 22.511719 C 86.242188 22.511719 86.609375 22.675781 86.871094 23.007812 C 87.003906 23.207031 87.105469 23.4375 87.171875 23.703125 C 87.171875 23.703125 87.171875 23.734375 87.171875 23.800781 C 87.171875 24.066406 87.039062 24.363281 86.773438 24.695312 C 86.640625 24.828125 86.441406 24.992188 86.175781 25.191406 L 85.878906 25.585938 L 85.78125 25.585938 L 85.085938 26.28125 L 86.277344 26.28125 C 86.609375 26.28125 86.804688 26.28125 86.871094 26.28125 C 86.871094 26.214844 86.90625 26.015625 86.972656 25.6875 L 87.171875 25.6875 "/>
<path style=" stroke:none;fill-rule:nonzero;fill:rgb(0%,0%,0%);fill-opacity:1;" d="M 89.253906 25.191406 C 89.253906 25.917969 89.121094 26.578125 88.855469 27.175781 C 88.660156 27.636719 88.394531 28.003906 88.0625 28.265625 C 87.996094 28.332031 87.929688 28.367188 87.863281 28.367188 C 87.863281 28.367188 87.863281 28.332031 87.863281 28.265625 C 87.863281 28.265625 87.863281 28.234375 87.863281 28.167969 C 88.59375 27.507812 88.957031 26.511719 88.957031 25.191406 C 88.957031 23.867188 88.625 22.875 87.964844 22.210938 C 87.898438 22.148438 87.863281 22.113281 87.863281 22.113281 C 87.863281 22.046875 87.863281 22.015625 87.863281 22.015625 C 87.929688 22.015625 88.0625 22.113281 88.261719 22.3125 C 88.527344 22.578125 88.726562 22.875 88.855469 23.207031 C 89.121094 23.800781 89.253906 24.460938 89.253906 25.191406 "/>
<path style=" stroke:none;fill-rule:nonzero;fill:rgb(0%,0%,0%);fill-opacity:1;" d="M 91.953125 23.390625 L 91.8125 24.15625 L 90.148438 24.15625 C 90.148438 24.0625 90.167969 24.015625 90.214844 24.015625 L 91.050781 23.042969 C 91.375 22.671875 91.535156 22.347656 91.535156 22.070312 C 91.535156 21.792969 91.445312 21.585938 91.257812 21.445312 C 91.164062 21.351562 91.050781 21.304688 90.910156 21.304688 C 90.726562 21.304688 90.5625 21.398438 90.425781 21.585938 C 90.378906 21.632812 90.355469 21.699219 90.355469 21.792969 C 90.355469 21.792969 90.378906 21.792969 90.425781 21.792969 C 90.515625 21.792969 90.585938 21.839844 90.632812 21.933594 C 90.632812 21.976562 90.632812 22 90.632812 22 C 90.632812 22.140625 90.5625 22.210938 90.425781 22.210938 C 90.425781 22.257812 90.425781 22.28125 90.425781 22.28125 C 90.285156 22.28125 90.191406 22.234375 90.148438 22.140625 C 90.148438 22.09375 90.148438 22.046875 90.148438 22 C 90.148438 21.769531 90.238281 21.585938 90.425781 21.445312 C 90.5625 21.261719 90.75 21.167969 90.980469 21.167969 C 91.304688 21.167969 91.558594 21.285156 91.746094 21.515625 C 91.835938 21.65625 91.90625 21.816406 91.953125 22 C 91.953125 22 91.953125 22.023438 91.953125 22.070312 C 91.953125 22.257812 91.859375 22.464844 91.675781 22.695312 C 91.582031 22.789062 91.445312 22.90625 91.257812 23.042969 L 91.050781 23.320312 L 90.980469 23.320312 L 90.492188 23.808594 L 91.328125 23.808594 C 91.558594 23.808594 91.699219 23.808594 91.746094 23.808594 C 91.746094 23.761719 91.769531 23.621094 91.8125 23.390625 L 91.953125 23.390625 "/>
<path style=" stroke:none;fill-rule:nonzero;fill:rgb(0%,0%,0%);fill-opacity:1;" d="M 31.035156 106.4375 L 30.734375 108.523438 C 30.667969 108.789062 30.570312 109.085938 30.4375 109.417969 C 30.4375 109.550781 30.40625 109.648438 30.339844 109.714844 C 30.207031 110.042969 30.007812 110.242188 29.742188 110.308594 C 29.742188 110.308594 29.710938 110.308594 29.644531 110.308594 C 29.445312 110.308594 29.28125 110.242188 29.148438 110.109375 C 29.082031 110.042969 29.046875 109.980469 29.046875 109.914062 C 29.046875 109.714844 29.148438 109.582031 29.347656 109.515625 C 29.347656 109.515625 29.378906 109.515625 29.445312 109.515625 C 29.578125 109.515625 29.644531 109.550781 29.644531 109.613281 C 29.644531 109.679688 29.644531 109.714844 29.644531 109.714844 C 29.644531 109.847656 29.578125 109.945312 29.445312 110.011719 C 29.445312 110.011719 29.414062 110.042969 29.347656 110.109375 C 29.414062 110.175781 29.511719 110.210938 29.644531 110.210938 C 29.84375 110.210938 29.976562 109.980469 30.042969 109.515625 C 30.105469 109.449219 30.140625 109.351562 30.140625 109.21875 L 30.140625 109.019531 L 30.636719 106.4375 L 30.238281 106.4375 C 30.105469 106.4375 30.042969 106.4375 30.042969 106.4375 C 30.042969 106.371094 30.074219 106.304688 30.140625 106.238281 L 30.734375 106.238281 C 30.800781 105.710938 30.867188 105.378906 30.933594 105.246094 C 31.066406 104.851562 31.265625 104.617188 31.53125 104.554688 C 31.597656 104.554688 31.664062 104.554688 31.726562 104.554688 C 31.925781 104.554688 32.09375 104.617188 32.222656 104.75 C 32.222656 104.816406 32.222656 104.882812 32.222656 104.949219 C 32.222656 105.148438 32.160156 105.28125 32.027344 105.347656 C 32.027344 105.347656 31.992188 105.347656 31.925781 105.347656 C 31.792969 105.347656 31.726562 105.3125 31.726562 105.246094 C 31.664062 105.179688 31.628906 105.148438 31.628906 105.148438 C 31.628906 105.015625 31.695312 104.917969 31.828125 104.851562 C 31.894531 104.851562 31.960938 104.816406 32.027344 104.75 C 31.960938 104.683594 31.859375 104.652344 31.726562 104.652344 C 31.597656 104.652344 31.496094 104.71875 31.429688 104.851562 C 31.363281 104.917969 31.296875 105.148438 31.230469 105.546875 L 31.132812 106.238281 L 31.628906 106.238281 C 31.761719 106.238281 31.828125 106.273438 31.828125 106.339844 C 31.828125 106.40625 31.792969 106.4375 31.726562 106.4375 L 31.035156 106.4375 "/>
<path style=" stroke:none;fill-rule:nonzero;fill:rgb(0%,0%,0%);fill-opacity:1;" d="M 34.628906 110.507812 C 34.628906 110.574219 34.628906 110.605469 34.628906 110.605469 C 34.5625 110.605469 34.429688 110.507812 34.230469 110.308594 C 33.96875 110.042969 33.769531 109.746094 33.636719 109.417969 C 33.304688 108.820312 33.140625 108.160156 33.140625 107.429688 C 33.140625 106.703125 33.273438 106.042969 33.535156 105.445312 C 33.800781 104.984375 34.097656 104.617188 34.429688 104.355469 C 34.496094 104.289062 34.5625 104.253906 34.628906 104.253906 C 34.628906 104.253906 34.628906 104.289062 34.628906 104.355469 C 34.628906 104.355469 34.59375 104.386719 34.53125 104.453125 C 33.867188 105.117188 33.535156 106.109375 33.535156 107.429688 C 33.535156 108.753906 33.867188 109.746094 34.53125 110.410156 C 34.59375 110.476562 34.628906 110.507812 34.628906 110.507812 "/>
<path style=" stroke:none;fill-rule:nonzero;fill:rgb(0%,0%,0%);fill-opacity:1;" d="M 37.097656 107.132812 L 36.902344 107.925781 C 36.835938 108.257812 36.800781 108.457031 36.800781 108.523438 C 36.800781 108.722656 36.867188 108.855469 37 108.917969 C 37.066406 108.917969 37.132812 108.917969 37.199219 108.917969 C 37.398438 108.917969 37.5625 108.820312 37.695312 108.621094 C 37.828125 108.488281 37.925781 108.324219 37.992188 108.125 C 37.992188 108.058594 38.027344 108.027344 38.089844 108.027344 C 38.15625 108.027344 38.191406 108.058594 38.191406 108.125 C 38.191406 108.191406 38.125 108.324219 37.992188 108.523438 C 37.726562 108.917969 37.464844 109.117188 37.199219 109.117188 C 36.867188 109.117188 36.636719 108.988281 36.503906 108.722656 C 36.503906 108.65625 36.503906 108.621094 36.503906 108.621094 C 36.371094 108.820312 36.207031 108.953125 36.007812 109.019531 C 35.941406 109.085938 35.875 109.117188 35.808594 109.117188 C 35.542969 109.117188 35.34375 109.019531 35.214844 108.820312 C 35.214844 108.820312 35.214844 108.753906 35.214844 108.621094 C 35.214844 108.488281 35.28125 108.390625 35.410156 108.324219 C 35.476562 108.324219 35.511719 108.324219 35.511719 108.324219 C 35.644531 108.324219 35.742188 108.359375 35.808594 108.425781 C 35.808594 108.488281 35.808594 108.523438 35.808594 108.523438 C 35.808594 108.65625 35.742188 108.753906 35.609375 108.820312 C 35.542969 108.820312 35.511719 108.820312 35.511719 108.820312 C 35.578125 108.886719 35.675781 108.917969 35.808594 108.917969 C 36.007812 108.917969 36.171875 108.789062 36.304688 108.523438 C 36.371094 108.457031 36.40625 108.390625 36.40625 108.324219 C 36.601562 107.464844 36.703125 106.933594 36.703125 106.738281 C 36.703125 106.472656 36.601562 106.339844 36.40625 106.339844 C 36.207031 106.339844 36.007812 106.472656 35.808594 106.738281 C 35.742188 106.800781 35.675781 106.902344 35.609375 107.035156 C 35.609375 107.035156 35.609375 107.066406 35.609375 107.132812 L 35.511719 107.234375 C 35.445312 107.234375 35.410156 107.234375 35.410156 107.234375 C 35.410156 107.101562 35.476562 106.933594 35.609375 106.738281 C 35.808594 106.40625 36.074219 106.238281 36.40625 106.238281 C 36.734375 106.238281 36.96875 106.40625 37.097656 106.738281 C 37.230469 106.472656 37.398438 106.304688 37.59375 106.238281 C 37.660156 106.238281 37.726562 106.238281 37.792969 106.238281 C 38.058594 106.238281 38.222656 106.304688 38.289062 106.4375 C 38.355469 106.503906 38.390625 106.570312 38.390625 106.636719 C 38.390625 106.835938 38.289062 106.933594 38.089844 106.933594 C 38.089844 107 38.058594 107.035156 37.992188 107.035156 C 37.859375 107.035156 37.792969 106.96875 37.792969 106.835938 C 37.792969 106.835938 37.792969 106.800781 37.792969 106.738281 C 37.792969 106.605469 37.859375 106.503906 37.992188 106.4375 C 37.992188 106.4375 38.027344 106.4375 38.089844 106.4375 C 38.027344 106.371094 37.925781 106.339844 37.792969 106.339844 C 37.464844 106.339844 37.265625 106.570312 37.199219 107.035156 C 37.132812 107.035156 37.097656 107.066406 37.097656 107.132812 "/>
<path style=" stroke:none;fill-rule:nonzero;fill:rgb(0%,0%,0%);fill-opacity:1;" d="M 40.429688 107.429688 C 40.429688 108.160156 40.300781 108.820312 40.035156 109.417969 C 39.835938 109.878906 39.570312 110.242188 39.242188 110.507812 C 39.175781 110.574219 39.109375 110.605469 39.042969 110.605469 C 39.042969 110.605469 39.042969 110.574219 39.042969 110.507812 C 39.042969 110.507812 39.042969 110.476562 39.042969 110.410156 C 39.769531 109.746094 40.132812 108.753906 40.132812 107.429688 C 40.132812 106.109375 39.804688 105.117188 39.140625 104.453125 C 39.074219 104.386719 39.042969 104.355469 39.042969 104.355469 C 39.042969 104.289062 39.042969 104.253906 39.042969 104.253906 C 39.109375 104.253906 39.242188 104.355469 39.4375 104.554688 C 39.703125 104.816406 39.902344 105.117188 40.035156 105.445312 C 40.300781 106.042969 40.429688 106.703125 40.429688 107.429688 "/>
<path style=" stroke:none;fill-rule:nonzero;fill:rgb(0%,0%,0%);fill-opacity:1;" d="M 47.246094 106.933594 L 43.476562 106.933594 C 43.34375 106.933594 43.277344 106.902344 43.277344 106.835938 C 43.277344 106.769531 43.34375 106.738281 43.476562 106.738281 L 47.246094 106.738281 C 47.378906 106.738281 47.445312 106.769531 47.445312 106.835938 C 47.445312 106.902344 47.378906 106.933594 47.246094 106.933594 Z M 47.246094 108.125 L 43.476562 108.125 C 43.34375 108.125 43.277344 108.09375 43.277344 108.027344 C 43.277344 107.960938 43.34375 107.925781 43.476562 107.925781 L 47.246094 107.925781 C 47.378906 107.925781 47.445312 107.960938 47.445312 108.027344 C 47.445312 108.09375 47.378906 108.125 47.246094 108.125 "/>
<path style=" stroke:none;fill-rule:nonzero;fill:rgb(0%,0%,0%);fill-opacity:1;" d="M 52.234375 100.652344 L 52.234375 104.226562 C 52.234375 104.359375 52.265625 104.425781 52.332031 104.425781 C 52.398438 104.492188 52.5625 104.523438 52.828125 104.523438 L 53.027344 104.523438 L 53.027344 104.722656 C 52.894531 104.722656 52.53125 104.722656 51.933594 104.722656 C 51.40625 104.722656 51.074219 104.722656 50.941406 104.722656 L 50.941406 104.523438 L 51.140625 104.523438 C 51.472656 104.523438 51.671875 104.492188 51.734375 104.425781 C 51.734375 104.359375 51.734375 104.292969 51.734375 104.226562 L 51.734375 100.949219 C 51.539062 101.015625 51.273438 101.050781 50.941406 101.050781 L 50.941406 100.851562 C 51.40625 100.851562 51.769531 100.71875 52.035156 100.453125 C 52.167969 100.453125 52.234375 100.488281 52.234375 100.554688 C 52.234375 100.554688 52.234375 100.585938 52.234375 100.652344 "/>
<path style=" stroke:none;fill-rule:nonzero;fill:rgb(0%,0%,0%);fill-opacity:1;" d="M 50.347656 107.558594 L 53.523438 107.558594 L 53.523438 107.304688 L 50.347656 107.304688 Z M 50.347656 107.558594 "/>
<path style=" stroke:none;fill-rule:nonzero;fill:rgb(0%,0%,0%);fill-opacity:1;" d="M 53.226562 112.285156 L 53.027344 113.375 L 50.644531 113.375 C 50.644531 113.242188 50.675781 113.179688 50.742188 113.179688 L 51.933594 111.789062 C 52.398438 111.257812 52.628906 110.796875 52.628906 110.398438 C 52.628906 110 52.496094 109.703125 52.234375 109.507812 C 52.101562 109.375 51.933594 109.308594 51.734375 109.308594 C 51.472656 109.308594 51.238281 109.4375 51.042969 109.703125 C 50.976562 109.769531 50.941406 109.871094 50.941406 110 C 50.941406 110 50.976562 110 51.042969 110 C 51.175781 110 51.273438 110.066406 51.339844 110.199219 C 51.339844 110.265625 51.339844 110.300781 51.339844 110.300781 C 51.339844 110.5 51.238281 110.597656 51.042969 110.597656 C 51.042969 110.664062 51.042969 110.695312 51.042969 110.695312 C 50.84375 110.695312 50.710938 110.628906 50.644531 110.5 C 50.644531 110.433594 50.644531 110.367188 50.644531 110.300781 C 50.644531 109.96875 50.777344 109.703125 51.042969 109.507812 C 51.238281 109.242188 51.503906 109.109375 51.835938 109.109375 C 52.296875 109.109375 52.664062 109.273438 52.925781 109.605469 C 53.058594 109.804688 53.160156 110.035156 53.226562 110.300781 C 53.226562 110.300781 53.226562 110.332031 53.226562 110.398438 C 53.226562 110.664062 53.09375 110.960938 52.828125 111.292969 C 52.695312 111.425781 52.496094 111.589844 52.234375 111.789062 L 51.933594 112.1875 L 51.835938 112.1875 L 51.140625 112.878906 L 52.332031 112.878906 C 52.664062 112.878906 52.859375 112.878906 52.925781 112.878906 C 52.925781 112.8125 52.960938 112.617188 53.027344 112.285156 L 53.226562 112.285156 "/>
<path style=" stroke:none;fill-rule:nonzero;fill:rgb(0%,0%,0%);fill-opacity:1;" d="M 57.429688 107.132812 L 57.230469 107.925781 C 57.164062 108.257812 57.128906 108.457031 57.128906 108.523438 C 57.128906 108.722656 57.195312 108.855469 57.328125 108.917969 C 57.394531 108.917969 57.460938 108.917969 57.527344 108.917969 C 57.726562 108.917969 57.890625 108.820312 58.023438 108.621094 C 58.15625 108.488281 58.253906 108.324219 58.320312 108.125 C 58.320312 108.058594 58.355469 108.027344 58.421875 108.027344 C 58.488281 108.027344 58.519531 108.058594 58.519531 108.125 C 58.519531 108.191406 58.453125 108.324219 58.320312 108.523438 C 58.054688 108.917969 57.792969 109.117188 57.527344 109.117188 C 57.195312 109.117188 56.964844 108.988281 56.832031 108.722656 C 56.832031 108.65625 56.832031 108.621094 56.832031 108.621094 C 56.699219 108.820312 56.535156 108.953125 56.335938 109.019531 C 56.269531 109.085938 56.203125 109.117188 56.136719 109.117188 C 55.871094 109.117188 55.675781 109.019531 55.542969 108.820312 C 55.542969 108.820312 55.542969 108.753906 55.542969 108.621094 C 55.542969 108.488281 55.609375 108.390625 55.742188 108.324219 C 55.808594 108.324219 55.839844 108.324219 55.839844 108.324219 C 55.972656 108.324219 56.070312 108.359375 56.136719 108.425781 C 56.136719 108.488281 56.136719 108.523438 56.136719 108.523438 C 56.136719 108.65625 56.070312 108.753906 55.941406 108.820312 C 55.871094 108.820312 55.839844 108.820312 55.839844 108.820312 C 55.90625 108.886719 56.003906 108.917969 56.136719 108.917969 C 56.335938 108.917969 56.503906 108.789062 56.632812 108.523438 C 56.699219 108.457031 56.734375 108.390625 56.734375 108.324219 C 56.933594 107.464844 57.03125 106.933594 57.03125 106.738281 C 57.03125 106.472656 56.933594 106.339844 56.734375 106.339844 C 56.535156 106.339844 56.335938 106.472656 56.136719 106.738281 C 56.070312 106.800781 56.003906 106.902344 55.941406 107.035156 C 55.941406 107.035156 55.941406 107.066406 55.941406 107.132812 L 55.839844 107.234375 C 55.773438 107.234375 55.742188 107.234375 55.742188 107.234375 C 55.742188 107.101562 55.808594 106.933594 55.941406 106.738281 C 56.136719 106.40625 56.402344 106.238281 56.734375 106.238281 C 57.0625 106.238281 57.296875 106.40625 57.429688 106.738281 C 57.558594 106.472656 57.726562 106.304688 57.925781 106.238281 C 57.992188 106.238281 58.054688 106.238281 58.121094 106.238281 C 58.386719 106.238281 58.550781 106.304688 58.617188 106.4375 C 58.683594 106.503906 58.71875 106.570312 58.71875 106.636719 C 58.71875 106.835938 58.617188 106.933594 58.421875 106.933594 C 58.421875 107 58.386719 107.035156 58.320312 107.035156 C 58.1875 107.035156 58.121094 106.96875 58.121094 106.835938 C 58.121094 106.835938 58.121094 106.800781 58.121094 106.738281 C 58.121094 106.605469 58.1875 106.503906 58.320312 106.4375 C 58.320312 106.4375 58.355469 106.4375 58.421875 106.4375 C 58.355469 106.371094 58.253906 106.339844 58.121094 106.339844 C 57.792969 106.339844 57.59375 106.570312 57.527344 107.035156 C 57.460938 107.035156 57.429688 107.066406 57.429688 107.132812 "/>
<path style=" stroke:none;fill-rule:nonzero;fill:rgb(0%,0%,0%);fill-opacity:1;" d="M 60.988281 105.632812 L 60.851562 106.394531 L 59.183594 106.394531 C 59.183594 106.304688 59.207031 106.257812 59.253906 106.257812 L 60.085938 105.285156 C 60.410156 104.914062 60.574219 104.589844 60.574219 104.3125 C 60.574219 104.035156 60.480469 103.828125 60.292969 103.6875 C 60.203125 103.59375 60.085938 103.546875 59.945312 103.546875 C 59.761719 103.546875 59.597656 103.640625 59.460938 103.828125 C 59.414062 103.871094 59.390625 103.941406 59.390625 104.035156 C 59.390625 104.035156 59.414062 104.035156 59.460938 104.035156 C 59.554688 104.035156 59.621094 104.082031 59.667969 104.171875 C 59.667969 104.21875 59.667969 104.242188 59.667969 104.242188 C 59.667969 104.382812 59.597656 104.453125 59.460938 104.453125 C 59.460938 104.496094 59.460938 104.519531 59.460938 104.519531 C 59.320312 104.519531 59.230469 104.472656 59.183594 104.382812 C 59.183594 104.335938 59.183594 104.289062 59.183594 104.242188 C 59.183594 104.011719 59.277344 103.828125 59.460938 103.6875 C 59.597656 103.503906 59.785156 103.410156 60.015625 103.410156 C 60.339844 103.410156 60.59375 103.523438 60.78125 103.757812 C 60.871094 103.894531 60.941406 104.058594 60.988281 104.242188 C 60.988281 104.242188 60.988281 104.265625 60.988281 104.3125 C 60.988281 104.496094 60.898438 104.707031 60.710938 104.9375 C 60.617188 105.03125 60.480469 105.144531 60.292969 105.285156 L 60.085938 105.5625 L 60.015625 105.5625 L 59.53125 106.050781 L 60.363281 106.050781 C 60.59375 106.050781 60.734375 106.050781 60.78125 106.050781 C 60.78125 106.003906 60.804688 105.863281 60.851562 105.632812 L 60.988281 105.632812 "/>
</g>
</svg>
