<?xml version="1.0" encoding="UTF-8"?>
<svg xmlns="http://www.w3.org/2000/svg" xmlns:xlink="http://www.w3.org/1999/xlink" width="924pt" height="354pt" viewBox="0 0 924 354" version="1.1">
<g id="surface1">
<rect x="0" y="0" width="924" height="354" style="fill:rgb(100%,100%,100%);fill-opacity:1;stroke:none;"/>
<path style="fill:none;stroke-width:10;stroke-linecap:round;stroke-linejoin:round;stroke:rgb(75.389099%,75.389099%,75.389099%);stroke-opacity:1;stroke-miterlimit:10;" d="M 1800.039062 4779.804688 L 1800.039062 -3526.914062 " transform="matrix(0.1,0,0,-0.1,0,354)"/>
<path style="fill:none;stroke-width:10;stroke-linecap:round;stroke-linejoin:round;stroke:rgb(75.389099%,75.389099%,75.389099%);stroke-opacity:1;stroke-miterlimit:10;" d="M 3217.382812 4779.804688 L 3217.382812 -3526.914062 " transform="matrix(0.1,0,0,-0.1,0,354)"/>
<path style="fill:none;stroke-width:10;stroke-linecap:round;stroke-linejoin:round;stroke:rgb(75.389099%,75.389099%,75.389099%);stroke-opacity:1;stroke-miterlimit:10;" d="M 4634.6875 4779.804688 L 4634.6875 -3526.914062 " transform="matrix(0.1,0,0,-0.1,0,354)"/>
<path style="fill:none;stroke-width:10;stroke-linecap:round;stroke-linejoin:round;stroke:rgb(75.389099%,75.389099%,75.389099%);stroke-opacity:1;stroke-miterlimit:10;" d="M 6051.992188 4779.804688 L 6051.992188 -3526.914062 " transform="matrix(0.1,0,0,-0.1,0,354)"/>
<path style="fill:none;stroke-width:10;stroke-linecap:round;stroke-linejoin:round;stroke:rgb(75.389099%,75.389099%,75.389099%);stroke-opacity:1;stroke-miterlimit:10;" d="M 7469.335938 4779.804688 L 7469.335938 -3526.914062 " transform="matrix(0.1,0,0,-0.1,0,354)"/>
<path style="fill:none;stroke-width:10;stroke-linecap:round;stroke-linejoin:round;stroke:rgb(75.389099%,75.389099%,75.389099%);stroke-opacity:1;stroke-miterlimit:10;" d="M 8886.640625 4779.804688 L 8886.640625 -3526.914062 " transform="matrix(0.1,0,0,-0.1,0,354)"/>
<path style="fill:none;stroke-width:10;stroke-linecap:round;stroke-linejoin:round;stroke:rgb(94.139099%,94.139099%,94.139099%);stroke-opacity:1;stroke-miterlimit:10;" d="M 99.257812 4779.804688 L 99.257812 -3526.914062 " transform="matrix(0.1,0,0,-0.1,0,354)"/>
<path style="fill:none;stroke-width:10;stroke-linecap:round;stroke-linejoin:round;stroke:rgb(94.139099%,94.139099%,94.139099%);stroke-opacity:1;stroke-miterlimit:10;" d="M 666.171875 4779.804688 L 666.171875 -3526.914062 " transform="matrix(0.1,0,0,-0.1,0,354)"/>
<path style="fill:none;stroke-width:10;stroke-linecap:round;stroke-linejoin:round;stroke:rgb(94.139099%,94.139099%,94.139099%);stroke-opacity:1;stroke-miterlimit:10;" d="M 949.648438 4779.804688 L 949.648438 -3526.914062 " transform="matrix(0.1,0,0,-0.1,0,354)"/>
<path style="fill:none;stroke-width:10;stroke-linecap:round;stroke-linejoin:round;stroke:rgb(94.139099%,94.139099%,94.139099%);stroke-opacity:1;stroke-miterlimit:10;" d="M 1233.125 4779.804688 L 1233.125 -3526.914062 " transform="matrix(0.1,0,0,-0.1,0,354)"/>
<path style="fill:none;stroke-width:10;stroke-linecap:round;stroke-linejoin:round;stroke:rgb(94.139099%,94.139099%,94.139099%);stroke-opacity:1;stroke-miterlimit:10;" d="M 1516.5625 4779.804688 L 1516.5625 -3526.914062 " transform="matrix(0.1,0,0,-0.1,0,354)"/>
<path style="fill:none;stroke-width:10;stroke-linecap:round;stroke-linejoin:round;stroke:rgb(94.139099%,94.139099%,94.139099%);stroke-opacity:1;stroke-miterlimit:10;" d="M 2083.515625 4779.804688 L 2083.515625 -3526.914062 " transform="matrix(0.1,0,0,-0.1,0,354)"/>
<path style="fill:none;stroke-width:10;stroke-linecap:round;stroke-linejoin:round;stroke:rgb(94.139099%,94.139099%,94.139099%);stroke-opacity:1;stroke-miterlimit:10;" d="M 2366.953125 4779.804688 L 2366.953125 -3526.914062 " transform="matrix(0.1,0,0,-0.1,0,354)"/>
<path style="fill:none;stroke-width:10;stroke-linecap:round;stroke-linejoin:round;stroke:rgb(94.139099%,94.139099%,94.139099%);stroke-opacity:1;stroke-miterlimit:10;" d="M 2650.429688 4779.804688 L 2650.429688 -3526.914062 " transform="matrix(0.1,0,0,-0.1,0,354)"/>
<path style="fill:none;stroke-width:10;stroke-linecap:round;stroke-linejoin:round;stroke:rgb(94.139099%,94.139099%,94.139099%);stroke-opacity:1;stroke-miterlimit:10;" d="M 2933.90625 4779.804688 L 2933.90625 -3526.914062 " transform="matrix(0.1,0,0,-0.1,0,354)"/>
<path style="fill:none;stroke-width:10;stroke-linecap:round;stroke-linejoin:round;stroke:rgb(94.139099%,94.139099%,94.139099%);stroke-opacity:1;stroke-miterlimit:10;" d="M 3500.820312 4779.804688 L 3500.820312 -3526.914062 " transform="matrix(0.1,0,0,-0.1,0,354)"/>
<path style="fill:none;stroke-width:10;stroke-linecap:round;stroke-linejoin:round;stroke:rgb(94.139099%,94.139099%,94.139099%);stroke-opacity:1;stroke-miterlimit:10;" d="M 3784.296875 4779.804688 L 3784.296875 -3526.914062 " transform="matrix(0.1,0,0,-0.1,0,354)"/>
<path style="fill:none;stroke-width:10;stroke-linecap:round;stroke-linejoin:round;stroke:rgb(94.139099%,94.139099%,94.139099%);stroke-opacity:1;stroke-miterlimit:10;" d="M 4067.773438 4779.804688 L 4067.773438 -3526.914062 " transform="matrix(0.1,0,0,-0.1,0,354)"/>
<path style="fill:none;stroke-width:10;stroke-linecap:round;stroke-linejoin:round;stroke:rgb(94.139099%,94.139099%,94.139099%);stroke-opacity:1;stroke-miterlimit:10;" d="M 4351.210938 4779.804688 L 4351.210938 -3526.914062 " transform="matrix(0.1,0,0,-0.1,0,354)"/>
<path style="fill:none;stroke-width:10;stroke-linecap:round;stroke-linejoin:round;stroke:rgb(94.139099%,94.139099%,94.139099%);stroke-opacity:1;stroke-miterlimit:10;" d="M 4918.164062 4779.804688 L 4918.164062 -3526.914062 " transform="matrix(0.1,0,0,-0.1,0,354)"/>
<path style="fill:none;stroke-width:10;stroke-linecap:round;stroke-linejoin:round;stroke:rgb(94.139099%,94.139099%,94.139099%);stroke-opacity:1;stroke-miterlimit:10;" d="M 5201.601562 4779.804688 L 5201.601562 -3526.914062 " transform="matrix(0.1,0,0,-0.1,0,354)"/>
<path style="fill:none;stroke-width:10;stroke-linecap:round;stroke-linejoin:round;stroke:rgb(94.139099%,94.139099%,94.139099%);stroke-opacity:1;stroke-miterlimit:10;" d="M 5485.078125 4779.804688 L 5485.078125 -3526.914062 " transform="matrix(0.1,0,0,-0.1,0,354)"/>
<path style="fill:none;stroke-width:10;stroke-linecap:round;stroke-linejoin:round;stroke:rgb(94.139099%,94.139099%,94.139099%);stroke-opacity:1;stroke-miterlimit:10;" d="M 5768.554688 4779.804688 L 5768.554688 -3526.914062 " transform="matrix(0.1,0,0,-0.1,0,354)"/>
<path style="fill:none;stroke-width:10;stroke-linecap:round;stroke-linejoin:round;stroke:rgb(94.139099%,94.139099%,94.139099%);stroke-opacity:1;stroke-miterlimit:10;" d="M 6335.46875 4779.804688 L 6335.46875 -3526.914062 " transform="matrix(0.1,0,0,-0.1,0,354)"/>
<path style="fill:none;stroke-width:10;stroke-linecap:round;stroke-linejoin:round;stroke:rgb(94.139099%,94.139099%,94.139099%);stroke-opacity:1;stroke-miterlimit:10;" d="M 6618.945312 4779.804688 L 6618.945312 -3526.914062 " transform="matrix(0.1,0,0,-0.1,0,354)"/>
<path style="fill:none;stroke-width:10;stroke-linecap:round;stroke-linejoin:round;stroke:rgb(94.139099%,94.139099%,94.139099%);stroke-opacity:1;stroke-miterlimit:10;" d="M 6902.421875 4779.804688 L 6902.421875 -3526.914062 " transform="matrix(0.1,0,0,-0.1,0,354)"/>
<path style="fill:none;stroke-width:10;stroke-linecap:round;stroke-linejoin:round;stroke:rgb(94.139099%,94.139099%,94.139099%);stroke-opacity:1;stroke-miterlimit:10;" d="M 7185.859375 4779.804688 L 7185.859375 -3526.914062 " transform="matrix(0.1,0,0,-0.1,0,354)"/>
<path style="fill:none;stroke-width:10;stroke-linecap:round;stroke-linejoin:round;stroke:rgb(94.139099%,94.139099%,94.139099%);stroke-opacity:1;stroke-miterlimit:10;" d="M 7752.8125 4779.804688 L 7752.8125 -3526.914062 " transform="matrix(0.1,0,0,-0.1,0,354)"/>
<path style="fill:none;stroke-width:10;stroke-linecap:round;stroke-linejoin:round;stroke:rgb(94.139099%,94.139099%,94.139099%);stroke-opacity:1;stroke-miterlimit:10;" d="M 8036.289062 4779.804688 L 8036.289062 -3526.914062 " transform="matrix(0.1,0,0,-0.1,0,354)"/>
<path style="fill:none;stroke-width:10;stroke-linecap:round;stroke-linejoin:round;stroke:rgb(94.139099%,94.139099%,94.139099%);stroke-opacity:1;stroke-miterlimit:10;" d="M 8319.726562 4779.804688 L 8319.726562 -3526.914062 " transform="matrix(0.1,0,0,-0.1,0,354)"/>
<path style="fill:none;stroke-width:10;stroke-linecap:round;stroke-linejoin:round;stroke:rgb(94.139099%,94.139099%,94.139099%);stroke-opacity:1;stroke-miterlimit:10;" d="M 8603.203125 4779.804688 L 8603.203125 -3526.914062 " transform="matrix(0.1,0,0,-0.1,0,354)"/>
<path style="fill:none;stroke-width:10;stroke-linecap:round;stroke-linejoin:round;stroke:rgb(94.139099%,94.139099%,94.139099%);stroke-opacity:1;stroke-miterlimit:10;" d="M 9170.117188 4779.804688 L 9170.117188 -3526.914062 " transform="matrix(0.1,0,0,-0.1,0,354)"/>
<path style="fill:none;stroke-width:10;stroke-linecap:round;stroke-linejoin:round;stroke:rgb(75.389099%,75.389099%,75.389099%);stroke-opacity:1;stroke-miterlimit:10;" d="M -991.835938 3200.507812 L 9280.859375 3200.507812 " transform="matrix(0.1,0,0,-0.1,0,354)"/>
<path style="fill:none;stroke-width:10;stroke-linecap:round;stroke-linejoin:round;stroke:rgb(75.389099%,75.389099%,75.389099%);stroke-opacity:1;stroke-miterlimit:10;" d="M -991.835938 365.859375 L 9280.859375 365.859375 " transform="matrix(0.1,0,0,-0.1,0,354)"/>
<path style="fill:none;stroke-width:10;stroke-linecap:round;stroke-linejoin:round;stroke:rgb(94.139099%,94.139099%,94.139099%);stroke-opacity:1;stroke-miterlimit:10;" d="M -991.835938 3483.984375 L 9280.859375 3483.984375 " transform="matrix(0.1,0,0,-0.1,0,354)"/>
<path style="fill:none;stroke-width:10;stroke-linecap:round;stroke-linejoin:round;stroke:rgb(94.139099%,94.139099%,94.139099%);stroke-opacity:1;stroke-miterlimit:10;" d="M -991.835938 2917.03125 L 9280.859375 2917.03125 " transform="matrix(0.1,0,0,-0.1,0,354)"/>
<path style="fill:none;stroke-width:10;stroke-linecap:round;stroke-linejoin:round;stroke:rgb(94.139099%,94.139099%,94.139099%);stroke-opacity:1;stroke-miterlimit:10;" d="M -991.835938 2633.59375 L 9280.859375 2633.59375 " transform="matrix(0.1,0,0,-0.1,0,354)"/>
<path style="fill:none;stroke-width:10;stroke-linecap:round;stroke-linejoin:round;stroke:rgb(94.139099%,94.139099%,94.139099%);stroke-opacity:1;stroke-miterlimit:10;" d="M -991.835938 2350.117188 L 9280.859375 2350.117188 " transform="matrix(0.1,0,0,-0.1,0,354)"/>
<path style="fill:none;stroke-width:10;stroke-linecap:round;stroke-linejoin:round;stroke:rgb(94.139099%,94.139099%,94.139099%);stroke-opacity:1;stroke-miterlimit:10;" d="M -991.835938 2066.640625 L 9280.859375 2066.640625 " transform="matrix(0.1,0,0,-0.1,0,354)"/>
<path style="fill:none;stroke-width:10;stroke-linecap:round;stroke-linejoin:round;stroke:rgb(94.139099%,94.139099%,94.139099%);stroke-opacity:1;stroke-miterlimit:10;" d="M -991.835938 1499.726562 L 9280.859375 1499.726562 " transform="matrix(0.1,0,0,-0.1,0,354)"/>
<path style="fill:none;stroke-width:10;stroke-linecap:round;stroke-linejoin:round;stroke:rgb(94.139099%,94.139099%,94.139099%);stroke-opacity:1;stroke-miterlimit:10;" d="M -991.835938 1216.25 L 9280.859375 1216.25 " transform="matrix(0.1,0,0,-0.1,0,354)"/>
<path style="fill:none;stroke-width:10;stroke-linecap:round;stroke-linejoin:round;stroke:rgb(94.139099%,94.139099%,94.139099%);stroke-opacity:1;stroke-miterlimit:10;" d="M -991.835938 932.8125 L 9280.859375 932.8125 " transform="matrix(0.1,0,0,-0.1,0,354)"/>
<path style="fill:none;stroke-width:10;stroke-linecap:round;stroke-linejoin:round;stroke:rgb(94.139099%,94.139099%,94.139099%);stroke-opacity:1;stroke-miterlimit:10;" d="M -991.835938 649.335938 L 9280.859375 649.335938 " transform="matrix(0.1,0,0,-0.1,0,354)"/>
<path style="fill:none;stroke-width:10;stroke-linecap:round;stroke-linejoin:round;stroke:rgb(94.139099%,94.139099%,94.139099%);stroke-opacity:1;stroke-miterlimit:10;" d="M -991.835938 82.421875 L 9280.859375 82.421875 " transform="matrix(0.1,0,0,-0.1,0,354)"/>
<path style="fill:none;stroke-width:10;stroke-linecap:butt;stroke-linejoin:miter;stroke:rgb(0%,0%,0%);stroke-opacity:1;stroke-miterlimit:10;" d="M 382.734375 4744.375 L 382.734375 -3526.914062 " transform="matrix(0.1,0,0,-0.1,0,354)"/>
<path style="fill:none;stroke-width:10;stroke-linecap:butt;stroke-linejoin:miter;stroke:rgb(0%,0%,0%);stroke-opacity:1;stroke-miterlimit:10;" d="M -991.835938 1783.203125 L 9245.429688 1783.203125 " transform="matrix(0.1,0,0,-0.1,0,354)"/>
<path style="fill:none;stroke-width:10;stroke-linecap:butt;stroke-linejoin:miter;stroke:rgb(0%,0%,0%);stroke-opacity:1;stroke-miterlimit:10;" d="M 9263.164062 1783.203125 L 9192.304688 1854.023438 " transform="matrix(0.1,0,0,-0.1,0,354)"/>
<path style="fill:none;stroke-width:10;stroke-linecap:butt;stroke-linejoin:miter;stroke:rgb(0%,0%,0%);stroke-opacity:1;stroke-miterlimit:10;" d="M 9263.164062 1783.203125 L 9192.304688 1712.34375 " transform="matrix(0.1,0,0,-0.1,0,354)"/>
<path style=" stroke:none;fill-rule:nonzero;fill:rgb(0%,0%,0%);fill-opacity:1;" d="M 177.929688 203.746094 L 177.929688 201.917969 C 178.945312 202.328125 179.914062 202.53125 180.835938 202.53125 C 181.84375 202.53125 182.636719 202.234375 183.214844 201.640625 C 183.792969 201.042969 184.082031 200.222656 184.082031 199.179688 C 184.082031 196.875 182.496094 195.722656 179.320312 195.722656 C 178.960938 195.722656 178.582031 195.746094 178.1875 195.796875 L 178.1875 188.324219 L 185.960938 188.324219 L 185.960938 190.109375 L 179.984375 190.109375 L 179.984375 194.15625 C 181.953125 194.15625 183.496094 194.609375 184.601562 195.515625 C 185.710938 196.421875 186.261719 197.679688 186.261719 199.28125 C 186.261719 200.777344 185.757812 201.949219 184.753906 202.796875 C 183.746094 203.644531 182.351562 204.066406 180.5625 204.066406 C 179.789062 204.066406 178.910156 203.960938 177.929688 203.746094 "/>
<path style=" stroke:none;fill-rule:nonzero;fill:rgb(0%,0%,0%);fill-opacity:1;" d="M 314.921875 203.683594 L 314.921875 202.148438 L 317.992188 202.148438 L 317.992188 190.027344 L 314.921875 190.792969 L 314.921875 189.214844 L 320.046875 187.941406 L 320.046875 202.148438 L 323.117188 202.148438 L 323.117188 203.683594 Z M 332.554688 204.066406 C 330.972656 204.066406 329.6875 203.320312 328.710938 201.828125 C 327.730469 200.339844 327.242188 198.394531 327.242188 195.992188 C 327.242188 193.570312 327.734375 191.625 328.722656 190.148438 C 329.707031 188.675781 331.007812 187.941406 332.617188 187.941406 C 334.230469 187.941406 335.527344 188.675781 336.515625 190.148438 C 337.5 191.625 337.992188 193.5625 337.992188 195.960938 C 337.992188 198.425781 337.5 200.390625 336.515625 201.863281 C 335.527344 203.332031 334.210938 204.066406 332.554688 204.066406 Z M 332.574219 202.53125 C 334.742188 202.53125 335.824219 200.332031 335.824219 195.929688 C 335.824219 191.628906 334.753906 189.476562 332.617188 189.476562 C 330.488281 189.476562 329.421875 191.648438 329.421875 195.992188 C 329.421875 200.351562 330.472656 202.53125 332.574219 202.53125 "/>
<path style=" stroke:none;fill-rule:nonzero;fill:rgb(0%,0%,0%);fill-opacity:1;" d="M 456.613281 203.683594 L 456.613281 202.148438 L 459.683594 202.148438 L 459.683594 190.027344 L 456.613281 190.792969 L 456.613281 189.214844 L 461.738281 187.941406 L 461.738281 202.148438 L 464.8125 202.148438 L 464.8125 203.683594 Z M 470.171875 203.746094 L 470.171875 201.917969 C 471.1875 202.328125 472.15625 202.53125 473.074219 202.53125 C 474.085938 202.53125 474.878906 202.234375 475.457031 201.640625 C 476.035156 201.042969 476.324219 200.222656 476.324219 199.179688 C 476.324219 196.875 474.734375 195.722656 471.558594 195.722656 C 471.199219 195.722656 470.824219 195.746094 470.429688 195.796875 L 470.429688 188.324219 L 478.203125 188.324219 L 478.203125 190.109375 L 472.222656 190.109375 L 472.222656 194.15625 C 474.195312 194.15625 475.734375 194.609375 476.84375 195.515625 C 477.949219 196.421875 478.503906 197.679688 478.503906 199.28125 C 478.503906 200.777344 478 201.949219 476.992188 202.796875 C 475.984375 203.644531 474.589844 204.066406 472.804688 204.066406 C 472.03125 204.066406 471.152344 203.960938 470.171875 203.746094 "/>
<path style=" stroke:none;fill-rule:nonzero;fill:rgb(0%,0%,0%);fill-opacity:1;" d="M 596.871094 203.683594 L 596.871094 201.886719 C 597.46875 200.496094 598.671875 198.980469 600.484375 197.34375 L 601.65625 196.292969 C 603.164062 194.929688 603.921875 193.578125 603.921875 192.234375 C 603.921875 191.378906 603.660156 190.703125 603.144531 190.210938 C 602.632812 189.722656 601.921875 189.476562 601.023438 189.476562 C 599.960938 189.476562 598.703125 189.886719 597.257812 190.710938 L 597.257812 188.90625 C 598.621094 188.261719 599.972656 187.941406 601.316406 187.941406 C 602.753906 187.941406 603.910156 188.328125 604.78125 189.101562 C 605.652344 189.878906 606.089844 190.902344 606.089844 192.183594 C 606.089844 193.105469 605.867188 193.921875 605.429688 194.632812 C 604.988281 195.347656 604.171875 196.210938 602.976562 197.226562 L 602.1875 197.902344 C 600.546875 199.292969 599.597656 200.621094 599.34375 201.886719 L 606.015625 201.886719 L 606.015625 203.683594 Z M 615.941406 204.066406 C 614.355469 204.066406 613.074219 203.320312 612.097656 201.828125 C 611.117188 200.339844 610.628906 198.394531 610.628906 195.992188 C 610.628906 193.570312 611.121094 191.625 612.105469 190.148438 C 613.09375 188.675781 614.390625 187.941406 616.003906 187.941406 C 617.613281 187.941406 618.914062 188.675781 619.898438 190.148438 C 620.886719 191.625 621.378906 193.5625 621.378906 195.960938 C 621.378906 198.425781 620.886719 200.390625 619.898438 201.863281 C 618.914062 203.332031 617.59375 204.066406 615.941406 204.066406 Z M 615.960938 202.53125 C 618.128906 202.53125 619.210938 200.332031 619.210938 195.929688 C 619.210938 191.628906 618.140625 189.476562 616.003906 189.476562 C 613.871094 189.476562 612.804688 191.648438 612.804688 195.992188 C 612.804688 200.351562 613.859375 202.53125 615.960938 202.53125 "/>
<path style=" stroke:none;fill-rule:nonzero;fill:rgb(0%,0%,0%);fill-opacity:1;" d="M 738.566406 203.683594 L 738.566406 201.886719 C 739.160156 200.496094 740.363281 198.980469 742.175781 197.34375 L 743.351562 196.292969 C 744.859375 194.929688 745.613281 193.578125 745.613281 192.234375 C 745.613281 191.378906 745.355469 190.703125 744.839844 190.210938 C 744.324219 189.722656 743.617188 189.476562 742.71875 189.476562 C 741.652344 189.476562 740.394531 189.886719 738.949219 190.710938 L 738.949219 188.90625 C 740.3125 188.261719 741.664062 187.941406 743.007812 187.941406 C 744.445312 187.941406 745.601562 188.328125 746.472656 189.101562 C 747.34375 189.878906 747.78125 190.902344 747.78125 192.183594 C 747.78125 193.105469 747.5625 193.921875 747.121094 194.632812 C 746.683594 195.347656 745.863281 196.210938 744.667969 197.226562 L 743.878906 197.902344 C 742.238281 199.292969 741.289062 200.621094 741.035156 201.886719 L 747.710938 201.886719 L 747.710938 203.683594 Z M 753.554688 203.746094 L 753.554688 201.917969 C 754.570312 202.328125 755.539062 202.53125 756.460938 202.53125 C 757.46875 202.53125 758.265625 202.234375 758.84375 201.640625 C 759.421875 201.042969 759.710938 200.222656 759.710938 199.179688 C 759.710938 196.875 758.121094 195.722656 754.945312 195.722656 C 754.585938 195.722656 754.210938 195.746094 753.8125 195.796875 L 753.8125 188.324219 L 761.585938 188.324219 L 761.585938 190.109375 L 755.609375 190.109375 L 755.609375 194.15625 C 757.582031 194.15625 759.121094 194.609375 760.226562 195.515625 C 761.335938 196.421875 761.886719 197.679688 761.886719 199.28125 C 761.886719 200.777344 761.386719 201.949219 760.378906 202.796875 C 759.371094 203.644531 757.976562 204.066406 756.191406 204.066406 C 755.414062 204.066406 754.535156 203.960938 753.554688 203.746094 "/>
<path style=" stroke:none;fill-rule:nonzero;fill:rgb(0%,0%,0%);fill-opacity:1;" d="M 880.652344 203.570312 L 880.652344 201.660156 C 882.117188 202.242188 883.273438 202.53125 884.117188 202.53125 C 885.09375 202.53125 885.886719 202.246094 886.5 201.675781 C 887.113281 201.105469 887.417969 200.367188 887.417969 199.460938 C 887.417969 197.300781 885.90625 196.222656 882.882812 196.222656 L 882.074219 196.222656 L 882.074219 194.839844 L 882.789062 194.832031 C 885.628906 194.832031 887.046875 193.832031 887.046875 191.832031 C 887.046875 190.261719 886.109375 189.476562 884.242188 189.476562 C 883.21875 189.476562 882.089844 189.761719 880.859375 190.335938 L 880.859375 188.550781 C 882.070312 188.144531 883.246094 187.941406 884.390625 187.941406 C 887.527344 187.941406 889.101562 189.125 889.101562 191.5 C 889.101562 193.304688 888.03125 194.59375 885.894531 195.359375 C 888.371094 195.933594 889.609375 197.289062 889.609375 199.429688 C 889.609375 200.875 889.132812 202.007812 888.175781 202.832031 C 887.222656 203.65625 885.910156 204.066406 884.242188 204.066406 C 883.296875 204.066406 882.097656 203.902344 880.652344 203.570312 Z M 899.324219 204.066406 C 897.742188 204.066406 896.460938 203.320312 895.480469 201.828125 C 894.503906 200.339844 894.011719 198.394531 894.011719 195.992188 C 894.011719 193.570312 894.503906 191.625 895.492188 190.148438 C 896.476562 188.675781 897.777344 187.941406 899.386719 187.941406 C 901 187.941406 902.300781 188.675781 903.285156 190.148438 C 904.269531 191.625 904.765625 193.5625 904.765625 195.960938 C 904.765625 198.425781 904.269531 200.390625 903.285156 201.863281 C 902.300781 203.332031 900.980469 204.066406 899.324219 204.066406 Z M 899.347656 202.53125 C 901.511719 202.53125 902.59375 200.332031 902.59375 195.929688 C 902.59375 191.628906 901.527344 189.476562 899.386719 189.476562 C 897.257812 189.476562 896.191406 191.648438 896.191406 195.992188 C 896.191406 200.351562 897.242188 202.53125 899.347656 202.53125 "/>
<path style=" stroke:none;fill-rule:nonzero;fill:rgb(0%,0%,0%);fill-opacity:1;" d="M 1.089844 320.257812 L 1.089844 318.847656 L 9.539062 318.847656 L 9.539062 320.257812 Z M 13.210938 325.957031 L 13.210938 324.128906 C 14.226562 324.535156 15.195312 324.742188 16.117188 324.742188 C 17.128906 324.742188 17.921875 324.445312 18.5 323.847656 C 19.078125 323.253906 19.363281 322.433594 19.363281 321.390625 C 19.363281 319.085938 17.777344 317.933594 14.601562 317.933594 C 14.242188 317.933594 13.863281 317.957031 13.46875 318.003906 L 13.46875 310.535156 L 21.242188 310.535156 L 21.242188 312.320312 L 15.265625 312.320312 L 15.265625 316.367188 C 17.238281 316.367188 18.777344 316.820312 19.882812 317.726562 C 20.992188 318.632812 21.542969 319.886719 21.542969 321.492188 C 21.542969 322.988281 21.039062 324.15625 20.035156 325.003906 C 19.027344 325.851562 17.632812 326.277344 15.847656 326.277344 C 15.074219 326.277344 14.195312 326.167969 13.210938 325.957031 "/>
<path style=" stroke:none;fill-rule:nonzero;fill:rgb(0%,0%,0%);fill-opacity:1;" d="M 13.210938 42.570312 L 13.210938 40.742188 C 14.226562 41.152344 15.195312 41.355469 16.117188 41.355469 C 17.128906 41.355469 17.921875 41.058594 18.5 40.464844 C 19.078125 39.867188 19.363281 39.046875 19.363281 38.003906 C 19.363281 35.699219 17.777344 34.546875 14.601562 34.546875 C 14.242188 34.546875 13.863281 34.570312 13.46875 34.621094 L 13.46875 27.148438 L 21.242188 27.148438 L 21.242188 28.933594 L 15.265625 28.933594 L 15.265625 32.980469 C 17.238281 32.980469 18.777344 33.433594 19.882812 34.339844 C 20.992188 35.246094 21.542969 36.503906 21.542969 38.105469 C 21.542969 39.601562 21.039062 40.773438 20.035156 41.621094 C 19.027344 42.46875 17.632812 42.890625 15.847656 42.890625 C 15.074219 42.890625 14.195312 42.785156 13.210938 42.570312 "/>
<path style=" stroke:none;fill-rule:nonzero;fill:rgb(0%,0%,0%);fill-opacity:1;" d="M 17.289062 204.066406 C 15.707031 204.066406 14.421875 203.320312 13.445312 201.828125 C 12.464844 200.339844 11.976562 198.394531 11.976562 195.992188 C 11.976562 193.570312 12.46875 191.625 13.457031 190.148438 C 14.441406 188.675781 15.738281 187.941406 17.351562 187.941406 C 18.964844 187.941406 20.261719 188.675781 21.25 190.148438 C 22.234375 191.625 22.726562 193.5625 22.726562 195.960938 C 22.726562 198.425781 22.234375 200.390625 21.25 201.863281 C 20.261719 203.332031 18.941406 204.066406 17.289062 204.066406 Z M 17.308594 202.53125 C 19.476562 202.53125 20.558594 200.332031 20.558594 195.929688 C 20.558594 191.628906 19.488281 189.476562 17.351562 189.476562 C 15.21875 189.476562 14.15625 191.648438 14.15625 195.992188 C 14.15625 200.351562 15.207031 202.53125 17.308594 202.53125 "/>
<path style="fill:none;stroke-width:25;stroke-linecap:round;stroke-linejoin:round;stroke:rgb(72.068787%,44.163513%,30.200195%);stroke-opacity:1;stroke-miterlimit:10;" d="M 382.734375 1787.890625 L 452.773438 1891.015625 M 452.773438 1891.015625 L 492.890625 1923.867188 L 502.890625 1929.84375 L 512.929688 1935.039062 L 533.007812 1943.398438 L 573.125 1953.085938 L 613.28125 1955.625 M 613.28125 1955.625 L 693.515625 1947.03125 L 773.789062 1928.945312 L 854.023438 1907.890625 L 934.296875 1887.265625 M 934.296875 1887.265625 L 1014.53125 1868.710938 L 1094.804688 1852.890625 L 1175.039062 1839.921875 L 1255.3125 1829.53125 L 1335.546875 1821.40625 L 1415.820312 1815.195312 L 1496.054688 1810.546875 L 1576.328125 1807.148438 M 1576.328125 1807.148438 L 1656.601562 1804.765625 L 1736.835938 1803.164062 L 1817.109375 1802.1875 L 1897.34375 1801.71875 L 1977.617188 1801.601562 L 2057.851562 1801.835938 L 2138.125 1802.265625 L 2218.398438 1802.929688 L 2298.632812 1803.75 L 2378.90625 1804.726562 L 2459.140625 1805.820312 L 2539.375 1807.03125 L 2619.648438 1808.359375 L 2699.921875 1809.765625 L 2780.15625 1811.289062 L 2860.429688 1812.929688 L 2940.664062 1814.648438 L 3020.9375 1816.484375 L 3101.171875 1818.398438 L 3181.445312 1820.46875 L 3261.71875 1822.617188 L 3341.953125 1824.882812 L 3422.226562 1827.304688 L 3502.460938 1829.84375 L 3582.734375 1832.539062 L 3662.96875 1835.351562 L 3743.242188 1838.28125 L 3823.476562 1841.40625 L 3903.75 1844.6875 L 3983.984375 1848.125 L 4064.257812 1851.757812 L 4144.492188 1855.585938 M 4144.492188 1855.585938 L 4224.765625 1859.570312 L 4305.039062 1863.75 L 4385.273438 1868.164062 L 4465.546875 1872.773438 L 4545.78125 1877.578125 L 4626.054688 1882.617188 L 4706.289062 1887.890625 L 4786.5625 1893.4375 L 4866.796875 1899.21875 L 4947.070312 1905.234375 L 5027.304688 1911.523438 L 5107.578125 1918.046875 L 5187.8125 1924.882812 L 5268.085938 1931.953125 L 5348.359375 1939.335938 L 5428.59375 1946.992188 L 5508.867188 1954.921875 L 5589.101562 1963.125 L 5669.375 1971.640625 L 5749.609375 1980.390625 L 5829.882812 1989.453125 L 5910.117188 1998.789062 L 5990.390625 2008.359375 L 6070.625 2018.164062 L 6150.898438 2028.203125 L 6231.132812 2038.476562 L 6311.40625 2048.90625 L 6391.640625 2059.53125 L 6471.914062 2070.234375 L 6552.1875 2081.054688 L 6632.421875 2091.914062 L 6712.695312 2102.773438 M 6712.695312 2102.773438 L 6792.929688 2113.554688 L 6873.203125 2124.179688 L 6953.4375 2134.609375 L 7033.710938 2144.726562 L 7113.945312 2154.414062 L 7194.21875 2163.632812 L 7274.453125 2172.148438 L 7354.726562 2179.882812 L 7434.960938 2186.679688 L 7515.234375 2192.34375 L 7595.507812 2196.640625 L 7675.742188 2199.375 L 7756.015625 2200.3125 L 7836.25 2199.140625 L 7916.523438 2195.507812 L 7996.757812 2189.140625 M 7996.757812 2189.140625 L 8077.03125 2179.648438 L 8157.304688 2166.523438 L 8237.539062 2149.375 L 8317.8125 2127.65625 L 8398.046875 2100.742188 L 8478.320312 2068.046875 L 8558.554688 2028.867188 L 8638.828125 1982.382812 M 8638.828125 1982.382812 L 8719.0625 1927.734375 L 8799.335938 1864.0625 M 8799.335938 1864.0625 L 8879.609375 1790.234375 M 8879.609375 1790.234375 L 8886.640625 1783.203125 " transform="matrix(0.1,0,0,-0.1,0,354)"/>
<path style=" stroke:none;fill-rule:nonzero;fill:rgb(59.959412%,19.993591%,0%);fill-opacity:1;" d="M 64.773438 196.28125 L 65.089844 193.914062 C 66.667969 194.660156 68.222656 195.035156 69.753906 195.035156 C 72.824219 195.035156 74.359375 193.40625 74.359375 190.148438 L 74.359375 187.785156 C 73.355469 189.886719 71.703125 190.9375 69.40625 190.9375 C 67.609375 190.9375 66.179688 190.285156 65.117188 188.972656 C 64.058594 187.664062 63.527344 185.898438 63.527344 183.675781 C 63.527344 181.386719 64.128906 179.523438 65.339844 178.085938 C 66.546875 176.644531 68.109375 175.925781 70.03125 175.925781 C 71.710938 175.925781 73.152344 176.609375 74.359375 177.972656 L 74.359375 176.257812 L 77.101562 176.257812 L 77.101562 187.1875 C 77.101562 189.539062 76.976562 191.28125 76.734375 192.410156 C 76.488281 193.542969 76.03125 194.46875 75.355469 195.1875 C 74.167969 196.449219 72.316406 197.082031 69.808594 197.082031 C 68.054688 197.082031 66.378906 196.816406 64.773438 196.28125 Z M 74.359375 186.082031 L 74.359375 179.839844 C 73.160156 178.597656 71.855469 177.972656 70.445312 177.972656 C 69.191406 177.972656 68.207031 178.476562 67.496094 179.480469 C 66.789062 180.488281 66.433594 181.867188 66.433594 183.617188 C 66.433594 186.910156 67.589844 188.558594 69.90625 188.558594 C 71.484375 188.558594 72.96875 187.734375 74.359375 186.082031 "/>
<path style="fill:none;stroke-width:25;stroke-linecap:round;stroke-linejoin:round;stroke:rgb(72.068787%,44.163513%,30.200195%);stroke-opacity:1;stroke-miterlimit:10;" d="M 382.734375 1778.476562 L 452.773438 1675.390625 M 452.773438 1675.390625 L 492.890625 1642.539062 L 502.890625 1636.5625 L 512.929688 1631.328125 L 533.007812 1623.007812 L 573.125 1613.28125 L 613.28125 1610.742188 M 613.28125 1610.742188 L 693.515625 1619.375 L 773.789062 1637.421875 L 854.023438 1658.515625 L 934.296875 1679.140625 M 934.296875 1679.140625 L 1014.53125 1697.695312 L 1094.804688 1713.476562 L 1175.039062 1726.484375 L 1255.3125 1736.875 L 1335.546875 1745 L 1415.820312 1751.210938 L 1496.054688 1755.859375 L 1576.328125 1759.257812 M 1576.328125 1759.257812 L 1656.601562 1761.640625 L 1736.835938 1763.242188 L 1817.109375 1764.21875 L 1897.34375 1764.6875 L 1977.617188 1764.765625 L 2057.851562 1764.570312 L 2138.125 1764.101562 L 2218.398438 1763.476562 L 2298.632812 1762.617188 L 2378.90625 1761.640625 L 2459.140625 1760.546875 L 2539.375 1759.335938 L 2619.648438 1758.046875 L 2699.921875 1756.601562 L 2780.15625 1755.078125 L 2860.429688 1753.476562 L 2940.664062 1751.757812 L 3020.9375 1749.921875 L 3101.171875 1747.96875 L 3181.445312 1745.9375 L 3261.71875 1743.75 L 3341.953125 1741.484375 L 3422.226562 1739.0625 L 3502.460938 1736.523438 L 3582.734375 1733.867188 L 3662.96875 1731.054688 L 3743.242188 1728.085938 L 3823.476562 1724.960938 L 3903.75 1721.679688 L 3983.984375 1718.242188 L 4064.257812 1714.609375 L 4144.492188 1710.820312 M 4144.492188 1710.820312 L 4224.765625 1706.835938 L 4305.039062 1702.617188 L 4385.273438 1698.242188 L 4465.546875 1693.632812 L 4545.78125 1688.789062 L 4626.054688 1683.75 L 4706.289062 1678.476562 L 4786.5625 1672.96875 L 4866.796875 1667.1875 L 4947.070312 1661.171875 L 5027.304688 1654.882812 L 5107.578125 1648.320312 L 5187.8125 1641.523438 L 5268.085938 1634.414062 L 5348.359375 1627.03125 L 5428.59375 1619.375 L 5508.867188 1611.445312 L 5589.101562 1603.242188 L 5669.375 1594.765625 L 5749.609375 1585.976562 L 5829.882812 1576.914062 L 5910.117188 1567.617188 L 5990.390625 1558.046875 L 6070.625 1548.203125 L 6150.898438 1538.164062 L 6231.132812 1527.890625 L 6311.40625 1517.460938 L 6391.640625 1506.875 L 6471.914062 1496.132812 L 6552.1875 1485.3125 L 6632.421875 1474.453125 L 6712.695312 1463.632812 M 6712.695312 1463.632812 L 6792.929688 1452.851562 L 6873.203125 1442.1875 L 6953.4375 1431.796875 L 7033.710938 1421.640625 L 7113.945312 1411.953125 L 7194.21875 1402.773438 L 7274.453125 1394.21875 L 7354.726562 1386.484375 L 7434.960938 1379.6875 L 7515.234375 1374.023438 L 7595.507812 1369.726562 L 7675.742188 1366.992188 L 7756.015625 1366.054688 L 7836.25 1367.265625 L 7916.523438 1370.859375 L 7996.757812 1377.226562 M 7996.757812 1377.226562 L 8077.03125 1386.757812 L 8157.304688 1399.84375 L 8237.539062 1416.992188 L 8317.8125 1438.75 L 8398.046875 1465.625 L 8478.320312 1498.359375 L 8558.554688 1537.539062 L 8638.828125 1584.023438 M 8638.828125 1584.023438 L 8719.0625 1638.632812 L 8799.335938 1702.34375 M 8799.335938 1702.34375 L 8879.609375 1776.171875 M 8879.609375 1776.171875 L 8886.640625 1783.203125 " transform="matrix(0.1,0,0,-0.1,0,354)"/>
<path style=" stroke:none;fill-rule:nonzero;fill:rgb(59.959412%,19.993591%,0%);fill-opacity:1;" d="M 64.714844 212.539062 L 64.714844 190.691406 L 67.441406 190.691406 L 67.441406 200.335938 C 68.882812 198.230469 70.644531 197.179688 72.726562 197.179688 C 74.027344 197.179688 75.066406 197.59375 75.839844 198.417969 C 76.617188 199.242188 77.003906 200.351562 77.003906 201.746094 L 77.003906 212.539062 L 74.277344 212.539062 L 74.277344 202.632812 C 74.277344 201.515625 74.113281 200.71875 73.785156 200.246094 C 73.460938 199.769531 72.917969 199.53125 72.160156 199.53125 C 70.492188 199.53125 68.917969 200.625 67.441406 202.8125 L 67.441406 212.539062 "/>
</g>
</svg>
