<?xml version="1.0" encoding="UTF-8"?>
<svg xmlns="http://www.w3.org/2000/svg" xmlns:xlink="http://www.w3.org/1999/xlink" width="227pt" height="175pt" viewBox="0 0 227 175" version="1.1">
<g id="surface1">
<rect x="0" y="0" width="227" height="175" style="fill:rgb(100%,100%,100%);fill-opacity:1;stroke:none;"/>
<path style="fill:none;stroke-width:10;stroke-linecap:butt;stroke-linejoin:miter;stroke:rgb(0%,0%,0%);stroke-opacity:1;stroke-miterlimit:10;" d="M 148.085938 1741.992188 L 148.085938 -2.8125 " transform="matrix(0.1,0,0,-0.1,0,175)"/>
<path style="fill:none;stroke-width:10;stroke-linecap:butt;stroke-linejoin:miter;stroke:rgb(0%,0%,0%);stroke-opacity:1;stroke-miterlimit:10;" d="M 148.085938 1746.015625 L 136.054688 1733.984375 " transform="matrix(0.1,0,0,-0.1,0,175)"/>
<path style="fill:none;stroke-width:10;stroke-linecap:butt;stroke-linejoin:miter;stroke:rgb(0%,0%,0%);stroke-opacity:1;stroke-miterlimit:10;" d="M 148.085938 1746.015625 L 160.078125 1733.984375 " transform="matrix(0.1,0,0,-0.1,0,175)"/>
<path style="fill:none;stroke-width:10;stroke-linecap:butt;stroke-linejoin:miter;stroke:rgb(0%,0%,0%);stroke-opacity:1;stroke-miterlimit:10;" d="M 0 817.578125 L 2265.039062 817.578125 " transform="matrix(0.1,0,0,-0.1,0,175)"/>
<path style="fill:none;stroke-width:10;stroke-linecap:butt;stroke-linejoin:miter;stroke:rgb(0%,0%,0%);stroke-opacity:1;stroke-miterlimit:10;" d="M 2269.0625 817.578125 L 2257.03125 829.570312 " transform="matrix(0.1,0,0,-0.1,0,175)"/>
<path style="fill:none;stroke-width:10;stroke-linecap:butt;stroke-linejoin:miter;stroke:rgb(0%,0%,0%);stroke-opacity:1;stroke-miterlimit:10;" d="M 2269.0625 817.578125 L 2257.03125 805.546875 " transform="matrix(0.1,0,0,-0.1,0,175)"/>
<path style=" stroke:none;fill-rule:nonzero;fill:rgb(0%,0%,0%);fill-opacity:1;" d="M 17.378906 97.03125 C 17.378906 96.695312 17.410156 96.421875 17.480469 96.214844 C 17.546875 96.011719 17.652344 95.851562 17.789062 95.738281 C 17.925781 95.625 18.101562 95.570312 18.308594 95.570312 C 18.464844 95.570312 18.597656 95.601562 18.710938 95.664062 C 18.828125 95.726562 18.921875 95.816406 19 95.933594 C 19.078125 96.046875 19.136719 96.191406 19.175781 96.355469 C 19.21875 96.523438 19.238281 96.75 19.238281 97.03125 C 19.238281 97.371094 19.207031 97.640625 19.136719 97.847656 C 19.070312 98.054688 18.964844 98.214844 18.828125 98.328125 C 18.691406 98.441406 18.515625 98.496094 18.308594 98.496094 C 18.03125 98.496094 17.816406 98.394531 17.65625 98.195312 C 17.46875 97.957031 17.378906 97.570312 17.378906 97.03125 Z M 17.734375 97.03125 C 17.734375 97.503906 17.789062 97.816406 17.898438 97.972656 C 18.007812 98.128906 18.144531 98.207031 18.308594 98.207031 C 18.472656 98.207031 18.605469 98.128906 18.71875 97.972656 C 18.828125 97.816406 18.882812 97.503906 18.882812 97.03125 C 18.882812 96.5625 18.828125 96.25 18.71875 96.09375 C 18.605469 95.941406 18.46875 95.863281 18.300781 95.863281 C 18.144531 95.863281 18.015625 95.929688 17.914062 96.0625 C 17.792969 96.238281 17.734375 96.5625 17.734375 97.03125 "/>
<path style=" stroke:none;fill-rule:nonzero;fill:rgb(0%,0%,0%);fill-opacity:1;" d="M 52.3125 98.445312 L 51.960938 98.445312 L 51.960938 96.207031 C 51.878906 96.285156 51.769531 96.367188 51.628906 96.449219 C 51.492188 96.527344 51.371094 96.589844 51.261719 96.625 L 51.261719 96.289062 C 51.457031 96.195312 51.628906 96.085938 51.777344 95.953125 C 51.925781 95.824219 52.027344 95.695312 52.085938 95.570312 L 52.3125 95.570312 L 52.3125 98.445312 "/>
<path style="fill:none;stroke-width:10;stroke-linecap:butt;stroke-linejoin:miter;stroke:rgb(0%,0%,0%);stroke-opacity:1;stroke-miterlimit:10;" d="M 516.5625 817.578125 L 516.5625 805.546875 " transform="matrix(0.1,0,0,-0.1,0,175)"/>
<path style=" stroke:none;fill-rule:nonzero;fill:rgb(0%,0%,0%);fill-opacity:1;" d="M 89.652344 98.109375 L 89.652344 98.445312 L 87.757812 98.445312 C 87.757812 98.363281 87.773438 98.28125 87.804688 98.203125 C 87.851562 98.074219 87.929688 97.945312 88.035156 97.820312 C 88.140625 97.695312 88.292969 97.550781 88.496094 97.390625 C 88.804688 97.128906 89.015625 96.925781 89.125 96.78125 C 89.234375 96.632812 89.292969 96.492188 89.292969 96.355469 C 89.292969 96.214844 89.242188 96.097656 89.140625 96.003906 C 89.042969 95.910156 88.910156 95.863281 88.753906 95.863281 C 88.582031 95.863281 88.445312 95.914062 88.34375 96.011719 C 88.242188 96.113281 88.191406 96.253906 88.191406 96.433594 L 87.828125 96.394531 C 87.851562 96.128906 87.945312 95.921875 88.105469 95.78125 C 88.265625 95.640625 88.484375 95.570312 88.761719 95.570312 C 89.035156 95.570312 89.253906 95.644531 89.414062 95.796875 C 89.574219 95.949219 89.652344 96.136719 89.652344 96.363281 C 89.652344 96.480469 89.628906 96.59375 89.582031 96.703125 C 89.535156 96.816406 89.457031 96.929688 89.347656 97.054688 C 89.238281 97.175781 89.058594 97.34375 88.804688 97.558594 C 88.59375 97.734375 88.460938 97.851562 88.402344 97.917969 C 88.339844 97.980469 88.289062 98.046875 88.253906 98.109375 L 89.652344 98.109375 "/>
<path style="fill:none;stroke-width:10;stroke-linecap:butt;stroke-linejoin:miter;stroke:rgb(0%,0%,0%);stroke-opacity:1;stroke-miterlimit:10;" d="M 885.078125 817.578125 L 885.078125 805.546875 " transform="matrix(0.1,0,0,-0.1,0,175)"/>
<path style=" stroke:none;fill-rule:nonzero;fill:rgb(0%,0%,0%);fill-opacity:1;" d="M 124.628906 97.6875 L 124.976562 97.644531 C 125.019531 97.839844 125.085938 97.984375 125.183594 98.074219 C 125.277344 98.164062 125.398438 98.207031 125.539062 98.207031 C 125.707031 98.207031 125.847656 98.152344 125.957031 98.035156 C 126.070312 97.921875 126.128906 97.777344 126.128906 97.609375 C 126.128906 97.445312 126.074219 97.3125 125.972656 97.207031 C 125.867188 97.101562 125.734375 97.050781 125.570312 97.050781 C 125.503906 97.050781 125.421875 97.0625 125.320312 97.089844 L 125.359375 96.78125 C 125.382812 96.78125 125.402344 96.78125 125.414062 96.78125 C 125.5625 96.78125 125.699219 96.742188 125.820312 96.667969 C 125.941406 96.589844 126.003906 96.46875 126.003906 96.308594 C 126.003906 96.175781 125.957031 96.070312 125.871094 95.984375 C 125.78125 95.898438 125.671875 95.855469 125.53125 95.855469 C 125.394531 95.855469 125.28125 95.898438 125.1875 95.984375 C 125.097656 96.070312 125.039062 96.199219 125.015625 96.375 L 124.664062 96.3125 C 124.703125 96.074219 124.804688 95.890625 124.953125 95.761719 C 125.105469 95.632812 125.296875 95.570312 125.519531 95.570312 C 125.679688 95.570312 125.824219 95.601562 125.953125 95.667969 C 126.085938 95.734375 126.1875 95.828125 126.253906 95.945312 C 126.324219 96.0625 126.359375 96.183594 126.359375 96.3125 C 126.359375 96.4375 126.324219 96.550781 126.261719 96.652344 C 126.195312 96.75 126.097656 96.832031 125.964844 96.894531 C 126.136719 96.933594 126.269531 97.011719 126.363281 97.136719 C 126.453125 97.257812 126.503906 97.414062 126.503906 97.601562 C 126.503906 97.851562 126.410156 98.0625 126.226562 98.234375 C 126.042969 98.410156 125.8125 98.496094 125.539062 98.496094 C 125.285156 98.496094 125.074219 98.421875 124.910156 98.269531 C 124.746094 98.121094 124.652344 97.925781 124.628906 97.6875 "/>
<path style="fill:none;stroke-width:10;stroke-linecap:butt;stroke-linejoin:miter;stroke:rgb(0%,0%,0%);stroke-opacity:1;stroke-miterlimit:10;" d="M 1253.59375 817.578125 L 1253.59375 805.546875 " transform="matrix(0.1,0,0,-0.1,0,175)"/>
<path style=" stroke:none;fill-rule:nonzero;fill:rgb(0%,0%,0%);fill-opacity:1;" d="M 162.570312 98.445312 L 162.570312 97.757812 L 161.324219 97.757812 L 161.324219 97.4375 L 162.632812 95.582031 L 162.917969 95.582031 L 162.917969 97.4375 L 163.308594 97.4375 L 163.308594 97.757812 L 162.917969 97.757812 L 162.917969 98.445312 Z M 162.570312 97.4375 L 162.570312 96.144531 L 161.667969 97.4375 L 162.570312 97.4375 "/>
<path style="fill:none;stroke-width:10;stroke-linecap:butt;stroke-linejoin:miter;stroke:rgb(0%,0%,0%);stroke-opacity:1;stroke-miterlimit:10;" d="M 1622.109375 817.578125 L 1622.109375 805.546875 " transform="matrix(0.1,0,0,-0.1,0,175)"/>
<path style=" stroke:none;fill-rule:nonzero;fill:rgb(0%,0%,0%);fill-opacity:1;" d="M 198.261719 97.695312 L 198.628906 97.664062 C 198.652344 97.84375 198.71875 97.976562 198.816406 98.070312 C 198.917969 98.160156 199.039062 98.207031 199.179688 98.207031 C 199.347656 98.207031 199.488281 98.144531 199.609375 98.015625 C 199.726562 97.886719 199.785156 97.714844 199.785156 97.507812 C 199.785156 97.308594 199.730469 97.148438 199.617188 97.03125 C 199.503906 96.914062 199.355469 96.855469 199.171875 96.855469 C 199.0625 96.855469 198.960938 96.882812 198.867188 96.933594 C 198.773438 96.988281 198.703125 97.054688 198.648438 97.132812 L 198.324219 97.089844 L 198.597656 95.617188 L 200.023438 95.617188 L 200.023438 95.957031 L 198.878906 95.957031 L 198.722656 96.726562 C 198.898438 96.605469 199.078125 96.542969 199.265625 96.542969 C 199.515625 96.542969 199.726562 96.632812 199.898438 96.804688 C 200.070312 96.976562 200.15625 97.203125 200.15625 97.476562 C 200.15625 97.734375 200.078125 97.957031 199.929688 98.144531 C 199.746094 98.378906 199.496094 98.496094 199.179688 98.496094 C 198.917969 98.496094 198.703125 98.421875 198.539062 98.277344 C 198.375 98.132812 198.28125 97.9375 198.261719 97.695312 "/>
<path style="fill:none;stroke-width:10;stroke-linecap:butt;stroke-linejoin:miter;stroke:rgb(0%,0%,0%);stroke-opacity:1;stroke-miterlimit:10;" d="M 1990.585938 817.578125 L 1990.585938 805.546875 " transform="matrix(0.1,0,0,-0.1,0,175)"/>
<path style=" stroke:none;fill-rule:nonzero;fill:rgb(0%,0%,0%);fill-opacity:1;" d="M 5.007812 163.011719 L 5.007812 162.75 L 6.597656 162.75 L 6.597656 163.011719 Z M 8.292969 164.074219 L 7.941406 164.074219 L 7.941406 161.835938 C 7.859375 161.917969 7.746094 161.996094 7.609375 162.078125 C 7.472656 162.160156 7.347656 162.21875 7.242188 162.257812 L 7.242188 161.917969 C 7.4375 161.828125 7.609375 161.714844 7.757812 161.585938 C 7.90625 161.453125 8.007812 161.324219 8.066406 161.199219 L 8.292969 161.199219 Z M 9.390625 164.074219 L 9.390625 163.675781 L 9.792969 163.675781 L 9.792969 164.074219 Z M 10.308594 163.324219 L 10.679688 163.292969 C 10.703125 163.472656 10.765625 163.609375 10.867188 163.699219 C 10.964844 163.792969 11.085938 163.839844 11.226562 163.839844 C 11.394531 163.839844 11.539062 163.773438 11.65625 163.644531 C 11.777344 163.515625 11.835938 163.347656 11.835938 163.136719 C 11.835938 162.9375 11.777344 162.78125 11.667969 162.664062 C 11.554688 162.546875 11.40625 162.488281 11.222656 162.488281 C 11.109375 162.488281 11.007812 162.515625 10.914062 162.566406 C 10.824219 162.617188 10.75 162.683594 10.699219 162.761719 L 10.371094 162.71875 L 10.648438 161.25 L 12.074219 161.25 L 12.074219 161.585938 L 10.929688 161.585938 L 10.773438 162.355469 C 10.949219 162.234375 11.128906 162.175781 11.316406 162.175781 C 11.566406 162.175781 11.777344 162.261719 11.949219 162.433594 C 12.117188 162.605469 12.203125 162.832031 12.203125 163.105469 C 12.203125 163.363281 12.128906 163.589844 11.980469 163.777344 C 11.796875 164.007812 11.546875 164.125 11.226562 164.125 C 10.964844 164.125 10.753906 164.054688 10.589844 163.90625 C 10.421875 163.761719 10.332031 163.566406 10.308594 163.324219 "/>
<path style="fill:none;stroke-width:10;stroke-linecap:butt;stroke-linejoin:miter;stroke:rgb(0%,0%,0%);stroke-opacity:1;stroke-miterlimit:10;" d="M 136.054688 121.25 L 148.085938 121.25 " transform="matrix(0.1,0,0,-0.1,0,175)"/>
<path style=" stroke:none;fill-rule:nonzero;fill:rgb(0%,0%,0%);fill-opacity:1;" d="M 8.210938 139.800781 L 8.210938 139.539062 L 9.796875 139.539062 L 9.796875 139.800781 Z M 11.492188 140.863281 L 11.144531 140.863281 L 11.144531 138.625 C 11.058594 138.707031 10.949219 138.785156 10.8125 138.867188 C 10.671875 138.949219 10.550781 139.007812 10.441406 139.046875 L 10.441406 138.707031 C 10.636719 138.617188 10.808594 138.503906 10.957031 138.375 C 11.105469 138.242188 11.210938 138.113281 11.269531 137.988281 L 11.492188 137.988281 L 11.492188 140.863281 "/>
<path style="fill:none;stroke-width:10;stroke-linecap:butt;stroke-linejoin:miter;stroke:rgb(0%,0%,0%);stroke-opacity:1;stroke-miterlimit:10;" d="M 136.054688 353.359375 L 148.085938 353.359375 " transform="matrix(0.1,0,0,-0.1,0,175)"/>
<path style=" stroke:none;fill-rule:nonzero;fill:rgb(0%,0%,0%);fill-opacity:1;" d="M 5.007812 116.589844 L 5.007812 116.328125 L 6.597656 116.328125 L 6.597656 116.589844 Z M 6.972656 116.242188 C 6.972656 115.902344 7.007812 115.632812 7.074219 115.425781 C 7.144531 115.21875 7.246094 115.058594 7.386719 114.945312 C 7.523438 114.835938 7.695312 114.777344 7.902344 114.777344 C 8.058594 114.777344 8.191406 114.808594 8.308594 114.871094 C 8.421875 114.933594 8.519531 115.023438 8.59375 115.140625 C 8.671875 115.257812 8.730469 115.398438 8.773438 115.566406 C 8.8125 115.734375 8.835938 115.957031 8.835938 116.242188 C 8.835938 116.578125 8.800781 116.851562 8.730469 117.058594 C 8.664062 117.265625 8.558594 117.421875 8.421875 117.535156 C 8.285156 117.648438 8.113281 117.703125 7.902344 117.703125 C 7.628906 117.703125 7.410156 117.605469 7.253906 117.40625 C 7.066406 117.167969 6.972656 116.777344 6.972656 116.242188 Z M 7.328125 116.242188 C 7.328125 116.710938 7.382812 117.027344 7.492188 117.183594 C 7.605469 117.339844 7.742188 117.417969 7.902344 117.417969 C 8.066406 117.417969 8.203125 117.339844 8.3125 117.183594 C 8.425781 117.027344 8.480469 116.710938 8.480469 116.242188 C 8.480469 115.769531 8.425781 115.457031 8.3125 115.304688 C 8.203125 115.148438 8.0625 115.070312 7.898438 115.070312 C 7.738281 115.070312 7.609375 115.140625 7.511719 115.273438 C 7.386719 115.449219 7.328125 115.769531 7.328125 116.242188 Z M 9.390625 117.65625 L 9.390625 117.253906 L 9.792969 117.253906 L 9.792969 117.65625 Z M 10.308594 116.90625 L 10.679688 116.871094 C 10.703125 117.050781 10.765625 117.1875 10.867188 117.28125 C 10.964844 117.371094 11.085938 117.417969 11.226562 117.417969 C 11.394531 117.417969 11.539062 117.351562 11.65625 117.222656 C 11.777344 117.09375 11.835938 116.925781 11.835938 116.714844 C 11.835938 116.515625 11.777344 116.359375 11.667969 116.242188 C 11.554688 116.125 11.40625 116.066406 11.222656 116.066406 C 11.109375 116.066406 11.007812 116.09375 10.914062 116.144531 C 10.824219 116.195312 10.75 116.261719 10.699219 116.339844 L 10.371094 116.296875 L 10.648438 114.828125 L 12.074219 114.828125 L 12.074219 115.164062 L 10.929688 115.164062 L 10.773438 115.933594 C 10.949219 115.8125 11.128906 115.753906 11.316406 115.753906 C 11.566406 115.753906 11.777344 115.839844 11.949219 116.011719 C 12.117188 116.1875 12.203125 116.410156 12.203125 116.683594 C 12.203125 116.945312 12.128906 117.167969 11.980469 117.355469 C 11.796875 117.589844 11.546875 117.703125 11.226562 117.703125 C 10.964844 117.703125 10.753906 117.632812 10.589844 117.484375 C 10.421875 117.339844 10.332031 117.144531 10.308594 116.90625 "/>
<path style="fill:none;stroke-width:10;stroke-linecap:butt;stroke-linejoin:miter;stroke:rgb(0%,0%,0%);stroke-opacity:1;stroke-miterlimit:10;" d="M 136.054688 585.46875 L 148.085938 585.46875 " transform="matrix(0.1,0,0,-0.1,0,175)"/>
<path style=" stroke:none;fill-rule:nonzero;fill:rgb(0%,0%,0%);fill-opacity:1;" d="M 10.171875 90.628906 C 10.171875 90.292969 10.207031 90.019531 10.277344 89.8125 C 10.34375 89.605469 10.449219 89.449219 10.585938 89.335938 C 10.722656 89.222656 10.898438 89.167969 11.105469 89.167969 C 11.257812 89.167969 11.394531 89.199219 11.507812 89.261719 C 11.621094 89.324219 11.71875 89.410156 11.796875 89.527344 C 11.871094 89.644531 11.933594 89.789062 11.972656 89.953125 C 12.015625 90.121094 12.035156 90.347656 12.035156 90.628906 C 12.035156 90.96875 12.003906 91.238281 11.933594 91.445312 C 11.863281 91.652344 11.761719 91.8125 11.625 91.921875 C 11.488281 92.035156 11.3125 92.09375 11.105469 92.09375 C 10.832031 92.09375 10.613281 91.992188 10.453125 91.792969 C 10.265625 91.554688 10.171875 91.167969 10.171875 90.628906 Z M 10.53125 90.628906 C 10.53125 91.101562 10.585938 91.414062 10.695312 91.570312 C 10.804688 91.726562 10.941406 91.804688 11.105469 91.804688 C 11.269531 91.804688 11.40625 91.726562 11.515625 91.570312 C 11.625 91.414062 11.679688 91.101562 11.679688 90.628906 C 11.679688 90.160156 11.625 89.84375 11.515625 89.691406 C 11.40625 89.535156 11.265625 89.460938 11.097656 89.460938 C 10.941406 89.460938 10.8125 89.527344 10.710938 89.660156 C 10.589844 89.835938 10.53125 90.160156 10.53125 90.628906 "/>
<path style=" stroke:none;fill-rule:nonzero;fill:rgb(0%,0%,0%);fill-opacity:1;" d="M 6.972656 69.820312 C 6.972656 69.480469 7.007812 69.210938 7.074219 69.003906 C 7.144531 68.796875 7.246094 68.636719 7.386719 68.523438 C 7.523438 68.414062 7.695312 68.355469 7.902344 68.355469 C 8.058594 68.355469 8.191406 68.386719 8.308594 68.449219 C 8.421875 68.511719 8.519531 68.601562 8.59375 68.71875 C 8.671875 68.835938 8.730469 68.976562 8.773438 69.144531 C 8.8125 69.3125 8.835938 69.535156 8.835938 69.820312 C 8.835938 70.15625 8.800781 70.429688 8.730469 70.636719 C 8.664062 70.84375 8.558594 71.003906 8.421875 71.113281 C 8.285156 71.226562 8.113281 71.28125 7.902344 71.28125 C 7.628906 71.28125 7.410156 71.183594 7.253906 70.984375 C 7.066406 70.746094 6.972656 70.355469 6.972656 69.820312 Z M 7.328125 69.820312 C 7.328125 70.289062 7.382812 70.605469 7.492188 70.761719 C 7.605469 70.917969 7.742188 70.996094 7.902344 70.996094 C 8.066406 70.996094 8.203125 70.917969 8.3125 70.761719 C 8.425781 70.605469 8.480469 70.289062 8.480469 69.820312 C 8.480469 69.347656 8.425781 69.035156 8.3125 68.882812 C 8.203125 68.726562 8.0625 68.648438 7.898438 68.648438 C 7.738281 68.648438 7.609375 68.71875 7.511719 68.851562 C 7.386719 69.027344 7.328125 69.347656 7.328125 69.820312 Z M 9.390625 71.234375 L 9.390625 70.832031 L 9.792969 70.832031 L 9.792969 71.234375 Z M 10.308594 70.484375 L 10.679688 70.449219 C 10.703125 70.628906 10.765625 70.765625 10.867188 70.859375 C 10.964844 70.949219 11.085938 70.996094 11.226562 70.996094 C 11.394531 70.996094 11.539062 70.929688 11.65625 70.800781 C 11.777344 70.671875 11.835938 70.503906 11.835938 70.296875 C 11.835938 70.09375 11.777344 69.9375 11.667969 69.820312 C 11.554688 69.703125 11.40625 69.644531 11.222656 69.644531 C 11.109375 69.644531 11.007812 69.671875 10.914062 69.722656 C 10.824219 69.773438 10.75 69.839844 10.699219 69.921875 L 10.371094 69.875 L 10.648438 68.40625 L 12.074219 68.40625 L 12.074219 68.742188 L 10.929688 68.742188 L 10.773438 69.511719 C 10.949219 69.394531 11.128906 69.332031 11.316406 69.332031 C 11.566406 69.332031 11.777344 69.417969 11.949219 69.589844 C 12.117188 69.765625 12.203125 69.988281 12.203125 70.265625 C 12.203125 70.523438 12.128906 70.746094 11.980469 70.933594 C 11.796875 71.164062 11.546875 71.28125 11.226562 71.28125 C 10.964844 71.28125 10.753906 71.210938 10.589844 71.0625 C 10.421875 70.917969 10.332031 70.722656 10.308594 70.484375 "/>
<path style="fill:none;stroke-width:10;stroke-linecap:butt;stroke-linejoin:miter;stroke:rgb(0%,0%,0%);stroke-opacity:1;stroke-miterlimit:10;" d="M 136.054688 1049.6875 L 148.085938 1049.6875 " transform="matrix(0.1,0,0,-0.1,0,175)"/>
<path style=" stroke:none;fill-rule:nonzero;fill:rgb(0%,0%,0%);fill-opacity:1;" d="M 11.492188 48.421875 L 11.144531 48.421875 L 11.144531 46.183594 C 11.058594 46.261719 10.949219 46.34375 10.8125 46.425781 C 10.671875 46.507812 10.550781 46.566406 10.441406 46.601562 L 10.441406 46.265625 C 10.636719 46.171875 10.808594 46.0625 10.957031 45.929688 C 11.105469 45.800781 11.210938 45.671875 11.269531 45.546875 L 11.492188 45.546875 L 11.492188 48.421875 "/>
<path style="fill:none;stroke-width:10;stroke-linecap:butt;stroke-linejoin:miter;stroke:rgb(0%,0%,0%);stroke-opacity:1;stroke-miterlimit:10;" d="M 136.054688 1281.796875 L 148.085938 1281.796875 " transform="matrix(0.1,0,0,-0.1,0,175)"/>
<path style=" stroke:none;fill-rule:nonzero;fill:rgb(0%,0%,0%);fill-opacity:1;" d="M 8.292969 25.210938 L 7.941406 25.210938 L 7.941406 22.972656 C 7.859375 23.050781 7.746094 23.132812 7.609375 23.214844 C 7.472656 23.296875 7.347656 23.355469 7.242188 23.390625 L 7.242188 23.054688 C 7.4375 22.964844 7.609375 22.851562 7.757812 22.71875 C 7.90625 22.589844 8.007812 22.460938 8.066406 22.335938 L 8.292969 22.335938 Z M 9.390625 25.210938 L 9.390625 24.8125 L 9.792969 24.8125 L 9.792969 25.210938 Z M 10.308594 24.460938 L 10.679688 24.429688 C 10.703125 24.609375 10.765625 24.746094 10.867188 24.835938 C 10.964844 24.929688 11.085938 24.972656 11.226562 24.972656 C 11.394531 24.972656 11.539062 24.910156 11.65625 24.78125 C 11.777344 24.652344 11.835938 24.480469 11.835938 24.273438 C 11.835938 24.074219 11.777344 23.914062 11.667969 23.796875 C 11.554688 23.683594 11.40625 23.621094 11.222656 23.621094 C 11.109375 23.621094 11.007812 23.648438 10.914062 23.703125 C 10.824219 23.753906 10.75 23.820312 10.699219 23.898438 L 10.371094 23.855469 L 10.648438 22.386719 L 12.074219 22.386719 L 12.074219 22.722656 L 10.929688 22.722656 L 10.773438 23.492188 C 10.949219 23.371094 11.128906 23.3125 11.316406 23.3125 C 11.566406 23.3125 11.777344 23.398438 11.949219 23.570312 C 12.117188 23.742188 12.203125 23.96875 12.203125 24.242188 C 12.203125 24.5 12.128906 24.722656 11.980469 24.910156 C 11.796875 25.144531 11.546875 25.261719 11.226562 25.261719 C 10.964844 25.261719 10.753906 25.1875 10.589844 25.042969 C 10.421875 24.898438 10.332031 24.703125 10.308594 24.460938 "/>
<path style="fill:none;stroke-width:10;stroke-linecap:butt;stroke-linejoin:miter;stroke:rgb(0%,0%,0%);stroke-opacity:1;stroke-miterlimit:10;" d="M 136.054688 1513.90625 L 148.085938 1513.90625 " transform="matrix(0.1,0,0,-0.1,0,175)"/>
<path style=" stroke:none;fill-rule:nonzero;fill:rgb(0%,0%,100%);fill-opacity:1;" d="M 35.234375 23.609375 C 35.234375 24.714844 34.335938 25.613281 33.230469 25.613281 C 32.128906 25.613281 31.230469 24.714844 31.230469 23.609375 C 31.230469 22.507812 32.128906 21.609375 33.230469 21.609375 C 34.335938 21.609375 35.234375 22.507812 35.234375 23.609375 "/>
<path style="fill:none;stroke-width:10;stroke-linecap:round;stroke-linejoin:round;stroke:rgb(0%,0%,0%);stroke-opacity:1;stroke-miterlimit:10;" d="M 352.34375 1513.90625 C 352.34375 1502.851562 343.359375 1493.867188 332.304688 1493.867188 C 321.289062 1493.867188 312.304688 1502.851562 312.304688 1513.90625 C 312.304688 1524.921875 321.289062 1533.90625 332.304688 1533.90625 C 343.359375 1533.90625 352.34375 1524.921875 352.34375 1513.90625 Z M 352.34375 1513.90625 " transform="matrix(0.1,0,0,-0.1,0,175)"/>
<path style=" stroke:none;fill-rule:nonzero;fill:rgb(0%,0%,100%);fill-opacity:1;" d="M 53.65625 37.535156 C 53.65625 38.644531 52.761719 39.539062 51.65625 39.539062 C 50.550781 39.539062 49.65625 38.644531 49.65625 37.535156 C 49.65625 36.433594 50.550781 35.535156 51.65625 35.535156 C 52.761719 35.535156 53.65625 36.433594 53.65625 37.535156 "/>
<path style="fill:none;stroke-width:10;stroke-linecap:round;stroke-linejoin:round;stroke:rgb(0%,0%,0%);stroke-opacity:1;stroke-miterlimit:10;" d="M 536.5625 1374.648438 C 536.5625 1363.554688 527.617188 1354.609375 516.5625 1354.609375 C 505.507812 1354.609375 496.5625 1363.554688 496.5625 1374.648438 C 496.5625 1385.664062 505.507812 1394.648438 516.5625 1394.648438 C 527.617188 1394.648438 536.5625 1385.664062 536.5625 1374.648438 Z M 536.5625 1374.648438 " transform="matrix(0.1,0,0,-0.1,0,175)"/>
<path style=" stroke:none;fill-rule:nonzero;fill:rgb(0%,0%,100%);fill-opacity:1;" d="M 72.082031 51.464844 C 72.082031 52.570312 71.1875 53.464844 70.082031 53.464844 C 68.976562 53.464844 68.082031 52.570312 68.082031 51.464844 C 68.082031 50.359375 68.976562 49.464844 70.082031 49.464844 C 71.1875 49.464844 72.082031 50.359375 72.082031 51.464844 "/>
<path style="fill:none;stroke-width:10;stroke-linecap:round;stroke-linejoin:round;stroke:rgb(0%,0%,0%);stroke-opacity:1;stroke-miterlimit:10;" d="M 720.820312 1235.351562 C 720.820312 1224.296875 711.875 1215.351562 700.820312 1215.351562 C 689.765625 1215.351562 680.820312 1224.296875 680.820312 1235.351562 C 680.820312 1246.40625 689.765625 1255.351562 700.820312 1255.351562 C 711.875 1255.351562 720.820312 1246.40625 720.820312 1235.351562 Z M 720.820312 1235.351562 " transform="matrix(0.1,0,0,-0.1,0,175)"/>
<path style=" stroke:none;fill-rule:nonzero;fill:rgb(0%,0%,100%);fill-opacity:1;" d="M 90.507812 65.390625 C 90.507812 66.496094 89.613281 67.390625 88.507812 67.390625 C 87.402344 67.390625 86.507812 66.496094 86.507812 65.390625 C 86.507812 64.285156 87.402344 63.390625 88.507812 63.390625 C 89.613281 63.390625 90.507812 64.285156 90.507812 65.390625 "/>
<path style="fill:none;stroke-width:10;stroke-linecap:round;stroke-linejoin:round;stroke:rgb(0%,0%,0%);stroke-opacity:1;stroke-miterlimit:10;" d="M 905.078125 1096.09375 C 905.078125 1085.039062 896.132812 1076.09375 885.078125 1076.09375 C 874.023438 1076.09375 865.078125 1085.039062 865.078125 1096.09375 C 865.078125 1107.148438 874.023438 1116.09375 885.078125 1116.09375 C 896.132812 1116.09375 905.078125 1107.148438 905.078125 1096.09375 Z M 905.078125 1096.09375 " transform="matrix(0.1,0,0,-0.1,0,175)"/>
<path style=" stroke:none;fill-rule:nonzero;fill:rgb(0%,0%,100%);fill-opacity:1;" d="M 108.933594 79.316406 C 108.933594 80.421875 108.039062 81.316406 106.933594 81.316406 C 105.828125 81.316406 104.933594 80.421875 104.933594 79.316406 C 104.933594 78.210938 105.828125 77.316406 106.933594 77.316406 C 108.039062 77.316406 108.933594 78.210938 108.933594 79.316406 "/>
<path style="fill:none;stroke-width:10;stroke-linecap:round;stroke-linejoin:round;stroke:rgb(0%,0%,0%);stroke-opacity:1;stroke-miterlimit:10;" d="M 1089.335938 956.835938 C 1089.335938 945.78125 1080.390625 936.835938 1069.335938 936.835938 C 1058.28125 936.835938 1049.335938 945.78125 1049.335938 956.835938 C 1049.335938 967.890625 1058.28125 976.835938 1069.335938 976.835938 C 1080.390625 976.835938 1089.335938 967.890625 1089.335938 956.835938 Z M 1089.335938 956.835938 " transform="matrix(0.1,0,0,-0.1,0,175)"/>
<path style=" stroke:none;fill-rule:nonzero;fill:rgb(0%,0%,100%);fill-opacity:1;" d="M 145.785156 107.167969 C 145.785156 108.273438 144.886719 109.171875 143.78125 109.171875 C 142.679688 109.171875 141.78125 108.273438 141.78125 107.167969 C 141.78125 106.066406 142.679688 105.167969 143.78125 105.167969 C 144.886719 105.167969 145.785156 106.066406 145.785156 107.167969 "/>
<path style="fill:none;stroke-width:10;stroke-linecap:round;stroke-linejoin:round;stroke:rgb(0%,0%,0%);stroke-opacity:1;stroke-miterlimit:10;" d="M 1457.851562 678.320312 C 1457.851562 667.265625 1448.867188 658.28125 1437.8125 658.28125 C 1426.796875 658.28125 1417.8125 667.265625 1417.8125 678.320312 C 1417.8125 689.335938 1426.796875 698.320312 1437.8125 698.320312 C 1448.867188 698.320312 1457.851562 689.335938 1457.851562 678.320312 Z M 1457.851562 678.320312 " transform="matrix(0.1,0,0,-0.1,0,175)"/>
<path style=" stroke:none;fill-rule:nonzero;fill:rgb(0%,0%,100%);fill-opacity:1;" d="M 164.210938 121.097656 C 164.210938 122.203125 163.3125 123.097656 162.210938 123.097656 C 161.105469 123.097656 160.207031 122.203125 160.207031 121.097656 C 160.207031 119.992188 161.105469 119.09375 162.210938 119.09375 C 163.3125 119.09375 164.210938 119.992188 164.210938 121.097656 "/>
<path style="fill:none;stroke-width:10;stroke-linecap:round;stroke-linejoin:round;stroke:rgb(0%,0%,0%);stroke-opacity:1;stroke-miterlimit:10;" d="M 1642.109375 539.023438 C 1642.109375 527.96875 1633.125 519.023438 1622.109375 519.023438 C 1611.054688 519.023438 1602.070312 527.96875 1602.070312 539.023438 C 1602.070312 550.078125 1611.054688 559.0625 1622.109375 559.0625 C 1633.125 559.0625 1642.109375 550.078125 1642.109375 539.023438 Z M 1642.109375 539.023438 " transform="matrix(0.1,0,0,-0.1,0,175)"/>
<path style=" stroke:none;fill-rule:nonzero;fill:rgb(0%,0%,100%);fill-opacity:1;" d="M 182.632812 135.023438 C 182.632812 136.128906 181.738281 137.023438 180.632812 137.023438 C 179.527344 137.023438 178.632812 136.128906 178.632812 135.023438 C 178.632812 133.917969 179.527344 133.023438 180.632812 133.023438 C 181.738281 133.023438 182.632812 133.917969 182.632812 135.023438 "/>
<path style="fill:none;stroke-width:10;stroke-linecap:round;stroke-linejoin:round;stroke:rgb(0%,0%,0%);stroke-opacity:1;stroke-miterlimit:10;" d="M 1826.328125 399.765625 C 1826.328125 388.710938 1817.382812 379.765625 1806.328125 379.765625 C 1795.273438 379.765625 1786.328125 388.710938 1786.328125 399.765625 C 1786.328125 410.820312 1795.273438 419.765625 1806.328125 419.765625 C 1817.382812 419.765625 1826.328125 410.820312 1826.328125 399.765625 Z M 1826.328125 399.765625 " transform="matrix(0.1,0,0,-0.1,0,175)"/>
<path style=" stroke:none;fill-rule:nonzero;fill:rgb(0%,0%,100%);fill-opacity:1;" d="M 201.058594 148.949219 C 201.058594 150.054688 200.164062 150.949219 199.058594 150.949219 C 197.953125 150.949219 197.058594 150.054688 197.058594 148.949219 C 197.058594 147.84375 197.953125 146.949219 199.058594 146.949219 C 200.164062 146.949219 201.058594 147.84375 201.058594 148.949219 "/>
<path style="fill:none;stroke-width:10;stroke-linecap:round;stroke-linejoin:round;stroke:rgb(0%,0%,0%);stroke-opacity:1;stroke-miterlimit:10;" d="M 2010.585938 260.507812 C 2010.585938 249.453125 2001.640625 240.507812 1990.585938 240.507812 C 1979.53125 240.507812 1970.585938 249.453125 1970.585938 260.507812 C 1970.585938 271.5625 1979.53125 280.507812 1990.585938 280.507812 C 2001.640625 280.507812 2010.585938 271.5625 2010.585938 260.507812 Z M 2010.585938 260.507812 " transform="matrix(0.1,0,0,-0.1,0,175)"/>
<path style=" stroke:none;fill-rule:nonzero;fill:rgb(0%,0%,0%);fill-opacity:1;" d="M 217.164062 103.449219 C 217.164062 103.898438 217.050781 104.460938 216.824219 105.136719 C 216.375 106.488281 215.8125 107.273438 215.136719 107.5 C 215.023438 107.613281 214.910156 107.667969 214.800781 107.667969 C 214.125 107.667969 213.675781 107.445312 213.449219 106.992188 C 213.335938 106.769531 213.28125 106.542969 213.28125 106.316406 C 213.28125 105.867188 213.449219 105.25 213.785156 104.460938 L 213.953125 104.121094 C 214.066406 103.785156 214.125 103.503906 214.125 103.277344 C 214.125 103.054688 214.011719 102.941406 213.785156 102.941406 C 213.449219 102.941406 213.109375 103.277344 212.773438 103.953125 C 212.773438 104.066406 212.773438 104.179688 212.773438 104.292969 C 212.660156 104.40625 212.605469 104.460938 212.605469 104.460938 C 212.492188 104.460938 212.4375 104.460938 212.4375 104.460938 C 212.4375 104.234375 212.492188 104.011719 212.605469 103.785156 C 212.941406 103.109375 213.335938 102.773438 213.785156 102.773438 C 214.238281 102.773438 214.519531 102.941406 214.628906 103.277344 C 214.742188 103.390625 214.800781 103.503906 214.800781 103.617188 C 214.800781 103.730469 214.742188 103.898438 214.628906 104.121094 C 214.179688 105.136719 213.953125 105.867188 213.953125 106.316406 L 213.953125 106.488281 C 213.953125 107.050781 214.179688 107.332031 214.628906 107.332031 L 214.800781 107.332031 C 215.363281 107.332031 215.867188 106.882812 216.320312 105.980469 C 216.542969 105.304688 216.65625 104.796875 216.65625 104.460938 C 216.65625 104.121094 216.542969 103.84375 216.320312 103.617188 C 216.207031 103.503906 216.148438 103.390625 216.148438 103.277344 C 216.148438 103.054688 216.261719 102.886719 216.488281 102.773438 C 216.488281 102.773438 216.542969 102.773438 216.65625 102.773438 C 216.882812 102.773438 217.050781 102.886719 217.164062 103.109375 C 217.164062 103.222656 217.164062 103.335938 217.164062 103.449219 "/>
<path style=" stroke:none;fill-rule:nonzero;fill:rgb(0%,0%,0%);fill-opacity:1;" d="M 28.042969 4.054688 L 26.972656 8.449219 C 26.894531 8.609375 26.855469 8.726562 26.855469 8.808594 C 26.855469 9.046875 26.933594 9.164062 27.09375 9.164062 C 27.332031 9.164062 27.488281 8.964844 27.570312 8.570312 C 27.648438 8.488281 27.6875 8.371094 27.6875 8.214844 C 27.765625 8.132812 27.804688 8.09375 27.804688 8.09375 C 27.886719 8.09375 27.925781 8.132812 27.925781 8.214844 C 27.925781 8.292969 27.886719 8.449219 27.804688 8.6875 C 27.726562 8.765625 27.6875 8.847656 27.6875 8.925781 C 27.527344 9.242188 27.332031 9.402344 27.09375 9.402344 C 26.855469 9.402344 26.65625 9.28125 26.5 9.046875 C 26.5 8.964844 26.460938 8.886719 26.378906 8.808594 C 26.0625 9.203125 25.746094 9.402344 25.429688 9.402344 C 25.035156 9.402344 24.757812 9.203125 24.597656 8.808594 C 24.519531 8.648438 24.480469 8.410156 24.480469 8.09375 C 24.480469 7.617188 24.636719 7.144531 24.953125 6.667969 C 25.351562 6.191406 25.746094 5.953125 26.144531 5.953125 C 26.222656 5.953125 26.261719 5.953125 26.261719 5.953125 C 26.578125 5.953125 26.816406 6.113281 26.972656 6.429688 L 27.449219 4.648438 L 27.449219 4.410156 C 27.449219 4.410156 27.410156 4.371094 27.332031 4.292969 C 27.25 4.292969 27.171875 4.292969 27.09375 4.292969 C 26.933594 4.292969 26.855469 4.292969 26.855469 4.292969 C 26.855469 4.132812 26.894531 4.054688 26.972656 4.054688 C 27.449219 4.054688 27.765625 4.054688 27.925781 4.054688 C 28.003906 4.054688 28.042969 4.054688 28.042969 4.054688 Z M 26.5 8.332031 L 26.855469 6.90625 C 26.855469 6.828125 26.855469 6.785156 26.855469 6.785156 C 26.855469 6.628906 26.816406 6.46875 26.738281 6.3125 C 26.65625 6.152344 26.5 6.074219 26.261719 6.074219 C 26.023438 6.074219 25.785156 6.234375 25.546875 6.550781 C 25.46875 6.628906 25.429688 6.707031 25.429688 6.785156 C 25.273438 7.105469 25.113281 7.539062 24.953125 8.09375 C 24.953125 8.253906 24.953125 8.371094 24.953125 8.449219 C 24.953125 8.847656 25.074219 9.085938 25.3125 9.164062 C 25.3125 9.164062 25.351562 9.164062 25.429688 9.164062 C 25.746094 9.164062 26.023438 9.003906 26.261719 8.6875 C 26.339844 8.609375 26.417969 8.53125 26.5 8.449219 C 26.5 8.371094 26.5 8.332031 26.5 8.332031 "/>
<path style=" stroke:none;fill-rule:nonzero;fill:rgb(0%,0%,0%);fill-opacity:1;" d="M 31.644531 6.429688 C 31.644531 6.746094 31.566406 7.144531 31.40625 7.617188 C 31.089844 8.570312 30.695312 9.125 30.21875 9.28125 C 30.140625 9.359375 30.0625 9.402344 29.980469 9.402344 C 29.507812 9.402344 29.191406 9.242188 29.03125 8.925781 C 28.953125 8.765625 28.914062 8.609375 28.914062 8.449219 C 28.914062 8.132812 29.03125 7.699219 29.269531 7.144531 L 29.386719 6.90625 C 29.46875 6.667969 29.507812 6.46875 29.507812 6.3125 C 29.507812 6.152344 29.425781 6.074219 29.269531 6.074219 C 29.03125 6.074219 28.792969 6.3125 28.554688 6.785156 C 28.554688 6.867188 28.554688 6.945312 28.554688 7.023438 C 28.476562 7.105469 28.4375 7.144531 28.4375 7.144531 C 28.359375 7.144531 28.320312 7.144531 28.320312 7.144531 C 28.320312 6.984375 28.359375 6.828125 28.4375 6.667969 C 28.675781 6.191406 28.953125 5.953125 29.269531 5.953125 C 29.585938 5.953125 29.785156 6.074219 29.863281 6.3125 C 29.941406 6.390625 29.980469 6.46875 29.980469 6.550781 C 29.980469 6.628906 29.941406 6.746094 29.863281 6.90625 C 29.546875 7.617188 29.386719 8.132812 29.386719 8.449219 L 29.386719 8.570312 C 29.386719 8.964844 29.546875 9.164062 29.863281 9.164062 L 29.980469 9.164062 C 30.378906 9.164062 30.734375 8.847656 31.050781 8.214844 C 31.210938 7.738281 31.289062 7.382812 31.289062 7.144531 C 31.289062 6.90625 31.210938 6.707031 31.050781 6.550781 C 30.972656 6.46875 30.933594 6.390625 30.933594 6.3125 C 30.933594 6.152344 31.011719 6.035156 31.167969 5.953125 C 31.167969 5.953125 31.210938 5.953125 31.289062 5.953125 C 31.445312 5.953125 31.566406 6.035156 31.644531 6.191406 C 31.644531 6.273438 31.644531 6.351562 31.644531 6.429688 "/>
<path style=" stroke:none;fill-rule:nonzero;fill:rgb(0%,0%,0%);fill-opacity:1;" d="M 24.121094 12.675781 L 31.765625 12.675781 L 31.765625 12.375 L 24.121094 12.375 Z M 24.121094 12.675781 "/>
<path style=" stroke:none;fill-rule:nonzero;fill:rgb(0%,0%,0%);fill-opacity:1;" d="M 28.515625 14.414062 L 27.445312 18.808594 C 27.363281 18.96875 27.324219 19.085938 27.324219 19.164062 C 27.324219 19.402344 27.40625 19.523438 27.5625 19.523438 C 27.800781 19.523438 27.960938 19.324219 28.039062 18.929688 C 28.117188 18.851562 28.15625 18.730469 28.15625 18.570312 C 28.234375 18.492188 28.277344 18.453125 28.277344 18.453125 C 28.355469 18.453125 28.394531 18.492188 28.394531 18.570312 C 28.394531 18.652344 28.355469 18.808594 28.277344 19.046875 C 28.195312 19.128906 28.15625 19.207031 28.15625 19.285156 C 28 19.601562 27.800781 19.761719 27.5625 19.761719 C 27.324219 19.761719 27.128906 19.640625 26.96875 19.402344 C 26.96875 19.324219 26.929688 19.246094 26.851562 19.164062 C 26.535156 19.5625 26.21875 19.761719 25.898438 19.761719 C 25.503906 19.761719 25.226562 19.5625 25.070312 19.164062 C 24.988281 19.007812 24.949219 18.769531 24.949219 18.453125 C 24.949219 17.976562 25.109375 17.503906 25.425781 17.027344 C 25.820312 16.554688 26.21875 16.316406 26.613281 16.316406 C 26.691406 16.316406 26.730469 16.316406 26.730469 16.316406 C 27.046875 16.316406 27.285156 16.472656 27.445312 16.789062 L 27.917969 15.007812 L 27.917969 14.769531 C 27.917969 14.769531 27.878906 14.730469 27.800781 14.652344 C 27.722656 14.652344 27.644531 14.652344 27.5625 14.652344 C 27.40625 14.652344 27.324219 14.652344 27.324219 14.652344 C 27.324219 14.492188 27.363281 14.414062 27.445312 14.414062 C 27.917969 14.414062 28.234375 14.414062 28.394531 14.414062 C 28.472656 14.414062 28.515625 14.414062 28.515625 14.414062 Z M 26.96875 18.691406 L 27.324219 17.265625 C 27.324219 17.1875 27.324219 17.144531 27.324219 17.144531 C 27.324219 16.988281 27.285156 16.828125 27.207031 16.671875 C 27.128906 16.511719 26.96875 16.433594 26.730469 16.433594 C 26.492188 16.433594 26.257812 16.59375 26.019531 16.910156 C 25.941406 16.988281 25.898438 17.066406 25.898438 17.144531 C 25.742188 17.464844 25.582031 17.898438 25.425781 18.453125 C 25.425781 18.613281 25.425781 18.730469 25.425781 18.808594 C 25.425781 19.207031 25.542969 19.441406 25.78125 19.523438 C 25.78125 19.523438 25.820312 19.523438 25.898438 19.523438 C 26.21875 19.523438 26.492188 19.363281 26.730469 19.046875 C 26.8125 18.96875 26.890625 18.890625 26.96875 18.808594 C 26.96875 18.730469 26.96875 18.691406 26.96875 18.691406 "/>
<path style=" stroke:none;fill-rule:nonzero;fill:rgb(0%,0%,0%);fill-opacity:1;" d="M 30.09375 16.554688 L 29.5 18.808594 C 29.5 18.96875 29.5 19.085938 29.5 19.164062 C 29.5 19.402344 29.582031 19.523438 29.738281 19.523438 C 30.054688 19.523438 30.332031 19.285156 30.570312 18.808594 L 30.6875 18.570312 C 30.769531 18.492188 30.808594 18.453125 30.808594 18.453125 C 30.886719 18.453125 30.925781 18.492188 30.925781 18.570312 C 30.925781 18.652344 30.847656 18.769531 30.6875 18.929688 C 30.453125 19.484375 30.136719 19.761719 29.738281 19.761719 C 29.421875 19.761719 29.222656 19.640625 29.144531 19.402344 C 29.066406 19.246094 29.027344 19.128906 29.027344 19.046875 C 29.027344 18.96875 29.183594 18.296875 29.5 17.027344 L 29.621094 16.554688 L 28.90625 16.554688 C 28.828125 16.554688 28.789062 16.554688 28.789062 16.554688 L 28.667969 16.554688 C 28.667969 16.472656 28.710938 16.394531 28.789062 16.316406 L 29.621094 16.316406 L 29.976562 15.128906 C 29.976562 14.96875 30.054688 14.890625 30.214844 14.890625 C 30.371094 14.890625 30.453125 14.96875 30.453125 15.128906 C 30.453125 15.128906 30.371094 15.523438 30.214844 16.316406 L 30.808594 16.316406 C 30.964844 16.316406 31.046875 16.355469 31.046875 16.433594 C 31.046875 16.511719 31.007812 16.554688 30.925781 16.554688 L 30.09375 16.554688 "/>
</g>
</svg>
