<?xml version="1.0" encoding="UTF-8"?>
<svg xmlns="http://www.w3.org/2000/svg" xmlns:xlink="http://www.w3.org/1999/xlink" width="201pt" height="155pt" viewBox="0 0 201 155" version="1.1">
<g id="surface1">
<rect x="0" y="0" width="201" height="155" style="fill:rgb(100%,100%,100%);fill-opacity:1;stroke:none;"/>
<path style="fill:none;stroke-width:10;stroke-linecap:butt;stroke-linejoin:miter;stroke:rgb(0%,0%,0%);stroke-opacity:1;stroke-miterlimit:10;" d="M 510.234375 1542.890625 L 510.234375 -1.953125 " transform="matrix(0.1,0,0,-0.1,0,155)"/>
<path style="fill:none;stroke-width:10;stroke-linecap:butt;stroke-linejoin:miter;stroke:rgb(0%,0%,0%);stroke-opacity:1;stroke-miterlimit:10;" d="M 510.234375 1546.445312 L 499.609375 1535.820312 " transform="matrix(0.1,0,0,-0.1,0,155)"/>
<path style="fill:none;stroke-width:10;stroke-linecap:butt;stroke-linejoin:miter;stroke:rgb(0%,0%,0%);stroke-opacity:1;stroke-miterlimit:10;" d="M 510.234375 1546.445312 L 520.859375 1535.820312 " transform="matrix(0.1,0,0,-0.1,0,155)"/>
<path style="fill:none;stroke-width:10;stroke-linecap:butt;stroke-linejoin:miter;stroke:rgb(0%,0%,0%);stroke-opacity:1;stroke-miterlimit:10;" d="M 0 579.140625 L 2005.507812 579.140625 " transform="matrix(0.1,0,0,-0.1,0,155)"/>
<path style="fill:none;stroke-width:10;stroke-linecap:butt;stroke-linejoin:miter;stroke:rgb(0%,0%,0%);stroke-opacity:1;stroke-miterlimit:10;" d="M 2009.0625 579.140625 L 1998.4375 589.765625 " transform="matrix(0.1,0,0,-0.1,0,155)"/>
<path style="fill:none;stroke-width:10;stroke-linecap:butt;stroke-linejoin:miter;stroke:rgb(0%,0%,0%);stroke-opacity:1;stroke-miterlimit:10;" d="M 2009.0625 579.140625 L 1998.4375 568.515625 " transform="matrix(0.1,0,0,-0.1,0,155)"/>
<path style=" stroke:none;fill-rule:nonzero;fill:rgb(0%,0%,0%);fill-opacity:1;" d="M 14.355469 101.105469 L 14.355469 100.875 L 15.761719 100.875 L 15.761719 101.105469 Z M 17.726562 101.75 L 17.726562 102.046875 L 16.050781 102.046875 C 16.050781 101.972656 16.0625 101.902344 16.089844 101.832031 C 16.132812 101.71875 16.203125 101.605469 16.292969 101.492188 C 16.386719 101.382812 16.523438 101.253906 16.703125 101.113281 C 16.976562 100.882812 17.160156 100.703125 17.261719 100.570312 C 17.355469 100.441406 17.40625 100.316406 17.40625 100.199219 C 17.40625 100.074219 17.363281 99.96875 17.273438 99.886719 C 17.183594 99.800781 17.070312 99.761719 16.929688 99.761719 C 16.777344 99.761719 16.65625 99.804688 16.566406 99.894531 C 16.476562 99.980469 16.433594 100.105469 16.433594 100.265625 L 16.109375 100.230469 C 16.132812 99.996094 16.214844 99.8125 16.355469 99.6875 C 16.5 99.5625 16.691406 99.5 16.9375 99.5 C 17.179688 99.5 17.371094 99.566406 17.515625 99.703125 C 17.65625 99.835938 17.726562 100.003906 17.726562 100.203125 C 17.726562 100.308594 17.707031 100.40625 17.664062 100.503906 C 17.621094 100.601562 17.550781 100.707031 17.457031 100.816406 C 17.359375 100.925781 17.199219 101.074219 16.972656 101.261719 C 16.789062 101.414062 16.671875 101.523438 16.617188 101.578125 C 16.5625 101.636719 16.519531 101.691406 16.488281 101.75 L 17.726562 101.75 "/>
<path style="fill:none;stroke-width:10;stroke-linecap:butt;stroke-linejoin:miter;stroke:rgb(0%,0%,0%);stroke-opacity:1;stroke-miterlimit:10;" d="M 155.898438 579.140625 L 155.898438 568.515625 " transform="matrix(0.1,0,0,-0.1,0,155)"/>
<path style=" stroke:none;fill-rule:nonzero;fill:rgb(0%,0%,0%);fill-opacity:1;" d="M 32.074219 101.105469 L 32.074219 100.875 L 33.480469 100.875 L 33.480469 101.105469 Z M 34.980469 102.046875 L 34.667969 102.046875 L 34.667969 100.066406 C 34.59375 100.136719 34.496094 100.207031 34.375 100.277344 C 34.253906 100.351562 34.144531 100.402344 34.046875 100.4375 L 34.046875 100.136719 C 34.222656 100.054688 34.375 99.957031 34.507812 99.839844 C 34.636719 99.722656 34.726562 99.609375 34.78125 99.5 L 34.980469 99.5 L 34.980469 102.046875 "/>
<path style="fill:none;stroke-width:10;stroke-linecap:butt;stroke-linejoin:miter;stroke:rgb(0%,0%,0%);stroke-opacity:1;stroke-miterlimit:10;" d="M 333.085938 579.140625 L 333.085938 568.515625 " transform="matrix(0.1,0,0,-0.1,0,155)"/>
<path style=" stroke:none;fill-rule:nonzero;fill:rgb(0%,0%,0%);fill-opacity:1;" d="M 53.300781 100.796875 C 53.300781 100.496094 53.328125 100.257812 53.390625 100.074219 C 53.453125 99.890625 53.542969 99.75 53.664062 99.648438 C 53.785156 99.550781 53.941406 99.5 54.125 99.5 C 54.261719 99.5 54.378906 99.527344 54.480469 99.582031 C 54.582031 99.640625 54.667969 99.71875 54.734375 99.820312 C 54.804688 99.925781 54.855469 100.050781 54.894531 100.199219 C 54.929688 100.34375 54.949219 100.542969 54.949219 100.796875 C 54.949219 101.09375 54.917969 101.335938 54.855469 101.519531 C 54.796875 101.703125 54.707031 101.84375 54.582031 101.941406 C 54.460938 102.042969 54.308594 102.089844 54.125 102.089844 C 53.878906 102.089844 53.6875 102.003906 53.546875 101.824219 C 53.382812 101.613281 53.300781 101.273438 53.300781 100.796875 Z M 53.613281 100.796875 C 53.613281 101.214844 53.664062 101.492188 53.761719 101.628906 C 53.859375 101.769531 53.980469 101.835938 54.125 101.835938 C 54.269531 101.835938 54.390625 101.769531 54.488281 101.628906 C 54.585938 101.492188 54.632812 101.214844 54.632812 100.796875 C 54.632812 100.378906 54.585938 100.101562 54.488281 99.964844 C 54.390625 99.828125 54.265625 99.761719 54.117188 99.761719 C 53.976562 99.761719 53.863281 99.820312 53.777344 99.9375 C 53.667969 100.09375 53.613281 100.378906 53.613281 100.796875 "/>
<path style=" stroke:none;fill-rule:nonzero;fill:rgb(0%,0%,0%);fill-opacity:1;" d="M 69.347656 102.046875 L 69.039062 102.046875 L 69.039062 100.066406 C 68.964844 100.136719 68.867188 100.207031 68.746094 100.277344 C 68.625 100.351562 68.515625 100.402344 68.417969 100.4375 L 68.417969 100.136719 C 68.59375 100.054688 68.746094 99.957031 68.875 99.839844 C 69.007812 99.722656 69.097656 99.609375 69.148438 99.5 L 69.347656 99.5 L 69.347656 102.046875 "/>
<path style="fill:none;stroke-width:10;stroke-linecap:butt;stroke-linejoin:miter;stroke:rgb(0%,0%,0%);stroke-opacity:1;stroke-miterlimit:10;" d="M 687.382812 579.140625 L 687.382812 568.515625 " transform="matrix(0.1,0,0,-0.1,0,155)"/>
<path style=" stroke:none;fill-rule:nonzero;fill:rgb(0%,0%,0%);fill-opacity:1;" d="M 87.53125 101.75 L 87.53125 102.046875 L 85.851562 102.046875 C 85.851562 101.972656 85.867188 101.902344 85.890625 101.832031 C 85.9375 101.71875 86.003906 101.605469 86.097656 101.492188 C 86.1875 101.382812 86.324219 101.253906 86.507812 101.113281 C 86.78125 100.882812 86.964844 100.703125 87.0625 100.570312 C 87.160156 100.441406 87.210938 100.316406 87.210938 100.199219 C 87.210938 100.074219 87.164062 99.96875 87.078125 99.886719 C 86.988281 99.800781 86.875 99.761719 86.734375 99.761719 C 86.582031 99.761719 86.460938 99.804688 86.371094 99.894531 C 86.28125 99.980469 86.234375 100.105469 86.234375 100.265625 L 85.914062 100.230469 C 85.9375 99.996094 86.019531 99.8125 86.160156 99.6875 C 86.300781 99.5625 86.496094 99.5 86.738281 99.5 C 86.984375 99.5 87.175781 99.566406 87.316406 99.703125 C 87.460938 99.835938 87.53125 100.003906 87.53125 100.203125 C 87.53125 100.308594 87.507812 100.40625 87.46875 100.503906 C 87.425781 100.601562 87.355469 100.707031 87.257812 100.816406 C 87.164062 100.925781 87.003906 101.074219 86.777344 101.261719 C 86.59375 101.414062 86.472656 101.523438 86.421875 101.578125 C 86.367188 101.636719 86.324219 101.691406 86.289062 101.75 L 87.53125 101.75 "/>
<path style="fill:none;stroke-width:10;stroke-linecap:butt;stroke-linejoin:miter;stroke:rgb(0%,0%,0%);stroke-opacity:1;stroke-miterlimit:10;" d="M 864.570312 579.140625 L 864.570312 568.515625 " transform="matrix(0.1,0,0,-0.1,0,155)"/>
<path style=" stroke:none;fill-rule:nonzero;fill:rgb(0%,0%,0%);fill-opacity:1;" d="M 103.613281 101.378906 L 103.925781 101.339844 C 103.960938 101.511719 104.023438 101.636719 104.105469 101.71875 C 104.191406 101.796875 104.296875 101.835938 104.421875 101.835938 C 104.570312 101.835938 104.695312 101.785156 104.792969 101.683594 C 104.894531 101.582031 104.941406 101.457031 104.941406 101.304688 C 104.941406 101.160156 104.894531 101.042969 104.804688 100.953125 C 104.710938 100.859375 104.59375 100.8125 104.449219 100.8125 C 104.390625 100.8125 104.316406 100.824219 104.230469 100.84375 L 104.261719 100.574219 C 104.285156 100.574219 104.300781 100.574219 104.3125 100.574219 C 104.445312 100.574219 104.5625 100.539062 104.671875 100.472656 C 104.777344 100.402344 104.832031 100.296875 104.832031 100.152344 C 104.832031 100.039062 104.792969 99.945312 104.714844 99.867188 C 104.636719 99.792969 104.539062 99.753906 104.417969 99.753906 C 104.296875 99.753906 104.191406 99.792969 104.113281 99.867188 C 104.03125 99.945312 103.980469 100.058594 103.957031 100.214844 L 103.648438 100.160156 C 103.683594 99.949219 103.769531 99.785156 103.90625 99.671875 C 104.039062 99.558594 104.207031 99.5 104.40625 99.5 C 104.546875 99.5 104.675781 99.53125 104.789062 99.589844 C 104.90625 99.648438 104.996094 99.730469 105.054688 99.832031 C 105.117188 99.9375 105.148438 100.042969 105.148438 100.160156 C 105.148438 100.269531 105.117188 100.371094 105.0625 100.457031 C 105.003906 100.546875 104.917969 100.617188 104.800781 100.675781 C 104.949219 100.707031 105.066406 100.777344 105.148438 100.886719 C 105.234375 100.996094 105.273438 101.132812 105.273438 101.300781 C 105.273438 101.519531 105.195312 101.707031 105.03125 101.863281 C 104.867188 102.015625 104.664062 102.089844 104.421875 102.089844 C 104.195312 102.089844 104.011719 102.023438 103.867188 101.890625 C 103.71875 101.757812 103.636719 101.589844 103.613281 101.378906 "/>
<path style="fill:none;stroke-width:10;stroke-linecap:butt;stroke-linejoin:miter;stroke:rgb(0%,0%,0%);stroke-opacity:1;stroke-miterlimit:10;" d="M 1041.71875 579.140625 L 1041.71875 568.515625 " transform="matrix(0.1,0,0,-0.1,0,155)"/>
<path style=" stroke:none;fill-rule:nonzero;fill:rgb(0%,0%,0%);fill-opacity:1;" d="M 122.328125 102.046875 L 122.328125 101.4375 L 121.226562 101.4375 L 121.226562 101.15625 L 122.382812 99.511719 L 122.636719 99.511719 L 122.636719 101.15625 L 122.980469 101.15625 L 122.980469 101.4375 L 122.636719 101.4375 L 122.636719 102.046875 Z M 122.328125 101.15625 L 122.328125 100.011719 L 121.53125 101.15625 L 122.328125 101.15625 "/>
<path style="fill:none;stroke-width:10;stroke-linecap:butt;stroke-linejoin:miter;stroke:rgb(0%,0%,0%);stroke-opacity:1;stroke-miterlimit:10;" d="M 1218.90625 579.140625 L 1218.90625 568.515625 " transform="matrix(0.1,0,0,-0.1,0,155)"/>
<path style=" stroke:none;fill-rule:nonzero;fill:rgb(0%,0%,0%);fill-opacity:1;" d="M 139.046875 101.382812 L 139.375 101.355469 C 139.394531 101.515625 139.449219 101.632812 139.539062 101.714844 C 139.628906 101.796875 139.734375 101.835938 139.859375 101.835938 C 140.007812 101.835938 140.136719 101.78125 140.238281 101.664062 C 140.34375 101.550781 140.398438 101.402344 140.398438 101.21875 C 140.398438 101.039062 140.347656 100.898438 140.246094 100.796875 C 140.148438 100.691406 140.019531 100.640625 139.855469 100.640625 C 139.757812 100.640625 139.664062 100.664062 139.585938 100.710938 C 139.503906 100.757812 139.4375 100.816406 139.390625 100.886719 L 139.101562 100.84375 L 139.347656 99.542969 L 140.609375 99.542969 L 140.609375 99.84375 L 139.59375 99.84375 L 139.457031 100.523438 C 139.613281 100.417969 139.773438 100.363281 139.9375 100.363281 C 140.160156 100.363281 140.347656 100.441406 140.496094 100.59375 C 140.648438 100.746094 140.726562 100.945312 140.726562 101.1875 C 140.726562 101.417969 140.65625 101.613281 140.523438 101.78125 C 140.363281 101.988281 140.140625 102.089844 139.859375 102.089844 C 139.628906 102.089844 139.4375 102.027344 139.292969 101.898438 C 139.148438 101.769531 139.066406 101.597656 139.046875 101.382812 "/>
<path style="fill:none;stroke-width:10;stroke-linecap:butt;stroke-linejoin:miter;stroke:rgb(0%,0%,0%);stroke-opacity:1;stroke-miterlimit:10;" d="M 1396.054688 579.140625 L 1396.054688 568.515625 " transform="matrix(0.1,0,0,-0.1,0,155)"/>
<path style=" stroke:none;fill-rule:nonzero;fill:rgb(0%,0%,0%);fill-opacity:1;" d="M 158.375 100.132812 L 158.070312 100.152344 C 158.039062 100.03125 158 99.945312 157.949219 99.886719 C 157.863281 99.800781 157.761719 99.753906 157.636719 99.753906 C 157.539062 99.753906 157.453125 99.78125 157.378906 99.839844 C 157.277344 99.910156 157.199219 100.015625 157.144531 100.152344 C 157.089844 100.289062 157.0625 100.484375 157.058594 100.742188 C 157.132812 100.625 157.222656 100.542969 157.332031 100.484375 C 157.441406 100.429688 157.554688 100.402344 157.671875 100.402344 C 157.882812 100.402344 158.058594 100.480469 158.207031 100.632812 C 158.351562 100.785156 158.425781 100.980469 158.425781 101.222656 C 158.425781 101.382812 158.390625 101.527344 158.320312 101.664062 C 158.25 101.800781 158.152344 101.90625 158.035156 101.980469 C 157.914062 102.054688 157.777344 102.089844 157.628906 102.089844 C 157.367188 102.089844 157.15625 101.996094 156.992188 101.804688 C 156.828125 101.613281 156.746094 101.296875 156.746094 100.863281 C 156.746094 100.371094 156.839844 100.015625 157.019531 99.789062 C 157.175781 99.597656 157.390625 99.5 157.65625 99.5 C 157.859375 99.5 158.023438 99.554688 158.148438 99.667969 C 158.277344 99.78125 158.351562 99.9375 158.375 100.132812 Z M 157.105469 101.226562 C 157.105469 101.335938 157.128906 101.4375 157.171875 101.535156 C 157.21875 101.632812 157.28125 101.707031 157.363281 101.757812 C 157.445312 101.8125 157.53125 101.835938 157.621094 101.835938 C 157.753906 101.835938 157.867188 101.78125 157.960938 101.675781 C 158.054688 101.570312 158.105469 101.425781 158.105469 101.246094 C 158.105469 101.066406 158.054688 100.929688 157.960938 100.828125 C 157.867188 100.726562 157.75 100.675781 157.609375 100.675781 C 157.46875 100.675781 157.351562 100.726562 157.253906 100.828125 C 157.15625 100.929688 157.105469 101.0625 157.105469 101.226562 "/>
<path style="fill:none;stroke-width:10;stroke-linecap:butt;stroke-linejoin:miter;stroke:rgb(0%,0%,0%);stroke-opacity:1;stroke-miterlimit:10;" d="M 1573.242188 579.140625 L 1573.242188 568.515625 " transform="matrix(0.1,0,0,-0.1,0,155)"/>
<path style=" stroke:none;fill-rule:nonzero;fill:rgb(0%,0%,0%);fill-opacity:1;" d="M 174.496094 99.84375 L 174.496094 99.542969 L 176.140625 99.542969 L 176.140625 99.789062 C 175.980469 99.957031 175.816406 100.183594 175.660156 100.46875 C 175.5 100.753906 175.378906 101.046875 175.292969 101.347656 C 175.230469 101.5625 175.191406 101.796875 175.171875 102.046875 L 174.851562 102.046875 C 174.855469 101.847656 174.894531 101.605469 174.96875 101.324219 C 175.046875 101.042969 175.152344 100.769531 175.292969 100.507812 C 175.433594 100.246094 175.585938 100.023438 175.742188 99.84375 L 174.496094 99.84375 "/>
<path style="fill:none;stroke-width:10;stroke-linecap:butt;stroke-linejoin:miter;stroke:rgb(0%,0%,0%);stroke-opacity:1;stroke-miterlimit:10;" d="M 1750.390625 579.140625 L 1750.390625 568.515625 " transform="matrix(0.1,0,0,-0.1,0,155)"/>
<path style=" stroke:none;fill-rule:nonzero;fill:rgb(0%,0%,0%);fill-opacity:1;" d="M 192.671875 100.675781 C 192.542969 100.625 192.449219 100.558594 192.386719 100.46875 C 192.320312 100.382812 192.289062 100.277344 192.289062 100.152344 C 192.289062 99.96875 192.355469 99.8125 192.488281 99.6875 C 192.621094 99.5625 192.800781 99.5 193.019531 99.5 C 193.242188 99.5 193.421875 99.566406 193.554688 99.695312 C 193.691406 99.824219 193.757812 99.980469 193.757812 100.164062 C 193.757812 100.28125 193.726562 100.386719 193.667969 100.472656 C 193.605469 100.558594 193.511719 100.625 193.386719 100.675781 C 193.542969 100.722656 193.660156 100.804688 193.742188 100.917969 C 193.824219 101.03125 193.863281 101.167969 193.863281 101.320312 C 193.863281 101.539062 193.785156 101.722656 193.632812 101.871094 C 193.480469 102.019531 193.277344 102.089844 193.027344 102.089844 C 192.777344 102.089844 192.574219 102.015625 192.421875 101.867188 C 192.269531 101.71875 192.191406 101.53125 192.191406 101.3125 C 192.191406 101.148438 192.234375 101.011719 192.316406 100.898438 C 192.398438 100.785156 192.519531 100.710938 192.671875 100.675781 Z M 192.613281 100.144531 C 192.613281 100.265625 192.652344 100.363281 192.726562 100.4375 C 192.804688 100.515625 192.90625 100.550781 193.027344 100.550781 C 193.148438 100.550781 193.246094 100.515625 193.324219 100.4375 C 193.398438 100.363281 193.4375 100.269531 193.4375 100.160156 C 193.4375 100.042969 193.398438 99.949219 193.316406 99.871094 C 193.238281 99.792969 193.140625 99.753906 193.027344 99.753906 C 192.90625 99.753906 192.804688 99.792969 192.726562 99.867188 C 192.652344 99.945312 192.613281 100.035156 192.613281 100.144531 Z M 192.511719 101.316406 C 192.511719 101.40625 192.535156 101.492188 192.574219 101.574219 C 192.617188 101.65625 192.679688 101.722656 192.765625 101.769531 C 192.847656 101.8125 192.9375 101.835938 193.03125 101.835938 C 193.179688 101.835938 193.300781 101.789062 193.398438 101.691406 C 193.492188 101.597656 193.542969 101.476562 193.542969 101.328125 C 193.542969 101.175781 193.492188 101.050781 193.394531 100.953125 C 193.292969 100.855469 193.167969 100.808594 193.019531 100.808594 C 192.875 100.808594 192.753906 100.855469 192.65625 100.953125 C 192.558594 101.046875 192.511719 101.167969 192.511719 101.316406 "/>
<path style="fill:none;stroke-width:10;stroke-linecap:butt;stroke-linejoin:miter;stroke:rgb(0%,0%,0%);stroke-opacity:1;stroke-miterlimit:10;" d="M 1927.578125 579.140625 L 1927.578125 568.515625 " transform="matrix(0.1,0,0,-0.1,0,155)"/>
<path style=" stroke:none;fill-rule:nonzero;fill:rgb(0%,0%,0%);fill-opacity:1;" d="M 45.183594 150.710938 L 45.183594 150.480469 L 46.589844 150.480469 L 46.589844 150.710938 Z M 46.921875 150.984375 L 47.230469 150.945312 C 47.269531 151.117188 47.328125 151.246094 47.414062 151.324219 C 47.5 151.402344 47.605469 151.441406 47.730469 151.441406 C 47.878906 151.441406 48 151.394531 48.101562 151.292969 C 48.199219 151.1875 48.25 151.0625 48.25 150.910156 C 48.25 150.769531 48.203125 150.648438 48.109375 150.558594 C 48.019531 150.464844 47.902344 150.417969 47.757812 150.417969 C 47.699219 150.417969 47.625 150.429688 47.535156 150.453125 L 47.570312 150.179688 C 47.589844 150.179688 47.609375 150.179688 47.617188 150.179688 C 47.75 150.179688 47.871094 150.148438 47.976562 150.078125 C 48.085938 150.011719 48.140625 149.902344 48.140625 149.761719 C 48.140625 149.644531 48.101562 149.550781 48.023438 149.476562 C 47.945312 149.398438 47.84375 149.363281 47.722656 149.363281 C 47.601562 149.363281 47.5 149.398438 47.417969 149.476562 C 47.339844 149.550781 47.285156 149.667969 47.265625 149.820312 L 46.953125 149.765625 C 46.992188 149.554688 47.078125 149.394531 47.210938 149.277344 C 47.347656 149.164062 47.515625 149.105469 47.714844 149.105469 C 47.851562 149.105469 47.980469 149.136719 48.097656 149.195312 C 48.214844 149.253906 48.300781 149.335938 48.363281 149.4375 C 48.425781 149.542969 48.453125 149.652344 48.453125 149.765625 C 48.453125 149.875 48.425781 149.976562 48.367188 150.0625 C 48.3125 150.152344 48.222656 150.226562 48.105469 150.28125 C 48.257812 150.3125 48.375 150.386719 48.457031 150.492188 C 48.539062 150.601562 48.582031 150.738281 48.582031 150.90625 C 48.582031 151.128906 48.5 151.316406 48.339844 151.46875 C 48.175781 151.621094 47.972656 151.699219 47.730469 151.699219 C 47.503906 151.699219 47.320312 151.632812 47.171875 151.5 C 47.027344 151.367188 46.945312 151.195312 46.921875 150.984375 "/>
<path style="fill:none;stroke-width:10;stroke-linecap:butt;stroke-linejoin:miter;stroke:rgb(0%,0%,0%);stroke-opacity:1;stroke-miterlimit:10;" d="M 499.609375 47.617188 L 510.234375 47.617188 " transform="matrix(0.1,0,0,-0.1,0,155)"/>
<path style=" stroke:none;fill-rule:nonzero;fill:rgb(0%,0%,0%);fill-opacity:1;" d="M 45.183594 132.996094 L 45.183594 132.761719 L 46.589844 132.761719 L 46.589844 132.996094 Z M 48.554688 133.636719 L 48.554688 133.9375 L 46.878906 133.9375 C 46.878906 133.863281 46.890625 133.789062 46.914062 133.722656 C 46.960938 133.605469 47.027344 133.492188 47.121094 133.382812 C 47.214844 133.273438 47.347656 133.144531 47.53125 133 C 47.804688 132.773438 47.988281 132.59375 48.085938 132.460938 C 48.183594 132.332031 48.234375 132.207031 48.234375 132.089844 C 48.234375 131.960938 48.1875 131.859375 48.101562 131.773438 C 48.011719 131.691406 47.898438 131.652344 47.757812 131.652344 C 47.605469 131.652344 47.484375 131.695312 47.394531 131.78125 C 47.304688 131.871094 47.257812 131.996094 47.257812 132.15625 L 46.9375 132.121094 C 46.960938 131.886719 47.042969 131.703125 47.183594 131.578125 C 47.328125 131.453125 47.519531 131.390625 47.761719 131.390625 C 48.007812 131.390625 48.199219 131.457031 48.339844 131.59375 C 48.484375 131.726562 48.554688 131.894531 48.554688 132.09375 C 48.554688 132.195312 48.53125 132.296875 48.492188 132.394531 C 48.449219 132.492188 48.378906 132.597656 48.28125 132.707031 C 48.1875 132.8125 48.027344 132.960938 47.800781 133.152344 C 47.617188 133.304688 47.496094 133.410156 47.445312 133.46875 C 47.390625 133.527344 47.347656 133.582031 47.3125 133.636719 L 48.554688 133.636719 "/>
<path style="fill:none;stroke-width:10;stroke-linecap:butt;stroke-linejoin:miter;stroke:rgb(0%,0%,0%);stroke-opacity:1;stroke-miterlimit:10;" d="M 499.609375 224.804688 L 510.234375 224.804688 " transform="matrix(0.1,0,0,-0.1,0,155)"/>
<path style=" stroke:none;fill-rule:nonzero;fill:rgb(0%,0%,0%);fill-opacity:1;" d="M 45.183594 115.28125 L 45.183594 115.046875 L 46.589844 115.046875 L 46.589844 115.28125 Z M 48.089844 116.21875 L 47.78125 116.21875 L 47.78125 114.238281 C 47.707031 114.308594 47.609375 114.378906 47.484375 114.453125 C 47.363281 114.523438 47.253906 114.578125 47.160156 114.609375 L 47.160156 114.308594 C 47.332031 114.230469 47.484375 114.128906 47.617188 114.015625 C 47.746094 113.898438 47.839844 113.785156 47.890625 113.671875 L 48.089844 113.671875 L 48.089844 116.21875 "/>
<path style="fill:none;stroke-width:10;stroke-linecap:butt;stroke-linejoin:miter;stroke:rgb(0%,0%,0%);stroke-opacity:1;stroke-miterlimit:10;" d="M 499.609375 401.953125 L 510.234375 401.953125 " transform="matrix(0.1,0,0,-0.1,0,155)"/>
<path style=" stroke:none;fill-rule:nonzero;fill:rgb(0%,0%,0%);fill-opacity:1;" d="M 46.921875 95.125 C 46.921875 94.828125 46.953125 94.585938 47.011719 94.40625 C 47.074219 94.222656 47.164062 94.082031 47.285156 93.980469 C 47.40625 93.882812 47.5625 93.832031 47.746094 93.832031 C 47.882812 93.832031 48 93.859375 48.101562 93.914062 C 48.203125 93.96875 48.289062 94.046875 48.359375 94.152344 C 48.425781 94.253906 48.480469 94.382812 48.515625 94.527344 C 48.550781 94.675781 48.570312 94.875 48.570312 95.125 C 48.570312 95.425781 48.539062 95.667969 48.480469 95.847656 C 48.417969 96.03125 48.328125 96.171875 48.207031 96.273438 C 48.082031 96.371094 47.929688 96.421875 47.746094 96.421875 C 47.503906 96.421875 47.308594 96.332031 47.171875 96.15625 C 47.003906 95.945312 46.921875 95.601562 46.921875 95.125 Z M 47.238281 95.125 C 47.238281 95.542969 47.285156 95.820312 47.382812 95.960938 C 47.480469 96.097656 47.601562 96.167969 47.746094 96.167969 C 47.890625 96.167969 48.011719 96.097656 48.109375 95.960938 C 48.207031 95.820312 48.253906 95.542969 48.253906 95.125 C 48.253906 94.710938 48.207031 94.433594 48.109375 94.296875 C 48.011719 94.160156 47.886719 94.089844 47.742188 94.089844 C 47.601562 94.089844 47.484375 94.152344 47.398438 94.269531 C 47.289062 94.421875 47.238281 94.710938 47.238281 95.125 "/>
<path style=" stroke:none;fill-rule:nonzero;fill:rgb(0%,0%,0%);fill-opacity:1;" d="M 48.089844 80.789062 L 47.78125 80.789062 L 47.78125 78.804688 C 47.707031 78.875 47.609375 78.945312 47.484375 79.019531 C 47.363281 79.089844 47.253906 79.144531 47.160156 79.175781 L 47.160156 78.878906 C 47.332031 78.796875 47.484375 78.699219 47.617188 78.582031 C 47.746094 78.464844 47.839844 78.351562 47.890625 78.242188 L 48.089844 78.242188 L 48.089844 80.789062 "/>
<path style="fill:none;stroke-width:10;stroke-linecap:butt;stroke-linejoin:miter;stroke:rgb(0%,0%,0%);stroke-opacity:1;stroke-miterlimit:10;" d="M 499.609375 756.289062 L 510.234375 756.289062 " transform="matrix(0.1,0,0,-0.1,0,155)"/>
<path style=" stroke:none;fill-rule:nonzero;fill:rgb(0%,0%,0%);fill-opacity:1;" d="M 48.554688 62.773438 L 48.554688 63.070312 L 46.878906 63.070312 C 46.878906 62.996094 46.890625 62.925781 46.914062 62.855469 C 46.960938 62.742188 47.027344 62.628906 47.121094 62.515625 C 47.214844 62.40625 47.347656 62.28125 47.53125 62.136719 C 47.804688 61.90625 47.988281 61.726562 48.085938 61.59375 C 48.183594 61.464844 48.234375 61.339844 48.234375 61.222656 C 48.234375 61.097656 48.1875 60.992188 48.101562 60.910156 C 48.011719 60.824219 47.898438 60.785156 47.757812 60.785156 C 47.605469 60.785156 47.484375 60.828125 47.394531 60.917969 C 47.304688 61.007812 47.257812 61.128906 47.257812 61.289062 L 46.9375 61.253906 C 46.960938 61.019531 47.042969 60.839844 47.183594 60.710938 C 47.328125 60.585938 47.519531 60.523438 47.761719 60.523438 C 48.007812 60.523438 48.199219 60.589844 48.339844 60.726562 C 48.484375 60.859375 48.554688 61.027344 48.554688 61.226562 C 48.554688 61.332031 48.53125 61.429688 48.492188 61.527344 C 48.449219 61.628906 48.378906 61.730469 48.28125 61.839844 C 48.1875 61.949219 48.027344 62.097656 47.800781 62.285156 C 47.617188 62.441406 47.496094 62.546875 47.445312 62.601562 C 47.390625 62.660156 47.347656 62.714844 47.3125 62.773438 L 48.554688 62.773438 "/>
<path style="fill:none;stroke-width:10;stroke-linecap:butt;stroke-linejoin:miter;stroke:rgb(0%,0%,0%);stroke-opacity:1;stroke-miterlimit:10;" d="M 499.609375 933.476562 L 510.234375 933.476562 " transform="matrix(0.1,0,0,-0.1,0,155)"/>
<path style=" stroke:none;fill-rule:nonzero;fill:rgb(0%,0%,0%);fill-opacity:1;" d="M 46.921875 44.683594 L 47.230469 44.644531 C 47.269531 44.820312 47.328125 44.945312 47.414062 45.023438 C 47.5 45.105469 47.605469 45.144531 47.730469 45.144531 C 47.878906 45.144531 48 45.09375 48.101562 44.992188 C 48.199219 44.890625 48.25 44.765625 48.25 44.613281 C 48.25 44.46875 48.203125 44.351562 48.109375 44.257812 C 48.019531 44.164062 47.902344 44.121094 47.757812 44.121094 C 47.699219 44.121094 47.625 44.132812 47.535156 44.152344 L 47.570312 43.882812 C 47.589844 43.882812 47.609375 43.882812 47.617188 43.882812 C 47.75 43.882812 47.871094 43.847656 47.976562 43.777344 C 48.085938 43.710938 48.140625 43.605469 48.140625 43.460938 C 48.140625 43.347656 48.101562 43.253906 48.023438 43.175781 C 47.945312 43.101562 47.84375 43.0625 47.722656 43.0625 C 47.601562 43.0625 47.5 43.101562 47.417969 43.175781 C 47.339844 43.253906 47.285156 43.367188 47.265625 43.523438 L 46.953125 43.464844 C 46.992188 43.257812 47.078125 43.09375 47.210938 42.980469 C 47.347656 42.863281 47.515625 42.808594 47.714844 42.808594 C 47.851562 42.808594 47.980469 42.835938 48.097656 42.894531 C 48.214844 42.953125 48.300781 43.035156 48.363281 43.140625 C 48.425781 43.242188 48.453125 43.351562 48.453125 43.464844 C 48.453125 43.578125 48.425781 43.675781 48.367188 43.765625 C 48.3125 43.855469 48.222656 43.925781 48.105469 43.980469 C 48.257812 44.015625 48.375 44.085938 48.457031 44.195312 C 48.539062 44.304688 48.582031 44.441406 48.582031 44.605469 C 48.582031 44.828125 48.5 45.015625 48.339844 45.167969 C 48.175781 45.320312 47.972656 45.398438 47.730469 45.398438 C 47.503906 45.398438 47.320312 45.332031 47.171875 45.199219 C 47.027344 45.066406 46.945312 44.894531 46.921875 44.683594 "/>
<path style="fill:none;stroke-width:10;stroke-linecap:butt;stroke-linejoin:miter;stroke:rgb(0%,0%,0%);stroke-opacity:1;stroke-miterlimit:10;" d="M 499.609375 1110.625 L 510.234375 1110.625 " transform="matrix(0.1,0,0,-0.1,0,155)"/>
<path style=" stroke:none;fill-rule:nonzero;fill:rgb(0%,0%,0%);fill-opacity:1;" d="M 47.917969 27.636719 L 47.917969 27.027344 L 46.816406 27.027344 L 46.816406 26.746094 L 47.972656 25.101562 L 48.226562 25.101562 L 48.226562 26.746094 L 48.570312 26.746094 L 48.570312 27.027344 L 48.226562 27.027344 L 48.226562 27.636719 Z M 47.917969 26.746094 L 47.917969 25.601562 L 47.121094 26.746094 L 47.917969 26.746094 "/>
<path style="fill:none;stroke-width:10;stroke-linecap:butt;stroke-linejoin:miter;stroke:rgb(0%,0%,0%);stroke-opacity:1;stroke-miterlimit:10;" d="M 499.609375 1287.8125 L 510.234375 1287.8125 " transform="matrix(0.1,0,0,-0.1,0,155)"/>
<path style=" stroke:none;fill-rule:nonzero;fill:rgb(0%,0%,0%);fill-opacity:1;" d="M 46.921875 9.257812 L 47.246094 9.230469 C 47.269531 9.386719 47.324219 9.507812 47.414062 9.589844 C 47.503906 9.671875 47.609375 9.710938 47.734375 9.710938 C 47.882812 9.710938 48.007812 9.652344 48.113281 9.539062 C 48.21875 9.425781 48.273438 9.273438 48.273438 9.089844 C 48.273438 8.914062 48.222656 8.773438 48.121094 8.671875 C 48.023438 8.566406 47.890625 8.515625 47.730469 8.515625 C 47.628906 8.515625 47.539062 8.539062 47.457031 8.585938 C 47.378906 8.628906 47.3125 8.6875 47.265625 8.757812 L 46.976562 8.71875 L 47.21875 7.417969 L 48.480469 7.417969 L 48.480469 7.71875 L 47.46875 7.71875 L 47.332031 8.398438 C 47.484375 8.292969 47.648438 8.238281 47.8125 8.238281 C 48.035156 8.238281 48.21875 8.316406 48.371094 8.46875 C 48.523438 8.621094 48.597656 8.820312 48.597656 9.0625 C 48.597656 9.292969 48.53125 9.488281 48.398438 9.65625 C 48.238281 9.863281 48.015625 9.964844 47.734375 9.964844 C 47.503906 9.964844 47.3125 9.902344 47.167969 9.773438 C 47.023438 9.644531 46.941406 9.472656 46.921875 9.257812 "/>
<path style="fill:none;stroke-width:10;stroke-linecap:butt;stroke-linejoin:miter;stroke:rgb(0%,0%,0%);stroke-opacity:1;stroke-miterlimit:10;" d="M 499.609375 1464.960938 L 510.234375 1464.960938 " transform="matrix(0.1,0,0,-0.1,0,155)"/>
<path style="fill:none;stroke-width:10;stroke-linecap:round;stroke-linejoin:round;stroke:rgb(0%,0%,0%);stroke-opacity:1;stroke-miterlimit:10;" d="M -17.695312 1197.421875 L 2030.3125 173.4375 " transform="matrix(0.1,0,0,-0.1,0,155)"/>
<path style=" stroke:none;fill-rule:nonzero;fill:rgb(0%,0%,0%);fill-opacity:1;" d="M 196.328125 108.957031 L 195.429688 112.542969 C 195.230469 113.140625 194.882812 113.640625 194.382812 114.039062 C 193.984375 114.339844 193.585938 114.488281 193.1875 114.488281 C 192.789062 114.488281 192.488281 114.339844 192.289062 114.039062 C 192.191406 113.941406 192.140625 113.839844 192.140625 113.738281 C 192.140625 113.339844 192.289062 113.140625 192.589844 113.140625 C 192.589844 113.042969 192.640625 112.992188 192.738281 112.992188 C 192.9375 112.992188 193.039062 113.09375 193.039062 113.292969 C 193.039062 113.292969 193.039062 113.339844 193.039062 113.441406 C 193.039062 113.539062 192.988281 113.640625 192.890625 113.738281 C 192.789062 113.839844 192.640625 113.890625 192.441406 113.890625 C 192.539062 114.1875 192.789062 114.339844 193.1875 114.339844 C 193.585938 114.339844 193.933594 114.140625 194.234375 113.738281 C 194.53125 113.339844 194.730469 112.894531 194.832031 112.394531 C 194.832031 112.296875 194.832031 112.246094 194.832031 112.246094 C 194.53125 112.542969 194.234375 112.695312 193.933594 112.695312 C 193.4375 112.695312 193.089844 112.496094 192.890625 112.09375 C 192.789062 111.898438 192.738281 111.699219 192.738281 111.496094 C 192.738281 111.199219 192.890625 110.550781 193.1875 109.554688 C 193.1875 109.554688 193.238281 109.554688 193.335938 109.554688 C 193.4375 109.253906 193.488281 109.007812 193.488281 108.808594 C 193.488281 108.609375 193.386719 108.507812 193.1875 108.507812 C 192.890625 108.507812 192.589844 108.808594 192.289062 109.40625 C 192.289062 109.503906 192.289062 109.605469 192.289062 109.703125 C 192.191406 109.804688 192.140625 109.851562 192.140625 109.851562 C 192.042969 109.851562 191.992188 109.851562 191.992188 109.851562 C 191.992188 109.65625 192.042969 109.457031 192.140625 109.253906 C 192.441406 108.65625 192.789062 108.359375 193.1875 108.359375 C 193.585938 108.359375 193.835938 108.507812 193.933594 108.808594 C 194.035156 108.90625 194.085938 109.007812 194.085938 109.105469 C 194.085938 109.207031 193.984375 109.457031 193.785156 109.851562 C 193.488281 110.652344 193.335938 111.25 193.335938 111.648438 C 193.335938 112.144531 193.535156 112.394531 193.933594 112.394531 C 194.335938 112.394531 194.632812 112.195312 194.832031 111.796875 C 194.933594 111.699219 194.980469 111.648438 194.980469 111.648438 L 195.429688 109.851562 C 195.53125 109.65625 195.578125 109.40625 195.578125 109.105469 C 195.679688 108.808594 195.730469 108.65625 195.730469 108.65625 C 195.828125 108.457031 195.976562 108.359375 196.175781 108.359375 C 196.277344 108.457031 196.328125 108.558594 196.328125 108.65625 C 196.328125 108.757812 196.328125 108.855469 196.328125 108.957031 "/>
<path style=" stroke:none;fill-rule:nonzero;fill:rgb(0%,0%,0%);fill-opacity:1;" d="M 63.128906 5.382812 L 61.78125 10.910156 C 61.683594 11.113281 61.632812 11.261719 61.632812 11.359375 C 61.632812 11.660156 61.734375 11.808594 61.933594 11.808594 C 62.230469 11.808594 62.429688 11.558594 62.53125 11.0625 C 62.628906 10.960938 62.679688 10.8125 62.679688 10.613281 C 62.78125 10.515625 62.828125 10.464844 62.828125 10.464844 C 62.929688 10.464844 62.980469 10.515625 62.980469 10.613281 C 62.980469 10.714844 62.929688 10.910156 62.828125 11.210938 C 62.730469 11.3125 62.679688 11.410156 62.679688 11.511719 C 62.480469 11.910156 62.230469 12.109375 61.933594 12.109375 C 61.632812 12.109375 61.382812 11.960938 61.183594 11.660156 C 61.183594 11.558594 61.136719 11.460938 61.035156 11.359375 C 60.636719 11.859375 60.238281 12.109375 59.839844 12.109375 C 59.339844 12.109375 58.992188 11.859375 58.792969 11.359375 C 58.695312 11.160156 58.644531 10.863281 58.644531 10.464844 C 58.644531 9.867188 58.84375 9.269531 59.242188 8.671875 C 59.738281 8.070312 60.238281 7.773438 60.734375 7.773438 C 60.835938 7.773438 60.886719 7.773438 60.886719 7.773438 C 61.285156 7.773438 61.582031 7.972656 61.78125 8.371094 L 62.382812 6.128906 L 62.382812 5.828125 C 62.382812 5.828125 62.332031 5.78125 62.230469 5.679688 C 62.132812 5.679688 62.03125 5.679688 61.933594 5.679688 C 61.734375 5.679688 61.632812 5.679688 61.632812 5.679688 C 61.632812 5.480469 61.683594 5.382812 61.78125 5.382812 C 62.382812 5.382812 62.78125 5.382812 62.980469 5.382812 C 63.078125 5.382812 63.128906 5.382812 63.128906 5.382812 Z M 61.183594 10.761719 L 61.632812 8.96875 C 61.632812 8.871094 61.632812 8.820312 61.632812 8.820312 C 61.632812 8.621094 61.582031 8.421875 61.484375 8.222656 C 61.382812 8.023438 61.183594 7.921875 60.886719 7.921875 C 60.585938 7.921875 60.289062 8.121094 59.988281 8.519531 C 59.890625 8.621094 59.839844 8.71875 59.839844 8.820312 C 59.640625 9.21875 59.441406 9.765625 59.242188 10.464844 C 59.242188 10.664062 59.242188 10.8125 59.242188 10.910156 C 59.242188 11.410156 59.390625 11.710938 59.691406 11.808594 C 59.691406 11.808594 59.738281 11.808594 59.839844 11.808594 C 60.238281 11.808594 60.585938 11.609375 60.886719 11.210938 C 60.984375 11.113281 61.085938 11.011719 61.183594 10.910156 C 61.183594 10.8125 61.183594 10.761719 61.183594 10.761719 "/>
<path style=" stroke:none;fill-rule:nonzero;fill:rgb(0%,0%,0%);fill-opacity:1;" d="M 67.808594 8.371094 L 66.910156 11.960938 C 66.710938 12.558594 66.363281 13.054688 65.867188 13.453125 C 65.46875 13.753906 65.070312 13.902344 64.667969 13.902344 C 64.269531 13.902344 63.972656 13.753906 63.773438 13.453125 C 63.671875 13.355469 63.621094 13.253906 63.621094 13.15625 C 63.621094 12.757812 63.773438 12.558594 64.070312 12.558594 C 64.070312 12.457031 64.121094 12.40625 64.222656 12.40625 C 64.421875 12.40625 64.519531 12.507812 64.519531 12.707031 C 64.519531 12.707031 64.519531 12.757812 64.519531 12.855469 C 64.519531 12.953125 64.46875 13.054688 64.371094 13.15625 C 64.269531 13.253906 64.121094 13.304688 63.921875 13.304688 C 64.023438 13.601562 64.269531 13.753906 64.667969 13.753906 C 65.070312 13.753906 65.417969 13.554688 65.714844 13.15625 C 66.015625 12.757812 66.214844 12.308594 66.3125 11.808594 C 66.3125 11.710938 66.3125 11.660156 66.3125 11.660156 C 66.015625 11.960938 65.714844 12.109375 65.417969 12.109375 C 64.917969 12.109375 64.570312 11.910156 64.371094 11.511719 C 64.269531 11.3125 64.222656 11.113281 64.222656 10.910156 C 64.222656 10.613281 64.371094 9.964844 64.667969 8.96875 C 64.667969 8.96875 64.71875 8.96875 64.820312 8.96875 C 64.917969 8.671875 64.96875 8.421875 64.96875 8.222656 C 64.96875 8.023438 64.867188 7.921875 64.667969 7.921875 C 64.371094 7.921875 64.070312 8.222656 63.773438 8.820312 C 63.773438 8.917969 63.773438 9.019531 63.773438 9.117188 C 63.671875 9.21875 63.621094 9.269531 63.621094 9.269531 C 63.523438 9.269531 63.472656 9.269531 63.472656 9.269531 C 63.472656 9.070312 63.523438 8.871094 63.621094 8.671875 C 63.921875 8.070312 64.269531 7.773438 64.667969 7.773438 C 65.070312 7.773438 65.316406 7.921875 65.417969 8.222656 C 65.515625 8.320312 65.566406 8.421875 65.566406 8.519531 C 65.566406 8.621094 65.46875 8.871094 65.269531 9.269531 C 64.96875 10.066406 64.820312 10.664062 64.820312 11.0625 C 64.820312 11.558594 65.019531 11.808594 65.417969 11.808594 C 65.816406 11.808594 66.113281 11.609375 66.3125 11.210938 C 66.414062 11.113281 66.464844 11.0625 66.464844 11.0625 L 66.910156 9.269531 C 67.011719 9.070312 67.0625 8.820312 67.0625 8.519531 C 67.160156 8.222656 67.210938 8.070312 67.210938 8.070312 C 67.308594 7.871094 67.460938 7.773438 67.660156 7.773438 C 67.757812 7.871094 67.808594 7.972656 67.808594 8.070312 C 67.808594 8.171875 67.808594 8.269531 67.808594 8.371094 "/>
<path style=" stroke:none;fill-rule:nonzero;fill:rgb(0%,0%,0%);fill-opacity:1;" d="M 58.195312 16.230469 L 67.863281 16.230469 L 67.863281 15.847656 L 58.195312 15.847656 Z M 58.195312 16.230469 "/>
<path style=" stroke:none;fill-rule:nonzero;fill:rgb(0%,0%,0%);fill-opacity:1;" d="M 63.746094 18.414062 L 62.402344 23.945312 C 62.300781 24.144531 62.25 24.296875 62.25 24.394531 C 62.25 24.695312 62.351562 24.84375 62.550781 24.84375 C 62.847656 24.84375 63.046875 24.59375 63.148438 24.097656 C 63.246094 23.996094 63.296875 23.847656 63.296875 23.648438 C 63.398438 23.546875 63.449219 23.496094 63.449219 23.496094 C 63.546875 23.496094 63.597656 23.546875 63.597656 23.648438 C 63.597656 23.746094 63.546875 23.945312 63.449219 24.246094 C 63.347656 24.34375 63.296875 24.445312 63.296875 24.546875 C 63.097656 24.941406 62.847656 25.144531 62.550781 25.144531 C 62.25 25.144531 62.003906 24.992188 61.800781 24.695312 C 61.800781 24.59375 61.753906 24.496094 61.652344 24.394531 C 61.253906 24.894531 60.855469 25.144531 60.457031 25.144531 C 59.960938 25.144531 59.609375 24.894531 59.410156 24.394531 C 59.3125 24.195312 59.261719 23.898438 59.261719 23.496094 C 59.261719 22.898438 59.460938 22.300781 59.859375 21.703125 C 60.359375 21.105469 60.855469 20.808594 61.355469 20.808594 C 61.453125 20.808594 61.503906 20.808594 61.503906 20.808594 C 61.902344 20.808594 62.203125 21.007812 62.402344 21.40625 L 63 19.164062 L 63 18.863281 C 63 18.863281 62.949219 18.8125 62.847656 18.714844 C 62.75 18.714844 62.648438 18.714844 62.550781 18.714844 C 62.351562 18.714844 62.25 18.714844 62.25 18.714844 C 62.25 18.515625 62.300781 18.414062 62.402344 18.414062 C 63 18.414062 63.398438 18.414062 63.597656 18.414062 C 63.695312 18.414062 63.746094 18.414062 63.746094 18.414062 Z M 61.800781 23.796875 L 62.25 22.003906 C 62.25 21.902344 62.25 21.855469 62.25 21.855469 C 62.25 21.65625 62.203125 21.453125 62.101562 21.257812 C 62.003906 21.058594 61.800781 20.957031 61.503906 20.957031 C 61.207031 20.957031 60.90625 21.15625 60.605469 21.554688 C 60.507812 21.65625 60.457031 21.753906 60.457031 21.855469 C 60.257812 22.253906 60.058594 22.800781 59.859375 23.496094 C 59.859375 23.699219 59.859375 23.847656 59.859375 23.945312 C 59.859375 24.445312 60.007812 24.742188 60.308594 24.84375 C 60.308594 24.84375 60.359375 24.84375 60.457031 24.84375 C 60.855469 24.84375 61.207031 24.644531 61.503906 24.246094 C 61.601562 24.144531 61.703125 24.046875 61.800781 23.945312 C 61.800781 23.847656 61.800781 23.796875 61.800781 23.796875 "/>
<path style=" stroke:none;fill-rule:nonzero;fill:rgb(0%,0%,0%);fill-opacity:1;" d="M 65.734375 21.105469 L 64.988281 23.945312 C 64.988281 24.144531 64.988281 24.296875 64.988281 24.394531 C 64.988281 24.695312 65.089844 24.84375 65.289062 24.84375 C 65.6875 24.84375 66.035156 24.546875 66.335938 23.945312 L 66.484375 23.648438 C 66.582031 23.546875 66.632812 23.496094 66.632812 23.496094 C 66.730469 23.496094 66.78125 23.546875 66.78125 23.648438 C 66.78125 23.746094 66.683594 23.898438 66.484375 24.097656 C 66.183594 24.792969 65.785156 25.144531 65.289062 25.144531 C 64.890625 25.144531 64.640625 24.992188 64.539062 24.695312 C 64.441406 24.496094 64.390625 24.34375 64.390625 24.246094 C 64.390625 24.144531 64.589844 23.300781 64.988281 21.703125 L 65.136719 21.105469 L 64.242188 21.105469 C 64.140625 21.105469 64.089844 21.105469 64.089844 21.105469 L 63.941406 21.105469 C 63.941406 21.007812 63.992188 20.90625 64.089844 20.808594 L 65.136719 20.808594 L 65.585938 19.3125 C 65.585938 19.113281 65.6875 19.015625 65.886719 19.015625 C 66.085938 19.015625 66.183594 19.113281 66.183594 19.3125 C 66.183594 19.3125 66.085938 19.8125 65.886719 20.808594 L 66.632812 20.808594 C 66.832031 20.808594 66.929688 20.855469 66.929688 20.957031 C 66.929688 21.058594 66.882812 21.105469 66.78125 21.105469 L 65.734375 21.105469 "/>
</g>
</svg>
