<?xml version="1.0" encoding="UTF-8"?>
<svg xmlns="http://www.w3.org/2000/svg" xmlns:xlink="http://www.w3.org/1999/xlink" width="226pt" height="174pt" viewBox="0 0 226 174" version="1.1">
<g id="surface1">
<rect x="0" y="0" width="226" height="174" style="fill:rgb(100%,100%,100%);fill-opacity:1;stroke:none;"/>
<path style="fill:none;stroke-width:10;stroke-linecap:butt;stroke-linejoin:miter;stroke:rgb(0%,0%,0%);stroke-opacity:1;stroke-miterlimit:10;" d="M 283.476562 1732.03125 L 283.476562 -8.710938 " transform="matrix(0.1,0,0,-0.1,0,174)"/>
<path style="fill:none;stroke-width:10;stroke-linecap:butt;stroke-linejoin:miter;stroke:rgb(0%,0%,0%);stroke-opacity:1;stroke-miterlimit:10;" d="M 283.476562 1736.015625 L 271.484375 1724.023438 " transform="matrix(0.1,0,0,-0.1,0,174)"/>
<path style="fill:none;stroke-width:10;stroke-linecap:butt;stroke-linejoin:miter;stroke:rgb(0%,0%,0%);stroke-opacity:1;stroke-miterlimit:10;" d="M 283.476562 1736.015625 L 295.429688 1724.023438 " transform="matrix(0.1,0,0,-0.1,0,174)"/>
<path style="fill:none;stroke-width:10;stroke-linecap:butt;stroke-linejoin:miter;stroke:rgb(0%,0%,0%);stroke-opacity:1;stroke-miterlimit:10;" d="M 0 209.882812 L 0 197.929688 " transform="matrix(0.1,0,0,-0.1,0,174)"/>
<path style="fill:none;stroke-width:10;stroke-linecap:butt;stroke-linejoin:miter;stroke:rgb(0%,0%,0%);stroke-opacity:1;stroke-miterlimit:10;" d="M 0 209.882812 L 2259.726562 209.882812 " transform="matrix(0.1,0,0,-0.1,0,174)"/>
<path style="fill:none;stroke-width:10;stroke-linecap:butt;stroke-linejoin:miter;stroke:rgb(0%,0%,0%);stroke-opacity:1;stroke-miterlimit:10;" d="M 2263.710938 209.882812 L 2251.757812 221.875 " transform="matrix(0.1,0,0,-0.1,0,174)"/>
<path style="fill:none;stroke-width:10;stroke-linecap:butt;stroke-linejoin:miter;stroke:rgb(0%,0%,0%);stroke-opacity:1;stroke-miterlimit:10;" d="M 2263.710938 209.882812 L 2251.757812 197.929688 " transform="matrix(0.1,0,0,-0.1,0,174)"/>
<path style=" stroke:none;fill-rule:nonzero;fill:rgb(0%,0%,0%);fill-opacity:1;" d="M 30.910156 157.089844 C 30.910156 156.753906 30.945312 156.480469 31.011719 156.277344 C 31.082031 156.070312 31.183594 155.910156 31.324219 155.800781 C 31.460938 155.6875 31.632812 155.632812 31.839844 155.632812 C 31.992188 155.632812 32.128906 155.660156 32.242188 155.722656 C 32.355469 155.785156 32.453125 155.875 32.53125 155.992188 C 32.605469 156.109375 32.664062 156.25 32.707031 156.417969 C 32.75 156.582031 32.769531 156.808594 32.769531 157.089844 C 32.769531 157.425781 32.734375 157.699219 32.667969 157.90625 C 32.597656 158.109375 32.496094 158.269531 32.359375 158.382812 C 32.21875 158.496094 32.046875 158.550781 31.839844 158.550781 C 31.566406 158.550781 31.347656 158.449219 31.191406 158.25 C 31.003906 158.015625 30.910156 157.628906 30.910156 157.089844 Z M 31.265625 157.089844 C 31.265625 157.558594 31.320312 157.875 31.429688 158.03125 C 31.542969 158.183594 31.675781 158.265625 31.839844 158.265625 C 32.003906 158.265625 32.136719 158.183594 32.25 158.03125 C 32.359375 157.875 32.414062 157.558594 32.414062 157.089844 C 32.414062 156.621094 32.359375 156.308594 32.25 156.15625 C 32.136719 156 32 155.925781 31.832031 155.925781 C 31.675781 155.925781 31.546875 155.992188 31.445312 156.125 C 31.328125 156.296875 31.265625 156.621094 31.265625 157.089844 "/>
<path style=" stroke:none;fill-rule:nonzero;fill:rgb(0%,0%,0%);fill-opacity:1;" d="M 57.378906 158.5 L 57.03125 158.5 L 57.03125 156.265625 C 56.945312 156.347656 56.835938 156.425781 56.699219 156.507812 C 56.5625 156.589844 56.4375 156.648438 56.332031 156.683594 L 56.332031 156.347656 C 56.527344 156.257812 56.699219 156.144531 56.84375 156.015625 C 56.992188 155.882812 57.097656 155.757812 57.15625 155.632812 L 57.378906 155.632812 L 57.378906 158.5 "/>
<path style="fill:none;stroke-width:10;stroke-linecap:butt;stroke-linejoin:miter;stroke:rgb(0%,0%,0%);stroke-opacity:1;stroke-miterlimit:10;" d="M 566.914062 209.882812 L 566.914062 197.929688 " transform="matrix(0.1,0,0,-0.1,0,174)"/>
<path style=" stroke:none;fill-rule:nonzero;fill:rgb(0%,0%,0%);fill-opacity:1;" d="M 86.25 158.164062 L 86.25 158.5 L 84.359375 158.5 C 84.359375 158.417969 84.375 158.335938 84.402344 158.257812 C 84.453125 158.128906 84.53125 158 84.632812 157.878906 C 84.738281 157.753906 84.890625 157.609375 85.09375 157.445312 C 85.402344 157.1875 85.613281 156.984375 85.722656 156.839844 C 85.832031 156.691406 85.886719 156.550781 85.886719 156.417969 C 85.886719 156.277344 85.839844 156.15625 85.738281 156.066406 C 85.636719 155.972656 85.507812 155.925781 85.351562 155.925781 C 85.179688 155.925781 85.042969 155.972656 84.941406 156.074219 C 84.839844 156.171875 84.789062 156.3125 84.789062 156.492188 L 84.429688 156.453125 C 84.453125 156.1875 84.546875 155.984375 84.707031 155.84375 C 84.867188 155.703125 85.082031 155.632812 85.355469 155.632812 C 85.632812 155.632812 85.847656 155.707031 86.007812 155.859375 C 86.167969 156.011719 86.25 156.199219 86.25 156.421875 C 86.25 156.539062 86.226562 156.652344 86.175781 156.761719 C 86.128906 156.875 86.050781 156.988281 85.945312 157.113281 C 85.835938 157.234375 85.65625 157.402344 85.402344 157.613281 C 85.195312 157.789062 85.058594 157.910156 85 157.972656 C 84.9375 158.039062 84.890625 158.101562 84.851562 158.164062 L 86.25 158.164062 "/>
<path style="fill:none;stroke-width:10;stroke-linecap:butt;stroke-linejoin:miter;stroke:rgb(0%,0%,0%);stroke-opacity:1;stroke-miterlimit:10;" d="M 850.390625 209.882812 L 850.390625 197.929688 " transform="matrix(0.1,0,0,-0.1,0,174)"/>
<path style=" stroke:none;fill-rule:nonzero;fill:rgb(0%,0%,0%);fill-opacity:1;" d="M 112.757812 157.746094 L 113.105469 157.703125 C 113.148438 157.898438 113.214844 158.039062 113.3125 158.128906 C 113.40625 158.21875 113.523438 158.265625 113.664062 158.265625 C 113.832031 158.265625 113.972656 158.207031 114.085938 158.09375 C 114.195312 157.976562 114.253906 157.835938 114.253906 157.664062 C 114.253906 157.503906 114.199219 157.371094 114.097656 157.265625 C 113.992188 157.160156 113.859375 157.109375 113.699219 157.109375 C 113.632812 157.109375 113.546875 157.121094 113.449219 157.148438 L 113.484375 156.839844 C 113.511719 156.839844 113.527344 156.839844 113.542969 156.839844 C 113.691406 156.839844 113.828125 156.800781 113.945312 156.726562 C 114.066406 156.648438 114.128906 156.53125 114.128906 156.367188 C 114.128906 156.238281 114.085938 156.132812 113.996094 156.046875 C 113.910156 155.960938 113.796875 155.917969 113.660156 155.917969 C 113.523438 155.917969 113.410156 155.960938 113.316406 156.046875 C 113.226562 156.132812 113.167969 156.261719 113.144531 156.4375 L 112.792969 156.375 C 112.835938 156.136719 112.933594 155.953125 113.082031 155.824219 C 113.234375 155.695312 113.421875 155.632812 113.648438 155.632812 C 113.804688 155.632812 113.949219 155.664062 114.082031 155.730469 C 114.214844 155.796875 114.3125 155.890625 114.382812 156.003906 C 114.449219 156.121094 114.484375 156.246094 114.484375 156.375 C 114.484375 156.496094 114.453125 156.609375 114.386719 156.710938 C 114.324219 156.808594 114.222656 156.890625 114.089844 156.953125 C 114.261719 156.992188 114.394531 157.070312 114.488281 157.195312 C 114.578125 157.316406 114.628906 157.472656 114.628906 157.660156 C 114.628906 157.90625 114.535156 158.117188 114.351562 158.292969 C 114.171875 158.464844 113.941406 158.550781 113.664062 158.550781 C 113.414062 158.550781 113.203125 158.476562 113.039062 158.324219 C 112.875 158.175781 112.78125 157.984375 112.757812 157.746094 "/>
<path style="fill:none;stroke-width:10;stroke-linecap:butt;stroke-linejoin:miter;stroke:rgb(0%,0%,0%);stroke-opacity:1;stroke-miterlimit:10;" d="M 1133.867188 209.882812 L 1133.867188 197.929688 " transform="matrix(0.1,0,0,-0.1,0,174)"/>
<path style=" stroke:none;fill-rule:nonzero;fill:rgb(0%,0%,0%);fill-opacity:1;" d="M 142.226562 158.5 L 142.226562 157.816406 L 140.984375 157.816406 L 140.984375 157.496094 L 142.289062 155.644531 L 142.574219 155.644531 L 142.574219 157.496094 L 142.960938 157.496094 L 142.960938 157.816406 L 142.574219 157.816406 L 142.574219 158.5 Z M 142.226562 157.496094 L 142.226562 156.207031 L 141.328125 157.496094 L 142.226562 157.496094 "/>
<path style="fill:none;stroke-width:10;stroke-linecap:butt;stroke-linejoin:miter;stroke:rgb(0%,0%,0%);stroke-opacity:1;stroke-miterlimit:10;" d="M 1417.304688 209.882812 L 1417.304688 197.929688 " transform="matrix(0.1,0,0,-0.1,0,174)"/>
<path style=" stroke:none;fill-rule:nonzero;fill:rgb(0%,0%,0%);fill-opacity:1;" d="M 169.449219 157.753906 L 169.816406 157.71875 C 169.84375 157.898438 169.902344 158.035156 170.003906 158.125 C 170.105469 158.21875 170.222656 158.265625 170.367188 158.265625 C 170.53125 158.265625 170.675781 158.199219 170.792969 158.070312 C 170.910156 157.941406 170.972656 157.773438 170.972656 157.566406 C 170.972656 157.363281 170.914062 157.207031 170.800781 157.089844 C 170.691406 156.972656 170.542969 156.914062 170.359375 156.914062 C 170.246094 156.914062 170.144531 156.941406 170.054688 156.992188 C 169.960938 157.046875 169.890625 157.113281 169.835938 157.191406 L 169.511719 157.148438 L 169.785156 155.679688 L 171.207031 155.679688 L 171.207031 156.019531 L 170.066406 156.019531 L 169.910156 156.785156 C 170.085938 156.664062 170.265625 156.605469 170.453125 156.605469 C 170.703125 156.605469 170.914062 156.691406 171.082031 156.863281 C 171.253906 157.035156 171.339844 157.257812 171.339844 157.535156 C 171.339844 157.792969 171.265625 158.015625 171.113281 158.203125 C 170.929688 158.433594 170.683594 158.550781 170.367188 158.550781 C 170.105469 158.550781 169.890625 158.476562 169.726562 158.332031 C 169.5625 158.1875 169.46875 157.992188 169.449219 157.753906 "/>
<path style="fill:none;stroke-width:10;stroke-linecap:butt;stroke-linejoin:miter;stroke:rgb(0%,0%,0%);stroke-opacity:1;stroke-miterlimit:10;" d="M 1700.78125 209.882812 L 1700.78125 197.929688 " transform="matrix(0.1,0,0,-0.1,0,174)"/>
<path style=" stroke:none;fill-rule:nonzero;fill:rgb(0%,0%,0%);fill-opacity:1;" d="M 199.609375 156.34375 L 199.265625 156.367188 C 199.234375 156.230469 199.1875 156.128906 199.128906 156.066406 C 199.035156 155.96875 198.917969 155.917969 198.78125 155.917969 C 198.667969 155.917969 198.570312 155.949219 198.488281 156.011719 C 198.375 156.09375 198.289062 156.214844 198.226562 156.367188 C 198.164062 156.519531 198.128906 156.742188 198.125 157.027344 C 198.210938 156.898438 198.3125 156.804688 198.433594 156.742188 C 198.558594 156.679688 198.683594 156.648438 198.816406 156.648438 C 199.054688 156.648438 199.257812 156.734375 199.421875 156.90625 C 199.585938 157.078125 199.667969 157.300781 199.667969 157.570312 C 199.667969 157.75 199.628906 157.917969 199.546875 158.070312 C 199.46875 158.222656 199.363281 158.34375 199.226562 158.425781 C 199.09375 158.507812 198.9375 158.550781 198.769531 158.550781 C 198.476562 158.550781 198.238281 158.441406 198.054688 158.226562 C 197.867188 158.011719 197.777344 157.65625 197.777344 157.164062 C 197.777344 156.613281 197.878906 156.210938 198.082031 155.957031 C 198.261719 155.738281 198.5 155.632812 198.800781 155.632812 C 199.027344 155.632812 199.214844 155.695312 199.359375 155.820312 C 199.5 155.949219 199.585938 156.121094 199.609375 156.34375 Z M 198.183594 157.578125 C 198.183594 157.699219 198.207031 157.8125 198.257812 157.921875 C 198.308594 158.035156 198.378906 158.117188 198.472656 158.175781 C 198.566406 158.234375 198.660156 158.265625 198.761719 158.265625 C 198.910156 158.265625 199.039062 158.203125 199.144531 158.082031 C 199.253906 157.960938 199.304688 157.800781 199.304688 157.597656 C 199.304688 157.398438 199.253906 157.238281 199.144531 157.125 C 199.039062 157.011719 198.90625 156.953125 198.75 156.953125 C 198.589844 156.953125 198.457031 157.011719 198.347656 157.125 C 198.238281 157.238281 198.183594 157.390625 198.183594 157.578125 "/>
<path style="fill:none;stroke-width:10;stroke-linecap:butt;stroke-linejoin:miter;stroke:rgb(0%,0%,0%);stroke-opacity:1;stroke-miterlimit:10;" d="M 1984.257812 209.882812 L 1984.257812 197.929688 " transform="matrix(0.1,0,0,-0.1,0,174)"/>
<path style=" stroke:none;fill-rule:nonzero;fill:rgb(0%,0%,0%);fill-opacity:1;" d="M 23.722656 150.703125 C 23.722656 150.367188 23.757812 150.09375 23.828125 149.890625 C 23.894531 149.683594 24 149.523438 24.136719 149.410156 C 24.273438 149.300781 24.445312 149.242188 24.652344 149.242188 C 24.808594 149.242188 24.941406 149.273438 25.054688 149.335938 C 25.171875 149.398438 25.265625 149.488281 25.34375 149.605469 C 25.417969 149.722656 25.480469 149.863281 25.519531 150.03125 C 25.5625 150.195312 25.582031 150.417969 25.582031 150.703125 C 25.582031 151.039062 25.546875 151.3125 25.480469 151.515625 C 25.410156 151.722656 25.308594 151.882812 25.171875 151.992188 C 25.035156 152.105469 24.859375 152.164062 24.652344 152.164062 C 24.378906 152.164062 24.164062 152.0625 24.003906 151.863281 C 23.816406 151.625 23.722656 151.238281 23.722656 150.703125 Z M 24.078125 150.703125 C 24.078125 151.171875 24.136719 151.484375 24.246094 151.640625 C 24.355469 151.796875 24.492188 151.875 24.652344 151.875 C 24.816406 151.875 24.953125 151.796875 25.0625 151.640625 C 25.171875 151.484375 25.226562 151.171875 25.226562 150.703125 C 25.226562 150.234375 25.171875 149.921875 25.0625 149.765625 C 24.953125 149.613281 24.8125 149.535156 24.648438 149.535156 C 24.488281 149.535156 24.359375 149.601562 24.261719 149.734375 C 24.140625 149.910156 24.078125 150.234375 24.078125 150.703125 "/>
<path style=" stroke:none;fill-rule:nonzero;fill:rgb(0%,0%,0%);fill-opacity:1;" d="M 25.039062 132.550781 L 24.691406 132.550781 L 24.691406 130.316406 C 24.609375 130.394531 24.496094 130.476562 24.359375 130.554688 C 24.222656 130.636719 24.101562 130.695312 23.992188 130.734375 L 23.992188 130.398438 C 24.1875 130.304688 24.359375 130.195312 24.507812 130.0625 C 24.65625 129.933594 24.757812 129.804688 24.816406 129.679688 L 25.039062 129.679688 L 25.039062 132.550781 "/>
<path style="fill:none;stroke-width:10;stroke-linecap:butt;stroke-linejoin:miter;stroke:rgb(0%,0%,0%);stroke-opacity:1;stroke-miterlimit:10;" d="M 271.484375 428.476562 L 283.476562 428.476562 " transform="matrix(0.1,0,0,-0.1,0,174)"/>
<path style=" stroke:none;fill-rule:nonzero;fill:rgb(0%,0%,0%);fill-opacity:1;" d="M 25.5625 110.253906 L 25.5625 110.589844 L 23.675781 110.589844 C 23.675781 110.507812 23.6875 110.425781 23.71875 110.347656 C 23.769531 110.21875 23.84375 110.09375 23.949219 109.96875 C 24.050781 109.84375 24.207031 109.699219 24.410156 109.535156 C 24.71875 109.277344 24.925781 109.078125 25.035156 108.929688 C 25.148438 108.78125 25.203125 108.640625 25.203125 108.507812 C 25.203125 108.367188 25.152344 108.25 25.050781 108.15625 C 24.953125 108.0625 24.824219 108.015625 24.664062 108.015625 C 24.496094 108.015625 24.359375 108.066406 24.257812 108.164062 C 24.15625 108.265625 24.105469 108.402344 24.105469 108.582031 L 23.742188 108.542969 C 23.769531 108.277344 23.859375 108.074219 24.019531 107.933594 C 24.179688 107.792969 24.398438 107.722656 24.671875 107.722656 C 24.945312 107.722656 25.164062 107.796875 25.324219 107.949219 C 25.484375 108.101562 25.5625 108.289062 25.5625 108.515625 C 25.5625 108.628906 25.539062 108.742188 25.492188 108.855469 C 25.445312 108.964844 25.367188 109.082031 25.257812 109.203125 C 25.152344 109.324219 24.96875 109.492188 24.714844 109.707031 C 24.507812 109.878906 24.375 110 24.3125 110.0625 C 24.253906 110.128906 24.203125 110.191406 24.167969 110.253906 L 25.5625 110.253906 "/>
<path style="fill:none;stroke-width:10;stroke-linecap:butt;stroke-linejoin:miter;stroke:rgb(0%,0%,0%);stroke-opacity:1;stroke-miterlimit:10;" d="M 271.484375 647.070312 L 283.476562 647.070312 " transform="matrix(0.1,0,0,-0.1,0,174)"/>
<path style=" stroke:none;fill-rule:nonzero;fill:rgb(0%,0%,0%);fill-opacity:1;" d="M 23.722656 87.878906 L 24.074219 87.835938 C 24.113281 88.03125 24.183594 88.171875 24.28125 88.261719 C 24.375 88.351562 24.492188 88.394531 24.636719 88.394531 C 24.800781 88.394531 24.941406 88.339844 25.050781 88.222656 C 25.164062 88.109375 25.222656 87.96875 25.222656 87.796875 C 25.222656 87.632812 25.167969 87.5 25.066406 87.398438 C 24.960938 87.292969 24.828125 87.242188 24.664062 87.242188 C 24.597656 87.242188 24.515625 87.253906 24.417969 87.277344 L 24.453125 86.972656 C 24.480469 86.972656 24.496094 86.972656 24.511719 86.972656 C 24.660156 86.972656 24.792969 86.933594 24.914062 86.859375 C 25.035156 86.78125 25.097656 86.660156 25.097656 86.5 C 25.097656 86.371094 25.050781 86.261719 24.964844 86.175781 C 24.878906 86.09375 24.765625 86.050781 24.628906 86.050781 C 24.492188 86.050781 24.378906 86.09375 24.285156 86.175781 C 24.195312 86.261719 24.136719 86.394531 24.109375 86.566406 L 23.761719 86.503906 C 23.804688 86.269531 23.898438 86.085938 24.050781 85.957031 C 24.203125 85.828125 24.390625 85.761719 24.617188 85.761719 C 24.773438 85.761719 24.917969 85.796875 25.050781 85.863281 C 25.179688 85.929688 25.28125 86.019531 25.347656 86.136719 C 25.417969 86.253906 25.453125 86.375 25.453125 86.503906 C 25.453125 86.628906 25.417969 86.742188 25.355469 86.84375 C 25.289062 86.941406 25.191406 87.023438 25.058594 87.085938 C 25.230469 87.121094 25.359375 87.203125 25.457031 87.324219 C 25.546875 87.449219 25.59375 87.601562 25.59375 87.789062 C 25.59375 88.039062 25.503906 88.25 25.320312 88.421875 C 25.136719 88.597656 24.910156 88.683594 24.636719 88.683594 C 24.382812 88.683594 24.171875 88.609375 24.007812 88.457031 C 23.84375 88.308594 23.75 88.113281 23.722656 87.878906 "/>
<path style="fill:none;stroke-width:10;stroke-linecap:butt;stroke-linejoin:miter;stroke:rgb(0%,0%,0%);stroke-opacity:1;stroke-miterlimit:10;" d="M 271.484375 865.664062 L 283.476562 865.664062 " transform="matrix(0.1,0,0,-0.1,0,174)"/>
<path style=" stroke:none;fill-rule:nonzero;fill:rgb(0%,0%,0%);fill-opacity:1;" d="M 24.847656 67.074219 L 24.847656 66.386719 L 23.605469 66.386719 L 23.605469 66.070312 L 24.910156 64.214844 L 25.195312 64.214844 L 25.195312 66.070312 L 25.582031 66.070312 L 25.582031 66.386719 L 25.195312 66.386719 L 25.195312 67.074219 Z M 24.847656 66.070312 L 24.847656 64.777344 L 23.949219 66.070312 L 24.847656 66.070312 "/>
<path style="fill:none;stroke-width:10;stroke-linecap:butt;stroke-linejoin:miter;stroke:rgb(0%,0%,0%);stroke-opacity:1;stroke-miterlimit:10;" d="M 271.484375 1084.257812 L 283.476562 1084.257812 " transform="matrix(0.1,0,0,-0.1,0,174)"/>
<path style=" stroke:none;fill-rule:nonzero;fill:rgb(0%,0%,0%);fill-opacity:1;" d="M 23.722656 44.367188 L 24.09375 44.335938 C 24.117188 44.515625 24.179688 44.648438 24.28125 44.742188 C 24.378906 44.832031 24.5 44.878906 24.640625 44.878906 C 24.808594 44.878906 24.949219 44.8125 25.070312 44.683594 C 25.1875 44.554688 25.246094 44.386719 25.246094 44.179688 C 25.246094 43.980469 25.191406 43.820312 25.078125 43.703125 C 24.964844 43.589844 24.816406 43.53125 24.636719 43.53125 C 24.523438 43.53125 24.421875 43.554688 24.328125 43.609375 C 24.238281 43.660156 24.164062 43.726562 24.109375 43.804688 L 23.785156 43.761719 L 24.0625 42.296875 L 25.484375 42.296875 L 25.484375 42.632812 L 24.339844 42.632812 L 24.183594 43.398438 C 24.359375 43.277344 24.539062 43.21875 24.726562 43.21875 C 24.976562 43.21875 25.1875 43.304688 25.359375 43.476562 C 25.527344 43.648438 25.613281 43.871094 25.613281 44.148438 C 25.613281 44.40625 25.539062 44.628906 25.390625 44.816406 C 25.207031 45.046875 24.957031 45.164062 24.640625 45.164062 C 24.378906 45.164062 24.164062 45.09375 24 44.945312 C 23.835938 44.800781 23.746094 44.605469 23.722656 44.367188 "/>
<path style="fill:none;stroke-width:10;stroke-linecap:butt;stroke-linejoin:miter;stroke:rgb(0%,0%,0%);stroke-opacity:1;stroke-miterlimit:10;" d="M 271.484375 1302.8125 L 283.476562 1302.8125 " transform="matrix(0.1,0,0,-0.1,0,174)"/>
<path style=" stroke:none;fill-rule:nonzero;fill:rgb(0%,0%,0%);fill-opacity:1;" d="M 25.539062 20.996094 L 25.195312 21.023438 C 25.164062 20.886719 25.117188 20.785156 25.058594 20.722656 C 24.964844 20.621094 24.847656 20.574219 24.710938 20.574219 C 24.597656 20.574219 24.5 20.605469 24.417969 20.667969 C 24.304688 20.75 24.21875 20.867188 24.15625 21.023438 C 24.09375 21.175781 24.058594 21.398438 24.054688 21.683594 C 24.136719 21.554688 24.242188 21.460938 24.363281 21.398438 C 24.484375 21.335938 24.613281 21.304688 24.746094 21.304688 C 24.984375 21.304688 25.183594 21.390625 25.347656 21.5625 C 25.511719 21.734375 25.59375 21.957031 25.59375 22.226562 C 25.59375 22.40625 25.554688 22.570312 25.476562 22.726562 C 25.398438 22.878906 25.289062 22.996094 25.15625 23.082031 C 25.019531 23.164062 24.867188 23.207031 24.699219 23.207031 C 24.40625 23.207031 24.167969 23.097656 23.984375 22.882812 C 23.796875 22.664062 23.707031 22.3125 23.707031 21.820312 C 23.707031 21.269531 23.808594 20.863281 24.011719 20.609375 C 24.191406 20.394531 24.429688 20.285156 24.726562 20.285156 C 24.957031 20.285156 25.144531 20.351562 25.285156 20.476562 C 25.429688 20.605469 25.515625 20.777344 25.539062 20.996094 Z M 24.109375 22.234375 C 24.109375 22.355469 24.136719 22.46875 24.183594 22.578125 C 24.234375 22.6875 24.308594 22.773438 24.402344 22.832031 C 24.496094 22.890625 24.589844 22.917969 24.691406 22.917969 C 24.839844 22.917969 24.96875 22.859375 25.074219 22.738281 C 25.179688 22.617188 25.234375 22.453125 25.234375 22.253906 C 25.234375 22.050781 25.179688 21.894531 25.074219 21.78125 C 24.96875 21.664062 24.835938 21.609375 24.679688 21.609375 C 24.519531 21.609375 24.386719 21.664062 24.277344 21.78125 C 24.164062 21.894531 24.109375 22.046875 24.109375 22.234375 "/>
<path style="fill:none;stroke-width:10;stroke-linecap:butt;stroke-linejoin:miter;stroke:rgb(0%,0%,0%);stroke-opacity:1;stroke-miterlimit:10;" d="M 271.484375 1521.40625 L 283.476562 1521.40625 " transform="matrix(0.1,0,0,-0.1,0,174)"/>
<path style="fill:none;stroke-width:10;stroke-linecap:round;stroke-linejoin:round;stroke:rgb(0%,0%,0%);stroke-opacity:1;stroke-miterlimit:10;" d="M -25.15625 -57.1875 L 25.15625 39.804688 M -29.726562 164.023438 L 29.726562 255.742188 M -35.742188 387.148438 L 35.742188 469.804688 M -43.28125 613.710938 L 43.28125 680.429688 M -50.976562 845.976562 L 50.976562 885.3125 M -54.648438 1084.257812 L 54.648438 1084.257812 M -50.976562 1322.460938 L 50.976562 1283.164062 M -43.28125 1554.765625 L 43.28125 1488.046875 M -35.742188 1781.328125 L 35.742188 1698.671875 M 258.320312 -57.1875 L 308.632812 39.804688 M 253.75 164.023438 L 313.203125 255.742188 M 247.734375 387.148438 L 319.21875 469.804688 M 240.195312 613.710938 L 326.71875 680.429688 M 232.460938 845.976562 L 334.453125 885.3125 M 228.828125 1084.257812 L 338.125 1084.257812 M 232.460938 1322.460938 L 334.453125 1283.164062 M 240.195312 1554.765625 L 326.71875 1488.046875 M 247.734375 1781.328125 L 319.21875 1698.671875 M 541.757812 -57.1875 L 592.109375 39.804688 M 537.1875 164.023438 L 596.640625 255.742188 M 531.171875 387.148438 L 602.65625 469.804688 M 523.671875 613.710938 L 610.195312 680.429688 M 515.9375 845.976562 L 617.929688 885.3125 M 512.265625 1084.257812 L 621.5625 1084.257812 M 515.9375 1322.460938 L 617.929688 1283.164062 M 523.671875 1554.765625 L 610.195312 1488.046875 M 531.171875 1781.328125 L 602.65625 1698.671875 M 825.234375 -57.1875 L 875.546875 39.804688 M 820.664062 164.023438 L 880.117188 255.742188 M 814.648438 387.148438 L 886.132812 469.804688 M 807.109375 613.710938 L 893.671875 680.429688 M 799.414062 845.976562 L 901.367188 885.3125 M 795.742188 1084.257812 L 905.039062 1084.257812 M 799.414062 1322.460938 L 901.367188 1283.164062 M 807.109375 1554.765625 L 893.671875 1488.046875 M 814.648438 1781.328125 L 886.132812 1698.671875 M 1108.710938 -57.1875 L 1159.023438 39.804688 M 1104.140625 164.023438 L 1163.59375 255.742188 M 1098.125 387.148438 L 1169.609375 469.804688 M 1090.585938 613.710938 L 1177.148438 680.429688 M 1082.851562 845.976562 L 1184.84375 885.3125 M 1079.21875 1084.257812 L 1188.515625 1084.257812 M 1082.851562 1322.460938 L 1184.84375 1283.164062 M 1090.585938 1554.765625 L 1177.148438 1488.046875 M 1098.125 1781.328125 L 1169.609375 1698.671875 M 1392.148438 -57.1875 L 1442.460938 39.804688 M 1387.578125 164.023438 L 1447.03125 255.742188 M 1381.5625 387.148438 L 1453.046875 469.804688 M 1374.0625 613.710938 L 1460.585938 680.429688 M 1366.328125 845.976562 L 1468.320312 885.3125 M 1362.695312 1084.257812 L 1471.953125 1084.257812 M 1366.328125 1322.460938 L 1468.320312 1283.164062 M 1374.0625 1554.765625 L 1460.585938 1488.046875 M 1381.5625 1781.328125 L 1453.046875 1698.671875 M 1675.625 -57.1875 L 1725.9375 39.804688 M 1671.054688 164.023438 L 1730.507812 255.742188 M 1665.039062 387.148438 L 1736.523438 469.804688 M 1657.5 613.710938 L 1744.0625 680.429688 M 1649.804688 845.976562 L 1751.796875 885.3125 M 1646.132812 1084.257812 L 1755.429688 1084.257812 M 1649.804688 1322.460938 L 1751.796875 1283.164062 M 1657.5 1554.765625 L 1744.0625 1488.046875 M 1665.039062 1781.328125 L 1736.523438 1698.671875 M 1959.101562 -57.1875 L 2009.414062 39.804688 M 1954.53125 164.023438 L 2013.984375 255.742188 M 1948.515625 387.148438 L 2020 469.804688 M 1940.976562 613.710938 L 2027.539062 680.429688 M 1933.28125 845.976562 L 2035.234375 885.3125 M 1929.609375 1084.257812 L 2038.90625 1084.257812 M 1933.28125 1322.460938 L 2035.234375 1283.164062 M 1940.976562 1554.765625 L 2027.539062 1488.046875 M 1948.515625 1781.328125 L 2020 1698.671875 M 2242.539062 -57.1875 L 2292.890625 39.804688 M 2238.007812 164.023438 L 2297.460938 255.742188 M 2231.992188 387.148438 L 2303.476562 469.804688 M 2224.453125 613.710938 L 2310.976562 680.429688 M 2216.71875 845.976562 L 2318.710938 885.3125 M 2213.085938 1084.257812 L 2322.34375 1084.257812 M 2216.71875 1322.460938 L 2318.710938 1283.164062 M 2224.453125 1554.765625 L 2310.976562 1488.046875 M 2231.992188 1781.328125 L 2303.476562 1698.671875 " transform="matrix(0.1,0,0,-0.1,0,174)"/>
</g>
</svg>
