<?xml version="1.0" encoding="UTF-8"?>
<svg xmlns="http://www.w3.org/2000/svg" xmlns:xlink="http://www.w3.org/1999/xlink" width="239pt" height="219pt" viewBox="0 0 239 219" version="1.1">
<g id="surface1">
<rect x="0" y="0" width="239" height="219" style="fill:rgb(100%,100%,100%);fill-opacity:1;stroke:none;"/>
<path style="fill:none;stroke-width:10;stroke-linecap:round;stroke-linejoin:round;stroke:rgb(75.389099%,75.389099%,75.389099%);stroke-opacity:1;stroke-miterlimit:10;" d="M 55.859375 2199.921875 L 55.859375 -130.664062 " transform="matrix(0.1,0,0,-0.1,0,219)"/>
<path style="fill:none;stroke-width:10;stroke-linecap:round;stroke-linejoin:round;stroke:rgb(75.389099%,75.389099%,75.389099%);stroke-opacity:1;stroke-miterlimit:10;" d="M 55.859375 2199.921875 L 55.859375 -130.664062 " transform="matrix(0.1,0,0,-0.1,0,219)"/>
<path style="fill:none;stroke-width:10;stroke-linecap:round;stroke-linejoin:round;stroke:rgb(75.389099%,75.389099%,75.389099%);stroke-opacity:1;stroke-miterlimit:10;" d="M 622.8125 2199.921875 L 622.8125 -130.664062 " transform="matrix(0.1,0,0,-0.1,0,219)"/>
<path style="fill:none;stroke-width:10;stroke-linecap:round;stroke-linejoin:round;stroke:rgb(75.389099%,75.389099%,75.389099%);stroke-opacity:1;stroke-miterlimit:10;" d="M 906.25 2199.921875 L 906.25 -130.664062 " transform="matrix(0.1,0,0,-0.1,0,219)"/>
<path style="fill:none;stroke-width:10;stroke-linecap:round;stroke-linejoin:round;stroke:rgb(75.389099%,75.389099%,75.389099%);stroke-opacity:1;stroke-miterlimit:10;" d="M 1189.726562 2199.921875 L 1189.726562 -130.664062 " transform="matrix(0.1,0,0,-0.1,0,219)"/>
<path style="fill:none;stroke-width:10;stroke-linecap:round;stroke-linejoin:round;stroke:rgb(75.389099%,75.389099%,75.389099%);stroke-opacity:1;stroke-miterlimit:10;" d="M 1473.203125 2199.921875 L 1473.203125 -130.664062 " transform="matrix(0.1,0,0,-0.1,0,219)"/>
<path style="fill:none;stroke-width:10;stroke-linecap:round;stroke-linejoin:round;stroke:rgb(75.389099%,75.389099%,75.389099%);stroke-opacity:1;stroke-miterlimit:10;" d="M 1756.640625 2199.921875 L 1756.640625 -130.664062 " transform="matrix(0.1,0,0,-0.1,0,219)"/>
<path style="fill:none;stroke-width:10;stroke-linecap:round;stroke-linejoin:round;stroke:rgb(75.389099%,75.389099%,75.389099%);stroke-opacity:1;stroke-miterlimit:10;" d="M 2040.117188 2199.921875 L 2040.117188 -130.664062 " transform="matrix(0.1,0,0,-0.1,0,219)"/>
<path style="fill:none;stroke-width:10;stroke-linecap:round;stroke-linejoin:round;stroke:rgb(75.389099%,75.389099%,75.389099%);stroke-opacity:1;stroke-miterlimit:10;" d="M 2323.59375 2199.921875 L 2323.59375 -130.664062 " transform="matrix(0.1,0,0,-0.1,0,219)"/>
<path style="fill:none;stroke-width:10;stroke-linecap:round;stroke-linejoin:round;stroke:rgb(94.139099%,94.139099%,94.139099%);stroke-opacity:1;stroke-miterlimit:10;" d="M -0.820312 2199.921875 L -0.820312 -130.664062 " transform="matrix(0.1,0,0,-0.1,0,219)"/>
<path style="fill:none;stroke-width:10;stroke-linecap:round;stroke-linejoin:round;stroke:rgb(94.139099%,94.139099%,94.139099%);stroke-opacity:1;stroke-miterlimit:10;" d="M 112.578125 2199.921875 L 112.578125 -130.664062 " transform="matrix(0.1,0,0,-0.1,0,219)"/>
<path style="fill:none;stroke-width:10;stroke-linecap:round;stroke-linejoin:round;stroke:rgb(94.139099%,94.139099%,94.139099%);stroke-opacity:1;stroke-miterlimit:10;" d="M 169.257812 2199.921875 L 169.257812 -130.664062 " transform="matrix(0.1,0,0,-0.1,0,219)"/>
<path style="fill:none;stroke-width:10;stroke-linecap:round;stroke-linejoin:round;stroke:rgb(94.139099%,94.139099%,94.139099%);stroke-opacity:1;stroke-miterlimit:10;" d="M 225.9375 2199.921875 L 225.9375 -130.664062 " transform="matrix(0.1,0,0,-0.1,0,219)"/>
<path style="fill:none;stroke-width:10;stroke-linecap:round;stroke-linejoin:round;stroke:rgb(94.139099%,94.139099%,94.139099%);stroke-opacity:1;stroke-miterlimit:10;" d="M 282.65625 2199.921875 L 282.65625 -130.664062 " transform="matrix(0.1,0,0,-0.1,0,219)"/>
<path style="fill:none;stroke-width:10;stroke-linecap:round;stroke-linejoin:round;stroke:rgb(94.139099%,94.139099%,94.139099%);stroke-opacity:1;stroke-miterlimit:10;" d="M 396.015625 2199.921875 L 396.015625 -130.664062 " transform="matrix(0.1,0,0,-0.1,0,219)"/>
<path style="fill:none;stroke-width:10;stroke-linecap:round;stroke-linejoin:round;stroke:rgb(94.139099%,94.139099%,94.139099%);stroke-opacity:1;stroke-miterlimit:10;" d="M 452.734375 2199.921875 L 452.734375 -130.664062 " transform="matrix(0.1,0,0,-0.1,0,219)"/>
<path style="fill:none;stroke-width:10;stroke-linecap:round;stroke-linejoin:round;stroke:rgb(94.139099%,94.139099%,94.139099%);stroke-opacity:1;stroke-miterlimit:10;" d="M 509.414062 2199.921875 L 509.414062 -130.664062 " transform="matrix(0.1,0,0,-0.1,0,219)"/>
<path style="fill:none;stroke-width:10;stroke-linecap:round;stroke-linejoin:round;stroke:rgb(94.139099%,94.139099%,94.139099%);stroke-opacity:1;stroke-miterlimit:10;" d="M 566.09375 2199.921875 L 566.09375 -130.664062 " transform="matrix(0.1,0,0,-0.1,0,219)"/>
<path style="fill:none;stroke-width:10;stroke-linecap:round;stroke-linejoin:round;stroke:rgb(94.139099%,94.139099%,94.139099%);stroke-opacity:1;stroke-miterlimit:10;" d="M 679.492188 2199.921875 L 679.492188 -130.664062 " transform="matrix(0.1,0,0,-0.1,0,219)"/>
<path style="fill:none;stroke-width:10;stroke-linecap:round;stroke-linejoin:round;stroke:rgb(94.139099%,94.139099%,94.139099%);stroke-opacity:1;stroke-miterlimit:10;" d="M 736.171875 2199.921875 L 736.171875 -130.664062 " transform="matrix(0.1,0,0,-0.1,0,219)"/>
<path style="fill:none;stroke-width:10;stroke-linecap:round;stroke-linejoin:round;stroke:rgb(94.139099%,94.139099%,94.139099%);stroke-opacity:1;stroke-miterlimit:10;" d="M 792.890625 2199.921875 L 792.890625 -130.664062 " transform="matrix(0.1,0,0,-0.1,0,219)"/>
<path style="fill:none;stroke-width:10;stroke-linecap:round;stroke-linejoin:round;stroke:rgb(94.139099%,94.139099%,94.139099%);stroke-opacity:1;stroke-miterlimit:10;" d="M 849.570312 2199.921875 L 849.570312 -130.664062 " transform="matrix(0.1,0,0,-0.1,0,219)"/>
<path style="fill:none;stroke-width:10;stroke-linecap:round;stroke-linejoin:round;stroke:rgb(94.139099%,94.139099%,94.139099%);stroke-opacity:1;stroke-miterlimit:10;" d="M 962.96875 2199.921875 L 962.96875 -130.664062 " transform="matrix(0.1,0,0,-0.1,0,219)"/>
<path style="fill:none;stroke-width:10;stroke-linecap:round;stroke-linejoin:round;stroke:rgb(94.139099%,94.139099%,94.139099%);stroke-opacity:1;stroke-miterlimit:10;" d="M 1019.648438 2199.921875 L 1019.648438 -130.664062 " transform="matrix(0.1,0,0,-0.1,0,219)"/>
<path style="fill:none;stroke-width:10;stroke-linecap:round;stroke-linejoin:round;stroke:rgb(94.139099%,94.139099%,94.139099%);stroke-opacity:1;stroke-miterlimit:10;" d="M 1076.328125 2199.921875 L 1076.328125 -130.664062 " transform="matrix(0.1,0,0,-0.1,0,219)"/>
<path style="fill:none;stroke-width:10;stroke-linecap:round;stroke-linejoin:round;stroke:rgb(94.139099%,94.139099%,94.139099%);stroke-opacity:1;stroke-miterlimit:10;" d="M 1133.046875 2199.921875 L 1133.046875 -130.664062 " transform="matrix(0.1,0,0,-0.1,0,219)"/>
<path style="fill:none;stroke-width:10;stroke-linecap:round;stroke-linejoin:round;stroke:rgb(94.139099%,94.139099%,94.139099%);stroke-opacity:1;stroke-miterlimit:10;" d="M 1246.40625 2199.921875 L 1246.40625 -130.664062 " transform="matrix(0.1,0,0,-0.1,0,219)"/>
<path style="fill:none;stroke-width:10;stroke-linecap:round;stroke-linejoin:round;stroke:rgb(94.139099%,94.139099%,94.139099%);stroke-opacity:1;stroke-miterlimit:10;" d="M 1303.125 2199.921875 L 1303.125 -130.664062 " transform="matrix(0.1,0,0,-0.1,0,219)"/>
<path style="fill:none;stroke-width:10;stroke-linecap:round;stroke-linejoin:round;stroke:rgb(94.139099%,94.139099%,94.139099%);stroke-opacity:1;stroke-miterlimit:10;" d="M 1359.804688 2199.921875 L 1359.804688 -130.664062 " transform="matrix(0.1,0,0,-0.1,0,219)"/>
<path style="fill:none;stroke-width:10;stroke-linecap:round;stroke-linejoin:round;stroke:rgb(94.139099%,94.139099%,94.139099%);stroke-opacity:1;stroke-miterlimit:10;" d="M 1416.484375 2199.921875 L 1416.484375 -130.664062 " transform="matrix(0.1,0,0,-0.1,0,219)"/>
<path style="fill:none;stroke-width:10;stroke-linecap:round;stroke-linejoin:round;stroke:rgb(94.139099%,94.139099%,94.139099%);stroke-opacity:1;stroke-miterlimit:10;" d="M 1529.882812 2199.921875 L 1529.882812 -130.664062 " transform="matrix(0.1,0,0,-0.1,0,219)"/>
<path style="fill:none;stroke-width:10;stroke-linecap:round;stroke-linejoin:round;stroke:rgb(94.139099%,94.139099%,94.139099%);stroke-opacity:1;stroke-miterlimit:10;" d="M 1586.5625 2199.921875 L 1586.5625 -130.664062 " transform="matrix(0.1,0,0,-0.1,0,219)"/>
<path style="fill:none;stroke-width:10;stroke-linecap:round;stroke-linejoin:round;stroke:rgb(94.139099%,94.139099%,94.139099%);stroke-opacity:1;stroke-miterlimit:10;" d="M 1643.28125 2199.921875 L 1643.28125 -130.664062 " transform="matrix(0.1,0,0,-0.1,0,219)"/>
<path style="fill:none;stroke-width:10;stroke-linecap:round;stroke-linejoin:round;stroke:rgb(94.139099%,94.139099%,94.139099%);stroke-opacity:1;stroke-miterlimit:10;" d="M 1699.960938 2199.921875 L 1699.960938 -130.664062 " transform="matrix(0.1,0,0,-0.1,0,219)"/>
<path style="fill:none;stroke-width:10;stroke-linecap:round;stroke-linejoin:round;stroke:rgb(94.139099%,94.139099%,94.139099%);stroke-opacity:1;stroke-miterlimit:10;" d="M 1813.359375 2199.921875 L 1813.359375 -130.664062 " transform="matrix(0.1,0,0,-0.1,0,219)"/>
<path style="fill:none;stroke-width:10;stroke-linecap:round;stroke-linejoin:round;stroke:rgb(94.139099%,94.139099%,94.139099%);stroke-opacity:1;stroke-miterlimit:10;" d="M 1870.039062 2199.921875 L 1870.039062 -130.664062 " transform="matrix(0.1,0,0,-0.1,0,219)"/>
<path style="fill:none;stroke-width:10;stroke-linecap:round;stroke-linejoin:round;stroke:rgb(94.139099%,94.139099%,94.139099%);stroke-opacity:1;stroke-miterlimit:10;" d="M 1926.71875 2199.921875 L 1926.71875 -130.664062 " transform="matrix(0.1,0,0,-0.1,0,219)"/>
<path style="fill:none;stroke-width:10;stroke-linecap:round;stroke-linejoin:round;stroke:rgb(94.139099%,94.139099%,94.139099%);stroke-opacity:1;stroke-miterlimit:10;" d="M 1983.4375 2199.921875 L 1983.4375 -130.664062 " transform="matrix(0.1,0,0,-0.1,0,219)"/>
<path style="fill:none;stroke-width:10;stroke-linecap:round;stroke-linejoin:round;stroke:rgb(94.139099%,94.139099%,94.139099%);stroke-opacity:1;stroke-miterlimit:10;" d="M 2096.796875 2199.921875 L 2096.796875 -130.664062 " transform="matrix(0.1,0,0,-0.1,0,219)"/>
<path style="fill:none;stroke-width:10;stroke-linecap:round;stroke-linejoin:round;stroke:rgb(94.139099%,94.139099%,94.139099%);stroke-opacity:1;stroke-miterlimit:10;" d="M 2153.515625 2199.921875 L 2153.515625 -130.664062 " transform="matrix(0.1,0,0,-0.1,0,219)"/>
<path style="fill:none;stroke-width:10;stroke-linecap:round;stroke-linejoin:round;stroke:rgb(94.139099%,94.139099%,94.139099%);stroke-opacity:1;stroke-miterlimit:10;" d="M 2210.195312 2199.921875 L 2210.195312 -130.664062 " transform="matrix(0.1,0,0,-0.1,0,219)"/>
<path style="fill:none;stroke-width:10;stroke-linecap:round;stroke-linejoin:round;stroke:rgb(94.139099%,94.139099%,94.139099%);stroke-opacity:1;stroke-miterlimit:10;" d="M 2266.875 2199.921875 L 2266.875 -130.664062 " transform="matrix(0.1,0,0,-0.1,0,219)"/>
<path style="fill:none;stroke-width:10;stroke-linecap:round;stroke-linejoin:round;stroke:rgb(94.139099%,94.139099%,94.139099%);stroke-opacity:1;stroke-miterlimit:10;" d="M 2380.273438 2199.921875 L 2380.273438 -130.664062 " transform="matrix(0.1,0,0,-0.1,0,219)"/>
<path style="fill:none;stroke-width:10;stroke-linecap:round;stroke-linejoin:round;stroke:rgb(75.389099%,75.389099%,75.389099%);stroke-opacity:1;stroke-miterlimit:10;" d="M -49.6875 2150.898438 L 2832.5 2150.898438 " transform="matrix(0.1,0,0,-0.1,0,219)"/>
<path style="fill:none;stroke-width:10;stroke-linecap:round;stroke-linejoin:round;stroke:rgb(75.389099%,75.389099%,75.389099%);stroke-opacity:1;stroke-miterlimit:10;" d="M -49.6875 2150.898438 L 2832.5 2150.898438 " transform="matrix(0.1,0,0,-0.1,0,219)"/>
<path style="fill:none;stroke-width:10;stroke-linecap:round;stroke-linejoin:round;stroke:rgb(75.389099%,75.389099%,75.389099%);stroke-opacity:1;stroke-miterlimit:10;" d="M -49.6875 1867.421875 L 2832.5 1867.421875 " transform="matrix(0.1,0,0,-0.1,0,219)"/>
<path style="fill:none;stroke-width:10;stroke-linecap:round;stroke-linejoin:round;stroke:rgb(75.389099%,75.389099%,75.389099%);stroke-opacity:1;stroke-miterlimit:10;" d="M -49.6875 1583.945312 L 2832.5 1583.945312 " transform="matrix(0.1,0,0,-0.1,0,219)"/>
<path style="fill:none;stroke-width:10;stroke-linecap:round;stroke-linejoin:round;stroke:rgb(75.389099%,75.389099%,75.389099%);stroke-opacity:1;stroke-miterlimit:10;" d="M -49.6875 1300.507812 L 2832.5 1300.507812 " transform="matrix(0.1,0,0,-0.1,0,219)"/>
<path style="fill:none;stroke-width:10;stroke-linecap:round;stroke-linejoin:round;stroke:rgb(75.389099%,75.389099%,75.389099%);stroke-opacity:1;stroke-miterlimit:10;" d="M -49.6875 1017.03125 L 2832.5 1017.03125 " transform="matrix(0.1,0,0,-0.1,0,219)"/>
<path style="fill:none;stroke-width:10;stroke-linecap:round;stroke-linejoin:round;stroke:rgb(75.389099%,75.389099%,75.389099%);stroke-opacity:1;stroke-miterlimit:10;" d="M -49.6875 733.554688 L 2832.5 733.554688 " transform="matrix(0.1,0,0,-0.1,0,219)"/>
<path style="fill:none;stroke-width:10;stroke-linecap:round;stroke-linejoin:round;stroke:rgb(75.389099%,75.389099%,75.389099%);stroke-opacity:1;stroke-miterlimit:10;" d="M -49.6875 450.078125 L 2832.5 450.078125 " transform="matrix(0.1,0,0,-0.1,0,219)"/>
<path style="fill:none;stroke-width:10;stroke-linecap:round;stroke-linejoin:round;stroke:rgb(94.139099%,94.139099%,94.139099%);stroke-opacity:1;stroke-miterlimit:10;" d="M -49.6875 2150.898438 L 2832.5 2150.898438 " transform="matrix(0.1,0,0,-0.1,0,219)"/>
<path style="fill:none;stroke-width:10;stroke-linecap:round;stroke-linejoin:round;stroke:rgb(94.139099%,94.139099%,94.139099%);stroke-opacity:1;stroke-miterlimit:10;" d="M -49.6875 2094.179688 L 2832.5 2094.179688 " transform="matrix(0.1,0,0,-0.1,0,219)"/>
<path style="fill:none;stroke-width:10;stroke-linecap:round;stroke-linejoin:round;stroke:rgb(94.139099%,94.139099%,94.139099%);stroke-opacity:1;stroke-miterlimit:10;" d="M -49.6875 2037.5 L 2832.5 2037.5 " transform="matrix(0.1,0,0,-0.1,0,219)"/>
<path style="fill:none;stroke-width:10;stroke-linecap:round;stroke-linejoin:round;stroke:rgb(94.139099%,94.139099%,94.139099%);stroke-opacity:1;stroke-miterlimit:10;" d="M -49.6875 1980.78125 L 2832.5 1980.78125 " transform="matrix(0.1,0,0,-0.1,0,219)"/>
<path style="fill:none;stroke-width:10;stroke-linecap:round;stroke-linejoin:round;stroke:rgb(94.139099%,94.139099%,94.139099%);stroke-opacity:1;stroke-miterlimit:10;" d="M -49.6875 1924.101562 L 2832.5 1924.101562 " transform="matrix(0.1,0,0,-0.1,0,219)"/>
<path style="fill:none;stroke-width:10;stroke-linecap:round;stroke-linejoin:round;stroke:rgb(94.139099%,94.139099%,94.139099%);stroke-opacity:1;stroke-miterlimit:10;" d="M -49.6875 1810.703125 L 2832.5 1810.703125 " transform="matrix(0.1,0,0,-0.1,0,219)"/>
<path style="fill:none;stroke-width:10;stroke-linecap:round;stroke-linejoin:round;stroke:rgb(94.139099%,94.139099%,94.139099%);stroke-opacity:1;stroke-miterlimit:10;" d="M -49.6875 1754.023438 L 2832.5 1754.023438 " transform="matrix(0.1,0,0,-0.1,0,219)"/>
<path style="fill:none;stroke-width:10;stroke-linecap:round;stroke-linejoin:round;stroke:rgb(94.139099%,94.139099%,94.139099%);stroke-opacity:1;stroke-miterlimit:10;" d="M -49.6875 1697.34375 L 2832.5 1697.34375 " transform="matrix(0.1,0,0,-0.1,0,219)"/>
<path style="fill:none;stroke-width:10;stroke-linecap:round;stroke-linejoin:round;stroke:rgb(94.139099%,94.139099%,94.139099%);stroke-opacity:1;stroke-miterlimit:10;" d="M -49.6875 1640.625 L 2832.5 1640.625 " transform="matrix(0.1,0,0,-0.1,0,219)"/>
<path style="fill:none;stroke-width:10;stroke-linecap:round;stroke-linejoin:round;stroke:rgb(94.139099%,94.139099%,94.139099%);stroke-opacity:1;stroke-miterlimit:10;" d="M -49.6875 1527.265625 L 2832.5 1527.265625 " transform="matrix(0.1,0,0,-0.1,0,219)"/>
<path style="fill:none;stroke-width:10;stroke-linecap:round;stroke-linejoin:round;stroke:rgb(94.139099%,94.139099%,94.139099%);stroke-opacity:1;stroke-miterlimit:10;" d="M -49.6875 1470.585938 L 2832.5 1470.585938 " transform="matrix(0.1,0,0,-0.1,0,219)"/>
<path style="fill:none;stroke-width:10;stroke-linecap:round;stroke-linejoin:round;stroke:rgb(94.139099%,94.139099%,94.139099%);stroke-opacity:1;stroke-miterlimit:10;" d="M -49.6875 1413.867188 L 2832.5 1413.867188 " transform="matrix(0.1,0,0,-0.1,0,219)"/>
<path style="fill:none;stroke-width:10;stroke-linecap:round;stroke-linejoin:round;stroke:rgb(94.139099%,94.139099%,94.139099%);stroke-opacity:1;stroke-miterlimit:10;" d="M -49.6875 1357.1875 L 2832.5 1357.1875 " transform="matrix(0.1,0,0,-0.1,0,219)"/>
<path style="fill:none;stroke-width:10;stroke-linecap:round;stroke-linejoin:round;stroke:rgb(94.139099%,94.139099%,94.139099%);stroke-opacity:1;stroke-miterlimit:10;" d="M -49.6875 1243.789062 L 2832.5 1243.789062 " transform="matrix(0.1,0,0,-0.1,0,219)"/>
<path style="fill:none;stroke-width:10;stroke-linecap:round;stroke-linejoin:round;stroke:rgb(94.139099%,94.139099%,94.139099%);stroke-opacity:1;stroke-miterlimit:10;" d="M -49.6875 1187.109375 L 2832.5 1187.109375 " transform="matrix(0.1,0,0,-0.1,0,219)"/>
<path style="fill:none;stroke-width:10;stroke-linecap:round;stroke-linejoin:round;stroke:rgb(94.139099%,94.139099%,94.139099%);stroke-opacity:1;stroke-miterlimit:10;" d="M -49.6875 1130.390625 L 2832.5 1130.390625 " transform="matrix(0.1,0,0,-0.1,0,219)"/>
<path style="fill:none;stroke-width:10;stroke-linecap:round;stroke-linejoin:round;stroke:rgb(94.139099%,94.139099%,94.139099%);stroke-opacity:1;stroke-miterlimit:10;" d="M -49.6875 1073.710938 L 2832.5 1073.710938 " transform="matrix(0.1,0,0,-0.1,0,219)"/>
<path style="fill:none;stroke-width:10;stroke-linecap:round;stroke-linejoin:round;stroke:rgb(94.139099%,94.139099%,94.139099%);stroke-opacity:1;stroke-miterlimit:10;" d="M -49.6875 960.3125 L 2832.5 960.3125 " transform="matrix(0.1,0,0,-0.1,0,219)"/>
<path style="fill:none;stroke-width:10;stroke-linecap:round;stroke-linejoin:round;stroke:rgb(94.139099%,94.139099%,94.139099%);stroke-opacity:1;stroke-miterlimit:10;" d="M -49.6875 903.632812 L 2832.5 903.632812 " transform="matrix(0.1,0,0,-0.1,0,219)"/>
<path style="fill:none;stroke-width:10;stroke-linecap:round;stroke-linejoin:round;stroke:rgb(94.139099%,94.139099%,94.139099%);stroke-opacity:1;stroke-miterlimit:10;" d="M -49.6875 846.953125 L 2832.5 846.953125 " transform="matrix(0.1,0,0,-0.1,0,219)"/>
<path style="fill:none;stroke-width:10;stroke-linecap:round;stroke-linejoin:round;stroke:rgb(94.139099%,94.139099%,94.139099%);stroke-opacity:1;stroke-miterlimit:10;" d="M -49.6875 790.234375 L 2832.5 790.234375 " transform="matrix(0.1,0,0,-0.1,0,219)"/>
<path style="fill:none;stroke-width:10;stroke-linecap:round;stroke-linejoin:round;stroke:rgb(94.139099%,94.139099%,94.139099%);stroke-opacity:1;stroke-miterlimit:10;" d="M -49.6875 676.875 L 2832.5 676.875 " transform="matrix(0.1,0,0,-0.1,0,219)"/>
<path style="fill:none;stroke-width:10;stroke-linecap:round;stroke-linejoin:round;stroke:rgb(94.139099%,94.139099%,94.139099%);stroke-opacity:1;stroke-miterlimit:10;" d="M -49.6875 620.15625 L 2832.5 620.15625 " transform="matrix(0.1,0,0,-0.1,0,219)"/>
<path style="fill:none;stroke-width:10;stroke-linecap:round;stroke-linejoin:round;stroke:rgb(94.139099%,94.139099%,94.139099%);stroke-opacity:1;stroke-miterlimit:10;" d="M -49.6875 563.476562 L 2832.5 563.476562 " transform="matrix(0.1,0,0,-0.1,0,219)"/>
<path style="fill:none;stroke-width:10;stroke-linecap:round;stroke-linejoin:round;stroke:rgb(94.139099%,94.139099%,94.139099%);stroke-opacity:1;stroke-miterlimit:10;" d="M -49.6875 506.796875 L 2832.5 506.796875 " transform="matrix(0.1,0,0,-0.1,0,219)"/>
<path style="fill:none;stroke-width:10;stroke-linecap:round;stroke-linejoin:round;stroke:rgb(94.139099%,94.139099%,94.139099%);stroke-opacity:1;stroke-miterlimit:10;" d="M -49.6875 393.398438 L 2832.5 393.398438 " transform="matrix(0.1,0,0,-0.1,0,219)"/>
<path style="fill:none;stroke-width:10;stroke-linecap:round;stroke-linejoin:round;stroke:rgb(94.139099%,94.139099%,94.139099%);stroke-opacity:1;stroke-miterlimit:10;" d="M -49.6875 336.71875 L 2832.5 336.71875 " transform="matrix(0.1,0,0,-0.1,0,219)"/>
<path style="fill:none;stroke-width:10;stroke-linecap:round;stroke-linejoin:round;stroke:rgb(94.139099%,94.139099%,94.139099%);stroke-opacity:1;stroke-miterlimit:10;" d="M -49.6875 280 L 2832.5 280 " transform="matrix(0.1,0,0,-0.1,0,219)"/>
<path style="fill:none;stroke-width:10;stroke-linecap:round;stroke-linejoin:round;stroke:rgb(94.139099%,94.139099%,94.139099%);stroke-opacity:1;stroke-miterlimit:10;" d="M -49.6875 223.320312 L 2832.5 223.320312 " transform="matrix(0.1,0,0,-0.1,0,219)"/>
<path style="fill:none;stroke-width:10;stroke-linecap:round;stroke-linejoin:round;stroke:rgb(94.139099%,94.139099%,94.139099%);stroke-opacity:1;stroke-miterlimit:10;" d="M -49.6875 109.921875 L 2832.5 109.921875 " transform="matrix(0.1,0,0,-0.1,0,219)"/>
<path style="fill:none;stroke-width:10;stroke-linecap:round;stroke-linejoin:round;stroke:rgb(94.139099%,94.139099%,94.139099%);stroke-opacity:1;stroke-miterlimit:10;" d="M -49.6875 53.242188 L 2832.5 53.242188 " transform="matrix(0.1,0,0,-0.1,0,219)"/>
<path style="fill:none;stroke-width:10;stroke-linecap:round;stroke-linejoin:round;stroke:rgb(94.139099%,94.139099%,94.139099%);stroke-opacity:1;stroke-miterlimit:10;" d="M -49.6875 -3.4375 L 2832.5 -3.4375 " transform="matrix(0.1,0,0,-0.1,0,219)"/>
<path style="fill:none;stroke-width:10;stroke-linecap:butt;stroke-linejoin:miter;stroke:rgb(0%,0%,0%);stroke-opacity:1;stroke-miterlimit:10;" d="M 339.335938 2190 L 339.335938 -130.664062 " transform="matrix(0.1,0,0,-0.1,0,219)"/>
<path style="fill:none;stroke-width:10;stroke-linecap:butt;stroke-linejoin:miter;stroke:rgb(0%,0%,0%);stroke-opacity:1;stroke-miterlimit:10;" d="M 339.335938 2194.960938 L 319.453125 2175.078125 " transform="matrix(0.1,0,0,-0.1,0,219)"/>
<path style="fill:none;stroke-width:10;stroke-linecap:butt;stroke-linejoin:miter;stroke:rgb(0%,0%,0%);stroke-opacity:1;stroke-miterlimit:10;" d="M 339.335938 2194.960938 L 359.21875 2175.078125 " transform="matrix(0.1,0,0,-0.1,0,219)"/>
<path style="fill:none;stroke-width:10;stroke-linecap:butt;stroke-linejoin:miter;stroke:rgb(0%,0%,0%);stroke-opacity:1;stroke-miterlimit:10;" d="M -49.6875 166.640625 L 2822.578125 166.640625 " transform="matrix(0.1,0,0,-0.1,0,219)"/>
<path style=" stroke:none;fill-rule:nonzero;fill:rgb(0%,0%,0%);fill-opacity:1;" d="M 3.289062 208.621094 L 3.289062 208.222656 L 5.65625 208.222656 L 5.65625 208.621094 Z M 6.859375 210.203125 L 6.859375 209.769531 L 7.722656 209.769531 L 7.722656 206.371094 L 6.859375 206.585938 L 6.859375 206.144531 L 8.296875 205.785156 L 8.296875 209.769531 L 9.160156 209.769531 L 9.160156 210.203125 "/>
<path style=" stroke:none;fill-rule:nonzero;fill:rgb(0%,0%,0%);fill-opacity:1;" d="M 62.019531 210.203125 L 62.019531 209.769531 L 62.882812 209.769531 L 62.882812 206.371094 L 62.019531 206.585938 L 62.019531 206.144531 L 63.457031 205.785156 L 63.457031 209.769531 L 64.320312 209.769531 L 64.320312 210.203125 "/>
<path style=" stroke:none;fill-rule:nonzero;fill:rgb(0%,0%,0%);fill-opacity:1;" d="M 89.941406 210.203125 L 89.941406 209.699219 C 90.109375 209.308594 90.449219 208.882812 90.957031 208.421875 L 91.285156 208.128906 C 91.707031 207.746094 91.917969 207.367188 91.917969 206.988281 C 91.917969 206.75 91.847656 206.558594 91.703125 206.421875 C 91.558594 206.285156 91.359375 206.214844 91.105469 206.214844 C 90.808594 206.214844 90.457031 206.332031 90.050781 206.5625 L 90.050781 206.054688 C 90.433594 205.875 90.8125 205.785156 91.1875 205.785156 C 91.59375 205.785156 91.917969 205.894531 92.160156 206.109375 C 92.40625 206.328125 92.527344 206.617188 92.527344 206.976562 C 92.527344 207.234375 92.464844 207.460938 92.34375 207.664062 C 92.21875 207.863281 91.988281 208.105469 91.65625 208.390625 L 91.433594 208.578125 C 90.972656 208.96875 90.707031 209.34375 90.636719 209.699219 L 92.507812 209.699219 L 92.507812 210.203125 "/>
<path style=" stroke:none;fill-rule:nonzero;fill:rgb(0%,0%,0%);fill-opacity:1;" d="M 118.378906 210.167969 L 118.378906 209.632812 C 118.789062 209.796875 119.113281 209.878906 119.351562 209.878906 C 119.625 209.878906 119.847656 209.796875 120.019531 209.636719 C 120.191406 209.476562 120.277344 209.269531 120.277344 209.015625 C 120.277344 208.410156 119.851562 208.109375 119.003906 208.109375 L 118.777344 208.109375 L 118.777344 207.71875 L 118.976562 207.71875 C 119.773438 207.71875 120.171875 207.4375 120.171875 206.875 C 120.171875 206.433594 119.910156 206.214844 119.386719 206.214844 C 119.097656 206.214844 118.78125 206.296875 118.4375 206.457031 L 118.4375 205.957031 C 118.777344 205.839844 119.105469 205.785156 119.425781 205.785156 C 120.308594 205.785156 120.746094 206.117188 120.746094 206.78125 C 120.746094 207.289062 120.449219 207.652344 119.847656 207.867188 C 120.542969 208.027344 120.890625 208.40625 120.890625 209.007812 C 120.890625 209.414062 120.757812 209.730469 120.488281 209.960938 C 120.222656 210.195312 119.851562 210.308594 119.386719 210.308594 C 119.121094 210.308594 118.785156 210.261719 118.378906 210.167969 "/>
<path style=" stroke:none;fill-rule:nonzero;fill:rgb(0%,0%,0%);fill-opacity:1;" d="M 148.34375 210.203125 L 148.34375 208.980469 L 146.402344 208.980469 L 146.402344 208.546875 L 148.34375 205.890625 L 148.882812 205.890625 L 148.882812 208.511719 L 149.457031 208.511719 L 149.457031 208.980469 L 148.882812 208.980469 L 148.882812 210.203125 Z M 146.964844 208.511719 L 148.378906 208.511719 L 148.378906 206.597656 "/>
<path style=" stroke:none;fill-rule:nonzero;fill:rgb(0%,0%,0%);fill-opacity:1;" d="M 175.148438 210.21875 L 175.148438 209.707031 C 175.433594 209.820312 175.703125 209.878906 175.964844 209.878906 C 176.246094 209.878906 176.46875 209.792969 176.632812 209.628906 C 176.792969 209.460938 176.875 209.230469 176.875 208.9375 C 176.875 208.292969 176.429688 207.96875 175.539062 207.96875 C 175.4375 207.96875 175.332031 207.976562 175.21875 207.988281 L 175.21875 205.890625 L 177.402344 205.890625 L 177.402344 206.394531 L 175.722656 206.394531 L 175.722656 207.527344 C 176.277344 207.527344 176.710938 207.65625 177.019531 207.910156 C 177.328125 208.164062 177.484375 208.515625 177.484375 208.96875 C 177.484375 209.386719 177.34375 209.714844 177.0625 209.953125 C 176.777344 210.191406 176.386719 210.308594 175.886719 210.308594 C 175.671875 210.308594 175.421875 210.277344 175.148438 210.21875 "/>
<path style=" stroke:none;fill-rule:nonzero;fill:rgb(0%,0%,0%);fill-opacity:1;" d="M 203.773438 207.96875 C 204.046875 207.613281 204.390625 207.433594 204.804688 207.433594 C 205.183594 207.433594 205.492188 207.558594 205.730469 207.808594 C 205.96875 208.058594 206.089844 208.378906 206.089844 208.769531 C 206.089844 209.21875 205.957031 209.585938 205.6875 209.875 C 205.417969 210.164062 205.078125 210.308594 204.664062 210.308594 C 204.1875 210.308594 203.816406 210.117188 203.546875 209.734375 C 203.28125 209.351562 203.144531 208.824219 203.144531 208.144531 C 203.144531 207.394531 203.300781 206.816406 203.609375 206.402344 C 203.914062 205.988281 204.347656 205.78125 204.90625 205.78125 C 205.164062 205.78125 205.484375 205.835938 205.867188 205.945312 L 205.867188 206.445312 C 205.464844 206.289062 205.132812 206.210938 204.871094 206.210938 C 204.140625 206.210938 203.773438 206.796875 203.773438 207.96875 Z M 205.515625 208.898438 C 205.515625 208.570312 205.441406 208.316406 205.292969 208.128906 C 205.148438 207.941406 204.945312 207.847656 204.683594 207.847656 C 204.441406 207.847656 204.230469 207.929688 204.058594 208.09375 C 203.882812 208.257812 203.796875 208.453125 203.796875 208.679688 C 203.796875 209.042969 203.878906 209.332031 204.046875 209.550781 C 204.210938 209.769531 204.429688 209.878906 204.703125 209.878906 C 204.949219 209.878906 205.148438 209.789062 205.292969 209.613281 C 205.441406 209.433594 205.515625 209.195312 205.515625 208.898438 "/>
<path style=" stroke:none;fill-rule:nonzero;fill:rgb(0%,0%,0%);fill-opacity:1;" d="M 231.96875 210.203125 C 232.023438 209.867188 232.105469 209.574219 232.210938 209.332031 C 232.3125 209.085938 232.496094 208.75 232.761719 208.324219 L 233.9375 206.429688 L 231.71875 206.429688 L 231.71875 205.890625 L 234.484375 205.890625 L 234.484375 206.429688 C 233.378906 208.058594 232.761719 209.316406 232.628906 210.203125 "/>
<path style=" stroke:none;fill-rule:nonzero;fill:rgb(0%,0%,0%);fill-opacity:1;" d="M 27.234375 176.410156 L 27.234375 175.980469 L 28.097656 175.980469 L 28.097656 172.578125 L 27.234375 172.792969 L 27.234375 172.351562 L 28.671875 171.992188 L 28.671875 175.980469 L 29.535156 175.980469 L 29.535156 176.410156 "/>
<path style=" stroke:none;fill-rule:nonzero;fill:rgb(0%,0%,0%);fill-opacity:1;" d="M 26.832031 148.085938 L 26.832031 147.582031 C 27 147.191406 27.335938 146.765625 27.84375 146.304688 L 28.175781 146.011719 C 28.597656 145.628906 28.808594 145.25 28.808594 144.875 C 28.808594 144.632812 28.738281 144.445312 28.59375 144.304688 C 28.449219 144.167969 28.25 144.097656 27.996094 144.097656 C 27.699219 144.097656 27.34375 144.214844 26.941406 144.445312 L 26.941406 143.9375 C 27.324219 143.757812 27.703125 143.667969 28.078125 143.667969 C 28.480469 143.667969 28.804688 143.777344 29.050781 143.992188 C 29.296875 144.210938 29.417969 144.5 29.417969 144.859375 C 29.417969 145.117188 29.355469 145.347656 29.234375 145.546875 C 29.109375 145.746094 28.878906 145.988281 28.542969 146.273438 L 28.324219 146.464844 C 27.863281 146.851562 27.597656 147.226562 27.527344 147.582031 L 29.398438 147.582031 L 29.398438 148.085938 "/>
<path style=" stroke:none;fill-rule:nonzero;fill:rgb(0%,0%,0%);fill-opacity:1;" d="M 26.941406 119.726562 L 26.941406 119.191406 C 27.355469 119.355469 27.679688 119.4375 27.914062 119.4375 C 28.1875 119.4375 28.410156 119.355469 28.582031 119.195312 C 28.753906 119.035156 28.839844 118.828125 28.839844 118.574219 C 28.839844 117.96875 28.417969 117.667969 27.570312 117.667969 L 27.34375 117.667969 L 27.34375 117.277344 L 27.542969 117.277344 C 28.339844 117.277344 28.738281 116.996094 28.738281 116.433594 C 28.738281 115.992188 28.472656 115.773438 27.949219 115.773438 C 27.664062 115.773438 27.347656 115.855469 27 116.015625 L 27 115.515625 C 27.339844 115.398438 27.671875 115.34375 27.992188 115.34375 C 28.871094 115.34375 29.3125 115.675781 29.3125 116.34375 C 29.3125 116.847656 29.011719 117.210938 28.414062 117.425781 C 29.109375 117.585938 29.457031 117.964844 29.457031 118.566406 C 29.457031 118.972656 29.320312 119.289062 29.054688 119.523438 C 28.785156 119.753906 28.417969 119.867188 27.949219 119.867188 C 27.683594 119.867188 27.347656 119.820312 26.941406 119.726562 "/>
<path style=" stroke:none;fill-rule:nonzero;fill:rgb(0%,0%,0%);fill-opacity:1;" d="M 28.582031 91.433594 L 28.582031 90.214844 L 26.644531 90.214844 L 26.644531 89.78125 L 28.582031 87.125 L 29.121094 87.125 L 29.121094 89.746094 L 29.699219 89.746094 L 29.699219 90.214844 L 29.121094 90.214844 L 29.121094 91.433594 Z M 27.207031 89.746094 L 28.621094 89.746094 L 28.621094 87.828125 "/>
<path style=" stroke:none;fill-rule:nonzero;fill:rgb(0%,0%,0%);fill-opacity:1;" d="M 27.0625 62.628906 L 27.0625 62.117188 C 27.347656 62.234375 27.621094 62.289062 27.878906 62.289062 C 28.160156 62.289062 28.382812 62.207031 28.546875 62.039062 C 28.707031 61.871094 28.789062 61.644531 28.789062 61.351562 C 28.789062 60.703125 28.34375 60.378906 27.453125 60.378906 C 27.351562 60.378906 27.246094 60.386719 27.136719 60.398438 L 27.136719 58.304688 L 29.316406 58.304688 L 29.316406 58.804688 L 27.640625 58.804688 L 27.640625 59.941406 C 28.191406 59.941406 28.625 60.066406 28.933594 60.320312 C 29.246094 60.574219 29.402344 60.929688 29.402344 61.378906 C 29.402344 61.796875 29.257812 62.128906 28.976562 62.363281 C 28.695312 62.601562 28.300781 62.722656 27.800781 62.722656 C 27.585938 62.722656 27.339844 62.691406 27.0625 62.628906 "/>
<path style=" stroke:none;fill-rule:nonzero;fill:rgb(0%,0%,0%);fill-opacity:1;" d="M 27.363281 32.054688 C 27.636719 31.699219 27.980469 31.523438 28.394531 31.523438 C 28.773438 31.523438 29.082031 31.648438 29.320312 31.894531 C 29.558594 32.144531 29.679688 32.464844 29.679688 32.855469 C 29.679688 33.304688 29.546875 33.671875 29.277344 33.960938 C 29.007812 34.25 28.667969 34.394531 28.253906 34.394531 C 27.777344 34.394531 27.40625 34.203125 27.136719 33.820312 C 26.871094 33.441406 26.734375 32.910156 26.734375 32.230469 C 26.734375 31.480469 26.890625 30.902344 27.199219 30.488281 C 27.503906 30.074219 27.9375 29.867188 28.496094 29.867188 C 28.753906 29.867188 29.074219 29.921875 29.457031 30.03125 L 29.457031 30.53125 C 29.054688 30.378906 28.722656 30.300781 28.464844 30.300781 C 27.730469 30.300781 27.363281 30.882812 27.363281 32.054688 Z M 29.101562 32.984375 C 29.101562 32.65625 29.03125 32.402344 28.882812 32.214844 C 28.738281 32.027344 28.535156 31.9375 28.273438 31.9375 C 28.03125 31.9375 27.824219 32.015625 27.648438 32.179688 C 27.472656 32.34375 27.386719 32.539062 27.386719 32.769531 C 27.386719 33.128906 27.46875 33.417969 27.632812 33.636719 C 27.800781 33.855469 28.019531 33.964844 28.292969 33.964844 C 28.539062 33.964844 28.738281 33.875 28.882812 33.699219 C 29.03125 33.519531 29.101562 33.28125 29.101562 32.984375 "/>
<path style=" stroke:none;fill-rule:nonzero;fill:rgb(0%,0%,0%);fill-opacity:1;" d="M 28.207031 210.308594 C 27.761719 210.308594 27.402344 210.101562 27.128906 209.679688 C 26.851562 209.261719 26.714844 208.71875 26.714844 208.042969 C 26.714844 207.363281 26.855469 206.816406 27.132812 206.40625 C 27.40625 205.992188 27.773438 205.785156 28.222656 205.785156 C 28.675781 205.785156 29.039062 205.992188 29.316406 206.40625 C 29.59375 206.816406 29.730469 207.359375 29.730469 208.035156 C 29.730469 208.726562 29.59375 209.277344 29.316406 209.691406 C 29.039062 210.101562 28.671875 210.308594 28.207031 210.308594 Z M 28.210938 209.878906 C 28.820312 209.878906 29.125 209.261719 29.125 208.027344 C 29.125 206.820312 28.824219 206.214844 28.222656 206.214844 C 27.625 206.214844 27.328125 206.824219 27.328125 208.042969 C 27.328125 209.265625 27.621094 209.878906 28.210938 209.878906 "/>
<path style="fill:none;stroke-width:30;stroke-linecap:round;stroke-linejoin:round;stroke:rgb(30.200195%,30.200195%,100%);stroke-opacity:1;stroke-miterlimit:10;" d="M -49.6875 177.773438 L -27.1875 182.148438 L -4.648438 187.734375 L 17.851562 194.609375 L 40.390625 202.929688 L 62.890625 212.8125 L 85.429688 224.296875 L 107.929688 237.460938 L 130.429688 252.265625 L 152.96875 268.671875 L 175.46875 286.601562 L 198.007812 305.976562 L 220.507812 326.601562 L 243.046875 348.398438 L 265.546875 371.09375 L 288.046875 394.609375 L 310.585938 418.710938 L 333.085938 443.242188 L 355.625 468.007812 L 378.125 492.851562 L 400.664062 517.617188 L 423.164062 542.1875 L 445.703125 566.367188 L 468.203125 590.078125 L 490.703125 613.242188 L 513.242188 635.742188 L 535.742188 657.539062 L 558.28125 678.59375 L 580.78125 698.828125 L 603.320312 718.203125 L 625.820312 736.757812 L 648.359375 754.414062 L 670.859375 771.210938 L 693.359375 787.1875 L 715.898438 802.304688 L 738.398438 816.601562 L 760.9375 830.078125 L 783.4375 842.773438 L 805.9375 854.6875 L 828.476562 865.9375 L 850.976562 876.445312 L 873.515625 886.328125 L 896.015625 895.546875 L 918.554688 904.179688 L 941.054688 912.226562 L 963.59375 919.765625 L 986.09375 926.757812 L 1008.59375 933.320312 L 1031.132812 939.414062 L 1053.632812 945.078125 L 1076.171875 950.351562 L 1098.671875 955.234375 L 1121.210938 959.804688 L 1143.710938 964.023438 L 1166.210938 967.96875 L 1188.75 971.601562 L 1211.289062 975 L 1233.789062 978.125 L 1256.289062 981.015625 L 1278.828125 983.710938 L 1301.328125 986.210938 L 1323.867188 988.515625 L 1346.367188 990.664062 L 1368.90625 992.65625 L 1391.40625 994.492188 L 1413.90625 996.171875 L 1436.445312 997.773438 L 1458.945312 999.21875 L 1481.484375 1000.585938 L 1503.984375 1001.796875 L 1526.523438 1002.96875 L 1549.023438 1004.023438 L 1571.523438 1005.039062 L 1594.0625 1005.9375 L 1616.5625 1006.757812 L 1639.101562 1007.539062 L 1661.601562 1008.28125 L 1684.140625 1008.945312 L 1729.140625 1010.117188 L 1774.21875 1011.132812 L 1819.21875 1011.992188 L 1841.757812 1012.382812 L 1864.257812 1012.734375 L 1886.796875 1013.046875 L 1909.296875 1013.359375 L 1931.835938 1013.632812 L 1954.335938 1013.90625 L 1976.835938 1014.140625 L 1999.375 1014.335938 L 2021.875 1014.570312 L 2044.414062 1014.765625 L 2066.914062 1014.921875 L 2089.453125 1015.078125 L 2111.953125 1015.234375 L 2134.453125 1015.351562 L 2156.992188 1015.507812 L 2179.492188 1015.625 L 2202.03125 1015.703125 L 2224.53125 1015.820312 L 2247.03125 1015.898438 L 2292.109375 1016.054688 L 2314.609375 1016.132812 L 2337.148438 1016.210938 L 2359.648438 1016.289062 L 2382.148438 1016.328125 L 2404.6875 1016.367188 L 2427.1875 1016.445312 L 2449.726562 1016.484375 L 2472.226562 1016.523438 L 2494.765625 1016.5625 L 2539.765625 1016.640625 L 2562.304688 1016.640625 L 2584.804688 1016.679688 L 2607.34375 1016.71875 L 2629.84375 1016.71875 L 2652.34375 1016.757812 L 2674.882812 1016.796875 L 2719.921875 1016.796875 L 2742.421875 1016.835938 L 2764.960938 1016.835938 L 2787.460938 1016.875 L 2832.5 1016.875 " transform="matrix(0.1,0,0,-0.1,0,219)"/>
<path style="fill:none;stroke-width:25;stroke-linecap:round;stroke-linejoin:round;stroke:rgb(100%,30.200195%,30.200195%);stroke-opacity:1;stroke-miterlimit:10;" d="M 265.546875 2256.640625 L 271.171875 2220.039062 L 276.796875 2184.726562 L 282.421875 2150.742188 L 288.046875 2117.96875 L 293.710938 2086.328125 L 299.335938 2055.859375 L 304.960938 2026.445312 L 310.585938 1998.046875 L 316.210938 1970.625 L 321.835938 1944.140625 L 327.460938 1918.554688 L 333.085938 1893.828125 L 344.335938 1846.835938 L 355.625 1802.851562 L 366.875 1761.679688 L 378.125 1723.085938 L 389.375 1686.875 L 400.664062 1652.890625 L 411.914062 1620.9375 L 423.164062 1590.859375 L 434.414062 1562.539062 L 445.703125 1535.859375 L 468.203125 1486.953125 L 490.703125 1443.320312 L 513.242188 1404.335938 L 535.742188 1369.375 L 558.28125 1337.929688 L 580.78125 1309.648438 L 603.320312 1284.140625 L 625.820312 1261.054688 L 648.359375 1240.195312 L 670.859375 1221.25 L 693.359375 1204.0625 L 715.898438 1188.4375 L 738.398438 1174.21875 L 760.9375 1161.210938 L 783.4375 1149.414062 L 805.9375 1138.59375 L 828.476562 1128.75 L 850.976562 1119.726562 L 873.515625 1111.445312 L 896.015625 1103.867188 L 918.554688 1096.953125 L 941.054688 1090.585938 L 963.59375 1084.765625 L 986.09375 1079.414062 L 1008.59375 1074.492188 L 1031.132812 1069.960938 L 1053.632812 1065.78125 L 1076.171875 1061.992188 L 1098.671875 1058.476562 L 1121.210938 1055.234375 L 1143.710938 1052.265625 L 1166.210938 1049.492188 L 1188.75 1046.992188 L 1211.289062 1044.648438 L 1233.789062 1042.539062 L 1256.289062 1040.546875 L 1278.828125 1038.710938 L 1301.328125 1037.03125 L 1323.867188 1035.507812 L 1346.367188 1034.0625 L 1368.90625 1032.773438 L 1391.40625 1031.5625 L 1413.90625 1030.429688 L 1436.445312 1029.414062 L 1458.945312 1028.4375 L 1481.484375 1027.578125 L 1503.984375 1026.757812 L 1526.523438 1026.015625 L 1549.023438 1025.3125 L 1571.523438 1024.6875 L 1594.0625 1024.101562 L 1616.5625 1023.554688 L 1639.101562 1023.046875 L 1661.601562 1022.578125 L 1684.140625 1022.1875 L 1706.640625 1021.757812 L 1729.140625 1021.40625 L 1751.679688 1021.054688 L 1774.21875 1020.78125 L 1796.71875 1020.46875 L 1819.21875 1020.195312 L 1841.757812 1019.960938 L 1864.257812 1019.765625 L 1886.796875 1019.53125 L 1909.296875 1019.335938 L 1931.835938 1019.179688 L 1954.335938 1018.984375 L 1976.835938 1018.867188 L 1999.375 1018.710938 L 2021.875 1018.59375 L 2044.414062 1018.476562 L 2066.914062 1018.359375 L 2089.453125 1018.242188 L 2134.453125 1018.085938 L 2156.992188 1018.007812 L 2179.492188 1017.929688 L 2202.03125 1017.851562 L 2224.53125 1017.773438 L 2247.03125 1017.734375 L 2269.570312 1017.65625 L 2292.109375 1017.617188 L 2314.609375 1017.578125 L 2337.148438 1017.539062 L 2382.148438 1017.460938 L 2404.6875 1017.421875 L 2427.1875 1017.382812 L 2449.726562 1017.382812 L 2472.226562 1017.34375 L 2494.765625 1017.304688 L 2517.265625 1017.304688 L 2539.765625 1017.265625 L 2562.304688 1017.265625 L 2584.804688 1017.226562 L 2629.84375 1017.226562 L 2652.34375 1017.1875 L 2697.382812 1017.1875 L 2719.921875 1017.148438 L 2787.460938 1017.148438 L 2809.960938 1017.109375 L 2832.5 1017.109375 " transform="matrix(0.1,0,0,-0.1,0,219)"/>
<path style="fill:none;stroke-width:25;stroke-linecap:round;stroke-linejoin:round;stroke:rgb(65.234375%,30.200195%,65.234375%);stroke-opacity:1;stroke-miterlimit:10;" d="M -68.90625 184.960938 L -30.46875 196.640625 M -65.585938 258.867188 L -33.789062 283.4375 M -63.945312 337.34375 L -35.46875 365.703125 M -63.28125 417.109375 L -36.132812 446.71875 M -63.242188 497.421875 L -36.171875 527.109375 M -63.632812 578.164062 L -35.742188 607.109375 M -64.453125 659.335938 L -34.960938 686.640625 M -65.625 741.132812 L -33.75 765.585938 M -67.148438 823.75 L -32.265625 843.671875 M -68.710938 907.617188 L -30.664062 920.546875 M -69.726562 992.890625 L -29.648438 996.015625 M -69.335938 1078.945312 L -30.039062 1070.664062 M -67.5 1164.53125 L -31.914062 1145.859375 M -64.921875 1248.671875 L -34.492188 1222.421875 M -62.421875 1331.445312 L -36.953125 1300.351562 M -60.351562 1413.320312 L -39.0625 1379.257812 M -58.671875 1494.609375 L -40.703125 1458.671875 M -57.382812 1575.585938 L -41.992188 1538.4375 M -56.367188 1656.328125 L -43.007812 1618.4375 M -55.546875 1736.953125 L -43.867188 1698.515625 M -54.882812 1817.539062 L -44.53125 1778.710938 M -54.335938 1898.046875 L -45.078125 1858.945312 M -53.867188 1978.515625 L -45.507812 1939.179688 M -53.476562 2058.945312 L -45.898438 2019.492188 M -53.164062 2139.375 L -46.25 2099.765625 M -52.851562 2219.765625 L -46.523438 2180.117188 M 30.46875 184.960938 L 68.90625 196.640625 M 33.789062 258.867188 L 65.585938 283.4375 M 35.46875 337.34375 L 63.945312 365.703125 M 36.132812 417.109375 L 63.28125 446.71875 M 36.171875 497.421875 L 63.242188 527.109375 M 35.742188 578.164062 L 63.632812 607.109375 M 34.960938 659.335938 L 64.453125 686.640625 M 33.75 741.132812 L 65.625 765.585938 M 32.265625 823.75 L 67.148438 843.671875 M 30.664062 907.617188 L 68.710938 920.546875 M 29.648438 992.890625 L 69.726562 996.015625 M 30.039062 1078.945312 L 69.335938 1070.664062 M 31.914062 1164.53125 L 67.5 1145.859375 M 34.492188 1248.671875 L 64.921875 1222.421875 M 36.953125 1331.445312 L 62.421875 1300.351562 M 39.0625 1413.320312 L 60.351562 1379.257812 M 40.703125 1494.609375 L 58.671875 1458.671875 M 41.992188 1575.585938 L 57.382812 1538.4375 M 43.007812 1656.328125 L 56.367188 1618.4375 M 43.867188 1736.953125 L 55.546875 1698.515625 M 44.53125 1817.539062 L 54.882812 1778.710938 M 45.078125 1898.046875 L 54.335938 1858.945312 M 45.507812 1978.515625 L 53.867188 1939.179688 M 45.898438 2058.945312 L 53.476562 2019.492188 M 46.25 2139.375 L 53.164062 2099.765625 M 46.523438 2219.765625 L 52.851562 2180.117188 M 129.84375 184.960938 L 168.320312 196.640625 M 133.203125 258.867188 L 164.960938 283.4375 M 134.84375 337.34375 L 163.320312 365.703125 M 135.507812 417.109375 L 162.65625 446.71875 M 135.546875 497.421875 L 162.617188 527.109375 M 135.15625 578.164062 L 163.007812 607.109375 M 134.335938 659.335938 L 163.828125 686.640625 M 133.164062 741.132812 L 165 765.585938 M 131.640625 823.75 L 166.523438 843.671875 M 130.078125 907.617188 L 168.085938 920.546875 M 129.0625 992.890625 L 169.101562 996.015625 M 129.414062 1078.945312 L 168.75 1070.664062 M 131.289062 1164.53125 L 166.875 1145.859375 M 133.867188 1248.671875 L 164.296875 1222.421875 M 136.367188 1331.445312 L 161.796875 1300.351562 M 138.4375 1413.320312 L 159.726562 1379.257812 M 140.078125 1494.609375 L 158.085938 1458.671875 M 141.367188 1575.585938 L 156.757812 1538.4375 M 142.421875 1656.328125 L 155.742188 1618.4375 M 143.242188 1736.953125 L 154.921875 1698.515625 M 143.90625 1817.539062 L 154.257812 1778.710938 M 144.453125 1898.046875 L 153.710938 1858.945312 M 144.921875 1978.515625 L 153.242188 1939.179688 M 145.3125 2058.945312 L 152.851562 2019.492188 M 145.625 2139.375 L 152.539062 2099.765625 M 145.898438 2219.765625 L 152.265625 2180.117188 M 229.21875 184.960938 L 267.695312 196.640625 M 232.578125 258.867188 L 264.375 283.4375 M 234.21875 337.34375 L 262.695312 365.703125 M 234.882812 417.109375 L 262.03125 446.71875 M 234.921875 497.421875 L 261.992188 527.109375 M 234.53125 578.164062 L 262.382812 607.109375 M 233.710938 659.335938 L 263.203125 686.640625 M 232.539062 741.132812 L 264.414062 765.585938 M 231.015625 823.75 L 265.898438 843.671875 M 229.453125 907.617188 L 267.5 920.546875 M 228.4375 992.890625 L 268.476562 996.015625 M 228.789062 1078.945312 L 268.125 1070.664062 M 230.664062 1164.53125 L 266.25 1145.859375 M 233.242188 1248.671875 L 263.671875 1222.421875 M 235.742188 1331.445312 L 261.210938 1300.351562 M 237.8125 1413.320312 L 259.101562 1379.257812 M 239.453125 1494.609375 L 257.460938 1458.671875 M 240.78125 1575.585938 L 256.171875 1538.4375 M 241.796875 1656.328125 L 255.117188 1618.4375 M 242.617188 1736.953125 L 254.296875 1698.515625 M 243.28125 1817.539062 L 253.632812 1778.710938 M 243.828125 1898.046875 L 253.085938 1858.945312 M 244.296875 1978.515625 L 252.617188 1939.179688 M 244.6875 2058.945312 L 252.265625 2019.492188 M 245 2139.375 L 251.914062 2099.765625 M 245.3125 2219.765625 L 251.640625 2180.117188 M 328.632812 184.960938 L 367.070312 196.640625 M 331.953125 258.867188 L 363.75 283.4375 M 333.59375 337.34375 L 362.109375 365.703125 M 334.257812 417.109375 L 361.445312 446.71875 M 334.335938 497.421875 L 361.367188 527.109375 M 333.90625 578.164062 L 361.796875 607.109375 M 333.125 659.335938 L 362.578125 686.640625 M 331.914062 741.132812 L 363.789062 765.585938 M 330.390625 823.75 L 365.3125 843.671875 M 328.828125 907.617188 L 366.875 920.546875 M 327.8125 992.890625 L 367.890625 996.015625 M 328.203125 1078.945312 L 367.5 1070.664062 M 330.078125 1164.53125 L 365.625 1145.859375 M 332.65625 1248.671875 L 363.046875 1222.421875 M 335.117188 1331.445312 L 360.585938 1300.351562 M 337.1875 1413.320312 L 358.515625 1379.257812 M 338.867188 1494.609375 L 356.835938 1458.671875 M 340.15625 1575.585938 L 355.546875 1538.4375 M 341.171875 1656.328125 L 354.53125 1618.4375 M 341.992188 1736.953125 L 353.710938 1698.515625 M 342.695312 1817.539062 L 353.007812 1778.710938 M 343.242188 1898.046875 L 352.460938 1858.945312 M 343.671875 1978.515625 L 352.03125 1939.179688 M 344.0625 2058.945312 L 351.640625 2019.492188 M 344.414062 2139.375 L 351.289062 2099.765625 M 344.6875 2219.765625 L 351.015625 2180.117188 M 428.007812 184.960938 L 466.445312 196.640625 M 431.328125 258.867188 L 463.125 283.4375 M 433.007812 337.34375 L 461.484375 365.703125 M 433.671875 417.109375 L 460.820312 446.71875 M 433.710938 497.421875 L 460.78125 527.109375 M 433.320312 578.164062 L 461.171875 607.109375 M 432.5 659.335938 L 461.992188 686.640625 M 431.289062 741.132812 L 463.164062 765.585938 M 429.804688 823.75 L 464.6875 843.671875 M 428.203125 907.617188 L 466.25 920.546875 M 427.1875 992.890625 L 467.265625 996.015625 M 427.578125 1078.945312 L 466.914062 1070.664062 M 429.453125 1164.53125 L 465.039062 1145.859375 M 432.03125 1248.671875 L 462.460938 1222.421875 M 434.492188 1331.445312 L 459.960938 1300.351562 M 436.601562 1413.320312 L 457.890625 1379.257812 M 438.242188 1494.609375 L 456.25 1458.671875 M 439.53125 1575.585938 L 454.921875 1538.4375 M 440.585938 1656.328125 L 453.90625 1618.4375 M 441.40625 1736.953125 L 453.085938 1698.515625 M 442.070312 1817.539062 L 452.421875 1778.710938 M 442.617188 1898.046875 L 451.875 1858.945312 M 443.046875 1978.515625 L 451.40625 1939.179688 M 443.4375 2058.945312 L 451.015625 2019.492188 M 443.789062 2139.375 L 450.703125 2099.765625 M 444.0625 2219.765625 L 450.390625 2180.117188 M 527.382812 184.960938 L 565.859375 196.640625 M 530.742188 258.867188 L 562.539062 283.4375 M 532.382812 337.34375 L 560.859375 365.703125 M 533.046875 417.109375 L 560.195312 446.71875 M 533.085938 497.421875 L 560.15625 527.109375 M 532.695312 578.164062 L 560.546875 607.109375 M 531.875 659.335938 L 561.367188 686.640625 M 530.703125 741.132812 L 562.539062 765.585938 M 529.179688 823.75 L 564.0625 843.671875 M 527.617188 907.617188 L 565.664062 920.546875 M 526.601562 992.890625 L 566.640625 996.015625 M 526.953125 1078.945312 L 566.289062 1070.664062 M 528.828125 1164.53125 L 564.414062 1145.859375 M 531.40625 1248.671875 L 561.835938 1222.421875 M 533.90625 1331.445312 L 559.335938 1300.351562 M 535.976562 1413.320312 L 557.265625 1379.257812 M 537.617188 1494.609375 L 555.625 1458.671875 M 538.945312 1575.585938 L 554.335938 1538.4375 M 539.960938 1656.328125 L 553.28125 1618.4375 M 540.78125 1736.953125 L 552.460938 1698.515625 M 541.445312 1817.539062 L 551.796875 1778.710938 M 541.992188 1898.046875 L 551.25 1858.945312 M 542.460938 1978.515625 L 550.78125 1939.179688 M 542.851562 2058.945312 L 550.390625 2019.492188 M 543.164062 2139.375 L 550.078125 2099.765625 M 543.4375 2219.765625 L 549.804688 2180.117188 M 626.796875 184.960938 L 665.234375 196.640625 M 630.117188 258.867188 L 661.914062 283.4375 M 631.757812 337.34375 L 660.234375 365.703125 M 632.421875 417.109375 L 659.609375 446.71875 M 632.460938 497.421875 L 659.53125 527.109375 M 632.070312 578.164062 L 659.921875 607.109375 M 631.289062 659.335938 L 660.742188 686.640625 M 630.078125 741.132812 L 661.953125 765.585938 M 628.554688 823.75 L 663.4375 843.671875 M 626.992188 907.617188 L 665.039062 920.546875 M 625.976562 992.890625 L 666.054688 996.015625 M 626.367188 1078.945312 L 665.664062 1070.664062 M 628.203125 1164.53125 L 663.789062 1145.859375 M 630.78125 1248.671875 L 661.210938 1222.421875 M 633.28125 1331.445312 L 658.75 1300.351562 M 635.351562 1413.320312 L 656.640625 1379.257812 M 637.03125 1494.609375 L 655 1458.671875 M 638.320312 1575.585938 L 653.710938 1538.4375 M 639.335938 1656.328125 L 652.695312 1618.4375 M 640.15625 1736.953125 L 651.835938 1698.515625 M 640.820312 1817.539062 L 651.171875 1778.710938 M 641.367188 1898.046875 L 650.625 1858.945312 M 641.835938 1978.515625 L 650.195312 1939.179688 M 642.226562 2058.945312 L 649.804688 2019.492188 M 642.539062 2139.375 L 649.453125 2099.765625 M 642.851562 2219.765625 L 649.179688 2180.117188 M 726.171875 184.960938 L 764.609375 196.640625 M 729.492188 258.867188 L 761.289062 283.4375 M 731.171875 337.34375 L 759.648438 365.703125 M 731.796875 417.109375 L 758.984375 446.71875 M 731.875 497.421875 L 758.945312 527.109375 M 731.445312 578.164062 L 759.335938 607.109375 M 730.664062 659.335938 L 760.15625 686.640625 M 729.453125 741.132812 L 761.328125 765.585938 M 727.929688 823.75 L 762.851562 843.671875 M 726.367188 907.617188 L 764.414062 920.546875 M 725.351562 992.890625 L 765.429688 996.015625 M 725.742188 1078.945312 L 765.039062 1070.664062 M 727.617188 1164.53125 L 763.203125 1145.859375 M 730.195312 1248.671875 L 760.625 1222.421875 M 732.65625 1331.445312 L 758.125 1300.351562 M 734.726562 1413.320312 L 756.054688 1379.257812 M 736.40625 1494.609375 L 754.375 1458.671875 M 737.695312 1575.585938 L 753.085938 1538.4375 M 738.710938 1656.328125 L 752.070312 1618.4375 M 739.570312 1736.953125 L 751.25 1698.515625 M 740.234375 1817.539062 L 750.585938 1778.710938 M 740.78125 1898.046875 L 750.039062 1858.945312 M 741.210938 1978.515625 L 749.570312 1939.179688 M 741.601562 2058.945312 L 749.179688 2019.492188 M 741.953125 2139.375 L 748.867188 2099.765625 M 742.226562 2219.765625 L 748.554688 2180.117188 M 825.546875 184.960938 L 864.023438 196.640625 M 828.90625 258.867188 L 860.664062 283.4375 M 830.546875 337.34375 L 859.023438 365.703125 M 831.210938 417.109375 L 858.359375 446.71875 M 831.25 497.421875 L 858.320312 527.109375 M 830.859375 578.164062 L 858.710938 607.109375 M 830.039062 659.335938 L 859.53125 686.640625 M 828.867188 741.132812 L 860.703125 765.585938 M 827.34375 823.75 L 862.226562 843.671875 M 825.78125 907.617188 L 863.789062 920.546875 M 824.765625 992.890625 L 864.804688 996.015625 M 825.117188 1078.945312 L 864.453125 1070.664062 M 826.992188 1164.53125 L 862.578125 1145.859375 M 829.570312 1248.671875 L 860 1222.421875 M 832.070312 1331.445312 L 857.5 1300.351562 M 834.140625 1413.320312 L 855.429688 1379.257812 M 835.78125 1494.609375 L 853.789062 1458.671875 M 837.070312 1575.585938 L 852.460938 1538.4375 M 838.125 1656.328125 L 851.445312 1618.4375 M 838.945312 1736.953125 L 850.625 1698.515625 M 839.609375 1817.539062 L 849.960938 1778.710938 M 840.15625 1898.046875 L 849.414062 1858.945312 M 840.625 1978.515625 L 848.945312 1939.179688 M 840.976562 2058.945312 L 848.554688 2019.492188 M 841.328125 2139.375 L 848.242188 2099.765625 M 841.601562 2219.765625 L 847.96875 2180.117188 M 924.921875 184.960938 L 963.398438 196.640625 M 928.28125 258.867188 L 960.078125 283.4375 M 929.921875 337.34375 L 958.398438 365.703125 M 930.585938 417.109375 L 957.734375 446.71875 M 930.625 497.421875 L 957.695312 527.109375 M 930.234375 578.164062 L 958.085938 607.109375 M 929.414062 659.335938 L 958.90625 686.640625 M 928.242188 741.132812 L 960.117188 765.585938 M 926.71875 823.75 L 961.601562 843.671875 M 925.15625 907.617188 L 963.203125 920.546875 M 924.140625 992.890625 L 964.179688 996.015625 M 924.492188 1078.945312 L 963.828125 1070.664062 M 926.367188 1164.53125 L 961.953125 1145.859375 M 928.945312 1248.671875 L 959.375 1222.421875 M 931.445312 1331.445312 L 956.914062 1300.351562 M 933.515625 1413.320312 L 954.804688 1379.257812 M 935.15625 1494.609375 L 953.164062 1458.671875 M 936.484375 1575.585938 L 951.875 1538.4375 M 937.5 1656.328125 L 950.820312 1618.4375 M 938.320312 1736.953125 L 950 1698.515625 M 938.984375 1817.539062 L 949.335938 1778.710938 M 939.53125 1898.046875 L 948.789062 1858.945312 M 940 1978.515625 L 948.320312 1939.179688 M 940.390625 2058.945312 L 947.929688 2019.492188 M 940.703125 2139.375 L 947.617188 2099.765625 M 940.976562 2219.765625 L 947.34375 2180.117188 M 1024.335938 184.960938 L 1062.773438 196.640625 M 1027.65625 258.867188 L 1059.453125 283.4375 M 1029.296875 337.34375 L 1057.773438 365.703125 M 1029.960938 417.109375 L 1057.148438 446.71875 M 1030.039062 497.421875 L 1057.070312 527.109375 M 1029.609375 578.164062 L 1057.5 607.109375 M 1028.828125 659.335938 L 1058.28125 686.640625 M 1027.617188 741.132812 L 1059.492188 765.585938 M 1026.09375 823.75 L 1061.015625 843.671875 M 1024.53125 907.617188 L 1062.578125 920.546875 M 1023.515625 992.890625 L 1063.59375 996.015625 M 1023.90625 1078.945312 L 1063.203125 1070.664062 M 1025.78125 1164.53125 L 1061.328125 1145.859375 M 1028.359375 1248.671875 L 1058.789062 1222.421875 M 1030.820312 1331.445312 L 1056.289062 1300.351562 M 1032.890625 1413.320312 L 1054.21875 1379.257812 M 1034.570312 1494.609375 L 1052.539062 1458.671875 M 1035.859375 1575.585938 L 1051.25 1538.4375 M 1036.875 1656.328125 L 1050.234375 1618.4375 M 1037.695312 1736.953125 L 1049.414062 1698.515625 M 1038.398438 1817.539062 L 1048.710938 1778.710938 M 1038.945312 1898.046875 L 1048.164062 1858.945312 M 1039.375 1978.515625 L 1047.734375 1939.179688 M 1039.765625 2058.945312 L 1047.34375 2019.492188 M 1040.117188 2139.375 L 1046.992188 2099.765625 M 1040.390625 2219.765625 L 1046.71875 2180.117188 M 1123.710938 184.960938 L 1162.148438 196.640625 M 1127.03125 258.867188 L 1158.828125 283.4375 M 1128.710938 337.34375 L 1157.1875 365.703125 M 1129.375 417.109375 L 1156.523438 446.71875 M 1129.414062 497.421875 L 1156.484375 527.109375 M 1128.984375 578.164062 L 1156.875 607.109375 M 1128.203125 659.335938 L 1157.695312 686.640625 M 1126.992188 741.132812 L 1158.867188 765.585938 M 1125.507812 823.75 L 1160.390625 843.671875 M 1123.90625 907.617188 L 1161.953125 920.546875 M 1122.890625 992.890625 L 1162.96875 996.015625 M 1123.28125 1078.945312 L 1162.617188 1070.664062 M 1125.15625 1164.53125 L 1160.742188 1145.859375 M 1127.734375 1248.671875 L 1158.164062 1222.421875 M 1130.195312 1331.445312 L 1155.664062 1300.351562 M 1132.304688 1413.320312 L 1153.59375 1379.257812 M 1133.945312 1494.609375 L 1151.914062 1458.671875 M 1135.234375 1575.585938 L 1150.625 1538.4375 M 1136.289062 1656.328125 L 1149.609375 1618.4375 M 1137.109375 1736.953125 L 1148.789062 1698.515625 M 1137.773438 1817.539062 L 1148.125 1778.710938 M 1138.320312 1898.046875 L 1147.578125 1858.945312 M 1138.789062 1978.515625 L 1147.109375 1939.179688 M 1139.140625 2058.945312 L 1146.71875 2019.492188 M 1139.492188 2139.375 L 1146.40625 2099.765625 M 1139.765625 2219.765625 L 1146.09375 2180.117188 M 1223.085938 184.960938 L 1261.5625 196.640625 M 1226.445312 258.867188 L 1258.203125 283.4375 M 1228.085938 337.34375 L 1256.5625 365.703125 M 1228.75 417.109375 L 1255.898438 446.71875 M 1228.789062 497.421875 L 1255.859375 527.109375 M 1228.398438 578.164062 L 1256.25 607.109375 M 1227.578125 659.335938 L 1257.070312 686.640625 M 1226.40625 741.132812 L 1258.242188 765.585938 M 1224.882812 823.75 L 1259.765625 843.671875 M 1223.28125 907.617188 L 1261.367188 920.546875 M 1222.304688 992.890625 L 1262.34375 996.015625 M 1222.65625 1078.945312 L 1261.992188 1070.664062 M 1224.53125 1164.53125 L 1260.117188 1145.859375 M 1227.109375 1248.671875 L 1257.539062 1222.421875 M 1229.609375 1331.445312 L 1255.039062 1300.351562 M 1231.679688 1413.320312 L 1252.96875 1379.257812 M 1233.320312 1494.609375 L 1251.328125 1458.671875 M 1234.648438 1575.585938 L 1250.039062 1538.4375 M 1235.664062 1656.328125 L 1248.984375 1618.4375 M 1236.484375 1736.953125 L 1248.164062 1698.515625 M 1237.148438 1817.539062 L 1247.5 1778.710938 M 1237.695312 1898.046875 L 1246.953125 1858.945312 M 1238.164062 1978.515625 L 1246.484375 1939.179688 M 1238.554688 2058.945312 L 1246.09375 2019.492188 M 1238.867188 2139.375 L 1245.78125 2099.765625 M 1239.140625 2219.765625 L 1245.507812 2180.117188 M 1322.460938 184.960938 L 1360.9375 196.640625 M 1325.820312 258.867188 L 1357.617188 283.4375 M 1327.460938 337.34375 L 1355.9375 365.703125 M 1328.125 417.109375 L 1355.273438 446.71875 M 1328.164062 497.421875 L 1355.234375 527.109375 M 1327.773438 578.164062 L 1355.625 607.109375 M 1326.953125 659.335938 L 1356.445312 686.640625 M 1325.78125 741.132812 L 1357.65625 765.585938 M 1324.257812 823.75 L 1359.140625 843.671875 M 1322.695312 907.617188 L 1360.742188 920.546875 M 1321.679688 992.890625 L 1361.757812 996.015625 M 1322.03125 1078.945312 L 1361.367188 1070.664062 M 1323.90625 1164.53125 L 1359.492188 1145.859375 M 1326.484375 1248.671875 L 1356.914062 1222.421875 M 1328.984375 1331.445312 L 1354.453125 1300.351562 M 1331.054688 1413.320312 L 1352.34375 1379.257812 M 1332.695312 1494.609375 L 1350.703125 1458.671875 M 1334.023438 1575.585938 L 1349.414062 1538.4375 M 1335.039062 1656.328125 L 1348.398438 1618.4375 M 1335.859375 1736.953125 L 1347.539062 1698.515625 M 1336.523438 1817.539062 L 1346.875 1778.710938 M 1337.070312 1898.046875 L 1346.328125 1858.945312 M 1337.539062 1978.515625 L 1345.898438 1939.179688 M 1337.929688 2058.945312 L 1345.507812 2019.492188 M 1338.242188 2139.375 L 1345.15625 2099.765625 M 1338.554688 2219.765625 L 1344.882812 2180.117188 M 1421.875 184.960938 L 1460.3125 196.640625 M 1425.195312 258.867188 L 1456.992188 283.4375 M 1426.875 337.34375 L 1455.351562 365.703125 M 1427.539062 417.109375 L 1454.6875 446.71875 M 1427.578125 497.421875 L 1454.648438 527.109375 M 1427.148438 578.164062 L 1455.039062 607.109375 M 1426.367188 659.335938 L 1455.859375 686.640625 M 1425.15625 741.132812 L 1457.03125 765.585938 M 1423.632812 823.75 L 1458.554688 843.671875 M 1422.070312 907.617188 L 1460.117188 920.546875 M 1421.054688 992.890625 L 1461.132812 996.015625 M 1421.445312 1078.945312 L 1460.742188 1070.664062 M 1423.320312 1164.53125 L 1458.90625 1145.859375 M 1425.898438 1248.671875 L 1456.328125 1222.421875 M 1428.359375 1331.445312 L 1453.828125 1300.351562 M 1430.46875 1413.320312 L 1451.757812 1379.257812 M 1432.109375 1494.609375 L 1450.078125 1458.671875 M 1433.398438 1575.585938 L 1448.789062 1538.4375 M 1434.414062 1656.328125 L 1447.773438 1618.4375 M 1435.234375 1736.953125 L 1446.953125 1698.515625 M 1435.9375 1817.539062 L 1446.289062 1778.710938 M 1436.484375 1898.046875 L 1445.742188 1858.945312 M 1436.914062 1978.515625 L 1445.273438 1939.179688 M 1437.304688 2058.945312 L 1444.882812 2019.492188 M 1437.65625 2139.375 L 1444.53125 2099.765625 M 1437.929688 2219.765625 L 1444.257812 2180.117188 M 1521.25 184.960938 L 1559.726562 196.640625 M 1524.609375 258.867188 L 1556.367188 283.4375 M 1526.25 337.34375 L 1554.726562 365.703125 M 1526.914062 417.109375 L 1554.0625 446.71875 M 1526.953125 497.421875 L 1554.023438 527.109375 M 1526.5625 578.164062 L 1554.414062 607.109375 M 1525.742188 659.335938 L 1555.234375 686.640625 M 1524.53125 741.132812 L 1556.40625 765.585938 M 1523.046875 823.75 L 1557.929688 843.671875 M 1521.445312 907.617188 L 1559.492188 920.546875 M 1520.46875 992.890625 L 1560.507812 996.015625 M 1520.820312 1078.945312 L 1560.15625 1070.664062 M 1522.695312 1164.53125 L 1558.28125 1145.859375 M 1525.273438 1248.671875 L 1555.703125 1222.421875 M 1527.734375 1331.445312 L 1553.203125 1300.351562 M 1529.84375 1413.320312 L 1551.132812 1379.257812 M 1531.484375 1494.609375 L 1549.492188 1458.671875 M 1532.773438 1575.585938 L 1548.164062 1538.4375 M 1533.828125 1656.328125 L 1547.148438 1618.4375 M 1534.648438 1736.953125 L 1546.328125 1698.515625 M 1535.3125 1817.539062 L 1545.664062 1778.710938 M 1535.859375 1898.046875 L 1545.117188 1858.945312 M 1536.328125 1978.515625 L 1544.648438 1939.179688 M 1536.71875 2058.945312 L 1544.257812 2019.492188 M 1537.03125 2139.375 L 1543.945312 2099.765625 M 1537.304688 2219.765625 L 1543.671875 2180.117188 M 1620.625 184.960938 L 1659.101562 196.640625 M 1623.984375 258.867188 L 1655.78125 283.4375 M 1625.625 337.34375 L 1654.101562 365.703125 M 1626.289062 417.109375 L 1653.4375 446.71875 M 1626.328125 497.421875 L 1653.398438 527.109375 M 1625.9375 578.164062 L 1653.789062 607.109375 M 1625.117188 659.335938 L 1654.609375 686.640625 M 1623.945312 741.132812 L 1655.78125 765.585938 M 1622.421875 823.75 L 1657.304688 843.671875 M 1620.859375 907.617188 L 1658.90625 920.546875 M 1619.84375 992.890625 L 1659.882812 996.015625 M 1620.195312 1078.945312 L 1659.53125 1070.664062 M 1622.070312 1164.53125 L 1657.65625 1145.859375 M 1624.648438 1248.671875 L 1655.078125 1222.421875 M 1627.148438 1331.445312 L 1652.617188 1300.351562 M 1629.21875 1413.320312 L 1650.507812 1379.257812 M 1630.859375 1494.609375 L 1648.867188 1458.671875 M 1632.1875 1575.585938 L 1647.578125 1538.4375 M 1633.203125 1656.328125 L 1646.523438 1618.4375 M 1634.023438 1736.953125 L 1645.703125 1698.515625 M 1634.6875 1817.539062 L 1645.039062 1778.710938 M 1635.234375 1898.046875 L 1644.492188 1858.945312 M 1635.703125 1978.515625 L 1644.023438 1939.179688 M 1636.09375 2058.945312 L 1643.632812 2019.492188 M 1636.40625 2139.375 L 1643.320312 2099.765625 M 1636.71875 2219.765625 L 1643.046875 2180.117188 M 1720.039062 184.960938 L 1758.476562 196.640625 M 1723.359375 258.867188 L 1755.15625 283.4375 M 1725.039062 337.34375 L 1753.515625 365.703125 M 1725.664062 417.109375 L 1752.851562 446.71875 M 1725.742188 497.421875 L 1752.773438 527.109375 M 1725.3125 578.164062 L 1753.203125 607.109375 M 1724.53125 659.335938 L 1753.984375 686.640625 M 1723.320312 741.132812 L 1755.195312 765.585938 M 1721.796875 823.75 L 1756.71875 843.671875 M 1720.234375 907.617188 L 1758.28125 920.546875 M 1719.21875 992.890625 L 1759.296875 996.015625 M 1719.609375 1078.945312 L 1758.90625 1070.664062 M 1721.445312 1164.53125 L 1757.03125 1145.859375 M 1724.023438 1248.671875 L 1754.453125 1222.421875 M 1726.523438 1331.445312 L 1751.992188 1300.351562 M 1728.59375 1413.320312 L 1749.921875 1379.257812 M 1730.273438 1494.609375 L 1748.242188 1458.671875 M 1731.5625 1575.585938 L 1746.953125 1538.4375 M 1732.578125 1656.328125 L 1745.9375 1618.4375 M 1733.398438 1736.953125 L 1745.117188 1698.515625 M 1734.0625 1817.539062 L 1744.414062 1778.710938 M 1734.648438 1898.046875 L 1743.867188 1858.945312 M 1735.078125 1978.515625 L 1743.4375 1939.179688 M 1735.46875 2058.945312 L 1743.046875 2019.492188 M 1735.78125 2139.375 L 1742.695312 2099.765625 M 1736.09375 2219.765625 L 1742.421875 2180.117188 M 1819.414062 184.960938 L 1857.851562 196.640625 M 1822.734375 258.867188 L 1854.53125 283.4375 M 1824.414062 337.34375 L 1852.890625 365.703125 M 1825.078125 417.109375 L 1852.226562 446.71875 M 1825.117188 497.421875 L 1852.1875 527.109375 M 1824.726562 578.164062 L 1852.578125 607.109375 M 1823.90625 659.335938 L 1853.398438 686.640625 M 1822.695312 741.132812 L 1854.570312 765.585938 M 1821.210938 823.75 L 1856.09375 843.671875 M 1819.609375 907.617188 L 1857.65625 920.546875 M 1818.59375 992.890625 L 1858.671875 996.015625 M 1818.984375 1078.945312 L 1858.28125 1070.664062 M 1820.859375 1164.53125 L 1856.445312 1145.859375 M 1823.4375 1248.671875 L 1853.867188 1222.421875 M 1825.898438 1331.445312 L 1851.367188 1300.351562 M 1828.007812 1413.320312 L 1849.296875 1379.257812 M 1829.648438 1494.609375 L 1847.65625 1458.671875 M 1830.9375 1575.585938 L 1846.328125 1538.4375 M 1831.953125 1656.328125 L 1845.3125 1618.4375 M 1832.8125 1736.953125 L 1844.492188 1698.515625 M 1833.476562 1817.539062 L 1843.828125 1778.710938 M 1834.023438 1898.046875 L 1843.28125 1858.945312 M 1834.453125 1978.515625 L 1842.8125 1939.179688 M 1834.84375 2058.945312 L 1842.421875 2019.492188 M 1835.195312 2139.375 L 1842.109375 2099.765625 M 1835.46875 2219.765625 L 1841.796875 2180.117188 M 1918.789062 184.960938 L 1957.265625 196.640625 M 1922.148438 258.867188 L 1953.90625 283.4375 M 1923.789062 337.34375 L 1952.265625 365.703125 M 1924.453125 417.109375 L 1951.601562 446.71875 M 1924.492188 497.421875 L 1951.5625 527.109375 M 1924.101562 578.164062 L 1951.953125 607.109375 M 1923.28125 659.335938 L 1952.773438 686.640625 M 1922.109375 741.132812 L 1953.945312 765.585938 M 1920.585938 823.75 L 1955.46875 843.671875 M 1919.023438 907.617188 L 1957.03125 920.546875 M 1918.007812 992.890625 L 1958.046875 996.015625 M 1918.359375 1078.945312 L 1957.695312 1070.664062 M 1920.234375 1164.53125 L 1955.820312 1145.859375 M 1922.8125 1248.671875 L 1953.242188 1222.421875 M 1925.3125 1331.445312 L 1950.742188 1300.351562 M 1927.382812 1413.320312 L 1948.671875 1379.257812 M 1929.023438 1494.609375 L 1947.03125 1458.671875 M 1930.3125 1575.585938 L 1945.703125 1538.4375 M 1931.367188 1656.328125 L 1944.6875 1618.4375 M 1932.1875 1736.953125 L 1943.867188 1698.515625 M 1932.851562 1817.539062 L 1943.203125 1778.710938 M 1933.398438 1898.046875 L 1942.65625 1858.945312 M 1933.867188 1978.515625 L 1942.1875 1939.179688 M 1934.257812 2058.945312 L 1941.796875 2019.492188 M 1934.570312 2139.375 L 1941.484375 2099.765625 M 1934.84375 2219.765625 L 1941.210938 2180.117188 M 2018.203125 184.960938 L 2056.640625 196.640625 M 2021.523438 258.867188 L 2053.320312 283.4375 M 2023.164062 337.34375 L 2051.640625 365.703125 M 2023.828125 417.109375 L 2051.015625 446.71875 M 2023.867188 497.421875 L 2050.9375 527.109375 M 2023.476562 578.164062 L 2051.367188 607.109375 M 2022.65625 659.335938 L 2052.148438 686.640625 M 2021.484375 741.132812 L 2053.359375 765.585938 M 2019.960938 823.75 L 2054.84375 843.671875 M 2018.398438 907.617188 L 2056.445312 920.546875 M 2017.382812 992.890625 L 2057.421875 996.015625 M 2017.734375 1078.945312 L 2057.070312 1070.664062 M 2019.648438 1164.53125 L 2055.195312 1145.859375 M 2022.1875 1248.671875 L 2052.617188 1222.421875 M 2024.6875 1331.445312 L 2050.15625 1300.351562 M 2026.757812 1413.320312 L 2048.046875 1379.257812 M 2028.4375 1494.609375 L 2046.40625 1458.671875 M 2029.726562 1575.585938 L 2045.117188 1538.4375 M 2030.742188 1656.328125 L 2044.0625 1618.4375 M 2031.5625 1736.953125 L 2043.242188 1698.515625 M 2032.226562 1817.539062 L 2042.578125 1778.710938 M 2032.773438 1898.046875 L 2042.03125 1858.945312 M 2033.242188 1978.515625 L 2041.5625 1939.179688 M 2033.632812 2058.945312 L 2041.210938 2019.492188 M 2033.945312 2139.375 L 2040.859375 2099.765625 M 2034.257812 2219.765625 L 2040.585938 2180.117188 M 2117.578125 184.960938 L 2156.015625 196.640625 M 2120.898438 258.867188 L 2152.695312 283.4375 M 2122.578125 337.34375 L 2151.054688 365.703125 M 2123.203125 417.109375 L 2150.390625 446.71875 M 2123.28125 497.421875 L 2150.3125 527.109375 M 2122.851562 578.164062 L 2150.742188 607.109375 M 2122.070312 659.335938 L 2151.523438 686.640625 M 2120.859375 741.132812 L 2152.734375 765.585938 M 2119.375 823.75 L 2154.257812 843.671875 M 2117.773438 907.617188 L 2155.820312 920.546875 M 2116.757812 992.890625 L 2156.835938 996.015625 M 2117.148438 1078.945312 L 2156.445312 1070.664062 M 2119.023438 1164.53125 L 2154.609375 1145.859375 M 2121.601562 1248.671875 L 2152.03125 1222.421875 M 2124.0625 1331.445312 L 2149.53125 1300.351562 M 2126.132812 1413.320312 L 2147.460938 1379.257812 M 2127.8125 1494.609375 L 2145.78125 1458.671875 M 2129.101562 1575.585938 L 2144.492188 1538.4375 M 2130.117188 1656.328125 L 2143.476562 1618.4375 M 2130.9375 1736.953125 L 2142.65625 1698.515625 M 2131.601562 1817.539062 L 2141.992188 1778.710938 M 2132.1875 1898.046875 L 2141.445312 1858.945312 M 2132.617188 1978.515625 L 2140.976562 1939.179688 M 2133.007812 2058.945312 L 2140.585938 2019.492188 M 2133.359375 2139.375 L 2140.234375 2099.765625 M 2133.632812 2219.765625 L 2139.960938 2180.117188 M 2216.953125 184.960938 L 2255.390625 196.640625 M 2220.273438 258.867188 L 2252.070312 283.4375 M 2221.953125 337.34375 L 2250.429688 365.703125 M 2222.617188 417.109375 L 2249.765625 446.71875 M 2222.65625 497.421875 L 2249.726562 527.109375 M 2222.265625 578.164062 L 2250.117188 607.109375 M 2221.445312 659.335938 L 2250.9375 686.640625 M 2220.234375 741.132812 L 2252.109375 765.585938 M 2218.75 823.75 L 2253.632812 843.671875 M 2217.148438 907.617188 L 2255.195312 920.546875 M 2216.171875 992.890625 L 2256.210938 996.015625 M 2216.523438 1078.945312 L 2255.859375 1070.664062 M 2218.398438 1164.53125 L 2253.984375 1145.859375 M 2220.976562 1248.671875 L 2251.40625 1222.421875 M 2223.476562 1331.445312 L 2248.90625 1300.351562 M 2225.546875 1413.320312 L 2246.835938 1379.257812 M 2227.1875 1494.609375 L 2245.195312 1458.671875 M 2228.476562 1575.585938 L 2243.867188 1538.4375 M 2229.53125 1656.328125 L 2242.851562 1618.4375 M 2230.351562 1736.953125 L 2242.03125 1698.515625 M 2231.015625 1817.539062 L 2241.367188 1778.710938 M 2231.5625 1898.046875 L 2240.820312 1858.945312 M 2232.03125 1978.515625 L 2240.351562 1939.179688 M 2232.382812 2058.945312 L 2239.960938 2019.492188 M 2232.734375 2139.375 L 2239.648438 2099.765625 M 2233.007812 2219.765625 L 2239.375 2180.117188 M 2316.367188 184.960938 L 2354.804688 196.640625 M 2319.6875 258.867188 L 2351.484375 283.4375 M 2321.328125 337.34375 L 2349.804688 365.703125 M 2321.992188 417.109375 L 2349.140625 446.71875 M 2322.03125 497.421875 L 2349.101562 527.109375 M 2321.640625 578.164062 L 2349.492188 607.109375 M 2320.820312 659.335938 L 2350.3125 686.640625 M 2319.648438 741.132812 L 2351.484375 765.585938 M 2318.125 823.75 L 2353.007812 843.671875 M 2316.5625 907.617188 L 2354.609375 920.546875 M 2315.546875 992.890625 L 2355.585938 996.015625 M 2315.898438 1078.945312 L 2355.234375 1070.664062 M 2317.773438 1164.53125 L 2353.359375 1145.859375 M 2320.351562 1248.671875 L 2350.78125 1222.421875 M 2322.851562 1331.445312 L 2348.28125 1300.351562 M 2324.921875 1413.320312 L 2346.210938 1379.257812 M 2326.5625 1494.609375 L 2344.570312 1458.671875 M 2327.890625 1575.585938 L 2343.28125 1538.4375 M 2328.90625 1656.328125 L 2342.226562 1618.4375 M 2329.726562 1736.953125 L 2341.40625 1698.515625 M 2330.390625 1817.539062 L 2340.742188 1778.710938 M 2330.9375 1898.046875 L 2340.195312 1858.945312 M 2331.40625 1978.515625 L 2339.726562 1939.179688 M 2331.796875 2058.945312 L 2339.375 2019.492188 M 2332.109375 2139.375 L 2339.023438 2099.765625 M 2332.382812 2219.765625 L 2338.75 2180.117188 M 2415.742188 184.960938 L 2454.179688 196.640625 M 2419.0625 258.867188 L 2450.859375 283.4375 M 2420.703125 337.34375 L 2449.21875 365.703125 M 2421.367188 417.109375 L 2448.554688 446.71875 M 2421.445312 497.421875 L 2448.476562 527.109375 M 2421.015625 578.164062 L 2448.90625 607.109375 M 2420.195312 659.335938 L 2449.6875 686.640625 M 2419.023438 741.132812 L 2450.898438 765.585938 M 2417.5 823.75 L 2452.382812 843.671875 M 2415.9375 907.617188 L 2453.984375 920.546875 M 2414.921875 992.890625 L 2455 996.015625 M 2415.3125 1078.945312 L 2454.609375 1070.664062 M 2417.1875 1164.53125 L 2452.734375 1145.859375 M 2419.726562 1248.671875 L 2450.15625 1222.421875 M 2422.226562 1331.445312 L 2447.695312 1300.351562 M 2424.296875 1413.320312 L 2445.625 1379.257812 M 2425.976562 1494.609375 L 2443.945312 1458.671875 M 2427.265625 1575.585938 L 2442.65625 1538.4375 M 2428.28125 1656.328125 L 2441.640625 1618.4375 M 2429.101562 1736.953125 L 2440.78125 1698.515625 M 2429.765625 1817.539062 L 2440.117188 1778.710938 M 2430.3125 1898.046875 L 2439.609375 1858.945312 M 2430.78125 1978.515625 L 2439.140625 1939.179688 M 2431.171875 2058.945312 L 2438.75 2019.492188 M 2431.484375 2139.375 L 2438.398438 2099.765625 M 2431.796875 2219.765625 L 2438.125 2180.117188 M 2515.117188 184.960938 L 2553.554688 196.640625 M 2518.4375 258.867188 L 2550.234375 283.4375 M 2520.117188 337.34375 L 2548.59375 365.703125 M 2520.742188 417.109375 L 2547.929688 446.71875 M 2520.820312 497.421875 L 2547.890625 527.109375 M 2520.390625 578.164062 L 2548.28125 607.109375 M 2519.609375 659.335938 L 2549.101562 686.640625 M 2518.398438 741.132812 L 2550.273438 765.585938 M 2516.914062 823.75 L 2551.796875 843.671875 M 2515.3125 907.617188 L 2553.359375 920.546875 M 2514.296875 992.890625 L 2554.375 996.015625 M 2514.6875 1078.945312 L 2553.984375 1070.664062 M 2516.5625 1164.53125 L 2552.148438 1145.859375 M 2519.140625 1248.671875 L 2549.570312 1222.421875 M 2521.601562 1331.445312 L 2547.070312 1300.351562 M 2523.710938 1413.320312 L 2545 1379.257812 M 2525.351562 1494.609375 L 2543.359375 1458.671875 M 2526.640625 1575.585938 L 2542.03125 1538.4375 M 2527.695312 1656.328125 L 2541.015625 1618.4375 M 2528.515625 1736.953125 L 2540.195312 1698.515625 M 2529.179688 1817.539062 L 2539.53125 1778.710938 M 2529.726562 1898.046875 L 2538.984375 1858.945312 M 2530.15625 1978.515625 L 2538.515625 1939.179688 M 2530.546875 2058.945312 L 2538.125 2019.492188 M 2530.898438 2139.375 L 2537.8125 2099.765625 M 2531.171875 2219.765625 L 2537.539062 2180.117188 M 2614.492188 184.960938 L 2652.96875 196.640625 M 2617.8125 258.867188 L 2649.648438 283.4375 M 2619.492188 337.34375 L 2647.96875 365.703125 M 2620.15625 417.109375 L 2647.304688 446.71875 M 2620.195312 497.421875 L 2647.265625 527.109375 M 2619.804688 578.164062 L 2647.65625 607.109375 M 2618.984375 659.335938 L 2648.476562 686.640625 M 2617.8125 741.132812 L 2649.648438 765.585938 M 2616.289062 823.75 L 2651.171875 843.671875 M 2614.726562 907.617188 L 2652.734375 920.546875 M 2613.710938 992.890625 L 2653.75 996.015625 M 2614.0625 1078.945312 L 2653.398438 1070.664062 M 2615.9375 1164.53125 L 2651.523438 1145.859375 M 2618.515625 1248.671875 L 2648.945312 1222.421875 M 2621.015625 1331.445312 L 2646.445312 1300.351562 M 2623.085938 1413.320312 L 2644.375 1379.257812 M 2624.726562 1494.609375 L 2642.734375 1458.671875 M 2626.054688 1575.585938 L 2641.445312 1538.4375 M 2627.070312 1656.328125 L 2640.390625 1618.4375 M 2627.890625 1736.953125 L 2639.570312 1698.515625 M 2628.554688 1817.539062 L 2638.90625 1778.710938 M 2629.101562 1898.046875 L 2638.359375 1858.945312 M 2629.570312 1978.515625 L 2637.890625 1939.179688 M 2629.960938 2058.945312 L 2637.5 2019.492188 M 2630.273438 2139.375 L 2637.1875 2099.765625 M 2630.546875 2219.765625 L 2636.914062 2180.117188 M 2713.90625 184.960938 L 2752.34375 196.640625 M 2717.226562 258.867188 L 2749.023438 283.4375 M 2718.867188 337.34375 L 2747.34375 365.703125 M 2719.53125 417.109375 L 2746.71875 446.71875 M 2719.609375 497.421875 L 2746.640625 527.109375 M 2719.179688 578.164062 L 2747.03125 607.109375 M 2718.398438 659.335938 L 2747.851562 686.640625 M 2717.1875 741.132812 L 2749.0625 765.585938 M 2715.664062 823.75 L 2750.546875 843.671875 M 2714.101562 907.617188 L 2752.148438 920.546875 M 2713.085938 992.890625 L 2753.125 996.015625 M 2713.476562 1078.945312 L 2752.773438 1070.664062 M 2715.3125 1164.53125 L 2750.898438 1145.859375 M 2717.890625 1248.671875 L 2748.320312 1222.421875 M 2720.390625 1331.445312 L 2745.859375 1300.351562 M 2722.460938 1413.320312 L 2743.789062 1379.257812 M 2724.101562 1494.609375 L 2742.109375 1458.671875 M 2725.429688 1575.585938 L 2740.820312 1538.4375 M 2726.445312 1656.328125 L 2739.765625 1618.4375 M 2727.265625 1736.953125 L 2738.945312 1698.515625 M 2727.929688 1817.539062 L 2738.28125 1778.710938 M 2728.476562 1898.046875 L 2737.734375 1858.945312 M 2728.945312 1978.515625 L 2737.304688 1939.179688 M 2729.335938 2058.945312 L 2736.914062 2019.492188 M 2729.648438 2139.375 L 2736.5625 2099.765625 M 2729.921875 2219.765625 L 2736.289062 2180.117188 M 2813.28125 184.960938 L 2851.71875 196.640625 M 2816.601562 258.867188 L 2848.398438 283.4375 M 2818.242188 337.34375 L 2846.757812 365.703125 M 2818.90625 417.109375 L 2846.09375 446.71875 M 2818.984375 497.421875 L 2846.015625 527.109375 M 2818.554688 578.164062 L 2846.445312 607.109375 M 2817.773438 659.335938 L 2847.226562 686.640625 M 2816.5625 741.132812 L 2848.4375 765.585938 M 2815.039062 823.75 L 2849.960938 843.671875 M 2813.476562 907.617188 L 2851.523438 920.546875 M 2812.460938 992.890625 L 2852.539062 996.015625 M 2812.851562 1078.945312 L 2852.148438 1070.664062 M 2814.726562 1164.53125 L 2850.273438 1145.859375 M 2817.304688 1248.671875 L 2847.695312 1222.421875 M 2819.765625 1331.445312 L 2845.234375 1300.351562 M 2821.835938 1413.320312 L 2843.164062 1379.257812 M 2823.515625 1494.609375 L 2841.484375 1458.671875 M 2824.804688 1575.585938 L 2840.195312 1538.4375 M 2825.820312 1656.328125 L 2839.179688 1618.4375 M 2826.640625 1736.953125 L 2838.359375 1698.515625 M 2827.304688 1817.539062 L 2837.695312 1778.710938 M 2827.890625 1898.046875 L 2837.148438 1858.945312 M 2828.320312 1978.515625 L 2836.679688 1939.179688 M 2828.710938 2058.945312 L 2836.289062 2019.492188 M 2829.0625 2139.375 L 2835.976562 2099.765625 M 2829.335938 2219.765625 L 2835.664062 2180.117188 " transform="matrix(0.1,0,0,-0.1,0,219)"/>
<path style=" stroke:none;fill-rule:nonzero;fill:rgb(0%,0%,0%);fill-opacity:1;" d="M 40.074219 25.367188 L 39.484375 27.726562 L 39.484375 27.875 C 39.484375 27.972656 39.628906 28.019531 39.925781 28.019531 L 40.074219 28.019531 C 40.269531 28.019531 40.367188 28.070312 40.367188 28.167969 C 40.367188 28.269531 40.320312 28.316406 40.21875 28.316406 L 37.859375 28.316406 C 37.761719 28.316406 37.710938 28.269531 37.710938 28.167969 C 37.710938 28.070312 37.761719 28.019531 37.859375 28.019531 C 38.351562 28.019531 38.597656 27.972656 38.597656 27.875 C 38.695312 27.875 38.746094 27.777344 38.746094 27.578125 L 40.074219 22.5625 C 40.074219 22.464844 40.074219 22.367188 40.074219 22.269531 C 40.074219 22.269531 40.023438 22.21875 39.925781 22.121094 C 39.726562 22.121094 39.582031 22.121094 39.484375 22.121094 C 39.285156 22.121094 39.1875 22.121094 39.1875 22.121094 C 39.1875 21.925781 39.238281 21.824219 39.335938 21.824219 L 42.582031 21.824219 C 43.269531 21.824219 43.808594 22.070312 44.203125 22.5625 C 44.300781 22.761719 44.351562 23.007812 44.351562 23.300781 C 44.351562 23.792969 44.105469 24.234375 43.613281 24.628906 C 43.023438 25.121094 42.382812 25.367188 41.695312 25.367188 Z M 40.808594 22.5625 L 40.21875 25.070312 L 41.546875 25.070312 C 42.136719 25.070312 42.628906 24.921875 43.023438 24.628906 C 43.21875 24.335938 43.367188 23.941406 43.464844 23.449219 C 43.464844 23.253906 43.464844 23.105469 43.464844 23.007812 C 43.464844 22.414062 43.074219 22.121094 42.285156 22.121094 L 41.253906 22.121094 C 41.054688 22.121094 40.957031 22.171875 40.957031 22.269531 C 40.859375 22.269531 40.808594 22.367188 40.808594 22.5625 "/>
<path style=" stroke:none;fill-rule:nonzero;fill:rgb(0%,0%,0%);fill-opacity:1;" d="M 190.75 214.160156 L 190.015625 216.964844 C 190.015625 217.160156 190.015625 217.308594 190.015625 217.40625 C 190.015625 217.703125 190.113281 217.847656 190.308594 217.847656 C 190.703125 217.847656 191.046875 217.554688 191.339844 216.964844 L 191.488281 216.667969 C 191.585938 216.570312 191.636719 216.519531 191.636719 216.519531 C 191.734375 216.519531 191.785156 216.570312 191.785156 216.667969 C 191.785156 216.765625 191.6875 216.914062 191.488281 217.113281 C 191.195312 217.800781 190.800781 218.144531 190.308594 218.144531 C 189.914062 218.144531 189.671875 217.996094 189.570312 217.703125 C 189.472656 217.503906 189.421875 217.355469 189.421875 217.257812 C 189.421875 217.160156 189.621094 216.324219 190.015625 214.75 L 190.160156 214.160156 L 189.277344 214.160156 C 189.179688 214.160156 189.128906 214.160156 189.128906 214.160156 L 188.980469 214.160156 C 188.980469 214.0625 189.03125 213.964844 189.128906 213.867188 L 190.160156 213.867188 L 190.605469 212.390625 C 190.605469 212.195312 190.703125 212.09375 190.898438 212.09375 C 191.09375 212.09375 191.195312 212.195312 191.195312 212.390625 C 191.195312 212.390625 191.09375 212.882812 190.898438 213.867188 L 191.636719 213.867188 C 191.832031 213.867188 191.933594 213.914062 191.933594 214.011719 C 191.933594 214.113281 191.882812 214.160156 191.785156 214.160156 L 190.75 214.160156 "/>
</g>
</svg>
