<?xml version="1.0" encoding="UTF-8"?>
<svg xmlns="http://www.w3.org/2000/svg" xmlns:xlink="http://www.w3.org/1999/xlink" width="555pt" height="555pt" viewBox="0 0 555 555" version="1.1">
<defs>
<clipPath id="clip1">
  <path d="M 510 171 L 548.0625 171 L 548.0625 221 L 510 221 Z M 510 171 "/>
</clipPath>
<clipPath id="clip2">
  <path d="M 138 6.9375 L 188 6.9375 L 188 44 L 138 44 Z M 138 6.9375 "/>
</clipPath>
</defs>
<g id="surface1">
<rect x="0" y="0" width="555" height="555" style="fill:rgb(100%,100%,100%);fill-opacity:1;stroke:none;"/>
<path style="fill:none;stroke-width:27.75;stroke-linecap:butt;stroke-linejoin:round;stroke:rgb(100%,0%,0%);stroke-opacity:1;stroke-miterlimit:10;" d="M 568.867188 582.734375 L 581.445312 880.46875 L 594.0625 1158.125 L 605 1384.609375 L 615.9375 1598.046875 L 640.546875 2035.078125 L 665.351562 2421.835938 L 690.039062 2761.210938 L 712.890625 3040.585938 L 736.601562 3298.632812 L 761.09375 3536.25 L 785.507812 3747.03125 L 810.625 3940.039062 L 832.734375 4092.34375 L 857.65625 4246.132812 L 882.65625 4383.867188 L 906.757812 4502.539062 L 928.632812 4599.492188 L 954.648438 4702.929688 L 976.679688 4781.367188 L 1002.34375 4863.164062 L 1025.039062 4927.890625 L 1049.921875 4991.445312 L 1073.632812 5045.3125 L 1098.398438 5095.351562 L 1121.09375 5136.210938 L 1145.625 5175.351562 L 1171.054688 5211.015625 L 1193.242188 5238.359375 L 1217.148438 5264.296875 L 1241.875 5287.5 L 1266.09375 5307.03125 L 1289.492188 5323.125 L 1315.46875 5338.125 L 1338.828125 5349.21875 L 1363.75 5358.789062 L 1386.328125 5365.546875 L 1411.054688 5371.09375 L 1434.296875 5374.648438 L 1458.554688 5376.835938 L 1482.304688 5377.539062 L 1507.1875 5376.835938 L 1531.132812 5374.960938 L 1555.625 5371.914062 L 1579.882812 5367.8125 L 1602.226562 5363.203125 L 1627.773438 5356.953125 L 1650.664062 5350.625 L 1675.078125 5343.125 L 1698.398438 5335.273438 L 1724.335938 5325.859375 L 1746.757812 5317.1875 L 1772.226562 5306.757812 L 1795.46875 5296.757812 L 1820.859375 5285.390625 L 1842.773438 5275.195312 L 1867.734375 5263.203125 L 1891.835938 5251.25 L 1915.9375 5238.984375 L 1939.921875 5226.523438 L 1963.007812 5214.257812 L 1987.929688 5200.78125 L 2011.679688 5187.695312 L 2036.679688 5173.75 L 2059.335938 5160.9375 L 2084.335938 5146.640625 L 2108.28125 5132.773438 L 2132.226562 5118.828125 L 2157.1875 5104.140625 L 2180.15625 5090.546875 L 2203.710938 5076.484375 L 2229.726562 5060.9375 L 2253.242188 5046.757812 L 2277.34375 5032.226562 L 2301.835938 5017.382812 L 2324.335938 5003.710938 L 2348.320312 4989.101562 L 2492.578125 4901.171875 L 2517.460938 4886.015625 L 2542.460938 4870.859375 L 2565.195312 4857.03125 L 2589.375 4842.421875 L 2612.929688 4828.164062 L 2638.476562 4812.773438 L 2660.585938 4799.492188 L 2685.976562 4784.257812 L 2709.882812 4770.039062 L 2733.515625 4755.9375 L 2757.1875 4741.914062 L 2781.289062 4727.65625 L 2806.875 4712.578125 L 2830.3125 4698.828125 L 2853.476562 4685.3125 L 2878.242188 4670.9375 L 2902.929688 4656.640625 L 2925.117188 4643.867188 L 2951.367188 4628.789062 L 2973.320312 4616.25 L 2999.023438 4601.640625 L 3023.554688 4587.773438 L 3045.429688 4575.46875 L 3070.078125 4561.679688 L 3094.84375 4547.890625 L 3119.53125 4534.21875 L 3142.421875 4521.601562 L 3166.09375 4508.632812 L 3190.585938 4495.273438 L 3215 4482.03125 L 3240.117188 4468.515625 L 3262.226562 4456.640625 L 3287.148438 4443.398438 L 3312.148438 4430.117188 L 3336.25 4417.421875 L 3358.125 4405.9375 L 3384.140625 4392.382812 L 3406.171875 4380.976562 L 3431.835938 4367.773438 L 3454.53125 4356.132812 L 3479.414062 4343.476562 L 3503.125 4331.484375 L 3527.890625 4319.023438 L 3550.625 4307.65625 L 3575.117188 4295.46875 L 3600.585938 4282.890625 L 3622.734375 4272.03125 L 3646.679688 4260.351562 L 3671.40625 4248.359375 L 3695.585938 4236.679688 L 3718.984375 4225.46875 L 3744.960938 4213.085938 L 3768.320312 4202.03125 L 3793.242188 4190.273438 L 3815.859375 4179.726562 L 3840.546875 4168.242188 L 3863.789062 4157.5 L 3888.085938 4146.328125 L 3911.835938 4135.507812 L 3936.679688 4124.21875 L 3960.625 4113.4375 L 3985.117188 4102.460938 L 4009.414062 4091.640625 L 4031.71875 4081.757812 L 4057.304688 4070.507812 L 4080.195312 4060.507812 L 4104.570312 4049.882812 L 4127.890625 4039.804688 L 4153.828125 4028.671875 L 4176.289062 4019.101562 L 4201.757812 4008.28125 L 4224.960938 3998.515625 L 4250.351562 3987.851562 L 4272.265625 3978.710938 L 4297.226562 3968.398438 L 4321.367188 3958.476562 L 4345.429688 3948.632812 L 4369.453125 3938.867188 L 4392.5 3929.53125 L 4417.421875 3919.53125 L 4441.210938 3910.039062 L 4466.210938 3900.117188 L 4488.828125 3891.171875 L 4513.867188 3881.367188 L 4537.8125 3872.03125 L 4561.71875 3862.773438 L 4586.679688 3853.164062 L 4609.6875 3844.335938 L 4633.203125 3835.390625 L 4659.21875 3825.546875 L 4682.773438 3816.71875 L 4706.875 3807.695312 L 4731.328125 3798.59375 L 4753.828125 3790.273438 L 4777.851562 3781.445312 L 4801.640625 3772.773438 L 4827.109375 3763.515625 L 4849.609375 3755.429688 L 4875.507812 3746.09375 L 4898.945312 3737.773438 L 4922.070312 3729.570312 L 4946.992188 3720.78125 L 4971.953125 3711.992188 L 4994.726562 3704.101562 L 5018.867188 3695.703125 L 5042.460938 3687.578125 L 5068.007812 3678.828125 L 5090.117188 3671.328125 L 5115.507812 3662.695312 L 5139.375 3654.648438 L 5163.007812 3646.757812 L 5186.679688 3638.867188 L 5210.820312 3630.898438 L 5236.367188 3622.460938 L 5259.84375 3614.804688 L 5283.007812 3607.265625 L 5307.734375 3599.21875 L 5332.421875 3591.289062 L 5355.703125 3583.828125 " transform="matrix(0.1,0,0,-0.1,0,555)"/>
<g clip-path="url(#clip1)" clip-rule="nonzero">
<path style="fill:none;stroke-width:13.875;stroke-linecap:square;stroke-linejoin:miter;stroke:rgb(0%,0%,100%);stroke-opacity:1;stroke-miterlimit:10;" d="M 5397.34375 3590.78125 C 5397.34375 3563.945312 5375.625 3542.1875 5348.789062 3542.1875 C 5321.953125 3542.1875 5300.234375 3563.945312 5300.234375 3590.78125 C 5300.234375 3617.578125 5321.953125 3639.335938 5348.789062 3639.335938 C 5375.625 3639.335938 5397.34375 3617.578125 5397.34375 3590.78125 Z M 5397.34375 3590.78125 " transform="matrix(0.1,0,0,-0.1,0,555)"/>
</g>
<path style=" stroke:none;fill-rule:nonzero;fill:rgb(0%,0%,100%);fill-opacity:1;" d="M 539.734375 195.921875 C 539.734375 198.605469 537.5625 200.78125 534.878906 200.78125 C 532.195312 200.78125 530.023438 198.605469 530.023438 195.921875 C 530.023438 193.242188 532.195312 191.066406 534.878906 191.066406 C 537.5625 191.066406 539.734375 193.242188 539.734375 195.921875 "/>
<path style="fill:none;stroke-width:13.875;stroke-linecap:square;stroke-linejoin:miter;stroke:rgb(0%,0%,100%);stroke-opacity:1;stroke-miterlimit:10;" d="M 4333.59375 3977.5 C 4333.59375 3950.664062 4311.875 3928.945312 4285.039062 3928.945312 C 4258.203125 3928.945312 4236.484375 3950.664062 4236.484375 3977.5 C 4236.484375 4004.335938 4258.203125 4026.054688 4285.039062 4026.054688 C 4311.875 4026.054688 4333.59375 4004.335938 4333.59375 3977.5 Z M 4333.59375 3977.5 " transform="matrix(0.1,0,0,-0.1,0,555)"/>
<path style=" stroke:none;fill-rule:nonzero;fill:rgb(0%,0%,100%);fill-opacity:1;" d="M 433.359375 157.25 C 433.359375 159.933594 431.1875 162.105469 428.503906 162.105469 C 425.820312 162.105469 423.648438 159.933594 423.648438 157.25 C 423.648438 154.566406 425.820312 152.394531 428.503906 152.394531 C 431.1875 152.394531 433.359375 154.566406 433.359375 157.25 "/>
<path style="fill:none;stroke-width:13.875;stroke-linecap:square;stroke-linejoin:miter;stroke:rgb(0%,0%,100%);stroke-opacity:1;stroke-miterlimit:10;" d="M 4865.46875 3771.640625 C 4865.46875 3744.804688 4843.710938 3723.085938 4816.914062 3723.085938 C 4790.078125 3723.085938 4768.359375 3744.804688 4768.359375 3771.640625 C 4768.359375 3798.476562 4790.078125 3820.195312 4816.914062 3820.195312 C 4843.710938 3820.195312 4865.46875 3798.476562 4865.46875 3771.640625 Z M 4865.46875 3771.640625 " transform="matrix(0.1,0,0,-0.1,0,555)"/>
<path style=" stroke:none;fill-rule:nonzero;fill:rgb(0%,0%,100%);fill-opacity:1;" d="M 486.546875 177.835938 C 486.546875 180.519531 484.371094 182.691406 481.691406 182.691406 C 479.007812 182.691406 476.835938 180.519531 476.835938 177.835938 C 476.835938 175.152344 479.007812 172.980469 481.691406 172.980469 C 484.371094 172.980469 486.546875 175.152344 486.546875 177.835938 "/>
<path style="fill:none;stroke-width:13.875;stroke-linecap:square;stroke-linejoin:miter;stroke:rgb(0%,0%,100%);stroke-opacity:1;stroke-miterlimit:10;" d="M 3801.71875 4212.851562 C 3801.71875 4186.015625 3780 4164.296875 3753.164062 4164.296875 C 3726.367188 4164.296875 3704.609375 4186.015625 3704.609375 4212.851562 C 3704.609375 4239.648438 3726.367188 4261.40625 3753.164062 4261.40625 C 3780 4261.40625 3801.71875 4239.648438 3801.71875 4212.851562 Z M 3801.71875 4212.851562 " transform="matrix(0.1,0,0,-0.1,0,555)"/>
<path style=" stroke:none;fill-rule:nonzero;fill:rgb(0%,0%,100%);fill-opacity:1;" d="M 380.171875 133.714844 C 380.171875 136.398438 378 138.570312 375.316406 138.570312 C 372.636719 138.570312 370.460938 136.398438 370.460938 133.714844 C 370.460938 131.035156 372.636719 128.859375 375.316406 128.859375 C 378 128.859375 380.171875 131.035156 380.171875 133.714844 "/>
<path style="fill:none;stroke-width:13.875;stroke-linecap:square;stroke-linejoin:miter;stroke:rgb(0%,0%,100%);stroke-opacity:1;stroke-miterlimit:10;" d="M 3269.84375 4481.835938 C 3269.84375 4455.039062 3248.125 4433.28125 3221.289062 4433.28125 C 3194.453125 4433.28125 3172.734375 4455.039062 3172.734375 4481.835938 C 3172.734375 4508.671875 3194.453125 4530.390625 3221.289062 4530.390625 C 3248.125 4530.390625 3269.84375 4508.671875 3269.84375 4481.835938 Z M 3269.84375 4481.835938 " transform="matrix(0.1,0,0,-0.1,0,555)"/>
<path style=" stroke:none;fill-rule:nonzero;fill:rgb(0%,0%,100%);fill-opacity:1;" d="M 326.984375 106.816406 C 326.984375 109.496094 324.8125 111.671875 322.128906 111.671875 C 319.445312 111.671875 317.273438 109.496094 317.273438 106.816406 C 317.273438 104.132812 319.445312 101.960938 322.128906 101.960938 C 324.8125 101.960938 326.984375 104.132812 326.984375 106.816406 "/>
<path style="fill:none;stroke-width:13.875;stroke-linecap:square;stroke-linejoin:miter;stroke:rgb(0%,0%,100%);stroke-opacity:1;stroke-miterlimit:10;" d="M 2206.09375 5106.757812 C 2206.09375 5079.921875 2184.375 5058.203125 2157.539062 5058.203125 C 2130.742188 5058.203125 2108.984375 5079.921875 2108.984375 5106.757812 C 2108.984375 5133.59375 2130.742188 5155.3125 2157.539062 5155.3125 C 2184.375 5155.3125 2206.09375 5133.59375 2206.09375 5106.757812 Z M 2206.09375 5106.757812 " transform="matrix(0.1,0,0,-0.1,0,555)"/>
<path style=" stroke:none;fill-rule:nonzero;fill:rgb(0%,0%,100%);fill-opacity:1;" d="M 220.609375 44.324219 C 220.609375 47.007812 218.4375 49.179688 215.753906 49.179688 C 213.074219 49.179688 210.898438 47.007812 210.898438 44.324219 C 210.898438 41.640625 213.074219 39.46875 215.753906 39.46875 C 218.4375 39.46875 220.609375 41.640625 220.609375 44.324219 "/>
<g clip-path="url(#clip2)" clip-rule="nonzero">
<path style="fill:none;stroke-width:13.875;stroke-linecap:square;stroke-linejoin:miter;stroke:rgb(0%,0%,100%);stroke-opacity:1;stroke-miterlimit:10;" d="M 1674.257812 5362.617188 C 1674.257812 5335.78125 1652.5 5314.0625 1625.664062 5314.0625 C 1598.867188 5314.0625 1577.109375 5335.78125 1577.109375 5362.617188 C 1577.109375 5389.453125 1598.867188 5411.171875 1625.664062 5411.171875 C 1652.5 5411.171875 1674.257812 5389.453125 1674.257812 5362.617188 Z M 1674.257812 5362.617188 " transform="matrix(0.1,0,0,-0.1,0,555)"/>
</g>
<path style=" stroke:none;fill-rule:nonzero;fill:rgb(0%,0%,100%);fill-opacity:1;" d="M 167.425781 18.738281 C 167.425781 21.421875 165.25 23.59375 162.566406 23.59375 C 159.886719 23.59375 157.710938 21.421875 157.710938 18.738281 C 157.710938 16.054688 159.886719 13.882812 162.566406 13.882812 C 165.25 13.882812 167.425781 16.054688 167.425781 18.738281 "/>
<path style="fill:none;stroke-width:13.875;stroke-linecap:square;stroke-linejoin:miter;stroke:rgb(0%,0%,100%);stroke-opacity:1;stroke-miterlimit:10;" d="M 2737.96875 4785.039062 C 2737.96875 4758.203125 2716.25 4736.445312 2689.414062 4736.445312 C 2662.617188 4736.445312 2640.859375 4758.203125 2640.859375 4785.039062 C 2640.859375 4811.835938 2662.617188 4833.59375 2689.414062 4833.59375 C 2716.25 4833.59375 2737.96875 4811.835938 2737.96875 4785.039062 Z M 2737.96875 4785.039062 " transform="matrix(0.1,0,0,-0.1,0,555)"/>
<path style=" stroke:none;fill-rule:nonzero;fill:rgb(0%,0%,100%);fill-opacity:1;" d="M 273.796875 76.496094 C 273.796875 79.179688 271.625 81.355469 268.941406 81.355469 C 266.261719 81.355469 264.085938 79.179688 264.085938 76.496094 C 264.085938 73.816406 266.261719 71.640625 268.941406 71.640625 C 271.625 71.640625 273.796875 73.816406 273.796875 76.496094 "/>
<path style="fill:none;stroke-width:13.875;stroke-linecap:square;stroke-linejoin:miter;stroke:rgb(0%,0%,100%);stroke-opacity:1;stroke-miterlimit:10;" d="M 1142.382812 5106.757812 C 1142.382812 5079.921875 1120.625 5058.203125 1093.828125 5058.203125 C 1066.992188 5058.203125 1045.234375 5079.921875 1045.234375 5106.757812 C 1045.234375 5133.59375 1066.992188 5155.3125 1093.828125 5155.3125 C 1120.625 5155.3125 1142.382812 5133.59375 1142.382812 5106.757812 Z M 1142.382812 5106.757812 " transform="matrix(0.1,0,0,-0.1,0,555)"/>
<path style=" stroke:none;fill-rule:nonzero;fill:rgb(0%,0%,100%);fill-opacity:1;" d="M 114.238281 44.324219 C 114.238281 47.007812 112.0625 49.179688 109.382812 49.179688 C 106.699219 49.179688 104.523438 47.007812 104.523438 44.324219 C 104.523438 41.640625 106.699219 39.46875 109.382812 39.46875 C 112.0625 39.46875 114.238281 41.640625 114.238281 44.324219 "/>
<path style="fill:none;stroke-width:13.875;stroke-linecap:square;stroke-linejoin:miter;stroke:rgb(0%,0%,100%);stroke-opacity:1;stroke-miterlimit:10;" d="M 610.507812 589.6875 C 610.507812 562.851562 588.75 541.132812 561.953125 541.132812 C 535.117188 541.132812 513.359375 562.851562 513.359375 589.6875 C 513.359375 616.523438 535.117188 638.242188 561.953125 638.242188 C 588.75 638.242188 610.507812 616.523438 610.507812 589.6875 Z M 610.507812 589.6875 " transform="matrix(0.1,0,0,-0.1,0,555)"/>
<path style=" stroke:none;fill-rule:nonzero;fill:rgb(0%,0%,100%);fill-opacity:1;" d="M 61.050781 496.03125 C 61.050781 498.714844 58.875 500.886719 56.195312 500.886719 C 53.511719 500.886719 51.335938 498.714844 51.335938 496.03125 C 51.335938 493.347656 53.511719 491.175781 56.195312 491.175781 C 58.875 491.175781 61.050781 493.347656 61.050781 496.03125 "/>
<path style="fill:none;stroke-width:13.875;stroke-linecap:butt;stroke-linejoin:round;stroke:rgb(0%,0%,0%);stroke-opacity:1;stroke-miterlimit:10;" d="M 541.132812 582.734375 L 5355.703125 582.734375 " transform="matrix(0.1,0,0,-0.1,0,555)"/>
<path style=" stroke:none;fill-rule:nonzero;fill:rgb(0%,0%,0%);fill-opacity:1;" d="M 295.882812 534.535156 C 296.171875 534.835938 296.390625 535.148438 296.535156 535.464844 C 296.648438 535.667969 296.824219 536.21875 297.054688 537.113281 L 297.835938 535.964844 C 298.039062 535.675781 298.285156 535.40625 298.582031 535.152344 C 298.878906 534.898438 299.136719 534.722656 299.351562 534.621094 C 299.496094 534.5625 299.65625 534.535156 299.828125 534.535156 C 300.074219 534.535156 300.273438 534.601562 300.425781 534.738281 C 300.578125 534.878906 300.652344 535.039062 300.652344 535.226562 C 300.652344 535.457031 300.609375 535.617188 300.523438 535.703125 C 300.363281 535.847656 300.175781 535.921875 299.960938 535.921875 C 299.828125 535.921875 299.699219 535.894531 299.570312 535.835938 C 299.296875 535.75 299.105469 535.703125 299.007812 535.703125 C 298.859375 535.703125 298.695312 535.785156 298.507812 535.941406 C 298.144531 536.246094 297.710938 536.839844 297.207031 537.71875 L 297.921875 540.734375 C 298.039062 541.199219 298.132812 541.472656 298.203125 541.570312 C 298.277344 541.664062 298.355469 541.710938 298.441406 541.710938 C 298.558594 541.710938 298.703125 541.644531 298.875 541.515625 C 299.195312 541.238281 299.46875 540.886719 299.699219 540.453125 L 300.003906 540.605469 C 299.628906 541.296875 299.15625 541.875 298.59375 542.339844 C 298.277344 542.597656 298.003906 542.730469 297.769531 542.730469 C 297.4375 542.730469 297.179688 542.539062 296.988281 542.164062 C 296.859375 541.933594 296.605469 540.953125 296.230469 539.21875 C 295.304688 540.804688 294.570312 541.824219 294.019531 542.273438 C 293.65625 542.578125 293.3125 542.730469 292.980469 542.730469 C 292.746094 542.730469 292.53125 542.640625 292.328125 542.46875 C 292.199219 542.339844 292.132812 542.164062 292.132812 541.949219 C 292.132812 541.761719 292.199219 541.601562 292.328125 541.472656 C 292.460938 541.339844 292.617188 541.277344 292.804688 541.277344 C 292.992188 541.277344 293.1875 541.371094 293.390625 541.558594 C 293.550781 541.6875 293.671875 541.753906 293.757812 541.753906 C 293.816406 541.753906 293.902344 541.710938 294.019531 541.621094 C 294.292969 541.390625 294.671875 540.90625 295.144531 540.171875 C 295.621094 539.433594 295.933594 538.898438 296.078125 538.566406 C 295.71875 537.136719 295.523438 536.382812 295.492188 536.3125 C 295.363281 535.921875 295.191406 535.648438 294.972656 535.488281 C 294.757812 535.328125 294.433594 535.25 293.996094 535.25 C 293.867188 535.25 293.714844 535.257812 293.542969 535.269531 L 293.542969 534.945312 L 295.882812 534.535156 "/>
<path style="fill:none;stroke-width:1.2;stroke-linecap:butt;stroke-linejoin:round;stroke:rgb(0%,0%,0%);stroke-opacity:1;stroke-miterlimit:10;" d="M 568.867188 582.734375 L 568.867188 527.265625 " transform="matrix(0.1,0,0,-0.1,0,555)"/>
<path style=" stroke:none;fill-rule:nonzero;fill:rgb(0%,0%,0%);fill-opacity:1;" d="M 54.847656 510.925781 L 57.753906 509.515625 L 58.035156 509.515625 L 58.035156 519.597656 C 58.035156 520.261719 58.066406 520.675781 58.121094 520.84375 C 58.179688 521.007812 58.296875 521.136719 58.46875 521.222656 C 58.644531 521.308594 58.996094 521.359375 59.53125 521.375 L 59.53125 521.699219 L 55.042969 521.699219 L 55.042969 521.375 C 55.609375 521.359375 55.972656 521.308594 56.140625 521.222656 C 56.304688 521.136719 56.421875 521.019531 56.484375 520.875 C 56.550781 520.730469 56.585938 520.304688 56.585938 519.597656 L 56.585938 513.15625 C 56.585938 512.277344 56.554688 511.714844 56.496094 511.46875 C 56.453125 511.277344 56.378906 511.140625 56.269531 511.054688 C 56.160156 510.96875 56.027344 510.925781 55.867188 510.925781 C 55.652344 510.925781 55.355469 511.019531 54.980469 511.207031 L 54.847656 510.925781 "/>
<path style="fill:none;stroke-width:1.2;stroke-linecap:butt;stroke-linejoin:round;stroke:rgb(0%,0%,0%);stroke-opacity:1;stroke-miterlimit:10;" d="M 1100.742188 582.734375 L 1100.742188 527.265625 " transform="matrix(0.1,0,0,-0.1,0,555)"/>
<path style=" stroke:none;fill-rule:nonzero;fill:rgb(0%,0%,0%);fill-opacity:1;" d="M 113.710938 519.402344 L 112.886719 521.699219 L 105.839844 521.699219 L 105.839844 521.375 C 107.90625 519.480469 109.363281 517.933594 110.210938 516.734375 C 111.054688 515.535156 111.476562 514.445312 111.476562 513.460938 C 111.476562 512.695312 111.246094 512.070312 110.78125 511.585938 C 110.320312 511.101562 109.765625 510.859375 109.113281 510.859375 C 108.535156 510.859375 108.011719 511.027344 107.542969 511.367188 C 107.070312 511.707031 106.730469 512.210938 106.511719 512.875 L 106.1875 512.875 C 106.332031 511.792969 106.707031 510.960938 107.3125 510.382812 C 107.921875 509.804688 108.679688 509.515625 109.589844 509.515625 C 110.558594 509.515625 111.367188 509.824219 112.019531 510.449219 C 112.667969 511.070312 112.996094 511.796875 112.996094 512.636719 C 112.996094 513.246094 112.851562 513.851562 112.5625 514.457031 C 112.128906 515.410156 111.425781 516.417969 110.457031 517.472656 C 108.996094 519.078125 108.078125 520.042969 107.703125 520.375 L 110.828125 520.375 C 111.464844 520.375 111.90625 520.351562 112.160156 520.300781 C 112.414062 520.25 112.644531 520.152344 112.855469 520.007812 C 113.0625 519.863281 113.238281 519.660156 113.386719 519.402344 L 113.710938 519.402344 "/>
<path style="fill:none;stroke-width:1.2;stroke-linecap:butt;stroke-linejoin:round;stroke:rgb(0%,0%,0%);stroke-opacity:1;stroke-miterlimit:10;" d="M 1632.617188 582.734375 L 1632.617188 527.265625 " transform="matrix(0.1,0,0,-0.1,0,555)"/>
<path style=" stroke:none;fill-rule:nonzero;fill:rgb(0%,0%,0%);fill-opacity:1;" d="M 159.085938 512.03125 C 159.433594 511.21875 159.863281 510.601562 160.386719 510.164062 C 160.90625 509.734375 161.550781 509.515625 162.316406 509.515625 C 163.285156 509.515625 164.019531 509.824219 164.527344 510.449219 C 164.917969 510.910156 165.113281 511.402344 165.113281 511.921875 C 165.113281 512.804688 164.5625 513.707031 163.464844 514.632812 C 164.199219 514.921875 164.757812 515.332031 165.132812 515.867188 C 165.507812 516.402344 165.695312 517.03125 165.695312 517.753906 C 165.695312 518.78125 165.363281 519.667969 164.699219 520.421875 C 163.847656 521.417969 162.609375 521.917969 160.992188 521.917969 C 160.183594 521.917969 159.636719 521.816406 159.34375 521.613281 C 159.054688 521.410156 158.910156 521.195312 158.910156 520.960938 C 158.910156 520.789062 158.980469 520.640625 159.117188 520.519531 C 159.253906 520.394531 159.417969 520.332031 159.605469 520.332031 C 159.75 520.332031 159.902344 520.355469 160.0625 520.398438 C 160.160156 520.425781 160.390625 520.53125 160.742188 520.714844 C 161.097656 520.894531 161.339844 521.007812 161.46875 521.050781 C 161.6875 521.105469 161.917969 521.136719 162.164062 521.136719 C 162.757812 521.136719 163.277344 520.90625 163.726562 520.441406 C 164.171875 519.980469 164.394531 519.429688 164.394531 518.792969 C 164.394531 518.332031 164.296875 517.882812 164.09375 517.449219 C 163.933594 517.117188 163.761719 516.863281 163.570312 516.691406 C 163.328125 516.460938 162.984375 516.25 162.542969 516.0625 C 162.101562 515.875 161.652344 515.78125 161.1875 515.78125 L 160.90625 515.78125 L 160.90625 515.5 C 161.367188 515.441406 161.835938 515.273438 162.304688 515 C 162.773438 514.726562 163.113281 514.398438 163.324219 514.011719 C 163.535156 513.628906 163.636719 513.203125 163.636719 512.722656 C 163.636719 512.132812 163.449219 511.648438 163.074219 511.273438 C 162.699219 510.894531 162.226562 510.707031 161.664062 510.707031 C 160.753906 510.707031 159.996094 511.191406 159.390625 512.160156 L 159.085938 512.03125 "/>
<path style="fill:none;stroke-width:1.2;stroke-linecap:butt;stroke-linejoin:round;stroke:rgb(0%,0%,0%);stroke-opacity:1;stroke-miterlimit:10;" d="M 2164.492188 582.734375 L 2164.492188 527.265625 " transform="matrix(0.1,0,0,-0.1,0,555)"/>
<path style=" stroke:none;fill-rule:nonzero;fill:rgb(0%,0%,0%);fill-opacity:1;" d="M 219.289062 517.296875 L 219.289062 518.554688 L 217.683594 518.554688 L 217.683594 521.699219 L 216.230469 521.699219 L 216.230469 518.554688 L 211.183594 518.554688 L 211.183594 517.425781 L 216.730469 509.515625 L 217.683594 509.515625 L 217.683594 517.296875 Z M 216.230469 517.296875 L 216.230469 511.355469 L 212.050781 517.296875 L 216.230469 517.296875 "/>
<path style="fill:none;stroke-width:1.2;stroke-linecap:butt;stroke-linejoin:round;stroke:rgb(0%,0%,0%);stroke-opacity:1;stroke-miterlimit:10;" d="M 2696.367188 582.734375 L 2696.367188 527.265625 " transform="matrix(0.1,0,0,-0.1,0,555)"/>
<path style=" stroke:none;fill-rule:nonzero;fill:rgb(0%,0%,0%);fill-opacity:1;" d="M 272.839844 509.753906 L 272.144531 511.25 L 268.566406 511.25 L 267.789062 512.855469 C 269.332031 513.085938 270.5625 513.664062 271.472656 514.589844 C 272.253906 515.382812 272.644531 516.324219 272.644531 517.40625 C 272.644531 518.042969 272.515625 518.628906 272.265625 519.160156 C 272.011719 519.699219 271.6875 520.152344 271.300781 520.527344 C 270.910156 520.90625 270.476562 521.199219 269.996094 521.417969 C 269.332031 521.75 268.640625 521.917969 267.914062 521.917969 C 267.210938 521.917969 266.691406 521.792969 266.367188 521.546875 C 266.042969 521.300781 265.878906 521.035156 265.878906 520.746094 C 265.878906 520.570312 265.949219 520.421875 266.085938 520.300781 C 266.222656 520.175781 266.390625 520.117188 266.59375 520.117188 C 266.738281 520.117188 266.867188 520.140625 266.984375 520.183594 C 267.101562 520.226562 267.296875 520.347656 267.570312 520.550781 C 268.019531 520.851562 268.464844 521.007812 268.914062 521.007812 C 269.609375 521.007812 270.210938 520.746094 270.726562 520.226562 C 271.238281 519.703125 271.492188 519.070312 271.492188 518.316406 C 271.492188 517.59375 271.261719 516.921875 270.800781 516.300781 C 270.339844 515.679688 269.703125 515.195312 268.890625 514.847656 C 268.242188 514.589844 267.367188 514.4375 266.269531 514.394531 L 268.566406 509.753906 L 272.839844 509.753906 "/>
<path style="fill:none;stroke-width:1.2;stroke-linecap:butt;stroke-linejoin:round;stroke:rgb(0%,0%,0%);stroke-opacity:1;stroke-miterlimit:10;" d="M 3228.242188 582.734375 L 3228.242188 527.265625 " transform="matrix(0.1,0,0,-0.1,0,555)"/>
<path style=" stroke:none;fill-rule:nonzero;fill:rgb(0%,0%,0%);fill-opacity:1;" d="M 325.824219 509.515625 L 325.824219 509.839844 C 325.042969 509.914062 324.40625 510.066406 323.914062 510.296875 C 323.425781 510.527344 322.941406 510.882812 322.464844 511.355469 C 321.984375 511.835938 321.59375 512.367188 321.28125 512.953125 C 320.96875 513.539062 320.707031 514.226562 320.488281 515.023438 C 321.34375 514.445312 322.195312 514.15625 323.050781 514.15625 C 323.859375 514.15625 324.5625 514.484375 325.160156 515.140625 C 325.761719 515.796875 326.0625 516.648438 326.0625 517.6875 C 326.0625 518.6875 325.757812 519.597656 325.152344 520.421875 C 324.429688 521.417969 323.46875 521.917969 322.269531 521.917969 C 321.441406 521.917969 320.75 521.640625 320.1875 521.09375 C 319.074219 520.050781 318.515625 518.695312 318.515625 517.015625 C 318.515625 515.949219 318.730469 514.929688 319.15625 513.96875 C 319.582031 513.011719 320.191406 512.152344 320.988281 511.402344 C 321.785156 510.648438 322.546875 510.148438 323.277344 509.894531 C 324.007812 509.640625 324.683594 509.515625 325.304688 509.515625 Z M 320.339844 515.671875 C 320.238281 516.46875 320.1875 517.109375 320.1875 517.601562 C 320.1875 518.164062 320.292969 518.777344 320.503906 519.433594 C 320.710938 520.09375 321.019531 520.613281 321.421875 521.007812 C 321.726562 521.28125 322.09375 521.417969 322.527344 521.417969 C 323.035156 521.417969 323.488281 521.175781 323.894531 520.691406 C 324.300781 520.207031 324.503906 519.523438 324.503906 518.640625 C 324.503906 517.628906 324.300781 516.761719 323.894531 516.03125 C 323.488281 515.300781 322.925781 514.9375 322.203125 514.9375 C 321.972656 514.9375 321.730469 514.980469 321.476562 515.078125 C 321.222656 515.171875 320.84375 515.367188 320.339844 515.671875 "/>
<path style="fill:none;stroke-width:1.2;stroke-linecap:butt;stroke-linejoin:round;stroke:rgb(0%,0%,0%);stroke-opacity:1;stroke-miterlimit:10;" d="M 3760.117188 582.734375 L 3760.117188 527.265625 " transform="matrix(0.1,0,0,-0.1,0,555)"/>
<path style=" stroke:none;fill-rule:nonzero;fill:rgb(0%,0%,0%);fill-opacity:1;" d="M 372.28125 509.753906 L 378.679688 509.753906 L 378.679688 510.101562 L 374.6875 521.9375 L 373.714844 521.9375 L 377.269531 511.183594 L 373.996094 511.183594 C 373.328125 511.183594 372.859375 511.265625 372.585938 511.421875 C 372.078125 511.699219 371.683594 512.117188 371.394531 512.679688 L 371.132812 512.59375 L 372.28125 509.753906 "/>
<path style="fill:none;stroke-width:1.2;stroke-linecap:butt;stroke-linejoin:round;stroke:rgb(0%,0%,0%);stroke-opacity:1;stroke-miterlimit:10;" d="M 4291.992188 582.734375 L 4291.992188 527.265625 " transform="matrix(0.1,0,0,-0.1,0,555)"/>
<path style=" stroke:none;fill-rule:nonzero;fill:rgb(0%,0%,0%);fill-opacity:1;" d="M 428.042969 515.695312 C 427.089844 514.914062 426.476562 514.289062 426.199219 513.820312 C 425.925781 513.347656 425.789062 512.863281 425.789062 512.355469 C 425.789062 511.574219 426.089844 510.90625 426.6875 510.351562 C 427.289062 509.792969 428.085938 509.515625 429.085938 509.515625 C 430.050781 509.515625 430.828125 509.777344 431.414062 510.296875 C 432 510.816406 432.292969 511.410156 432.292969 512.074219 C 432.292969 512.523438 432.132812 512.976562 431.816406 513.4375 C 431.496094 513.902344 430.839844 514.453125 429.84375 515.085938 C 430.867188 515.882812 431.546875 516.511719 431.878906 516.972656 C 432.328125 517.566406 432.554688 518.195312 432.554688 518.859375 C 432.554688 519.699219 432.234375 520.417969 431.597656 521.015625 C 430.964844 521.617188 430.125 521.917969 429.085938 521.917969 C 427.941406 521.917969 427.054688 521.5625 426.417969 520.851562 C 425.910156 520.277344 425.660156 519.648438 425.660156 518.96875 C 425.660156 518.449219 425.839844 517.925781 426.199219 517.40625 C 426.5625 516.886719 427.175781 516.316406 428.042969 515.695312 Z M 429.410156 514.738281 C 430.117188 514.105469 430.566406 513.601562 430.753906 513.234375 C 430.941406 512.863281 431.035156 512.449219 431.035156 511.988281 C 431.035156 511.378906 430.863281 510.898438 430.515625 510.542969 C 430.167969 510.191406 429.699219 510.015625 429.105469 510.015625 C 428.5 510.015625 428.007812 510.1875 427.632812 510.535156 C 427.257812 510.882812 427.066406 511.285156 427.066406 511.75 C 427.066406 512.050781 427.148438 512.359375 427.304688 512.671875 C 427.464844 512.980469 427.6875 513.273438 427.980469 513.546875 Z M 428.453125 516.019531 C 427.964844 516.421875 427.601562 516.867188 427.371094 517.351562 C 427.140625 517.835938 427.023438 518.359375 427.023438 518.925781 C 427.023438 519.691406 427.230469 520.300781 427.640625 520.757812 C 428.054688 521.210938 428.578125 521.4375 429.214844 521.4375 C 429.851562 521.4375 430.359375 521.257812 430.742188 520.898438 C 431.125 520.535156 431.316406 520.101562 431.316406 519.597656 C 431.316406 519.175781 431.203125 518.792969 430.96875 518.449219 C 430.566406 517.828125 429.726562 517.015625 428.453125 516.019531 "/>
<path style="fill:none;stroke-width:1.2;stroke-linecap:butt;stroke-linejoin:round;stroke:rgb(0%,0%,0%);stroke-opacity:1;stroke-miterlimit:10;" d="M 4823.867188 582.734375 L 4823.867188 527.265625 " transform="matrix(0.1,0,0,-0.1,0,555)"/>
<path style=" stroke:none;fill-rule:nonzero;fill:rgb(0%,0%,0%);fill-opacity:1;" d="M 478.253906 521.9375 L 478.253906 521.613281 C 479.019531 521.613281 479.730469 521.4375 480.390625 521.09375 C 481.046875 520.746094 481.683594 520.140625 482.296875 519.28125 C 482.910156 518.421875 483.335938 517.480469 483.5625 516.453125 C 482.640625 517.042969 481.808594 517.34375 481.070312 517.34375 C 480.234375 517.34375 479.515625 517.019531 478.914062 516.378906 C 478.3125 515.734375 478.015625 514.871094 478.015625 513.785156 C 478.015625 512.746094 478.3125 511.8125 478.902344 510.988281 C 479.628906 510.007812 480.574219 509.515625 481.742188 509.515625 C 482.726562 509.515625 483.5625 509.917969 484.257812 510.730469 C 485.113281 511.726562 485.539062 512.964844 485.539062 514.4375 C 485.539062 515.765625 485.214844 517.007812 484.5625 518.15625 C 483.910156 519.304688 483.007812 520.253906 481.851562 521.007812 C 480.898438 521.625 479.867188 521.9375 478.75 521.9375 Z M 483.71875 515.804688 C 483.816406 515.035156 483.867188 514.429688 483.867188 513.980469 C 483.867188 513.402344 483.769531 512.785156 483.574219 512.128906 C 483.378906 511.46875 483.105469 510.964844 482.753906 510.609375 C 482.398438 510.257812 481.996094 510.078125 481.546875 510.078125 C 481.027344 510.078125 480.570312 510.3125 480.171875 510.78125 C 479.773438 511.253906 479.574219 511.953125 479.574219 512.875 C 479.574219 514.117188 479.835938 515.085938 480.355469 515.78125 C 480.746094 516.289062 481.214844 516.539062 481.765625 516.539062 C 482.039062 516.539062 482.363281 516.472656 482.730469 516.34375 C 483.097656 516.214844 483.425781 516.035156 483.71875 515.804688 "/>
<path style="fill:none;stroke-width:1.2;stroke-linecap:butt;stroke-linejoin:round;stroke:rgb(0%,0%,0%);stroke-opacity:1;stroke-miterlimit:10;" d="M 5355.703125 582.734375 L 5355.703125 527.265625 " transform="matrix(0.1,0,0,-0.1,0,555)"/>
<path style=" stroke:none;fill-rule:nonzero;fill:rgb(0%,0%,0%);fill-opacity:1;" d="M 527.988281 510.925781 L 530.890625 509.515625 L 531.175781 509.515625 L 531.175781 519.597656 C 531.175781 520.261719 531.203125 520.675781 531.261719 520.84375 C 531.316406 521.007812 531.433594 521.136719 531.605469 521.222656 C 531.78125 521.308594 532.132812 521.359375 532.671875 521.375 L 532.671875 521.699219 L 528.179688 521.699219 L 528.179688 521.375 C 528.746094 521.359375 529.109375 521.308594 529.277344 521.222656 C 529.441406 521.136719 529.558594 521.019531 529.621094 520.875 C 529.6875 520.730469 529.722656 520.304688 529.722656 519.597656 L 529.722656 513.15625 C 529.722656 512.277344 529.691406 511.714844 529.632812 511.46875 C 529.589844 511.277344 529.515625 511.140625 529.40625 511.054688 C 529.296875 510.96875 529.164062 510.925781 529.003906 510.925781 C 528.789062 510.925781 528.492188 511.019531 528.117188 511.207031 Z M 535.53125 515.804688 C 535.53125 514.445312 535.738281 513.269531 536.148438 512.277344 C 536.558594 511.289062 537.105469 510.554688 537.785156 510.078125 C 538.320312 509.703125 538.871094 509.515625 539.433594 509.515625 C 540.34375 509.515625 541.160156 509.976562 541.882812 510.902344 C 542.792969 512.058594 543.25 513.628906 543.25 515.605469 C 543.25 516.996094 543.050781 518.171875 542.652344 519.140625 C 542.257812 520.109375 541.746094 520.816406 541.125 521.253906 C 540.503906 521.695312 539.910156 521.917969 539.347656 521.917969 C 538.203125 521.917969 537.25 521.242188 536.484375 519.902344 C 535.847656 518.757812 535.53125 517.390625 535.53125 515.804688 Z M 537.265625 516.019531 C 537.265625 517.667969 537.46875 519.011719 537.871094 520.050781 C 538.203125 520.917969 538.703125 521.351562 539.367188 521.351562 C 539.6875 521.351562 540.015625 521.210938 540.355469 520.929688 C 540.695312 520.648438 540.953125 520.167969 541.125 519.488281 C 541.398438 518.492188 541.535156 517.066406 541.535156 515.21875 C 541.535156 513.859375 541.390625 512.722656 541.101562 511.8125 C 540.898438 511.132812 540.625 510.65625 540.277344 510.382812 C 540.046875 510.195312 539.757812 510.101562 539.410156 510.101562 C 539.019531 510.101562 538.667969 510.273438 538.351562 510.621094 C 537.929688 511.113281 537.644531 511.882812 537.492188 512.929688 C 537.339844 513.976562 537.265625 515.007812 537.265625 516.019531 "/>
<path style="fill:none;stroke-width:1.2;stroke-linecap:butt;stroke-linejoin:round;stroke:rgb(0%,0%,0%);stroke-opacity:1;stroke-miterlimit:10;" d="M 834.804688 582.734375 L 834.804688 555 " transform="matrix(0.1,0,0,-0.1,0,555)"/>
<path style="fill:none;stroke-width:1.2;stroke-linecap:butt;stroke-linejoin:round;stroke:rgb(0%,0%,0%);stroke-opacity:1;stroke-miterlimit:10;" d="M 1366.679688 582.734375 L 1366.679688 555 " transform="matrix(0.1,0,0,-0.1,0,555)"/>
<path style="fill:none;stroke-width:1.2;stroke-linecap:butt;stroke-linejoin:round;stroke:rgb(0%,0%,0%);stroke-opacity:1;stroke-miterlimit:10;" d="M 1898.554688 582.734375 L 1898.554688 555 " transform="matrix(0.1,0,0,-0.1,0,555)"/>
<path style="fill:none;stroke-width:1.2;stroke-linecap:butt;stroke-linejoin:round;stroke:rgb(0%,0%,0%);stroke-opacity:1;stroke-miterlimit:10;" d="M 2430.429688 582.734375 L 2430.429688 555 " transform="matrix(0.1,0,0,-0.1,0,555)"/>
<path style="fill:none;stroke-width:1.2;stroke-linecap:butt;stroke-linejoin:round;stroke:rgb(0%,0%,0%);stroke-opacity:1;stroke-miterlimit:10;" d="M 2962.304688 582.734375 L 2962.304688 555 " transform="matrix(0.1,0,0,-0.1,0,555)"/>
<path style="fill:none;stroke-width:1.2;stroke-linecap:butt;stroke-linejoin:round;stroke:rgb(0%,0%,0%);stroke-opacity:1;stroke-miterlimit:10;" d="M 3494.179688 582.734375 L 3494.179688 555 " transform="matrix(0.1,0,0,-0.1,0,555)"/>
<path style="fill:none;stroke-width:1.2;stroke-linecap:butt;stroke-linejoin:round;stroke:rgb(0%,0%,0%);stroke-opacity:1;stroke-miterlimit:10;" d="M 4026.054688 582.734375 L 4026.054688 555 " transform="matrix(0.1,0,0,-0.1,0,555)"/>
<path style="fill:none;stroke-width:1.2;stroke-linecap:butt;stroke-linejoin:round;stroke:rgb(0%,0%,0%);stroke-opacity:1;stroke-miterlimit:10;" d="M 4557.890625 582.734375 L 4557.890625 555 " transform="matrix(0.1,0,0,-0.1,0,555)"/>
<path style="fill:none;stroke-width:1.2;stroke-linecap:butt;stroke-linejoin:round;stroke:rgb(0%,0%,0%);stroke-opacity:1;stroke-miterlimit:10;" d="M 5089.804688 582.734375 L 5089.804688 555 " transform="matrix(0.1,0,0,-0.1,0,555)"/>
<path style="fill:none;stroke-width:13.875;stroke-linecap:butt;stroke-linejoin:round;stroke:rgb(0%,0%,0%);stroke-opacity:1;stroke-miterlimit:10;" d="M 541.132812 582.734375 L 541.132812 5377.539062 " transform="matrix(0.1,0,0,-0.1,0,555)"/>
<path style="fill:none;stroke-width:1.2;stroke-linecap:butt;stroke-linejoin:round;stroke:rgb(0%,0%,0%);stroke-opacity:1;stroke-miterlimit:10;" d="M 541.132812 582.734375 L 485.625 582.734375 " transform="matrix(0.1,0,0,-0.1,0,555)"/>
<path style=" stroke:none;fill-rule:nonzero;fill:rgb(0%,0%,0%);fill-opacity:1;" d="M 39.5 497.765625 C 39.5 496.40625 39.707031 495.230469 40.117188 494.242188 C 40.53125 493.253906 41.074219 492.519531 41.753906 492.042969 C 42.289062 491.664062 42.839844 491.476562 43.402344 491.476562 C 44.3125 491.476562 45.128906 491.941406 45.851562 492.863281 C 46.761719 494.023438 47.21875 495.589844 47.21875 497.570312 C 47.21875 498.957031 47.019531 500.136719 46.621094 501.105469 C 46.222656 502.074219 45.714844 502.777344 45.09375 503.21875 C 44.472656 503.65625 43.878906 503.878906 43.316406 503.878906 C 42.175781 503.878906 41.21875 503.207031 40.453125 501.863281 C 39.820312 500.722656 39.5 499.355469 39.5 497.765625 Z M 41.234375 497.980469 C 41.234375 499.628906 41.4375 500.972656 41.84375 502.015625 C 42.175781 502.882812 42.671875 503.316406 43.335938 503.316406 C 43.65625 503.316406 43.984375 503.175781 44.324219 502.894531 C 44.664062 502.609375 44.921875 502.128906 45.09375 501.449219 C 45.367188 500.453125 45.503906 499.03125 45.503906 497.179688 C 45.503906 495.820312 45.359375 494.6875 45.070312 493.777344 C 44.871094 493.097656 44.59375 492.621094 44.246094 492.34375 C 44.015625 492.15625 43.726562 492.0625 43.382812 492.0625 C 42.992188 492.0625 42.636719 492.234375 42.320312 492.582031 C 41.898438 493.074219 41.613281 493.84375 41.460938 494.890625 C 41.308594 495.941406 41.234375 496.96875 41.234375 497.980469 "/>
<path style="fill:none;stroke-width:1.2;stroke-linecap:butt;stroke-linejoin:round;stroke:rgb(0%,0%,0%);stroke-opacity:1;stroke-miterlimit:10;" d="M 541.132812 1886.09375 L 485.625 1886.09375 " transform="matrix(0.1,0,0,-0.1,0,555)"/>
<path style=" stroke:none;fill-rule:nonzero;fill:rgb(0%,0%,0%);fill-opacity:1;" d="M 25.625 367.339844 C 25.625 365.980469 25.832031 364.808594 26.242188 363.816406 C 26.65625 362.828125 27.199219 362.09375 27.878906 361.617188 C 28.414062 361.242188 28.964844 361.050781 29.527344 361.050781 C 30.4375 361.050781 31.253906 361.515625 31.976562 362.441406 C 32.886719 363.597656 33.34375 365.164062 33.34375 367.144531 C 33.34375 368.53125 33.144531 369.710938 32.746094 370.679688 C 32.347656 371.648438 31.839844 372.351562 31.21875 372.792969 C 30.597656 373.234375 30.003906 373.453125 29.441406 373.453125 C 28.300781 373.453125 27.34375 372.78125 26.578125 371.4375 C 25.945312 370.296875 25.625 368.929688 25.625 367.339844 Z M 27.359375 367.558594 C 27.359375 369.203125 27.5625 370.546875 27.96875 371.589844 C 28.300781 372.457031 28.796875 372.890625 29.460938 372.890625 C 29.78125 372.890625 30.109375 372.75 30.449219 372.46875 C 30.789062 372.1875 31.046875 371.703125 31.21875 371.027344 C 31.492188 370.027344 31.628906 368.605469 31.628906 366.753906 C 31.628906 365.398438 31.484375 364.261719 31.195312 363.351562 C 30.996094 362.671875 30.71875 362.195312 30.371094 361.921875 C 30.140625 361.730469 29.851562 361.636719 29.507812 361.636719 C 29.117188 361.636719 28.761719 361.8125 28.445312 362.15625 C 28.023438 362.648438 27.738281 363.421875 27.585938 364.46875 C 27.433594 365.515625 27.359375 366.546875 27.359375 367.558594 Z M 36.25 371.523438 C 36.523438 371.523438 36.753906 371.621094 36.941406 371.816406 C 37.128906 372.011719 37.222656 372.238281 37.222656 372.5 C 37.222656 372.773438 37.128906 373.007812 36.941406 373.191406 C 36.753906 373.382812 36.523438 373.476562 36.25 373.476562 C 35.972656 373.476562 35.742188 373.382812 35.554688 373.191406 C 35.367188 373.007812 35.273438 372.773438 35.273438 372.5 C 35.273438 372.226562 35.367188 371.992188 35.554688 371.804688 C 35.742188 371.617188 35.972656 371.523438 36.25 371.523438 Z M 40.628906 362.460938 L 43.53125 361.050781 L 43.816406 361.050781 L 43.816406 371.132812 C 43.816406 371.800781 43.84375 372.214844 43.902344 372.378906 C 43.960938 372.546875 44.074219 372.671875 44.246094 372.761719 C 44.421875 372.847656 44.777344 372.898438 45.308594 372.910156 L 45.308594 373.238281 L 40.824219 373.238281 L 40.824219 372.910156 C 41.386719 372.898438 41.75 372.847656 41.917969 372.761719 C 42.085938 372.671875 42.199219 372.558594 42.265625 372.414062 C 42.328125 372.269531 42.363281 371.84375 42.363281 371.132812 L 42.363281 364.695312 C 42.363281 363.8125 42.332031 363.25 42.277344 363.003906 C 42.230469 362.816406 42.15625 362.679688 42.046875 362.59375 C 41.941406 362.503906 41.804688 362.460938 41.648438 362.460938 C 41.429688 362.460938 41.132812 362.558594 40.757812 362.742188 L 40.628906 362.460938 "/>
<path style="fill:none;stroke-width:1.2;stroke-linecap:butt;stroke-linejoin:round;stroke:rgb(0%,0%,0%);stroke-opacity:1;stroke-miterlimit:10;" d="M 541.132812 3189.453125 L 485.625 3189.453125 " transform="matrix(0.1,0,0,-0.1,0,555)"/>
<path style=" stroke:none;fill-rule:nonzero;fill:rgb(0%,0%,0%);fill-opacity:1;" d="M 25.625 236.914062 C 25.625 235.554688 25.832031 234.382812 26.242188 233.390625 C 26.65625 232.402344 27.199219 231.667969 27.878906 231.191406 C 28.414062 230.816406 28.964844 230.628906 29.527344 230.628906 C 30.4375 230.628906 31.253906 231.089844 31.976562 232.015625 C 32.886719 233.171875 33.34375 234.738281 33.34375 236.71875 C 33.34375 238.105469 33.144531 239.285156 32.746094 240.253906 C 32.347656 241.222656 31.839844 241.925781 31.21875 242.367188 C 30.597656 242.808594 30.003906 243.027344 29.441406 243.027344 C 28.300781 243.027344 27.34375 242.355469 26.578125 241.011719 C 25.945312 239.871094 25.625 238.503906 25.625 236.914062 Z M 27.359375 237.132812 C 27.359375 238.777344 27.5625 240.121094 27.96875 241.164062 C 28.300781 242.03125 28.796875 242.464844 29.460938 242.464844 C 29.78125 242.464844 30.109375 242.324219 30.449219 242.042969 C 30.789062 241.761719 31.046875 241.277344 31.21875 240.601562 C 31.492188 239.601562 31.628906 238.179688 31.628906 236.328125 C 31.628906 234.972656 31.484375 233.835938 31.195312 232.925781 C 30.996094 232.246094 30.71875 231.769531 30.371094 231.496094 C 30.140625 231.308594 29.851562 231.214844 29.507812 231.214844 C 29.117188 231.214844 28.761719 231.386719 28.445312 231.734375 C 28.023438 232.226562 27.738281 232.996094 27.585938 234.042969 C 27.433594 235.089844 27.359375 236.121094 27.359375 237.132812 Z M 36.25 241.097656 C 36.523438 241.097656 36.753906 241.195312 36.941406 241.390625 C 37.128906 241.585938 37.222656 241.816406 37.222656 242.074219 C 37.222656 242.347656 37.128906 242.582031 36.941406 242.769531 C 36.753906 242.957031 36.523438 243.050781 36.25 243.050781 C 35.972656 243.050781 35.742188 242.957031 35.554688 242.769531 C 35.367188 242.582031 35.273438 242.347656 35.273438 242.074219 C 35.273438 241.800781 35.367188 241.570312 35.554688 241.378906 C 35.742188 241.191406 35.972656 241.097656 36.25 241.097656 Z M 46.761719 240.511719 L 45.9375 242.8125 L 38.894531 242.8125 L 38.894531 242.484375 C 40.960938 240.59375 42.417969 239.046875 43.261719 237.847656 C 44.105469 236.648438 44.53125 235.554688 44.53125 234.574219 C 44.53125 233.808594 44.296875 233.183594 43.835938 232.699219 C 43.375 232.214844 42.816406 231.972656 42.167969 231.972656 C 41.589844 231.972656 41.066406 232.140625 40.59375 232.480469 C 40.125 232.820312 39.78125 233.324219 39.566406 233.988281 L 39.238281 233.988281 C 39.386719 232.902344 39.761719 232.074219 40.367188 231.496094 C 40.972656 230.917969 41.734375 230.628906 42.644531 230.628906 C 43.613281 230.628906 44.421875 230.9375 45.070312 231.558594 C 45.722656 232.183594 46.046875 232.910156 46.046875 233.75 C 46.046875 234.355469 45.902344 234.964844 45.613281 235.570312 C 45.179688 236.523438 44.480469 237.527344 43.511719 238.585938 C 42.050781 240.1875 41.132812 241.15625 40.757812 241.488281 L 43.878906 241.488281 C 44.515625 241.488281 44.960938 241.464844 45.214844 241.414062 C 45.464844 241.363281 45.699219 241.265625 45.90625 241.121094 C 46.117188 240.976562 46.292969 240.773438 46.4375 240.511719 L 46.761719 240.511719 "/>
<path style="fill:none;stroke-width:1.2;stroke-linecap:butt;stroke-linejoin:round;stroke:rgb(0%,0%,0%);stroke-opacity:1;stroke-miterlimit:10;" d="M 541.132812 4492.8125 L 485.625 4492.8125 " transform="matrix(0.1,0,0,-0.1,0,555)"/>
<path style=" stroke:none;fill-rule:nonzero;fill:rgb(0%,0%,0%);fill-opacity:1;" d="M 25.625 106.492188 C 25.625 105.132812 25.832031 103.957031 26.242188 102.96875 C 26.65625 101.976562 27.199219 101.242188 27.878906 100.765625 C 28.414062 100.390625 28.964844 100.203125 29.527344 100.203125 C 30.4375 100.203125 31.253906 100.664062 31.976562 101.589844 C 32.886719 102.746094 33.34375 104.316406 33.34375 106.296875 C 33.34375 107.683594 33.144531 108.859375 32.746094 109.828125 C 32.347656 110.796875 31.839844 111.503906 31.21875 111.941406 C 30.597656 112.382812 30.003906 112.605469 29.441406 112.605469 C 28.300781 112.605469 27.34375 111.933594 26.578125 110.589844 C 25.945312 109.445312 25.625 108.078125 25.625 106.492188 Z M 27.359375 106.707031 C 27.359375 108.355469 27.5625 109.699219 27.96875 110.738281 C 28.300781 111.605469 28.796875 112.039062 29.460938 112.039062 C 29.78125 112.039062 30.109375 111.898438 30.449219 111.617188 C 30.789062 111.335938 31.046875 110.855469 31.21875 110.175781 C 31.492188 109.179688 31.628906 107.753906 31.628906 105.90625 C 31.628906 104.546875 31.484375 103.410156 31.195312 102.503906 C 30.996094 101.820312 30.71875 101.34375 30.371094 101.070312 C 30.140625 100.882812 29.851562 100.789062 29.507812 100.789062 C 29.117188 100.789062 28.761719 100.960938 28.445312 101.308594 C 28.023438 101.800781 27.738281 102.570312 27.585938 103.617188 C 27.433594 104.664062 27.359375 105.695312 27.359375 106.707031 Z M 36.25 110.675781 C 36.523438 110.675781 36.753906 110.773438 36.941406 110.96875 C 37.128906 111.160156 37.222656 111.390625 37.222656 111.648438 C 37.222656 111.925781 37.128906 112.15625 36.941406 112.34375 C 36.753906 112.53125 36.523438 112.625 36.25 112.625 C 35.972656 112.625 35.742188 112.53125 35.554688 112.34375 C 35.367188 112.15625 35.273438 111.925781 35.273438 111.648438 C 35.273438 111.375 35.367188 111.144531 35.554688 110.957031 C 35.742188 110.769531 35.972656 110.675781 36.25 110.675781 Z M 39.414062 102.71875 C 39.761719 101.910156 40.195312 101.285156 40.714844 100.855469 C 41.234375 100.421875 41.878906 100.203125 42.644531 100.203125 C 43.613281 100.203125 44.347656 100.515625 44.855469 101.136719 C 45.246094 101.597656 45.441406 102.089844 45.441406 102.609375 C 45.441406 103.492188 44.890625 104.394531 43.792969 105.320312 C 44.53125 105.609375 45.085938 106.019531 45.460938 106.554688 C 45.839844 107.089844 46.027344 107.71875 46.027344 108.441406 C 46.027344 109.46875 45.695312 110.355469 45.027344 111.109375 C 44.175781 112.105469 42.941406 112.605469 41.320312 112.605469 C 40.511719 112.605469 39.964844 112.503906 39.671875 112.300781 C 39.386719 112.097656 39.238281 111.882812 39.238281 111.648438 C 39.238281 111.476562 39.308594 111.328125 39.445312 111.207031 C 39.582031 111.082031 39.746094 111.019531 39.933594 111.019531 C 40.078125 111.019531 40.230469 111.042969 40.390625 111.085938 C 40.488281 111.117188 40.71875 111.21875 41.074219 111.402344 C 41.425781 111.582031 41.667969 111.695312 41.796875 111.738281 C 42.015625 111.796875 42.246094 111.824219 42.492188 111.824219 C 43.085938 111.824219 43.605469 111.59375 44.054688 111.128906 C 44.5 110.667969 44.726562 110.117188 44.726562 109.480469 C 44.726562 109.019531 44.625 108.570312 44.421875 108.136719 C 44.261719 107.804688 44.089844 107.554688 43.902344 107.378906 C 43.65625 107.148438 43.3125 106.9375 42.871094 106.75 C 42.429688 106.5625 41.980469 106.46875 41.515625 106.46875 L 41.234375 106.46875 L 41.234375 106.1875 C 41.699219 106.128906 42.164062 105.964844 42.632812 105.6875 C 43.101562 105.414062 43.441406 105.085938 43.652344 104.703125 C 43.859375 104.320312 43.964844 103.890625 43.964844 103.410156 C 43.964844 102.820312 43.777344 102.335938 43.402344 101.960938 C 43.027344 101.585938 42.558594 101.394531 41.992188 101.394531 C 41.082031 101.394531 40.324219 101.878906 39.71875 102.847656 L 39.414062 102.71875 "/>
<path style="fill:none;stroke-width:1.2;stroke-linecap:butt;stroke-linejoin:round;stroke:rgb(0%,0%,0%);stroke-opacity:1;stroke-miterlimit:10;" d="M 541.132812 1234.414062 L 513.359375 1234.414062 " transform="matrix(0.1,0,0,-0.1,0,555)"/>
<path style="fill:none;stroke-width:1.2;stroke-linecap:butt;stroke-linejoin:round;stroke:rgb(0%,0%,0%);stroke-opacity:1;stroke-miterlimit:10;" d="M 541.132812 2537.773438 L 513.359375 2537.773438 " transform="matrix(0.1,0,0,-0.1,0,555)"/>
<path style="fill:none;stroke-width:1.2;stroke-linecap:butt;stroke-linejoin:round;stroke:rgb(0%,0%,0%);stroke-opacity:1;stroke-miterlimit:10;" d="M 541.132812 3841.132812 L 513.359375 3841.132812 " transform="matrix(0.1,0,0,-0.1,0,555)"/>
<path style="fill:none;stroke-width:1.2;stroke-linecap:butt;stroke-linejoin:round;stroke:rgb(0%,0%,0%);stroke-opacity:1;stroke-miterlimit:10;" d="M 541.132812 5144.492188 L 513.359375 5144.492188 " transform="matrix(0.1,0,0,-0.1,0,555)"/>
</g>
</svg>
