<?xml version="1.0" encoding="UTF-8"?>
<svg xmlns="http://www.w3.org/2000/svg" xmlns:xlink="http://www.w3.org/1999/xlink" width="121pt" height="43pt" viewBox="0 0 121 43" version="1.1">
<g id="surface1">
<path style=" stroke:none;fill-rule:nonzero;fill:rgb(65.519714%,69.329834%,64.906311%);fill-opacity:1;" d="M 3.90625 0.976562 L 117.261719 1.179688 C 118.847656 1.179688 120.261719 0.941406 120.261719 4.339844 L 120.121094 41.667969 L 1.046875 41.667969 L 1.046875 4.199219 C 1.046875 2.527344 1.210938 0.976562 3.90625 0.976562 "/>
<path style=" stroke:none;fill-rule:nonzero;fill:rgb(100%,100%,100%);fill-opacity:1;" d="M 35.023438 20.074219 C 35.027344 27.605469 28.925781 33.710938 21.394531 33.71875 C 13.867188 33.722656 7.757812 27.621094 7.753906 20.09375 C 7.753906 20.085938 7.753906 20.082031 7.753906 20.074219 C 7.75 12.546875 13.847656 6.4375 21.378906 6.433594 C 28.910156 6.429688 35.019531 12.53125 35.023438 20.058594 C 35.023438 20.0625 35.023438 20.070312 35.023438 20.074219 "/>
<path style=" stroke:none;fill-rule:nonzero;fill:rgb(6.30188%,5.761719%,5.056763%);fill-opacity:1;" d="M 32.472656 8.96875 C 35.496094 11.992188 37.007812 15.695312 37.007812 20.074219 C 37.007812 24.457031 35.519531 28.117188 32.550781 31.0625 C 29.394531 34.167969 25.667969 35.714844 21.367188 35.714844 C 17.117188 35.714844 13.457031 34.179688 10.382812 31.101562 C 7.304688 28.027344 5.765625 24.351562 5.765625 20.074219 C 5.765625 15.800781 7.304688 12.097656 10.382812 8.96875 C 13.378906 5.945312 17.039062 4.433594 21.367188 4.433594 C 25.746094 4.433594 29.449219 5.945312 32.472656 8.96875 Z M 12.417969 11.003906 C 9.859375 13.585938 8.582031 16.609375 8.582031 20.078125 C 8.582031 23.546875 9.847656 26.546875 12.378906 29.074219 C 14.90625 31.605469 17.917969 32.867188 21.414062 32.867188 C 24.910156 32.867188 27.945312 31.59375 30.527344 29.035156 C 32.980469 26.664062 34.207031 23.679688 34.207031 20.078125 C 34.207031 16.507812 32.960938 13.476562 30.46875 10.984375 C 27.980469 8.496094 24.960938 7.25 21.414062 7.25 C 17.867188 7.25 14.867188 8.5 12.417969 11.003906 Z M 19.144531 18.554688 C 18.753906 17.703125 18.167969 17.277344 17.390625 17.277344 C 16.011719 17.277344 15.320312 18.203125 15.320312 20.058594 C 15.320312 21.914062 16.011719 22.84375 17.390625 22.84375 C 18.296875 22.84375 18.949219 22.390625 19.339844 21.484375 L 21.25 22.503906 C 20.339844 24.121094 18.972656 24.929688 17.152344 24.929688 C 15.746094 24.929688 14.621094 24.5 13.773438 23.640625 C 12.925781 22.777344 12.503906 21.589844 12.503906 20.074219 C 12.503906 18.585938 12.941406 17.40625 13.8125 16.53125 C 14.683594 15.65625 15.769531 15.21875 17.074219 15.21875 C 19 15.21875 20.378906 15.976562 21.210938 17.496094 Z M 28.132812 18.554688 C 27.742188 17.703125 27.167969 17.277344 26.414062 17.277344 C 25.007812 17.277344 24.304688 18.203125 24.304688 20.058594 C 24.304688 21.914062 25.007812 22.84375 26.414062 22.84375 C 27.324219 22.84375 27.964844 22.390625 28.328125 21.484375 L 30.28125 22.503906 C 29.371094 24.121094 28.007812 24.929688 26.191406 24.929688 C 24.785156 24.929688 23.664062 24.5 22.820312 23.640625 C 21.976562 22.777344 21.550781 21.589844 21.550781 20.074219 C 21.550781 18.585938 21.980469 17.40625 22.839844 16.53125 C 23.695312 15.65625 24.785156 15.21875 26.113281 15.21875 C 28.035156 15.21875 29.410156 15.976562 30.242188 17.496094 L 28.132812 18.554688 "/>
<path style=" stroke:none;fill-rule:nonzero;fill:rgb(6.30188%,5.761719%,5.056763%);fill-opacity:1;" d="M 118.253906 0.5 L 2.746094 0.5 C 1.507812 0.5 0.5 1.507812 0.5 2.746094 L 0.5 41.992188 C 0.5 42.273438 0.726562 42.5 1.007812 42.5 L 119.992188 42.5 C 120.273438 42.5 120.5 42.273438 120.5 41.992188 L 120.5 2.746094 C 120.5 1.507812 119.492188 0.5 118.253906 0.5 Z M 2.746094 1.515625 L 118.253906 1.515625 C 118.933594 1.515625 119.484375 2.066406 119.484375 2.746094 C 119.484375 2.746094 119.484375 18.566406 119.484375 29.992188 L 36.925781 29.992188 C 33.902344 35.460938 28.074219 39.175781 21.382812 39.175781 C 14.6875 39.175781 8.859375 35.464844 5.835938 29.992188 L 1.515625 29.992188 C 1.515625 18.566406 1.515625 2.746094 1.515625 2.746094 C 1.515625 2.066406 2.066406 1.515625 2.746094 1.515625 "/>
<path style=" stroke:none;fill-rule:nonzero;fill:rgb(100%,100%,100%);fill-opacity:1;" d="M 86.765625 38.230469 C 86.84375 38.386719 86.949219 38.511719 87.082031 38.609375 C 87.21875 38.703125 87.371094 38.773438 87.550781 38.820312 C 87.730469 38.867188 87.914062 38.890625 88.105469 38.890625 C 88.234375 38.890625 88.375 38.882812 88.523438 38.859375 C 88.667969 38.835938 88.808594 38.792969 88.9375 38.734375 C 89.070312 38.671875 89.175781 38.585938 89.261719 38.480469 C 89.347656 38.371094 89.394531 38.230469 89.394531 38.066406 C 89.394531 37.886719 89.335938 37.742188 89.21875 37.628906 C 89.105469 37.519531 88.957031 37.425781 88.773438 37.351562 C 88.585938 37.277344 88.375 37.210938 88.144531 37.15625 C 87.90625 37.101562 87.667969 37.039062 87.429688 36.96875 C 87.179688 36.910156 86.941406 36.832031 86.707031 36.742188 C 86.472656 36.65625 86.261719 36.539062 86.078125 36.394531 C 85.890625 36.253906 85.742188 36.074219 85.628906 35.863281 C 85.511719 35.648438 85.457031 35.390625 85.457031 35.085938 C 85.457031 34.75 85.527344 34.453125 85.671875 34.203125 C 85.820312 33.953125 86.007812 33.742188 86.242188 33.574219 C 86.476562 33.410156 86.742188 33.285156 87.039062 33.207031 C 87.335938 33.125 87.632812 33.082031 87.929688 33.082031 C 88.277344 33.082031 88.605469 33.125 88.925781 33.199219 C 89.242188 33.277344 89.527344 33.40625 89.773438 33.578125 C 90.023438 33.75 90.21875 33.96875 90.363281 34.238281 C 90.507812 34.511719 90.582031 34.835938 90.582031 35.21875 L 89.167969 35.21875 C 89.15625 35.019531 89.113281 34.855469 89.042969 34.730469 C 88.972656 34.597656 88.878906 34.496094 88.761719 34.421875 C 88.644531 34.347656 88.511719 34.292969 88.359375 34.265625 C 88.207031 34.234375 88.042969 34.21875 87.863281 34.21875 C 87.75 34.21875 87.632812 34.230469 87.515625 34.253906 C 87.398438 34.28125 87.292969 34.324219 87.199219 34.386719 C 87.101562 34.449219 87.023438 34.523438 86.960938 34.617188 C 86.902344 34.710938 86.867188 34.828125 86.867188 34.96875 C 86.867188 35.101562 86.894531 35.207031 86.941406 35.285156 C 86.992188 35.363281 87.089844 35.4375 87.234375 35.507812 C 87.378906 35.574219 87.582031 35.644531 87.835938 35.710938 C 88.09375 35.78125 88.425781 35.867188 88.84375 35.96875 C 88.964844 35.996094 89.136719 36.042969 89.355469 36.105469 C 89.574219 36.171875 89.792969 36.273438 90.007812 36.417969 C 90.222656 36.558594 90.410156 36.75 90.570312 36.988281 C 90.726562 37.226562 90.804688 37.53125 90.804688 37.902344 C 90.804688 38.207031 90.746094 38.488281 90.628906 38.746094 C 90.511719 39.007812 90.335938 39.230469 90.105469 39.417969 C 89.871094 39.605469 89.585938 39.753906 89.242188 39.859375 C 88.898438 39.964844 88.5 40.015625 88.050781 40.015625 C 87.683594 40.015625 87.332031 39.972656 86.988281 39.882812 C 86.644531 39.792969 86.34375 39.648438 86.078125 39.457031 C 85.816406 39.265625 85.605469 39.019531 85.453125 38.726562 C 85.296875 38.425781 85.222656 38.074219 85.230469 37.667969 L 86.644531 37.667969 C 86.644531 37.886719 86.683594 38.078125 86.765625 38.230469 "/>
<path style=" stroke:none;fill-rule:nonzero;fill:rgb(100%,100%,100%);fill-opacity:1;" d="M 94.96875 33.25 L 97.449219 39.867188 L 95.933594 39.867188 L 95.433594 38.394531 L 92.957031 38.394531 L 92.4375 39.867188 L 90.96875 39.867188 L 93.476562 33.25 Z M 95.050781 37.308594 L 94.21875 34.878906 L 94.199219 34.878906 L 93.335938 37.308594 L 95.050781 37.308594 "/>
<path style=" stroke:none;fill-rule:nonzero;fill:rgb(100%,100%,100%);fill-opacity:1;" d="M 60.496094 33.25 C 60.8125 33.25 61.097656 33.273438 61.359375 33.332031 C 61.621094 33.386719 61.84375 33.480469 62.03125 33.605469 C 62.214844 33.730469 62.359375 33.898438 62.460938 34.109375 C 62.566406 34.320312 62.613281 34.578125 62.613281 34.886719 C 62.613281 35.222656 62.539062 35.5 62.386719 35.722656 C 62.234375 35.945312 62.011719 36.125 61.714844 36.269531 C 62.121094 36.386719 62.429688 36.59375 62.632812 36.886719 C 62.832031 37.179688 62.933594 37.535156 62.933594 37.949219 C 62.933594 38.28125 62.867188 38.574219 62.738281 38.816406 C 62.609375 39.0625 62.433594 39.261719 62.214844 39.414062 C 61.992188 39.570312 61.742188 39.683594 61.460938 39.757812 C 61.175781 39.832031 60.890625 39.867188 60.589844 39.867188 L 57.375 39.867188 L 57.375 33.25 Z M 60.308594 35.925781 C 60.570312 35.925781 60.785156 35.863281 60.953125 35.738281 C 61.117188 35.617188 61.203125 35.417969 61.203125 35.140625 C 61.203125 34.984375 61.171875 34.859375 61.117188 34.761719 C 61.0625 34.660156 60.988281 34.582031 60.894531 34.53125 C 60.800781 34.472656 60.695312 34.433594 60.574219 34.414062 C 60.453125 34.390625 60.328125 34.382812 60.199219 34.382812 L 58.835938 34.382812 L 58.835938 35.925781 Z M 60.394531 38.738281 C 60.539062 38.738281 60.675781 38.722656 60.804688 38.695312 C 60.933594 38.667969 61.050781 38.621094 61.148438 38.554688 C 61.246094 38.488281 61.328125 38.402344 61.386719 38.292969 C 61.445312 38.179688 61.472656 38.039062 61.472656 37.863281 C 61.472656 37.523438 61.378906 37.28125 61.183594 37.136719 C 60.992188 36.992188 60.738281 36.917969 60.421875 36.917969 L 58.835938 36.917969 L 58.835938 38.738281 L 60.394531 38.738281 "/>
<path style=" stroke:none;fill-rule:nonzero;fill:rgb(100%,100%,100%);fill-opacity:1;" d="M 63.191406 33.25 L 64.824219 33.25 L 66.375 35.863281 L 67.914062 33.25 L 69.539062 33.25 L 67.082031 37.328125 L 67.082031 39.867188 L 65.621094 39.867188 L 65.621094 37.292969 L 63.191406 33.25 "/>
<path style=" stroke:none;fill-rule:nonzero;fill:rgb(100%,100%,100%);fill-opacity:1;" d="M 102.902344 15.480469 C 102.90625 21.324219 98.171875 26.070312 92.328125 26.074219 C 86.480469 26.078125 81.738281 21.34375 81.730469 15.496094 C 81.730469 15.492188 81.730469 15.484375 81.730469 15.480469 C 81.726562 9.636719 86.464844 4.894531 92.308594 4.890625 C 98.15625 4.886719 102.898438 9.621094 102.902344 15.464844 C 102.902344 15.472656 102.902344 15.476562 102.902344 15.480469 "/>
<path style=" stroke:none;fill-rule:nonzero;fill:rgb(6.30188%,5.761719%,5.056763%);fill-opacity:1;" d="M 92.242188 3.886719 C 89.03125 3.886719 86.3125 5.007812 84.085938 7.246094 C 81.800781 9.566406 80.660156 12.3125 80.660156 15.480469 C 80.660156 18.648438 81.800781 21.375 84.085938 23.65625 C 86.367188 25.933594 89.089844 27.078125 92.242188 27.078125 C 95.433594 27.078125 98.203125 25.925781 100.546875 23.625 C 102.75 21.441406 103.855469 18.726562 103.855469 15.480469 C 103.855469 12.234375 102.730469 9.488281 100.484375 7.246094 C 98.238281 5.007812 95.492188 3.886719 92.242188 3.886719 Z M 92.273438 5.972656 C 94.902344 5.972656 97.140625 6.902344 98.976562 8.753906 C 100.835938 10.59375 101.761719 12.832031 101.761719 15.480469 C 101.761719 18.148438 100.855469 20.359375 99.035156 22.117188 C 97.117188 24.011719 94.863281 24.960938 92.273438 24.960938 C 89.675781 24.960938 87.445312 24.023438 85.566406 22.148438 C 83.691406 20.273438 82.75 18.050781 82.75 15.480469 C 82.75 12.910156 83.699219 10.667969 85.59375 8.753906 C 87.414062 6.902344 89.640625 5.972656 92.273438 5.972656 "/>
<path style=" stroke:none;fill-rule:nonzero;fill:rgb(6.30188%,5.761719%,5.056763%);fill-opacity:1;" d="M 87.101562 13.84375 C 87.566406 10.925781 89.617188 9.367188 92.195312 9.367188 C 95.894531 9.367188 98.152344 12.054688 98.152344 15.636719 C 98.152344 19.128906 95.75 21.84375 92.136719 21.84375 C 89.648438 21.84375 87.421875 20.316406 87.015625 17.3125 L 89.9375 17.3125 C 90.023438 18.871094 91.035156 19.417969 92.480469 19.417969 C 94.128906 19.417969 95.203125 17.886719 95.203125 15.546875 C 95.203125 13.09375 94.277344 11.792969 92.539062 11.792969 C 91.269531 11.792969 90.167969 12.257812 89.9375 13.84375 L 90.785156 13.839844 L 88.484375 16.140625 L 86.1875 13.839844 L 87.101562 13.84375 "/>
<path style=" stroke:none;fill-rule:nonzero;fill:rgb(100%,100%,100%);fill-opacity:1;" d="M 63.859375 4.980469 C 69.789062 4.980469 74.597656 9.785156 74.597656 15.71875 C 74.597656 21.648438 69.789062 26.457031 63.859375 26.457031 C 57.929688 26.457031 53.121094 21.648438 53.121094 15.71875 C 53.121094 9.785156 57.929688 4.980469 63.859375 4.980469 "/>
<path style=" stroke:none;fill-rule:nonzero;fill:rgb(6.30188%,5.761719%,5.056763%);fill-opacity:1;" d="M 66.96875 12.609375 C 66.96875 12.195312 66.632812 11.859375 66.21875 11.859375 L 61.476562 11.859375 C 61.0625 11.859375 60.726562 12.195312 60.726562 12.609375 L 60.726562 17.351562 L 62.046875 17.351562 L 62.046875 22.96875 L 65.644531 22.96875 L 65.644531 17.351562 L 66.96875 17.351562 L 66.96875 12.609375 "/>
<path style=" stroke:none;fill-rule:nonzero;fill:rgb(6.30188%,5.761719%,5.056763%);fill-opacity:1;" d="M 63.847656 7.992188 C 64.742188 7.992188 65.46875 8.71875 65.46875 9.613281 C 65.46875 10.511719 64.742188 11.234375 63.847656 11.234375 C 62.953125 11.234375 62.222656 10.511719 62.222656 9.613281 C 62.222656 8.71875 62.953125 7.992188 63.847656 7.992188 "/>
<path style=" stroke:none;fill-rule:nonzero;fill:rgb(6.30188%,5.761719%,5.056763%);fill-opacity:1;" d="M 63.832031 3.886719 C 60.621094 3.886719 57.902344 5.007812 55.675781 7.25 C 53.390625 9.566406 52.25 12.3125 52.25 15.480469 C 52.25 18.648438 53.390625 21.375 55.675781 23.65625 C 57.960938 25.933594 60.679688 27.074219 63.832031 27.074219 C 67.027344 27.074219 69.792969 25.925781 72.132812 23.625 C 74.339844 21.441406 75.445312 18.726562 75.445312 15.480469 C 75.445312 12.234375 74.320312 9.488281 72.078125 7.25 C 69.832031 5.007812 67.085938 3.886719 63.832031 3.886719 Z M 63.859375 5.972656 C 66.492188 5.972656 68.726562 6.902344 70.566406 8.753906 C 72.425781 10.589844 73.351562 12.832031 73.351562 15.480469 C 73.351562 18.148438 72.445312 20.359375 70.625 22.117188 C 68.710938 24.011719 66.457031 24.960938 63.859375 24.960938 C 61.269531 24.960938 59.03125 24.023438 57.15625 22.148438 C 55.277344 20.273438 54.339844 18.050781 54.339844 15.480469 C 54.339844 12.910156 55.289062 10.667969 57.183594 8.753906 C 59.003906 6.902344 61.230469 5.972656 63.859375 5.972656 "/>
</g>
</svg>
