<?xml version="1.0" encoding="UTF-8"?>
<svg xmlns="http://www.w3.org/2000/svg" xmlns:xlink="http://www.w3.org/1999/xlink" width="204pt" height="188pt" viewBox="0 0 204 188" version="1.1">
<g id="surface1">
<rect x="0" y="0" width="204" height="188" style="fill:rgb(100%,100%,100%);fill-opacity:1;stroke:none;"/>
<path style="fill:none;stroke-width:10;stroke-linecap:butt;stroke-linejoin:miter;stroke:rgb(0%,0%,0%);stroke-opacity:1;stroke-miterlimit:10;" d="M 1015.625 1956.679688 L 1015.625 -49.53125 " transform="matrix(0.1,0,0,-0.1,0,188)"/>
<path style="fill:none;stroke-width:10;stroke-linecap:butt;stroke-linejoin:miter;stroke:rgb(0%,0%,0%);stroke-opacity:1;stroke-miterlimit:10;" d="M -247.03125 924.648438 L 2214.882812 924.648438 " transform="matrix(0.1,0,0,-0.1,0,188)"/>
<path style=" stroke:none;fill-rule:nonzero;fill:rgb(0%,0%,0%);fill-opacity:1;" d="M 14.699219 100.246094 L 14.699219 99.960938 L 16.394531 99.960938 L 16.394531 100.246094 Z M 17.042969 101.351562 L 17.042969 100.96875 C 17.339844 101.085938 17.570312 101.144531 17.738281 101.144531 C 17.933594 101.144531 18.09375 101.085938 18.214844 100.972656 C 18.339844 100.855469 18.402344 100.710938 18.402344 100.527344 C 18.402344 100.09375 18.097656 99.878906 17.492188 99.878906 L 17.328125 99.878906 L 17.328125 99.601562 L 17.472656 99.601562 C 18.042969 99.601562 18.324219 99.398438 18.324219 99 C 18.324219 98.683594 18.136719 98.527344 17.765625 98.527344 C 17.558594 98.527344 17.332031 98.585938 17.085938 98.699219 L 17.085938 98.34375 C 17.328125 98.261719 17.566406 98.21875 17.792969 98.21875 C 18.421875 98.21875 18.738281 98.457031 18.738281 98.933594 C 18.738281 99.292969 18.523438 99.550781 18.09375 99.707031 C 18.589844 99.820312 18.839844 100.09375 18.839844 100.523438 C 18.839844 100.8125 18.742188 101.039062 18.550781 101.203125 C 18.359375 101.367188 18.097656 101.453125 17.765625 101.453125 C 17.574219 101.453125 17.335938 101.417969 17.042969 101.351562 "/>
<path style="fill:none;stroke-width:10;stroke-linecap:butt;stroke-linejoin:miter;stroke:rgb(0%,0%,0%);stroke-opacity:1;stroke-miterlimit:10;" d="M 165.234375 924.648438 L 165.234375 911.835938 " transform="matrix(0.1,0,0,-0.1,0,188)"/>
<path style=" stroke:none;fill-rule:nonzero;fill:rgb(0%,0%,0%);fill-opacity:1;" d="M 43.238281 100.246094 L 43.238281 99.960938 L 44.929688 99.960938 L 44.929688 100.246094 Z M 45.503906 101.375 L 45.503906 101.015625 C 45.621094 100.734375 45.863281 100.433594 46.226562 100.101562 L 46.460938 99.894531 C 46.765625 99.621094 46.914062 99.347656 46.914062 99.082031 C 46.914062 98.90625 46.863281 98.773438 46.761719 98.675781 C 46.65625 98.578125 46.515625 98.527344 46.335938 98.527344 C 46.121094 98.527344 45.871094 98.609375 45.582031 98.773438 L 45.582031 98.414062 C 45.851562 98.285156 46.125 98.21875 46.394531 98.21875 C 46.683594 98.21875 46.914062 98.296875 47.089844 98.453125 C 47.261719 98.605469 47.351562 98.8125 47.351562 99.070312 C 47.351562 99.253906 47.304688 99.417969 47.21875 99.558594 C 47.128906 99.703125 46.964844 99.878906 46.726562 100.082031 L 46.570312 100.214844 C 46.238281 100.496094 46.050781 100.761719 46 101.015625 L 47.335938 101.015625 L 47.335938 101.375 "/>
<path style="fill:none;stroke-width:10;stroke-linecap:butt;stroke-linejoin:miter;stroke:rgb(0%,0%,0%);stroke-opacity:1;stroke-miterlimit:10;" d="M 448.710938 924.648438 L 448.710938 911.835938 " transform="matrix(0.1,0,0,-0.1,0,188)"/>
<path style=" stroke:none;fill-rule:nonzero;fill:rgb(0%,0%,0%);fill-opacity:1;" d="M 71.351562 100.246094 L 71.351562 99.960938 L 73.042969 99.960938 L 73.042969 100.246094 Z M 73.902344 101.375 L 73.902344 101.066406 L 74.519531 101.066406 L 74.519531 98.636719 L 73.902344 98.789062 L 73.902344 98.476562 L 74.929688 98.21875 L 74.929688 101.066406 L 75.546875 101.066406 L 75.546875 101.375 "/>
<path style="fill:none;stroke-width:10;stroke-linecap:butt;stroke-linejoin:miter;stroke:rgb(0%,0%,0%);stroke-opacity:1;stroke-miterlimit:10;" d="M 732.148438 924.648438 L 732.148438 911.835938 " transform="matrix(0.1,0,0,-0.1,0,188)"/>
<path style="fill:none;stroke-width:10;stroke-linecap:butt;stroke-linejoin:miter;stroke:rgb(0%,0%,0%);stroke-opacity:1;stroke-miterlimit:10;" d="M 1015.625 924.648438 L 1015.625 911.835938 " transform="matrix(0.1,0,0,-0.1,0,188)"/>
<path style=" stroke:none;fill-rule:nonzero;fill:rgb(0%,0%,0%);fill-opacity:1;" d="M 129.699219 101.375 L 129.699219 101.066406 L 130.316406 101.066406 L 130.316406 98.636719 L 129.699219 98.789062 L 129.699219 98.476562 L 130.730469 98.21875 L 130.730469 101.066406 L 131.34375 101.066406 L 131.34375 101.375 "/>
<path style="fill:none;stroke-width:10;stroke-linecap:butt;stroke-linejoin:miter;stroke:rgb(0%,0%,0%);stroke-opacity:1;stroke-miterlimit:10;" d="M 1299.101562 924.648438 L 1299.101562 911.835938 " transform="matrix(0.1,0,0,-0.1,0,188)"/>
<path style=" stroke:none;fill-rule:nonzero;fill:rgb(0%,0%,0%);fill-opacity:1;" d="M 157.953125 101.375 L 157.953125 101.015625 C 158.070312 100.734375 158.3125 100.433594 158.675781 100.101562 L 158.910156 99.894531 C 159.214844 99.621094 159.363281 99.347656 159.363281 99.082031 C 159.363281 98.90625 159.3125 98.773438 159.210938 98.675781 C 159.105469 98.578125 158.964844 98.527344 158.785156 98.527344 C 158.570312 98.527344 158.320312 98.609375 158.027344 98.773438 L 158.027344 98.414062 C 158.300781 98.285156 158.574219 98.21875 158.84375 98.21875 C 159.132812 98.21875 159.363281 98.296875 159.535156 98.453125 C 159.710938 98.605469 159.800781 98.8125 159.800781 99.070312 C 159.800781 99.253906 159.753906 99.417969 159.667969 99.558594 C 159.578125 99.703125 159.414062 99.878906 159.175781 100.082031 L 159.015625 100.214844 C 158.6875 100.496094 158.496094 100.761719 158.445312 101.015625 L 159.785156 101.015625 L 159.785156 101.375 "/>
<path style="fill:none;stroke-width:10;stroke-linecap:butt;stroke-linejoin:miter;stroke:rgb(0%,0%,0%);stroke-opacity:1;stroke-miterlimit:10;" d="M 1582.578125 924.648438 L 1582.578125 911.835938 " transform="matrix(0.1,0,0,-0.1,0,188)"/>
<path style=" stroke:none;fill-rule:nonzero;fill:rgb(0%,0%,0%);fill-opacity:1;" d="M 186.144531 101.351562 L 186.144531 100.96875 C 186.4375 101.085938 186.667969 101.144531 186.839844 101.144531 C 187.035156 101.144531 187.191406 101.085938 187.316406 100.972656 C 187.4375 100.855469 187.5 100.710938 187.5 100.527344 C 187.5 100.09375 187.195312 99.878906 186.589844 99.878906 L 186.429688 99.878906 L 186.429688 99.601562 L 186.570312 99.601562 C 187.140625 99.601562 187.425781 99.398438 187.425781 99 C 187.425781 98.683594 187.238281 98.527344 186.863281 98.527344 C 186.65625 98.527344 186.433594 98.585938 186.183594 98.699219 L 186.183594 98.34375 C 186.429688 98.261719 186.664062 98.21875 186.890625 98.21875 C 187.519531 98.21875 187.835938 98.457031 187.835938 98.933594 C 187.835938 99.292969 187.621094 99.550781 187.195312 99.707031 C 187.691406 99.820312 187.9375 100.09375 187.9375 100.523438 C 187.9375 100.8125 187.84375 101.039062 187.652344 101.203125 C 187.460938 101.367188 187.195312 101.453125 186.863281 101.453125 C 186.671875 101.453125 186.433594 101.417969 186.144531 101.351562 "/>
<path style="fill:none;stroke-width:10;stroke-linecap:butt;stroke-linejoin:miter;stroke:rgb(0%,0%,0%);stroke-opacity:1;stroke-miterlimit:10;" d="M 1866.015625 924.648438 L 1866.015625 911.835938 " transform="matrix(0.1,0,0,-0.1,0,188)"/>
<path style="fill:none;stroke-width:10;stroke-linecap:butt;stroke-linejoin:miter;stroke:rgb(0%,0%,0%);stroke-opacity:1;stroke-miterlimit:10;" d="M 1002.851562 74.21875 L 1015.625 74.21875 " transform="matrix(0.1,0,0,-0.1,0,188)"/>
<path style="fill:none;stroke-width:10;stroke-linecap:butt;stroke-linejoin:miter;stroke:rgb(0%,0%,0%);stroke-opacity:1;stroke-miterlimit:10;" d="M 1002.851562 357.695312 L 1015.625 357.695312 " transform="matrix(0.1,0,0,-0.1,0,188)"/>
<path style="fill:none;stroke-width:10;stroke-linecap:butt;stroke-linejoin:miter;stroke:rgb(0%,0%,0%);stroke-opacity:1;stroke-miterlimit:10;" d="M 1002.851562 641.171875 L 1015.625 641.171875 " transform="matrix(0.1,0,0,-0.1,0,188)"/>
<path style="fill:none;stroke-width:10;stroke-linecap:butt;stroke-linejoin:miter;stroke:rgb(0%,0%,0%);stroke-opacity:1;stroke-miterlimit:10;" d="M 1002.851562 1208.085938 L 1015.625 1208.085938 " transform="matrix(0.1,0,0,-0.1,0,188)"/>
<path style="fill:none;stroke-width:10;stroke-linecap:butt;stroke-linejoin:miter;stroke:rgb(0%,0%,0%);stroke-opacity:1;stroke-miterlimit:10;" d="M 1002.851562 1491.5625 L 1015.625 1491.5625 " transform="matrix(0.1,0,0,-0.1,0,188)"/>
<path style="fill:none;stroke-width:10;stroke-linecap:butt;stroke-linejoin:miter;stroke:rgb(0%,0%,0%);stroke-opacity:1;stroke-miterlimit:10;" d="M 1002.851562 1775.039062 L 1015.625 1775.039062 " transform="matrix(0.1,0,0,-0.1,0,188)"/>
<path style=" stroke:none;fill-rule:nonzero;fill:rgb(0%,0%,0%);fill-opacity:1;" d="M 94.351562 180.75 L 94.351562 180.464844 L 96.042969 180.464844 L 96.042969 180.75 Z M 96.695312 181.855469 L 96.695312 181.472656 C 96.988281 181.589844 97.222656 181.644531 97.390625 181.644531 C 97.585938 181.644531 97.746094 181.589844 97.867188 181.476562 C 97.988281 181.359375 98.050781 181.210938 98.050781 181.03125 C 98.050781 180.597656 97.75 180.382812 97.144531 180.382812 L 96.980469 180.382812 L 96.980469 180.105469 L 97.125 180.101562 C 97.691406 180.101562 97.976562 179.902344 97.976562 179.503906 C 97.976562 179.1875 97.789062 179.03125 97.414062 179.03125 C 97.210938 179.03125 96.984375 179.085938 96.738281 179.203125 L 96.738281 178.84375 C 96.980469 178.761719 97.214844 178.722656 97.445312 178.722656 C 98.074219 178.722656 98.390625 178.960938 98.390625 179.4375 C 98.390625 179.796875 98.175781 180.054688 97.746094 180.210938 C 98.242188 180.324219 98.488281 180.597656 98.488281 181.023438 C 98.488281 181.3125 98.394531 181.542969 98.203125 181.707031 C 98.011719 181.871094 97.75 181.953125 97.414062 181.953125 C 97.226562 181.953125 96.984375 181.921875 96.695312 181.855469 "/>
<path style=" stroke:none;fill-rule:nonzero;fill:rgb(0%,0%,0%);fill-opacity:1;" d="M 94.351562 152.636719 L 94.351562 152.351562 L 96.042969 152.351562 L 96.042969 152.636719 Z M 96.617188 153.765625 L 96.617188 153.40625 C 96.734375 153.125 96.976562 152.824219 97.339844 152.496094 L 97.574219 152.285156 C 97.878906 152.011719 98.027344 151.738281 98.027344 151.472656 C 98.027344 151.300781 97.976562 151.164062 97.875 151.066406 C 97.769531 150.96875 97.628906 150.917969 97.449219 150.917969 C 97.234375 150.917969 96.984375 151 96.695312 151.164062 L 96.695312 150.804688 C 96.96875 150.675781 97.238281 150.609375 97.507812 150.609375 C 97.792969 150.609375 98.027344 150.6875 98.203125 150.84375 C 98.375 151 98.464844 151.203125 98.464844 151.460938 C 98.464844 151.644531 98.417969 151.808594 98.332031 151.953125 C 98.242188 152.09375 98.078125 152.269531 97.839844 152.472656 L 97.679688 152.605469 C 97.351562 152.886719 97.164062 153.152344 97.109375 153.40625 L 98.449219 153.40625 L 98.449219 153.765625 "/>
<path style=" stroke:none;fill-rule:nonzero;fill:rgb(0%,0%,0%);fill-opacity:1;" d="M 94.351562 124.097656 L 94.351562 123.816406 L 96.042969 123.816406 L 96.042969 124.097656 Z M 96.902344 125.226562 L 96.902344 124.917969 L 97.519531 124.917969 L 97.519531 122.488281 L 96.902344 122.644531 L 96.902344 122.328125 L 97.929688 122.070312 L 97.929688 124.917969 L 98.546875 124.917969 L 98.546875 125.226562 "/>
<path style=" stroke:none;fill-rule:nonzero;fill:rgb(0%,0%,0%);fill-opacity:1;" d="M 96.902344 68.578125 L 96.902344 68.269531 L 97.519531 68.269531 L 97.519531 65.839844 L 96.902344 65.992188 L 96.902344 65.675781 L 97.929688 65.421875 L 97.929688 68.269531 L 98.546875 68.269531 L 98.546875 68.578125 "/>
<path style=" stroke:none;fill-rule:nonzero;fill:rgb(0%,0%,0%);fill-opacity:1;" d="M 96.617188 40.464844 L 96.617188 40.105469 C 96.734375 39.824219 96.976562 39.523438 97.339844 39.195312 L 97.574219 38.984375 C 97.878906 38.710938 98.027344 38.4375 98.027344 38.171875 C 98.027344 37.996094 97.976562 37.863281 97.875 37.765625 C 97.769531 37.664062 97.628906 37.617188 97.449219 37.617188 C 97.234375 37.617188 96.984375 37.699219 96.695312 37.863281 L 96.695312 37.503906 C 96.96875 37.375 97.238281 37.308594 97.507812 37.308594 C 97.792969 37.308594 98.027344 37.386719 98.203125 37.542969 C 98.375 37.699219 98.464844 37.902344 98.464844 38.160156 C 98.464844 38.34375 98.417969 38.507812 98.332031 38.652344 C 98.242188 38.792969 98.078125 38.96875 97.839844 39.171875 L 97.679688 39.304688 C 97.351562 39.585938 97.164062 39.851562 97.109375 40.105469 L 98.449219 40.105469 L 98.449219 40.464844 "/>
<path style=" stroke:none;fill-rule:nonzero;fill:rgb(0%,0%,0%);fill-opacity:1;" d="M 96.695312 11.902344 L 96.695312 11.519531 C 96.988281 11.636719 97.222656 11.695312 97.390625 11.695312 C 97.585938 11.695312 97.746094 11.636719 97.867188 11.523438 C 97.988281 11.410156 98.050781 11.261719 98.050781 11.078125 C 98.050781 10.648438 97.75 10.429688 97.144531 10.429688 L 96.980469 10.429688 L 96.980469 10.152344 L 97.125 10.152344 C 97.691406 10.152344 97.976562 9.953125 97.976562 9.550781 C 97.976562 9.234375 97.789062 9.078125 97.414062 9.078125 C 97.210938 9.078125 96.984375 9.136719 96.738281 9.253906 L 96.738281 8.894531 C 96.980469 8.8125 97.214844 8.769531 97.445312 8.769531 C 98.074219 8.769531 98.390625 9.007812 98.390625 9.484375 C 98.390625 9.847656 98.175781 10.105469 97.746094 10.257812 C 98.242188 10.371094 98.488281 10.644531 98.488281 11.074219 C 98.488281 11.363281 98.394531 11.589844 98.203125 11.757812 C 98.011719 11.921875 97.75 12.003906 97.414062 12.003906 C 97.226562 12.003906 96.984375 11.96875 96.695312 11.902344 "/>
<path style=" stroke:none;fill-rule:nonzero;fill:rgb(0%,0%,0%);fill-opacity:1;" d="M 97.597656 101.453125 C 97.28125 101.453125 97.023438 101.300781 96.828125 101.003906 C 96.632812 100.703125 96.53125 100.3125 96.53125 99.832031 C 96.53125 99.347656 96.632812 98.957031 96.828125 98.660156 C 97.027344 98.367188 97.289062 98.21875 97.609375 98.21875 C 97.933594 98.21875 98.195312 98.367188 98.390625 98.660156 C 98.589844 98.957031 98.6875 99.34375 98.6875 99.828125 C 98.6875 100.320312 98.589844 100.714844 98.390625 101.007812 C 98.195312 101.304688 97.929688 101.453125 97.597656 101.453125 Z M 97.601562 101.144531 C 98.035156 101.144531 98.253906 100.703125 98.253906 99.820312 C 98.253906 98.957031 98.039062 98.527344 97.609375 98.527344 C 97.183594 98.527344 96.96875 98.960938 96.96875 99.832031 C 96.96875 100.707031 97.179688 101.144531 97.601562 101.144531 "/>
<path style="fill:none;stroke-width:15;stroke-linecap:round;stroke-linejoin:round;stroke:rgb(0%,0%,100%);stroke-opacity:1;stroke-miterlimit:10;" d="M -118.242188 641.171875 L -113.90625 645.46875 L -109.609375 649.804688 L -105.273438 654.101562 L -100.9375 658.4375 L -96.640625 662.773438 L -92.304688 667.070312 L -88.007812 671.40625 L -83.671875 675.703125 L -79.375 680.039062 L -75.039062 684.335938 L -70.742188 688.671875 L -66.40625 692.96875 L -53.4375 705.9375 L -49.140625 710.273438 L -44.804688 714.570312 L -40.507812 718.90625 L -36.171875 723.203125 L -31.875 727.539062 L -27.539062 731.835938 L -23.242188 736.171875 L -18.90625 740.46875 L -14.570312 744.804688 L -10.273438 749.140625 L -5.9375 753.4375 L -1.640625 757.773438 L 2.695312 762.070312 L 6.992188 766.40625 L 11.328125 770.703125 L 15.625 775.039062 L 19.960938 779.335938 L 24.257812 783.671875 L 28.59375 787.96875 L 32.929688 792.304688 L 37.226562 796.640625 L 41.5625 800.9375 L 45.859375 805.273438 L 50.195312 809.570312 L 54.492188 813.90625 L 58.828125 818.203125 L 63.125 822.539062 L 67.460938 826.835938 L 71.796875 831.171875 L 76.09375 835.507812 L 80.429688 839.804688 L 84.726562 844.140625 L 89.0625 848.4375 L 93.359375 852.773438 L 97.695312 857.070312 L 102.03125 861.40625 L 106.328125 865.742188 L 110.664062 870.039062 L 114.960938 874.375 L 119.296875 878.671875 L 123.59375 883.007812 L 127.929688 887.304688 L 132.226562 891.640625 L 136.5625 895.9375 L 140.859375 900.273438 L 145.195312 904.570312 L 149.53125 908.90625 L 153.828125 913.242188 L 158.164062 917.539062 L 162.460938 921.875 L 166.796875 926.171875 L 171.09375 930.507812 L 175.429688 934.804688 L 179.726562 939.140625 L 184.0625 943.4375 L 188.398438 947.773438 L 192.695312 952.109375 L 197.03125 956.40625 L 201.328125 960.742188 L 205.664062 965.039062 L 209.960938 969.375 L 214.296875 973.671875 L 218.59375 978.007812 L 222.929688 982.304688 L 227.226562 986.640625 L 231.5625 990.9375 L 235.898438 995.273438 L 240.195312 999.609375 L 244.53125 1003.90625 L 248.828125 1008.242188 L 253.164062 1012.539062 L 257.460938 1016.875 L 261.796875 1021.171875 L 266.09375 1025.507812 L 270.429688 1029.804688 L 274.726562 1034.140625 L 279.0625 1038.476562 L 283.398438 1042.773438 L 287.695312 1047.109375 L 292.03125 1051.40625 L 296.328125 1055.742188 L 300.664062 1060.039062 L 304.960938 1064.375 L 309.296875 1068.671875 L 313.59375 1073.007812 L 317.929688 1077.304688 L 322.265625 1081.640625 L 326.5625 1085.976562 L 330.898438 1090.273438 L 335.195312 1094.609375 L 339.53125 1098.90625 L 343.828125 1103.242188 L 348.164062 1107.539062 L 352.460938 1111.875 L 356.796875 1116.171875 L 361.09375 1120.507812 L 365.429688 1124.804688 L 369.765625 1129.140625 L 374.0625 1133.476562 L 378.398438 1137.773438 L 382.695312 1142.109375 L 387.03125 1146.40625 L 391.328125 1150.742188 L 395.664062 1155.039062 L 399.960938 1159.375 L 404.296875 1163.671875 L 408.632812 1168.007812 L 412.929688 1172.34375 L 417.265625 1176.640625 L 421.5625 1180.976562 L 425.898438 1185.273438 L 430.195312 1189.609375 L 434.53125 1193.90625 " transform="matrix(0.1,0,0,-0.1,0,188)"/>
<path style=" stroke:none;fill-rule:nonzero;fill:rgb(0%,0%,100%);fill-opacity:1;" d="M 6.980469 114.714844 L 6.683594 116.8125 C 6.613281 117.078125 6.515625 117.378906 6.382812 117.710938 C 6.382812 117.84375 6.347656 117.945312 6.28125 118.011719 C 6.148438 118.34375 5.949219 118.542969 5.683594 118.609375 C 5.683594 118.609375 5.648438 118.609375 5.582031 118.609375 C 5.382812 118.609375 5.21875 118.542969 5.085938 118.410156 C 5.019531 118.34375 4.984375 118.277344 4.984375 118.210938 C 4.984375 118.011719 5.085938 117.878906 5.285156 117.8125 C 5.285156 117.8125 5.316406 117.8125 5.382812 117.8125 C 5.515625 117.8125 5.582031 117.84375 5.582031 117.910156 C 5.582031 117.976562 5.582031 118.011719 5.582031 118.011719 C 5.582031 118.144531 5.515625 118.242188 5.382812 118.308594 C 5.382812 118.308594 5.351562 118.34375 5.285156 118.410156 C 5.351562 118.476562 5.449219 118.507812 5.582031 118.507812 C 5.785156 118.507812 5.917969 118.277344 5.984375 117.8125 C 6.050781 117.742188 6.082031 117.644531 6.082031 117.511719 L 6.082031 117.3125 L 6.582031 114.714844 L 6.183594 114.714844 C 6.050781 114.714844 5.984375 114.714844 5.984375 114.714844 C 5.984375 114.648438 6.015625 114.582031 6.082031 114.515625 L 6.683594 114.515625 C 6.75 113.984375 6.816406 113.652344 6.882812 113.519531 C 7.015625 113.117188 7.214844 112.886719 7.480469 112.820312 C 7.546875 112.820312 7.613281 112.820312 7.679688 112.820312 C 7.878906 112.820312 8.046875 112.886719 8.179688 113.019531 C 8.179688 113.085938 8.179688 113.152344 8.179688 113.21875 C 8.179688 113.417969 8.113281 113.550781 7.980469 113.617188 C 7.980469 113.617188 7.945312 113.617188 7.878906 113.617188 C 7.746094 113.617188 7.679688 113.585938 7.679688 113.519531 C 7.613281 113.453125 7.582031 113.417969 7.582031 113.417969 C 7.582031 113.285156 7.648438 113.183594 7.78125 113.117188 C 7.847656 113.117188 7.914062 113.085938 7.980469 113.019531 C 7.914062 112.953125 7.8125 112.917969 7.679688 112.917969 C 7.546875 112.917969 7.449219 112.984375 7.382812 113.117188 C 7.3125 113.183594 7.246094 113.417969 7.179688 113.816406 L 7.082031 114.515625 L 7.582031 114.515625 C 7.714844 114.515625 7.78125 114.550781 7.78125 114.617188 C 7.78125 114.683594 7.746094 114.714844 7.679688 114.714844 L 6.980469 114.714844 "/>
<path style="fill:none;stroke-width:15;stroke-linecap:round;stroke-linejoin:round;stroke:rgb(0%,0%,100%);stroke-opacity:1;stroke-miterlimit:10;" d="M 732.148438 1775.039062 L 737.265625 1767.34375 M 737.265625 1767.34375 L 756.5625 1738.398438 M 756.5625 1738.398438 L 775.898438 1709.453125 L 833.789062 1622.617188 M 833.789062 1622.617188 L 853.085938 1593.632812 L 949.570312 1448.90625 L 968.90625 1419.921875 L 988.203125 1390.976562 M 988.203125 1390.976562 L 1123.28125 1188.359375 L 1142.578125 1159.375 M 1142.578125 1159.375 L 1181.171875 1101.484375 L 1200.507812 1072.539062 L 1219.804688 1043.59375 M 1219.804688 1043.59375 L 1239.101562 1014.648438 L 1258.398438 985.664062 M 1258.398438 985.664062 L 1277.695312 956.71875 M 1277.695312 956.71875 L 1290.585938 937.382812 " transform="matrix(0.1,0,0,-0.1,0,188)"/>
<path style="fill:none;stroke-width:15;stroke-linecap:round;stroke-linejoin:round;stroke:rgb(0%,0%,100%);stroke-opacity:1;stroke-miterlimit:10;" d="M 1596.71875 1491.5625 L 1605.78125 1491.5625 M 1605.78125 1491.5625 L 1914.609375 1491.5625 M 1914.609375 1491.5625 L 2069.023438 1491.5625 M 2069.023438 1491.5625 L 2146.210938 1491.5625 M 2146.210938 1491.5625 L 2149.492188 1491.5625 " transform="matrix(0.1,0,0,-0.1,0,188)"/>
<path style="fill:none;stroke-width:15;stroke-linecap:round;stroke-linejoin:round;stroke:rgb(0%,0%,100%);stroke-opacity:1;stroke-miterlimit:10;" d="M 1310.429688 935.976562 L 1316.289062 941.835938 M 1316.289062 941.835938 L 1335.585938 961.132812 M 1335.585938 961.132812 L 1354.882812 980.429688 L 1374.21875 999.726562 M 1374.21875 999.726562 L 1451.40625 1076.914062 M 1451.40625 1076.914062 L 1470.703125 1096.210938 L 1490 1115.546875 L 1528.59375 1154.140625 M 1528.59375 1154.140625 L 1567.1875 1192.734375 M 1567.1875 1192.734375 L 1574.0625 1199.609375 " transform="matrix(0.1,0,0,-0.1,0,188)"/>
<path style="fill:none;stroke-width:15;stroke-linecap:round;stroke-linejoin:round;stroke:rgb(0%,0%,100%);stroke-opacity:1;stroke-miterlimit:10;" d="M 457.1875 1225.117188 L 467.070312 1244.84375 M 467.070312 1244.84375 L 486.367188 1283.4375 M 486.367188 1283.4375 L 524.960938 1360.625 M 524.960938 1360.625 L 544.257812 1399.257812 L 563.554688 1437.851562 L 582.890625 1476.445312 L 621.484375 1553.632812 L 640.78125 1592.265625 L 679.375 1669.453125 M 679.375 1669.453125 L 717.96875 1746.640625 M 717.96875 1746.640625 L 732.148438 1775.039062 " transform="matrix(0.1,0,0,-0.1,0,188)"/>
<path style=" stroke:none;fill-rule:nonzero;fill:rgb(0%,0%,100%);fill-opacity:1;" d="M 47 38.84375 C 47 40.019531 46.046875 40.972656 44.871094 40.972656 C 43.695312 40.972656 42.738281 40.019531 42.738281 38.84375 C 42.738281 37.667969 43.695312 36.714844 44.871094 36.714844 C 46.046875 36.714844 47 37.667969 47 38.84375 "/>
<path style="fill:none;stroke-width:20;stroke-linecap:square;stroke-linejoin:miter;stroke:rgb(0%,0%,100%);stroke-opacity:1;stroke-miterlimit:10;" d="M 465.742188 1208.085938 C 465.742188 1198.671875 458.125 1191.054688 448.710938 1191.054688 C 439.296875 1191.054688 431.679688 1198.671875 431.679688 1208.085938 C 431.679688 1217.5 439.296875 1225.117188 448.710938 1225.117188 C 458.125 1225.117188 465.742188 1217.5 465.742188 1208.085938 Z M 465.742188 1208.085938 " transform="matrix(0.1,0,0,-0.1,0,188)"/>
<path style="fill:none;stroke-width:20;stroke-linecap:square;stroke-linejoin:miter;stroke:rgb(0%,0%,100%);stroke-opacity:1;stroke-miterlimit:10;" d="M 1316.132812 924.648438 C 1316.132812 915.234375 1308.515625 907.578125 1299.101562 907.578125 C 1289.6875 907.578125 1282.03125 915.234375 1282.03125 924.648438 C 1282.03125 934.023438 1289.6875 941.679688 1299.101562 941.679688 C 1308.515625 941.679688 1316.132812 934.023438 1316.132812 924.648438 Z M 1316.132812 924.648438 " transform="matrix(0.1,0,0,-0.1,0,188)"/>
<path style=" stroke:none;fill-rule:nonzero;fill:rgb(0%,0%,100%);fill-opacity:1;" d="M 160.386719 67.191406 C 160.386719 68.367188 159.433594 69.320312 158.257812 69.320312 C 157.078125 69.320312 156.125 68.367188 156.125 67.191406 C 156.125 66.015625 157.078125 65.0625 158.257812 65.0625 C 159.433594 65.0625 160.386719 66.015625 160.386719 67.191406 "/>
<path style="fill:none;stroke-width:20;stroke-linecap:square;stroke-linejoin:miter;stroke:rgb(0%,0%,100%);stroke-opacity:1;stroke-miterlimit:10;" d="M 1599.609375 1491.5625 C 1599.609375 1482.148438 1591.953125 1474.53125 1582.578125 1474.53125 C 1573.164062 1474.53125 1565.507812 1482.148438 1565.507812 1491.5625 C 1565.507812 1500.976562 1573.164062 1508.59375 1582.578125 1508.59375 C 1591.953125 1508.59375 1599.609375 1500.976562 1599.609375 1491.5625 Z M 1599.609375 1491.5625 " transform="matrix(0.1,0,0,-0.1,0,188)"/>
</g>
</svg>
