<?xml version="1.0" encoding="UTF-8"?>
<svg xmlns="http://www.w3.org/2000/svg" xmlns:xlink="http://www.w3.org/1999/xlink" width="300pt" height="150pt" viewBox="0 0 300 150" version="1.1">
<defs>
<clipPath id="clip1">
  <path d="M 10 17 L 140 17 L 140 113 L 10 113 Z M 10 17 "/>
</clipPath>
<clipPath id="clip2">
  <path d="M 10 13 L 61 13 L 61 96 L 10 96 Z M 10 13 "/>
</clipPath>
<clipPath id="clip3">
  <path d="M 89 13 L 140 13 L 140 96 L 89 96 Z M 89 13 "/>
</clipPath>
<clipPath id="clip4">
  <path d="M 160 10 L 290 10 L 290 107 L 160 107 Z M 160 10 "/>
</clipPath>
<clipPath id="clip5">
  <path d="M 160 22 L 211 22 L 211 104 L 160 104 Z M 160 22 "/>
</clipPath>
<clipPath id="clip6">
  <path d="M 174 10 L 243 10 L 243 59 L 174 59 Z M 174 10 "/>
</clipPath>
<clipPath id="clip7">
  <path d="M 207 10 L 276 10 L 276 59 L 207 59 Z M 207 10 "/>
</clipPath>
<clipPath id="clip8">
  <path d="M 239 22 L 290 22 L 290 104 L 239 104 Z M 239 22 "/>
</clipPath>
</defs>
<g id="surface1">
<path style="fill:none;stroke-width:5;stroke-linecap:butt;stroke-linejoin:miter;stroke:rgb(80.076599%,80.076599%,80.076599%);stroke-opacity:1;stroke-miterlimit:10;" d="M 100 100 L 100 1400 M 425 100 L 425 1400 M 750 100 L 750 1400 M 1075 100 L 1075 1400 M 1400 100 L 1400 1400 M 100 100 L 1400 100 M 100 425 L 1400 425 M 100 750 L 1400 750 M 100 1075 L 1400 1075 M 100 1400 L 1400 1400 " transform="matrix(0.1,0,0,-0.1,0,150)"/>
<path style="fill:none;stroke-width:10;stroke-linecap:butt;stroke-linejoin:miter;stroke:rgb(0%,0%,0%);stroke-opacity:1;stroke-miterlimit:10;" d="M 100 425 L 1400 425 M 425 100 L 425 1400 " transform="matrix(0.1,0,0,-0.1,0,150)"/>
<g clip-path="url(#clip1)" clip-rule="nonzero">
<path style="fill:none;stroke-width:15;stroke-linecap:butt;stroke-linejoin:miter;stroke:rgb(0%,0%,100%);stroke-opacity:1;stroke-miterlimit:10;" d="M 165 1113.984375 L 176.679688 1093.164062 L 188.398438 1072.734375 L 200.117188 1052.695312 L 211.796875 1033.125 L 223.515625 1013.945312 L 235.195312 995.234375 L 246.914062 976.914062 L 258.59375 958.984375 L 270.3125 941.523438 L 281.992188 924.453125 L 293.710938 907.8125 L 305.390625 891.601562 L 317.109375 875.820312 L 328.789062 860.429688 L 340.507812 845.46875 L 352.1875 830.9375 L 363.90625 816.835938 L 375.585938 803.164062 L 387.304688 789.882812 L 398.984375 777.03125 L 410.703125 764.609375 L 422.382812 752.617188 L 434.101562 741.015625 L 445.820312 729.882812 L 457.5 719.140625 L 469.179688 708.789062 L 480.898438 698.90625 L 492.617188 689.414062 L 504.296875 680.390625 L 516.015625 671.71875 L 527.695312 663.515625 L 539.414062 655.742188 L 551.09375 648.359375 L 562.8125 641.40625 L 574.492188 634.882812 L 586.210938 628.789062 L 597.890625 623.085938 L 609.609375 617.8125 L 621.289062 612.96875 L 633.007812 608.554688 L 644.6875 604.570312 L 656.40625 600.976562 L 668.085938 597.8125 L 679.804688 595.078125 L 691.484375 592.773438 L 703.203125 590.859375 L 714.882812 589.414062 L 726.601562 588.359375 L 738.320312 587.695312 L 750 587.5 L 761.679688 587.695312 L 773.398438 588.359375 L 785.117188 589.414062 L 796.796875 590.859375 L 808.515625 592.773438 L 820.195312 595.078125 L 831.914062 597.8125 L 843.59375 600.976562 L 855.3125 604.570312 L 866.992188 608.554688 L 878.710938 612.96875 L 890.390625 617.8125 L 902.109375 623.085938 L 913.789062 628.789062 L 925.507812 634.882812 L 937.1875 641.40625 L 948.90625 648.359375 L 960.585938 655.742188 L 972.304688 663.515625 L 983.984375 671.71875 L 995.703125 680.390625 L 1007.382812 689.414062 L 1019.101562 698.90625 L 1030.78125 708.789062 L 1042.5 719.140625 L 1054.21875 729.882812 L 1065.898438 741.015625 L 1077.617188 752.617188 L 1089.296875 764.609375 L 1101.015625 777.03125 L 1112.695312 789.882812 L 1124.414062 803.164062 L 1136.09375 816.835938 L 1147.8125 830.9375 L 1159.492188 845.46875 L 1171.210938 860.429688 L 1182.890625 875.820312 L 1194.609375 891.601562 L 1206.289062 907.8125 L 1218.007812 924.453125 L 1229.6875 941.523438 L 1241.40625 958.984375 L 1253.085938 976.914062 L 1264.804688 995.234375 L 1276.484375 1013.945312 L 1288.203125 1033.125 L 1299.882812 1052.695312 L 1311.601562 1072.734375 L 1323.28125 1093.164062 L 1335 1113.984375 " transform="matrix(0.1,0,0,-0.1,0,150)"/>
</g>
<g clip-path="url(#clip2)" clip-rule="nonzero">
<path style="fill:none;stroke-width:15;stroke-linecap:butt;stroke-linejoin:miter;stroke:rgb(0%,50%,0%);stroke-opacity:1;stroke-miterlimit:10;" d="M 132.5 1148.125 L 135.117188 1144.21875 L 137.695312 1140.3125 L 140.3125 1136.445312 L 142.890625 1132.539062 L 145.507812 1128.632812 L 148.085938 1124.726562 L 153.320312 1116.914062 L 155.898438 1113.007812 L 158.515625 1109.140625 L 161.09375 1105.234375 L 163.710938 1101.328125 L 166.289062 1097.421875 L 168.90625 1093.515625 L 171.484375 1089.648438 L 174.101562 1085.742188 L 176.679688 1081.835938 L 181.914062 1074.023438 L 184.492188 1070.117188 L 187.109375 1066.210938 L 189.6875 1062.304688 L 192.304688 1058.4375 L 194.882812 1054.53125 L 200.117188 1046.71875 L 202.695312 1042.8125 L 205.3125 1038.945312 L 207.890625 1035.039062 L 210.507812 1031.132812 L 213.085938 1027.226562 L 218.320312 1019.414062 L 220.898438 1015.507812 L 223.515625 1011.640625 L 226.09375 1007.734375 L 228.710938 1003.828125 L 231.289062 999.921875 L 233.90625 996.015625 L 236.484375 992.109375 L 239.101562 988.242188 L 241.679688 984.335938 L 246.914062 976.523438 L 249.492188 972.617188 L 252.109375 968.710938 L 254.6875 964.804688 L 257.304688 960.9375 L 259.882812 957.03125 L 265.117188 949.21875 L 267.695312 945.3125 L 270.3125 941.445312 L 272.890625 937.539062 L 275.507812 933.632812 L 278.085938 929.726562 L 283.320312 921.914062 L 285.898438 918.007812 L 288.515625 914.140625 L 291.09375 910.234375 L 293.710938 906.328125 L 296.289062 902.421875 L 298.90625 898.515625 L 301.484375 894.609375 L 304.101562 890.742188 L 306.679688 886.835938 L 311.914062 879.023438 L 314.492188 875.117188 L 317.109375 871.210938 L 319.6875 867.304688 L 322.304688 863.4375 L 324.882812 859.53125 L 330.117188 851.71875 L 332.695312 847.8125 L 335.3125 843.945312 L 337.890625 840.039062 L 340.507812 836.132812 L 343.085938 832.226562 L 348.320312 824.414062 L 350.898438 820.507812 L 353.515625 816.640625 L 356.09375 812.734375 L 358.710938 808.828125 L 361.289062 804.921875 L 363.90625 801.015625 L 366.484375 797.109375 L 369.101562 793.242188 L 371.679688 789.335938 L 376.914062 781.523438 L 379.492188 777.617188 L 382.109375 773.710938 L 384.6875 769.804688 L 387.304688 765.9375 L 389.882812 762.03125 L 392.5 758.125 " transform="matrix(0.1,0,0,-0.1,0,150)"/>
</g>
<path style=" stroke:none;fill-rule:nonzero;fill:rgb(100%,0%,0%);fill-opacity:1;" d="M 28.25 54.6875 C 28.25 53.582031 27.355469 52.6875 26.25 52.6875 C 25.144531 52.6875 24.25 53.582031 24.25 54.6875 C 24.25 55.792969 25.144531 56.6875 26.25 56.6875 C 27.355469 56.6875 28.25 55.792969 28.25 54.6875 "/>
<path style="fill:none;stroke-width:10;stroke-linecap:butt;stroke-linejoin:miter;stroke:rgb(0%,0%,0%);stroke-opacity:1;stroke-miterlimit:10;" d="M 282.5 953.125 C 282.5 964.179688 273.554688 973.125 262.5 973.125 C 251.445312 973.125 242.5 964.179688 242.5 953.125 C 242.5 942.070312 251.445312 933.125 262.5 933.125 C 273.554688 933.125 282.5 942.070312 282.5 953.125 Z M 282.5 953.125 " transform="matrix(0.1,0,0,-0.1,0,150)"/>
<path style="fill:none;stroke-width:15;stroke-linecap:butt;stroke-linejoin:miter;stroke:rgb(0%,50%,0%);stroke-opacity:1;stroke-miterlimit:10;" d="M 457.5 693.125 L 460.117188 691.835938 L 462.695312 690.507812 L 465.3125 689.21875 L 467.890625 687.929688 L 470.507812 686.640625 L 473.085938 685.3125 L 478.320312 682.734375 L 480.898438 681.445312 L 483.515625 680.117188 L 486.09375 678.828125 L 488.710938 677.539062 L 491.289062 676.210938 L 493.90625 674.921875 L 496.484375 673.632812 L 499.101562 672.304688 L 501.679688 671.015625 L 506.914062 668.4375 L 509.492188 667.109375 L 512.109375 665.820312 L 514.6875 664.53125 L 517.304688 663.242188 L 519.882812 661.914062 L 525.117188 659.335938 L 527.695312 658.007812 L 530.3125 656.71875 L 532.890625 655.429688 L 535.507812 654.140625 L 538.085938 652.8125 L 543.320312 650.234375 L 545.898438 648.945312 L 548.515625 647.617188 L 551.09375 646.328125 L 553.710938 645.039062 L 556.289062 643.710938 L 558.90625 642.421875 L 561.484375 641.132812 L 564.101562 639.804688 L 566.679688 638.515625 L 571.914062 635.9375 L 574.492188 634.609375 L 577.109375 633.320312 L 579.6875 632.03125 L 582.304688 630.742188 L 584.882812 629.414062 L 590.117188 626.835938 L 592.695312 625.507812 L 595.3125 624.21875 L 597.890625 622.929688 L 600.507812 621.640625 L 603.085938 620.3125 L 608.320312 617.734375 L 610.898438 616.445312 L 613.515625 615.117188 L 616.09375 613.828125 L 618.710938 612.539062 L 621.289062 611.210938 L 623.90625 609.921875 L 626.484375 608.632812 L 629.101562 607.304688 L 631.679688 606.015625 L 636.914062 603.4375 L 639.492188 602.109375 L 642.109375 600.820312 L 644.6875 599.53125 L 647.304688 598.242188 L 649.882812 596.914062 L 655.117188 594.335938 L 657.695312 593.007812 L 660.3125 591.71875 L 662.890625 590.429688 L 665.507812 589.140625 L 668.085938 587.8125 L 673.320312 585.234375 L 675.898438 583.945312 L 678.515625 582.617188 L 681.09375 581.328125 L 683.710938 580.039062 L 686.289062 578.710938 L 688.90625 577.421875 L 691.484375 576.132812 L 694.101562 574.804688 L 696.679688 573.515625 L 701.914062 570.9375 L 704.492188 569.609375 L 707.109375 568.320312 L 709.6875 567.03125 L 712.304688 565.742188 L 714.882812 564.414062 L 717.5 563.125 " transform="matrix(0.1,0,0,-0.1,0,150)"/>
<path style=" stroke:none;fill-rule:nonzero;fill:rgb(100%,0%,0%);fill-opacity:1;" d="M 60.75 87.1875 C 60.75 86.082031 59.855469 85.1875 58.75 85.1875 C 57.644531 85.1875 56.75 86.082031 56.75 87.1875 C 56.75 88.292969 57.644531 89.1875 58.75 89.1875 C 59.855469 89.1875 60.75 88.292969 60.75 87.1875 "/>
<path style="fill:none;stroke-width:10;stroke-linecap:butt;stroke-linejoin:miter;stroke:rgb(0%,0%,0%);stroke-opacity:1;stroke-miterlimit:10;" d="M 607.5 628.125 C 607.5 639.179688 598.554688 648.125 587.5 648.125 C 576.445312 648.125 567.5 639.179688 567.5 628.125 C 567.5 617.070312 576.445312 608.125 587.5 608.125 C 598.554688 608.125 607.5 617.070312 607.5 628.125 Z M 607.5 628.125 " transform="matrix(0.1,0,0,-0.1,0,150)"/>
<path style="fill:none;stroke-width:15;stroke-linecap:butt;stroke-linejoin:miter;stroke:rgb(0%,50%,0%);stroke-opacity:1;stroke-miterlimit:10;" d="M 782.5 563.125 L 785.117188 564.414062 L 787.695312 565.742188 L 790.3125 567.03125 L 792.890625 568.320312 L 795.507812 569.609375 L 798.085938 570.9375 L 803.320312 573.515625 L 805.898438 574.804688 L 808.515625 576.132812 L 811.09375 577.421875 L 813.710938 578.710938 L 816.289062 580.039062 L 818.90625 581.328125 L 821.484375 582.617188 L 824.101562 583.945312 L 826.679688 585.234375 L 831.914062 587.8125 L 834.492188 589.140625 L 837.109375 590.429688 L 839.6875 591.71875 L 842.304688 593.007812 L 844.882812 594.335938 L 850.117188 596.914062 L 852.695312 598.242188 L 855.3125 599.53125 L 857.890625 600.820312 L 860.507812 602.109375 L 863.085938 603.4375 L 868.320312 606.015625 L 870.898438 607.304688 L 873.515625 608.632812 L 876.09375 609.921875 L 878.710938 611.210938 L 881.289062 612.539062 L 883.90625 613.828125 L 886.484375 615.117188 L 889.101562 616.445312 L 891.679688 617.734375 L 896.914062 620.3125 L 899.492188 621.640625 L 902.109375 622.929688 L 904.6875 624.21875 L 907.304688 625.507812 L 909.882812 626.835938 L 915.117188 629.414062 L 917.695312 630.742188 L 920.3125 632.03125 L 922.890625 633.320312 L 925.507812 634.609375 L 928.085938 635.9375 L 933.320312 638.515625 L 935.898438 639.804688 L 938.515625 641.132812 L 941.09375 642.421875 L 943.710938 643.710938 L 946.289062 645.039062 L 948.90625 646.328125 L 951.484375 647.617188 L 954.101562 648.945312 L 956.679688 650.234375 L 961.914062 652.8125 L 964.492188 654.140625 L 967.109375 655.429688 L 969.6875 656.71875 L 972.304688 658.007812 L 974.882812 659.335938 L 980.117188 661.914062 L 982.695312 663.242188 L 985.3125 664.53125 L 987.890625 665.820312 L 990.507812 667.109375 L 993.085938 668.4375 L 998.320312 671.015625 L 1000.898438 672.304688 L 1003.515625 673.632812 L 1006.09375 674.921875 L 1008.710938 676.210938 L 1011.289062 677.539062 L 1013.90625 678.828125 L 1016.484375 680.117188 L 1019.101562 681.445312 L 1021.71875 682.734375 L 1024.296875 684.023438 L 1026.914062 685.3125 L 1029.492188 686.640625 L 1032.109375 687.929688 L 1034.6875 689.21875 L 1037.304688 690.507812 L 1039.882812 691.835938 L 1042.5 693.125 " transform="matrix(0.1,0,0,-0.1,0,150)"/>
<path style=" stroke:none;fill-rule:nonzero;fill:rgb(100%,0%,0%);fill-opacity:1;" d="M 93.25 87.1875 C 93.25 86.082031 92.355469 85.1875 91.25 85.1875 C 90.144531 85.1875 89.25 86.082031 89.25 87.1875 C 89.25 88.292969 90.144531 89.1875 91.25 89.1875 C 92.355469 89.1875 93.25 88.292969 93.25 87.1875 "/>
<path style="fill:none;stroke-width:10;stroke-linecap:butt;stroke-linejoin:miter;stroke:rgb(0%,0%,0%);stroke-opacity:1;stroke-miterlimit:10;" d="M 932.5 628.125 C 932.5 639.179688 923.554688 648.125 912.5 648.125 C 901.445312 648.125 892.5 639.179688 892.5 628.125 C 892.5 617.070312 901.445312 608.125 912.5 608.125 C 923.554688 608.125 932.5 617.070312 932.5 628.125 Z M 932.5 628.125 " transform="matrix(0.1,0,0,-0.1,0,150)"/>
<g clip-path="url(#clip3)" clip-rule="nonzero">
<path style="fill:none;stroke-width:15;stroke-linecap:butt;stroke-linejoin:miter;stroke:rgb(0%,50%,0%);stroke-opacity:1;stroke-miterlimit:10;" d="M 1107.5 758.125 L 1110.117188 762.03125 L 1112.695312 765.9375 L 1115.3125 769.804688 L 1117.890625 773.710938 L 1120.507812 777.617188 L 1123.085938 781.523438 L 1125.703125 785.429688 L 1128.28125 789.335938 L 1130.898438 793.242188 L 1133.515625 797.109375 L 1136.09375 801.015625 L 1138.710938 804.921875 L 1141.289062 808.828125 L 1143.90625 812.734375 L 1146.484375 816.640625 L 1149.101562 820.507812 L 1151.71875 824.414062 L 1154.296875 828.320312 L 1156.914062 832.226562 L 1159.492188 836.132812 L 1162.109375 840.039062 L 1164.6875 843.945312 L 1167.304688 847.8125 L 1169.882812 851.71875 L 1175.117188 859.53125 L 1177.695312 863.4375 L 1180.3125 867.304688 L 1182.890625 871.210938 L 1185.507812 875.117188 L 1188.085938 879.023438 L 1190.703125 882.929688 L 1193.28125 886.835938 L 1195.898438 890.742188 L 1198.515625 894.609375 L 1201.09375 898.515625 L 1203.710938 902.421875 L 1206.289062 906.328125 L 1208.90625 910.234375 L 1211.484375 914.140625 L 1214.101562 918.007812 L 1216.71875 921.914062 L 1219.296875 925.820312 L 1221.914062 929.726562 L 1224.492188 933.632812 L 1227.109375 937.539062 L 1229.6875 941.445312 L 1232.304688 945.3125 L 1234.882812 949.21875 L 1240.117188 957.03125 L 1242.695312 960.9375 L 1245.3125 964.804688 L 1247.890625 968.710938 L 1250.507812 972.617188 L 1253.085938 976.523438 L 1255.703125 980.429688 L 1258.28125 984.335938 L 1260.898438 988.242188 L 1263.515625 992.109375 L 1266.09375 996.015625 L 1268.710938 999.921875 L 1271.289062 1003.828125 L 1273.90625 1007.734375 L 1276.484375 1011.640625 L 1279.101562 1015.507812 L 1281.71875 1019.414062 L 1284.296875 1023.320312 L 1286.914062 1027.226562 L 1289.492188 1031.132812 L 1292.109375 1035.039062 L 1294.6875 1038.945312 L 1297.304688 1042.8125 L 1299.882812 1046.71875 L 1305.117188 1054.53125 L 1307.695312 1058.4375 L 1310.3125 1062.304688 L 1312.890625 1066.210938 L 1315.507812 1070.117188 L 1318.085938 1074.023438 L 1320.703125 1077.929688 L 1323.28125 1081.835938 L 1328.515625 1089.648438 L 1331.09375 1093.515625 L 1333.710938 1097.421875 L 1336.289062 1101.328125 L 1338.90625 1105.234375 L 1341.484375 1109.140625 L 1344.101562 1113.007812 L 1346.71875 1116.914062 L 1349.296875 1120.820312 L 1351.914062 1124.726562 L 1354.492188 1128.632812 L 1357.109375 1132.539062 L 1359.6875 1136.445312 L 1362.304688 1140.3125 L 1364.882812 1144.21875 L 1367.5 1148.125 " transform="matrix(0.1,0,0,-0.1,0,150)"/>
</g>
<path style=" stroke:none;fill-rule:nonzero;fill:rgb(100%,0%,0%);fill-opacity:1;" d="M 125.75 54.6875 C 125.75 53.582031 124.855469 52.6875 123.75 52.6875 C 122.644531 52.6875 121.75 53.582031 121.75 54.6875 C 121.75 55.792969 122.644531 56.6875 123.75 56.6875 C 124.855469 56.6875 125.75 55.792969 125.75 54.6875 "/>
<path style="fill:none;stroke-width:10;stroke-linecap:butt;stroke-linejoin:miter;stroke:rgb(0%,0%,0%);stroke-opacity:1;stroke-miterlimit:10;" d="M 1257.5 953.125 C 1257.5 964.179688 1248.554688 973.125 1237.5 973.125 C 1226.445312 973.125 1217.5 964.179688 1217.5 953.125 C 1217.5 942.070312 1226.445312 933.125 1237.5 933.125 C 1248.554688 933.125 1257.5 942.070312 1257.5 953.125 Z M 1257.5 953.125 " transform="matrix(0.1,0,0,-0.1,0,150)"/>
<path style="fill:none;stroke-width:5;stroke-linecap:butt;stroke-linejoin:miter;stroke:rgb(80.076599%,80.076599%,80.076599%);stroke-opacity:1;stroke-miterlimit:10;" d="M 1600 100 L 1600 1400 M 1925 100 L 1925 1400 M 2250 100 L 2250 1400 M 2575 100 L 2575 1400 M 2900 100 L 2900 1400 M 1600 100 L 2900 100 M 1600 425 L 2900 425 M 1600 750 L 2900 750 M 1600 1075 L 2900 1075 M 1600 1400 L 2900 1400 " transform="matrix(0.1,0,0,-0.1,0,150)"/>
<path style="fill:none;stroke-width:10;stroke-linecap:butt;stroke-linejoin:miter;stroke:rgb(0%,0%,0%);stroke-opacity:1;stroke-miterlimit:10;" d="M 1600 425 L 2900 425 M 1925 100 L 1925 1400 " transform="matrix(0.1,0,0,-0.1,0,150)"/>
<g clip-path="url(#clip4)" clip-rule="nonzero">
<path style="fill:none;stroke-width:15;stroke-linecap:butt;stroke-linejoin:miter;stroke:rgb(0%,0%,100%);stroke-opacity:1;stroke-miterlimit:10;" d="M 1665 711.015625 L 1677.03125 732.421875 L 1689.0625 753.398438 L 1701.054688 773.945312 L 1713.085938 794.023438 L 1725.117188 813.671875 L 1737.148438 832.851562 L 1749.179688 851.601562 L 1761.210938 869.921875 L 1773.242188 887.773438 L 1785.234375 905.195312 L 1797.265625 922.1875 L 1809.296875 938.710938 L 1821.328125 954.804688 L 1833.359375 970.429688 L 1845.390625 985.625 L 1857.382812 1000.351562 L 1869.414062 1014.6875 L 1881.445312 1028.515625 L 1893.476562 1041.953125 L 1905.507812 1054.921875 L 1917.539062 1067.421875 L 1929.53125 1079.53125 L 1941.5625 1091.132812 L 1953.59375 1102.34375 L 1965.625 1113.085938 L 1977.65625 1123.398438 L 1989.6875 1133.242188 L 2001.71875 1142.65625 L 2013.710938 1151.601562 L 2025.742188 1160.117188 L 2037.773438 1168.203125 L 2049.804688 1175.859375 L 2061.835938 1183.007812 L 2073.867188 1189.765625 L 2085.898438 1196.054688 L 2097.890625 1201.914062 L 2109.921875 1207.304688 L 2121.953125 1212.265625 L 2133.984375 1216.796875 L 2146.015625 1220.859375 L 2158.007812 1224.492188 L 2170.039062 1227.65625 L 2182.070312 1230.390625 L 2194.101562 1232.695312 L 2206.132812 1234.53125 L 2218.164062 1235.9375 L 2230.195312 1236.875 L 2242.1875 1237.421875 L 2254.21875 1237.460938 L 2266.25 1237.109375 L 2278.28125 1236.289062 L 2290.3125 1235 L 2302.304688 1233.28125 L 2314.335938 1231.132812 L 2326.367188 1228.515625 L 2338.398438 1225.46875 L 2350.429688 1221.992188 L 2362.460938 1218.046875 L 2374.492188 1213.671875 L 2386.484375 1208.828125 L 2398.515625 1203.554688 L 2410.546875 1197.851562 L 2422.578125 1191.679688 L 2434.609375 1185.078125 L 2446.640625 1178.007812 L 2458.632812 1170.507812 L 2470.664062 1162.578125 L 2482.695312 1154.179688 L 2494.726562 1145.351562 L 2506.757812 1136.09375 L 2518.789062 1126.367188 L 2530.78125 1116.210938 L 2542.8125 1105.585938 L 2554.84375 1094.53125 L 2566.875 1083.007812 L 2578.90625 1071.09375 L 2590.9375 1058.671875 L 2602.96875 1045.859375 L 2614.960938 1032.578125 L 2626.992188 1018.828125 L 2639.023438 1004.6875 L 2651.054688 990.039062 L 2663.085938 975 L 2675.117188 959.492188 L 2687.148438 943.515625 L 2699.140625 927.148438 L 2711.171875 910.3125 L 2723.203125 893.007812 L 2735.234375 875.273438 L 2747.265625 857.109375 L 2759.257812 838.476562 L 2771.289062 819.414062 L 2783.320312 799.921875 L 2795.351562 779.960938 L 2807.382812 759.570312 L 2819.414062 738.710938 L 2831.445312 717.421875 L 2843.4375 695.664062 L 2855.46875 673.515625 L 2867.5 650.859375 " transform="matrix(0.1,0,0,-0.1,0,150)"/>
</g>
<g clip-path="url(#clip5)" clip-rule="nonzero">
<path style="fill:none;stroke-width:15;stroke-linecap:butt;stroke-linejoin:miter;stroke:rgb(0%,50%,0%);stroke-opacity:1;stroke-miterlimit:10;" d="M 1632.5 676.875 L 1635.117188 680.78125 L 1637.695312 684.6875 L 1640.3125 688.554688 L 1642.890625 692.460938 L 1645.507812 696.367188 L 1648.085938 700.273438 L 1650.703125 704.179688 L 1653.28125 708.085938 L 1655.898438 711.992188 L 1658.515625 715.859375 L 1661.09375 719.765625 L 1663.710938 723.671875 L 1666.289062 727.578125 L 1668.90625 731.484375 L 1671.484375 735.390625 L 1674.101562 739.257812 L 1676.71875 743.164062 L 1679.296875 747.070312 L 1681.914062 750.976562 L 1684.492188 754.882812 L 1687.109375 758.789062 L 1689.6875 762.695312 L 1692.304688 766.5625 L 1694.882812 770.46875 L 1700.117188 778.28125 L 1702.695312 782.1875 L 1705.3125 786.054688 L 1707.890625 789.960938 L 1710.507812 793.867188 L 1713.085938 797.773438 L 1715.703125 801.679688 L 1718.28125 805.585938 L 1720.898438 809.492188 L 1723.515625 813.359375 L 1726.09375 817.265625 L 1728.710938 821.171875 L 1731.289062 825.078125 L 1733.90625 828.984375 L 1736.484375 832.890625 L 1739.101562 836.757812 L 1741.71875 840.664062 L 1744.296875 844.570312 L 1746.914062 848.476562 L 1749.492188 852.382812 L 1752.109375 856.289062 L 1754.6875 860.195312 L 1757.304688 864.0625 L 1759.882812 867.96875 L 1765.117188 875.78125 L 1767.695312 879.6875 L 1770.3125 883.554688 L 1772.890625 887.460938 L 1775.507812 891.367188 L 1778.085938 895.273438 L 1780.703125 899.179688 L 1783.28125 903.085938 L 1785.898438 906.992188 L 1788.515625 910.859375 L 1791.09375 914.765625 L 1793.710938 918.671875 L 1796.289062 922.578125 L 1798.90625 926.484375 L 1801.484375 930.390625 L 1804.101562 934.257812 L 1806.71875 938.164062 L 1809.296875 942.070312 L 1811.914062 945.976562 L 1814.492188 949.882812 L 1817.109375 953.789062 L 1819.6875 957.695312 L 1822.304688 961.5625 L 1824.882812 965.46875 L 1830.117188 973.28125 L 1832.695312 977.1875 L 1835.3125 981.054688 L 1837.890625 984.960938 L 1840.507812 988.867188 L 1843.085938 992.773438 L 1845.703125 996.679688 L 1848.28125 1000.585938 L 1853.515625 1008.398438 L 1856.09375 1012.265625 L 1858.710938 1016.171875 L 1861.289062 1020.078125 L 1863.90625 1023.984375 L 1866.484375 1027.890625 L 1869.101562 1031.757812 L 1871.71875 1035.664062 L 1874.296875 1039.570312 L 1876.914062 1043.476562 L 1879.492188 1047.382812 L 1882.109375 1051.289062 L 1884.6875 1055.195312 L 1887.304688 1059.0625 L 1889.882812 1062.96875 L 1892.5 1066.875 " transform="matrix(0.1,0,0,-0.1,0,150)"/>
</g>
<path style=" stroke:none;fill-rule:nonzero;fill:rgb(100%,0%,0%);fill-opacity:1;" d="M 178.25 62.8125 C 178.25 61.707031 177.355469 60.8125 176.25 60.8125 C 175.144531 60.8125 174.25 61.707031 174.25 62.8125 C 174.25 63.917969 175.144531 64.8125 176.25 64.8125 C 177.355469 64.8125 178.25 63.917969 178.25 62.8125 "/>
<path style="fill:none;stroke-width:10;stroke-linecap:butt;stroke-linejoin:miter;stroke:rgb(0%,0%,0%);stroke-opacity:1;stroke-miterlimit:10;" d="M 1782.5 871.875 C 1782.5 882.929688 1773.554688 891.875 1762.5 891.875 C 1751.445312 891.875 1742.5 882.929688 1742.5 871.875 C 1742.5 860.820312 1751.445312 851.875 1762.5 851.875 C 1773.554688 851.875 1782.5 860.820312 1782.5 871.875 Z M 1782.5 871.875 " transform="matrix(0.1,0,0,-0.1,0,150)"/>
<g clip-path="url(#clip6)" clip-rule="nonzero">
<path style="fill:none;stroke-width:15;stroke-linecap:butt;stroke-linejoin:miter;stroke:rgb(0%,50%,0%);stroke-opacity:1;stroke-miterlimit:10;" d="M 1957.5 1131.875 L 1960.117188 1133.164062 L 1962.695312 1134.492188 L 1965.3125 1135.78125 L 1967.890625 1137.070312 L 1970.507812 1138.398438 L 1973.085938 1139.6875 L 1975.703125 1140.976562 L 1978.28125 1142.265625 L 1980.898438 1143.554688 L 1983.515625 1144.882812 L 1986.09375 1146.171875 L 1988.710938 1147.460938 L 1991.289062 1148.789062 L 1993.90625 1150.078125 L 1996.484375 1151.367188 L 1999.101562 1152.695312 L 2001.71875 1153.984375 L 2004.296875 1155.273438 L 2006.914062 1156.5625 L 2009.492188 1157.890625 L 2012.109375 1159.179688 L 2014.6875 1160.46875 L 2017.304688 1161.757812 L 2019.882812 1163.085938 L 2025.117188 1165.664062 L 2027.695312 1166.992188 L 2030.3125 1168.28125 L 2032.890625 1169.570312 L 2035.507812 1170.898438 L 2038.085938 1172.1875 L 2040.703125 1173.476562 L 2043.28125 1174.765625 L 2045.898438 1176.054688 L 2048.515625 1177.382812 L 2051.09375 1178.671875 L 2053.710938 1179.960938 L 2056.289062 1181.289062 L 2058.90625 1182.578125 L 2061.484375 1183.867188 L 2064.101562 1185.195312 L 2066.71875 1186.484375 L 2069.296875 1187.773438 L 2071.914062 1189.0625 L 2074.492188 1190.390625 L 2077.109375 1191.679688 L 2079.6875 1192.96875 L 2082.304688 1194.257812 L 2084.882812 1195.585938 L 2090.117188 1198.164062 L 2092.695312 1199.492188 L 2095.3125 1200.78125 L 2097.890625 1202.070312 L 2100.507812 1203.398438 L 2103.085938 1204.6875 L 2105.703125 1205.976562 L 2108.28125 1207.265625 L 2110.898438 1208.554688 L 2113.515625 1209.882812 L 2116.09375 1211.171875 L 2118.710938 1212.460938 L 2121.289062 1213.789062 L 2123.90625 1215.078125 L 2126.484375 1216.367188 L 2129.101562 1217.695312 L 2131.71875 1218.984375 L 2134.296875 1220.273438 L 2136.914062 1221.5625 L 2139.492188 1222.890625 L 2142.109375 1224.179688 L 2144.6875 1225.46875 L 2147.304688 1226.757812 L 2149.882812 1228.085938 L 2155.117188 1230.664062 L 2157.695312 1231.992188 L 2160.3125 1233.28125 L 2162.890625 1234.570312 L 2165.507812 1235.898438 L 2168.085938 1237.1875 L 2170.703125 1238.476562 L 2173.28125 1239.765625 L 2175.898438 1241.054688 L 2178.515625 1242.382812 L 2181.09375 1243.671875 L 2183.710938 1244.960938 L 2186.289062 1246.289062 L 2188.90625 1247.578125 L 2191.484375 1248.867188 L 2194.101562 1250.195312 L 2196.71875 1251.484375 L 2199.296875 1252.773438 L 2201.914062 1254.0625 L 2204.492188 1255.390625 L 2207.109375 1256.679688 L 2209.6875 1257.96875 L 2212.304688 1259.257812 L 2214.882812 1260.585938 L 2217.5 1261.875 " transform="matrix(0.1,0,0,-0.1,0,150)"/>
</g>
<path style=" stroke:none;fill-rule:nonzero;fill:rgb(100%,0%,0%);fill-opacity:1;" d="M 210.75 30.3125 C 210.75 29.207031 209.855469 28.3125 208.75 28.3125 C 207.644531 28.3125 206.75 29.207031 206.75 30.3125 C 206.75 31.417969 207.644531 32.3125 208.75 32.3125 C 209.855469 32.3125 210.75 31.417969 210.75 30.3125 "/>
<path style="fill:none;stroke-width:10;stroke-linecap:butt;stroke-linejoin:miter;stroke:rgb(0%,0%,0%);stroke-opacity:1;stroke-miterlimit:10;" d="M 2107.5 1196.875 C 2107.5 1207.929688 2098.554688 1216.875 2087.5 1216.875 C 2076.445312 1216.875 2067.5 1207.929688 2067.5 1196.875 C 2067.5 1185.820312 2076.445312 1176.875 2087.5 1176.875 C 2098.554688 1176.875 2107.5 1185.820312 2107.5 1196.875 Z M 2107.5 1196.875 " transform="matrix(0.1,0,0,-0.1,0,150)"/>
<g clip-path="url(#clip7)" clip-rule="nonzero">
<path style="fill:none;stroke-width:15;stroke-linecap:butt;stroke-linejoin:miter;stroke:rgb(0%,50%,0%);stroke-opacity:1;stroke-miterlimit:10;" d="M 2282.5 1261.875 L 2285.117188 1260.585938 L 2287.695312 1259.257812 L 2290.3125 1257.96875 L 2292.890625 1256.679688 L 2295.507812 1255.390625 L 2298.085938 1254.0625 L 2300.703125 1252.773438 L 2303.28125 1251.484375 L 2305.898438 1250.195312 L 2308.515625 1248.867188 L 2311.09375 1247.578125 L 2313.710938 1246.289062 L 2316.289062 1244.960938 L 2318.90625 1243.671875 L 2321.484375 1242.382812 L 2324.101562 1241.054688 L 2326.71875 1239.765625 L 2329.296875 1238.476562 L 2331.914062 1237.1875 L 2334.492188 1235.898438 L 2337.109375 1234.570312 L 2339.6875 1233.28125 L 2342.304688 1231.992188 L 2344.882812 1230.664062 L 2350.117188 1228.085938 L 2352.695312 1226.757812 L 2355.3125 1225.46875 L 2357.890625 1224.179688 L 2360.507812 1222.890625 L 2363.085938 1221.5625 L 2365.703125 1220.273438 L 2368.28125 1218.984375 L 2370.898438 1217.695312 L 2373.515625 1216.367188 L 2376.09375 1215.078125 L 2378.710938 1213.789062 L 2381.289062 1212.460938 L 2383.90625 1211.171875 L 2386.484375 1209.882812 L 2389.101562 1208.554688 L 2391.71875 1207.265625 L 2394.296875 1205.976562 L 2396.914062 1204.6875 L 2399.492188 1203.398438 L 2402.109375 1202.070312 L 2404.6875 1200.78125 L 2407.304688 1199.492188 L 2409.882812 1198.164062 L 2415.117188 1195.585938 L 2417.695312 1194.257812 L 2420.3125 1192.96875 L 2422.890625 1191.679688 L 2425.507812 1190.390625 L 2428.085938 1189.0625 L 2430.703125 1187.773438 L 2433.28125 1186.484375 L 2435.898438 1185.195312 L 2438.515625 1183.867188 L 2441.09375 1182.578125 L 2443.710938 1181.289062 L 2446.289062 1179.960938 L 2448.90625 1178.671875 L 2451.484375 1177.382812 L 2454.101562 1176.054688 L 2456.71875 1174.765625 L 2459.296875 1173.476562 L 2461.914062 1172.1875 L 2464.492188 1170.898438 L 2467.109375 1169.570312 L 2469.6875 1168.28125 L 2472.304688 1166.992188 L 2474.882812 1165.664062 L 2480.117188 1163.085938 L 2482.695312 1161.757812 L 2485.3125 1160.46875 L 2487.890625 1159.179688 L 2490.507812 1157.890625 L 2493.085938 1156.5625 L 2495.703125 1155.273438 L 2498.28125 1153.984375 L 2500.898438 1152.695312 L 2503.515625 1151.367188 L 2506.09375 1150.078125 L 2508.710938 1148.789062 L 2511.289062 1147.460938 L 2513.90625 1146.171875 L 2516.484375 1144.882812 L 2519.101562 1143.554688 L 2521.71875 1142.265625 L 2524.296875 1140.976562 L 2526.914062 1139.6875 L 2529.492188 1138.398438 L 2532.109375 1137.070312 L 2534.6875 1135.78125 L 2537.304688 1134.492188 L 2539.882812 1133.164062 L 2542.5 1131.875 " transform="matrix(0.1,0,0,-0.1,0,150)"/>
</g>
<path style=" stroke:none;fill-rule:nonzero;fill:rgb(100%,0%,0%);fill-opacity:1;" d="M 243.25 30.3125 C 243.25 29.207031 242.355469 28.3125 241.25 28.3125 C 240.144531 28.3125 239.25 29.207031 239.25 30.3125 C 239.25 31.417969 240.144531 32.3125 241.25 32.3125 C 242.355469 32.3125 243.25 31.417969 243.25 30.3125 "/>
<path style="fill:none;stroke-width:10;stroke-linecap:butt;stroke-linejoin:miter;stroke:rgb(0%,0%,0%);stroke-opacity:1;stroke-miterlimit:10;" d="M 2432.5 1196.875 C 2432.5 1207.929688 2423.554688 1216.875 2412.5 1216.875 C 2401.445312 1216.875 2392.5 1207.929688 2392.5 1196.875 C 2392.5 1185.820312 2401.445312 1176.875 2412.5 1176.875 C 2423.554688 1176.875 2432.5 1185.820312 2432.5 1196.875 Z M 2432.5 1196.875 " transform="matrix(0.1,0,0,-0.1,0,150)"/>
<g clip-path="url(#clip8)" clip-rule="nonzero">
<path style="fill:none;stroke-width:15;stroke-linecap:butt;stroke-linejoin:miter;stroke:rgb(0%,50%,0%);stroke-opacity:1;stroke-miterlimit:10;" d="M 2607.5 1066.875 L 2610.117188 1062.96875 L 2612.695312 1059.0625 L 2615.3125 1055.195312 L 2617.890625 1051.289062 L 2620.507812 1047.382812 L 2623.085938 1043.476562 L 2625.703125 1039.570312 L 2628.28125 1035.664062 L 2630.898438 1031.757812 L 2633.515625 1027.890625 L 2636.09375 1023.984375 L 2638.710938 1020.078125 L 2641.289062 1016.171875 L 2643.90625 1012.265625 L 2646.484375 1008.398438 L 2651.71875 1000.585938 L 2654.296875 996.679688 L 2656.914062 992.773438 L 2659.492188 988.867188 L 2662.109375 984.960938 L 2664.6875 981.054688 L 2667.304688 977.1875 L 2669.882812 973.28125 L 2675.117188 965.46875 L 2677.695312 961.5625 L 2680.3125 957.695312 L 2682.890625 953.789062 L 2685.507812 949.882812 L 2688.085938 945.976562 L 2690.703125 942.070312 L 2693.28125 938.164062 L 2695.898438 934.257812 L 2698.515625 930.390625 L 2701.09375 926.484375 L 2703.710938 922.578125 L 2706.289062 918.671875 L 2708.90625 914.765625 L 2711.484375 910.859375 L 2714.101562 906.992188 L 2716.71875 903.085938 L 2719.296875 899.179688 L 2721.914062 895.273438 L 2724.492188 891.367188 L 2727.109375 887.460938 L 2729.6875 883.554688 L 2732.304688 879.6875 L 2734.882812 875.78125 L 2740.117188 867.96875 L 2742.695312 864.0625 L 2745.3125 860.195312 L 2747.890625 856.289062 L 2750.507812 852.382812 L 2753.085938 848.476562 L 2755.703125 844.570312 L 2758.28125 840.664062 L 2760.898438 836.757812 L 2763.515625 832.890625 L 2766.09375 828.984375 L 2768.710938 825.078125 L 2771.289062 821.171875 L 2773.90625 817.265625 L 2776.484375 813.359375 L 2779.101562 809.492188 L 2781.71875 805.585938 L 2784.296875 801.679688 L 2786.914062 797.773438 L 2789.492188 793.867188 L 2792.109375 789.960938 L 2794.6875 786.054688 L 2797.304688 782.1875 L 2799.882812 778.28125 L 2805.117188 770.46875 L 2807.695312 766.5625 L 2810.3125 762.695312 L 2812.890625 758.789062 L 2815.507812 754.882812 L 2818.085938 750.976562 L 2820.703125 747.070312 L 2823.28125 743.164062 L 2825.898438 739.257812 L 2828.515625 735.390625 L 2831.09375 731.484375 L 2833.710938 727.578125 L 2836.289062 723.671875 L 2838.90625 719.765625 L 2841.484375 715.859375 L 2844.101562 711.992188 L 2846.71875 708.085938 L 2849.296875 704.179688 L 2851.914062 700.273438 L 2854.492188 696.367188 L 2857.109375 692.460938 L 2859.6875 688.554688 L 2862.304688 684.6875 L 2864.882812 680.78125 L 2867.5 676.875 " transform="matrix(0.1,0,0,-0.1,0,150)"/>
</g>
<path style=" stroke:none;fill-rule:nonzero;fill:rgb(100%,0%,0%);fill-opacity:1;" d="M 275.75 62.8125 C 275.75 61.707031 274.855469 60.8125 273.75 60.8125 C 272.644531 60.8125 271.75 61.707031 271.75 62.8125 C 271.75 63.917969 272.644531 64.8125 273.75 64.8125 C 274.855469 64.8125 275.75 63.917969 275.75 62.8125 "/>
<path style="fill:none;stroke-width:10;stroke-linecap:butt;stroke-linejoin:miter;stroke:rgb(0%,0%,0%);stroke-opacity:1;stroke-miterlimit:10;" d="M 2757.5 871.875 C 2757.5 882.929688 2748.554688 891.875 2737.5 891.875 C 2726.445312 891.875 2717.5 882.929688 2717.5 871.875 C 2717.5 860.820312 2726.445312 851.875 2737.5 851.875 C 2748.554688 851.875 2757.5 860.820312 2757.5 871.875 Z M 2757.5 871.875 " transform="matrix(0.1,0,0,-0.1,0,150)"/>
</g>
</svg>
