<?xml version="1.0" encoding="UTF-8"?>
<svg xmlns="http://www.w3.org/2000/svg" xmlns:xlink="http://www.w3.org/1999/xlink" width="184pt" height="183pt" viewBox="0 0 184 183" version="1.1">
<g id="surface1">
<rect x="0" y="0" width="184" height="183" style="fill:rgb(100%,100%,100%);fill-opacity:1;stroke:none;"/>
<path style="fill:none;stroke-width:10;stroke-linecap:round;stroke-linejoin:round;stroke:rgb(75.389099%,75.389099%,75.389099%);stroke-opacity:1;stroke-miterlimit:10;" d="M 68.164062 1972.734375 L 68.164062 -335.9375 " transform="matrix(0.1,0,0,-0.1,0,183)"/>
<path style="fill:none;stroke-width:10;stroke-linecap:round;stroke-linejoin:round;stroke:rgb(75.389099%,75.389099%,75.389099%);stroke-opacity:1;stroke-miterlimit:10;" d="M 351.640625 1972.734375 L 351.640625 -335.9375 " transform="matrix(0.1,0,0,-0.1,0,183)"/>
<path style="fill:none;stroke-width:10;stroke-linecap:round;stroke-linejoin:round;stroke:rgb(75.389099%,75.389099%,75.389099%);stroke-opacity:1;stroke-miterlimit:10;" d="M 635.117188 1972.734375 L 635.117188 -335.9375 " transform="matrix(0.1,0,0,-0.1,0,183)"/>
<path style="fill:none;stroke-width:10;stroke-linecap:round;stroke-linejoin:round;stroke:rgb(75.389099%,75.389099%,75.389099%);stroke-opacity:1;stroke-miterlimit:10;" d="M 1202.03125 1972.734375 L 1202.03125 -335.9375 " transform="matrix(0.1,0,0,-0.1,0,183)"/>
<path style="fill:none;stroke-width:10;stroke-linecap:round;stroke-linejoin:round;stroke:rgb(75.389099%,75.389099%,75.389099%);stroke-opacity:1;stroke-miterlimit:10;" d="M 1485.507812 1972.734375 L 1485.507812 -335.9375 " transform="matrix(0.1,0,0,-0.1,0,183)"/>
<path style="fill:none;stroke-width:10;stroke-linecap:round;stroke-linejoin:round;stroke:rgb(75.389099%,75.389099%,75.389099%);stroke-opacity:1;stroke-miterlimit:10;" d="M 1768.945312 1972.734375 L 1768.945312 -335.9375 " transform="matrix(0.1,0,0,-0.1,0,183)"/>
<path style="fill:none;stroke-width:10;stroke-linecap:round;stroke-linejoin:round;stroke:rgb(94.139099%,94.139099%,94.139099%);stroke-opacity:1;stroke-miterlimit:10;" d="M 11.484375 1972.734375 L 11.484375 -335.9375 " transform="matrix(0.1,0,0,-0.1,0,183)"/>
<path style="fill:none;stroke-width:10;stroke-linecap:round;stroke-linejoin:round;stroke:rgb(94.139099%,94.139099%,94.139099%);stroke-opacity:1;stroke-miterlimit:10;" d="M 124.84375 1972.734375 L 124.84375 -335.9375 " transform="matrix(0.1,0,0,-0.1,0,183)"/>
<path style="fill:none;stroke-width:10;stroke-linecap:round;stroke-linejoin:round;stroke:rgb(94.139099%,94.139099%,94.139099%);stroke-opacity:1;stroke-miterlimit:10;" d="M 181.5625 1972.734375 L 181.5625 -335.9375 " transform="matrix(0.1,0,0,-0.1,0,183)"/>
<path style="fill:none;stroke-width:10;stroke-linecap:round;stroke-linejoin:round;stroke:rgb(94.139099%,94.139099%,94.139099%);stroke-opacity:1;stroke-miterlimit:10;" d="M 238.242188 1972.734375 L 238.242188 -335.9375 " transform="matrix(0.1,0,0,-0.1,0,183)"/>
<path style="fill:none;stroke-width:10;stroke-linecap:round;stroke-linejoin:round;stroke:rgb(94.139099%,94.139099%,94.139099%);stroke-opacity:1;stroke-miterlimit:10;" d="M 294.921875 1972.734375 L 294.921875 -335.9375 " transform="matrix(0.1,0,0,-0.1,0,183)"/>
<path style="fill:none;stroke-width:10;stroke-linecap:round;stroke-linejoin:round;stroke:rgb(94.139099%,94.139099%,94.139099%);stroke-opacity:1;stroke-miterlimit:10;" d="M 408.320312 1972.734375 L 408.320312 -335.9375 " transform="matrix(0.1,0,0,-0.1,0,183)"/>
<path style="fill:none;stroke-width:10;stroke-linecap:round;stroke-linejoin:round;stroke:rgb(94.139099%,94.139099%,94.139099%);stroke-opacity:1;stroke-miterlimit:10;" d="M 465.039062 1972.734375 L 465.039062 -335.9375 " transform="matrix(0.1,0,0,-0.1,0,183)"/>
<path style="fill:none;stroke-width:10;stroke-linecap:round;stroke-linejoin:round;stroke:rgb(94.139099%,94.139099%,94.139099%);stroke-opacity:1;stroke-miterlimit:10;" d="M 521.71875 1972.734375 L 521.71875 -335.9375 " transform="matrix(0.1,0,0,-0.1,0,183)"/>
<path style="fill:none;stroke-width:10;stroke-linecap:round;stroke-linejoin:round;stroke:rgb(94.139099%,94.139099%,94.139099%);stroke-opacity:1;stroke-miterlimit:10;" d="M 578.398438 1972.734375 L 578.398438 -335.9375 " transform="matrix(0.1,0,0,-0.1,0,183)"/>
<path style="fill:none;stroke-width:10;stroke-linecap:round;stroke-linejoin:round;stroke:rgb(94.139099%,94.139099%,94.139099%);stroke-opacity:1;stroke-miterlimit:10;" d="M 691.796875 1972.734375 L 691.796875 -335.9375 " transform="matrix(0.1,0,0,-0.1,0,183)"/>
<path style="fill:none;stroke-width:10;stroke-linecap:round;stroke-linejoin:round;stroke:rgb(94.139099%,94.139099%,94.139099%);stroke-opacity:1;stroke-miterlimit:10;" d="M 748.476562 1972.734375 L 748.476562 -335.9375 " transform="matrix(0.1,0,0,-0.1,0,183)"/>
<path style="fill:none;stroke-width:10;stroke-linecap:round;stroke-linejoin:round;stroke:rgb(94.139099%,94.139099%,94.139099%);stroke-opacity:1;stroke-miterlimit:10;" d="M 805.195312 1972.734375 L 805.195312 -335.9375 " transform="matrix(0.1,0,0,-0.1,0,183)"/>
<path style="fill:none;stroke-width:10;stroke-linecap:round;stroke-linejoin:round;stroke:rgb(94.139099%,94.139099%,94.139099%);stroke-opacity:1;stroke-miterlimit:10;" d="M 861.875 1972.734375 L 861.875 -335.9375 " transform="matrix(0.1,0,0,-0.1,0,183)"/>
<path style="fill:none;stroke-width:10;stroke-linecap:round;stroke-linejoin:round;stroke:rgb(94.139099%,94.139099%,94.139099%);stroke-opacity:1;stroke-miterlimit:10;" d="M 975.273438 1972.734375 L 975.273438 -335.9375 " transform="matrix(0.1,0,0,-0.1,0,183)"/>
<path style="fill:none;stroke-width:10;stroke-linecap:round;stroke-linejoin:round;stroke:rgb(94.139099%,94.139099%,94.139099%);stroke-opacity:1;stroke-miterlimit:10;" d="M 1031.953125 1972.734375 L 1031.953125 -335.9375 " transform="matrix(0.1,0,0,-0.1,0,183)"/>
<path style="fill:none;stroke-width:10;stroke-linecap:round;stroke-linejoin:round;stroke:rgb(94.139099%,94.139099%,94.139099%);stroke-opacity:1;stroke-miterlimit:10;" d="M 1088.632812 1972.734375 L 1088.632812 -335.9375 " transform="matrix(0.1,0,0,-0.1,0,183)"/>
<path style="fill:none;stroke-width:10;stroke-linecap:round;stroke-linejoin:round;stroke:rgb(94.139099%,94.139099%,94.139099%);stroke-opacity:1;stroke-miterlimit:10;" d="M 1145.3125 1972.734375 L 1145.3125 -335.9375 " transform="matrix(0.1,0,0,-0.1,0,183)"/>
<path style="fill:none;stroke-width:10;stroke-linecap:round;stroke-linejoin:round;stroke:rgb(94.139099%,94.139099%,94.139099%);stroke-opacity:1;stroke-miterlimit:10;" d="M 1258.710938 1972.734375 L 1258.710938 -335.9375 " transform="matrix(0.1,0,0,-0.1,0,183)"/>
<path style="fill:none;stroke-width:10;stroke-linecap:round;stroke-linejoin:round;stroke:rgb(94.139099%,94.139099%,94.139099%);stroke-opacity:1;stroke-miterlimit:10;" d="M 1315.390625 1972.734375 L 1315.390625 -335.9375 " transform="matrix(0.1,0,0,-0.1,0,183)"/>
<path style="fill:none;stroke-width:10;stroke-linecap:round;stroke-linejoin:round;stroke:rgb(94.139099%,94.139099%,94.139099%);stroke-opacity:1;stroke-miterlimit:10;" d="M 1372.109375 1972.734375 L 1372.109375 -335.9375 " transform="matrix(0.1,0,0,-0.1,0,183)"/>
<path style="fill:none;stroke-width:10;stroke-linecap:round;stroke-linejoin:round;stroke:rgb(94.139099%,94.139099%,94.139099%);stroke-opacity:1;stroke-miterlimit:10;" d="M 1428.789062 1972.734375 L 1428.789062 -335.9375 " transform="matrix(0.1,0,0,-0.1,0,183)"/>
<path style="fill:none;stroke-width:10;stroke-linecap:round;stroke-linejoin:round;stroke:rgb(94.139099%,94.139099%,94.139099%);stroke-opacity:1;stroke-miterlimit:10;" d="M 1542.1875 1972.734375 L 1542.1875 -335.9375 " transform="matrix(0.1,0,0,-0.1,0,183)"/>
<path style="fill:none;stroke-width:10;stroke-linecap:round;stroke-linejoin:round;stroke:rgb(94.139099%,94.139099%,94.139099%);stroke-opacity:1;stroke-miterlimit:10;" d="M 1598.867188 1972.734375 L 1598.867188 -335.9375 " transform="matrix(0.1,0,0,-0.1,0,183)"/>
<path style="fill:none;stroke-width:10;stroke-linecap:round;stroke-linejoin:round;stroke:rgb(94.139099%,94.139099%,94.139099%);stroke-opacity:1;stroke-miterlimit:10;" d="M 1655.585938 1972.734375 L 1655.585938 -335.9375 " transform="matrix(0.1,0,0,-0.1,0,183)"/>
<path style="fill:none;stroke-width:10;stroke-linecap:round;stroke-linejoin:round;stroke:rgb(94.139099%,94.139099%,94.139099%);stroke-opacity:1;stroke-miterlimit:10;" d="M 1712.265625 1972.734375 L 1712.265625 -335.9375 " transform="matrix(0.1,0,0,-0.1,0,183)"/>
<path style="fill:none;stroke-width:10;stroke-linecap:round;stroke-linejoin:round;stroke:rgb(94.139099%,94.139099%,94.139099%);stroke-opacity:1;stroke-miterlimit:10;" d="M 1825.664062 1972.734375 L 1825.664062 -335.9375 " transform="matrix(0.1,0,0,-0.1,0,183)"/>
<path style="fill:none;stroke-width:10;stroke-linecap:round;stroke-linejoin:round;stroke:rgb(75.389099%,75.389099%,75.389099%);stroke-opacity:1;stroke-miterlimit:10;" d="M -398.710938 1763.359375 L 2692.617188 1763.359375 " transform="matrix(0.1,0,0,-0.1,0,183)"/>
<path style="fill:none;stroke-width:10;stroke-linecap:round;stroke-linejoin:round;stroke:rgb(75.389099%,75.389099%,75.389099%);stroke-opacity:1;stroke-miterlimit:10;" d="M -398.710938 1763.359375 L 2692.617188 1763.359375 " transform="matrix(0.1,0,0,-0.1,0,183)"/>
<path style="fill:none;stroke-width:10;stroke-linecap:round;stroke-linejoin:round;stroke:rgb(75.389099%,75.389099%,75.389099%);stroke-opacity:1;stroke-miterlimit:10;" d="M -398.710938 1479.882812 L 2692.617188 1479.882812 " transform="matrix(0.1,0,0,-0.1,0,183)"/>
<path style="fill:none;stroke-width:10;stroke-linecap:round;stroke-linejoin:round;stroke:rgb(75.389099%,75.389099%,75.389099%);stroke-opacity:1;stroke-miterlimit:10;" d="M -398.710938 1196.445312 L 2692.617188 1196.445312 " transform="matrix(0.1,0,0,-0.1,0,183)"/>
<path style="fill:none;stroke-width:10;stroke-linecap:round;stroke-linejoin:round;stroke:rgb(75.389099%,75.389099%,75.389099%);stroke-opacity:1;stroke-miterlimit:10;" d="M -398.710938 629.492188 L 2692.617188 629.492188 " transform="matrix(0.1,0,0,-0.1,0,183)"/>
<path style="fill:none;stroke-width:10;stroke-linecap:round;stroke-linejoin:round;stroke:rgb(75.389099%,75.389099%,75.389099%);stroke-opacity:1;stroke-miterlimit:10;" d="M -398.710938 346.054688 L 2692.617188 346.054688 " transform="matrix(0.1,0,0,-0.1,0,183)"/>
<path style="fill:none;stroke-width:10;stroke-linecap:round;stroke-linejoin:round;stroke:rgb(75.389099%,75.389099%,75.389099%);stroke-opacity:1;stroke-miterlimit:10;" d="M -398.710938 62.578125 L 2692.617188 62.578125 " transform="matrix(0.1,0,0,-0.1,0,183)"/>
<path style="fill:none;stroke-width:10;stroke-linecap:round;stroke-linejoin:round;stroke:rgb(94.139099%,94.139099%,94.139099%);stroke-opacity:1;stroke-miterlimit:10;" d="M -398.710938 1820.078125 L 2692.617188 1820.078125 " transform="matrix(0.1,0,0,-0.1,0,183)"/>
<path style="fill:none;stroke-width:10;stroke-linecap:round;stroke-linejoin:round;stroke:rgb(94.139099%,94.139099%,94.139099%);stroke-opacity:1;stroke-miterlimit:10;" d="M -398.710938 1706.679688 L 2692.617188 1706.679688 " transform="matrix(0.1,0,0,-0.1,0,183)"/>
<path style="fill:none;stroke-width:10;stroke-linecap:round;stroke-linejoin:round;stroke:rgb(94.139099%,94.139099%,94.139099%);stroke-opacity:1;stroke-miterlimit:10;" d="M -398.710938 1649.960938 L 2692.617188 1649.960938 " transform="matrix(0.1,0,0,-0.1,0,183)"/>
<path style="fill:none;stroke-width:10;stroke-linecap:round;stroke-linejoin:round;stroke:rgb(94.139099%,94.139099%,94.139099%);stroke-opacity:1;stroke-miterlimit:10;" d="M -398.710938 1593.28125 L 2692.617188 1593.28125 " transform="matrix(0.1,0,0,-0.1,0,183)"/>
<path style="fill:none;stroke-width:10;stroke-linecap:round;stroke-linejoin:round;stroke:rgb(94.139099%,94.139099%,94.139099%);stroke-opacity:1;stroke-miterlimit:10;" d="M -398.710938 1536.601562 L 2692.617188 1536.601562 " transform="matrix(0.1,0,0,-0.1,0,183)"/>
<path style="fill:none;stroke-width:10;stroke-linecap:round;stroke-linejoin:round;stroke:rgb(94.139099%,94.139099%,94.139099%);stroke-opacity:1;stroke-miterlimit:10;" d="M -398.710938 1423.203125 L 2692.617188 1423.203125 " transform="matrix(0.1,0,0,-0.1,0,183)"/>
<path style="fill:none;stroke-width:10;stroke-linecap:round;stroke-linejoin:round;stroke:rgb(94.139099%,94.139099%,94.139099%);stroke-opacity:1;stroke-miterlimit:10;" d="M -398.710938 1366.523438 L 2692.617188 1366.523438 " transform="matrix(0.1,0,0,-0.1,0,183)"/>
<path style="fill:none;stroke-width:10;stroke-linecap:round;stroke-linejoin:round;stroke:rgb(94.139099%,94.139099%,94.139099%);stroke-opacity:1;stroke-miterlimit:10;" d="M -398.710938 1309.804688 L 2692.617188 1309.804688 " transform="matrix(0.1,0,0,-0.1,0,183)"/>
<path style="fill:none;stroke-width:10;stroke-linecap:round;stroke-linejoin:round;stroke:rgb(94.139099%,94.139099%,94.139099%);stroke-opacity:1;stroke-miterlimit:10;" d="M -398.710938 1253.125 L 2692.617188 1253.125 " transform="matrix(0.1,0,0,-0.1,0,183)"/>
<path style="fill:none;stroke-width:10;stroke-linecap:round;stroke-linejoin:round;stroke:rgb(94.139099%,94.139099%,94.139099%);stroke-opacity:1;stroke-miterlimit:10;" d="M -398.710938 1139.765625 L 2692.617188 1139.765625 " transform="matrix(0.1,0,0,-0.1,0,183)"/>
<path style="fill:none;stroke-width:10;stroke-linecap:round;stroke-linejoin:round;stroke:rgb(94.139099%,94.139099%,94.139099%);stroke-opacity:1;stroke-miterlimit:10;" d="M -398.710938 1083.046875 L 2692.617188 1083.046875 " transform="matrix(0.1,0,0,-0.1,0,183)"/>
<path style="fill:none;stroke-width:10;stroke-linecap:round;stroke-linejoin:round;stroke:rgb(94.139099%,94.139099%,94.139099%);stroke-opacity:1;stroke-miterlimit:10;" d="M -398.710938 1026.367188 L 2692.617188 1026.367188 " transform="matrix(0.1,0,0,-0.1,0,183)"/>
<path style="fill:none;stroke-width:10;stroke-linecap:round;stroke-linejoin:round;stroke:rgb(94.139099%,94.139099%,94.139099%);stroke-opacity:1;stroke-miterlimit:10;" d="M -398.710938 969.6875 L 2692.617188 969.6875 " transform="matrix(0.1,0,0,-0.1,0,183)"/>
<path style="fill:none;stroke-width:10;stroke-linecap:round;stroke-linejoin:round;stroke:rgb(94.139099%,94.139099%,94.139099%);stroke-opacity:1;stroke-miterlimit:10;" d="M -398.710938 856.289062 L 2692.617188 856.289062 " transform="matrix(0.1,0,0,-0.1,0,183)"/>
<path style="fill:none;stroke-width:10;stroke-linecap:round;stroke-linejoin:round;stroke:rgb(94.139099%,94.139099%,94.139099%);stroke-opacity:1;stroke-miterlimit:10;" d="M -398.710938 799.609375 L 2692.617188 799.609375 " transform="matrix(0.1,0,0,-0.1,0,183)"/>
<path style="fill:none;stroke-width:10;stroke-linecap:round;stroke-linejoin:round;stroke:rgb(94.139099%,94.139099%,94.139099%);stroke-opacity:1;stroke-miterlimit:10;" d="M -398.710938 742.890625 L 2692.617188 742.890625 " transform="matrix(0.1,0,0,-0.1,0,183)"/>
<path style="fill:none;stroke-width:10;stroke-linecap:round;stroke-linejoin:round;stroke:rgb(94.139099%,94.139099%,94.139099%);stroke-opacity:1;stroke-miterlimit:10;" d="M -398.710938 686.210938 L 2692.617188 686.210938 " transform="matrix(0.1,0,0,-0.1,0,183)"/>
<path style="fill:none;stroke-width:10;stroke-linecap:round;stroke-linejoin:round;stroke:rgb(94.139099%,94.139099%,94.139099%);stroke-opacity:1;stroke-miterlimit:10;" d="M -398.710938 572.8125 L 2692.617188 572.8125 " transform="matrix(0.1,0,0,-0.1,0,183)"/>
<path style="fill:none;stroke-width:10;stroke-linecap:round;stroke-linejoin:round;stroke:rgb(94.139099%,94.139099%,94.139099%);stroke-opacity:1;stroke-miterlimit:10;" d="M -398.710938 516.132812 L 2692.617188 516.132812 " transform="matrix(0.1,0,0,-0.1,0,183)"/>
<path style="fill:none;stroke-width:10;stroke-linecap:round;stroke-linejoin:round;stroke:rgb(94.139099%,94.139099%,94.139099%);stroke-opacity:1;stroke-miterlimit:10;" d="M -398.710938 459.414062 L 2692.617188 459.414062 " transform="matrix(0.1,0,0,-0.1,0,183)"/>
<path style="fill:none;stroke-width:10;stroke-linecap:round;stroke-linejoin:round;stroke:rgb(94.139099%,94.139099%,94.139099%);stroke-opacity:1;stroke-miterlimit:10;" d="M -398.710938 402.734375 L 2692.617188 402.734375 " transform="matrix(0.1,0,0,-0.1,0,183)"/>
<path style="fill:none;stroke-width:10;stroke-linecap:round;stroke-linejoin:round;stroke:rgb(94.139099%,94.139099%,94.139099%);stroke-opacity:1;stroke-miterlimit:10;" d="M -398.710938 289.335938 L 2692.617188 289.335938 " transform="matrix(0.1,0,0,-0.1,0,183)"/>
<path style="fill:none;stroke-width:10;stroke-linecap:round;stroke-linejoin:round;stroke:rgb(94.139099%,94.139099%,94.139099%);stroke-opacity:1;stroke-miterlimit:10;" d="M -398.710938 232.65625 L 2692.617188 232.65625 " transform="matrix(0.1,0,0,-0.1,0,183)"/>
<path style="fill:none;stroke-width:10;stroke-linecap:round;stroke-linejoin:round;stroke:rgb(94.139099%,94.139099%,94.139099%);stroke-opacity:1;stroke-miterlimit:10;" d="M -398.710938 175.976562 L 2692.617188 175.976562 " transform="matrix(0.1,0,0,-0.1,0,183)"/>
<path style="fill:none;stroke-width:10;stroke-linecap:round;stroke-linejoin:round;stroke:rgb(94.139099%,94.139099%,94.139099%);stroke-opacity:1;stroke-miterlimit:10;" d="M -398.710938 119.257812 L 2692.617188 119.257812 " transform="matrix(0.1,0,0,-0.1,0,183)"/>
<path style="fill:none;stroke-width:10;stroke-linecap:round;stroke-linejoin:round;stroke:rgb(94.139099%,94.139099%,94.139099%);stroke-opacity:1;stroke-miterlimit:10;" d="M -398.710938 5.898438 L 2692.617188 5.898438 " transform="matrix(0.1,0,0,-0.1,0,183)"/>
<path style="fill:none;stroke-width:10;stroke-linecap:butt;stroke-linejoin:miter;stroke:rgb(0%,0%,0%);stroke-opacity:1;stroke-miterlimit:10;" d="M 918.554688 1962.890625 L 918.554688 -335.9375 " transform="matrix(0.1,0,0,-0.1,0,183)"/>
<path style="fill:none;stroke-width:10;stroke-linecap:butt;stroke-linejoin:miter;stroke:rgb(0%,0%,0%);stroke-opacity:1;stroke-miterlimit:10;" d="M -398.710938 912.96875 L 2682.773438 912.96875 " transform="matrix(0.1,0,0,-0.1,0,183)"/>
<path style=" stroke:none;fill-rule:nonzero;fill:rgb(0%,0%,0%);fill-opacity:1;" d="M 4.242188 97.867188 L 4.242188 97.476562 L 6.589844 97.476562 L 6.589844 97.867188 Z M 7.492188 99.402344 L 7.492188 98.871094 C 7.898438 99.035156 8.21875 99.113281 8.453125 99.113281 C 8.726562 99.113281 8.945312 99.035156 9.117188 98.878906 C 9.289062 98.71875 9.371094 98.511719 9.371094 98.261719 C 9.371094 97.660156 8.953125 97.359375 8.113281 97.359375 L 7.886719 97.359375 L 7.886719 96.976562 L 8.085938 96.976562 C 8.875 96.976562 9.269531 96.699219 9.269531 96.140625 C 9.269531 95.707031 9.007812 95.488281 8.488281 95.488281 C 8.203125 95.488281 7.890625 95.566406 7.550781 95.726562 L 7.550781 95.230469 C 7.886719 95.117188 8.210938 95.058594 8.53125 95.058594 C 9.402344 95.058594 9.839844 95.390625 9.839844 96.050781 C 9.839844 96.550781 9.542969 96.910156 8.949219 97.121094 C 9.636719 97.28125 9.980469 97.660156 9.980469 98.253906 C 9.980469 98.65625 9.847656 98.96875 9.582031 99.199219 C 9.316406 99.425781 8.953125 99.542969 8.488281 99.542969 C 8.226562 99.542969 7.894531 99.496094 7.492188 99.402344 "/>
<path style=" stroke:none;fill-rule:nonzero;fill:rgb(0%,0%,0%);fill-opacity:1;" d="M 32.792969 97.867188 L 32.792969 97.476562 L 35.140625 97.476562 L 35.140625 97.867188 Z M 35.933594 99.433594 L 35.933594 98.9375 C 36.097656 98.550781 36.433594 98.128906 36.9375 97.671875 L 37.261719 97.382812 C 37.679688 97.003906 37.890625 96.628906 37.890625 96.253906 C 37.890625 96.015625 37.820312 95.828125 37.675781 95.691406 C 37.53125 95.554688 37.335938 95.488281 37.085938 95.488281 C 36.789062 95.488281 36.441406 95.601562 36.039062 95.832031 L 36.039062 95.328125 C 36.417969 95.148438 36.792969 95.058594 37.167969 95.058594 C 37.566406 95.058594 37.886719 95.167969 38.128906 95.382812 C 38.371094 95.597656 38.492188 95.882812 38.492188 96.238281 C 38.492188 96.496094 38.433594 96.722656 38.308594 96.921875 C 38.1875 97.117188 37.960938 97.359375 37.628906 97.640625 L 37.410156 97.828125 C 36.953125 98.214844 36.691406 98.585938 36.617188 98.9375 L 38.472656 98.9375 L 38.472656 99.433594 "/>
<path style=" stroke:none;fill-rule:nonzero;fill:rgb(0%,0%,0%);fill-opacity:1;" d="M 61.34375 97.867188 L 61.34375 97.476562 L 63.691406 97.476562 L 63.691406 97.867188 Z M 64.882812 99.433594 L 64.882812 99.007812 L 65.734375 99.007812 L 65.734375 95.640625 L 64.882812 95.851562 L 64.882812 95.414062 L 66.304688 95.058594 L 66.304688 99.007812 L 67.160156 99.007812 L 67.160156 99.433594 "/>
<path style=" stroke:none;fill-rule:nonzero;fill:rgb(0%,0%,0%);fill-opacity:1;" d="M 120.015625 99.433594 L 120.015625 99.007812 L 120.867188 99.007812 L 120.867188 95.640625 L 120.015625 95.851562 L 120.015625 95.414062 L 121.4375 95.058594 L 121.4375 99.007812 L 122.292969 99.007812 L 122.292969 99.433594 "/>
<path style=" stroke:none;fill-rule:nonzero;fill:rgb(0%,0%,0%);fill-opacity:1;" d="M 147.675781 99.433594 L 147.675781 98.9375 C 147.839844 98.550781 148.175781 98.128906 148.679688 97.671875 L 149.003906 97.382812 C 149.421875 97.003906 149.632812 96.628906 149.632812 96.253906 C 149.632812 96.015625 149.5625 95.828125 149.417969 95.691406 C 149.273438 95.554688 149.078125 95.488281 148.828125 95.488281 C 148.53125 95.488281 148.183594 95.601562 147.78125 95.832031 L 147.78125 95.328125 C 148.160156 95.148438 148.535156 95.058594 148.910156 95.058594 C 149.308594 95.058594 149.628906 95.167969 149.871094 95.382812 C 150.113281 95.597656 150.234375 95.882812 150.234375 96.238281 C 150.234375 96.496094 150.175781 96.722656 150.050781 96.921875 C 149.929688 97.117188 149.703125 97.359375 149.371094 97.640625 L 149.152344 97.828125 C 148.695312 98.214844 148.433594 98.585938 148.359375 98.9375 L 150.214844 98.9375 L 150.214844 99.433594 "/>
<path style=" stroke:none;fill-rule:nonzero;fill:rgb(0%,0%,0%);fill-opacity:1;" d="M 176.335938 99.402344 L 176.335938 98.871094 C 176.742188 99.035156 177.0625 99.113281 177.296875 99.113281 C 177.570312 99.113281 177.789062 99.035156 177.960938 98.878906 C 178.128906 98.71875 178.214844 98.511719 178.214844 98.261719 C 178.214844 97.660156 177.796875 97.359375 176.953125 97.359375 L 176.730469 97.359375 L 176.730469 96.976562 L 176.929688 96.976562 C 177.71875 96.976562 178.109375 96.699219 178.109375 96.140625 C 178.109375 95.707031 177.851562 95.488281 177.332031 95.488281 C 177.046875 95.488281 176.734375 95.566406 176.390625 95.726562 L 176.390625 95.230469 C 176.730469 95.117188 177.054688 95.058594 177.371094 95.058594 C 178.246094 95.058594 178.683594 95.390625 178.683594 96.050781 C 178.683594 96.550781 178.386719 96.910156 177.789062 97.121094 C 178.480469 97.28125 178.824219 97.660156 178.824219 98.253906 C 178.824219 98.65625 178.691406 98.96875 178.425781 99.199219 C 178.160156 99.425781 177.796875 99.542969 177.332031 99.542969 C 177.070312 99.542969 176.734375 99.496094 176.335938 99.402344 "/>
<path style=" stroke:none;fill-rule:nonzero;fill:rgb(0%,0%,0%);fill-opacity:1;" d="M 81.523438 177.613281 L 81.523438 177.222656 L 83.871094 177.222656 L 83.871094 177.613281 Z M 84.777344 179.148438 L 84.777344 178.617188 C 85.183594 178.78125 85.503906 178.859375 85.738281 178.859375 C 86.011719 178.859375 86.230469 178.78125 86.402344 178.621094 C 86.570312 178.464844 86.65625 178.257812 86.65625 178.007812 C 86.65625 177.40625 86.234375 177.105469 85.394531 177.105469 L 85.171875 177.105469 L 85.171875 176.722656 L 85.371094 176.71875 C 86.15625 176.71875 86.550781 176.441406 86.550781 175.886719 C 86.550781 175.449219 86.292969 175.230469 85.773438 175.230469 C 85.488281 175.230469 85.175781 175.3125 84.832031 175.472656 L 84.832031 174.976562 C 85.167969 174.863281 85.496094 174.804688 85.8125 174.804688 C 86.6875 174.804688 87.121094 175.136719 87.121094 175.792969 C 87.121094 176.296875 86.828125 176.652344 86.230469 176.867188 C 86.921875 177.027344 87.265625 177.402344 87.265625 178 C 87.265625 178.398438 87.132812 178.714844 86.867188 178.945312 C 86.601562 179.171875 86.238281 179.289062 85.773438 179.289062 C 85.511719 179.289062 85.175781 179.242188 84.777344 179.148438 "/>
<path style=" stroke:none;fill-rule:nonzero;fill:rgb(0%,0%,0%);fill-opacity:1;" d="M 81.523438 149.0625 L 81.523438 148.671875 L 83.871094 148.671875 L 83.871094 149.0625 Z M 84.664062 150.628906 L 84.664062 150.132812 C 84.832031 149.742188 85.164062 149.324219 85.667969 148.867188 L 85.996094 148.578125 C 86.414062 148.199219 86.625 147.820312 86.625 147.449219 C 86.625 147.210938 86.550781 147.023438 86.410156 146.886719 C 86.265625 146.75 86.070312 146.679688 85.820312 146.679688 C 85.523438 146.679688 85.175781 146.796875 84.773438 147.023438 L 84.773438 146.523438 C 85.152344 146.34375 85.527344 146.253906 85.902344 146.253906 C 86.300781 146.253906 86.621094 146.363281 86.863281 146.578125 C 87.105469 146.792969 87.226562 147.078125 87.226562 147.433594 C 87.226562 147.691406 87.164062 147.917969 87.042969 148.113281 C 86.921875 148.3125 86.695312 148.554688 86.363281 148.835938 L 86.144531 149.023438 C 85.6875 149.410156 85.421875 149.777344 85.351562 150.132812 L 87.207031 150.132812 L 87.207031 150.628906 "/>
<path style=" stroke:none;fill-rule:nonzero;fill:rgb(0%,0%,0%);fill-opacity:1;" d="M 81.523438 120.511719 L 81.523438 120.121094 L 83.871094 120.121094 L 83.871094 120.511719 Z M 85.0625 122.078125 L 85.0625 121.652344 L 85.917969 121.652344 L 85.917969 118.28125 L 85.0625 118.496094 L 85.0625 118.058594 L 86.488281 117.703125 L 86.488281 121.652344 L 87.34375 121.652344 L 87.34375 122.078125 "/>
<path style=" stroke:none;fill-rule:nonzero;fill:rgb(0%,0%,0%);fill-opacity:1;" d="M 85.0625 65.46875 L 85.0625 65.042969 L 85.917969 65.042969 L 85.917969 61.675781 L 85.0625 61.886719 L 85.0625 61.449219 L 86.488281 61.09375 L 86.488281 65.042969 L 87.34375 65.042969 L 87.34375 65.46875 "/>
<path style=" stroke:none;fill-rule:nonzero;fill:rgb(0%,0%,0%);fill-opacity:1;" d="M 84.664062 37.410156 L 84.664062 36.910156 C 84.832031 36.527344 85.164062 36.105469 85.667969 35.648438 L 85.996094 35.359375 C 86.414062 34.980469 86.625 34.601562 86.625 34.230469 C 86.625 33.992188 86.550781 33.804688 86.410156 33.667969 C 86.265625 33.53125 86.070312 33.460938 85.820312 33.460938 C 85.523438 33.460938 85.175781 33.578125 84.773438 33.804688 L 84.773438 33.304688 C 85.152344 33.125 85.527344 33.035156 85.902344 33.035156 C 86.300781 33.035156 86.621094 33.144531 86.863281 33.359375 C 87.105469 33.574219 87.226562 33.859375 87.226562 34.214844 C 87.226562 34.472656 87.164062 34.699219 87.042969 34.894531 C 86.921875 35.09375 86.695312 35.335938 86.363281 35.617188 L 86.144531 35.804688 C 85.6875 36.191406 85.421875 36.5625 85.351562 36.910156 L 87.207031 36.910156 L 87.207031 37.410156 "/>
<path style=" stroke:none;fill-rule:nonzero;fill:rgb(0%,0%,0%);fill-opacity:1;" d="M 84.777344 8.828125 L 84.777344 8.296875 C 85.183594 8.460938 85.503906 8.539062 85.738281 8.539062 C 86.011719 8.539062 86.230469 8.460938 86.402344 8.300781 C 86.570312 8.144531 86.65625 7.9375 86.65625 7.6875 C 86.65625 7.085938 86.234375 6.785156 85.394531 6.785156 L 85.171875 6.785156 L 85.171875 6.402344 L 85.371094 6.398438 C 86.15625 6.398438 86.550781 6.121094 86.550781 5.566406 C 86.550781 5.128906 86.292969 4.910156 85.773438 4.910156 C 85.488281 4.910156 85.175781 4.992188 84.832031 5.152344 L 84.832031 4.65625 C 85.167969 4.542969 85.496094 4.484375 85.8125 4.484375 C 86.6875 4.484375 87.121094 4.816406 87.121094 5.472656 C 87.121094 5.976562 86.828125 6.335938 86.230469 6.546875 C 86.921875 6.707031 87.265625 7.085938 87.265625 7.679688 C 87.265625 8.078125 87.132812 8.394531 86.867188 8.625 C 86.601562 8.851562 86.238281 8.96875 85.773438 8.96875 C 85.511719 8.96875 85.175781 8.921875 84.777344 8.828125 "/>
<path style=" stroke:none;fill-rule:nonzero;fill:rgb(0%,0%,0%);fill-opacity:1;" d="M 86.027344 99.542969 C 85.585938 99.542969 85.230469 99.335938 84.957031 98.921875 C 84.6875 98.507812 84.550781 97.964844 84.550781 97.296875 C 84.550781 96.625 84.6875 96.082031 84.960938 95.675781 C 85.234375 95.265625 85.597656 95.058594 86.042969 95.058594 C 86.492188 95.058594 86.851562 95.265625 87.128906 95.675781 C 87.402344 96.082031 87.539062 96.621094 87.539062 97.289062 C 87.539062 97.972656 87.402344 98.519531 87.128906 98.929688 C 86.851562 99.339844 86.488281 99.542969 86.027344 99.542969 Z M 86.03125 99.113281 C 86.636719 99.113281 86.933594 98.503906 86.933594 97.28125 C 86.933594 96.085938 86.640625 95.488281 86.042969 95.488281 C 85.453125 95.488281 85.15625 96.089844 85.15625 97.296875 C 85.15625 98.507812 85.449219 99.113281 86.03125 99.113281 "/>
<path style="fill:none;stroke-width:25;stroke-linecap:round;stroke-linejoin:round;stroke:rgb(30.200195%,57.617188%,30.200195%);stroke-opacity:1;stroke-miterlimit:10;" d="M -18.359375 -366.40625 L -12.304688 -341.835938 L -0.234375 -293.632812 L 11.835938 -246.679688 L 23.90625 -200.9375 L 36.015625 -156.445312 L 48.085938 -113.164062 L 60.15625 -71.054688 L 72.226562 -30.117188 L 84.296875 9.6875 L 96.367188 48.359375 L 108.4375 85.898438 L 120.507812 122.34375 L 132.617188 157.695312 L 144.6875 191.953125 L 156.757812 225.195312 L 168.828125 257.382812 L 180.898438 288.554688 L 192.96875 318.710938 L 205.039062 347.890625 L 217.148438 376.09375 L 229.21875 403.359375 L 241.289062 429.6875 L 253.359375 455.078125 L 277.5 503.164062 L 301.640625 547.734375 L 325.820312 588.984375 L 349.960938 626.992188 L 374.101562 661.914062 L 398.28125 693.867188 L 422.421875 722.96875 L 446.5625 749.414062 L 470.703125 773.242188 L 494.882812 794.648438 L 519.023438 813.75 L 543.164062 830.664062 L 567.304688 845.546875 L 591.484375 858.515625 L 615.625 869.726562 L 639.765625 879.257812 L 663.945312 887.304688 L 688.085938 893.945312 L 712.226562 899.296875 L 736.367188 903.554688 L 760.546875 906.835938 L 784.6875 909.257812 L 808.828125 910.9375 L 832.96875 911.992188 L 857.148438 912.617188 L 881.289062 912.890625 L 905.429688 912.96875 L 929.609375 912.96875 L 953.75 913.046875 L 977.890625 913.28125 L 1002.03125 913.867188 L 1026.210938 914.921875 L 1050.351562 916.523438 L 1074.492188 918.867188 L 1098.632812 922.070312 L 1122.8125 926.210938 L 1146.953125 931.523438 L 1171.09375 938.046875 L 1195.234375 945.9375 L 1219.414062 955.3125 L 1243.554688 966.367188 L 1267.695312 979.179688 L 1291.875 993.90625 L 1316.015625 1010.625 L 1340.15625 1029.53125 L 1364.296875 1050.742188 L 1388.476562 1074.375 L 1412.617188 1100.585938 L 1436.757812 1129.453125 L 1460.9375 1161.132812 L 1485.078125 1195.78125 L 1509.21875 1233.554688 L 1533.359375 1274.492188 L 1557.539062 1318.789062 L 1581.679688 1366.5625 L 1593.75 1391.796875 L 1605.820312 1417.96875 L 1617.890625 1445.039062 L 1629.960938 1473.085938 L 1642.03125 1502.109375 L 1654.140625 1532.109375 L 1666.210938 1563.085938 L 1678.28125 1595.117188 L 1690.351562 1628.164062 L 1702.421875 1662.265625 L 1714.492188 1697.421875 L 1726.5625 1733.671875 L 1738.671875 1771.015625 L 1750.742188 1809.453125 L 1762.8125 1849.0625 L 1774.882812 1889.804688 L 1786.953125 1931.71875 L 1799.023438 1974.804688 L 1811.09375 2019.101562 " transform="matrix(0.1,0,0,-0.1,0,183)"/>
</g>
</svg>
