<?xml version="1.0" encoding="UTF-8"?>
<svg xmlns="http://www.w3.org/2000/svg" xmlns:xlink="http://www.w3.org/1999/xlink" width="450pt" height="150pt" viewBox="0 0 450 150" version="1.1">
<defs>
<clipPath id="clip1">
  <path d="M 29 10 L 140 10 L 140 118 L 29 118 Z M 29 10 "/>
</clipPath>
<clipPath id="clip2">
  <path d="M 179 12 L 290 12 L 290 117 L 179 117 Z M 179 12 "/>
</clipPath>
<clipPath id="clip3">
  <path d="M 329 11 L 440 11 L 440 113 L 329 113 Z M 329 11 "/>
</clipPath>
</defs>
<g id="surface1">
<path style="fill:none;stroke-width:5;stroke-linecap:butt;stroke-linejoin:miter;stroke:rgb(80.076599%,80.076599%,80.076599%);stroke-opacity:1;stroke-miterlimit:10;" d="M 100 100 L 100 1400 M 425 100 L 425 1400 M 750 100 L 750 1400 M 1075 100 L 1075 1400 M 1400 100 L 1400 1400 M 100 100 L 1400 100 M 100 425 L 1400 425 M 100 750 L 1400 750 M 100 1075 L 1400 1075 M 100 1400 L 1400 1400 " transform="matrix(0.1,0,0,-0.1,0,150)"/>
<path style="fill:none;stroke-width:10;stroke-linecap:butt;stroke-linejoin:miter;stroke:rgb(0%,0%,0%);stroke-opacity:1;stroke-miterlimit:10;" d="M 100 425 L 1400 425 M 425 100 L 425 1400 " transform="matrix(0.1,0,0,-0.1,0,150)"/>
<g clip-path="url(#clip1)" clip-rule="nonzero">
<path style="fill:none;stroke-width:15;stroke-linecap:butt;stroke-linejoin:miter;stroke:rgb(0%,0%,100%);stroke-opacity:1;stroke-miterlimit:10;" d="M 506.25 538.90625 L 514.375 540.742188 L 530.625 544.570312 L 538.75 546.5625 L 546.875 548.59375 L 555 550.664062 L 563.125 552.773438 L 571.25 554.960938 L 579.375 557.1875 L 587.5 559.453125 L 595.625 561.757812 L 603.75 564.140625 L 611.875 566.5625 L 620 569.023438 L 628.125 571.5625 L 636.25 574.179688 L 644.375 576.835938 L 652.5 579.53125 L 660.625 582.304688 L 668.75 585.15625 L 676.875 588.046875 L 693.125 594.0625 L 701.25 597.1875 L 709.375 600.351562 L 717.5 603.59375 L 725.625 606.953125 L 733.75 610.351562 L 741.875 613.828125 L 750 617.382812 L 758.125 621.015625 L 766.25 624.726562 L 774.375 628.554688 L 782.5 632.421875 L 790.625 636.40625 L 798.75 640.46875 L 806.875 644.648438 L 815 648.90625 L 823.125 653.242188 L 831.25 657.734375 L 839.375 662.265625 L 847.5 666.914062 L 855.625 671.679688 L 863.75 676.5625 L 871.875 681.5625 L 880 686.640625 L 888.125 691.875 L 896.25 697.1875 L 904.375 702.65625 L 912.5 708.242188 L 920.625 713.945312 L 928.75 719.765625 L 936.875 725.742188 L 945 731.835938 L 953.125 738.085938 L 961.25 744.492188 L 969.375 751.015625 L 977.5 757.695312 L 985.625 764.53125 L 993.75 771.484375 L 1001.875 778.632812 L 1010 785.9375 L 1018.125 793.4375 L 1026.25 801.054688 L 1034.375 808.90625 L 1042.5 816.875 L 1050.625 825.078125 L 1058.75 833.4375 L 1066.875 841.992188 L 1075 850.742188 L 1083.125 859.6875 L 1091.25 868.828125 L 1099.375 878.203125 L 1107.5 887.773438 L 1115.625 897.539062 L 1123.75 907.578125 L 1131.875 917.8125 L 1140 928.28125 L 1148.125 938.984375 L 1156.25 949.960938 L 1164.375 961.132812 L 1172.5 972.617188 L 1180.625 984.335938 L 1188.75 996.328125 L 1196.875 1008.59375 L 1205 1021.132812 L 1213.125 1033.945312 L 1221.25 1047.070312 L 1229.375 1060.46875 L 1237.5 1074.21875 L 1245.625 1088.242188 L 1253.75 1102.578125 L 1261.875 1117.265625 L 1270 1132.265625 L 1278.125 1147.65625 L 1286.25 1163.359375 L 1294.375 1179.414062 L 1302.5 1195.820312 L 1310.625 1212.617188 L 1318.75 1229.804688 " transform="matrix(0.1,0,0,-0.1,0,150)"/>
</g>
<path style="fill:none;stroke-width:5;stroke-linecap:butt;stroke-linejoin:miter;stroke:rgb(80.076599%,80.076599%,80.076599%);stroke-opacity:1;stroke-miterlimit:10;" d="M 1600 100 L 1600 1400 M 1925 100 L 1925 1400 M 2250 100 L 2250 1400 M 2575 100 L 2575 1400 M 2900 100 L 2900 1400 M 1600 100 L 2900 100 M 1600 425 L 2900 425 M 1600 750 L 2900 750 M 1600 1075 L 2900 1075 M 1600 1400 L 2900 1400 " transform="matrix(0.1,0,0,-0.1,0,150)"/>
<path style="fill:none;stroke-width:10;stroke-linecap:butt;stroke-linejoin:miter;stroke:rgb(0%,0%,0%);stroke-opacity:1;stroke-miterlimit:10;" d="M 1600 425 L 2900 425 M 1925 100 L 1925 1400 " transform="matrix(0.1,0,0,-0.1,0,150)"/>
<g clip-path="url(#clip2)" clip-rule="nonzero">
<path style="fill:none;stroke-width:15;stroke-linecap:butt;stroke-linejoin:miter;stroke:rgb(0%,0%,100%);stroke-opacity:1;stroke-miterlimit:10;" d="M 2006.25 550.9375 L 2818.75 1160.3125 " transform="matrix(0.1,0,0,-0.1,0,150)"/>
</g>
<path style="fill:none;stroke-width:5;stroke-linecap:butt;stroke-linejoin:miter;stroke:rgb(80.076599%,80.076599%,80.076599%);stroke-opacity:1;stroke-miterlimit:10;" d="M 3100 100 L 3100 1400 M 3425 100 L 3425 1400 M 3750 100 L 3750 1400 M 4075 100 L 4075 1400 M 4400 100 L 4400 1400 M 3100 100 L 4400 100 M 3100 425 L 4400 425 M 3100 750 L 4400 750 M 3100 1075 L 4400 1075 M 3100 1400 L 4400 1400 " transform="matrix(0.1,0,0,-0.1,0,150)"/>
<path style="fill:none;stroke-width:10;stroke-linecap:butt;stroke-linejoin:miter;stroke:rgb(0%,0%,0%);stroke-opacity:1;stroke-miterlimit:10;" d="M 3100 425 L 4400 425 M 3425 100 L 3425 1400 " transform="matrix(0.1,0,0,-0.1,0,150)"/>
<g clip-path="url(#clip3)" clip-rule="nonzero">
<path style="fill:none;stroke-width:15;stroke-linecap:butt;stroke-linejoin:miter;stroke:rgb(0%,0%,100%);stroke-opacity:1;stroke-miterlimit:10;" d="M 3506.25 588.710938 L 3514.375 603.125 L 3522.5 617.265625 L 3530.625 631.054688 L 3538.75 644.53125 L 3546.875 657.734375 L 3555 670.625 L 3563.125 683.242188 L 3571.25 695.585938 L 3579.375 707.65625 L 3587.5 719.414062 L 3595.625 730.9375 L 3603.75 742.226562 L 3611.875 753.242188 L 3620 764.023438 L 3628.125 774.570312 L 3636.25 784.84375 L 3644.375 794.921875 L 3652.5 804.765625 L 3660.625 814.414062 L 3668.75 823.828125 L 3676.875 833.007812 L 3685 842.03125 L 3693.125 850.820312 L 3701.25 859.414062 L 3709.375 867.8125 L 3717.5 876.054688 L 3725.625 884.101562 L 3733.75 891.953125 L 3741.875 899.648438 L 3750 907.148438 L 3758.125 914.53125 L 3766.25 921.679688 L 3774.375 928.710938 L 3782.5 935.585938 L 3790.625 942.304688 L 3798.75 948.867188 L 3806.875 955.3125 L 3815 961.5625 L 3823.125 967.734375 L 3831.25 973.710938 L 3839.375 979.609375 L 3847.5 985.3125 L 3855.625 990.9375 L 3863.75 996.40625 L 3871.875 1001.796875 L 3880 1007.03125 L 3888.125 1012.148438 L 3896.25 1017.1875 L 3904.375 1022.070312 L 3912.5 1026.875 L 3920.625 1031.5625 L 3928.75 1036.132812 L 3936.875 1040.625 L 3945 1045 L 3953.125 1049.296875 L 3961.25 1053.476562 L 3969.375 1057.578125 L 3977.5 1061.5625 L 3985.625 1065.46875 L 3993.75 1069.296875 L 4001.875 1073.046875 L 4010 1076.71875 L 4018.125 1080.273438 L 4026.25 1083.789062 L 4034.375 1087.1875 L 4042.5 1090.546875 L 4050.625 1093.828125 L 4066.875 1100.15625 L 4075 1103.203125 L 4083.125 1106.171875 L 4091.25 1109.101562 L 4099.375 1111.953125 L 4107.5 1114.765625 L 4123.75 1120.15625 L 4131.875 1122.773438 L 4140 1125.3125 L 4148.125 1127.8125 L 4164.375 1132.65625 L 4180.625 1137.265625 L 4188.75 1139.492188 L 4196.875 1141.679688 L 4213.125 1145.898438 L 4221.25 1147.929688 L 4229.375 1149.921875 L 4237.5 1151.875 L 4245.625 1153.789062 L 4261.875 1157.460938 L 4278.125 1160.976562 L 4286.25 1162.695312 L 4302.5 1165.976562 L 4310.625 1167.578125 L 4318.75 1169.101562 " transform="matrix(0.1,0,0,-0.1,0,150)"/>
</g>
</g>
</svg>
