<?xml version="1.0" encoding="UTF-8"?>
<svg xmlns="http://www.w3.org/2000/svg" xmlns:xlink="http://www.w3.org/1999/xlink" width="150pt" height="150pt" viewBox="0 0 150 150" version="1.1">
<g id="surface1">
<path style="fill:none;stroke-width:5;stroke-linecap:butt;stroke-linejoin:miter;stroke:rgb(80.076599%,80.076599%,80.076599%);stroke-opacity:1;stroke-miterlimit:10;" d="M 50 50 L 50 1450 M 250 50 L 250 1450 M 450 50 L 450 1450 M 650 50 L 650 1450 M 850 50 L 850 1450 M 1050 50 L 1050 1450 M 1250 50 L 1250 1450 M 1450 50 L 1450 1450 M 50 50 L 1450 50 M 50 250 L 1450 250 M 50 450 L 1450 450 M 50 650 L 1450 650 M 50 850 L 1450 850 M 50 1050 L 1450 1050 M 50 1250 L 1450 1250 M 50 1450 L 1450 1450 " transform="matrix(0.1,0,0,-0.1,0,150)"/>
<path style="fill:none;stroke-width:10;stroke-linecap:butt;stroke-linejoin:miter;stroke:rgb(0%,0%,0%);stroke-opacity:1;stroke-miterlimit:10;" d="M 50 1050 L 1450 1050 M 1050 50 L 1050 1450 " transform="matrix(0.1,0,0,-0.1,0,150)"/>
</g>
</svg>
