<?xml version="1.0" encoding="UTF-8"?>
<svg xmlns="http://www.w3.org/2000/svg" xmlns:xlink="http://www.w3.org/1999/xlink" width="185pt" height="181pt" viewBox="0 0 185 181" version="1.1">
<g id="surface1">
<rect x="0" y="0" width="185" height="181" style="fill:rgb(100%,100%,100%);fill-opacity:1;stroke:none;"/>
<path style="fill:none;stroke-width:10;stroke-linecap:round;stroke-linejoin:round;stroke:rgb(75.389099%,75.389099%,75.389099%);stroke-opacity:1;stroke-miterlimit:10;" d="M 76.875 2111.523438 L 76.875 -185.039062 " transform="matrix(0.1,0,0,-0.1,0,181)"/>
<path style="fill:none;stroke-width:10;stroke-linecap:round;stroke-linejoin:round;stroke:rgb(75.389099%,75.389099%,75.389099%);stroke-opacity:1;stroke-miterlimit:10;" d="M 360.351562 2111.523438 L 360.351562 -185.039062 " transform="matrix(0.1,0,0,-0.1,0,181)"/>
<path style="fill:none;stroke-width:10;stroke-linecap:round;stroke-linejoin:round;stroke:rgb(75.389099%,75.389099%,75.389099%);stroke-opacity:1;stroke-miterlimit:10;" d="M 927.265625 2111.523438 L 927.265625 -185.039062 " transform="matrix(0.1,0,0,-0.1,0,181)"/>
<path style="fill:none;stroke-width:10;stroke-linecap:round;stroke-linejoin:round;stroke:rgb(75.389099%,75.389099%,75.389099%);stroke-opacity:1;stroke-miterlimit:10;" d="M 1210.742188 2111.523438 L 1210.742188 -185.039062 " transform="matrix(0.1,0,0,-0.1,0,181)"/>
<path style="fill:none;stroke-width:10;stroke-linecap:round;stroke-linejoin:round;stroke:rgb(75.389099%,75.389099%,75.389099%);stroke-opacity:1;stroke-miterlimit:10;" d="M 1494.21875 2111.523438 L 1494.21875 -185.039062 " transform="matrix(0.1,0,0,-0.1,0,181)"/>
<path style="fill:none;stroke-width:10;stroke-linecap:round;stroke-linejoin:round;stroke:rgb(75.389099%,75.389099%,75.389099%);stroke-opacity:1;stroke-miterlimit:10;" d="M 1777.65625 2111.523438 L 1777.65625 -185.039062 " transform="matrix(0.1,0,0,-0.1,0,181)"/>
<path style="fill:none;stroke-width:10;stroke-linecap:round;stroke-linejoin:round;stroke:rgb(94.139099%,94.139099%,94.139099%);stroke-opacity:1;stroke-miterlimit:10;" d="M 20.195312 2111.523438 L 20.195312 -185.039062 " transform="matrix(0.1,0,0,-0.1,0,181)"/>
<path style="fill:none;stroke-width:10;stroke-linecap:round;stroke-linejoin:round;stroke:rgb(94.139099%,94.139099%,94.139099%);stroke-opacity:1;stroke-miterlimit:10;" d="M 133.59375 2111.523438 L 133.59375 -185.039062 " transform="matrix(0.1,0,0,-0.1,0,181)"/>
<path style="fill:none;stroke-width:10;stroke-linecap:round;stroke-linejoin:round;stroke:rgb(94.139099%,94.139099%,94.139099%);stroke-opacity:1;stroke-miterlimit:10;" d="M 190.273438 2111.523438 L 190.273438 -185.039062 " transform="matrix(0.1,0,0,-0.1,0,181)"/>
<path style="fill:none;stroke-width:10;stroke-linecap:round;stroke-linejoin:round;stroke:rgb(94.139099%,94.139099%,94.139099%);stroke-opacity:1;stroke-miterlimit:10;" d="M 246.953125 2111.523438 L 246.953125 -185.039062 " transform="matrix(0.1,0,0,-0.1,0,181)"/>
<path style="fill:none;stroke-width:10;stroke-linecap:round;stroke-linejoin:round;stroke:rgb(94.139099%,94.139099%,94.139099%);stroke-opacity:1;stroke-miterlimit:10;" d="M 303.671875 2111.523438 L 303.671875 -185.039062 " transform="matrix(0.1,0,0,-0.1,0,181)"/>
<path style="fill:none;stroke-width:10;stroke-linecap:round;stroke-linejoin:round;stroke:rgb(94.139099%,94.139099%,94.139099%);stroke-opacity:1;stroke-miterlimit:10;" d="M 417.03125 2111.523438 L 417.03125 -185.039062 " transform="matrix(0.1,0,0,-0.1,0,181)"/>
<path style="fill:none;stroke-width:10;stroke-linecap:round;stroke-linejoin:round;stroke:rgb(94.139099%,94.139099%,94.139099%);stroke-opacity:1;stroke-miterlimit:10;" d="M 473.75 2111.523438 L 473.75 -185.039062 " transform="matrix(0.1,0,0,-0.1,0,181)"/>
<path style="fill:none;stroke-width:10;stroke-linecap:round;stroke-linejoin:round;stroke:rgb(94.139099%,94.139099%,94.139099%);stroke-opacity:1;stroke-miterlimit:10;" d="M 530.429688 2111.523438 L 530.429688 -185.039062 " transform="matrix(0.1,0,0,-0.1,0,181)"/>
<path style="fill:none;stroke-width:10;stroke-linecap:round;stroke-linejoin:round;stroke:rgb(94.139099%,94.139099%,94.139099%);stroke-opacity:1;stroke-miterlimit:10;" d="M 587.109375 2111.523438 L 587.109375 -185.039062 " transform="matrix(0.1,0,0,-0.1,0,181)"/>
<path style="fill:none;stroke-width:10;stroke-linecap:round;stroke-linejoin:round;stroke:rgb(94.139099%,94.139099%,94.139099%);stroke-opacity:1;stroke-miterlimit:10;" d="M 700.507812 2111.523438 L 700.507812 -185.039062 " transform="matrix(0.1,0,0,-0.1,0,181)"/>
<path style="fill:none;stroke-width:10;stroke-linecap:round;stroke-linejoin:round;stroke:rgb(94.139099%,94.139099%,94.139099%);stroke-opacity:1;stroke-miterlimit:10;" d="M 757.1875 2111.523438 L 757.1875 -185.039062 " transform="matrix(0.1,0,0,-0.1,0,181)"/>
<path style="fill:none;stroke-width:10;stroke-linecap:round;stroke-linejoin:round;stroke:rgb(94.139099%,94.139099%,94.139099%);stroke-opacity:1;stroke-miterlimit:10;" d="M 813.90625 2111.523438 L 813.90625 -185.039062 " transform="matrix(0.1,0,0,-0.1,0,181)"/>
<path style="fill:none;stroke-width:10;stroke-linecap:round;stroke-linejoin:round;stroke:rgb(94.139099%,94.139099%,94.139099%);stroke-opacity:1;stroke-miterlimit:10;" d="M 870.585938 2111.523438 L 870.585938 -185.039062 " transform="matrix(0.1,0,0,-0.1,0,181)"/>
<path style="fill:none;stroke-width:10;stroke-linecap:round;stroke-linejoin:round;stroke:rgb(94.139099%,94.139099%,94.139099%);stroke-opacity:1;stroke-miterlimit:10;" d="M 983.984375 2111.523438 L 983.984375 -185.039062 " transform="matrix(0.1,0,0,-0.1,0,181)"/>
<path style="fill:none;stroke-width:10;stroke-linecap:round;stroke-linejoin:round;stroke:rgb(94.139099%,94.139099%,94.139099%);stroke-opacity:1;stroke-miterlimit:10;" d="M 1040.664062 2111.523438 L 1040.664062 -185.039062 " transform="matrix(0.1,0,0,-0.1,0,181)"/>
<path style="fill:none;stroke-width:10;stroke-linecap:round;stroke-linejoin:round;stroke:rgb(94.139099%,94.139099%,94.139099%);stroke-opacity:1;stroke-miterlimit:10;" d="M 1097.34375 2111.523438 L 1097.34375 -185.039062 " transform="matrix(0.1,0,0,-0.1,0,181)"/>
<path style="fill:none;stroke-width:10;stroke-linecap:round;stroke-linejoin:round;stroke:rgb(94.139099%,94.139099%,94.139099%);stroke-opacity:1;stroke-miterlimit:10;" d="M 1154.0625 2111.523438 L 1154.0625 -185.039062 " transform="matrix(0.1,0,0,-0.1,0,181)"/>
<path style="fill:none;stroke-width:10;stroke-linecap:round;stroke-linejoin:round;stroke:rgb(94.139099%,94.139099%,94.139099%);stroke-opacity:1;stroke-miterlimit:10;" d="M 1267.421875 2111.523438 L 1267.421875 -185.039062 " transform="matrix(0.1,0,0,-0.1,0,181)"/>
<path style="fill:none;stroke-width:10;stroke-linecap:round;stroke-linejoin:round;stroke:rgb(94.139099%,94.139099%,94.139099%);stroke-opacity:1;stroke-miterlimit:10;" d="M 1324.140625 2111.523438 L 1324.140625 -185.039062 " transform="matrix(0.1,0,0,-0.1,0,181)"/>
<path style="fill:none;stroke-width:10;stroke-linecap:round;stroke-linejoin:round;stroke:rgb(94.139099%,94.139099%,94.139099%);stroke-opacity:1;stroke-miterlimit:10;" d="M 1380.820312 2111.523438 L 1380.820312 -185.039062 " transform="matrix(0.1,0,0,-0.1,0,181)"/>
<path style="fill:none;stroke-width:10;stroke-linecap:round;stroke-linejoin:round;stroke:rgb(94.139099%,94.139099%,94.139099%);stroke-opacity:1;stroke-miterlimit:10;" d="M 1437.539062 2111.523438 L 1437.539062 -185.039062 " transform="matrix(0.1,0,0,-0.1,0,181)"/>
<path style="fill:none;stroke-width:10;stroke-linecap:round;stroke-linejoin:round;stroke:rgb(94.139099%,94.139099%,94.139099%);stroke-opacity:1;stroke-miterlimit:10;" d="M 1550.898438 2111.523438 L 1550.898438 -185.039062 " transform="matrix(0.1,0,0,-0.1,0,181)"/>
<path style="fill:none;stroke-width:10;stroke-linecap:round;stroke-linejoin:round;stroke:rgb(94.139099%,94.139099%,94.139099%);stroke-opacity:1;stroke-miterlimit:10;" d="M 1607.578125 2111.523438 L 1607.578125 -185.039062 " transform="matrix(0.1,0,0,-0.1,0,181)"/>
<path style="fill:none;stroke-width:10;stroke-linecap:round;stroke-linejoin:round;stroke:rgb(94.139099%,94.139099%,94.139099%);stroke-opacity:1;stroke-miterlimit:10;" d="M 1664.296875 2111.523438 L 1664.296875 -185.039062 " transform="matrix(0.1,0,0,-0.1,0,181)"/>
<path style="fill:none;stroke-width:10;stroke-linecap:round;stroke-linejoin:round;stroke:rgb(94.139099%,94.139099%,94.139099%);stroke-opacity:1;stroke-miterlimit:10;" d="M 1720.976562 2111.523438 L 1720.976562 -185.039062 " transform="matrix(0.1,0,0,-0.1,0,181)"/>
<path style="fill:none;stroke-width:10;stroke-linecap:round;stroke-linejoin:round;stroke:rgb(94.139099%,94.139099%,94.139099%);stroke-opacity:1;stroke-miterlimit:10;" d="M 1834.375 2111.523438 L 1834.375 -185.039062 " transform="matrix(0.1,0,0,-0.1,0,181)"/>
<path style="fill:none;stroke-width:10;stroke-linecap:round;stroke-linejoin:round;stroke:rgb(75.389099%,75.389099%,75.389099%);stroke-opacity:1;stroke-miterlimit:10;" d="M -473.359375 1736.210938 L 2205.390625 1736.210938 " transform="matrix(0.1,0,0,-0.1,0,181)"/>
<path style="fill:none;stroke-width:10;stroke-linecap:round;stroke-linejoin:round;stroke:rgb(75.389099%,75.389099%,75.389099%);stroke-opacity:1;stroke-miterlimit:10;" d="M -473.359375 1452.773438 L 2205.390625 1452.773438 " transform="matrix(0.1,0,0,-0.1,0,181)"/>
<path style="fill:none;stroke-width:10;stroke-linecap:round;stroke-linejoin:round;stroke:rgb(75.389099%,75.389099%,75.389099%);stroke-opacity:1;stroke-miterlimit:10;" d="M -473.359375 1169.296875 L 2205.390625 1169.296875 " transform="matrix(0.1,0,0,-0.1,0,181)"/>
<path style="fill:none;stroke-width:10;stroke-linecap:round;stroke-linejoin:round;stroke:rgb(75.389099%,75.389099%,75.389099%);stroke-opacity:1;stroke-miterlimit:10;" d="M -473.359375 602.34375 L 2205.390625 602.34375 " transform="matrix(0.1,0,0,-0.1,0,181)"/>
<path style="fill:none;stroke-width:10;stroke-linecap:round;stroke-linejoin:round;stroke:rgb(75.389099%,75.389099%,75.389099%);stroke-opacity:1;stroke-miterlimit:10;" d="M -473.359375 318.90625 L 2205.390625 318.90625 " transform="matrix(0.1,0,0,-0.1,0,181)"/>
<path style="fill:none;stroke-width:10;stroke-linecap:round;stroke-linejoin:round;stroke:rgb(75.389099%,75.389099%,75.389099%);stroke-opacity:1;stroke-miterlimit:10;" d="M -473.359375 35.429688 L 2205.390625 35.429688 " transform="matrix(0.1,0,0,-0.1,0,181)"/>
<path style="fill:none;stroke-width:10;stroke-linecap:round;stroke-linejoin:round;stroke:rgb(94.139099%,94.139099%,94.139099%);stroke-opacity:1;stroke-miterlimit:10;" d="M -473.359375 1792.890625 L 2205.390625 1792.890625 " transform="matrix(0.1,0,0,-0.1,0,181)"/>
<path style="fill:none;stroke-width:10;stroke-linecap:round;stroke-linejoin:round;stroke:rgb(94.139099%,94.139099%,94.139099%);stroke-opacity:1;stroke-miterlimit:10;" d="M -473.359375 1679.53125 L 2205.390625 1679.53125 " transform="matrix(0.1,0,0,-0.1,0,181)"/>
<path style="fill:none;stroke-width:10;stroke-linecap:round;stroke-linejoin:round;stroke:rgb(94.139099%,94.139099%,94.139099%);stroke-opacity:1;stroke-miterlimit:10;" d="M -473.359375 1622.851562 L 2205.390625 1622.851562 " transform="matrix(0.1,0,0,-0.1,0,181)"/>
<path style="fill:none;stroke-width:10;stroke-linecap:round;stroke-linejoin:round;stroke:rgb(94.139099%,94.139099%,94.139099%);stroke-opacity:1;stroke-miterlimit:10;" d="M -473.359375 1566.132812 L 2205.390625 1566.132812 " transform="matrix(0.1,0,0,-0.1,0,181)"/>
<path style="fill:none;stroke-width:10;stroke-linecap:round;stroke-linejoin:round;stroke:rgb(94.139099%,94.139099%,94.139099%);stroke-opacity:1;stroke-miterlimit:10;" d="M -473.359375 1509.453125 L 2205.390625 1509.453125 " transform="matrix(0.1,0,0,-0.1,0,181)"/>
<path style="fill:none;stroke-width:10;stroke-linecap:round;stroke-linejoin:round;stroke:rgb(94.139099%,94.139099%,94.139099%);stroke-opacity:1;stroke-miterlimit:10;" d="M -473.359375 1396.054688 L 2205.390625 1396.054688 " transform="matrix(0.1,0,0,-0.1,0,181)"/>
<path style="fill:none;stroke-width:10;stroke-linecap:round;stroke-linejoin:round;stroke:rgb(94.139099%,94.139099%,94.139099%);stroke-opacity:1;stroke-miterlimit:10;" d="M -473.359375 1339.375 L 2205.390625 1339.375 " transform="matrix(0.1,0,0,-0.1,0,181)"/>
<path style="fill:none;stroke-width:10;stroke-linecap:round;stroke-linejoin:round;stroke:rgb(94.139099%,94.139099%,94.139099%);stroke-opacity:1;stroke-miterlimit:10;" d="M -473.359375 1282.695312 L 2205.390625 1282.695312 " transform="matrix(0.1,0,0,-0.1,0,181)"/>
<path style="fill:none;stroke-width:10;stroke-linecap:round;stroke-linejoin:round;stroke:rgb(94.139099%,94.139099%,94.139099%);stroke-opacity:1;stroke-miterlimit:10;" d="M -473.359375 1225.976562 L 2205.390625 1225.976562 " transform="matrix(0.1,0,0,-0.1,0,181)"/>
<path style="fill:none;stroke-width:10;stroke-linecap:round;stroke-linejoin:round;stroke:rgb(94.139099%,94.139099%,94.139099%);stroke-opacity:1;stroke-miterlimit:10;" d="M -473.359375 1112.617188 L 2205.390625 1112.617188 " transform="matrix(0.1,0,0,-0.1,0,181)"/>
<path style="fill:none;stroke-width:10;stroke-linecap:round;stroke-linejoin:round;stroke:rgb(94.139099%,94.139099%,94.139099%);stroke-opacity:1;stroke-miterlimit:10;" d="M -473.359375 1055.898438 L 2205.390625 1055.898438 " transform="matrix(0.1,0,0,-0.1,0,181)"/>
<path style="fill:none;stroke-width:10;stroke-linecap:round;stroke-linejoin:round;stroke:rgb(94.139099%,94.139099%,94.139099%);stroke-opacity:1;stroke-miterlimit:10;" d="M -473.359375 999.21875 L 2205.390625 999.21875 " transform="matrix(0.1,0,0,-0.1,0,181)"/>
<path style="fill:none;stroke-width:10;stroke-linecap:round;stroke-linejoin:round;stroke:rgb(94.139099%,94.139099%,94.139099%);stroke-opacity:1;stroke-miterlimit:10;" d="M -473.359375 942.539062 L 2205.390625 942.539062 " transform="matrix(0.1,0,0,-0.1,0,181)"/>
<path style="fill:none;stroke-width:10;stroke-linecap:round;stroke-linejoin:round;stroke:rgb(94.139099%,94.139099%,94.139099%);stroke-opacity:1;stroke-miterlimit:10;" d="M -473.359375 829.140625 L 2205.390625 829.140625 " transform="matrix(0.1,0,0,-0.1,0,181)"/>
<path style="fill:none;stroke-width:10;stroke-linecap:round;stroke-linejoin:round;stroke:rgb(94.139099%,94.139099%,94.139099%);stroke-opacity:1;stroke-miterlimit:10;" d="M -473.359375 772.460938 L 2205.390625 772.460938 " transform="matrix(0.1,0,0,-0.1,0,181)"/>
<path style="fill:none;stroke-width:10;stroke-linecap:round;stroke-linejoin:round;stroke:rgb(94.139099%,94.139099%,94.139099%);stroke-opacity:1;stroke-miterlimit:10;" d="M -473.359375 715.742188 L 2205.390625 715.742188 " transform="matrix(0.1,0,0,-0.1,0,181)"/>
<path style="fill:none;stroke-width:10;stroke-linecap:round;stroke-linejoin:round;stroke:rgb(94.139099%,94.139099%,94.139099%);stroke-opacity:1;stroke-miterlimit:10;" d="M -473.359375 659.0625 L 2205.390625 659.0625 " transform="matrix(0.1,0,0,-0.1,0,181)"/>
<path style="fill:none;stroke-width:10;stroke-linecap:round;stroke-linejoin:round;stroke:rgb(94.139099%,94.139099%,94.139099%);stroke-opacity:1;stroke-miterlimit:10;" d="M -473.359375 545.664062 L 2205.390625 545.664062 " transform="matrix(0.1,0,0,-0.1,0,181)"/>
<path style="fill:none;stroke-width:10;stroke-linecap:round;stroke-linejoin:round;stroke:rgb(94.139099%,94.139099%,94.139099%);stroke-opacity:1;stroke-miterlimit:10;" d="M -473.359375 488.984375 L 2205.390625 488.984375 " transform="matrix(0.1,0,0,-0.1,0,181)"/>
<path style="fill:none;stroke-width:10;stroke-linecap:round;stroke-linejoin:round;stroke:rgb(94.139099%,94.139099%,94.139099%);stroke-opacity:1;stroke-miterlimit:10;" d="M -473.359375 432.265625 L 2205.390625 432.265625 " transform="matrix(0.1,0,0,-0.1,0,181)"/>
<path style="fill:none;stroke-width:10;stroke-linecap:round;stroke-linejoin:round;stroke:rgb(94.139099%,94.139099%,94.139099%);stroke-opacity:1;stroke-miterlimit:10;" d="M -473.359375 375.585938 L 2205.390625 375.585938 " transform="matrix(0.1,0,0,-0.1,0,181)"/>
<path style="fill:none;stroke-width:10;stroke-linecap:round;stroke-linejoin:round;stroke:rgb(94.139099%,94.139099%,94.139099%);stroke-opacity:1;stroke-miterlimit:10;" d="M -473.359375 262.1875 L 2205.390625 262.1875 " transform="matrix(0.1,0,0,-0.1,0,181)"/>
<path style="fill:none;stroke-width:10;stroke-linecap:round;stroke-linejoin:round;stroke:rgb(94.139099%,94.139099%,94.139099%);stroke-opacity:1;stroke-miterlimit:10;" d="M -473.359375 205.507812 L 2205.390625 205.507812 " transform="matrix(0.1,0,0,-0.1,0,181)"/>
<path style="fill:none;stroke-width:10;stroke-linecap:round;stroke-linejoin:round;stroke:rgb(94.139099%,94.139099%,94.139099%);stroke-opacity:1;stroke-miterlimit:10;" d="M -473.359375 148.828125 L 2205.390625 148.828125 " transform="matrix(0.1,0,0,-0.1,0,181)"/>
<path style="fill:none;stroke-width:10;stroke-linecap:round;stroke-linejoin:round;stroke:rgb(94.139099%,94.139099%,94.139099%);stroke-opacity:1;stroke-miterlimit:10;" d="M -473.359375 92.109375 L 2205.390625 92.109375 " transform="matrix(0.1,0,0,-0.1,0,181)"/>
<path style="fill:none;stroke-width:10;stroke-linecap:butt;stroke-linejoin:miter;stroke:rgb(0%,0%,0%);stroke-opacity:1;stroke-miterlimit:10;" d="M 643.828125 2104.53125 L 643.828125 -185.039062 " transform="matrix(0.1,0,0,-0.1,0,181)"/>
<path style="fill:none;stroke-width:10;stroke-linecap:butt;stroke-linejoin:miter;stroke:rgb(0%,0%,0%);stroke-opacity:1;stroke-miterlimit:10;" d="M -473.359375 885.820312 L 2198.398438 885.820312 " transform="matrix(0.1,0,0,-0.1,0,181)"/>
<path style=" stroke:none;fill-rule:nonzero;fill:rgb(0%,0%,0%);fill-opacity:1;" d="M 5.824219 96.707031 L 5.824219 96.429688 L 7.5 96.429688 L 7.5 96.707031 Z M 8.0625 97.824219 L 8.0625 97.46875 C 8.179688 97.191406 8.417969 96.894531 8.777344 96.570312 L 9.011719 96.359375 C 9.308594 96.089844 9.457031 95.824219 9.457031 95.558594 C 9.457031 95.386719 9.40625 95.253906 9.304688 95.15625 C 9.203125 95.058594 9.0625 95.011719 8.886719 95.011719 C 8.675781 95.011719 8.425781 95.09375 8.140625 95.253906 L 8.140625 94.898438 C 8.410156 94.769531 8.675781 94.707031 8.941406 94.707031 C 9.226562 94.707031 9.457031 94.785156 9.628906 94.9375 C 9.800781 95.089844 9.886719 95.292969 9.886719 95.546875 C 9.886719 95.730469 9.84375 95.890625 9.757812 96.03125 C 9.667969 96.171875 9.507812 96.34375 9.269531 96.546875 L 9.113281 96.679688 C 8.789062 96.953125 8.601562 97.21875 8.550781 97.46875 L 9.875 97.46875 L 9.875 97.824219 "/>
<path style=" stroke:none;fill-rule:nonzero;fill:rgb(0%,0%,0%);fill-opacity:1;" d="M 34.226562 96.707031 L 34.226562 96.429688 L 35.898438 96.429688 L 35.898438 96.707031 Z M 36.746094 97.824219 L 36.746094 97.519531 L 37.355469 97.519531 L 37.355469 95.121094 L 36.746094 95.273438 L 36.746094 94.960938 L 37.761719 94.707031 L 37.761719 97.519531 L 38.371094 97.519531 L 38.371094 97.824219 "/>
<path style=" stroke:none;fill-rule:nonzero;fill:rgb(0%,0%,0%);fill-opacity:1;" d="M 92.496094 97.824219 L 92.496094 97.519531 L 93.105469 97.519531 L 93.105469 95.121094 L 92.496094 95.273438 L 92.496094 94.960938 L 93.511719 94.707031 L 93.511719 97.519531 L 94.117188 97.519531 L 94.117188 97.824219 "/>
<path style=" stroke:none;fill-rule:nonzero;fill:rgb(0%,0%,0%);fill-opacity:1;" d="M 120.613281 97.824219 L 120.613281 97.46875 C 120.730469 97.191406 120.96875 96.894531 121.328125 96.570312 L 121.558594 96.359375 C 121.859375 96.089844 122.007812 95.824219 122.007812 95.558594 C 122.007812 95.386719 121.957031 95.253906 121.855469 95.15625 C 121.753906 95.058594 121.613281 95.011719 121.433594 95.011719 C 121.222656 95.011719 120.976562 95.09375 120.6875 95.253906 L 120.6875 94.898438 C 120.960938 94.769531 121.226562 94.707031 121.492188 94.707031 C 121.777344 94.707031 122.007812 94.785156 122.179688 94.9375 C 122.351562 95.089844 122.4375 95.292969 122.4375 95.546875 C 122.4375 95.730469 122.394531 95.890625 122.308594 96.03125 C 122.21875 96.171875 122.058594 96.34375 121.820312 96.546875 L 121.664062 96.679688 C 121.339844 96.953125 121.152344 97.21875 121.101562 97.46875 L 122.421875 97.46875 L 122.421875 97.824219 "/>
<path style=" stroke:none;fill-rule:nonzero;fill:rgb(0%,0%,0%);fill-opacity:1;" d="M 149.089844 97.800781 L 149.089844 97.421875 C 149.382812 97.539062 149.609375 97.59375 149.777344 97.59375 C 149.972656 97.59375 150.128906 97.539062 150.25 97.425781 C 150.371094 97.3125 150.429688 97.167969 150.429688 96.988281 C 150.429688 96.558594 150.132812 96.347656 149.53125 96.347656 L 149.371094 96.347656 L 149.371094 96.074219 L 149.515625 96.070312 C 150.074219 96.070312 150.355469 95.875 150.355469 95.476562 C 150.355469 95.167969 150.171875 95.011719 149.800781 95.011719 C 149.597656 95.011719 149.375 95.066406 149.132812 95.179688 L 149.132812 94.828125 C 149.371094 94.746094 149.605469 94.707031 149.832031 94.707031 C 150.453125 94.707031 150.765625 94.941406 150.765625 95.410156 C 150.765625 95.769531 150.550781 96.023438 150.128906 96.175781 C 150.617188 96.289062 150.863281 96.558594 150.863281 96.980469 C 150.863281 97.269531 150.769531 97.492188 150.582031 97.65625 C 150.390625 97.820312 150.132812 97.898438 149.800781 97.898438 C 149.613281 97.898438 149.378906 97.867188 149.089844 97.800781 "/>
<path style=" stroke:none;fill-rule:nonzero;fill:rgb(0%,0%,0%);fill-opacity:1;" d="M 178.648438 97.824219 L 178.648438 96.964844 L 177.28125 96.964844 L 177.28125 96.65625 L 178.648438 94.78125 L 179.027344 94.78125 L 179.027344 96.632812 L 179.433594 96.632812 L 179.433594 96.964844 L 179.027344 96.964844 L 179.027344 97.824219 Z M 177.675781 96.632812 L 178.675781 96.632812 L 178.675781 95.28125 "/>
<path style=" stroke:none;fill-rule:nonzero;fill:rgb(0%,0%,0%);fill-opacity:1;" d="M 57.015625 178.050781 L 57.015625 177.773438 L 58.6875 177.773438 L 58.6875 178.050781 Z M 59.332031 179.144531 L 59.332031 178.769531 C 59.621094 178.882812 59.851562 178.941406 60.019531 178.941406 C 60.210938 178.941406 60.367188 178.882812 60.488281 178.769531 C 60.609375 178.65625 60.671875 178.511719 60.671875 178.332031 C 60.671875 177.90625 60.371094 177.691406 59.773438 177.691406 L 59.613281 177.691406 L 59.613281 177.417969 L 59.753906 177.414062 C 60.316406 177.414062 60.597656 177.21875 60.597656 176.820312 C 60.597656 176.511719 60.414062 176.355469 60.042969 176.355469 C 59.839844 176.355469 59.617188 176.414062 59.371094 176.527344 L 59.371094 176.171875 C 59.613281 176.09375 59.84375 176.050781 60.070312 176.050781 C 60.695312 176.050781 61.003906 176.285156 61.003906 176.757812 C 61.003906 177.113281 60.792969 177.367188 60.371094 177.519531 C 60.859375 177.632812 61.105469 177.902344 61.105469 178.324219 C 61.105469 178.613281 61.011719 178.835938 60.820312 179 C 60.632812 179.164062 60.371094 179.242188 60.042969 179.242188 C 59.855469 179.242188 59.617188 179.210938 59.332031 179.144531 "/>
<path style=" stroke:none;fill-rule:nonzero;fill:rgb(0%,0%,0%);fill-opacity:1;" d="M 57.015625 149.652344 L 57.015625 149.371094 L 58.6875 149.371094 L 58.6875 149.652344 Z M 59.253906 150.769531 L 59.253906 150.410156 C 59.371094 150.136719 59.609375 149.835938 59.96875 149.511719 L 60.199219 149.304688 C 60.5 149.035156 60.648438 148.765625 60.648438 148.5 C 60.648438 148.332031 60.597656 148.199219 60.496094 148.101562 C 60.394531 148.003906 60.253906 147.957031 60.074219 147.957031 C 59.863281 147.957031 59.617188 148.035156 59.328125 148.199219 L 59.328125 147.84375 C 59.597656 147.714844 59.867188 147.652344 60.132812 147.652344 C 60.417969 147.652344 60.648438 147.726562 60.820312 147.882812 C 60.992188 148.035156 61.078125 148.238281 61.078125 148.492188 C 61.078125 148.671875 61.035156 148.835938 60.949219 148.976562 C 60.859375 149.117188 60.699219 149.289062 60.460938 149.488281 L 60.304688 149.625 C 59.980469 149.898438 59.792969 150.160156 59.742188 150.410156 L 61.0625 150.410156 L 61.0625 150.769531 "/>
<path style=" stroke:none;fill-rule:nonzero;fill:rgb(0%,0%,0%);fill-opacity:1;" d="M 57.015625 121.25 L 57.015625 120.972656 L 58.6875 120.972656 L 58.6875 121.25 Z M 59.539062 122.367188 L 59.539062 122.0625 L 60.144531 122.0625 L 60.144531 119.664062 L 59.539062 119.816406 L 59.539062 119.503906 L 60.550781 119.25 L 60.550781 122.0625 L 61.160156 122.0625 L 61.160156 122.367188 "/>
<path style=" stroke:none;fill-rule:nonzero;fill:rgb(0%,0%,0%);fill-opacity:1;" d="M 59.539062 65.566406 L 59.539062 65.261719 L 60.144531 65.261719 L 60.144531 62.863281 L 59.539062 63.015625 L 59.539062 62.703125 L 60.550781 62.449219 L 60.550781 65.261719 L 61.160156 65.261719 L 61.160156 65.566406 "/>
<path style=" stroke:none;fill-rule:nonzero;fill:rgb(0%,0%,0%);fill-opacity:1;" d="M 59.253906 37.164062 L 59.253906 36.8125 C 59.371094 36.535156 59.609375 36.234375 59.96875 35.910156 L 60.199219 35.703125 C 60.5 35.433594 60.648438 35.164062 60.648438 34.898438 C 60.648438 34.730469 60.597656 34.597656 60.496094 34.5 C 60.394531 34.402344 60.253906 34.355469 60.074219 34.355469 C 59.863281 34.355469 59.617188 34.433594 59.328125 34.597656 L 59.328125 34.242188 C 59.597656 34.113281 59.867188 34.050781 60.132812 34.050781 C 60.417969 34.050781 60.648438 34.125 60.820312 34.28125 C 60.992188 34.433594 61.078125 34.636719 61.078125 34.890625 C 61.078125 35.070312 61.035156 35.234375 60.949219 35.375 C 60.859375 35.515625 60.699219 35.6875 60.460938 35.886719 L 60.304688 36.019531 C 59.980469 36.296875 59.792969 36.558594 59.742188 36.8125 L 61.0625 36.8125 L 61.0625 37.164062 "/>
<path style=" stroke:none;fill-rule:nonzero;fill:rgb(0%,0%,0%);fill-opacity:1;" d="M 59.332031 9.09375 L 59.332031 8.714844 C 59.621094 8.828125 59.851562 8.886719 60.019531 8.886719 C 60.210938 8.886719 60.367188 8.832031 60.488281 8.71875 C 60.609375 8.605469 60.671875 8.460938 60.671875 8.28125 C 60.671875 7.851562 60.371094 7.640625 59.773438 7.640625 L 59.613281 7.640625 L 59.613281 7.367188 L 59.753906 7.363281 C 60.316406 7.363281 60.597656 7.164062 60.597656 6.769531 C 60.597656 6.460938 60.414062 6.304688 60.042969 6.304688 C 59.839844 6.304688 59.617188 6.359375 59.371094 6.472656 L 59.371094 6.121094 C 59.613281 6.039062 59.84375 6 60.070312 6 C 60.695312 6 61.003906 6.234375 61.003906 6.703125 C 61.003906 7.0625 60.792969 7.316406 60.371094 7.46875 C 60.859375 7.582031 61.105469 7.851562 61.105469 8.273438 C 61.105469 8.558594 61.011719 8.785156 60.820312 8.949219 C 60.632812 9.109375 60.371094 9.191406 60.042969 9.191406 C 59.855469 9.191406 59.617188 9.160156 59.332031 9.09375 "/>
<path style=" stroke:none;fill-rule:nonzero;fill:rgb(0%,0%,0%);fill-opacity:1;" d="M 60.222656 97.898438 C 59.910156 97.898438 59.65625 97.753906 59.460938 97.457031 C 59.269531 97.160156 59.171875 96.777344 59.171875 96.300781 C 59.171875 95.820312 59.269531 95.4375 59.464844 95.144531 C 59.660156 94.851562 59.917969 94.707031 60.234375 94.707031 C 60.554688 94.707031 60.8125 94.851562 61.007812 95.144531 C 61.203125 95.4375 61.300781 95.820312 61.300781 96.296875 C 61.300781 96.78125 61.203125 97.171875 61.007812 97.464844 C 60.8125 97.753906 60.550781 97.898438 60.222656 97.898438 Z M 60.226562 97.59375 C 60.65625 97.59375 60.871094 97.160156 60.871094 96.289062 C 60.871094 95.4375 60.660156 95.011719 60.234375 95.011719 C 59.8125 95.011719 59.601562 95.441406 59.601562 96.300781 C 59.601562 97.164062 59.8125 97.59375 60.226562 97.59375 "/>
<path style="fill:none;stroke-width:25;stroke-linecap:round;stroke-linejoin:round;stroke:rgb(30.200195%,30.200195%,100%);stroke-opacity:1;stroke-miterlimit:10;" d="M 258.710938 2111.523438 L 260.585938 2104.375 L 262.304688 2097.1875 L 263.320312 2092.539062 L 265.273438 2082.8125 L 266.523438 2075.664062 L 267.65625 2068.476562 L 268.671875 2061.289062 L 269.609375 2054.101562 L 270.390625 2046.953125 L 271.054688 2039.765625 L 271.601562 2032.578125 L 272.382812 2018.242188 L 272.617188 2011.054688 L 272.734375 2003.867188 L 272.734375 1996.71875 M 2039.804688 2111.523438 L 2041.640625 2104.375 L 2043.359375 2097.1875 L 2044.921875 2090 L 2046.328125 2082.8125 L 2047.617188 2075.664062 L 2048.75 2068.476562 L 2049.765625 2061.289062 L 2050.664062 2054.101562 L 2051.445312 2046.953125 L 2052.109375 2039.765625 L 2052.65625 2032.578125 L 2053.085938 2025.390625 L 2053.4375 2018.242188 L 2053.671875 2011.054688 L 2053.789062 2003.867188 L 2053.828125 1996.71875 M 1460.15625 1996.71875 L 1460.15625 2003.867188 L 1460.273438 2011.054688 L 1460.390625 2014.296875 L 1460.507812 2018.242188 L 1460.859375 2025.390625 L 1461.289062 2032.578125 L 1461.875 2039.765625 L 1462.539062 2046.953125 L 1463.28125 2054.101562 L 1464.21875 2061.289062 L 1465.234375 2068.476562 L 1466.367188 2075.664062 L 1467.617188 2082.8125 L 1468.75 2088.632812 L 1470.585938 2097.1875 L 1472.304688 2104.375 L 1474.140625 2111.523438 M -320.898438 1996.71875 L -320.898438 2003.867188 L -320.78125 2011.054688 L -320.546875 2018.242188 L -320.195312 2025.390625 L -319.765625 2032.578125 L -319.179688 2039.765625 L -318.515625 2046.953125 L -317.773438 2054.101562 L -316.875 2061.289062 L -315.859375 2068.476562 L -314.726562 2075.664062 L -313.4375 2082.8125 L -312.03125 2090 L -310.46875 2097.1875 L -308.75 2104.375 L -306.914062 2111.523438 M 1460.15625 1996.71875 L 1460.234375 1989.53125 L 1460.390625 1983.515625 L 1460.703125 1975.195312 L 1461.132812 1968.007812 L 1461.640625 1960.820312 L 1462.265625 1953.632812 L 1463.007812 1946.484375 L 1463.867188 1939.296875 L 1464.84375 1932.109375 L 1465.9375 1924.921875 L 1467.148438 1917.773438 L 1468.515625 1910.585938 L 1471.679688 1896.210938 L 1473.476562 1889.0625 L 1475.429688 1881.875 L 1477.148438 1876.09375 L 1479.882812 1867.539062 L 1482.421875 1860.351562 L 1485.15625 1853.164062 L 1488.125 1845.976562 L 1491.328125 1838.828125 L 1493.867188 1833.515625 L 1494.804688 1831.640625 L 1498.59375 1824.453125 L 1502.226562 1818.007812 L 1507.148438 1810.117188 L 1510.625 1804.921875 L 1511.992188 1802.929688 L 1517.304688 1795.742188 L 1518.984375 1793.59375 L 1523.125 1788.59375 L 1527.34375 1783.710938 L 1529.492188 1781.40625 L 1535.742188 1775 L 1544.101562 1767.226562 L 1552.460938 1760.3125 L 1560.859375 1754.0625 L 1569.21875 1748.4375 L 1573.90625 1745.507812 L 1577.578125 1743.359375 L 1585.9375 1738.710938 L 1594.335938 1734.492188 L 1601.5625 1731.171875 L 1611.054688 1727.1875 L 1619.453125 1724.023438 L 1627.8125 1721.132812 L 1636.171875 1718.515625 L 1642.109375 1716.796875 L 1644.53125 1716.132812 L 1652.929688 1713.984375 L 1661.289062 1712.03125 L 1669.648438 1710.3125 L 1673.242188 1709.648438 L 1678.046875 1708.75 L 1686.40625 1707.382812 L 1694.765625 1706.210938 L 1703.164062 1705.15625 L 1711.523438 1704.296875 L 1719.882812 1703.554688 L 1728.242188 1703.007812 L 1736.640625 1702.578125 L 1740.078125 1702.460938 L 1745 1702.304688 L 1761.757812 1702.1875 L 1773.867188 1702.460938 L 1778.476562 1702.617188 L 1786.875 1703.085938 L 1795.234375 1703.671875 L 1803.59375 1704.414062 L 1811.953125 1705.3125 L 1820.351562 1706.367188 L 1828.710938 1707.578125 L 1837.109375 1708.945312 L 1840.703125 1709.648438 L 1845.46875 1710.546875 L 1853.828125 1712.304688 L 1862.1875 1714.296875 L 1870.585938 1716.445312 L 1878.945312 1718.867188 L 1887.304688 1721.523438 L 1894.414062 1723.984375 L 1904.0625 1727.65625 L 1912.382812 1731.171875 L 1920.78125 1735.078125 L 1927.304688 1738.359375 L 1929.179688 1739.335938 L 1937.539062 1744.023438 L 1940.039062 1745.507812 L 1945.898438 1749.179688 L 1951.132812 1752.695312 L 1954.296875 1754.882812 L 1960.9375 1759.882812 L 1969.648438 1767.03125 L 1977.421875 1774.21875 L 1979.375 1776.171875 L 1984.453125 1781.40625 L 1987.773438 1785.039062 L 1990.820312 1788.59375 L 1996.132812 1795.078125 L 2001.953125 1802.929688 L 2004.492188 1806.640625 L 2006.796875 1810.117188 L 2011.289062 1817.304688 L 2012.890625 1820.039062 L 2015.351562 1824.453125 L 2019.140625 1831.640625 L 2021.25 1835.898438 L 2022.65625 1838.828125 L 2025.859375 1845.976562 L 2028.828125 1853.164062 L 2029.609375 1855.234375 L 2031.523438 1860.351562 L 2034.0625 1867.539062 L 2036.40625 1874.6875 L 2038.007812 1880.039062 L 2038.554688 1881.875 L 2040.507812 1889.0625 L 2042.304688 1896.210938 L 2043.945312 1903.398438 L 2045.46875 1910.585938 L 2046.367188 1915.390625 L 2046.796875 1917.773438 L 2048.046875 1924.921875 L 2049.101562 1932.109375 L 2050.078125 1939.296875 L 2050.9375 1946.484375 L 2051.679688 1953.632812 L 2052.304688 1960.820312 L 2052.8125 1968.007812 L 2053.242188 1975.195312 L 2053.515625 1982.34375 L 2053.710938 1989.53125 L 2053.828125 1996.71875 M -320.898438 1996.71875 L -320.820312 1989.53125 L -320.625 1982.34375 L -320.3125 1975.195312 L -319.921875 1968.007812 L -319.414062 1960.820312 L -318.789062 1953.632812 L -318.046875 1946.484375 L -317.1875 1939.296875 L -316.210938 1932.109375 L -315.15625 1924.921875 L -314.296875 1919.921875 L -313.90625 1917.773438 L -312.539062 1910.585938 L -311.054688 1903.398438 L -309.414062 1896.210938 L -307.617188 1889.0625 L -305.9375 1882.851562 L -303.476562 1874.6875 L -301.171875 1867.539062 L -298.632812 1860.351562 L -297.539062 1857.382812 L -292.929688 1845.976562 L -289.726562 1838.828125 L -282.460938 1824.453125 L -280.820312 1821.445312 L -278.359375 1817.304688 L -273.90625 1810.117188 L -272.421875 1807.851562 L -264.0625 1796.132812 L -257.929688 1788.59375 L -255.703125 1785.976562 L -251.5625 1781.40625 L -247.304688 1776.992188 L -244.53125 1774.21875 L -238.945312 1769.023438 L -230.585938 1761.875 L -228.007812 1759.882812 L -222.1875 1755.507812 L -218.242188 1752.695312 L -213.828125 1749.726562 L -207.148438 1745.507812 L -197.109375 1739.765625 L -194.375 1738.359375 L -188.710938 1735.46875 L -180.351562 1731.5625 L -171.992188 1728.007812 L -163.59375 1724.726562 L -161.523438 1723.984375 L -155.234375 1721.796875 L -146.875 1719.101562 L -138.984375 1716.796875 L -130.117188 1714.492188 L -121.757812 1712.5 L -113.398438 1710.703125 L -107.8125 1709.648438 L -105 1709.101562 L -96.640625 1707.695312 L -88.28125 1706.484375 L -79.882812 1705.390625 L -71.523438 1704.492188 L -54.804688 1703.125 L -46.40625 1702.65625 L -41.015625 1702.460938 L -38.046875 1702.34375 L -29.6875 1702.1875 L -21.289062 1702.148438 L -12.929688 1702.265625 L -7.109375 1702.460938 L -4.570312 1702.539062 L 3.828125 1702.96875 L 12.1875 1703.515625 L 20.546875 1704.21875 L 28.945312 1705.078125 L 37.304688 1706.09375 L 45.664062 1707.265625 L 54.023438 1708.632812 L 59.648438 1709.648438 L 62.421875 1710.15625 L 70.78125 1711.875 L 79.140625 1713.789062 L 87.539062 1715.898438 L 90.78125 1716.796875 L 95.898438 1718.28125 L 104.257812 1720.859375 L 112.65625 1723.710938 L 121.015625 1726.875 L 129.375 1730.3125 L 131.289062 1731.171875 L 137.734375 1734.101562 L 146.132812 1738.28125 L 154.492188 1742.851562 L 158.984375 1745.507812 L 162.851562 1747.929688 L 170.078125 1752.695312 L 179.609375 1759.648438 L 187.96875 1766.523438 L 196.367188 1774.179688 L 203.398438 1781.40625 L 209.765625 1788.59375 L 213.085938 1792.578125 L 215.585938 1795.742188 L 220.898438 1802.929688 L 225.742188 1810.117188 L 229.84375 1816.640625 L 234.296875 1824.453125 L 238.085938 1831.640625 L 241.5625 1838.828125 L 244.765625 1845.976562 L 246.5625 1850.273438 L 247.734375 1853.164062 L 250.46875 1860.351562 L 253.007812 1867.539062 L 254.960938 1873.476562 L 257.460938 1881.875 L 259.414062 1889.0625 L 261.210938 1896.210938 L 262.890625 1903.398438 L 263.320312 1905.429688 L 264.375 1910.585938 L 265.742188 1917.773438 L 266.953125 1924.921875 L 268.046875 1932.109375 L 269.023438 1939.296875 L 269.882812 1946.484375 L 270.625 1953.632812 L 271.25 1960.820312 L 271.679688 1966.757812 L 272.1875 1975.195312 L 272.460938 1982.34375 L 272.65625 1989.53125 L 272.734375 1996.71875 M 569.609375 1106.796875 L 569.648438 1113.945312 L 569.765625 1121.132812 L 570.039062 1128.320312 L 570.351562 1135.507812 L 570.820312 1142.65625 L 571.367188 1149.84375 L 572.070312 1157.03125 L 572.8125 1164.21875 L 573.75 1171.367188 L 574.765625 1178.554688 L 575.9375 1185.742188 L 577.226562 1192.890625 L 578.632812 1200.078125 L 580.195312 1207.265625 L 581.40625 1212.421875 L 581.914062 1214.414062 L 583.789062 1221.601562 L 585.859375 1228.789062 L 588.046875 1235.976562 L 589.804688 1241.210938 L 590.46875 1243.125 L 593.085938 1250.3125 L 595.9375 1257.5 L 598.164062 1262.8125 L 598.984375 1264.6875 L 602.304688 1271.835938 L 605.9375 1279.023438 L 609.84375 1286.210938 L 614.101562 1293.398438 L 618.75 1300.546875 L 623.28125 1307.03125 L 629.296875 1314.921875 L 631.640625 1317.773438 L 635.390625 1322.109375 L 640.039062 1327.1875 L 642.03125 1329.257812 L 648.398438 1335.507812 L 656.757812 1342.96875 L 665.117188 1349.609375 L 673.515625 1355.585938 L 677.070312 1357.96875 L 681.875 1361.015625 L 688.867188 1365.15625 L 698.632812 1370.390625 L 702.539062 1372.304688 L 706.992188 1374.453125 L 715.351562 1378.125 L 718.671875 1379.492188 L 723.710938 1381.484375 L 732.109375 1384.570312 L 738.398438 1386.679688 L 740.46875 1387.34375 L 748.828125 1389.882812 L 757.226562 1392.148438 L 764.023438 1393.867188 L 773.945312 1396.09375 L 782.34375 1397.734375 L 790.703125 1399.21875 L 799.0625 1400.546875 L 802.617188 1401.015625 L 807.421875 1401.679688 L 815.820312 1402.65625 L 824.179688 1403.4375 L 832.539062 1404.101562 L 840.9375 1404.648438 L 849.296875 1405 L 857.65625 1405.195312 L 866.054688 1405.273438 L 874.414062 1405.234375 L 882.773438 1405.039062 L 891.132812 1404.6875 L 899.53125 1404.179688 L 907.890625 1403.515625 L 916.25 1402.734375 L 924.648438 1401.796875 L 930.273438 1401.015625 L 933.007812 1400.664062 L 941.367188 1399.375 L 949.765625 1397.890625 L 958.125 1396.25 L 966.484375 1394.414062 L 968.867188 1393.867188 L 974.84375 1392.382812 L 983.242188 1390.117188 L 991.601562 1387.617188 L 994.492188 1386.679688 L 999.960938 1384.84375 L 1008.359375 1381.796875 L 1014.21875 1379.492188 L 1016.71875 1378.476562 L 1025.078125 1374.804688 L 1030.390625 1372.304688 L 1033.476562 1370.820312 L 1041.835938 1366.40625 L 1044.023438 1365.15625 L 1050.195312 1361.523438 L 1055.820312 1357.96875 L 1058.554688 1356.171875 L 1066.171875 1350.78125 L 1075.351562 1343.632812 L 1083.515625 1336.445312 L 1090.859375 1329.257812 L 1097.539062 1322.109375 L 1100.429688 1318.710938 L 1108.789062 1308.164062 L 1114.140625 1300.546875 L 1117.1875 1295.976562 L 1118.789062 1293.398438 L 1123.046875 1286.210938 L 1125.546875 1281.71875 L 1126.953125 1279.023438 L 1130.585938 1271.835938 L 1133.90625 1264.6875 L 1136.992188 1257.5 L 1139.804688 1250.3125 L 1142.304688 1243.59375 L 1144.84375 1235.976562 L 1147.03125 1228.789062 L 1149.101562 1221.601562 L 1150.664062 1215.742188 L 1152.695312 1207.265625 L 1154.257812 1200.078125 L 1155.664062 1192.890625 L 1156.953125 1185.742188 L 1158.125 1178.554688 L 1159.023438 1172.304688 L 1160.078125 1164.21875 L 1160.859375 1157.03125 L 1161.523438 1149.84375 L 1162.070312 1142.65625 L 1162.539062 1135.507812 L 1162.851562 1128.320312 L 1163.125 1121.132812 L 1163.242188 1113.945312 L 1163.28125 1106.796875 M 569.609375 1106.796875 L 569.6875 1099.609375 L 569.882812 1092.421875 L 570.15625 1085.234375 L 570.546875 1078.085938 L 571.054688 1070.898438 L 571.679688 1063.710938 L 572.382812 1056.5625 L 573.046875 1050.976562 L 574.21875 1042.1875 L 575.3125 1035.039062 L 576.523438 1027.851562 L 577.851562 1020.664062 L 579.335938 1013.476562 L 580.976562 1006.328125 L 581.40625 1004.492188 L 584.726562 991.953125 L 586.835938 984.765625 L 589.140625 977.617188 L 589.804688 975.742188 L 591.679688 970.429688 L 594.375 963.242188 L 597.304688 956.054688 L 598.164062 954.101562 L 603.984375 941.71875 L 606.523438 936.757812 L 611.796875 927.34375 L 614.882812 922.265625 L 616.210938 920.195312 L 621.054688 913.007812 L 623.28125 909.882812 L 631.640625 899.140625 L 638.398438 891.484375 L 645.390625 884.296875 L 648.398438 881.40625 L 653.125 877.109375 L 656.757812 873.984375 L 661.71875 869.960938 L 665.117188 867.34375 L 673.515625 861.328125 L 681.875 855.898438 L 690.234375 850.976562 L 698.632812 846.523438 L 706.992188 842.460938 L 709.726562 841.25 L 715.351562 838.789062 L 723.710938 835.429688 L 727.382812 834.0625 L 732.109375 832.34375 L 740.46875 829.570312 L 748.828125 827.03125 L 757.226562 824.765625 L 773.945312 820.820312 L 779.53125 819.726562 L 782.34375 819.140625 L 790.703125 817.695312 L 799.0625 816.40625 L 807.421875 815.273438 L 815.820312 814.296875 L 824.179688 813.476562 L 832.539062 812.8125 L 836.835938 812.539062 L 840.9375 812.265625 L 849.296875 811.914062 L 857.65625 811.71875 L 866.054688 811.640625 L 874.414062 811.679688 L 882.773438 811.914062 L 891.132812 812.226562 L 896.054688 812.539062 L 899.53125 812.734375 L 907.890625 813.398438 L 916.25 814.179688 L 924.648438 815.15625 L 933.007812 816.289062 L 941.367188 817.539062 L 949.765625 819.023438 L 953.359375 819.726562 L 958.125 820.664062 L 966.484375 822.5 L 974.84375 824.570312 L 983.242188 826.796875 L 991.601562 829.335938 L 999.960938 832.070312 L 1005.546875 834.0625 L 1008.359375 835.117188 L 1016.71875 838.4375 L 1023.203125 841.25 L 1025.078125 842.109375 L 1033.476562 846.132812 L 1037.890625 848.4375 L 1041.835938 850.546875 L 1050.195312 855.390625 L 1058.554688 860.78125 L 1061.484375 862.773438 L 1066.953125 866.71875 L 1071.171875 869.960938 L 1075.3125 873.320312 L 1079.765625 877.109375 L 1083.671875 880.664062 L 1087.5 884.296875 L 1092.070312 888.90625 L 1094.492188 891.484375 L 1100.429688 898.164062 L 1106.5625 905.820312 L 1108.789062 908.789062 L 1111.835938 913.007812 L 1116.679688 920.195312 L 1121.09375 927.34375 L 1125.195312 934.53125 L 1128.90625 941.71875 L 1132.382812 948.90625 L 1133.90625 952.265625 L 1135.585938 956.054688 L 1138.515625 963.242188 L 1141.25 970.429688 L 1142.304688 973.359375 L 1143.75 977.617188 L 1146.054688 984.765625 L 1148.164062 991.953125 L 1150.117188 999.140625 L 1150.664062 1001.210938 L 1151.914062 1006.328125 L 1153.554688 1013.476562 L 1155.039062 1020.664062 L 1156.367188 1027.851562 L 1157.617188 1035.039062 L 1158.671875 1042.1875 L 1159.023438 1044.6875 L 1159.648438 1049.375 L 1160.507812 1056.5625 L 1161.210938 1063.710938 L 1161.835938 1070.898438 L 1162.34375 1078.085938 L 1162.734375 1085.234375 L 1163.007812 1092.421875 L 1163.203125 1099.609375 L 1163.28125 1106.796875 M 1460.15625 216.875 L 1460.195312 224.023438 L 1460.3125 231.210938 L 1460.390625 233.320312 L 1460.546875 238.398438 L 1460.9375 245.546875 L 1461.40625 252.734375 L 1461.953125 259.921875 L 1462.65625 267.109375 L 1463.4375 274.257812 L 1464.375 281.445312 L 1465.390625 288.632812 L 1466.5625 295.820312 L 1467.851562 302.96875 L 1468.75 307.539062 L 1469.296875 310.15625 L 1470.898438 317.34375 L 1472.617188 324.53125 L 1474.492188 331.679688 L 1476.523438 338.867188 L 1477.148438 340.820312 L 1478.789062 346.054688 L 1481.210938 353.203125 L 1483.828125 360.390625 L 1485.507812 364.648438 L 1486.679688 367.578125 L 1489.804688 374.765625 L 1493.125 381.914062 L 1496.796875 389.101562 L 1500.703125 396.289062 L 1502.226562 398.90625 L 1505.039062 403.4375 L 1509.6875 410.625 L 1514.765625 417.8125 L 1518.984375 423.320312 L 1526.445312 432.148438 L 1533.164062 439.335938 L 1535.742188 441.914062 L 1540.585938 446.523438 L 1544.101562 449.6875 L 1548.867188 453.710938 L 1552.460938 456.601562 L 1558.085938 460.859375 L 1560.859375 462.851562 L 1568.515625 468.046875 L 1577.578125 473.59375 L 1580.46875 475.234375 L 1585.9375 478.203125 L 1594.257812 482.382812 L 1602.695312 486.25 L 1610.664062 489.570312 L 1619.453125 492.890625 L 1627.8125 495.78125 L 1630.820312 496.757812 L 1636.171875 498.398438 L 1644.53125 500.78125 L 1652.929688 502.929688 L 1657.148438 503.945312 L 1661.289062 504.882812 L 1669.648438 506.601562 L 1678.046875 508.164062 L 1686.40625 509.53125 L 1694.765625 510.742188 L 1697.773438 511.09375 L 1703.164062 511.757812 L 1711.523438 512.617188 L 1719.882812 513.359375 L 1728.242188 513.90625 L 1736.640625 514.335938 L 1745 514.609375 L 1753.398438 514.765625 L 1761.757812 514.726562 L 1770.117188 514.570312 L 1778.476562 514.296875 L 1786.875 513.867188 L 1795.234375 513.28125 L 1803.59375 512.539062 L 1811.953125 511.640625 L 1816.171875 511.09375 L 1820.351562 510.585938 L 1828.710938 509.335938 L 1837.109375 507.96875 L 1845.46875 506.367188 L 1853.828125 504.609375 L 1856.835938 503.945312 L 1862.1875 502.65625 L 1870.585938 500.46875 L 1883.125 496.757812 L 1887.304688 495.390625 L 1895.664062 492.460938 L 1904.0625 489.257812 L 1912.421875 485.742188 L 1919.6875 482.382812 L 1929.179688 477.578125 L 1933.476562 475.234375 L 1937.539062 472.890625 L 1945.429688 468.046875 L 1955.859375 460.859375 L 1962.65625 455.703125 L 1965.117188 453.710938 L 1971.015625 448.632812 L 1979.375 440.78125 L 1987.539062 432.148438 L 1996.132812 421.835938 L 1999.179688 417.8125 L 2004.296875 410.625 L 2012.890625 396.914062 L 2017.1875 389.101562 L 2020.820312 381.914062 L 2024.140625 374.765625 L 2027.265625 367.578125 L 2029.609375 361.679688 L 2032.734375 353.203125 L 2035.15625 346.054688 L 2037.421875 338.867188 L 2038.007812 336.914062 L 2041.367188 324.53125 L 2043.085938 317.34375 L 2044.648438 310.15625 L 2046.09375 302.96875 L 2047.382812 295.820312 L 2048.554688 288.632812 L 2049.609375 281.445312 L 2050.507812 274.257812 L 2051.289062 267.109375 L 2051.992188 259.921875 L 2052.578125 252.734375 L 2053.046875 245.546875 L 2053.398438 238.398438 L 2053.632812 231.210938 L 2053.789062 224.023438 L 2053.828125 216.875 M -320.898438 216.875 L -320.859375 224.023438 L -320.742188 231.210938 L -320.46875 238.398438 L -320.117188 245.546875 L -319.648438 252.734375 L -319.101562 259.921875 L -318.398438 267.109375 L -317.617188 274.257812 L -316.679688 281.445312 L -315.664062 288.632812 L -314.492188 295.820312 L -313.203125 302.96875 L -311.757812 310.15625 L -310.195312 317.34375 L -308.4375 324.53125 L -306.5625 331.679688 L -305.9375 334.023438 L -304.53125 338.867188 L -302.265625 346.054688 L -299.84375 353.203125 L -297.539062 359.570312 L -294.375 367.578125 L -291.289062 374.765625 L -289.179688 379.296875 L -287.929688 381.914062 L -284.257812 389.101562 L -280.820312 395.46875 L -276.054688 403.4375 L -272.421875 409.0625 L -266.289062 417.8125 L -264.0625 420.78125 L -260.703125 425 L -255.703125 430.976562 L -247.929688 439.335938 L -240.46875 446.523438 L -232.226562 453.710938 L -222.96875 460.859375 L -213.828125 467.1875 L -205.46875 472.421875 L -200.585938 475.234375 L -197.109375 477.148438 L -188.710938 481.445312 L -186.757812 482.382812 L -180.351562 485.351562 L -171.992188 488.945312 L -163.59375 492.1875 L -155.234375 495.117188 L -150.234375 496.757812 L -146.875 497.8125 L -138.476562 500.234375 L -130.117188 502.460938 L -123.945312 503.945312 L -121.757812 504.453125 L -113.398438 506.210938 L -105 507.8125 L -96.640625 509.21875 L -88.28125 510.46875 L -83.28125 511.09375 L -79.882812 511.523438 L -71.523438 512.421875 L -63.164062 513.203125 L -54.804688 513.789062 L -46.40625 514.257812 L -38.046875 514.570312 L -29.6875 514.726562 L -21.289062 514.765625 L -12.929688 514.648438 L -4.570312 514.375 L 3.828125 513.984375 L 12.1875 513.398438 L 20.546875 512.695312 L 28.945312 511.875 L 35.15625 511.09375 L 37.304688 510.859375 L 45.664062 509.648438 L 54.023438 508.320312 L 62.421875 506.757812 L 70.78125 505.078125 L 75.742188 503.945312 L 79.140625 503.125 L 87.539062 501.015625 L 95.898438 498.632812 L 102.070312 496.757812 L 104.257812 496.054688 L 112.65625 493.203125 L 121.015625 490.078125 L 129.375 486.601562 L 137.734375 482.8125 L 146.132812 478.632812 L 154.492188 474.0625 L 162.851562 469.023438 L 171.25 463.4375 L 179.609375 457.265625 L 187.96875 450.390625 L 196.367188 442.695312 L 204.726562 434.101562 L 212.578125 425 L 221.445312 413.164062 L 223.203125 410.625 L 227.890625 403.4375 L 229.84375 400.273438 L 236.132812 389.101562 L 238.203125 385.039062 L 239.765625 381.914062 L 243.085938 374.765625 L 246.210938 367.578125 L 251.679688 353.203125 L 254.101562 346.054688 L 254.960938 343.4375 L 256.367188 338.867188 L 258.398438 331.679688 L 260.273438 324.53125 L 262.03125 317.34375 L 263.320312 311.523438 L 265.039062 302.96875 L 266.328125 295.820312 L 267.5 288.632812 L 268.515625 281.445312 L 269.453125 274.257812 L 270.234375 267.109375 L 270.9375 259.921875 L 271.523438 252.734375 L 271.679688 250.078125 L 272.34375 238.398438 L 272.578125 231.210938 L 272.734375 224.023438 L 272.773438 216.875 M 1460.15625 216.875 L 1460.195312 209.6875 L 1460.390625 202.5 L 1460.664062 195.3125 L 1461.054688 188.164062 L 1461.5625 180.976562 L 1462.148438 173.789062 L 1462.890625 166.601562 L 1463.710938 159.453125 L 1464.648438 152.265625 L 1465.742188 145.078125 L 1466.953125 137.929688 L 1468.28125 130.742188 L 1468.75 128.320312 L 1471.367188 116.367188 L 1473.164062 109.21875 L 1475.078125 102.03125 L 1477.148438 95.039062 L 1479.492188 87.695312 L 1481.992188 80.507812 L 1484.648438 73.320312 L 1485.507812 71.210938 L 1487.617188 66.132812 L 1490.78125 58.984375 L 1493.867188 52.421875 L 1497.929688 44.609375 L 1501.953125 37.421875 L 1506.367188 30.273438 L 1510.625 23.867188 L 1516.367188 15.898438 L 1518.984375 12.578125 L 1522.109375 8.75 L 1527.34375 2.65625 L 1535.273438 -5.625 L 1544.101562 -13.828125 L 1551.484375 -19.960938 L 1560.859375 -26.992188 L 1569.21875 -32.617188 L 1571.914062 -34.335938 L 1577.578125 -37.734375 L 1585.9375 -42.34375 L 1594.335938 -46.5625 L 1598.90625 -48.671875 L 1602.695312 -50.390625 L 1611.054688 -53.867188 L 1616.25 -55.859375 L 1619.453125 -57.03125 L 1627.8125 -59.921875 L 1636.171875 -62.539062 L 1644.53125 -64.921875 L 1652.929688 -67.070312 L 1661.289062 -69.023438 L 1669.648438 -70.742188 L 1686.40625 -73.671875 L 1694.765625 -74.882812 L 1703.164062 -75.898438 L 1711.523438 -76.757812 L 1718.632812 -77.382812 L 1728.242188 -78.046875 L 1736.640625 -78.476562 L 1745 -78.75 L 1753.398438 -78.90625 L 1761.757812 -78.867188 L 1778.476562 -78.4375 L 1786.875 -78.007812 L 1795.234375 -77.421875 L 1803.59375 -76.679688 L 1811.953125 -75.742188 L 1820.351562 -74.6875 L 1828.710938 -73.476562 L 1837.109375 -72.109375 L 1845.46875 -70.507812 L 1853.828125 -68.75 L 1862.1875 -66.796875 L 1870.585938 -64.609375 L 1876.09375 -63.046875 L 1878.945312 -62.1875 L 1887.304688 -59.53125 L 1895.664062 -56.601562 L 1897.695312 -55.859375 L 1904.0625 -53.398438 L 1912.421875 -49.882812 L 1915.078125 -48.671875 L 1920.78125 -45.976562 L 1929.179688 -41.757812 L 1937.539062 -37.03125 L 1942.03125 -34.335938 L 1945.898438 -31.875 L 1952.890625 -27.148438 L 1962.460938 -19.960938 L 1971.015625 -12.8125 L 1978.671875 -5.625 L 1985.585938 1.5625 L 1987.773438 3.984375 L 1991.835938 8.75 L 1996.132812 14.023438 L 1997.578125 15.898438 L 2002.8125 23.085938 L 2004.492188 25.585938 L 2007.578125 30.273438 L 2011.992188 37.421875 L 2016.015625 44.609375 L 2019.765625 51.796875 L 2021.25 54.84375 L 2023.203125 58.984375 L 2026.367188 66.132812 L 2029.296875 73.320312 L 2031.992188 80.507812 L 2034.453125 87.695312 L 2036.757812 94.84375 L 2038.007812 98.984375 L 2038.867188 102.03125 L 2040.78125 109.21875 L 2042.578125 116.367188 L 2044.21875 123.554688 L 2045.703125 130.742188 L 2047.03125 137.929688 L 2048.203125 145.078125 L 2049.296875 152.265625 L 2050.234375 159.453125 L 2051.09375 166.601562 L 2051.796875 173.789062 L 2052.382812 180.976562 L 2052.890625 188.164062 L 2053.28125 195.3125 L 2053.554688 202.5 L 2053.75 209.6875 L 2053.828125 216.875 M -320.898438 216.875 L -320.859375 209.6875 L -320.664062 202.5 L -320.390625 195.3125 L -320 188.164062 L -319.492188 180.976562 L -318.90625 173.789062 L -318.203125 166.601562 L -317.34375 159.453125 L -316.40625 152.265625 L -315.3125 145.078125 L -314.296875 138.828125 L -312.773438 130.742188 L -311.289062 123.554688 L -309.6875 116.367188 L -307.890625 109.21875 L -305.976562 102.03125 L -303.867188 94.84375 L -301.5625 87.695312 L -299.101562 80.507812 L -297.539062 76.328125 L -293.476562 66.132812 L -290.3125 58.984375 L -289.179688 56.5625 L -283.125 44.609375 L -280.820312 40.390625 L -279.101562 37.421875 L -274.6875 30.273438 L -272.421875 26.796875 L -264.6875 15.898438 L -258.945312 8.75 L -255.703125 4.921875 L -252.695312 1.5625 L -247.304688 -4.0625 L -238.945312 -12.070312 L -230.585938 -19.179688 L -222.1875 -25.585938 L -220 -27.148438 L -213.828125 -31.328125 L -209.101562 -34.335938 L -205.46875 -36.5625 L -197.109375 -41.289062 L -188.710938 -45.585938 L -182.1875 -48.671875 L -180.351562 -49.492188 L -171.992188 -53.046875 L -164.84375 -55.859375 L -155.234375 -59.257812 L -146.875 -61.953125 L -143.203125 -63.046875 L -138.476562 -64.375 L -130.117188 -66.5625 L -121.757812 -68.554688 L -114.101562 -70.195312 L -105 -71.953125 L -96.640625 -73.359375 L -88.28125 -74.609375 L -79.882812 -75.664062 L -71.523438 -76.5625 L -63.164062 -77.34375 L -54.804688 -77.929688 L -46.40625 -78.398438 L -29.6875 -78.867188 L -21.289062 -78.90625 L -12.929688 -78.789062 L -4.570312 -78.515625 L 3.828125 -78.125 L 12.1875 -77.578125 L 14.21875 -77.382812 L 28.945312 -75.976562 L 37.304688 -74.960938 L 45.664062 -73.789062 L 54.023438 -72.421875 L 62.421875 -70.898438 L 65.859375 -70.195312 L 70.78125 -69.179688 L 79.140625 -67.265625 L 87.539062 -65.15625 L 95.078125 -63.046875 L 104.257812 -60.195312 L 112.65625 -57.34375 L 116.640625 -55.859375 L 121.015625 -54.179688 L 129.375 -50.742188 L 133.984375 -48.671875 L 137.734375 -46.953125 L 146.132812 -42.773438 L 148.515625 -41.523438 L 154.492188 -38.203125 L 160.976562 -34.335938 L 162.851562 -33.164062 L 171.25 -27.578125 L 179.609375 -21.40625 L 181.40625 -19.960938 L 187.96875 -14.53125 L 189.921875 -12.8125 L 196.367188 -6.875 L 204.53125 1.5625 L 210.78125 8.75 L 213.085938 11.523438 L 216.523438 15.898438 L 221.445312 22.65625 L 226.523438 30.273438 L 229.84375 35.585938 L 230.9375 37.421875 L 234.960938 44.609375 L 238.203125 50.78125 L 242.109375 58.984375 L 245.3125 66.132812 L 246.5625 69.21875 L 248.242188 73.320312 L 250.898438 80.507812 L 253.398438 87.695312 L 254.960938 92.421875 L 255.703125 94.84375 L 257.8125 102.03125 L 259.726562 109.21875 L 261.523438 116.367188 L 263.164062 123.554688 L 264.609375 130.742188 L 265.9375 137.929688 L 267.148438 145.078125 L 268.242188 152.265625 L 269.179688 159.453125 L 270.039062 166.601562 L 270.742188 173.789062 L 271.367188 180.976562 L 271.679688 185.78125 L 271.835938 188.164062 L 272.226562 195.3125 L 272.5 202.5 L 272.695312 209.6875 L 272.773438 216.875 " transform="matrix(0.1,0,0,-0.1,0,181)"/>
<path style="fill:none;stroke-width:25;stroke-linecap:round;stroke-linejoin:round;stroke:rgb(30.200195%,57.617188%,30.200195%);stroke-opacity:1;stroke-miterlimit:10;" d="M 1868.828125 551.367188 L 592.65625 1827.539062 " transform="matrix(0.1,0,0,-0.1,0,181)"/>
<path style=" stroke:none;fill-rule:nonzero;fill:rgb(100%,0%,0%);fill-opacity:1;" d="M 110.660156 47.890625 C 110.660156 48.859375 109.875 49.644531 108.90625 49.644531 C 107.941406 49.644531 107.15625 48.859375 107.15625 47.890625 C 107.15625 46.921875 107.941406 46.136719 108.90625 46.136719 C 109.875 46.136719 110.660156 46.921875 110.660156 47.890625 "/>
<path style="fill:none;stroke-width:10;stroke-linecap:round;stroke-linejoin:round;stroke:rgb(0%,0%,0%);stroke-opacity:1;stroke-miterlimit:10;" d="M 1106.601562 1331.09375 C 1106.601562 1321.40625 1098.75 1313.554688 1089.0625 1313.554688 C 1079.414062 1313.554688 1071.5625 1321.40625 1071.5625 1331.09375 C 1071.5625 1340.78125 1079.414062 1348.632812 1089.0625 1348.632812 C 1098.75 1348.632812 1106.601562 1340.78125 1106.601562 1331.09375 Z M 1106.601562 1331.09375 " transform="matrix(0.1,0,0,-0.1,0,181)"/>
<path style=" stroke:none;fill-rule:nonzero;fill:rgb(100%,0%,0%);fill-opacity:1;" d="M 120.296875 50.144531 C 119.878906 49.796875 119.515625 49.394531 119.203125 48.945312 C 118.890625 48.496094 118.648438 48.007812 118.476562 47.488281 C 118.300781 46.96875 118.179688 46.429688 118.109375 45.875 C 118.039062 45.320312 118.007812 44.765625 118.007812 44.210938 C 118.007812 43.652344 118.039062 43.097656 118.109375 42.542969 C 118.179688 41.988281 118.300781 41.449219 118.476562 40.929688 C 118.648438 40.410156 118.890625 39.925781 119.203125 39.472656 C 119.515625 39.023438 119.878906 38.621094 120.296875 38.277344 C 120.296875 38.207031 120.296875 38.171875 120.296875 38.171875 L 120.398438 38.171875 C 120.46875 38.171875 120.503906 38.1875 120.503906 38.222656 C 120.503906 38.257812 120.503906 38.277344 120.503906 38.277344 C 120.089844 38.691406 119.757812 39.125 119.515625 39.578125 C 119.273438 40.027344 119.082031 40.515625 118.941406 41.035156 C 118.804688 41.554688 118.699219 42.074219 118.632812 42.597656 C 118.5625 43.117188 118.527344 43.652344 118.527344 44.210938 C 118.527344 44.765625 118.5625 45.300781 118.632812 45.824219 C 118.699219 46.34375 118.804688 46.863281 118.941406 47.382812 C 119.082031 47.90625 119.273438 48.390625 119.515625 48.839844 C 119.757812 49.292969 120.089844 49.726562 120.503906 50.144531 C 120.503906 50.144531 120.503906 50.160156 120.503906 50.195312 C 120.503906 50.230469 120.46875 50.246094 120.398438 50.246094 L 120.296875 50.246094 C 120.296875 50.246094 120.296875 50.210938 120.296875 50.144531 "/>
<path style=" stroke:none;fill-rule:nonzero;fill:rgb(100%,0%,0%);fill-opacity:1;" d="M 123.304688 38.875 L 122.890625 40.332031 C 122.820312 40.609375 122.785156 40.851562 122.785156 41.058594 C 122.714844 41.269531 122.644531 41.371094 122.574219 41.371094 C 122.507812 41.441406 122.4375 41.476562 122.367188 41.476562 C 122.300781 41.476562 122.265625 41.40625 122.265625 41.269531 C 122.265625 41.199219 122.265625 41.128906 122.265625 41.058594 C 122.679688 40.15625 122.957031 39.429688 123.097656 38.875 L 122.785156 38.875 C 122.4375 38.875 122.160156 39.046875 121.953125 39.394531 C 121.882812 39.464844 121.8125 39.496094 121.742188 39.496094 C 121.742188 39.496094 121.742188 39.464844 121.742188 39.394531 C 121.742188 39.324219 121.8125 39.1875 121.953125 38.976562 C 121.953125 38.976562 121.984375 38.941406 122.054688 38.875 C 122.054688 38.875 122.089844 38.839844 122.160156 38.769531 C 122.300781 38.5625 122.507812 38.457031 122.785156 38.457031 L 125.074219 38.457031 C 125.214844 38.457031 125.28125 38.492188 125.28125 38.5625 C 125.28125 38.632812 125.28125 38.664062 125.28125 38.664062 C 125.28125 38.804688 125.179688 38.875 124.96875 38.875 L 124.242188 38.875 C 124.171875 39.289062 124.136719 39.636719 124.136719 39.914062 C 124.136719 40.332031 124.207031 40.714844 124.347656 41.058594 C 124.347656 41.128906 124.347656 41.164062 124.347656 41.164062 C 124.347656 41.304688 124.277344 41.371094 124.136719 41.371094 C 124.136719 41.441406 124.101562 41.476562 124.035156 41.476562 C 123.964844 41.476562 123.894531 41.40625 123.824219 41.269531 C 123.824219 41.199219 123.824219 41.164062 123.824219 41.164062 C 123.824219 40.957031 123.824219 40.78125 123.824219 40.644531 C 123.824219 40.296875 123.859375 39.847656 123.929688 39.289062 L 124.035156 38.875 L 123.304688 38.875 "/>
<path style=" stroke:none;fill-rule:nonzero;fill:rgb(100%,0%,0%);fill-opacity:1;" d="M 121.535156 44.347656 L 125.332031 44.347656 L 125.332031 44.082031 L 121.535156 44.082031 Z M 121.535156 44.347656 "/>
<path style=" stroke:none;fill-rule:nonzero;fill:rgb(100%,0%,0%);fill-opacity:1;" d="M 124.785156 49.304688 L 124.578125 50.449219 L 122.082031 50.449219 C 122.082031 50.308594 122.117188 50.242188 122.183594 50.242188 L 123.433594 48.78125 C 123.921875 48.226562 124.164062 47.742188 124.164062 47.324219 C 124.164062 46.910156 124.023438 46.597656 123.746094 46.390625 C 123.605469 46.25 123.433594 46.179688 123.226562 46.179688 C 122.949219 46.179688 122.703125 46.320312 122.496094 46.597656 C 122.429688 46.667969 122.394531 46.769531 122.394531 46.910156 C 122.394531 46.910156 122.429688 46.910156 122.496094 46.910156 C 122.636719 46.910156 122.738281 46.980469 122.808594 47.117188 C 122.808594 47.1875 122.808594 47.222656 122.808594 47.222656 C 122.808594 47.429688 122.703125 47.535156 122.496094 47.535156 C 122.496094 47.605469 122.496094 47.636719 122.496094 47.636719 C 122.289062 47.636719 122.148438 47.570312 122.082031 47.429688 C 122.082031 47.359375 122.082031 47.289062 122.082031 47.222656 C 122.082031 46.875 122.21875 46.597656 122.496094 46.390625 C 122.703125 46.113281 122.984375 45.972656 123.328125 45.972656 C 123.816406 45.972656 124.195312 46.144531 124.476562 46.492188 C 124.613281 46.703125 124.71875 46.945312 124.785156 47.222656 C 124.785156 47.222656 124.785156 47.257812 124.785156 47.324219 C 124.785156 47.605469 124.648438 47.914062 124.371094 48.261719 C 124.230469 48.402344 124.023438 48.574219 123.746094 48.78125 L 123.433594 49.199219 L 123.328125 49.199219 L 122.601562 49.929688 L 123.851562 49.929688 C 124.195312 49.929688 124.40625 49.929688 124.476562 49.929688 C 124.476562 49.859375 124.511719 49.652344 124.578125 49.304688 L 124.785156 49.304688 "/>
<path style=" stroke:none;fill-rule:nonzero;fill:rgb(100%,0%,0%);fill-opacity:1;" d="M 128.597656 45.878906 C 128.597656 46.296875 128.457031 46.675781 128.179688 47.023438 C 128.109375 47.09375 128.039062 47.128906 127.972656 47.128906 C 127.972656 47.058594 127.972656 47.023438 127.972656 47.023438 C 128.25 46.746094 128.421875 46.398438 128.492188 45.984375 C 128.492188 45.984375 128.492188 45.949219 128.492188 45.878906 C 128.492188 45.808594 128.457031 45.773438 128.386719 45.773438 C 128.316406 45.84375 128.25 45.878906 128.179688 45.878906 C 128.039062 45.878906 127.9375 45.808594 127.867188 45.671875 C 127.867188 45.601562 127.867188 45.566406 127.867188 45.566406 C 127.867188 45.359375 127.902344 45.21875 127.972656 45.148438 C 128.039062 45.148438 128.109375 45.148438 128.179688 45.148438 C 128.386719 45.148438 128.527344 45.289062 128.597656 45.566406 C 128.597656 45.636719 128.597656 45.738281 128.597656 45.878906 "/>
<path style=" stroke:none;fill-rule:nonzero;fill:rgb(100%,0%,0%);fill-opacity:1;" d="M 133.511719 38.875 L 133.097656 40.332031 C 133.027344 40.609375 132.992188 40.851562 132.992188 41.058594 C 132.921875 41.269531 132.851562 41.371094 132.785156 41.371094 C 132.714844 41.441406 132.644531 41.476562 132.574219 41.476562 C 132.507812 41.476562 132.472656 41.40625 132.472656 41.269531 C 132.472656 41.199219 132.472656 41.128906 132.472656 41.058594 C 132.886719 40.15625 133.164062 39.429688 133.304688 38.875 L 132.992188 38.875 C 132.644531 38.875 132.367188 39.046875 132.160156 39.394531 C 132.089844 39.464844 132.019531 39.496094 131.949219 39.496094 C 131.949219 39.496094 131.949219 39.464844 131.949219 39.394531 C 131.949219 39.324219 132.019531 39.1875 132.160156 38.976562 C 132.160156 38.976562 132.195312 38.941406 132.261719 38.875 C 132.261719 38.875 132.296875 38.839844 132.367188 38.769531 C 132.507812 38.5625 132.714844 38.457031 132.992188 38.457031 L 135.28125 38.457031 C 135.421875 38.457031 135.488281 38.492188 135.488281 38.5625 C 135.488281 38.632812 135.488281 38.664062 135.488281 38.664062 C 135.488281 38.804688 135.386719 38.875 135.179688 38.875 L 134.449219 38.875 C 134.378906 39.289062 134.34375 39.636719 134.34375 39.914062 C 134.34375 40.332031 134.414062 40.714844 134.554688 41.058594 C 134.554688 41.128906 134.554688 41.164062 134.554688 41.164062 C 134.554688 41.304688 134.484375 41.371094 134.34375 41.371094 C 134.34375 41.441406 134.3125 41.476562 134.242188 41.476562 C 134.171875 41.476562 134.101562 41.40625 134.03125 41.269531 C 134.03125 41.199219 134.03125 41.164062 134.03125 41.164062 C 134.03125 40.957031 134.03125 40.78125 134.03125 40.644531 C 134.03125 40.296875 134.066406 39.847656 134.136719 39.289062 L 134.242188 38.875 L 133.511719 38.875 "/>
<path style=" stroke:none;fill-rule:nonzero;fill:rgb(100%,0%,0%);fill-opacity:1;" d="M 131.742188 44.347656 L 135.539062 44.347656 L 135.539062 44.082031 L 131.742188 44.082031 Z M 131.742188 44.347656 "/>
<path style=" stroke:none;fill-rule:nonzero;fill:rgb(100%,0%,0%);fill-opacity:1;" d="M 134.996094 49.304688 L 134.785156 50.449219 L 132.289062 50.449219 C 132.289062 50.308594 132.324219 50.242188 132.394531 50.242188 L 133.640625 48.78125 C 134.128906 48.226562 134.371094 47.742188 134.371094 47.324219 C 134.371094 46.910156 134.230469 46.597656 133.953125 46.390625 C 133.816406 46.25 133.640625 46.179688 133.433594 46.179688 C 133.15625 46.179688 132.914062 46.320312 132.703125 46.597656 C 132.636719 46.667969 132.601562 46.769531 132.601562 46.910156 C 132.601562 46.910156 132.636719 46.910156 132.703125 46.910156 C 132.84375 46.910156 132.949219 46.980469 133.015625 47.117188 C 133.015625 47.1875 133.015625 47.222656 133.015625 47.222656 C 133.015625 47.429688 132.914062 47.535156 132.703125 47.535156 C 132.703125 47.605469 132.703125 47.636719 132.703125 47.636719 C 132.496094 47.636719 132.359375 47.570312 132.289062 47.429688 C 132.289062 47.359375 132.289062 47.289062 132.289062 47.222656 C 132.289062 46.875 132.425781 46.597656 132.703125 46.390625 C 132.914062 46.113281 133.191406 45.972656 133.539062 45.972656 C 134.023438 45.972656 134.40625 46.144531 134.683594 46.492188 C 134.820312 46.703125 134.925781 46.945312 134.996094 47.222656 C 134.996094 47.222656 134.996094 47.257812 134.996094 47.324219 C 134.996094 47.605469 134.855469 47.914062 134.578125 48.261719 C 134.441406 48.402344 134.230469 48.574219 133.953125 48.78125 L 133.640625 49.199219 L 133.539062 49.199219 L 132.808594 49.929688 L 134.058594 49.929688 C 134.40625 49.929688 134.613281 49.929688 134.683594 49.929688 C 134.683594 49.859375 134.71875 49.652344 134.785156 49.304688 L 134.996094 49.304688 "/>
<path style=" stroke:none;fill-rule:nonzero;fill:rgb(100%,0%,0%);fill-opacity:1;" d="M 136.652344 50.246094 C 136.582031 50.246094 136.546875 50.210938 136.546875 50.144531 C 136.964844 49.726562 137.292969 49.292969 137.535156 48.839844 C 137.78125 48.390625 137.988281 47.90625 138.160156 47.382812 C 138.335938 46.863281 138.457031 46.34375 138.527344 45.824219 C 138.59375 45.300781 138.628906 44.765625 138.628906 44.210938 C 138.628906 43.652344 138.59375 43.097656 138.527344 42.542969 C 138.457031 41.988281 138.335938 41.46875 138.160156 40.980469 C 137.988281 40.496094 137.78125 40.027344 137.535156 39.578125 C 137.292969 39.125 136.964844 38.691406 136.546875 38.277344 C 136.546875 38.207031 136.582031 38.171875 136.652344 38.171875 L 136.757812 38.171875 C 136.757812 38.171875 136.789062 38.207031 136.859375 38.277344 C 137.277344 38.621094 137.621094 39.023438 137.902344 39.472656 C 138.179688 39.925781 138.402344 40.410156 138.578125 40.929688 C 138.75 41.449219 138.890625 41.988281 138.992188 42.542969 C 139.097656 43.097656 139.148438 43.652344 139.148438 44.210938 C 139.148438 44.765625 139.097656 45.320312 138.992188 45.875 C 138.890625 46.429688 138.75 46.96875 138.578125 47.488281 C 138.402344 48.007812 138.179688 48.496094 137.902344 48.945312 C 137.621094 49.394531 137.277344 49.796875 136.859375 50.144531 C 136.789062 50.210938 136.757812 50.246094 136.757812 50.246094 L 136.652344 50.246094 "/>
</g>
</svg>
