<?xml version="1.0" encoding="UTF-8"?>
<svg xmlns="http://www.w3.org/2000/svg" xmlns:xlink="http://www.w3.org/1999/xlink" width="244pt" height="214pt" viewBox="0 0 244 214" version="1.1">
<g id="surface1">
<rect x="0" y="0" width="244" height="214" style="fill:rgb(100%,100%,100%);fill-opacity:1;stroke:none;"/>
<path style="fill:none;stroke-width:10;stroke-linecap:round;stroke-linejoin:round;stroke:rgb(75.389099%,75.389099%,75.389099%);stroke-opacity:1;stroke-miterlimit:10;" d="M 79.375 2542.539062 L 79.375 -116.367188 " transform="matrix(0.1,0,0,-0.1,0,214)"/>
<path style="fill:none;stroke-width:10;stroke-linecap:round;stroke-linejoin:round;stroke:rgb(75.389099%,75.389099%,75.389099%);stroke-opacity:1;stroke-miterlimit:10;" d="M 362.851562 2542.539062 L 362.851562 -116.367188 " transform="matrix(0.1,0,0,-0.1,0,214)"/>
<path style="fill:none;stroke-width:10;stroke-linecap:round;stroke-linejoin:round;stroke:rgb(75.389099%,75.389099%,75.389099%);stroke-opacity:1;stroke-miterlimit:10;" d="M 646.289062 2542.539062 L 646.289062 -116.367188 " transform="matrix(0.1,0,0,-0.1,0,214)"/>
<path style="fill:none;stroke-width:10;stroke-linecap:round;stroke-linejoin:round;stroke:rgb(75.389099%,75.389099%,75.389099%);stroke-opacity:1;stroke-miterlimit:10;" d="M 929.765625 2542.539062 L 929.765625 -116.367188 " transform="matrix(0.1,0,0,-0.1,0,214)"/>
<path style="fill:none;stroke-width:10;stroke-linecap:round;stroke-linejoin:round;stroke:rgb(75.389099%,75.389099%,75.389099%);stroke-opacity:1;stroke-miterlimit:10;" d="M 1496.679688 2542.539062 L 1496.679688 -116.367188 " transform="matrix(0.1,0,0,-0.1,0,214)"/>
<path style="fill:none;stroke-width:10;stroke-linecap:round;stroke-linejoin:round;stroke:rgb(75.389099%,75.389099%,75.389099%);stroke-opacity:1;stroke-miterlimit:10;" d="M 1780.15625 2542.539062 L 1780.15625 -116.367188 " transform="matrix(0.1,0,0,-0.1,0,214)"/>
<path style="fill:none;stroke-width:10;stroke-linecap:round;stroke-linejoin:round;stroke:rgb(75.389099%,75.389099%,75.389099%);stroke-opacity:1;stroke-miterlimit:10;" d="M 2063.632812 2542.539062 L 2063.632812 -116.367188 " transform="matrix(0.1,0,0,-0.1,0,214)"/>
<path style="fill:none;stroke-width:10;stroke-linecap:round;stroke-linejoin:round;stroke:rgb(75.389099%,75.389099%,75.389099%);stroke-opacity:1;stroke-miterlimit:10;" d="M 2347.109375 2542.539062 L 2347.109375 -116.367188 " transform="matrix(0.1,0,0,-0.1,0,214)"/>
<path style="fill:none;stroke-width:10;stroke-linecap:round;stroke-linejoin:round;stroke:rgb(94.139099%,94.139099%,94.139099%);stroke-opacity:1;stroke-miterlimit:10;" d="M 22.695312 2542.539062 L 22.695312 -116.367188 " transform="matrix(0.1,0,0,-0.1,0,214)"/>
<path style="fill:none;stroke-width:10;stroke-linecap:round;stroke-linejoin:round;stroke:rgb(94.139099%,94.139099%,94.139099%);stroke-opacity:1;stroke-miterlimit:10;" d="M 136.054688 2542.539062 L 136.054688 -116.367188 " transform="matrix(0.1,0,0,-0.1,0,214)"/>
<path style="fill:none;stroke-width:10;stroke-linecap:round;stroke-linejoin:round;stroke:rgb(94.139099%,94.139099%,94.139099%);stroke-opacity:1;stroke-miterlimit:10;" d="M 192.773438 2542.539062 L 192.773438 -116.367188 " transform="matrix(0.1,0,0,-0.1,0,214)"/>
<path style="fill:none;stroke-width:10;stroke-linecap:round;stroke-linejoin:round;stroke:rgb(94.139099%,94.139099%,94.139099%);stroke-opacity:1;stroke-miterlimit:10;" d="M 249.453125 2542.539062 L 249.453125 -116.367188 " transform="matrix(0.1,0,0,-0.1,0,214)"/>
<path style="fill:none;stroke-width:10;stroke-linecap:round;stroke-linejoin:round;stroke:rgb(94.139099%,94.139099%,94.139099%);stroke-opacity:1;stroke-miterlimit:10;" d="M 306.132812 2542.539062 L 306.132812 -116.367188 " transform="matrix(0.1,0,0,-0.1,0,214)"/>
<path style="fill:none;stroke-width:10;stroke-linecap:round;stroke-linejoin:round;stroke:rgb(94.139099%,94.139099%,94.139099%);stroke-opacity:1;stroke-miterlimit:10;" d="M 419.53125 2542.539062 L 419.53125 -116.367188 " transform="matrix(0.1,0,0,-0.1,0,214)"/>
<path style="fill:none;stroke-width:10;stroke-linecap:round;stroke-linejoin:round;stroke:rgb(94.139099%,94.139099%,94.139099%);stroke-opacity:1;stroke-miterlimit:10;" d="M 476.210938 2542.539062 L 476.210938 -116.367188 " transform="matrix(0.1,0,0,-0.1,0,214)"/>
<path style="fill:none;stroke-width:10;stroke-linecap:round;stroke-linejoin:round;stroke:rgb(94.139099%,94.139099%,94.139099%);stroke-opacity:1;stroke-miterlimit:10;" d="M 532.929688 2542.539062 L 532.929688 -116.367188 " transform="matrix(0.1,0,0,-0.1,0,214)"/>
<path style="fill:none;stroke-width:10;stroke-linecap:round;stroke-linejoin:round;stroke:rgb(94.139099%,94.139099%,94.139099%);stroke-opacity:1;stroke-miterlimit:10;" d="M 589.609375 2542.539062 L 589.609375 -116.367188 " transform="matrix(0.1,0,0,-0.1,0,214)"/>
<path style="fill:none;stroke-width:10;stroke-linecap:round;stroke-linejoin:round;stroke:rgb(94.139099%,94.139099%,94.139099%);stroke-opacity:1;stroke-miterlimit:10;" d="M 703.007812 2542.539062 L 703.007812 -116.367188 " transform="matrix(0.1,0,0,-0.1,0,214)"/>
<path style="fill:none;stroke-width:10;stroke-linecap:round;stroke-linejoin:round;stroke:rgb(94.139099%,94.139099%,94.139099%);stroke-opacity:1;stroke-miterlimit:10;" d="M 759.6875 2542.539062 L 759.6875 -116.367188 " transform="matrix(0.1,0,0,-0.1,0,214)"/>
<path style="fill:none;stroke-width:10;stroke-linecap:round;stroke-linejoin:round;stroke:rgb(94.139099%,94.139099%,94.139099%);stroke-opacity:1;stroke-miterlimit:10;" d="M 816.367188 2542.539062 L 816.367188 -116.367188 " transform="matrix(0.1,0,0,-0.1,0,214)"/>
<path style="fill:none;stroke-width:10;stroke-linecap:round;stroke-linejoin:round;stroke:rgb(94.139099%,94.139099%,94.139099%);stroke-opacity:1;stroke-miterlimit:10;" d="M 873.085938 2542.539062 L 873.085938 -116.367188 " transform="matrix(0.1,0,0,-0.1,0,214)"/>
<path style="fill:none;stroke-width:10;stroke-linecap:round;stroke-linejoin:round;stroke:rgb(94.139099%,94.139099%,94.139099%);stroke-opacity:1;stroke-miterlimit:10;" d="M 986.445312 2542.539062 L 986.445312 -116.367188 " transform="matrix(0.1,0,0,-0.1,0,214)"/>
<path style="fill:none;stroke-width:10;stroke-linecap:round;stroke-linejoin:round;stroke:rgb(94.139099%,94.139099%,94.139099%);stroke-opacity:1;stroke-miterlimit:10;" d="M 1043.164062 2542.539062 L 1043.164062 -116.367188 " transform="matrix(0.1,0,0,-0.1,0,214)"/>
<path style="fill:none;stroke-width:10;stroke-linecap:round;stroke-linejoin:round;stroke:rgb(94.139099%,94.139099%,94.139099%);stroke-opacity:1;stroke-miterlimit:10;" d="M 1099.84375 2542.539062 L 1099.84375 -116.367188 " transform="matrix(0.1,0,0,-0.1,0,214)"/>
<path style="fill:none;stroke-width:10;stroke-linecap:round;stroke-linejoin:round;stroke:rgb(94.139099%,94.139099%,94.139099%);stroke-opacity:1;stroke-miterlimit:10;" d="M 1156.523438 2542.539062 L 1156.523438 -116.367188 " transform="matrix(0.1,0,0,-0.1,0,214)"/>
<path style="fill:none;stroke-width:10;stroke-linecap:round;stroke-linejoin:round;stroke:rgb(94.139099%,94.139099%,94.139099%);stroke-opacity:1;stroke-miterlimit:10;" d="M 1269.921875 2542.539062 L 1269.921875 -116.367188 " transform="matrix(0.1,0,0,-0.1,0,214)"/>
<path style="fill:none;stroke-width:10;stroke-linecap:round;stroke-linejoin:round;stroke:rgb(94.139099%,94.139099%,94.139099%);stroke-opacity:1;stroke-miterlimit:10;" d="M 1326.601562 2542.539062 L 1326.601562 -116.367188 " transform="matrix(0.1,0,0,-0.1,0,214)"/>
<path style="fill:none;stroke-width:10;stroke-linecap:round;stroke-linejoin:round;stroke:rgb(94.139099%,94.139099%,94.139099%);stroke-opacity:1;stroke-miterlimit:10;" d="M 1383.320312 2542.539062 L 1383.320312 -116.367188 " transform="matrix(0.1,0,0,-0.1,0,214)"/>
<path style="fill:none;stroke-width:10;stroke-linecap:round;stroke-linejoin:round;stroke:rgb(94.139099%,94.139099%,94.139099%);stroke-opacity:1;stroke-miterlimit:10;" d="M 1440 2542.539062 L 1440 -116.367188 " transform="matrix(0.1,0,0,-0.1,0,214)"/>
<path style="fill:none;stroke-width:10;stroke-linecap:round;stroke-linejoin:round;stroke:rgb(94.139099%,94.139099%,94.139099%);stroke-opacity:1;stroke-miterlimit:10;" d="M 1553.398438 2542.539062 L 1553.398438 -116.367188 " transform="matrix(0.1,0,0,-0.1,0,214)"/>
<path style="fill:none;stroke-width:10;stroke-linecap:round;stroke-linejoin:round;stroke:rgb(94.139099%,94.139099%,94.139099%);stroke-opacity:1;stroke-miterlimit:10;" d="M 1610.078125 2542.539062 L 1610.078125 -116.367188 " transform="matrix(0.1,0,0,-0.1,0,214)"/>
<path style="fill:none;stroke-width:10;stroke-linecap:round;stroke-linejoin:round;stroke:rgb(94.139099%,94.139099%,94.139099%);stroke-opacity:1;stroke-miterlimit:10;" d="M 1666.757812 2542.539062 L 1666.757812 -116.367188 " transform="matrix(0.1,0,0,-0.1,0,214)"/>
<path style="fill:none;stroke-width:10;stroke-linecap:round;stroke-linejoin:round;stroke:rgb(94.139099%,94.139099%,94.139099%);stroke-opacity:1;stroke-miterlimit:10;" d="M 1723.476562 2542.539062 L 1723.476562 -116.367188 " transform="matrix(0.1,0,0,-0.1,0,214)"/>
<path style="fill:none;stroke-width:10;stroke-linecap:round;stroke-linejoin:round;stroke:rgb(94.139099%,94.139099%,94.139099%);stroke-opacity:1;stroke-miterlimit:10;" d="M 1836.835938 2542.539062 L 1836.835938 -116.367188 " transform="matrix(0.1,0,0,-0.1,0,214)"/>
<path style="fill:none;stroke-width:10;stroke-linecap:round;stroke-linejoin:round;stroke:rgb(94.139099%,94.139099%,94.139099%);stroke-opacity:1;stroke-miterlimit:10;" d="M 1893.554688 2542.539062 L 1893.554688 -116.367188 " transform="matrix(0.1,0,0,-0.1,0,214)"/>
<path style="fill:none;stroke-width:10;stroke-linecap:round;stroke-linejoin:round;stroke:rgb(94.139099%,94.139099%,94.139099%);stroke-opacity:1;stroke-miterlimit:10;" d="M 1950.234375 2542.539062 L 1950.234375 -116.367188 " transform="matrix(0.1,0,0,-0.1,0,214)"/>
<path style="fill:none;stroke-width:10;stroke-linecap:round;stroke-linejoin:round;stroke:rgb(94.139099%,94.139099%,94.139099%);stroke-opacity:1;stroke-miterlimit:10;" d="M 2006.914062 2542.539062 L 2006.914062 -116.367188 " transform="matrix(0.1,0,0,-0.1,0,214)"/>
<path style="fill:none;stroke-width:10;stroke-linecap:round;stroke-linejoin:round;stroke:rgb(94.139099%,94.139099%,94.139099%);stroke-opacity:1;stroke-miterlimit:10;" d="M 2120.3125 2542.539062 L 2120.3125 -116.367188 " transform="matrix(0.1,0,0,-0.1,0,214)"/>
<path style="fill:none;stroke-width:10;stroke-linecap:round;stroke-linejoin:round;stroke:rgb(94.139099%,94.139099%,94.139099%);stroke-opacity:1;stroke-miterlimit:10;" d="M 2176.992188 2542.539062 L 2176.992188 -116.367188 " transform="matrix(0.1,0,0,-0.1,0,214)"/>
<path style="fill:none;stroke-width:10;stroke-linecap:round;stroke-linejoin:round;stroke:rgb(94.139099%,94.139099%,94.139099%);stroke-opacity:1;stroke-miterlimit:10;" d="M 2233.710938 2542.539062 L 2233.710938 -116.367188 " transform="matrix(0.1,0,0,-0.1,0,214)"/>
<path style="fill:none;stroke-width:10;stroke-linecap:round;stroke-linejoin:round;stroke:rgb(94.139099%,94.139099%,94.139099%);stroke-opacity:1;stroke-miterlimit:10;" d="M 2290.390625 2542.539062 L 2290.390625 -116.367188 " transform="matrix(0.1,0,0,-0.1,0,214)"/>
<path style="fill:none;stroke-width:10;stroke-linecap:round;stroke-linejoin:round;stroke:rgb(94.139099%,94.139099%,94.139099%);stroke-opacity:1;stroke-miterlimit:10;" d="M 2403.789062 2542.539062 L 2403.789062 -116.367188 " transform="matrix(0.1,0,0,-0.1,0,214)"/>
<path style="fill:none;stroke-width:10;stroke-linecap:round;stroke-linejoin:round;stroke:rgb(75.389099%,75.389099%,75.389099%);stroke-opacity:1;stroke-miterlimit:10;" d="M -379.84375 2060.625 L 2658.90625 2060.625 " transform="matrix(0.1,0,0,-0.1,0,214)"/>
<path style="fill:none;stroke-width:10;stroke-linecap:round;stroke-linejoin:round;stroke:rgb(75.389099%,75.389099%,75.389099%);stroke-opacity:1;stroke-miterlimit:10;" d="M -379.84375 1777.148438 L 2658.90625 1777.148438 " transform="matrix(0.1,0,0,-0.1,0,214)"/>
<path style="fill:none;stroke-width:10;stroke-linecap:round;stroke-linejoin:round;stroke:rgb(75.389099%,75.389099%,75.389099%);stroke-opacity:1;stroke-miterlimit:10;" d="M -379.84375 1493.710938 L 2658.90625 1493.710938 " transform="matrix(0.1,0,0,-0.1,0,214)"/>
<path style="fill:none;stroke-width:10;stroke-linecap:round;stroke-linejoin:round;stroke:rgb(75.389099%,75.389099%,75.389099%);stroke-opacity:1;stroke-miterlimit:10;" d="M -379.84375 1210.234375 L 2658.90625 1210.234375 " transform="matrix(0.1,0,0,-0.1,0,214)"/>
<path style="fill:none;stroke-width:10;stroke-linecap:round;stroke-linejoin:round;stroke:rgb(75.389099%,75.389099%,75.389099%);stroke-opacity:1;stroke-miterlimit:10;" d="M -379.84375 926.757812 L 2658.90625 926.757812 " transform="matrix(0.1,0,0,-0.1,0,214)"/>
<path style="fill:none;stroke-width:10;stroke-linecap:round;stroke-linejoin:round;stroke:rgb(75.389099%,75.389099%,75.389099%);stroke-opacity:1;stroke-miterlimit:10;" d="M -379.84375 643.320312 L 2658.90625 643.320312 " transform="matrix(0.1,0,0,-0.1,0,214)"/>
<path style="fill:none;stroke-width:10;stroke-linecap:round;stroke-linejoin:round;stroke:rgb(75.389099%,75.389099%,75.389099%);stroke-opacity:1;stroke-miterlimit:10;" d="M -379.84375 76.367188 L 2658.90625 76.367188 " transform="matrix(0.1,0,0,-0.1,0,214)"/>
<path style="fill:none;stroke-width:10;stroke-linecap:round;stroke-linejoin:round;stroke:rgb(94.139099%,94.139099%,94.139099%);stroke-opacity:1;stroke-miterlimit:10;" d="M -379.84375 2117.304688 L 2658.90625 2117.304688 " transform="matrix(0.1,0,0,-0.1,0,214)"/>
<path style="fill:none;stroke-width:10;stroke-linecap:round;stroke-linejoin:round;stroke:rgb(94.139099%,94.139099%,94.139099%);stroke-opacity:1;stroke-miterlimit:10;" d="M -379.84375 2003.945312 L 2658.90625 2003.945312 " transform="matrix(0.1,0,0,-0.1,0,214)"/>
<path style="fill:none;stroke-width:10;stroke-linecap:round;stroke-linejoin:round;stroke:rgb(94.139099%,94.139099%,94.139099%);stroke-opacity:1;stroke-miterlimit:10;" d="M -379.84375 1947.265625 L 2658.90625 1947.265625 " transform="matrix(0.1,0,0,-0.1,0,214)"/>
<path style="fill:none;stroke-width:10;stroke-linecap:round;stroke-linejoin:round;stroke:rgb(94.139099%,94.139099%,94.139099%);stroke-opacity:1;stroke-miterlimit:10;" d="M -379.84375 1890.546875 L 2658.90625 1890.546875 " transform="matrix(0.1,0,0,-0.1,0,214)"/>
<path style="fill:none;stroke-width:10;stroke-linecap:round;stroke-linejoin:round;stroke:rgb(94.139099%,94.139099%,94.139099%);stroke-opacity:1;stroke-miterlimit:10;" d="M -379.84375 1833.867188 L 2658.90625 1833.867188 " transform="matrix(0.1,0,0,-0.1,0,214)"/>
<path style="fill:none;stroke-width:10;stroke-linecap:round;stroke-linejoin:round;stroke:rgb(94.139099%,94.139099%,94.139099%);stroke-opacity:1;stroke-miterlimit:10;" d="M -379.84375 1720.46875 L 2658.90625 1720.46875 " transform="matrix(0.1,0,0,-0.1,0,214)"/>
<path style="fill:none;stroke-width:10;stroke-linecap:round;stroke-linejoin:round;stroke:rgb(94.139099%,94.139099%,94.139099%);stroke-opacity:1;stroke-miterlimit:10;" d="M -379.84375 1663.789062 L 2658.90625 1663.789062 " transform="matrix(0.1,0,0,-0.1,0,214)"/>
<path style="fill:none;stroke-width:10;stroke-linecap:round;stroke-linejoin:round;stroke:rgb(94.139099%,94.139099%,94.139099%);stroke-opacity:1;stroke-miterlimit:10;" d="M -379.84375 1607.109375 L 2658.90625 1607.109375 " transform="matrix(0.1,0,0,-0.1,0,214)"/>
<path style="fill:none;stroke-width:10;stroke-linecap:round;stroke-linejoin:round;stroke:rgb(94.139099%,94.139099%,94.139099%);stroke-opacity:1;stroke-miterlimit:10;" d="M -379.84375 1550.390625 L 2658.90625 1550.390625 " transform="matrix(0.1,0,0,-0.1,0,214)"/>
<path style="fill:none;stroke-width:10;stroke-linecap:round;stroke-linejoin:round;stroke:rgb(94.139099%,94.139099%,94.139099%);stroke-opacity:1;stroke-miterlimit:10;" d="M -379.84375 1436.992188 L 2658.90625 1436.992188 " transform="matrix(0.1,0,0,-0.1,0,214)"/>
<path style="fill:none;stroke-width:10;stroke-linecap:round;stroke-linejoin:round;stroke:rgb(94.139099%,94.139099%,94.139099%);stroke-opacity:1;stroke-miterlimit:10;" d="M -379.84375 1380.3125 L 2658.90625 1380.3125 " transform="matrix(0.1,0,0,-0.1,0,214)"/>
<path style="fill:none;stroke-width:10;stroke-linecap:round;stroke-linejoin:round;stroke:rgb(94.139099%,94.139099%,94.139099%);stroke-opacity:1;stroke-miterlimit:10;" d="M -379.84375 1323.632812 L 2658.90625 1323.632812 " transform="matrix(0.1,0,0,-0.1,0,214)"/>
<path style="fill:none;stroke-width:10;stroke-linecap:round;stroke-linejoin:round;stroke:rgb(94.139099%,94.139099%,94.139099%);stroke-opacity:1;stroke-miterlimit:10;" d="M -379.84375 1266.914062 L 2658.90625 1266.914062 " transform="matrix(0.1,0,0,-0.1,0,214)"/>
<path style="fill:none;stroke-width:10;stroke-linecap:round;stroke-linejoin:round;stroke:rgb(94.139099%,94.139099%,94.139099%);stroke-opacity:1;stroke-miterlimit:10;" d="M -379.84375 1153.554688 L 2658.90625 1153.554688 " transform="matrix(0.1,0,0,-0.1,0,214)"/>
<path style="fill:none;stroke-width:10;stroke-linecap:round;stroke-linejoin:round;stroke:rgb(94.139099%,94.139099%,94.139099%);stroke-opacity:1;stroke-miterlimit:10;" d="M -379.84375 1096.835938 L 2658.90625 1096.835938 " transform="matrix(0.1,0,0,-0.1,0,214)"/>
<path style="fill:none;stroke-width:10;stroke-linecap:round;stroke-linejoin:round;stroke:rgb(94.139099%,94.139099%,94.139099%);stroke-opacity:1;stroke-miterlimit:10;" d="M -379.84375 1040.15625 L 2658.90625 1040.15625 " transform="matrix(0.1,0,0,-0.1,0,214)"/>
<path style="fill:none;stroke-width:10;stroke-linecap:round;stroke-linejoin:round;stroke:rgb(94.139099%,94.139099%,94.139099%);stroke-opacity:1;stroke-miterlimit:10;" d="M -379.84375 983.476562 L 2658.90625 983.476562 " transform="matrix(0.1,0,0,-0.1,0,214)"/>
<path style="fill:none;stroke-width:10;stroke-linecap:round;stroke-linejoin:round;stroke:rgb(94.139099%,94.139099%,94.139099%);stroke-opacity:1;stroke-miterlimit:10;" d="M -379.84375 870.078125 L 2658.90625 870.078125 " transform="matrix(0.1,0,0,-0.1,0,214)"/>
<path style="fill:none;stroke-width:10;stroke-linecap:round;stroke-linejoin:round;stroke:rgb(94.139099%,94.139099%,94.139099%);stroke-opacity:1;stroke-miterlimit:10;" d="M -379.84375 813.398438 L 2658.90625 813.398438 " transform="matrix(0.1,0,0,-0.1,0,214)"/>
<path style="fill:none;stroke-width:10;stroke-linecap:round;stroke-linejoin:round;stroke:rgb(94.139099%,94.139099%,94.139099%);stroke-opacity:1;stroke-miterlimit:10;" d="M -379.84375 756.679688 L 2658.90625 756.679688 " transform="matrix(0.1,0,0,-0.1,0,214)"/>
<path style="fill:none;stroke-width:10;stroke-linecap:round;stroke-linejoin:round;stroke:rgb(94.139099%,94.139099%,94.139099%);stroke-opacity:1;stroke-miterlimit:10;" d="M -379.84375 700 L 2658.90625 700 " transform="matrix(0.1,0,0,-0.1,0,214)"/>
<path style="fill:none;stroke-width:10;stroke-linecap:round;stroke-linejoin:round;stroke:rgb(94.139099%,94.139099%,94.139099%);stroke-opacity:1;stroke-miterlimit:10;" d="M -379.84375 586.601562 L 2658.90625 586.601562 " transform="matrix(0.1,0,0,-0.1,0,214)"/>
<path style="fill:none;stroke-width:10;stroke-linecap:round;stroke-linejoin:round;stroke:rgb(94.139099%,94.139099%,94.139099%);stroke-opacity:1;stroke-miterlimit:10;" d="M -379.84375 529.921875 L 2658.90625 529.921875 " transform="matrix(0.1,0,0,-0.1,0,214)"/>
<path style="fill:none;stroke-width:10;stroke-linecap:round;stroke-linejoin:round;stroke:rgb(94.139099%,94.139099%,94.139099%);stroke-opacity:1;stroke-miterlimit:10;" d="M -379.84375 473.242188 L 2658.90625 473.242188 " transform="matrix(0.1,0,0,-0.1,0,214)"/>
<path style="fill:none;stroke-width:10;stroke-linecap:round;stroke-linejoin:round;stroke:rgb(94.139099%,94.139099%,94.139099%);stroke-opacity:1;stroke-miterlimit:10;" d="M -379.84375 416.523438 L 2658.90625 416.523438 " transform="matrix(0.1,0,0,-0.1,0,214)"/>
<path style="fill:none;stroke-width:10;stroke-linecap:round;stroke-linejoin:round;stroke:rgb(94.139099%,94.139099%,94.139099%);stroke-opacity:1;stroke-miterlimit:10;" d="M -379.84375 303.164062 L 2658.90625 303.164062 " transform="matrix(0.1,0,0,-0.1,0,214)"/>
<path style="fill:none;stroke-width:10;stroke-linecap:round;stroke-linejoin:round;stroke:rgb(94.139099%,94.139099%,94.139099%);stroke-opacity:1;stroke-miterlimit:10;" d="M -379.84375 246.445312 L 2658.90625 246.445312 " transform="matrix(0.1,0,0,-0.1,0,214)"/>
<path style="fill:none;stroke-width:10;stroke-linecap:round;stroke-linejoin:round;stroke:rgb(94.139099%,94.139099%,94.139099%);stroke-opacity:1;stroke-miterlimit:10;" d="M -379.84375 189.765625 L 2658.90625 189.765625 " transform="matrix(0.1,0,0,-0.1,0,214)"/>
<path style="fill:none;stroke-width:10;stroke-linecap:round;stroke-linejoin:round;stroke:rgb(94.139099%,94.139099%,94.139099%);stroke-opacity:1;stroke-miterlimit:10;" d="M -379.84375 133.085938 L 2658.90625 133.085938 " transform="matrix(0.1,0,0,-0.1,0,214)"/>
<path style="fill:none;stroke-width:10;stroke-linecap:round;stroke-linejoin:round;stroke:rgb(94.139099%,94.139099%,94.139099%);stroke-opacity:1;stroke-miterlimit:10;" d="M -379.84375 19.6875 L 2658.90625 19.6875 " transform="matrix(0.1,0,0,-0.1,0,214)"/>
<path style="fill:none;stroke-width:10;stroke-linecap:butt;stroke-linejoin:miter;stroke:rgb(0%,0%,0%);stroke-opacity:1;stroke-miterlimit:10;" d="M 1213.242188 2531.171875 L 1213.242188 -116.367188 " transform="matrix(0.1,0,0,-0.1,0,214)"/>
<path style="fill:none;stroke-width:10;stroke-linecap:butt;stroke-linejoin:miter;stroke:rgb(0%,0%,0%);stroke-opacity:1;stroke-miterlimit:10;" d="M -379.84375 359.84375 L 2647.578125 359.84375 " transform="matrix(0.1,0,0,-0.1,0,214)"/>
<path style=" stroke:none;fill-rule:nonzero;fill:rgb(0%,0%,0%);fill-opacity:1;" d="M 5.449219 185.28125 L 5.449219 184.832031 L 8.15625 184.832031 L 8.15625 185.28125 Z M 11.066406 187.085938 L 11.066406 185.695312 L 8.851562 185.695312 L 8.851562 185.199219 L 11.066406 182.171875 L 11.679688 182.171875 L 11.679688 185.160156 L 12.335938 185.160156 L 12.335938 185.695312 L 11.679688 185.695312 L 11.679688 187.085938 Z M 9.492188 185.160156 L 11.109375 185.160156 L 11.109375 182.972656 "/>
<path style=" stroke:none;fill-rule:nonzero;fill:rgb(0%,0%,0%);fill-opacity:1;" d="M 33.796875 185.28125 L 33.796875 184.832031 L 36.5 184.832031 L 36.5 185.28125 Z M 37.542969 187.050781 L 37.542969 186.4375 C 38.011719 186.625 38.378906 186.71875 38.652344 186.71875 C 38.964844 186.71875 39.21875 186.625 39.414062 186.445312 C 39.609375 186.261719 39.707031 186.023438 39.707031 185.734375 C 39.707031 185.042969 39.222656 184.699219 38.253906 184.699219 L 37.996094 184.699219 L 37.996094 184.257812 L 38.226562 184.253906 C 39.132812 184.253906 39.585938 183.933594 39.585938 183.292969 C 39.585938 182.789062 39.289062 182.539062 38.691406 182.539062 C 38.363281 182.539062 38.003906 182.632812 37.609375 182.816406 L 37.609375 182.242188 C 37.996094 182.113281 38.371094 182.046875 38.738281 182.046875 C 39.742188 182.046875 40.246094 182.425781 40.246094 183.1875 C 40.246094 183.765625 39.902344 184.175781 39.21875 184.421875 C 40.011719 184.605469 40.40625 185.039062 40.40625 185.722656 C 40.40625 186.1875 40.253906 186.550781 39.949219 186.8125 C 39.644531 187.078125 39.222656 187.210938 38.691406 187.210938 C 38.386719 187.210938 38.003906 187.15625 37.542969 187.050781 "/>
<path style=" stroke:none;fill-rule:nonzero;fill:rgb(0%,0%,0%);fill-opacity:1;" d="M 62.144531 185.28125 L 62.144531 184.832031 L 64.847656 184.832031 L 64.847656 185.28125 Z M 65.761719 187.085938 L 65.761719 186.511719 C 65.953125 186.066406 66.335938 185.582031 66.917969 185.058594 L 67.292969 184.722656 C 67.777344 184.285156 68.015625 183.851562 68.015625 183.421875 C 68.015625 183.148438 67.933594 182.933594 67.769531 182.773438 C 67.605469 182.617188 67.378906 182.539062 67.089844 182.539062 C 66.75 182.539062 66.347656 182.671875 65.882812 182.933594 L 65.882812 182.355469 C 66.320312 182.152344 66.753906 182.046875 67.183594 182.046875 C 67.644531 182.046875 68.015625 182.171875 68.292969 182.417969 C 68.570312 182.667969 68.710938 182.996094 68.710938 183.40625 C 68.710938 183.699219 68.640625 183.960938 68.5 184.191406 C 68.359375 184.417969 68.097656 184.695312 67.714844 185.019531 L 67.460938 185.234375 C 66.9375 185.679688 66.632812 186.105469 66.550781 186.511719 L 68.6875 186.511719 L 68.6875 187.085938 "/>
<path style=" stroke:none;fill-rule:nonzero;fill:rgb(0%,0%,0%);fill-opacity:1;" d="M 90.492188 185.28125 L 90.492188 184.832031 L 93.195312 184.832031 L 93.195312 185.28125 Z M 94.566406 187.085938 L 94.566406 186.59375 L 95.550781 186.59375 L 95.550781 182.714844 L 94.566406 182.960938 L 94.566406 182.457031 L 96.207031 182.046875 L 96.207031 186.59375 L 97.191406 186.59375 L 97.191406 187.085938 "/>
<path style=" stroke:none;fill-rule:nonzero;fill:rgb(0%,0%,0%);fill-opacity:1;" d="M 149.558594 187.085938 L 149.558594 186.59375 L 150.542969 186.59375 L 150.542969 182.714844 L 149.558594 182.960938 L 149.558594 182.457031 L 151.199219 182.046875 L 151.199219 186.59375 L 152.183594 186.59375 L 152.183594 187.085938 "/>
<path style=" stroke:none;fill-rule:nonzero;fill:rgb(0%,0%,0%);fill-opacity:1;" d="M 177.445312 187.085938 L 177.445312 186.511719 C 177.636719 186.066406 178.023438 185.582031 178.601562 185.058594 L 178.976562 184.722656 C 179.460938 184.285156 179.703125 183.851562 179.703125 183.421875 C 179.703125 183.148438 179.621094 182.933594 179.453125 182.773438 C 179.289062 182.617188 179.0625 182.539062 178.773438 182.539062 C 178.433594 182.539062 178.03125 182.671875 177.570312 182.933594 L 177.570312 182.355469 C 178.007812 182.152344 178.4375 182.046875 178.867188 182.046875 C 179.328125 182.046875 179.699219 182.171875 179.976562 182.417969 C 180.257812 182.667969 180.394531 182.996094 180.394531 183.40625 C 180.394531 183.699219 180.324219 183.960938 180.1875 184.191406 C 180.046875 184.417969 179.78125 184.695312 179.398438 185.019531 L 179.148438 185.234375 C 178.621094 185.679688 178.320312 186.105469 178.238281 186.511719 L 180.371094 186.511719 L 180.371094 187.085938 "/>
<path style=" stroke:none;fill-rule:nonzero;fill:rgb(0%,0%,0%);fill-opacity:1;" d="M 205.917969 187.050781 L 205.917969 186.4375 C 206.390625 186.625 206.757812 186.71875 207.027344 186.71875 C 207.339844 186.71875 207.59375 186.625 207.789062 186.445312 C 207.988281 186.261719 208.085938 186.023438 208.085938 185.734375 C 208.085938 185.042969 207.601562 184.699219 206.632812 184.699219 L 206.375 184.699219 L 206.375 184.257812 L 206.605469 184.253906 C 207.511719 184.253906 207.964844 183.933594 207.964844 183.292969 C 207.964844 182.789062 207.664062 182.539062 207.070312 182.539062 C 206.742188 182.539062 206.378906 182.632812 205.984375 182.816406 L 205.984375 182.242188 C 206.371094 182.113281 206.75 182.046875 207.113281 182.046875 C 208.121094 182.046875 208.621094 182.425781 208.621094 183.1875 C 208.621094 183.765625 208.28125 184.175781 207.597656 184.421875 C 208.390625 184.605469 208.785156 185.039062 208.785156 185.722656 C 208.785156 186.1875 208.632812 186.550781 208.328125 186.8125 C 208.023438 187.078125 207.601562 187.210938 207.070312 187.210938 C 206.765625 187.210938 206.382812 187.15625 205.917969 187.050781 "/>
<path style=" stroke:none;fill-rule:nonzero;fill:rgb(0%,0%,0%);fill-opacity:1;" d="M 236.136719 187.085938 L 236.136719 185.695312 L 233.921875 185.695312 L 233.921875 185.199219 L 236.136719 182.171875 L 236.75 182.171875 L 236.75 185.160156 L 237.40625 185.160156 L 237.40625 185.695312 L 236.75 185.695312 L 236.75 187.085938 Z M 234.566406 185.160156 L 236.179688 185.160156 L 236.179688 182.972656 "/>
<path style=" stroke:none;fill-rule:nonzero;fill:rgb(0%,0%,0%);fill-opacity:1;" d="M 109.765625 207.394531 L 109.765625 206.941406 L 112.46875 206.941406 L 112.46875 207.394531 Z M 113.84375 209.195312 L 113.84375 208.707031 L 114.824219 208.707031 L 114.824219 204.824219 L 113.84375 205.070312 L 113.84375 204.566406 L 115.484375 204.15625 L 115.484375 208.707031 L 116.464844 208.707031 L 116.464844 209.195312 "/>
<path style=" stroke:none;fill-rule:nonzero;fill:rgb(0%,0%,0%);fill-opacity:1;" d="M 113.84375 152.503906 L 113.84375 152.011719 L 114.824219 152.011719 L 114.824219 148.132812 L 113.84375 148.378906 L 113.84375 147.875 L 115.484375 147.464844 L 115.484375 152.011719 L 116.464844 152.011719 L 116.464844 152.503906 "/>
<path style=" stroke:none;fill-rule:nonzero;fill:rgb(0%,0%,0%);fill-opacity:1;" d="M 113.382812 124.15625 L 113.382812 123.582031 C 113.574219 123.136719 113.960938 122.652344 114.539062 122.128906 L 114.914062 121.792969 C 115.398438 121.355469 115.640625 120.921875 115.640625 120.492188 C 115.640625 120.21875 115.558594 120.003906 115.390625 119.84375 C 115.226562 119.6875 115 119.609375 114.714844 119.609375 C 114.371094 119.609375 113.96875 119.742188 113.507812 120.003906 L 113.507812 119.425781 C 113.941406 119.222656 114.375 119.117188 114.804688 119.117188 C 115.265625 119.117188 115.636719 119.242188 115.914062 119.488281 C 116.195312 119.738281 116.335938 120.066406 116.335938 120.476562 C 116.335938 120.773438 116.261719 121.03125 116.121094 121.261719 C 115.980469 121.488281 115.71875 121.765625 115.335938 122.089844 L 115.085938 122.308594 C 114.558594 122.753906 114.257812 123.175781 114.175781 123.582031 L 116.308594 123.582031 L 116.308594 124.15625 "/>
<path style=" stroke:none;fill-rule:nonzero;fill:rgb(0%,0%,0%);fill-opacity:1;" d="M 113.511719 95.773438 L 113.511719 95.164062 C 113.980469 95.347656 114.347656 95.441406 114.621094 95.441406 C 114.933594 95.441406 115.1875 95.351562 115.382812 95.167969 C 115.578125 94.984375 115.675781 94.75 115.675781 94.460938 C 115.675781 93.769531 115.191406 93.421875 114.222656 93.421875 L 113.964844 93.421875 L 113.964844 92.980469 L 114.195312 92.976562 C 115.101562 92.976562 115.554688 92.65625 115.554688 92.019531 C 115.554688 91.515625 115.257812 91.261719 114.660156 91.261719 C 114.332031 91.261719 113.96875 91.355469 113.574219 91.539062 L 113.574219 90.96875 C 113.964844 90.835938 114.339844 90.773438 114.707031 90.773438 C 115.710938 90.773438 116.214844 91.152344 116.214844 91.910156 C 116.214844 92.488281 115.871094 92.902344 115.1875 93.148438 C 115.980469 93.332031 116.378906 93.765625 116.378906 94.449219 C 116.378906 94.910156 116.222656 95.273438 115.917969 95.539062 C 115.613281 95.800781 115.191406 95.933594 114.660156 95.933594 C 114.355469 95.933594 113.972656 95.882812 113.511719 95.773438 "/>
<path style=" stroke:none;fill-rule:nonzero;fill:rgb(0%,0%,0%);fill-opacity:1;" d="M 115.378906 67.464844 L 115.378906 66.074219 L 113.167969 66.074219 L 113.167969 65.578125 L 115.378906 62.546875 L 115.996094 62.546875 L 115.996094 65.539062 L 116.652344 65.539062 L 116.652344 66.074219 L 115.996094 66.074219 L 115.996094 67.464844 Z M 113.808594 65.539062 L 115.421875 65.539062 L 115.421875 63.351562 "/>
<path style=" stroke:none;fill-rule:nonzero;fill:rgb(0%,0%,0%);fill-opacity:1;" d="M 113.644531 39.136719 L 113.644531 38.554688 C 113.972656 38.683594 114.28125 38.75 114.574219 38.75 C 114.898438 38.75 115.152344 38.652344 115.339844 38.464844 C 115.523438 38.273438 115.617188 38.011719 115.617188 37.675781 C 115.617188 36.9375 115.109375 36.570312 114.089844 36.570312 C 113.976562 36.570312 113.855469 36.578125 113.730469 36.59375 L 113.730469 34.203125 L 116.21875 34.203125 L 116.21875 34.773438 L 114.304688 34.773438 L 114.304688 36.070312 C 114.933594 36.070312 115.429688 36.214844 115.78125 36.503906 C 116.136719 36.792969 116.3125 37.195312 116.3125 37.710938 C 116.3125 38.1875 116.152344 38.5625 115.828125 38.835938 C 115.507812 39.105469 115.0625 39.242188 114.488281 39.242188 C 114.242188 39.242188 113.960938 39.207031 113.644531 39.136719 "/>
<path style=" stroke:none;fill-rule:nonzero;fill:rgb(0%,0%,0%);fill-opacity:1;" d="M 113.988281 8.222656 C 114.300781 7.816406 114.691406 7.617188 115.167969 7.617188 C 115.597656 7.617188 115.949219 7.757812 116.222656 8.042969 C 116.496094 8.328125 116.632812 8.691406 116.632812 9.136719 C 116.632812 9.648438 116.480469 10.070312 116.171875 10.398438 C 115.867188 10.730469 115.476562 10.894531 115.003906 10.894531 C 114.460938 10.894531 114.039062 10.675781 113.730469 10.238281 C 113.425781 9.804688 113.273438 9.199219 113.273438 8.421875 C 113.273438 7.570312 113.449219 6.90625 113.800781 6.4375 C 114.152344 5.964844 114.644531 5.730469 115.285156 5.730469 C 115.574219 5.730469 115.941406 5.789062 116.378906 5.914062 L 116.378906 6.484375 C 115.917969 6.308594 115.539062 6.222656 115.242188 6.222656 C 114.40625 6.222656 113.988281 6.886719 113.988281 8.222656 Z M 115.976562 9.285156 C 115.976562 8.910156 115.890625 8.617188 115.722656 8.40625 C 115.558594 8.195312 115.324219 8.085938 115.027344 8.085938 C 114.75 8.085938 114.511719 8.179688 114.3125 8.367188 C 114.113281 8.554688 114.015625 8.777344 114.015625 9.035156 C 114.015625 9.449219 114.109375 9.78125 114.300781 10.027344 C 114.488281 10.277344 114.738281 10.402344 115.050781 10.402344 C 115.332031 10.402344 115.558594 10.300781 115.722656 10.097656 C 115.890625 9.894531 115.976562 9.625 115.976562 9.285156 "/>
<path style=" stroke:none;fill-rule:nonzero;fill:rgb(0%,0%,0%);fill-opacity:1;" d="M 114.953125 187.210938 C 114.445312 187.210938 114.035156 186.96875 113.722656 186.492188 C 113.40625 186.015625 113.25 185.394531 113.25 184.625 C 113.25 183.851562 113.410156 183.226562 113.722656 182.753906 C 114.039062 182.28125 114.453125 182.046875 114.972656 182.046875 C 115.488281 182.046875 115.902344 182.28125 116.21875 182.753906 C 116.535156 183.226562 116.691406 183.847656 116.691406 184.613281 C 116.691406 185.402344 116.535156 186.03125 116.21875 186.503906 C 115.902344 186.972656 115.480469 187.210938 114.953125 187.210938 Z M 114.957031 186.71875 C 115.652344 186.71875 115.996094 186.015625 115.996094 184.605469 C 115.996094 183.226562 115.65625 182.539062 114.972656 182.539062 C 114.289062 182.539062 113.949219 183.234375 113.949219 184.625 C 113.949219 186.019531 114.285156 186.71875 114.957031 186.71875 "/>
<path style="fill:none;stroke-width:25;stroke-linecap:round;stroke-linejoin:round;stroke:rgb(100%,30.200195%,30.200195%);stroke-opacity:1;stroke-miterlimit:10;" d="M 154.296875 2580.429688 L 166.171875 2548.671875 L 178.046875 2516.953125 L 189.921875 2485.273438 L 201.796875 2453.632812 L 225.546875 2390.507812 L 237.382812 2359.023438 L 249.257812 2327.578125 L 273.007812 2264.84375 L 296.757812 2202.34375 L 308.632812 2171.171875 L 320.507812 2140.039062 L 332.34375 2108.984375 L 344.21875 2078.007812 L 356.09375 2047.070312 L 367.96875 2016.171875 L 379.84375 1985.390625 L 391.71875 1954.648438 L 403.59375 1923.945312 L 415.46875 1893.359375 L 427.304688 1862.8125 L 439.179688 1832.382812 L 451.054688 1801.992188 L 462.929688 1771.71875 L 474.804688 1741.484375 L 486.679688 1711.328125 L 498.554688 1681.289062 L 510.429688 1651.328125 L 522.265625 1621.484375 L 534.140625 1591.71875 L 546.015625 1562.03125 L 557.890625 1532.460938 L 569.765625 1503.007812 L 581.640625 1473.632812 L 593.515625 1444.375 L 605.390625 1415.273438 L 617.226562 1386.25 L 629.101562 1357.382812 L 640.976562 1328.632812 L 652.851562 1300 L 664.726562 1271.523438 L 688.476562 1215.039062 L 712.1875 1159.140625 L 735.9375 1103.945312 L 759.6875 1049.492188 L 783.4375 995.859375 L 807.148438 943.125 L 830.898438 891.40625 L 854.648438 840.742188 L 878.398438 791.25 L 902.109375 743.164062 L 925.859375 696.5625 L 949.609375 651.640625 L 973.359375 608.632812 L 997.070312 567.773438 L 1020.820312 529.375 L 1044.570312 493.75 L 1068.320312 461.367188 L 1092.03125 432.578125 L 1115.78125 407.890625 L 1139.53125 387.851562 L 1163.28125 372.890625 L 1175.15625 367.460938 L 1186.992188 363.476562 L 1198.867188 360.9375 L 1210.742188 359.882812 L 1222.617188 360.3125 L 1234.492188 362.226562 L 1258.242188 370.429688 L 1270.117188 376.679688 L 1281.953125 384.257812 L 1305.703125 403.320312 L 1329.453125 427.070312 L 1353.203125 455.039062 L 1376.914062 486.71875 L 1400.664062 521.679688 L 1424.414062 559.53125 L 1448.164062 599.882812 L 1471.875 642.460938 L 1495.625 687.03125 L 1519.375 733.28125 L 1543.125 781.09375 L 1566.835938 830.273438 L 1590.585938 880.703125 L 1614.335938 932.226562 L 1638.085938 984.765625 L 1661.796875 1038.242188 L 1685.546875 1092.5 L 1709.296875 1147.539062 L 1733.046875 1203.28125 L 1756.757812 1259.6875 L 1768.632812 1288.085938 L 1780.507812 1316.640625 L 1792.382812 1345.351562 L 1804.257812 1374.179688 L 1816.132812 1403.125 L 1828.007812 1432.1875 L 1839.84375 1461.40625 L 1851.71875 1490.703125 L 1863.59375 1520.117188 L 1875.46875 1549.648438 L 1887.34375 1579.296875 L 1899.21875 1609.023438 L 1911.09375 1638.828125 L 1922.96875 1668.789062 L 1934.804688 1698.789062 L 1946.679688 1728.867188 L 1958.554688 1759.0625 L 1970.429688 1789.335938 L 1982.304688 1819.6875 L 1994.179688 1850.078125 L 2006.054688 1880.585938 L 2017.890625 1911.171875 L 2029.804688 1941.796875 L 2041.640625 1972.539062 L 2053.515625 2003.28125 L 2065.390625 2034.140625 L 2077.265625 2065.078125 L 2089.140625 2096.054688 L 2101.015625 2127.070312 L 2112.890625 2158.164062 L 2124.765625 2189.296875 L 2136.601562 2220.507812 L 2160.351562 2283.085938 L 2172.226562 2314.453125 L 2195.976562 2377.34375 L 2207.851562 2408.867188 L 2219.6875 2440.429688 L 2231.5625 2472.03125 L 2255.3125 2535.390625 L 2267.1875 2567.148438 L 2279.0625 2598.945312 " transform="matrix(0.1,0,0,-0.1,0,214)"/>
<path style="fill:none;stroke-width:25;stroke-linecap:round;stroke-linejoin:round;stroke:rgb(50.78125%,30.200195%,65.818787%);stroke-opacity:1;stroke-miterlimit:10;" d="M 47.5 2584.609375 L 59.335938 2552.5 L 71.210938 2520.429688 L 83.085938 2488.398438 L 106.835938 2424.414062 L 118.710938 2392.5 L 130.585938 2360.625 L 142.421875 2328.789062 L 154.296875 2296.953125 L 166.171875 2265.195312 L 178.046875 2233.476562 L 189.921875 2201.796875 L 213.671875 2138.59375 L 225.546875 2107.03125 L 237.382812 2075.585938 L 249.257812 2044.140625 L 261.132812 2012.734375 L 273.007812 1981.40625 L 284.882812 1950.117188 L 296.757812 1918.867188 L 308.632812 1887.695312 L 320.507812 1856.601562 L 332.34375 1825.546875 L 344.21875 1794.53125 L 356.09375 1763.59375 L 367.96875 1732.734375 L 379.84375 1701.914062 L 391.71875 1671.171875 L 403.59375 1640.507812 L 415.46875 1609.882812 L 427.304688 1579.375 L 439.179688 1548.90625 L 451.054688 1518.515625 L 462.929688 1488.242188 L 474.804688 1458.007812 L 486.679688 1427.890625 L 498.554688 1397.8125 L 510.429688 1367.851562 L 522.265625 1338.007812 L 534.140625 1308.242188 L 546.015625 1278.554688 L 557.890625 1248.984375 L 569.765625 1219.53125 L 581.640625 1190.15625 L 593.515625 1160.9375 L 605.390625 1131.796875 L 617.226562 1102.773438 L 629.101562 1073.90625 L 640.976562 1045.15625 L 652.851562 1016.523438 L 664.726562 988.046875 L 688.476562 931.5625 L 712.1875 875.664062 L 735.9375 820.46875 L 759.6875 766.054688 L 783.4375 712.421875 L 807.148438 659.6875 L 830.898438 607.929688 L 854.648438 557.265625 L 878.398438 507.8125 L 902.109375 459.6875 L 925.859375 413.085938 L 949.609375 368.164062 L 973.359375 325.15625 L 997.070312 284.296875 L 1020.820312 245.898438 L 1044.570312 210.3125 L 1068.320312 177.890625 L 1092.03125 149.101562 L 1115.78125 124.414062 L 1139.53125 104.375 L 1163.28125 89.414062 L 1175.15625 83.984375 L 1186.992188 80 L 1198.867188 77.460938 L 1210.742188 76.40625 L 1222.617188 76.835938 L 1234.492188 78.75 L 1258.242188 86.992188 L 1270.117188 93.203125 L 1281.953125 100.820312 L 1305.703125 119.84375 L 1329.453125 143.59375 L 1353.203125 171.5625 L 1376.914062 203.242188 L 1400.664062 238.203125 L 1424.414062 276.054688 L 1448.164062 316.445312 L 1471.875 359.023438 L 1495.625 403.554688 L 1519.375 449.804688 L 1543.125 497.617188 L 1566.835938 546.835938 L 1590.585938 597.226562 L 1614.335938 648.789062 L 1638.085938 701.328125 L 1661.796875 754.765625 L 1685.546875 809.0625 L 1709.296875 864.101562 L 1733.046875 919.84375 L 1756.757812 976.210938 L 1768.632812 1004.648438 L 1780.507812 1033.164062 L 1792.382812 1061.875 L 1804.257812 1090.703125 L 1816.132812 1119.648438 L 1828.007812 1148.75 L 1839.84375 1177.929688 L 1851.71875 1207.265625 L 1863.59375 1236.679688 L 1875.46875 1266.210938 L 1887.34375 1295.820312 L 1899.21875 1325.546875 L 1911.09375 1355.390625 L 1922.96875 1385.3125 L 1934.804688 1415.3125 L 1946.679688 1445.390625 L 1958.554688 1475.585938 L 1970.429688 1505.859375 L 1982.304688 1536.210938 L 1994.179688 1566.640625 L 2006.054688 1597.148438 L 2017.890625 1627.695312 L 2029.804688 1658.359375 L 2041.640625 1689.0625 L 2053.515625 1719.84375 L 2065.390625 1750.703125 L 2077.265625 1781.601562 L 2089.140625 1812.578125 L 2101.015625 1843.59375 L 2112.890625 1874.6875 L 2124.765625 1905.859375 L 2136.601562 1937.03125 L 2148.476562 1968.320312 L 2160.351562 1999.648438 L 2172.226562 2031.015625 L 2184.101562 2062.421875 L 2207.851562 2125.390625 L 2219.6875 2156.953125 L 2243.4375 2220.234375 L 2267.1875 2283.671875 L 2279.0625 2315.46875 L 2290.9375 2347.304688 L 2302.8125 2379.179688 L 2314.648438 2411.09375 L 2338.398438 2475 L 2350.273438 2507.03125 L 2374.023438 2571.171875 " transform="matrix(0.1,0,0,-0.1,0,214)"/>
<path style="fill:none;stroke-width:25;stroke-linecap:round;stroke-linejoin:round;stroke:rgb(30.200195%,72.068787%,30.200195%);stroke-opacity:1;stroke-miterlimit:10;" d="M 261.132812 2579.648438 L 273.007812 2548.320312 L 284.882812 2517.03125 L 296.757812 2485.820312 L 308.632812 2454.648438 L 320.507812 2423.515625 L 332.34375 2392.460938 L 344.21875 2361.445312 L 367.96875 2299.648438 L 379.84375 2268.828125 L 391.71875 2238.085938 L 403.59375 2207.421875 L 415.46875 2176.835938 L 427.304688 2146.289062 L 439.179688 2115.859375 L 451.054688 2085.46875 L 462.929688 2055.15625 L 474.804688 2024.921875 L 486.679688 1994.804688 L 498.554688 1964.765625 L 510.429688 1934.804688 L 522.265625 1904.921875 L 534.140625 1875.15625 L 546.015625 1845.507812 L 557.890625 1815.9375 L 569.765625 1786.445312 L 581.640625 1757.109375 L 593.515625 1727.851562 L 605.390625 1698.710938 L 617.226562 1669.726562 L 629.101562 1640.859375 L 640.976562 1612.109375 L 652.851562 1583.476562 L 664.726562 1555 L 688.476562 1498.476562 L 712.1875 1442.617188 L 735.9375 1387.421875 L 759.6875 1332.96875 L 783.4375 1279.335938 L 807.148438 1226.601562 L 830.898438 1174.84375 L 854.648438 1124.179688 L 878.398438 1074.726562 L 902.109375 1026.601562 L 925.859375 980 L 949.609375 935.078125 L 973.359375 892.070312 L 997.070312 851.210938 L 1020.820312 812.8125 L 1044.570312 777.226562 L 1068.320312 744.804688 L 1092.03125 716.015625 L 1115.78125 691.367188 L 1139.53125 671.289062 L 1163.28125 656.367188 L 1175.15625 650.9375 L 1186.992188 646.953125 L 1198.867188 644.414062 L 1210.742188 643.359375 L 1222.617188 643.789062 L 1234.492188 645.703125 L 1258.242188 653.90625 L 1270.117188 660.15625 L 1281.953125 667.734375 L 1305.703125 686.757812 L 1329.453125 710.507812 L 1353.203125 738.476562 L 1376.914062 770.195312 L 1400.664062 805.15625 L 1424.414062 843.007812 L 1448.164062 883.359375 L 1471.875 925.9375 L 1495.625 970.46875 L 1519.375 1016.757812 L 1543.125 1064.570312 L 1566.835938 1113.75 L 1590.585938 1164.179688 L 1614.335938 1215.703125 L 1638.085938 1268.242188 L 1661.796875 1321.679688 L 1685.546875 1375.976562 L 1709.296875 1431.015625 L 1733.046875 1486.757812 L 1756.757812 1543.125 L 1768.632812 1571.5625 L 1780.507812 1600.117188 L 1792.382812 1628.828125 L 1804.257812 1657.65625 L 1816.132812 1686.601562 L 1828.007812 1715.664062 L 1839.84375 1744.84375 L 1851.71875 1774.179688 L 1863.59375 1803.59375 L 1875.46875 1833.125 L 1887.34375 1862.734375 L 1899.21875 1892.460938 L 1911.09375 1922.304688 L 1922.96875 1952.226562 L 1934.804688 1982.226562 L 1946.679688 2012.34375 L 1958.554688 2042.539062 L 1970.429688 2072.773438 L 1982.304688 2103.125 L 1994.179688 2133.554688 L 2006.054688 2164.0625 L 2017.890625 2194.648438 L 2029.804688 2225.273438 L 2041.640625 2255.976562 L 2053.515625 2286.757812 L 2065.390625 2317.617188 L 2077.265625 2348.515625 L 2089.140625 2379.492188 L 2101.015625 2410.546875 L 2112.890625 2441.640625 L 2124.765625 2472.773438 L 2136.601562 2503.984375 L 2148.476562 2535.234375 L 2160.351562 2566.5625 L 2172.226562 2597.929688 " transform="matrix(0.1,0,0,-0.1,0,214)"/>
</g>
</svg>
