<?xml version="1.0" encoding="UTF-8"?>
<svg xmlns="http://www.w3.org/2000/svg" xmlns:xlink="http://www.w3.org/1999/xlink" width="480pt" height="120pt" viewBox="0 0 480 120" version="1.1">
<defs>
<clipPath id="clip1">
  <path d="M 5 38 L 115 38 L 115 115 L 5 115 Z M 5 38 "/>
</clipPath>
<clipPath id="clip2">
  <path d="M 125 5 L 235 5 L 235 82 L 125 82 Z M 125 5 "/>
</clipPath>
<clipPath id="clip3">
  <path d="M 245 5 L 355 5 L 355 115 L 245 115 Z M 245 5 "/>
</clipPath>
<clipPath id="clip4">
  <path d="M 365 5 L 475 5 L 475 115 L 365 115 Z M 365 5 "/>
</clipPath>
</defs>
<g id="surface1">
<path style="fill:none;stroke-width:10;stroke-linecap:butt;stroke-linejoin:miter;stroke:rgb(0%,0%,0%);stroke-opacity:1;stroke-miterlimit:10;" d="M 50 233.320312 L 1150 233.320312 M 233.320312 50 L 233.320312 1150 " transform="matrix(0.1,0,0,-0.1,0,120)"/>
<path style="fill:none;stroke-width:5;stroke-linecap:butt;stroke-linejoin:miter;stroke:rgb(80.076599%,80.076599%,80.076599%);stroke-opacity:1;stroke-miterlimit:10;" d="M 50 50 L 50 1150 M 1150 50 L 1150 1150 M 50 50 L 1150 50 M 50 1150 L 1150 1150 " transform="matrix(0.1,0,0,-0.1,0,120)"/>
<g clip-path="url(#clip1)" clip-rule="nonzero">
<path style="fill:none;stroke-width:15;stroke-linecap:butt;stroke-linejoin:miter;stroke:rgb(0%,0%,100%);stroke-opacity:1;stroke-miterlimit:10;" d="M 50 -225 L 61.015625 -192.34375 L 71.992188 -160.3125 L 83.007812 -128.984375 L 93.984375 -98.28125 L 105 -68.242188 L 116.015625 -38.867188 L 126.992188 -10.15625 L 138.007812 17.890625 L 148.984375 45.273438 L 160 71.992188 L 171.015625 98.085938 L 181.992188 123.476562 L 193.007812 148.242188 L 203.984375 172.304688 L 215 195.742188 L 226.015625 218.515625 L 236.992188 240.625 L 248.007812 262.070312 L 258.984375 282.851562 L 270 303.007812 L 281.015625 322.460938 L 291.992188 341.289062 L 303.007812 359.414062 L 313.984375 376.914062 L 325 393.75 L 336.015625 409.921875 L 346.992188 425.429688 L 358.007812 440.273438 L 368.984375 454.453125 L 380 468.007812 L 391.015625 480.859375 L 401.992188 493.085938 L 413.007812 504.648438 L 423.984375 515.507812 L 435 525.742188 L 446.015625 535.3125 L 456.992188 544.21875 L 468.007812 552.460938 L 478.984375 560.078125 L 490 566.992188 L 501.015625 573.28125 L 511.992188 578.867188 L 523.007812 583.828125 L 533.984375 588.125 L 545 591.757812 L 556.015625 594.726562 L 566.992188 597.03125 L 578.007812 598.671875 L 588.984375 599.6875 L 600 600 L 611.015625 599.6875 L 621.992188 598.671875 L 633.007812 597.03125 L 643.984375 594.726562 L 655 591.757812 L 666.015625 588.125 L 676.992188 583.828125 L 688.007812 578.867188 L 698.984375 573.28125 L 710 566.992188 L 721.015625 560.078125 L 731.992188 552.460938 L 743.007812 544.21875 L 753.984375 535.3125 L 765 525.742188 L 776.015625 515.507812 L 786.992188 504.648438 L 798.007812 493.085938 L 808.984375 480.859375 L 820 468.007812 L 831.015625 454.453125 L 841.992188 440.273438 L 853.007812 425.429688 L 863.984375 409.921875 L 875 393.75 L 886.015625 376.914062 L 896.992188 359.414062 L 908.007812 341.289062 L 918.984375 322.460938 L 930 303.007812 L 941.015625 282.851562 L 951.992188 262.070312 L 963.007812 240.625 L 973.984375 218.515625 L 985 195.742188 L 996.015625 172.304688 L 1006.992188 148.242188 L 1018.007812 123.476562 L 1028.984375 98.085938 L 1040 71.992188 L 1051.015625 45.273438 L 1061.992188 17.890625 L 1073.007812 -10.15625 L 1083.984375 -38.867188 L 1095 -68.242188 L 1106.015625 -98.28125 L 1116.992188 -128.984375 L 1128.007812 -160.3125 L 1138.984375 -192.34375 L 1150 -225 " transform="matrix(0.1,0,0,-0.1,0,120)"/>
</g>
<path style="fill:none;stroke-width:15;stroke-linecap:butt;stroke-linejoin:miter;stroke:rgb(0%,50%,0%);stroke-opacity:1;stroke-miterlimit:10;" d="M 380 600 L 820 600 " transform="matrix(0.1,0,0,-0.1,0,120)"/>
<path style=" stroke:none;fill-rule:nonzero;fill:rgb(100%,0%,0%);fill-opacity:1;" d="M 62 60 C 62 58.894531 61.105469 58 60 58 C 58.894531 58 58 58.894531 58 60 C 58 61.105469 58.894531 62 60 62 C 61.105469 62 62 61.105469 62 60 "/>
<path style="fill:none;stroke-width:10;stroke-linecap:butt;stroke-linejoin:miter;stroke:rgb(0%,0%,0%);stroke-opacity:1;stroke-miterlimit:10;" d="M 620 600 C 620 611.054688 611.054688 620 600 620 C 588.945312 620 580 611.054688 580 600 C 580 588.945312 588.945312 580 600 580 C 611.054688 580 620 588.945312 620 600 Z M 620 600 " transform="matrix(0.1,0,0,-0.1,0,120)"/>
<path style="fill:none;stroke-width:10;stroke-linecap:butt;stroke-linejoin:miter;stroke:rgb(0%,0%,0%);stroke-opacity:1;stroke-miterlimit:10;" d="M 1250 233.320312 L 2350 233.320312 M 1433.320312 50 L 1433.320312 1150 " transform="matrix(0.1,0,0,-0.1,0,120)"/>
<path style="fill:none;stroke-width:5;stroke-linecap:butt;stroke-linejoin:miter;stroke:rgb(80.076599%,80.076599%,80.076599%);stroke-opacity:1;stroke-miterlimit:10;" d="M 1250 50 L 1250 1150 M 2350 50 L 2350 1150 M 1250 50 L 2350 50 M 1250 1150 L 2350 1150 " transform="matrix(0.1,0,0,-0.1,0,120)"/>
<g clip-path="url(#clip2)" clip-rule="nonzero">
<path style="fill:none;stroke-width:15;stroke-linecap:butt;stroke-linejoin:miter;stroke:rgb(0%,0%,100%);stroke-opacity:1;stroke-miterlimit:10;" d="M 1250 1425 L 1261.015625 1392.34375 L 1271.992188 1360.3125 L 1283.007812 1328.984375 L 1293.984375 1298.28125 L 1305 1268.242188 L 1316.015625 1238.867188 L 1326.992188 1210.15625 L 1338.007812 1182.109375 L 1348.984375 1154.726562 L 1360 1128.007812 L 1371.015625 1101.914062 L 1381.992188 1076.523438 L 1393.007812 1051.757812 L 1403.984375 1027.695312 L 1415 1004.257812 L 1426.015625 981.484375 L 1436.992188 959.375 L 1448.007812 937.929688 L 1458.984375 917.148438 L 1470 896.992188 L 1481.015625 877.539062 L 1491.992188 858.710938 L 1503.007812 840.585938 L 1513.984375 823.085938 L 1525 806.25 L 1536.015625 790.078125 L 1546.992188 774.570312 L 1558.007812 759.726562 L 1568.984375 745.546875 L 1580 731.992188 L 1591.015625 719.140625 L 1601.992188 706.914062 L 1613.007812 695.351562 L 1623.984375 684.492188 L 1635 674.257812 L 1646.015625 664.6875 L 1656.992188 655.78125 L 1668.007812 647.539062 L 1678.984375 639.921875 L 1690 633.007812 L 1701.015625 626.71875 L 1711.992188 621.132812 L 1723.007812 616.171875 L 1733.984375 611.875 L 1745 608.242188 L 1756.015625 605.273438 L 1766.992188 602.96875 L 1778.007812 601.328125 L 1788.984375 600.3125 L 1800 600 L 1811.015625 600.3125 L 1821.992188 601.328125 L 1833.007812 602.96875 L 1843.984375 605.273438 L 1855 608.242188 L 1866.015625 611.875 L 1876.992188 616.171875 L 1888.007812 621.132812 L 1898.984375 626.71875 L 1910 633.007812 L 1921.015625 639.921875 L 1931.992188 647.539062 L 1943.007812 655.78125 L 1953.984375 664.6875 L 1965 674.257812 L 1976.015625 684.492188 L 1986.992188 695.351562 L 1998.007812 706.914062 L 2008.984375 719.140625 L 2020 731.992188 L 2031.015625 745.546875 L 2041.992188 759.726562 L 2053.007812 774.570312 L 2063.984375 790.078125 L 2075 806.25 L 2086.015625 823.085938 L 2096.992188 840.585938 L 2108.007812 858.710938 L 2118.984375 877.539062 L 2130 896.992188 L 2141.015625 917.148438 L 2151.992188 937.929688 L 2163.007812 959.375 L 2173.984375 981.484375 L 2185 1004.257812 L 2196.015625 1027.695312 L 2206.992188 1051.757812 L 2218.007812 1076.523438 L 2228.984375 1101.914062 L 2240 1128.007812 L 2251.015625 1154.726562 L 2261.992188 1182.109375 L 2273.007812 1210.15625 L 2283.984375 1238.867188 L 2295 1268.242188 L 2306.015625 1298.28125 L 2316.992188 1328.984375 L 2328.007812 1360.3125 L 2338.984375 1392.34375 L 2350 1425 " transform="matrix(0.1,0,0,-0.1,0,120)"/>
</g>
<path style="fill:none;stroke-width:15;stroke-linecap:butt;stroke-linejoin:miter;stroke:rgb(0%,50%,0%);stroke-opacity:1;stroke-miterlimit:10;" d="M 1580 600 L 2020 600 " transform="matrix(0.1,0,0,-0.1,0,120)"/>
<path style=" stroke:none;fill-rule:nonzero;fill:rgb(100%,0%,0%);fill-opacity:1;" d="M 182 60 C 182 58.894531 181.105469 58 180 58 C 178.894531 58 178 58.894531 178 60 C 178 61.105469 178.894531 62 180 62 C 181.105469 62 182 61.105469 182 60 "/>
<path style="fill:none;stroke-width:10;stroke-linecap:butt;stroke-linejoin:miter;stroke:rgb(0%,0%,0%);stroke-opacity:1;stroke-miterlimit:10;" d="M 1820 600 C 1820 611.054688 1811.054688 620 1800 620 C 1788.945312 620 1780 611.054688 1780 600 C 1780 588.945312 1788.945312 580 1800 580 C 1811.054688 580 1820 588.945312 1820 600 Z M 1820 600 " transform="matrix(0.1,0,0,-0.1,0,120)"/>
<path style="fill:none;stroke-width:10;stroke-linecap:butt;stroke-linejoin:miter;stroke:rgb(0%,0%,0%);stroke-opacity:1;stroke-miterlimit:10;" d="M 2450 233.320312 L 3550 233.320312 M 2633.320312 50 L 2633.320312 1150 " transform="matrix(0.1,0,0,-0.1,0,120)"/>
<path style="fill:none;stroke-width:5;stroke-linecap:butt;stroke-linejoin:miter;stroke:rgb(80.076599%,80.076599%,80.076599%);stroke-opacity:1;stroke-miterlimit:10;" d="M 2450 50 L 2450 1150 M 3550 50 L 3550 1150 M 2450 50 L 3550 50 M 2450 1150 L 3550 1150 " transform="matrix(0.1,0,0,-0.1,0,120)"/>
<g clip-path="url(#clip3)" clip-rule="nonzero">
<path style="fill:none;stroke-width:15;stroke-linecap:butt;stroke-linejoin:miter;stroke:rgb(0%,0%,100%);stroke-opacity:1;stroke-miterlimit:10;" d="M 2450 -1875 L 2461.015625 -1729.453125 L 2471.992188 -1589.726562 L 2483.007812 -1455.703125 L 2493.984375 -1327.265625 L 2505 -1204.257812 L 2516.015625 -1086.640625 L 2526.992188 -974.21875 L 2538.007812 -866.953125 L 2548.984375 -764.648438 L 2560 -667.1875 L 2571.015625 -574.53125 L 2581.992188 -486.484375 L 2593.007812 -402.929688 L 2603.984375 -323.789062 L 2615 -248.945312 L 2626.015625 -178.203125 L 2636.992188 -111.5625 L 2648.007812 -48.789062 L 2658.984375 10.117188 L 2670 65.390625 L 2681.015625 117.109375 L 2691.992188 165.351562 L 2703.007812 210.273438 L 2713.984375 251.992188 L 2725 290.625 L 2736.015625 326.289062 L 2746.992188 359.101562 L 2758.007812 389.179688 L 2768.984375 416.640625 L 2780 441.601562 L 2791.015625 464.179688 L 2801.992188 484.53125 L 2813.007812 502.734375 L 2823.984375 518.90625 L 2835 533.164062 L 2846.015625 545.664062 L 2856.992188 556.484375 L 2868.007812 565.78125 L 2878.984375 573.632812 L 2890 580.195312 L 2901.015625 585.546875 L 2911.992188 589.84375 L 2923.007812 593.203125 L 2933.984375 595.742188 L 2945 597.539062 L 2956.015625 598.75 L 2966.992188 599.453125 L 2978.007812 599.84375 L 2988.984375 599.960938 L 3011.015625 600.039062 L 3021.992188 600.15625 L 3033.007812 600.546875 L 3043.984375 601.25 L 3055 602.460938 L 3066.015625 604.257812 L 3076.992188 606.796875 L 3088.007812 610.15625 L 3098.984375 614.453125 L 3110 619.804688 L 3121.015625 626.367188 L 3131.992188 634.21875 L 3143.007812 643.515625 L 3153.984375 654.335938 L 3165 666.835938 L 3176.015625 681.09375 L 3186.992188 697.265625 L 3198.007812 715.46875 L 3208.984375 735.820312 L 3220 758.398438 L 3231.015625 783.359375 L 3241.992188 810.820312 L 3253.007812 840.898438 L 3263.984375 873.710938 L 3275 909.375 L 3286.015625 948.007812 L 3296.992188 989.726562 L 3308.007812 1034.648438 L 3318.984375 1082.890625 L 3330 1134.609375 L 3341.015625 1189.84375 L 3351.992188 1248.789062 L 3363.007812 1311.5625 L 3373.984375 1378.203125 L 3385 1448.945312 L 3396.015625 1523.789062 L 3406.992188 1602.929688 L 3418.007812 1686.445312 L 3428.984375 1774.53125 L 3440 1867.1875 L 3451.015625 1964.648438 L 3461.992188 2066.953125 L 3473.007812 2174.257812 L 3483.984375 2286.640625 L 3495 2404.257812 L 3506.015625 2527.265625 L 3516.992188 2655.703125 L 3528.007812 2789.726562 L 3538.984375 2929.453125 L 3550 3075 " transform="matrix(0.1,0,0,-0.1,0,120)"/>
</g>
<path style="fill:none;stroke-width:15;stroke-linecap:butt;stroke-linejoin:miter;stroke:rgb(0%,50%,0%);stroke-opacity:1;stroke-miterlimit:10;" d="M 2780 600 L 3220 600 " transform="matrix(0.1,0,0,-0.1,0,120)"/>
<path style=" stroke:none;fill-rule:nonzero;fill:rgb(100%,0%,0%);fill-opacity:1;" d="M 302 60 C 302 58.894531 301.105469 58 300 58 C 298.894531 58 298 58.894531 298 60 C 298 61.105469 298.894531 62 300 62 C 301.105469 62 302 61.105469 302 60 "/>
<path style="fill:none;stroke-width:10;stroke-linecap:butt;stroke-linejoin:miter;stroke:rgb(0%,0%,0%);stroke-opacity:1;stroke-miterlimit:10;" d="M 3020 600 C 3020 611.054688 3011.054688 620 3000 620 C 2988.945312 620 2980 611.054688 2980 600 C 2980 588.945312 2988.945312 580 3000 580 C 3011.054688 580 3020 588.945312 3020 600 Z M 3020 600 " transform="matrix(0.1,0,0,-0.1,0,120)"/>
<path style="fill:none;stroke-width:10;stroke-linecap:butt;stroke-linejoin:miter;stroke:rgb(0%,0%,0%);stroke-opacity:1;stroke-miterlimit:10;" d="M 3650 233.320312 L 4750 233.320312 M 3833.320312 50 L 3833.320312 1150 " transform="matrix(0.1,0,0,-0.1,0,120)"/>
<path style="fill:none;stroke-width:5;stroke-linecap:butt;stroke-linejoin:miter;stroke:rgb(80.076599%,80.076599%,80.076599%);stroke-opacity:1;stroke-miterlimit:10;" d="M 3650 50 L 3650 1150 M 4750 50 L 4750 1150 M 3650 50 L 4750 50 M 3650 1150 L 4750 1150 " transform="matrix(0.1,0,0,-0.1,0,120)"/>
<g clip-path="url(#clip4)" clip-rule="nonzero">
<path style="fill:none;stroke-width:15;stroke-linecap:butt;stroke-linejoin:miter;stroke:rgb(0%,0%,100%);stroke-opacity:1;stroke-miterlimit:10;" d="M 3650 3075 L 3661.015625 2929.453125 L 3671.992188 2789.726562 L 3683.007812 2655.703125 L 3693.984375 2527.265625 L 3705 2404.257812 L 3716.015625 2286.640625 L 3726.992188 2174.257812 L 3738.007812 2066.953125 L 3748.984375 1964.648438 L 3760 1867.1875 L 3771.015625 1774.53125 L 3781.992188 1686.445312 L 3793.007812 1602.929688 L 3803.984375 1523.789062 L 3815 1448.945312 L 3826.015625 1378.203125 L 3836.992188 1311.5625 L 3848.007812 1248.789062 L 3858.984375 1189.84375 L 3870 1134.609375 L 3881.015625 1082.890625 L 3891.992188 1034.648438 L 3903.007812 989.726562 L 3913.984375 948.007812 L 3925 909.375 L 3936.015625 873.710938 L 3946.992188 840.898438 L 3958.007812 810.820312 L 3968.984375 783.359375 L 3980 758.398438 L 3991.015625 735.820312 L 4001.992188 715.46875 L 4013.007812 697.265625 L 4023.984375 681.09375 L 4035 666.835938 L 4046.015625 654.335938 L 4056.992188 643.515625 L 4068.007812 634.21875 L 4078.984375 626.367188 L 4090 619.804688 L 4101.015625 614.453125 L 4111.992188 610.15625 L 4123.007812 606.796875 L 4133.984375 604.257812 L 4145 602.460938 L 4156.015625 601.25 L 4166.992188 600.546875 L 4178.007812 600.15625 L 4188.984375 600.039062 L 4211.015625 599.960938 L 4221.992188 599.84375 L 4233.007812 599.453125 L 4243.984375 598.75 L 4255 597.539062 L 4266.015625 595.742188 L 4276.992188 593.203125 L 4288.007812 589.84375 L 4298.984375 585.546875 L 4310 580.195312 L 4321.015625 573.632812 L 4331.992188 565.78125 L 4343.007812 556.484375 L 4353.984375 545.664062 L 4365 533.164062 L 4376.015625 518.90625 L 4386.992188 502.734375 L 4398.007812 484.53125 L 4408.984375 464.179688 L 4420 441.601562 L 4431.015625 416.640625 L 4441.992188 389.179688 L 4453.007812 359.101562 L 4463.984375 326.289062 L 4475 290.625 L 4486.015625 251.992188 L 4496.992188 210.273438 L 4508.007812 165.351562 L 4518.984375 117.109375 L 4530 65.390625 L 4541.015625 10.117188 L 4551.992188 -48.789062 L 4563.007812 -111.5625 L 4573.984375 -178.203125 L 4585 -248.945312 L 4596.015625 -323.789062 L 4606.992188 -402.929688 L 4618.007812 -486.484375 L 4628.984375 -574.53125 L 4640 -667.1875 L 4651.015625 -764.648438 L 4661.992188 -866.953125 L 4673.007812 -974.21875 L 4683.984375 -1086.640625 L 4695 -1204.257812 L 4706.015625 -1327.265625 L 4716.992188 -1455.703125 L 4728.007812 -1589.726562 L 4738.984375 -1729.453125 L 4750 -1875 " transform="matrix(0.1,0,0,-0.1,0,120)"/>
</g>
<path style="fill:none;stroke-width:15;stroke-linecap:butt;stroke-linejoin:miter;stroke:rgb(0%,50%,0%);stroke-opacity:1;stroke-miterlimit:10;" d="M 3980 600 L 4420 600 " transform="matrix(0.1,0,0,-0.1,0,120)"/>
<path style=" stroke:none;fill-rule:nonzero;fill:rgb(100%,0%,0%);fill-opacity:1;" d="M 422 60 C 422 58.894531 421.105469 58 420 58 C 418.894531 58 418 58.894531 418 60 C 418 61.105469 418.894531 62 420 62 C 421.105469 62 422 61.105469 422 60 "/>
<path style="fill:none;stroke-width:10;stroke-linecap:butt;stroke-linejoin:miter;stroke:rgb(0%,0%,0%);stroke-opacity:1;stroke-miterlimit:10;" d="M 4220 600 C 4220 611.054688 4211.054688 620 4200 620 C 4188.945312 620 4180 611.054688 4180 600 C 4180 588.945312 4188.945312 580 4200 580 C 4211.054688 580 4220 588.945312 4220 600 Z M 4220 600 " transform="matrix(0.1,0,0,-0.1,0,120)"/>
</g>
</svg>
