<?xml version="1.0" encoding="UTF-8"?>
<svg xmlns="http://www.w3.org/2000/svg" xmlns:xlink="http://www.w3.org/1999/xlink" width="450pt" height="90pt" viewBox="0 0 450 90" version="1.1">
<defs>
<clipPath id="clip1">
  <path d="M 5 23 L 85 23 L 85 85 L 5 85 Z M 5 23 "/>
</clipPath>
<clipPath id="clip2">
  <path d="M 95 22 L 157 22 L 157 85 L 95 85 Z M 95 22 "/>
</clipPath>
<clipPath id="clip3">
  <path d="M 113 22 L 175 22 L 175 85 L 113 85 Z M 113 22 "/>
</clipPath>
<clipPath id="clip4">
  <path d="M 185 5 L 265 5 L 265 85 L 185 85 Z M 185 5 "/>
</clipPath>
<clipPath id="clip5">
  <path d="M 275 5 L 355 5 L 355 67 L 275 67 Z M 275 5 "/>
</clipPath>
<clipPath id="clip6">
  <path d="M 365 5 L 427 5 L 427 68 L 365 68 Z M 365 5 "/>
</clipPath>
<clipPath id="clip7">
  <path d="M 383 5 L 445 5 L 445 68 L 383 68 Z M 383 5 "/>
</clipPath>
</defs>
<g id="surface1">
<path style="fill:none;stroke-width:10;stroke-linecap:butt;stroke-linejoin:miter;stroke:rgb(0%,0%,0%);stroke-opacity:1;stroke-miterlimit:10;" d="M 50 183.320312 L 850 183.320312 M 183.320312 50 L 183.320312 850 " transform="matrix(0.1,0,0,-0.1,0,90)"/>
<path style="fill:none;stroke-width:5;stroke-linecap:butt;stroke-linejoin:miter;stroke:rgb(80.076599%,80.076599%,80.076599%);stroke-opacity:1;stroke-miterlimit:10;" d="M 50 50 L 50 850 M 850 50 L 850 850 M 50 50 L 850 50 M 50 850 L 850 850 " transform="matrix(0.1,0,0,-0.1,0,90)"/>
<g clip-path="url(#clip1)" clip-rule="nonzero">
<path style="fill:none;stroke-width:15;stroke-linecap:butt;stroke-linejoin:miter;stroke:rgb(0%,0%,100%);stroke-opacity:1;stroke-miterlimit:10;" d="M 50 -150 L 58.007812 -126.25 L 66.015625 -102.96875 L 73.984375 -80.15625 L 81.992188 -57.851562 L 90 -36.015625 L 98.007812 -14.648438 L 106.015625 6.25 L 113.984375 26.640625 L 121.992188 46.5625 L 130 66.015625 L 138.007812 84.960938 L 146.015625 103.4375 L 153.984375 121.445312 L 161.992188 138.945312 L 170 156.015625 L 178.007812 172.578125 L 186.015625 188.632812 L 193.984375 204.21875 L 201.992188 219.375 L 210 233.984375 L 218.007812 248.164062 L 226.015625 261.835938 L 233.984375 275.039062 L 241.992188 287.773438 L 250 300 L 258.007812 311.757812 L 266.015625 323.046875 L 273.984375 333.828125 L 281.992188 344.140625 L 290 353.984375 L 298.007812 363.359375 L 306.015625 372.226562 L 313.984375 380.625 L 321.992188 388.554688 L 330 396.015625 L 338.007812 402.96875 L 346.015625 409.453125 L 353.984375 415.429688 L 361.992188 420.976562 L 370 426.015625 L 378.007812 430.546875 L 386.015625 434.648438 L 393.984375 438.242188 L 401.992188 441.367188 L 410 443.984375 L 418.007812 446.171875 L 426.015625 447.851562 L 433.984375 449.023438 L 441.992188 449.765625 L 450 450 L 458.007812 449.765625 L 466.015625 449.023438 L 473.984375 447.851562 L 481.992188 446.171875 L 490 443.984375 L 498.007812 441.367188 L 506.015625 438.242188 L 513.984375 434.648438 L 521.992188 430.546875 L 530 426.015625 L 538.007812 420.976562 L 546.015625 415.429688 L 553.984375 409.453125 L 561.992188 402.96875 L 570 396.015625 L 578.007812 388.554688 L 586.015625 380.625 L 593.984375 372.226562 L 601.992188 363.359375 L 610 353.984375 L 618.007812 344.140625 L 626.015625 333.828125 L 633.984375 323.046875 L 641.992188 311.757812 L 650 300 L 658.007812 287.773438 L 666.015625 275.039062 L 673.984375 261.835938 L 681.992188 248.164062 L 690 233.984375 L 698.007812 219.375 L 706.015625 204.21875 L 713.984375 188.632812 L 721.992188 172.578125 L 730 156.015625 L 738.007812 138.945312 L 746.015625 121.445312 L 753.984375 103.4375 L 761.992188 84.960938 L 770 66.015625 L 778.007812 46.5625 L 786.015625 26.640625 L 793.984375 6.25 L 801.992188 -14.648438 L 810 -36.015625 L 818.007812 -57.851562 L 826.015625 -80.15625 L 833.984375 -102.96875 L 841.992188 -126.25 L 850 -150 " transform="matrix(0.1,0,0,-0.1,0,90)"/>
</g>
<path style="fill:none;stroke-width:15;stroke-linecap:butt;stroke-linejoin:miter;stroke:rgb(0%,50%,0%);stroke-opacity:1;stroke-miterlimit:10;" d="M 290 450 L 610 450 " transform="matrix(0.1,0,0,-0.1,0,90)"/>
<path style=" stroke:none;fill-rule:nonzero;fill:rgb(100%,0%,0%);fill-opacity:1;" d="M 47 45 C 47 43.894531 46.105469 43 45 43 C 43.894531 43 43 43.894531 43 45 C 43 46.105469 43.894531 47 45 47 C 46.105469 47 47 46.105469 47 45 "/>
<path style="fill:none;stroke-width:10;stroke-linecap:butt;stroke-linejoin:miter;stroke:rgb(0%,0%,0%);stroke-opacity:1;stroke-miterlimit:10;" d="M 470 450 C 470 461.054688 461.054688 470 450 470 C 438.945312 470 430 461.054688 430 450 C 430 438.945312 438.945312 430 450 430 C 461.054688 430 470 438.945312 470 450 Z M 470 450 " transform="matrix(0.1,0,0,-0.1,0,90)"/>
<path style="fill:none;stroke-width:10;stroke-linecap:butt;stroke-linejoin:miter;stroke:rgb(0%,0%,0%);stroke-opacity:1;stroke-miterlimit:10;" d="M 950 183.320312 L 1750 183.320312 M 1083.320312 50 L 1083.320312 850 " transform="matrix(0.1,0,0,-0.1,0,90)"/>
<path style="fill:none;stroke-width:5;stroke-linecap:butt;stroke-linejoin:miter;stroke:rgb(80.076599%,80.076599%,80.076599%);stroke-opacity:1;stroke-miterlimit:10;" d="M 950 50 L 950 850 M 1750 50 L 1750 850 M 950 50 L 1750 50 M 950 850 L 1750 850 " transform="matrix(0.1,0,0,-0.1,0,90)"/>
<g clip-path="url(#clip2)" clip-rule="nonzero">
<path style="fill:none;stroke-width:15;stroke-linecap:butt;stroke-linejoin:miter;stroke:rgb(0%,0%,100%);stroke-opacity:1;stroke-miterlimit:10;" d="M 950 103.320312 L 953.984375 103.359375 L 958.007812 103.476562 L 961.992188 103.671875 L 966.015625 103.90625 L 970 104.21875 L 973.984375 104.648438 L 978.007812 105.117188 L 981.992188 105.625 L 986.015625 106.25 L 990 106.953125 L 993.984375 107.695312 L 998.007812 108.515625 L 1001.992188 109.414062 L 1006.015625 110.390625 L 1010 111.445312 L 1013.984375 112.539062 L 1018.007812 113.75 L 1021.992188 115 L 1026.015625 116.328125 L 1030 117.734375 L 1033.984375 119.21875 L 1038.007812 120.742188 L 1041.992188 122.382812 L 1046.015625 124.0625 L 1050 125.820312 L 1053.984375 127.65625 L 1058.007812 129.570312 L 1061.992188 131.5625 L 1066.015625 133.59375 L 1070 135.742188 L 1073.984375 137.929688 L 1078.007812 140.195312 L 1081.992188 142.539062 L 1086.015625 144.960938 L 1090 147.421875 L 1093.984375 150 L 1098.007812 152.617188 L 1101.992188 155.3125 L 1106.015625 158.085938 L 1110 160.9375 L 1113.984375 163.867188 L 1118.007812 166.835938 L 1121.992188 169.882812 L 1126.015625 173.046875 L 1130 176.25 L 1133.984375 179.492188 L 1138.007812 182.851562 L 1141.992188 186.289062 L 1146.015625 189.765625 L 1150 193.320312 L 1153.984375 196.953125 L 1158.007812 200.664062 L 1161.992188 204.453125 L 1166.015625 208.320312 L 1170 212.226562 L 1173.984375 216.210938 L 1178.007812 220.3125 L 1181.992188 224.453125 L 1186.015625 228.632812 L 1190 232.929688 L 1193.984375 237.304688 L 1198.007812 241.71875 L 1201.992188 246.210938 L 1206.015625 250.78125 L 1210 255.429688 L 1213.984375 260.15625 L 1218.007812 264.921875 L 1221.992188 269.804688 L 1226.015625 274.726562 L 1230 279.726562 L 1233.984375 284.804688 L 1238.007812 289.960938 L 1241.992188 295.195312 L 1246.015625 300.46875 L 1250 305.820312 L 1253.984375 311.289062 L 1258.007812 316.757812 L 1261.992188 322.34375 L 1266.015625 328.007812 L 1270 333.75 L 1273.984375 339.53125 L 1278.007812 345.390625 L 1281.992188 351.328125 L 1286.015625 357.34375 L 1290 363.4375 L 1293.984375 369.609375 L 1298.007812 375.820312 L 1301.992188 382.109375 L 1306.015625 388.476562 L 1310 394.921875 L 1313.984375 401.445312 L 1318.007812 408.046875 L 1321.992188 414.6875 L 1326.015625 421.445312 L 1330 428.242188 L 1333.984375 435.117188 L 1338.007812 442.070312 L 1341.992188 449.0625 L 1346.015625 456.171875 L 1350 463.320312 " transform="matrix(0.1,0,0,-0.1,0,90)"/>
</g>
<g clip-path="url(#clip3)" clip-rule="nonzero">
<path style="fill:none;stroke-width:15;stroke-linecap:butt;stroke-linejoin:miter;stroke:rgb(0%,0%,100%);stroke-opacity:1;stroke-miterlimit:10;" d="M 1350 463.320312 L 1353.984375 456.171875 L 1358.007812 449.0625 L 1361.992188 442.070312 L 1366.015625 435.117188 L 1370 428.242188 L 1373.984375 421.445312 L 1378.007812 414.6875 L 1381.992188 408.046875 L 1386.015625 401.445312 L 1390 394.921875 L 1393.984375 388.476562 L 1398.007812 382.109375 L 1401.992188 375.820312 L 1406.015625 369.609375 L 1410 363.4375 L 1413.984375 357.34375 L 1418.007812 351.328125 L 1421.992188 345.390625 L 1426.015625 339.53125 L 1430 333.75 L 1433.984375 328.007812 L 1438.007812 322.34375 L 1441.992188 316.757812 L 1446.015625 311.289062 L 1450 305.820312 L 1453.984375 300.46875 L 1458.007812 295.195312 L 1461.992188 289.960938 L 1466.015625 284.804688 L 1470 279.726562 L 1473.984375 274.726562 L 1478.007812 269.804688 L 1481.992188 264.921875 L 1486.015625 260.15625 L 1490 255.429688 L 1493.984375 250.78125 L 1498.007812 246.210938 L 1501.992188 241.71875 L 1506.015625 237.304688 L 1510 232.929688 L 1513.984375 228.632812 L 1518.007812 224.453125 L 1521.992188 220.3125 L 1526.015625 216.210938 L 1530 212.226562 L 1533.984375 208.320312 L 1538.007812 204.453125 L 1541.992188 200.664062 L 1546.015625 196.953125 L 1550 193.320312 L 1553.984375 189.765625 L 1558.007812 186.289062 L 1561.992188 182.851562 L 1566.015625 179.492188 L 1570 176.25 L 1573.984375 173.046875 L 1578.007812 169.882812 L 1581.992188 166.835938 L 1586.015625 163.867188 L 1590 160.9375 L 1593.984375 158.085938 L 1598.007812 155.3125 L 1601.992188 152.617188 L 1606.015625 150 L 1610 147.421875 L 1613.984375 144.960938 L 1618.007812 142.539062 L 1621.992188 140.195312 L 1626.015625 137.929688 L 1630 135.742188 L 1633.984375 133.59375 L 1638.007812 131.5625 L 1641.992188 129.570312 L 1646.015625 127.65625 L 1650 125.820312 L 1653.984375 124.0625 L 1658.007812 122.382812 L 1661.992188 120.742188 L 1666.015625 119.21875 L 1670 117.734375 L 1673.984375 116.328125 L 1678.007812 115 L 1681.992188 113.75 L 1686.015625 112.539062 L 1690 111.445312 L 1693.984375 110.390625 L 1698.007812 109.414062 L 1701.992188 108.515625 L 1706.015625 107.695312 L 1710 106.953125 L 1713.984375 106.25 L 1718.007812 105.625 L 1721.992188 105.117188 L 1726.015625 104.648438 L 1730 104.21875 L 1733.984375 103.90625 L 1738.007812 103.671875 L 1741.992188 103.476562 L 1746.015625 103.359375 L 1750 103.320312 " transform="matrix(0.1,0,0,-0.1,0,90)"/>
</g>
<path style="fill:none;stroke-width:10;stroke-linecap:butt;stroke-linejoin:miter;stroke:rgb(0%,0%,0%);stroke-opacity:1;stroke-miterlimit:10;" d="M 1850 183.320312 L 2650 183.320312 M 1983.320312 50 L 1983.320312 850 " transform="matrix(0.1,0,0,-0.1,0,90)"/>
<path style="fill:none;stroke-width:5;stroke-linecap:butt;stroke-linejoin:miter;stroke:rgb(80.076599%,80.076599%,80.076599%);stroke-opacity:1;stroke-miterlimit:10;" d="M 1850 50 L 1850 850 M 2650 50 L 2650 850 M 1850 50 L 2650 50 M 1850 850 L 2650 850 " transform="matrix(0.1,0,0,-0.1,0,90)"/>
<g clip-path="url(#clip4)" clip-rule="nonzero">
<path style="fill:none;stroke-width:15;stroke-linecap:butt;stroke-linejoin:miter;stroke:rgb(0%,0%,100%);stroke-opacity:1;stroke-miterlimit:10;" d="M 1850 -1350 L 1858.007812 -1244.140625 L 1866.015625 -1142.539062 L 1873.984375 -1045.039062 L 1881.992188 -951.640625 L 1890 -862.1875 L 1898.007812 -776.640625 L 1906.015625 -694.882812 L 1913.984375 -616.875 L 1921.992188 -542.460938 L 1930 -471.601562 L 1938.007812 -404.179688 L 1946.015625 -340.15625 L 1953.984375 -279.414062 L 1961.992188 -221.835938 L 1970 -167.382812 L 1978.007812 -115.976562 L 1986.015625 -67.5 L 1993.984375 -21.875 L 2001.992188 21.015625 L 2010 61.210938 L 2018.007812 98.789062 L 2026.015625 133.90625 L 2033.984375 166.5625 L 2041.992188 196.914062 L 2050 225 L 2058.007812 250.9375 L 2066.015625 274.804688 L 2073.984375 296.679688 L 2081.992188 316.640625 L 2090 334.804688 L 2098.007812 351.210938 L 2106.015625 366.015625 L 2113.984375 379.257812 L 2121.992188 391.015625 L 2130 401.40625 L 2138.007812 410.46875 L 2146.015625 418.359375 L 2153.984375 425.117188 L 2161.992188 430.820312 L 2170 435.585938 L 2178.007812 439.492188 L 2186.015625 442.617188 L 2193.984375 445.078125 L 2201.992188 446.875 L 2210 448.203125 L 2218.007812 449.0625 L 2226.015625 449.609375 L 2233.984375 449.882812 L 2241.992188 450 L 2258.007812 450 L 2266.015625 450.117188 L 2273.984375 450.390625 L 2281.992188 450.9375 L 2290 451.796875 L 2298.007812 453.125 L 2306.015625 454.921875 L 2313.984375 457.382812 L 2321.992188 460.507812 L 2330 464.414062 L 2338.007812 469.179688 L 2346.015625 474.882812 L 2353.984375 481.640625 L 2361.992188 489.53125 L 2370 498.59375 L 2378.007812 508.984375 L 2386.015625 520.742188 L 2393.984375 533.984375 L 2401.992188 548.789062 L 2410 565.195312 L 2418.007812 583.359375 L 2426.015625 603.320312 L 2433.984375 625.195312 L 2441.992188 649.0625 L 2450 675 L 2458.007812 703.085938 L 2466.015625 733.4375 L 2473.984375 766.09375 L 2481.992188 801.210938 L 2490 838.789062 L 2498.007812 878.984375 L 2506.015625 921.875 L 2513.984375 967.5 L 2521.992188 1015.976562 L 2530 1067.382812 L 2538.007812 1121.835938 L 2546.015625 1179.414062 L 2553.984375 1240.15625 L 2561.992188 1304.21875 L 2570 1371.601562 L 2578.007812 1442.460938 L 2586.015625 1516.875 L 2593.984375 1594.882812 L 2601.992188 1676.640625 L 2610 1762.1875 L 2618.007812 1851.640625 L 2626.015625 1945.039062 L 2633.984375 2042.539062 L 2641.992188 2144.140625 L 2650 2250 " transform="matrix(0.1,0,0,-0.1,0,90)"/>
</g>
<path style="fill:none;stroke-width:15;stroke-linecap:butt;stroke-linejoin:miter;stroke:rgb(0%,50%,0%);stroke-opacity:1;stroke-miterlimit:10;" d="M 2090 450 L 2410 450 " transform="matrix(0.1,0,0,-0.1,0,90)"/>
<path style=" stroke:none;fill-rule:nonzero;fill:rgb(100%,0%,0%);fill-opacity:1;" d="M 227 45 C 227 43.894531 226.105469 43 225 43 C 223.894531 43 223 43.894531 223 45 C 223 46.105469 223.894531 47 225 47 C 226.105469 47 227 46.105469 227 45 "/>
<path style="fill:none;stroke-width:10;stroke-linecap:butt;stroke-linejoin:miter;stroke:rgb(0%,0%,0%);stroke-opacity:1;stroke-miterlimit:10;" d="M 2270 450 C 2270 461.054688 2261.054688 470 2250 470 C 2238.945312 470 2230 461.054688 2230 450 C 2230 438.945312 2238.945312 430 2250 430 C 2261.054688 430 2270 438.945312 2270 450 Z M 2270 450 " transform="matrix(0.1,0,0,-0.1,0,90)"/>
<path style="fill:none;stroke-width:10;stroke-linecap:butt;stroke-linejoin:miter;stroke:rgb(0%,0%,0%);stroke-opacity:1;stroke-miterlimit:10;" d="M 2750 183.320312 L 3550 183.320312 M 2883.320312 50 L 2883.320312 850 " transform="matrix(0.1,0,0,-0.1,0,90)"/>
<path style="fill:none;stroke-width:5;stroke-linecap:butt;stroke-linejoin:miter;stroke:rgb(80.076599%,80.076599%,80.076599%);stroke-opacity:1;stroke-miterlimit:10;" d="M 2750 50 L 2750 850 M 3550 50 L 3550 850 M 2750 50 L 3550 50 M 2750 850 L 3550 850 " transform="matrix(0.1,0,0,-0.1,0,90)"/>
<g clip-path="url(#clip5)" clip-rule="nonzero">
<path style="fill:none;stroke-width:15;stroke-linecap:butt;stroke-linejoin:miter;stroke:rgb(0%,0%,100%);stroke-opacity:1;stroke-miterlimit:10;" d="M 2750 1050 L 2758.007812 1026.25 L 2766.015625 1002.96875 L 2773.984375 980.15625 L 2781.992188 957.851562 L 2790 936.015625 L 2798.007812 914.648438 L 2806.015625 893.75 L 2813.984375 873.359375 L 2821.992188 853.4375 L 2830 833.984375 L 2838.007812 815.039062 L 2846.015625 796.5625 L 2853.984375 778.554688 L 2861.992188 761.054688 L 2870 743.984375 L 2878.007812 727.421875 L 2886.015625 711.367188 L 2893.984375 695.78125 L 2901.992188 680.625 L 2910 666.015625 L 2918.007812 651.835938 L 2926.015625 638.164062 L 2933.984375 624.960938 L 2941.992188 612.226562 L 2950 600 L 2958.007812 588.242188 L 2966.015625 576.953125 L 2973.984375 566.171875 L 2981.992188 555.859375 L 2990 546.015625 L 2998.007812 536.640625 L 3006.015625 527.773438 L 3013.984375 519.375 L 3021.992188 511.445312 L 3030 503.984375 L 3038.007812 497.03125 L 3046.015625 490.546875 L 3053.984375 484.570312 L 3061.992188 479.023438 L 3070 473.984375 L 3078.007812 469.453125 L 3086.015625 465.351562 L 3093.984375 461.757812 L 3101.992188 458.632812 L 3110 456.015625 L 3118.007812 453.828125 L 3126.015625 452.148438 L 3133.984375 450.976562 L 3141.992188 450.234375 L 3150 450 L 3158.007812 450.234375 L 3166.015625 450.976562 L 3173.984375 452.148438 L 3181.992188 453.828125 L 3190 456.015625 L 3198.007812 458.632812 L 3206.015625 461.757812 L 3213.984375 465.351562 L 3221.992188 469.453125 L 3230 473.984375 L 3238.007812 479.023438 L 3246.015625 484.570312 L 3253.984375 490.546875 L 3261.992188 497.03125 L 3270 503.984375 L 3278.007812 511.445312 L 3286.015625 519.375 L 3293.984375 527.773438 L 3301.992188 536.640625 L 3310 546.015625 L 3318.007812 555.859375 L 3326.015625 566.171875 L 3333.984375 576.953125 L 3341.992188 588.242188 L 3350 600 L 3358.007812 612.226562 L 3366.015625 624.960938 L 3373.984375 638.164062 L 3381.992188 651.835938 L 3390 666.015625 L 3398.007812 680.625 L 3406.015625 695.78125 L 3413.984375 711.367188 L 3421.992188 727.421875 L 3430 743.984375 L 3438.007812 761.054688 L 3446.015625 778.554688 L 3453.984375 796.5625 L 3461.992188 815.039062 L 3470 833.984375 L 3478.007812 853.4375 L 3486.015625 873.359375 L 3493.984375 893.75 L 3501.992188 914.648438 L 3510 936.015625 L 3518.007812 957.851562 L 3526.015625 980.15625 L 3533.984375 1002.96875 L 3541.992188 1026.25 L 3550 1050 " transform="matrix(0.1,0,0,-0.1,0,90)"/>
</g>
<path style="fill:none;stroke-width:15;stroke-linecap:butt;stroke-linejoin:miter;stroke:rgb(0%,50%,0%);stroke-opacity:1;stroke-miterlimit:10;" d="M 2990 450 L 3310 450 " transform="matrix(0.1,0,0,-0.1,0,90)"/>
<path style=" stroke:none;fill-rule:nonzero;fill:rgb(100%,0%,0%);fill-opacity:1;" d="M 317 45 C 317 43.894531 316.105469 43 315 43 C 313.894531 43 313 43.894531 313 45 C 313 46.105469 313.894531 47 315 47 C 316.105469 47 317 46.105469 317 45 "/>
<path style="fill:none;stroke-width:10;stroke-linecap:butt;stroke-linejoin:miter;stroke:rgb(0%,0%,0%);stroke-opacity:1;stroke-miterlimit:10;" d="M 3170 450 C 3170 461.054688 3161.054688 470 3150 470 C 3138.945312 470 3130 461.054688 3130 450 C 3130 438.945312 3138.945312 430 3150 430 C 3161.054688 430 3170 438.945312 3170 450 Z M 3170 450 " transform="matrix(0.1,0,0,-0.1,0,90)"/>
<path style="fill:none;stroke-width:10;stroke-linecap:butt;stroke-linejoin:miter;stroke:rgb(0%,0%,0%);stroke-opacity:1;stroke-miterlimit:10;" d="M 3650 183.320312 L 4450 183.320312 M 3783.320312 50 L 3783.320312 850 " transform="matrix(0.1,0,0,-0.1,0,90)"/>
<path style="fill:none;stroke-width:5;stroke-linecap:butt;stroke-linejoin:miter;stroke:rgb(80.076599%,80.076599%,80.076599%);stroke-opacity:1;stroke-miterlimit:10;" d="M 3650 50 L 3650 850 M 4450 50 L 4450 850 M 3650 50 L 4450 50 M 3650 850 L 4450 850 " transform="matrix(0.1,0,0,-0.1,0,90)"/>
<g clip-path="url(#clip6)" clip-rule="nonzero">
<path style="fill:none;stroke-width:15;stroke-linecap:butt;stroke-linejoin:miter;stroke:rgb(0%,0%,100%);stroke-opacity:1;stroke-miterlimit:10;" d="M 3650 796.679688 L 3653.984375 796.640625 L 3658.007812 796.523438 L 3661.992188 796.328125 L 3666.015625 796.09375 L 3670 795.78125 L 3673.984375 795.351562 L 3678.007812 794.882812 L 3681.992188 794.375 L 3686.015625 793.75 L 3690 793.046875 L 3693.984375 792.304688 L 3698.007812 791.484375 L 3701.992188 790.585938 L 3706.015625 789.609375 L 3710 788.554688 L 3713.984375 787.460938 L 3718.007812 786.25 L 3721.992188 785 L 3726.015625 783.671875 L 3730 782.265625 L 3733.984375 780.78125 L 3738.007812 779.257812 L 3741.992188 777.617188 L 3746.015625 775.9375 L 3750 774.179688 L 3753.984375 772.34375 L 3758.007812 770.429688 L 3761.992188 768.4375 L 3766.015625 766.40625 L 3770 764.257812 L 3773.984375 762.070312 L 3778.007812 759.804688 L 3781.992188 757.460938 L 3786.015625 755.039062 L 3790 752.578125 L 3793.984375 750 L 3798.007812 747.382812 L 3801.992188 744.6875 L 3806.015625 741.914062 L 3810 739.0625 L 3813.984375 736.132812 L 3818.007812 733.164062 L 3821.992188 730.117188 L 3826.015625 726.992188 L 3833.984375 720.507812 L 3838.007812 717.148438 L 3841.992188 713.710938 L 3846.015625 710.234375 L 3850 706.679688 L 3853.984375 703.046875 L 3858.007812 699.335938 L 3861.992188 695.546875 L 3866.015625 691.679688 L 3870 687.773438 L 3873.984375 683.789062 L 3878.007812 679.6875 L 3881.992188 675.546875 L 3886.015625 671.367188 L 3890 667.070312 L 3893.984375 662.695312 L 3898.007812 658.28125 L 3901.992188 653.789062 L 3906.015625 649.21875 L 3910 644.570312 L 3913.984375 639.84375 L 3918.007812 635.078125 L 3921.992188 630.195312 L 3926.015625 625.273438 L 3930 620.273438 L 3933.984375 615.195312 L 3938.007812 610.039062 L 3941.992188 604.804688 L 3946.015625 599.53125 L 3950 594.179688 L 3953.984375 588.710938 L 3958.007812 583.242188 L 3961.992188 577.65625 L 3966.015625 571.992188 L 3970 566.25 L 3973.984375 560.46875 L 3978.007812 554.609375 L 3981.992188 548.671875 L 3986.015625 542.65625 L 3990 536.5625 L 3993.984375 530.390625 L 3998.007812 524.179688 L 4001.992188 517.890625 L 4006.015625 511.523438 L 4010 505.078125 L 4013.984375 498.554688 L 4018.007812 491.953125 L 4021.992188 485.3125 L 4026.015625 478.554688 L 4030 471.757812 L 4033.984375 464.882812 L 4038.007812 457.929688 L 4041.992188 450.9375 L 4046.015625 443.828125 L 4050 436.679688 " transform="matrix(0.1,0,0,-0.1,0,90)"/>
</g>
<g clip-path="url(#clip7)" clip-rule="nonzero">
<path style="fill:none;stroke-width:15;stroke-linecap:butt;stroke-linejoin:miter;stroke:rgb(0%,0%,100%);stroke-opacity:1;stroke-miterlimit:10;" d="M 4050 436.679688 L 4053.984375 443.828125 L 4058.007812 450.9375 L 4061.992188 457.929688 L 4066.015625 464.882812 L 4070 471.757812 L 4073.984375 478.554688 L 4078.007812 485.3125 L 4081.992188 491.953125 L 4086.015625 498.554688 L 4090 505.078125 L 4093.984375 511.523438 L 4098.007812 517.890625 L 4101.992188 524.179688 L 4106.015625 530.390625 L 4110 536.5625 L 4113.984375 542.65625 L 4118.007812 548.671875 L 4121.992188 554.609375 L 4126.015625 560.46875 L 4130 566.25 L 4133.984375 571.992188 L 4138.007812 577.65625 L 4141.992188 583.242188 L 4146.015625 588.710938 L 4150 594.179688 L 4153.984375 599.53125 L 4158.007812 604.804688 L 4161.992188 610.039062 L 4166.015625 615.195312 L 4170 620.273438 L 4173.984375 625.273438 L 4178.007812 630.195312 L 4181.992188 635.078125 L 4186.015625 639.84375 L 4190 644.570312 L 4193.984375 649.21875 L 4198.007812 653.789062 L 4201.992188 658.28125 L 4206.015625 662.695312 L 4210 667.070312 L 4213.984375 671.367188 L 4218.007812 675.546875 L 4221.992188 679.6875 L 4226.015625 683.789062 L 4230 687.773438 L 4233.984375 691.679688 L 4238.007812 695.546875 L 4241.992188 699.335938 L 4246.015625 703.046875 L 4250 706.679688 L 4253.984375 710.234375 L 4258.007812 713.710938 L 4261.992188 717.148438 L 4266.015625 720.507812 L 4273.984375 726.992188 L 4278.007812 730.117188 L 4281.992188 733.164062 L 4286.015625 736.132812 L 4290 739.0625 L 4293.984375 741.914062 L 4298.007812 744.6875 L 4301.992188 747.382812 L 4306.015625 750 L 4310 752.578125 L 4313.984375 755.039062 L 4318.007812 757.460938 L 4321.992188 759.804688 L 4326.015625 762.070312 L 4330 764.257812 L 4333.984375 766.40625 L 4338.007812 768.4375 L 4341.992188 770.429688 L 4346.015625 772.34375 L 4350 774.179688 L 4353.984375 775.9375 L 4358.007812 777.617188 L 4361.992188 779.257812 L 4366.015625 780.78125 L 4370 782.265625 L 4373.984375 783.671875 L 4378.007812 785 L 4381.992188 786.25 L 4386.015625 787.460938 L 4390 788.554688 L 4393.984375 789.609375 L 4398.007812 790.585938 L 4401.992188 791.484375 L 4406.015625 792.304688 L 4410 793.046875 L 4413.984375 793.75 L 4418.007812 794.375 L 4421.992188 794.882812 L 4426.015625 795.351562 L 4430 795.78125 L 4433.984375 796.09375 L 4438.007812 796.328125 L 4441.992188 796.523438 L 4446.015625 796.640625 L 4450 796.679688 " transform="matrix(0.1,0,0,-0.1,0,90)"/>
</g>
</g>
</svg>
