<?xml version="1.0" encoding="UTF-8"?>
<svg xmlns="http://www.w3.org/2000/svg" xmlns:xlink="http://www.w3.org/1999/xlink" width="129pt" height="129pt" viewBox="0 0 129 129" version="1.1">
<g id="surface1">
<rect x="0" y="0" width="129" height="129" style="fill:rgb(100%,100%,100%);fill-opacity:1;stroke:none;"/>
<path style="fill:none;stroke-width:10;stroke-linecap:round;stroke-linejoin:round;stroke:rgb(75.389099%,75.389099%,75.389099%);stroke-opacity:1;stroke-miterlimit:10;" d="M 77.421875 1503.59375 L 77.421875 -61.601562 " transform="matrix(0.1,0,0,-0.1,0,129)"/>
<path style="fill:none;stroke-width:10;stroke-linecap:round;stroke-linejoin:round;stroke:rgb(75.389099%,75.389099%,75.389099%);stroke-opacity:1;stroke-miterlimit:10;" d="M 360.898438 1503.59375 L 360.898438 -61.601562 " transform="matrix(0.1,0,0,-0.1,0,129)"/>
<path style="fill:none;stroke-width:10;stroke-linecap:round;stroke-linejoin:round;stroke:rgb(75.389099%,75.389099%,75.389099%);stroke-opacity:1;stroke-miterlimit:10;" d="M 927.851562 1503.59375 L 927.851562 -61.601562 " transform="matrix(0.1,0,0,-0.1,0,129)"/>
<path style="fill:none;stroke-width:10;stroke-linecap:round;stroke-linejoin:round;stroke:rgb(75.389099%,75.389099%,75.389099%);stroke-opacity:1;stroke-miterlimit:10;" d="M 1211.289062 1503.59375 L 1211.289062 -61.601562 " transform="matrix(0.1,0,0,-0.1,0,129)"/>
<path style="fill:none;stroke-width:10;stroke-linecap:round;stroke-linejoin:round;stroke:rgb(94.139099%,94.139099%,94.139099%);stroke-opacity:1;stroke-miterlimit:10;" d="M 20.742188 1503.59375 L 20.742188 -61.601562 " transform="matrix(0.1,0,0,-0.1,0,129)"/>
<path style="fill:none;stroke-width:10;stroke-linecap:round;stroke-linejoin:round;stroke:rgb(94.139099%,94.139099%,94.139099%);stroke-opacity:1;stroke-miterlimit:10;" d="M 134.140625 1503.59375 L 134.140625 -61.601562 " transform="matrix(0.1,0,0,-0.1,0,129)"/>
<path style="fill:none;stroke-width:10;stroke-linecap:round;stroke-linejoin:round;stroke:rgb(94.139099%,94.139099%,94.139099%);stroke-opacity:1;stroke-miterlimit:10;" d="M 190.820312 1503.59375 L 190.820312 -61.601562 " transform="matrix(0.1,0,0,-0.1,0,129)"/>
<path style="fill:none;stroke-width:10;stroke-linecap:round;stroke-linejoin:round;stroke:rgb(94.139099%,94.139099%,94.139099%);stroke-opacity:1;stroke-miterlimit:10;" d="M 247.539062 1503.59375 L 247.539062 -61.601562 " transform="matrix(0.1,0,0,-0.1,0,129)"/>
<path style="fill:none;stroke-width:10;stroke-linecap:round;stroke-linejoin:round;stroke:rgb(94.139099%,94.139099%,94.139099%);stroke-opacity:1;stroke-miterlimit:10;" d="M 304.21875 1503.59375 L 304.21875 -61.601562 " transform="matrix(0.1,0,0,-0.1,0,129)"/>
<path style="fill:none;stroke-width:10;stroke-linecap:round;stroke-linejoin:round;stroke:rgb(94.139099%,94.139099%,94.139099%);stroke-opacity:1;stroke-miterlimit:10;" d="M 417.617188 1503.59375 L 417.617188 -61.601562 " transform="matrix(0.1,0,0,-0.1,0,129)"/>
<path style="fill:none;stroke-width:10;stroke-linecap:round;stroke-linejoin:round;stroke:rgb(94.139099%,94.139099%,94.139099%);stroke-opacity:1;stroke-miterlimit:10;" d="M 474.296875 1503.59375 L 474.296875 -61.601562 " transform="matrix(0.1,0,0,-0.1,0,129)"/>
<path style="fill:none;stroke-width:10;stroke-linecap:round;stroke-linejoin:round;stroke:rgb(94.139099%,94.139099%,94.139099%);stroke-opacity:1;stroke-miterlimit:10;" d="M 530.976562 1503.59375 L 530.976562 -61.601562 " transform="matrix(0.1,0,0,-0.1,0,129)"/>
<path style="fill:none;stroke-width:10;stroke-linecap:round;stroke-linejoin:round;stroke:rgb(94.139099%,94.139099%,94.139099%);stroke-opacity:1;stroke-miterlimit:10;" d="M 587.695312 1503.59375 L 587.695312 -61.601562 " transform="matrix(0.1,0,0,-0.1,0,129)"/>
<path style="fill:none;stroke-width:10;stroke-linecap:round;stroke-linejoin:round;stroke:rgb(94.139099%,94.139099%,94.139099%);stroke-opacity:1;stroke-miterlimit:10;" d="M 701.054688 1503.59375 L 701.054688 -61.601562 " transform="matrix(0.1,0,0,-0.1,0,129)"/>
<path style="fill:none;stroke-width:10;stroke-linecap:round;stroke-linejoin:round;stroke:rgb(94.139099%,94.139099%,94.139099%);stroke-opacity:1;stroke-miterlimit:10;" d="M 757.773438 1503.59375 L 757.773438 -61.601562 " transform="matrix(0.1,0,0,-0.1,0,129)"/>
<path style="fill:none;stroke-width:10;stroke-linecap:round;stroke-linejoin:round;stroke:rgb(94.139099%,94.139099%,94.139099%);stroke-opacity:1;stroke-miterlimit:10;" d="M 814.453125 1503.59375 L 814.453125 -61.601562 " transform="matrix(0.1,0,0,-0.1,0,129)"/>
<path style="fill:none;stroke-width:10;stroke-linecap:round;stroke-linejoin:round;stroke:rgb(94.139099%,94.139099%,94.139099%);stroke-opacity:1;stroke-miterlimit:10;" d="M 871.132812 1503.59375 L 871.132812 -61.601562 " transform="matrix(0.1,0,0,-0.1,0,129)"/>
<path style="fill:none;stroke-width:10;stroke-linecap:round;stroke-linejoin:round;stroke:rgb(94.139099%,94.139099%,94.139099%);stroke-opacity:1;stroke-miterlimit:10;" d="M 984.53125 1503.59375 L 984.53125 -61.601562 " transform="matrix(0.1,0,0,-0.1,0,129)"/>
<path style="fill:none;stroke-width:10;stroke-linecap:round;stroke-linejoin:round;stroke:rgb(94.139099%,94.139099%,94.139099%);stroke-opacity:1;stroke-miterlimit:10;" d="M 1041.210938 1503.59375 L 1041.210938 -61.601562 " transform="matrix(0.1,0,0,-0.1,0,129)"/>
<path style="fill:none;stroke-width:10;stroke-linecap:round;stroke-linejoin:round;stroke:rgb(94.139099%,94.139099%,94.139099%);stroke-opacity:1;stroke-miterlimit:10;" d="M 1097.890625 1503.59375 L 1097.890625 -61.601562 " transform="matrix(0.1,0,0,-0.1,0,129)"/>
<path style="fill:none;stroke-width:10;stroke-linecap:round;stroke-linejoin:round;stroke:rgb(94.139099%,94.139099%,94.139099%);stroke-opacity:1;stroke-miterlimit:10;" d="M 1154.609375 1503.59375 L 1154.609375 -61.601562 " transform="matrix(0.1,0,0,-0.1,0,129)"/>
<path style="fill:none;stroke-width:10;stroke-linecap:round;stroke-linejoin:round;stroke:rgb(94.139099%,94.139099%,94.139099%);stroke-opacity:1;stroke-miterlimit:10;" d="M 1268.007812 1503.59375 L 1268.007812 -61.601562 " transform="matrix(0.1,0,0,-0.1,0,129)"/>
<path style="fill:none;stroke-width:10;stroke-linecap:round;stroke-linejoin:round;stroke:rgb(75.389099%,75.389099%,75.389099%);stroke-opacity:1;stroke-miterlimit:10;" d="M -246.953125 1212.617188 L 1688.671875 1212.617188 " transform="matrix(0.1,0,0,-0.1,0,129)"/>
<path style="fill:none;stroke-width:10;stroke-linecap:round;stroke-linejoin:round;stroke:rgb(75.389099%,75.389099%,75.389099%);stroke-opacity:1;stroke-miterlimit:10;" d="M -246.953125 929.140625 L 1688.671875 929.140625 " transform="matrix(0.1,0,0,-0.1,0,129)"/>
<path style="fill:none;stroke-width:10;stroke-linecap:round;stroke-linejoin:round;stroke:rgb(75.389099%,75.389099%,75.389099%);stroke-opacity:1;stroke-miterlimit:10;" d="M -246.953125 362.226562 L 1688.671875 362.226562 " transform="matrix(0.1,0,0,-0.1,0,129)"/>
<path style="fill:none;stroke-width:10;stroke-linecap:round;stroke-linejoin:round;stroke:rgb(75.389099%,75.389099%,75.389099%);stroke-opacity:1;stroke-miterlimit:10;" d="M -246.953125 78.75 L 1688.671875 78.75 " transform="matrix(0.1,0,0,-0.1,0,129)"/>
<path style="fill:none;stroke-width:10;stroke-linecap:round;stroke-linejoin:round;stroke:rgb(94.139099%,94.139099%,94.139099%);stroke-opacity:1;stroke-miterlimit:10;" d="M -246.953125 1269.296875 L 1688.671875 1269.296875 " transform="matrix(0.1,0,0,-0.1,0,129)"/>
<path style="fill:none;stroke-width:10;stroke-linecap:round;stroke-linejoin:round;stroke:rgb(94.139099%,94.139099%,94.139099%);stroke-opacity:1;stroke-miterlimit:10;" d="M -246.953125 1155.9375 L 1688.671875 1155.9375 " transform="matrix(0.1,0,0,-0.1,0,129)"/>
<path style="fill:none;stroke-width:10;stroke-linecap:round;stroke-linejoin:round;stroke:rgb(94.139099%,94.139099%,94.139099%);stroke-opacity:1;stroke-miterlimit:10;" d="M -246.953125 1099.21875 L 1688.671875 1099.21875 " transform="matrix(0.1,0,0,-0.1,0,129)"/>
<path style="fill:none;stroke-width:10;stroke-linecap:round;stroke-linejoin:round;stroke:rgb(94.139099%,94.139099%,94.139099%);stroke-opacity:1;stroke-miterlimit:10;" d="M -246.953125 1042.539062 L 1688.671875 1042.539062 " transform="matrix(0.1,0,0,-0.1,0,129)"/>
<path style="fill:none;stroke-width:10;stroke-linecap:round;stroke-linejoin:round;stroke:rgb(94.139099%,94.139099%,94.139099%);stroke-opacity:1;stroke-miterlimit:10;" d="M -246.953125 985.859375 L 1688.671875 985.859375 " transform="matrix(0.1,0,0,-0.1,0,129)"/>
<path style="fill:none;stroke-width:10;stroke-linecap:round;stroke-linejoin:round;stroke:rgb(94.139099%,94.139099%,94.139099%);stroke-opacity:1;stroke-miterlimit:10;" d="M -246.953125 872.460938 L 1688.671875 872.460938 " transform="matrix(0.1,0,0,-0.1,0,129)"/>
<path style="fill:none;stroke-width:10;stroke-linecap:round;stroke-linejoin:round;stroke:rgb(94.139099%,94.139099%,94.139099%);stroke-opacity:1;stroke-miterlimit:10;" d="M -246.953125 815.78125 L 1688.671875 815.78125 " transform="matrix(0.1,0,0,-0.1,0,129)"/>
<path style="fill:none;stroke-width:10;stroke-linecap:round;stroke-linejoin:round;stroke:rgb(94.139099%,94.139099%,94.139099%);stroke-opacity:1;stroke-miterlimit:10;" d="M -246.953125 759.0625 L 1688.671875 759.0625 " transform="matrix(0.1,0,0,-0.1,0,129)"/>
<path style="fill:none;stroke-width:10;stroke-linecap:round;stroke-linejoin:round;stroke:rgb(94.139099%,94.139099%,94.139099%);stroke-opacity:1;stroke-miterlimit:10;" d="M -246.953125 702.382812 L 1688.671875 702.382812 " transform="matrix(0.1,0,0,-0.1,0,129)"/>
<path style="fill:none;stroke-width:10;stroke-linecap:round;stroke-linejoin:round;stroke:rgb(94.139099%,94.139099%,94.139099%);stroke-opacity:1;stroke-miterlimit:10;" d="M -246.953125 588.984375 L 1688.671875 588.984375 " transform="matrix(0.1,0,0,-0.1,0,129)"/>
<path style="fill:none;stroke-width:10;stroke-linecap:round;stroke-linejoin:round;stroke:rgb(94.139099%,94.139099%,94.139099%);stroke-opacity:1;stroke-miterlimit:10;" d="M -246.953125 532.304688 L 1688.671875 532.304688 " transform="matrix(0.1,0,0,-0.1,0,129)"/>
<path style="fill:none;stroke-width:10;stroke-linecap:round;stroke-linejoin:round;stroke:rgb(94.139099%,94.139099%,94.139099%);stroke-opacity:1;stroke-miterlimit:10;" d="M -246.953125 475.625 L 1688.671875 475.625 " transform="matrix(0.1,0,0,-0.1,0,129)"/>
<path style="fill:none;stroke-width:10;stroke-linecap:round;stroke-linejoin:round;stroke:rgb(94.139099%,94.139099%,94.139099%);stroke-opacity:1;stroke-miterlimit:10;" d="M -246.953125 418.90625 L 1688.671875 418.90625 " transform="matrix(0.1,0,0,-0.1,0,129)"/>
<path style="fill:none;stroke-width:10;stroke-linecap:round;stroke-linejoin:round;stroke:rgb(94.139099%,94.139099%,94.139099%);stroke-opacity:1;stroke-miterlimit:10;" d="M -246.953125 305.546875 L 1688.671875 305.546875 " transform="matrix(0.1,0,0,-0.1,0,129)"/>
<path style="fill:none;stroke-width:10;stroke-linecap:round;stroke-linejoin:round;stroke:rgb(94.139099%,94.139099%,94.139099%);stroke-opacity:1;stroke-miterlimit:10;" d="M -246.953125 248.828125 L 1688.671875 248.828125 " transform="matrix(0.1,0,0,-0.1,0,129)"/>
<path style="fill:none;stroke-width:10;stroke-linecap:round;stroke-linejoin:round;stroke:rgb(94.139099%,94.139099%,94.139099%);stroke-opacity:1;stroke-miterlimit:10;" d="M -246.953125 192.148438 L 1688.671875 192.148438 " transform="matrix(0.1,0,0,-0.1,0,129)"/>
<path style="fill:none;stroke-width:10;stroke-linecap:round;stroke-linejoin:round;stroke:rgb(94.139099%,94.139099%,94.139099%);stroke-opacity:1;stroke-miterlimit:10;" d="M -246.953125 135.46875 L 1688.671875 135.46875 " transform="matrix(0.1,0,0,-0.1,0,129)"/>
<path style="fill:none;stroke-width:10;stroke-linecap:round;stroke-linejoin:round;stroke:rgb(94.139099%,94.139099%,94.139099%);stroke-opacity:1;stroke-miterlimit:10;" d="M -246.953125 22.070312 L 1688.671875 22.070312 " transform="matrix(0.1,0,0,-0.1,0,129)"/>
<path style="fill:none;stroke-width:10;stroke-linecap:butt;stroke-linejoin:miter;stroke:rgb(0%,0%,0%);stroke-opacity:1;stroke-miterlimit:10;" d="M 644.375 1496.914062 L 644.375 -61.601562 " transform="matrix(0.1,0,0,-0.1,0,129)"/>
<path style="fill:none;stroke-width:10;stroke-linecap:butt;stroke-linejoin:miter;stroke:rgb(0%,0%,0%);stroke-opacity:1;stroke-miterlimit:10;" d="M -246.953125 645.703125 L 1681.992188 645.703125 " transform="matrix(0.1,0,0,-0.1,0,129)"/>
<path style=" stroke:none;fill-rule:nonzero;fill:rgb(0%,0%,0%);fill-opacity:1;" d="M 6.210938 68.6875 L 6.210938 68.421875 L 7.804688 68.421875 L 7.804688 68.6875 Z M 8.34375 69.75 L 8.34375 69.410156 C 8.453125 69.148438 8.679688 68.863281 9.023438 68.554688 L 9.242188 68.355469 C 9.527344 68.101562 9.667969 67.84375 9.667969 67.59375 C 9.667969 67.429688 9.621094 67.304688 9.523438 67.210938 C 9.425781 67.117188 9.292969 67.070312 9.125 67.070312 C 8.921875 67.070312 8.6875 67.148438 8.414062 67.304688 L 8.414062 66.964844 C 8.671875 66.84375 8.925781 66.78125 9.179688 66.78125 C 9.449219 66.78125 9.667969 66.855469 9.832031 67 C 9.996094 67.148438 10.078125 67.339844 10.078125 67.582031 C 10.078125 67.757812 10.035156 67.910156 9.953125 68.042969 C 9.871094 68.179688 9.71875 68.339844 9.492188 68.53125 L 9.34375 68.660156 C 9.035156 68.921875 8.855469 69.171875 8.808594 69.410156 L 10.066406 69.410156 L 10.066406 69.75 "/>
<path style=" stroke:none;fill-rule:nonzero;fill:rgb(0%,0%,0%);fill-opacity:1;" d="M 34.578125 68.6875 L 34.578125 68.421875 L 36.171875 68.421875 L 36.171875 68.6875 Z M 36.976562 69.75 L 36.976562 69.460938 L 37.558594 69.460938 L 37.558594 67.175781 L 36.976562 67.320312 L 36.976562 67.023438 L 37.945312 66.78125 L 37.945312 69.460938 L 38.523438 69.460938 L 38.523438 69.75 "/>
<path style=" stroke:none;fill-rule:nonzero;fill:rgb(0%,0%,0%);fill-opacity:1;" d="M 92.710938 69.75 L 92.710938 69.460938 L 93.289062 69.460938 L 93.289062 67.175781 L 92.710938 67.320312 L 92.710938 67.023438 L 93.675781 66.78125 L 93.675781 69.460938 L 94.257812 69.460938 L 94.257812 69.75 "/>
<path style=" stroke:none;fill-rule:nonzero;fill:rgb(0%,0%,0%);fill-opacity:1;" d="M 120.472656 69.75 L 120.472656 69.410156 C 120.585938 69.148438 120.8125 68.863281 121.15625 68.554688 L 121.375 68.355469 C 121.660156 68.101562 121.800781 67.84375 121.800781 67.59375 C 121.800781 67.429688 121.753906 67.304688 121.65625 67.210938 C 121.558594 67.117188 121.425781 67.070312 121.257812 67.070312 C 121.054688 67.070312 120.820312 67.148438 120.546875 67.304688 L 120.546875 66.964844 C 120.804688 66.84375 121.058594 66.78125 121.3125 66.78125 C 121.582031 66.78125 121.800781 66.855469 121.964844 67 C 122.128906 67.148438 122.210938 67.339844 122.210938 67.582031 C 122.210938 67.757812 122.171875 67.910156 122.085938 68.042969 C 122.003906 68.179688 121.851562 68.339844 121.625 68.53125 L 121.476562 68.660156 C 121.164062 68.921875 120.988281 69.171875 120.941406 69.410156 L 122.195312 69.410156 L 122.195312 69.75 "/>
<path style=" stroke:none;fill-rule:nonzero;fill:rgb(0%,0%,0%);fill-opacity:1;" d="M 57.605469 121.417969 L 57.605469 121.148438 L 59.199219 121.148438 L 59.199219 121.417969 Z M 59.734375 122.476562 L 59.734375 122.140625 C 59.847656 121.878906 60.074219 121.59375 60.417969 121.28125 L 60.636719 121.085938 C 60.921875 120.828125 61.0625 120.574219 61.0625 120.320312 C 61.0625 120.160156 61.015625 120.03125 60.917969 119.941406 C 60.820312 119.847656 60.6875 119.800781 60.519531 119.800781 C 60.316406 119.800781 60.082031 119.878906 59.808594 120.035156 L 59.808594 119.695312 C 60.066406 119.574219 60.320312 119.511719 60.574219 119.511719 C 60.84375 119.511719 61.0625 119.585938 61.226562 119.730469 C 61.390625 119.875 61.472656 120.070312 61.472656 120.3125 C 61.472656 120.484375 61.429688 120.636719 61.347656 120.773438 C 61.265625 120.90625 61.109375 121.070312 60.886719 121.261719 L 60.738281 121.386719 C 60.429688 121.652344 60.25 121.902344 60.203125 122.140625 L 61.457031 122.140625 L 61.457031 122.476562 "/>
<path style=" stroke:none;fill-rule:nonzero;fill:rgb(0%,0%,0%);fill-opacity:1;" d="M 57.605469 93.382812 L 57.605469 93.117188 L 59.199219 93.117188 L 59.199219 93.382812 Z M 60.007812 94.445312 L 60.007812 94.15625 L 60.585938 94.15625 L 60.585938 91.871094 L 60.007812 92.015625 L 60.007812 91.71875 L 60.972656 91.476562 L 60.972656 94.15625 L 61.550781 94.15625 L 61.550781 94.445312 "/>
<path style=" stroke:none;fill-rule:nonzero;fill:rgb(0%,0%,0%);fill-opacity:1;" d="M 60.007812 37.710938 L 60.007812 37.421875 L 60.585938 37.421875 L 60.585938 35.136719 L 60.007812 35.28125 L 60.007812 34.984375 L 60.972656 34.746094 L 60.972656 37.421875 L 61.550781 37.421875 L 61.550781 37.710938 "/>
<path style=" stroke:none;fill-rule:nonzero;fill:rgb(0%,0%,0%);fill-opacity:1;" d="M 59.734375 9.34375 L 59.734375 9.007812 C 59.847656 8.742188 60.074219 8.460938 60.417969 8.148438 L 60.636719 7.953125 C 60.921875 7.695312 61.0625 7.441406 61.0625 7.1875 C 61.0625 7.027344 61.015625 6.898438 60.917969 6.804688 C 60.820312 6.714844 60.6875 6.667969 60.519531 6.667969 C 60.316406 6.667969 60.082031 6.746094 59.808594 6.898438 L 59.808594 6.558594 C 60.066406 6.4375 60.320312 6.378906 60.574219 6.378906 C 60.84375 6.378906 61.0625 6.449219 61.226562 6.597656 C 61.390625 6.742188 61.472656 6.9375 61.472656 7.179688 C 61.472656 7.351562 61.429688 7.503906 61.347656 7.640625 C 61.265625 7.773438 61.109375 7.9375 60.886719 8.128906 L 60.738281 8.253906 C 60.429688 8.515625 60.25 8.769531 60.203125 9.007812 L 61.457031 9.007812 L 61.457031 9.34375 "/>
<path style=" stroke:none;fill-rule:nonzero;fill:rgb(0%,0%,0%);fill-opacity:1;" d="M 60.660156 69.820312 C 60.359375 69.820312 60.117188 69.679688 59.933594 69.398438 C 59.75 69.117188 59.65625 68.753906 59.65625 68.300781 C 59.65625 67.84375 59.75 67.476562 59.9375 67.199219 C 60.121094 66.921875 60.367188 66.78125 60.671875 66.78125 C 60.972656 66.78125 61.21875 66.921875 61.40625 67.199219 C 61.589844 67.476562 61.683594 67.84375 61.683594 68.292969 C 61.683594 68.757812 61.589844 69.128906 61.40625 69.40625 C 61.21875 69.683594 60.96875 69.820312 60.660156 69.820312 Z M 60.664062 69.53125 C 61.070312 69.53125 61.273438 69.117188 61.273438 68.289062 C 61.273438 67.476562 61.074219 67.070312 60.671875 67.070312 C 60.269531 67.070312 60.070312 67.480469 60.070312 68.300781 C 60.070312 69.121094 60.265625 69.53125 60.664062 69.53125 "/>
<path style="fill:none;stroke-width:25;stroke-linecap:round;stroke-linejoin:round;stroke:rgb(30.200195%,30.200195%,100%);stroke-opacity:1;stroke-miterlimit:10;" d="M 373.046875 -80.742188 L 376.835938 -57.265625 L 380.585938 -34.296875 L 384.375 -11.757812 L 388.164062 10.3125 L 391.953125 31.914062 L 395.742188 53.085938 L 399.492188 73.789062 L 403.28125 94.0625 L 407.070312 113.867188 L 410.859375 133.242188 L 414.648438 152.1875 L 418.398438 170.703125 L 422.1875 188.789062 L 425.976562 206.445312 L 429.765625 223.671875 L 433.515625 240.507812 L 441.09375 272.929688 L 448.671875 303.75 L 456.210938 333.007812 L 463.789062 360.703125 L 471.328125 386.875 L 478.90625 411.5625 L 486.445312 434.804688 L 494.023438 456.679688 L 501.5625 477.109375 L 509.140625 496.210938 L 516.71875 513.984375 L 524.257812 530.507812 L 539.375 559.726562 L 554.492188 584.257812 L 569.648438 604.21875 L 584.765625 619.960938 L 599.882812 631.757812 L 615 639.765625 L 622.578125 642.460938 L 630.117188 644.335938 L 645.234375 645.703125 L 652.8125 645.234375 L 660.351562 644.0625 L 675.46875 639.765625 L 690.625 633.046875 L 705.742188 624.140625 L 720.859375 613.28125 L 735.976562 600.78125 L 751.09375 586.875 L 766.210938 571.835938 L 781.328125 555.898438 L 796.445312 539.335938 L 811.5625 522.382812 L 826.71875 505.3125 L 841.835938 488.398438 L 856.953125 471.914062 L 872.070312 456.054688 L 887.1875 441.132812 L 902.304688 427.382812 L 917.421875 415.078125 L 932.578125 404.453125 L 947.695312 395.78125 L 962.8125 389.335938 L 977.929688 385.351562 L 985.46875 384.375 L 993.046875 384.101562 L 1008.164062 385.820312 L 1015.742188 387.890625 L 1023.28125 390.78125 L 1038.398438 399.257812 L 1053.554688 411.484375 L 1068.671875 427.734375 L 1083.789062 448.242188 L 1098.90625 473.320312 L 1114.023438 503.164062 L 1121.601562 519.960938 L 1129.140625 538.046875 L 1136.71875 557.5 L 1144.257812 578.28125 L 1151.835938 600.46875 L 1159.375 624.0625 L 1166.953125 649.101562 L 1174.492188 675.664062 L 1182.070312 703.710938 L 1189.648438 733.359375 L 1197.1875 764.570312 L 1204.765625 797.382812 L 1208.554688 814.414062 L 1212.304688 831.835938 L 1216.09375 849.726562 L 1219.882812 868.007812 L 1223.671875 886.71875 L 1227.421875 905.859375 L 1231.210938 925.46875 L 1235 945.507812 L 1238.789062 965.976562 L 1242.578125 986.875 L 1246.328125 1008.242188 L 1250.117188 1030.078125 L 1253.90625 1052.382812 L 1257.695312 1075.15625 L 1261.445312 1098.398438 L 1265.234375 1122.070312 L 1269.023438 1146.25 L 1272.8125 1170.898438 L 1276.601562 1196.054688 L 1280.351562 1221.679688 L 1284.140625 1247.8125 L 1287.929688 1274.453125 L 1291.71875 1301.5625 L 1295.507812 1329.179688 L 1299.257812 1357.34375 L 1303.046875 1385.976562 L 1306.835938 1415.15625 L 1310.625 1444.84375 L 1314.375 1475.078125 L 1318.164062 1505.820312 L 1321.953125 1537.109375 " transform="matrix(0.1,0,0,-0.1,0,129)"/>
<path style=" stroke:none;fill-rule:nonzero;fill:rgb(100%,0%,0%);fill-opacity:1;" d="M 117.929688 64.429688 C 117.929688 65.167969 117.332031 65.765625 116.59375 65.765625 C 115.855469 65.765625 115.257812 65.167969 115.257812 64.429688 C 115.257812 63.695312 115.855469 63.097656 116.59375 63.097656 C 117.332031 63.097656 117.929688 63.695312 117.929688 64.429688 "/>
<path style="fill:none;stroke-width:10;stroke-linecap:round;stroke-linejoin:round;stroke:rgb(0%,0%,0%);stroke-opacity:1;stroke-miterlimit:10;" d="M 1179.296875 645.703125 C 1179.296875 638.320312 1173.320312 632.34375 1165.9375 632.34375 C 1158.554688 632.34375 1152.578125 638.320312 1152.578125 645.703125 C 1152.578125 653.046875 1158.554688 659.023438 1165.9375 659.023438 C 1173.320312 659.023438 1179.296875 653.046875 1179.296875 645.703125 Z M 1179.296875 645.703125 " transform="matrix(0.1,0,0,-0.1,0,129)"/>
<path style=" stroke:none;fill-rule:nonzero;fill:rgb(100%,0%,0%);fill-opacity:1;" d="M 102.867188 61.972656 C 102.867188 62.039062 102.867188 62.074219 102.867188 62.074219 C 102.800781 62.074219 102.667969 61.972656 102.46875 61.777344 C 102.207031 61.511719 102.007812 61.214844 101.875 60.882812 C 101.546875 60.289062 101.378906 59.628906 101.378906 58.902344 C 101.378906 58.175781 101.511719 57.515625 101.777344 56.921875 C 102.039062 56.460938 102.339844 56.09375 102.667969 55.832031 C 102.734375 55.765625 102.800781 55.730469 102.867188 55.730469 C 102.867188 55.730469 102.867188 55.765625 102.867188 55.832031 C 102.867188 55.832031 102.832031 55.863281 102.765625 55.929688 C 102.105469 56.589844 101.777344 57.582031 101.777344 58.902344 C 101.777344 60.222656 102.105469 61.214844 102.765625 61.875 C 102.832031 61.941406 102.867188 61.972656 102.867188 61.972656 "/>
<path style=" stroke:none;fill-rule:nonzero;fill:rgb(100%,0%,0%);fill-opacity:1;" d="M 105.628906 58.109375 C 105.628906 57.976562 105.695312 57.878906 105.828125 57.8125 C 105.828125 57.8125 105.859375 57.8125 105.925781 57.8125 C 105.992188 57.8125 106.027344 57.878906 106.027344 58.011719 C 106.027344 58.011719 106.027344 58.078125 106.027344 58.210938 L 105.828125 59.101562 C 105.761719 59.363281 105.695312 59.5625 105.628906 59.695312 C 105.5625 59.894531 105.53125 60.027344 105.53125 60.09375 C 105.53125 60.289062 105.597656 60.390625 105.730469 60.390625 C 105.925781 60.390625 106.058594 60.222656 106.125 59.894531 C 106.191406 59.828125 106.222656 59.726562 106.222656 59.597656 C 106.289062 59.53125 106.324219 59.496094 106.324219 59.496094 C 106.390625 59.496094 106.421875 59.53125 106.421875 59.597656 C 106.421875 59.664062 106.390625 59.792969 106.324219 59.992188 C 106.257812 60.058594 106.222656 60.125 106.222656 60.191406 C 106.09375 60.457031 105.925781 60.585938 105.730469 60.585938 C 105.53125 60.585938 105.363281 60.488281 105.234375 60.289062 C 105.234375 60.222656 105.199219 60.15625 105.132812 60.09375 C 104.871094 60.421875 104.605469 60.585938 104.339844 60.585938 C 104.011719 60.585938 103.78125 60.421875 103.648438 60.09375 C 103.582031 59.960938 103.550781 59.761719 103.550781 59.496094 C 103.550781 59.101562 103.679688 58.703125 103.945312 58.308594 C 104.273438 57.910156 104.605469 57.714844 104.9375 57.714844 C 105.003906 57.714844 105.035156 57.714844 105.035156 57.714844 C 105.300781 57.714844 105.496094 57.847656 105.628906 58.109375 Z M 105.234375 59.695312 L 105.53125 58.507812 C 105.53125 58.441406 105.53125 58.40625 105.53125 58.40625 C 105.53125 58.277344 105.496094 58.144531 105.429688 58.011719 C 105.363281 57.878906 105.234375 57.8125 105.035156 57.8125 C 104.835938 57.8125 104.640625 57.945312 104.441406 58.210938 C 104.375 58.277344 104.339844 58.339844 104.339844 58.40625 C 104.210938 58.671875 104.078125 59.035156 103.945312 59.496094 C 103.945312 59.628906 103.945312 59.726562 103.945312 59.792969 C 103.945312 60.125 104.042969 60.324219 104.242188 60.390625 C 104.242188 60.390625 104.273438 60.390625 104.339844 60.390625 C 104.605469 60.390625 104.835938 60.257812 105.035156 59.992188 C 105.101562 59.925781 105.167969 59.859375 105.234375 59.792969 C 105.234375 59.726562 105.234375 59.695312 105.234375 59.695312 "/>
<path style=" stroke:none;fill-rule:nonzero;fill:rgb(100%,0%,0%);fill-opacity:1;" d="M 107.890625 60.488281 C 107.890625 60.882812 107.757812 61.246094 107.496094 61.578125 C 107.429688 61.644531 107.363281 61.675781 107.296875 61.675781 C 107.296875 61.609375 107.296875 61.578125 107.296875 61.578125 C 107.5625 61.3125 107.726562 60.984375 107.792969 60.585938 C 107.792969 60.585938 107.792969 60.554688 107.792969 60.488281 C 107.792969 60.421875 107.757812 60.390625 107.691406 60.390625 C 107.628906 60.457031 107.5625 60.488281 107.496094 60.488281 C 107.363281 60.488281 107.265625 60.421875 107.199219 60.289062 C 107.199219 60.222656 107.199219 60.191406 107.199219 60.191406 C 107.199219 59.992188 107.230469 59.859375 107.296875 59.792969 C 107.363281 59.792969 107.429688 59.792969 107.496094 59.792969 C 107.691406 59.792969 107.824219 59.925781 107.890625 60.191406 C 107.890625 60.257812 107.890625 60.355469 107.890625 60.488281 "/>
<path style=" stroke:none;fill-rule:nonzero;fill:rgb(100%,0%,0%);fill-opacity:1;" d="M 112.296875 58.507812 C 112.296875 59.101562 112.230469 59.5625 112.097656 59.894531 C 111.832031 60.355469 111.46875 60.585938 111.007812 60.585938 C 110.609375 60.585938 110.3125 60.457031 110.113281 60.191406 C 110.050781 60.125 109.984375 60.058594 109.917969 59.992188 C 109.71875 59.664062 109.621094 59.167969 109.621094 58.507812 C 109.621094 57.847656 109.71875 57.351562 109.917969 57.019531 C 110.113281 56.558594 110.445312 56.292969 110.90625 56.226562 L 111.007812 56.226562 C 111.402344 56.226562 111.699219 56.394531 111.898438 56.722656 C 111.964844 56.789062 112.03125 56.886719 112.097656 57.019531 C 112.230469 57.351562 112.296875 57.847656 112.296875 58.507812 Z M 111.007812 60.488281 C 111.269531 60.488281 111.46875 60.355469 111.601562 60.09375 C 111.667969 59.960938 111.699219 59.828125 111.699219 59.695312 C 111.765625 59.429688 111.800781 59.003906 111.800781 58.40625 C 111.800781 57.8125 111.765625 57.382812 111.699219 57.121094 C 111.632812 56.722656 111.46875 56.492188 111.203125 56.425781 C 111.140625 56.425781 111.074219 56.425781 111.007812 56.425781 C 110.675781 56.425781 110.445312 56.558594 110.3125 56.824219 C 110.3125 56.953125 110.28125 57.085938 110.214844 57.21875 C 110.214844 57.417969 110.214844 57.8125 110.214844 58.40625 C 110.214844 59.003906 110.246094 59.429688 110.3125 59.695312 C 110.378906 60.09375 110.542969 60.355469 110.808594 60.488281 C 110.875 60.488281 110.941406 60.488281 111.007812 60.488281 "/>
<path style=" stroke:none;fill-rule:nonzero;fill:rgb(100%,0%,0%);fill-opacity:1;" d="M 114.375 58.902344 C 114.375 59.628906 114.242188 60.289062 113.980469 60.882812 C 113.78125 61.347656 113.515625 61.710938 113.1875 61.972656 C 113.121094 62.039062 113.054688 62.074219 112.988281 62.074219 C 112.988281 62.074219 112.988281 62.039062 112.988281 61.972656 C 112.988281 61.972656 112.988281 61.941406 112.988281 61.875 C 113.714844 61.214844 114.078125 60.222656 114.078125 58.902344 C 114.078125 57.582031 113.746094 56.589844 113.085938 55.929688 C 113.019531 55.863281 112.988281 55.832031 112.988281 55.832031 C 112.988281 55.765625 112.988281 55.730469 112.988281 55.730469 C 113.054688 55.730469 113.1875 55.832031 113.382812 56.03125 C 113.648438 56.292969 113.847656 56.589844 113.980469 56.921875 C 114.242188 57.515625 114.375 58.175781 114.375 58.902344 "/>
</g>
</svg>
