<?xml version="1.0" encoding="UTF-8"?>
<svg xmlns="http://www.w3.org/2000/svg" xmlns:xlink="http://www.w3.org/1999/xlink" width="239pt" height="212pt" viewBox="0 0 239 212" version="1.1">
<g id="surface1">
<rect x="0" y="0" width="239" height="212" style="fill:rgb(100%,100%,100%);fill-opacity:1;stroke:none;"/>
<path style=" stroke:none;fill-rule:nonzero;fill:rgb(90.234375%,93.943787%,90.234375%);fill-opacity:1;" d="M 123.976562 155.746094 C 119.929688 157.453125 116.25 159.925781 113.144531 163.035156 L 137.195312 187.085938 "/>
<path style="fill:none;stroke-width:25;stroke-linecap:round;stroke-linejoin:round;stroke:rgb(30.200195%,57.617188%,30.200195%);stroke-opacity:1;stroke-miterlimit:10;" d="M 1239.765625 562.539062 C 1199.296875 545.46875 1162.5 520.742188 1131.445312 489.648438 L 1371.953125 249.140625 Z M 1239.765625 562.539062 " transform="matrix(0.1,0,0,-0.1,0,212)"/>
<path style=" stroke:none;fill-rule:nonzero;fill:rgb(0%,39.208984%,0%);fill-opacity:1;" d="M 116.566406 150.0625 C 116.566406 151.183594 116.285156 152.308594 115.726562 153.429688 C 115.277344 154.4375 114.714844 155.113281 114.039062 155.449219 C 113.816406 155.5625 113.59375 155.617188 113.367188 155.617188 C 112.808594 155.617188 112.414062 155.222656 112.191406 154.4375 C 112.191406 154.101562 112.191406 153.765625 112.191406 153.429688 C 112.191406 152.308594 112.46875 151.128906 113.03125 149.894531 C 113.480469 148.996094 114.039062 148.378906 114.714844 148.042969 C 114.9375 147.929688 115.105469 147.875 115.21875 147.875 C 115.894531 147.875 116.339844 148.324219 116.566406 149.222656 C 116.566406 149.445312 116.566406 149.726562 116.566406 150.0625 Z M 113.199219 151.578125 L 115.554688 151.578125 C 115.78125 150.566406 115.894531 149.839844 115.894531 149.390625 C 115.894531 148.605469 115.726562 148.15625 115.386719 148.042969 C 115.386719 148.042969 115.332031 148.042969 115.21875 148.042969 C 114.882812 148.042969 114.488281 148.4375 114.039062 149.222656 C 113.816406 149.671875 113.59375 150.398438 113.367188 151.410156 C 113.367188 151.523438 113.3125 151.578125 113.199219 151.578125 Z M 115.386719 151.914062 L 113.199219 151.914062 C 112.976562 152.8125 112.863281 153.484375 112.863281 153.933594 C 112.863281 154.832031 113.03125 155.28125 113.367188 155.28125 C 113.816406 155.28125 114.265625 154.886719 114.714844 154.101562 C 114.9375 153.542969 115.164062 152.8125 115.386719 151.914062 "/>
<path style="fill:none;stroke-width:25;stroke-linecap:round;stroke-linejoin:round;stroke:rgb(65.234375%,65.234375%,65.234375%);stroke-opacity:1;stroke-miterlimit:10;" d="M 1371.953125 249.140625 L 2222.34375 1099.53125 " transform="matrix(0.1,0,0,-0.1,0,212)"/>
<path style=" stroke:none;fill-rule:nonzero;fill:rgb(50.193787%,50.193787%,50.193787%);fill-opacity:1;" d="M 189.824219 148.144531 C 189.601562 148.816406 189.152344 149.152344 188.476562 149.152344 C 187.914062 149.152344 187.410156 148.871094 186.964844 148.3125 C 186.625 147.863281 186.457031 147.328125 186.457031 146.710938 C 186.457031 146.09375 186.625 145.5625 186.964844 145.113281 L 187.132812 144.945312 C 187.578125 144.496094 188.085938 144.273438 188.644531 144.273438 C 189.429688 144.273438 189.992188 144.664062 190.328125 145.449219 C 190.664062 146.011719 190.835938 146.851562 190.835938 147.972656 C 190.835938 149.207031 190.496094 150.160156 189.824219 150.835938 C 189.375 151.398438 188.8125 151.675781 188.140625 151.675781 C 187.46875 151.675781 187.019531 151.507812 186.792969 151.171875 C 186.683594 150.949219 186.625 150.722656 186.625 150.5 C 186.625 150.273438 186.792969 150.105469 187.132812 149.992188 C 187.355469 149.992188 187.523438 150.105469 187.636719 150.332031 C 187.636719 150.441406 187.636719 150.5 187.636719 150.5 C 187.636719 150.835938 187.523438 151.003906 187.300781 151.003906 C 187.1875 151.003906 187.132812 151.003906 187.132812 151.003906 C 187.355469 151.339844 187.691406 151.507812 188.140625 151.507812 C 188.703125 151.507812 189.152344 151.226562 189.488281 150.667969 C 189.710938 150.105469 189.824219 149.378906 189.824219 148.480469 Z M 188.644531 148.984375 C 189.207031 148.984375 189.601562 148.648438 189.824219 147.972656 C 189.824219 147.636719 189.824219 147.300781 189.824219 146.964844 C 189.824219 146.289062 189.769531 145.785156 189.65625 145.449219 C 189.542969 145 189.261719 144.71875 188.8125 144.609375 C 188.8125 144.609375 188.757812 144.609375 188.644531 144.609375 C 188.195312 144.609375 187.859375 144.832031 187.636719 145.28125 C 187.410156 145.507812 187.300781 145.953125 187.300781 146.628906 L 187.300781 146.796875 C 187.300781 147.46875 187.410156 147.972656 187.636719 148.3125 C 187.859375 148.761719 188.195312 148.984375 188.644531 148.984375 "/>
<path style=" stroke:none;fill-rule:nonzero;fill:rgb(50.193787%,50.193787%,50.193787%);fill-opacity:1;" d="M 196.21875 148.144531 C 196.21875 149.152344 196.105469 149.9375 195.882812 150.5 C 195.433594 151.285156 194.816406 151.675781 194.03125 151.675781 C 193.359375 151.675781 192.855469 151.453125 192.515625 151.003906 C 192.40625 150.890625 192.292969 150.78125 192.179688 150.667969 C 191.84375 150.105469 191.675781 149.265625 191.675781 148.144531 C 191.675781 147.019531 191.84375 146.179688 192.179688 145.617188 C 192.515625 144.832031 193.078125 144.382812 193.863281 144.273438 L 194.03125 144.273438 C 194.703125 144.273438 195.210938 144.550781 195.546875 145.113281 C 195.660156 145.226562 195.769531 145.394531 195.882812 145.617188 C 196.105469 146.179688 196.21875 147.019531 196.21875 148.144531 Z M 194.03125 151.507812 C 194.480469 151.507812 194.816406 151.285156 195.039062 150.835938 C 195.152344 150.609375 195.210938 150.386719 195.210938 150.160156 C 195.320312 149.714844 195.378906 148.984375 195.378906 147.972656 C 195.378906 146.964844 195.320312 146.234375 195.210938 145.785156 C 195.097656 145.113281 194.816406 144.71875 194.367188 144.609375 C 194.257812 144.609375 194.144531 144.609375 194.03125 144.609375 C 193.46875 144.609375 193.078125 144.832031 192.855469 145.28125 C 192.855469 145.507812 192.796875 145.730469 192.683594 145.953125 C 192.683594 146.289062 192.683594 146.964844 192.683594 147.972656 C 192.683594 148.984375 192.742188 149.714844 192.855469 150.160156 C 192.964844 150.835938 193.246094 151.285156 193.695312 151.507812 C 193.808594 151.507812 193.917969 151.507812 194.03125 151.507812 "/>
<path style="fill:none;stroke-width:25;stroke-linecap:round;stroke-linejoin:round;stroke:rgb(65.234375%,65.234375%,65.234375%);stroke-opacity:1;stroke-miterlimit:10;" d="M 2222.34375 1099.53125 L 1371.953125 1949.921875 " transform="matrix(0.1,0,0,-0.1,0,212)"/>
<path style="fill:none;stroke-width:25;stroke-linecap:round;stroke-linejoin:round;stroke:rgb(65.234375%,65.234375%,65.234375%);stroke-opacity:1;stroke-miterlimit:10;" d="M 1371.953125 1949.921875 L 521.5625 1099.53125 " transform="matrix(0.1,0,0,-0.1,0,212)"/>
<path style="fill:none;stroke-width:25;stroke-linecap:round;stroke-linejoin:round;stroke:rgb(30.200195%,30.200195%,30.200195%);stroke-opacity:1;stroke-miterlimit:10;" d="M 521.5625 1099.53125 L 1371.953125 249.140625 " transform="matrix(0.1,0,0,-0.1,0,212)"/>
<path style=" stroke:none;fill-rule:nonzero;fill:rgb(0%,0%,0%);fill-opacity:1;" d="M 75.304688 148.710938 C 75.078125 149.382812 74.632812 149.71875 73.957031 149.71875 C 73.398438 149.71875 72.890625 149.4375 72.441406 148.878906 C 72.105469 148.429688 71.9375 147.894531 71.9375 147.277344 C 71.9375 146.660156 72.105469 146.128906 72.441406 145.679688 L 72.609375 145.511719 C 73.058594 145.0625 73.566406 144.839844 74.125 144.839844 C 74.910156 144.839844 75.472656 145.230469 75.808594 146.015625 C 76.144531 146.578125 76.3125 147.417969 76.3125 148.539062 C 76.3125 149.777344 75.976562 150.730469 75.304688 151.402344 C 74.855469 151.964844 74.292969 152.242188 73.621094 152.242188 C 72.949219 152.242188 72.5 152.074219 72.273438 151.738281 C 72.164062 151.515625 72.105469 151.289062 72.105469 151.066406 C 72.105469 150.839844 72.273438 150.671875 72.609375 150.5625 C 72.835938 150.5625 73.003906 150.671875 73.117188 150.898438 C 73.117188 151.011719 73.117188 151.066406 73.117188 151.066406 C 73.117188 151.402344 73.003906 151.570312 72.78125 151.570312 C 72.667969 151.570312 72.609375 151.570312 72.609375 151.570312 C 72.835938 151.90625 73.171875 152.074219 73.621094 152.074219 C 74.183594 152.074219 74.632812 151.792969 74.96875 151.234375 C 75.191406 150.671875 75.304688 149.945312 75.304688 149.046875 Z M 74.125 149.550781 C 74.6875 149.550781 75.078125 149.214844 75.304688 148.539062 C 75.304688 148.203125 75.304688 147.867188 75.304688 147.53125 C 75.304688 146.859375 75.246094 146.351562 75.136719 146.015625 C 75.023438 145.566406 74.742188 145.285156 74.292969 145.175781 C 74.292969 145.175781 74.238281 145.175781 74.125 145.175781 C 73.675781 145.175781 73.339844 145.398438 73.117188 145.847656 C 72.890625 146.074219 72.78125 146.523438 72.78125 147.195312 L 72.78125 147.363281 C 72.78125 148.035156 72.890625 148.539062 73.117188 148.878906 C 73.339844 149.328125 73.675781 149.550781 74.125 149.550781 "/>
<path style=" stroke:none;fill-rule:nonzero;fill:rgb(0%,0%,0%);fill-opacity:1;" d="M 81.699219 148.710938 C 81.699219 149.71875 81.585938 150.503906 81.363281 151.066406 C 80.914062 151.851562 80.296875 152.242188 79.511719 152.242188 C 78.839844 152.242188 78.332031 152.019531 77.996094 151.570312 C 77.886719 151.457031 77.773438 151.347656 77.660156 151.234375 C 77.324219 150.671875 77.15625 149.832031 77.15625 148.710938 C 77.15625 147.585938 77.324219 146.746094 77.660156 146.183594 C 77.996094 145.398438 78.558594 144.949219 79.34375 144.839844 L 79.511719 144.839844 C 80.183594 144.839844 80.691406 145.117188 81.027344 145.679688 C 81.140625 145.792969 81.25 145.960938 81.363281 146.183594 C 81.585938 146.746094 81.699219 147.585938 81.699219 148.710938 Z M 79.511719 152.074219 C 79.960938 152.074219 80.296875 151.851562 80.523438 151.402344 C 80.632812 151.179688 80.691406 150.953125 80.691406 150.730469 C 80.800781 150.28125 80.859375 149.550781 80.859375 148.539062 C 80.859375 147.53125 80.800781 146.800781 80.691406 146.351562 C 80.578125 145.679688 80.296875 145.285156 79.847656 145.175781 C 79.734375 145.175781 79.625 145.175781 79.511719 145.175781 C 78.949219 145.175781 78.558594 145.398438 78.332031 145.847656 C 78.332031 146.074219 78.277344 146.296875 78.164062 146.523438 C 78.164062 146.859375 78.164062 147.53125 78.164062 148.539062 C 78.164062 149.550781 78.222656 150.28125 78.332031 150.730469 C 78.445312 151.402344 78.726562 151.851562 79.175781 152.074219 C 79.289062 152.074219 79.398438 152.074219 79.511719 152.074219 "/>
<path style="fill:none;stroke-width:25;stroke-linecap:round;stroke-linejoin:round;stroke:rgb(30.200195%,30.200195%,30.200195%);stroke-opacity:1;stroke-miterlimit:10;" d="M 1371.953125 249.140625 L 867.382812 1445.351562 " transform="matrix(0.1,0,0,-0.1,0,212)"/>
<path style=" stroke:none;fill-rule:nonzero;fill:rgb(0%,0%,0%);fill-opacity:1;" d="M 120.003906 122.285156 C 120.003906 122.171875 120.058594 122.117188 120.171875 122.117188 C 120.394531 122.117188 120.675781 122.226562 121.011719 122.453125 C 121.238281 122.453125 121.40625 122.453125 121.519531 122.453125 C 121.964844 122.453125 122.304688 122.339844 122.527344 122.117188 C 122.753906 122.003906 122.863281 121.835938 122.863281 121.609375 C 122.976562 121.5 123.03125 121.441406 123.03125 121.441406 C 123.144531 121.441406 123.199219 121.5 123.199219 121.609375 C 123.199219 121.835938 123.089844 122.117188 122.863281 122.453125 C 122.414062 123.015625 121.964844 123.292969 121.519531 123.292969 C 121.292969 123.292969 121.070312 123.125 120.84375 122.789062 C 120.621094 122.566406 120.453125 122.453125 120.339844 122.453125 C 120.226562 122.453125 120.171875 122.453125 120.171875 122.453125 C 119.835938 122.453125 119.554688 122.675781 119.328125 123.125 C 119.21875 123.238281 119.160156 123.292969 119.160156 123.292969 C 119.050781 123.292969 118.992188 123.238281 118.992188 123.125 C 118.992188 123.015625 119.160156 122.789062 119.496094 122.453125 C 119.609375 122.226562 119.777344 122.003906 120.003906 121.78125 L 121.011719 120.769531 C 121.6875 120.207031 122.191406 119.761719 122.527344 119.421875 C 122.304688 119.421875 122.023438 119.367188 121.6875 119.253906 C 121.351562 119.144531 121.125 119.085938 121.011719 119.085938 C 120.5625 119.085938 120.285156 119.199219 120.171875 119.421875 C 120.171875 119.535156 120.171875 119.589844 120.171875 119.589844 C 120.058594 119.703125 120.003906 119.761719 120.003906 119.761719 C 119.890625 119.761719 119.835938 119.703125 119.835938 119.589844 C 119.835938 119.480469 119.945312 119.253906 120.171875 118.917969 C 120.394531 118.582031 120.730469 118.414062 121.179688 118.414062 C 121.40625 118.414062 121.628906 118.527344 121.855469 118.75 C 122.078125 118.972656 122.246094 119.085938 122.359375 119.085938 C 122.359375 119.199219 122.359375 119.253906 122.359375 119.253906 C 122.695312 119.253906 122.976562 119.03125 123.199219 118.582031 L 123.199219 118.414062 C 123.3125 118.414062 123.367188 118.414062 123.367188 118.414062 C 123.480469 118.414062 123.539062 118.414062 123.539062 118.414062 C 123.539062 118.527344 123.367188 118.75 123.03125 119.085938 C 122.808594 119.421875 122.527344 119.761719 122.191406 120.097656 C 122.191406 120.097656 121.855469 120.378906 121.179688 120.9375 C 120.730469 121.386719 120.339844 121.835938 120.003906 122.285156 "/>
<path style="fill:none;stroke-width:25;stroke-linecap:round;stroke-linejoin:round;stroke:rgb(30.200195%,30.200195%,30.200195%);stroke-opacity:1;stroke-miterlimit:10;" d="M 867.382812 1445.351562 L 521.5625 1099.53125 " transform="matrix(0.1,0,0,-0.1,0,212)"/>
<path style=" stroke:none;fill-rule:nonzero;fill:rgb(0%,0%,0%);fill-opacity:1;" d="M 60.792969 74.007812 L 60.457031 75.355469 C 60.34375 75.914062 60.289062 76.25 60.289062 76.363281 C 60.289062 76.699219 60.402344 76.925781 60.625 77.035156 C 60.738281 77.035156 60.851562 77.035156 60.960938 77.035156 C 61.300781 77.035156 61.578125 76.867188 61.804688 76.53125 C 62.027344 76.308594 62.195312 76.027344 62.308594 75.691406 C 62.308594 75.578125 62.363281 75.519531 62.476562 75.519531 C 62.589844 75.519531 62.644531 75.578125 62.644531 75.691406 C 62.644531 75.800781 62.535156 76.027344 62.308594 76.363281 C 61.859375 77.035156 61.410156 77.371094 60.960938 77.371094 C 60.402344 77.371094 60.007812 77.148438 59.785156 76.699219 C 59.785156 76.585938 59.785156 76.53125 59.785156 76.53125 C 59.558594 76.867188 59.28125 77.09375 58.941406 77.203125 C 58.832031 77.316406 58.71875 77.371094 58.605469 77.371094 C 58.15625 77.371094 57.820312 77.203125 57.597656 76.867188 C 57.597656 76.867188 57.597656 76.757812 57.597656 76.53125 C 57.597656 76.308594 57.707031 76.140625 57.933594 76.027344 C 58.046875 76.027344 58.101562 76.027344 58.101562 76.027344 C 58.324219 76.027344 58.492188 76.082031 58.605469 76.195312 C 58.605469 76.308594 58.605469 76.363281 58.605469 76.363281 C 58.605469 76.585938 58.492188 76.757812 58.269531 76.867188 C 58.15625 76.867188 58.101562 76.867188 58.101562 76.867188 C 58.214844 76.980469 58.382812 77.035156 58.605469 77.035156 C 58.941406 77.035156 59.222656 76.8125 59.449219 76.363281 C 59.558594 76.25 59.617188 76.140625 59.617188 76.027344 C 59.953125 74.566406 60.121094 73.671875 60.121094 73.335938 C 60.121094 72.886719 59.953125 72.660156 59.617188 72.660156 C 59.28125 72.660156 58.941406 72.886719 58.605469 73.335938 C 58.492188 73.445312 58.382812 73.613281 58.269531 73.839844 C 58.269531 73.839844 58.269531 73.894531 58.269531 74.007812 L 58.101562 74.175781 C 57.988281 74.175781 57.933594 74.175781 57.933594 74.175781 C 57.933594 73.949219 58.046875 73.671875 58.269531 73.335938 C 58.605469 72.773438 59.054688 72.492188 59.617188 72.492188 C 60.175781 72.492188 60.570312 72.773438 60.792969 73.335938 C 61.019531 72.886719 61.300781 72.605469 61.636719 72.492188 C 61.746094 72.492188 61.859375 72.492188 61.972656 72.492188 C 62.421875 72.492188 62.703125 72.605469 62.8125 72.828125 C 62.925781 72.941406 62.980469 73.054688 62.980469 73.164062 C 62.980469 73.503906 62.8125 73.671875 62.476562 73.671875 C 62.476562 73.78125 62.421875 73.839844 62.308594 73.839844 C 62.085938 73.839844 61.972656 73.726562 61.972656 73.503906 C 61.972656 73.503906 61.972656 73.445312 61.972656 73.335938 C 61.972656 73.109375 62.085938 72.941406 62.308594 72.828125 C 62.308594 72.828125 62.363281 72.828125 62.476562 72.828125 C 62.363281 72.714844 62.195312 72.660156 61.972656 72.660156 C 61.410156 72.660156 61.074219 73.054688 60.960938 73.839844 C 60.851562 73.839844 60.792969 73.894531 60.792969 74.007812 "/>
<path style=" stroke:none;fill-rule:nonzero;fill:rgb(0%,0%,100%);fill-opacity:1;" d="M 140.03125 187.085938 C 140.03125 188.652344 138.761719 189.921875 137.195312 189.921875 C 135.632812 189.921875 134.363281 188.652344 134.363281 187.085938 C 134.363281 185.519531 135.632812 184.253906 137.195312 184.253906 C 138.761719 184.253906 140.03125 185.519531 140.03125 187.085938 "/>
<path style="fill:none;stroke-width:10;stroke-linecap:round;stroke-linejoin:round;stroke:rgb(0%,0%,0%);stroke-opacity:1;stroke-miterlimit:10;" d="M 1400.3125 249.140625 C 1400.3125 233.476562 1387.617188 220.78125 1371.953125 220.78125 C 1356.328125 220.78125 1343.632812 233.476562 1343.632812 249.140625 C 1343.632812 264.804688 1356.328125 277.460938 1371.953125 277.460938 C 1387.617188 277.460938 1400.3125 264.804688 1400.3125 249.140625 Z M 1400.3125 249.140625 " transform="matrix(0.1,0,0,-0.1,0,212)"/>
<path style=" stroke:none;fill-rule:nonzero;fill:rgb(0%,0%,100%);fill-opacity:1;" d="M 113.125 201.828125 L 113.125 194.832031 L 113.996094 194.832031 L 113.996094 197.921875 C 114.457031 197.246094 115.019531 196.910156 115.6875 196.910156 C 116.105469 196.910156 116.4375 197.042969 116.6875 197.304688 C 116.933594 197.570312 117.058594 197.925781 117.058594 198.371094 L 117.058594 201.828125 L 116.183594 201.828125 L 116.183594 198.65625 C 116.183594 198.296875 116.132812 198.042969 116.027344 197.890625 C 115.921875 197.738281 115.75 197.664062 115.507812 197.664062 C 114.972656 197.664062 114.46875 198.011719 113.996094 198.714844 L 113.996094 201.828125 Z M 120.675781 201.9375 C 119.988281 201.9375 119.4375 201.710938 119.027344 201.253906 C 118.617188 200.796875 118.414062 200.1875 118.414062 199.421875 C 118.414062 198.648438 118.617188 198.035156 119.03125 197.585938 C 119.441406 197.136719 120.003906 196.910156 120.707031 196.910156 C 121.414062 196.910156 121.972656 197.136719 122.382812 197.585938 C 122.796875 198.035156 123.003906 198.644531 123.003906 199.414062 C 123.003906 200.199219 122.796875 200.816406 122.382812 201.265625 C 121.96875 201.714844 121.398438 201.9375 120.675781 201.9375 Z M 120.6875 201.28125 C 121.613281 201.28125 122.074219 200.660156 122.074219 199.414062 C 122.074219 198.179688 121.621094 197.566406 120.707031 197.566406 C 119.796875 197.566406 119.34375 198.183594 119.34375 199.421875 C 119.34375 200.660156 119.792969 201.28125 120.6875 201.28125 Z M 124.464844 201.828125 L 124.464844 197.015625 L 125.335938 197.015625 L 125.335938 197.921875 C 125.761719 197.246094 126.308594 196.910156 126.976562 196.910156 C 127.617188 196.910156 128.058594 197.246094 128.289062 197.921875 C 128.703125 197.242188 129.242188 196.90625 129.902344 196.90625 C 130.328125 196.90625 130.65625 197.03125 130.890625 197.28125 C 131.121094 197.53125 131.238281 197.878906 131.238281 198.328125 L 131.238281 201.828125 L 130.363281 201.828125 L 130.363281 198.464844 C 130.363281 197.914062 130.144531 197.640625 129.710938 197.640625 C 129.261719 197.640625 128.785156 197.960938 128.289062 198.601562 L 128.289062 201.828125 L 127.414062 201.828125 L 127.414062 198.464844 C 127.414062 197.914062 127.191406 197.636719 126.746094 197.636719 C 126.308594 197.636719 125.839844 197.957031 125.335938 198.601562 L 125.335938 201.828125 Z M 136.492188 201.671875 C 135.90625 201.847656 135.40625 201.9375 134.992188 201.9375 C 134.28125 201.9375 133.703125 201.703125 133.257812 201.230469 C 132.808594 200.761719 132.585938 200.148438 132.585938 199.398438 C 132.585938 198.671875 132.78125 198.074219 133.175781 197.605469 C 133.570312 197.140625 134.074219 196.90625 134.691406 196.90625 C 135.269531 196.90625 135.722656 197.113281 136.039062 197.527344 C 136.355469 197.941406 136.515625 198.527344 136.515625 199.289062 L 136.511719 199.558594 L 133.476562 199.558594 C 133.605469 200.703125 134.164062 201.273438 135.15625 201.273438 C 135.519531 201.273438 135.964844 201.175781 136.492188 200.980469 Z M 133.515625 198.902344 L 135.636719 198.902344 C 135.636719 198.007812 135.304688 197.5625 134.636719 197.5625 C 133.964844 197.5625 133.59375 198.007812 133.515625 198.902344 Z M 140.902344 203.574219 L 140.902344 197.015625 L 141.777344 197.015625 L 141.777344 197.921875 C 142.132812 197.246094 142.671875 196.910156 143.382812 196.910156 C 143.964844 196.910156 144.417969 197.121094 144.75 197.542969 C 145.082031 197.964844 145.25 198.542969 145.25 199.277344 C 145.25 200.074219 145.0625 200.714844 144.683594 201.203125 C 144.308594 201.691406 143.8125 201.9375 143.199219 201.9375 C 142.628906 201.9375 142.15625 201.71875 141.777344 201.28125 L 141.777344 203.574219 Z M 141.777344 200.679688 C 142.226562 201.082031 142.652344 201.28125 143.0625 201.28125 C 143.898438 201.28125 144.320312 200.644531 144.320312 199.363281 C 144.320312 198.234375 143.945312 197.671875 143.203125 197.671875 C 142.714844 197.671875 142.238281 197.9375 141.777344 198.464844 Z M 146.574219 201.828125 L 146.574219 194.832031 L 147.445312 194.832031 L 147.445312 201.828125 Z M 151.886719 201.214844 C 151.367188 201.695312 150.863281 201.9375 150.378906 201.9375 C 149.980469 201.9375 149.648438 201.8125 149.386719 201.5625 C 149.121094 201.3125 148.992188 201 148.992188 200.617188 C 148.992188 200.09375 149.214844 199.6875 149.652344 199.40625 C 150.09375 199.125 150.726562 198.984375 151.550781 198.984375 L 151.761719 198.984375 L 151.761719 198.402344 C 151.761719 197.84375 151.472656 197.566406 150.902344 197.566406 C 150.441406 197.566406 149.941406 197.707031 149.40625 197.992188 L 149.40625 197.269531 C 149.996094 197.03125 150.546875 196.910156 151.058594 196.910156 C 151.597656 196.910156 151.992188 197.03125 152.25 197.273438 C 152.503906 197.515625 152.632812 197.890625 152.632812 198.402344 L 152.632812 200.582031 C 152.632812 201.082031 152.785156 201.332031 153.09375 201.332031 C 153.132812 201.332031 153.1875 201.324219 153.261719 201.3125 L 153.324219 201.796875 C 153.125 201.890625 152.90625 201.9375 152.667969 201.9375 C 152.261719 201.9375 152 201.695312 151.886719 201.214844 Z M 151.761719 200.742188 L 151.761719 199.496094 L 151.46875 199.488281 C 150.988281 199.488281 150.601562 199.578125 150.308594 199.761719 C 150.011719 199.941406 149.863281 200.179688 149.863281 200.476562 C 149.863281 200.683594 149.9375 200.863281 150.085938 201.007812 C 150.234375 201.152344 150.414062 201.222656 150.625 201.222656 C 150.988281 201.222656 151.367188 201.0625 151.761719 200.742188 Z M 155.953125 201.9375 C 155.511719 201.9375 155.164062 201.808594 154.917969 201.554688 C 154.671875 201.300781 154.546875 200.949219 154.546875 200.496094 L 154.546875 197.671875 L 153.941406 197.671875 L 153.941406 197.015625 L 154.546875 197.015625 L 154.546875 196.144531 L 155.417969 196.058594 L 155.417969 197.015625 L 156.675781 197.015625 L 156.675781 197.671875 L 155.417969 197.671875 L 155.417969 200.339844 C 155.417969 200.96875 155.691406 201.28125 156.234375 201.28125 C 156.347656 201.28125 156.488281 201.261719 156.652344 201.222656 L 156.652344 201.828125 C 156.386719 201.902344 156.152344 201.9375 155.953125 201.9375 Z M 161.4375 201.671875 C 160.851562 201.847656 160.351562 201.9375 159.9375 201.9375 C 159.226562 201.9375 158.648438 201.703125 158.203125 201.230469 C 157.753906 200.761719 157.53125 200.148438 157.53125 199.398438 C 157.53125 198.671875 157.726562 198.074219 158.121094 197.605469 C 158.515625 197.140625 159.019531 196.90625 159.636719 196.90625 C 160.214844 196.90625 160.664062 197.113281 160.984375 197.527344 C 161.300781 197.941406 161.460938 198.527344 161.460938 199.289062 L 161.453125 199.558594 L 158.421875 199.558594 C 158.546875 200.703125 159.109375 201.273438 160.101562 201.273438 C 160.464844 201.273438 160.910156 201.175781 161.4375 200.980469 Z M 158.460938 198.902344 L 160.582031 198.902344 C 160.582031 198.007812 160.25 197.5625 159.582031 197.5625 C 158.910156 197.5625 158.539062 198.007812 158.460938 198.902344 "/>
<path style=" stroke:none;fill-rule:nonzero;fill:rgb(30.200195%,30.200195%,100%);fill-opacity:1;" d="M 54.992188 102.046875 C 54.992188 103.613281 53.722656 104.882812 52.15625 104.882812 C 50.59375 104.882812 49.324219 103.613281 49.324219 102.046875 C 49.324219 100.480469 50.59375 99.210938 52.15625 99.210938 C 53.722656 99.210938 54.992188 100.480469 54.992188 102.046875 "/>
<path style="fill:none;stroke-width:10;stroke-linecap:round;stroke-linejoin:round;stroke:rgb(0%,0%,0%);stroke-opacity:1;stroke-miterlimit:10;" d="M 549.921875 1099.53125 C 549.921875 1083.867188 537.226562 1071.171875 521.5625 1071.171875 C 505.9375 1071.171875 493.242188 1083.867188 493.242188 1099.53125 C 493.242188 1115.195312 505.9375 1127.890625 521.5625 1127.890625 C 537.226562 1127.890625 549.921875 1115.195312 549.921875 1099.53125 Z M 549.921875 1099.53125 " transform="matrix(0.1,0,0,-0.1,0,212)"/>
<path style=" stroke:none;fill-rule:nonzero;fill:rgb(30.200195%,30.200195%,100%);fill-opacity:1;" d="M 9.992188 94.628906 L 9.992188 93.8125 C 10.617188 94.0625 11.109375 94.1875 11.472656 94.1875 C 11.886719 94.1875 12.226562 94.0625 12.488281 93.820312 C 12.75 93.578125 12.878906 93.261719 12.878906 92.875 C 12.878906 91.953125 12.234375 91.492188 10.945312 91.492188 L 10.597656 91.492188 L 10.597656 90.902344 L 10.90625 90.898438 C 12.113281 90.898438 12.71875 90.472656 12.71875 89.617188 C 12.71875 88.949219 12.320312 88.613281 11.523438 88.613281 C 11.085938 88.613281 10.605469 88.734375 10.082031 88.980469 L 10.082031 88.21875 C 10.597656 88.046875 11.097656 87.957031 11.585938 87.957031 C 12.925781 87.957031 13.597656 88.464844 13.597656 89.476562 C 13.597656 90.246094 13.140625 90.796875 12.230469 91.125 C 13.285156 91.371094 13.816406 91.949219 13.816406 92.859375 C 13.816406 93.480469 13.609375 93.960938 13.203125 94.3125 C 12.796875 94.664062 12.234375 94.839844 11.523438 94.839844 C 11.121094 94.839844 10.609375 94.769531 9.992188 94.628906 Z M 15.613281 94.675781 L 15.613281 89.867188 L 16.484375 89.867188 L 16.484375 90.769531 C 16.832031 90.097656 17.332031 89.761719 17.992188 89.761719 C 18.078125 89.761719 18.171875 89.769531 18.269531 89.78125 L 18.269531 90.597656 C 18.121094 90.546875 17.988281 90.523438 17.871094 90.523438 C 17.320312 90.523438 16.855469 90.851562 16.484375 91.507812 L 16.484375 94.675781 Z M 22.667969 94.675781 L 22.667969 93.773438 C 22.3125 94.449219 21.78125 94.789062 21.066406 94.789062 C 20.484375 94.789062 20.03125 94.578125 19.699219 94.15625 C 19.367188 93.730469 19.199219 93.15625 19.199219 92.421875 C 19.199219 91.621094 19.390625 90.980469 19.765625 90.492188 C 20.140625 90.003906 20.636719 89.761719 21.25 89.761719 C 21.820312 89.761719 22.292969 89.980469 22.667969 90.414062 L 22.667969 87.683594 L 23.546875 87.683594 L 23.546875 94.675781 Z M 22.667969 91.015625 C 22.214844 90.617188 21.789062 90.414062 21.382812 90.414062 C 20.546875 90.414062 20.128906 91.054688 20.128906 92.335938 C 20.128906 93.460938 20.503906 94.019531 21.246094 94.019531 C 21.730469 94.019531 22.203125 93.757812 22.667969 93.230469 Z M 28.085938 94.730469 L 28.085938 87.683594 L 28.957031 87.683594 L 28.957031 90.769531 C 29.316406 90.097656 29.851562 89.761719 30.566406 89.761719 C 31.144531 89.761719 31.597656 89.972656 31.933594 90.394531 C 32.265625 90.816406 32.429688 91.394531 32.429688 92.125 C 32.429688 92.921875 32.242188 93.566406 31.863281 94.054688 C 31.488281 94.542969 30.992188 94.789062 30.378906 94.789062 C 29.808594 94.789062 29.335938 94.570312 28.957031 94.132812 L 28.851562 94.730469 Z M 28.957031 93.53125 C 29.40625 93.933594 29.835938 94.132812 30.242188 94.132812 C 31.082031 94.132812 31.5 93.492188 31.5 92.214844 C 31.5 91.085938 31.128906 90.523438 30.382812 90.523438 C 29.898438 90.523438 29.421875 90.785156 28.957031 91.316406 Z M 36.234375 94.066406 C 35.710938 94.546875 35.207031 94.789062 34.722656 94.789062 C 34.324219 94.789062 33.996094 94.664062 33.730469 94.414062 C 33.46875 94.164062 33.339844 93.847656 33.339844 93.46875 C 33.339844 92.941406 33.558594 92.539062 34 92.257812 C 34.441406 91.976562 35.074219 91.835938 35.898438 91.835938 L 36.105469 91.835938 L 36.105469 91.253906 C 36.105469 90.695312 35.820312 90.414062 35.246094 90.414062 C 34.785156 90.414062 34.289062 90.558594 33.753906 90.839844 L 33.753906 90.121094 C 34.34375 89.878906 34.894531 89.761719 35.40625 89.761719 C 35.945312 89.761719 36.339844 89.882812 36.59375 90.125 C 36.851562 90.367188 36.980469 90.742188 36.980469 91.253906 L 36.980469 93.433594 C 36.980469 93.933594 37.132812 94.179688 37.441406 94.179688 C 37.476562 94.179688 37.535156 94.175781 37.609375 94.164062 L 37.667969 94.644531 C 37.472656 94.742188 37.253906 94.789062 37.015625 94.789062 C 36.605469 94.789062 36.347656 94.546875 36.234375 94.066406 Z M 36.105469 93.59375 L 36.105469 92.347656 L 35.8125 92.339844 C 35.335938 92.339844 34.949219 92.429688 34.652344 92.609375 C 34.359375 92.792969 34.210938 93.03125 34.210938 93.324219 C 34.210938 93.535156 34.285156 93.714844 34.433594 93.859375 C 34.578125 94.003906 34.761719 94.074219 34.972656 94.074219 C 35.335938 94.074219 35.714844 93.914062 36.105469 93.59375 Z M 40.132812 94.789062 C 39.734375 94.789062 39.25 94.695312 38.679688 94.507812 L 38.679688 93.707031 C 39.25 93.992188 39.746094 94.132812 40.167969 94.132812 C 40.417969 94.132812 40.628906 94.0625 40.792969 93.929688 C 40.957031 93.792969 41.039062 93.621094 41.039062 93.417969 C 41.039062 93.121094 40.808594 92.875 40.34375 92.679688 L 39.835938 92.460938 C 39.082031 92.148438 38.707031 91.699219 38.707031 91.113281 C 38.707031 90.691406 38.855469 90.363281 39.152344 90.121094 C 39.449219 89.882812 39.855469 89.761719 40.371094 89.761719 C 40.640625 89.761719 40.972656 89.796875 41.367188 89.871094 L 41.550781 89.90625 L 41.550781 90.632812 C 41.0625 90.488281 40.675781 90.414062 40.390625 90.414062 C 39.828125 90.414062 39.546875 90.621094 39.546875 91.027344 C 39.546875 91.289062 39.761719 91.511719 40.183594 91.691406 L 40.605469 91.867188 C 41.082031 92.070312 41.417969 92.28125 41.617188 92.503906 C 41.8125 92.726562 41.914062 93.007812 41.914062 93.339844 C 41.914062 93.761719 41.746094 94.109375 41.414062 94.378906 C 41.078125 94.652344 40.652344 94.789062 40.132812 94.789062 Z M 46.917969 94.523438 C 46.332031 94.699219 45.832031 94.789062 45.417969 94.789062 C 44.707031 94.789062 44.128906 94.550781 43.683594 94.082031 C 43.234375 93.609375 43.011719 93 43.011719 92.25 C 43.011719 91.519531 43.207031 90.921875 43.601562 90.457031 C 43.996094 89.988281 44.5 89.757812 45.113281 89.757812 C 45.695312 89.757812 46.148438 89.964844 46.464844 90.378906 C 46.78125 90.789062 46.941406 91.378906 46.941406 92.140625 L 46.933594 92.410156 L 43.902344 92.410156 C 44.027344 93.550781 44.589844 94.121094 45.582031 94.121094 C 45.945312 94.121094 46.390625 94.027344 46.917969 93.832031 Z M 43.941406 91.753906 L 46.0625 91.753906 C 46.0625 90.859375 45.730469 90.410156 45.0625 90.410156 C 44.390625 90.410156 44.019531 90.859375 43.941406 91.753906 "/>
<path style=" stroke:none;fill-rule:nonzero;fill:rgb(100%,0%,0%);fill-opacity:1;" d="M 89.574219 67.464844 C 89.574219 69.03125 88.304688 70.300781 86.738281 70.300781 C 85.175781 70.300781 83.90625 69.03125 83.90625 67.464844 C 83.90625 65.898438 85.175781 64.628906 86.738281 64.628906 C 88.304688 64.628906 89.574219 65.898438 89.574219 67.464844 "/>
<path style="fill:none;stroke-width:10;stroke-linecap:round;stroke-linejoin:round;stroke:rgb(0%,0%,0%);stroke-opacity:1;stroke-miterlimit:10;" d="M 895.742188 1445.351562 C 895.742188 1429.6875 883.046875 1416.992188 867.382812 1416.992188 C 851.757812 1416.992188 839.0625 1429.6875 839.0625 1445.351562 C 839.0625 1461.015625 851.757812 1473.710938 867.382812 1473.710938 C 883.046875 1473.710938 895.742188 1461.015625 895.742188 1445.351562 Z M 895.742188 1445.351562 " transform="matrix(0.1,0,0,-0.1,0,212)"/>
</g>
</svg>
