<?xml version="1.0" encoding="UTF-8"?>
<svg xmlns="http://www.w3.org/2000/svg" xmlns:xlink="http://www.w3.org/1999/xlink" width="555pt" height="555pt" viewBox="0 0 555 555" version="1.1">
<defs>
<clipPath id="clip1">
  <path d="M 8.300781 544 L 548 544 L 548 546.699219 L 8.300781 546.699219 Z M 8.300781 544 "/>
</clipPath>
<clipPath id="clip2">
  <path d="M 8.300781 454 L 548 454 L 548 457 L 8.300781 457 Z M 8.300781 454 "/>
</clipPath>
</defs>
<g id="surface1">
<rect x="0" y="0" width="555" height="555" style="fill:rgb(100%,100%,100%);fill-opacity:1;stroke:none;"/>
<path style="fill:none;stroke-width:13.875;stroke-linecap:butt;stroke-linejoin:round;stroke:rgb(75.389099%,75.389099%,75.389099%);stroke-opacity:1;stroke-miterlimit:10;" d="M 97.109375 97.109375 L 97.109375 5466.757812 " transform="matrix(0.1,0,0,-0.1,0,555)"/>
<path style="fill:none;stroke-width:13.875;stroke-linecap:butt;stroke-linejoin:round;stroke:rgb(75.389099%,75.389099%,75.389099%);stroke-opacity:1;stroke-miterlimit:10;" d="M 544.609375 97.109375 L 544.609375 5466.757812 " transform="matrix(0.1,0,0,-0.1,0,555)"/>
<path style="fill:none;stroke-width:13.875;stroke-linecap:butt;stroke-linejoin:round;stroke:rgb(75.389099%,75.389099%,75.389099%);stroke-opacity:1;stroke-miterlimit:10;" d="M 992.070312 97.109375 L 992.070312 5466.757812 " transform="matrix(0.1,0,0,-0.1,0,555)"/>
<path style="fill:none;stroke-width:13.875;stroke-linecap:butt;stroke-linejoin:round;stroke:rgb(75.389099%,75.389099%,75.389099%);stroke-opacity:1;stroke-miterlimit:10;" d="M 1439.53125 97.109375 L 1439.53125 5466.757812 " transform="matrix(0.1,0,0,-0.1,0,555)"/>
<path style="fill:none;stroke-width:13.875;stroke-linecap:butt;stroke-linejoin:round;stroke:rgb(75.389099%,75.389099%,75.389099%);stroke-opacity:1;stroke-miterlimit:10;" d="M 1886.992188 97.109375 L 1886.992188 5466.757812 " transform="matrix(0.1,0,0,-0.1,0,555)"/>
<path style="fill:none;stroke-width:13.875;stroke-linecap:butt;stroke-linejoin:round;stroke:rgb(75.389099%,75.389099%,75.389099%);stroke-opacity:1;stroke-miterlimit:10;" d="M 2334.453125 97.109375 L 2334.453125 5466.757812 " transform="matrix(0.1,0,0,-0.1,0,555)"/>
<path style="fill:none;stroke-width:13.875;stroke-linecap:butt;stroke-linejoin:round;stroke:rgb(75.389099%,75.389099%,75.389099%);stroke-opacity:1;stroke-miterlimit:10;" d="M 2781.953125 97.109375 L 2781.953125 5466.757812 " transform="matrix(0.1,0,0,-0.1,0,555)"/>
<path style="fill:none;stroke-width:13.875;stroke-linecap:butt;stroke-linejoin:round;stroke:rgb(75.389099%,75.389099%,75.389099%);stroke-opacity:1;stroke-miterlimit:10;" d="M 3229.414062 97.109375 L 3229.414062 5466.757812 " transform="matrix(0.1,0,0,-0.1,0,555)"/>
<path style="fill:none;stroke-width:13.875;stroke-linecap:butt;stroke-linejoin:round;stroke:rgb(75.389099%,75.389099%,75.389099%);stroke-opacity:1;stroke-miterlimit:10;" d="M 3676.875 97.109375 L 3676.875 5466.757812 " transform="matrix(0.1,0,0,-0.1,0,555)"/>
<path style="fill:none;stroke-width:13.875;stroke-linecap:butt;stroke-linejoin:round;stroke:rgb(75.389099%,75.389099%,75.389099%);stroke-opacity:1;stroke-miterlimit:10;" d="M 4124.335938 97.109375 L 4124.335938 5466.757812 " transform="matrix(0.1,0,0,-0.1,0,555)"/>
<path style="fill:none;stroke-width:13.875;stroke-linecap:butt;stroke-linejoin:round;stroke:rgb(75.389099%,75.389099%,75.389099%);stroke-opacity:1;stroke-miterlimit:10;" d="M 4571.796875 97.109375 L 4571.796875 5466.757812 " transform="matrix(0.1,0,0,-0.1,0,555)"/>
<path style="fill:none;stroke-width:13.875;stroke-linecap:butt;stroke-linejoin:round;stroke:rgb(75.389099%,75.389099%,75.389099%);stroke-opacity:1;stroke-miterlimit:10;" d="M 5019.296875 97.109375 L 5019.296875 5466.757812 " transform="matrix(0.1,0,0,-0.1,0,555)"/>
<path style="fill:none;stroke-width:13.875;stroke-linecap:butt;stroke-linejoin:round;stroke:rgb(75.389099%,75.389099%,75.389099%);stroke-opacity:1;stroke-miterlimit:10;" d="M 5466.757812 97.109375 L 5466.757812 5466.757812 " transform="matrix(0.1,0,0,-0.1,0,555)"/>
<path style="fill:none;stroke-width:13.875;stroke-linecap:butt;stroke-linejoin:round;stroke:rgb(75.389099%,75.389099%,75.389099%);stroke-opacity:1;stroke-miterlimit:10;" d="M 97.109375 97.109375 L 5466.757812 97.109375 " transform="matrix(0.1,0,0,-0.1,0,555)"/>
<path style="fill:none;stroke-width:13.875;stroke-linecap:butt;stroke-linejoin:round;stroke:rgb(75.389099%,75.389099%,75.389099%);stroke-opacity:1;stroke-miterlimit:10;" d="M 97.109375 544.609375 L 5466.757812 544.609375 " transform="matrix(0.1,0,0,-0.1,0,555)"/>
<path style="fill:none;stroke-width:13.875;stroke-linecap:butt;stroke-linejoin:round;stroke:rgb(75.389099%,75.389099%,75.389099%);stroke-opacity:1;stroke-miterlimit:10;" d="M 97.109375 992.070312 L 5466.757812 992.070312 " transform="matrix(0.1,0,0,-0.1,0,555)"/>
<path style="fill:none;stroke-width:13.875;stroke-linecap:butt;stroke-linejoin:round;stroke:rgb(75.389099%,75.389099%,75.389099%);stroke-opacity:1;stroke-miterlimit:10;" d="M 97.109375 1439.53125 L 5466.757812 1439.53125 " transform="matrix(0.1,0,0,-0.1,0,555)"/>
<path style="fill:none;stroke-width:13.875;stroke-linecap:butt;stroke-linejoin:round;stroke:rgb(75.389099%,75.389099%,75.389099%);stroke-opacity:1;stroke-miterlimit:10;" d="M 97.109375 1886.992188 L 5466.757812 1886.992188 " transform="matrix(0.1,0,0,-0.1,0,555)"/>
<path style="fill:none;stroke-width:13.875;stroke-linecap:butt;stroke-linejoin:round;stroke:rgb(75.389099%,75.389099%,75.389099%);stroke-opacity:1;stroke-miterlimit:10;" d="M 97.109375 2334.453125 L 5466.757812 2334.453125 " transform="matrix(0.1,0,0,-0.1,0,555)"/>
<path style="fill:none;stroke-width:13.875;stroke-linecap:butt;stroke-linejoin:round;stroke:rgb(75.389099%,75.389099%,75.389099%);stroke-opacity:1;stroke-miterlimit:10;" d="M 97.109375 2781.953125 L 5466.757812 2781.953125 " transform="matrix(0.1,0,0,-0.1,0,555)"/>
<path style="fill:none;stroke-width:13.875;stroke-linecap:butt;stroke-linejoin:round;stroke:rgb(75.389099%,75.389099%,75.389099%);stroke-opacity:1;stroke-miterlimit:10;" d="M 97.109375 3229.414062 L 5466.757812 3229.414062 " transform="matrix(0.1,0,0,-0.1,0,555)"/>
<path style="fill:none;stroke-width:13.875;stroke-linecap:butt;stroke-linejoin:round;stroke:rgb(75.389099%,75.389099%,75.389099%);stroke-opacity:1;stroke-miterlimit:10;" d="M 97.109375 3676.875 L 5466.757812 3676.875 " transform="matrix(0.1,0,0,-0.1,0,555)"/>
<path style="fill:none;stroke-width:13.875;stroke-linecap:butt;stroke-linejoin:round;stroke:rgb(75.389099%,75.389099%,75.389099%);stroke-opacity:1;stroke-miterlimit:10;" d="M 97.109375 4124.335938 L 5466.757812 4124.335938 " transform="matrix(0.1,0,0,-0.1,0,555)"/>
<path style="fill:none;stroke-width:13.875;stroke-linecap:butt;stroke-linejoin:round;stroke:rgb(75.389099%,75.389099%,75.389099%);stroke-opacity:1;stroke-miterlimit:10;" d="M 97.109375 4571.796875 L 5466.757812 4571.796875 " transform="matrix(0.1,0,0,-0.1,0,555)"/>
<path style="fill:none;stroke-width:13.875;stroke-linecap:butt;stroke-linejoin:round;stroke:rgb(75.389099%,75.389099%,75.389099%);stroke-opacity:1;stroke-miterlimit:10;" d="M 97.109375 5019.296875 L 5466.757812 5019.296875 " transform="matrix(0.1,0,0,-0.1,0,555)"/>
<path style="fill:none;stroke-width:13.875;stroke-linecap:butt;stroke-linejoin:round;stroke:rgb(75.389099%,75.389099%,75.389099%);stroke-opacity:1;stroke-miterlimit:10;" d="M 97.109375 5466.757812 L 5466.757812 5466.757812 " transform="matrix(0.1,0,0,-0.1,0,555)"/>
<path style=" stroke:none;fill-rule:nonzero;fill:rgb(100%,75.389099%,79.6875%);fill-opacity:1;" d="M 385.585938 455.792969 L 457.179688 455.792969 L 457.179688 234.160156 L 385.585938 234.160156 L 385.585938 455.792969 "/>
<path style="fill:none;stroke-width:20.8125;stroke-linecap:butt;stroke-linejoin:round;stroke:rgb(0%,0%,0%);stroke-opacity:1;stroke-miterlimit:10;" d="M 3855.859375 992.070312 L 4571.796875 992.070312 L 4571.796875 3208.398438 L 3855.859375 3208.398438 Z M 3855.859375 992.070312 " transform="matrix(0.1,0,0,-0.1,0,555)"/>
<path style=" stroke:none;fill-rule:nonzero;fill:rgb(100%,75.389099%,79.6875%);fill-opacity:1;" d="M 313.992188 455.792969 L 385.585938 455.792969 L 385.585938 307.230469 L 313.992188 307.230469 L 313.992188 455.792969 "/>
<path style="fill:none;stroke-width:20.8125;stroke-linecap:butt;stroke-linejoin:round;stroke:rgb(0%,0%,0%);stroke-opacity:1;stroke-miterlimit:10;" d="M 3139.921875 992.070312 L 3855.859375 992.070312 L 3855.859375 2477.695312 L 3139.921875 2477.695312 Z M 3139.921875 992.070312 " transform="matrix(0.1,0,0,-0.1,0,555)"/>
<path style=" stroke:none;fill-rule:nonzero;fill:rgb(100%,75.389099%,79.6875%);fill-opacity:1;" d="M 242.394531 455.792969 L 313.992188 455.792969 L 313.992188 356.207031 L 242.394531 356.207031 L 242.394531 455.792969 "/>
<path style="fill:none;stroke-width:20.8125;stroke-linecap:butt;stroke-linejoin:round;stroke:rgb(0%,0%,0%);stroke-opacity:1;stroke-miterlimit:10;" d="M 2423.945312 992.070312 L 3139.921875 992.070312 L 3139.921875 1987.929688 L 2423.945312 1987.929688 Z M 2423.945312 992.070312 " transform="matrix(0.1,0,0,-0.1,0,555)"/>
<path style=" stroke:none;fill-rule:nonzero;fill:rgb(100%,75.389099%,79.6875%);fill-opacity:1;" d="M 170.800781 455.792969 L 242.394531 455.792969 L 242.394531 389.039062 L 170.800781 389.039062 L 170.800781 455.792969 "/>
<path style="fill:none;stroke-width:20.8125;stroke-linecap:butt;stroke-linejoin:round;stroke:rgb(0%,0%,0%);stroke-opacity:1;stroke-miterlimit:10;" d="M 1708.007812 992.070312 L 2423.945312 992.070312 L 2423.945312 1659.609375 L 1708.007812 1659.609375 Z M 1708.007812 992.070312 " transform="matrix(0.1,0,0,-0.1,0,555)"/>
<path style=" stroke:none;fill-rule:nonzero;fill:rgb(100%,75.389099%,79.6875%);fill-opacity:1;" d="M 99.207031 455.792969 L 170.800781 455.792969 L 170.800781 411.046875 L 99.207031 411.046875 L 99.207031 455.792969 "/>
<path style="fill:none;stroke-width:20.8125;stroke-linecap:butt;stroke-linejoin:round;stroke:rgb(0%,0%,0%);stroke-opacity:1;stroke-miterlimit:10;" d="M 992.070312 992.070312 L 1708.007812 992.070312 L 1708.007812 1439.53125 L 992.070312 1439.53125 Z M 992.070312 992.070312 " transform="matrix(0.1,0,0,-0.1,0,555)"/>
<g clip-path="url(#clip1)" clip-rule="nonzero">
<path style="fill:none;stroke-width:20.8125;stroke-linecap:butt;stroke-linejoin:round;stroke:rgb(75.389099%,75.389099%,75.389099%);stroke-opacity:1;stroke-miterlimit:10;" d="M 97.109375 97.109375 L 5466.757812 97.109375 " transform="matrix(0.1,0,0,-0.1,0,555)"/>
</g>
<g clip-path="url(#clip2)" clip-rule="nonzero">
<path style="fill:none;stroke-width:20.8125;stroke-linecap:butt;stroke-linejoin:round;stroke:rgb(0%,0%,0%);stroke-opacity:1;stroke-miterlimit:10;" d="M 97.109375 992.070312 L 5466.757812 992.070312 " transform="matrix(0.1,0,0,-0.1,0,555)"/>
</g>
<path style="fill:none;stroke-width:27.75;stroke-linecap:butt;stroke-linejoin:round;stroke:rgb(0%,0%,100%);stroke-opacity:1;stroke-miterlimit:10;" d="M 992.070312 1439.53125 L 1010.898438 1444.257812 L 1027.265625 1448.4375 L 1045.664062 1453.125 L 1064.21875 1457.96875 L 1082.65625 1462.773438 L 1099.765625 1467.304688 L 1117.460938 1471.992188 L 1135.78125 1476.953125 L 1154.0625 1481.914062 L 1172.851562 1487.109375 L 1189.375 1491.679688 L 1208.007812 1496.914062 L 1226.71875 1502.226562 L 1244.726562 1507.382812 L 1261.09375 1512.109375 L 1280.546875 1517.8125 L 1297.03125 1522.65625 L 1316.210938 1528.398438 L 1333.203125 1533.476562 L 1351.796875 1539.140625 L 1369.53125 1544.609375 L 1388.046875 1550.351562 L 1405.039062 1555.664062 L 1423.359375 1561.445312 L 1442.382812 1567.539062 L 1458.984375 1572.890625 L 1476.875 1578.75 L 1495.351562 1584.84375 L 1513.4375 1590.859375 L 1530.9375 1596.71875 L 1550.390625 1603.359375 L 1567.851562 1609.335938 L 1586.484375 1615.78125 L 1603.398438 1621.71875 L 1621.835938 1628.242188 L 1639.21875 1634.453125 L 1657.382812 1641.015625 L 1675.15625 1647.460938 L 1693.75 1654.335938 L 1711.640625 1660.976562 L 1729.960938 1667.851562 L 1748.125 1674.765625 L 1764.804688 1681.132812 L 1783.945312 1688.554688 L 1801.054688 1695.234375 L 1819.296875 1702.421875 L 1836.757812 1709.414062 L 1856.132812 1717.226562 L 1872.929688 1724.023438 L 1891.992188 1731.875 L 1909.335938 1739.101562 L 1928.320312 1747.070312 L 1944.726562 1754.023438 L 1963.398438 1761.992188 L 1981.40625 1769.804688 L 1999.414062 1777.65625 L 2017.382812 1785.585938 L 2034.648438 1793.242188 L 2053.28125 1801.640625 L 2071.054688 1809.726562 L 2089.726562 1818.28125 L 2106.679688 1826.171875 L 2125.351562 1834.921875 L 2143.28125 1843.398438 L 2161.171875 1851.953125 L 2179.84375 1860.976562 L 2197.03125 1869.335938 L 2214.648438 1878.007812 L 2234.101562 1887.695312 L 2251.679688 1896.5625 L 2269.6875 1905.703125 L 2288.007812 1915.117188 L 2304.84375 1923.828125 L 2322.773438 1933.203125 L 2340.585938 1942.617188 L 2359.648438 1952.773438 L 2376.445312 1961.835938 L 2395.859375 1972.382812 L 2413.359375 1982.03125 L 2430.664062 1991.640625 L 2449.257812 2002.109375 L 2467.96875 2012.734375 L 2484.960938 2022.460938 L 2503.046875 2032.929688 L 2520.664062 2043.203125 L 2539.765625 2054.492188 L 2556.328125 2064.375 L 2575.3125 2075.78125 L 2593.164062 2086.640625 L 2610.820312 2097.539062 L 2628.554688 2108.515625 L 2646.5625 2119.804688 L 2665.703125 2131.914062 L 2683.242188 2143.164062 L 2700.546875 2154.375 L 2719.0625 2166.445312 L 2737.539062 2178.59375 L 2754.101562 2189.648438 L 2773.75 2202.851562 L 2790.195312 2214.023438 L 2809.375 2227.226562 L 2827.734375 2239.921875 L 2844.101562 2251.40625 L 2862.539062 2264.453125 L 2881.054688 2277.695312 L 2899.53125 2291.015625 L 2916.601562 2303.476562 L 2934.335938 2316.523438 L 2952.65625 2330.15625 L 2970.898438 2343.867188 L 2989.6875 2358.125 L 3006.25 2370.820312 L 3024.84375 2385.234375 L 3043.554688 2399.84375 L 3061.601562 2414.101562 L 3077.96875 2427.1875 L 3097.382812 2442.851562 L 3113.90625 2456.289062 L 3133.085938 2472.03125 L 3150.039062 2486.132812 L 3168.671875 2501.757812 L 3186.40625 2516.796875 L 3204.882812 2532.65625 L 3221.875 2547.34375 L 3240.195312 2563.359375 L 3259.257812 2580.15625 L 3275.820312 2594.921875 L 3293.710938 2611.054688 L 3312.226562 2627.851562 L 3330.3125 2644.453125 L 3347.8125 2660.703125 L 3367.226562 2678.90625 L 3384.6875 2695.46875 L 3403.359375 2713.28125 L 3420.234375 2729.609375 L 3438.710938 2747.65625 L 3456.09375 2764.765625 L 3474.257812 2782.851562 L 3492.03125 2800.703125 L 3510.625 2819.609375 L 3528.515625 2837.96875 L 3546.835938 2856.953125 L 3565 2875.976562 L 3581.679688 2893.632812 L 3600.78125 2914.023438 L 3617.890625 2932.5 L 3636.132812 2952.382812 L 3653.59375 2971.601562 L 3673.007812 2993.125 L 3689.765625 3011.992188 L 3708.828125 3033.632812 L 3726.210938 3053.515625 L 3745.195312 3075.507812 L 3761.5625 3094.6875 L 3780.234375 3116.71875 L 3798.28125 3138.242188 L 3816.289062 3159.921875 L 3834.257812 3181.796875 L 3851.484375 3203.007812 L 3870.117188 3226.132812 L 3887.890625 3248.4375 L 3906.601562 3272.148438 L 3923.515625 3293.789062 L 3942.226562 3317.96875 L 3960.15625 3341.367188 L 3978.007812 3364.960938 L 3996.71875 3389.84375 L 4013.90625 3413.007812 L 4031.523438 3436.914062 L 4050.9375 3463.632812 L 4068.554688 3488.046875 L 4086.5625 3513.28125 L 4104.882812 3539.21875 L 4121.71875 3563.28125 L 4139.648438 3589.179688 L 4157.460938 3615.15625 L 4176.484375 3643.203125 L 4193.28125 3668.242188 L 4212.695312 3697.382812 L 4230.195312 3723.984375 L 4247.5 3750.507812 L 4266.132812 3779.375 L 4284.804688 3808.632812 L 4301.835938 3835.507812 L 4319.882812 3864.375 L 4337.539062 3892.8125 L 4356.640625 3923.945312 L 4373.164062 3951.132812 L 4392.148438 3982.695312 L 4410.039062 4012.695312 L 4427.695312 4042.65625 L 4445.390625 4072.96875 L 4463.4375 4104.179688 L 4482.578125 4137.617188 L 4500.117188 4168.59375 L 4517.421875 4199.492188 L 4535.9375 4232.8125 L 4554.414062 4266.445312 L 4571.796875 4298.4375 " transform="matrix(0.1,0,0,-0.1,0,555)"/>
<path style=" stroke:none;fill-rule:nonzero;fill:rgb(0%,0%,0%);fill-opacity:1;" d="M 126.132812 64.238281 L 126.132812 67.921875 L 128.734375 67.921875 L 128.734375 68.769531 L 126.132812 68.769531 L 126.132812 76.007812 C 126.132812 76.730469 126.234375 77.21875 126.4375 77.472656 C 126.636719 77.726562 126.90625 77.851562 127.238281 77.851562 C 127.496094 77.851562 127.753906 77.769531 128.007812 77.601562 C 128.261719 77.4375 128.460938 77.195312 128.605469 76.875 L 129.082031 76.875 C 128.792969 77.671875 128.386719 78.265625 127.867188 78.664062 C 127.347656 79.0625 126.8125 79.261719 126.261719 79.261719 C 125.886719 79.261719 125.519531 79.160156 125.15625 78.957031 C 124.796875 78.753906 124.53125 78.460938 124.367188 78.066406 C 124.199219 77.679688 124.117188 77.085938 124.117188 76.289062 L 124.117188 68.769531 L 122.339844 68.769531 L 122.339844 68.378906 C 122.785156 68.191406 123.246094 67.882812 123.714844 67.457031 C 124.183594 67.03125 124.601562 66.527344 124.960938 65.949219 C 125.148438 65.632812 125.410156 65.0625 125.742188 64.238281 Z M 135.28125 67.597656 C 136.972656 67.597656 138.332031 68.234375 139.359375 69.503906 C 140.226562 70.605469 140.660156 71.867188 140.660156 73.300781 C 140.660156 74.296875 140.421875 75.308594 139.945312 76.335938 C 139.46875 77.359375 138.804688 78.132812 137.960938 78.652344 C 137.113281 79.175781 136.179688 79.433594 135.152344 79.433594 C 133.460938 79.433594 132.125 78.761719 131.140625 77.417969 C 130.304688 76.289062 129.882812 75.019531 129.882812 73.601562 C 129.882812 72.589844 130.136719 71.574219 130.644531 70.554688 C 131.148438 69.535156 131.816406 68.789062 132.648438 68.3125 C 133.480469 67.835938 134.355469 67.597656 135.28125 67.597656 Z M 134.914062 68.378906 C 134.480469 68.378906 134.046875 68.507812 133.613281 68.769531 C 133.179688 69.027344 132.824219 69.476562 132.550781 70.113281 C 132.277344 70.746094 132.140625 71.570312 132.140625 72.585938 C 132.140625 74.21875 132.464844 75.621094 133.113281 76.800781 C 133.765625 77.976562 134.617188 78.566406 135.671875 78.566406 C 136.46875 78.566406 137.117188 78.242188 137.625 77.589844 C 138.128906 76.941406 138.382812 75.820312 138.382812 74.230469 C 138.382812 72.25 137.957031 70.691406 137.105469 69.546875 C 136.523438 68.769531 135.796875 68.378906 134.914062 68.378906 Z M 145.558594 69.960938 C 146.875 68.386719 148.125 67.597656 149.308594 67.597656 C 149.914062 67.597656 150.441406 67.75 150.882812 68.050781 C 151.320312 68.355469 151.671875 68.855469 151.933594 69.546875 C 152.105469 70.039062 152.191406 70.789062 152.191406 71.804688 L 152.191406 76.574219 C 152.191406 77.265625 152.25 77.742188 152.367188 78.003906 C 152.453125 78.207031 152.597656 78.363281 152.800781 78.480469 C 153 78.597656 153.371094 78.652344 153.902344 78.652344 L 153.902344 79.085938 L 148.378906 79.085938 L 148.378906 78.652344 L 148.613281 78.652344 C 149.136719 78.652344 149.5 78.574219 149.710938 78.414062 C 149.921875 78.257812 150.0625 78.019531 150.132812 77.699219 C 150.160156 77.585938 150.175781 77.210938 150.175781 76.574219 L 150.175781 71.996094 C 150.175781 70.972656 150.046875 70.230469 149.785156 69.777344 C 149.523438 69.320312 149.085938 69.09375 148.464844 69.09375 C 147.496094 69.09375 146.527344 69.621094 145.558594 70.675781 L 145.558594 76.574219 C 145.558594 77.324219 145.601562 77.785156 145.6875 77.960938 C 145.804688 78.207031 145.960938 78.382812 146.164062 78.492188 C 146.367188 78.601562 146.773438 78.652344 147.378906 78.652344 L 147.378906 79.085938 L 141.851562 79.085938 L 141.851562 78.652344 L 142.089844 78.652344 C 142.667969 78.652344 143.054688 78.507812 143.25 78.21875 C 143.445312 77.929688 143.542969 77.382812 143.542969 76.574219 L 143.542969 72.410156 C 143.542969 71.066406 143.515625 70.25 143.457031 69.960938 C 143.398438 69.671875 143.308594 69.472656 143.183594 69.363281 C 143.0625 69.253906 142.890625 69.203125 142.675781 69.203125 C 142.445312 69.203125 142.171875 69.265625 141.851562 69.394531 L 141.679688 68.964844 L 145.039062 67.597656 L 145.558594 67.597656 Z M 162.011719 67.597656 L 162.011719 71.390625 L 161.601562 71.390625 C 161.296875 70.191406 160.902344 69.378906 160.421875 68.953125 C 159.9375 68.527344 159.316406 68.3125 158.566406 68.3125 C 158.003906 68.3125 157.546875 68.460938 157.199219 68.757812 C 156.851562 69.054688 156.679688 69.390625 156.679688 69.765625 C 156.679688 70.214844 156.808594 70.605469 157.070312 70.9375 C 157.316406 71.269531 157.828125 71.621094 158.609375 71.996094 L 160.386719 72.863281 C 162.035156 73.660156 162.859375 74.714844 162.859375 76.03125 C 162.859375 77.058594 162.476562 77.878906 161.710938 78.503906 C 160.941406 79.121094 160.085938 79.433594 159.128906 79.433594 C 158.4375 79.433594 157.65625 79.3125 156.789062 79.066406 C 156.515625 78.980469 156.289062 78.9375 156.117188 78.9375 C 155.929688 78.9375 155.785156 79.042969 155.683594 79.261719 L 155.292969 79.261719 L 155.292969 75.273438 L 155.683594 75.273438 C 155.914062 76.414062 156.351562 77.273438 156.992188 77.851562 C 157.636719 78.429688 158.355469 78.71875 159.152344 78.71875 C 159.714844 78.71875 160.175781 78.554688 160.527344 78.21875 C 160.882812 77.886719 161.058594 77.488281 161.058594 77.027344 C 161.058594 76.464844 160.859375 75.992188 160.464844 75.609375 C 160.066406 75.226562 159.277344 74.742188 158.101562 74.15625 C 156.921875 73.570312 156.152344 73.046875 155.789062 72.585938 C 155.414062 72.121094 155.226562 71.535156 155.226562 70.828125 C 155.226562 69.902344 155.539062 69.132812 156.171875 68.519531 C 156.796875 67.902344 157.617188 67.597656 158.632812 67.597656 C 159.0625 67.597656 159.59375 67.683594 160.214844 67.855469 C 160.632812 67.988281 160.914062 68.050781 161.058594 68.050781 C 161.1875 68.050781 161.289062 68.023438 161.363281 67.964844 C 161.433594 67.90625 161.515625 67.785156 161.601562 67.597656 Z M 170.734375 61.742188 L 164.753906 79.433594 L 163.777344 79.433594 L 169.757812 61.742188 Z M 170.824219 67.921875 L 175.507812 67.921875 L 175.507812 68.378906 C 175.085938 68.40625 174.808594 68.480469 174.671875 68.605469 C 174.535156 68.726562 174.464844 68.898438 174.464844 69.113281 C 174.464844 69.375 174.539062 69.6875 174.683594 70.046875 L 177.066406 76.464844 L 179.472656 71.238281 L 178.820312 69.59375 C 178.636719 69.101562 178.382812 68.761719 178.066406 68.574219 C 177.890625 68.457031 177.558594 68.390625 177.066406 68.378906 L 177.066406 67.921875 L 182.378906 67.921875 L 182.378906 68.378906 C 181.800781 68.390625 181.386719 68.492188 181.140625 68.679688 C 180.96875 68.8125 180.882812 69.019531 180.882812 69.308594 C 180.882812 69.46875 180.917969 69.636719 180.992188 69.808594 L 183.527344 76.226562 L 185.871094 70.046875 C 186.042969 69.597656 186.128906 69.246094 186.128906 68.984375 C 186.128906 68.839844 186.050781 68.707031 185.890625 68.585938 C 185.730469 68.460938 185.421875 68.390625 184.957031 68.378906 L 184.957031 67.921875 L 188.472656 67.921875 L 188.472656 68.378906 C 187.761719 68.480469 187.242188 68.957031 186.910156 69.808594 L 183.179688 79.433594 L 182.683594 79.433594 L 179.886719 72.300781 L 176.632812 79.433594 L 176.179688 79.433594 L 172.601562 70.046875 C 172.367188 69.453125 172.140625 69.054688 171.90625 68.84375 C 171.675781 68.632812 171.3125 68.480469 170.824219 68.378906 Z M 191.375 72.128906 C 191.359375 73.789062 191.757812 75.089844 192.566406 76.03125 C 193.390625 76.96875 194.351562 77.441406 195.449219 77.441406 C 196.171875 77.441406 196.804688 77.238281 197.347656 76.832031 C 197.890625 76.429688 198.339844 75.742188 198.703125 74.773438 L 199.09375 75.011719 C 198.917969 76.125 198.421875 77.140625 197.597656 78.058594 C 196.773438 78.976562 195.746094 79.433594 194.519531 79.433594 C 193.171875 79.433594 192.023438 78.910156 191.070312 77.863281 C 190.117188 76.8125 189.640625 75.410156 189.640625 73.644531 C 189.640625 71.738281 190.128906 70.25 191.101562 69.179688 C 192.078125 68.109375 193.3125 67.574219 194.800781 67.574219 C 196.042969 67.574219 197.066406 67.988281 197.878906 68.8125 C 198.6875 69.636719 199.09375 70.742188 199.09375 72.128906 Z M 191.375 71.414062 L 196.535156 71.414062 C 196.492188 70.703125 196.402344 70.199219 196.273438 69.894531 C 196.070312 69.445312 195.773438 69.09375 195.375 68.832031 C 194.976562 68.574219 194.554688 68.441406 194.105469 68.441406 C 193.441406 68.441406 192.84375 68.703125 192.304688 69.222656 C 191.773438 69.742188 191.460938 70.472656 191.375 71.414062 Z M 202.460938 72.128906 C 202.445312 73.789062 202.84375 75.089844 203.652344 76.03125 C 204.476562 76.96875 205.4375 77.441406 206.535156 77.441406 C 207.257812 77.441406 207.890625 77.238281 208.433594 76.832031 C 208.972656 76.429688 209.425781 75.742188 209.785156 74.773438 L 210.175781 75.011719 C 210.003906 76.125 209.503906 77.140625 208.679688 78.058594 C 207.855469 78.976562 206.832031 79.433594 205.601562 79.433594 C 204.257812 79.433594 203.109375 78.910156 202.15625 77.863281 C 201.203125 76.8125 200.726562 75.410156 200.726562 73.644531 C 200.726562 71.738281 201.214844 70.25 202.1875 69.179688 C 203.164062 68.109375 204.394531 67.574219 205.882812 67.574219 C 207.128906 67.574219 208.152344 67.988281 208.964844 68.8125 C 209.773438 69.636719 210.175781 70.742188 210.175781 72.128906 Z M 202.460938 71.414062 L 207.617188 71.414062 C 207.574219 70.703125 207.488281 70.199219 207.359375 69.894531 C 207.15625 69.445312 206.855469 69.09375 206.460938 68.832031 C 206.0625 68.574219 205.640625 68.441406 205.191406 68.441406 C 204.527344 68.441406 203.925781 68.703125 203.390625 69.222656 C 202.855469 69.742188 202.546875 70.472656 202.460938 71.414062 Z M 214.953125 61.742188 L 214.953125 72.863281 L 217.816406 70.265625 C 218.40625 69.714844 218.753906 69.367188 218.855469 69.222656 C 218.914062 69.121094 218.941406 69.019531 218.941406 68.921875 C 218.941406 68.761719 218.878906 68.621094 218.746094 68.507812 C 218.617188 68.390625 218.394531 68.328125 218.074219 68.3125 L 218.074219 67.921875 L 222.929688 67.921875 L 222.929688 68.3125 C 222.265625 68.328125 221.714844 68.429688 221.273438 68.617188 C 220.832031 68.804688 220.34375 69.136719 219.808594 69.613281 L 216.949219 72.257812 L 219.808594 75.878906 C 220.605469 76.875 221.148438 77.511719 221.433594 77.785156 C 221.828125 78.160156 222.164062 78.40625 222.453125 78.523438 C 222.65625 78.609375 223.011719 78.652344 223.515625 78.652344 L 223.515625 79.085938 L 218.074219 79.085938 L 218.074219 78.652344 C 218.394531 78.640625 218.605469 78.589844 218.714844 78.503906 C 218.824219 78.414062 218.878906 78.300781 218.878906 78.15625 C 218.878906 77.96875 218.71875 77.664062 218.402344 77.246094 L 214.953125 72.863281 L 214.953125 76.574219 C 214.953125 77.296875 215.007812 77.773438 215.117188 78.003906 C 215.226562 78.234375 215.367188 78.398438 215.550781 78.492188 C 215.730469 78.585938 216.140625 78.640625 216.773438 78.652344 L 216.773438 79.085938 L 211.09375 79.085938 L 211.09375 78.652344 C 211.65625 78.652344 212.085938 78.582031 212.371094 78.4375 C 212.53125 78.351562 212.660156 78.214844 212.761719 78.023438 C 212.878906 77.75 212.9375 77.289062 212.9375 76.636719 L 212.9375 66.46875 C 212.9375 65.167969 212.90625 64.375 212.851562 64.085938 C 212.792969 63.796875 212.699219 63.597656 212.570312 63.488281 C 212.4375 63.378906 212.273438 63.324219 212.070312 63.324219 C 211.894531 63.324219 211.636719 63.398438 211.289062 63.542969 L 211.09375 63.109375 L 214.410156 61.742188 L 214.953125 61.742188 "/>
<path style=" stroke:none;fill-rule:nonzero;fill:rgb(0%,0%,0%);fill-opacity:1;" d="M 462.1875 420.347656 L 466.871094 420.347656 L 466.871094 420.800781 C 466.453125 420.832031 466.175781 420.90625 466.035156 421.03125 C 465.898438 421.152344 465.832031 421.324219 465.832031 421.539062 C 465.832031 421.800781 465.902344 422.109375 466.046875 422.472656 L 468.433594 428.890625 L 470.839844 423.664062 L 470.1875 422.015625 C 470 421.523438 469.746094 421.183594 469.429688 420.996094 C 469.257812 420.882812 468.925781 420.816406 468.433594 420.800781 L 468.433594 420.347656 L 473.742188 420.347656 L 473.742188 420.800781 C 473.164062 420.816406 472.753906 420.917969 472.507812 421.105469 C 472.335938 421.234375 472.246094 421.445312 472.246094 421.734375 C 472.246094 421.894531 472.285156 422.058594 472.355469 422.234375 L 474.894531 428.648438 L 477.234375 422.472656 C 477.40625 422.023438 477.492188 421.671875 477.492188 421.410156 C 477.492188 421.265625 477.414062 421.132812 477.253906 421.007812 C 477.097656 420.886719 476.785156 420.816406 476.324219 420.800781 L 476.324219 420.347656 L 479.835938 420.347656 L 479.835938 420.800781 C 479.128906 420.902344 478.605469 421.378906 478.273438 422.234375 L 474.546875 431.859375 L 474.046875 431.859375 L 471.25 424.726562 L 467.996094 431.859375 L 467.542969 431.859375 L 463.964844 422.472656 C 463.734375 421.878906 463.503906 421.476562 463.273438 421.269531 C 463.042969 421.058594 462.679688 420.902344 462.1875 420.800781 Z M 482.738281 424.554688 C 482.726562 426.214844 483.121094 427.515625 483.933594 428.453125 C 484.757812 429.394531 485.71875 429.863281 486.816406 429.863281 C 487.539062 429.863281 488.171875 429.660156 488.710938 429.257812 C 489.253906 428.851562 489.707031 428.164062 490.066406 427.195312 L 490.457031 427.4375 C 490.285156 428.550781 489.785156 429.5625 488.960938 430.480469 C 488.136719 431.398438 487.109375 431.859375 485.882812 431.859375 C 484.539062 431.859375 483.390625 431.335938 482.4375 430.285156 C 481.480469 429.238281 481.003906 427.835938 481.003906 426.070312 C 481.003906 424.164062 481.492188 422.675781 482.46875 421.605469 C 483.445312 420.535156 484.675781 420 486.164062 420 C 487.40625 420 488.433594 420.410156 489.242188 421.234375 C 490.054688 422.058594 490.457031 423.164062 490.457031 424.554688 Z M 482.738281 423.835938 L 487.898438 423.835938 C 487.855469 423.128906 487.769531 422.621094 487.640625 422.320312 C 487.4375 421.871094 487.136719 421.515625 486.738281 421.257812 C 486.34375 420.996094 485.917969 420.867188 485.472656 420.867188 C 484.804688 420.867188 484.207031 421.128906 483.671875 421.648438 C 483.136719 422.167969 482.828125 422.898438 482.738281 423.835938 Z M 493.824219 424.554688 C 493.808594 426.214844 494.207031 427.515625 495.015625 428.453125 C 495.839844 429.394531 496.804688 429.863281 497.898438 429.863281 C 498.621094 429.863281 499.257812 429.660156 499.796875 429.257812 C 500.339844 428.851562 500.792969 428.164062 501.152344 427.195312 L 501.542969 427.4375 C 501.367188 428.550781 500.871094 429.5625 500.046875 430.480469 C 499.222656 431.398438 498.195312 431.859375 496.96875 431.859375 C 495.625 431.859375 494.476562 431.335938 493.519531 430.285156 C 492.566406 429.238281 492.089844 427.835938 492.089844 426.070312 C 492.089844 424.164062 492.578125 422.675781 493.554688 421.605469 C 494.53125 420.535156 495.761719 420 497.25 420 C 498.492188 420 499.519531 420.410156 500.328125 421.234375 C 501.140625 422.058594 501.542969 423.164062 501.542969 424.554688 Z M 493.824219 423.835938 L 498.984375 423.835938 C 498.941406 423.128906 498.855469 422.621094 498.726562 422.320312 C 498.523438 421.871094 498.222656 421.515625 497.824219 421.257812 C 497.425781 420.996094 497.003906 420.867188 496.554688 420.867188 C 495.890625 420.867188 495.292969 421.128906 494.757812 421.648438 C 494.222656 422.167969 493.910156 422.898438 493.824219 423.835938 Z M 506.320312 414.167969 L 506.320312 425.289062 L 509.179688 422.6875 C 509.773438 422.140625 510.121094 421.792969 510.222656 421.648438 C 510.28125 421.546875 510.308594 421.445312 510.308594 421.34375 C 510.308594 421.183594 510.242188 421.046875 510.113281 420.933594 C 509.980469 420.816406 509.757812 420.75 509.441406 420.738281 L 509.441406 420.347656 L 514.296875 420.347656 L 514.296875 420.738281 C 513.632812 420.75 513.078125 420.851562 512.636719 421.039062 C 512.199219 421.230469 511.710938 421.5625 511.175781 422.035156 L 508.3125 424.683594 L 511.175781 428.304688 C 511.972656 429.300781 512.511719 429.9375 512.800781 430.210938 C 513.191406 430.585938 513.53125 430.832031 513.820312 430.949219 C 514.023438 431.035156 514.378906 431.078125 514.882812 431.078125 L 514.882812 431.511719 L 509.441406 431.511719 L 509.441406 431.078125 C 509.757812 431.0625 509.972656 431.011719 510.082031 430.925781 C 510.1875 430.839844 510.242188 430.722656 510.242188 430.578125 C 510.242188 430.390625 510.085938 430.089844 509.765625 429.667969 L 506.320312 425.289062 L 506.320312 428.996094 C 506.320312 429.71875 506.375 430.195312 506.480469 430.425781 C 506.589844 430.660156 506.734375 430.820312 506.914062 430.914062 C 507.09375 431.011719 507.503906 431.0625 508.140625 431.078125 L 508.140625 431.511719 L 502.460938 431.511719 L 502.460938 431.078125 C 503.023438 431.078125 503.449219 431.007812 503.738281 430.863281 C 503.898438 430.773438 504.027344 430.636719 504.128906 430.449219 C 504.246094 430.175781 504.300781 429.714844 504.300781 429.0625 L 504.300781 418.894531 C 504.300781 417.59375 504.273438 416.796875 504.214844 416.507812 C 504.15625 416.222656 504.066406 416.019531 503.933594 415.914062 C 503.804688 415.804688 503.636719 415.75 503.433594 415.75 C 503.261719 415.75 503.003906 415.824219 502.65625 415.96875 L 502.460938 415.535156 L 505.777344 414.167969 Z M 522.730469 420.019531 L 522.730469 423.816406 L 522.320312 423.816406 C 522.015625 422.617188 521.621094 421.804688 521.136719 421.378906 C 520.652344 420.949219 520.035156 420.738281 519.28125 420.738281 C 518.71875 420.738281 518.265625 420.886719 517.917969 421.179688 C 517.570312 421.476562 517.398438 421.8125 517.398438 422.191406 C 517.398438 422.636719 517.527344 423.027344 517.785156 423.359375 C 518.03125 423.691406 518.546875 424.046875 519.328125 424.421875 L 521.105469 425.289062 C 522.753906 426.085938 523.574219 427.140625 523.574219 428.453125 C 523.574219 429.480469 523.191406 430.304688 522.425781 430.925781 C 521.660156 431.546875 520.800781 431.859375 519.847656 431.859375 C 519.152344 431.859375 518.371094 431.734375 517.503906 431.488281 C 517.230469 431.402344 517.007812 431.359375 516.835938 431.359375 C 516.644531 431.359375 516.5 431.46875 516.398438 431.6875 L 516.011719 431.6875 L 516.011719 427.695312 L 516.398438 427.695312 C 516.632812 428.835938 517.066406 429.699219 517.714844 430.277344 C 518.355469 430.855469 519.074219 431.144531 519.867188 431.144531 C 520.433594 431.144531 520.890625 430.976562 521.246094 430.644531 C 521.601562 430.3125 521.777344 429.914062 521.777344 429.453125 C 521.777344 428.890625 521.578125 428.414062 521.179688 428.03125 C 520.78125 427.648438 519.996094 427.164062 518.816406 426.578125 C 517.640625 425.996094 516.871094 425.46875 516.507812 425.007812 C 516.132812 424.546875 515.945312 423.960938 515.945312 423.25 C 515.945312 422.328125 516.261719 421.558594 516.886719 420.941406 C 517.515625 420.328125 518.335938 420.019531 519.347656 420.019531 C 519.78125 420.019531 520.308594 420.109375 520.929688 420.28125 C 521.351562 420.410156 521.632812 420.476562 521.777344 420.476562 C 521.90625 420.476562 522.007812 420.449219 522.078125 420.390625 C 522.152344 420.332031 522.230469 420.210938 522.320312 420.019531 L 522.730469 420.019531 "/>
<path style="fill:none;stroke-width:13.875;stroke-linecap:butt;stroke-linejoin:round;stroke:rgb(0%,0%,0%);stroke-opacity:1;stroke-miterlimit:10;" d="M 97.109375 992.070312 L 5466.757812 992.070312 " transform="matrix(0.1,0,0,-0.1,0,555)"/>
<path style=" stroke:none;fill-rule:nonzero;fill:rgb(0%,0%,0%);fill-opacity:1;" d="M 325.195312 492.128906 L 324.503906 494.511719 L 325.890625 494.511719 L 325.734375 495.078125 L 324.371094 495.078125 L 322.851562 500.257812 C 322.695312 500.824219 322.613281 501.183594 322.613281 501.34375 C 322.613281 501.445312 322.636719 501.523438 322.679688 501.582031 C 322.722656 501.636719 322.78125 501.667969 322.851562 501.667969 C 322.996094 501.667969 323.1875 501.558594 323.414062 501.34375 C 323.5625 501.226562 323.878906 500.863281 324.371094 500.257812 L 324.652344 500.496094 C 324.117188 501.277344 323.613281 501.828125 323.136719 502.144531 C 322.804688 502.375 322.46875 502.492188 322.136719 502.492188 C 321.878906 502.492188 321.664062 502.40625 321.496094 502.242188 C 321.332031 502.074219 321.25 501.871094 321.25 501.625 C 321.25 501.304688 321.34375 500.824219 321.53125 500.171875 L 323.003906 495.078125 L 321.683594 495.078125 L 321.769531 494.730469 C 322.40625 494.554688 322.941406 494.292969 323.371094 493.9375 C 323.808594 493.585938 324.285156 492.980469 324.804688 492.128906 L 325.195312 492.128906 "/>
<path style="fill:none;stroke-width:1.2;stroke-linecap:butt;stroke-linejoin:round;stroke:rgb(0%,0%,0%);stroke-opacity:1;stroke-miterlimit:10;" d="M 1886.992188 992.070312 L 1886.992188 936.5625 " transform="matrix(0.1,0,0,-0.1,0,555)"/>
<path style=" stroke:none;fill-rule:nonzero;fill:rgb(0%,0%,0%);fill-opacity:1;" d="M 186.660156 469.300781 L 189.566406 467.890625 L 189.847656 467.890625 L 189.847656 477.972656 C 189.847656 478.636719 189.878906 479.050781 189.933594 479.21875 C 189.992188 479.382812 190.109375 479.511719 190.28125 479.597656 C 190.453125 479.683594 190.808594 479.734375 191.34375 479.75 L 191.34375 480.074219 L 186.855469 480.074219 L 186.855469 479.75 C 187.421875 479.734375 187.785156 479.683594 187.949219 479.597656 C 188.117188 479.511719 188.234375 479.394531 188.296875 479.25 C 188.363281 479.105469 188.394531 478.679688 188.394531 477.972656 L 188.394531 471.53125 C 188.394531 470.652344 188.367188 470.089844 188.308594 469.84375 C 188.265625 469.652344 188.1875 469.515625 188.082031 469.429688 C 187.972656 469.34375 187.839844 469.300781 187.679688 469.300781 C 187.464844 469.300781 187.167969 469.394531 186.792969 469.582031 L 186.660156 469.300781 "/>
<path style="fill:none;stroke-width:1.2;stroke-linecap:butt;stroke-linejoin:round;stroke:rgb(0%,0%,0%);stroke-opacity:1;stroke-miterlimit:10;" d="M 2781.953125 992.070312 L 2781.953125 936.5625 " transform="matrix(0.1,0,0,-0.1,0,555)"/>
<path style=" stroke:none;fill-rule:nonzero;fill:rgb(0%,0%,0%);fill-opacity:1;" d="M 281.597656 477.777344 L 280.773438 480.074219 L 273.726562 480.074219 L 273.726562 479.75 C 275.792969 477.855469 277.25 476.308594 278.09375 475.109375 C 278.941406 473.910156 279.363281 472.820312 279.363281 471.835938 C 279.363281 471.070312 279.132812 470.445312 278.671875 469.960938 C 278.207031 469.476562 277.652344 469.234375 277 469.234375 C 276.421875 469.234375 275.898438 469.402344 275.429688 469.742188 C 274.960938 470.082031 274.613281 470.585938 274.398438 471.25 L 274.074219 471.25 C 274.21875 470.167969 274.59375 469.335938 275.199219 468.757812 C 275.808594 468.179688 276.566406 467.890625 277.476562 467.890625 C 278.445312 467.890625 279.253906 468.199219 279.90625 468.824219 C 280.558594 469.445312 280.882812 470.171875 280.882812 471.011719 C 280.882812 471.621094 280.738281 472.226562 280.449219 472.832031 C 280.015625 473.785156 279.3125 474.792969 278.34375 475.847656 C 276.886719 477.453125 275.96875 478.417969 275.59375 478.75 L 278.714844 478.75 C 279.351562 478.75 279.792969 478.726562 280.046875 478.675781 C 280.300781 478.625 280.53125 478.527344 280.738281 478.382812 C 280.949219 478.238281 281.128906 478.035156 281.269531 477.777344 L 281.597656 477.777344 "/>
<path style="fill:none;stroke-width:1.2;stroke-linecap:butt;stroke-linejoin:round;stroke:rgb(0%,0%,0%);stroke-opacity:1;stroke-miterlimit:10;" d="M 3676.875 992.070312 L 3676.875 936.5625 " transform="matrix(0.1,0,0,-0.1,0,555)"/>
<path style=" stroke:none;fill-rule:nonzero;fill:rgb(0%,0%,0%);fill-opacity:1;" d="M 364.433594 470.40625 C 364.78125 469.59375 365.214844 468.976562 365.734375 468.539062 C 366.253906 468.109375 366.898438 467.890625 367.664062 467.890625 C 368.632812 467.890625 369.371094 468.199219 369.878906 468.824219 C 370.265625 469.285156 370.464844 469.777344 370.464844 470.296875 C 370.464844 471.179688 369.914062 472.082031 368.8125 473.007812 C 369.550781 473.296875 370.105469 473.707031 370.484375 474.242188 C 370.859375 474.777344 371.046875 475.40625 371.046875 476.128906 C 371.046875 477.15625 370.714844 478.042969 370.050781 478.796875 C 369.195312 479.792969 367.960938 480.292969 366.34375 480.292969 C 365.53125 480.292969 364.984375 480.191406 364.695312 479.988281 C 364.40625 479.785156 364.261719 479.570312 364.261719 479.335938 C 364.261719 479.164062 364.328125 479.015625 364.46875 478.894531 C 364.605469 478.769531 364.765625 478.707031 364.953125 478.707031 C 365.101562 478.707031 365.25 478.730469 365.410156 478.773438 C 365.511719 478.800781 365.738281 478.90625 366.09375 479.089844 C 366.445312 479.269531 366.691406 479.382812 366.820312 479.425781 C 367.035156 479.480469 367.265625 479.511719 367.515625 479.511719 C 368.105469 479.511719 368.628906 479.28125 369.074219 478.816406 C 369.523438 478.355469 369.746094 477.804688 369.746094 477.167969 C 369.746094 476.707031 369.644531 476.257812 369.441406 475.824219 C 369.285156 475.492188 369.109375 475.238281 368.921875 475.066406 C 368.675781 474.835938 368.335938 474.625 367.894531 474.4375 C 367.453125 474.25 367 474.15625 366.535156 474.15625 L 366.253906 474.15625 L 366.253906 473.875 C 366.71875 473.816406 367.183594 473.648438 367.652344 473.375 C 368.125 473.101562 368.464844 472.773438 368.671875 472.386719 C 368.882812 472.003906 368.988281 471.578125 368.988281 471.097656 C 368.988281 470.507812 368.800781 470.023438 368.425781 469.648438 C 368.046875 469.269531 367.578125 469.082031 367.015625 469.082031 C 366.105469 469.082031 365.34375 469.566406 364.738281 470.535156 L 364.433594 470.40625 "/>
<path style="fill:none;stroke-width:1.2;stroke-linecap:butt;stroke-linejoin:round;stroke:rgb(0%,0%,0%);stroke-opacity:1;stroke-miterlimit:10;" d="M 4571.796875 992.070312 L 4571.796875 936.5625 " transform="matrix(0.1,0,0,-0.1,0,555)"/>
<path style=" stroke:none;fill-rule:nonzero;fill:rgb(0%,0%,0%);fill-opacity:1;" d="M 460.714844 475.671875 L 460.714844 476.929688 L 459.109375 476.929688 L 459.109375 480.074219 L 457.65625 480.074219 L 457.65625 476.929688 L 452.605469 476.929688 L 452.605469 475.800781 L 458.15625 467.890625 L 459.109375 467.890625 L 459.109375 475.671875 Z M 457.65625 475.671875 L 457.65625 469.730469 L 453.472656 475.671875 L 457.65625 475.671875 "/>
<path style="fill:none;stroke-width:13.875;stroke-linecap:butt;stroke-linejoin:round;stroke:rgb(0%,0%,0%);stroke-opacity:1;stroke-miterlimit:10;" d="M 992.070312 97.109375 L 992.070312 5466.757812 " transform="matrix(0.1,0,0,-0.1,0,555)"/>
<path style="fill:none;stroke-width:1.2;stroke-linecap:butt;stroke-linejoin:round;stroke:rgb(0%,0%,0%);stroke-opacity:1;stroke-miterlimit:10;" d="M 992.070312 1886.992188 L 936.5625 1886.992188 " transform="matrix(0.1,0,0,-0.1,0,555)"/>
<path style=" stroke:none;fill-rule:nonzero;fill:rgb(0%,0%,0%);fill-opacity:1;" d="M 82.597656 362.460938 L 85.503906 361.050781 L 85.785156 361.050781 L 85.785156 371.132812 C 85.785156 371.800781 85.816406 372.214844 85.871094 372.378906 C 85.929688 372.546875 86.046875 372.671875 86.21875 372.761719 C 86.394531 372.847656 86.746094 372.898438 87.28125 372.910156 L 87.28125 373.238281 L 82.792969 373.238281 L 82.792969 372.910156 C 83.359375 372.898438 83.722656 372.847656 83.890625 372.761719 C 84.054688 372.671875 84.171875 372.558594 84.234375 372.414062 C 84.300781 372.269531 84.335938 371.84375 84.335938 371.132812 L 84.335938 364.695312 C 84.335938 363.8125 84.304688 363.25 84.246094 363.003906 C 84.203125 362.816406 84.128906 362.679688 84.019531 362.59375 C 83.910156 362.503906 83.777344 362.460938 83.617188 362.460938 C 83.402344 362.460938 83.105469 362.558594 82.730469 362.742188 L 82.597656 362.460938 "/>
<path style="fill:none;stroke-width:1.2;stroke-linecap:butt;stroke-linejoin:round;stroke:rgb(0%,0%,0%);stroke-opacity:1;stroke-miterlimit:10;" d="M 992.070312 2781.953125 L 936.5625 2781.953125 " transform="matrix(0.1,0,0,-0.1,0,555)"/>
<path style=" stroke:none;fill-rule:nonzero;fill:rgb(0%,0%,0%);fill-opacity:1;" d="M 88.734375 280.75 L 87.910156 283.050781 L 80.863281 283.050781 L 80.863281 282.722656 C 82.933594 280.832031 84.386719 279.285156 85.234375 278.085938 C 86.078125 276.886719 86.503906 275.792969 86.503906 274.8125 C 86.503906 274.046875 86.269531 273.421875 85.808594 272.933594 C 85.34375 272.453125 84.789062 272.210938 84.140625 272.210938 C 83.558594 272.210938 83.035156 272.378906 82.566406 272.71875 C 82.097656 273.058594 81.753906 273.5625 81.535156 274.226562 L 81.210938 274.226562 C 81.355469 273.140625 81.730469 272.3125 82.339844 271.730469 C 82.945312 271.15625 83.707031 270.863281 84.617188 270.863281 C 85.585938 270.863281 86.394531 271.175781 87.042969 271.796875 C 87.695312 272.417969 88.019531 273.148438 88.019531 273.988281 C 88.019531 274.59375 87.875 275.199219 87.585938 275.808594 C 87.152344 276.761719 86.453125 277.765625 85.484375 278.820312 C 84.023438 280.425781 83.105469 281.394531 82.730469 281.726562 L 85.851562 281.726562 C 86.488281 281.726562 86.933594 281.699219 87.183594 281.652344 C 87.4375 281.601562 87.667969 281.503906 87.878906 281.359375 C 88.089844 281.214844 88.265625 281.011719 88.410156 280.75 L 88.734375 280.75 "/>
<path style="fill:none;stroke-width:1.2;stroke-linecap:butt;stroke-linejoin:round;stroke:rgb(0%,0%,0%);stroke-opacity:1;stroke-miterlimit:10;" d="M 992.070312 3676.875 L 936.5625 3676.875 " transform="matrix(0.1,0,0,-0.1,0,555)"/>
<path style=" stroke:none;fill-rule:nonzero;fill:rgb(0%,0%,0%);fill-opacity:1;" d="M 81.386719 184.578125 C 81.730469 183.769531 82.164062 183.148438 82.6875 182.714844 C 83.207031 182.28125 83.847656 182.066406 84.617188 182.066406 C 85.585938 182.066406 86.320312 182.375 86.828125 182.996094 C 87.21875 183.460938 87.414062 183.953125 87.414062 184.472656 C 87.414062 185.355469 86.863281 186.257812 85.765625 187.183594 C 86.503906 187.472656 87.058594 187.882812 87.433594 188.417969 C 87.808594 188.953125 87.996094 189.582031 87.996094 190.304688 C 87.996094 191.328125 87.664062 192.21875 87 192.972656 C 86.148438 193.96875 84.910156 194.464844 83.292969 194.464844 C 82.484375 194.464844 81.933594 194.363281 81.644531 194.160156 C 81.355469 193.960938 81.210938 193.742188 81.210938 193.511719 C 81.210938 193.339844 81.28125 193.191406 81.417969 193.066406 C 81.554688 192.945312 81.71875 192.882812 81.90625 192.882812 C 82.050781 192.882812 82.203125 192.90625 82.359375 192.949219 C 82.460938 192.976562 82.691406 193.082031 83.042969 193.261719 C 83.398438 193.445312 83.640625 193.554688 83.769531 193.597656 C 83.988281 193.65625 84.21875 193.683594 84.464844 193.683594 C 85.054688 193.683594 85.578125 193.453125 86.023438 192.992188 C 86.472656 192.527344 86.695312 191.980469 86.695312 191.34375 C 86.695312 190.882812 86.59375 190.433594 86.394531 190 C 86.234375 189.667969 86.0625 189.414062 85.871094 189.242188 C 85.628906 189.011719 85.285156 188.800781 84.84375 188.613281 C 84.402344 188.425781 83.949219 188.332031 83.488281 188.332031 L 83.207031 188.332031 L 83.207031 188.050781 C 83.667969 187.992188 84.136719 187.824219 84.605469 187.550781 C 85.074219 187.277344 85.414062 186.949219 85.625 186.5625 C 85.832031 186.179688 85.9375 185.753906 85.9375 185.273438 C 85.9375 184.683594 85.75 184.199219 85.375 183.820312 C 85 183.445312 84.527344 183.257812 83.964844 183.257812 C 83.054688 183.257812 82.296875 183.742188 81.6875 184.710938 L 81.386719 184.578125 "/>
<path style="fill:none;stroke-width:1.2;stroke-linecap:butt;stroke-linejoin:round;stroke:rgb(0%,0%,0%);stroke-opacity:1;stroke-miterlimit:10;" d="M 992.070312 4571.796875 L 936.5625 4571.796875 " transform="matrix(0.1,0,0,-0.1,0,555)"/>
<path style=" stroke:none;fill-rule:nonzero;fill:rgb(0%,0%,0%);fill-opacity:1;" d="M 88.863281 99.660156 L 88.863281 100.917969 L 87.261719 100.917969 L 87.261719 104.0625 L 85.808594 104.0625 L 85.808594 100.917969 L 80.757812 100.917969 L 80.757812 99.789062 L 86.304688 91.878906 L 87.261719 91.878906 L 87.261719 99.660156 Z M 85.808594 99.660156 L 85.808594 93.722656 L 81.625 99.660156 L 85.808594 99.660156 "/>
</g>
</svg>
