<?xml version="1.0" encoding="UTF-8"?>
<svg xmlns="http://www.w3.org/2000/svg" xmlns:xlink="http://www.w3.org/1999/xlink" width="185pt" height="185pt" viewBox="0 0 185 185" version="1.1">
<g id="surface1">
<rect x="0" y="0" width="185" height="185" style="fill:rgb(100%,100%,100%);fill-opacity:1;stroke:none;"/>
<path style="fill:none;stroke-width:10;stroke-linecap:round;stroke-linejoin:round;stroke:rgb(75.389099%,75.389099%,75.389099%);stroke-opacity:1;stroke-miterlimit:10;" d="M 75.078125 1883.007812 L 75.078125 -327.929688 " transform="matrix(0.1,0,0,-0.1,0,185)"/>
<path style="fill:none;stroke-width:10;stroke-linecap:round;stroke-linejoin:round;stroke:rgb(75.389099%,75.389099%,75.389099%);stroke-opacity:1;stroke-miterlimit:10;" d="M 75.078125 1883.007812 L 75.078125 -327.929688 " transform="matrix(0.1,0,0,-0.1,0,185)"/>
<path style="fill:none;stroke-width:10;stroke-linecap:round;stroke-linejoin:round;stroke:rgb(75.389099%,75.389099%,75.389099%);stroke-opacity:1;stroke-miterlimit:10;" d="M 358.515625 1883.007812 L 358.515625 -327.929688 " transform="matrix(0.1,0,0,-0.1,0,185)"/>
<path style="fill:none;stroke-width:10;stroke-linecap:round;stroke-linejoin:round;stroke:rgb(75.389099%,75.389099%,75.389099%);stroke-opacity:1;stroke-miterlimit:10;" d="M 641.992188 1883.007812 L 641.992188 -327.929688 " transform="matrix(0.1,0,0,-0.1,0,185)"/>
<path style="fill:none;stroke-width:10;stroke-linecap:round;stroke-linejoin:round;stroke:rgb(75.389099%,75.389099%,75.389099%);stroke-opacity:1;stroke-miterlimit:10;" d="M 1208.90625 1883.007812 L 1208.90625 -327.929688 " transform="matrix(0.1,0,0,-0.1,0,185)"/>
<path style="fill:none;stroke-width:10;stroke-linecap:round;stroke-linejoin:round;stroke:rgb(75.389099%,75.389099%,75.389099%);stroke-opacity:1;stroke-miterlimit:10;" d="M 1492.382812 1883.007812 L 1492.382812 -327.929688 " transform="matrix(0.1,0,0,-0.1,0,185)"/>
<path style="fill:none;stroke-width:10;stroke-linecap:round;stroke-linejoin:round;stroke:rgb(75.389099%,75.389099%,75.389099%);stroke-opacity:1;stroke-miterlimit:10;" d="M 1775.859375 1883.007812 L 1775.859375 -327.929688 " transform="matrix(0.1,0,0,-0.1,0,185)"/>
<path style="fill:none;stroke-width:10;stroke-linecap:round;stroke-linejoin:round;stroke:rgb(94.139099%,94.139099%,94.139099%);stroke-opacity:1;stroke-miterlimit:10;" d="M 18.359375 1883.007812 L 18.359375 -327.929688 " transform="matrix(0.1,0,0,-0.1,0,185)"/>
<path style="fill:none;stroke-width:10;stroke-linecap:round;stroke-linejoin:round;stroke:rgb(94.139099%,94.139099%,94.139099%);stroke-opacity:1;stroke-miterlimit:10;" d="M 131.757812 1883.007812 L 131.757812 -327.929688 " transform="matrix(0.1,0,0,-0.1,0,185)"/>
<path style="fill:none;stroke-width:10;stroke-linecap:round;stroke-linejoin:round;stroke:rgb(94.139099%,94.139099%,94.139099%);stroke-opacity:1;stroke-miterlimit:10;" d="M 188.4375 1883.007812 L 188.4375 -327.929688 " transform="matrix(0.1,0,0,-0.1,0,185)"/>
<path style="fill:none;stroke-width:10;stroke-linecap:round;stroke-linejoin:round;stroke:rgb(94.139099%,94.139099%,94.139099%);stroke-opacity:1;stroke-miterlimit:10;" d="M 245.15625 1883.007812 L 245.15625 -327.929688 " transform="matrix(0.1,0,0,-0.1,0,185)"/>
<path style="fill:none;stroke-width:10;stroke-linecap:round;stroke-linejoin:round;stroke:rgb(94.139099%,94.139099%,94.139099%);stroke-opacity:1;stroke-miterlimit:10;" d="M 301.835938 1883.007812 L 301.835938 -327.929688 " transform="matrix(0.1,0,0,-0.1,0,185)"/>
<path style="fill:none;stroke-width:10;stroke-linecap:round;stroke-linejoin:round;stroke:rgb(94.139099%,94.139099%,94.139099%);stroke-opacity:1;stroke-miterlimit:10;" d="M 415.234375 1883.007812 L 415.234375 -327.929688 " transform="matrix(0.1,0,0,-0.1,0,185)"/>
<path style="fill:none;stroke-width:10;stroke-linecap:round;stroke-linejoin:round;stroke:rgb(94.139099%,94.139099%,94.139099%);stroke-opacity:1;stroke-miterlimit:10;" d="M 471.914062 1883.007812 L 471.914062 -327.929688 " transform="matrix(0.1,0,0,-0.1,0,185)"/>
<path style="fill:none;stroke-width:10;stroke-linecap:round;stroke-linejoin:round;stroke:rgb(94.139099%,94.139099%,94.139099%);stroke-opacity:1;stroke-miterlimit:10;" d="M 528.59375 1883.007812 L 528.59375 -327.929688 " transform="matrix(0.1,0,0,-0.1,0,185)"/>
<path style="fill:none;stroke-width:10;stroke-linecap:round;stroke-linejoin:round;stroke:rgb(94.139099%,94.139099%,94.139099%);stroke-opacity:1;stroke-miterlimit:10;" d="M 585.3125 1883.007812 L 585.3125 -327.929688 " transform="matrix(0.1,0,0,-0.1,0,185)"/>
<path style="fill:none;stroke-width:10;stroke-linecap:round;stroke-linejoin:round;stroke:rgb(94.139099%,94.139099%,94.139099%);stroke-opacity:1;stroke-miterlimit:10;" d="M 698.671875 1883.007812 L 698.671875 -327.929688 " transform="matrix(0.1,0,0,-0.1,0,185)"/>
<path style="fill:none;stroke-width:10;stroke-linecap:round;stroke-linejoin:round;stroke:rgb(94.139099%,94.139099%,94.139099%);stroke-opacity:1;stroke-miterlimit:10;" d="M 755.390625 1883.007812 L 755.390625 -327.929688 " transform="matrix(0.1,0,0,-0.1,0,185)"/>
<path style="fill:none;stroke-width:10;stroke-linecap:round;stroke-linejoin:round;stroke:rgb(94.139099%,94.139099%,94.139099%);stroke-opacity:1;stroke-miterlimit:10;" d="M 812.070312 1883.007812 L 812.070312 -327.929688 " transform="matrix(0.1,0,0,-0.1,0,185)"/>
<path style="fill:none;stroke-width:10;stroke-linecap:round;stroke-linejoin:round;stroke:rgb(94.139099%,94.139099%,94.139099%);stroke-opacity:1;stroke-miterlimit:10;" d="M 868.75 1883.007812 L 868.75 -327.929688 " transform="matrix(0.1,0,0,-0.1,0,185)"/>
<path style="fill:none;stroke-width:10;stroke-linecap:round;stroke-linejoin:round;stroke:rgb(94.139099%,94.139099%,94.139099%);stroke-opacity:1;stroke-miterlimit:10;" d="M 982.148438 1883.007812 L 982.148438 -327.929688 " transform="matrix(0.1,0,0,-0.1,0,185)"/>
<path style="fill:none;stroke-width:10;stroke-linecap:round;stroke-linejoin:round;stroke:rgb(94.139099%,94.139099%,94.139099%);stroke-opacity:1;stroke-miterlimit:10;" d="M 1038.828125 1883.007812 L 1038.828125 -327.929688 " transform="matrix(0.1,0,0,-0.1,0,185)"/>
<path style="fill:none;stroke-width:10;stroke-linecap:round;stroke-linejoin:round;stroke:rgb(94.139099%,94.139099%,94.139099%);stroke-opacity:1;stroke-miterlimit:10;" d="M 1095.546875 1883.007812 L 1095.546875 -327.929688 " transform="matrix(0.1,0,0,-0.1,0,185)"/>
<path style="fill:none;stroke-width:10;stroke-linecap:round;stroke-linejoin:round;stroke:rgb(94.139099%,94.139099%,94.139099%);stroke-opacity:1;stroke-miterlimit:10;" d="M 1152.226562 1883.007812 L 1152.226562 -327.929688 " transform="matrix(0.1,0,0,-0.1,0,185)"/>
<path style="fill:none;stroke-width:10;stroke-linecap:round;stroke-linejoin:round;stroke:rgb(94.139099%,94.139099%,94.139099%);stroke-opacity:1;stroke-miterlimit:10;" d="M 1265.625 1883.007812 L 1265.625 -327.929688 " transform="matrix(0.1,0,0,-0.1,0,185)"/>
<path style="fill:none;stroke-width:10;stroke-linecap:round;stroke-linejoin:round;stroke:rgb(94.139099%,94.139099%,94.139099%);stroke-opacity:1;stroke-miterlimit:10;" d="M 1322.304688 1883.007812 L 1322.304688 -327.929688 " transform="matrix(0.1,0,0,-0.1,0,185)"/>
<path style="fill:none;stroke-width:10;stroke-linecap:round;stroke-linejoin:round;stroke:rgb(94.139099%,94.139099%,94.139099%);stroke-opacity:1;stroke-miterlimit:10;" d="M 1378.984375 1883.007812 L 1378.984375 -327.929688 " transform="matrix(0.1,0,0,-0.1,0,185)"/>
<path style="fill:none;stroke-width:10;stroke-linecap:round;stroke-linejoin:round;stroke:rgb(94.139099%,94.139099%,94.139099%);stroke-opacity:1;stroke-miterlimit:10;" d="M 1435.703125 1883.007812 L 1435.703125 -327.929688 " transform="matrix(0.1,0,0,-0.1,0,185)"/>
<path style="fill:none;stroke-width:10;stroke-linecap:round;stroke-linejoin:round;stroke:rgb(94.139099%,94.139099%,94.139099%);stroke-opacity:1;stroke-miterlimit:10;" d="M 1549.0625 1883.007812 L 1549.0625 -327.929688 " transform="matrix(0.1,0,0,-0.1,0,185)"/>
<path style="fill:none;stroke-width:10;stroke-linecap:round;stroke-linejoin:round;stroke:rgb(94.139099%,94.139099%,94.139099%);stroke-opacity:1;stroke-miterlimit:10;" d="M 1605.78125 1883.007812 L 1605.78125 -327.929688 " transform="matrix(0.1,0,0,-0.1,0,185)"/>
<path style="fill:none;stroke-width:10;stroke-linecap:round;stroke-linejoin:round;stroke:rgb(94.139099%,94.139099%,94.139099%);stroke-opacity:1;stroke-miterlimit:10;" d="M 1662.460938 1883.007812 L 1662.460938 -327.929688 " transform="matrix(0.1,0,0,-0.1,0,185)"/>
<path style="fill:none;stroke-width:10;stroke-linecap:round;stroke-linejoin:round;stroke:rgb(94.139099%,94.139099%,94.139099%);stroke-opacity:1;stroke-miterlimit:10;" d="M 1719.140625 1883.007812 L 1719.140625 -327.929688 " transform="matrix(0.1,0,0,-0.1,0,185)"/>
<path style="fill:none;stroke-width:10;stroke-linecap:round;stroke-linejoin:round;stroke:rgb(94.139099%,94.139099%,94.139099%);stroke-opacity:1;stroke-miterlimit:10;" d="M 1832.539062 1883.007812 L 1832.539062 -327.929688 " transform="matrix(0.1,0,0,-0.1,0,185)"/>
<path style="fill:none;stroke-width:10;stroke-linecap:round;stroke-linejoin:round;stroke:rgb(75.389099%,75.389099%,75.389099%);stroke-opacity:1;stroke-miterlimit:10;" d="M -188.554688 1782.96875 L 2545.625 1782.96875 " transform="matrix(0.1,0,0,-0.1,0,185)"/>
<path style="fill:none;stroke-width:10;stroke-linecap:round;stroke-linejoin:round;stroke:rgb(75.389099%,75.389099%,75.389099%);stroke-opacity:1;stroke-miterlimit:10;" d="M -188.554688 1782.96875 L 2545.625 1782.96875 " transform="matrix(0.1,0,0,-0.1,0,185)"/>
<path style="fill:none;stroke-width:10;stroke-linecap:round;stroke-linejoin:round;stroke:rgb(75.389099%,75.389099%,75.389099%);stroke-opacity:1;stroke-miterlimit:10;" d="M -188.554688 1499.53125 L 2545.625 1499.53125 " transform="matrix(0.1,0,0,-0.1,0,185)"/>
<path style="fill:none;stroke-width:10;stroke-linecap:round;stroke-linejoin:round;stroke:rgb(75.389099%,75.389099%,75.389099%);stroke-opacity:1;stroke-miterlimit:10;" d="M -188.554688 1216.054688 L 2545.625 1216.054688 " transform="matrix(0.1,0,0,-0.1,0,185)"/>
<path style="fill:none;stroke-width:10;stroke-linecap:round;stroke-linejoin:round;stroke:rgb(75.389099%,75.389099%,75.389099%);stroke-opacity:1;stroke-miterlimit:10;" d="M -188.554688 932.578125 L 2545.625 932.578125 " transform="matrix(0.1,0,0,-0.1,0,185)"/>
<path style="fill:none;stroke-width:10;stroke-linecap:round;stroke-linejoin:round;stroke:rgb(75.389099%,75.389099%,75.389099%);stroke-opacity:1;stroke-miterlimit:10;" d="M -188.554688 365.664062 L 2545.625 365.664062 " transform="matrix(0.1,0,0,-0.1,0,185)"/>
<path style="fill:none;stroke-width:10;stroke-linecap:round;stroke-linejoin:round;stroke:rgb(75.389099%,75.389099%,75.389099%);stroke-opacity:1;stroke-miterlimit:10;" d="M -188.554688 82.1875 L 2545.625 82.1875 " transform="matrix(0.1,0,0,-0.1,0,185)"/>
<path style="fill:none;stroke-width:10;stroke-linecap:round;stroke-linejoin:round;stroke:rgb(94.139099%,94.139099%,94.139099%);stroke-opacity:1;stroke-miterlimit:10;" d="M -188.554688 1839.6875 L 2545.625 1839.6875 " transform="matrix(0.1,0,0,-0.1,0,185)"/>
<path style="fill:none;stroke-width:10;stroke-linecap:round;stroke-linejoin:round;stroke:rgb(94.139099%,94.139099%,94.139099%);stroke-opacity:1;stroke-miterlimit:10;" d="M -188.554688 1839.6875 L 2545.625 1839.6875 " transform="matrix(0.1,0,0,-0.1,0,185)"/>
<path style="fill:none;stroke-width:10;stroke-linecap:round;stroke-linejoin:round;stroke:rgb(94.139099%,94.139099%,94.139099%);stroke-opacity:1;stroke-miterlimit:10;" d="M -188.554688 1726.289062 L 2545.625 1726.289062 " transform="matrix(0.1,0,0,-0.1,0,185)"/>
<path style="fill:none;stroke-width:10;stroke-linecap:round;stroke-linejoin:round;stroke:rgb(94.139099%,94.139099%,94.139099%);stroke-opacity:1;stroke-miterlimit:10;" d="M -188.554688 1669.609375 L 2545.625 1669.609375 " transform="matrix(0.1,0,0,-0.1,0,185)"/>
<path style="fill:none;stroke-width:10;stroke-linecap:round;stroke-linejoin:round;stroke:rgb(94.139099%,94.139099%,94.139099%);stroke-opacity:1;stroke-miterlimit:10;" d="M -188.554688 1612.890625 L 2545.625 1612.890625 " transform="matrix(0.1,0,0,-0.1,0,185)"/>
<path style="fill:none;stroke-width:10;stroke-linecap:round;stroke-linejoin:round;stroke:rgb(94.139099%,94.139099%,94.139099%);stroke-opacity:1;stroke-miterlimit:10;" d="M -188.554688 1556.210938 L 2545.625 1556.210938 " transform="matrix(0.1,0,0,-0.1,0,185)"/>
<path style="fill:none;stroke-width:10;stroke-linecap:round;stroke-linejoin:round;stroke:rgb(94.139099%,94.139099%,94.139099%);stroke-opacity:1;stroke-miterlimit:10;" d="M -188.554688 1442.8125 L 2545.625 1442.8125 " transform="matrix(0.1,0,0,-0.1,0,185)"/>
<path style="fill:none;stroke-width:10;stroke-linecap:round;stroke-linejoin:round;stroke:rgb(94.139099%,94.139099%,94.139099%);stroke-opacity:1;stroke-miterlimit:10;" d="M -188.554688 1386.132812 L 2545.625 1386.132812 " transform="matrix(0.1,0,0,-0.1,0,185)"/>
<path style="fill:none;stroke-width:10;stroke-linecap:round;stroke-linejoin:round;stroke:rgb(94.139099%,94.139099%,94.139099%);stroke-opacity:1;stroke-miterlimit:10;" d="M -188.554688 1329.453125 L 2545.625 1329.453125 " transform="matrix(0.1,0,0,-0.1,0,185)"/>
<path style="fill:none;stroke-width:10;stroke-linecap:round;stroke-linejoin:round;stroke:rgb(94.139099%,94.139099%,94.139099%);stroke-opacity:1;stroke-miterlimit:10;" d="M -188.554688 1272.734375 L 2545.625 1272.734375 " transform="matrix(0.1,0,0,-0.1,0,185)"/>
<path style="fill:none;stroke-width:10;stroke-linecap:round;stroke-linejoin:round;stroke:rgb(94.139099%,94.139099%,94.139099%);stroke-opacity:1;stroke-miterlimit:10;" d="M -188.554688 1159.375 L 2545.625 1159.375 " transform="matrix(0.1,0,0,-0.1,0,185)"/>
<path style="fill:none;stroke-width:10;stroke-linecap:round;stroke-linejoin:round;stroke:rgb(94.139099%,94.139099%,94.139099%);stroke-opacity:1;stroke-miterlimit:10;" d="M -188.554688 1102.65625 L 2545.625 1102.65625 " transform="matrix(0.1,0,0,-0.1,0,185)"/>
<path style="fill:none;stroke-width:10;stroke-linecap:round;stroke-linejoin:round;stroke:rgb(94.139099%,94.139099%,94.139099%);stroke-opacity:1;stroke-miterlimit:10;" d="M -188.554688 1045.976562 L 2545.625 1045.976562 " transform="matrix(0.1,0,0,-0.1,0,185)"/>
<path style="fill:none;stroke-width:10;stroke-linecap:round;stroke-linejoin:round;stroke:rgb(94.139099%,94.139099%,94.139099%);stroke-opacity:1;stroke-miterlimit:10;" d="M -188.554688 989.296875 L 2545.625 989.296875 " transform="matrix(0.1,0,0,-0.1,0,185)"/>
<path style="fill:none;stroke-width:10;stroke-linecap:round;stroke-linejoin:round;stroke:rgb(94.139099%,94.139099%,94.139099%);stroke-opacity:1;stroke-miterlimit:10;" d="M -188.554688 875.898438 L 2545.625 875.898438 " transform="matrix(0.1,0,0,-0.1,0,185)"/>
<path style="fill:none;stroke-width:10;stroke-linecap:round;stroke-linejoin:round;stroke:rgb(94.139099%,94.139099%,94.139099%);stroke-opacity:1;stroke-miterlimit:10;" d="M -188.554688 819.21875 L 2545.625 819.21875 " transform="matrix(0.1,0,0,-0.1,0,185)"/>
<path style="fill:none;stroke-width:10;stroke-linecap:round;stroke-linejoin:round;stroke:rgb(94.139099%,94.139099%,94.139099%);stroke-opacity:1;stroke-miterlimit:10;" d="M -188.554688 762.5 L 2545.625 762.5 " transform="matrix(0.1,0,0,-0.1,0,185)"/>
<path style="fill:none;stroke-width:10;stroke-linecap:round;stroke-linejoin:round;stroke:rgb(94.139099%,94.139099%,94.139099%);stroke-opacity:1;stroke-miterlimit:10;" d="M -188.554688 705.820312 L 2545.625 705.820312 " transform="matrix(0.1,0,0,-0.1,0,185)"/>
<path style="fill:none;stroke-width:10;stroke-linecap:round;stroke-linejoin:round;stroke:rgb(94.139099%,94.139099%,94.139099%);stroke-opacity:1;stroke-miterlimit:10;" d="M -188.554688 592.421875 L 2545.625 592.421875 " transform="matrix(0.1,0,0,-0.1,0,185)"/>
<path style="fill:none;stroke-width:10;stroke-linecap:round;stroke-linejoin:round;stroke:rgb(94.139099%,94.139099%,94.139099%);stroke-opacity:1;stroke-miterlimit:10;" d="M -188.554688 535.742188 L 2545.625 535.742188 " transform="matrix(0.1,0,0,-0.1,0,185)"/>
<path style="fill:none;stroke-width:10;stroke-linecap:round;stroke-linejoin:round;stroke:rgb(94.139099%,94.139099%,94.139099%);stroke-opacity:1;stroke-miterlimit:10;" d="M -188.554688 479.0625 L 2545.625 479.0625 " transform="matrix(0.1,0,0,-0.1,0,185)"/>
<path style="fill:none;stroke-width:10;stroke-linecap:round;stroke-linejoin:round;stroke:rgb(94.139099%,94.139099%,94.139099%);stroke-opacity:1;stroke-miterlimit:10;" d="M -188.554688 422.34375 L 2545.625 422.34375 " transform="matrix(0.1,0,0,-0.1,0,185)"/>
<path style="fill:none;stroke-width:10;stroke-linecap:round;stroke-linejoin:round;stroke:rgb(94.139099%,94.139099%,94.139099%);stroke-opacity:1;stroke-miterlimit:10;" d="M -188.554688 308.984375 L 2545.625 308.984375 " transform="matrix(0.1,0,0,-0.1,0,185)"/>
<path style="fill:none;stroke-width:10;stroke-linecap:round;stroke-linejoin:round;stroke:rgb(94.139099%,94.139099%,94.139099%);stroke-opacity:1;stroke-miterlimit:10;" d="M -188.554688 252.265625 L 2545.625 252.265625 " transform="matrix(0.1,0,0,-0.1,0,185)"/>
<path style="fill:none;stroke-width:10;stroke-linecap:round;stroke-linejoin:round;stroke:rgb(94.139099%,94.139099%,94.139099%);stroke-opacity:1;stroke-miterlimit:10;" d="M -188.554688 195.585938 L 2545.625 195.585938 " transform="matrix(0.1,0,0,-0.1,0,185)"/>
<path style="fill:none;stroke-width:10;stroke-linecap:round;stroke-linejoin:round;stroke:rgb(94.139099%,94.139099%,94.139099%);stroke-opacity:1;stroke-miterlimit:10;" d="M -188.554688 138.90625 L 2545.625 138.90625 " transform="matrix(0.1,0,0,-0.1,0,185)"/>
<path style="fill:none;stroke-width:10;stroke-linecap:round;stroke-linejoin:round;stroke:rgb(94.139099%,94.139099%,94.139099%);stroke-opacity:1;stroke-miterlimit:10;" d="M -188.554688 25.507812 L 2545.625 25.507812 " transform="matrix(0.1,0,0,-0.1,0,185)"/>
<path style="fill:none;stroke-width:10;stroke-linecap:butt;stroke-linejoin:miter;stroke:rgb(0%,0%,0%);stroke-opacity:1;stroke-miterlimit:10;" d="M 925.46875 1873.554688 L 925.46875 -327.929688 " transform="matrix(0.1,0,0,-0.1,0,185)"/>
<path style="fill:none;stroke-width:10;stroke-linecap:butt;stroke-linejoin:miter;stroke:rgb(0%,0%,0%);stroke-opacity:1;stroke-miterlimit:10;" d="M -188.554688 649.140625 L 2536.210938 649.140625 " transform="matrix(0.1,0,0,-0.1,0,185)"/>
<path style=" stroke:none;fill-rule:nonzero;fill:rgb(0%,0%,0%);fill-opacity:1;" d="M 5.003906 125.78125 L 5.003906 125.40625 L 7.253906 125.40625 L 7.253906 125.78125 Z M 8.117188 127.25 L 8.117188 126.742188 C 8.507812 126.898438 8.816406 126.976562 9.039062 126.976562 C 9.300781 126.976562 9.511719 126.898438 9.675781 126.746094 C 9.835938 126.59375 9.917969 126.398438 9.917969 126.15625 C 9.917969 125.582031 9.515625 125.296875 8.710938 125.296875 L 8.496094 125.296875 L 8.496094 124.929688 L 8.6875 124.925781 C 9.441406 124.925781 9.820312 124.660156 9.820312 124.128906 C 9.820312 123.710938 9.570312 123.5 9.074219 123.5 C 8.800781 123.5 8.5 123.578125 8.171875 123.730469 L 8.171875 123.253906 C 8.496094 123.144531 8.808594 123.089844 9.113281 123.089844 C 9.949219 123.089844 10.367188 123.40625 10.367188 124.039062 C 10.367188 124.519531 10.082031 124.863281 9.511719 125.066406 C 10.171875 125.21875 10.5 125.582031 10.5 126.148438 C 10.5 126.535156 10.375 126.835938 10.121094 127.054688 C 9.867188 127.273438 9.515625 127.382812 9.074219 127.382812 C 8.820312 127.382812 8.5 127.339844 8.117188 127.25 "/>
<path style=" stroke:none;fill-rule:nonzero;fill:rgb(0%,0%,0%);fill-opacity:1;" d="M 33.761719 125.78125 L 33.761719 125.40625 L 36.007812 125.40625 L 36.007812 125.78125 Z M 36.769531 127.28125 L 36.769531 126.804688 C 36.925781 126.433594 37.246094 126.03125 37.730469 125.59375 L 38.042969 125.316406 C 38.445312 124.953125 38.644531 124.59375 38.644531 124.234375 C 38.644531 124.007812 38.574219 123.828125 38.4375 123.695312 C 38.300781 123.566406 38.113281 123.5 37.875 123.5 C 37.589844 123.5 37.253906 123.609375 36.871094 123.828125 L 36.871094 123.347656 C 37.234375 123.175781 37.59375 123.089844 37.949219 123.089844 C 38.332031 123.089844 38.640625 123.195312 38.875 123.402344 C 39.105469 123.605469 39.222656 123.878906 39.222656 124.222656 C 39.222656 124.464844 39.164062 124.683594 39.046875 124.871094 C 38.929688 125.0625 38.710938 125.292969 38.394531 125.5625 L 38.183594 125.742188 C 37.746094 126.113281 37.492188 126.46875 37.425781 126.804688 L 39.203125 126.804688 L 39.203125 127.28125 "/>
<path style=" stroke:none;fill-rule:nonzero;fill:rgb(0%,0%,0%);fill-opacity:1;" d="M 62.046875 125.78125 L 62.046875 125.40625 L 64.292969 125.40625 L 64.292969 125.78125 Z M 65.433594 127.28125 L 65.433594 126.871094 L 66.253906 126.871094 L 66.253906 123.648438 L 65.433594 123.851562 L 65.433594 123.429688 L 66.796875 123.089844 L 66.796875 126.871094 L 67.617188 126.871094 L 67.617188 127.28125 "/>
<path style=" stroke:none;fill-rule:nonzero;fill:rgb(0%,0%,0%);fill-opacity:1;" d="M 120.589844 127.28125 L 120.589844 126.871094 L 121.40625 126.871094 L 121.40625 123.648438 L 120.589844 123.851562 L 120.589844 123.429688 L 121.953125 123.089844 L 121.953125 126.871094 L 122.773438 126.871094 L 122.773438 127.28125 "/>
<path style=" stroke:none;fill-rule:nonzero;fill:rgb(0%,0%,0%);fill-opacity:1;" d="M 148.492188 127.28125 L 148.492188 126.804688 C 148.652344 126.433594 148.972656 126.03125 149.453125 125.59375 L 149.765625 125.316406 C 150.167969 124.953125 150.367188 124.59375 150.367188 124.234375 C 150.367188 124.007812 150.300781 123.828125 150.164062 123.695312 C 150.027344 123.566406 149.839844 123.5 149.597656 123.5 C 149.316406 123.5 148.980469 123.609375 148.597656 123.828125 L 148.597656 123.347656 C 148.960938 123.175781 149.316406 123.089844 149.675781 123.089844 C 150.058594 123.089844 150.367188 123.195312 150.597656 123.402344 C 150.828125 123.605469 150.945312 123.878906 150.945312 124.222656 C 150.945312 124.464844 150.886719 124.683594 150.769531 124.871094 C 150.652344 125.0625 150.4375 125.292969 150.117188 125.5625 L 149.90625 125.742188 C 149.472656 126.113281 149.21875 126.46875 149.152344 126.804688 L 150.925781 126.804688 L 150.925781 127.28125 "/>
<path style=" stroke:none;fill-rule:nonzero;fill:rgb(0%,0%,0%);fill-opacity:1;" d="M 176.882812 127.25 L 176.882812 126.742188 C 177.273438 126.898438 177.582031 126.976562 177.804688 126.976562 C 178.066406 126.976562 178.277344 126.898438 178.441406 126.746094 C 178.601562 126.59375 178.683594 126.398438 178.683594 126.15625 C 178.683594 125.582031 178.28125 125.296875 177.476562 125.296875 L 177.261719 125.296875 L 177.261719 124.929688 L 177.453125 124.925781 C 178.207031 124.925781 178.585938 124.660156 178.585938 124.128906 C 178.585938 123.710938 178.335938 123.5 177.839844 123.5 C 177.566406 123.5 177.265625 123.578125 176.9375 123.730469 L 176.9375 123.253906 C 177.261719 123.144531 177.574219 123.089844 177.878906 123.089844 C 178.714844 123.089844 179.132812 123.40625 179.132812 124.039062 C 179.132812 124.519531 178.847656 124.863281 178.277344 125.066406 C 178.9375 125.21875 179.265625 125.582031 179.265625 126.148438 C 179.265625 126.535156 179.140625 126.835938 178.886719 127.054688 C 178.632812 127.273438 178.28125 127.382812 177.839844 127.382812 C 177.585938 127.382812 177.269531 127.339844 176.882812 127.25 "/>
<path style=" stroke:none;fill-rule:nonzero;fill:rgb(0%,0%,0%);fill-opacity:1;" d="M 82.789062 177.636719 L 82.789062 177.261719 L 85.035156 177.261719 L 85.035156 177.636719 Z M 85.796875 179.136719 L 85.796875 178.660156 C 85.953125 178.289062 86.273438 177.886719 86.757812 177.449219 L 87.070312 177.171875 C 87.46875 176.808594 87.671875 176.449219 87.671875 176.089844 C 87.671875 175.863281 87.601562 175.683594 87.464844 175.550781 C 87.328125 175.421875 87.140625 175.355469 86.902344 175.355469 C 86.617188 175.355469 86.28125 175.464844 85.898438 175.683594 L 85.898438 175.203125 C 86.261719 175.03125 86.621094 174.949219 86.976562 174.949219 C 87.359375 174.949219 87.667969 175.050781 87.902344 175.257812 C 88.132812 175.460938 88.25 175.738281 88.25 176.078125 C 88.25 176.320312 88.191406 176.539062 88.074219 176.730469 C 87.957031 176.917969 87.738281 177.148438 87.417969 177.417969 L 87.210938 177.597656 C 86.773438 177.96875 86.519531 178.324219 86.453125 178.660156 L 88.230469 178.660156 L 88.230469 179.136719 "/>
<path style=" stroke:none;fill-rule:nonzero;fill:rgb(0%,0%,0%);fill-opacity:1;" d="M 82.789062 148.882812 L 82.789062 148.503906 L 85.035156 148.503906 L 85.035156 148.882812 Z M 86.175781 150.382812 L 86.175781 149.972656 L 86.992188 149.972656 L 86.992188 146.746094 L 86.175781 146.949219 L 86.175781 146.53125 L 87.542969 146.191406 L 87.542969 149.972656 L 88.359375 149.972656 L 88.359375 150.382812 "/>
<path style=" stroke:none;fill-rule:nonzero;fill:rgb(0%,0%,0%);fill-opacity:1;" d="M 86.175781 93.8125 L 86.175781 93.402344 L 86.992188 93.402344 L 86.992188 90.175781 L 86.175781 90.382812 L 86.175781 89.960938 L 87.542969 89.621094 L 87.542969 93.402344 L 88.359375 93.402344 L 88.359375 93.8125 "/>
<path style=" stroke:none;fill-rule:nonzero;fill:rgb(0%,0%,0%);fill-opacity:1;" d="M 85.796875 65.527344 L 85.796875 65.050781 C 85.953125 64.679688 86.273438 64.273438 86.757812 63.839844 L 87.070312 63.558594 C 87.46875 63.195312 87.671875 62.835938 87.671875 62.480469 C 87.671875 62.253906 87.601562 62.070312 87.464844 61.941406 C 87.328125 61.8125 87.140625 61.746094 86.902344 61.746094 C 86.617188 61.746094 86.28125 61.855469 85.898438 62.074219 L 85.898438 61.59375 C 86.261719 61.421875 86.621094 61.335938 86.976562 61.335938 C 87.359375 61.335938 87.667969 61.4375 87.902344 61.644531 C 88.132812 61.851562 88.25 62.125 88.25 62.464844 C 88.25 62.710938 88.191406 62.929688 88.074219 63.117188 C 87.957031 63.308594 87.738281 63.539062 87.417969 63.808594 L 87.210938 63.988281 C 86.773438 64.359375 86.519531 64.710938 86.453125 65.050781 L 88.230469 65.050781 L 88.230469 65.527344 "/>
<path style=" stroke:none;fill-rule:nonzero;fill:rgb(0%,0%,0%);fill-opacity:1;" d="M 85.902344 37.210938 L 85.902344 36.703125 C 86.289062 36.859375 86.597656 36.933594 86.824219 36.933594 C 87.082031 36.933594 87.292969 36.859375 87.457031 36.707031 C 87.621094 36.554688 87.703125 36.359375 87.703125 36.117188 C 87.703125 35.542969 87.300781 35.257812 86.496094 35.257812 L 86.277344 35.257812 L 86.277344 34.886719 L 86.46875 34.886719 C 87.222656 34.886719 87.601562 34.621094 87.601562 34.085938 C 87.601562 33.667969 87.351562 33.460938 86.855469 33.460938 C 86.582031 33.460938 86.285156 33.535156 85.957031 33.6875 L 85.957031 33.214844 C 86.277344 33.105469 86.589844 33.050781 86.894531 33.050781 C 87.730469 33.050781 88.148438 33.367188 88.148438 34 C 88.148438 34.480469 87.863281 34.820312 87.296875 35.027344 C 87.953125 35.179688 88.285156 35.539062 88.285156 36.109375 C 88.285156 36.492188 88.15625 36.796875 87.902344 37.015625 C 87.648438 37.234375 87.300781 37.34375 86.855469 37.34375 C 86.605469 37.34375 86.285156 37.300781 85.902344 37.210938 "/>
<path style=" stroke:none;fill-rule:nonzero;fill:rgb(0%,0%,0%);fill-opacity:1;" d="M 87.457031 8.957031 L 87.457031 7.800781 L 85.617188 7.800781 L 85.617188 7.386719 L 87.457031 4.867188 L 87.964844 4.867188 L 87.964844 7.355469 L 88.515625 7.355469 L 88.515625 7.800781 L 87.964844 7.800781 L 87.964844 8.957031 Z M 86.148438 7.355469 L 87.492188 7.355469 L 87.492188 5.535156 "/>
<path style=" stroke:none;fill-rule:nonzero;fill:rgb(0%,0%,0%);fill-opacity:1;" d="M 87.097656 127.382812 C 86.675781 127.382812 86.335938 127.183594 86.074219 126.789062 C 85.816406 126.390625 85.683594 125.875 85.683594 125.234375 C 85.683594 124.589844 85.816406 124.074219 86.078125 123.679688 C 86.339844 123.289062 86.6875 123.089844 87.117188 123.089844 C 87.542969 123.089844 87.890625 123.289062 88.152344 123.679688 C 88.414062 124.074219 88.546875 124.589844 88.546875 125.226562 C 88.546875 125.882812 88.414062 126.40625 88.152344 126.796875 C 87.890625 127.1875 87.539062 127.382812 87.097656 127.382812 Z M 87.105469 126.976562 C 87.679688 126.976562 87.96875 126.390625 87.96875 125.21875 C 87.96875 124.074219 87.683594 123.5 87.117188 123.5 C 86.546875 123.5 86.265625 124.078125 86.265625 125.234375 C 86.265625 126.394531 86.542969 126.976562 87.105469 126.976562 "/>
<path style="fill-rule:nonzero;fill:rgb(90.234375%,90.234375%,98.046875%);fill-opacity:1;stroke-width:10;stroke-linecap:round;stroke-linejoin:round;stroke:rgb(0%,0%,80.076599%);stroke-opacity:1;stroke-miterlimit:10;" d="M 641.992188 649.140625 L 641.992188 1216.054688 L 646.40625 1198.476562 L 650.859375 1181.171875 L 655.273438 1164.140625 L 659.726562 1147.382812 L 664.140625 1130.9375 L 668.554688 1114.726562 L 673.007812 1098.828125 L 677.421875 1083.164062 L 681.835938 1067.8125 L 686.289062 1052.734375 L 690.703125 1037.929688 L 695.15625 1023.398438 L 699.570312 1009.140625 L 703.984375 995.15625 L 708.4375 981.445312 L 712.851562 968.007812 L 717.304688 954.882812 L 721.71875 941.992188 L 726.132812 929.414062 L 730.585938 917.109375 L 735 905.039062 L 739.453125 893.28125 L 743.867188 881.796875 L 748.28125 870.585938 L 752.734375 859.648438 L 757.148438 848.984375 L 761.5625 838.59375 L 766.015625 828.515625 L 770.429688 818.671875 L 774.882812 809.140625 L 779.296875 799.84375 L 783.710938 790.859375 L 788.164062 782.148438 L 792.578125 773.710938 L 797.03125 765.546875 L 801.445312 757.65625 L 805.859375 750.039062 L 810.3125 742.695312 L 814.726562 735.625 L 819.140625 728.867188 L 823.59375 722.34375 L 828.007812 716.132812 L 832.460938 710.15625 L 836.875 704.492188 L 841.289062 699.101562 L 845.742188 693.984375 L 850.15625 689.140625 L 854.609375 684.570312 L 859.023438 680.273438 L 863.4375 676.25 L 867.890625 672.539062 L 872.304688 669.0625 L 876.71875 665.859375 L 881.171875 662.96875 L 885.585938 660.351562 L 890.039062 657.96875 L 894.453125 655.898438 L 898.867188 654.101562 L 903.320312 652.578125 L 907.734375 651.328125 L 912.1875 650.351562 L 916.601562 649.6875 L 921.015625 649.257812 L 925.46875 649.140625 L 929.882812 649.257812 L 934.296875 649.6875 L 938.75 650.351562 L 943.164062 651.328125 L 947.617188 652.578125 L 952.03125 654.101562 L 956.445312 655.898438 L 960.898438 657.96875 L 965.3125 660.351562 L 969.765625 662.96875 L 974.179688 665.859375 L 978.59375 669.0625 L 983.046875 672.539062 L 987.460938 676.25 L 991.914062 680.273438 L 996.328125 684.570312 L 1000.742188 689.140625 L 1005.195312 693.984375 L 1009.609375 699.101562 L 1014.023438 704.492188 L 1018.476562 710.15625 L 1022.890625 716.132812 L 1027.34375 722.34375 L 1031.757812 728.867188 L 1036.171875 735.625 L 1040.625 742.695312 L 1045.039062 750.039062 L 1049.453125 757.65625 L 1053.90625 765.546875 L 1058.320312 773.710938 L 1062.773438 782.148438 L 1067.1875 790.859375 L 1071.601562 799.84375 L 1076.054688 809.140625 L 1080.46875 818.671875 L 1084.921875 828.515625 L 1089.335938 838.59375 L 1093.789062 848.984375 L 1098.203125 859.648438 L 1102.617188 870.585938 L 1107.03125 881.796875 L 1111.484375 893.28125 L 1115.898438 905.039062 L 1120.351562 917.109375 L 1124.765625 929.414062 L 1129.21875 941.992188 L 1133.632812 954.882812 L 1138.046875 968.007812 L 1142.460938 981.445312 L 1146.914062 995.15625 L 1151.328125 1009.140625 L 1155.78125 1023.398438 L 1160.195312 1037.929688 L 1164.648438 1052.734375 L 1169.0625 1067.8125 L 1173.476562 1083.164062 L 1177.929688 1098.828125 L 1182.34375 1114.726562 L 1186.796875 1130.9375 L 1191.210938 1147.382812 L 1195.625 1164.140625 L 1200.078125 1181.171875 L 1204.492188 1198.476562 L 1208.90625 1216.054688 L 1208.90625 649.140625 L 641.992188 649.140625 " transform="matrix(0.1,0,0,-0.1,0,185)"/>
<path style="fill:none;stroke-width:25;stroke-linecap:round;stroke-linejoin:round;stroke:rgb(30.200195%,30.200195%,100%);stroke-opacity:1;stroke-miterlimit:10;" d="M 500.3125 1924.335938 L 505.664062 1892.5 L 511.015625 1861.054688 L 516.367188 1830.039062 L 521.679688 1799.414062 L 527.03125 1769.179688 L 532.382812 1739.375 L 537.695312 1709.921875 L 543.046875 1680.9375 L 548.398438 1652.304688 L 553.710938 1624.101562 L 559.0625 1596.289062 L 564.414062 1568.867188 L 569.765625 1541.875 L 575.078125 1515.273438 L 580.429688 1489.0625 L 585.78125 1463.242188 L 591.09375 1437.851562 L 596.445312 1412.851562 L 601.796875 1388.28125 L 607.148438 1364.101562 L 612.460938 1340.3125 L 623.164062 1293.945312 L 633.828125 1249.179688 L 644.53125 1206.015625 L 655.195312 1164.492188 L 665.859375 1124.570312 L 676.5625 1086.25 L 687.226562 1049.53125 L 697.929688 1014.453125 L 708.59375 980.9375 L 719.257812 949.0625 L 729.960938 918.789062 L 740.625 890.15625 L 751.328125 863.085938 L 761.992188 837.65625 L 772.695312 813.828125 L 794.023438 770.976562 L 815.390625 734.609375 L 836.757812 704.648438 L 858.125 681.132812 L 879.492188 664.023438 L 890.15625 657.929688 L 900.859375 653.398438 L 911.523438 650.507812 L 922.1875 649.21875 L 932.890625 649.53125 L 943.554688 651.445312 L 954.257812 654.960938 L 964.921875 660.117188 L 986.289062 675.234375 L 1007.65625 696.796875 L 1029.023438 724.765625 L 1050.351562 759.21875 L 1071.71875 800.078125 L 1082.421875 822.929688 L 1093.085938 847.382812 L 1103.789062 873.476562 L 1114.453125 901.132812 L 1125.117188 930.429688 L 1135.820312 961.328125 L 1146.484375 993.828125 L 1157.1875 1027.96875 L 1167.851562 1063.671875 L 1178.554688 1101.015625 L 1189.21875 1139.960938 L 1199.882812 1180.546875 L 1210.585938 1222.695312 L 1221.25 1266.484375 L 1231.953125 1311.875 L 1242.617188 1358.867188 L 1247.96875 1382.96875 L 1253.28125 1407.460938 L 1258.632812 1432.34375 L 1263.984375 1457.65625 L 1269.335938 1483.398438 L 1274.648438 1509.492188 L 1280 1536.015625 L 1285.351562 1562.929688 L 1290.664062 1590.234375 L 1296.015625 1617.96875 L 1301.367188 1646.09375 L 1306.71875 1674.648438 L 1312.03125 1703.554688 L 1317.382812 1732.890625 L 1322.734375 1762.617188 L 1328.046875 1792.773438 L 1333.398438 1823.28125 L 1338.75 1854.257812 L 1344.0625 1885.585938 L 1349.414062 1917.34375 " transform="matrix(0.1,0,0,-0.1,0,185)"/>
<path style=" stroke:none;fill-rule:nonzero;fill:rgb(0%,0%,100%);fill-opacity:1;" d="M 65.011719 25.59375 L 64.03125 29.511719 C 63.9375 29.886719 63.703125 30.210938 63.332031 30.492188 C 62.957031 30.679688 62.539062 30.773438 62.070312 30.773438 C 61.417969 30.773438 61.046875 30.632812 60.953125 30.351562 C 60.953125 30.351562 60.953125 30.304688 60.953125 30.210938 C 60.953125 30.023438 61.046875 29.886719 61.230469 29.792969 C 61.324219 29.792969 61.371094 29.792969 61.371094 29.792969 C 61.558594 29.792969 61.699219 29.839844 61.792969 29.933594 C 61.792969 29.933594 61.792969 29.980469 61.792969 30.070312 C 61.792969 30.257812 61.699219 30.398438 61.511719 30.492188 C 61.511719 30.492188 61.464844 30.492188 61.371094 30.492188 C 61.558594 30.585938 61.792969 30.632812 62.070312 30.632812 C 62.726562 30.632812 63.191406 30.304688 63.472656 29.652344 L 63.75 28.394531 C 63.472656 28.671875 63.144531 28.859375 62.773438 28.953125 C 62.773438 28.953125 62.726562 28.953125 62.632812 28.953125 C 62.257812 28.953125 61.933594 28.765625 61.652344 28.394531 C 61.558594 28.113281 61.511719 27.832031 61.511719 27.554688 C 61.511719 26.898438 61.746094 26.292969 62.210938 25.734375 C 62.585938 25.265625 63.003906 25.035156 63.472656 25.035156 L 63.609375 25.035156 C 63.890625 25.035156 64.125 25.175781 64.3125 25.453125 L 64.453125 25.59375 C 64.453125 25.3125 64.542969 25.175781 64.730469 25.175781 C 64.917969 25.175781 65.011719 25.265625 65.011719 25.453125 Z M 63.890625 27.832031 L 64.3125 26.152344 C 64.3125 26.058594 64.3125 26.011719 64.3125 26.011719 C 64.3125 25.828125 64.265625 25.6875 64.171875 25.59375 C 64.078125 25.40625 63.984375 25.3125 63.890625 25.3125 C 63.796875 25.21875 63.703125 25.175781 63.609375 25.175781 C 63.332031 25.175781 63.050781 25.359375 62.773438 25.734375 C 62.679688 25.828125 62.632812 25.921875 62.632812 26.011719 C 62.445312 26.386719 62.304688 26.898438 62.210938 27.554688 C 62.117188 27.644531 62.070312 27.785156 62.070312 27.972656 C 62.070312 28.347656 62.210938 28.578125 62.492188 28.671875 C 62.492188 28.765625 62.539062 28.8125 62.632812 28.8125 C 62.910156 28.8125 63.191406 28.671875 63.472656 28.394531 C 63.65625 28.207031 63.796875 28.019531 63.890625 27.832031 "/>
<path style=" stroke:none;fill-rule:nonzero;fill:rgb(0%,0%,100%);fill-opacity:1;" d="M 68.34375 31.050781 C 68.34375 31.144531 68.34375 31.191406 68.34375 31.191406 C 68.25 31.191406 68.066406 31.050781 67.785156 30.773438 C 67.410156 30.398438 67.132812 29.980469 66.945312 29.511719 C 66.480469 28.671875 66.246094 27.738281 66.246094 26.714844 C 66.246094 25.6875 66.433594 24.753906 66.804688 23.914062 C 67.179688 23.261719 67.597656 22.746094 68.066406 22.375 C 68.15625 22.28125 68.25 22.234375 68.34375 22.234375 C 68.34375 22.234375 68.34375 22.28125 68.34375 22.375 C 68.34375 22.375 68.296875 22.421875 68.207031 22.515625 C 67.273438 23.449219 66.804688 24.847656 66.804688 26.714844 C 66.804688 28.578125 67.273438 29.980469 68.207031 30.910156 C 68.296875 31.003906 68.34375 31.050781 68.34375 31.050781 "/>
<path style=" stroke:none;fill-rule:nonzero;fill:rgb(0%,0%,100%);fill-opacity:1;" d="M 71.828125 26.292969 L 71.546875 27.414062 C 71.457031 27.878906 71.40625 28.160156 71.40625 28.253906 C 71.40625 28.53125 71.5 28.71875 71.6875 28.8125 C 71.78125 28.8125 71.875 28.8125 71.96875 28.8125 C 72.246094 28.8125 72.480469 28.671875 72.667969 28.394531 C 72.855469 28.207031 72.996094 27.972656 73.085938 27.691406 C 73.085938 27.601562 73.132812 27.554688 73.226562 27.554688 C 73.320312 27.554688 73.367188 27.601562 73.367188 27.691406 C 73.367188 27.785156 73.273438 27.972656 73.085938 28.253906 C 72.714844 28.8125 72.339844 29.09375 71.96875 29.09375 C 71.5 29.09375 71.175781 28.90625 70.988281 28.53125 C 70.988281 28.4375 70.988281 28.394531 70.988281 28.394531 C 70.800781 28.671875 70.570312 28.859375 70.289062 28.953125 C 70.195312 29.046875 70.101562 29.09375 70.007812 29.09375 C 69.636719 29.09375 69.355469 28.953125 69.167969 28.671875 C 69.167969 28.671875 69.167969 28.578125 69.167969 28.394531 C 69.167969 28.207031 69.261719 28.066406 69.449219 27.972656 C 69.542969 27.972656 69.589844 27.972656 69.589844 27.972656 C 69.777344 27.972656 69.914062 28.019531 70.007812 28.113281 C 70.007812 28.207031 70.007812 28.253906 70.007812 28.253906 C 70.007812 28.4375 69.914062 28.578125 69.730469 28.671875 C 69.636719 28.671875 69.589844 28.671875 69.589844 28.671875 C 69.683594 28.765625 69.824219 28.8125 70.007812 28.8125 C 70.289062 28.8125 70.523438 28.625 70.707031 28.253906 C 70.800781 28.160156 70.847656 28.066406 70.847656 27.972656 C 71.128906 26.761719 71.269531 26.011719 71.269531 25.734375 C 71.269531 25.359375 71.128906 25.175781 70.847656 25.175781 C 70.570312 25.175781 70.289062 25.359375 70.007812 25.734375 C 69.914062 25.828125 69.824219 25.96875 69.730469 26.152344 C 69.730469 26.152344 69.730469 26.199219 69.730469 26.292969 L 69.589844 26.433594 C 69.496094 26.433594 69.449219 26.433594 69.449219 26.433594 C 69.449219 26.246094 69.542969 26.011719 69.730469 25.734375 C 70.007812 25.265625 70.382812 25.035156 70.847656 25.035156 C 71.316406 25.035156 71.640625 25.265625 71.828125 25.734375 C 72.015625 25.359375 72.246094 25.128906 72.527344 25.035156 C 72.621094 25.035156 72.714844 25.035156 72.808594 25.035156 C 73.179688 25.035156 73.414062 25.128906 73.507812 25.3125 C 73.601562 25.40625 73.648438 25.5 73.648438 25.59375 C 73.648438 25.871094 73.507812 26.011719 73.226562 26.011719 C 73.226562 26.105469 73.179688 26.152344 73.085938 26.152344 C 72.902344 26.152344 72.808594 26.058594 72.808594 25.871094 C 72.808594 25.871094 72.808594 25.828125 72.808594 25.734375 C 72.808594 25.546875 72.902344 25.40625 73.085938 25.3125 C 73.085938 25.3125 73.132812 25.3125 73.226562 25.3125 C 73.132812 25.21875 72.996094 25.175781 72.808594 25.175781 C 72.339844 25.175781 72.0625 25.5 71.96875 26.152344 C 71.875 26.152344 71.828125 26.199219 71.828125 26.292969 "/>
<path style=" stroke:none;fill-rule:nonzero;fill:rgb(0%,0%,100%);fill-opacity:1;" d="M 76.527344 26.714844 C 76.527344 27.738281 76.339844 28.671875 75.96875 29.511719 C 75.6875 30.164062 75.316406 30.679688 74.847656 31.050781 C 74.753906 31.144531 74.660156 31.191406 74.566406 31.191406 C 74.566406 31.191406 74.566406 31.144531 74.566406 31.050781 C 74.566406 31.050781 74.566406 31.003906 74.566406 30.910156 C 75.59375 29.980469 76.105469 28.578125 76.105469 26.714844 C 76.105469 24.847656 75.640625 23.449219 74.707031 22.515625 C 74.613281 22.421875 74.566406 22.375 74.566406 22.375 C 74.566406 22.28125 74.566406 22.234375 74.566406 22.234375 C 74.660156 22.234375 74.847656 22.375 75.128906 22.65625 C 75.5 23.027344 75.78125 23.449219 75.96875 23.914062 C 76.339844 24.753906 76.527344 25.6875 76.527344 26.714844 "/>
<path style=" stroke:none;fill-rule:nonzero;fill:rgb(0%,0%,100%);fill-opacity:1;" d="M 86.136719 26.011719 L 80.820312 26.011719 C 80.632812 26.011719 80.539062 25.96875 80.539062 25.871094 C 80.539062 25.78125 80.632812 25.734375 80.820312 25.734375 L 86.136719 25.734375 C 86.324219 25.734375 86.417969 25.78125 86.417969 25.871094 C 86.417969 25.96875 86.324219 26.011719 86.136719 26.011719 Z M 86.136719 27.691406 L 80.820312 27.691406 C 80.632812 27.691406 80.539062 27.644531 80.539062 27.554688 C 80.539062 27.460938 80.632812 27.414062 80.820312 27.414062 L 86.136719 27.414062 C 86.324219 27.414062 86.417969 27.460938 86.417969 27.554688 C 86.417969 27.644531 86.324219 27.691406 86.136719 27.691406 "/>
<path style=" stroke:none;fill-rule:nonzero;fill:rgb(0%,0%,100%);fill-opacity:1;" d="M 93.492188 27.414062 L 93.214844 28.953125 L 89.855469 28.953125 C 89.855469 28.765625 89.902344 28.671875 89.992188 28.671875 L 91.671875 26.714844 C 92.328125 25.96875 92.652344 25.3125 92.652344 24.753906 C 92.652344 24.195312 92.464844 23.773438 92.09375 23.492188 C 91.90625 23.308594 91.671875 23.214844 91.394531 23.214844 C 91.019531 23.214844 90.695312 23.402344 90.414062 23.773438 C 90.320312 23.867188 90.273438 24.007812 90.273438 24.195312 C 90.273438 24.195312 90.320312 24.195312 90.414062 24.195312 C 90.601562 24.195312 90.738281 24.285156 90.832031 24.472656 C 90.832031 24.566406 90.832031 24.613281 90.832031 24.613281 C 90.832031 24.894531 90.695312 25.035156 90.414062 25.035156 C 90.414062 25.128906 90.414062 25.175781 90.414062 25.175781 C 90.132812 25.175781 89.949219 25.078125 89.855469 24.894531 C 89.855469 24.800781 89.855469 24.707031 89.855469 24.613281 C 89.855469 24.148438 90.039062 23.773438 90.414062 23.492188 C 90.695312 23.121094 91.066406 22.933594 91.53125 22.933594 C 92.1875 22.933594 92.699219 23.167969 93.074219 23.632812 C 93.257812 23.914062 93.398438 24.242188 93.492188 24.613281 C 93.492188 24.613281 93.492188 24.660156 93.492188 24.753906 C 93.492188 25.128906 93.304688 25.546875 92.933594 26.011719 C 92.746094 26.199219 92.464844 26.433594 92.09375 26.714844 L 91.671875 27.273438 L 91.53125 27.273438 L 90.554688 28.253906 L 92.234375 28.253906 C 92.699219 28.253906 92.980469 28.253906 93.074219 28.253906 C 93.074219 28.160156 93.121094 27.878906 93.214844 27.414062 L 93.492188 27.414062 "/>
<path style=" stroke:none;fill-rule:nonzero;fill:rgb(0%,0%,100%);fill-opacity:1;" d="M 96.851562 26.292969 L 96.570312 27.414062 C 96.476562 27.878906 96.429688 28.160156 96.429688 28.253906 C 96.429688 28.53125 96.523438 28.71875 96.710938 28.8125 C 96.804688 28.8125 96.898438 28.8125 96.992188 28.8125 C 97.273438 28.8125 97.503906 28.671875 97.691406 28.394531 C 97.878906 28.207031 98.019531 27.972656 98.109375 27.691406 C 98.109375 27.601562 98.15625 27.554688 98.25 27.554688 C 98.34375 27.554688 98.390625 27.601562 98.390625 27.691406 C 98.390625 27.785156 98.296875 27.972656 98.109375 28.253906 C 97.738281 28.8125 97.363281 29.09375 96.992188 29.09375 C 96.523438 29.09375 96.199219 28.90625 96.011719 28.53125 C 96.011719 28.4375 96.011719 28.394531 96.011719 28.394531 C 95.824219 28.671875 95.59375 28.859375 95.3125 28.953125 C 95.21875 29.046875 95.125 29.09375 95.03125 29.09375 C 94.660156 29.09375 94.378906 28.953125 94.191406 28.671875 C 94.191406 28.671875 94.191406 28.578125 94.191406 28.394531 C 94.191406 28.207031 94.285156 28.066406 94.472656 27.972656 C 94.566406 27.972656 94.613281 27.972656 94.613281 27.972656 C 94.796875 27.972656 94.9375 28.019531 95.03125 28.113281 C 95.03125 28.207031 95.03125 28.253906 95.03125 28.253906 C 95.03125 28.4375 94.9375 28.578125 94.753906 28.671875 C 94.660156 28.671875 94.613281 28.671875 94.613281 28.671875 C 94.707031 28.765625 94.84375 28.8125 95.03125 28.8125 C 95.3125 28.8125 95.546875 28.625 95.730469 28.253906 C 95.824219 28.160156 95.871094 28.066406 95.871094 27.972656 C 96.152344 26.761719 96.292969 26.011719 96.292969 25.734375 C 96.292969 25.359375 96.152344 25.175781 95.871094 25.175781 C 95.59375 25.175781 95.3125 25.359375 95.03125 25.734375 C 94.9375 25.828125 94.84375 25.96875 94.753906 26.152344 C 94.753906 26.152344 94.753906 26.199219 94.753906 26.292969 L 94.613281 26.433594 C 94.519531 26.433594 94.472656 26.433594 94.472656 26.433594 C 94.472656 26.246094 94.566406 26.011719 94.753906 25.734375 C 95.03125 25.265625 95.40625 25.035156 95.871094 25.035156 C 96.339844 25.035156 96.664062 25.265625 96.851562 25.734375 C 97.039062 25.359375 97.273438 25.128906 97.550781 25.035156 C 97.644531 25.035156 97.738281 25.035156 97.832031 25.035156 C 98.203125 25.035156 98.4375 25.128906 98.53125 25.3125 C 98.625 25.40625 98.671875 25.5 98.671875 25.59375 C 98.671875 25.871094 98.53125 26.011719 98.25 26.011719 C 98.25 26.105469 98.203125 26.152344 98.109375 26.152344 C 97.925781 26.152344 97.832031 26.058594 97.832031 25.871094 C 97.832031 25.871094 97.832031 25.828125 97.832031 25.734375 C 97.832031 25.546875 97.925781 25.40625 98.109375 25.3125 C 98.109375 25.3125 98.15625 25.3125 98.25 25.3125 C 98.15625 25.21875 98.019531 25.175781 97.832031 25.175781 C 97.363281 25.175781 97.085938 25.5 96.992188 26.152344 C 96.898438 26.152344 96.851562 26.199219 96.851562 26.292969 "/>
<path style=" stroke:none;fill-rule:nonzero;fill:rgb(0%,0%,100%);fill-opacity:1;" d="M 101.871094 24.175781 L 101.675781 25.253906 L 99.324219 25.253906 C 99.324219 25.121094 99.359375 25.058594 99.421875 25.058594 L 100.597656 23.6875 C 101.054688 23.164062 101.285156 22.707031 101.285156 22.316406 C 101.285156 21.921875 101.152344 21.628906 100.894531 21.433594 C 100.761719 21.304688 100.597656 21.238281 100.402344 21.238281 C 100.140625 21.238281 99.914062 21.367188 99.71875 21.628906 C 99.652344 21.695312 99.621094 21.792969 99.621094 21.921875 C 99.621094 21.921875 99.652344 21.921875 99.71875 21.921875 C 99.847656 21.921875 99.945312 21.988281 100.011719 22.117188 C 100.011719 22.183594 100.011719 22.21875 100.011719 22.21875 C 100.011719 22.414062 99.914062 22.511719 99.71875 22.511719 C 99.71875 22.578125 99.71875 22.609375 99.71875 22.609375 C 99.523438 22.609375 99.390625 22.542969 99.324219 22.414062 C 99.324219 22.347656 99.324219 22.28125 99.324219 22.21875 C 99.324219 21.890625 99.457031 21.628906 99.71875 21.433594 C 99.914062 21.171875 100.175781 21.042969 100.5 21.042969 C 100.957031 21.042969 101.316406 21.203125 101.578125 21.53125 C 101.710938 21.726562 101.808594 21.957031 101.871094 22.21875 C 101.871094 22.21875 101.871094 22.25 101.871094 22.316406 C 101.871094 22.578125 101.742188 22.871094 101.480469 23.195312 C 101.351562 23.328125 101.152344 23.492188 100.894531 23.6875 L 100.597656 24.078125 L 100.5 24.078125 L 99.816406 24.765625 L 100.992188 24.765625 C 101.316406 24.765625 101.511719 24.765625 101.578125 24.765625 C 101.578125 24.699219 101.609375 24.503906 101.675781 24.175781 L 101.871094 24.175781 "/>
<path style="fill:none;stroke-width:25;stroke-linecap:round;stroke-linejoin:round;stroke:rgb(30.200195%,30.200195%,30.200195%);stroke-opacity:1;stroke-miterlimit:10;" d="M 641.992188 649.140625 L 641.992188 1216.054688 " transform="matrix(0.1,0,0,-0.1,0,185)"/>
<path style="fill:none;stroke-width:25;stroke-linecap:round;stroke-linejoin:round;stroke:rgb(30.200195%,30.200195%,30.200195%);stroke-opacity:1;stroke-miterlimit:10;" d="M 1208.90625 649.140625 L 1208.90625 1216.054688 " transform="matrix(0.1,0,0,-0.1,0,185)"/>
</g>
</svg>
