<?xml version="1.0" encoding="UTF-8"?>
<svg xmlns="http://www.w3.org/2000/svg" xmlns:xlink="http://www.w3.org/1999/xlink" width="162pt" height="158pt" viewBox="0 0 162 158" version="1.1">
<g id="surface1">
<rect x="0" y="0" width="162" height="158" style="fill:rgb(100%,100%,100%);fill-opacity:1;stroke:none;"/>
<path style="fill:none;stroke-width:10;stroke-linecap:round;stroke-linejoin:round;stroke:rgb(75.389099%,75.389099%,75.389099%);stroke-opacity:1;stroke-miterlimit:10;" d="M 419.023438 1742.265625 L 419.023438 -27.539062 " transform="matrix(0.1,0,0,-0.1,0,158)"/>
<path style="fill:none;stroke-width:10;stroke-linecap:round;stroke-linejoin:round;stroke:rgb(75.389099%,75.389099%,75.389099%);stroke-opacity:1;stroke-miterlimit:10;" d="M 702.5 1742.265625 L 702.5 -27.539062 " transform="matrix(0.1,0,0,-0.1,0,158)"/>
<path style="fill:none;stroke-width:10;stroke-linecap:round;stroke-linejoin:round;stroke:rgb(75.389099%,75.389099%,75.389099%);stroke-opacity:1;stroke-miterlimit:10;" d="M 985.9375 1742.265625 L 985.9375 -27.539062 " transform="matrix(0.1,0,0,-0.1,0,158)"/>
<path style="fill:none;stroke-width:10;stroke-linecap:round;stroke-linejoin:round;stroke:rgb(75.389099%,75.389099%,75.389099%);stroke-opacity:1;stroke-miterlimit:10;" d="M 1269.414062 1742.265625 L 1269.414062 -27.539062 " transform="matrix(0.1,0,0,-0.1,0,158)"/>
<path style="fill:none;stroke-width:10;stroke-linecap:round;stroke-linejoin:round;stroke:rgb(75.389099%,75.389099%,75.389099%);stroke-opacity:1;stroke-miterlimit:10;" d="M 1552.890625 1742.265625 L 1552.890625 -27.539062 " transform="matrix(0.1,0,0,-0.1,0,158)"/>
<path style="fill:none;stroke-width:10;stroke-linecap:round;stroke-linejoin:round;stroke:rgb(94.139099%,94.139099%,94.139099%);stroke-opacity:1;stroke-miterlimit:10;" d="M 22.1875 1742.265625 L 22.1875 -27.539062 " transform="matrix(0.1,0,0,-0.1,0,158)"/>
<path style="fill:none;stroke-width:10;stroke-linecap:round;stroke-linejoin:round;stroke:rgb(94.139099%,94.139099%,94.139099%);stroke-opacity:1;stroke-miterlimit:10;" d="M 78.867188 1742.265625 L 78.867188 -27.539062 " transform="matrix(0.1,0,0,-0.1,0,158)"/>
<path style="fill:none;stroke-width:10;stroke-linecap:round;stroke-linejoin:round;stroke:rgb(94.139099%,94.139099%,94.139099%);stroke-opacity:1;stroke-miterlimit:10;" d="M 192.265625 1742.265625 L 192.265625 -27.539062 " transform="matrix(0.1,0,0,-0.1,0,158)"/>
<path style="fill:none;stroke-width:10;stroke-linecap:round;stroke-linejoin:round;stroke:rgb(94.139099%,94.139099%,94.139099%);stroke-opacity:1;stroke-miterlimit:10;" d="M 248.945312 1742.265625 L 248.945312 -27.539062 " transform="matrix(0.1,0,0,-0.1,0,158)"/>
<path style="fill:none;stroke-width:10;stroke-linecap:round;stroke-linejoin:round;stroke:rgb(94.139099%,94.139099%,94.139099%);stroke-opacity:1;stroke-miterlimit:10;" d="M 305.625 1742.265625 L 305.625 -27.539062 " transform="matrix(0.1,0,0,-0.1,0,158)"/>
<path style="fill:none;stroke-width:10;stroke-linecap:round;stroke-linejoin:round;stroke:rgb(94.139099%,94.139099%,94.139099%);stroke-opacity:1;stroke-miterlimit:10;" d="M 362.34375 1742.265625 L 362.34375 -27.539062 " transform="matrix(0.1,0,0,-0.1,0,158)"/>
<path style="fill:none;stroke-width:10;stroke-linecap:round;stroke-linejoin:round;stroke:rgb(94.139099%,94.139099%,94.139099%);stroke-opacity:1;stroke-miterlimit:10;" d="M 475.703125 1742.265625 L 475.703125 -27.539062 " transform="matrix(0.1,0,0,-0.1,0,158)"/>
<path style="fill:none;stroke-width:10;stroke-linecap:round;stroke-linejoin:round;stroke:rgb(94.139099%,94.139099%,94.139099%);stroke-opacity:1;stroke-miterlimit:10;" d="M 532.421875 1742.265625 L 532.421875 -27.539062 " transform="matrix(0.1,0,0,-0.1,0,158)"/>
<path style="fill:none;stroke-width:10;stroke-linecap:round;stroke-linejoin:round;stroke:rgb(94.139099%,94.139099%,94.139099%);stroke-opacity:1;stroke-miterlimit:10;" d="M 589.101562 1742.265625 L 589.101562 -27.539062 " transform="matrix(0.1,0,0,-0.1,0,158)"/>
<path style="fill:none;stroke-width:10;stroke-linecap:round;stroke-linejoin:round;stroke:rgb(94.139099%,94.139099%,94.139099%);stroke-opacity:1;stroke-miterlimit:10;" d="M 645.78125 1742.265625 L 645.78125 -27.539062 " transform="matrix(0.1,0,0,-0.1,0,158)"/>
<path style="fill:none;stroke-width:10;stroke-linecap:round;stroke-linejoin:round;stroke:rgb(94.139099%,94.139099%,94.139099%);stroke-opacity:1;stroke-miterlimit:10;" d="M 759.179688 1742.265625 L 759.179688 -27.539062 " transform="matrix(0.1,0,0,-0.1,0,158)"/>
<path style="fill:none;stroke-width:10;stroke-linecap:round;stroke-linejoin:round;stroke:rgb(94.139099%,94.139099%,94.139099%);stroke-opacity:1;stroke-miterlimit:10;" d="M 815.859375 1742.265625 L 815.859375 -27.539062 " transform="matrix(0.1,0,0,-0.1,0,158)"/>
<path style="fill:none;stroke-width:10;stroke-linecap:round;stroke-linejoin:round;stroke:rgb(94.139099%,94.139099%,94.139099%);stroke-opacity:1;stroke-miterlimit:10;" d="M 872.578125 1742.265625 L 872.578125 -27.539062 " transform="matrix(0.1,0,0,-0.1,0,158)"/>
<path style="fill:none;stroke-width:10;stroke-linecap:round;stroke-linejoin:round;stroke:rgb(94.139099%,94.139099%,94.139099%);stroke-opacity:1;stroke-miterlimit:10;" d="M 929.257812 1742.265625 L 929.257812 -27.539062 " transform="matrix(0.1,0,0,-0.1,0,158)"/>
<path style="fill:none;stroke-width:10;stroke-linecap:round;stroke-linejoin:round;stroke:rgb(94.139099%,94.139099%,94.139099%);stroke-opacity:1;stroke-miterlimit:10;" d="M 1042.65625 1742.265625 L 1042.65625 -27.539062 " transform="matrix(0.1,0,0,-0.1,0,158)"/>
<path style="fill:none;stroke-width:10;stroke-linecap:round;stroke-linejoin:round;stroke:rgb(94.139099%,94.139099%,94.139099%);stroke-opacity:1;stroke-miterlimit:10;" d="M 1099.335938 1742.265625 L 1099.335938 -27.539062 " transform="matrix(0.1,0,0,-0.1,0,158)"/>
<path style="fill:none;stroke-width:10;stroke-linecap:round;stroke-linejoin:round;stroke:rgb(94.139099%,94.139099%,94.139099%);stroke-opacity:1;stroke-miterlimit:10;" d="M 1156.054688 1742.265625 L 1156.054688 -27.539062 " transform="matrix(0.1,0,0,-0.1,0,158)"/>
<path style="fill:none;stroke-width:10;stroke-linecap:round;stroke-linejoin:round;stroke:rgb(94.139099%,94.139099%,94.139099%);stroke-opacity:1;stroke-miterlimit:10;" d="M 1212.734375 1742.265625 L 1212.734375 -27.539062 " transform="matrix(0.1,0,0,-0.1,0,158)"/>
<path style="fill:none;stroke-width:10;stroke-linecap:round;stroke-linejoin:round;stroke:rgb(94.139099%,94.139099%,94.139099%);stroke-opacity:1;stroke-miterlimit:10;" d="M 1326.09375 1742.265625 L 1326.09375 -27.539062 " transform="matrix(0.1,0,0,-0.1,0,158)"/>
<path style="fill:none;stroke-width:10;stroke-linecap:round;stroke-linejoin:round;stroke:rgb(94.139099%,94.139099%,94.139099%);stroke-opacity:1;stroke-miterlimit:10;" d="M 1382.8125 1742.265625 L 1382.8125 -27.539062 " transform="matrix(0.1,0,0,-0.1,0,158)"/>
<path style="fill:none;stroke-width:10;stroke-linecap:round;stroke-linejoin:round;stroke:rgb(94.139099%,94.139099%,94.139099%);stroke-opacity:1;stroke-miterlimit:10;" d="M 1439.492188 1742.265625 L 1439.492188 -27.539062 " transform="matrix(0.1,0,0,-0.1,0,158)"/>
<path style="fill:none;stroke-width:10;stroke-linecap:round;stroke-linejoin:round;stroke:rgb(94.139099%,94.139099%,94.139099%);stroke-opacity:1;stroke-miterlimit:10;" d="M 1496.171875 1742.265625 L 1496.171875 -27.539062 " transform="matrix(0.1,0,0,-0.1,0,158)"/>
<path style="fill:none;stroke-width:10;stroke-linecap:round;stroke-linejoin:round;stroke:rgb(94.139099%,94.139099%,94.139099%);stroke-opacity:1;stroke-miterlimit:10;" d="M 1609.570312 1742.265625 L 1609.570312 -27.539062 " transform="matrix(0.1,0,0,-0.1,0,158)"/>
<path style="fill:none;stroke-width:10;stroke-linecap:round;stroke-linejoin:round;stroke:rgb(75.389099%,75.389099%,75.389099%);stroke-opacity:1;stroke-miterlimit:10;" d="M -75.46875 1501.445312 L 2113.203125 1501.445312 " transform="matrix(0.1,0,0,-0.1,0,158)"/>
<path style="fill:none;stroke-width:10;stroke-linecap:round;stroke-linejoin:round;stroke:rgb(75.389099%,75.389099%,75.389099%);stroke-opacity:1;stroke-miterlimit:10;" d="M -75.46875 1501.445312 L 2113.203125 1501.445312 " transform="matrix(0.1,0,0,-0.1,0,158)"/>
<path style="fill:none;stroke-width:10;stroke-linecap:round;stroke-linejoin:round;stroke:rgb(75.389099%,75.389099%,75.389099%);stroke-opacity:1;stroke-miterlimit:10;" d="M -75.46875 1217.96875 L 2113.203125 1217.96875 " transform="matrix(0.1,0,0,-0.1,0,158)"/>
<path style="fill:none;stroke-width:10;stroke-linecap:round;stroke-linejoin:round;stroke:rgb(75.389099%,75.389099%,75.389099%);stroke-opacity:1;stroke-miterlimit:10;" d="M -75.46875 934.492188 L 2113.203125 934.492188 " transform="matrix(0.1,0,0,-0.1,0,158)"/>
<path style="fill:none;stroke-width:10;stroke-linecap:round;stroke-linejoin:round;stroke:rgb(75.389099%,75.389099%,75.389099%);stroke-opacity:1;stroke-miterlimit:10;" d="M -75.46875 367.578125 L 2113.203125 367.578125 " transform="matrix(0.1,0,0,-0.1,0,158)"/>
<path style="fill:none;stroke-width:10;stroke-linecap:round;stroke-linejoin:round;stroke:rgb(75.389099%,75.389099%,75.389099%);stroke-opacity:1;stroke-miterlimit:10;" d="M -75.46875 84.101562 L 2113.203125 84.101562 " transform="matrix(0.1,0,0,-0.1,0,158)"/>
<path style="fill:none;stroke-width:10;stroke-linecap:round;stroke-linejoin:round;stroke:rgb(94.139099%,94.139099%,94.139099%);stroke-opacity:1;stroke-miterlimit:10;" d="M -75.46875 1558.125 L 2113.203125 1558.125 " transform="matrix(0.1,0,0,-0.1,0,158)"/>
<path style="fill:none;stroke-width:10;stroke-linecap:round;stroke-linejoin:round;stroke:rgb(94.139099%,94.139099%,94.139099%);stroke-opacity:1;stroke-miterlimit:10;" d="M -75.46875 1444.726562 L 2113.203125 1444.726562 " transform="matrix(0.1,0,0,-0.1,0,158)"/>
<path style="fill:none;stroke-width:10;stroke-linecap:round;stroke-linejoin:round;stroke:rgb(94.139099%,94.139099%,94.139099%);stroke-opacity:1;stroke-miterlimit:10;" d="M -75.46875 1388.046875 L 2113.203125 1388.046875 " transform="matrix(0.1,0,0,-0.1,0,158)"/>
<path style="fill:none;stroke-width:10;stroke-linecap:round;stroke-linejoin:round;stroke:rgb(94.139099%,94.139099%,94.139099%);stroke-opacity:1;stroke-miterlimit:10;" d="M -75.46875 1331.367188 L 2113.203125 1331.367188 " transform="matrix(0.1,0,0,-0.1,0,158)"/>
<path style="fill:none;stroke-width:10;stroke-linecap:round;stroke-linejoin:round;stroke:rgb(94.139099%,94.139099%,94.139099%);stroke-opacity:1;stroke-miterlimit:10;" d="M -75.46875 1274.648438 L 2113.203125 1274.648438 " transform="matrix(0.1,0,0,-0.1,0,158)"/>
<path style="fill:none;stroke-width:10;stroke-linecap:round;stroke-linejoin:round;stroke:rgb(94.139099%,94.139099%,94.139099%);stroke-opacity:1;stroke-miterlimit:10;" d="M -75.46875 1161.289062 L 2113.203125 1161.289062 " transform="matrix(0.1,0,0,-0.1,0,158)"/>
<path style="fill:none;stroke-width:10;stroke-linecap:round;stroke-linejoin:round;stroke:rgb(94.139099%,94.139099%,94.139099%);stroke-opacity:1;stroke-miterlimit:10;" d="M -75.46875 1104.570312 L 2113.203125 1104.570312 " transform="matrix(0.1,0,0,-0.1,0,158)"/>
<path style="fill:none;stroke-width:10;stroke-linecap:round;stroke-linejoin:round;stroke:rgb(94.139099%,94.139099%,94.139099%);stroke-opacity:1;stroke-miterlimit:10;" d="M -75.46875 1047.890625 L 2113.203125 1047.890625 " transform="matrix(0.1,0,0,-0.1,0,158)"/>
<path style="fill:none;stroke-width:10;stroke-linecap:round;stroke-linejoin:round;stroke:rgb(94.139099%,94.139099%,94.139099%);stroke-opacity:1;stroke-miterlimit:10;" d="M -75.46875 991.171875 L 2113.203125 991.171875 " transform="matrix(0.1,0,0,-0.1,0,158)"/>
<path style="fill:none;stroke-width:10;stroke-linecap:round;stroke-linejoin:round;stroke:rgb(94.139099%,94.139099%,94.139099%);stroke-opacity:1;stroke-miterlimit:10;" d="M -75.46875 877.8125 L 2113.203125 877.8125 " transform="matrix(0.1,0,0,-0.1,0,158)"/>
<path style="fill:none;stroke-width:10;stroke-linecap:round;stroke-linejoin:round;stroke:rgb(94.139099%,94.139099%,94.139099%);stroke-opacity:1;stroke-miterlimit:10;" d="M -75.46875 821.09375 L 2113.203125 821.09375 " transform="matrix(0.1,0,0,-0.1,0,158)"/>
<path style="fill:none;stroke-width:10;stroke-linecap:round;stroke-linejoin:round;stroke:rgb(94.139099%,94.139099%,94.139099%);stroke-opacity:1;stroke-miterlimit:10;" d="M -75.46875 764.414062 L 2113.203125 764.414062 " transform="matrix(0.1,0,0,-0.1,0,158)"/>
<path style="fill:none;stroke-width:10;stroke-linecap:round;stroke-linejoin:round;stroke:rgb(94.139099%,94.139099%,94.139099%);stroke-opacity:1;stroke-miterlimit:10;" d="M -75.46875 707.734375 L 2113.203125 707.734375 " transform="matrix(0.1,0,0,-0.1,0,158)"/>
<path style="fill:none;stroke-width:10;stroke-linecap:round;stroke-linejoin:round;stroke:rgb(94.139099%,94.139099%,94.139099%);stroke-opacity:1;stroke-miterlimit:10;" d="M -75.46875 594.335938 L 2113.203125 594.335938 " transform="matrix(0.1,0,0,-0.1,0,158)"/>
<path style="fill:none;stroke-width:10;stroke-linecap:round;stroke-linejoin:round;stroke:rgb(94.139099%,94.139099%,94.139099%);stroke-opacity:1;stroke-miterlimit:10;" d="M -75.46875 537.65625 L 2113.203125 537.65625 " transform="matrix(0.1,0,0,-0.1,0,158)"/>
<path style="fill:none;stroke-width:10;stroke-linecap:round;stroke-linejoin:round;stroke:rgb(94.139099%,94.139099%,94.139099%);stroke-opacity:1;stroke-miterlimit:10;" d="M -75.46875 480.9375 L 2113.203125 480.9375 " transform="matrix(0.1,0,0,-0.1,0,158)"/>
<path style="fill:none;stroke-width:10;stroke-linecap:round;stroke-linejoin:round;stroke:rgb(94.139099%,94.139099%,94.139099%);stroke-opacity:1;stroke-miterlimit:10;" d="M -75.46875 424.257812 L 2113.203125 424.257812 " transform="matrix(0.1,0,0,-0.1,0,158)"/>
<path style="fill:none;stroke-width:10;stroke-linecap:round;stroke-linejoin:round;stroke:rgb(94.139099%,94.139099%,94.139099%);stroke-opacity:1;stroke-miterlimit:10;" d="M -75.46875 310.859375 L 2113.203125 310.859375 " transform="matrix(0.1,0,0,-0.1,0,158)"/>
<path style="fill:none;stroke-width:10;stroke-linecap:round;stroke-linejoin:round;stroke:rgb(94.139099%,94.139099%,94.139099%);stroke-opacity:1;stroke-miterlimit:10;" d="M -75.46875 254.179688 L 2113.203125 254.179688 " transform="matrix(0.1,0,0,-0.1,0,158)"/>
<path style="fill:none;stroke-width:10;stroke-linecap:round;stroke-linejoin:round;stroke:rgb(94.139099%,94.139099%,94.139099%);stroke-opacity:1;stroke-miterlimit:10;" d="M -75.46875 197.5 L 2113.203125 197.5 " transform="matrix(0.1,0,0,-0.1,0,158)"/>
<path style="fill:none;stroke-width:10;stroke-linecap:round;stroke-linejoin:round;stroke:rgb(94.139099%,94.139099%,94.139099%);stroke-opacity:1;stroke-miterlimit:10;" d="M -75.46875 140.78125 L 2113.203125 140.78125 " transform="matrix(0.1,0,0,-0.1,0,158)"/>
<path style="fill:none;stroke-width:10;stroke-linecap:round;stroke-linejoin:round;stroke:rgb(94.139099%,94.139099%,94.139099%);stroke-opacity:1;stroke-miterlimit:10;" d="M -75.46875 27.421875 L 2113.203125 27.421875 " transform="matrix(0.1,0,0,-0.1,0,158)"/>
<path style="fill:none;stroke-width:10;stroke-linecap:butt;stroke-linejoin:miter;stroke:rgb(0%,0%,0%);stroke-opacity:1;stroke-miterlimit:10;" d="M 135.546875 1734.726562 L 135.546875 -27.539062 " transform="matrix(0.1,0,0,-0.1,0,158)"/>
<path style="fill:none;stroke-width:10;stroke-linecap:butt;stroke-linejoin:miter;stroke:rgb(0%,0%,0%);stroke-opacity:1;stroke-miterlimit:10;" d="M -75.46875 651.015625 L 2105.664062 651.015625 " transform="matrix(0.1,0,0,-0.1,0,158)"/>
<path style=" stroke:none;fill-rule:nonzero;fill:rgb(0%,0%,0%);fill-opacity:1;" d="M 41.8125 98.867188 L 41.8125 98.539062 L 42.46875 98.539062 L 42.46875 95.957031 L 41.8125 96.121094 L 41.8125 95.785156 L 42.90625 95.511719 L 42.90625 98.539062 L 43.558594 98.539062 L 43.558594 98.867188 "/>
<path style=" stroke:none;fill-rule:nonzero;fill:rgb(0%,0%,0%);fill-opacity:1;" d="M 69.808594 98.867188 L 69.808594 98.484375 C 69.9375 98.1875 70.191406 97.867188 70.578125 97.515625 L 70.828125 97.292969 C 71.152344 97.003906 71.3125 96.714844 71.3125 96.429688 C 71.3125 96.246094 71.257812 96.101562 71.144531 95.996094 C 71.035156 95.894531 70.886719 95.839844 70.695312 95.839844 C 70.46875 95.839844 70.199219 95.929688 69.890625 96.105469 L 69.890625 95.71875 C 70.183594 95.582031 70.46875 95.511719 70.757812 95.511719 C 71.0625 95.511719 71.308594 95.597656 71.496094 95.761719 C 71.679688 95.925781 71.773438 96.144531 71.773438 96.417969 C 71.773438 96.613281 71.726562 96.789062 71.632812 96.941406 C 71.539062 97.089844 71.363281 97.277344 71.109375 97.492188 L 70.941406 97.636719 C 70.59375 97.933594 70.390625 98.214844 70.335938 98.484375 L 71.757812 98.484375 L 71.757812 98.867188 "/>
<path style=" stroke:none;fill-rule:nonzero;fill:rgb(0%,0%,0%);fill-opacity:1;" d="M 98.195312 98.84375 L 98.195312 98.4375 C 98.507812 98.558594 98.753906 98.621094 98.933594 98.621094 C 99.140625 98.621094 99.3125 98.5625 99.441406 98.441406 C 99.570312 98.320312 99.636719 98.160156 99.636719 97.96875 C 99.636719 97.507812 99.316406 97.277344 98.671875 97.277344 L 98.5 97.277344 L 98.5 96.984375 L 98.652344 96.980469 C 99.253906 96.980469 99.558594 96.769531 99.558594 96.34375 C 99.558594 96.007812 99.359375 95.839844 98.960938 95.839844 C 98.742188 95.839844 98.503906 95.902344 98.238281 96.023438 L 98.238281 95.644531 C 98.496094 95.558594 98.75 95.511719 98.992188 95.511719 C 99.660156 95.511719 99.996094 95.765625 99.996094 96.273438 C 99.996094 96.65625 99.769531 96.929688 99.3125 97.09375 C 99.839844 97.21875 100.105469 97.503906 100.105469 97.960938 C 100.105469 98.269531 100.003906 98.511719 99.796875 98.6875 C 99.59375 98.863281 99.316406 98.949219 98.960938 98.949219 C 98.757812 98.949219 98.503906 98.914062 98.195312 98.84375 "/>
<path style=" stroke:none;fill-rule:nonzero;fill:rgb(0%,0%,0%);fill-opacity:1;" d="M 127.742188 98.867188 L 127.742188 97.941406 L 126.269531 97.941406 L 126.269531 97.613281 L 127.742188 95.59375 L 128.152344 95.59375 L 128.152344 97.585938 L 128.589844 97.585938 L 128.589844 97.941406 L 128.152344 97.941406 L 128.152344 98.867188 Z M 126.695312 97.585938 L 127.769531 97.585938 L 127.769531 96.128906 "/>
<path style=" stroke:none;fill-rule:nonzero;fill:rgb(0%,0%,0%);fill-opacity:1;" d="M 154.890625 98.882812 L 154.890625 98.492188 C 155.105469 98.578125 155.3125 98.621094 155.507812 98.621094 C 155.722656 98.621094 155.894531 98.558594 156.015625 98.433594 C 156.140625 98.304688 156.199219 98.128906 156.199219 97.90625 C 156.199219 97.417969 155.863281 97.171875 155.1875 97.171875 C 155.109375 97.171875 155.027344 97.175781 154.945312 97.1875 L 154.945312 95.59375 L 156.601562 95.59375 L 156.601562 95.976562 L 155.328125 95.976562 L 155.328125 96.839844 C 155.746094 96.839844 156.074219 96.933594 156.3125 97.128906 C 156.546875 97.320312 156.664062 97.589844 156.664062 97.929688 C 156.664062 98.25 156.558594 98.496094 156.34375 98.679688 C 156.128906 98.859375 155.832031 98.949219 155.453125 98.949219 C 155.285156 98.949219 155.097656 98.925781 154.890625 98.882812 "/>
<path style=" stroke:none;fill-rule:nonzero;fill:rgb(0%,0%,0%);fill-opacity:1;" d="M 5.515625 150.121094 L 5.515625 149.820312 L 7.316406 149.820312 L 7.316406 150.121094 Z M 7.921875 151.320312 L 7.921875 150.9375 C 8.050781 150.640625 8.304688 150.320312 8.691406 149.96875 L 8.941406 149.746094 C 9.261719 149.457031 9.425781 149.167969 9.425781 148.882812 C 9.425781 148.699219 9.371094 148.554688 9.261719 148.449219 C 9.148438 148.34375 9 148.292969 8.808594 148.292969 C 8.582031 148.292969 8.3125 148.382812 8.003906 148.554688 L 8.003906 148.171875 C 8.296875 148.035156 8.582031 147.964844 8.871094 147.964844 C 9.175781 147.964844 9.421875 148.050781 9.609375 148.214844 C 9.792969 148.378906 9.886719 148.597656 9.886719 148.871094 C 9.886719 149.066406 9.839844 149.242188 9.746094 149.390625 C 9.652344 149.542969 9.476562 149.730469 9.222656 149.945312 L 9.054688 150.089844 C 8.707031 150.386719 8.503906 150.667969 8.449219 150.9375 L 9.871094 150.9375 L 9.871094 151.320312 "/>
<path style=" stroke:none;fill-rule:nonzero;fill:rgb(0%,0%,0%);fill-opacity:1;" d="M 5.515625 121.816406 L 5.515625 121.515625 L 7.316406 121.515625 L 7.316406 121.816406 Z M 8.226562 123.019531 L 8.226562 122.691406 L 8.882812 122.691406 L 8.882812 120.109375 L 8.226562 120.273438 L 8.226562 119.9375 L 9.320312 119.664062 L 9.320312 122.691406 L 9.976562 122.691406 L 9.976562 123.019531 "/>
<path style=" stroke:none;fill-rule:nonzero;fill:rgb(0%,0%,0%);fill-opacity:1;" d="M 8.226562 66.414062 L 8.226562 66.085938 L 8.882812 66.085938 L 8.882812 63.503906 L 8.226562 63.667969 L 8.226562 63.332031 L 9.320312 63.058594 L 9.320312 66.085938 L 9.976562 66.085938 L 9.976562 66.414062 "/>
<path style=" stroke:none;fill-rule:nonzero;fill:rgb(0%,0%,0%);fill-opacity:1;" d="M 7.921875 37.734375 L 7.921875 37.351562 C 8.050781 37.058594 8.304688 36.734375 8.691406 36.386719 L 8.941406 36.160156 C 9.261719 35.871094 9.425781 35.582031 9.425781 35.296875 C 9.425781 35.113281 9.371094 34.96875 9.261719 34.867188 C 9.148438 34.761719 9 34.710938 8.808594 34.710938 C 8.582031 34.710938 8.3125 34.796875 8.003906 34.972656 L 8.003906 34.585938 C 8.296875 34.449219 8.582031 34.382812 8.871094 34.382812 C 9.175781 34.382812 9.421875 34.464844 9.609375 34.628906 C 9.792969 34.792969 9.886719 35.011719 9.886719 35.285156 C 9.886719 35.480469 9.839844 35.65625 9.746094 35.808594 C 9.652344 35.960938 9.476562 36.144531 9.222656 36.359375 L 9.054688 36.503906 C 8.707031 36.800781 8.503906 37.085938 8.449219 37.351562 L 9.871094 37.351562 L 9.871094 37.734375 "/>
<path style=" stroke:none;fill-rule:nonzero;fill:rgb(0%,0%,0%);fill-opacity:1;" d="M 8.007812 9.410156 L 8.007812 9.003906 C 8.320312 9.128906 8.566406 9.1875 8.746094 9.1875 C 8.953125 9.1875 9.121094 9.128906 9.253906 9.007812 C 9.382812 8.882812 9.449219 8.726562 9.449219 8.535156 C 9.449219 8.074219 9.125 7.84375 8.480469 7.84375 L 8.308594 7.84375 L 8.308594 7.550781 L 8.460938 7.546875 C 9.066406 7.546875 9.367188 7.335938 9.367188 6.910156 C 9.367188 6.574219 9.167969 6.40625 8.773438 6.40625 C 8.554688 6.40625 8.3125 6.46875 8.050781 6.589844 L 8.050781 6.210938 C 8.308594 6.121094 8.558594 6.078125 8.804688 6.078125 C 9.472656 6.078125 9.808594 6.332031 9.808594 6.839844 C 9.808594 7.222656 9.578125 7.496094 9.125 7.660156 C 9.652344 7.78125 9.914062 8.070312 9.914062 8.527344 C 9.914062 8.835938 9.8125 9.078125 9.609375 9.253906 C 9.40625 9.429688 9.128906 9.515625 8.773438 9.515625 C 8.570312 9.515625 8.316406 9.480469 8.007812 9.410156 "/>
<path style=" stroke:none;fill-rule:nonzero;fill:rgb(0%,0%,0%);fill-opacity:1;" d="M 8.96875 98.949219 C 8.628906 98.949219 8.355469 98.789062 8.148438 98.472656 C 7.9375 98.15625 7.835938 97.742188 7.835938 97.230469 C 7.835938 96.714844 7.9375 96.296875 8.148438 95.984375 C 8.359375 95.671875 8.636719 95.511719 8.980469 95.511719 C 9.324219 95.511719 9.601562 95.671875 9.808594 95.984375 C 10.019531 96.296875 10.125 96.710938 10.125 97.222656 C 10.125 97.746094 10.019531 98.167969 9.808594 98.480469 C 9.601562 98.792969 9.320312 98.949219 8.96875 98.949219 Z M 8.972656 98.621094 C 9.433594 98.621094 9.664062 98.152344 9.664062 97.214844 C 9.664062 96.300781 9.4375 95.839844 8.980469 95.839844 C 8.527344 95.839844 8.300781 96.304688 8.300781 97.230469 C 8.300781 98.15625 8.523438 98.621094 8.972656 98.621094 "/>
<path style="fill:none;stroke-width:25;stroke-linecap:round;stroke-linejoin:round;stroke:rgb(30.200195%,30.200195%,100%);stroke-opacity:1;stroke-miterlimit:10;" d="M 135.546875 934.492188 L 146.796875 956.5625 M 146.796875 956.5625 L 163.90625 988.359375 M 163.90625 988.359375 L 181.015625 1018.125 L 198.125 1045.78125 M 198.125 1045.78125 L 215.195312 1071.40625 L 232.304688 1094.960938 L 249.414062 1116.484375 L 266.523438 1135.898438 L 283.59375 1153.28125 L 300.703125 1168.554688 L 317.8125 1181.835938 L 334.921875 1193.007812 L 351.992188 1202.109375 L 369.101562 1209.179688 L 386.210938 1214.140625 L 403.320312 1217.109375 L 420.390625 1217.96875 L 437.5 1216.757812 L 454.609375 1213.515625 L 471.679688 1208.164062 M 471.679688 1208.164062 L 488.789062 1200.78125 L 505.898438 1191.328125 L 523.007812 1179.84375 L 540.078125 1166.25 L 557.1875 1150.625 L 574.296875 1132.929688 L 591.40625 1113.164062 L 608.476562 1091.328125 M 608.476562 1091.328125 L 625.585938 1067.421875 L 642.695312 1041.484375 L 659.765625 1013.476562 L 676.875 983.398438 M 676.875 983.398438 L 693.984375 951.25 M 693.984375 951.25 L 702.5 934.492188 " transform="matrix(0.1,0,0,-0.1,0,158)"/>
<path style=" stroke:none;fill-rule:nonzero;fill:rgb(0%,0%,100%);fill-opacity:1;" d="M 27.246094 57.40625 L 26.574219 60.09375 C 26.425781 60.542969 26.164062 60.914062 25.789062 61.214844 C 25.492188 61.4375 25.191406 61.550781 24.894531 61.550781 C 24.59375 61.550781 24.371094 61.4375 24.222656 61.214844 C 24.148438 61.140625 24.109375 61.066406 24.109375 60.988281 C 24.109375 60.691406 24.222656 60.542969 24.445312 60.542969 C 24.445312 60.46875 24.484375 60.429688 24.558594 60.429688 C 24.707031 60.429688 24.78125 60.503906 24.78125 60.65625 C 24.78125 60.65625 24.78125 60.691406 24.78125 60.765625 C 24.78125 60.839844 24.746094 60.914062 24.667969 60.988281 C 24.59375 61.066406 24.484375 61.101562 24.332031 61.101562 C 24.40625 61.328125 24.59375 61.4375 24.894531 61.4375 C 25.191406 61.4375 25.453125 61.289062 25.679688 60.988281 C 25.902344 60.691406 26.050781 60.355469 26.125 59.980469 C 26.125 59.90625 26.125 59.871094 26.125 59.871094 C 25.902344 60.09375 25.679688 60.207031 25.453125 60.207031 C 25.082031 60.207031 24.820312 60.054688 24.667969 59.757812 C 24.59375 59.609375 24.558594 59.460938 24.558594 59.308594 C 24.558594 59.085938 24.667969 58.601562 24.894531 57.855469 C 24.894531 57.855469 24.929688 57.855469 25.007812 57.855469 C 25.082031 57.628906 25.117188 57.441406 25.117188 57.292969 C 25.117188 57.144531 25.042969 57.070312 24.894531 57.070312 C 24.667969 57.070312 24.445312 57.292969 24.222656 57.742188 C 24.222656 57.816406 24.222656 57.890625 24.222656 57.964844 C 24.148438 58.039062 24.109375 58.078125 24.109375 58.078125 C 24.035156 58.078125 23.996094 58.078125 23.996094 58.078125 C 23.996094 57.929688 24.035156 57.777344 24.109375 57.628906 C 24.332031 57.183594 24.59375 56.957031 24.894531 56.957031 C 25.191406 56.957031 25.378906 57.070312 25.453125 57.292969 C 25.527344 57.367188 25.566406 57.441406 25.566406 57.519531 C 25.566406 57.59375 25.492188 57.777344 25.34375 58.078125 C 25.117188 58.675781 25.007812 59.125 25.007812 59.421875 C 25.007812 59.796875 25.15625 59.980469 25.453125 59.980469 C 25.753906 59.980469 25.976562 59.832031 26.125 59.535156 C 26.199219 59.460938 26.238281 59.421875 26.238281 59.421875 L 26.574219 58.078125 C 26.648438 57.929688 26.6875 57.742188 26.6875 57.519531 C 26.761719 57.292969 26.796875 57.183594 26.796875 57.183594 C 26.871094 57.03125 26.984375 56.957031 27.132812 56.957031 C 27.210938 57.03125 27.246094 57.105469 27.246094 57.183594 C 27.246094 57.257812 27.246094 57.332031 27.246094 57.40625 "/>
<path style=" stroke:none;fill-rule:nonzero;fill:rgb(0%,0%,100%);fill-opacity:1;" d="M 34.46875 57.742188 L 30.210938 57.742188 C 30.058594 57.742188 29.984375 57.703125 29.984375 57.628906 C 29.984375 57.554688 30.058594 57.519531 30.210938 57.519531 L 34.46875 57.519531 C 34.617188 57.519531 34.691406 57.554688 34.691406 57.628906 C 34.691406 57.703125 34.617188 57.742188 34.46875 57.742188 Z M 34.46875 59.085938 L 30.210938 59.085938 C 30.058594 59.085938 29.984375 59.046875 29.984375 58.972656 C 29.984375 58.898438 30.058594 58.863281 30.210938 58.863281 L 34.46875 58.863281 C 34.617188 58.863281 34.691406 58.898438 34.691406 58.972656 C 34.691406 59.046875 34.617188 59.085938 34.46875 59.085938 "/>
<path style=" stroke:none;fill-rule:nonzero;fill:rgb(0%,0%,100%);fill-opacity:1;" d="M 39.683594 57.183594 L 39.347656 59.535156 C 39.273438 59.832031 39.160156 60.167969 39.011719 60.542969 C 39.011719 60.691406 38.972656 60.804688 38.898438 60.878906 C 38.75 61.253906 38.523438 61.476562 38.226562 61.550781 C 38.226562 61.550781 38.1875 61.550781 38.113281 61.550781 C 37.890625 61.550781 37.703125 61.476562 37.554688 61.328125 C 37.480469 61.253906 37.441406 61.175781 37.441406 61.101562 C 37.441406 60.878906 37.554688 60.730469 37.777344 60.65625 C 37.777344 60.65625 37.816406 60.65625 37.890625 60.65625 C 38.039062 60.65625 38.113281 60.691406 38.113281 60.765625 C 38.113281 60.839844 38.113281 60.878906 38.113281 60.878906 C 38.113281 61.027344 38.039062 61.140625 37.890625 61.214844 C 37.890625 61.214844 37.851562 61.253906 37.777344 61.328125 C 37.851562 61.402344 37.964844 61.4375 38.113281 61.4375 C 38.339844 61.4375 38.488281 61.175781 38.5625 60.65625 C 38.636719 60.578125 38.675781 60.46875 38.675781 60.320312 L 38.675781 60.09375 L 39.234375 57.183594 L 38.785156 57.183594 C 38.636719 57.183594 38.5625 57.183594 38.5625 57.183594 C 38.5625 57.105469 38.597656 57.03125 38.675781 56.957031 L 39.347656 56.957031 C 39.421875 56.359375 39.496094 55.984375 39.570312 55.835938 C 39.71875 55.390625 39.945312 55.128906 40.242188 55.054688 C 40.316406 55.054688 40.390625 55.054688 40.464844 55.054688 C 40.691406 55.054688 40.878906 55.128906 41.027344 55.277344 C 41.027344 55.351562 41.027344 55.425781 41.027344 55.5 C 41.027344 55.726562 40.953125 55.875 40.800781 55.949219 C 40.800781 55.949219 40.765625 55.949219 40.691406 55.949219 C 40.542969 55.949219 40.464844 55.910156 40.464844 55.835938 C 40.390625 55.761719 40.355469 55.726562 40.355469 55.726562 C 40.355469 55.574219 40.429688 55.464844 40.578125 55.390625 C 40.652344 55.390625 40.726562 55.351562 40.800781 55.277344 C 40.726562 55.203125 40.617188 55.164062 40.464844 55.164062 C 40.316406 55.164062 40.207031 55.238281 40.128906 55.390625 C 40.054688 55.464844 39.980469 55.726562 39.90625 56.171875 L 39.792969 56.957031 L 40.355469 56.957031 C 40.503906 56.957031 40.578125 56.996094 40.578125 57.070312 C 40.578125 57.144531 40.542969 57.183594 40.464844 57.183594 L 39.683594 57.183594 "/>
<path style=" stroke:none;fill-rule:nonzero;fill:rgb(0%,0%,100%);fill-opacity:1;" d="M 43.738281 61.773438 C 43.738281 61.847656 43.738281 61.886719 43.738281 61.886719 C 43.664062 61.886719 43.515625 61.773438 43.292969 61.550781 C 42.992188 61.253906 42.769531 60.914062 42.621094 60.542969 C 42.246094 59.871094 42.058594 59.125 42.058594 58.300781 C 42.058594 57.480469 42.210938 56.734375 42.507812 56.0625 C 42.804688 55.539062 43.144531 55.128906 43.515625 54.828125 C 43.589844 54.753906 43.664062 54.71875 43.738281 54.71875 C 43.738281 54.71875 43.738281 54.753906 43.738281 54.828125 C 43.738281 54.828125 43.703125 54.867188 43.628906 54.941406 C 42.882812 55.6875 42.507812 56.808594 42.507812 58.300781 C 42.507812 59.796875 42.882812 60.914062 43.628906 61.664062 C 43.703125 61.738281 43.738281 61.773438 43.738281 61.773438 "/>
<path style=" stroke:none;fill-rule:nonzero;fill:rgb(0%,0%,100%);fill-opacity:1;" d="M 46.527344 57.964844 L 46.304688 58.863281 C 46.230469 59.234375 46.191406 59.460938 46.191406 59.535156 C 46.191406 59.757812 46.265625 59.90625 46.417969 59.980469 C 46.492188 59.980469 46.566406 59.980469 46.640625 59.980469 C 46.863281 59.980469 47.050781 59.871094 47.199219 59.644531 C 47.351562 59.496094 47.460938 59.308594 47.535156 59.085938 C 47.535156 59.011719 47.574219 58.972656 47.648438 58.972656 C 47.722656 58.972656 47.761719 59.011719 47.761719 59.085938 C 47.761719 59.160156 47.6875 59.308594 47.535156 59.535156 C 47.238281 59.980469 46.941406 60.207031 46.640625 60.207031 C 46.265625 60.207031 46.007812 60.054688 45.855469 59.757812 C 45.855469 59.683594 45.855469 59.644531 45.855469 59.644531 C 45.707031 59.871094 45.519531 60.019531 45.296875 60.09375 C 45.222656 60.167969 45.148438 60.207031 45.074219 60.207031 C 44.773438 60.207031 44.550781 60.09375 44.398438 59.871094 C 44.398438 59.871094 44.398438 59.796875 44.398438 59.644531 C 44.398438 59.496094 44.472656 59.386719 44.625 59.308594 C 44.699219 59.308594 44.734375 59.308594 44.734375 59.308594 C 44.886719 59.308594 44.996094 59.347656 45.074219 59.421875 C 45.074219 59.496094 45.074219 59.535156 45.074219 59.535156 C 45.074219 59.683594 44.996094 59.796875 44.847656 59.871094 C 44.773438 59.871094 44.734375 59.871094 44.734375 59.871094 C 44.8125 59.945312 44.921875 59.980469 45.074219 59.980469 C 45.296875 59.980469 45.484375 59.832031 45.632812 59.535156 C 45.707031 59.460938 45.746094 59.386719 45.746094 59.308594 C 45.96875 58.339844 46.082031 57.742188 46.082031 57.519531 C 46.082031 57.21875 45.96875 57.070312 45.746094 57.070312 C 45.519531 57.070312 45.296875 57.21875 45.074219 57.519531 C 44.996094 57.59375 44.921875 57.703125 44.847656 57.855469 C 44.847656 57.855469 44.847656 57.890625 44.847656 57.964844 L 44.734375 58.078125 C 44.660156 58.078125 44.625 58.078125 44.625 58.078125 C 44.625 57.929688 44.699219 57.742188 44.847656 57.519531 C 45.074219 57.144531 45.371094 56.957031 45.746094 56.957031 C 46.117188 56.957031 46.378906 57.144531 46.527344 57.519531 C 46.679688 57.21875 46.863281 57.03125 47.089844 56.957031 C 47.164062 56.957031 47.238281 56.957031 47.3125 56.957031 C 47.609375 56.957031 47.796875 57.03125 47.871094 57.183594 C 47.949219 57.257812 47.984375 57.332031 47.984375 57.40625 C 47.984375 57.628906 47.871094 57.742188 47.648438 57.742188 C 47.648438 57.816406 47.609375 57.855469 47.535156 57.855469 C 47.386719 57.855469 47.3125 57.777344 47.3125 57.628906 C 47.3125 57.628906 47.3125 57.59375 47.3125 57.519531 C 47.3125 57.367188 47.386719 57.257812 47.535156 57.183594 C 47.535156 57.183594 47.574219 57.183594 47.648438 57.183594 C 47.574219 57.105469 47.460938 57.070312 47.3125 57.070312 C 46.941406 57.070312 46.714844 57.332031 46.640625 57.855469 C 46.566406 57.855469 46.527344 57.890625 46.527344 57.964844 "/>
<path style=" stroke:none;fill-rule:nonzero;fill:rgb(0%,0%,100%);fill-opacity:1;" d="M 50.289062 58.300781 C 50.289062 59.125 50.140625 59.871094 49.84375 60.542969 C 49.617188 61.066406 49.320312 61.476562 48.945312 61.773438 C 48.871094 61.847656 48.796875 61.886719 48.722656 61.886719 C 48.722656 61.886719 48.722656 61.847656 48.722656 61.773438 C 48.722656 61.773438 48.722656 61.738281 48.722656 61.664062 C 49.542969 60.914062 49.953125 59.796875 49.953125 58.300781 C 49.953125 56.808594 49.582031 55.6875 48.835938 54.941406 C 48.757812 54.867188 48.722656 54.828125 48.722656 54.828125 C 48.722656 54.753906 48.722656 54.71875 48.722656 54.71875 C 48.796875 54.71875 48.945312 54.828125 49.167969 55.054688 C 49.46875 55.351562 49.691406 55.6875 49.84375 56.0625 C 50.140625 56.734375 50.289062 57.480469 50.289062 58.300781 "/>
<path style="fill:none;stroke-width:25;stroke-linecap:round;stroke-linejoin:round;stroke:rgb(30.200195%,30.200195%,100%);stroke-opacity:1;stroke-miterlimit:10;" d="M 702.5 934.492188 L 711.09375 925.898438 M 711.09375 925.898438 L 745.273438 891.71875 M 745.273438 891.71875 L 779.492188 857.5 L 796.5625 840.390625 L 813.671875 823.320312 L 882.070312 754.921875 M 882.070312 754.921875 L 950.46875 686.523438 M 950.46875 686.523438 L 984.6875 652.304688 M 984.6875 652.304688 L 985.9375 651.015625 " transform="matrix(0.1,0,0,-0.1,0,158)"/>
<path style="fill:none;stroke-width:25;stroke-linecap:round;stroke-linejoin:round;stroke:rgb(30.200195%,30.200195%,100%);stroke-opacity:1;stroke-miterlimit:10;" d="M 985.9375 651.015625 L 1001.757812 620.3125 M 1001.757812 620.3125 L 1018.867188 589.023438 M 1018.867188 589.023438 L 1035.976562 559.84375 L 1053.046875 532.695312 L 1070.15625 507.617188 L 1087.265625 484.609375 L 1104.375 463.671875 L 1121.445312 444.804688 L 1138.554688 427.96875 L 1155.664062 413.242188 L 1172.773438 400.546875 L 1189.84375 389.882812 L 1206.953125 381.328125 L 1224.0625 374.84375 L 1241.132812 370.390625 L 1258.242188 368.007812 L 1275.351562 367.695312 L 1292.460938 369.453125 M 1292.460938 369.453125 L 1309.53125 373.242188 L 1326.640625 379.101562 L 1343.75 387.070312 L 1360.859375 397.070312 L 1377.96875 409.101562 L 1395.039062 423.242188 L 1412.148438 439.414062 L 1429.257812 457.695312 M 1429.257812 457.695312 L 1446.328125 478.007812 L 1463.4375 500.351562 L 1480.546875 524.804688 L 1497.65625 551.289062 M 1497.65625 551.289062 L 1514.726562 579.882812 L 1531.835938 610.507812 M 1531.835938 610.507812 L 1548.945312 643.203125 M 1548.945312 643.203125 L 1552.890625 651.015625 " transform="matrix(0.1,0,0,-0.1,0,158)"/>
</g>
</svg>
