<?xml version="1.0" encoding="UTF-8"?>
<svg xmlns="http://www.w3.org/2000/svg" xmlns:xlink="http://www.w3.org/1999/xlink" width="183pt" height="126pt" viewBox="0 0 183 126" version="1.1">
<g id="surface1">
<rect x="0" y="0" width="183" height="126" style="fill:rgb(100%,100%,100%);fill-opacity:1;stroke:none;"/>
<path style="fill:none;stroke-width:10;stroke-linecap:round;stroke-linejoin:round;stroke:rgb(75.389099%,75.389099%,75.389099%);stroke-opacity:1;stroke-miterlimit:10;" d="M 68.046875 2167.109375 L 68.046875 -491.796875 " transform="matrix(0.1,0,0,-0.1,0,126)"/>
<path style="fill:none;stroke-width:10;stroke-linecap:round;stroke-linejoin:round;stroke:rgb(75.389099%,75.389099%,75.389099%);stroke-opacity:1;stroke-miterlimit:10;" d="M 351.484375 2167.109375 L 351.484375 -491.796875 " transform="matrix(0.1,0,0,-0.1,0,126)"/>
<path style="fill:none;stroke-width:10;stroke-linecap:round;stroke-linejoin:round;stroke:rgb(75.389099%,75.389099%,75.389099%);stroke-opacity:1;stroke-miterlimit:10;" d="M 918.4375 2167.109375 L 918.4375 -491.796875 " transform="matrix(0.1,0,0,-0.1,0,126)"/>
<path style="fill:none;stroke-width:10;stroke-linecap:round;stroke-linejoin:round;stroke:rgb(75.389099%,75.389099%,75.389099%);stroke-opacity:1;stroke-miterlimit:10;" d="M 1201.875 2167.109375 L 1201.875 -491.796875 " transform="matrix(0.1,0,0,-0.1,0,126)"/>
<path style="fill:none;stroke-width:10;stroke-linecap:round;stroke-linejoin:round;stroke:rgb(75.389099%,75.389099%,75.389099%);stroke-opacity:1;stroke-miterlimit:10;" d="M 1485.351562 2167.109375 L 1485.351562 -491.796875 " transform="matrix(0.1,0,0,-0.1,0,126)"/>
<path style="fill:none;stroke-width:10;stroke-linecap:round;stroke-linejoin:round;stroke:rgb(75.389099%,75.389099%,75.389099%);stroke-opacity:1;stroke-miterlimit:10;" d="M 1768.828125 2167.109375 L 1768.828125 -491.796875 " transform="matrix(0.1,0,0,-0.1,0,126)"/>
<path style="fill:none;stroke-width:10;stroke-linecap:round;stroke-linejoin:round;stroke:rgb(94.139099%,94.139099%,94.139099%);stroke-opacity:1;stroke-miterlimit:10;" d="M 11.328125 2167.109375 L 11.328125 -491.796875 " transform="matrix(0.1,0,0,-0.1,0,126)"/>
<path style="fill:none;stroke-width:10;stroke-linecap:round;stroke-linejoin:round;stroke:rgb(94.139099%,94.139099%,94.139099%);stroke-opacity:1;stroke-miterlimit:10;" d="M 124.726562 2167.109375 L 124.726562 -491.796875 " transform="matrix(0.1,0,0,-0.1,0,126)"/>
<path style="fill:none;stroke-width:10;stroke-linecap:round;stroke-linejoin:round;stroke:rgb(94.139099%,94.139099%,94.139099%);stroke-opacity:1;stroke-miterlimit:10;" d="M 181.40625 2167.109375 L 181.40625 -491.796875 " transform="matrix(0.1,0,0,-0.1,0,126)"/>
<path style="fill:none;stroke-width:10;stroke-linecap:round;stroke-linejoin:round;stroke:rgb(94.139099%,94.139099%,94.139099%);stroke-opacity:1;stroke-miterlimit:10;" d="M 238.125 2167.109375 L 238.125 -491.796875 " transform="matrix(0.1,0,0,-0.1,0,126)"/>
<path style="fill:none;stroke-width:10;stroke-linecap:round;stroke-linejoin:round;stroke:rgb(94.139099%,94.139099%,94.139099%);stroke-opacity:1;stroke-miterlimit:10;" d="M 294.804688 2167.109375 L 294.804688 -491.796875 " transform="matrix(0.1,0,0,-0.1,0,126)"/>
<path style="fill:none;stroke-width:10;stroke-linecap:round;stroke-linejoin:round;stroke:rgb(94.139099%,94.139099%,94.139099%);stroke-opacity:1;stroke-miterlimit:10;" d="M 408.203125 2167.109375 L 408.203125 -491.796875 " transform="matrix(0.1,0,0,-0.1,0,126)"/>
<path style="fill:none;stroke-width:10;stroke-linecap:round;stroke-linejoin:round;stroke:rgb(94.139099%,94.139099%,94.139099%);stroke-opacity:1;stroke-miterlimit:10;" d="M 464.882812 2167.109375 L 464.882812 -491.796875 " transform="matrix(0.1,0,0,-0.1,0,126)"/>
<path style="fill:none;stroke-width:10;stroke-linecap:round;stroke-linejoin:round;stroke:rgb(94.139099%,94.139099%,94.139099%);stroke-opacity:1;stroke-miterlimit:10;" d="M 521.5625 2167.109375 L 521.5625 -491.796875 " transform="matrix(0.1,0,0,-0.1,0,126)"/>
<path style="fill:none;stroke-width:10;stroke-linecap:round;stroke-linejoin:round;stroke:rgb(94.139099%,94.139099%,94.139099%);stroke-opacity:1;stroke-miterlimit:10;" d="M 578.28125 2167.109375 L 578.28125 -491.796875 " transform="matrix(0.1,0,0,-0.1,0,126)"/>
<path style="fill:none;stroke-width:10;stroke-linecap:round;stroke-linejoin:round;stroke:rgb(94.139099%,94.139099%,94.139099%);stroke-opacity:1;stroke-miterlimit:10;" d="M 691.640625 2167.109375 L 691.640625 -491.796875 " transform="matrix(0.1,0,0,-0.1,0,126)"/>
<path style="fill:none;stroke-width:10;stroke-linecap:round;stroke-linejoin:round;stroke:rgb(94.139099%,94.139099%,94.139099%);stroke-opacity:1;stroke-miterlimit:10;" d="M 748.359375 2167.109375 L 748.359375 -491.796875 " transform="matrix(0.1,0,0,-0.1,0,126)"/>
<path style="fill:none;stroke-width:10;stroke-linecap:round;stroke-linejoin:round;stroke:rgb(94.139099%,94.139099%,94.139099%);stroke-opacity:1;stroke-miterlimit:10;" d="M 805.039062 2167.109375 L 805.039062 -491.796875 " transform="matrix(0.1,0,0,-0.1,0,126)"/>
<path style="fill:none;stroke-width:10;stroke-linecap:round;stroke-linejoin:round;stroke:rgb(94.139099%,94.139099%,94.139099%);stroke-opacity:1;stroke-miterlimit:10;" d="M 861.71875 2167.109375 L 861.71875 -491.796875 " transform="matrix(0.1,0,0,-0.1,0,126)"/>
<path style="fill:none;stroke-width:10;stroke-linecap:round;stroke-linejoin:round;stroke:rgb(94.139099%,94.139099%,94.139099%);stroke-opacity:1;stroke-miterlimit:10;" d="M 975.117188 2167.109375 L 975.117188 -491.796875 " transform="matrix(0.1,0,0,-0.1,0,126)"/>
<path style="fill:none;stroke-width:10;stroke-linecap:round;stroke-linejoin:round;stroke:rgb(94.139099%,94.139099%,94.139099%);stroke-opacity:1;stroke-miterlimit:10;" d="M 1031.796875 2167.109375 L 1031.796875 -491.796875 " transform="matrix(0.1,0,0,-0.1,0,126)"/>
<path style="fill:none;stroke-width:10;stroke-linecap:round;stroke-linejoin:round;stroke:rgb(94.139099%,94.139099%,94.139099%);stroke-opacity:1;stroke-miterlimit:10;" d="M 1088.515625 2167.109375 L 1088.515625 -491.796875 " transform="matrix(0.1,0,0,-0.1,0,126)"/>
<path style="fill:none;stroke-width:10;stroke-linecap:round;stroke-linejoin:round;stroke:rgb(94.139099%,94.139099%,94.139099%);stroke-opacity:1;stroke-miterlimit:10;" d="M 1145.195312 2167.109375 L 1145.195312 -491.796875 " transform="matrix(0.1,0,0,-0.1,0,126)"/>
<path style="fill:none;stroke-width:10;stroke-linecap:round;stroke-linejoin:round;stroke:rgb(94.139099%,94.139099%,94.139099%);stroke-opacity:1;stroke-miterlimit:10;" d="M 1258.59375 2167.109375 L 1258.59375 -491.796875 " transform="matrix(0.1,0,0,-0.1,0,126)"/>
<path style="fill:none;stroke-width:10;stroke-linecap:round;stroke-linejoin:round;stroke:rgb(94.139099%,94.139099%,94.139099%);stroke-opacity:1;stroke-miterlimit:10;" d="M 1315.273438 2167.109375 L 1315.273438 -491.796875 " transform="matrix(0.1,0,0,-0.1,0,126)"/>
<path style="fill:none;stroke-width:10;stroke-linecap:round;stroke-linejoin:round;stroke:rgb(94.139099%,94.139099%,94.139099%);stroke-opacity:1;stroke-miterlimit:10;" d="M 1371.953125 2167.109375 L 1371.953125 -491.796875 " transform="matrix(0.1,0,0,-0.1,0,126)"/>
<path style="fill:none;stroke-width:10;stroke-linecap:round;stroke-linejoin:round;stroke:rgb(94.139099%,94.139099%,94.139099%);stroke-opacity:1;stroke-miterlimit:10;" d="M 1428.671875 2167.109375 L 1428.671875 -491.796875 " transform="matrix(0.1,0,0,-0.1,0,126)"/>
<path style="fill:none;stroke-width:10;stroke-linecap:round;stroke-linejoin:round;stroke:rgb(94.139099%,94.139099%,94.139099%);stroke-opacity:1;stroke-miterlimit:10;" d="M 1542.03125 2167.109375 L 1542.03125 -491.796875 " transform="matrix(0.1,0,0,-0.1,0,126)"/>
<path style="fill:none;stroke-width:10;stroke-linecap:round;stroke-linejoin:round;stroke:rgb(94.139099%,94.139099%,94.139099%);stroke-opacity:1;stroke-miterlimit:10;" d="M 1598.75 2167.109375 L 1598.75 -491.796875 " transform="matrix(0.1,0,0,-0.1,0,126)"/>
<path style="fill:none;stroke-width:10;stroke-linecap:round;stroke-linejoin:round;stroke:rgb(94.139099%,94.139099%,94.139099%);stroke-opacity:1;stroke-miterlimit:10;" d="M 1655.429688 2167.109375 L 1655.429688 -491.796875 " transform="matrix(0.1,0,0,-0.1,0,126)"/>
<path style="fill:none;stroke-width:10;stroke-linecap:round;stroke-linejoin:round;stroke:rgb(94.139099%,94.139099%,94.139099%);stroke-opacity:1;stroke-miterlimit:10;" d="M 1712.148438 2167.109375 L 1712.148438 -491.796875 " transform="matrix(0.1,0,0,-0.1,0,126)"/>
<path style="fill:none;stroke-width:10;stroke-linecap:round;stroke-linejoin:round;stroke:rgb(94.139099%,94.139099%,94.139099%);stroke-opacity:1;stroke-miterlimit:10;" d="M 1825.507812 2167.109375 L 1825.507812 -491.796875 " transform="matrix(0.1,0,0,-0.1,0,126)"/>
<path style="fill:none;stroke-width:10;stroke-linecap:round;stroke-linejoin:round;stroke:rgb(75.389099%,75.389099%,75.389099%);stroke-opacity:1;stroke-miterlimit:10;" d="M -742.695312 1197.65625 L 2545.507812 1197.65625 " transform="matrix(0.1,0,0,-0.1,0,126)"/>
<path style="fill:none;stroke-width:10;stroke-linecap:round;stroke-linejoin:round;stroke:rgb(75.389099%,75.389099%,75.389099%);stroke-opacity:1;stroke-miterlimit:10;" d="M -742.695312 914.179688 L 2545.507812 914.179688 " transform="matrix(0.1,0,0,-0.1,0,126)"/>
<path style="fill:none;stroke-width:10;stroke-linecap:round;stroke-linejoin:round;stroke:rgb(75.389099%,75.389099%,75.389099%);stroke-opacity:1;stroke-miterlimit:10;" d="M -742.695312 347.226562 L 2545.507812 347.226562 " transform="matrix(0.1,0,0,-0.1,0,126)"/>
<path style="fill:none;stroke-width:10;stroke-linecap:round;stroke-linejoin:round;stroke:rgb(75.389099%,75.389099%,75.389099%);stroke-opacity:1;stroke-miterlimit:10;" d="M -742.695312 63.789062 L 2545.507812 63.789062 " transform="matrix(0.1,0,0,-0.1,0,126)"/>
<path style="fill:none;stroke-width:10;stroke-linecap:round;stroke-linejoin:round;stroke:rgb(94.139099%,94.139099%,94.139099%);stroke-opacity:1;stroke-miterlimit:10;" d="M -742.695312 1254.335938 L 2545.507812 1254.335938 " transform="matrix(0.1,0,0,-0.1,0,126)"/>
<path style="fill:none;stroke-width:10;stroke-linecap:round;stroke-linejoin:round;stroke:rgb(94.139099%,94.139099%,94.139099%);stroke-opacity:1;stroke-miterlimit:10;" d="M -742.695312 1140.9375 L 2545.507812 1140.9375 " transform="matrix(0.1,0,0,-0.1,0,126)"/>
<path style="fill:none;stroke-width:10;stroke-linecap:round;stroke-linejoin:round;stroke:rgb(94.139099%,94.139099%,94.139099%);stroke-opacity:1;stroke-miterlimit:10;" d="M -742.695312 1084.257812 L 2545.507812 1084.257812 " transform="matrix(0.1,0,0,-0.1,0,126)"/>
<path style="fill:none;stroke-width:10;stroke-linecap:round;stroke-linejoin:round;stroke:rgb(94.139099%,94.139099%,94.139099%);stroke-opacity:1;stroke-miterlimit:10;" d="M -742.695312 1027.578125 L 2545.507812 1027.578125 " transform="matrix(0.1,0,0,-0.1,0,126)"/>
<path style="fill:none;stroke-width:10;stroke-linecap:round;stroke-linejoin:round;stroke:rgb(94.139099%,94.139099%,94.139099%);stroke-opacity:1;stroke-miterlimit:10;" d="M -742.695312 970.859375 L 2545.507812 970.859375 " transform="matrix(0.1,0,0,-0.1,0,126)"/>
<path style="fill:none;stroke-width:10;stroke-linecap:round;stroke-linejoin:round;stroke:rgb(94.139099%,94.139099%,94.139099%);stroke-opacity:1;stroke-miterlimit:10;" d="M -742.695312 857.460938 L 2545.507812 857.460938 " transform="matrix(0.1,0,0,-0.1,0,126)"/>
<path style="fill:none;stroke-width:10;stroke-linecap:round;stroke-linejoin:round;stroke:rgb(94.139099%,94.139099%,94.139099%);stroke-opacity:1;stroke-miterlimit:10;" d="M -742.695312 800.78125 L 2545.507812 800.78125 " transform="matrix(0.1,0,0,-0.1,0,126)"/>
<path style="fill:none;stroke-width:10;stroke-linecap:round;stroke-linejoin:round;stroke:rgb(94.139099%,94.139099%,94.139099%);stroke-opacity:1;stroke-miterlimit:10;" d="M -742.695312 744.101562 L 2545.507812 744.101562 " transform="matrix(0.1,0,0,-0.1,0,126)"/>
<path style="fill:none;stroke-width:10;stroke-linecap:round;stroke-linejoin:round;stroke:rgb(94.139099%,94.139099%,94.139099%);stroke-opacity:1;stroke-miterlimit:10;" d="M -742.695312 687.382812 L 2545.507812 687.382812 " transform="matrix(0.1,0,0,-0.1,0,126)"/>
<path style="fill:none;stroke-width:10;stroke-linecap:round;stroke-linejoin:round;stroke:rgb(94.139099%,94.139099%,94.139099%);stroke-opacity:1;stroke-miterlimit:10;" d="M -742.695312 574.023438 L 2545.507812 574.023438 " transform="matrix(0.1,0,0,-0.1,0,126)"/>
<path style="fill:none;stroke-width:10;stroke-linecap:round;stroke-linejoin:round;stroke:rgb(94.139099%,94.139099%,94.139099%);stroke-opacity:1;stroke-miterlimit:10;" d="M -742.695312 517.304688 L 2545.507812 517.304688 " transform="matrix(0.1,0,0,-0.1,0,126)"/>
<path style="fill:none;stroke-width:10;stroke-linecap:round;stroke-linejoin:round;stroke:rgb(94.139099%,94.139099%,94.139099%);stroke-opacity:1;stroke-miterlimit:10;" d="M -742.695312 460.625 L 2545.507812 460.625 " transform="matrix(0.1,0,0,-0.1,0,126)"/>
<path style="fill:none;stroke-width:10;stroke-linecap:round;stroke-linejoin:round;stroke:rgb(94.139099%,94.139099%,94.139099%);stroke-opacity:1;stroke-miterlimit:10;" d="M -742.695312 403.945312 L 2545.507812 403.945312 " transform="matrix(0.1,0,0,-0.1,0,126)"/>
<path style="fill:none;stroke-width:10;stroke-linecap:round;stroke-linejoin:round;stroke:rgb(94.139099%,94.139099%,94.139099%);stroke-opacity:1;stroke-miterlimit:10;" d="M -742.695312 290.546875 L 2545.507812 290.546875 " transform="matrix(0.1,0,0,-0.1,0,126)"/>
<path style="fill:none;stroke-width:10;stroke-linecap:round;stroke-linejoin:round;stroke:rgb(94.139099%,94.139099%,94.139099%);stroke-opacity:1;stroke-miterlimit:10;" d="M -742.695312 233.867188 L 2545.507812 233.867188 " transform="matrix(0.1,0,0,-0.1,0,126)"/>
<path style="fill:none;stroke-width:10;stroke-linecap:round;stroke-linejoin:round;stroke:rgb(94.139099%,94.139099%,94.139099%);stroke-opacity:1;stroke-miterlimit:10;" d="M -742.695312 177.148438 L 2545.507812 177.148438 " transform="matrix(0.1,0,0,-0.1,0,126)"/>
<path style="fill:none;stroke-width:10;stroke-linecap:round;stroke-linejoin:round;stroke:rgb(94.139099%,94.139099%,94.139099%);stroke-opacity:1;stroke-miterlimit:10;" d="M -742.695312 120.46875 L 2545.507812 120.46875 " transform="matrix(0.1,0,0,-0.1,0,126)"/>
<path style="fill:none;stroke-width:10;stroke-linecap:round;stroke-linejoin:round;stroke:rgb(94.139099%,94.139099%,94.139099%);stroke-opacity:1;stroke-miterlimit:10;" d="M -742.695312 7.070312 L 2545.507812 7.070312 " transform="matrix(0.1,0,0,-0.1,0,126)"/>
<path style="fill:none;stroke-width:10;stroke-linecap:butt;stroke-linejoin:miter;stroke:rgb(0%,0%,0%);stroke-opacity:1;stroke-miterlimit:10;" d="M 634.960938 2155.742188 L 634.960938 -491.796875 " transform="matrix(0.1,0,0,-0.1,0,126)"/>
<path style="fill:none;stroke-width:10;stroke-linecap:butt;stroke-linejoin:miter;stroke:rgb(0%,0%,0%);stroke-opacity:1;stroke-miterlimit:10;" d="M -742.695312 630.703125 L 2534.179688 630.703125 " transform="matrix(0.1,0,0,-0.1,0,126)"/>
<path style=" stroke:none;fill-rule:nonzero;fill:rgb(0%,0%,0%);fill-opacity:1;" d="M 4.316406 70.195312 L 4.316406 69.746094 L 7.019531 69.746094 L 7.019531 70.195312 Z M 7.933594 72 L 7.933594 71.425781 C 8.125 70.980469 8.511719 70.496094 9.089844 69.96875 L 9.464844 69.636719 C 9.949219 69.199219 10.191406 68.765625 10.191406 68.335938 C 10.191406 68.0625 10.109375 67.84375 9.941406 67.6875 C 9.777344 67.53125 9.550781 67.453125 9.261719 67.453125 C 8.921875 67.453125 8.519531 67.585938 8.058594 67.847656 L 8.058594 67.269531 C 8.492188 67.0625 8.925781 66.960938 9.355469 66.960938 C 9.816406 66.960938 10.1875 67.085938 10.464844 67.332031 C 10.746094 67.582031 10.886719 67.910156 10.886719 68.320312 C 10.886719 68.613281 10.816406 68.875 10.671875 69.101562 C 10.53125 69.332031 10.269531 69.609375 9.886719 69.933594 L 9.636719 70.148438 C 9.109375 70.59375 8.808594 71.019531 8.726562 71.425781 L 10.859375 71.425781 L 10.859375 72 "/>
<path style=" stroke:none;fill-rule:nonzero;fill:rgb(0%,0%,0%);fill-opacity:1;" d="M 32.664062 70.195312 L 32.664062 69.746094 L 35.367188 69.746094 L 35.367188 70.195312 Z M 36.738281 72 L 36.738281 71.507812 L 37.722656 71.507812 L 37.722656 67.628906 L 36.738281 67.875 L 36.738281 67.367188 L 38.378906 66.960938 L 38.378906 71.507812 L 39.363281 71.507812 L 39.363281 72 "/>
<path style=" stroke:none;fill-rule:nonzero;fill:rgb(0%,0%,0%);fill-opacity:1;" d="M 91.164062 72 L 91.164062 71.507812 L 92.148438 71.507812 L 92.148438 67.628906 L 91.164062 67.875 L 91.164062 67.367188 L 92.804688 66.960938 L 92.804688 71.507812 L 93.789062 71.507812 L 93.789062 72 "/>
<path style=" stroke:none;fill-rule:nonzero;fill:rgb(0%,0%,0%);fill-opacity:1;" d="M 119.054688 72 L 119.054688 71.425781 C 119.242188 70.980469 119.628906 70.496094 120.210938 69.96875 L 120.585938 69.636719 C 121.066406 69.199219 121.308594 68.765625 121.308594 68.335938 C 121.308594 68.0625 121.226562 67.84375 121.0625 67.6875 C 120.894531 67.53125 120.671875 67.453125 120.382812 67.453125 C 120.039062 67.453125 119.640625 67.585938 119.175781 67.847656 L 119.175781 67.269531 C 119.613281 67.0625 120.046875 66.960938 120.476562 66.960938 C 120.933594 66.960938 121.304688 67.085938 121.585938 67.332031 C 121.863281 67.582031 122.003906 67.910156 122.003906 68.320312 C 122.003906 68.613281 121.933594 68.875 121.792969 69.101562 C 121.652344 69.332031 121.390625 69.609375 121.007812 69.933594 L 120.753906 70.148438 C 120.230469 70.59375 119.925781 71.019531 119.84375 71.425781 L 121.980469 71.425781 L 121.980469 72 "/>
<path style=" stroke:none;fill-rule:nonzero;fill:rgb(0%,0%,0%);fill-opacity:1;" d="M 147.527344 71.964844 L 147.527344 71.351562 C 147.996094 71.539062 148.363281 71.632812 148.636719 71.632812 C 148.945312 71.632812 149.203125 71.539062 149.398438 71.355469 C 149.59375 71.175781 149.691406 70.9375 149.691406 70.648438 C 149.691406 69.957031 149.207031 69.613281 148.238281 69.613281 L 147.980469 69.613281 L 147.980469 69.167969 L 148.210938 69.167969 C 149.117188 69.167969 149.570312 68.847656 149.570312 68.207031 C 149.570312 67.703125 149.273438 67.453125 148.675781 67.453125 C 148.347656 67.453125 147.984375 67.542969 147.59375 67.726562 L 147.59375 67.15625 C 147.980469 67.027344 148.355469 66.960938 148.722656 66.960938 C 149.726562 66.960938 150.230469 67.339844 150.230469 68.101562 C 150.230469 68.679688 149.886719 69.089844 149.203125 69.335938 C 149.996094 69.519531 150.390625 69.953125 150.390625 70.636719 C 150.390625 71.101562 150.238281 71.464844 149.933594 71.726562 C 149.628906 71.992188 149.210938 72.121094 148.675781 72.121094 C 148.371094 72.121094 147.988281 72.070312 147.527344 71.964844 "/>
<path style=" stroke:none;fill-rule:nonzero;fill:rgb(0%,0%,0%);fill-opacity:1;" d="M 177.742188 72 L 177.742188 70.609375 L 175.53125 70.609375 L 175.53125 70.113281 L 177.742188 67.082031 L 178.355469 67.082031 L 178.355469 70.074219 L 179.015625 70.074219 L 179.015625 70.609375 L 178.355469 70.609375 L 178.355469 72 Z M 176.171875 70.074219 L 177.785156 70.074219 L 177.785156 67.886719 "/>
<path style=" stroke:none;fill-rule:nonzero;fill:rgb(0%,0%,0%);fill-opacity:1;" d="M 51.941406 120.652344 L 51.941406 120.199219 L 54.644531 120.199219 L 54.644531 120.652344 Z M 55.558594 122.457031 L 55.558594 121.882812 C 55.746094 121.4375 56.132812 120.953125 56.714844 120.425781 L 57.089844 120.089844 C 57.570312 119.65625 57.8125 119.222656 57.8125 118.792969 C 57.8125 118.519531 57.730469 118.300781 57.566406 118.144531 C 57.398438 117.988281 57.171875 117.910156 56.886719 117.910156 C 56.542969 117.910156 56.144531 118.042969 55.679688 118.304688 L 55.679688 117.726562 C 56.117188 117.519531 56.546875 117.417969 56.976562 117.417969 C 57.4375 117.417969 57.808594 117.542969 58.089844 117.789062 C 58.367188 118.039062 58.507812 118.367188 58.507812 118.777344 C 58.507812 119.070312 58.4375 119.332031 58.296875 119.558594 C 58.15625 119.789062 57.894531 120.066406 57.511719 120.390625 L 57.257812 120.605469 C 56.734375 121.050781 56.429688 121.476562 56.347656 121.882812 L 58.484375 121.882812 L 58.484375 122.457031 "/>
<path style=" stroke:none;fill-rule:nonzero;fill:rgb(0%,0%,0%);fill-opacity:1;" d="M 51.941406 92.304688 L 51.941406 91.855469 L 54.644531 91.855469 L 54.644531 92.304688 Z M 56.015625 94.109375 L 56.015625 93.617188 L 57 93.617188 L 57 89.738281 L 56.015625 89.984375 L 56.015625 89.480469 L 57.65625 89.070312 L 57.65625 93.617188 L 58.640625 93.617188 L 58.640625 94.109375 "/>
<path style=" stroke:none;fill-rule:nonzero;fill:rgb(0%,0%,0%);fill-opacity:1;" d="M 56.015625 37.417969 L 56.015625 36.925781 L 57 36.925781 L 57 33.046875 L 56.015625 33.292969 L 56.015625 32.785156 L 57.65625 32.378906 L 57.65625 36.925781 L 58.640625 36.925781 L 58.640625 37.417969 "/>
<path style=" stroke:none;fill-rule:nonzero;fill:rgb(0%,0%,0%);fill-opacity:1;" d="M 55.558594 9.070312 L 55.558594 8.496094 C 55.746094 8.050781 56.132812 7.566406 56.714844 7.039062 L 57.089844 6.707031 C 57.570312 6.269531 57.8125 5.835938 57.8125 5.40625 C 57.8125 5.132812 57.730469 4.914062 57.566406 4.757812 C 57.398438 4.601562 57.171875 4.523438 56.886719 4.523438 C 56.542969 4.523438 56.144531 4.65625 55.679688 4.917969 L 55.679688 4.339844 C 56.117188 4.136719 56.546875 4.03125 56.976562 4.03125 C 57.4375 4.03125 57.808594 4.15625 58.089844 4.402344 C 58.367188 4.652344 58.507812 4.980469 58.507812 5.390625 C 58.507812 5.683594 58.4375 5.945312 58.296875 6.175781 C 58.15625 6.402344 57.894531 6.679688 57.511719 7.003906 L 57.257812 7.222656 C 56.734375 7.664062 56.429688 8.089844 56.347656 8.496094 L 58.484375 8.496094 L 58.484375 9.070312 "/>
<path style=" stroke:none;fill-rule:nonzero;fill:rgb(0%,0%,0%);fill-opacity:1;" d="M 57.125 72.121094 C 56.617188 72.121094 56.207031 71.882812 55.894531 71.40625 C 55.582031 70.929688 55.421875 70.308594 55.421875 69.539062 C 55.421875 68.761719 55.582031 68.140625 55.898438 67.667969 C 56.214844 67.195312 56.628906 66.960938 57.144531 66.960938 C 57.660156 66.960938 58.078125 67.195312 58.390625 67.667969 C 58.707031 68.140625 58.863281 68.761719 58.863281 69.527344 C 58.863281 70.316406 58.707031 70.945312 58.390625 71.417969 C 58.078125 71.886719 57.652344 72.121094 57.125 72.121094 Z M 57.132812 71.632812 C 57.824219 71.632812 58.171875 70.925781 58.171875 69.519531 C 58.171875 68.140625 57.828125 67.453125 57.144531 67.453125 C 56.460938 67.453125 56.121094 68.148438 56.121094 69.539062 C 56.121094 70.933594 56.457031 71.632812 57.132812 71.632812 "/>
<path style="fill:none;stroke-width:25;stroke-linecap:round;stroke-linejoin:round;stroke:rgb(72.068787%,44.163513%,100%);stroke-opacity:1;stroke-miterlimit:10;" d="M 351.484375 819.6875 L 361.953125 829.765625 M 361.953125 829.765625 L 387.65625 851.40625 M 387.65625 851.40625 L 413.320312 869.023438 L 439.023438 882.96875 L 464.6875 893.710938 L 490.390625 901.640625 M 490.390625 901.640625 L 516.09375 907.1875 L 541.757812 910.820312 L 567.460938 912.890625 L 593.164062 913.867188 L 618.828125 914.140625 L 644.53125 914.179688 L 670.234375 914.335938 L 695.898438 915.117188 L 721.601562 916.875 L 747.265625 920.039062 L 772.96875 925.078125 L 798.671875 932.382812 L 824.335938 942.34375 L 850.039062 955.429688 L 875.742188 972.070312 L 901.40625 992.65625 M 901.40625 992.65625 L 918.4375 1008.671875 " transform="matrix(0.1,0,0,-0.1,0,126)"/>
<path style=" stroke:none;fill-rule:nonzero;fill:rgb(59.959412%,19.993591%,100%);fill-opacity:1;" d="M 42.882812 24.972656 L 42.210938 27.664062 L 42.210938 27.832031 C 42.210938 27.945312 42.378906 28 42.714844 28 L 42.882812 28 C 43.105469 28 43.21875 28.054688 43.21875 28.167969 C 43.21875 28.28125 43.164062 28.335938 43.050781 28.335938 L 40.359375 28.335938 C 40.246094 28.335938 40.191406 28.28125 40.191406 28.167969 C 40.191406 28.054688 40.246094 28 40.359375 28 C 40.917969 28 41.199219 27.945312 41.199219 27.832031 C 41.3125 27.832031 41.367188 27.71875 41.367188 27.496094 L 42.882812 21.773438 C 42.882812 21.660156 42.882812 21.546875 42.882812 21.4375 C 42.882812 21.4375 42.828125 21.378906 42.714844 21.269531 C 42.488281 21.269531 42.320312 21.269531 42.210938 21.269531 C 41.984375 21.269531 41.871094 21.269531 41.871094 21.269531 C 41.871094 21.042969 41.929688 20.933594 42.042969 20.933594 L 45.742188 20.933594 C 46.53125 20.933594 47.148438 21.210938 47.59375 21.773438 C 47.707031 21.996094 47.765625 22.277344 47.765625 22.613281 C 47.765625 23.175781 47.484375 23.679688 46.921875 24.128906 C 46.25 24.691406 45.519531 24.972656 44.734375 24.972656 Z M 43.722656 21.773438 L 43.050781 24.632812 L 44.566406 24.632812 C 45.238281 24.632812 45.800781 24.464844 46.25 24.128906 C 46.472656 23.792969 46.640625 23.34375 46.753906 22.78125 C 46.753906 22.558594 46.753906 22.390625 46.753906 22.277344 C 46.753906 21.605469 46.304688 21.269531 45.40625 21.269531 L 44.230469 21.269531 C 44.003906 21.269531 43.894531 21.324219 43.894531 21.4375 C 43.78125 21.4375 43.722656 21.546875 43.722656 21.773438 "/>
<path style="fill:none;stroke-width:25;stroke-linecap:round;stroke-linejoin:round;stroke:rgb(72.068787%,44.163513%,100%);stroke-opacity:1;stroke-miterlimit:10;" d="M 918.4375 725.195312 L 927.109375 716.757812 M 927.109375 716.757812 L 952.8125 694.804688 M 952.8125 694.804688 L 978.476562 676.953125 L 1004.179688 662.773438 M 1004.179688 662.773438 L 1029.84375 651.835938 L 1055.546875 643.710938 L 1081.25 638.007812 L 1106.914062 634.257812 M 1106.914062 634.257812 L 1132.617188 632.070312 L 1158.320312 631.054688 L 1183.984375 630.742188 L 1209.6875 630.703125 L 1235.390625 630.546875 L 1261.054688 629.84375 L 1286.757812 628.164062 L 1312.421875 625.117188 M 1312.421875 625.117188 L 1338.125 620.234375 L 1363.828125 613.085938 L 1389.492188 603.320312 L 1415.195312 590.429688 M 1415.195312 590.429688 L 1440.898438 574.0625 L 1466.5625 553.789062 M 1466.5625 553.789062 L 1485.351562 536.210938 " transform="matrix(0.1,0,0,-0.1,0,126)"/>
</g>
</svg>
