<?xml version="1.0" encoding="UTF-8"?>
<svg xmlns="http://www.w3.org/2000/svg" xmlns:xlink="http://www.w3.org/1999/xlink" width="555pt" height="555pt" viewBox="0 0 555 555" version="1.1">
<defs>
<clipPath id="clip1">
  <path d="M 6.9375 252 L 44 252 L 44 301 L 6.9375 301 Z M 6.9375 252 "/>
</clipPath>
<clipPath id="clip2">
  <path d="M 6.9375 381 L 44 381 L 44 430 L 6.9375 430 Z M 6.9375 381 "/>
</clipPath>
<clipPath id="clip3">
  <path d="M 321 510 L 370 510 L 370 548.0625 L 321 548.0625 Z M 321 510 "/>
</clipPath>
<clipPath id="clip4">
  <path d="M 6.9375 445 L 44 445 L 44 494 L 6.9375 494 Z M 6.9375 445 "/>
</clipPath>
<clipPath id="clip5">
  <path d="M 11 297 L 19.425781 297 L 19.425781 299 L 11 299 Z M 11 297 "/>
</clipPath>
<clipPath id="clip6">
  <path d="M 54 535 L 62.4375 535 L 62.4375 537 L 54 537 Z M 54 535 "/>
</clipPath>
<clipPath id="clip7">
  <path d="M 54 406 L 62.4375 406 L 62.4375 408 L 54 408 Z M 54 406 "/>
</clipPath>
</defs>
<g id="surface1">
<rect x="0" y="0" width="555" height="555" style="fill:rgb(100%,100%,100%);fill-opacity:1;stroke:none;"/>
<path style="fill:none;stroke-width:13.875;stroke-linecap:butt;stroke-linejoin:round;stroke:rgb(64.646912%,64.646912%,64.646912%);stroke-opacity:1;stroke-miterlimit:10;" d="M 201.171875 201.171875 L 201.171875 5355.507812 " transform="matrix(0.1,0,0,-0.1,0,555)"/>
<path style="fill:none;stroke-width:13.875;stroke-linecap:butt;stroke-linejoin:round;stroke:rgb(64.646912%,64.646912%,64.646912%);stroke-opacity:1;stroke-miterlimit:10;" d="M 853.320312 201.171875 L 853.320312 5355.507812 " transform="matrix(0.1,0,0,-0.1,0,555)"/>
<path style="fill:none;stroke-width:13.875;stroke-linecap:butt;stroke-linejoin:round;stroke:rgb(64.646912%,64.646912%,64.646912%);stroke-opacity:1;stroke-miterlimit:10;" d="M 1505.390625 201.171875 L 1505.390625 5355.507812 " transform="matrix(0.1,0,0,-0.1,0,555)"/>
<path style="fill:none;stroke-width:13.875;stroke-linecap:butt;stroke-linejoin:round;stroke:rgb(64.646912%,64.646912%,64.646912%);stroke-opacity:1;stroke-miterlimit:10;" d="M 2157.539062 201.171875 L 2157.539062 5355.507812 " transform="matrix(0.1,0,0,-0.1,0,555)"/>
<path style="fill:none;stroke-width:13.875;stroke-linecap:butt;stroke-linejoin:round;stroke:rgb(64.646912%,64.646912%,64.646912%);stroke-opacity:1;stroke-miterlimit:10;" d="M 2809.648438 201.171875 L 2809.648438 5355.507812 " transform="matrix(0.1,0,0,-0.1,0,555)"/>
<path style="fill:none;stroke-width:13.875;stroke-linecap:butt;stroke-linejoin:round;stroke:rgb(64.646912%,64.646912%,64.646912%);stroke-opacity:1;stroke-miterlimit:10;" d="M 3461.757812 201.171875 L 3461.757812 5355.507812 " transform="matrix(0.1,0,0,-0.1,0,555)"/>
<path style="fill:none;stroke-width:13.875;stroke-linecap:butt;stroke-linejoin:round;stroke:rgb(64.646912%,64.646912%,64.646912%);stroke-opacity:1;stroke-miterlimit:10;" d="M 4113.867188 201.171875 L 4113.867188 5355.507812 " transform="matrix(0.1,0,0,-0.1,0,555)"/>
<path style="fill:none;stroke-width:13.875;stroke-linecap:butt;stroke-linejoin:round;stroke:rgb(64.646912%,64.646912%,64.646912%);stroke-opacity:1;stroke-miterlimit:10;" d="M 4765.976562 201.171875 L 4765.976562 5355.507812 " transform="matrix(0.1,0,0,-0.1,0,555)"/>
<path style="fill:none;stroke-width:13.875;stroke-linecap:butt;stroke-linejoin:round;stroke:rgb(64.646912%,64.646912%,64.646912%);stroke-opacity:1;stroke-miterlimit:10;" d="M 5418.085938 201.171875 L 5418.085938 5355.507812 " transform="matrix(0.1,0,0,-0.1,0,555)"/>
<path style="fill:none;stroke-width:13.875;stroke-linecap:butt;stroke-linejoin:round;stroke:rgb(91.40625%,91.40625%,91.40625%);stroke-opacity:1;stroke-miterlimit:10;" d="M 527.226562 201.171875 L 527.226562 5355.507812 " transform="matrix(0.1,0,0,-0.1,0,555)"/>
<path style="fill:none;stroke-width:13.875;stroke-linecap:butt;stroke-linejoin:round;stroke:rgb(91.40625%,91.40625%,91.40625%);stroke-opacity:1;stroke-miterlimit:10;" d="M 1179.375 201.171875 L 1179.375 5355.507812 " transform="matrix(0.1,0,0,-0.1,0,555)"/>
<path style="fill:none;stroke-width:13.875;stroke-linecap:butt;stroke-linejoin:round;stroke:rgb(91.40625%,91.40625%,91.40625%);stroke-opacity:1;stroke-miterlimit:10;" d="M 1831.445312 201.171875 L 1831.445312 5355.507812 " transform="matrix(0.1,0,0,-0.1,0,555)"/>
<path style="fill:none;stroke-width:13.875;stroke-linecap:butt;stroke-linejoin:round;stroke:rgb(91.40625%,91.40625%,91.40625%);stroke-opacity:1;stroke-miterlimit:10;" d="M 2483.59375 201.171875 L 2483.59375 5355.507812 " transform="matrix(0.1,0,0,-0.1,0,555)"/>
<path style="fill:none;stroke-width:13.875;stroke-linecap:butt;stroke-linejoin:round;stroke:rgb(91.40625%,91.40625%,91.40625%);stroke-opacity:1;stroke-miterlimit:10;" d="M 3135.703125 201.171875 L 3135.703125 5355.507812 " transform="matrix(0.1,0,0,-0.1,0,555)"/>
<path style="fill:none;stroke-width:13.875;stroke-linecap:butt;stroke-linejoin:round;stroke:rgb(91.40625%,91.40625%,91.40625%);stroke-opacity:1;stroke-miterlimit:10;" d="M 3787.8125 201.171875 L 3787.8125 5355.507812 " transform="matrix(0.1,0,0,-0.1,0,555)"/>
<path style="fill:none;stroke-width:13.875;stroke-linecap:butt;stroke-linejoin:round;stroke:rgb(91.40625%,91.40625%,91.40625%);stroke-opacity:1;stroke-miterlimit:10;" d="M 4439.921875 201.171875 L 4439.921875 5355.507812 " transform="matrix(0.1,0,0,-0.1,0,555)"/>
<path style="fill:none;stroke-width:13.875;stroke-linecap:butt;stroke-linejoin:round;stroke:rgb(91.40625%,91.40625%,91.40625%);stroke-opacity:1;stroke-miterlimit:10;" d="M 5092.03125 201.171875 L 5092.03125 5355.507812 " transform="matrix(0.1,0,0,-0.1,0,555)"/>
<path style="fill:none;stroke-width:13.875;stroke-linecap:butt;stroke-linejoin:round;stroke:rgb(64.646912%,64.646912%,64.646912%);stroke-opacity:1;stroke-miterlimit:10;" d="M 201.171875 201.171875 L 5418.085938 201.171875 " transform="matrix(0.1,0,0,-0.1,0,555)"/>
<path style="fill:none;stroke-width:13.875;stroke-linecap:butt;stroke-linejoin:round;stroke:rgb(64.646912%,64.646912%,64.646912%);stroke-opacity:1;stroke-miterlimit:10;" d="M 201.171875 1489.765625 L 5418.085938 1489.765625 " transform="matrix(0.1,0,0,-0.1,0,555)"/>
<path style="fill:none;stroke-width:13.875;stroke-linecap:butt;stroke-linejoin:round;stroke:rgb(64.646912%,64.646912%,64.646912%);stroke-opacity:1;stroke-miterlimit:10;" d="M 201.171875 2778.359375 L 5418.085938 2778.359375 " transform="matrix(0.1,0,0,-0.1,0,555)"/>
<path style="fill:none;stroke-width:13.875;stroke-linecap:butt;stroke-linejoin:round;stroke:rgb(64.646912%,64.646912%,64.646912%);stroke-opacity:1;stroke-miterlimit:10;" d="M 201.171875 4066.914062 L 5418.085938 4066.914062 " transform="matrix(0.1,0,0,-0.1,0,555)"/>
<path style="fill:none;stroke-width:13.875;stroke-linecap:butt;stroke-linejoin:round;stroke:rgb(64.646912%,64.646912%,64.646912%);stroke-opacity:1;stroke-miterlimit:10;" d="M 201.171875 5355.507812 L 5418.085938 5355.507812 " transform="matrix(0.1,0,0,-0.1,0,555)"/>
<path style="fill:none;stroke-width:13.875;stroke-linecap:butt;stroke-linejoin:round;stroke:rgb(91.40625%,91.40625%,91.40625%);stroke-opacity:1;stroke-miterlimit:10;" d="M 201.171875 845.46875 L 5418.085938 845.46875 " transform="matrix(0.1,0,0,-0.1,0,555)"/>
<path style="fill:none;stroke-width:13.875;stroke-linecap:butt;stroke-linejoin:round;stroke:rgb(91.40625%,91.40625%,91.40625%);stroke-opacity:1;stroke-miterlimit:10;" d="M 201.171875 2134.0625 L 5418.085938 2134.0625 " transform="matrix(0.1,0,0,-0.1,0,555)"/>
<path style="fill:none;stroke-width:13.875;stroke-linecap:butt;stroke-linejoin:round;stroke:rgb(91.40625%,91.40625%,91.40625%);stroke-opacity:1;stroke-miterlimit:10;" d="M 201.171875 3422.617188 L 5418.085938 3422.617188 " transform="matrix(0.1,0,0,-0.1,0,555)"/>
<path style="fill:none;stroke-width:13.875;stroke-linecap:butt;stroke-linejoin:round;stroke:rgb(91.40625%,91.40625%,91.40625%);stroke-opacity:1;stroke-miterlimit:10;" d="M 201.171875 4711.210938 L 5418.085938 4711.210938 " transform="matrix(0.1,0,0,-0.1,0,555)"/>
<path style="fill:none;stroke-width:13.875;stroke-linecap:square;stroke-linejoin:miter;stroke:rgb(0%,0%,0%);stroke-opacity:1;stroke-miterlimit:10;" d="M 4800.664062 4073.867188 C 4800.664062 4050.859375 4782.03125 4032.226562 4759.023438 4032.226562 C 4736.054688 4032.226562 4717.421875 4050.859375 4717.421875 4073.867188 C 4717.421875 4096.835938 4736.054688 4115.46875 4759.023438 4115.46875 C 4782.03125 4115.46875 4800.664062 4096.835938 4800.664062 4073.867188 Z M 4800.664062 4073.867188 " transform="matrix(0.1,0,0,-0.1,0,555)"/>
<path style=" stroke:none;fill-rule:nonzero;fill:rgb(0%,0%,0%);fill-opacity:1;" d="M 480.066406 147.613281 C 480.066406 149.914062 478.203125 151.777344 475.902344 151.777344 C 473.605469 151.777344 471.742188 149.914062 471.742188 147.613281 C 471.742188 145.316406 473.605469 143.453125 475.902344 143.453125 C 478.203125 143.453125 480.066406 145.316406 480.066406 147.613281 "/>
<path style="fill:none;stroke-width:13.875;stroke-linecap:square;stroke-linejoin:miter;stroke:rgb(0%,0%,0%);stroke-opacity:1;stroke-miterlimit:10;" d="M 3496.445312 2141.015625 C 3496.445312 2118.007812 3477.773438 2099.375 3454.804688 2099.375 C 3431.835938 2099.375 3413.164062 2118.007812 3413.164062 2141.015625 C 3413.164062 2163.984375 3431.835938 2182.617188 3454.804688 2182.617188 C 3477.773438 2182.617188 3496.445312 2163.984375 3496.445312 2141.015625 Z M 3496.445312 2141.015625 " transform="matrix(0.1,0,0,-0.1,0,555)"/>
<path style=" stroke:none;fill-rule:nonzero;fill:rgb(0%,0%,0%);fill-opacity:1;" d="M 349.644531 340.898438 C 349.644531 343.199219 347.777344 345.0625 345.480469 345.0625 C 343.183594 345.0625 341.316406 343.199219 341.316406 340.898438 C 341.316406 338.601562 343.183594 336.738281 345.480469 336.738281 C 347.777344 336.738281 349.644531 338.601562 349.644531 340.898438 "/>
<path style="fill:none;stroke-width:13.875;stroke-linecap:square;stroke-linejoin:miter;stroke:rgb(0%,0%,0%);stroke-opacity:1;stroke-miterlimit:10;" d="M 1540.117188 4718.125 C 1540.117188 4695.15625 1521.445312 4676.523438 1498.476562 4676.523438 C 1475.507812 4676.523438 1456.835938 4695.15625 1456.835938 4718.125 C 1456.835938 4741.132812 1475.507812 4759.765625 1498.476562 4759.765625 C 1521.445312 4759.765625 1540.117188 4741.132812 1540.117188 4718.125 Z M 1540.117188 4718.125 " transform="matrix(0.1,0,0,-0.1,0,555)"/>
<path style=" stroke:none;fill-rule:nonzero;fill:rgb(0%,0%,0%);fill-opacity:1;" d="M 154.011719 83.1875 C 154.011719 85.484375 152.144531 87.347656 149.847656 87.347656 C 147.550781 87.347656 145.683594 85.484375 145.683594 83.1875 C 145.683594 80.886719 147.550781 79.023438 149.847656 79.023438 C 152.144531 79.023438 154.011719 80.886719 154.011719 83.1875 "/>
<path style="fill:none;stroke-width:13.875;stroke-linecap:square;stroke-linejoin:miter;stroke:rgb(0%,0%,0%);stroke-opacity:1;stroke-miterlimit:10;" d="M 2192.226562 4073.867188 C 2192.226562 4050.859375 2173.554688 4032.226562 2150.585938 4032.226562 C 2127.578125 4032.226562 2108.945312 4050.859375 2108.945312 4073.867188 C 2108.945312 4096.835938 2127.578125 4115.46875 2150.585938 4115.46875 C 2173.554688 4115.46875 2192.226562 4096.835938 2192.226562 4073.867188 Z M 2192.226562 4073.867188 " transform="matrix(0.1,0,0,-0.1,0,555)"/>
<path style=" stroke:none;fill-rule:nonzero;fill:rgb(0%,0%,0%);fill-opacity:1;" d="M 219.222656 147.613281 C 219.222656 149.914062 217.355469 151.777344 215.058594 151.777344 C 212.757812 151.777344 210.894531 149.914062 210.894531 147.613281 C 210.894531 145.316406 212.757812 143.453125 215.058594 143.453125 C 217.355469 143.453125 219.222656 145.316406 219.222656 147.613281 "/>
<path style="fill:none;stroke-width:13.875;stroke-linecap:square;stroke-linejoin:miter;stroke:rgb(0%,0%,0%);stroke-opacity:1;stroke-miterlimit:10;" d="M 887.96875 4073.867188 C 887.96875 4050.859375 869.335938 4032.226562 846.367188 4032.226562 C 823.359375 4032.226562 804.726562 4050.859375 804.726562 4073.867188 C 804.726562 4096.835938 823.359375 4115.46875 846.367188 4115.46875 C 869.335938 4115.46875 887.96875 4096.835938 887.96875 4073.867188 Z M 887.96875 4073.867188 " transform="matrix(0.1,0,0,-0.1,0,555)"/>
<path style=" stroke:none;fill-rule:nonzero;fill:rgb(0%,0%,0%);fill-opacity:1;" d="M 88.796875 147.613281 C 88.796875 149.914062 86.933594 151.777344 84.636719 151.777344 C 82.335938 151.777344 80.472656 149.914062 80.472656 147.613281 C 80.472656 145.316406 82.335938 143.453125 84.636719 143.453125 C 86.933594 143.453125 88.796875 145.316406 88.796875 147.613281 "/>
<g clip-path="url(#clip1)" clip-rule="nonzero">
<path style="fill:none;stroke-width:13.875;stroke-linecap:square;stroke-linejoin:miter;stroke:rgb(0%,0%,0%);stroke-opacity:1;stroke-miterlimit:10;" d="M 235.859375 2785.273438 C 235.859375 2762.304688 217.226562 2743.671875 194.257812 2743.671875 C 171.25 2743.671875 152.617188 2762.304688 152.617188 2785.273438 C 152.617188 2808.28125 171.25 2826.914062 194.257812 2826.914062 C 217.226562 2826.914062 235.859375 2808.28125 235.859375 2785.273438 Z M 235.859375 2785.273438 " transform="matrix(0.1,0,0,-0.1,0,555)"/>
</g>
<path style=" stroke:none;fill-rule:nonzero;fill:rgb(0%,0%,0%);fill-opacity:1;" d="M 23.585938 276.472656 C 23.585938 278.769531 21.722656 280.632812 19.425781 280.632812 C 17.125 280.632812 15.261719 278.769531 15.261719 276.472656 C 15.261719 274.171875 17.125 272.308594 19.425781 272.308594 C 21.722656 272.308594 23.585938 274.171875 23.585938 276.472656 "/>
<path style="fill:none;stroke-width:13.875;stroke-linecap:square;stroke-linejoin:miter;stroke:rgb(0%,0%,0%);stroke-opacity:1;stroke-miterlimit:10;" d="M 2844.335938 2785.273438 C 2844.335938 2762.304688 2825.664062 2743.671875 2802.695312 2743.671875 C 2779.726562 2743.671875 2761.054688 2762.304688 2761.054688 2785.273438 C 2761.054688 2808.28125 2779.726562 2826.914062 2802.695312 2826.914062 C 2825.664062 2826.914062 2844.335938 2808.28125 2844.335938 2785.273438 Z M 2844.335938 2785.273438 " transform="matrix(0.1,0,0,-0.1,0,555)"/>
<path style=" stroke:none;fill-rule:nonzero;fill:rgb(0%,0%,0%);fill-opacity:1;" d="M 284.433594 276.472656 C 284.433594 278.769531 282.566406 280.632812 280.269531 280.632812 C 277.972656 280.632812 276.105469 278.769531 276.105469 276.472656 C 276.105469 274.171875 277.972656 272.308594 280.269531 272.308594 C 282.566406 272.308594 284.433594 274.171875 284.433594 276.472656 "/>
<path style="fill:none;stroke-width:13.875;stroke-linecap:square;stroke-linejoin:miter;stroke:rgb(0%,0%,0%);stroke-opacity:1;stroke-miterlimit:10;" d="M 4148.554688 2785.273438 C 4148.554688 2762.304688 4129.921875 2743.671875 4106.914062 2743.671875 C 4083.945312 2743.671875 4065.3125 2762.304688 4065.3125 2785.273438 C 4065.3125 2808.28125 4083.945312 2826.914062 4106.914062 2826.914062 C 4129.921875 2826.914062 4148.554688 2808.28125 4148.554688 2785.273438 Z M 4148.554688 2785.273438 " transform="matrix(0.1,0,0,-0.1,0,555)"/>
<path style=" stroke:none;fill-rule:nonzero;fill:rgb(0%,0%,0%);fill-opacity:1;" d="M 414.855469 276.472656 C 414.855469 278.769531 412.992188 280.632812 410.691406 280.632812 C 408.394531 280.632812 406.53125 278.769531 406.53125 276.472656 C 406.53125 274.171875 408.394531 272.308594 410.691406 272.308594 C 412.992188 272.308594 414.855469 274.171875 414.855469 276.472656 "/>
<path style="fill:none;stroke-width:13.875;stroke-linecap:square;stroke-linejoin:miter;stroke:rgb(0%,0%,0%);stroke-opacity:1;stroke-miterlimit:10;" d="M 3496.445312 852.421875 C 3496.445312 829.453125 3477.773438 810.820312 3454.804688 810.820312 C 3431.835938 810.820312 3413.164062 829.453125 3413.164062 852.421875 C 3413.164062 875.429688 3431.835938 894.0625 3454.804688 894.0625 C 3477.773438 894.0625 3496.445312 875.429688 3496.445312 852.421875 Z M 3496.445312 852.421875 " transform="matrix(0.1,0,0,-0.1,0,555)"/>
<path style=" stroke:none;fill-rule:nonzero;fill:rgb(0%,0%,0%);fill-opacity:1;" d="M 349.644531 469.757812 C 349.644531 472.054688 347.777344 473.917969 345.480469 473.917969 C 343.183594 473.917969 341.316406 472.054688 341.316406 469.757812 C 341.316406 467.457031 343.183594 465.59375 345.480469 465.59375 C 347.777344 465.59375 349.644531 467.457031 349.644531 469.757812 "/>
<path style="fill:none;stroke-width:13.875;stroke-linecap:square;stroke-linejoin:miter;stroke:rgb(0%,0%,0%);stroke-opacity:1;stroke-miterlimit:10;" d="M 4148.554688 1496.71875 C 4148.554688 1473.710938 4129.921875 1455.078125 4106.914062 1455.078125 C 4083.945312 1455.078125 4065.3125 1473.710938 4065.3125 1496.71875 C 4065.3125 1519.6875 4083.945312 1538.359375 4106.914062 1538.359375 C 4129.921875 1538.359375 4148.554688 1519.6875 4148.554688 1496.71875 Z M 4148.554688 1496.71875 " transform="matrix(0.1,0,0,-0.1,0,555)"/>
<path style=" stroke:none;fill-rule:nonzero;fill:rgb(0%,0%,0%);fill-opacity:1;" d="M 414.855469 405.328125 C 414.855469 407.628906 412.992188 409.492188 410.691406 409.492188 C 408.394531 409.492188 406.53125 407.628906 406.53125 405.328125 C 406.53125 403.03125 408.394531 401.164062 410.691406 401.164062 C 412.992188 401.164062 414.855469 403.03125 414.855469 405.328125 "/>
<path style="fill:none;stroke-width:13.875;stroke-linecap:square;stroke-linejoin:miter;stroke:rgb(0%,0%,0%);stroke-opacity:1;stroke-miterlimit:10;" d="M 1540.117188 3429.570312 C 1540.117188 3406.5625 1521.445312 3387.929688 1498.476562 3387.929688 C 1475.507812 3387.929688 1456.835938 3406.5625 1456.835938 3429.570312 C 1456.835938 3452.539062 1475.507812 3471.171875 1498.476562 3471.171875 C 1521.445312 3471.171875 1540.117188 3452.539062 1540.117188 3429.570312 Z M 1540.117188 3429.570312 " transform="matrix(0.1,0,0,-0.1,0,555)"/>
<path style=" stroke:none;fill-rule:nonzero;fill:rgb(0%,0%,0%);fill-opacity:1;" d="M 154.011719 212.042969 C 154.011719 214.34375 152.144531 216.207031 149.847656 216.207031 C 147.550781 216.207031 145.683594 214.34375 145.683594 212.042969 C 145.683594 209.746094 147.550781 207.882812 149.847656 207.882812 C 152.144531 207.882812 154.011719 209.746094 154.011719 212.042969 "/>
<g clip-path="url(#clip2)" clip-rule="nonzero">
<path style="fill:none;stroke-width:13.875;stroke-linecap:square;stroke-linejoin:miter;stroke:rgb(0%,0%,0%);stroke-opacity:1;stroke-miterlimit:10;" d="M 235.859375 1496.71875 C 235.859375 1473.710938 217.226562 1455.078125 194.257812 1455.078125 C 171.25 1455.078125 152.617188 1473.710938 152.617188 1496.71875 C 152.617188 1519.6875 171.25 1538.359375 194.257812 1538.359375 C 217.226562 1538.359375 235.859375 1519.6875 235.859375 1496.71875 Z M 235.859375 1496.71875 " transform="matrix(0.1,0,0,-0.1,0,555)"/>
</g>
<path style=" stroke:none;fill-rule:nonzero;fill:rgb(0%,0%,0%);fill-opacity:1;" d="M 23.585938 405.328125 C 23.585938 407.628906 21.722656 409.492188 19.425781 409.492188 C 17.125 409.492188 15.261719 407.628906 15.261719 405.328125 C 15.261719 403.03125 17.125 401.164062 19.425781 401.164062 C 21.722656 401.164062 23.585938 403.03125 23.585938 405.328125 "/>
<path style="fill:none;stroke-width:13.875;stroke-linecap:square;stroke-linejoin:miter;stroke:rgb(0%,0%,0%);stroke-opacity:1;stroke-miterlimit:10;" d="M 887.96875 2785.273438 C 887.96875 2762.304688 869.335938 2743.671875 846.367188 2743.671875 C 823.359375 2743.671875 804.726562 2762.304688 804.726562 2785.273438 C 804.726562 2808.28125 823.359375 2826.914062 846.367188 2826.914062 C 869.335938 2826.914062 887.96875 2808.28125 887.96875 2785.273438 Z M 887.96875 2785.273438 " transform="matrix(0.1,0,0,-0.1,0,555)"/>
<path style=" stroke:none;fill-rule:nonzero;fill:rgb(0%,0%,0%);fill-opacity:1;" d="M 88.796875 276.472656 C 88.796875 278.769531 86.933594 280.632812 84.636719 280.632812 C 82.335938 280.632812 80.472656 278.769531 80.472656 276.472656 C 80.472656 274.171875 82.335938 272.308594 84.636719 272.308594 C 86.933594 272.308594 88.796875 274.171875 88.796875 276.472656 "/>
<path style="fill:none;stroke-width:13.875;stroke-linecap:square;stroke-linejoin:miter;stroke:rgb(0%,0%,0%);stroke-opacity:1;stroke-miterlimit:10;" d="M 2192.226562 2785.273438 C 2192.226562 2762.304688 2173.554688 2743.671875 2150.585938 2743.671875 C 2127.578125 2743.671875 2108.945312 2762.304688 2108.945312 2785.273438 C 2108.945312 2808.28125 2127.578125 2826.914062 2150.585938 2826.914062 C 2173.554688 2826.914062 2192.226562 2808.28125 2192.226562 2785.273438 Z M 2192.226562 2785.273438 " transform="matrix(0.1,0,0,-0.1,0,555)"/>
<path style=" stroke:none;fill-rule:nonzero;fill:rgb(0%,0%,0%);fill-opacity:1;" d="M 219.222656 276.472656 C 219.222656 278.769531 217.355469 280.632812 215.058594 280.632812 C 212.757812 280.632812 210.894531 278.769531 210.894531 276.472656 C 210.894531 274.171875 212.757812 272.308594 215.058594 272.308594 C 217.355469 272.308594 219.222656 274.171875 219.222656 276.472656 "/>
<path style="fill:none;stroke-width:13.875;stroke-linecap:square;stroke-linejoin:miter;stroke:rgb(0%,0%,0%);stroke-opacity:1;stroke-miterlimit:10;" d="M 2844.335938 1496.71875 C 2844.335938 1473.710938 2825.664062 1455.078125 2802.695312 1455.078125 C 2779.726562 1455.078125 2761.054688 1473.710938 2761.054688 1496.71875 C 2761.054688 1519.6875 2779.726562 1538.359375 2802.695312 1538.359375 C 2825.664062 1538.359375 2844.335938 1519.6875 2844.335938 1496.71875 Z M 2844.335938 1496.71875 " transform="matrix(0.1,0,0,-0.1,0,555)"/>
<path style=" stroke:none;fill-rule:nonzero;fill:rgb(0%,0%,0%);fill-opacity:1;" d="M 284.433594 405.328125 C 284.433594 407.628906 282.566406 409.492188 280.269531 409.492188 C 277.972656 409.492188 276.105469 407.628906 276.105469 405.328125 C 276.105469 403.03125 277.972656 401.164062 280.269531 401.164062 C 282.566406 401.164062 284.433594 403.03125 284.433594 405.328125 "/>
<path style="fill:none;stroke-width:13.875;stroke-linecap:square;stroke-linejoin:miter;stroke:rgb(0%,0%,0%);stroke-opacity:1;stroke-miterlimit:10;" d="M 4800.664062 2785.273438 C 4800.664062 2762.304688 4782.03125 2743.671875 4759.023438 2743.671875 C 4736.054688 2743.671875 4717.421875 2762.304688 4717.421875 2785.273438 C 4717.421875 2808.28125 4736.054688 2826.914062 4759.023438 2826.914062 C 4782.03125 2826.914062 4800.664062 2808.28125 4800.664062 2785.273438 Z M 4800.664062 2785.273438 " transform="matrix(0.1,0,0,-0.1,0,555)"/>
<path style=" stroke:none;fill-rule:nonzero;fill:rgb(0%,0%,0%);fill-opacity:1;" d="M 480.066406 276.472656 C 480.066406 278.769531 478.203125 280.632812 475.902344 280.632812 C 473.605469 280.632812 471.742188 278.769531 471.742188 276.472656 C 471.742188 274.171875 473.605469 272.308594 475.902344 272.308594 C 478.203125 272.308594 480.066406 274.171875 480.066406 276.472656 "/>
<path style="fill:none;stroke-width:13.875;stroke-linecap:square;stroke-linejoin:miter;stroke:rgb(0%,0%,0%);stroke-opacity:1;stroke-miterlimit:10;" d="M 4800.664062 2141.015625 C 4800.664062 2118.007812 4782.03125 2099.375 4759.023438 2099.375 C 4736.054688 2099.375 4717.421875 2118.007812 4717.421875 2141.015625 C 4717.421875 2163.984375 4736.054688 2182.617188 4759.023438 2182.617188 C 4782.03125 2182.617188 4800.664062 2163.984375 4800.664062 2141.015625 Z M 4800.664062 2141.015625 " transform="matrix(0.1,0,0,-0.1,0,555)"/>
<path style=" stroke:none;fill-rule:nonzero;fill:rgb(0%,0%,0%);fill-opacity:1;" d="M 480.066406 340.898438 C 480.066406 343.199219 478.203125 345.0625 475.902344 345.0625 C 473.605469 345.0625 471.742188 343.199219 471.742188 340.898438 C 471.742188 338.601562 473.605469 336.738281 475.902344 336.738281 C 478.203125 336.738281 480.066406 338.601562 480.066406 340.898438 "/>
<g clip-path="url(#clip3)" clip-rule="nonzero">
<path style="fill:none;stroke-width:13.875;stroke-linecap:square;stroke-linejoin:miter;stroke:rgb(0%,0%,0%);stroke-opacity:1;stroke-miterlimit:10;" d="M 3496.445312 208.125 C 3496.445312 185.15625 3477.773438 166.484375 3454.804688 166.484375 C 3431.835938 166.484375 3413.164062 185.15625 3413.164062 208.125 C 3413.164062 231.09375 3431.835938 249.765625 3454.804688 249.765625 C 3477.773438 249.765625 3496.445312 231.09375 3496.445312 208.125 Z M 3496.445312 208.125 " transform="matrix(0.1,0,0,-0.1,0,555)"/>
</g>
<path style=" stroke:none;fill-rule:nonzero;fill:rgb(0%,0%,0%);fill-opacity:1;" d="M 349.644531 534.1875 C 349.644531 536.484375 347.777344 538.351562 345.480469 538.351562 C 343.183594 538.351562 341.316406 536.484375 341.316406 534.1875 C 341.316406 531.890625 343.183594 530.023438 345.480469 530.023438 C 347.777344 530.023438 349.644531 531.890625 349.644531 534.1875 "/>
<path style="fill:none;stroke-width:13.875;stroke-linecap:square;stroke-linejoin:miter;stroke:rgb(0%,0%,0%);stroke-opacity:1;stroke-miterlimit:10;" d="M 4148.554688 852.421875 C 4148.554688 829.453125 4129.921875 810.820312 4106.914062 810.820312 C 4083.945312 810.820312 4065.3125 829.453125 4065.3125 852.421875 C 4065.3125 875.429688 4083.945312 894.0625 4106.914062 894.0625 C 4129.921875 894.0625 4148.554688 875.429688 4148.554688 852.421875 Z M 4148.554688 852.421875 " transform="matrix(0.1,0,0,-0.1,0,555)"/>
<path style=" stroke:none;fill-rule:nonzero;fill:rgb(0%,0%,0%);fill-opacity:1;" d="M 414.855469 469.757812 C 414.855469 472.054688 412.992188 473.917969 410.691406 473.917969 C 408.394531 473.917969 406.53125 472.054688 406.53125 469.757812 C 406.53125 467.457031 408.394531 465.59375 410.691406 465.59375 C 412.992188 465.59375 414.855469 467.457031 414.855469 469.757812 "/>
<path style="fill:none;stroke-width:13.875;stroke-linecap:square;stroke-linejoin:miter;stroke:rgb(0%,0%,0%);stroke-opacity:1;stroke-miterlimit:10;" d="M 2192.226562 2141.015625 C 2192.226562 2118.007812 2173.554688 2099.375 2150.585938 2099.375 C 2127.578125 2099.375 2108.945312 2118.007812 2108.945312 2141.015625 C 2108.945312 2163.984375 2127.578125 2182.617188 2150.585938 2182.617188 C 2173.554688 2182.617188 2192.226562 2163.984375 2192.226562 2141.015625 Z M 2192.226562 2141.015625 " transform="matrix(0.1,0,0,-0.1,0,555)"/>
<path style=" stroke:none;fill-rule:nonzero;fill:rgb(0%,0%,0%);fill-opacity:1;" d="M 219.222656 340.898438 C 219.222656 343.199219 217.355469 345.0625 215.058594 345.0625 C 212.757812 345.0625 210.894531 343.199219 210.894531 340.898438 C 210.894531 338.601562 212.757812 336.738281 215.058594 336.738281 C 217.355469 336.738281 219.222656 338.601562 219.222656 340.898438 "/>
<path style="fill:none;stroke-width:13.875;stroke-linecap:square;stroke-linejoin:miter;stroke:rgb(0%,0%,0%);stroke-opacity:1;stroke-miterlimit:10;" d="M 887.96875 2141.015625 C 887.96875 2118.007812 869.335938 2099.375 846.367188 2099.375 C 823.359375 2099.375 804.726562 2118.007812 804.726562 2141.015625 C 804.726562 2163.984375 823.359375 2182.617188 846.367188 2182.617188 C 869.335938 2182.617188 887.96875 2163.984375 887.96875 2141.015625 Z M 887.96875 2141.015625 " transform="matrix(0.1,0,0,-0.1,0,555)"/>
<path style=" stroke:none;fill-rule:nonzero;fill:rgb(0%,0%,0%);fill-opacity:1;" d="M 88.796875 340.898438 C 88.796875 343.199219 86.933594 345.0625 84.636719 345.0625 C 82.335938 345.0625 80.472656 343.199219 80.472656 340.898438 C 80.472656 338.601562 82.335938 336.738281 84.636719 336.738281 C 86.933594 336.738281 88.796875 338.601562 88.796875 340.898438 "/>
<g clip-path="url(#clip4)" clip-rule="nonzero">
<path style="fill:none;stroke-width:13.875;stroke-linecap:square;stroke-linejoin:miter;stroke:rgb(0%,0%,0%);stroke-opacity:1;stroke-miterlimit:10;" d="M 235.859375 852.421875 C 235.859375 829.453125 217.226562 810.820312 194.257812 810.820312 C 171.25 810.820312 152.617188 829.453125 152.617188 852.421875 C 152.617188 875.429688 171.25 894.0625 194.257812 894.0625 C 217.226562 894.0625 235.859375 875.429688 235.859375 852.421875 Z M 235.859375 852.421875 " transform="matrix(0.1,0,0,-0.1,0,555)"/>
</g>
<path style=" stroke:none;fill-rule:nonzero;fill:rgb(0%,0%,0%);fill-opacity:1;" d="M 23.585938 469.757812 C 23.585938 472.054688 21.722656 473.917969 19.425781 473.917969 C 17.125 473.917969 15.261719 472.054688 15.261719 469.757812 C 15.261719 467.457031 17.125 465.59375 19.425781 465.59375 C 21.722656 465.59375 23.585938 467.457031 23.585938 469.757812 "/>
<path style="fill:none;stroke-width:13.875;stroke-linecap:square;stroke-linejoin:miter;stroke:rgb(0%,0%,0%);stroke-opacity:1;stroke-miterlimit:10;" d="M 1540.117188 2785.273438 C 1540.117188 2762.304688 1521.445312 2743.671875 1498.476562 2743.671875 C 1475.507812 2743.671875 1456.835938 2762.304688 1456.835938 2785.273438 C 1456.835938 2808.28125 1475.507812 2826.914062 1498.476562 2826.914062 C 1521.445312 2826.914062 1540.117188 2808.28125 1540.117188 2785.273438 Z M 1540.117188 2785.273438 " transform="matrix(0.1,0,0,-0.1,0,555)"/>
<path style=" stroke:none;fill-rule:nonzero;fill:rgb(0%,0%,0%);fill-opacity:1;" d="M 154.011719 276.472656 C 154.011719 278.769531 152.144531 280.632812 149.847656 280.632812 C 147.550781 280.632812 145.683594 278.769531 145.683594 276.472656 C 145.683594 274.171875 147.550781 272.308594 149.847656 272.308594 C 152.144531 272.308594 154.011719 274.171875 154.011719 276.472656 "/>
<path style="fill:none;stroke-width:13.875;stroke-linecap:square;stroke-linejoin:miter;stroke:rgb(0%,0%,0%);stroke-opacity:1;stroke-miterlimit:10;" d="M 2844.335938 852.421875 C 2844.335938 829.453125 2825.664062 810.820312 2802.695312 810.820312 C 2779.726562 810.820312 2761.054688 829.453125 2761.054688 852.421875 C 2761.054688 875.429688 2779.726562 894.0625 2802.695312 894.0625 C 2825.664062 894.0625 2844.335938 875.429688 2844.335938 852.421875 Z M 2844.335938 852.421875 " transform="matrix(0.1,0,0,-0.1,0,555)"/>
<path style=" stroke:none;fill-rule:nonzero;fill:rgb(0%,0%,0%);fill-opacity:1;" d="M 284.433594 469.757812 C 284.433594 472.054688 282.566406 473.917969 280.269531 473.917969 C 277.972656 473.917969 276.105469 472.054688 276.105469 469.757812 C 276.105469 467.457031 277.972656 465.59375 280.269531 465.59375 C 282.566406 465.59375 284.433594 467.457031 284.433594 469.757812 "/>
<path style="fill:none;stroke-width:27.75;stroke-linecap:butt;stroke-linejoin:round;stroke:rgb(100%,0%,0%);stroke-opacity:1;stroke-miterlimit:10;" d="M 201.171875 2778.359375 L 857.5 4075.15625 L 881.640625 4121.679688 L 907.734375 4169.960938 L 934.648438 4217.65625 L 961.015625 4262.1875 L 986.523438 4303.28125 L 1014.84375 4346.601562 L 1040.3125 4383.4375 L 1067.460938 4420.625 L 1092.109375 4452.382812 L 1119.023438 4485 L 1144.335938 4513.671875 L 1170.820312 4541.5625 L 1196.71875 4566.796875 L 1223.789062 4591.054688 L 1249.882812 4612.265625 L 1276.5625 4631.875 L 1303.046875 4649.140625 L 1327.382812 4663.164062 L 1355.234375 4677.03125 L 1380.15625 4687.421875 L 1406.757812 4696.445312 L 1432.1875 4703.085938 L 1460.429688 4708.125 L 1484.882812 4710.585938 L 1512.65625 4711.132812 L 1537.96875 4709.609375 L 1565.664062 4705.703125 L 1589.53125 4700.46875 L 1616.757812 4692.421875 L 1643.007812 4682.539062 L 1669.257812 4670.546875 L 1695.429688 4656.484375 L 1720.546875 4641.054688 L 1747.734375 4622.226562 L 1773.632812 4602.226562 L 1800.898438 4578.945312 L 1825.546875 4555.9375 L 1852.8125 4528.359375 L 1878.945312 4499.84375 L 1904.960938 4469.335938 L 1932.1875 4435.273438 L 1957.226562 4401.914062 L 1982.890625 4365.742188 L 2011.25 4323.554688 L 2036.914062 4283.203125 L 2063.125 4239.921875 L 2089.804688 4193.710938 L 2114.375 4149.375 L 2140.507812 4100.117188 L 2166.445312 4049.257812 L 2797.695312 2801.914062 L 2821.640625 2754.804688 L 2849.648438 2701.679688 L 2876.40625 2653.203125 L 2900.234375 2611.71875 L 2927.109375 2567.148438 L 2954.101562 2524.492188 L 2981.015625 2484.21875 L 3005.9375 2448.867188 L 3031.757812 2414.21875 L 3058.4375 2380.507812 L 3085.039062 2349.0625 L 3112.421875 2318.945312 L 3136.523438 2294.335938 L 3163.671875 2268.671875 L 3190.9375 2245.195312 L 3217.1875 2224.6875 L 3241.054688 2207.890625 L 3269.375 2190.117188 L 3293.398438 2176.992188 L 3321.367188 2163.90625 L 3346.09375 2154.335938 L 3373.242188 2145.9375 L 3399.0625 2140 L 3426.054688 2135.976562 L 3450.820312 2134.257812 L 3477.539062 2134.414062 L 3505.234375 2136.914062 L 3529.414062 2141.015625 L 3555.507812 2147.382812 L 3582.421875 2156.132812 L 3608.789062 2166.835938 L 3634.296875 2179.179688 L 3662.617188 2195.195312 L 3688.085938 2211.640625 L 3715.234375 2231.40625 L 3739.882812 2251.25 L 3766.796875 2275.039062 L 3792.109375 2299.414062 L 3818.59375 2326.992188 L 3844.453125 2355.976562 L 3871.5625 2388.515625 L 3897.65625 2421.953125 L 3924.335938 2458.28125 L 3950.820312 2496.445312 L 3975.117188 2533.398438 L 4003.007812 2577.929688 L 4027.929688 2619.765625 L 4054.53125 2666.445312 L 4079.960938 2713.125 L 4108.203125 2767.226562 L 4132.695312 2815.546875 L 5418.085938 5355.507812 " transform="matrix(0.1,0,0,-0.1,0,555)"/>
<path style="fill:none;stroke-width:27.75;stroke-linecap:butt;stroke-linejoin:round;stroke:rgb(100%,0%,100%);stroke-opacity:1;stroke-miterlimit:10;" d="M 201.171875 1489.765625 L 857.5 2786.601562 L 881.640625 2833.125 L 907.734375 2881.40625 L 934.648438 2929.101562 L 961.015625 2973.632812 L 986.523438 3014.726562 L 1014.84375 3058.046875 L 1040.3125 3094.882812 L 1067.460938 3132.070312 L 1092.109375 3163.789062 L 1119.023438 3196.445312 L 1144.335938 3225.117188 L 1170.820312 3253.007812 L 1196.71875 3278.242188 L 1223.789062 3302.460938 L 1249.882812 3323.710938 L 1276.5625 3343.28125 L 1303.046875 3360.585938 L 1327.382812 3374.609375 L 1355.234375 3388.476562 L 1380.15625 3398.867188 L 1406.757812 3407.890625 L 1432.1875 3414.492188 L 1460.429688 3419.570312 L 1484.882812 3421.992188 L 1512.65625 3422.578125 L 1537.96875 3421.054688 L 1565.664062 3417.148438 L 1589.53125 3411.914062 L 1616.757812 3403.867188 L 1643.007812 3393.945312 L 1669.257812 3381.953125 L 1695.429688 3367.929688 L 1720.546875 3352.5 L 1747.734375 3333.671875 L 1773.632812 3313.632812 L 1800.898438 3290.390625 L 1825.546875 3267.382812 L 1852.8125 3239.804688 L 1878.945312 3211.289062 L 1904.960938 3180.742188 L 1932.1875 3146.679688 L 1957.226562 3113.320312 L 1982.890625 3077.1875 L 2011.25 3034.960938 L 2036.914062 2994.648438 L 2063.125 2951.328125 L 2089.804688 2905.15625 L 2114.375 2860.820312 L 2140.507812 2811.523438 L 2166.445312 2760.703125 L 2797.695312 1513.320312 L 2821.640625 1466.25 L 2849.648438 1413.125 L 2876.40625 1364.609375 L 2900.234375 1323.164062 L 2927.109375 1278.59375 L 2954.101562 1235.9375 L 2981.015625 1195.664062 L 3005.9375 1160.273438 L 3031.757812 1125.625 L 3058.4375 1091.914062 L 3085.039062 1060.46875 L 3112.421875 1030.351562 L 3136.523438 1005.742188 L 3163.671875 980.117188 L 3190.9375 956.601562 L 3217.1875 936.09375 L 3241.054688 919.296875 L 3269.375 901.5625 L 3293.398438 888.4375 L 3321.367188 875.351562 L 3346.09375 865.742188 L 3373.242188 857.34375 L 3399.0625 851.445312 L 3426.054688 847.421875 L 3450.820312 845.664062 L 3477.539062 845.859375 L 3505.234375 848.359375 L 3529.414062 852.421875 L 3555.507812 858.789062 L 3582.421875 867.539062 L 3608.789062 878.242188 L 3634.296875 890.585938 L 3662.617188 906.601562 L 3688.085938 923.085938 L 3715.234375 942.851562 L 3739.882812 962.695312 L 3766.796875 986.445312 L 3792.109375 1010.859375 L 3818.59375 1038.398438 L 3844.453125 1067.382812 L 3871.5625 1099.921875 L 3897.65625 1133.398438 L 3924.335938 1169.6875 L 3950.820312 1207.890625 L 3975.117188 1244.804688 L 4003.007812 1289.335938 L 4027.929688 1331.171875 L 4054.53125 1377.851562 L 4079.960938 1424.53125 L 4108.203125 1478.671875 L 4132.695312 1526.953125 L 5418.085938 4066.914062 " transform="matrix(0.1,0,0,-0.1,0,555)"/>
<path style="fill:none;stroke-width:27.75;stroke-linecap:butt;stroke-linejoin:round;stroke:rgb(64.646912%,16.479492%,16.479492%);stroke-opacity:1;stroke-miterlimit:10;" d="M 201.171875 845.46875 L 857.5 2142.304688 L 881.640625 2188.828125 L 907.734375 2237.109375 L 934.648438 2284.804688 L 961.015625 2329.335938 L 986.523438 2370.429688 L 1014.84375 2413.75 L 1040.3125 2450.585938 L 1067.460938 2487.773438 L 1092.109375 2519.53125 L 1119.023438 2552.148438 L 1144.335938 2580.820312 L 1170.820312 2608.710938 L 1196.71875 2633.945312 L 1223.789062 2658.203125 L 1249.882812 2679.414062 L 1276.5625 2699.023438 L 1303.046875 2716.289062 L 1327.382812 2730.3125 L 1355.234375 2744.179688 L 1380.15625 2754.570312 L 1406.757812 2763.59375 L 1432.1875 2770.234375 L 1460.429688 2775.273438 L 1484.882812 2777.695312 L 1512.65625 2778.242188 L 1537.96875 2776.71875 L 1565.664062 2772.851562 L 1589.53125 2767.617188 L 1616.757812 2759.570312 L 1643.007812 2749.648438 L 1669.257812 2737.65625 L 1695.429688 2723.632812 L 1720.546875 2708.203125 L 1747.734375 2689.375 L 1773.632812 2669.375 L 1800.898438 2646.09375 L 1825.546875 2623.085938 L 1852.8125 2595.507812 L 1878.945312 2566.953125 L 1904.960938 2536.445312 L 1932.1875 2502.382812 L 1957.226562 2469.023438 L 1982.890625 2432.890625 L 2011.25 2390.664062 L 2036.914062 2350.351562 L 2063.125 2307.03125 L 2089.804688 2260.898438 L 2114.375 2216.523438 L 2140.507812 2167.265625 L 2166.445312 2116.40625 L 2797.695312 869.0625 L 2821.640625 821.953125 L 2849.648438 768.828125 L 2876.40625 720.351562 L 2900.234375 678.867188 L 2927.109375 634.296875 L 2954.101562 591.640625 L 2981.015625 551.367188 L 3005.9375 515.976562 L 3031.757812 481.328125 L 3058.4375 447.65625 L 3085.039062 416.210938 L 3112.421875 386.09375 L 3136.523438 361.445312 L 3163.671875 335.820312 L 3190.9375 312.34375 L 3217.1875 291.835938 L 3241.054688 275 L 3269.375 257.265625 L 3293.398438 244.140625 L 3321.367188 231.054688 L 3346.09375 221.445312 L 3373.242188 213.046875 L 3399.0625 207.148438 L 3426.054688 203.125 L 3450.820312 201.367188 L 3477.539062 201.5625 L 3505.234375 204.0625 L 3529.414062 208.125 L 3555.507812 214.492188 L 3582.421875 223.28125 L 3608.789062 233.945312 L 3634.296875 246.328125 L 3662.617188 262.34375 L 3688.085938 278.789062 L 3715.234375 298.554688 L 3739.882812 318.359375 L 3766.796875 342.148438 L 3792.109375 366.5625 L 3818.59375 394.101562 L 3844.453125 423.085938 L 3871.5625 455.625 L 3897.65625 489.0625 L 3924.335938 525.429688 L 3950.820312 563.554688 L 3975.117188 600.507812 L 4003.007812 645.078125 L 4027.929688 686.914062 L 4054.53125 733.554688 L 4079.960938 780.234375 L 4108.203125 834.375 L 5418.085938 3422.617188 " transform="matrix(0.1,0,0,-0.1,0,555)"/>
<path style=" stroke:none;fill-rule:nonzero;fill:rgb(0%,0%,0%);fill-opacity:1;" d="M 233.46875 124.613281 L 232.234375 138.359375 C 232.160156 139.011719 232.121094 139.4375 232.121094 139.640625 C 232.121094 139.957031 232.183594 140.203125 232.296875 140.375 C 232.457031 140.605469 232.671875 140.78125 232.9375 140.894531 C 233.203125 141.011719 233.648438 141.070312 234.269531 141.070312 L 234.140625 141.523438 L 227.613281 141.523438 L 227.765625 141.070312 L 228.046875 141.070312 C 228.566406 141.070312 228.996094 140.953125 229.328125 140.722656 C 229.574219 140.578125 229.761719 140.324219 229.890625 139.964844 C 229.976562 139.71875 230.058594 139.125 230.128906 138.1875 L 230.324219 136.082031 L 225.597656 136.082031 L 223.90625 138.359375 C 223.53125 138.878906 223.296875 139.253906 223.203125 139.476562 C 223.109375 139.699219 223.0625 139.90625 223.0625 140.09375 C 223.0625 140.355469 223.167969 140.578125 223.378906 140.765625 C 223.585938 140.953125 223.9375 141.054688 224.429688 141.070312 L 224.273438 141.523438 L 219.398438 141.523438 L 219.527344 141.070312 C 220.136719 141.039062 220.667969 140.839844 221.121094 140.460938 C 221.578125 140.085938 222.257812 139.285156 223.171875 138.054688 L 233.054688 124.613281 Z M 231.0625 128.667969 L 226.269531 135.195312 L 230.433594 135.195312 L 231.0625 128.667969 "/>
<path style=" stroke:none;fill-rule:nonzero;fill:rgb(0%,0%,0%);fill-opacity:1;" d="M 224.296875 254.476562 L 224.472656 254.019531 L 230.390625 254.019531 C 231.371094 254.019531 232.253906 254.175781 233.035156 254.488281 C 233.8125 254.796875 234.394531 255.226562 234.777344 255.777344 C 235.164062 256.324219 235.355469 256.910156 235.355469 257.53125 C 235.355469 258.484375 235.011719 259.347656 234.324219 260.113281 C 233.636719 260.878906 232.519531 261.449219 230.972656 261.824219 C 231.972656 262.203125 232.707031 262.695312 233.175781 263.308594 C 233.644531 263.925781 233.878906 264.601562 233.878906 265.335938 C 233.878906 266.160156 233.671875 266.949219 233.25 267.699219 C 232.832031 268.453125 232.289062 269.035156 231.625 269.445312 C 230.960938 269.859375 230.160156 270.15625 229.21875 270.34375 C 228.554688 270.488281 227.515625 270.5625 226.097656 270.5625 L 220.046875 270.5625 L 220.199219 270.105469 C 220.835938 270.09375 221.269531 270.035156 221.5 269.933594 C 221.816406 269.789062 222.050781 269.601562 222.195312 269.367188 C 222.382812 269.066406 222.644531 268.363281 222.976562 267.265625 L 225.925781 257.25 C 226.183594 256.398438 226.3125 255.804688 226.3125 255.472656 C 226.3125 255.171875 226.199219 254.929688 225.976562 254.757812 C 225.753906 254.585938 225.324219 254.496094 224.6875 254.496094 C 224.558594 254.496094 224.429688 254.488281 224.296875 254.476562 Z M 226.789062 261.347656 C 227.3125 261.363281 227.695312 261.371094 227.941406 261.371094 C 229.632812 261.371094 230.886719 261 231.714844 260.265625 C 232.535156 259.527344 232.945312 258.609375 232.945312 257.511719 C 232.945312 256.671875 232.695312 256.019531 232.1875 255.546875 C 231.683594 255.078125 230.871094 254.84375 229.761719 254.84375 C 229.472656 254.84375 229.101562 254.894531 228.652344 254.996094 Z M 224.382812 269.476562 C 225.265625 269.59375 225.953125 269.652344 226.445312 269.652344 C 227.714844 269.652344 228.839844 269.273438 229.8125 268.511719 C 230.789062 267.753906 231.277344 266.71875 231.277344 265.402344 C 231.277344 264.40625 230.972656 263.625 230.367188 263.058594 C 229.761719 262.496094 228.785156 262.214844 227.441406 262.214844 C 227.179688 262.214844 226.863281 262.230469 226.488281 262.257812 L 224.382812 269.476562 "/>
<path style=" stroke:none;fill-rule:nonzero;fill:rgb(0%,0%,0%);fill-opacity:1;" d="M 210.441406 348.003906 L 209.210938 353.355469 L 208.773438 353.355469 L 208.710938 352.011719 C 208.664062 351.523438 208.570312 351.082031 208.425781 350.699219 C 208.28125 350.316406 208.066406 349.984375 207.777344 349.703125 C 207.488281 349.421875 207.121094 349.203125 206.671875 349.042969 C 206.222656 348.882812 205.726562 348.804688 205.175781 348.804688 C 203.714844 348.804688 202.445312 349.210938 201.359375 350.019531 C 199.972656 351.027344 198.882812 352.460938 198.085938 354.3125 C 197.4375 355.84375 197.109375 357.390625 197.109375 358.949219 C 197.109375 360.554688 197.582031 361.835938 198.519531 362.785156 C 199.460938 363.742188 200.675781 364.21875 202.164062 364.21875 C 203.289062 364.21875 204.292969 363.96875 205.175781 363.46875 C 206.058594 362.972656 206.882812 362.195312 207.648438 361.140625 L 208.210938 361.140625 C 207.316406 362.570312 206.324219 363.617188 205.238281 364.28125 C 204.15625 364.949219 202.847656 365.28125 201.316406 365.28125 C 199.972656 365.28125 198.78125 364.996094 197.738281 364.433594 C 196.699219 363.871094 195.90625 363.078125 195.367188 362.050781 C 194.824219 361.023438 194.550781 359.925781 194.550781 358.753906 C 194.550781 356.949219 195.035156 355.191406 196.003906 353.484375 C 196.972656 351.78125 198.300781 350.441406 199.984375 349.464844 C 201.667969 348.488281 203.367188 348.003906 205.089844 348.003906 C 205.882812 348.003906 206.789062 348.1875 207.800781 348.566406 C 208.234375 348.726562 208.542969 348.804688 208.730469 348.804688 C 208.933594 348.804688 209.105469 348.765625 209.253906 348.683594 C 209.394531 348.605469 209.640625 348.378906 209.988281 348.003906 L 210.441406 348.003906 "/>
<path style="fill:none;stroke-width:13.875;stroke-linecap:butt;stroke-linejoin:round;stroke:rgb(0%,0%,0%);stroke-opacity:1;stroke-miterlimit:10;" d="M 201.171875 2778.359375 L 5418.085938 2778.359375 " transform="matrix(0.1,0,0,-0.1,0,555)"/>
<path style=" stroke:none;fill-rule:nonzero;fill:rgb(0%,0%,0%);fill-opacity:1;" d="M 311.621094 319.644531 C 311.957031 319.992188 312.207031 320.347656 312.382812 320.707031 C 312.511719 320.9375 312.714844 321.574219 312.988281 322.613281 L 313.878906 321.269531 C 314.109375 320.953125 314.394531 320.644531 314.734375 320.347656 C 315.074219 320.054688 315.371094 319.847656 315.632812 319.730469 C 315.792969 319.671875 315.972656 319.644531 316.175781 319.644531 C 316.464844 319.644531 316.695312 319.71875 316.871094 319.871094 C 317.042969 320.023438 317.128906 320.214844 317.128906 320.445312 C 317.128906 320.707031 317.078125 320.878906 316.980469 320.96875 C 316.789062 321.140625 316.574219 321.226562 316.328125 321.226562 C 316.183594 321.226562 316.03125 321.199219 315.871094 321.140625 C 315.554688 321.023438 315.335938 320.96875 315.222656 320.96875 C 315.0625 320.96875 314.875 321.0625 314.660156 321.25 C 314.238281 321.609375 313.734375 322.296875 313.140625 323.308594 L 313.984375 326.800781 C 314.117188 327.335938 314.222656 327.652344 314.3125 327.753906 C 314.398438 327.855469 314.484375 327.90625 314.570312 327.90625 C 314.714844 327.90625 314.882812 327.832031 315.070312 327.6875 C 315.445312 327.371094 315.765625 326.957031 316.023438 326.453125 L 316.371094 326.644531 C 315.953125 327.441406 315.410156 328.109375 314.746094 328.640625 C 314.382812 328.929688 314.074219 329.074219 313.8125 329.074219 C 313.421875 329.074219 313.117188 328.863281 312.902344 328.445312 C 312.757812 328.171875 312.460938 327.03125 312.015625 325.023438 C 310.957031 326.855469 310.113281 328.042969 309.476562 328.578125 C 309.058594 328.910156 308.660156 329.074219 308.285156 329.074219 C 308.011719 329.074219 307.757812 328.980469 307.523438 328.792969 C 307.367188 328.636719 307.285156 328.433594 307.285156 328.1875 C 307.285156 327.96875 307.363281 327.785156 307.515625 327.632812 C 307.667969 327.480469 307.851562 327.40625 308.066406 327.40625 C 308.285156 327.40625 308.515625 327.515625 308.761719 327.730469 C 308.933594 327.890625 309.074219 327.96875 309.175781 327.96875 C 309.246094 327.96875 309.347656 327.910156 309.476562 327.796875 C 309.796875 327.535156 310.230469 326.980469 310.777344 326.125 C 311.328125 325.273438 311.6875 324.660156 311.859375 324.285156 C 311.441406 322.636719 311.210938 321.769531 311.167969 321.683594 C 311.023438 321.234375 310.824219 320.921875 310.570312 320.738281 C 310.316406 320.558594 309.945312 320.46875 309.453125 320.46875 C 309.296875 320.46875 309.117188 320.476562 308.914062 320.488281 L 308.914062 320.121094 L 311.621094 319.644531 "/>
<path style="fill:none;stroke-width:1.2;stroke-linecap:butt;stroke-linejoin:round;stroke:rgb(0%,0%,0%);stroke-opacity:1;stroke-miterlimit:10;" d="M 201.171875 2778.359375 L 201.171875 2722.851562 " transform="matrix(0.1,0,0,-0.1,0,555)"/>
<g clip-path="url(#clip5)" clip-rule="nonzero">
<path style=" stroke:none;fill-rule:nonzero;fill:rgb(0%,0%,0%);fill-opacity:1;" d="M 11.859375 298.160156 L 25.601562 298.160156 L 25.601562 297.078125 L 11.859375 297.078125 Z M 11.859375 298.160156 "/>
</g>
<path style=" stroke:none;fill-rule:nonzero;fill:rgb(0%,0%,0%);fill-opacity:1;" d="M 24.648438 291.4375 L 27.988281 289.792969 L 28.335938 289.792969 L 28.335938 301.433594 C 28.335938 302.199219 28.367188 302.679688 28.433594 302.875 C 28.496094 303.070312 28.632812 303.21875 28.835938 303.320312 C 29.035156 303.421875 29.449219 303.480469 30.070312 303.492188 L 30.070312 303.863281 L 24.886719 303.863281 L 24.886719 303.492188 C 25.539062 303.480469 25.957031 303.421875 26.144531 303.320312 C 26.332031 303.21875 26.464844 303.085938 26.535156 302.917969 C 26.609375 302.753906 26.644531 302.257812 26.644531 301.433594 L 26.644531 293.996094 C 26.644531 292.984375 26.613281 292.34375 26.558594 292.070312 C 26.5 291.851562 26.410156 291.691406 26.285156 291.589844 C 26.164062 291.488281 26.015625 291.4375 25.84375 291.4375 C 25.582031 291.4375 25.234375 291.539062 24.800781 291.742188 L 24.648438 291.4375 "/>
<path style="fill:none;stroke-width:1.2;stroke-linecap:butt;stroke-linejoin:round;stroke:rgb(0%,0%,0%);stroke-opacity:1;stroke-miterlimit:10;" d="M 853.320312 2778.359375 L 853.320312 2722.851562 " transform="matrix(0.1,0,0,-0.1,0,555)"/>
<path style=" stroke:none;fill-rule:nonzero;fill:rgb(0%,0%,0%);fill-opacity:1;" d="M 72.910156 294.277344 C 72.910156 292.703125 73.144531 291.347656 73.613281 290.214844 C 74.082031 289.078125 74.714844 288.238281 75.511719 287.6875 C 76.117188 287.238281 76.746094 287.015625 77.398438 287.015625 C 78.453125 287.015625 79.398438 287.558594 80.234375 288.644531 C 81.292969 289.972656 81.820312 291.777344 81.820312 294.0625 C 81.820312 295.664062 81.589844 297.023438 81.125 298.140625 C 80.664062 299.253906 80.074219 300.0625 79.359375 300.566406 C 78.644531 301.070312 77.953125 301.324219 77.289062 301.324219 C 75.972656 301.324219 74.882812 300.550781 74.015625 299.007812 C 73.277344 297.691406 72.910156 296.113281 72.910156 294.277344 Z M 74.902344 294.539062 C 74.902344 296.433594 75.132812 297.980469 75.597656 299.179688 C 75.988281 300.191406 76.566406 300.695312 77.332031 300.695312 C 77.691406 300.695312 78.070312 300.53125 78.457031 300.199219 C 78.847656 299.863281 79.144531 299.316406 79.347656 298.550781 C 79.664062 297.378906 79.824219 295.730469 79.824219 293.605469 C 79.824219 292.046875 79.65625 290.738281 79.324219 289.683594 C 79.09375 288.902344 78.785156 288.351562 78.394531 288.035156 C 78.117188 287.804688 77.78125 287.6875 77.375 287.6875 C 76.925781 287.6875 76.523438 287.898438 76.160156 288.316406 C 75.667969 288.882812 75.335938 289.765625 75.164062 290.972656 C 74.988281 292.179688 74.902344 293.367188 74.902344 294.539062 "/>
<path style="fill:none;stroke-width:1.2;stroke-linecap:butt;stroke-linejoin:round;stroke:rgb(0%,0%,0%);stroke-opacity:1;stroke-miterlimit:10;" d="M 1505.390625 2778.359375 L 1505.390625 2722.851562 " transform="matrix(0.1,0,0,-0.1,0,555)"/>
<path style=" stroke:none;fill-rule:nonzero;fill:rgb(0%,0%,0%);fill-opacity:1;" d="M 148.136719 291.4375 L 151.476562 289.792969 L 151.820312 289.792969 L 151.820312 301.433594 C 151.820312 302.199219 151.855469 302.679688 151.921875 302.875 C 151.984375 303.070312 152.117188 303.21875 152.320312 303.320312 C 152.523438 303.421875 152.9375 303.480469 153.554688 303.492188 L 153.554688 303.863281 L 148.375 303.863281 L 148.375 303.492188 C 149.027344 303.480469 149.445312 303.421875 149.632812 303.320312 C 149.820312 303.21875 149.949219 303.085938 150.023438 302.917969 C 150.097656 302.753906 150.132812 302.257812 150.132812 301.433594 L 150.132812 293.996094 C 150.132812 292.984375 150.101562 292.34375 150.042969 292.070312 C 149.988281 291.851562 149.894531 291.691406 149.773438 291.589844 C 149.648438 291.488281 149.503906 291.4375 149.328125 291.4375 C 149.070312 291.4375 148.722656 291.539062 148.289062 291.742188 L 148.136719 291.4375 "/>
<path style="fill:none;stroke-width:1.2;stroke-linecap:butt;stroke-linejoin:round;stroke:rgb(0%,0%,0%);stroke-opacity:1;stroke-miterlimit:10;" d="M 2157.539062 2778.359375 L 2157.539062 2722.851562 " transform="matrix(0.1,0,0,-0.1,0,555)"/>
<path style=" stroke:none;fill-rule:nonzero;fill:rgb(0%,0%,0%);fill-opacity:1;" d="M 220.4375 301.214844 L 219.484375 303.863281 L 211.355469 303.863281 L 211.355469 303.492188 C 213.738281 301.3125 215.417969 299.527344 216.394531 298.140625 C 217.371094 296.753906 217.859375 295.484375 217.859375 294.34375 C 217.859375 293.476562 217.589844 292.761719 217.054688 292.199219 C 216.523438 291.632812 215.878906 291.351562 215.125 291.351562 C 214.460938 291.351562 213.859375 291.550781 213.316406 291.949219 C 212.773438 292.347656 212.371094 292.929688 212.113281 293.691406 L 211.746094 293.691406 C 211.917969 292.4375 212.355469 291.472656 213.054688 290.800781 C 213.757812 290.128906 214.628906 289.792969 215.667969 289.792969 C 216.796875 289.792969 217.730469 290.152344 218.476562 290.875 C 219.222656 291.597656 219.59375 292.441406 219.59375 293.410156 C 219.59375 294.105469 219.433594 294.808594 219.113281 295.515625 C 218.609375 296.613281 217.792969 297.769531 216.664062 298.984375 C 214.988281 300.835938 213.933594 301.945312 213.503906 302.320312 L 217.097656 302.320312 C 217.839844 302.320312 218.355469 302.296875 218.648438 302.246094 C 218.945312 302.195312 219.214844 302.089844 219.453125 301.921875 C 219.691406 301.753906 219.894531 301.519531 220.070312 301.214844 L 220.4375 301.214844 "/>
<path style="fill:none;stroke-width:1.2;stroke-linecap:butt;stroke-linejoin:round;stroke:rgb(0%,0%,0%);stroke-opacity:1;stroke-miterlimit:10;" d="M 2809.648438 2778.359375 L 2809.648438 2722.851562 " transform="matrix(0.1,0,0,-0.1,0,555)"/>
<path style=" stroke:none;fill-rule:nonzero;fill:rgb(0%,0%,0%);fill-opacity:1;" d="M 277.175781 292.695312 C 277.5625 291.773438 278.058594 291.054688 278.660156 290.550781 C 279.257812 290.046875 280.007812 289.792969 280.902344 289.792969 C 282 289.792969 282.847656 290.152344 283.441406 290.875 C 283.886719 291.410156 284.109375 291.980469 284.109375 292.589844 C 284.109375 293.601562 283.484375 294.640625 282.226562 295.710938 C 283.0625 296.042969 283.699219 296.515625 284.132812 297.128906 C 284.566406 297.746094 284.785156 298.472656 284.785156 299.308594 C 284.785156 300.492188 284.40625 301.519531 283.65625 302.386719 C 282.660156 303.527344 281.226562 304.101562 279.363281 304.101562 C 278.425781 304.101562 277.789062 303.984375 277.453125 303.753906 C 277.125 303.523438 276.957031 303.277344 276.957031 303.015625 C 276.957031 302.8125 277.035156 302.640625 277.195312 302.496094 C 277.355469 302.351562 277.542969 302.277344 277.757812 302.277344 C 277.933594 302.277344 278.105469 302.308594 278.28125 302.363281 C 278.394531 302.394531 278.660156 302.515625 279.070312 302.722656 C 279.484375 302.933594 279.761719 303.058594 279.90625 303.105469 C 280.164062 303.175781 280.433594 303.210938 280.707031 303.210938 C 281.402344 303.210938 282.003906 302.945312 282.519531 302.410156 C 283.03125 301.875 283.285156 301.246094 283.285156 300.523438 C 283.285156 299.988281 283.171875 299.46875 282.941406 298.960938 C 282.753906 298.570312 282.558594 298.28125 282.355469 298.09375 C 282.066406 297.820312 281.664062 297.574219 281.152344 297.359375 C 280.640625 297.140625 280.121094 297.03125 279.601562 297.03125 L 279.277344 297.03125 L 279.277344 296.707031 C 279.8125 296.648438 280.347656 296.460938 280.882812 296.144531 C 281.414062 295.824219 281.808594 295.441406 282.050781 294.996094 C 282.296875 294.546875 282.421875 294.054688 282.421875 293.519531 C 282.421875 292.824219 282.203125 292.261719 281.769531 291.828125 C 281.335938 291.394531 280.796875 291.179688 280.144531 291.179688 C 279.089844 291.179688 278.207031 291.742188 277.5 292.871094 L 277.175781 292.695312 "/>
<path style="fill:none;stroke-width:1.2;stroke-linecap:butt;stroke-linejoin:round;stroke:rgb(0%,0%,0%);stroke-opacity:1;stroke-miterlimit:10;" d="M 3461.757812 2778.359375 L 3461.757812 2722.851562 " transform="matrix(0.1,0,0,-0.1,0,555)"/>
<path style=" stroke:none;fill-rule:nonzero;fill:rgb(0%,0%,0%);fill-opacity:1;" d="M 351.015625 298.789062 L 351.015625 300.21875 L 349.148438 300.21875 L 349.148438 303.863281 L 347.480469 303.863281 L 347.480469 300.21875 L 341.648438 300.21875 L 341.648438 298.917969 L 348.046875 289.792969 L 349.148438 289.792969 L 349.148438 298.789062 Z M 347.480469 298.789062 L 347.480469 291.9375 L 342.648438 298.789062 L 347.480469 298.789062 "/>
<path style="fill:none;stroke-width:1.2;stroke-linecap:butt;stroke-linejoin:round;stroke:rgb(0%,0%,0%);stroke-opacity:1;stroke-miterlimit:10;" d="M 4113.867188 2778.359375 L 4113.867188 2722.851562 " transform="matrix(0.1,0,0,-0.1,0,555)"/>
<path style=" stroke:none;fill-rule:nonzero;fill:rgb(0%,0%,0%);fill-opacity:1;" d="M 415.578125 290.074219 L 414.773438 291.808594 L 410.636719 291.808594 L 409.722656 293.648438 C 411.515625 293.925781 412.9375 294.597656 413.996094 295.664062 C 414.890625 296.578125 415.339844 297.660156 415.339844 298.917969 C 415.339844 299.640625 415.195312 300.3125 414.90625 300.925781 C 414.617188 301.539062 414.246094 302.0625 413.800781 302.496094 C 413.351562 302.929688 412.855469 303.277344 412.304688 303.535156 C 411.523438 303.910156 410.722656 304.101562 409.894531 304.101562 C 409.074219 304.101562 408.472656 303.960938 408.097656 303.679688 C 407.722656 303.394531 407.535156 303.089844 407.535156 302.757812 C 407.535156 302.566406 407.613281 302.402344 407.773438 302.257812 C 407.933594 302.113281 408.125 302.039062 408.359375 302.039062 C 408.53125 302.039062 408.683594 302.066406 408.8125 302.117188 C 408.941406 302.167969 409.167969 302.308594 409.484375 302.539062 C 410.007812 302.886719 410.527344 303.058594 411.046875 303.058594 C 411.839844 303.058594 412.535156 302.757812 413.128906 302.160156 C 413.722656 301.5625 414.015625 300.828125 414.015625 299.960938 C 414.015625 299.136719 413.746094 298.363281 413.214844 297.640625 C 412.679688 296.917969 411.941406 296.359375 411.003906 295.96875 C 410.265625 295.664062 409.261719 295.484375 407.988281 295.429688 L 410.636719 290.074219 L 415.578125 290.074219 "/>
<path style="fill:none;stroke-width:1.2;stroke-linecap:butt;stroke-linejoin:round;stroke:rgb(0%,0%,0%);stroke-opacity:1;stroke-miterlimit:10;" d="M 4765.976562 2778.359375 L 4765.976562 2722.851562 " transform="matrix(0.1,0,0,-0.1,0,555)"/>
<path style=" stroke:none;fill-rule:nonzero;fill:rgb(0%,0%,0%);fill-opacity:1;" d="M 481.070312 289.792969 L 481.070312 290.183594 C 480.175781 290.269531 479.445312 290.445312 478.882812 290.714844 C 478.316406 290.980469 477.761719 291.390625 477.214844 291.9375 C 476.664062 292.488281 476.207031 293.097656 475.847656 293.769531 C 475.484375 294.441406 475.183594 295.242188 474.9375 296.164062 C 475.902344 295.503906 476.878906 295.167969 477.863281 295.167969 C 478.804688 295.167969 479.617188 295.546875 480.3125 296.304688 C 481.007812 297.066406 481.351562 298.039062 481.351562 299.222656 C 481.351562 300.378906 481.007812 301.433594 480.3125 302.386719 C 479.472656 303.527344 478.359375 304.101562 476.972656 304.101562 C 476.035156 304.101562 475.234375 303.789062 474.566406 303.167969 C 473.28125 301.953125 472.636719 300.386719 472.636719 298.464844 C 472.636719 297.222656 472.886719 296.046875 473.386719 294.941406 C 473.886719 293.835938 474.59375 292.847656 475.511719 291.980469 C 476.429688 291.113281 477.308594 290.53125 478.144531 290.234375 C 478.984375 289.941406 479.765625 289.792969 480.484375 289.792969 Z M 474.761719 296.902344 C 474.632812 297.828125 474.566406 298.570312 474.566406 299.136719 C 474.566406 299.785156 474.691406 300.492188 474.9375 301.25 C 475.183594 302.007812 475.535156 302.613281 475.996094 303.058594 C 476.34375 303.378906 476.769531 303.535156 477.277344 303.535156 C 477.855469 303.535156 478.378906 303.257812 478.851562 302.703125 C 479.320312 302.144531 479.554688 301.355469 479.554688 300.328125 C 479.554688 299.171875 479.324219 298.171875 478.859375 297.324219 C 478.398438 296.480469 477.738281 296.058594 476.886719 296.058594 C 476.628906 296.058594 476.351562 296.113281 476.0625 296.21875 C 475.773438 296.328125 475.339844 296.554688 474.761719 296.902344 "/>
<path style="fill:none;stroke-width:1.2;stroke-linecap:butt;stroke-linejoin:round;stroke:rgb(0%,0%,0%);stroke-opacity:1;stroke-miterlimit:10;" d="M 5418.085938 2778.359375 L 5418.085938 2722.851562 " transform="matrix(0.1,0,0,-0.1,0,555)"/>
<path style=" stroke:none;fill-rule:nonzero;fill:rgb(0%,0%,0%);fill-opacity:1;" d="M 539.0625 290.074219 L 546.4375 290.074219 L 546.4375 290.464844 L 541.839844 304.144531 L 540.714844 304.144531 L 544.832031 291.742188 L 541.039062 291.742188 C 540.273438 291.742188 539.730469 291.828125 539.410156 292.003906 C 538.835938 292.320312 538.371094 292.804688 538.023438 293.457031 L 537.742188 293.347656 L 539.0625 290.074219 "/>
<path style="fill:none;stroke-width:1.2;stroke-linecap:butt;stroke-linejoin:round;stroke:rgb(0%,0%,0%);stroke-opacity:1;stroke-miterlimit:10;" d="M 527.226562 2778.359375 L 527.226562 2750.585938 " transform="matrix(0.1,0,0,-0.1,0,555)"/>
<path style="fill:none;stroke-width:1.2;stroke-linecap:butt;stroke-linejoin:round;stroke:rgb(0%,0%,0%);stroke-opacity:1;stroke-miterlimit:10;" d="M 1179.375 2778.359375 L 1179.375 2750.585938 " transform="matrix(0.1,0,0,-0.1,0,555)"/>
<path style="fill:none;stroke-width:1.2;stroke-linecap:butt;stroke-linejoin:round;stroke:rgb(0%,0%,0%);stroke-opacity:1;stroke-miterlimit:10;" d="M 1831.445312 2778.359375 L 1831.445312 2750.585938 " transform="matrix(0.1,0,0,-0.1,0,555)"/>
<path style="fill:none;stroke-width:1.2;stroke-linecap:butt;stroke-linejoin:round;stroke:rgb(0%,0%,0%);stroke-opacity:1;stroke-miterlimit:10;" d="M 2483.59375 2778.359375 L 2483.59375 2750.585938 " transform="matrix(0.1,0,0,-0.1,0,555)"/>
<path style="fill:none;stroke-width:1.2;stroke-linecap:butt;stroke-linejoin:round;stroke:rgb(0%,0%,0%);stroke-opacity:1;stroke-miterlimit:10;" d="M 3135.703125 2778.359375 L 3135.703125 2750.585938 " transform="matrix(0.1,0,0,-0.1,0,555)"/>
<path style="fill:none;stroke-width:1.2;stroke-linecap:butt;stroke-linejoin:round;stroke:rgb(0%,0%,0%);stroke-opacity:1;stroke-miterlimit:10;" d="M 3787.8125 2778.359375 L 3787.8125 2750.585938 " transform="matrix(0.1,0,0,-0.1,0,555)"/>
<path style="fill:none;stroke-width:1.2;stroke-linecap:butt;stroke-linejoin:round;stroke:rgb(0%,0%,0%);stroke-opacity:1;stroke-miterlimit:10;" d="M 4439.921875 2778.359375 L 4439.921875 2750.585938 " transform="matrix(0.1,0,0,-0.1,0,555)"/>
<path style="fill:none;stroke-width:1.2;stroke-linecap:butt;stroke-linejoin:round;stroke:rgb(0%,0%,0%);stroke-opacity:1;stroke-miterlimit:10;" d="M 5092.03125 2778.359375 L 5092.03125 2750.585938 " transform="matrix(0.1,0,0,-0.1,0,555)"/>
<path style="fill:none;stroke-width:13.875;stroke-linecap:butt;stroke-linejoin:round;stroke:rgb(0%,0%,0%);stroke-opacity:1;stroke-miterlimit:10;" d="M 853.320312 201.171875 L 853.320312 5355.507812 " transform="matrix(0.1,0,0,-0.1,0,555)"/>
<path style="fill:none;stroke-width:1.2;stroke-linecap:butt;stroke-linejoin:round;stroke:rgb(0%,0%,0%);stroke-opacity:1;stroke-miterlimit:10;" d="M 853.320312 201.171875 L 797.8125 201.171875 " transform="matrix(0.1,0,0,-0.1,0,555)"/>
<g clip-path="url(#clip6)" clip-rule="nonzero">
<path style=" stroke:none;fill-rule:nonzero;fill:rgb(0%,0%,0%);fill-opacity:1;" d="M 54.871094 536.808594 L 68.617188 536.808594 L 68.617188 535.726562 L 54.871094 535.726562 Z M 54.871094 536.808594 "/>
</g>
<path style=" stroke:none;fill-rule:nonzero;fill:rgb(0%,0%,0%);fill-opacity:1;" d="M 74.75 539.867188 L 73.796875 542.511719 L 65.667969 542.511719 L 65.667969 542.144531 C 68.050781 539.960938 69.734375 538.175781 70.707031 536.789062 C 71.683594 535.402344 72.171875 534.136719 72.171875 532.992188 C 72.171875 532.128906 71.90625 531.414062 71.371094 530.847656 C 70.835938 530.285156 70.191406 530.003906 69.441406 530.003906 C 68.773438 530.003906 68.171875 530.203125 67.628906 530.597656 C 67.089844 530.996094 66.6875 531.578125 66.425781 532.34375 L 66.058594 532.34375 C 66.230469 531.085938 66.667969 530.121094 67.371094 529.449219 C 68.070312 528.777344 68.941406 528.441406 69.980469 528.441406 C 71.109375 528.441406 72.042969 528.800781 72.789062 529.527344 C 73.535156 530.25 73.90625 531.09375 73.90625 532.0625 C 73.90625 532.753906 73.746094 533.457031 73.429688 534.164062 C 72.921875 535.265625 72.105469 536.417969 70.980469 537.632812 C 69.300781 539.484375 68.246094 540.597656 67.8125 540.972656 L 71.414062 540.972656 C 72.148438 540.972656 72.667969 540.949219 72.964844 540.894531 C 73.257812 540.847656 73.527344 540.738281 73.765625 540.570312 C 74.003906 540.40625 74.210938 540.171875 74.382812 539.867188 L 74.75 539.867188 "/>
<path style="fill:none;stroke-width:1.2;stroke-linecap:butt;stroke-linejoin:round;stroke:rgb(0%,0%,0%);stroke-opacity:1;stroke-miterlimit:10;" d="M 853.320312 1489.765625 L 797.8125 1489.765625 " transform="matrix(0.1,0,0,-0.1,0,555)"/>
<g clip-path="url(#clip7)" clip-rule="nonzero">
<path style=" stroke:none;fill-rule:nonzero;fill:rgb(0%,0%,0%);fill-opacity:1;" d="M 54.871094 407.773438 L 68.617188 407.773438 L 68.617188 406.6875 L 54.871094 406.6875 Z M 54.871094 407.773438 "/>
</g>
<path style=" stroke:none;fill-rule:nonzero;fill:rgb(0%,0%,0%);fill-opacity:1;" d="M 67.660156 401.050781 L 71 399.402344 L 71.347656 399.402344 L 71.347656 411.046875 C 71.347656 411.8125 71.378906 412.292969 71.445312 412.488281 C 71.511719 412.683594 71.644531 412.832031 71.847656 412.933594 C 72.046875 413.035156 72.460938 413.09375 73.082031 413.105469 L 73.082031 413.476562 L 67.902344 413.476562 L 67.902344 413.105469 C 68.550781 413.09375 68.96875 413.035156 69.15625 412.933594 C 69.347656 412.832031 69.476562 412.699219 69.546875 412.53125 C 69.621094 412.363281 69.65625 411.871094 69.65625 411.046875 L 69.65625 403.609375 C 69.65625 402.597656 69.628906 401.953125 69.570312 401.679688 C 69.511719 401.464844 69.421875 401.304688 69.300781 401.203125 C 69.175781 401.101562 69.027344 401.050781 68.855469 401.050781 C 68.59375 401.050781 68.246094 401.152344 67.8125 401.355469 L 67.660156 401.050781 "/>
<path style="fill:none;stroke-width:1.2;stroke-linecap:butt;stroke-linejoin:round;stroke:rgb(0%,0%,0%);stroke-opacity:1;stroke-miterlimit:10;" d="M 853.320312 2778.359375 L 797.8125 2778.359375 " transform="matrix(0.1,0,0,-0.1,0,555)"/>
<path style="fill:none;stroke-width:1.2;stroke-linecap:butt;stroke-linejoin:round;stroke:rgb(0%,0%,0%);stroke-opacity:1;stroke-miterlimit:10;" d="M 853.320312 4066.914062 L 797.8125 4066.914062 " transform="matrix(0.1,0,0,-0.1,0,555)"/>
<path style=" stroke:none;fill-rule:nonzero;fill:rgb(0%,0%,0%);fill-opacity:1;" d="M 67.660156 142.976562 L 71 141.328125 L 71.347656 141.328125 L 71.347656 152.972656 C 71.347656 153.738281 71.378906 154.21875 71.445312 154.414062 C 71.511719 154.609375 71.644531 154.757812 71.847656 154.855469 C 72.046875 154.960938 72.460938 155.015625 73.082031 155.03125 L 73.082031 155.398438 L 67.902344 155.398438 L 67.902344 155.03125 C 68.550781 155.015625 68.96875 154.960938 69.15625 154.855469 C 69.347656 154.757812 69.476562 154.621094 69.546875 154.457031 C 69.621094 154.289062 69.65625 153.796875 69.65625 152.972656 L 69.65625 145.535156 C 69.65625 144.523438 69.628906 143.878906 69.570312 143.605469 C 69.511719 143.386719 69.421875 143.230469 69.300781 143.128906 C 69.175781 143.027344 69.027344 142.976562 68.855469 142.976562 C 68.59375 142.976562 68.246094 143.078125 67.8125 143.28125 L 67.660156 142.976562 "/>
<path style="fill:none;stroke-width:1.2;stroke-linecap:butt;stroke-linejoin:round;stroke:rgb(0%,0%,0%);stroke-opacity:1;stroke-miterlimit:10;" d="M 853.320312 5355.507812 L 797.8125 5355.507812 " transform="matrix(0.1,0,0,-0.1,0,555)"/>
<path style=" stroke:none;fill-rule:nonzero;fill:rgb(0%,0%,0%);fill-opacity:1;" d="M 74.75 25.105469 L 73.796875 27.75 L 65.667969 27.75 L 65.667969 27.382812 C 68.050781 25.199219 69.734375 23.414062 70.707031 22.027344 C 71.683594 20.640625 72.171875 19.375 72.171875 18.230469 C 72.171875 17.363281 71.90625 16.648438 71.371094 16.085938 C 70.835938 15.523438 70.191406 15.242188 69.441406 15.242188 C 68.773438 15.242188 68.171875 15.4375 67.628906 15.835938 C 67.089844 16.234375 66.6875 16.816406 66.425781 17.582031 L 66.058594 17.582031 C 66.230469 16.324219 66.667969 15.359375 67.371094 14.6875 C 68.070312 14.015625 68.941406 13.679688 69.980469 13.679688 C 71.109375 13.679688 72.042969 14.039062 72.789062 14.765625 C 73.535156 15.484375 73.90625 16.332031 73.90625 17.300781 C 73.90625 17.992188 73.746094 18.695312 73.429688 19.402344 C 72.921875 20.503906 72.105469 21.65625 70.980469 22.871094 C 69.300781 24.722656 68.246094 25.835938 67.8125 26.210938 L 71.414062 26.210938 C 72.148438 26.210938 72.667969 26.1875 72.964844 26.136719 C 73.257812 26.085938 73.527344 25.976562 73.765625 25.808594 C 74.003906 25.644531 74.210938 25.410156 74.382812 25.105469 L 74.75 25.105469 "/>
<path style="fill:none;stroke-width:1.2;stroke-linecap:butt;stroke-linejoin:round;stroke:rgb(0%,0%,0%);stroke-opacity:1;stroke-miterlimit:10;" d="M 853.320312 845.46875 L 825.546875 845.46875 " transform="matrix(0.1,0,0,-0.1,0,555)"/>
<path style="fill:none;stroke-width:1.2;stroke-linecap:butt;stroke-linejoin:round;stroke:rgb(0%,0%,0%);stroke-opacity:1;stroke-miterlimit:10;" d="M 853.320312 2134.0625 L 825.546875 2134.0625 " transform="matrix(0.1,0,0,-0.1,0,555)"/>
<path style="fill:none;stroke-width:1.2;stroke-linecap:butt;stroke-linejoin:round;stroke:rgb(0%,0%,0%);stroke-opacity:1;stroke-miterlimit:10;" d="M 853.320312 3422.617188 L 825.546875 3422.617188 " transform="matrix(0.1,0,0,-0.1,0,555)"/>
<path style="fill:none;stroke-width:1.2;stroke-linecap:butt;stroke-linejoin:round;stroke:rgb(0%,0%,0%);stroke-opacity:1;stroke-miterlimit:10;" d="M 853.320312 4711.210938 L 825.546875 4711.210938 " transform="matrix(0.1,0,0,-0.1,0,555)"/>
</g>
</svg>
