<?xml version="1.0" encoding="UTF-8"?>
<svg xmlns="http://www.w3.org/2000/svg" xmlns:xlink="http://www.w3.org/1999/xlink" width="300pt" height="150pt" viewBox="0 0 300 150" version="1.1">
<g id="surface1">
<path style="fill:none;stroke-width:5;stroke-linecap:butt;stroke-linejoin:miter;stroke:rgb(80.076599%,80.076599%,80.076599%);stroke-opacity:1;stroke-miterlimit:10;" d="M 50 50 L 50 1450 M 120 50 L 120 1450 M 190 50 L 190 1450 M 260 50 L 260 1450 M 330 50 L 330 1450 M 400 50 L 400 1450 M 470 50 L 470 1450 M 540 50 L 540 1450 M 610 50 L 610 1450 M 680 50 L 680 1450 M 750 50 L 750 1450 M 820 50 L 820 1450 M 890 50 L 890 1450 M 960 50 L 960 1450 M 1030 50 L 1030 1450 M 1100 50 L 1100 1450 M 1170 50 L 1170 1450 M 1240 50 L 1240 1450 M 1310 50 L 1310 1450 M 1380 50 L 1380 1450 M 1450 50 L 1450 1450 M 50 50 L 1450 50 M 50 120 L 1450 120 M 50 190 L 1450 190 M 50 260 L 1450 260 M 50 330 L 1450 330 M 50 400 L 1450 400 M 50 470 L 1450 470 M 50 540 L 1450 540 M 50 610 L 1450 610 M 50 680 L 1450 680 M 50 750 L 1450 750 M 50 820 L 1450 820 M 50 890 L 1450 890 M 50 960 L 1450 960 M 50 1030 L 1450 1030 M 50 1100 L 1450 1100 M 50 1170 L 1450 1170 M 50 1240 L 1450 1240 M 50 1310 L 1450 1310 M 50 1380 L 1450 1380 M 50 1450 L 1450 1450 " transform="matrix(0.1,0,0,-0.1,0,150)"/>
<path style="fill:none;stroke-width:10;stroke-linecap:butt;stroke-linejoin:miter;stroke:rgb(0%,0%,0%);stroke-opacity:1;stroke-miterlimit:10;" d="M 50 750 L 1450 750 M 750 50 L 750 1450 " transform="matrix(0.1,0,0,-0.1,0,150)"/>
<path style="fill:none;stroke-width:5;stroke-linecap:butt;stroke-linejoin:miter;stroke:rgb(80.076599%,80.076599%,80.076599%);stroke-opacity:1;stroke-miterlimit:10;" d="M 1550 50 L 1550 1450 M 1620 50 L 1620 1450 M 1690 50 L 1690 1450 M 1760 50 L 1760 1450 M 1830 50 L 1830 1450 M 1900 50 L 1900 1450 M 1970 50 L 1970 1450 M 2040 50 L 2040 1450 M 2110 50 L 2110 1450 M 2180 50 L 2180 1450 M 2250 50 L 2250 1450 M 2320 50 L 2320 1450 M 2390 50 L 2390 1450 M 2460 50 L 2460 1450 M 2530 50 L 2530 1450 M 2600 50 L 2600 1450 M 2670 50 L 2670 1450 M 2740 50 L 2740 1450 M 2810 50 L 2810 1450 M 2880 50 L 2880 1450 M 2950 50 L 2950 1450 M 1550 50 L 2950 50 M 1550 120 L 2950 120 M 1550 190 L 2950 190 M 1550 260 L 2950 260 M 1550 330 L 2950 330 M 1550 400 L 2950 400 M 1550 470 L 2950 470 M 1550 540 L 2950 540 M 1550 610 L 2950 610 M 1550 680 L 2950 680 M 1550 750 L 2950 750 M 1550 820 L 2950 820 M 1550 890 L 2950 890 M 1550 960 L 2950 960 M 1550 1030 L 2950 1030 M 1550 1100 L 2950 1100 M 1550 1170 L 2950 1170 M 1550 1240 L 2950 1240 M 1550 1310 L 2950 1310 M 1550 1380 L 2950 1380 M 1550 1450 L 2950 1450 " transform="matrix(0.1,0,0,-0.1,0,150)"/>
<path style="fill:none;stroke-width:10;stroke-linecap:butt;stroke-linejoin:miter;stroke:rgb(0%,0%,0%);stroke-opacity:1;stroke-miterlimit:10;" d="M 1550 750 L 2950 750 M 2250 50 L 2250 1450 " transform="matrix(0.1,0,0,-0.1,0,150)"/>
</g>
</svg>
