<?xml version="1.0" encoding="UTF-8"?>
<svg xmlns="http://www.w3.org/2000/svg" xmlns:xlink="http://www.w3.org/1999/xlink" width="555pt" height="555pt" viewBox="0 0 555 555" version="1.1">
<defs>
<clipPath id="clip1">
  <path d="M 336 177 L 540 177 L 540 493.949219 L 336 493.949219 Z M 336 177 "/>
</clipPath>
<clipPath id="clip2">
  <path d="M 59.664062 19 L 337 19 L 337 178 L 59.664062 178 Z M 59.664062 19 "/>
</clipPath>
<clipPath id="clip3">
  <path d="M 58.273438 18 L 338 18 L 338 179 L 58.273438 179 Z M 58.273438 18 "/>
</clipPath>
<clipPath id="clip4">
  <path d="M 267 79 L 284 79 L 284 97.125 L 267 97.125 Z M 267 79 "/>
</clipPath>
<clipPath id="clip5">
  <path d="M 338 84 L 353.8125 84 L 353.8125 87 L 338 87 Z M 338 84 "/>
</clipPath>
</defs>
<g id="surface1">
<rect x="0" y="0" width="555" height="555" style="fill:rgb(100%,100%,100%);fill-opacity:1;stroke:none;"/>
<g clip-path="url(#clip1)" clip-rule="nonzero">
<path style=" stroke:none;fill-rule:nonzero;fill:rgb(100%,75.389099%,79.6875%);fill-opacity:1;" d="M 336.683594 177.617188 L 338.675781 179.902344 L 339.71875 181.105469 L 340.769531 182.320312 L 341.816406 183.53125 L 342.785156 184.660156 L 343.789062 185.835938 L 344.824219 187.054688 L 345.859375 188.269531 L 346.921875 189.527344 L 347.859375 190.640625 L 348.914062 191.894531 L 349.976562 193.160156 L 350.996094 194.382812 L 351.921875 195.5 L 353.027344 196.832031 L 353.960938 197.960938 L 355.046875 199.28125 L 356.007812 200.453125 L 357.0625 201.746094 L 358.066406 202.980469 L 359.117188 204.269531 L 360.078125 205.460938 L 361.117188 206.746094 L 363.132812 209.265625 L 364.144531 210.535156 L 365.195312 211.851562 L 366.21875 213.144531 L 367.210938 214.398438 L 368.3125 215.796875 L 369.300781 217.058594 L 370.355469 218.40625 L 371.3125 219.636719 L 372.359375 220.980469 L 373.34375 222.253906 L 374.375 223.585938 L 375.378906 224.894531 L 376.433594 226.265625 L 377.445312 227.59375 L 378.484375 228.953125 L 379.515625 230.308594 L 380.460938 231.558594 L 381.542969 232.992188 L 382.511719 234.28125 L 383.546875 235.65625 L 384.535156 236.980469 L 385.632812 238.453125 L 386.585938 239.730469 L 387.664062 241.1875 L 388.648438 242.519531 L 389.722656 243.984375 L 390.652344 245.246094 L 391.707031 246.691406 L 392.730469 248.09375 L 393.75 249.496094 L 394.765625 250.898438 L 395.742188 252.25 L 396.800781 253.714844 L 397.808594 255.117188 L 398.867188 256.597656 L 399.824219 257.9375 L 400.886719 259.425781 L 402.910156 262.285156 L 403.972656 263.785156 L 404.945312 265.171875 L 405.941406 266.59375 L 407.042969 268.167969 L 408.039062 269.597656 L 409.0625 271.066406 L 410.097656 272.5625 L 411.050781 273.941406 L 412.066406 275.414062 L 413.078125 276.882812 L 414.15625 278.457031 L 415.109375 279.847656 L 416.207031 281.460938 L 417.199219 282.921875 L 418.179688 284.367188 L 419.234375 285.929688 L 420.292969 287.5 L 421.257812 288.9375 L 422.28125 290.464844 L 423.277344 291.957031 L 424.359375 293.582031 L 425.296875 294.992188 L 426.371094 296.617188 L 427.386719 298.148438 L 428.386719 299.667969 L 429.386719 301.191406 L 430.410156 302.753906 L 431.496094 304.410156 L 432.488281 305.9375 L 433.46875 307.445312 L 434.519531 309.0625 L 435.5625 310.683594 L 436.503906 312.140625 L 437.613281 313.871094 L 438.546875 315.324219 L 439.636719 317.027344 L 440.675781 318.65625 L 441.601562 320.113281 L 442.644531 321.757812 L 443.695312 323.417969 L 444.738281 325.074219 L 445.710938 326.617188 L 446.714844 328.214844 L 448.785156 331.527344 L 449.847656 333.238281 L 450.785156 334.746094 L 451.839844 336.449219 L 452.902344 338.164062 L 453.921875 339.820312 L 454.847656 341.328125 L 455.949219 343.128906 L 456.882812 344.65625 L 457.972656 346.4375 L 458.933594 348.019531 L 459.988281 349.757812 L 460.992188 351.414062 L 462.039062 353.152344 L 463.003906 354.753906 L 464.039062 356.480469 L 465.117188 358.28125 L 466.058594 359.851562 L 467.070312 361.550781 L 468.117188 363.3125 L 469.144531 365.039062 L 470.136719 366.714844 L 471.238281 368.582031 L 472.226562 370.261719 L 473.28125 372.058594 L 474.238281 373.695312 L 475.285156 375.484375 L 476.269531 377.171875 L 477.296875 378.941406 L 478.304688 380.675781 L 479.359375 382.496094 L 480.371094 384.253906 L 481.410156 386.054688 L 482.4375 387.84375 L 483.382812 389.496094 L 484.46875 391.390625 L 485.4375 393.089844 L 486.46875 394.90625 L 487.460938 396.648438 L 488.558594 398.585938 L 489.507812 400.269531 L 490.589844 402.183594 L 491.570312 403.933594 L 492.648438 405.851562 L 493.574219 407.511719 L 494.632812 409.402344 L 495.65625 411.238281 L 496.675781 413.074219 L 497.691406 414.90625 L 498.667969 416.671875 L 499.726562 418.585938 L 500.730469 420.414062 L 501.789062 422.34375 L 502.75 424.09375 L 503.808594 426.03125 L 504.824219 427.890625 L 505.839844 429.753906 L 506.894531 431.699219 L 507.871094 433.496094 L 508.867188 435.34375 L 509.96875 437.382812 L 510.964844 439.238281 L 511.984375 441.136719 L 513.023438 443.074219 L 513.976562 444.855469 L 514.992188 446.765625 L 516.003906 448.660156 L 517.082031 450.691406 L 518.03125 452.488281 L 519.132812 454.566406 L 520.125 456.445312 L 521.105469 458.308594 L 522.160156 460.320312 L 523.21875 462.339844 L 524.183594 464.183594 L 525.203125 466.144531 L 526.203125 468.0625 L 527.285156 470.148438 L 528.222656 471.953125 L 529.296875 474.035156 L 530.308594 475.992188 L 531.3125 477.941406 L 532.3125 479.890625 L 533.335938 481.882812 L 534.417969 484.003906 L 535.414062 485.949219 L 536.394531 487.875 L 538.488281 492 L 539.476562 493.949219 L 539.476562 177.617188 L 336.683594 177.617188 "/>
</g>
<g clip-path="url(#clip2)" clip-rule="nonzero">
<path style=" stroke:none;fill-rule:nonzero;fill:rgb(0%,100%,100%);fill-opacity:1;" d="M 59.664062 177.617188 L 336.683594 177.617188 L 335.335938 176.085938 L 333.90625 174.464844 L 332.472656 172.847656 L 331.132812 171.34375 L 329.777344 169.828125 L 328.296875 168.1875 L 326.898438 166.644531 L 325.53125 165.140625 L 324.160156 163.644531 L 322.78125 162.140625 L 321.308594 160.550781 L 320.03125 159.175781 L 318.550781 157.59375 L 317.1875 156.140625 L 315.789062 154.660156 L 314.472656 153.273438 L 313.027344 151.757812 L 311.585938 150.257812 L 310.246094 148.871094 L 308.890625 147.476562 L 307.390625 145.9375 L 306.089844 144.613281 L 304.617188 143.121094 L 303.238281 141.734375 L 301.851562 140.34375 L 300.546875 139.046875 L 299.132812 137.644531 L 297.738281 136.273438 L 296.375 134.941406 L 294.871094 133.476562 L 293.507812 132.160156 L 292.175781 130.878906 L 290.730469 129.5 L 289.347656 128.1875 L 287.960938 126.878906 L 286.515625 125.519531 L 285.203125 124.296875 L 283.757812 122.957031 L 282.382812 121.691406 L 280.9375 120.371094 L 279.605469 119.15625 L 278.214844 117.902344 L 276.820312 116.648438 L 275.425781 115.402344 L 273.984375 114.125 L 272.714844 113.007812 L 271.246094 111.71875 L 269.902344 110.550781 L 268.425781 109.277344 L 267.128906 108.164062 L 265.628906 106.886719 L 264.277344 105.742188 L 262.863281 104.554688 L 261.539062 103.449219 L 260.0625 102.222656 L 258.769531 101.160156 L 257.363281 100.011719 L 255.945312 98.859375 L 254.5625 97.742188 L 253.121094 96.589844 L 251.746094 95.5 L 250.34375 94.390625 L 248.996094 93.335938 L 247.566406 92.226562 L 246.261719 91.214844 L 244.816406 90.109375 L 243.464844 89.085938 L 241.960938 87.949219 L 240.609375 86.933594 L 239.207031 85.894531 L 237.777344 84.839844 L 236.394531 83.828125 L 235.109375 82.894531 L 233.636719 81.835938 L 232.21875 80.820312 L 230.902344 79.890625 L 229.472656 78.882812 L 228.101562 77.925781 L 226.65625 76.929688 L 225.34375 76.03125 L 223.859375 75.019531 L 222.585938 74.160156 L 221.078125 73.15625 L 219.8125 72.316406 L 218.417969 71.398438 L 216.972656 70.457031 L 215.53125 69.527344 L 214.25 68.707031 L 212.796875 67.785156 L 211.382812 66.898438 L 209.964844 66.015625 L 208.59375 65.167969 L 207.273438 64.359375 L 205.84375 63.496094 L 204.410156 62.636719 L 202.984375 61.789062 L 201.714844 61.042969 L 200.296875 60.21875 L 198.8125 59.359375 L 197.539062 58.632812 L 196.019531 57.773438 L 194.738281 57.058594 L 193.308594 56.265625 L 191.875 55.480469 L 190.535156 54.753906 L 189.179688 54.027344 L 187.699219 53.238281 L 186.300781 52.507812 L 184.933594 51.796875 L 183.5625 51.09375 L 182.183594 50.390625 L 180.710938 49.652344 L 179.433594 49.019531 L 177.953125 48.292969 L 176.589844 47.632812 L 175.191406 46.960938 L 173.875 46.339844 L 172.429688 45.660156 L 170.988281 44.996094 L 169.648438 44.386719 L 168.292969 43.773438 L 166.792969 43.109375 L 165.492188 42.535156 L 164.019531 41.898438 L 162.640625 41.308594 L 161.253906 40.722656 L 159.949219 40.183594 L 158.53125 39.601562 L 157.140625 39.035156 L 155.777344 38.492188 L 154.273438 37.902344 L 152.910156 37.375 L 151.578125 36.867188 L 150.132812 36.324219 L 148.75 35.8125 L 147.363281 35.304688 L 145.914062 34.785156 L 144.605469 34.324219 L 143.160156 33.820312 L 141.785156 33.351562 L 140.34375 32.867188 L 139.007812 32.429688 L 137.617188 31.976562 L 136.222656 31.535156 L 134.828125 31.097656 L 133.386719 30.652344 L 132.117188 30.273438 L 130.648438 29.839844 L 129.304688 29.449219 L 127.828125 29.03125 L 126.53125 28.667969 L 125.03125 28.257812 L 123.679688 27.898438 L 122.265625 27.53125 L 120.941406 27.191406 L 119.464844 26.824219 L 118.171875 26.507812 L 116.765625 26.171875 L 115.347656 25.84375 L 113.964844 25.53125 L 112.523438 25.210938 L 111.148438 24.914062 L 109.742188 24.621094 L 108.398438 24.347656 L 106.96875 24.066406 L 105.664062 23.8125 L 104.21875 23.546875 L 102.867188 23.300781 L 101.363281 23.035156 L 100.011719 22.808594 L 98.609375 22.578125 L 97.179688 22.355469 L 95.792969 22.144531 L 94.511719 21.957031 L 93.039062 21.746094 L 91.621094 21.558594 L 90.304688 21.386719 L 88.875 21.210938 L 87.5 21.050781 L 86.058594 20.890625 L 84.746094 20.75 L 83.261719 20.601562 L 81.988281 20.480469 L 80.480469 20.347656 L 79.214844 20.242188 L 77.820312 20.132812 L 76.375 20.027344 L 74.933594 19.933594 L 73.652344 19.855469 L 72.199219 19.777344 L 70.785156 19.707031 L 69.367188 19.648438 L 67.996094 19.597656 L 66.671875 19.554688 L 65.246094 19.515625 L 63.8125 19.488281 L 62.386719 19.46875 L 61.117188 19.457031 L 59.664062 19.453125 L 59.664062 177.617188 "/>
</g>
<path style="fill:none;stroke-width:27.75;stroke-linecap:butt;stroke-linejoin:round;stroke:rgb(100%,0%,0%);stroke-opacity:1;stroke-miterlimit:10;" d="M 596.640625 5355.46875 L 611.171875 5355.429688 L 623.867188 5355.3125 L 638.125 5355.117188 L 652.460938 5354.84375 L 666.71875 5354.453125 L 679.960938 5354.023438 L 693.671875 5353.515625 L 707.851562 5352.929688 L 721.992188 5352.226562 L 736.523438 5351.445312 L 749.335938 5350.664062 L 763.75 5349.726562 L 778.203125 5348.671875 L 792.148438 5347.578125 L 804.804688 5346.523438 L 819.882812 5345.195312 L 832.617188 5343.984375 L 847.460938 5342.5 L 860.585938 5341.09375 L 875 5339.492188 L 888.75 5337.890625 L 903.046875 5336.132812 L 916.210938 5334.414062 L 930.390625 5332.539062 L 945.117188 5330.429688 L 957.929688 5328.554688 L 971.796875 5326.445312 L 986.09375 5324.21875 L 1000.117188 5321.914062 L 1013.632812 5319.648438 L 1028.671875 5316.992188 L 1042.1875 5314.53125 L 1056.640625 5311.875 L 1069.6875 5309.335938 L 1083.984375 5306.523438 L 1097.421875 5303.789062 L 1111.484375 5300.859375 L 1125.234375 5297.890625 L 1139.648438 5294.6875 L 1153.476562 5291.5625 L 1167.65625 5288.28125 L 1181.71875 5284.921875 L 1194.648438 5281.757812 L 1209.414062 5278.085938 L 1222.65625 5274.6875 L 1236.796875 5271.015625 L 1250.3125 5267.421875 L 1265.3125 5263.320312 L 1278.28125 5259.6875 L 1293.046875 5255.507812 L 1306.484375 5251.601562 L 1321.171875 5247.265625 L 1333.867188 5243.476562 L 1348.28125 5239.023438 L 1362.226562 5234.648438 L 1376.171875 5230.234375 L 1390.078125 5225.703125 L 1403.4375 5221.328125 L 1417.851562 5216.484375 L 1431.601562 5211.796875 L 1446.054688 5206.757812 L 1459.140625 5202.148438 L 1473.632812 5196.953125 L 1487.5 5191.875 L 1501.328125 5186.757812 L 1515.78125 5181.328125 L 1529.101562 5176.25 L 1542.734375 5170.976562 L 1557.773438 5165.078125 L 1571.40625 5159.648438 L 1585.3125 5153.984375 L 1599.492188 5148.164062 L 1612.539062 5142.773438 L 1626.40625 5136.914062 L 1640.195312 5131.015625 L 1654.921875 5124.648438 L 1667.929688 5118.90625 L 1682.929688 5112.265625 L 1696.484375 5106.132812 L 1709.882812 5100.039062 L 1724.296875 5093.398438 L 1738.75 5086.601562 L 1751.914062 5080.390625 L 1765.898438 5073.671875 L 1779.53125 5067.070312 L 1794.335938 5059.804688 L 1807.109375 5053.476562 L 1821.835938 5046.09375 L 1835.625 5039.0625 L 1849.335938 5032.03125 L 1863.007812 5024.921875 L 1876.992188 5017.617188 L 1891.796875 5009.726562 L 1905.351562 5002.460938 L 1918.75 4995.195312 L 1933.085938 4987.34375 L 1947.382812 4979.414062 L 1960.195312 4972.265625 L 1975.390625 4963.671875 L 1988.125 4956.40625 L 2002.96875 4947.8125 L 2017.148438 4939.570312 L 2029.84375 4932.109375 L 2044.101562 4923.632812 L 2058.4375 4915.039062 L 2072.734375 4906.40625 L 2085.9375 4898.320312 L 2099.648438 4889.84375 L 2113.828125 4881.015625 L 2127.96875 4872.148438 L 2142.5 4862.929688 L 2155.3125 4854.726562 L 2169.726562 4845.429688 L 2184.179688 4836.015625 L 2198.125 4826.835938 L 2210.78125 4818.4375 L 2225.859375 4808.398438 L 2238.59375 4799.804688 L 2253.4375 4789.6875 L 2266.5625 4780.703125 L 2281.015625 4770.742188 L 2294.726562 4761.171875 L 2309.023438 4751.09375 L 2322.1875 4741.796875 L 2336.367188 4731.640625 L 2351.09375 4721.054688 L 2363.945312 4711.71875 L 2377.773438 4701.601562 L 2392.070312 4691.054688 L 2406.09375 4680.664062 L 2419.609375 4670.507812 L 2434.648438 4659.140625 L 2448.164062 4648.90625 L 2462.617188 4637.851562 L 2475.664062 4627.734375 L 2489.960938 4616.640625 L 2503.4375 4606.09375 L 2517.460938 4595 L 2531.210938 4584.101562 L 2545.625 4572.578125 L 2559.453125 4561.40625 L 2573.632812 4549.882812 L 2587.695312 4538.398438 L 2600.625 4527.773438 L 2615.390625 4515.507812 L 2628.632812 4504.453125 L 2642.773438 4492.578125 L 2656.289062 4481.132812 L 2671.289062 4468.359375 L 2684.257812 4457.226562 L 2699.023438 4444.492188 L 2712.460938 4432.8125 L 2727.148438 4419.921875 L 2739.84375 4408.75 L 2754.257812 4395.976562 L 2768.203125 4383.515625 L 2782.148438 4370.976562 L 2796.054688 4358.4375 L 2809.375 4346.289062 L 2823.828125 4333.085938 L 2837.578125 4320.429688 L 2852.03125 4307.03125 L 2865.15625 4294.804688 L 2879.609375 4281.210938 L 2893.476562 4268.125 L 2907.304688 4255 L 2921.757812 4241.210938 L 2935.078125 4228.398438 L 2948.710938 4215.234375 L 2963.75 4200.585938 L 2977.382812 4187.265625 L 2991.328125 4173.554688 L 3005.46875 4159.53125 L 3018.515625 4146.5625 L 3032.382812 4132.65625 L 3046.171875 4118.789062 L 3060.898438 4103.867188 L 3073.90625 4090.625 L 3088.90625 4075.234375 L 3102.460938 4061.289062 L 3115.859375 4047.421875 L 3130.273438 4032.421875 L 3144.726562 4017.265625 L 3157.890625 4003.398438 L 3171.875 3988.59375 L 3185.507812 3974.0625 L 3200.3125 3958.242188 L 3213.085938 3944.492188 L 3227.8125 3928.59375 L 3241.601562 3913.554688 L 3255.3125 3898.59375 L 3268.984375 3883.554688 L 3282.96875 3868.125 L 3297.773438 3851.71875 L 3311.328125 3836.5625 L 3324.726562 3821.523438 L 3339.0625 3805.351562 L 3353.359375 3789.140625 L 3366.835938 3773.828125 " transform="matrix(0.1,0,0,-0.1,0,555)"/>
<path style="fill:none;stroke-width:27.75;stroke-linecap:butt;stroke-linejoin:round;stroke:rgb(0%,0%,100%);stroke-opacity:1;stroke-miterlimit:10;" d="M 596.640625 3773.828125 L 3366.835938 3773.828125 " transform="matrix(0.1,0,0,-0.1,0,555)"/>
<g clip-path="url(#clip3)" clip-rule="nonzero">
<path style="fill:none;stroke-width:20.8125;stroke-linecap:butt;stroke-linejoin:round;stroke:rgb(0%,100%,100%);stroke-opacity:1;stroke-miterlimit:10;" d="M 596.640625 5355.46875 L 611.171875 5355.429688 L 623.867188 5355.3125 L 638.125 5355.117188 L 652.460938 5354.84375 L 666.71875 5354.453125 L 679.960938 5354.023438 L 693.671875 5353.515625 L 707.851562 5352.929688 L 721.992188 5352.226562 L 736.523438 5351.445312 L 749.335938 5350.664062 L 763.75 5349.726562 L 778.203125 5348.671875 L 792.148438 5347.578125 L 804.804688 5346.523438 L 819.882812 5345.195312 L 832.617188 5343.984375 L 847.460938 5342.5 L 860.585938 5341.09375 L 875 5339.492188 L 888.75 5337.890625 L 903.046875 5336.132812 L 916.210938 5334.414062 L 930.390625 5332.539062 L 945.117188 5330.429688 L 957.929688 5328.554688 L 971.796875 5326.445312 L 986.09375 5324.21875 L 1000.117188 5321.914062 L 1013.632812 5319.648438 L 1028.671875 5316.992188 L 1042.1875 5314.53125 L 1056.640625 5311.875 L 1069.6875 5309.335938 L 1083.984375 5306.523438 L 1097.421875 5303.789062 L 1111.484375 5300.859375 L 1125.234375 5297.890625 L 1139.648438 5294.6875 L 1153.476562 5291.5625 L 1167.65625 5288.28125 L 1181.71875 5284.921875 L 1194.648438 5281.757812 L 1209.414062 5278.085938 L 1222.65625 5274.6875 L 1236.796875 5271.015625 L 1250.3125 5267.421875 L 1265.3125 5263.320312 L 1278.28125 5259.6875 L 1293.046875 5255.507812 L 1306.484375 5251.601562 L 1321.171875 5247.265625 L 1333.867188 5243.476562 L 1348.28125 5239.023438 L 1362.226562 5234.648438 L 1376.171875 5230.234375 L 1390.078125 5225.703125 L 1403.4375 5221.328125 L 1417.851562 5216.484375 L 1431.601562 5211.796875 L 1446.054688 5206.757812 L 1459.140625 5202.148438 L 1473.632812 5196.953125 L 1487.5 5191.875 L 1501.328125 5186.757812 L 1515.78125 5181.328125 L 1529.101562 5176.25 L 1542.734375 5170.976562 L 1557.773438 5165.078125 L 1571.40625 5159.648438 L 1585.3125 5153.984375 L 1599.492188 5148.164062 L 1612.539062 5142.773438 L 1626.40625 5136.914062 L 1640.195312 5131.015625 L 1654.921875 5124.648438 L 1667.929688 5118.90625 L 1682.929688 5112.265625 L 1696.484375 5106.132812 L 1709.882812 5100.039062 L 1724.296875 5093.398438 L 1738.75 5086.601562 L 1751.914062 5080.390625 L 1765.898438 5073.671875 L 1779.53125 5067.070312 L 1794.335938 5059.804688 L 1807.109375 5053.476562 L 1821.835938 5046.09375 L 1835.625 5039.0625 L 1849.335938 5032.03125 L 1863.007812 5024.921875 L 1876.992188 5017.617188 L 1891.796875 5009.726562 L 1905.351562 5002.460938 L 1918.75 4995.195312 L 1933.085938 4987.34375 L 1947.382812 4979.414062 L 1960.195312 4972.265625 L 1975.390625 4963.671875 L 1988.125 4956.40625 L 2002.96875 4947.8125 L 2017.148438 4939.570312 L 2029.84375 4932.109375 L 2044.101562 4923.632812 L 2058.4375 4915.039062 L 2072.734375 4906.40625 L 2085.9375 4898.320312 L 2099.648438 4889.84375 L 2113.828125 4881.015625 L 2127.96875 4872.148438 L 2142.5 4862.929688 L 2155.3125 4854.726562 L 2169.726562 4845.429688 L 2184.179688 4836.015625 L 2198.125 4826.835938 L 2210.78125 4818.4375 L 2225.859375 4808.398438 L 2238.59375 4799.804688 L 2253.4375 4789.6875 L 2266.5625 4780.703125 L 2281.015625 4770.742188 L 2294.726562 4761.171875 L 2309.023438 4751.09375 L 2322.1875 4741.796875 L 2336.367188 4731.640625 L 2351.09375 4721.054688 L 2363.945312 4711.71875 L 2377.773438 4701.601562 L 2392.070312 4691.054688 L 2406.09375 4680.664062 L 2419.609375 4670.507812 L 2434.648438 4659.140625 L 2448.164062 4648.90625 L 2462.617188 4637.851562 L 2475.664062 4627.734375 L 2489.960938 4616.640625 L 2503.4375 4606.09375 L 2517.460938 4595 L 2531.210938 4584.101562 L 2545.625 4572.578125 L 2559.453125 4561.40625 L 2573.632812 4549.882812 L 2587.695312 4538.398438 L 2600.625 4527.773438 L 2615.390625 4515.507812 L 2628.632812 4504.453125 L 2642.773438 4492.578125 L 2656.289062 4481.132812 L 2671.289062 4468.359375 L 2684.257812 4457.226562 L 2699.023438 4444.492188 L 2712.460938 4432.8125 L 2727.148438 4419.921875 L 2739.84375 4408.75 L 2754.257812 4395.976562 L 2768.203125 4383.515625 L 2782.148438 4370.976562 L 2796.054688 4358.4375 L 2809.375 4346.289062 L 2823.828125 4333.085938 L 2837.578125 4320.429688 L 2852.03125 4307.03125 L 2865.15625 4294.804688 L 2879.609375 4281.210938 L 2893.476562 4268.125 L 2907.304688 4255 L 2921.757812 4241.210938 L 2935.078125 4228.398438 L 2948.710938 4215.234375 L 2963.75 4200.585938 L 2977.382812 4187.265625 L 2991.328125 4173.554688 L 3005.46875 4159.53125 L 3018.515625 4146.5625 L 3032.382812 4132.65625 L 3046.171875 4118.789062 L 3060.898438 4103.867188 L 3073.90625 4090.625 L 3088.90625 4075.234375 L 3102.460938 4061.289062 L 3115.859375 4047.421875 L 3130.273438 4032.421875 L 3144.726562 4017.265625 L 3157.890625 4003.398438 L 3171.875 3988.59375 L 3185.507812 3974.0625 L 3200.3125 3958.242188 L 3213.085938 3944.492188 L 3227.8125 3928.59375 L 3241.601562 3913.554688 L 3255.3125 3898.59375 L 3268.984375 3883.554688 L 3282.96875 3868.125 L 3297.773438 3851.71875 L 3311.328125 3836.5625 L 3324.726562 3821.523438 L 3339.0625 3805.351562 L 3353.359375 3789.140625 L 3366.835938 3773.828125 " transform="matrix(0.1,0,0,-0.1,0,555)"/>
</g>
<path style="fill:none;stroke-width:27.75;stroke-linecap:butt;stroke-linejoin:round;stroke:rgb(0%,0%,100%);stroke-opacity:1;stroke-miterlimit:10;" d="M 3366.835938 3773.828125 L 5394.765625 3773.828125 " transform="matrix(0.1,0,0,-0.1,0,555)"/>
<path style="fill:none;stroke-width:27.75;stroke-linecap:butt;stroke-linejoin:round;stroke:rgb(100%,0%,0%);stroke-opacity:1;stroke-miterlimit:10;" d="M 3366.835938 3773.828125 L 3386.757812 3750.976562 L 3397.1875 3738.945312 L 3407.695312 3726.796875 L 3418.164062 3714.6875 L 3427.851562 3703.398438 L 3437.890625 3691.640625 L 3448.242188 3679.453125 L 3458.59375 3667.304688 L 3469.21875 3654.726562 L 3478.59375 3643.59375 L 3489.140625 3631.054688 L 3499.765625 3618.398438 L 3509.960938 3606.171875 L 3519.21875 3595 L 3530.273438 3581.679688 L 3539.609375 3570.390625 L 3550.46875 3557.1875 L 3560.078125 3545.46875 L 3570.625 3532.539062 L 3580.664062 3520.195312 L 3591.171875 3507.304688 L 3600.78125 3495.390625 L 3611.171875 3482.539062 L 3631.328125 3457.34375 L 3641.445312 3444.648438 L 3651.953125 3431.484375 L 3662.1875 3418.554688 L 3672.109375 3406.015625 L 3683.125 3392.03125 L 3693.007812 3379.414062 L 3703.554688 3365.9375 L 3713.125 3353.632812 L 3723.59375 3340.195312 L 3733.4375 3327.460938 L 3743.75 3314.140625 L 3753.789062 3301.054688 L 3764.335938 3287.34375 L 3774.453125 3274.0625 L 3784.84375 3260.46875 L 3795.15625 3246.914062 L 3804.609375 3234.414062 L 3815.429688 3220.078125 L 3825.117188 3207.1875 L 3835.46875 3193.4375 L 3845.351562 3180.195312 L 3856.328125 3165.46875 L 3865.859375 3152.695312 L 3876.640625 3138.125 L 3886.484375 3124.804688 L 3897.226562 3110.15625 L 3906.523438 3097.539062 L 3917.070312 3083.085938 L 3927.304688 3069.0625 L 3937.5 3055.039062 L 3947.65625 3041.015625 L 3957.421875 3027.5 L 3968.007812 3012.851562 L 3978.085938 2998.828125 L 3988.671875 2984.023438 L 3998.242188 2970.625 L 4008.867188 2955.742188 L 4029.101562 2927.148438 L 4039.726562 2912.148438 L 4049.453125 2898.28125 L 4059.414062 2884.0625 L 4070.429688 2868.320312 L 4080.390625 2854.023438 L 4090.625 2839.335938 L 4100.976562 2824.375 L 4110.507812 2810.585938 L 4120.664062 2795.859375 L 4130.78125 2781.171875 L 4141.5625 2765.429688 L 4151.09375 2751.523438 L 4162.070312 2735.390625 L 4171.992188 2720.78125 L 4181.796875 2706.328125 L 4192.34375 2690.703125 L 4202.929688 2675 L 4212.578125 2660.625 L 4222.8125 2645.351562 L 4232.773438 2630.429688 L 4243.59375 2614.179688 L 4252.96875 2600.078125 L 4263.710938 2583.828125 L 4273.867188 2568.515625 L 4283.867188 2553.320312 L 4293.867188 2538.085938 L 4304.101562 2522.460938 L 4314.960938 2505.898438 L 4324.882812 2490.625 L 4334.6875 2475.546875 L 4345.195312 2459.375 L 4355.625 2443.164062 L 4365.039062 2428.59375 L 4376.132812 2411.289062 L 4385.46875 2396.757812 L 4396.367188 2379.726562 L 4406.757812 2363.4375 L 4416.015625 2348.867188 L 4426.445312 2332.421875 L 4436.953125 2315.820312 L 4447.382812 2299.257812 L 4457.109375 2283.828125 L 4467.148438 2267.851562 L 4487.851562 2234.726562 L 4498.476562 2217.617188 L 4507.851562 2202.539062 L 4518.398438 2185.507812 L 4529.023438 2168.359375 L 4539.21875 2151.796875 L 4548.476562 2136.71875 L 4559.492188 2118.710938 L 4568.828125 2103.4375 L 4579.726562 2085.625 L 4589.335938 2069.804688 L 4599.882812 2052.421875 L 4609.921875 2035.859375 L 4620.390625 2018.476562 L 4630.039062 2002.460938 L 4640.390625 1985.195312 L 4651.171875 1967.1875 L 4660.585938 1951.484375 L 4670.703125 1934.492188 L 4681.171875 1916.875 L 4691.445312 1899.609375 L 4701.367188 1882.851562 L 4712.382812 1864.179688 L 4722.265625 1847.382812 L 4732.8125 1829.414062 L 4742.382812 1813.046875 L 4752.851562 1795.15625 L 4762.695312 1778.28125 L 4772.96875 1760.585938 L 4783.046875 1743.242188 L 4793.59375 1725.039062 L 4803.710938 1707.460938 L 4814.101562 1689.453125 L 4824.375 1671.5625 L 4833.828125 1655.039062 L 4844.6875 1636.09375 L 4854.375 1619.101562 L 4864.6875 1600.9375 L 4874.609375 1583.515625 L 4885.585938 1564.140625 L 4895.078125 1547.304688 L 4905.898438 1528.164062 L 4915.703125 1510.664062 L 4926.484375 1491.484375 L 4935.742188 1474.882812 L 4946.328125 1455.976562 L 4956.5625 1437.617188 L 4966.757812 1419.257812 L 4976.914062 1400.9375 L 4986.679688 1383.28125 L 4997.265625 1364.140625 L 5007.304688 1345.859375 L 5017.890625 1326.5625 L 5027.5 1309.0625 L 5038.085938 1289.6875 L 5048.242188 1271.09375 L 5058.398438 1252.460938 L 5068.945312 1233.007812 L 5078.710938 1215.039062 L 5088.671875 1196.5625 L 5099.6875 1176.171875 L 5109.648438 1157.617188 L 5119.84375 1138.632812 L 5130.234375 1119.257812 L 5139.765625 1101.445312 L 5149.921875 1082.34375 L 5160.039062 1063.398438 L 5170.820312 1043.085938 L 5180.3125 1025.117188 L 5191.328125 1004.335938 L 5201.25 985.546875 L 5211.054688 966.914062 L 5221.601562 946.796875 L 5232.1875 926.601562 L 5241.835938 908.164062 L 5252.03125 888.554688 L 5262.03125 869.375 L 5272.851562 848.515625 L 5282.226562 830.46875 L 5292.96875 809.648438 L 5303.085938 790.078125 L 5313.125 770.585938 L 5323.125 751.09375 L 5333.359375 731.171875 L 5344.179688 709.960938 L 5354.140625 690.507812 L 5363.945312 671.25 L 5384.882812 630 L 5394.765625 610.507812 " transform="matrix(0.1,0,0,-0.1,0,555)"/>
<path style="fill:none;stroke-width:20.8125;stroke-linecap:butt;stroke-linejoin:round;stroke:rgb(100%,75.389099%,79.6875%);stroke-opacity:1;stroke-miterlimit:10;" d="M 3366.835938 3773.828125 L 5394.765625 3773.828125 " transform="matrix(0.1,0,0,-0.1,0,555)"/>
<path style="fill:none;stroke-width:27.75;stroke-linecap:butt;stroke-linejoin:round;stroke:rgb(100%,0%,0%);stroke-opacity:1;stroke-miterlimit:10;" d="M 596.640625 5355.46875 L 621.835938 5355.351562 L 643.789062 5355.039062 L 668.476562 5354.414062 L 693.320312 5353.554688 L 718.046875 5352.421875 L 740.976562 5351.171875 L 764.726562 5349.648438 L 789.296875 5347.8125 L 813.75 5345.742188 L 838.945312 5343.359375 L 861.09375 5341.054688 L 886.054688 5338.203125 L 911.132812 5335.078125 L 935.273438 5331.835938 L 957.226562 5328.671875 L 983.320312 5324.648438 L 1005.390625 5321.054688 L 1031.09375 5316.5625 L 1053.867188 5312.382812 L 1078.828125 5307.539062 L 1102.578125 5302.695312 L 1127.382812 5297.421875 L 1150.15625 5292.304688 L 1174.726562 5286.601562 L 1200.234375 5280.390625 L 1222.460938 5274.765625 L 1246.445312 5268.4375 L 1271.210938 5261.679688 L 1295.46875 5254.804688 L 1318.945312 5247.929688 L 1344.960938 5240.039062 L 1368.398438 5232.695312 L 1393.359375 5224.648438 L 1416.015625 5217.109375 L 1440.78125 5208.59375 L 1464.0625 5200.390625 L 1488.398438 5191.5625 L 1512.226562 5182.695312 L 1537.148438 5173.164062 L 1561.132812 5163.710938 L 1585.703125 5153.867188 L 1610.039062 5143.789062 L 1632.382812 5134.375 L 1658.046875 5123.28125 L 1680.976562 5113.125 L 1705.429688 5102.070312 L 1728.828125 5091.289062 L 1754.804688 5079.023438 L 1777.304688 5068.164062 L 1802.851562 5055.585938 L 1826.09375 5043.90625 L 1851.5625 5030.898438 L 1873.515625 5019.414062 L 1898.554688 5006.132812 L 1922.695312 4993.046875 L 1946.875 4979.726562 L 1970.9375 4966.210938 L 1994.023438 4953.007812 L 2019.023438 4938.476562 L 2042.8125 4924.375 L 2067.890625 4909.335938 L 2090.585938 4895.46875 L 2115.664062 4879.882812 L 2139.6875 4864.726562 L 2163.632812 4849.375 L 2188.671875 4833.085938 L 2211.71875 4817.851562 L 2235.3125 4801.992188 L 2261.40625 4784.257812 L 2285 4767.96875 L 2309.101562 4751.054688 L 2333.671875 4733.59375 L 2356.210938 4717.34375 L 2380.273438 4699.765625 L 2404.140625 4682.109375 L 2429.648438 4662.96875 L 2452.1875 4645.820312 L 2478.203125 4625.78125 L 2501.640625 4607.5 L 2524.84375 4589.140625 L 2549.804688 4569.21875 L 2574.882812 4548.90625 L 2597.65625 4530.195312 L 2621.875 4510.117188 L 2645.507812 4490.273438 L 2671.132812 4468.476562 L 2693.28125 4449.453125 L 2718.75 4427.304688 L 2742.65625 4406.25 L 2766.367188 4385.195312 L 2790.078125 4363.867188 L 2814.257812 4341.875 L 2839.921875 4318.28125 L 2863.398438 4296.445312 L 2886.640625 4274.648438 L 2911.445312 4251.09375 L 2936.171875 4227.34375 L 2958.398438 4205.820312 L 2984.726562 4180.039062 L 3006.757812 4158.28125 L 3032.5 4132.539062 L 3057.070312 4107.734375 L 3079.023438 4085.390625 L 3103.710938 4060 L 3128.554688 4034.21875 L 3153.28125 4008.242188 L 3176.210938 3983.984375 L 3199.960938 3958.632812 L 3224.492188 3932.148438 L 3248.984375 3905.507812 L 3274.179688 3877.851562 L 3296.328125 3853.28125 L 3321.289062 3825.390625 L 3346.367188 3797.109375 L 3370.507812 3769.609375 L 3392.460938 3744.414062 L 3418.554688 3714.21875 L 3440.625 3688.4375 L 3466.328125 3658.164062 L 3489.0625 3631.132812 L 3514.023438 3601.25 L 3537.8125 3572.539062 L 3562.617188 3542.34375 L 3585.390625 3514.414062 L 3609.960938 3484.023438 L 3635.46875 3452.1875 L 3657.695312 3424.257812 L 3681.679688 3393.867188 L 3706.445312 3362.226562 L 3730.703125 3331.015625 L 3754.140625 3300.585938 L 3780.195312 3266.5625 L 3803.59375 3235.742188 L 3828.59375 3202.578125 L 3851.25 3172.304688 L 3876.015625 3138.945312 L 3899.296875 3107.34375 L 3923.632812 3074.101562 L 3947.460938 3041.328125 L 3972.382812 3006.757812 L 3996.367188 2973.242188 L 4020.9375 2938.710938 L 4045.273438 2904.257812 L 4067.65625 2872.34375 L 4093.28125 2835.507812 L 4116.210938 2802.34375 L 4140.664062 2766.757812 L 4164.023438 2732.460938 L 4190.039062 2694.101562 L 4212.539062 2660.703125 L 4238.046875 2622.5 L 4261.328125 2587.460938 L 4286.796875 2548.867188 L 4308.75 2515.351562 L 4333.789062 2476.953125 L 4357.96875 2439.609375 L 4382.109375 2402.03125 L 4406.171875 2364.375 L 4429.257812 2327.96875 L 4454.257812 2288.359375 L 4478.085938 2250.351562 L 4503.125 2210.15625 L 4525.820312 2173.476562 L 4550.898438 2132.734375 L 4574.921875 2093.476562 L 4598.867188 2054.0625 L 4623.90625 2012.65625 L 4646.953125 1974.296875 L 4670.546875 1934.765625 L 4696.601562 1890.859375 L 4720.234375 1850.859375 L 4744.335938 1809.726562 L 4768.90625 1767.617188 L 4791.445312 1728.710938 L 4815.507812 1687.03125 L 4839.375 1645.390625 L 4864.882812 1600.625 L 4887.421875 1560.859375 L 4913.398438 1514.765625 L 4936.875 1472.890625 L 4960.078125 1431.289062 L 4985.039062 1386.25 L 5010.117188 1340.78125 L 5032.890625 1299.21875 L 5057.109375 1254.804688 L 5080.742188 1211.25 L 5106.367188 1163.789062 L 5128.515625 1122.460938 L 5153.945312 1074.804688 L 5177.890625 1029.726562 L 5201.601562 984.84375 L 5225.3125 939.726562 L 5249.492188 893.4375 L 5275.15625 844.140625 L 5298.671875 798.671875 L 5321.875 753.59375 L 5346.640625 705.15625 L 5371.40625 656.5625 L 5394.765625 610.507812 " transform="matrix(0.1,0,0,-0.1,0,555)"/>
<path style="fill:none;stroke-width:27.75;stroke-linecap:butt;stroke-linejoin:round;stroke:rgb(0%,0%,100%);stroke-opacity:1;stroke-miterlimit:10;" d="M 596.640625 3773.828125 L 5394.765625 3773.828125 " transform="matrix(0.1,0,0,-0.1,0,555)"/>
<path style="fill:none;stroke-width:13.875;stroke-linecap:square;stroke-linejoin:miter;stroke:rgb(0%,0%,0%);stroke-opacity:1;stroke-miterlimit:10;" d="M 3401.523438 3780.742188 C 3401.523438 3757.773438 3382.890625 3739.140625 3359.882812 3739.140625 C 3336.914062 3739.140625 3318.242188 3757.773438 3318.242188 3780.742188 C 3318.242188 3803.75 3336.914062 3822.382812 3359.882812 3822.382812 C 3382.890625 3822.382812 3401.523438 3803.75 3401.523438 3780.742188 Z M 3401.523438 3780.742188 " transform="matrix(0.1,0,0,-0.1,0,555)"/>
<path style=" stroke:none;fill-rule:nonzero;fill:rgb(0%,0%,0%);fill-opacity:1;" d="M 340.152344 176.925781 C 340.152344 179.222656 338.289062 181.085938 335.988281 181.085938 C 333.691406 181.085938 331.824219 179.222656 331.824219 176.925781 C 331.824219 174.625 333.691406 172.761719 335.988281 172.761719 C 338.289062 172.761719 340.152344 174.625 340.152344 176.925781 "/>
<g clip-path="url(#clip4)" clip-rule="nonzero">
<path style=" stroke:none;fill-rule:nonzero;fill:rgb(100%,0%,0%);fill-opacity:1;" d="M 267.722656 97.773438 C 269.226562 96.734375 271.105469 95.175781 273.359375 93.09375 L 273.8125 92.660156 C 273.726562 90.765625 273.488281 88.769531 273.097656 86.675781 C 272.707031 84.578125 272.304688 83.0625 271.886719 82.121094 C 271.523438 81.355469 271.238281 80.90625 271.027344 80.769531 C 270.816406 80.628906 270.257812 80.539062 269.347656 80.496094 L 269.066406 80.476562 L 269.195312 79.714844 L 273.617188 79.714844 C 274.890625 82.707031 275.621094 86.203125 275.808594 90.210938 L 277.304688 88.300781 C 278.792969 86.40625 279.78125 85.023438 280.273438 84.148438 C 280.765625 83.273438 281.011719 82.46875 281.011719 81.730469 C 281.011719 80.964844 280.6875 80.292969 280.035156 79.714844 L 283.050781 79.714844 C 283.238281 80.078125 283.332031 80.425781 283.332031 80.757812 C 283.332031 81.449219 283.105469 82.171875 282.648438 82.925781 C 282.191406 83.675781 281.25 84.910156 279.816406 86.632812 L 275.179688 92.160156 C 273.34375 94.371094 271.972656 96.242188 271.0625 97.773438 L 267.722656 97.773438 "/>
</g>
<path style=" stroke:none;fill-rule:nonzero;fill:rgb(100%,0%,0%);fill-opacity:1;" d="M 292.175781 88.605469 L 292.414062 87.390625 L 306.855469 87.390625 L 306.613281 88.605469 Z M 293.066406 84.074219 L 293.304688 82.882812 L 307.765625 82.882812 L 307.503906 84.074219 L 293.066406 84.074219 "/>
<path style=" stroke:none;fill-rule:nonzero;fill:rgb(100%,0%,0%);fill-opacity:1;" d="M 317.128906 92.960938 L 317.390625 91.617188 C 318.285156 89.78125 320.054688 87.832031 322.703125 85.765625 L 323.9375 84.8125 C 326.914062 82.484375 328.402344 80.375 328.402344 78.480469 C 328.402344 76.3125 327.378906 75.230469 325.324219 75.230469 C 323.34375 75.230469 322.1875 75.863281 321.855469 77.136719 L 321.597656 78.15625 L 321.53125 78.371094 L 320.339844 78.371094 L 320.878906 75.640625 C 322.511719 74.84375 324.21875 74.449219 325.996094 74.449219 C 327.542969 74.449219 328.757812 74.796875 329.640625 75.5 C 330.519531 76.199219 330.960938 77.164062 330.960938 78.394531 C 330.960938 79.5625 330.621094 80.597656 329.941406 81.492188 C 329.265625 82.390625 328.054688 83.371094 326.320312 84.441406 L 324.4375 85.636719 C 321.515625 87.46875 320.054688 89.210938 320.054688 90.859375 L 328.445312 90.859375 L 327.882812 92.960938 L 317.128906 92.960938 "/>
<g clip-path="url(#clip5)" clip-rule="nonzero">
<path style=" stroke:none;fill-rule:nonzero;fill:rgb(100%,0%,0%);fill-opacity:1;" d="M 354.917969 86.113281 L 338.441406 86.113281 L 338.679688 84.8125 L 355.15625 84.8125 L 354.917969 86.113281 "/>
</g>
<path style=" stroke:none;fill-rule:nonzero;fill:rgb(100%,0%,0%);fill-opacity:1;" d="M 367.230469 86.242188 L 365.734375 82.882812 L 365.128906 81.644531 C 364.914062 81.167969 364.730469 80.867188 364.585938 80.746094 C 364.441406 80.621094 364.175781 80.554688 363.785156 80.539062 L 363.046875 80.496094 L 362.832031 80.476562 L 362.960938 79.714844 L 366.929688 79.714844 L 369.355469 84.917969 L 369.898438 84.464844 C 371.488281 83.179688 372.28125 82.109375 372.28125 81.253906 C 372.28125 80.808594 372.101562 80.292969 371.738281 79.714844 L 374.148438 79.714844 C 374.234375 80.003906 374.277344 80.257812 374.277344 80.476562 C 374.277344 81.167969 374.03125 81.800781 373.539062 82.371094 C 373.050781 82.941406 371.941406 83.878906 370.222656 85.179688 L 369.636719 85.613281 L 371.652344 89.820312 L 372.390625 91.164062 C 372.710938 91.785156 373.113281 92.117188 373.605469 92.160156 L 374.40625 92.203125 L 374.625 92.203125 L 374.472656 92.960938 L 370.484375 92.960938 L 367.621094 86.9375 L 366.582031 87.867188 C 364.921875 89.355469 364.089844 90.644531 364.089844 91.726562 C 364.089844 92.160156 364.226562 92.570312 364.5 92.960938 L 361.898438 92.960938 C 361.871094 92.730469 361.855469 92.558594 361.855469 92.441406 C 361.855469 91.402344 362.613281 90.214844 364.132812 88.886719 L 366.015625 87.28125 L 367.230469 86.242188 "/>
<path style=" stroke:none;fill-rule:nonzero;fill:rgb(100%,0%,0%);fill-opacity:1;" d="M 374.90625 77.699219 L 375.121094 76.636719 C 375.816406 75.222656 377.191406 73.710938 379.242188 72.105469 L 380.21875 71.347656 C 382.546875 69.539062 383.707031 67.902344 383.707031 66.425781 C 383.707031 64.75 382.90625 63.910156 381.300781 63.910156 C 379.753906 63.910156 378.851562 64.410156 378.59375 65.40625 L 378.394531 66.164062 L 378.351562 66.339844 L 377.421875 66.339844 L 377.832031 64.238281 C 379.117188 63.613281 380.449219 63.304688 381.820312 63.304688 C 383.023438 63.304688 383.964844 63.574219 384.652344 64.117188 C 385.339844 64.660156 385.679688 65.40625 385.679688 66.359375 C 385.679688 67.273438 385.417969 68.074219 384.890625 68.769531 C 384.363281 69.460938 383.417969 70.234375 382.0625 71.085938 L 380.609375 71.996094 C 378.324219 73.429688 377.183594 74.78125 377.183594 76.050781 L 383.730469 76.050781 L 383.273438 77.699219 L 374.90625 77.699219 "/>
<path style=" stroke:none;fill-rule:nonzero;fill:rgb(0%,0%,0%);fill-opacity:1;" d="M 216.363281 219.3125 L 216.363281 220.070312 C 214.628906 218.984375 213.253906 217.410156 212.242188 215.34375 C 211.230469 213.277344 210.726562 211.023438 210.726562 208.578125 C 210.726562 206.210938 211.242188 203.980469 212.277344 201.890625 C 213.308594 199.804688 214.671875 198.238281 216.363281 197.199219 L 216.363281 197.957031 C 215.121094 199.34375 214.269531 200.796875 213.816406 202.3125 C 213.359375 203.832031 213.132812 205.933594 213.132812 208.621094 C 213.132812 211.296875 213.359375 213.390625 213.816406 214.910156 C 214.269531 216.429688 215.121094 217.894531 216.363281 219.3125 "/>
<path style=" stroke:none;fill-rule:nonzero;fill:rgb(0%,0%,0%);fill-opacity:1;" d="M 230.800781 184.363281 L 230.800781 199.410156 L 230.886719 200.621094 C 230.917969 201.113281 231.054688 201.4375 231.300781 201.589844 C 231.546875 201.738281 232.058594 201.816406 232.839844 201.816406 L 234.269531 201.816406 L 234.269531 202.574219 L 224.949219 202.574219 L 224.949219 201.816406 L 226.355469 201.816406 C 227.136719 201.816406 227.652344 201.738281 227.90625 201.589844 C 228.160156 201.4375 228.300781 201.113281 228.328125 200.621094 L 228.394531 199.410156 L 228.394531 188.222656 L 228.328125 186.984375 C 228.328125 186.410156 228.15625 186.117188 227.808594 186.117188 C 227.5625 186.117188 227.007812 186.199219 226.140625 186.359375 L 224.949219 186.597656 L 224.949219 185.835938 L 230.800781 184.363281 "/>
<path style=" stroke:none;fill-rule:nonzero;fill:rgb(0%,0%,0%);fill-opacity:1;" d="M 224.253906 234.355469 L 224.253906 231.191406 L 225.46875 231.191406 L 225.46875 231.453125 L 225.511719 232.296875 C 225.511719 232.816406 225.816406 233.261719 226.433594 233.628906 C 227.046875 234 227.804688 234.183594 228.699219 234.183594 C 229.753906 234.183594 230.605469 233.765625 231.257812 232.925781 C 231.90625 232.085938 232.234375 230.984375 232.234375 229.609375 C 232.234375 228.234375 231.804688 227.164062 230.953125 226.390625 C 230.101562 225.617188 228.914062 225.230469 227.398438 225.230469 L 225.925781 225.230469 L 225.925781 224.492188 L 226.726562 224.492188 C 230.121094 224.492188 231.820312 223.121094 231.820312 220.375 C 231.820312 217.945312 230.742188 216.730469 228.589844 216.730469 C 227.664062 216.730469 226.847656 216.933594 226.140625 217.339844 C 225.878906 217.480469 225.707031 218.117188 225.621094 219.246094 L 225.597656 219.441406 L 224.382812 219.441406 L 224.382812 216.6875 C 225.683594 216.210938 227.160156 215.972656 228.808594 215.972656 C 230.484375 215.972656 231.804688 216.34375 232.773438 217.089844 C 233.742188 217.832031 234.226562 218.847656 234.226562 220.136719 C 234.226562 222.273438 232.964844 223.808594 230.433594 224.730469 C 231.980469 225.136719 233.085938 225.707031 233.75 226.445312 C 234.414062 227.179688 234.746094 228.207031 234.746094 229.519531 C 234.746094 231.183594 234.210938 232.503906 233.132812 233.480469 C 232.054688 234.453125 230.589844 234.941406 228.742188 234.941406 C 227.019531 234.941406 225.527344 234.746094 224.253906 234.355469 "/>
<path style="fill:none;stroke-width:13.875;stroke-linecap:square;stroke-linejoin:miter;stroke:rgb(0%,0%,0%);stroke-opacity:1;stroke-miterlimit:10;" d="M 2199.179688 3461.796875 L 2407.304688 3461.796875 " transform="matrix(0.1,0,0,-0.1,0,555)"/>
<path style=" stroke:none;fill-rule:nonzero;fill:rgb(0%,0%,0%);fill-opacity:1;" d="M 265.140625 191.476562 L 257.632812 220.613281 L 256.875 220.613281 L 251.539062 210.304688 L 249.75 211.015625 L 249.75 210.402344 L 252.835938 209.203125 L 257.144531 217.527344 L 263.839844 191.476562 "/>
<path style=" stroke:none;fill-rule:nonzero;fill:rgb(0%,0%,0%);fill-opacity:1;" d="M 265.140625 192.863281 L 291.5 192.863281 L 291.5 191.472656 L 265.140625 191.472656 Z M 265.140625 192.863281 "/>
<path style=" stroke:none;fill-rule:nonzero;fill:rgb(0%,0%,0%);fill-opacity:1;" d="M 274.613281 207.214844 C 275.757812 205.652344 277.210938 204.871094 278.972656 204.871094 C 280.546875 204.871094 281.835938 205.394531 282.832031 206.445312 C 283.828125 207.492188 284.328125 208.855469 284.328125 210.53125 C 284.328125 212.324219 283.761719 213.832031 282.628906 215.0625 C 281.492188 216.289062 280.09375 216.90625 278.429688 216.90625 C 276.394531 216.90625 274.820312 216.105469 273.714844 214.507812 C 272.609375 212.910156 272.058594 210.644531 272.058594 207.714844 C 272.058594 204.605469 272.695312 202.199219 273.964844 200.492188 C 275.238281 198.785156 277.03125 197.933594 279.34375 197.933594 C 280.84375 197.933594 282.167969 198.203125 283.308594 198.738281 L 283.308594 201.644531 L 282.117188 201.644531 L 282.09375 201.382812 L 282.03125 200.515625 C 281.988281 199.980469 281.695312 199.542969 281.152344 199.203125 C 280.609375 198.863281 279.929688 198.695312 279.105469 198.695312 C 277.6875 198.695312 276.585938 199.4375 275.796875 200.925781 C 275.007812 202.414062 274.613281 204.511719 274.613281 207.214844 Z M 274.703125 209.792969 C 274.703125 211.65625 275.078125 213.179688 275.828125 214.359375 C 276.582031 215.535156 277.550781 216.125 278.734375 216.125 C 280.859375 216.125 281.921875 214.367188 281.921875 210.855469 C 281.921875 207.414062 280.816406 205.695312 278.605469 205.695312 C 277.40625 205.695312 276.453125 206.070312 275.753906 206.8125 C 275.054688 207.558594 274.703125 208.550781 274.703125 209.792969 "/>
<path style=" stroke:none;fill-rule:nonzero;fill:rgb(0%,0%,0%);fill-opacity:1;" d="M 294.386719 216.449219 L 293.171875 216.449219 L 293.171875 213.4375 L 296.1875 213.4375 L 296.1875 216.058594 C 296.1875 217.085938 296.128906 217.792969 296.011719 218.183594 C 295.898438 218.574219 295.636719 218.984375 295.234375 219.417969 C 294.65625 219.996094 293.96875 220.316406 293.171875 220.375 L 293.171875 219.613281 C 293.984375 219.542969 294.386719 218.753906 294.386719 217.253906 L 294.386719 216.449219 "/>
<path style=" stroke:none;fill-rule:nonzero;fill:rgb(0%,0%,0%);fill-opacity:1;" d="M 311.515625 197.457031 L 303.230469 197.457031 L 303.230469 196.265625 L 312.25 184.210938 L 313.617188 184.210938 L 313.617188 195.636719 L 316.023438 195.636719 L 316.023438 197.457031 L 313.617188 197.457031 L 313.617188 199.410156 C 313.617188 200.378906 313.691406 201 313.835938 201.273438 C 313.980469 201.546875 314.304688 201.707031 314.808594 201.75 L 315.65625 201.816406 L 315.871094 201.816406 L 315.871094 202.574219 L 308.957031 202.574219 L 308.957031 201.816406 L 309.175781 201.816406 L 310.429688 201.75 C 310.878906 201.722656 311.171875 201.554688 311.308594 201.25 C 311.445312 200.949219 311.515625 200.335938 311.515625 199.410156 Z M 304.578125 195.636719 L 311.515625 195.636719 L 311.515625 186.445312 L 304.578125 195.636719 "/>
<path style=" stroke:none;fill-rule:nonzero;fill:rgb(0%,0%,0%);fill-opacity:1;" d="M 304.730469 234.355469 L 304.730469 231.191406 L 305.945312 231.191406 L 305.945312 231.453125 L 305.988281 232.296875 C 305.988281 232.816406 306.292969 233.261719 306.90625 233.628906 C 307.523438 234 308.277344 234.183594 309.175781 234.183594 C 310.230469 234.183594 311.082031 233.765625 311.730469 232.925781 C 312.382812 232.085938 312.707031 230.984375 312.707031 229.609375 C 312.707031 228.234375 312.28125 227.164062 311.429688 226.390625 C 310.574219 225.617188 309.390625 225.230469 307.871094 225.230469 L 306.398438 225.230469 L 306.398438 224.492188 L 307.199219 224.492188 C 310.597656 224.492188 312.296875 223.121094 312.296875 220.375 C 312.296875 217.945312 311.21875 216.730469 309.066406 216.730469 C 308.140625 216.730469 307.324219 216.933594 306.613281 217.339844 C 306.355469 217.480469 306.179688 218.117188 306.09375 219.246094 L 306.074219 219.441406 L 304.859375 219.441406 L 304.859375 216.6875 C 306.160156 216.210938 307.632812 215.972656 309.28125 215.972656 C 310.957031 215.972656 312.28125 216.34375 313.25 217.089844 C 314.21875 217.832031 314.703125 218.847656 314.703125 220.136719 C 314.703125 222.273438 313.4375 223.808594 310.90625 224.730469 C 312.453125 225.136719 313.558594 225.707031 314.222656 226.445312 C 314.890625 227.179688 315.222656 228.207031 315.222656 229.519531 C 315.222656 231.183594 314.683594 232.503906 313.605469 233.480469 C 312.53125 234.453125 311.066406 234.941406 309.21875 234.941406 C 307.496094 234.941406 306 234.746094 304.730469 234.355469 "/>
<path style="fill:none;stroke-width:13.875;stroke-linecap:square;stroke-linejoin:miter;stroke:rgb(0%,0%,0%);stroke-opacity:1;stroke-miterlimit:10;" d="M 3003.945312 3461.796875 L 3212.070312 3461.796875 " transform="matrix(0.1,0,0,-0.1,0,555)"/>
<path style=" stroke:none;fill-rule:nonzero;fill:rgb(0%,0%,0%);fill-opacity:1;" d="M 324.761719 219.3125 L 324.761719 220.070312 C 326.496094 218.984375 327.867188 217.410156 328.878906 215.34375 C 329.890625 213.277344 330.398438 211.023438 330.398438 208.578125 C 330.398438 206.210938 329.882812 203.980469 328.847656 201.890625 C 327.816406 199.804688 326.453125 198.238281 324.761719 197.199219 L 324.761719 197.957031 C 326.003906 199.34375 326.855469 200.796875 327.308594 202.3125 C 327.765625 203.832031 327.992188 205.933594 327.992188 208.621094 C 327.992188 211.296875 327.765625 213.390625 327.308594 214.910156 C 326.855469 216.429688 326.003906 217.894531 324.761719 219.3125 "/>
<path style="fill:none;stroke-width:13.875;stroke-linecap:butt;stroke-linejoin:round;stroke:rgb(0%,0%,0%);stroke-opacity:1;stroke-miterlimit:10;" d="M 596.640625 610.507812 L 5394.765625 610.507812 " transform="matrix(0.1,0,0,-0.1,0,555)"/>
<path style=" stroke:none;fill-rule:nonzero;fill:rgb(0%,0%,0%);fill-opacity:1;" d="M 298.660156 534.535156 C 298.949219 534.835938 299.164062 535.148438 299.308594 535.464844 C 299.425781 535.667969 299.597656 536.21875 299.828125 537.113281 L 300.609375 535.964844 C 300.8125 535.675781 301.0625 535.40625 301.359375 535.152344 C 301.652344 534.898438 301.910156 534.722656 302.128906 534.621094 C 302.273438 534.5625 302.429688 534.535156 302.605469 534.535156 C 302.851562 534.535156 303.050781 534.601562 303.199219 534.738281 C 303.351562 534.878906 303.429688 535.039062 303.429688 535.226562 C 303.429688 535.457031 303.386719 535.617188 303.296875 535.703125 C 303.140625 535.847656 302.949219 535.921875 302.734375 535.921875 C 302.605469 535.921875 302.476562 535.894531 302.34375 535.835938 C 302.070312 535.75 301.882812 535.703125 301.78125 535.703125 C 301.636719 535.703125 301.46875 535.785156 301.28125 535.941406 C 300.921875 536.246094 300.488281 536.839844 299.980469 537.71875 L 300.695312 540.734375 C 300.8125 541.199219 300.90625 541.472656 300.976562 541.570312 C 301.050781 541.664062 301.128906 541.710938 301.214844 541.710938 C 301.332031 541.710938 301.476562 541.644531 301.652344 541.515625 C 301.96875 541.238281 302.242188 540.886719 302.476562 540.453125 L 302.777344 540.605469 C 302.402344 541.296875 301.933594 541.875 301.367188 542.339844 C 301.050781 542.597656 300.777344 542.730469 300.546875 542.730469 C 300.210938 542.730469 299.953125 542.539062 299.765625 542.164062 C 299.636719 541.933594 299.382812 540.953125 299.007812 539.21875 C 298.082031 540.804688 297.34375 541.824219 296.796875 542.273438 C 296.433594 542.578125 296.085938 542.730469 295.753906 542.730469 C 295.523438 542.730469 295.304688 542.640625 295.101562 542.46875 C 294.972656 542.339844 294.90625 542.164062 294.90625 541.949219 C 294.90625 541.761719 294.972656 541.601562 295.101562 541.472656 C 295.234375 541.339844 295.390625 541.277344 295.578125 541.277344 C 295.769531 541.277344 295.964844 541.371094 296.164062 541.558594 C 296.324219 541.6875 296.449219 541.753906 296.535156 541.753906 C 296.59375 541.753906 296.679688 541.710938 296.796875 541.621094 C 297.070312 541.390625 297.445312 540.90625 297.921875 540.171875 C 298.398438 539.433594 298.710938 538.898438 298.855469 538.566406 C 298.492188 537.136719 298.296875 536.382812 298.269531 536.3125 C 298.140625 535.921875 297.964844 535.648438 297.746094 535.488281 C 297.53125 535.328125 297.207031 535.25 296.773438 535.25 C 296.640625 535.25 296.492188 535.257812 296.316406 535.269531 L 296.316406 534.945312 L 298.660156 534.535156 "/>
<path style="fill:none;stroke-width:1.2;stroke-linecap:butt;stroke-linejoin:round;stroke:rgb(0%,0%,0%);stroke-opacity:1;stroke-miterlimit:10;" d="M 596.640625 610.507812 L 596.640625 555 " transform="matrix(0.1,0,0,-0.1,0,555)"/>
<path style=" stroke:none;fill-rule:nonzero;fill:rgb(0%,0%,0%);fill-opacity:1;" d="M 56.257812 514.890625 C 56.257812 513.316406 56.492188 511.960938 56.964844 510.828125 C 57.433594 509.691406 58.066406 508.851562 58.859375 508.300781 C 59.46875 507.851562 60.097656 507.628906 60.746094 507.628906 C 61.800781 507.628906 62.746094 508.171875 63.585938 509.253906 C 64.640625 510.585938 65.167969 512.390625 65.167969 514.675781 C 65.167969 516.277344 64.9375 517.636719 64.476562 518.75 C 64.011719 519.863281 63.421875 520.671875 62.707031 521.179688 C 61.992188 521.683594 61.300781 521.9375 60.636719 521.9375 C 59.324219 521.9375 58.230469 521.164062 57.363281 519.617188 C 56.628906 518.304688 56.257812 516.726562 56.257812 514.890625 Z M 58.253906 515.152344 C 58.253906 517.042969 58.484375 518.59375 58.945312 519.792969 C 59.335938 520.804688 59.914062 521.308594 60.679688 521.308594 C 61.042969 521.308594 61.417969 521.144531 61.808594 520.808594 C 62.199219 520.476562 62.496094 519.929688 62.699219 519.160156 C 63.015625 517.992188 63.175781 516.34375 63.175781 514.21875 C 63.175781 512.660156 63.007812 511.351562 62.675781 510.296875 C 62.445312 509.515625 62.132812 508.964844 61.742188 508.648438 C 61.46875 508.417969 61.128906 508.300781 60.722656 508.300781 C 60.277344 508.300781 59.871094 508.511719 59.511719 508.929688 C 59.019531 509.492188 58.6875 510.378906 58.511719 511.585938 C 58.339844 512.792969 58.253906 513.980469 58.253906 515.152344 "/>
<path style="fill:none;stroke-width:1.2;stroke-linecap:butt;stroke-linejoin:round;stroke:rgb(0%,0%,0%);stroke-opacity:1;stroke-miterlimit:10;" d="M 1275.195312 610.507812 L 1275.195312 555 " transform="matrix(0.1,0,0,-0.1,0,555)"/>
<path style=" stroke:none;fill-rule:nonzero;fill:rgb(0%,0%,0%);fill-opacity:1;" d="M 114.535156 514.890625 C 114.535156 513.316406 114.769531 511.960938 115.238281 510.828125 C 115.707031 509.691406 116.339844 508.851562 117.136719 508.300781 C 117.742188 507.851562 118.371094 507.628906 119.019531 507.628906 C 120.078125 507.628906 121.023438 508.171875 121.859375 509.253906 C 122.914062 510.585938 123.445312 512.390625 123.445312 514.675781 C 123.445312 516.277344 123.214844 517.636719 122.75 518.75 C 122.289062 519.863281 121.699219 520.671875 120.984375 521.179688 C 120.269531 521.683594 119.578125 521.9375 118.914062 521.9375 C 117.597656 521.9375 116.507812 521.164062 115.640625 519.617188 C 114.902344 518.304688 114.535156 516.726562 114.535156 514.890625 Z M 116.527344 515.152344 C 116.527344 517.042969 116.757812 518.59375 117.222656 519.792969 C 117.613281 520.804688 118.191406 521.308594 118.957031 521.308594 C 119.316406 521.308594 119.691406 521.144531 120.085938 520.808594 C 120.472656 520.476562 120.769531 519.929688 120.972656 519.160156 C 121.289062 517.992188 121.449219 516.34375 121.449219 514.21875 C 121.449219 512.660156 121.28125 511.351562 120.949219 510.296875 C 120.71875 509.515625 120.410156 508.964844 120.019531 508.648438 C 119.742188 508.417969 119.402344 508.300781 119 508.300781 C 118.550781 508.300781 118.148438 508.511719 117.785156 508.929688 C 117.292969 509.492188 116.960938 510.378906 116.789062 511.585938 C 116.613281 512.792969 116.527344 513.980469 116.527344 515.152344 Z M 126.78125 519.726562 C 127.101562 519.726562 127.367188 519.839844 127.585938 520.0625 C 127.800781 520.285156 127.910156 520.550781 127.910156 520.851562 C 127.910156 521.171875 127.800781 521.4375 127.585938 521.65625 C 127.367188 521.875 127.101562 521.980469 126.78125 521.980469 C 126.464844 521.980469 126.195312 521.875 125.980469 521.65625 C 125.765625 521.4375 125.65625 521.171875 125.65625 520.851562 C 125.65625 520.535156 125.765625 520.269531 125.980469 520.050781 C 126.195312 519.835938 126.464844 519.726562 126.78125 519.726562 Z M 138.921875 519.054688 L 137.96875 521.699219 L 129.839844 521.699219 L 129.839844 521.332031 C 132.222656 519.148438 133.90625 517.363281 134.878906 515.976562 C 135.855469 514.589844 136.34375 513.324219 136.34375 512.179688 C 136.34375 511.316406 136.074219 510.601562 135.539062 510.035156 C 135.007812 509.472656 134.363281 509.191406 133.613281 509.191406 C 132.945312 509.191406 132.34375 509.390625 131.800781 509.785156 C 131.261719 510.183594 130.859375 510.765625 130.597656 511.53125 L 130.230469 511.53125 C 130.402344 510.273438 130.839844 509.308594 131.539062 508.636719 C 132.242188 507.964844 133.113281 507.628906 134.152344 507.628906 C 135.28125 507.628906 136.21875 507.988281 136.960938 508.714844 C 137.707031 509.4375 138.078125 510.28125 138.078125 511.25 C 138.078125 511.941406 137.917969 512.644531 137.601562 513.351562 C 137.09375 514.453125 136.277344 515.605469 135.152344 516.820312 C 133.476562 518.671875 132.421875 519.785156 131.984375 520.160156 L 135.585938 520.160156 C 136.320312 520.160156 136.839844 520.136719 137.136719 520.082031 C 137.429688 520.035156 137.699219 519.925781 137.9375 519.757812 C 138.175781 519.59375 138.382812 519.359375 138.554688 519.054688 L 138.921875 519.054688 "/>
<path style="fill:none;stroke-width:1.2;stroke-linecap:butt;stroke-linejoin:round;stroke:rgb(0%,0%,0%);stroke-opacity:1;stroke-miterlimit:10;" d="M 1953.75 610.507812 L 1953.75 555 " transform="matrix(0.1,0,0,-0.1,0,555)"/>
<path style=" stroke:none;fill-rule:nonzero;fill:rgb(0%,0%,0%);fill-opacity:1;" d="M 182.519531 514.890625 C 182.519531 513.316406 182.757812 511.960938 183.226562 510.828125 C 183.695312 509.691406 184.328125 508.851562 185.121094 508.300781 C 185.730469 507.851562 186.359375 507.628906 187.007812 507.628906 C 188.0625 507.628906 189.011719 508.171875 189.847656 509.253906 C 190.902344 510.585938 191.429688 512.390625 191.429688 514.675781 C 191.429688 516.277344 191.199219 517.636719 190.738281 518.75 C 190.273438 519.863281 189.683594 520.671875 188.972656 521.179688 C 188.253906 521.683594 187.566406 521.9375 186.898438 521.9375 C 185.585938 521.9375 184.492188 521.164062 183.625 519.617188 C 182.890625 518.304688 182.519531 516.726562 182.519531 514.890625 Z M 184.515625 515.152344 C 184.515625 517.042969 184.746094 518.59375 185.210938 519.792969 C 185.597656 520.804688 186.179688 521.308594 186.941406 521.308594 C 187.304688 521.308594 187.679688 521.144531 188.070312 520.808594 C 188.460938 520.476562 188.757812 519.929688 188.960938 519.160156 C 189.277344 517.992188 189.4375 516.34375 189.4375 514.21875 C 189.4375 512.660156 189.269531 511.351562 188.9375 510.296875 C 188.707031 509.515625 188.394531 508.964844 188.007812 508.648438 C 187.730469 508.417969 187.390625 508.300781 186.984375 508.300781 C 186.539062 508.300781 186.132812 508.511719 185.773438 508.929688 C 185.28125 509.492188 184.949219 510.378906 184.773438 511.585938 C 184.601562 512.792969 184.515625 513.980469 184.515625 515.152344 Z M 194.769531 519.726562 C 195.089844 519.726562 195.355469 519.839844 195.570312 520.0625 C 195.789062 520.285156 195.898438 520.550781 195.898438 520.851562 C 195.898438 521.171875 195.789062 521.4375 195.570312 521.65625 C 195.355469 521.875 195.089844 521.980469 194.769531 521.980469 C 194.449219 521.980469 194.183594 521.875 193.96875 521.65625 C 193.75 521.4375 193.640625 521.171875 193.640625 520.851562 C 193.640625 520.535156 193.75 520.269531 193.96875 520.050781 C 194.183594 519.835938 194.449219 519.726562 194.769531 519.726562 Z M 207.0625 516.625 L 207.0625 518.058594 L 205.195312 518.058594 L 205.195312 521.699219 L 203.527344 521.699219 L 203.527344 518.058594 L 197.695312 518.058594 L 197.695312 516.757812 L 204.089844 507.628906 L 205.195312 507.628906 L 205.195312 516.625 Z M 203.527344 516.625 L 203.527344 509.777344 L 198.695312 516.625 L 203.527344 516.625 "/>
<path style="fill:none;stroke-width:1.2;stroke-linecap:butt;stroke-linejoin:round;stroke:rgb(0%,0%,0%);stroke-opacity:1;stroke-miterlimit:10;" d="M 2632.304688 610.507812 L 2632.304688 555 " transform="matrix(0.1,0,0,-0.1,0,555)"/>
<path style=" stroke:none;fill-rule:nonzero;fill:rgb(0%,0%,0%);fill-opacity:1;" d="M 250.507812 514.890625 C 250.507812 513.316406 250.742188 511.960938 251.214844 510.828125 C 251.683594 509.691406 252.316406 508.851562 253.109375 508.300781 C 253.71875 507.851562 254.34375 507.628906 254.996094 507.628906 C 256.050781 507.628906 256.996094 508.171875 257.835938 509.253906 C 258.890625 510.585938 259.417969 512.390625 259.417969 514.675781 C 259.417969 516.277344 259.1875 517.636719 258.722656 518.75 C 258.261719 519.863281 257.671875 520.671875 256.957031 521.179688 C 256.242188 521.683594 255.554688 521.9375 254.886719 521.9375 C 253.574219 521.9375 252.480469 521.164062 251.613281 519.617188 C 250.878906 518.304688 250.507812 516.726562 250.507812 514.890625 Z M 252.503906 515.152344 C 252.503906 517.042969 252.734375 518.59375 253.195312 519.792969 C 253.585938 520.804688 254.164062 521.308594 254.929688 521.308594 C 255.292969 521.308594 255.667969 521.144531 256.058594 520.808594 C 256.449219 520.476562 256.746094 519.929688 256.945312 519.160156 C 257.265625 517.992188 257.425781 516.34375 257.425781 514.21875 C 257.425781 512.660156 257.257812 511.351562 256.925781 510.296875 C 256.695312 509.515625 256.382812 508.964844 255.992188 508.648438 C 255.71875 508.417969 255.378906 508.300781 254.972656 508.300781 C 254.527344 508.300781 254.121094 508.511719 253.761719 508.929688 C 253.269531 509.492188 252.9375 510.378906 252.761719 511.585938 C 252.589844 512.792969 252.503906 513.980469 252.503906 515.152344 Z M 262.757812 519.726562 C 263.074219 519.726562 263.34375 519.839844 263.558594 520.0625 C 263.777344 520.285156 263.882812 520.550781 263.882812 520.851562 C 263.882812 521.171875 263.777344 521.4375 263.558594 521.65625 C 263.34375 521.875 263.074219 521.980469 262.757812 521.980469 C 262.4375 521.980469 262.171875 521.875 261.953125 521.65625 C 261.738281 521.4375 261.628906 521.171875 261.628906 520.851562 C 261.628906 520.535156 261.738281 520.269531 261.953125 520.050781 C 262.171875 519.835938 262.4375 519.726562 262.757812 519.726562 Z M 274.679688 507.628906 L 274.679688 508.019531 C 273.785156 508.105469 273.054688 508.28125 272.492188 508.550781 C 271.929688 508.820312 271.371094 509.226562 270.820312 509.777344 C 270.273438 510.324219 269.816406 510.9375 269.457031 511.605469 C 269.09375 512.277344 268.792969 513.078125 268.546875 514.003906 C 269.515625 513.339844 270.488281 513.007812 271.472656 513.007812 C 272.410156 513.007812 273.226562 513.386719 273.921875 514.144531 C 274.613281 514.902344 274.960938 515.875 274.960938 517.058594 C 274.960938 518.214844 274.613281 519.273438 273.921875 520.226562 C 273.085938 521.367188 271.972656 521.9375 270.582031 521.9375 C 269.644531 521.9375 268.84375 521.625 268.175781 521.007812 C 266.890625 519.792969 266.246094 518.222656 266.246094 516.300781 C 266.246094 515.058594 266.496094 513.882812 266.996094 512.777344 C 267.496094 511.671875 268.203125 510.6875 269.121094 509.820312 C 270.039062 508.953125 270.914062 508.371094 271.753906 508.074219 C 272.59375 507.777344 273.371094 507.628906 274.09375 507.628906 Z M 268.371094 514.738281 C 268.242188 515.664062 268.175781 516.410156 268.175781 516.972656 C 268.175781 517.625 268.300781 518.328125 268.546875 519.085938 C 268.792969 519.847656 269.144531 520.449219 269.609375 520.898438 C 269.953125 521.214844 270.382812 521.375 270.886719 521.375 C 271.464844 521.375 271.988281 521.097656 272.460938 520.539062 C 272.929688 519.984375 273.164062 519.191406 273.164062 518.164062 C 273.164062 517.007812 272.933594 516.007812 272.46875 515.164062 C 272.007812 514.316406 271.347656 513.894531 270.496094 513.894531 C 270.234375 513.894531 269.960938 513.949219 269.671875 514.058594 C 269.382812 514.164062 268.949219 514.394531 268.371094 514.738281 "/>
<path style="fill:none;stroke-width:1.2;stroke-linecap:butt;stroke-linejoin:round;stroke:rgb(0%,0%,0%);stroke-opacity:1;stroke-miterlimit:10;" d="M 3310.859375 610.507812 L 3310.859375 555 " transform="matrix(0.1,0,0,-0.1,0,555)"/>
<path style=" stroke:none;fill-rule:nonzero;fill:rgb(0%,0%,0%);fill-opacity:1;" d="M 318.496094 514.890625 C 318.496094 513.316406 318.730469 511.960938 319.199219 510.828125 C 319.671875 509.691406 320.304688 508.851562 321.097656 508.300781 C 321.703125 507.851562 322.332031 507.628906 322.984375 507.628906 C 324.039062 507.628906 324.984375 508.171875 325.824219 509.253906 C 326.878906 510.585938 327.40625 512.390625 327.40625 514.675781 C 327.40625 516.277344 327.175781 517.636719 326.710938 518.75 C 326.25 519.863281 325.660156 520.671875 324.945312 521.179688 C 324.230469 521.683594 323.539062 521.9375 322.875 521.9375 C 321.558594 521.9375 320.46875 521.164062 319.601562 519.617188 C 318.863281 518.304688 318.496094 516.726562 318.496094 514.890625 Z M 320.488281 515.152344 C 320.488281 517.042969 320.722656 518.59375 321.183594 519.792969 C 321.574219 520.804688 322.152344 521.308594 322.917969 521.308594 C 323.277344 521.308594 323.65625 521.144531 324.046875 520.808594 C 324.4375 520.476562 324.730469 519.929688 324.933594 519.160156 C 325.253906 517.992188 325.410156 516.34375 325.410156 514.21875 C 325.410156 512.660156 325.246094 511.351562 324.910156 510.296875 C 324.683594 509.515625 324.371094 508.964844 323.980469 508.648438 C 323.707031 508.417969 323.367188 508.300781 322.960938 508.300781 C 322.511719 508.300781 322.109375 508.511719 321.746094 508.929688 C 321.257812 509.492188 320.921875 510.378906 320.75 511.585938 C 320.574219 512.792969 320.488281 513.980469 320.488281 515.152344 Z M 330.746094 519.726562 C 331.0625 519.726562 331.328125 519.839844 331.546875 520.0625 C 331.765625 520.285156 331.871094 520.550781 331.871094 520.851562 C 331.871094 521.171875 331.765625 521.4375 331.546875 521.65625 C 331.328125 521.875 331.0625 521.980469 330.746094 521.980469 C 330.425781 521.980469 330.160156 521.875 329.941406 521.65625 C 329.726562 521.4375 329.617188 521.171875 329.617188 520.851562 C 329.617188 520.535156 329.726562 520.269531 329.941406 520.050781 C 330.160156 519.835938 330.425781 519.726562 330.746094 519.726562 Z M 337.335938 514.761719 C 336.25 513.867188 335.550781 513.144531 335.230469 512.605469 C 334.914062 512.0625 334.753906 511.503906 334.753906 510.925781 C 334.753906 510.027344 335.101562 509.253906 335.796875 508.605469 C 336.488281 507.953125 337.40625 507.628906 338.550781 507.628906 C 339.664062 507.628906 340.558594 507.933594 341.238281 508.539062 C 341.917969 509.148438 342.257812 509.832031 342.257812 510.601562 C 342.257812 511.121094 342.074219 511.648438 341.703125 512.179688 C 341.335938 512.71875 340.574219 513.34375 339.417969 514.070312 C 340.601562 514.992188 341.390625 515.714844 341.78125 516.234375 C 342.300781 516.929688 342.558594 517.660156 342.558594 518.425781 C 342.558594 519.394531 342.191406 520.21875 341.453125 520.90625 C 340.71875 521.59375 339.75 521.9375 338.550781 521.9375 C 337.234375 521.9375 336.207031 521.535156 335.472656 520.722656 C 334.894531 520.058594 334.605469 519.335938 334.605469 518.554688 C 334.605469 517.949219 334.808594 517.347656 335.222656 516.746094 C 335.632812 516.144531 336.339844 515.484375 337.335938 514.761719 Z M 338.941406 513.675781 C 339.75 512.941406 340.261719 512.359375 340.480469 511.933594 C 340.695312 511.507812 340.804688 511.027344 340.804688 510.488281 C 340.804688 509.78125 340.605469 509.226562 340.207031 508.820312 C 339.808594 508.417969 339.265625 508.214844 338.570312 508.214844 C 337.878906 508.214844 337.3125 508.417969 336.878906 508.820312 C 336.445312 509.226562 336.230469 509.695312 336.230469 510.230469 C 336.230469 510.578125 336.320312 510.929688 336.5 511.28125 C 336.679688 511.636719 336.9375 511.972656 337.269531 512.289062 Z M 337.8125 515.152344 C 337.246094 515.613281 336.835938 516.128906 336.566406 516.691406 C 336.296875 517.253906 336.164062 517.863281 336.164062 518.511719 C 336.164062 519.378906 336.402344 520.078125 336.878906 520.605469 C 337.355469 521.132812 337.964844 521.394531 338.699219 521.394531 C 339.4375 521.394531 340.027344 521.191406 340.46875 520.777344 C 340.910156 520.367188 341.128906 519.863281 341.128906 519.273438 C 341.128906 518.78125 341 518.339844 340.738281 517.949219 C 340.261719 517.242188 339.285156 516.308594 337.8125 515.152344 "/>
<path style="fill:none;stroke-width:1.2;stroke-linecap:butt;stroke-linejoin:round;stroke:rgb(0%,0%,0%);stroke-opacity:1;stroke-miterlimit:10;" d="M 3989.414062 610.507812 L 3989.414062 555 " transform="matrix(0.1,0,0,-0.1,0,555)"/>
<path style=" stroke:none;fill-rule:nonzero;fill:rgb(0%,0%,0%);fill-opacity:1;" d="M 396.5 509.277344 L 399.835938 507.628906 L 400.183594 507.628906 L 400.183594 519.273438 C 400.183594 520.039062 400.21875 520.519531 400.28125 520.714844 C 400.347656 520.90625 400.480469 521.054688 400.683594 521.15625 C 400.886719 521.257812 401.296875 521.316406 401.917969 521.332031 L 401.917969 521.699219 L 396.738281 521.699219 L 396.738281 521.332031 C 397.386719 521.316406 397.808594 521.257812 397.996094 521.15625 C 398.183594 521.054688 398.3125 520.921875 398.386719 520.757812 C 398.457031 520.589844 398.492188 520.09375 398.492188 519.273438 L 398.492188 511.835938 C 398.492188 510.824219 398.464844 510.179688 398.40625 509.90625 C 398.351562 509.6875 398.257812 509.53125 398.136719 509.429688 C 398.011719 509.328125 397.867188 509.277344 397.691406 509.277344 C 397.429688 509.277344 397.085938 509.378906 396.652344 509.582031 L 396.5 509.277344 "/>
<path style="fill:none;stroke-width:1.2;stroke-linecap:butt;stroke-linejoin:round;stroke:rgb(0%,0%,0%);stroke-opacity:1;stroke-miterlimit:10;" d="M 4667.96875 610.507812 L 4667.96875 555 " transform="matrix(0.1,0,0,-0.1,0,555)"/>
<path style=" stroke:none;fill-rule:nonzero;fill:rgb(0%,0%,0%);fill-opacity:1;" d="M 456.160156 509.277344 L 459.5 507.628906 L 459.847656 507.628906 L 459.847656 519.273438 C 459.847656 520.039062 459.878906 520.519531 459.945312 520.714844 C 460.011719 520.90625 460.144531 521.054688 460.347656 521.15625 C 460.550781 521.257812 460.960938 521.316406 461.582031 521.332031 L 461.582031 521.699219 L 456.398438 521.699219 L 456.398438 521.332031 C 457.050781 521.316406 457.46875 521.257812 457.65625 521.15625 C 457.847656 521.054688 457.976562 520.921875 458.046875 520.757812 C 458.121094 520.589844 458.15625 520.09375 458.15625 519.273438 L 458.15625 511.835938 C 458.15625 510.824219 458.128906 510.179688 458.070312 509.90625 C 458.011719 509.6875 457.921875 509.53125 457.800781 509.429688 C 457.675781 509.328125 457.527344 509.277344 457.355469 509.277344 C 457.09375 509.277344 456.746094 509.378906 456.3125 509.582031 Z M 466.71875 519.726562 C 467.039062 519.726562 467.304688 519.839844 467.523438 520.0625 C 467.738281 520.285156 467.847656 520.550781 467.847656 520.851562 C 467.847656 521.171875 467.738281 521.4375 467.523438 521.65625 C 467.304688 521.875 467.039062 521.980469 466.71875 521.980469 C 466.402344 521.980469 466.136719 521.875 465.917969 521.65625 C 465.699219 521.4375 465.59375 521.171875 465.59375 520.851562 C 465.59375 520.535156 465.699219 520.269531 465.917969 520.050781 C 466.136719 519.835938 466.402344 519.726562 466.71875 519.726562 Z M 478.859375 519.054688 L 477.90625 521.699219 L 469.777344 521.699219 L 469.777344 521.332031 C 472.160156 519.148438 473.839844 517.363281 474.816406 515.976562 C 475.792969 514.589844 476.28125 513.324219 476.28125 512.179688 C 476.28125 511.316406 476.011719 510.601562 475.476562 510.035156 C 474.945312 509.472656 474.300781 509.191406 473.546875 509.191406 C 472.882812 509.191406 472.28125 509.390625 471.738281 509.785156 C 471.195312 510.183594 470.796875 510.765625 470.535156 511.53125 L 470.167969 511.53125 C 470.339844 510.273438 470.777344 509.308594 471.476562 508.636719 C 472.179688 507.964844 473.050781 507.628906 474.089844 507.628906 C 475.21875 507.628906 476.152344 507.988281 476.898438 508.714844 C 477.644531 509.4375 478.015625 510.28125 478.015625 511.25 C 478.015625 511.941406 477.855469 512.644531 477.535156 513.351562 C 477.03125 514.453125 476.214844 515.605469 475.089844 516.820312 C 473.410156 518.671875 472.355469 519.785156 471.921875 520.160156 L 475.519531 520.160156 C 476.257812 520.160156 476.773438 520.136719 477.070312 520.082031 C 477.367188 520.035156 477.636719 519.925781 477.875 519.757812 C 478.113281 519.59375 478.316406 519.359375 478.492188 519.054688 L 478.859375 519.054688 "/>
<path style="fill:none;stroke-width:1.2;stroke-linecap:butt;stroke-linejoin:round;stroke:rgb(0%,0%,0%);stroke-opacity:1;stroke-miterlimit:10;" d="M 5346.523438 610.507812 L 5346.523438 555 " transform="matrix(0.1,0,0,-0.1,0,555)"/>
<path style=" stroke:none;fill-rule:nonzero;fill:rgb(0%,0%,0%);fill-opacity:1;" d="M 524.148438 509.277344 L 527.488281 507.628906 L 527.835938 507.628906 L 527.835938 519.273438 C 527.835938 520.039062 527.867188 520.519531 527.933594 520.714844 C 527.996094 520.90625 528.132812 521.054688 528.335938 521.15625 C 528.535156 521.257812 528.949219 521.316406 529.566406 521.332031 L 529.566406 521.699219 L 524.386719 521.699219 L 524.386719 521.332031 C 525.039062 521.316406 525.457031 521.257812 525.644531 521.15625 C 525.832031 521.054688 525.964844 520.921875 526.035156 520.757812 C 526.109375 520.589844 526.144531 520.09375 526.144531 519.273438 L 526.144531 511.835938 C 526.144531 510.824219 526.113281 510.179688 526.058594 509.90625 C 526 509.6875 525.90625 509.53125 525.785156 509.429688 C 525.664062 509.328125 525.515625 509.277344 525.34375 509.277344 C 525.082031 509.277344 524.734375 509.378906 524.300781 509.582031 Z M 534.707031 519.726562 C 535.023438 519.726562 535.292969 519.839844 535.511719 520.0625 C 535.726562 520.285156 535.835938 520.550781 535.835938 520.851562 C 535.835938 521.171875 535.726562 521.4375 535.511719 521.65625 C 535.292969 521.875 535.023438 521.980469 534.707031 521.980469 C 534.390625 521.980469 534.121094 521.875 533.902344 521.65625 C 533.6875 521.4375 533.578125 521.171875 533.578125 520.851562 C 533.578125 520.535156 533.6875 520.269531 533.902344 520.050781 C 534.121094 519.835938 534.390625 519.726562 534.707031 519.726562 Z M 547 516.625 L 547 518.058594 L 545.136719 518.058594 L 545.136719 521.699219 L 543.464844 521.699219 L 543.464844 518.058594 L 537.632812 518.058594 L 537.632812 516.757812 L 544.027344 507.628906 L 545.136719 507.628906 L 545.136719 516.625 Z M 543.464844 516.625 L 543.464844 509.777344 L 538.632812 516.625 L 543.464844 516.625 "/>
<path style="fill:none;stroke-width:1.2;stroke-linecap:butt;stroke-linejoin:round;stroke:rgb(0%,0%,0%);stroke-opacity:1;stroke-miterlimit:10;" d="M 935.898438 610.507812 L 935.898438 582.734375 " transform="matrix(0.1,0,0,-0.1,0,555)"/>
<path style="fill:none;stroke-width:1.2;stroke-linecap:butt;stroke-linejoin:round;stroke:rgb(0%,0%,0%);stroke-opacity:1;stroke-miterlimit:10;" d="M 1614.453125 610.507812 L 1614.453125 582.734375 " transform="matrix(0.1,0,0,-0.1,0,555)"/>
<path style="fill:none;stroke-width:1.2;stroke-linecap:butt;stroke-linejoin:round;stroke:rgb(0%,0%,0%);stroke-opacity:1;stroke-miterlimit:10;" d="M 2293.007812 610.507812 L 2293.007812 582.734375 " transform="matrix(0.1,0,0,-0.1,0,555)"/>
<path style="fill:none;stroke-width:1.2;stroke-linecap:butt;stroke-linejoin:round;stroke:rgb(0%,0%,0%);stroke-opacity:1;stroke-miterlimit:10;" d="M 2971.5625 610.507812 L 2971.5625 582.734375 " transform="matrix(0.1,0,0,-0.1,0,555)"/>
<path style="fill:none;stroke-width:1.2;stroke-linecap:butt;stroke-linejoin:round;stroke:rgb(0%,0%,0%);stroke-opacity:1;stroke-miterlimit:10;" d="M 3650.15625 610.507812 L 3650.15625 582.734375 " transform="matrix(0.1,0,0,-0.1,0,555)"/>
<path style="fill:none;stroke-width:1.2;stroke-linecap:butt;stroke-linejoin:round;stroke:rgb(0%,0%,0%);stroke-opacity:1;stroke-miterlimit:10;" d="M 4328.710938 610.507812 L 4328.710938 582.734375 " transform="matrix(0.1,0,0,-0.1,0,555)"/>
<path style="fill:none;stroke-width:1.2;stroke-linecap:butt;stroke-linejoin:round;stroke:rgb(0%,0%,0%);stroke-opacity:1;stroke-miterlimit:10;" d="M 5007.265625 610.507812 L 5007.265625 582.734375 " transform="matrix(0.1,0,0,-0.1,0,555)"/>
<path style="fill:none;stroke-width:13.875;stroke-linecap:butt;stroke-linejoin:round;stroke:rgb(0%,0%,0%);stroke-opacity:1;stroke-miterlimit:10;" d="M 596.640625 610.507812 L 596.640625 5355.46875 " transform="matrix(0.1,0,0,-0.1,0,555)"/>
<path style="fill:none;stroke-width:1.2;stroke-linecap:butt;stroke-linejoin:round;stroke:rgb(0%,0%,0%);stroke-opacity:1;stroke-miterlimit:10;" d="M 596.640625 610.507812 L 541.132812 610.507812 " transform="matrix(0.1,0,0,-0.1,0,555)"/>
<path style=" stroke:none;fill-rule:nonzero;fill:rgb(0%,0%,0%);fill-opacity:1;" d="M 40.996094 495.464844 C 40.996094 493.890625 41.230469 492.535156 41.699219 491.402344 C 42.171875 490.269531 42.800781 489.425781 43.597656 488.875 C 44.203125 488.425781 44.832031 488.203125 45.484375 488.203125 C 46.539062 488.203125 47.484375 488.746094 48.324219 489.832031 C 49.378906 491.160156 49.90625 492.964844 49.90625 495.25 C 49.90625 496.855469 49.675781 498.210938 49.214844 499.328125 C 48.75 500.441406 48.160156 501.246094 47.445312 501.753906 C 46.730469 502.261719 46.039062 502.511719 45.375 502.511719 C 44.058594 502.511719 42.96875 501.738281 42.101562 500.195312 C 41.363281 498.878906 40.996094 497.300781 40.996094 495.464844 Z M 42.992188 495.726562 C 42.992188 497.621094 43.222656 499.167969 43.683594 500.367188 C 44.074219 501.378906 44.652344 501.882812 45.417969 501.882812 C 45.78125 501.882812 46.15625 501.71875 46.546875 501.386719 C 46.9375 501.050781 47.234375 500.503906 47.433594 499.738281 C 47.753906 498.566406 47.910156 496.917969 47.910156 494.792969 C 47.910156 493.234375 47.746094 491.925781 47.414062 490.871094 C 47.183594 490.089844 46.871094 489.539062 46.480469 489.222656 C 46.207031 488.992188 45.867188 488.875 45.460938 488.875 C 45.015625 488.875 44.609375 489.085938 44.246094 489.503906 C 43.757812 490.070312 43.425781 490.953125 43.25 492.160156 C 43.078125 493.367188 42.992188 494.554688 42.992188 495.726562 "/>
<path style="fill:none;stroke-width:1.2;stroke-linecap:butt;stroke-linejoin:round;stroke:rgb(0%,0%,0%);stroke-opacity:1;stroke-miterlimit:10;" d="M 596.640625 1796.757812 L 541.132812 1796.757812 " transform="matrix(0.1,0,0,-0.1,0,555)"/>
<path style=" stroke:none;fill-rule:nonzero;fill:rgb(0%,0%,0%);fill-opacity:1;" d="M 25.734375 376.140625 C 25.734375 374.566406 25.96875 373.210938 26.4375 372.078125 C 26.90625 370.941406 27.539062 370.101562 28.335938 369.550781 C 28.941406 369.101562 29.570312 368.878906 30.222656 368.878906 C 31.277344 368.878906 32.222656 369.421875 33.0625 370.503906 C 34.117188 371.835938 34.644531 373.640625 34.644531 375.925781 C 34.644531 377.527344 34.414062 378.886719 33.949219 380.003906 C 33.488281 381.113281 32.898438 381.921875 32.183594 382.429688 C 31.46875 382.933594 30.777344 383.1875 30.113281 383.1875 C 28.796875 383.1875 27.707031 382.414062 26.839844 380.867188 C 26.101562 379.554688 25.734375 377.976562 25.734375 376.140625 Z M 27.726562 376.402344 C 27.726562 378.296875 27.960938 379.84375 28.421875 381.042969 C 28.8125 382.054688 29.390625 382.558594 30.15625 382.558594 C 30.519531 382.558594 30.894531 382.394531 31.285156 382.0625 C 31.671875 381.726562 31.96875 381.179688 32.171875 380.410156 C 32.492188 379.242188 32.648438 377.59375 32.648438 375.46875 C 32.648438 373.910156 32.484375 372.601562 32.152344 371.546875 C 31.917969 370.765625 31.609375 370.214844 31.21875 369.898438 C 30.945312 369.667969 30.605469 369.550781 30.199219 369.550781 C 29.75 369.550781 29.347656 369.761719 28.984375 370.179688 C 28.492188 370.742188 28.160156 371.628906 27.988281 372.835938 C 27.816406 374.042969 27.726562 375.230469 27.726562 376.402344 Z M 37.984375 380.976562 C 38.300781 380.976562 38.566406 381.089844 38.785156 381.3125 C 39 381.535156 39.109375 381.800781 39.109375 382.105469 C 39.109375 382.421875 39 382.6875 38.785156 382.90625 C 38.566406 383.121094 38.300781 383.230469 37.984375 383.230469 C 37.664062 383.230469 37.398438 383.121094 37.179688 382.90625 C 36.964844 382.6875 36.855469 382.421875 36.855469 382.105469 C 36.855469 381.785156 36.964844 381.519531 37.179688 381.300781 C 37.398438 381.085938 37.664062 380.976562 37.984375 380.976562 Z M 49.625 369.160156 L 48.824219 370.894531 L 44.679688 370.894531 L 43.769531 372.738281 C 45.5625 373.011719 46.988281 373.683594 48.042969 374.753906 C 48.9375 375.664062 49.386719 376.75 49.386719 378.007812 C 49.386719 378.730469 49.242188 379.398438 48.953125 380.011719 C 48.664062 380.625 48.292969 381.148438 47.847656 381.582031 C 47.398438 382.019531 46.902344 382.363281 46.351562 382.625 C 45.570312 383 44.769531 383.1875 43.945312 383.1875 C 43.121094 383.1875 42.519531 383.046875 42.144531 382.765625 C 41.769531 382.484375 41.582031 382.175781 41.582031 381.84375 C 41.582031 381.65625 41.660156 381.488281 41.820312 381.34375 C 41.980469 381.199219 42.175781 381.128906 42.40625 381.128906 C 42.578125 381.128906 42.730469 381.152344 42.859375 381.203125 C 42.992188 381.253906 43.214844 381.394531 43.53125 381.625 C 44.054688 381.972656 44.574219 382.144531 45.09375 382.144531 C 45.890625 382.144531 46.582031 381.847656 47.175781 381.246094 C 47.769531 380.648438 48.0625 379.914062 48.0625 379.046875 C 48.0625 378.222656 47.796875 377.449219 47.261719 376.726562 C 46.726562 376.003906 45.988281 375.449219 45.050781 375.058594 C 44.3125 374.753906 43.308594 374.574219 42.035156 374.515625 L 44.679688 369.160156 L 49.625 369.160156 "/>
<path style="fill:none;stroke-width:1.2;stroke-linecap:butt;stroke-linejoin:round;stroke:rgb(0%,0%,0%);stroke-opacity:1;stroke-miterlimit:10;" d="M 596.640625 2983.007812 L 541.132812 2983.007812 " transform="matrix(0.1,0,0,-0.1,0,555)"/>
<path style=" stroke:none;fill-rule:nonzero;fill:rgb(0%,0%,0%);fill-opacity:1;" d="M 42.6875 252.589844 L 46.027344 250.941406 L 46.371094 250.941406 L 46.371094 262.585938 C 46.371094 263.351562 46.40625 263.828125 46.46875 264.027344 C 46.535156 264.21875 46.667969 264.367188 46.871094 264.46875 C 47.074219 264.570312 47.484375 264.628906 48.105469 264.644531 L 48.105469 265.011719 L 42.925781 265.011719 L 42.925781 264.644531 C 43.578125 264.628906 43.996094 264.570312 44.183594 264.46875 C 44.371094 264.367188 44.5 264.234375 44.574219 264.070312 C 44.644531 263.902344 44.679688 263.40625 44.679688 262.585938 L 44.679688 255.148438 C 44.679688 254.136719 44.652344 253.492188 44.59375 253.21875 C 44.535156 253 44.445312 252.84375 44.324219 252.742188 C 44.203125 252.640625 44.054688 252.589844 43.878906 252.589844 C 43.621094 252.589844 43.273438 252.691406 42.839844 252.894531 L 42.6875 252.589844 "/>
<path style="fill:none;stroke-width:1.2;stroke-linecap:butt;stroke-linejoin:round;stroke:rgb(0%,0%,0%);stroke-opacity:1;stroke-miterlimit:10;" d="M 596.640625 4169.21875 L 541.132812 4169.21875 " transform="matrix(0.1,0,0,-0.1,0,555)"/>
<path style=" stroke:none;fill-rule:nonzero;fill:rgb(0%,0%,0%);fill-opacity:1;" d="M 27.425781 133.265625 L 30.761719 131.617188 L 31.109375 131.617188 L 31.109375 143.257812 C 31.109375 144.023438 31.144531 144.503906 31.207031 144.699219 C 31.273438 144.894531 31.40625 145.042969 31.609375 145.144531 C 31.8125 145.246094 32.222656 145.304688 32.84375 145.316406 L 32.84375 145.6875 L 27.664062 145.6875 L 27.664062 145.316406 C 28.3125 145.304688 28.734375 145.246094 28.921875 145.144531 C 29.109375 145.042969 29.238281 144.910156 29.3125 144.742188 C 29.382812 144.578125 29.417969 144.082031 29.417969 143.257812 L 29.417969 135.824219 C 29.417969 134.8125 29.390625 134.167969 29.332031 133.894531 C 29.273438 133.675781 29.183594 133.519531 29.0625 133.417969 C 28.9375 133.316406 28.789062 133.265625 28.617188 133.265625 C 28.355469 133.265625 28.011719 133.367188 27.578125 133.566406 Z M 37.984375 143.714844 C 38.300781 143.714844 38.566406 143.824219 38.785156 144.050781 C 39 144.273438 39.109375 144.535156 39.109375 144.839844 C 39.109375 145.160156 39 145.425781 38.785156 145.644531 C 38.566406 145.859375 38.300781 145.96875 37.984375 145.96875 C 37.664062 145.96875 37.398438 145.859375 37.179688 145.644531 C 36.964844 145.425781 36.855469 145.160156 36.855469 144.839844 C 36.855469 144.523438 36.964844 144.253906 37.179688 144.039062 C 37.398438 143.824219 37.664062 143.714844 37.984375 143.714844 Z M 49.625 131.898438 L 48.824219 133.632812 L 44.679688 133.632812 L 43.769531 135.476562 C 45.5625 135.75 46.988281 136.421875 48.042969 137.492188 C 48.9375 138.402344 49.386719 139.488281 49.386719 140.742188 C 49.386719 141.46875 49.242188 142.136719 48.953125 142.75 C 48.664062 143.363281 48.292969 143.886719 47.847656 144.320312 C 47.398438 144.753906 46.902344 145.101562 46.351562 145.359375 C 45.570312 145.738281 44.769531 145.925781 43.945312 145.925781 C 43.121094 145.925781 42.519531 145.785156 42.144531 145.503906 C 41.769531 145.222656 41.582031 144.914062 41.582031 144.582031 C 41.582031 144.394531 41.660156 144.226562 41.820312 144.082031 C 41.980469 143.9375 42.175781 143.867188 42.40625 143.867188 C 42.578125 143.867188 42.730469 143.890625 42.859375 143.941406 C 42.992188 143.992188 43.214844 144.132812 43.53125 144.363281 C 44.054688 144.710938 44.574219 144.882812 45.09375 144.882812 C 45.890625 144.882812 46.582031 144.585938 47.175781 143.984375 C 47.769531 143.386719 48.0625 142.652344 48.0625 141.785156 C 48.0625 140.960938 47.796875 140.1875 47.261719 139.464844 C 46.726562 138.742188 45.988281 138.1875 45.050781 137.796875 C 44.3125 137.492188 43.308594 137.3125 42.035156 137.253906 L 44.679688 131.898438 L 49.625 131.898438 "/>
<path style="fill:none;stroke-width:1.2;stroke-linecap:butt;stroke-linejoin:round;stroke:rgb(0%,0%,0%);stroke-opacity:1;stroke-miterlimit:10;" d="M 596.640625 5355.46875 L 541.132812 5355.46875 " transform="matrix(0.1,0,0,-0.1,0,555)"/>
<path style=" stroke:none;fill-rule:nonzero;fill:rgb(0%,0%,0%);fill-opacity:1;" d="M 49.777344 25.105469 L 48.824219 27.75 L 40.691406 27.75 L 40.691406 27.382812 C 43.078125 25.199219 44.757812 23.414062 45.734375 22.027344 C 46.710938 20.640625 47.195312 19.375 47.195312 18.230469 C 47.195312 17.363281 46.929688 16.648438 46.394531 16.085938 C 45.859375 15.523438 45.214844 15.242188 44.464844 15.242188 C 43.800781 15.242188 43.195312 15.4375 42.65625 15.835938 C 42.113281 16.234375 41.710938 16.816406 41.453125 17.582031 L 41.082031 17.582031 C 41.257812 16.324219 41.695312 15.359375 42.394531 14.6875 C 43.09375 14.015625 43.964844 13.679688 45.007812 13.679688 C 46.132812 13.679688 47.070312 14.039062 47.816406 14.765625 C 48.558594 15.484375 48.929688 16.332031 48.929688 17.300781 C 48.929688 17.992188 48.773438 18.695312 48.453125 19.402344 C 47.949219 20.503906 47.132812 21.65625 46.003906 22.871094 C 44.328125 24.722656 43.273438 25.835938 42.839844 26.210938 L 46.4375 26.210938 C 47.175781 26.210938 47.691406 26.1875 47.988281 26.136719 C 48.285156 26.085938 48.550781 25.976562 48.789062 25.808594 C 49.027344 25.644531 49.234375 25.410156 49.40625 25.105469 L 49.777344 25.105469 "/>
<path style="fill:none;stroke-width:1.2;stroke-linecap:butt;stroke-linejoin:round;stroke:rgb(0%,0%,0%);stroke-opacity:1;stroke-miterlimit:10;" d="M 596.640625 847.734375 L 568.867188 847.734375 " transform="matrix(0.1,0,0,-0.1,0,555)"/>
<path style="fill:none;stroke-width:1.2;stroke-linecap:butt;stroke-linejoin:round;stroke:rgb(0%,0%,0%);stroke-opacity:1;stroke-miterlimit:10;" d="M 596.640625 1085 L 568.867188 1085 " transform="matrix(0.1,0,0,-0.1,0,555)"/>
<path style="fill:none;stroke-width:1.2;stroke-linecap:butt;stroke-linejoin:round;stroke:rgb(0%,0%,0%);stroke-opacity:1;stroke-miterlimit:10;" d="M 596.640625 1322.265625 L 568.867188 1322.265625 " transform="matrix(0.1,0,0,-0.1,0,555)"/>
<path style="fill:none;stroke-width:1.2;stroke-linecap:butt;stroke-linejoin:round;stroke:rgb(0%,0%,0%);stroke-opacity:1;stroke-miterlimit:10;" d="M 596.640625 1559.492188 L 568.867188 1559.492188 " transform="matrix(0.1,0,0,-0.1,0,555)"/>
<path style="fill:none;stroke-width:1.2;stroke-linecap:butt;stroke-linejoin:round;stroke:rgb(0%,0%,0%);stroke-opacity:1;stroke-miterlimit:10;" d="M 596.640625 2033.984375 L 568.867188 2033.984375 " transform="matrix(0.1,0,0,-0.1,0,555)"/>
<path style="fill:none;stroke-width:1.2;stroke-linecap:butt;stroke-linejoin:round;stroke:rgb(0%,0%,0%);stroke-opacity:1;stroke-miterlimit:10;" d="M 596.640625 2271.25 L 568.867188 2271.25 " transform="matrix(0.1,0,0,-0.1,0,555)"/>
<path style="fill:none;stroke-width:1.2;stroke-linecap:butt;stroke-linejoin:round;stroke:rgb(0%,0%,0%);stroke-opacity:1;stroke-miterlimit:10;" d="M 596.640625 2508.476562 L 568.867188 2508.476562 " transform="matrix(0.1,0,0,-0.1,0,555)"/>
<path style="fill:none;stroke-width:1.2;stroke-linecap:butt;stroke-linejoin:round;stroke:rgb(0%,0%,0%);stroke-opacity:1;stroke-miterlimit:10;" d="M 596.640625 2745.742188 L 568.867188 2745.742188 " transform="matrix(0.1,0,0,-0.1,0,555)"/>
<path style="fill:none;stroke-width:1.2;stroke-linecap:butt;stroke-linejoin:round;stroke:rgb(0%,0%,0%);stroke-opacity:1;stroke-miterlimit:10;" d="M 596.640625 3220.234375 L 568.867188 3220.234375 " transform="matrix(0.1,0,0,-0.1,0,555)"/>
<path style="fill:none;stroke-width:1.2;stroke-linecap:butt;stroke-linejoin:round;stroke:rgb(0%,0%,0%);stroke-opacity:1;stroke-miterlimit:10;" d="M 596.640625 3457.460938 L 568.867188 3457.460938 " transform="matrix(0.1,0,0,-0.1,0,555)"/>
<path style="fill:none;stroke-width:1.2;stroke-linecap:butt;stroke-linejoin:round;stroke:rgb(0%,0%,0%);stroke-opacity:1;stroke-miterlimit:10;" d="M 596.640625 3694.726562 L 568.867188 3694.726562 " transform="matrix(0.1,0,0,-0.1,0,555)"/>
<path style="fill:none;stroke-width:1.2;stroke-linecap:butt;stroke-linejoin:round;stroke:rgb(0%,0%,0%);stroke-opacity:1;stroke-miterlimit:10;" d="M 596.640625 3931.992188 L 568.867188 3931.992188 " transform="matrix(0.1,0,0,-0.1,0,555)"/>
<path style="fill:none;stroke-width:1.2;stroke-linecap:butt;stroke-linejoin:round;stroke:rgb(0%,0%,0%);stroke-opacity:1;stroke-miterlimit:10;" d="M 596.640625 4406.484375 L 568.867188 4406.484375 " transform="matrix(0.1,0,0,-0.1,0,555)"/>
<path style="fill:none;stroke-width:1.2;stroke-linecap:butt;stroke-linejoin:round;stroke:rgb(0%,0%,0%);stroke-opacity:1;stroke-miterlimit:10;" d="M 596.640625 4643.710938 L 568.867188 4643.710938 " transform="matrix(0.1,0,0,-0.1,0,555)"/>
<path style="fill:none;stroke-width:1.2;stroke-linecap:butt;stroke-linejoin:round;stroke:rgb(0%,0%,0%);stroke-opacity:1;stroke-miterlimit:10;" d="M 596.640625 4880.976562 L 568.867188 4880.976562 " transform="matrix(0.1,0,0,-0.1,0,555)"/>
<path style="fill:none;stroke-width:1.2;stroke-linecap:butt;stroke-linejoin:round;stroke:rgb(0%,0%,0%);stroke-opacity:1;stroke-miterlimit:10;" d="M 596.640625 5118.242188 L 568.867188 5118.242188 " transform="matrix(0.1,0,0,-0.1,0,555)"/>
</g>
</svg>
