<?xml version="1.0" encoding="UTF-8"?>
<svg xmlns="http://www.w3.org/2000/svg" xmlns:xlink="http://www.w3.org/1999/xlink" width="555pt" height="555pt" viewBox="0 0 555 555" version="1.1">
<defs>
<clipPath id="clip1">
  <path d="M 66.601562 276 L 532 276 L 532 279 L 66.601562 279 Z M 66.601562 276 "/>
</clipPath>
<clipPath id="clip2">
  <path d="M 169 189 L 185 189 L 185 206.738281 L 169 206.738281 Z M 169 189 "/>
</clipPath>
<clipPath id="clip3">
  <path d="M 256 183 L 262 183 L 262 206.738281 L 256 206.738281 Z M 256 183 "/>
</clipPath>
<clipPath id="clip4">
  <path d="M 283 183 L 289 183 L 289 206.738281 L 283 206.738281 Z M 283 183 "/>
</clipPath>
<clipPath id="clip5">
  <path d="M 171 20 L 188 20 L 188 37.460938 L 171 37.460938 Z M 171 20 "/>
</clipPath>
<clipPath id="clip6">
  <path d="M 256 13 L 262 13 L 262 37.460938 L 256 37.460938 Z M 256 13 "/>
</clipPath>
<clipPath id="clip7">
  <path d="M 283 13 L 289 13 L 289 37.460938 L 283 37.460938 Z M 283 13 "/>
</clipPath>
<clipPath id="clip8">
  <path d="M 41 536 L 47.175781 536 L 47.175781 538 L 41 538 Z M 41 536 "/>
</clipPath>
<clipPath id="clip9">
  <path d="M 28 407 L 33.300781 407 L 33.300781 409 L 28 409 Z M 28 407 "/>
</clipPath>
</defs>
<g id="surface1">
<rect x="0" y="0" width="555" height="555" style="fill:rgb(100%,100%,100%);fill-opacity:1;stroke:none;"/>
<g clip-path="url(#clip1)" clip-rule="nonzero">
<path style="fill:none;stroke-width:20.8125;stroke-linecap:butt;stroke-linejoin:round;stroke:rgb(0%,0%,0%);stroke-opacity:1;stroke-miterlimit:10;" d="M 679.882812 2778.359375 L 5299.84375 2778.359375 " transform="matrix(0.1,0,0,-0.1,0,555)"/>
</g>
<path style="fill:none;stroke-width:27.75;stroke-linecap:butt;stroke-linejoin:round;stroke:rgb(100%,0%,0%);stroke-opacity:1;stroke-miterlimit:10;" d="M 2219.84375 4610.507812 L 2236.054688 4595.3125 L 2250.15625 4581.992188 L 2266.015625 4566.914062 L 2281.953125 4551.601562 L 2297.8125 4536.25 L 2312.539062 4521.914062 L 2327.773438 4506.953125 L 2343.515625 4491.367188 L 2359.257812 4475.742188 L 2375.390625 4459.570312 L 2389.648438 4445.195312 L 2405.664062 4428.945312 L 2421.757812 4412.5 L 2437.265625 4396.523438 L 2451.328125 4381.953125 L 2468.085938 4364.53125 L 2482.265625 4349.6875 L 2498.75 4332.265625 L 2513.359375 4316.796875 L 2529.375 4299.726562 L 2544.648438 4283.359375 L 2560.546875 4266.171875 L 2575.195312 4250.3125 L 2590.9375 4233.125 L 2607.34375 4215.15625 L 2621.601562 4199.453125 L 2636.992188 4182.382812 L 2652.890625 4164.648438 L 2668.476562 4147.226562 L 2683.515625 4130.3125 L 2700.234375 4111.40625 L 2715.273438 4094.335938 L 2731.328125 4076.054688 L 2745.859375 4059.375 L 2761.71875 4041.09375 L 2776.679688 4023.789062 L 2792.304688 4005.664062 L 2807.578125 3987.8125 L 2823.59375 3969.101562 L 2838.984375 3950.976562 L 2854.765625 3932.382812 L 2870.390625 3913.867188 L 2884.726562 3896.757812 L 2901.171875 3877.109375 L 2915.898438 3859.453125 L 2931.601562 3840.585938 L 2946.640625 3822.460938 L 2963.320312 3802.226562 L 2977.734375 3784.6875 L 2994.140625 3764.6875 L 3009.101562 3746.40625 L 3025.429688 3726.328125 L 3039.53125 3708.984375 L 3055.585938 3689.140625 L 3071.09375 3669.921875 L 3086.601562 3650.664062 L 3102.03125 3631.40625 L 3116.875 3612.851562 L 3132.929688 3592.773438 L 3148.203125 3573.554688 L 3164.296875 3553.320312 L 3178.867188 3534.921875 L 3194.960938 3514.570312 L 3210.351562 3495 L 3225.742188 3475.46875 L 3241.835938 3454.960938 L 3256.601562 3436.09375 L 3271.757812 3416.71875 L 3288.515625 3395.234375 L 3303.632812 3375.78125 L 3319.140625 3355.859375 L 3334.882812 3335.546875 L 3349.375 3316.835938 L 3364.804688 3296.875 L 3380.117188 3276.992188 L 3396.523438 3255.742188 L 3410.976562 3236.953125 L 3427.65625 3215.234375 L 3442.734375 3195.625 L 3457.617188 3176.171875 L 3473.632812 3155.234375 L 3489.726562 3134.21875 L 3519.921875 3094.648438 L 3551.523438 3053.164062 L 3582.070312 3012.96875 L 3627.851562 2952.65625 L 3875.742188 2625.3125 L 3922.460938 2563.75 L 3952.851562 2523.75 L 3984.960938 2481.5625 L 4014.53125 2442.734375 L 4031.289062 2420.820312 L 4045.46875 2402.265625 L 4061.992188 2380.703125 L 4076.5625 2361.640625 L 4092.617188 2340.78125 L 4107.851562 2320.898438 L 4123.789062 2300.234375 L 4138.398438 2281.25 L 4154.140625 2260.820312 L 4170.546875 2239.648438 L 4184.804688 2221.210938 L 4200.195312 2201.367188 L 4216.09375 2180.898438 L 4231.679688 2160.898438 L 4246.71875 2141.5625 L 4263.4375 2120.195312 L 4278.476562 2101.015625 L 4294.53125 2080.585938 L 4309.0625 2062.109375 L 4324.960938 2041.914062 L 4339.882812 2023.007812 L 4355.546875 2003.28125 L 4370.78125 1984.023438 L 4386.796875 1963.945312 L 4402.1875 1944.648438 L 4417.96875 1924.960938 L 4433.59375 1905.46875 L 4447.96875 1887.65625 L 4464.414062 1867.265625 L 4479.140625 1849.0625 L 4494.804688 1829.726562 L 4509.84375 1811.289062 L 4526.523438 1790.898438 L 4540.976562 1773.28125 L 4557.34375 1753.359375 L 4572.304688 1735.234375 L 4588.632812 1715.507812 L 4602.734375 1698.554688 L 4618.789062 1679.296875 L 4634.296875 1660.742188 L 4649.804688 1642.304688 L 4665.273438 1623.984375 L 4680.078125 1606.484375 L 4696.132812 1587.617188 L 4711.40625 1569.726562 L 4727.5 1550.9375 L 4742.070312 1534.023438 L 4758.164062 1515.429688 L 4773.59375 1497.65625 L 4788.984375 1480.039062 L 4805.039062 1461.71875 L 4819.84375 1444.921875 L 4834.960938 1427.773438 L 4851.71875 1408.945312 L 4866.875 1392.03125 L 4882.34375 1374.765625 L 4898.125 1357.304688 L 4912.578125 1341.367188 L 4928.046875 1324.414062 L 4943.359375 1307.695312 L 4959.726562 1289.921875 L 4974.179688 1274.335938 L 4990.898438 1256.445312 L 5005.9375 1240.351562 L 5020.859375 1224.570312 L 5036.835938 1207.695312 L 5052.929688 1190.859375 L 5067.578125 1175.585938 L 5083.125 1159.492188 L 5098.28125 1143.90625 L 5114.726562 1127.109375 L 5128.945312 1112.65625 L 5145.273438 1096.171875 L 5160.664062 1080.78125 L 5175.859375 1065.664062 L 5191.09375 1050.625 L 5206.601562 1035.390625 L 5223.046875 1019.375 L 5238.164062 1004.765625 L 5253.046875 990.46875 L 5268.984375 975.273438 L 5284.882812 960.273438 L 5299.84375 946.210938 " transform="matrix(0.1,0,0,-0.1,0,555)"/>
<path style="fill:none;stroke-width:27.75;stroke-linecap:butt;stroke-linejoin:round;stroke:rgb(0%,0%,100%);stroke-opacity:1;stroke-miterlimit:10;" d="M 2219.84375 4610.507812 L 2236.054688 4625.585938 L 2250.15625 4638.59375 L 2266.015625 4653.085938 L 2281.953125 4667.578125 L 2297.8125 4681.875 L 2312.539062 4695.039062 L 2327.773438 4708.515625 L 2343.515625 4722.34375 L 2359.257812 4736.015625 L 2375.390625 4749.921875 L 2389.648438 4762.070312 L 2405.664062 4775.625 L 2421.757812 4789.101562 L 2437.265625 4801.953125 L 2451.328125 4813.554688 L 2468.085938 4827.148438 L 2482.265625 4838.59375 L 2498.75 4851.71875 L 2513.359375 4863.242188 L 2529.375 4875.742188 L 2544.648438 4887.539062 L 2560.546875 4899.6875 L 2575.195312 4910.703125 L 2590.9375 4922.460938 L 2607.34375 4934.53125 L 2621.601562 4944.921875 L 2636.992188 4956.015625 L 2652.890625 4967.34375 L 2668.476562 4978.28125 L 2683.515625 4988.710938 L 2700.234375 5000.195312 L 2715.273438 5010.3125 L 2731.328125 5021.015625 L 2745.859375 5030.585938 L 2761.71875 5040.898438 L 2776.679688 5050.46875 L 2792.304688 5060.3125 L 2807.578125 5069.804688 L 2823.59375 5079.609375 L 2838.984375 5088.867188 L 2854.765625 5098.242188 L 2870.390625 5107.34375 L 2884.726562 5115.625 L 2901.171875 5124.921875 L 2915.898438 5133.085938 L 2931.601562 5141.679688 L 2946.640625 5149.726562 L 2963.320312 5158.515625 L 2977.734375 5166.015625 L 2994.140625 5174.335938 L 3009.101562 5181.796875 L 3025.429688 5189.765625 L 3039.53125 5196.523438 L 3055.585938 5204.0625 L 3071.09375 5211.171875 L 3086.601562 5218.164062 L 3102.03125 5224.960938 L 3116.875 5231.328125 L 3132.929688 5238.085938 L 3148.203125 5244.375 L 3164.296875 5250.78125 L 3178.867188 5256.484375 L 3194.960938 5262.617188 L 3210.351562 5268.320312 L 3225.742188 5273.867188 L 3241.835938 5279.492188 L 3256.601562 5284.53125 L 3271.757812 5289.53125 L 3288.515625 5294.882812 L 3303.632812 5299.609375 L 3319.140625 5304.21875 L 3334.882812 5308.789062 L 3349.375 5312.851562 L 3364.804688 5316.992188 L 3380.117188 5320.976562 L 3396.523438 5325.039062 L 3410.976562 5328.515625 L 3427.65625 5332.304688 L 3442.734375 5335.585938 L 3457.617188 5338.671875 L 3473.632812 5341.835938 L 3489.726562 5344.84375 L 3504.375 5347.421875 L 3519.921875 5350.039062 L 3535.078125 5352.382812 L 3551.523438 5354.804688 L 3565.742188 5356.71875 L 3582.070312 5358.789062 L 3597.421875 5360.507812 L 3612.65625 5362.109375 L 3627.851562 5363.554688 L 3643.398438 5364.84375 L 3659.84375 5366.054688 L 3674.960938 5366.992188 L 3689.84375 5367.734375 L 3705.78125 5368.4375 L 3721.640625 5368.90625 L 3735.9375 5369.21875 L 3752.8125 5369.375 L 3766.953125 5369.375 L 3783.476562 5369.21875 L 3799.257812 5368.867188 L 3813.359375 5368.4375 L 3829.21875 5367.773438 L 3845.15625 5366.953125 L 3861.015625 5365.976562 L 3875.742188 5364.882812 L 3890.976562 5363.59375 L 3906.757812 5362.148438 L 3922.460938 5360.507812 L 3938.59375 5358.632812 L 3952.851562 5356.875 L 3968.867188 5354.6875 L 3984.960938 5352.34375 L 4000.46875 5349.921875 L 4014.53125 5347.578125 L 4031.289062 5344.609375 L 4045.46875 5341.953125 L 4061.992188 5338.710938 L 4076.5625 5335.664062 L 4092.617188 5332.1875 L 4107.851562 5328.710938 L 4123.789062 5324.921875 L 4138.398438 5321.289062 L 4154.140625 5317.1875 L 4170.546875 5312.773438 L 4184.804688 5308.789062 L 4200.195312 5304.335938 L 4216.09375 5299.570312 L 4231.679688 5294.765625 L 4246.71875 5289.921875 L 4263.4375 5284.414062 L 4278.476562 5279.296875 L 4294.53125 5273.671875 L 4309.0625 5268.4375 L 4324.960938 5262.539062 L 4339.882812 5256.875 L 4355.546875 5250.742188 L 4370.78125 5244.648438 L 4386.796875 5238.085938 L 4402.1875 5231.601562 L 4417.96875 5224.84375 L 4433.59375 5217.96875 L 4447.96875 5211.484375 L 4464.414062 5203.945312 L 4479.140625 5197.03125 L 4494.804688 5189.492188 L 4509.84375 5182.1875 L 4526.523438 5173.867188 L 4540.976562 5166.523438 L 4557.34375 5158.046875 L 4572.304688 5150.15625 L 4588.632812 5141.367188 L 4602.734375 5133.671875 L 4618.789062 5124.765625 L 4634.296875 5115.976562 L 4649.804688 5107.070312 L 4665.273438 5098.046875 L 4680.078125 5089.257812 L 4696.132812 5079.609375 L 4711.40625 5070.234375 L 4727.5 5060.234375 L 4742.070312 5051.054688 L 4758.164062 5040.78125 L 4773.59375 5030.78125 L 4788.984375 5020.664062 L 4805.039062 5009.921875 L 4819.84375 4999.960938 L 4834.960938 4989.570312 L 4851.71875 4977.96875 L 4866.875 4967.304688 L 4882.34375 4956.289062 L 4898.125 4944.960938 L 4912.578125 4934.414062 L 4928.046875 4923.007812 L 4943.359375 4911.601562 L 4959.726562 4899.21875 L 4974.179688 4888.203125 L 4990.898438 4875.3125 L 5005.9375 4863.554688 L 5020.859375 4851.835938 L 5036.835938 4839.0625 L 5052.929688 4826.09375 L 5067.578125 4814.21875 L 5083.125 4801.445312 L 5098.28125 4788.867188 L 5114.726562 4775.078125 L 5128.945312 4763.046875 L 5145.273438 4749.101562 L 5160.664062 4735.859375 L 5175.859375 4722.617188 L 5191.09375 4709.257812 L 5206.601562 4695.546875 L 5223.046875 4680.820312 L 5238.164062 4667.226562 L 5253.046875 4653.710938 L 5268.984375 4639.140625 L 5284.882812 4624.453125 L 5299.84375 4610.507812 " transform="matrix(0.1,0,0,-0.1,0,555)"/>
<path style="fill:none;stroke-width:20.8125;stroke-linecap:butt;stroke-linejoin:round;stroke:rgb(0%,0%,0%);stroke-opacity:1;stroke-miterlimit:10;" d="M 5299.84375 4610.507812 L 5299.84375 946.210938 " transform="matrix(0.1,0,0,-0.1,0,555)"/>
<path style="fill:none;stroke-width:13.875;stroke-linecap:square;stroke-linejoin:miter;stroke:rgb(0%,0%,0%);stroke-opacity:1;stroke-miterlimit:10;" d="M 2254.53125 4617.460938 C 2254.53125 4594.453125 2235.898438 4575.820312 2212.929688 4575.820312 C 2189.921875 4575.820312 2171.289062 4594.453125 2171.289062 4617.460938 C 2171.289062 4640.429688 2189.921875 4659.0625 2212.929688 4659.0625 C 2235.898438 4659.0625 2254.53125 4640.429688 2254.53125 4617.460938 Z M 2254.53125 4617.460938 " transform="matrix(0.1,0,0,-0.1,0,555)"/>
<path style=" stroke:none;fill-rule:nonzero;fill:rgb(0%,0%,0%);fill-opacity:1;" d="M 225.453125 93.253906 C 225.453125 95.554688 223.589844 97.417969 221.292969 97.417969 C 218.992188 97.417969 217.128906 95.554688 217.128906 93.253906 C 217.128906 90.957031 218.992188 89.09375 221.292969 89.09375 C 223.589844 89.09375 225.453125 90.957031 225.453125 93.253906 "/>
<g clip-path="url(#clip2)" clip-rule="nonzero">
<path style=" stroke:none;fill-rule:nonzero;fill:rgb(100%,0%,0%);fill-opacity:1;" d="M 169.210938 207.386719 C 170.714844 206.347656 172.589844 204.785156 174.847656 202.703125 L 175.300781 202.269531 C 175.214844 200.378906 174.976562 198.382812 174.585938 196.285156 C 174.195312 194.191406 173.789062 192.675781 173.371094 191.734375 C 173.011719 190.96875 172.726562 190.515625 172.515625 190.378906 C 172.304688 190.242188 171.746094 190.152344 170.835938 190.109375 L 170.554688 190.085938 L 170.683594 189.328125 L 175.105469 189.328125 C 176.378906 192.320312 177.105469 195.816406 177.296875 199.820312 L 178.792969 197.914062 C 180.28125 196.019531 181.269531 194.636719 181.761719 193.761719 C 182.253906 192.886719 182.5 192.082031 182.5 191.34375 C 182.5 190.578125 182.171875 189.90625 181.523438 189.328125 L 184.539062 189.328125 C 184.726562 189.6875 184.820312 190.035156 184.820312 190.367188 C 184.820312 191.0625 184.59375 191.785156 184.136719 192.535156 C 183.679688 193.289062 182.738281 194.523438 181.304688 196.242188 L 176.667969 201.769531 C 174.832031 203.984375 173.457031 205.855469 172.546875 207.386719 L 169.210938 207.386719 "/>
</g>
<path style=" stroke:none;fill-rule:nonzero;fill:rgb(100%,0%,0%);fill-opacity:1;" d="M 193.664062 198.21875 L 193.902344 197.003906 L 208.339844 197.003906 L 208.101562 198.21875 Z M 194.550781 193.683594 L 194.789062 192.492188 L 209.253906 192.492188 L 208.992188 193.683594 L 194.550781 193.683594 "/>
<path style=" stroke:none;fill-rule:nonzero;fill:rgb(100%,0%,0%);fill-opacity:1;" d="M 227.808594 201.425781 C 226.046875 202.394531 224.3125 202.878906 222.605469 202.878906 C 221.347656 202.878906 220.359375 202.46875 219.636719 201.652344 C 218.914062 200.835938 218.550781 199.703125 218.550781 198.261719 C 218.550781 195.859375 219.394531 193.726562 221.078125 191.855469 C 222.761719 189.980469 224.6875 189.046875 226.855469 189.046875 C 227.824219 189.046875 228.835938 189.226562 229.890625 189.589844 L 229.238281 192.949219 L 228.027344 192.949219 L 228.070312 192.710938 C 228.085938 192.535156 228.128906 192.277344 228.199219 191.929688 C 228.214844 191.757812 228.222656 191.613281 228.222656 191.496094 C 228.222656 190.542969 227.398438 190.066406 225.75 190.066406 C 224.433594 190.066406 223.332031 190.800781 222.445312 192.277344 C 221.554688 193.75 221.109375 195.585938 221.109375 197.78125 C 221.109375 200.253906 222.136719 201.488281 224.1875 201.488281 C 225.070312 201.488281 226.351562 201.121094 228.027344 200.382812 Z M 235.015625 202.878906 C 232.195312 202.878906 230.789062 201.351562 230.789062 198.304688 C 230.789062 195.859375 231.601562 193.707031 233.226562 191.84375 C 234.851562 189.976562 236.734375 189.046875 238.875 189.046875 C 241.734375 189.046875 243.164062 190.558594 243.164062 193.578125 C 243.164062 196.035156 242.347656 198.199219 240.707031 200.070312 C 239.066406 201.941406 237.167969 202.878906 235.015625 202.878906 Z M 235.6875 201.945312 C 236.960938 201.945312 238.078125 201.074219 239.046875 199.335938 C 240.015625 197.589844 240.5 195.570312 240.5 193.273438 C 240.5 191.078125 239.761719 189.976562 238.289062 189.976562 C 237.003906 189.976562 235.871094 190.847656 234.894531 192.589844 C 233.921875 194.332031 233.433594 196.351562 233.433594 198.648438 C 233.433594 200.847656 234.183594 201.945312 235.6875 201.945312 Z M 243.820312 201.835938 L 244.429688 198.824219 L 245.644531 198.824219 L 245.597656 199.039062 L 245.511719 199.777344 C 245.46875 200.066406 245.445312 200.285156 245.445312 200.429688 C 245.445312 200.859375 245.742188 201.25 246.335938 201.597656 C 246.929688 201.945312 247.59375 202.117188 248.328125 202.117188 C 249.039062 202.117188 249.632812 201.898438 250.109375 201.457031 C 250.585938 201.015625 250.824219 200.464844 250.824219 199.800781 C 250.824219 199.148438 250.484375 198.46875 249.804688 197.761719 L 248.527344 196.417969 C 247.050781 194.855469 246.3125 193.585938 246.3125 192.601562 C 246.3125 191.5625 246.734375 190.707031 247.570312 190.042969 C 248.410156 189.378906 249.496094 189.046875 250.824219 189.046875 C 252.082031 189.046875 253.296875 189.34375 254.464844 189.933594 L 253.878906 192.863281 L 252.6875 192.863281 L 252.710938 192.644531 C 252.769531 192.253906 252.8125 191.964844 252.839844 191.777344 C 252.882812 191.53125 252.90625 191.320312 252.90625 191.148438 C 252.90625 190.238281 252.152344 189.785156 250.648438 189.785156 C 250.042969 189.785156 249.539062 190 249.132812 190.433594 C 248.730469 190.867188 248.527344 191.402344 248.527344 192.039062 C 248.527344 192.675781 248.921875 193.390625 249.71875 194.183594 L 250.976562 195.441406 C 252.378906 196.828125 253.078125 198.085938 253.078125 199.214844 C 253.078125 200.3125 252.636719 201.195312 251.757812 201.871094 C 250.875 202.542969 249.710938 202.878906 248.265625 202.878906 C 246.835938 202.878906 245.351562 202.53125 243.820312 201.835938 "/>
<path style=" stroke:none;fill-rule:nonzero;fill:rgb(100%,0%,0%);fill-opacity:1;" d="M 272.882812 195.855469 L 271.386719 192.492188 L 270.777344 191.257812 C 270.5625 190.78125 270.382812 190.480469 270.234375 190.359375 C 270.09375 190.234375 269.824219 190.164062 269.433594 190.152344 L 268.699219 190.109375 L 268.480469 190.085938 L 268.609375 189.328125 L 272.578125 189.328125 L 275.007812 194.53125 L 275.546875 194.078125 C 277.136719 192.789062 277.933594 191.722656 277.933594 190.867188 C 277.933594 190.417969 277.753906 189.90625 277.390625 189.328125 L 279.796875 189.328125 C 279.882812 189.617188 279.929688 189.871094 279.929688 190.085938 C 279.929688 190.78125 279.679688 191.410156 279.191406 191.984375 C 278.699219 192.554688 277.59375 193.492188 275.875 194.789062 L 275.289062 195.226562 L 277.304688 199.429688 L 278.039062 200.773438 C 278.359375 201.398438 278.765625 201.730469 279.253906 201.769531 L 280.058594 201.816406 L 280.273438 201.816406 L 280.121094 202.574219 L 276.132812 202.574219 L 273.273438 196.546875 L 272.230469 197.480469 C 270.570312 198.96875 269.738281 200.253906 269.738281 201.339844 C 269.738281 201.769531 269.875 202.183594 270.148438 202.574219 L 267.550781 202.574219 C 267.519531 202.34375 267.503906 202.171875 267.503906 202.054688 C 267.503906 201.015625 268.261719 199.828125 269.78125 198.496094 L 271.667969 196.894531 L 272.882812 195.855469 "/>
<g clip-path="url(#clip3)" clip-rule="nonzero">
<path style=" stroke:none;fill-rule:nonzero;fill:rgb(100%,0%,0%);fill-opacity:1;" d="M 261.910156 206.136719 L 261.53125 206.738281 C 258.300781 204.730469 256.6875 200.722656 256.6875 194.707031 L 256.6875 195.179688 C 256.6875 189.144531 258.300781 185.132812 261.53125 183.148438 L 261.910156 183.71875 C 260.476562 184.945312 259.515625 186.664062 259.03125 188.878906 C 258.734375 190.253906 258.585938 192.195312 258.585938 194.707031 L 258.585938 195.179688 C 258.585938 197.671875 258.734375 199.601562 259.03125 200.976562 C 259.515625 203.191406 260.476562 204.910156 261.910156 206.136719 "/>
</g>
<g clip-path="url(#clip4)" clip-rule="nonzero">
<path style=" stroke:none;fill-rule:nonzero;fill:rgb(100%,0%,0%);fill-opacity:1;" d="M 283.050781 183.753906 L 283.429688 183.148438 C 286.660156 185.15625 288.273438 189.164062 288.273438 195.179688 L 288.273438 194.707031 C 288.273438 200.742188 286.660156 204.753906 283.429688 206.738281 L 283.050781 206.167969 C 284.484375 204.941406 285.445312 203.222656 285.929688 201.007812 C 286.226562 199.636719 286.375 197.691406 286.375 195.179688 L 286.375 194.707031 C 286.375 192.214844 286.226562 190.285156 285.929688 188.910156 C 285.445312 186.695312 284.484375 184.976562 283.050781 183.753906 "/>
</g>
<g clip-path="url(#clip5)" clip-rule="nonzero">
<path style=" stroke:none;fill-rule:nonzero;fill:rgb(0%,0%,100%);fill-opacity:1;" d="M 171.984375 38.113281 C 173.488281 37.070312 175.367188 35.511719 177.621094 33.429688 L 178.074219 32.996094 C 177.988281 31.101562 177.75 29.109375 177.359375 27.011719 C 176.96875 24.917969 176.566406 23.398438 176.148438 22.460938 C 175.785156 21.695312 175.5 21.242188 175.289062 21.105469 C 175.078125 20.96875 174.519531 20.878906 173.609375 20.835938 L 173.328125 20.8125 L 173.457031 20.054688 L 177.882812 20.054688 C 179.152344 23.046875 179.882812 26.542969 180.070312 30.546875 L 181.566406 28.640625 C 183.054688 26.746094 184.046875 25.363281 184.539062 24.488281 C 185.027344 23.613281 185.273438 22.808594 185.273438 22.070312 C 185.273438 21.304688 184.949219 20.632812 184.300781 20.054688 L 187.3125 20.054688 C 187.5 20.414062 187.59375 20.761719 187.59375 21.09375 C 187.59375 21.789062 187.367188 22.511719 186.910156 23.261719 C 186.453125 24.015625 185.511719 25.25 184.082031 26.96875 L 179.441406 32.496094 C 177.605469 34.710938 176.234375 36.582031 175.324219 38.113281 L 171.984375 38.113281 "/>
</g>
<path style=" stroke:none;fill-rule:nonzero;fill:rgb(0%,0%,100%);fill-opacity:1;" d="M 196.4375 28.941406 L 196.679688 27.726562 L 211.117188 27.726562 L 210.878906 28.941406 Z M 197.328125 24.410156 L 197.566406 23.21875 L 212.027344 23.21875 L 211.765625 24.410156 L 197.328125 24.410156 "/>
<path style=" stroke:none;fill-rule:nonzero;fill:rgb(0%,0%,100%);fill-opacity:1;" d="M 220.4375 32.5625 L 221.046875 29.550781 L 222.257812 29.550781 L 222.214844 29.765625 L 222.128906 30.503906 C 222.085938 30.792969 222.0625 31.007812 222.0625 31.152344 C 222.0625 31.585938 222.359375 31.976562 222.953125 32.324219 C 223.546875 32.671875 224.210938 32.84375 224.949219 32.84375 C 225.65625 32.84375 226.246094 32.625 226.726562 32.183594 C 227.203125 31.742188 227.441406 31.191406 227.441406 30.523438 C 227.441406 29.875 227.101562 29.195312 226.421875 28.488281 L 225.144531 27.144531 C 223.667969 25.582031 222.929688 24.308594 222.929688 23.328125 C 222.929688 22.285156 223.351562 21.433594 224.1875 20.769531 C 225.027344 20.105469 226.109375 19.773438 227.441406 19.773438 C 228.699219 19.773438 229.914062 20.066406 231.082031 20.660156 L 230.496094 23.585938 L 229.304688 23.585938 L 229.328125 23.371094 C 229.382812 22.980469 229.429688 22.691406 229.457031 22.503906 C 229.5 22.257812 229.519531 22.046875 229.519531 21.875 C 229.519531 20.964844 228.769531 20.507812 227.265625 20.507812 C 226.660156 20.507812 226.152344 20.726562 225.75 21.160156 C 225.34375 21.59375 225.144531 22.128906 225.144531 22.765625 C 225.144531 23.398438 225.539062 24.113281 226.335938 24.910156 L 227.59375 26.167969 C 228.996094 27.554688 229.695312 28.8125 229.695312 29.9375 C 229.695312 31.039062 229.253906 31.921875 228.371094 32.59375 C 227.492188 33.265625 226.328125 33.605469 224.882812 33.605469 C 223.449219 33.605469 221.972656 33.257812 220.4375 32.5625 Z M 232.769531 33.300781 L 234.785156 23.21875 C 234.914062 22.554688 234.980469 21.976562 234.980469 21.484375 C 234.980469 21.121094 234.671875 20.921875 234.050781 20.878906 L 233.226562 20.835938 L 233.007812 20.8125 L 233.160156 20.054688 L 237.820312 20.054688 L 235.804688 30.136719 C 235.675781 30.800781 235.609375 31.378906 235.609375 31.867188 C 235.609375 32.230469 235.929688 32.433594 236.5625 32.476562 L 237.367188 32.539062 L 237.582031 32.539062 L 237.453125 33.300781 Z M 235.890625 17.648438 L 236.367188 15.242188 L 238.773438 15.242188 L 238.300781 17.648438 Z M 239.988281 33.300781 L 242.003906 23.21875 C 242.136719 22.554688 242.199219 21.976562 242.199219 21.484375 C 242.199219 21.121094 241.890625 20.921875 241.269531 20.878906 L 240.445312 20.835938 L 240.226562 20.8125 L 240.378906 20.054688 L 245.039062 20.054688 L 243.957031 25.472656 C 245.011719 23.710938 246.15625 22.320312 247.394531 21.300781 C 248.628906 20.28125 249.773438 19.773438 250.828125 19.773438 C 252.246094 19.773438 252.953125 20.53125 252.953125 22.046875 C 252.953125 22.425781 252.875 23.003906 252.714844 23.78125 L 251.457031 30.136719 C 251.328125 30.800781 251.261719 31.378906 251.261719 31.867188 C 251.261719 32.230469 251.574219 32.433594 252.195312 32.476562 L 253.019531 32.539062 L 253.234375 32.539062 L 253.085938 33.300781 L 248.421875 33.300781 L 250.375 23.4375 C 250.460938 23.003906 250.503906 22.660156 250.503906 22.417969 C 250.503906 21.851562 250.214844 21.570312 249.636719 21.570312 C 248.335938 21.570312 246.449219 23.3125 243.976562 26.796875 L 243.609375 27.296875 L 242.394531 33.300781 L 239.988281 33.300781 "/>
<path style=" stroke:none;fill-rule:nonzero;fill:rgb(0%,0%,100%);fill-opacity:1;" d="M 272.882812 26.578125 L 271.386719 23.21875 L 270.777344 21.984375 C 270.5625 21.507812 270.382812 21.207031 270.234375 21.085938 C 270.09375 20.960938 269.824219 20.890625 269.433594 20.878906 L 268.699219 20.835938 L 268.480469 20.8125 L 268.609375 20.054688 L 272.578125 20.054688 L 275.007812 25.257812 L 275.546875 24.800781 C 277.136719 23.515625 277.933594 22.445312 277.933594 21.59375 C 277.933594 21.144531 277.753906 20.632812 277.390625 20.054688 L 279.796875 20.054688 C 279.882812 20.34375 279.929688 20.597656 279.929688 20.8125 C 279.929688 21.507812 279.679688 22.140625 279.191406 22.710938 C 278.699219 23.28125 277.59375 24.214844 275.875 25.515625 L 275.289062 25.949219 L 277.304688 30.15625 L 278.039062 31.5 C 278.359375 32.121094 278.765625 32.453125 279.253906 32.496094 L 280.058594 32.539062 L 280.273438 32.539062 L 280.121094 33.300781 L 276.132812 33.300781 L 273.273438 27.273438 L 272.230469 28.203125 C 270.570312 29.695312 269.738281 30.980469 269.738281 32.0625 C 269.738281 32.496094 269.875 32.910156 270.148438 33.300781 L 267.550781 33.300781 C 267.519531 33.070312 267.503906 32.894531 267.503906 32.78125 C 267.503906 31.738281 268.261719 30.554688 269.78125 29.222656 L 271.667969 27.621094 L 272.882812 26.578125 "/>
<g clip-path="url(#clip6)" clip-rule="nonzero">
<path style=" stroke:none;fill-rule:nonzero;fill:rgb(0%,0%,100%);fill-opacity:1;" d="M 261.910156 36.859375 L 261.53125 37.460938 C 258.300781 35.457031 256.6875 31.445312 256.6875 25.433594 L 256.6875 25.90625 C 256.6875 19.867188 258.300781 15.859375 261.53125 13.875 L 261.910156 14.445312 C 260.476562 15.667969 259.515625 17.390625 259.03125 19.605469 C 258.734375 20.976562 258.585938 22.921875 258.585938 25.433594 L 258.585938 25.90625 C 258.585938 28.394531 258.734375 30.328125 259.03125 31.699219 C 259.515625 33.914062 260.476562 35.636719 261.910156 36.859375 "/>
</g>
<g clip-path="url(#clip7)" clip-rule="nonzero">
<path style=" stroke:none;fill-rule:nonzero;fill:rgb(0%,0%,100%);fill-opacity:1;" d="M 283.050781 14.476562 L 283.429688 13.875 C 286.660156 15.878906 288.273438 19.890625 288.273438 25.90625 L 288.273438 25.433594 C 288.273438 31.46875 286.660156 35.480469 283.429688 37.460938 L 283.050781 36.894531 C 284.484375 35.667969 285.445312 33.949219 285.929688 31.730469 C 286.226562 30.359375 286.375 28.417969 286.375 25.90625 L 286.375 25.433594 C 286.375 22.941406 286.226562 21.007812 285.929688 19.636719 C 285.445312 17.421875 284.484375 15.699219 283.050781 14.476562 "/>
</g>
<path style="fill:none;stroke-width:13.875;stroke-linecap:butt;stroke-linejoin:round;stroke:rgb(0%,0%,0%);stroke-opacity:1;stroke-miterlimit:10;" d="M 679.882812 2778.359375 L 5299.84375 2778.359375 " transform="matrix(0.1,0,0,-0.1,0,555)"/>
<path style=" stroke:none;fill-rule:nonzero;fill:rgb(0%,0%,0%);fill-opacity:1;" d="M 298.660156 341.671875 C 298.949219 341.972656 299.164062 342.285156 299.308594 342.601562 C 299.425781 342.804688 299.597656 343.355469 299.828125 344.25 L 300.609375 343.101562 C 300.8125 342.8125 301.0625 342.542969 301.359375 342.289062 C 301.652344 342.035156 301.910156 341.859375 302.128906 341.757812 C 302.273438 341.699219 302.429688 341.671875 302.605469 341.671875 C 302.851562 341.671875 303.050781 341.738281 303.199219 341.878906 C 303.351562 342.015625 303.429688 342.175781 303.429688 342.367188 C 303.429688 342.597656 303.386719 342.753906 303.296875 342.839844 C 303.140625 342.984375 302.949219 343.058594 302.734375 343.058594 C 302.605469 343.058594 302.476562 343.03125 302.34375 342.972656 C 302.070312 342.886719 301.882812 342.839844 301.78125 342.839844 C 301.636719 342.839844 301.46875 342.921875 301.28125 343.078125 C 300.921875 343.382812 300.488281 343.976562 299.980469 344.855469 L 300.695312 347.871094 C 300.8125 348.335938 300.90625 348.613281 300.976562 348.707031 C 301.050781 348.800781 301.128906 348.847656 301.214844 348.847656 C 301.332031 348.847656 301.476562 348.78125 301.652344 348.652344 C 301.96875 348.378906 302.242188 348.023438 302.476562 347.589844 L 302.777344 347.742188 C 302.402344 348.4375 301.933594 349.011719 301.367188 349.476562 C 301.050781 349.734375 300.777344 349.867188 300.546875 349.867188 C 300.210938 349.867188 299.953125 349.679688 299.765625 349.304688 C 299.636719 349.070312 299.382812 348.089844 299.007812 346.355469 C 298.082031 347.941406 297.34375 348.964844 296.796875 349.410156 C 296.433594 349.714844 296.085938 349.867188 295.753906 349.867188 C 295.523438 349.867188 295.304688 349.777344 295.101562 349.605469 C 294.972656 349.476562 294.90625 349.304688 294.90625 349.085938 C 294.90625 348.898438 294.972656 348.738281 295.101562 348.609375 C 295.234375 348.480469 295.390625 348.414062 295.578125 348.414062 C 295.769531 348.414062 295.964844 348.507812 296.164062 348.695312 C 296.324219 348.824219 296.449219 348.890625 296.535156 348.890625 C 296.59375 348.890625 296.679688 348.847656 296.796875 348.761719 C 297.070312 348.527344 297.445312 348.046875 297.921875 347.308594 C 298.398438 346.570312 298.710938 346.035156 298.855469 345.703125 C 298.492188 344.273438 298.296875 343.519531 298.269531 343.449219 C 298.140625 343.058594 297.964844 342.785156 297.746094 342.625 C 297.53125 342.464844 297.207031 342.386719 296.773438 342.386719 C 296.640625 342.386719 296.492188 342.394531 296.316406 342.410156 L 296.316406 342.082031 L 298.660156 341.671875 "/>
<path style="fill:none;stroke-width:1.2;stroke-linecap:butt;stroke-linejoin:round;stroke:rgb(0%,0%,0%);stroke-opacity:1;stroke-miterlimit:10;" d="M 1449.882812 2778.359375 L 1449.882812 2722.851562 " transform="matrix(0.1,0,0,-0.1,0,555)"/>
<path style=" stroke:none;fill-rule:nonzero;fill:rgb(0%,0%,0%);fill-opacity:1;" d="M 149.695312 301.128906 C 149.695312 301.476562 149.648438 301.832031 149.558594 302.191406 C 149.464844 302.554688 149.324219 302.878906 149.144531 303.167969 C 148.964844 303.457031 148.734375 303.691406 148.464844 303.871094 C 148.1875 304.054688 147.878906 304.144531 147.53125 304.144531 C 147.195312 304.144531 146.894531 304 146.617188 303.710938 C 146.34375 303.421875 146.121094 302.988281 145.945312 302.410156 C 145.917969 302.335938 145.898438 302.230469 145.882812 302.09375 C 145.867188 301.957031 145.851562 301.816406 145.839844 301.671875 C 145.824219 301.527344 145.8125 301.386719 145.804688 301.25 C 145.796875 301.113281 145.796875 301 145.796875 300.914062 C 145.796875 300.21875 145.847656 299.511719 145.945312 298.789062 C 146.046875 298.066406 146.128906 297.34375 146.1875 296.621094 L 144.148438 296.621094 C 144.015625 297.980469 143.894531 299.121094 143.78125 300.046875 C 143.664062 300.972656 143.539062 301.796875 143.410156 302.519531 C 143.367188 302.722656 143.328125 302.902344 143.289062 303.070312 C 143.253906 303.238281 143.207031 303.378906 143.148438 303.492188 C 143.019531 303.769531 142.855469 303.953125 142.664062 304.058594 C 142.46875 304.15625 142.289062 304.210938 142.132812 304.210938 C 141.84375 304.210938 141.605469 304.109375 141.425781 303.90625 C 141.246094 303.703125 141.15625 303.492188 141.15625 303.277344 C 141.15625 303.015625 141.222656 302.804688 141.359375 302.636719 C 141.5 302.472656 141.648438 302.285156 141.808594 302.085938 C 141.964844 301.894531 142.113281 301.703125 142.25 301.507812 C 142.386719 301.316406 142.476562 301.066406 142.519531 300.761719 L 143.039062 296.621094 L 142.195312 296.621094 C 142.007812 296.621094 141.796875 296.671875 141.566406 296.773438 C 141.335938 296.875 141.140625 297.03125 140.980469 297.25 L 140.613281 297.769531 L 140.3125 297.769531 C 140.585938 296.933594 140.921875 296.273438 141.316406 295.796875 C 141.714844 295.320312 142.234375 295.082031 142.867188 295.082031 L 149.546875 295.082031 L 149.546875 296.621094 L 147.269531 296.621094 C 147.238281 296.96875 147.214844 297.335938 147.183594 297.726562 C 147.152344 298.117188 147.128906 298.5 147.105469 298.875 C 147.085938 299.253906 147.070312 299.609375 147.0625 299.949219 C 147.058594 300.289062 147.054688 300.574219 147.054688 300.804688 C 147.054688 301.023438 147.074219 301.226562 147.117188 301.421875 C 147.160156 301.617188 147.234375 301.796875 147.335938 301.953125 C 147.4375 302.113281 147.558594 302.242188 147.703125 302.34375 C 147.847656 302.445312 148.027344 302.496094 148.246094 302.496094 C 148.390625 302.496094 148.554688 302.445312 148.734375 302.34375 C 148.914062 302.242188 149.054688 302.085938 149.15625 301.867188 C 149.199219 301.78125 149.230469 301.671875 149.253906 301.542969 C 149.273438 301.410156 149.292969 301.273438 149.308594 301.128906 L 149.695312 301.128906 "/>
<path style=" stroke:none;fill-rule:nonzero;fill:rgb(0%,0%,0%);fill-opacity:1;" d="M 143.605469 321.441406 C 142.652344 320.664062 142.035156 320.039062 141.761719 319.570312 C 141.488281 319.097656 141.351562 318.613281 141.351562 318.105469 C 141.351562 317.324219 141.652344 316.65625 142.25 316.101562 C 142.851562 315.542969 143.648438 315.265625 144.648438 315.265625 C 145.613281 315.265625 146.390625 315.527344 146.976562 316.046875 C 147.5625 316.566406 147.855469 317.160156 147.855469 317.824219 C 147.855469 318.269531 147.695312 318.726562 147.378906 319.1875 C 147.058594 319.652344 146.402344 320.203125 145.402344 320.835938 C 146.429688 321.632812 147.109375 322.261719 147.441406 322.722656 C 147.890625 323.316406 148.117188 323.945312 148.117188 324.609375 C 148.117188 325.449219 147.796875 326.164062 147.160156 326.765625 C 146.523438 327.367188 145.6875 327.664062 144.648438 327.664062 C 143.503906 327.664062 142.617188 327.3125 141.980469 326.605469 C 141.472656 326.027344 141.222656 325.394531 141.222656 324.71875 C 141.222656 324.199219 141.402344 323.675781 141.761719 323.15625 C 142.125 322.636719 142.738281 322.066406 143.605469 321.441406 Z M 144.972656 320.488281 C 145.679688 319.855469 146.128906 319.351562 146.316406 318.984375 C 146.503906 318.613281 146.597656 318.199219 146.597656 317.738281 C 146.597656 317.128906 146.425781 316.648438 146.078125 316.296875 C 145.730469 315.941406 145.261719 315.765625 144.667969 315.765625 C 144.0625 315.765625 143.570312 315.9375 143.195312 316.285156 C 142.816406 316.632812 142.628906 317.035156 142.628906 317.5 C 142.628906 317.800781 142.710938 318.109375 142.867188 318.421875 C 143.027344 318.730469 143.25 319.023438 143.539062 319.296875 Z M 144.015625 321.769531 C 143.527344 322.171875 143.164062 322.617188 142.933594 323.101562 C 142.703125 323.585938 142.585938 324.109375 142.585938 324.675781 C 142.585938 325.441406 142.792969 326.050781 143.203125 326.507812 C 143.617188 326.960938 144.140625 327.1875 144.777344 327.1875 C 145.414062 327.1875 145.921875 327.007812 146.304688 326.644531 C 146.6875 326.285156 146.878906 325.851562 146.878906 325.347656 C 146.878906 324.925781 146.765625 324.546875 146.53125 324.199219 C 146.128906 323.574219 145.289062 322.765625 144.015625 321.769531 "/>
<path style="fill:none;stroke-width:13.875;stroke-linecap:square;stroke-linejoin:miter;stroke:rgb(0%,0%,0%);stroke-opacity:1;stroke-miterlimit:10;" d="M 1380.546875 2448.945312 L 1533.203125 2448.945312 " transform="matrix(0.1,0,0,-0.1,0,555)"/>
<path style="fill:none;stroke-width:1.2;stroke-linecap:butt;stroke-linejoin:round;stroke:rgb(0%,0%,0%);stroke-opacity:1;stroke-miterlimit:10;" d="M 2219.84375 2778.359375 L 2219.84375 2722.851562 " transform="matrix(0.1,0,0,-0.1,0,555)"/>
<path style=" stroke:none;fill-rule:nonzero;fill:rgb(0%,0%,0%);fill-opacity:1;" d="M 226.011719 301.128906 C 226.011719 301.476562 225.964844 301.832031 225.871094 302.191406 C 225.773438 302.554688 225.636719 302.878906 225.457031 303.167969 C 225.277344 303.457031 225.046875 303.691406 224.773438 303.871094 C 224.5 304.054688 224.1875 304.144531 223.84375 304.144531 C 223.511719 304.144531 223.207031 304 222.929688 303.710938 C 222.65625 303.421875 222.433594 302.988281 222.257812 302.410156 C 222.230469 302.335938 222.210938 302.230469 222.195312 302.09375 C 222.179688 301.957031 222.164062 301.816406 222.152344 301.671875 C 222.136719 301.527344 222.125 301.386719 222.117188 301.25 C 222.109375 301.113281 222.109375 301 222.109375 300.914062 C 222.109375 300.21875 222.15625 299.511719 222.257812 298.789062 C 222.359375 298.066406 222.441406 297.34375 222.496094 296.621094 L 220.460938 296.621094 C 220.328125 297.980469 220.207031 299.121094 220.09375 300.046875 C 219.976562 300.972656 219.855469 301.796875 219.722656 302.519531 C 219.679688 302.722656 219.640625 302.902344 219.605469 303.070312 C 219.566406 303.238281 219.519531 303.378906 219.460938 303.492188 C 219.332031 303.769531 219.171875 303.953125 218.976562 304.058594 C 218.78125 304.15625 218.605469 304.210938 218.445312 304.210938 C 218.15625 304.210938 217.921875 304.109375 217.738281 303.90625 C 217.558594 303.703125 217.46875 303.492188 217.46875 303.277344 C 217.46875 303.015625 217.535156 302.804688 217.675781 302.636719 C 217.8125 302.472656 217.960938 302.285156 218.117188 302.085938 C 218.277344 301.894531 218.425781 301.703125 218.5625 301.507812 C 218.699219 301.316406 218.789062 301.066406 218.835938 300.761719 L 219.355469 296.621094 L 218.507812 296.621094 C 218.320312 296.621094 218.109375 296.671875 217.878906 296.773438 C 217.648438 296.875 217.453125 297.03125 217.296875 297.25 L 216.925781 297.769531 L 216.621094 297.769531 C 216.898438 296.933594 217.234375 296.273438 217.632812 295.796875 C 218.027344 295.320312 218.546875 295.082031 219.179688 295.082031 L 225.859375 295.082031 L 225.859375 296.621094 L 223.582031 296.621094 C 223.554688 296.96875 223.523438 297.335938 223.496094 297.726562 C 223.46875 298.117188 223.441406 298.5 223.421875 298.875 C 223.398438 299.253906 223.382812 299.609375 223.378906 299.949219 C 223.371094 300.289062 223.363281 300.574219 223.363281 300.804688 C 223.363281 301.023438 223.386719 301.226562 223.429688 301.421875 C 223.472656 301.617188 223.546875 301.796875 223.648438 301.953125 C 223.746094 302.113281 223.871094 302.242188 224.015625 302.34375 C 224.160156 302.445312 224.339844 302.496094 224.558594 302.496094 C 224.703125 302.496094 224.863281 302.445312 225.046875 302.34375 C 225.226562 302.242188 225.367188 302.085938 225.46875 301.867188 C 225.511719 301.78125 225.542969 301.671875 225.566406 301.542969 C 225.585938 301.410156 225.605469 301.273438 225.621094 301.128906 L 226.011719 301.128906 "/>
<path style=" stroke:none;fill-rule:nonzero;fill:rgb(0%,0%,0%);fill-opacity:1;" d="M 224.839844 323.050781 L 224.839844 324.304688 L 223.234375 324.304688 L 223.234375 327.449219 L 221.78125 327.449219 L 221.78125 324.304688 L 216.730469 324.304688 L 216.730469 323.179688 L 222.28125 315.265625 L 223.234375 315.265625 L 223.234375 323.050781 Z M 221.78125 323.050781 L 221.78125 317.105469 L 217.597656 323.050781 L 221.78125 323.050781 "/>
<path style="fill:none;stroke-width:13.875;stroke-linecap:square;stroke-linejoin:miter;stroke:rgb(0%,0%,0%);stroke-opacity:1;stroke-miterlimit:10;" d="M 2143.671875 2448.945312 L 2296.328125 2448.945312 " transform="matrix(0.1,0,0,-0.1,0,555)"/>
<path style="fill:none;stroke-width:1.2;stroke-linecap:butt;stroke-linejoin:round;stroke:rgb(0%,0%,0%);stroke-opacity:1;stroke-miterlimit:10;" d="M 2989.84375 2778.359375 L 2989.84375 2722.851562 " transform="matrix(0.1,0,0,-0.1,0,555)"/>
<path style=" stroke:none;fill-rule:nonzero;fill:rgb(0%,0%,0%);fill-opacity:1;" d="M 288.121094 294.191406 C 288.46875 293.382812 288.902344 292.761719 289.421875 292.328125 C 289.941406 291.894531 290.585938 291.675781 291.351562 291.675781 C 292.320312 291.675781 293.058594 291.988281 293.5625 292.609375 C 293.953125 293.074219 294.148438 293.5625 294.148438 294.085938 C 294.148438 294.964844 293.601562 295.867188 292.503906 296.796875 C 293.238281 297.082031 293.796875 297.496094 294.171875 298.027344 C 294.546875 298.566406 294.734375 299.191406 294.734375 299.914062 C 294.734375 300.941406 294.402344 301.832031 293.738281 302.582031 C 292.886719 303.578125 291.648438 304.078125 290.03125 304.078125 C 289.21875 304.078125 288.671875 303.976562 288.382812 303.773438 C 288.09375 303.574219 287.949219 303.355469 287.949219 303.125 C 287.949219 302.949219 288.015625 302.804688 288.15625 302.679688 C 288.292969 302.558594 288.453125 302.496094 288.644531 302.496094 C 288.789062 302.496094 288.9375 302.519531 289.097656 302.5625 C 289.199219 302.589844 289.425781 302.695312 289.78125 302.875 C 290.136719 303.054688 290.378906 303.167969 290.507812 303.210938 C 290.722656 303.269531 290.953125 303.296875 291.203125 303.296875 C 291.792969 303.296875 292.3125 303.066406 292.761719 302.605469 C 293.210938 302.140625 293.433594 301.59375 293.433594 300.957031 C 293.433594 300.492188 293.332031 300.046875 293.128906 299.613281 C 292.972656 299.28125 292.796875 299.027344 292.609375 298.855469 C 292.363281 298.621094 292.019531 298.410156 291.578125 298.226562 C 291.140625 298.039062 290.6875 297.941406 290.226562 297.941406 L 289.941406 297.941406 L 289.941406 297.660156 C 290.40625 297.605469 290.871094 297.4375 291.34375 297.160156 C 291.8125 296.890625 292.152344 296.558594 292.359375 296.175781 C 292.570312 295.792969 292.675781 295.363281 292.675781 294.886719 C 292.675781 294.292969 292.488281 293.808594 292.113281 293.433594 C 291.734375 293.058594 291.265625 292.871094 290.703125 292.871094 C 289.792969 292.871094 289.03125 293.355469 288.425781 294.324219 L 288.121094 294.191406 "/>
<path style=" stroke:none;fill-rule:nonzero;fill:rgb(0%,0%,0%);fill-opacity:1;" d="M 309.261719 301.128906 C 309.261719 301.476562 309.214844 301.832031 309.121094 302.191406 C 309.023438 302.554688 308.886719 302.878906 308.707031 303.167969 C 308.527344 303.457031 308.296875 303.691406 308.023438 303.871094 C 307.75 304.054688 307.4375 304.144531 307.09375 304.144531 C 306.761719 304.144531 306.457031 304 306.179688 303.710938 C 305.90625 303.421875 305.683594 302.988281 305.507812 302.410156 C 305.480469 302.335938 305.460938 302.230469 305.445312 302.09375 C 305.429688 301.957031 305.414062 301.816406 305.402344 301.671875 C 305.386719 301.527344 305.375 301.386719 305.367188 301.25 C 305.359375 301.113281 305.359375 301 305.359375 300.914062 C 305.359375 300.21875 305.40625 299.511719 305.507812 298.789062 C 305.609375 298.066406 305.691406 297.34375 305.746094 296.621094 L 303.710938 296.621094 C 303.578125 297.980469 303.457031 299.121094 303.34375 300.046875 C 303.226562 300.972656 303.105469 301.796875 302.972656 302.519531 C 302.929688 302.722656 302.890625 302.902344 302.855469 303.070312 C 302.816406 303.238281 302.769531 303.378906 302.710938 303.492188 C 302.582031 303.769531 302.421875 303.953125 302.226562 304.058594 C 302.03125 304.15625 301.855469 304.210938 301.695312 304.210938 C 301.40625 304.210938 301.171875 304.109375 300.988281 303.90625 C 300.808594 303.703125 300.71875 303.492188 300.71875 303.277344 C 300.71875 303.015625 300.785156 302.804688 300.925781 302.636719 C 301.0625 302.472656 301.210938 302.285156 301.367188 302.085938 C 301.527344 301.894531 301.675781 301.703125 301.8125 301.507812 C 301.949219 301.316406 302.039062 301.066406 302.085938 300.761719 L 302.605469 296.621094 L 301.757812 296.621094 C 301.570312 296.621094 301.359375 296.671875 301.128906 296.773438 C 300.898438 296.875 300.703125 297.03125 300.546875 297.25 L 300.175781 297.769531 L 299.871094 297.769531 C 300.148438 296.933594 300.484375 296.273438 300.882812 295.796875 C 301.277344 295.320312 301.796875 295.082031 302.429688 295.082031 L 309.109375 295.082031 L 309.109375 296.621094 L 306.832031 296.621094 C 306.804688 296.96875 306.773438 297.335938 306.746094 297.726562 C 306.71875 298.117188 306.691406 298.5 306.671875 298.875 C 306.648438 299.253906 306.632812 299.609375 306.628906 299.949219 C 306.621094 300.289062 306.613281 300.574219 306.613281 300.804688 C 306.613281 301.023438 306.636719 301.226562 306.679688 301.421875 C 306.722656 301.617188 306.796875 301.796875 306.898438 301.953125 C 306.996094 302.113281 307.121094 302.242188 307.265625 302.34375 C 307.410156 302.445312 307.589844 302.496094 307.808594 302.496094 C 307.953125 302.496094 308.113281 302.445312 308.296875 302.34375 C 308.476562 302.242188 308.617188 302.085938 308.71875 301.867188 C 308.761719 301.78125 308.792969 301.671875 308.816406 301.542969 C 308.835938 301.410156 308.855469 301.273438 308.871094 301.128906 L 309.261719 301.128906 "/>
<path style=" stroke:none;fill-rule:nonzero;fill:rgb(0%,0%,0%);fill-opacity:1;" d="M 297.617188 321.441406 C 296.664062 320.664062 296.050781 320.039062 295.773438 319.570312 C 295.503906 319.097656 295.363281 318.613281 295.363281 318.105469 C 295.363281 317.324219 295.664062 316.65625 296.261719 316.101562 C 296.863281 315.542969 297.660156 315.265625 298.660156 315.265625 C 299.628906 315.265625 300.402344 315.527344 300.988281 316.046875 C 301.574219 316.566406 301.867188 317.160156 301.867188 317.824219 C 301.867188 318.269531 301.707031 318.726562 301.390625 319.1875 C 301.070312 319.652344 300.414062 320.203125 299.417969 320.835938 C 300.445312 321.632812 301.121094 322.261719 301.453125 322.722656 C 301.902344 323.316406 302.128906 323.945312 302.128906 324.609375 C 302.128906 325.449219 301.808594 326.164062 301.171875 326.765625 C 300.539062 327.367188 299.699219 327.664062 298.660156 327.664062 C 297.519531 327.664062 296.628906 327.3125 295.992188 326.605469 C 295.484375 326.027344 295.234375 325.394531 295.234375 324.71875 C 295.234375 324.199219 295.414062 323.675781 295.773438 323.15625 C 296.136719 322.636719 296.753906 322.066406 297.617188 321.441406 Z M 298.984375 320.488281 C 299.691406 319.855469 300.140625 319.351562 300.328125 318.984375 C 300.515625 318.613281 300.609375 318.199219 300.609375 317.738281 C 300.609375 317.128906 300.4375 316.648438 300.089844 316.296875 C 299.742188 315.941406 299.273438 315.765625 298.679688 315.765625 C 298.074219 315.765625 297.582031 315.9375 297.207031 316.285156 C 296.832031 316.632812 296.640625 317.035156 296.640625 317.5 C 296.640625 317.800781 296.722656 318.109375 296.878906 318.421875 C 297.039062 318.730469 297.265625 319.023438 297.554688 319.296875 Z M 298.027344 321.769531 C 297.539062 322.171875 297.179688 322.617188 296.945312 323.101562 C 296.714844 323.585938 296.597656 324.109375 296.597656 324.675781 C 296.597656 325.441406 296.804688 326.050781 297.214844 326.507812 C 297.628906 326.960938 298.152344 327.1875 298.789062 327.1875 C 299.425781 327.1875 299.933594 327.007812 300.316406 326.644531 C 300.699219 326.285156 300.890625 325.851562 300.890625 325.347656 C 300.890625 324.925781 300.777344 324.546875 300.546875 324.199219 C 300.140625 323.574219 299.300781 322.765625 298.027344 321.769531 "/>
<path style="fill:none;stroke-width:13.875;stroke-linecap:square;stroke-linejoin:miter;stroke:rgb(0%,0%,0%);stroke-opacity:1;stroke-miterlimit:10;" d="M 2851.328125 2448.945312 L 3128.828125 2448.945312 " transform="matrix(0.1,0,0,-0.1,0,555)"/>
<path style="fill:none;stroke-width:1.2;stroke-linecap:butt;stroke-linejoin:round;stroke:rgb(0%,0%,0%);stroke-opacity:1;stroke-miterlimit:10;" d="M 3759.84375 2778.359375 L 3759.84375 2722.851562 " transform="matrix(0.1,0,0,-0.1,0,555)"/>
<path style=" stroke:none;fill-rule:nonzero;fill:rgb(0%,0%,0%);fill-opacity:1;" d="M 380.023438 301.128906 C 380.023438 301.476562 379.976562 301.832031 379.882812 302.191406 C 379.789062 302.554688 379.648438 302.878906 379.46875 303.167969 C 379.289062 303.457031 379.0625 303.691406 378.789062 303.871094 C 378.511719 304.054688 378.203125 304.144531 377.855469 304.144531 C 377.523438 304.144531 377.21875 304 376.941406 303.710938 C 376.671875 303.421875 376.445312 302.988281 376.273438 302.410156 C 376.242188 302.335938 376.222656 302.230469 376.207031 302.09375 C 376.191406 301.957031 376.179688 301.816406 376.164062 301.671875 C 376.148438 301.527344 376.140625 301.386719 376.128906 301.25 C 376.121094 301.113281 376.121094 301 376.121094 300.914062 C 376.121094 300.21875 376.171875 299.511719 376.273438 298.789062 C 376.371094 298.066406 376.453125 297.34375 376.511719 296.621094 L 374.472656 296.621094 C 374.34375 297.980469 374.21875 299.121094 374.105469 300.046875 C 373.988281 300.972656 373.867188 301.796875 373.734375 302.519531 C 373.691406 302.722656 373.652344 302.902344 373.617188 303.070312 C 373.578125 303.238281 373.53125 303.378906 373.476562 303.492188 C 373.347656 303.769531 373.183594 303.953125 372.988281 304.058594 C 372.792969 304.15625 372.617188 304.210938 372.457031 304.210938 C 372.167969 304.210938 371.933594 304.109375 371.753906 303.90625 C 371.570312 303.703125 371.480469 303.492188 371.480469 303.277344 C 371.480469 303.015625 371.550781 302.804688 371.6875 302.636719 C 371.824219 302.472656 371.972656 302.285156 372.132812 302.085938 C 372.289062 301.894531 372.4375 301.703125 372.574219 301.507812 C 372.714844 301.316406 372.804688 301.066406 372.847656 300.761719 L 373.367188 296.621094 L 372.519531 296.621094 C 372.335938 296.621094 372.121094 296.671875 371.894531 296.773438 C 371.660156 296.875 371.46875 297.03125 371.308594 297.25 L 370.9375 297.769531 L 370.636719 297.769531 C 370.910156 296.933594 371.246094 296.273438 371.644531 295.796875 C 372.039062 295.320312 372.558594 295.082031 373.191406 295.082031 L 379.871094 295.082031 L 379.871094 296.621094 L 377.59375 296.621094 C 377.566406 296.96875 377.539062 297.335938 377.507812 297.726562 C 377.480469 298.117188 377.453125 298.5 377.433594 298.875 C 377.410156 299.253906 377.394531 299.609375 377.390625 299.949219 C 377.382812 300.289062 377.378906 300.574219 377.378906 300.804688 C 377.378906 301.023438 377.398438 301.226562 377.441406 301.421875 C 377.484375 301.617188 377.558594 301.796875 377.660156 301.953125 C 377.761719 302.113281 377.882812 302.242188 378.027344 302.34375 C 378.171875 302.445312 378.351562 302.496094 378.570312 302.496094 C 378.714844 302.496094 378.878906 302.445312 379.058594 302.34375 C 379.238281 302.242188 379.378906 302.085938 379.480469 301.867188 C 379.523438 301.78125 379.554688 301.671875 379.578125 301.542969 C 379.597656 301.410156 379.617188 301.273438 379.632812 301.128906 L 380.023438 301.128906 "/>
<path style=" stroke:none;fill-rule:nonzero;fill:rgb(0%,0%,0%);fill-opacity:1;" d="M 378.722656 325.152344 L 377.898438 327.449219 L 370.851562 327.449219 L 370.851562 327.125 C 372.917969 325.230469 374.375 323.683594 375.21875 322.484375 C 376.066406 321.285156 376.488281 320.191406 376.488281 319.210938 C 376.488281 318.445312 376.257812 317.820312 375.796875 317.335938 C 375.332031 316.851562 374.777344 316.609375 374.125 316.609375 C 373.546875 316.609375 373.023438 316.777344 372.554688 317.117188 C 372.085938 317.460938 371.738281 317.960938 371.523438 318.625 L 371.199219 318.625 C 371.34375 317.542969 371.71875 316.710938 372.324219 316.132812 C 372.933594 315.554688 373.691406 315.265625 374.601562 315.265625 C 375.570312 315.265625 376.378906 315.574219 377.03125 316.195312 C 377.683594 316.820312 378.007812 317.550781 378.007812 318.386719 C 378.007812 318.996094 377.863281 319.601562 377.574219 320.210938 C 377.140625 321.160156 376.4375 322.164062 375.46875 323.222656 C 374.011719 324.824219 373.09375 325.796875 372.71875 326.125 L 375.839844 326.125 C 376.476562 326.125 376.917969 326.101562 377.171875 326.050781 C 377.425781 326 377.65625 325.902344 377.863281 325.757812 C 378.074219 325.613281 378.253906 325.410156 378.394531 325.152344 L 378.722656 325.152344 "/>
<path style="fill:none;stroke-width:13.875;stroke-linecap:square;stroke-linejoin:miter;stroke:rgb(0%,0%,0%);stroke-opacity:1;stroke-miterlimit:10;" d="M 3683.828125 2448.945312 L 3836.445312 2448.945312 " transform="matrix(0.1,0,0,-0.1,0,555)"/>
<path style="fill:none;stroke-width:1.2;stroke-linecap:butt;stroke-linejoin:round;stroke:rgb(0%,0%,0%);stroke-opacity:1;stroke-miterlimit:10;" d="M 4529.84375 2778.359375 L 4529.84375 2722.851562 " transform="matrix(0.1,0,0,-0.1,0,555)"/>
<path style=" stroke:none;fill-rule:nonzero;fill:rgb(0%,0%,0%);fill-opacity:1;" d="M 449.050781 291.914062 L 448.355469 293.410156 L 444.78125 293.410156 L 444 295.015625 C 445.546875 295.246094 446.773438 295.824219 447.683594 296.753906 C 448.464844 297.546875 448.855469 298.484375 448.855469 299.570312 C 448.855469 300.203125 448.730469 300.789062 448.476562 301.324219 C 448.222656 301.859375 447.902344 302.316406 447.511719 302.691406 C 447.121094 303.066406 446.6875 303.363281 446.210938 303.578125 C 445.546875 303.910156 444.851562 304.078125 444.128906 304.078125 C 443.421875 304.078125 442.902344 303.953125 442.578125 303.710938 C 442.253906 303.464844 442.09375 303.195312 442.09375 302.90625 C 442.09375 302.734375 442.160156 302.585938 442.296875 302.464844 C 442.433594 302.339844 442.605469 302.277344 442.808594 302.277344 C 442.949219 302.277344 443.082031 302.300781 443.195312 302.34375 C 443.3125 302.386719 443.507812 302.511719 443.78125 302.710938 C 444.230469 303.015625 444.679688 303.167969 445.128906 303.167969 C 445.820312 303.167969 446.425781 302.90625 446.9375 302.386719 C 447.449219 301.867188 447.707031 301.230469 447.707031 300.480469 C 447.707031 299.757812 447.476562 299.085938 447.011719 298.464844 C 446.550781 297.84375 445.914062 297.359375 445.105469 297.011719 C 444.453125 296.753906 443.578125 296.597656 442.480469 296.554688 L 444.78125 291.914062 L 449.050781 291.914062 "/>
<path style=" stroke:none;fill-rule:nonzero;fill:rgb(0%,0%,0%);fill-opacity:1;" d="M 463.273438 301.128906 C 463.273438 301.476562 463.226562 301.832031 463.132812 302.191406 C 463.039062 302.554688 462.898438 302.878906 462.71875 303.167969 C 462.539062 303.457031 462.3125 303.691406 462.039062 303.871094 C 461.761719 304.054688 461.453125 304.144531 461.105469 304.144531 C 460.773438 304.144531 460.46875 304 460.191406 303.710938 C 459.921875 303.421875 459.695312 302.988281 459.523438 302.410156 C 459.492188 302.335938 459.472656 302.230469 459.457031 302.09375 C 459.441406 301.957031 459.429688 301.816406 459.414062 301.671875 C 459.398438 301.527344 459.390625 301.386719 459.378906 301.25 C 459.371094 301.113281 459.371094 301 459.371094 300.914062 C 459.371094 300.21875 459.421875 299.511719 459.523438 298.789062 C 459.621094 298.066406 459.703125 297.34375 459.761719 296.621094 L 457.722656 296.621094 C 457.59375 297.980469 457.46875 299.121094 457.355469 300.046875 C 457.238281 300.972656 457.117188 301.796875 456.984375 302.519531 C 456.941406 302.722656 456.902344 302.902344 456.867188 303.070312 C 456.828125 303.238281 456.78125 303.378906 456.726562 303.492188 C 456.597656 303.769531 456.433594 303.953125 456.238281 304.058594 C 456.042969 304.15625 455.867188 304.210938 455.707031 304.210938 C 455.417969 304.210938 455.183594 304.109375 455.003906 303.90625 C 454.820312 303.703125 454.730469 303.492188 454.730469 303.277344 C 454.730469 303.015625 454.800781 302.804688 454.9375 302.636719 C 455.074219 302.472656 455.222656 302.285156 455.382812 302.085938 C 455.539062 301.894531 455.6875 301.703125 455.824219 301.507812 C 455.964844 301.316406 456.054688 301.066406 456.097656 300.761719 L 456.617188 296.621094 L 455.769531 296.621094 C 455.585938 296.621094 455.371094 296.671875 455.144531 296.773438 C 454.910156 296.875 454.71875 297.03125 454.558594 297.25 L 454.1875 297.769531 L 453.886719 297.769531 C 454.160156 296.933594 454.496094 296.273438 454.894531 295.796875 C 455.289062 295.320312 455.808594 295.082031 456.441406 295.082031 L 463.121094 295.082031 L 463.121094 296.621094 L 460.84375 296.621094 C 460.816406 296.96875 460.789062 297.335938 460.757812 297.726562 C 460.730469 298.117188 460.703125 298.5 460.683594 298.875 C 460.660156 299.253906 460.644531 299.609375 460.640625 299.949219 C 460.632812 300.289062 460.628906 300.574219 460.628906 300.804688 C 460.628906 301.023438 460.648438 301.226562 460.691406 301.421875 C 460.734375 301.617188 460.808594 301.796875 460.910156 301.953125 C 461.011719 302.113281 461.132812 302.242188 461.277344 302.34375 C 461.421875 302.445312 461.601562 302.496094 461.820312 302.496094 C 461.964844 302.496094 462.128906 302.445312 462.308594 302.34375 C 462.488281 302.242188 462.628906 302.085938 462.730469 301.867188 C 462.773438 301.78125 462.804688 301.671875 462.828125 301.542969 C 462.847656 301.410156 462.867188 301.273438 462.882812 301.128906 L 463.273438 301.128906 "/>
<path style=" stroke:none;fill-rule:nonzero;fill:rgb(0%,0%,0%);fill-opacity:1;" d="M 451.632812 321.441406 C 450.675781 320.664062 450.0625 320.039062 449.785156 319.570312 C 449.515625 319.097656 449.378906 318.613281 449.378906 318.105469 C 449.378906 317.324219 449.675781 316.65625 450.277344 316.101562 C 450.875 315.542969 451.675781 315.265625 452.671875 315.265625 C 453.640625 315.265625 454.414062 315.527344 455.003906 316.046875 C 455.585938 316.566406 455.878906 317.160156 455.878906 317.824219 C 455.878906 318.269531 455.71875 318.726562 455.402344 319.1875 C 455.085938 319.652344 454.425781 320.203125 453.429688 320.835938 C 454.457031 321.632812 455.136719 322.261719 455.46875 322.722656 C 455.914062 323.316406 456.140625 323.945312 456.140625 324.609375 C 456.140625 325.449219 455.820312 326.164062 455.1875 326.765625 C 454.550781 327.367188 453.714844 327.664062 452.671875 327.664062 C 451.53125 327.664062 450.640625 327.3125 450.003906 326.605469 C 449.5 326.027344 449.246094 325.394531 449.246094 324.71875 C 449.246094 324.199219 449.425781 323.675781 449.785156 323.15625 C 450.148438 322.636719 450.765625 322.066406 451.632812 321.441406 Z M 452.996094 320.488281 C 453.703125 319.855469 454.152344 319.351562 454.339844 318.984375 C 454.527344 318.613281 454.621094 318.199219 454.621094 317.738281 C 454.621094 317.128906 454.449219 316.648438 454.101562 316.296875 C 453.753906 315.941406 453.285156 315.765625 452.691406 315.765625 C 452.085938 315.765625 451.59375 315.9375 451.21875 316.285156 C 450.84375 316.632812 450.652344 317.035156 450.652344 317.5 C 450.652344 317.800781 450.734375 318.109375 450.894531 318.421875 C 451.054688 318.730469 451.277344 319.023438 451.566406 319.296875 Z M 452.042969 321.769531 C 451.550781 322.171875 451.191406 322.617188 450.957031 323.101562 C 450.726562 323.585938 450.609375 324.109375 450.609375 324.675781 C 450.609375 325.441406 450.816406 326.050781 451.230469 326.507812 C 451.640625 326.960938 452.164062 327.1875 452.800781 327.1875 C 453.4375 327.1875 453.945312 327.007812 454.328125 326.644531 C 454.714844 326.285156 454.902344 325.851562 454.902344 325.347656 C 454.902344 324.925781 454.789062 324.546875 454.558594 324.199219 C 454.152344 323.574219 453.3125 322.765625 452.042969 321.769531 "/>
<path style="fill:none;stroke-width:13.875;stroke-linecap:square;stroke-linejoin:miter;stroke:rgb(0%,0%,0%);stroke-opacity:1;stroke-miterlimit:10;" d="M 4391.445312 2448.945312 L 4668.945312 2448.945312 " transform="matrix(0.1,0,0,-0.1,0,555)"/>
<path style="fill:none;stroke-width:1.2;stroke-linecap:butt;stroke-linejoin:round;stroke:rgb(0%,0%,0%);stroke-opacity:1;stroke-miterlimit:10;" d="M 5299.84375 2778.359375 L 5299.84375 2722.851562 " transform="matrix(0.1,0,0,-0.1,0,555)"/>
<path style=" stroke:none;fill-rule:nonzero;fill:rgb(0%,0%,0%);fill-opacity:1;" d="M 518.449219 294.191406 C 518.796875 293.382812 519.226562 292.761719 519.746094 292.328125 C 520.269531 291.894531 520.910156 291.675781 521.679688 291.675781 C 522.644531 291.675781 523.382812 291.988281 523.890625 292.609375 C 524.277344 293.074219 524.476562 293.5625 524.476562 294.085938 C 524.476562 294.964844 523.925781 295.867188 522.828125 296.796875 C 523.5625 297.082031 524.121094 297.496094 524.496094 298.027344 C 524.871094 298.566406 525.058594 299.191406 525.058594 299.914062 C 525.058594 300.941406 524.726562 301.832031 524.0625 302.582031 C 523.210938 303.578125 521.972656 304.078125 520.355469 304.078125 C 519.546875 304.078125 518.996094 303.976562 518.707031 303.773438 C 518.417969 303.574219 518.273438 303.355469 518.273438 303.125 C 518.273438 302.949219 518.34375 302.804688 518.480469 302.679688 C 518.617188 302.558594 518.777344 302.496094 518.96875 302.496094 C 519.113281 302.496094 519.265625 302.519531 519.421875 302.5625 C 519.523438 302.589844 519.753906 302.695312 520.105469 302.875 C 520.460938 303.054688 520.703125 303.167969 520.832031 303.210938 C 521.050781 303.269531 521.28125 303.296875 521.527344 303.296875 C 522.117188 303.296875 522.640625 303.066406 523.089844 302.605469 C 523.535156 302.140625 523.757812 301.59375 523.757812 300.957031 C 523.757812 300.492188 523.65625 300.046875 523.453125 299.613281 C 523.296875 299.28125 523.121094 299.027344 522.933594 298.855469 C 522.6875 298.621094 522.347656 298.410156 521.90625 298.226562 C 521.464844 298.039062 521.011719 297.941406 520.550781 297.941406 L 520.269531 297.941406 L 520.269531 297.660156 C 520.730469 297.605469 521.199219 297.4375 521.667969 297.160156 C 522.136719 296.890625 522.476562 296.558594 522.683594 296.175781 C 522.894531 295.792969 523 295.363281 523 294.886719 C 523 294.292969 522.8125 293.808594 522.4375 293.433594 C 522.0625 293.058594 521.589844 292.871094 521.027344 292.871094 C 520.117188 292.871094 519.359375 293.355469 518.753906 294.324219 L 518.449219 294.191406 "/>
<path style=" stroke:none;fill-rule:nonzero;fill:rgb(0%,0%,0%);fill-opacity:1;" d="M 539.585938 301.128906 C 539.585938 301.476562 539.539062 301.832031 539.445312 302.191406 C 539.351562 302.554688 539.214844 302.878906 539.03125 303.167969 C 538.851562 303.457031 538.621094 303.691406 538.351562 303.871094 C 538.074219 304.054688 537.765625 304.144531 537.417969 304.144531 C 537.085938 304.144531 536.78125 304 536.507812 303.710938 C 536.234375 303.421875 536.007812 302.988281 535.835938 302.410156 C 535.804688 302.335938 535.785156 302.230469 535.769531 302.09375 C 535.753906 301.957031 535.738281 301.816406 535.726562 301.671875 C 535.714844 301.527344 535.699219 301.386719 535.691406 301.25 C 535.6875 301.113281 535.683594 301 535.683594 300.914062 C 535.683594 300.21875 535.734375 299.511719 535.835938 298.789062 C 535.9375 298.066406 536.015625 297.34375 536.074219 296.621094 L 534.035156 296.621094 C 533.902344 297.980469 533.78125 299.121094 533.667969 300.046875 C 533.550781 300.972656 533.429688 301.796875 533.296875 302.519531 C 533.253906 302.722656 533.214844 302.902344 533.179688 303.070312 C 533.144531 303.238281 533.097656 303.378906 533.035156 303.492188 C 532.90625 303.769531 532.746094 303.953125 532.550781 304.058594 C 532.355469 304.15625 532.179688 304.210938 532.019531 304.210938 C 531.730469 304.210938 531.496094 304.109375 531.3125 303.90625 C 531.132812 303.703125 531.042969 303.492188 531.042969 303.277344 C 531.042969 303.015625 531.109375 302.804688 531.25 302.636719 C 531.386719 302.472656 531.535156 302.285156 531.695312 302.085938 C 531.851562 301.894531 532 301.703125 532.136719 301.507812 C 532.273438 301.316406 532.367188 301.066406 532.410156 300.761719 L 532.929688 296.621094 L 532.085938 296.621094 C 531.898438 296.621094 531.6875 296.671875 531.453125 296.773438 C 531.222656 296.875 531.03125 297.03125 530.871094 297.25 L 530.5 297.769531 L 530.199219 297.769531 C 530.472656 296.933594 530.808594 296.273438 531.207031 295.796875 C 531.605469 295.320312 532.121094 295.082031 532.753906 295.082031 L 539.433594 295.082031 L 539.433594 296.621094 L 537.15625 296.621094 C 537.128906 296.96875 537.101562 297.335938 537.070312 297.726562 C 537.042969 298.117188 537.015625 298.5 536.996094 298.875 C 536.972656 299.253906 536.957031 299.609375 536.953125 299.949219 C 536.945312 300.289062 536.941406 300.574219 536.941406 300.804688 C 536.941406 301.023438 536.964844 301.226562 537.003906 301.421875 C 537.046875 301.617188 537.121094 301.796875 537.222656 301.953125 C 537.324219 302.113281 537.445312 302.242188 537.589844 302.34375 C 537.734375 302.445312 537.914062 302.496094 538.132812 302.496094 C 538.277344 302.496094 538.441406 302.445312 538.621094 302.34375 C 538.800781 302.242188 538.941406 302.085938 539.042969 301.867188 C 539.085938 301.78125 539.117188 301.671875 539.140625 301.542969 C 539.160156 301.410156 539.179688 301.273438 539.195312 301.128906 L 539.585938 301.128906 "/>
<path style=" stroke:none;fill-rule:nonzero;fill:rgb(0%,0%,0%);fill-opacity:1;" d="M 532.863281 323.050781 L 532.863281 324.304688 L 531.261719 324.304688 L 531.261719 327.449219 L 529.808594 327.449219 L 529.808594 324.304688 L 524.757812 324.304688 L 524.757812 323.179688 L 530.308594 315.265625 L 531.261719 315.265625 L 531.261719 323.050781 Z M 529.808594 323.050781 L 529.808594 317.105469 L 525.625 323.050781 L 529.808594 323.050781 "/>
<path style="fill:none;stroke-width:13.875;stroke-linecap:square;stroke-linejoin:miter;stroke:rgb(0%,0%,0%);stroke-opacity:1;stroke-miterlimit:10;" d="M 5154.570312 2448.945312 L 5432.070312 2448.945312 " transform="matrix(0.1,0,0,-0.1,0,555)"/>
<path style="fill:none;stroke-width:1.2;stroke-linecap:butt;stroke-linejoin:round;stroke:rgb(0%,0%,0%);stroke-opacity:1;stroke-miterlimit:10;" d="M 1064.882812 2778.359375 L 1064.882812 2750.625 " transform="matrix(0.1,0,0,-0.1,0,555)"/>
<path style="fill:none;stroke-width:1.2;stroke-linecap:butt;stroke-linejoin:round;stroke:rgb(0%,0%,0%);stroke-opacity:1;stroke-miterlimit:10;" d="M 1834.84375 2778.359375 L 1834.84375 2750.625 " transform="matrix(0.1,0,0,-0.1,0,555)"/>
<path style="fill:none;stroke-width:1.2;stroke-linecap:butt;stroke-linejoin:round;stroke:rgb(0%,0%,0%);stroke-opacity:1;stroke-miterlimit:10;" d="M 2604.84375 2778.359375 L 2604.84375 2750.625 " transform="matrix(0.1,0,0,-0.1,0,555)"/>
<path style="fill:none;stroke-width:1.2;stroke-linecap:butt;stroke-linejoin:round;stroke:rgb(0%,0%,0%);stroke-opacity:1;stroke-miterlimit:10;" d="M 3374.84375 2778.359375 L 3374.84375 2750.625 " transform="matrix(0.1,0,0,-0.1,0,555)"/>
<path style="fill:none;stroke-width:1.2;stroke-linecap:butt;stroke-linejoin:round;stroke:rgb(0%,0%,0%);stroke-opacity:1;stroke-miterlimit:10;" d="M 4144.84375 2778.359375 L 4144.84375 2750.625 " transform="matrix(0.1,0,0,-0.1,0,555)"/>
<path style="fill:none;stroke-width:1.2;stroke-linecap:butt;stroke-linejoin:round;stroke:rgb(0%,0%,0%);stroke-opacity:1;stroke-miterlimit:10;" d="M 4914.84375 2778.359375 L 4914.84375 2750.625 " transform="matrix(0.1,0,0,-0.1,0,555)"/>
<path style="fill:none;stroke-width:13.875;stroke-linecap:butt;stroke-linejoin:round;stroke:rgb(0%,0%,0%);stroke-opacity:1;stroke-miterlimit:10;" d="M 679.882812 187.304688 L 679.882812 5369.414062 " transform="matrix(0.1,0,0,-0.1,0,555)"/>
<path style="fill:none;stroke-width:1.2;stroke-linecap:butt;stroke-linejoin:round;stroke:rgb(0%,0%,0%);stroke-opacity:1;stroke-miterlimit:10;" d="M 679.882812 187.304688 L 624.375 187.304688 " transform="matrix(0.1,0,0,-0.1,0,555)"/>
<g clip-path="url(#clip8)" clip-rule="nonzero">
<path style=" stroke:none;fill-rule:nonzero;fill:rgb(0%,0%,0%);fill-opacity:1;" d="M 41.90625 537.570312 L 53.832031 537.570312 L 53.832031 536.636719 L 41.90625 536.636719 Z M 41.90625 537.570312 "/>
</g>
<path style=" stroke:none;fill-rule:nonzero;fill:rgb(0%,0%,0%);fill-opacity:1;" d="M 52.074219 531.738281 L 54.980469 530.328125 L 55.261719 530.328125 L 55.261719 540.410156 C 55.261719 541.074219 55.289062 541.488281 55.347656 541.65625 C 55.40625 541.820312 55.523438 541.949219 55.695312 542.035156 C 55.867188 542.121094 56.222656 542.171875 56.757812 542.1875 L 56.757812 542.511719 L 52.269531 542.511719 L 52.269531 542.1875 C 52.832031 542.171875 53.199219 542.121094 53.363281 542.035156 C 53.53125 541.949219 53.648438 541.832031 53.710938 541.6875 C 53.777344 541.542969 53.808594 541.117188 53.808594 540.410156 L 53.808594 533.96875 C 53.808594 533.089844 53.78125 532.527344 53.722656 532.28125 C 53.679688 532.089844 53.601562 531.953125 53.496094 531.867188 C 53.386719 531.78125 53.253906 531.738281 53.09375 531.738281 C 52.875 531.738281 52.582031 531.832031 52.203125 532.019531 L 52.074219 531.738281 "/>
<path style="fill:none;stroke-width:1.2;stroke-linecap:butt;stroke-linejoin:round;stroke:rgb(0%,0%,0%);stroke-opacity:1;stroke-miterlimit:10;" d="M 679.882812 1482.851562 L 624.375 1482.851562 " transform="matrix(0.1,0,0,-0.1,0,555)"/>
<g clip-path="url(#clip9)" clip-rule="nonzero">
<path style=" stroke:none;fill-rule:nonzero;fill:rgb(0%,0%,0%);fill-opacity:1;" d="M 28.03125 408.53125 L 39.957031 408.53125 L 39.957031 407.597656 L 28.03125 407.597656 Z M 28.03125 408.53125 "/>
</g>
<path style=" stroke:none;fill-rule:nonzero;fill:rgb(0%,0%,0%);fill-opacity:1;" d="M 36.726562 407.578125 C 36.726562 406.21875 36.929688 405.046875 37.34375 404.054688 C 37.753906 403.0625 38.300781 402.328125 38.980469 401.855469 C 39.515625 401.480469 40.0625 401.289062 40.628906 401.289062 C 41.539062 401.289062 42.355469 401.753906 43.078125 402.675781 C 43.988281 403.835938 44.445312 405.402344 44.445312 407.382812 C 44.445312 408.769531 44.246094 409.949219 43.847656 410.914062 C 43.449219 411.886719 42.941406 412.589844 42.320312 413.03125 C 41.699219 413.472656 41.105469 413.691406 40.539062 413.691406 C 39.398438 413.691406 38.445312 413.019531 37.679688 411.675781 C 37.042969 410.535156 36.726562 409.167969 36.726562 407.578125 Z M 38.460938 407.796875 C 38.460938 409.441406 38.660156 410.785156 39.066406 411.828125 C 39.398438 412.695312 39.898438 413.128906 40.5625 413.128906 C 40.878906 413.128906 41.210938 412.988281 41.550781 412.703125 C 41.890625 412.421875 42.144531 411.941406 42.320312 411.261719 C 42.59375 410.265625 42.730469 408.84375 42.730469 406.992188 C 42.730469 405.632812 42.585938 404.5 42.296875 403.589844 C 42.09375 402.910156 41.820312 402.433594 41.472656 402.15625 C 41.242188 401.96875 40.953125 401.875 40.605469 401.875 C 40.214844 401.875 39.863281 402.050781 39.542969 402.394531 C 39.125 402.886719 38.839844 403.65625 38.6875 404.703125 C 38.535156 405.753906 38.460938 406.78125 38.460938 407.796875 Z M 47.347656 411.761719 C 47.621094 411.761719 47.855469 411.859375 48.042969 412.054688 C 48.230469 412.25 48.324219 412.476562 48.324219 412.738281 C 48.324219 413.011719 48.230469 413.242188 48.042969 413.429688 C 47.855469 413.617188 47.621094 413.710938 47.347656 413.710938 C 47.074219 413.710938 46.84375 413.617188 46.65625 413.429688 C 46.46875 413.242188 46.371094 413.011719 46.371094 412.738281 C 46.371094 412.460938 46.46875 412.230469 46.65625 412.042969 C 46.84375 411.855469 47.074219 411.761719 47.347656 411.761719 Z M 57.429688 401.527344 L 56.734375 403.023438 L 53.160156 403.023438 L 52.378906 404.628906 C 53.925781 404.859375 55.152344 405.4375 56.0625 406.363281 C 56.84375 407.15625 57.234375 408.097656 57.234375 409.183594 C 57.234375 409.816406 57.109375 410.402344 56.855469 410.9375 C 56.601562 411.472656 56.28125 411.929688 55.890625 412.304688 C 55.5 412.679688 55.066406 412.976562 54.589844 413.191406 C 53.925781 413.523438 53.230469 413.691406 52.507812 413.691406 C 51.800781 413.691406 51.28125 413.566406 50.957031 413.320312 C 50.632812 413.078125 50.46875 412.808594 50.46875 412.519531 C 50.46875 412.347656 50.539062 412.199219 50.675781 412.078125 C 50.8125 411.953125 50.984375 411.890625 51.183594 411.890625 C 51.332031 411.890625 51.460938 411.914062 51.574219 411.957031 C 51.691406 412 51.886719 412.121094 52.160156 412.324219 C 52.609375 412.628906 53.058594 412.78125 53.503906 412.78125 C 54.199219 412.78125 54.800781 412.519531 55.316406 412 C 55.828125 411.480469 56.085938 410.84375 56.085938 410.09375 C 56.085938 409.371094 55.855469 408.699219 55.390625 408.074219 C 54.929688 407.453125 54.292969 406.96875 53.484375 406.621094 C 52.832031 406.363281 51.960938 406.210938 50.859375 406.167969 L 53.160156 401.527344 L 57.429688 401.527344 "/>
<path style="fill:none;stroke-width:1.2;stroke-linecap:butt;stroke-linejoin:round;stroke:rgb(0%,0%,0%);stroke-opacity:1;stroke-miterlimit:10;" d="M 679.882812 2778.359375 L 624.375 2778.359375 " transform="matrix(0.1,0,0,-0.1,0,555)"/>
<path style=" stroke:none;fill-rule:nonzero;fill:rgb(0%,0%,0%);fill-opacity:1;" d="M 50.601562 277.152344 C 50.601562 275.792969 50.804688 274.621094 51.21875 273.628906 C 51.628906 272.640625 52.175781 271.90625 52.855469 271.429688 C 53.390625 271.054688 53.9375 270.863281 54.503906 270.863281 C 55.414062 270.863281 56.230469 271.328125 56.953125 272.253906 C 57.863281 273.410156 58.320312 274.976562 58.320312 276.957031 C 58.320312 278.34375 58.121094 279.523438 57.722656 280.492188 C 57.324219 281.460938 56.816406 282.164062 56.195312 282.605469 C 55.574219 283.046875 54.980469 283.265625 54.414062 283.265625 C 53.273438 283.265625 52.320312 282.59375 51.554688 281.25 C 50.917969 280.109375 50.601562 278.742188 50.601562 277.152344 Z M 52.335938 277.371094 C 52.335938 279.015625 52.535156 280.359375 52.941406 281.402344 C 53.273438 282.269531 53.773438 282.703125 54.4375 282.703125 C 54.753906 282.703125 55.085938 282.5625 55.425781 282.28125 C 55.765625 281.996094 56.019531 281.515625 56.195312 280.839844 C 56.46875 279.839844 56.605469 278.417969 56.605469 276.566406 C 56.605469 275.210938 56.460938 274.074219 56.171875 273.164062 C 55.96875 272.484375 55.695312 272.007812 55.347656 271.730469 C 55.117188 271.546875 54.828125 271.449219 54.480469 271.449219 C 54.089844 271.449219 53.738281 271.625 53.417969 271.972656 C 53 272.460938 52.714844 273.230469 52.5625 274.28125 C 52.410156 275.328125 52.335938 276.359375 52.335938 277.371094 "/>
<path style="fill:none;stroke-width:1.2;stroke-linecap:butt;stroke-linejoin:round;stroke:rgb(0%,0%,0%);stroke-opacity:1;stroke-miterlimit:10;" d="M 679.882812 4073.90625 L 624.375 4073.90625 " transform="matrix(0.1,0,0,-0.1,0,555)"/>
<path style=" stroke:none;fill-rule:nonzero;fill:rgb(0%,0%,0%);fill-opacity:1;" d="M 36.726562 148.117188 C 36.726562 146.757812 36.929688 145.582031 37.34375 144.589844 C 37.753906 143.601562 38.300781 142.867188 38.980469 142.390625 C 39.515625 142.015625 40.0625 141.828125 40.628906 141.828125 C 41.539062 141.828125 42.355469 142.289062 43.078125 143.214844 C 43.988281 144.371094 44.445312 145.941406 44.445312 147.921875 C 44.445312 149.308594 44.246094 150.484375 43.847656 151.453125 C 43.449219 152.421875 42.941406 153.128906 42.320312 153.566406 C 41.699219 154.007812 41.105469 154.230469 40.539062 154.230469 C 39.398438 154.230469 38.445312 153.554688 37.679688 152.214844 C 37.042969 151.070312 36.726562 149.703125 36.726562 148.117188 Z M 38.460938 148.332031 C 38.460938 149.980469 38.660156 151.324219 39.066406 152.363281 C 39.398438 153.230469 39.898438 153.664062 40.5625 153.664062 C 40.878906 153.664062 41.210938 153.523438 41.550781 153.242188 C 41.890625 152.960938 42.144531 152.480469 42.320312 151.800781 C 42.59375 150.804688 42.730469 149.378906 42.730469 147.53125 C 42.730469 146.171875 42.585938 145.035156 42.296875 144.128906 C 42.09375 143.445312 41.820312 142.96875 41.472656 142.695312 C 41.242188 142.507812 40.953125 142.414062 40.605469 142.414062 C 40.214844 142.414062 39.863281 142.585938 39.542969 142.933594 C 39.125 143.425781 38.839844 144.195312 38.6875 145.242188 C 38.535156 146.289062 38.460938 147.320312 38.460938 148.332031 Z M 47.347656 152.300781 C 47.621094 152.300781 47.855469 152.394531 48.042969 152.59375 C 48.230469 152.785156 48.324219 153.015625 48.324219 153.273438 C 48.324219 153.550781 48.230469 153.78125 48.042969 153.96875 C 47.855469 154.15625 47.621094 154.25 47.347656 154.25 C 47.074219 154.25 46.84375 154.15625 46.65625 153.96875 C 46.46875 153.78125 46.371094 153.550781 46.371094 153.273438 C 46.371094 153 46.46875 152.769531 46.65625 152.578125 C 46.84375 152.394531 47.074219 152.300781 47.347656 152.300781 Z M 57.429688 142.066406 L 56.734375 143.5625 L 53.160156 143.5625 L 52.378906 145.167969 C 53.925781 145.398438 55.152344 145.976562 56.0625 146.902344 C 56.84375 147.695312 57.234375 148.636719 57.234375 149.71875 C 57.234375 150.355469 57.109375 150.941406 56.855469 151.476562 C 56.601562 152.011719 56.28125 152.464844 55.890625 152.839844 C 55.5 153.21875 55.066406 153.511719 54.589844 153.730469 C 53.925781 154.0625 53.230469 154.230469 52.507812 154.230469 C 51.800781 154.230469 51.28125 154.105469 50.957031 153.859375 C 50.632812 153.613281 50.46875 153.347656 50.46875 153.058594 C 50.46875 152.882812 50.539062 152.734375 50.675781 152.613281 C 50.8125 152.488281 50.984375 152.429688 51.183594 152.429688 C 51.332031 152.429688 51.460938 152.453125 51.574219 152.496094 C 51.691406 152.535156 51.886719 152.660156 52.160156 152.863281 C 52.609375 153.164062 53.058594 153.320312 53.503906 153.320312 C 54.199219 153.320312 54.800781 153.058594 55.316406 152.535156 C 55.828125 152.015625 56.085938 151.382812 56.085938 150.628906 C 56.085938 149.90625 55.855469 149.234375 55.390625 148.613281 C 54.929688 147.992188 54.292969 147.507812 53.484375 147.160156 C 52.832031 146.902344 51.960938 146.75 50.859375 146.707031 L 53.160156 142.066406 L 57.429688 142.066406 "/>
<path style="fill:none;stroke-width:1.2;stroke-linecap:butt;stroke-linejoin:round;stroke:rgb(0%,0%,0%);stroke-opacity:1;stroke-miterlimit:10;" d="M 679.882812 5369.414062 L 624.375 5369.414062 " transform="matrix(0.1,0,0,-0.1,0,555)"/>
<path style=" stroke:none;fill-rule:nonzero;fill:rgb(0%,0%,0%);fill-opacity:1;" d="M 52.074219 14.199219 L 54.980469 12.789062 L 55.261719 12.789062 L 55.261719 22.871094 C 55.261719 23.535156 55.289062 23.953125 55.347656 24.117188 C 55.40625 24.285156 55.523438 24.410156 55.695312 24.496094 C 55.867188 24.585938 56.222656 24.636719 56.757812 24.648438 L 56.757812 24.976562 L 52.269531 24.976562 L 52.269531 24.648438 C 52.832031 24.636719 53.199219 24.585938 53.363281 24.496094 C 53.53125 24.410156 53.648438 24.296875 53.710938 24.152344 C 53.777344 24.007812 53.808594 23.578125 53.808594 22.871094 L 53.808594 16.433594 C 53.808594 15.550781 53.78125 14.988281 53.722656 14.742188 C 53.679688 14.554688 53.601562 14.417969 53.496094 14.328125 C 53.386719 14.242188 53.253906 14.199219 53.09375 14.199219 C 52.875 14.199219 52.582031 14.292969 52.203125 14.480469 L 52.074219 14.199219 "/>
</g>
</svg>
