<?xml version="1.0" encoding="UTF-8"?>
<svg xmlns="http://www.w3.org/2000/svg" xmlns:xlink="http://www.w3.org/1999/xlink" width="555pt" height="555pt" viewBox="0 0 555 555" version="1.1">
<defs>
<clipPath id="clip1">
  <path d="M 70 133 L 87 133 L 87 151.238281 L 70 151.238281 Z M 70 133 "/>
</clipPath>
<clipPath id="clip2">
  <path d="M 105 133 L 121 133 L 121 151.238281 L 105 151.238281 Z M 105 133 "/>
</clipPath>
<clipPath id="clip3">
  <path d="M 128 138 L 144.300781 138 L 144.300781 141 L 128 141 Z M 128 138 "/>
</clipPath>
<clipPath id="clip4">
  <path d="M 95 127 L 101 127 L 101 151.238281 L 95 151.238281 Z M 95 127 "/>
</clipPath>
<clipPath id="clip5">
  <path d="M 169 127 L 175 127 L 175 151.238281 L 169 151.238281 Z M 169 127 "/>
</clipPath>
<clipPath id="clip6">
  <path d="M 335 322 L 344.101562 322 L 344.101562 324 L 335 324 Z M 335 322 "/>
</clipPath>
<clipPath id="clip7">
  <path d="M 360 316 L 377 316 L 377 334.386719 L 360 334.386719 Z M 360 316 "/>
</clipPath>
<clipPath id="clip8">
  <path d="M 384 322 L 399.601562 322 L 399.601562 324 L 384 324 Z M 384 322 "/>
</clipPath>
<clipPath id="clip9">
  <path d="M 351 310 L 357 310 L 357 334.386719 L 351 334.386719 Z M 351 310 "/>
</clipPath>
<clipPath id="clip10">
  <path d="M 424 310 L 430 310 L 430 334.386719 L 424 334.386719 Z M 424 310 "/>
</clipPath>
<clipPath id="clip11">
  <path d="M 455 316 L 471 316 L 471 334.386719 L 455 334.386719 Z M 455 316 "/>
</clipPath>
<clipPath id="clip12">
  <path d="M 478 322 L 493.949219 322 L 493.949219 324 L 478 324 Z M 478 322 "/>
</clipPath>
<clipPath id="clip13">
  <path d="M 445 310 L 451 310 L 451 334.386719 L 445 334.386719 Z M 445 310 "/>
</clipPath>
<clipPath id="clip14">
  <path d="M 518 310 L 525 310 L 525 334.386719 L 518 334.386719 Z M 518 310 "/>
</clipPath>
<clipPath id="clip15">
  <path d="M 11 515 L 16.648438 515 L 16.648438 517 L 11 517 Z M 11 515 "/>
</clipPath>
<clipPath id="clip16">
  <path d="M 134 515 L 140.136719 515 L 140.136719 517 L 134 517 Z M 134 515 "/>
</clipPath>
<clipPath id="clip17">
  <path d="M 228 255 L 239 255 L 239 267.785156 L 228 267.785156 Z M 228 255 "/>
</clipPath>
</defs>
<g id="surface1">
<rect x="0" y="0" width="555" height="555" style="fill:rgb(100%,100%,100%);fill-opacity:1;stroke:none;"/>
<path style="fill:none;stroke-width:27.75;stroke-linecap:butt;stroke-linejoin:round;stroke:rgb(100%,0%,0%);stroke-opacity:1;stroke-miterlimit:10;" d="M 5425.039062 5204.335938 L 5402.382812 5198.632812 L 5320.15625 5177.929688 L 5239.21875 5156.054688 L 5215.234375 5149.570312 L 5077.382812 5112.265625 L 5005.46875 5092.8125 L 4915.585938 5068.515625 L 4795.703125 5036.09375 L 4753.710938 5024.765625 L 4612.109375 4986.445312 L 4592.265625 4980.664062 L 4585.898438 4978.789062 L 4433.320312 4934.257812 L 4376.09375 4917.539062 L 4274.414062 4887.8125 L 4166.328125 4856.25 L 4115.46875 4841.40625 L 3956.523438 4795 L 3800.898438 4745.585938 L 3746.757812 4728.398438 L 3645.234375 4696.171875 L 3536.953125 4661.796875 L 3489.609375 4646.757812 L 3353.398438 4603.515625 L 3334.414062 4596.914062 L 3327.1875 4594.414062 L 3182.5 4544.101562 L 3117.382812 4521.484375 L 3030.585938 4491.289062 L 2907.617188 4448.515625 L 2878.671875 4438.476562 L 2802.695312 4412.070312 L 2728.90625 4383.710938 L 2697.8125 4371.757812 L 2581.25 4326.953125 L 2488.007812 4291.132812 L 2433.632812 4270.234375 L 2304.453125 4220.585938 L 2286.640625 4212.929688 L 2278.242188 4209.335938 L 2143.984375 4151.679688 L 2068.476562 4119.21875 L 2001.328125 4090.390625 L 1858.671875 4029.140625 L 1721.835938 3962.539062 L 1648.867188 3927.03125 L 1585.039062 3895.9375 L 1465.3125 3837.65625 L 1449.101562 3828.554688 L 1439.101562 3822.929688 L 1319.21875 3755.625 L 1229.296875 3705.117188 L 1189.335938 3682.695312 L 1124.414062 3646.210938 L 1063.671875 3605.898438 L 1019.53125 3576.601562 L 942.226562 3525.273438 L 835.976562 3454.726562 L 822.070312 3443.476562 L 809.726562 3433.476562 L 711.015625 3353.398438 L 599.960938 3263.28125 L 502.03125 3161.171875 L 416.367188 3071.796875 L 406.289062 3057.070312 L 390.15625 3033.515625 L 325.625 2939.257812 L 285.273438 2880.351562 L 256.640625 2810.703125 L 206.601562 2688.867188 L 203.671875 2667.617188 L 180.390625 2497.421875 L 206.601562 2305.9375 L 285.273438 2114.492188 L 416.367188 1923.007812 L 599.960938 1731.523438 L 835.976562 1540.078125 L 1124.414062 1348.632812 L 1465.3125 1157.148438 L 1858.671875 965.703125 L 2304.453125 774.21875 L 2802.695312 582.734375 " transform="matrix(0.1,0,0,-0.1,0,555)"/>
<path style="fill:none;stroke-width:27.75;stroke-linecap:butt;stroke-linejoin:round;stroke:rgb(0%,0%,100%);stroke-opacity:1;stroke-miterlimit:10;" d="M 180.390625 1705.15625 L 285.273438 1731.523438 L 993.320312 1923.007812 L 1648.867188 2114.492188 L 2251.992188 2305.9375 L 2802.695312 2497.421875 L 3300.9375 2688.867188 L 3746.757812 2880.351562 L 4140.117188 3071.796875 L 4481.015625 3263.28125 L 4769.453125 3454.726562 L 5005.46875 3646.210938 L 5189.023438 3837.65625 L 5320.15625 4029.140625 L 5398.828125 4220.585938 L 5425.039062 4412.070312 L 5398.828125 4603.515625 L 5383.085938 4641.835938 L 5320.15625 4795 L 5215.234375 4948.164062 L 5189.023438 4986.445312 L 5005.46875 5177.929688 L 4795.703125 5348.125 L 4769.453125 5369.375 " transform="matrix(0.1,0,0,-0.1,0,555)"/>
<path style="fill:none;stroke-width:13.875;stroke-linecap:square;stroke-linejoin:miter;stroke:rgb(0%,0%,0%);stroke-opacity:1;stroke-miterlimit:10;" d="M 5108.398438 5119.804688 C 5108.398438 5096.835938 5089.765625 5078.203125 5066.796875 5078.203125 C 5043.789062 5078.203125 5025.15625 5096.835938 5025.15625 5119.804688 C 5025.15625 5142.8125 5043.789062 5161.445312 5066.796875 5161.445312 C 5089.765625 5161.445312 5108.398438 5142.8125 5108.398438 5119.804688 Z M 5108.398438 5119.804688 " transform="matrix(0.1,0,0,-0.1,0,555)"/>
<path style=" stroke:none;fill-rule:nonzero;fill:rgb(0%,0%,0%);fill-opacity:1;" d="M 510.839844 43.019531 C 510.839844 45.316406 508.976562 47.179688 506.679688 47.179688 C 504.378906 47.179688 502.515625 45.316406 502.515625 43.019531 C 502.515625 40.71875 504.378906 38.855469 506.679688 38.855469 C 508.976562 38.855469 510.839844 40.71875 510.839844 43.019531 "/>
<path style="fill:none;stroke-width:13.875;stroke-linecap:square;stroke-linejoin:miter;stroke:rgb(0%,0%,0%);stroke-opacity:1;stroke-miterlimit:10;" d="M 566.40625 1803.554688 C 566.40625 1780.546875 547.773438 1761.914062 524.765625 1761.914062 C 501.757812 1761.914062 483.125 1780.546875 483.125 1803.554688 C 483.125 1826.523438 501.757812 1845.15625 524.765625 1845.15625 C 547.773438 1845.15625 566.40625 1826.523438 566.40625 1803.554688 Z M 566.40625 1803.554688 " transform="matrix(0.1,0,0,-0.1,0,555)"/>
<path style=" stroke:none;fill-rule:nonzero;fill:rgb(0%,0%,0%);fill-opacity:1;" d="M 56.640625 374.644531 C 56.640625 376.945312 54.777344 378.808594 52.476562 378.808594 C 50.175781 378.808594 48.3125 376.945312 48.3125 374.644531 C 48.3125 372.347656 50.175781 370.484375 52.476562 370.484375 C 54.777344 370.484375 56.640625 372.347656 56.640625 374.644531 "/>
<path style=" stroke:none;fill-rule:nonzero;fill:rgb(100%,0%,0%);fill-opacity:1;" d="M 31.457031 140.355469 L 29.960938 136.992188 L 29.355469 135.757812 C 29.136719 135.28125 28.957031 134.980469 28.8125 134.859375 C 28.667969 134.734375 28.402344 134.667969 28.011719 134.652344 L 27.273438 134.609375 L 27.054688 134.585938 L 27.1875 133.828125 L 31.152344 133.828125 L 33.582031 139.03125 L 34.125 138.578125 C 35.714844 137.289062 36.507812 136.222656 36.507812 135.367188 C 36.507812 134.921875 36.328125 134.40625 35.964844 133.828125 L 38.371094 133.828125 C 38.460938 134.117188 38.503906 134.371094 38.503906 134.585938 C 38.503906 135.28125 38.257812 135.914062 37.765625 136.484375 C 37.273438 137.054688 36.167969 137.992188 34.449219 139.292969 L 33.863281 139.726562 L 35.878906 143.929688 L 36.617188 145.273438 C 36.933594 145.898438 37.339844 146.230469 37.832031 146.269531 L 38.632812 146.316406 L 38.851562 146.316406 L 38.699219 147.074219 L 34.710938 147.074219 L 31.847656 141.046875 L 30.804688 141.980469 C 29.144531 143.46875 28.3125 144.753906 28.3125 145.839844 C 28.3125 146.269531 28.449219 146.683594 28.726562 147.074219 L 26.125 147.074219 C 26.09375 146.84375 26.082031 146.671875 26.082031 146.554688 C 26.082031 145.515625 26.839844 144.328125 28.355469 143 L 30.242188 141.394531 L 31.457031 140.355469 "/>
<path style=" stroke:none;fill-rule:nonzero;fill:rgb(100%,0%,0%);fill-opacity:1;" d="M 47.976562 142.71875 L 48.214844 141.503906 L 62.65625 141.503906 L 62.414062 142.71875 Z M 48.867188 138.1875 L 49.105469 136.992188 L 63.566406 136.992188 L 63.304688 138.1875 L 48.867188 138.1875 "/>
<g clip-path="url(#clip1)" clip-rule="nonzero">
<path style=" stroke:none;fill-rule:nonzero;fill:rgb(100%,0%,0%);fill-opacity:1;" d="M 70.699219 151.886719 C 72.199219 150.847656 74.078125 149.285156 76.335938 147.203125 L 76.789062 146.769531 C 76.703125 144.878906 76.464844 142.882812 76.074219 140.789062 C 75.683594 138.691406 75.277344 137.175781 74.859375 136.234375 C 74.5 135.46875 74.214844 135.019531 74.003906 134.878906 C 73.792969 134.742188 73.234375 134.652344 72.324219 134.609375 L 72.042969 134.585938 L 72.171875 133.828125 L 76.59375 133.828125 C 77.867188 136.820312 78.597656 140.316406 78.785156 144.320312 L 80.28125 142.414062 C 81.769531 140.519531 82.757812 139.136719 83.25 138.261719 C 83.742188 137.386719 83.988281 136.582031 83.988281 135.84375 C 83.988281 135.078125 83.660156 134.40625 83.011719 133.828125 L 86.023438 133.828125 C 86.214844 134.191406 86.304688 134.535156 86.304688 134.867188 C 86.304688 135.5625 86.078125 136.285156 85.625 137.035156 C 85.167969 137.789062 84.226562 139.023438 82.792969 140.746094 L 78.15625 146.269531 C 76.320312 148.484375 74.945312 150.355469 74.035156 151.886719 L 70.699219 151.886719 "/>
</g>
<g clip-path="url(#clip2)" clip-rule="nonzero">
<path style=" stroke:none;fill-rule:nonzero;fill:rgb(100%,0%,0%);fill-opacity:1;" d="M 105.386719 151.886719 C 106.886719 150.847656 108.765625 149.285156 111.019531 147.203125 L 111.476562 146.769531 C 111.390625 144.878906 111.152344 142.882812 110.761719 140.789062 C 110.371094 138.691406 109.964844 137.175781 109.546875 136.234375 C 109.1875 135.46875 108.898438 135.019531 108.691406 134.878906 C 108.480469 134.742188 107.921875 134.652344 107.011719 134.609375 L 106.730469 134.585938 L 106.859375 133.828125 L 111.28125 133.828125 C 112.554688 136.820312 113.285156 140.316406 113.472656 144.320312 L 114.96875 142.414062 C 116.457031 140.519531 117.445312 139.136719 117.9375 138.261719 C 118.429688 137.386719 118.675781 136.582031 118.675781 135.84375 C 118.675781 135.078125 118.347656 134.40625 117.699219 133.828125 L 120.714844 133.828125 C 120.898438 134.191406 120.992188 134.535156 120.992188 134.867188 C 120.992188 135.5625 120.765625 136.285156 120.3125 137.035156 C 119.855469 137.789062 118.914062 139.023438 117.480469 140.746094 L 112.84375 146.269531 C 111.007812 148.484375 109.632812 150.355469 108.722656 151.886719 L 105.386719 151.886719 "/>
</g>
<g clip-path="url(#clip3)" clip-rule="nonzero">
<path style=" stroke:none;fill-rule:nonzero;fill:rgb(100%,0%,0%);fill-opacity:1;" d="M 145.40625 140.222656 L 128.929688 140.222656 L 129.167969 138.921875 L 145.644531 138.921875 L 145.40625 140.222656 "/>
</g>
<path style=" stroke:none;fill-rule:nonzero;fill:rgb(100%,0%,0%);fill-opacity:1;" d="M 153.40625 147.074219 L 153.664062 145.730469 C 154.5625 143.894531 156.332031 141.945312 158.976562 139.878906 L 160.210938 138.921875 C 163.1875 136.597656 164.679688 134.484375 164.679688 132.59375 C 164.679688 130.425781 163.652344 129.339844 161.597656 129.339844 C 159.621094 129.339844 158.464844 129.976562 158.128906 131.25 L 157.871094 132.269531 L 157.804688 132.484375 L 156.613281 132.484375 L 157.15625 129.753906 C 158.789062 128.957031 160.492188 128.5625 162.273438 128.5625 C 163.816406 128.5625 165.03125 128.910156 165.914062 129.613281 C 166.796875 130.3125 167.238281 131.277344 167.238281 132.507812 C 167.238281 133.675781 166.898438 134.710938 166.21875 135.605469 C 165.539062 136.503906 164.332031 137.484375 162.597656 138.554688 L 160.710938 139.746094 C 157.792969 141.582031 156.332031 143.324219 156.332031 144.972656 L 164.722656 144.972656 L 164.15625 147.074219 L 153.40625 147.074219 "/>
<g clip-path="url(#clip4)" clip-rule="nonzero">
<path style=" stroke:none;fill-rule:nonzero;fill:rgb(100%,0%,0%);fill-opacity:1;" d="M 100.960938 150.636719 L 100.582031 151.238281 C 97.351562 149.230469 95.738281 145.222656 95.738281 139.207031 L 95.738281 139.679688 C 95.738281 133.644531 97.351562 129.632812 100.582031 127.648438 L 100.960938 128.21875 C 99.527344 129.445312 98.566406 131.164062 98.082031 133.378906 C 97.785156 134.753906 97.636719 136.695312 97.636719 139.207031 L 97.636719 139.679688 C 97.636719 142.171875 97.785156 144.101562 98.082031 145.476562 C 98.566406 147.691406 99.527344 149.410156 100.960938 150.636719 "/>
</g>
<g clip-path="url(#clip5)" clip-rule="nonzero">
<path style=" stroke:none;fill-rule:nonzero;fill:rgb(100%,0%,0%);fill-opacity:1;" d="M 169.273438 128.253906 L 169.65625 127.648438 C 172.882812 129.65625 174.5 133.664062 174.5 139.679688 L 174.5 139.207031 C 174.5 145.242188 172.882812 149.253906 169.65625 151.238281 L 169.273438 150.667969 C 170.710938 149.441406 171.671875 147.722656 172.15625 145.507812 C 172.453125 144.136719 172.601562 142.191406 172.601562 139.679688 L 172.601562 139.207031 C 172.601562 136.714844 172.453125 134.785156 172.15625 133.410156 C 171.671875 131.195312 170.710938 129.476562 169.273438 128.253906 "/>
</g>
<path style=" stroke:none;fill-rule:nonzero;fill:rgb(0%,0%,100%);fill-opacity:1;" d="M 290.917969 323.503906 L 289.421875 320.144531 L 288.816406 318.90625 C 288.601562 318.429688 288.417969 318.128906 288.273438 318.007812 C 288.128906 317.882812 287.863281 317.816406 287.472656 317.800781 L 286.734375 317.757812 L 286.519531 317.738281 L 286.648438 316.980469 L 290.617188 316.980469 L 293.042969 322.183594 L 293.585938 321.726562 C 295.175781 320.4375 295.96875 319.371094 295.96875 318.515625 C 295.96875 318.070312 295.789062 317.554688 295.429688 316.980469 L 297.835938 316.980469 C 297.921875 317.265625 297.964844 317.519531 297.964844 317.738281 C 297.964844 318.429688 297.71875 319.0625 297.226562 319.632812 C 296.734375 320.203125 295.628906 321.140625 293.910156 322.441406 L 293.324219 322.875 L 295.34375 327.082031 L 296.078125 328.425781 C 296.394531 329.046875 296.800781 329.378906 297.292969 329.421875 L 298.09375 329.464844 L 298.3125 329.464844 L 298.160156 330.226562 L 294.171875 330.226562 L 291.308594 324.199219 L 290.269531 325.128906 C 288.605469 326.617188 287.777344 327.90625 287.777344 328.988281 C 287.777344 329.421875 287.914062 329.835938 288.1875 330.226562 L 285.585938 330.226562 C 285.558594 329.992188 285.542969 329.820312 285.542969 329.703125 C 285.542969 328.664062 286.300781 327.476562 287.820312 326.148438 L 289.703125 324.546875 L 290.917969 323.503906 "/>
<path style=" stroke:none;fill-rule:nonzero;fill:rgb(0%,0%,100%);fill-opacity:1;" d="M 307.4375 325.867188 L 307.679688 324.652344 L 322.117188 324.652344 L 321.878906 325.867188 Z M 308.328125 321.335938 L 308.566406 320.144531 L 323.027344 320.144531 L 322.765625 321.335938 L 308.328125 321.335938 "/>
<g clip-path="url(#clip6)" clip-rule="nonzero">
<path style=" stroke:none;fill-rule:nonzero;fill:rgb(0%,0%,100%);fill-opacity:1;" d="M 352.140625 323.371094 L 335.664062 323.371094 L 335.902344 322.074219 L 352.378906 322.074219 L 352.140625 323.371094 "/>
</g>
<g clip-path="url(#clip7)" clip-rule="nonzero">
<path style=" stroke:none;fill-rule:nonzero;fill:rgb(0%,0%,100%);fill-opacity:1;" d="M 360.683594 335.035156 C 362.1875 333.996094 364.066406 332.433594 366.320312 330.355469 L 366.777344 329.921875 C 366.691406 328.027344 366.449219 326.03125 366.0625 323.9375 C 365.671875 321.84375 365.265625 320.324219 364.847656 319.382812 C 364.484375 318.617188 364.199219 318.164062 363.988281 318.027344 C 363.78125 317.894531 363.222656 317.800781 362.3125 317.757812 L 362.027344 317.738281 L 362.15625 316.980469 L 366.582031 316.980469 C 367.851562 319.96875 368.582031 323.46875 368.769531 327.472656 L 370.265625 325.5625 C 371.757812 323.671875 372.746094 322.285156 373.238281 321.410156 C 373.730469 320.535156 373.972656 319.730469 373.972656 318.996094 C 373.972656 318.230469 373.648438 317.554688 373 316.980469 L 376.011719 316.980469 C 376.199219 317.339844 376.292969 317.6875 376.292969 318.019531 C 376.292969 318.714844 376.066406 319.4375 375.609375 320.1875 C 375.15625 320.9375 374.214844 322.171875 372.78125 323.894531 L 368.144531 329.421875 C 366.308594 331.632812 364.933594 333.503906 364.023438 335.035156 L 360.683594 335.035156 "/>
</g>
<g clip-path="url(#clip8)" clip-rule="nonzero">
<path style=" stroke:none;fill-rule:nonzero;fill:rgb(0%,0%,100%);fill-opacity:1;" d="M 400.703125 323.371094 L 384.226562 323.371094 L 384.464844 322.074219 L 400.941406 322.074219 L 400.703125 323.371094 "/>
</g>
<path style=" stroke:none;fill-rule:nonzero;fill:rgb(0%,0%,100%);fill-opacity:1;" d="M 418.960938 312.015625 L 415.96875 327.058594 C 415.839844 327.738281 415.773438 328.324219 415.773438 328.816406 C 415.773438 329.160156 416.085938 329.359375 416.703125 329.402344 L 417.527344 329.464844 L 418.960938 329.464844 L 418.808594 330.226562 L 409.484375 330.226562 L 409.613281 329.464844 L 411.066406 329.464844 C 411.835938 329.464844 412.359375 329.390625 412.640625 329.238281 C 412.921875 329.085938 413.128906 328.765625 413.257812 328.273438 L 413.5625 327.058594 L 415.792969 315.871094 L 415.96875 314.636719 L 416.054688 314.203125 C 415.996094 313.929688 415.75 313.789062 415.316406 313.789062 C 415.15625 313.789062 414.6875 313.863281 413.90625 314.007812 L 412.652344 314.246094 L 412.800781 313.488281 L 418.960938 312.015625 "/>
<g clip-path="url(#clip9)" clip-rule="nonzero">
<path style=" stroke:none;fill-rule:nonzero;fill:rgb(0%,0%,100%);fill-opacity:1;" d="M 356.261719 333.785156 L 355.882812 334.386719 C 352.652344 332.382812 351.039062 328.371094 351.039062 322.359375 L 351.039062 322.828125 C 351.039062 316.792969 352.652344 312.785156 355.882812 310.800781 L 356.261719 311.371094 C 354.824219 312.59375 353.867188 314.3125 353.378906 316.53125 C 353.085938 317.902344 352.9375 319.84375 352.9375 322.359375 L 352.9375 322.828125 C 352.9375 325.320312 353.085938 327.253906 353.378906 328.625 C 353.867188 330.839844 354.824219 332.5625 356.261719 333.785156 "/>
</g>
<g clip-path="url(#clip10)" clip-rule="nonzero">
<path style=" stroke:none;fill-rule:nonzero;fill:rgb(0%,0%,100%);fill-opacity:1;" d="M 424.574219 311.402344 L 424.953125 310.800781 C 428.183594 312.804688 429.800781 316.816406 429.800781 322.828125 L 429.800781 322.359375 C 429.800781 328.394531 428.183594 332.402344 424.953125 334.386719 L 424.574219 333.816406 C 426.011719 332.59375 426.972656 330.871094 427.457031 328.65625 C 427.753906 327.285156 427.898438 325.34375 427.898438 322.828125 L 427.898438 322.359375 C 427.898438 319.867188 427.753906 317.933594 427.457031 316.5625 C 426.972656 314.347656 426.011719 312.625 424.574219 311.402344 "/>
</g>
<g clip-path="url(#clip11)" clip-rule="nonzero">
<path style=" stroke:none;fill-rule:nonzero;fill:rgb(0%,0%,100%);fill-opacity:1;" d="M 455.035156 335.035156 C 456.539062 333.996094 458.414062 332.433594 460.671875 330.355469 L 461.125 329.921875 C 461.039062 328.027344 460.800781 326.03125 460.410156 323.9375 C 460.019531 321.84375 459.617188 320.324219 459.195312 319.382812 C 458.835938 318.617188 458.550781 318.164062 458.339844 318.027344 C 458.128906 317.894531 457.570312 317.800781 456.660156 317.757812 L 456.378906 317.738281 L 456.507812 316.980469 L 460.933594 316.980469 C 462.203125 319.96875 462.933594 323.46875 463.121094 327.472656 L 464.617188 325.5625 C 466.105469 323.671875 467.09375 322.285156 467.589844 321.410156 C 468.078125 320.535156 468.324219 319.730469 468.324219 318.996094 C 468.324219 318.230469 467.996094 317.554688 467.347656 316.980469 L 470.363281 316.980469 C 470.550781 317.339844 470.644531 317.6875 470.644531 318.019531 C 470.644531 318.714844 470.417969 319.4375 469.960938 320.1875 C 469.503906 320.9375 468.5625 322.171875 467.132812 323.894531 L 462.492188 329.421875 C 460.65625 331.632812 459.28125 333.503906 458.371094 335.035156 L 455.035156 335.035156 "/>
</g>
<g clip-path="url(#clip12)" clip-rule="nonzero">
<path style=" stroke:none;fill-rule:nonzero;fill:rgb(0%,0%,100%);fill-opacity:1;" d="M 495.054688 323.371094 L 478.578125 323.371094 L 478.816406 322.074219 L 495.292969 322.074219 L 495.054688 323.371094 "/>
</g>
<path style=" stroke:none;fill-rule:nonzero;fill:rgb(0%,0%,100%);fill-opacity:1;" d="M 503.53125 330.160156 L 504.136719 327.058594 L 505.332031 327.058594 L 505.308594 327.277344 C 505.296875 327.476562 505.242188 327.8125 505.15625 328.273438 C 505.144531 328.417969 505.136719 328.539062 505.136719 328.640625 C 505.136719 329.003906 505.390625 329.3125 505.894531 329.5625 C 506.402344 329.816406 507.03125 329.941406 507.78125 329.941406 C 509.082031 329.941406 510.203125 329.394531 511.140625 328.296875 C 512.078125 327.195312 512.550781 325.882812 512.550781 324.347656 C 512.550781 321.949219 510.953125 320.75 507.761719 320.75 L 506.980469 320.75 L 507.109375 319.992188 L 508.214844 319.992188 C 509.992188 319.992188 511.386719 319.578125 512.398438 318.757812 C 513.410156 317.933594 513.914062 316.796875 513.914062 315.351562 C 513.914062 314.46875 513.640625 313.769531 513.09375 313.25 C 512.542969 312.730469 511.8125 312.46875 510.902344 312.46875 C 509.371094 312.46875 508.488281 312.980469 508.257812 314.007812 C 508.144531 314.515625 508.070312 314.816406 508.039062 314.917969 L 507.976562 315.15625 L 506.785156 315.15625 L 507.367188 312.25 C 508.714844 311.902344 509.96875 311.730469 511.140625 311.730469 C 514.582031 311.730469 516.300781 312.910156 516.300781 315.265625 C 516.300781 316.421875 515.835938 317.464844 514.902344 318.398438 C 513.96875 319.328125 512.722656 320.007812 511.164062 320.425781 C 513.777344 320.828125 515.085938 322.085938 515.085938 324.199219 C 515.085938 326.0625 514.382812 327.609375 512.972656 328.835938 C 511.5625 330.066406 509.761719 330.679688 507.5625 330.679688 C 506.265625 330.679688 504.921875 330.507812 503.53125 330.160156 "/>
<g clip-path="url(#clip13)" clip-rule="nonzero">
<path style=" stroke:none;fill-rule:nonzero;fill:rgb(0%,0%,100%);fill-opacity:1;" d="M 450.613281 333.785156 L 450.230469 334.386719 C 447.003906 332.382812 445.386719 328.371094 445.386719 322.359375 L 445.386719 322.828125 C 445.386719 316.792969 447.003906 312.785156 450.230469 310.800781 L 450.613281 311.371094 C 449.175781 312.59375 448.214844 314.3125 447.730469 316.53125 C 447.433594 317.902344 447.285156 319.84375 447.285156 322.359375 L 447.285156 322.828125 C 447.285156 325.320312 447.433594 327.253906 447.730469 328.625 C 448.214844 330.839844 449.175781 332.5625 450.613281 333.785156 "/>
</g>
<g clip-path="url(#clip14)" clip-rule="nonzero">
<path style=" stroke:none;fill-rule:nonzero;fill:rgb(0%,0%,100%);fill-opacity:1;" d="M 518.925781 311.402344 L 519.304688 310.800781 C 522.535156 312.804688 524.148438 316.816406 524.148438 322.828125 L 524.148438 322.359375 C 524.148438 328.394531 522.535156 332.402344 519.304688 334.386719 L 518.925781 333.816406 C 520.359375 332.59375 521.320312 330.871094 521.804688 328.65625 C 522.101562 327.285156 522.25 325.34375 522.25 322.828125 L 522.25 322.359375 C 522.25 319.867188 522.101562 317.933594 521.804688 316.5625 C 521.320312 314.347656 520.359375 312.625 518.925781 311.402344 "/>
</g>
<path style="fill:none;stroke-width:13.875;stroke-linecap:butt;stroke-linejoin:round;stroke:rgb(0%,0%,0%);stroke-opacity:1;stroke-miterlimit:10;" d="M 180.390625 582.734375 L 5425.039062 582.734375 " transform="matrix(0.1,0,0,-0.1,0,555)"/>
<path style=" stroke:none;fill-rule:nonzero;fill:rgb(0%,0%,0%);fill-opacity:1;" d="M 411.046875 534.535156 C 411.335938 534.835938 411.550781 535.148438 411.695312 535.464844 C 411.8125 535.667969 411.984375 536.21875 412.214844 537.113281 L 412.996094 535.964844 C 413.199219 535.675781 413.449219 535.40625 413.746094 535.152344 C 414.039062 534.898438 414.296875 534.722656 414.515625 534.621094 C 414.660156 534.5625 414.816406 534.535156 414.992188 534.535156 C 415.238281 534.535156 415.4375 534.601562 415.589844 534.738281 C 415.738281 534.878906 415.816406 535.039062 415.816406 535.226562 C 415.816406 535.457031 415.773438 535.617188 415.683594 535.703125 C 415.527344 535.847656 415.339844 535.921875 415.121094 535.921875 C 414.992188 535.921875 414.863281 535.894531 414.730469 535.835938 C 414.457031 535.75 414.269531 535.703125 414.167969 535.703125 C 414.023438 535.703125 413.859375 535.785156 413.667969 535.941406 C 413.308594 536.246094 412.875 536.839844 412.367188 537.71875 L 413.085938 540.734375 C 413.199219 541.199219 413.292969 541.472656 413.363281 541.570312 C 413.4375 541.664062 413.519531 541.710938 413.605469 541.710938 C 413.722656 541.710938 413.863281 541.644531 414.039062 541.515625 C 414.355469 541.238281 414.632812 540.886719 414.863281 540.453125 L 415.164062 540.605469 C 414.789062 541.296875 414.320312 541.875 413.757812 542.339844 C 413.4375 542.597656 413.164062 542.730469 412.933594 542.730469 C 412.601562 542.730469 412.339844 542.539062 412.152344 542.164062 C 412.023438 541.933594 411.769531 540.953125 411.394531 539.21875 C 410.46875 540.804688 409.730469 541.824219 409.183594 542.273438 C 408.820312 542.578125 408.472656 542.730469 408.140625 542.730469 C 407.910156 542.730469 407.691406 542.640625 407.492188 542.46875 C 407.359375 542.339844 407.296875 542.164062 407.296875 541.949219 C 407.296875 541.761719 407.359375 541.601562 407.492188 541.472656 C 407.621094 541.339844 407.777344 541.277344 407.96875 541.277344 C 408.15625 541.277344 408.351562 541.371094 408.554688 541.558594 C 408.710938 541.6875 408.835938 541.753906 408.921875 541.753906 C 408.980469 541.753906 409.066406 541.710938 409.183594 541.621094 C 409.457031 541.390625 409.832031 540.90625 410.308594 540.171875 C 410.785156 539.433594 411.097656 538.898438 411.242188 538.566406 C 410.878906 537.136719 410.683594 536.382812 410.65625 536.3125 C 410.527344 535.921875 410.351562 535.648438 410.136719 535.488281 C 409.917969 535.328125 409.59375 535.25 409.160156 535.25 C 409.027344 535.25 408.878906 535.257812 408.703125 535.269531 L 408.703125 534.945312 L 411.046875 534.535156 "/>
<path style="fill:none;stroke-width:1.2;stroke-linecap:butt;stroke-linejoin:round;stroke:rgb(0%,0%,0%);stroke-opacity:1;stroke-miterlimit:10;" d="M 180.390625 582.734375 L 180.390625 527.265625 " transform="matrix(0.1,0,0,-0.1,0,555)"/>
<g clip-path="url(#clip15)" clip-rule="nonzero">
<path style=" stroke:none;fill-rule:nonzero;fill:rgb(0%,0%,0%);fill-opacity:1;" d="M 11.382812 516.757812 L 23.304688 516.757812 L 23.304688 515.824219 L 11.382812 515.824219 Z M 11.382812 516.757812 "/>
</g>
<path style=" stroke:none;fill-rule:nonzero;fill:rgb(0%,0%,0%);fill-opacity:1;" d="M 21.550781 510.925781 L 24.453125 509.515625 L 24.734375 509.515625 L 24.734375 519.597656 C 24.734375 520.261719 24.765625 520.675781 24.824219 520.84375 C 24.882812 521.007812 24.996094 521.136719 25.167969 521.222656 C 25.34375 521.308594 25.699219 521.359375 26.230469 521.375 L 26.230469 521.699219 L 21.746094 521.699219 L 21.746094 521.375 C 22.308594 521.359375 22.671875 521.308594 22.839844 521.222656 C 23.007812 521.136719 23.121094 521.019531 23.1875 520.875 C 23.25 520.730469 23.285156 520.304688 23.285156 519.597656 L 23.285156 513.15625 C 23.285156 512.277344 23.253906 511.714844 23.199219 511.46875 C 23.152344 511.277344 23.078125 511.140625 22.96875 511.054688 C 22.859375 510.96875 22.726562 510.925781 22.570312 510.925781 C 22.351562 510.925781 22.054688 511.019531 21.679688 511.207031 L 21.550781 510.925781 "/>
<path style="fill:none;stroke-width:1.2;stroke-linecap:butt;stroke-linejoin:round;stroke:rgb(0%,0%,0%);stroke-opacity:1;stroke-miterlimit:10;" d="M 1491.523438 582.734375 L 1491.523438 527.265625 " transform="matrix(0.1,0,0,-0.1,0,555)"/>
<g clip-path="url(#clip16)" clip-rule="nonzero">
<path style=" stroke:none;fill-rule:nonzero;fill:rgb(0%,0%,0%);fill-opacity:1;" d="M 134.867188 516.757812 L 146.792969 516.757812 L 146.792969 515.824219 L 134.867188 515.824219 Z M 134.867188 516.757812 "/>
</g>
<path style=" stroke:none;fill-rule:nonzero;fill:rgb(0%,0%,0%);fill-opacity:1;" d="M 143.5625 515.804688 C 143.5625 514.445312 143.769531 513.269531 144.179688 512.277344 C 144.589844 511.289062 145.136719 510.554688 145.816406 510.078125 C 146.351562 509.703125 146.902344 509.515625 147.464844 509.515625 C 148.375 509.515625 149.191406 509.976562 149.914062 510.902344 C 150.824219 512.058594 151.28125 513.628906 151.28125 515.605469 C 151.28125 516.996094 151.082031 518.171875 150.683594 519.140625 C 150.285156 520.109375 149.777344 520.816406 149.15625 521.253906 C 148.535156 521.695312 147.941406 521.917969 147.378906 521.917969 C 146.234375 521.917969 145.28125 521.242188 144.515625 519.902344 C 143.878906 518.757812 143.5625 517.390625 143.5625 515.804688 Z M 145.296875 516.019531 C 145.296875 517.667969 145.5 519.011719 145.902344 520.050781 C 146.234375 520.917969 146.734375 521.351562 147.398438 521.351562 C 147.71875 521.351562 148.046875 521.210938 148.386719 520.929688 C 148.726562 520.648438 148.984375 520.167969 149.15625 519.488281 C 149.429688 518.492188 149.566406 517.066406 149.566406 515.21875 C 149.566406 513.859375 149.421875 512.722656 149.132812 511.8125 C 148.933594 511.132812 148.65625 510.65625 148.308594 510.382812 C 148.078125 510.195312 147.789062 510.101562 147.441406 510.101562 C 147.054688 510.101562 146.699219 510.273438 146.382812 510.621094 C 145.960938 511.113281 145.675781 511.882812 145.523438 512.929688 C 145.371094 513.976562 145.296875 515.007812 145.296875 516.019531 Z M 154.1875 519.984375 C 154.460938 519.984375 154.691406 520.082031 154.878906 520.28125 C 155.066406 520.476562 155.160156 520.703125 155.160156 520.960938 C 155.160156 521.238281 155.066406 521.46875 154.878906 521.65625 C 154.691406 521.84375 154.460938 521.9375 154.1875 521.9375 C 153.910156 521.9375 153.679688 521.84375 153.492188 521.65625 C 153.304688 521.46875 153.210938 521.238281 153.210938 520.960938 C 153.210938 520.6875 153.304688 520.457031 153.492188 520.269531 C 153.679688 520.082031 153.910156 519.984375 154.1875 519.984375 Z M 164.265625 509.753906 L 163.570312 511.25 L 159.996094 511.25 L 159.214844 512.855469 C 160.761719 513.085938 161.992188 513.664062 162.902344 514.589844 C 163.679688 515.382812 164.070312 516.324219 164.070312 517.40625 C 164.070312 518.042969 163.945312 518.628906 163.691406 519.160156 C 163.4375 519.699219 163.117188 520.152344 162.726562 520.527344 C 162.339844 520.90625 161.902344 521.199219 161.425781 521.417969 C 160.761719 521.75 160.066406 521.917969 159.34375 521.917969 C 158.636719 521.917969 158.121094 521.792969 157.796875 521.546875 C 157.46875 521.300781 157.308594 521.035156 157.308594 520.746094 C 157.308594 520.570312 157.375 520.421875 157.511719 520.300781 C 157.648438 520.175781 157.820312 520.117188 158.023438 520.117188 C 158.167969 520.117188 158.296875 520.140625 158.410156 520.183594 C 158.527344 520.226562 158.722656 520.347656 158.996094 520.550781 C 159.445312 520.851562 159.894531 521.007812 160.34375 521.007812 C 161.035156 521.007812 161.640625 520.746094 162.152344 520.226562 C 162.664062 519.703125 162.921875 519.070312 162.921875 518.316406 C 162.921875 517.59375 162.691406 516.921875 162.226562 516.300781 C 161.765625 515.679688 161.128906 515.195312 160.320312 514.847656 C 159.671875 514.589844 158.796875 514.4375 157.699219 514.394531 L 159.996094 509.753906 L 164.265625 509.753906 "/>
<path style="fill:none;stroke-width:1.2;stroke-linecap:butt;stroke-linejoin:round;stroke:rgb(0%,0%,0%);stroke-opacity:1;stroke-miterlimit:10;" d="M 2802.695312 582.734375 L 2802.695312 527.265625 " transform="matrix(0.1,0,0,-0.1,0,555)"/>
<path style=" stroke:none;fill-rule:nonzero;fill:rgb(0%,0%,0%);fill-opacity:1;" d="M 275.375 515.804688 C 275.375 514.445312 275.582031 513.269531 275.992188 512.277344 C 276.402344 511.289062 276.949219 510.554688 277.628906 510.078125 C 278.164062 509.703125 278.714844 509.515625 279.277344 509.515625 C 280.1875 509.515625 281.003906 509.976562 281.726562 510.902344 C 282.636719 512.058594 283.09375 513.628906 283.09375 515.605469 C 283.09375 516.996094 282.894531 518.171875 282.496094 519.140625 C 282.101562 520.109375 281.589844 520.816406 280.96875 521.253906 C 280.347656 521.695312 279.753906 521.917969 279.191406 521.917969 C 278.046875 521.917969 277.09375 521.242188 276.328125 519.902344 C 275.691406 518.757812 275.375 517.390625 275.375 515.804688 Z M 277.109375 516.019531 C 277.109375 517.667969 277.3125 519.011719 277.714844 520.050781 C 278.046875 520.917969 278.546875 521.351562 279.210938 521.351562 C 279.53125 521.351562 279.859375 521.210938 280.199219 520.929688 C 280.539062 520.648438 280.796875 520.167969 280.96875 519.488281 C 281.242188 518.492188 281.378906 517.066406 281.378906 515.21875 C 281.378906 513.859375 281.234375 512.722656 280.945312 511.8125 C 280.742188 511.132812 280.46875 510.65625 280.121094 510.382812 C 279.890625 510.195312 279.601562 510.101562 279.253906 510.101562 C 278.863281 510.101562 278.511719 510.273438 278.195312 510.621094 C 277.773438 511.113281 277.488281 511.882812 277.335938 512.929688 C 277.183594 513.976562 277.109375 515.007812 277.109375 516.019531 "/>
<path style="fill:none;stroke-width:1.2;stroke-linecap:butt;stroke-linejoin:round;stroke:rgb(0%,0%,0%);stroke-opacity:1;stroke-miterlimit:10;" d="M 4113.867188 582.734375 L 4113.867188 527.265625 " transform="matrix(0.1,0,0,-0.1,0,555)"/>
<path style=" stroke:none;fill-rule:nonzero;fill:rgb(0%,0%,0%);fill-opacity:1;" d="M 400.25 515.804688 C 400.25 514.445312 400.457031 513.269531 400.867188 512.277344 C 401.277344 511.289062 401.824219 510.554688 402.503906 510.078125 C 403.039062 509.703125 403.589844 509.515625 404.152344 509.515625 C 405.0625 509.515625 405.878906 509.976562 406.601562 510.902344 C 407.511719 512.058594 407.96875 513.628906 407.96875 515.605469 C 407.96875 516.996094 407.769531 518.171875 407.371094 519.140625 C 406.976562 520.109375 406.464844 520.816406 405.84375 521.253906 C 405.222656 521.695312 404.628906 521.917969 404.066406 521.917969 C 402.921875 521.917969 401.96875 521.242188 401.203125 519.902344 C 400.566406 518.757812 400.25 517.390625 400.25 515.804688 Z M 401.984375 516.019531 C 401.984375 517.667969 402.1875 519.011719 402.589844 520.050781 C 402.921875 520.917969 403.421875 521.351562 404.085938 521.351562 C 404.40625 521.351562 404.734375 521.210938 405.074219 520.929688 C 405.414062 520.648438 405.671875 520.167969 405.84375 519.488281 C 406.117188 518.492188 406.253906 517.066406 406.253906 515.21875 C 406.253906 513.859375 406.109375 512.722656 405.820312 511.8125 C 405.617188 511.132812 405.34375 510.65625 404.996094 510.382812 C 404.765625 510.195312 404.476562 510.101562 404.128906 510.101562 C 403.738281 510.101562 403.386719 510.273438 403.070312 510.621094 C 402.648438 511.113281 402.363281 511.882812 402.210938 512.929688 C 402.058594 513.976562 401.984375 515.007812 401.984375 516.019531 Z M 410.871094 519.984375 C 411.148438 519.984375 411.378906 520.082031 411.566406 520.28125 C 411.753906 520.476562 411.847656 520.703125 411.847656 520.960938 C 411.847656 521.238281 411.753906 521.46875 411.566406 521.65625 C 411.378906 521.84375 411.148438 521.9375 410.871094 521.9375 C 410.597656 521.9375 410.367188 521.84375 410.179688 521.65625 C 409.992188 521.46875 409.894531 521.238281 409.894531 520.960938 C 409.894531 520.6875 409.992188 520.457031 410.179688 520.269531 C 410.367188 520.082031 410.597656 519.984375 410.871094 519.984375 Z M 420.953125 509.753906 L 420.261719 511.25 L 416.683594 511.25 L 415.902344 512.855469 C 417.449219 513.085938 418.679688 513.664062 419.589844 514.589844 C 420.367188 515.382812 420.757812 516.324219 420.757812 517.40625 C 420.757812 518.042969 420.632812 518.628906 420.378906 519.160156 C 420.128906 519.699219 419.804688 520.152344 419.414062 520.527344 C 419.023438 520.90625 418.589844 521.199219 418.113281 521.417969 C 417.449219 521.75 416.753906 521.917969 416.03125 521.917969 C 415.324219 521.917969 414.808594 521.792969 414.480469 521.546875 C 414.15625 521.300781 413.996094 521.035156 413.996094 520.746094 C 413.996094 520.570312 414.0625 520.421875 414.199219 520.300781 C 414.339844 520.175781 414.507812 520.117188 414.710938 520.117188 C 414.855469 520.117188 414.984375 520.140625 415.101562 520.183594 C 415.214844 520.226562 415.410156 520.347656 415.683594 520.550781 C 416.132812 520.851562 416.582031 521.007812 417.03125 521.007812 C 417.722656 521.007812 418.328125 520.746094 418.839844 520.226562 C 419.355469 519.703125 419.609375 519.070312 419.609375 518.316406 C 419.609375 517.59375 419.378906 516.921875 418.914062 516.300781 C 418.453125 515.679688 417.816406 515.195312 417.007812 514.847656 C 416.359375 514.589844 415.484375 514.4375 414.386719 514.394531 L 416.683594 509.753906 L 420.953125 509.753906 "/>
<path style="fill:none;stroke-width:1.2;stroke-linecap:butt;stroke-linejoin:round;stroke:rgb(0%,0%,0%);stroke-opacity:1;stroke-miterlimit:10;" d="M 5425.039062 582.734375 L 5425.039062 527.265625 " transform="matrix(0.1,0,0,-0.1,0,555)"/>
<path style=" stroke:none;fill-rule:nonzero;fill:rgb(0%,0%,0%);fill-opacity:1;" d="M 539.085938 510.925781 L 541.992188 509.515625 L 542.273438 509.515625 L 542.273438 519.597656 C 542.273438 520.261719 542.304688 520.675781 542.359375 520.84375 C 542.417969 521.007812 542.53125 521.136719 542.707031 521.222656 C 542.878906 521.308594 543.234375 521.359375 543.769531 521.375 L 543.769531 521.699219 L 539.28125 521.699219 L 539.28125 521.375 C 539.847656 521.359375 540.210938 521.308594 540.375 521.222656 C 540.542969 521.136719 540.660156 521.019531 540.722656 520.875 C 540.789062 520.730469 540.820312 520.304688 540.820312 519.597656 L 540.820312 513.15625 C 540.820312 512.277344 540.792969 511.714844 540.734375 511.46875 C 540.691406 511.277344 540.613281 511.140625 540.507812 511.054688 C 540.398438 510.96875 540.265625 510.925781 540.105469 510.925781 C 539.890625 510.925781 539.59375 511.019531 539.21875 511.207031 L 539.085938 510.925781 "/>
<path style="fill:none;stroke-width:1.2;stroke-linecap:butt;stroke-linejoin:round;stroke:rgb(0%,0%,0%);stroke-opacity:1;stroke-miterlimit:10;" d="M 442.617188 582.734375 L 442.617188 555 " transform="matrix(0.1,0,0,-0.1,0,555)"/>
<path style="fill:none;stroke-width:1.2;stroke-linecap:butt;stroke-linejoin:round;stroke:rgb(0%,0%,0%);stroke-opacity:1;stroke-miterlimit:10;" d="M 704.84375 582.734375 L 704.84375 555 " transform="matrix(0.1,0,0,-0.1,0,555)"/>
<path style="fill:none;stroke-width:1.2;stroke-linecap:butt;stroke-linejoin:round;stroke:rgb(0%,0%,0%);stroke-opacity:1;stroke-miterlimit:10;" d="M 967.070312 582.734375 L 967.070312 555 " transform="matrix(0.1,0,0,-0.1,0,555)"/>
<path style="fill:none;stroke-width:1.2;stroke-linecap:butt;stroke-linejoin:round;stroke:rgb(0%,0%,0%);stroke-opacity:1;stroke-miterlimit:10;" d="M 1229.296875 582.734375 L 1229.296875 555 " transform="matrix(0.1,0,0,-0.1,0,555)"/>
<path style="fill:none;stroke-width:1.2;stroke-linecap:butt;stroke-linejoin:round;stroke:rgb(0%,0%,0%);stroke-opacity:1;stroke-miterlimit:10;" d="M 1753.789062 582.734375 L 1753.789062 555 " transform="matrix(0.1,0,0,-0.1,0,555)"/>
<path style="fill:none;stroke-width:1.2;stroke-linecap:butt;stroke-linejoin:round;stroke:rgb(0%,0%,0%);stroke-opacity:1;stroke-miterlimit:10;" d="M 2016.015625 582.734375 L 2016.015625 555 " transform="matrix(0.1,0,0,-0.1,0,555)"/>
<path style="fill:none;stroke-width:1.2;stroke-linecap:butt;stroke-linejoin:round;stroke:rgb(0%,0%,0%);stroke-opacity:1;stroke-miterlimit:10;" d="M 2278.242188 582.734375 L 2278.242188 555 " transform="matrix(0.1,0,0,-0.1,0,555)"/>
<path style="fill:none;stroke-width:1.2;stroke-linecap:butt;stroke-linejoin:round;stroke:rgb(0%,0%,0%);stroke-opacity:1;stroke-miterlimit:10;" d="M 2540.46875 582.734375 L 2540.46875 555 " transform="matrix(0.1,0,0,-0.1,0,555)"/>
<path style="fill:none;stroke-width:1.2;stroke-linecap:butt;stroke-linejoin:round;stroke:rgb(0%,0%,0%);stroke-opacity:1;stroke-miterlimit:10;" d="M 3064.960938 582.734375 L 3064.960938 555 " transform="matrix(0.1,0,0,-0.1,0,555)"/>
<path style="fill:none;stroke-width:1.2;stroke-linecap:butt;stroke-linejoin:round;stroke:rgb(0%,0%,0%);stroke-opacity:1;stroke-miterlimit:10;" d="M 3327.1875 582.734375 L 3327.1875 555 " transform="matrix(0.1,0,0,-0.1,0,555)"/>
<path style="fill:none;stroke-width:1.2;stroke-linecap:butt;stroke-linejoin:round;stroke:rgb(0%,0%,0%);stroke-opacity:1;stroke-miterlimit:10;" d="M 3589.414062 582.734375 L 3589.414062 555 " transform="matrix(0.1,0,0,-0.1,0,555)"/>
<path style="fill:none;stroke-width:1.2;stroke-linecap:butt;stroke-linejoin:round;stroke:rgb(0%,0%,0%);stroke-opacity:1;stroke-miterlimit:10;" d="M 3851.640625 582.734375 L 3851.640625 555 " transform="matrix(0.1,0,0,-0.1,0,555)"/>
<path style="fill:none;stroke-width:1.2;stroke-linecap:butt;stroke-linejoin:round;stroke:rgb(0%,0%,0%);stroke-opacity:1;stroke-miterlimit:10;" d="M 4376.09375 582.734375 L 4376.09375 555 " transform="matrix(0.1,0,0,-0.1,0,555)"/>
<path style="fill:none;stroke-width:1.2;stroke-linecap:butt;stroke-linejoin:round;stroke:rgb(0%,0%,0%);stroke-opacity:1;stroke-miterlimit:10;" d="M 4638.359375 582.734375 L 4638.359375 555 " transform="matrix(0.1,0,0,-0.1,0,555)"/>
<path style="fill:none;stroke-width:1.2;stroke-linecap:butt;stroke-linejoin:round;stroke:rgb(0%,0%,0%);stroke-opacity:1;stroke-miterlimit:10;" d="M 4900.585938 582.734375 L 4900.585938 555 " transform="matrix(0.1,0,0,-0.1,0,555)"/>
<path style="fill:none;stroke-width:1.2;stroke-linecap:butt;stroke-linejoin:round;stroke:rgb(0%,0%,0%);stroke-opacity:1;stroke-miterlimit:10;" d="M 5162.8125 582.734375 L 5162.8125 555 " transform="matrix(0.1,0,0,-0.1,0,555)"/>
<path style="fill:none;stroke-width:13.875;stroke-linecap:butt;stroke-linejoin:round;stroke:rgb(0%,0%,0%);stroke-opacity:1;stroke-miterlimit:10;" d="M 2802.695312 582.734375 L 2802.695312 5369.375 " transform="matrix(0.1,0,0,-0.1,0,555)"/>
<g clip-path="url(#clip17)" clip-rule="nonzero">
<path style=" stroke:none;fill-rule:nonzero;fill:rgb(0%,0%,0%);fill-opacity:1;" d="M 233.207031 255.648438 C 233.410156 255.992188 233.546875 256.3125 233.621094 256.609375 C 233.691406 256.90625 233.769531 257.488281 233.855469 258.355469 L 234.226562 262.691406 C 234.589844 262.273438 235.101562 261.601562 235.765625 260.675781 C 236.085938 260.230469 236.480469 259.621094 236.960938 258.855469 C 237.246094 258.394531 237.429688 258.066406 237.5 257.878906 C 237.527344 257.777344 237.542969 257.675781 237.542969 257.574219 C 237.542969 257.519531 237.523438 257.46875 237.480469 257.425781 C 237.4375 257.382812 237.324219 257.328125 237.152344 257.269531 C 236.980469 257.214844 236.839844 257.113281 236.730469 256.96875 C 236.621094 256.824219 236.570312 256.652344 236.570312 256.449219 C 236.570312 256.21875 236.636719 256.027344 236.773438 255.875 C 236.910156 255.722656 237.089844 255.648438 237.304688 255.648438 C 237.566406 255.648438 237.785156 255.753906 237.964844 255.972656 C 238.148438 256.1875 238.238281 256.484375 238.238281 256.859375 C 238.238281 257.324219 238.078125 257.855469 237.761719 258.453125 C 237.441406 259.054688 236.832031 259.96875 235.929688 261.195312 C 235.027344 262.425781 233.929688 263.769531 232.644531 265.230469 C 231.761719 266.226562 231.105469 266.859375 230.671875 267.125 C 230.238281 267.394531 229.867188 267.527344 229.566406 267.527344 C 229.378906 267.527344 229.214844 267.453125 229.078125 267.308594 C 228.941406 267.164062 228.871094 267.007812 228.871094 266.832031 C 228.871094 266.601562 228.96875 266.390625 229.164062 266.203125 C 229.359375 266.015625 229.566406 265.921875 229.78125 265.921875 C 229.898438 265.921875 230 265.953125 230.085938 266.007812 C 230.128906 266.039062 230.179688 266.121094 230.238281 266.257812 C 230.296875 266.394531 230.347656 266.484375 230.390625 266.527344 C 230.417969 266.558594 230.453125 266.574219 230.496094 266.574219 C 230.527344 266.574219 230.585938 266.542969 230.671875 266.484375 C 231.003906 266.285156 231.378906 265.964844 231.796875 265.53125 C 232.363281 264.953125 232.78125 264.484375 233.054688 264.121094 L 232.558594 258.550781 C 232.484375 257.628906 232.367188 257.0625 232.199219 256.859375 C 232.03125 256.65625 231.753906 256.558594 231.367188 256.558594 C 231.234375 256.558594 231.011719 256.578125 230.691406 256.621094 L 230.628906 256.296875 L 233.207031 255.648438 "/>
</g>
<path style="fill:none;stroke-width:1.2;stroke-linecap:butt;stroke-linejoin:round;stroke:rgb(0%,0%,0%);stroke-opacity:1;stroke-miterlimit:10;" d="M 2802.695312 582.734375 L 2747.226562 582.734375 " transform="matrix(0.1,0,0,-0.1,0,555)"/>
<path style="fill:none;stroke-width:1.2;stroke-linecap:butt;stroke-linejoin:round;stroke:rgb(0%,0%,0%);stroke-opacity:1;stroke-miterlimit:10;" d="M 2802.695312 1540.078125 L 2747.226562 1540.078125 " transform="matrix(0.1,0,0,-0.1,0,555)"/>
<path style=" stroke:none;fill-rule:nonzero;fill:rgb(0%,0%,0%);fill-opacity:1;" d="M 247.625 402.027344 C 247.625 400.667969 247.832031 399.496094 248.242188 398.503906 C 248.652344 397.515625 249.199219 396.78125 249.878906 396.304688 C 250.414062 395.929688 250.964844 395.738281 251.527344 395.738281 C 252.4375 395.738281 253.253906 396.203125 253.976562 397.128906 C 254.886719 398.285156 255.34375 399.851562 255.34375 401.832031 C 255.34375 403.21875 255.144531 404.398438 254.746094 405.367188 C 254.351562 406.335938 253.839844 407.039062 253.21875 407.480469 C 252.597656 407.921875 252.003906 408.140625 251.441406 408.140625 C 250.296875 408.140625 249.34375 407.46875 248.578125 406.125 C 247.941406 404.984375 247.625 403.617188 247.625 402.027344 Z M 249.359375 402.246094 C 249.359375 403.890625 249.5625 405.234375 249.964844 406.277344 C 250.296875 407.144531 250.796875 407.578125 251.460938 407.578125 C 251.78125 407.578125 252.109375 407.4375 252.449219 407.15625 C 252.789062 406.871094 253.046875 406.390625 253.21875 405.714844 C 253.492188 404.714844 253.628906 403.292969 253.628906 401.441406 C 253.628906 400.085938 253.484375 398.949219 253.195312 398.039062 C 252.992188 397.359375 252.71875 396.882812 252.371094 396.605469 C 252.140625 396.421875 251.851562 396.324219 251.503906 396.324219 C 251.113281 396.324219 250.761719 396.5 250.445312 396.847656 C 250.023438 397.335938 249.738281 398.105469 249.585938 399.15625 C 249.433594 400.203125 249.359375 401.234375 249.359375 402.246094 Z M 258.246094 406.210938 C 258.523438 406.210938 258.753906 406.308594 258.941406 406.503906 C 259.128906 406.699219 259.222656 406.925781 259.222656 407.1875 C 259.222656 407.460938 259.128906 407.691406 258.941406 407.878906 C 258.753906 408.070312 258.523438 408.160156 258.246094 408.160156 C 257.972656 408.160156 257.742188 408.070312 257.554688 407.878906 C 257.367188 407.691406 257.269531 407.460938 257.269531 407.1875 C 257.269531 406.910156 257.367188 406.683594 257.554688 406.492188 C 257.742188 406.304688 257.972656 406.210938 258.246094 406.210938 Z M 268.328125 395.980469 L 267.636719 397.472656 L 264.058594 397.472656 L 263.277344 399.078125 C 264.824219 399.308594 266.054688 399.890625 266.964844 400.8125 C 267.742188 401.609375 268.132812 402.546875 268.132812 403.632812 C 268.132812 404.269531 268.007812 404.851562 267.753906 405.386719 C 267.503906 405.921875 267.179688 406.378906 266.789062 406.753906 C 266.398438 407.128906 265.964844 407.425781 265.488281 407.640625 C 264.824219 407.976562 264.128906 408.140625 263.40625 408.140625 C 262.699219 408.140625 262.183594 408.019531 261.855469 407.773438 C 261.53125 407.527344 261.371094 407.257812 261.371094 406.96875 C 261.371094 406.796875 261.4375 406.648438 261.574219 406.527344 C 261.714844 406.402344 261.882812 406.34375 262.085938 406.34375 C 262.230469 406.34375 262.359375 406.363281 262.476562 406.40625 C 262.589844 406.449219 262.785156 406.574219 263.058594 406.773438 C 263.507812 407.078125 263.957031 407.230469 264.40625 407.230469 C 265.097656 407.230469 265.703125 406.96875 266.214844 406.449219 C 266.730469 405.929688 266.984375 405.292969 266.984375 404.542969 C 266.984375 403.820312 266.753906 403.148438 266.289062 402.527344 C 265.828125 401.90625 265.191406 401.421875 264.382812 401.074219 C 263.734375 400.8125 262.859375 400.660156 261.761719 400.617188 L 264.058594 395.980469 L 268.328125 395.980469 "/>
<path style="fill:none;stroke-width:1.2;stroke-linecap:butt;stroke-linejoin:round;stroke:rgb(0%,0%,0%);stroke-opacity:1;stroke-miterlimit:10;" d="M 2802.695312 2497.421875 L 2747.226562 2497.421875 " transform="matrix(0.1,0,0,-0.1,0,555)"/>
<path style=" stroke:none;fill-rule:nonzero;fill:rgb(0%,0%,0%);fill-opacity:1;" d="M 262.972656 301.410156 L 265.878906 300.003906 L 266.160156 300.003906 L 266.160156 310.085938 C 266.160156 310.75 266.191406 311.164062 266.246094 311.328125 C 266.304688 311.496094 266.421875 311.621094 266.59375 311.710938 C 266.769531 311.796875 267.121094 311.847656 267.65625 311.859375 L 267.65625 312.1875 L 263.167969 312.1875 L 263.167969 311.859375 C 263.734375 311.847656 264.097656 311.796875 264.261719 311.710938 C 264.429688 311.621094 264.546875 311.507812 264.609375 311.363281 C 264.675781 311.21875 264.710938 310.792969 264.710938 310.085938 L 264.710938 303.644531 C 264.710938 302.765625 264.679688 302.199219 264.621094 301.953125 C 264.578125 301.765625 264.503906 301.628906 264.394531 301.542969 C 264.285156 301.453125 264.152344 301.410156 263.992188 301.410156 C 263.777344 301.410156 263.480469 301.507812 263.105469 301.695312 L 262.972656 301.410156 "/>
<path style="fill:none;stroke-width:1.2;stroke-linecap:butt;stroke-linejoin:round;stroke:rgb(0%,0%,0%);stroke-opacity:1;stroke-miterlimit:10;" d="M 2802.695312 3454.726562 L 2747.226562 3454.726562 " transform="matrix(0.1,0,0,-0.1,0,555)"/>
<path style=" stroke:none;fill-rule:nonzero;fill:rgb(0%,0%,0%);fill-opacity:1;" d="M 249.097656 205.675781 L 252.003906 204.265625 L 252.285156 204.265625 L 252.285156 214.347656 C 252.285156 215.011719 252.316406 215.425781 252.371094 215.59375 C 252.429688 215.757812 252.546875 215.886719 252.71875 215.972656 C 252.894531 216.058594 253.246094 216.109375 253.78125 216.125 L 253.78125 216.449219 L 249.292969 216.449219 L 249.292969 216.125 C 249.859375 216.109375 250.222656 216.058594 250.386719 215.972656 C 250.554688 215.886719 250.671875 215.769531 250.734375 215.625 C 250.800781 215.480469 250.835938 215.054688 250.835938 214.347656 L 250.835938 207.90625 C 250.835938 207.027344 250.804688 206.464844 250.746094 206.21875 C 250.703125 206.027344 250.628906 205.890625 250.519531 205.804688 C 250.410156 205.71875 250.277344 205.675781 250.117188 205.675781 C 249.902344 205.675781 249.605469 205.769531 249.230469 205.957031 Z M 258.246094 214.734375 C 258.523438 214.734375 258.753906 214.835938 258.941406 215.027344 C 259.128906 215.226562 259.222656 215.453125 259.222656 215.710938 C 259.222656 215.988281 259.128906 216.21875 258.941406 216.40625 C 258.753906 216.59375 258.523438 216.6875 258.246094 216.6875 C 257.972656 216.6875 257.742188 216.59375 257.554688 216.40625 C 257.367188 216.21875 257.269531 215.988281 257.269531 215.710938 C 257.269531 215.4375 257.367188 215.207031 257.554688 215.019531 C 257.742188 214.832031 257.972656 214.734375 258.246094 214.734375 Z M 268.328125 204.503906 L 267.636719 206 L 264.058594 206 L 263.277344 207.605469 C 264.824219 207.835938 266.054688 208.414062 266.964844 209.339844 C 267.742188 210.132812 268.132812 211.074219 268.132812 212.15625 C 268.132812 212.792969 268.007812 213.378906 267.753906 213.910156 C 267.503906 214.449219 267.179688 214.902344 266.789062 215.277344 C 266.398438 215.65625 265.964844 215.949219 265.488281 216.167969 C 264.824219 216.5 264.128906 216.664062 263.40625 216.664062 C 262.699219 216.664062 262.183594 216.542969 261.855469 216.296875 C 261.53125 216.050781 261.371094 215.785156 261.371094 215.496094 C 261.371094 215.320312 261.4375 215.171875 261.574219 215.050781 C 261.714844 214.929688 261.882812 214.867188 262.085938 214.867188 C 262.230469 214.867188 262.359375 214.890625 262.476562 214.933594 C 262.589844 214.976562 262.785156 215.097656 263.058594 215.300781 C 263.507812 215.605469 263.957031 215.757812 264.40625 215.757812 C 265.097656 215.757812 265.703125 215.496094 266.214844 214.976562 C 266.730469 214.453125 266.984375 213.820312 266.984375 213.066406 C 266.984375 212.34375 266.753906 211.671875 266.289062 211.050781 C 265.828125 210.429688 265.191406 209.945312 264.382812 209.597656 C 263.734375 209.339844 262.859375 209.1875 261.761719 209.144531 L 264.058594 204.503906 L 268.328125 204.503906 "/>
<path style="fill:none;stroke-width:1.2;stroke-linecap:butt;stroke-linejoin:round;stroke:rgb(0%,0%,0%);stroke-opacity:1;stroke-miterlimit:10;" d="M 2802.695312 4412.070312 L 2747.226562 4412.070312 " transform="matrix(0.1,0,0,-0.1,0,555)"/>
<path style=" stroke:none;fill-rule:nonzero;fill:rgb(0%,0%,0%);fill-opacity:1;" d="M 269.109375 118.414062 L 268.285156 120.710938 L 261.238281 120.710938 L 261.238281 120.386719 C 263.304688 118.492188 264.761719 116.945312 265.609375 115.746094 C 266.453125 114.546875 266.875 113.457031 266.875 112.472656 C 266.875 111.707031 266.644531 111.082031 266.183594 110.597656 C 265.71875 110.113281 265.164062 109.871094 264.511719 109.871094 C 263.9375 109.871094 263.410156 110.042969 262.941406 110.382812 C 262.472656 110.722656 262.128906 111.222656 261.910156 111.890625 L 261.585938 111.890625 C 261.730469 110.804688 262.105469 109.972656 262.714844 109.394531 C 263.320312 108.816406 264.078125 108.527344 264.988281 108.527344 C 265.960938 108.527344 266.769531 108.839844 267.417969 109.460938 C 268.070312 110.082031 268.394531 110.8125 268.394531 111.648438 C 268.394531 112.257812 268.25 112.863281 267.960938 113.472656 C 267.527344 114.425781 266.824219 115.429688 265.855469 116.484375 C 264.398438 118.089844 263.480469 119.058594 263.105469 119.390625 L 266.226562 119.390625 C 266.863281 119.390625 267.304688 119.363281 267.558594 119.3125 C 267.8125 119.265625 268.042969 119.164062 268.253906 119.019531 C 268.464844 118.878906 268.640625 118.675781 268.785156 118.414062 L 269.109375 118.414062 "/>
<path style="fill:none;stroke-width:1.2;stroke-linecap:butt;stroke-linejoin:round;stroke:rgb(0%,0%,0%);stroke-opacity:1;stroke-miterlimit:10;" d="M 2802.695312 5369.375 L 2747.226562 5369.375 " transform="matrix(0.1,0,0,-0.1,0,555)"/>
<path style=" stroke:none;fill-rule:nonzero;fill:rgb(0%,0%,0%);fill-opacity:1;" d="M 255.234375 22.675781 L 254.410156 24.976562 L 247.363281 24.976562 L 247.363281 24.648438 C 249.429688 22.757812 250.886719 21.210938 251.734375 20.011719 C 252.578125 18.8125 253 17.71875 253 16.738281 C 253 15.972656 252.769531 15.347656 252.308594 14.859375 C 251.84375 14.378906 251.289062 14.136719 250.636719 14.136719 C 250.0625 14.136719 249.535156 14.304688 249.066406 14.644531 C 248.597656 14.984375 248.253906 15.484375 248.035156 16.152344 L 247.710938 16.152344 C 247.855469 15.066406 248.230469 14.234375 248.839844 13.65625 C 249.445312 13.078125 250.203125 12.789062 251.113281 12.789062 C 252.085938 12.789062 252.894531 13.101562 253.542969 13.722656 C 254.195312 14.34375 254.519531 15.074219 254.519531 15.914062 C 254.519531 16.519531 254.375 17.128906 254.085938 17.734375 C 253.652344 18.6875 252.949219 19.691406 251.980469 20.746094 C 250.523438 22.351562 249.605469 23.320312 249.230469 23.652344 L 252.351562 23.652344 C 252.988281 23.652344 253.429688 23.628906 253.683594 23.578125 C 253.9375 23.527344 254.167969 23.429688 254.378906 23.285156 C 254.589844 23.140625 254.765625 22.9375 254.910156 22.675781 Z M 258.246094 23.261719 C 258.523438 23.261719 258.753906 23.359375 258.941406 23.554688 C 259.128906 23.75 259.222656 23.976562 259.222656 24.238281 C 259.222656 24.511719 259.128906 24.742188 258.941406 24.933594 C 258.753906 25.121094 258.523438 25.214844 258.246094 25.214844 C 257.972656 25.214844 257.742188 25.121094 257.554688 24.933594 C 257.367188 24.742188 257.269531 24.511719 257.269531 24.238281 C 257.269531 23.964844 257.367188 23.730469 257.554688 23.542969 C 257.742188 23.355469 257.972656 23.261719 258.246094 23.261719 Z M 268.328125 13.027344 L 267.636719 14.523438 L 264.058594 14.523438 L 263.277344 16.128906 C 264.824219 16.359375 266.054688 16.9375 266.964844 17.863281 C 267.742188 18.660156 268.132812 19.597656 268.132812 20.683594 C 268.132812 21.316406 268.007812 21.902344 267.753906 22.4375 C 267.503906 22.972656 267.179688 23.429688 266.789062 23.804688 C 266.398438 24.179688 265.964844 24.476562 265.488281 24.691406 C 264.824219 25.023438 264.128906 25.191406 263.40625 25.191406 C 262.699219 25.191406 262.183594 25.070312 261.855469 24.824219 C 261.53125 24.578125 261.371094 24.308594 261.371094 24.019531 C 261.371094 23.847656 261.4375 23.699219 261.574219 23.578125 C 261.714844 23.453125 261.882812 23.390625 262.085938 23.390625 C 262.230469 23.390625 262.359375 23.414062 262.476562 23.457031 C 262.589844 23.5 262.785156 23.621094 263.058594 23.824219 C 263.507812 24.128906 263.957031 24.28125 264.40625 24.28125 C 265.097656 24.28125 265.703125 24.019531 266.214844 23.5 C 266.730469 22.980469 266.984375 22.34375 266.984375 21.59375 C 266.984375 20.871094 266.753906 20.199219 266.289062 19.578125 C 265.828125 18.953125 265.191406 18.472656 264.382812 18.125 C 263.734375 17.863281 262.859375 17.710938 261.761719 17.667969 L 264.058594 13.027344 L 268.328125 13.027344 "/>
<path style="fill:none;stroke-width:1.2;stroke-linecap:butt;stroke-linejoin:round;stroke:rgb(0%,0%,0%);stroke-opacity:1;stroke-miterlimit:10;" d="M 2802.695312 774.21875 L 2774.960938 774.21875 " transform="matrix(0.1,0,0,-0.1,0,555)"/>
<path style="fill:none;stroke-width:1.2;stroke-linecap:butt;stroke-linejoin:round;stroke:rgb(0%,0%,0%);stroke-opacity:1;stroke-miterlimit:10;" d="M 2802.695312 965.703125 L 2774.960938 965.703125 " transform="matrix(0.1,0,0,-0.1,0,555)"/>
<path style="fill:none;stroke-width:1.2;stroke-linecap:butt;stroke-linejoin:round;stroke:rgb(0%,0%,0%);stroke-opacity:1;stroke-miterlimit:10;" d="M 2802.695312 1157.148438 L 2774.960938 1157.148438 " transform="matrix(0.1,0,0,-0.1,0,555)"/>
<path style="fill:none;stroke-width:1.2;stroke-linecap:butt;stroke-linejoin:round;stroke:rgb(0%,0%,0%);stroke-opacity:1;stroke-miterlimit:10;" d="M 2802.695312 1348.632812 L 2774.960938 1348.632812 " transform="matrix(0.1,0,0,-0.1,0,555)"/>
<path style="fill:none;stroke-width:1.2;stroke-linecap:butt;stroke-linejoin:round;stroke:rgb(0%,0%,0%);stroke-opacity:1;stroke-miterlimit:10;" d="M 2802.695312 1731.523438 L 2774.960938 1731.523438 " transform="matrix(0.1,0,0,-0.1,0,555)"/>
<path style="fill:none;stroke-width:1.2;stroke-linecap:butt;stroke-linejoin:round;stroke:rgb(0%,0%,0%);stroke-opacity:1;stroke-miterlimit:10;" d="M 2802.695312 1923.007812 L 2774.960938 1923.007812 " transform="matrix(0.1,0,0,-0.1,0,555)"/>
<path style="fill:none;stroke-width:1.2;stroke-linecap:butt;stroke-linejoin:round;stroke:rgb(0%,0%,0%);stroke-opacity:1;stroke-miterlimit:10;" d="M 2802.695312 2114.492188 L 2774.960938 2114.492188 " transform="matrix(0.1,0,0,-0.1,0,555)"/>
<path style="fill:none;stroke-width:1.2;stroke-linecap:butt;stroke-linejoin:round;stroke:rgb(0%,0%,0%);stroke-opacity:1;stroke-miterlimit:10;" d="M 2802.695312 2305.9375 L 2774.960938 2305.9375 " transform="matrix(0.1,0,0,-0.1,0,555)"/>
<path style="fill:none;stroke-width:1.2;stroke-linecap:butt;stroke-linejoin:round;stroke:rgb(0%,0%,0%);stroke-opacity:1;stroke-miterlimit:10;" d="M 2802.695312 2688.867188 L 2774.960938 2688.867188 " transform="matrix(0.1,0,0,-0.1,0,555)"/>
<path style="fill:none;stroke-width:1.2;stroke-linecap:butt;stroke-linejoin:round;stroke:rgb(0%,0%,0%);stroke-opacity:1;stroke-miterlimit:10;" d="M 2802.695312 2880.351562 L 2774.960938 2880.351562 " transform="matrix(0.1,0,0,-0.1,0,555)"/>
<path style="fill:none;stroke-width:1.2;stroke-linecap:butt;stroke-linejoin:round;stroke:rgb(0%,0%,0%);stroke-opacity:1;stroke-miterlimit:10;" d="M 2802.695312 3071.796875 L 2774.960938 3071.796875 " transform="matrix(0.1,0,0,-0.1,0,555)"/>
<path style="fill:none;stroke-width:1.2;stroke-linecap:butt;stroke-linejoin:round;stroke:rgb(0%,0%,0%);stroke-opacity:1;stroke-miterlimit:10;" d="M 2802.695312 3263.28125 L 2774.960938 3263.28125 " transform="matrix(0.1,0,0,-0.1,0,555)"/>
<path style="fill:none;stroke-width:1.2;stroke-linecap:butt;stroke-linejoin:round;stroke:rgb(0%,0%,0%);stroke-opacity:1;stroke-miterlimit:10;" d="M 2802.695312 3646.210938 L 2774.960938 3646.210938 " transform="matrix(0.1,0,0,-0.1,0,555)"/>
<path style="fill:none;stroke-width:1.2;stroke-linecap:butt;stroke-linejoin:round;stroke:rgb(0%,0%,0%);stroke-opacity:1;stroke-miterlimit:10;" d="M 2802.695312 3837.65625 L 2774.960938 3837.65625 " transform="matrix(0.1,0,0,-0.1,0,555)"/>
<path style="fill:none;stroke-width:1.2;stroke-linecap:butt;stroke-linejoin:round;stroke:rgb(0%,0%,0%);stroke-opacity:1;stroke-miterlimit:10;" d="M 2802.695312 4029.140625 L 2774.960938 4029.140625 " transform="matrix(0.1,0,0,-0.1,0,555)"/>
<path style="fill:none;stroke-width:1.2;stroke-linecap:butt;stroke-linejoin:round;stroke:rgb(0%,0%,0%);stroke-opacity:1;stroke-miterlimit:10;" d="M 2802.695312 4220.585938 L 2774.960938 4220.585938 " transform="matrix(0.1,0,0,-0.1,0,555)"/>
<path style="fill:none;stroke-width:1.2;stroke-linecap:butt;stroke-linejoin:round;stroke:rgb(0%,0%,0%);stroke-opacity:1;stroke-miterlimit:10;" d="M 2802.695312 4603.515625 L 2774.960938 4603.515625 " transform="matrix(0.1,0,0,-0.1,0,555)"/>
<path style="fill:none;stroke-width:1.2;stroke-linecap:butt;stroke-linejoin:round;stroke:rgb(0%,0%,0%);stroke-opacity:1;stroke-miterlimit:10;" d="M 2802.695312 4795 L 2774.960938 4795 " transform="matrix(0.1,0,0,-0.1,0,555)"/>
<path style="fill:none;stroke-width:1.2;stroke-linecap:butt;stroke-linejoin:round;stroke:rgb(0%,0%,0%);stroke-opacity:1;stroke-miterlimit:10;" d="M 2802.695312 4986.445312 L 2774.960938 4986.445312 " transform="matrix(0.1,0,0,-0.1,0,555)"/>
<path style="fill:none;stroke-width:1.2;stroke-linecap:butt;stroke-linejoin:round;stroke:rgb(0%,0%,0%);stroke-opacity:1;stroke-miterlimit:10;" d="M 2802.695312 5177.929688 L 2774.960938 5177.929688 " transform="matrix(0.1,0,0,-0.1,0,555)"/>
</g>
</svg>
