<?xml version="1.0" encoding="UTF-8"?>
<svg xmlns="http://www.w3.org/2000/svg" xmlns:xlink="http://www.w3.org/1999/xlink" width="555pt" height="555pt" viewBox="0 0 555 555" version="1.1">
<defs>
<clipPath id="clip1">
  <path d="M 540 21 L 543 21 L 543 492.5625 L 540 492.5625 Z M 540 21 "/>
</clipPath>
<clipPath id="clip2">
  <path d="M 452 297 L 468 297 L 468 314.960938 L 452 314.960938 Z M 452 297 "/>
</clipPath>
<clipPath id="clip3">
  <path d="M 423 76 L 439 76 L 439 94.351562 L 423 94.351562 Z M 423 76 "/>
</clipPath>
<clipPath id="clip4">
  <path d="M 461 69 L 480 69 L 480 94.351562 L 461 94.351562 Z M 461 69 "/>
</clipPath>
<clipPath id="clip5">
  <path d="M 481 69 L 487 69 L 487 94.351562 L 481 94.351562 Z M 481 69 "/>
</clipPath>
<clipPath id="clip6">
  <path d="M 506 69 L 512 69 L 512 94.351562 L 506 94.351562 Z M 506 69 "/>
</clipPath>
</defs>
<g id="surface1">
<rect x="0" y="0" width="555" height="555" style="fill:rgb(100%,100%,100%);fill-opacity:1;stroke:none;"/>
<path style="fill:none;stroke-width:27.75;stroke-linecap:butt;stroke-linejoin:round;stroke:rgb(100%,0%,100%);stroke-opacity:1;stroke-miterlimit:10;" d="M 443.984375 2714.726562 L 5418.085938 2714.726562 " transform="matrix(0.1,0,0,-0.1,0,555)"/>
<path style="fill:none;stroke-width:27.75;stroke-linecap:butt;stroke-linejoin:round;stroke:rgb(0%,0%,100%);stroke-opacity:1;stroke-miterlimit:10;" d="M 443.984375 3735.585938 L 470.15625 3742.070312 L 492.890625 3747.148438 L 518.476562 3752.304688 L 544.257812 3756.796875 L 569.882812 3760.585938 L 593.671875 3763.476562 L 618.28125 3765.820312 L 643.710938 3767.539062 L 669.101562 3768.515625 L 695.195312 3768.75 L 718.164062 3768.28125 L 744.0625 3766.992188 L 770.039062 3764.882812 L 795.078125 3762.03125 L 817.8125 3758.789062 L 844.84375 3754.0625 L 867.773438 3749.335938 L 894.414062 3743.007812 L 918.007812 3736.601562 L 943.867188 3728.710938 L 968.515625 3720.390625 L 994.21875 3710.859375 L 1017.8125 3701.328125 L 1043.28125 3690.195312 L 1069.765625 3677.734375 L 1092.773438 3666.09375 L 1117.65625 3652.734375 L 1143.359375 3638.046875 L 1168.476562 3622.8125 L 1192.773438 3607.304688 L 1219.804688 3589.140625 L 1244.0625 3571.992188 L 1269.960938 3552.8125 L 1293.4375 3534.726562 L 1319.101562 3514.101562 L 1343.242188 3493.90625 L 1368.476562 3472.03125 L 1393.164062 3449.882812 L 1419.023438 3425.898438 L 1443.90625 3401.992188 L 1469.335938 3376.796875 L 1494.570312 3351.054688 L 1517.773438 3326.757812 L 1544.335938 3298.164062 L 1568.125 3271.953125 L 1593.4375 3243.359375 L 1617.695312 3215.3125 L 1644.648438 3183.476562 L 1667.96875 3155.351562 L 1694.453125 3122.8125 L 1718.554688 3092.578125 L 1744.960938 3058.945312 L 1767.734375 3029.414062 L 1793.671875 2995.3125 L 1818.710938 2961.875 L 1843.75 2927.96875 L 1868.710938 2893.828125 L 1892.65625 2860.585938 L 1918.554688 2824.296875 L 1943.242188 2789.335938 L 1969.257812 2752.226562 L 1992.734375 2718.359375 L 2018.75 2680.664062 L 2043.632812 2644.296875 L 2068.476562 2607.851562 L 2094.414062 2569.570312 L 2118.320312 2534.21875 L 2142.8125 2497.851562 L 2169.804688 2457.65625 L 2244.726562 2346.015625 L 2268.125 2311.25 L 2293.046875 2274.257812 L 2317.8125 2237.65625 L 2344.257812 2198.710938 L 2367.617188 2164.492188 L 2394.570312 2125.273438 L 2418.867188 2090.117188 L 2442.96875 2055.664062 L 2468.828125 2018.90625 L 2494.804688 1982.421875 L 2518.4375 1949.609375 L 2543.515625 1915.195312 L 2568.007812 1882.03125 L 2594.570312 1846.679688 L 2617.539062 1816.601562 L 2643.945312 1782.617188 L 2668.75 1751.289062 L 2693.28125 1720.898438 L 2717.890625 1691.171875 L 2742.96875 1661.523438 L 2769.53125 1630.9375 L 2793.945312 1603.710938 L 2817.96875 1577.578125 L 2843.710938 1550.46875 L 2869.335938 1524.375 L 2892.382812 1501.796875 L 2919.6875 1476.09375 L 2942.5 1455.46875 L 2969.21875 1432.382812 L 2994.6875 1411.484375 L 3017.421875 1393.75 L 3043.046875 1374.882812 L 3068.789062 1357.109375 L 3094.414062 1340.625 L 3118.203125 1326.445312 L 3142.8125 1312.890625 L 3168.242188 1300.15625 L 3193.632812 1288.75 L 3219.726562 1278.398438 L 3242.695312 1270.429688 L 3268.59375 1262.8125 L 3294.570312 1256.601562 L 3319.609375 1252.03125 L 3342.34375 1249.0625 L 3369.375 1247.109375 L 3392.304688 1246.679688 L 3418.945312 1247.734375 L 3442.539062 1250.039062 L 3468.398438 1254.101562 L 3493.046875 1259.414062 L 3518.75 1266.484375 L 3542.382812 1274.414062 L 3567.8125 1284.453125 L 3594.296875 1296.5625 L 3617.304688 1308.515625 L 3642.1875 1322.851562 L 3667.851562 1339.257812 L 3693.007812 1356.914062 L 3717.34375 1375.46875 L 3744.335938 1397.8125 L 3768.59375 1419.453125 L 3794.492188 1444.140625 L 3817.96875 1467.96875 L 3843.632812 1495.546875 L 3867.8125 1523.007812 L 3893.046875 1553.203125 L 3917.695312 1584.257812 L 3943.554688 1618.359375 L 3968.4375 1652.734375 L 3993.867188 1689.414062 L 4019.101562 1727.34375 L 4042.304688 1763.515625 L 4068.867188 1806.523438 L 4092.65625 1846.367188 L 4118.007812 1890.273438 L 4142.226562 1933.671875 L 4169.179688 1983.398438 L 4192.5 2027.734375 L 4218.984375 2079.492188 L 4243.125 2127.96875 L 4269.492188 2182.382812 L 4292.265625 2230.46875 L 4318.203125 2286.523438 L 4343.28125 2341.875 L 4368.28125 2398.4375 L 4393.242188 2455.976562 L 4417.1875 2512.265625 L 4443.125 2574.296875 L 4467.773438 2634.453125 L 4493.789062 2698.90625 L 4517.304688 2758.164062 L 4543.28125 2824.648438 L 4568.203125 2889.257812 L 4593.046875 2954.609375 L 4618.984375 3023.75 L 4642.851562 3088.203125 L 4667.34375 3154.921875 L 4694.375 3229.414062 L 4718.828125 3297.578125 L 4743.828125 3367.890625 L 4769.296875 3440 L 4792.695312 3506.796875 L 4817.578125 3578.476562 L 4842.34375 3650.039062 L 4868.828125 3727.070312 L 4892.148438 3795.351562 L 4919.101562 3874.492188 L 4943.4375 3946.171875 L 4967.460938 4017.265625 L 4993.359375 4093.90625 L 5092.539062 4388.28125 L 5119.101562 4466.914062 L 5142.109375 4534.84375 L 5168.476562 4612.65625 L 5193.28125 4685.507812 L 5217.851562 4757.34375 L 5242.421875 4828.90625 L 5267.5 4901.445312 L 5294.101562 4977.851562 L 5318.4375 5047.34375 L 5342.5 5115.390625 L 5368.242188 5187.5 L 5393.90625 5258.710938 L 5418.085938 5325.117188 " transform="matrix(0.1,0,0,-0.1,0,555)"/>
<g clip-path="url(#clip1)" clip-rule="nonzero">
<path style="fill:none;stroke-width:20.8125;stroke-linecap:butt;stroke-linejoin:round;stroke:rgb(0%,0%,0%);stroke-opacity:1;stroke-dasharray:208.125,69.375;stroke-miterlimit:10;" d="M 5418.085938 638.242188 L 5418.085938 5325.117188 " transform="matrix(0.1,0,0,-0.1,0,555)"/>
</g>
<path style=" stroke:none;fill-rule:nonzero;fill:rgb(0%,0%,0%);fill-opacity:1;" d="M 90.621094 235.875 L 87.671875 226.941406 C 86.992188 226.957031 86.292969 226.890625 85.570312 226.746094 L 83.988281 232.296875 C 83.769531 233.019531 83.660156 233.628906 83.660156 234.117188 C 83.660156 234.507812 83.792969 234.8125 84.050781 235.027344 C 84.253906 235.1875 84.796875 235.304688 85.679688 235.375 L 85.570312 235.875 L 78.457031 235.875 L 78.589844 235.375 C 79.269531 235.347656 79.722656 235.273438 79.953125 235.160156 C 80.332031 235.015625 80.605469 234.8125 80.777344 234.550781 C 81.066406 234.117188 81.363281 233.367188 81.667969 232.296875 L 84.898438 221.195312 C 85.113281 220.460938 85.222656 219.890625 85.222656 219.484375 C 85.222656 219.066406 85.050781 218.710938 84.714844 218.421875 C 84.375 218.132812 83.886719 217.996094 83.25 218.011719 L 83.402344 217.492188 L 89.40625 217.492188 C 91.402344 217.492188 92.84375 217.871094 93.730469 218.628906 C 94.621094 219.386719 95.066406 220.386719 95.066406 221.632812 C 95.066406 222.816406 94.609375 223.898438 93.699219 224.882812 C 92.789062 225.867188 91.546875 226.488281 89.96875 226.746094 L 91.75 232.121094 C 92.183594 233.4375 92.617188 234.296875 93.050781 234.691406 C 93.484375 235.089844 94.183594 235.320312 95.152344 235.375 L 95 235.875 Z M 85.785156 225.96875 C 86.363281 226.054688 86.886719 226.097656 87.347656 226.097656 C 88.894531 226.097656 90.117188 225.664062 91.023438 224.796875 C 91.925781 223.929688 92.378906 222.859375 92.378906 221.589844 C 92.378906 220.578125 92.09375 219.800781 91.53125 219.269531 C 90.96875 218.730469 90.121094 218.464844 88.996094 218.464844 C 88.707031 218.464844 88.359375 218.503906 87.953125 218.574219 L 85.785156 225.96875 "/>
<path style=" stroke:none;fill-rule:nonzero;fill:rgb(0%,0%,0%);fill-opacity:1;" d="M 105.925781 248.296875 L 104.886719 251.136719 L 96.214844 251.136719 L 96.214844 250.726562 C 98.773438 248.398438 100.570312 246.496094 101.613281 245.023438 C 102.652344 243.550781 103.171875 242.203125 103.171875 240.992188 C 103.171875 240.050781 102.886719 239.28125 102.316406 238.683594 C 101.746094 238.082031 101.0625 237.78125 100.269531 237.78125 C 99.546875 237.78125 98.894531 237.996094 98.316406 238.421875 C 97.738281 238.847656 97.3125 239.464844 97.039062 240.273438 L 96.648438 240.273438 C 96.820312 238.945312 97.285156 237.921875 98.035156 237.207031 C 98.785156 236.492188 99.71875 236.132812 100.832031 236.132812 C 102.03125 236.132812 103.027344 236.519531 103.824219 237.28125 C 104.617188 238.050781 105.015625 238.953125 105.015625 239.992188 C 105.015625 240.730469 104.84375 241.476562 104.496094 242.226562 C 103.960938 243.394531 103.09375 244.632812 101.894531 245.933594 C 100.101562 247.898438 98.980469 249.085938 98.535156 249.488281 L 102.371094 249.488281 C 103.152344 249.488281 103.695312 249.460938 104.007812 249.402344 C 104.320312 249.34375 104.601562 249.230469 104.855469 249.054688 C 105.105469 248.882812 105.328125 248.628906 105.515625 248.296875 L 105.925781 248.296875 "/>
<path style=" stroke:none;fill-rule:nonzero;fill:rgb(0%,0%,0%);fill-opacity:1;" d="M 340.371094 339.9375 L 337.421875 331.003906 C 336.742188 331.019531 336.039062 330.953125 335.316406 330.808594 L 333.738281 336.359375 C 333.519531 337.082031 333.410156 337.691406 333.410156 338.179688 C 333.410156 338.570312 333.539062 338.875 333.800781 339.089844 C 334.003906 339.25 334.546875 339.367188 335.429688 339.4375 L 335.316406 339.9375 L 328.207031 339.9375 L 328.339844 339.4375 C 329.019531 339.410156 329.472656 339.335938 329.703125 339.222656 C 330.078125 339.078125 330.355469 338.875 330.527344 338.613281 C 330.816406 338.179688 331.113281 337.429688 331.417969 336.359375 L 334.648438 325.257812 C 334.863281 324.523438 334.972656 323.953125 334.972656 323.546875 C 334.972656 323.128906 334.800781 322.773438 334.464844 322.484375 C 334.121094 322.195312 333.636719 322.058594 333 322.074219 L 333.152344 321.554688 L 339.15625 321.554688 C 341.152344 321.554688 342.59375 321.933594 343.480469 322.691406 C 344.371094 323.449219 344.8125 324.449219 344.8125 325.691406 C 344.8125 326.878906 344.359375 327.960938 343.449219 328.945312 C 342.539062 329.929688 341.296875 330.550781 339.71875 330.808594 L 341.496094 336.1875 C 341.929688 337.5 342.367188 338.359375 342.796875 338.753906 C 343.234375 339.152344 343.933594 339.382812 344.902344 339.4375 L 344.75 339.9375 Z M 335.535156 330.027344 C 336.113281 330.113281 336.632812 330.160156 337.097656 330.160156 C 338.644531 330.160156 339.867188 329.726562 340.769531 328.859375 C 341.675781 327.992188 342.128906 326.921875 342.128906 325.648438 C 342.128906 324.640625 341.84375 323.863281 341.28125 323.328125 C 340.71875 322.796875 339.871094 322.527344 338.742188 322.527344 C 338.457031 322.527344 338.109375 322.5625 337.703125 322.636719 L 335.535156 330.027344 "/>
<path style=" stroke:none;fill-rule:nonzero;fill:rgb(0%,0%,0%);fill-opacity:1;" d="M 348.089844 341.929688 L 351.664062 340.195312 L 352.035156 340.195312 L 352.035156 352.597656 C 352.035156 353.421875 352.066406 353.933594 352.132812 354.136719 C 352.195312 354.339844 352.339844 354.496094 352.554688 354.605469 C 352.773438 354.710938 353.210938 354.773438 353.875 354.789062 L 353.875 355.199219 L 348.347656 355.199219 L 348.347656 354.789062 C 349.042969 354.773438 349.492188 354.714844 349.691406 354.613281 C 349.894531 354.511719 350.035156 354.371094 350.113281 354.191406 C 350.195312 354.011719 350.234375 353.480469 350.234375 352.597656 L 350.234375 344.664062 C 350.234375 343.59375 350.199219 342.90625 350.125 342.601562 C 350.082031 342.371094 349.992188 342.203125 349.855469 342.09375 C 349.71875 341.984375 349.554688 341.929688 349.367188 341.929688 C 349.105469 341.929688 348.738281 342.046875 348.261719 342.277344 L 348.089844 341.929688 "/>
<g clip-path="url(#clip2)" clip-rule="nonzero">
<path style=" stroke:none;fill-rule:nonzero;fill:rgb(0%,0%,0%);fill-opacity:1;" d="M 459.523438 297.140625 C 459.839844 297.675781 460.054688 298.171875 460.171875 298.625 C 460.289062 299.082031 460.402344 299.972656 460.519531 301.304688 L 461.125 307.980469 C 461.660156 307.332031 462.441406 306.296875 463.46875 304.882812 C 463.972656 304.199219 464.589844 303.269531 465.3125 302.085938 C 465.757812 301.359375 466.035156 300.855469 466.136719 300.566406 C 466.191406 300.421875 466.222656 300.269531 466.222656 300.109375 C 466.222656 300.011719 466.1875 299.929688 466.125 299.871094 C 466.058594 299.816406 465.890625 299.742188 465.625 299.65625 C 465.359375 299.570312 465.136719 299.410156 464.964844 299.179688 C 464.789062 298.949219 464.703125 298.679688 464.703125 298.375 C 464.703125 298.015625 464.8125 297.71875 465.027344 297.488281 C 465.246094 297.257812 465.511719 297.140625 465.832031 297.140625 C 466.234375 297.140625 466.574219 297.308594 466.847656 297.640625 C 467.125 297.972656 467.261719 298.429688 467.261719 299.007812 C 467.261719 299.714844 467.019531 300.527344 466.535156 301.445312 C 466.050781 302.363281 465.113281 303.769531 463.714844 305.671875 C 462.320312 307.574219 460.636719 309.644531 458.65625 311.882812 C 457.296875 313.429688 456.289062 314.402344 455.628906 314.800781 C 454.972656 315.195312 454.40625 315.394531 453.929688 315.394531 C 453.652344 315.394531 453.410156 315.289062 453.191406 315.078125 C 452.972656 314.871094 452.867188 314.628906 452.867188 314.355469 C 452.867188 313.992188 453.015625 313.667969 453.308594 313.378906 C 453.605469 313.089844 453.929688 312.945312 454.277344 312.945312 C 454.449219 312.945312 454.59375 312.988281 454.710938 313.074219 C 454.78125 313.117188 454.859375 313.246094 454.945312 313.457031 C 455.035156 313.664062 455.113281 313.804688 455.1875 313.878906 C 455.242188 313.921875 455.300781 313.941406 455.359375 313.941406 C 455.417969 313.941406 455.511719 313.898438 455.640625 313.8125 C 456.132812 313.511719 456.710938 313.023438 457.375 312.359375 C 458.242188 311.464844 458.886719 310.742188 459.304688 310.191406 L 458.546875 301.585938 C 458.414062 300.167969 458.226562 299.308594 457.972656 299.007812 C 457.71875 298.703125 457.296875 298.550781 456.703125 298.550781 C 456.515625 298.550781 456.175781 298.570312 455.683594 298.613281 L 455.554688 298.117188 L 459.523438 297.140625 "/>
</g>
<path style=" stroke:none;fill-rule:nonzero;fill:rgb(0%,0%,0%);fill-opacity:1;" d="M 473.636719 297.445312 L 488.269531 297.445312 L 488.269531 298.550781 L 473.636719 298.550781 Z M 473.636719 301.867188 L 488.269531 301.867188 L 488.269531 302.972656 L 473.636719 302.972656 L 473.636719 301.867188 "/>
<path style=" stroke:none;fill-rule:nonzero;fill:rgb(0%,0%,0%);fill-opacity:1;" d="M 509.621094 290.617188 L 508.234375 305.898438 C 508.164062 306.609375 508.128906 307.078125 508.128906 307.308594 C 508.128906 307.671875 508.191406 307.945312 508.324219 308.132812 C 508.496094 308.394531 508.730469 308.589844 509.027344 308.71875 C 509.324219 308.847656 509.820312 308.914062 510.511719 308.914062 L 510.359375 309.410156 L 503.121094 309.410156 L 503.269531 308.914062 L 503.597656 308.914062 C 504.175781 308.914062 504.652344 308.78125 505.027344 308.523438 C 505.285156 308.351562 505.488281 308.066406 505.632812 307.679688 C 505.734375 307.402344 505.828125 306.746094 505.917969 305.703125 L 506.132812 303.363281 L 500.886719 303.363281 L 499 305.898438 C 498.582031 306.464844 498.316406 306.871094 498.210938 307.125 C 498.101562 307.378906 498.046875 307.613281 498.046875 307.828125 C 498.046875 308.117188 498.167969 308.367188 498.402344 308.578125 C 498.644531 308.785156 499.03125 308.898438 499.5625 308.914062 L 499.414062 309.410156 L 493.972656 309.410156 L 494.121094 308.914062 C 494.800781 308.882812 495.394531 308.660156 495.902344 308.242188 C 496.40625 307.820312 497.164062 306.925781 498.175781 305.550781 L 509.167969 290.617188 Z M 506.957031 295.125 L 501.625 302.386719 L 506.242188 302.386719 Z M 516.492188 309.824219 L 518.011719 294.539062 C 518.082031 293.757812 518.117188 293.230469 518.117188 292.957031 C 518.117188 292.554688 517.972656 292.214844 517.675781 291.949219 C 517.378906 291.683594 516.90625 291.546875 516.253906 291.546875 L 515.757812 291.546875 L 515.886719 291.027344 L 523.148438 291.027344 L 522.996094 291.546875 C 522.203125 291.546875 521.660156 291.621094 521.371094 291.777344 C 521.082031 291.925781 520.851562 292.191406 520.675781 292.566406 C 520.589844 292.769531 520.496094 293.332031 520.394531 294.257812 L 519.3125 305.226562 L 526.464844 295.449219 C 527.246094 294.378906 527.738281 293.644531 527.941406 293.238281 C 528.070312 292.949219 528.136719 292.703125 528.136719 292.503906 C 528.136719 292.257812 528.035156 292.042969 527.832031 291.863281 C 527.628906 291.683594 527.238281 291.574219 526.660156 291.546875 L 526.835938 291.027344 L 532.363281 291.027344 L 532.210938 291.546875 C 531.777344 291.574219 531.429688 291.65625 531.171875 291.785156 C 530.664062 292.03125 530.164062 292.394531 529.675781 292.871094 C 529.183594 293.347656 528.402344 294.316406 527.332031 295.773438 L 516.992188 309.824219 L 516.492188 309.824219 "/>
<path style=" stroke:none;fill-rule:nonzero;fill:rgb(0%,0%,0%);fill-opacity:1;" d="M 498.546875 235.875 L 495.597656 226.941406 C 494.917969 226.957031 494.214844 226.890625 493.492188 226.746094 L 491.910156 232.296875 C 491.695312 233.019531 491.585938 233.628906 491.585938 234.117188 C 491.585938 234.507812 491.714844 234.8125 491.976562 235.027344 C 492.179688 235.1875 492.722656 235.304688 493.601562 235.375 L 493.492188 235.875 L 486.382812 235.875 L 486.511719 235.375 C 487.191406 235.347656 487.648438 235.273438 487.878906 235.160156 C 488.253906 235.015625 488.527344 234.8125 488.703125 234.550781 C 488.992188 234.117188 489.289062 233.367188 489.59375 232.296875 L 492.820312 221.195312 C 493.039062 220.460938 493.144531 219.890625 493.144531 219.484375 C 493.144531 219.066406 492.976562 218.710938 492.636719 218.421875 C 492.296875 218.132812 491.8125 217.996094 491.175781 218.011719 L 491.324219 217.492188 L 497.332031 217.492188 C 499.328125 217.492188 500.769531 217.871094 501.65625 218.628906 C 502.546875 219.386719 502.988281 220.386719 502.988281 221.632812 C 502.988281 222.816406 502.535156 223.898438 501.625 224.882812 C 500.714844 225.867188 499.472656 226.488281 497.894531 226.746094 L 499.671875 232.121094 C 500.105469 233.4375 500.539062 234.296875 500.972656 234.691406 C 501.40625 235.089844 502.109375 235.320312 503.078125 235.375 L 502.925781 235.875 Z M 493.710938 225.96875 C 494.289062 226.054688 494.808594 226.097656 495.273438 226.097656 C 496.816406 226.097656 498.042969 225.664062 498.945312 224.796875 C 499.851562 223.929688 500.300781 222.859375 500.300781 221.589844 C 500.300781 220.578125 500.019531 219.800781 499.453125 219.269531 C 498.890625 218.730469 498.046875 218.464844 496.917969 218.464844 C 496.632812 218.464844 496.285156 218.503906 495.878906 218.574219 L 493.710938 225.96875 "/>
<path style=" stroke:none;fill-rule:nonzero;fill:rgb(0%,0%,0%);fill-opacity:1;" d="M 513.851562 248.296875 L 512.808594 251.136719 L 504.136719 251.136719 L 504.136719 250.726562 C 506.695312 248.398438 508.496094 246.496094 509.535156 245.023438 C 510.578125 243.550781 511.097656 242.203125 511.097656 240.992188 C 511.097656 240.050781 510.8125 239.28125 510.242188 238.683594 C 509.671875 238.082031 508.988281 237.78125 508.191406 237.78125 C 507.46875 237.78125 506.820312 237.996094 506.242188 238.421875 C 505.664062 238.847656 505.238281 239.464844 504.964844 240.273438 L 504.574219 240.273438 C 504.746094 238.945312 505.207031 237.921875 505.960938 237.207031 C 506.710938 236.492188 507.644531 236.132812 508.757812 236.132812 C 509.957031 236.132812 510.953125 236.519531 511.75 237.28125 C 512.542969 238.050781 512.941406 238.953125 512.941406 239.992188 C 512.941406 240.730469 512.765625 241.476562 512.421875 242.226562 C 511.886719 243.394531 511.019531 244.632812 509.820312 245.933594 C 508.027344 247.898438 506.90625 249.085938 506.457031 249.488281 L 510.296875 249.488281 C 511.074219 249.488281 511.621094 249.460938 511.933594 249.402344 C 512.242188 249.34375 512.527344 249.230469 512.777344 249.054688 C 513.03125 248.882812 513.253906 248.628906 513.4375 248.296875 L 513.851562 248.296875 "/>
<g clip-path="url(#clip3)" clip-rule="nonzero">
<path style=" stroke:none;fill-rule:nonzero;fill:rgb(0%,0%,0%);fill-opacity:1;" d="M 430.382812 76.527344 C 430.703125 77.0625 430.917969 77.558594 431.035156 78.015625 C 431.148438 78.46875 431.265625 79.363281 431.382812 80.691406 L 431.988281 87.367188 C 432.523438 86.71875 433.304688 85.683594 434.328125 84.269531 C 434.835938 83.589844 435.449219 82.65625 436.171875 81.472656 C 436.621094 80.75 436.894531 80.242188 436.996094 79.953125 C 437.054688 79.808594 437.082031 79.65625 437.082031 79.5 C 437.082031 79.398438 437.050781 79.320312 436.984375 79.261719 C 436.921875 79.203125 436.753906 79.132812 436.488281 79.042969 C 436.21875 78.957031 436 78.796875 435.824219 78.566406 C 435.652344 78.335938 435.566406 78.066406 435.566406 77.765625 C 435.566406 77.402344 435.675781 77.105469 435.890625 76.875 C 436.109375 76.644531 436.375 76.527344 436.691406 76.527344 C 437.097656 76.527344 437.4375 76.695312 437.710938 77.027344 C 437.988281 77.359375 438.125 77.816406 438.125 78.394531 C 438.125 79.101562 437.882812 79.914062 437.398438 80.832031 C 436.914062 81.75 435.976562 83.160156 434.578125 85.058594 C 433.183594 86.960938 431.496094 89.03125 429.515625 91.269531 C 428.160156 92.816406 427.148438 93.789062 426.492188 94.1875 C 425.835938 94.585938 425.269531 94.785156 424.789062 94.785156 C 424.515625 94.785156 424.269531 94.679688 424.054688 94.46875 C 423.835938 94.261719 423.730469 94.019531 423.730469 93.742188 C 423.730469 93.382812 423.878906 93.054688 424.171875 92.765625 C 424.46875 92.476562 424.789062 92.335938 425.136719 92.335938 C 425.3125 92.335938 425.457031 92.378906 425.570312 92.464844 C 425.644531 92.507812 425.722656 92.632812 425.808594 92.84375 C 425.898438 93.054688 425.976562 93.195312 426.046875 93.265625 C 426.105469 93.308594 426.164062 93.332031 426.222656 93.332031 C 426.28125 93.332031 426.371094 93.285156 426.503906 93.199219 C 426.996094 92.898438 427.574219 92.414062 428.238281 91.746094 C 429.105469 90.851562 429.75 90.128906 430.167969 89.578125 L 429.410156 80.972656 C 429.277344 79.558594 429.085938 78.695312 428.835938 78.394531 C 428.582031 78.089844 428.160156 77.9375 427.566406 77.9375 C 427.378906 77.9375 427.039062 77.960938 426.546875 78.003906 L 426.417969 77.503906 L 430.382812 76.527344 "/>
</g>
<path style=" stroke:none;fill-rule:nonzero;fill:rgb(0%,0%,0%);fill-opacity:1;" d="M 444.496094 76.832031 L 459.132812 76.832031 L 459.132812 77.9375 L 444.496094 77.9375 Z M 444.496094 81.253906 L 459.132812 81.253906 L 459.132812 82.359375 L 444.496094 82.359375 L 444.496094 81.253906 "/>
<g clip-path="url(#clip4)" clip-rule="nonzero">
<path style=" stroke:none;fill-rule:nonzero;fill:rgb(0%,0%,0%);fill-opacity:1;" d="M 474.414062 76.855469 L 474.179688 77.765625 L 472.203125 77.765625 L 470.710938 83.683594 C 470.058594 86.285156 469.394531 88.300781 468.714844 89.730469 C 467.773438 91.753906 466.757812 93.148438 465.65625 93.914062 C 464.820312 94.496094 463.988281 94.785156 463.164062 94.785156 C 462.613281 94.785156 462.152344 94.625 461.777344 94.308594 C 461.503906 94.074219 461.363281 93.777344 461.363281 93.417969 C 461.363281 93.128906 461.480469 92.878906 461.710938 92.671875 C 461.941406 92.460938 462.226562 92.355469 462.558594 92.355469 C 462.804688 92.355469 463.007812 92.429688 463.175781 92.582031 C 463.34375 92.734375 463.425781 92.910156 463.425781 93.113281 C 463.425781 93.316406 463.332031 93.496094 463.140625 93.65625 C 462.996094 93.785156 462.925781 93.886719 462.925781 93.960938 C 462.925781 94.03125 462.953125 94.089844 463.011719 94.132812 C 463.097656 94.203125 463.230469 94.242188 463.402344 94.242188 C 463.777344 94.242188 464.183594 94.117188 464.617188 93.871094 C 465.050781 93.628906 465.433594 93.261719 465.765625 92.777344 C 466.097656 92.292969 466.414062 91.597656 466.71875 90.6875 C 466.847656 90.308594 467.1875 89.058594 467.738281 86.9375 L 470.078125 77.765625 L 467.738281 77.765625 L 467.910156 76.855469 C 468.664062 76.855469 469.191406 76.804688 469.496094 76.703125 C 469.796875 76.601562 470.074219 76.402344 470.316406 76.105469 C 470.5625 75.808594 470.882812 75.265625 471.273438 74.46875 C 471.808594 73.386719 472.320312 72.539062 472.8125 71.933594 C 473.476562 71.136719 474.179688 70.539062 474.914062 70.132812 C 475.652344 69.730469 476.34375 69.527344 476.996094 69.527344 C 477.691406 69.527344 478.242188 69.699219 478.652344 70.046875 C 479.066406 70.394531 479.269531 70.769531 479.269531 71.175781 C 479.269531 71.492188 479.167969 71.761719 478.957031 71.976562 C 478.746094 72.191406 478.484375 72.300781 478.167969 72.300781 C 477.894531 72.300781 477.664062 72.222656 477.484375 72.0625 C 477.304688 71.902344 477.214844 71.710938 477.214844 71.476562 C 477.214844 71.332031 477.269531 71.15625 477.386719 70.945312 C 477.5 70.738281 477.558594 70.597656 477.558594 70.523438 C 477.558594 70.394531 477.523438 70.300781 477.449219 70.242188 C 477.335938 70.140625 477.164062 70.089844 476.929688 70.089844 C 476.367188 70.089844 475.855469 70.269531 475.390625 70.632812 C 474.796875 71.125 474.257812 71.875 473.765625 72.886719 C 473.535156 73.421875 473.09375 74.742188 472.445312 76.855469 L 474.414062 76.855469 "/>
</g>
<path style=" stroke:none;fill-rule:nonzero;fill:rgb(0%,0%,0%);fill-opacity:1;" d="M 495.988281 76.527344 C 496.433594 77.007812 496.769531 77.476562 496.984375 77.9375 C 497.144531 78.269531 497.410156 79.121094 497.785156 80.496094 L 498.980469 78.71875 C 499.296875 78.285156 499.679688 77.871094 500.128906 77.484375 C 500.578125 77.09375 500.972656 76.824219 501.320312 76.679688 C 501.535156 76.578125 501.773438 76.527344 502.035156 76.527344 C 502.425781 76.527344 502.738281 76.632812 502.96875 76.84375 C 503.199219 77.054688 503.316406 77.308594 503.316406 77.613281 C 503.316406 77.945312 503.25 78.175781 503.121094 78.308594 C 502.859375 78.539062 502.570312 78.652344 502.253906 78.652344 C 502.066406 78.652344 501.863281 78.609375 501.644531 78.523438 C 501.210938 78.378906 500.921875 78.308594 500.777344 78.308594 C 500.5625 78.308594 500.308594 78.4375 500.019531 78.695312 C 499.453125 79.160156 498.785156 80.0625 498.003906 81.40625 L 499.109375 86.066406 C 499.28125 86.789062 499.425781 87.222656 499.542969 87.359375 C 499.65625 87.496094 499.78125 87.5625 499.910156 87.5625 C 500.101562 87.5625 500.316406 87.464844 500.5625 87.261719 C 501.066406 86.839844 501.492188 86.300781 501.839844 85.636719 L 502.316406 85.871094 C 501.738281 86.941406 501.015625 87.824219 500.148438 88.519531 C 499.644531 88.921875 499.226562 89.125 498.890625 89.125 C 498.386719 89.125 497.980469 88.84375 497.679688 88.28125 C 497.492188 87.917969 497.101562 86.402344 496.507812 83.726562 C 495.089844 86.171875 493.957031 87.746094 493.105469 88.453125 C 492.554688 88.902344 492.027344 89.125 491.523438 89.125 C 491.160156 89.125 490.828125 88.996094 490.523438 88.734375 C 490.308594 88.53125 490.199219 88.265625 490.199219 87.933594 C 490.199219 87.628906 490.296875 87.378906 490.492188 87.183594 C 490.6875 86.988281 490.9375 86.890625 491.238281 86.890625 C 491.527344 86.890625 491.832031 87.035156 492.148438 87.324219 C 492.382812 87.527344 492.5625 87.628906 492.691406 87.628906 C 492.808594 87.628906 492.945312 87.558594 493.105469 87.410156 C 493.539062 87.066406 494.117188 86.324219 494.847656 85.191406 C 495.578125 84.054688 496.058594 83.234375 496.289062 82.730469 C 495.726562 80.53125 495.421875 79.367188 495.378906 79.238281 C 495.164062 78.660156 494.890625 78.25 494.554688 78.003906 C 494.222656 77.757812 493.730469 77.636719 493.082031 77.636719 C 492.878906 77.636719 492.640625 77.640625 492.367188 77.65625 L 492.367188 77.179688 L 495.988281 76.527344 "/>
<g clip-path="url(#clip5)" clip-rule="nonzero">
<path style=" stroke:none;fill-rule:nonzero;fill:rgb(0%,0%,0%);fill-opacity:1;" d="M 486.992188 93.714844 L 486.59375 94.351562 C 483.171875 92.226562 481.464844 87.980469 481.464844 81.613281 L 481.464844 82.113281 C 481.464844 75.722656 483.171875 71.476562 486.59375 69.375 L 486.992188 69.980469 C 485.472656 71.273438 484.457031 73.097656 483.941406 75.441406 C 483.628906 76.894531 483.472656 78.953125 483.472656 81.613281 L 483.472656 82.113281 C 483.472656 84.75 483.628906 86.796875 483.941406 88.246094 C 484.457031 90.59375 485.472656 92.417969 486.992188 93.714844 "/>
</g>
<g clip-path="url(#clip6)" clip-rule="nonzero">
<path style=" stroke:none;fill-rule:nonzero;fill:rgb(0%,0%,0%);fill-opacity:1;" d="M 506.4375 70.011719 L 506.839844 69.375 C 510.257812 71.496094 511.96875 75.742188 511.96875 82.113281 L 511.96875 81.613281 C 511.96875 88.003906 510.257812 92.25 506.839844 94.351562 L 506.4375 93.746094 C 507.957031 92.449219 508.972656 90.628906 509.488281 88.28125 C 509.800781 86.828125 509.957031 84.773438 509.957031 82.113281 L 509.957031 81.613281 C 509.957031 78.976562 509.800781 76.929688 509.488281 75.476562 C 508.972656 73.128906 507.957031 71.308594 506.4375 70.011719 "/>
</g>
<path style="fill:none;stroke-width:13.875;stroke-linecap:butt;stroke-linejoin:round;stroke:rgb(0%,0%,0%);stroke-opacity:1;stroke-miterlimit:10;" d="M 416.25 638.242188 L 5418.085938 638.242188 " transform="matrix(0.1,0,0,-0.1,0,555)"/>
<path style=" stroke:none;fill-rule:nonzero;fill:rgb(0%,0%,0%);fill-opacity:1;" d="M 292.199219 533.320312 C 292.53125 533.667969 292.78125 534.019531 292.957031 534.382812 C 293.085938 534.613281 293.289062 535.25 293.5625 536.289062 L 294.453125 534.945312 C 294.683594 534.628906 294.96875 534.320312 295.308594 534.023438 C 295.648438 533.726562 295.949219 533.523438 296.210938 533.40625 C 296.367188 533.347656 296.550781 533.320312 296.753906 533.320312 C 297.039062 533.320312 297.273438 533.394531 297.445312 533.546875 C 297.617188 533.699219 297.703125 533.890625 297.703125 534.121094 C 297.703125 534.382812 297.65625 534.554688 297.554688 534.644531 C 297.363281 534.816406 297.148438 534.902344 296.902344 534.902344 C 296.757812 534.902344 296.605469 534.871094 296.449219 534.816406 C 296.128906 534.699219 295.910156 534.644531 295.796875 534.644531 C 295.636719 534.644531 295.449219 534.734375 295.234375 534.925781 C 294.8125 535.285156 294.308594 535.972656 293.714844 536.984375 L 294.5625 540.472656 C 294.691406 541.007812 294.800781 541.328125 294.886719 541.425781 C 294.972656 541.527344 295.058594 541.582031 295.144531 541.582031 C 295.289062 541.582031 295.457031 541.507812 295.644531 541.363281 C 296.023438 541.042969 296.339844 540.632812 296.597656 540.128906 L 296.945312 540.320312 C 296.527344 541.117188 295.984375 541.78125 295.320312 542.316406 C 294.960938 542.605469 294.648438 542.75 294.386719 542.75 C 293.996094 542.75 293.691406 542.539062 293.476562 542.121094 C 293.332031 541.847656 293.035156 540.703125 292.589844 538.695312 C 291.53125 540.53125 290.6875 541.71875 290.050781 542.25 C 289.632812 542.585938 289.234375 542.75 288.859375 542.75 C 288.585938 542.75 288.332031 542.65625 288.101562 542.46875 C 287.941406 542.308594 287.863281 542.105469 287.863281 541.863281 C 287.863281 541.644531 287.9375 541.460938 288.089844 541.308594 C 288.242188 541.15625 288.425781 541.082031 288.644531 541.082031 C 288.859375 541.082031 289.089844 541.1875 289.335938 541.40625 C 289.511719 541.566406 289.648438 541.644531 289.75 541.644531 C 289.820312 541.644531 289.921875 541.585938 290.050781 541.472656 C 290.371094 541.210938 290.804688 540.65625 291.351562 539.800781 C 291.902344 538.949219 292.261719 538.335938 292.4375 537.957031 C 292.019531 536.3125 291.785156 535.445312 291.742188 535.355469 C 291.597656 534.910156 291.398438 534.59375 291.144531 534.414062 C 290.894531 534.234375 290.523438 534.144531 290.03125 534.144531 C 289.871094 534.144531 289.691406 534.152344 289.488281 534.164062 L 289.488281 533.796875 L 292.199219 533.320312 "/>
<path style="fill:none;stroke-width:1.2;stroke-linecap:butt;stroke-linejoin:round;stroke:rgb(0%,0%,0%);stroke-opacity:1;stroke-miterlimit:10;" d="M 443.984375 638.242188 L 443.984375 582.734375 " transform="matrix(0.1,0,0,-0.1,0,555)"/>
<path style=" stroke:none;fill-rule:nonzero;fill:rgb(0%,0%,0%);fill-opacity:1;" d="M 42.6875 506.5 L 46.027344 504.855469 L 46.371094 504.855469 L 46.371094 516.496094 C 46.371094 517.261719 46.40625 517.742188 46.46875 517.9375 C 46.535156 518.132812 46.667969 518.28125 46.871094 518.382812 C 47.074219 518.484375 47.484375 518.542969 48.105469 518.554688 L 48.105469 518.925781 L 42.925781 518.925781 L 42.925781 518.554688 C 43.578125 518.542969 43.996094 518.484375 44.183594 518.382812 C 44.371094 518.28125 44.5 518.148438 44.574219 517.980469 C 44.644531 517.816406 44.679688 517.320312 44.679688 516.496094 L 44.679688 509.058594 C 44.679688 508.046875 44.652344 507.40625 44.59375 507.132812 C 44.535156 506.914062 44.445312 506.753906 44.324219 506.652344 C 44.203125 506.550781 44.054688 506.5 43.878906 506.5 C 43.621094 506.5 43.273438 506.601562 42.839844 506.804688 L 42.6875 506.5 "/>
<path style="fill:none;stroke-width:1.2;stroke-linecap:butt;stroke-linejoin:round;stroke:rgb(0%,0%,0%);stroke-opacity:1;stroke-miterlimit:10;" d="M 1438.828125 638.242188 L 1438.828125 582.734375 " transform="matrix(0.1,0,0,-0.1,0,555)"/>
<path style=" stroke:none;fill-rule:nonzero;fill:rgb(0%,0%,0%);fill-opacity:1;" d="M 148.289062 516.277344 L 147.335938 518.925781 L 139.203125 518.925781 L 139.203125 518.554688 C 141.589844 516.375 143.269531 514.589844 144.246094 513.203125 C 145.222656 511.8125 145.707031 510.546875 145.707031 509.40625 C 145.707031 508.539062 145.441406 507.824219 144.90625 507.261719 C 144.371094 506.695312 143.730469 506.414062 142.976562 506.414062 C 142.3125 506.414062 141.707031 506.613281 141.167969 507.011719 C 140.625 507.410156 140.222656 507.988281 139.964844 508.757812 L 139.59375 508.757812 C 139.769531 507.5 140.203125 506.535156 140.90625 505.863281 C 141.605469 505.191406 142.476562 504.855469 143.519531 504.855469 C 144.648438 504.855469 145.582031 505.214844 146.324219 505.9375 C 147.070312 506.660156 147.441406 507.507812 147.441406 508.472656 C 147.441406 509.167969 147.285156 509.871094 146.964844 510.578125 C 146.460938 511.675781 145.644531 512.832031 144.515625 514.046875 C 142.839844 515.894531 141.785156 517.007812 141.351562 517.386719 L 144.949219 517.386719 C 145.6875 517.386719 146.203125 517.359375 146.5 517.308594 C 146.796875 517.257812 147.0625 517.152344 147.304688 516.984375 C 147.539062 516.816406 147.746094 516.582031 147.921875 516.277344 L 148.289062 516.277344 "/>
<path style="fill:none;stroke-width:1.2;stroke-linecap:butt;stroke-linejoin:round;stroke:rgb(0%,0%,0%);stroke-opacity:1;stroke-miterlimit:10;" d="M 2433.632812 638.242188 L 2433.632812 582.734375 " transform="matrix(0.1,0,0,-0.1,0,555)"/>
<path style=" stroke:none;fill-rule:nonzero;fill:rgb(0%,0%,0%);fill-opacity:1;" d="M 239.710938 507.761719 C 240.101562 506.835938 240.597656 506.117188 241.195312 505.613281 C 241.796875 505.105469 242.546875 504.855469 243.441406 504.855469 C 244.539062 504.855469 245.386719 505.214844 245.976562 505.9375 C 246.425781 506.472656 246.648438 507.042969 246.648438 507.652344 C 246.648438 508.664062 246.019531 509.703125 244.761719 510.773438 C 245.601562 511.105469 246.238281 511.578125 246.671875 512.191406 C 247.105469 512.808594 247.320312 513.53125 247.320312 514.371094 C 247.320312 515.554688 246.945312 516.582031 246.195312 517.449219 C 245.195312 518.59375 243.765625 519.160156 241.902344 519.160156 C 240.960938 519.160156 240.324219 519.046875 239.992188 518.816406 C 239.660156 518.585938 239.496094 518.339844 239.496094 518.078125 C 239.496094 517.875 239.574219 517.703125 239.734375 517.558594 C 239.890625 517.414062 240.078125 517.34375 240.296875 517.34375 C 240.46875 517.34375 240.644531 517.371094 240.816406 517.425781 C 240.933594 517.457031 241.195312 517.578125 241.609375 517.785156 C 242.019531 517.996094 242.300781 518.121094 242.441406 518.164062 C 242.703125 518.238281 242.972656 518.273438 243.246094 518.273438 C 243.9375 518.273438 244.542969 518.007812 245.054688 517.472656 C 245.570312 516.9375 245.824219 516.308594 245.824219 515.585938 C 245.824219 515.050781 245.710938 514.53125 245.476562 514.023438 C 245.289062 513.632812 245.09375 513.34375 244.894531 513.15625 C 244.605469 512.882812 244.203125 512.636719 243.6875 512.421875 C 243.175781 512.203125 242.660156 512.09375 242.140625 512.09375 L 241.816406 512.09375 L 241.816406 511.769531 C 242.347656 511.714844 242.886719 511.523438 243.417969 511.207031 C 243.953125 510.890625 244.34375 510.503906 244.589844 510.058594 C 244.835938 509.609375 244.957031 509.117188 244.957031 508.582031 C 244.957031 507.890625 244.742188 507.324219 244.308594 506.894531 C 243.875 506.457031 243.332031 506.242188 242.683594 506.242188 C 241.625 506.242188 240.746094 506.804688 240.039062 507.933594 L 239.710938 507.761719 "/>
<path style="fill:none;stroke-width:1.2;stroke-linecap:butt;stroke-linejoin:round;stroke:rgb(0%,0%,0%);stroke-opacity:1;stroke-miterlimit:10;" d="M 3428.476562 638.242188 L 3428.476562 582.734375 " transform="matrix(0.1,0,0,-0.1,0,555)"/>
<path style=" stroke:none;fill-rule:nonzero;fill:rgb(0%,0%,0%);fill-opacity:1;" d="M 348.238281 513.851562 L 348.238281 515.28125 L 346.375 515.28125 L 346.375 518.925781 L 344.707031 518.925781 L 344.707031 515.28125 L 338.875 515.28125 L 338.875 513.980469 L 345.269531 504.855469 L 346.375 504.855469 L 346.375 513.851562 Z M 344.707031 513.851562 L 344.707031 507 L 339.871094 513.851562 L 344.707031 513.851562 "/>
<path style="fill:none;stroke-width:1.2;stroke-linecap:butt;stroke-linejoin:round;stroke:rgb(0%,0%,0%);stroke-opacity:1;stroke-miterlimit:10;" d="M 4423.28125 638.242188 L 4423.28125 582.734375 " transform="matrix(0.1,0,0,-0.1,0,555)"/>
<path style=" stroke:none;fill-rule:nonzero;fill:rgb(0%,0%,0%);fill-opacity:1;" d="M 446.101562 505.136719 L 445.300781 506.871094 L 441.160156 506.871094 L 440.246094 508.714844 C 442.039062 508.988281 443.464844 509.660156 444.519531 510.730469 C 445.414062 511.640625 445.863281 512.722656 445.863281 513.980469 C 445.863281 514.703125 445.71875 515.371094 445.429688 515.984375 C 445.140625 516.601562 444.773438 517.125 444.324219 517.558594 C 443.878906 517.992188 443.378906 518.339844 442.828125 518.597656 C 442.046875 518.976562 441.246094 519.160156 440.421875 519.160156 C 439.597656 519.160156 438.996094 519.023438 438.621094 518.742188 C 438.246094 518.457031 438.058594 518.152344 438.058594 517.820312 C 438.058594 517.628906 438.140625 517.464844 438.296875 517.320312 C 438.457031 517.175781 438.652344 517.101562 438.882812 517.101562 C 439.054688 517.101562 439.207031 517.128906 439.339844 517.179688 C 439.46875 517.230469 439.691406 517.371094 440.011719 517.601562 C 440.53125 517.949219 441.050781 518.121094 441.570312 518.121094 C 442.367188 518.121094 443.058594 517.820312 443.652344 517.222656 C 444.246094 516.621094 444.539062 515.890625 444.539062 515.023438 C 444.539062 514.199219 444.273438 513.425781 443.738281 512.703125 C 443.203125 511.980469 442.46875 511.421875 441.527344 511.03125 C 440.789062 510.730469 439.785156 510.546875 438.515625 510.488281 L 441.160156 505.136719 L 446.101562 505.136719 "/>
<path style="fill:none;stroke-width:1.2;stroke-linecap:butt;stroke-linejoin:round;stroke:rgb(0%,0%,0%);stroke-opacity:1;stroke-miterlimit:10;" d="M 5418.085938 638.242188 L 5418.085938 582.734375 " transform="matrix(0.1,0,0,-0.1,0,555)"/>
<path style=" stroke:none;fill-rule:nonzero;fill:rgb(0%,0%,0%);fill-opacity:1;" d="M 546.285156 504.855469 L 546.285156 505.242188 C 545.386719 505.332031 544.65625 505.507812 544.09375 505.777344 C 543.53125 506.042969 542.976562 506.453125 542.425781 507 C 541.875 507.550781 541.421875 508.160156 541.058594 508.832031 C 540.699219 509.503906 540.394531 510.304688 540.148438 511.226562 C 541.117188 510.5625 542.09375 510.230469 543.074219 510.230469 C 544.015625 510.230469 544.832031 510.609375 545.523438 511.367188 C 546.21875 512.128906 546.566406 513.101562 546.566406 514.285156 C 546.566406 515.441406 546.21875 516.496094 545.523438 517.449219 C 544.6875 518.59375 543.574219 519.160156 542.1875 519.160156 C 541.246094 519.160156 540.445312 518.851562 539.78125 518.230469 C 538.492188 517.015625 537.851562 515.449219 537.851562 513.527344 C 537.851562 512.28125 538.101562 511.109375 538.597656 510.003906 C 539.097656 508.898438 539.804688 507.910156 540.722656 507.042969 C 541.640625 506.175781 542.519531 505.59375 543.355469 505.296875 C 544.195312 505.003906 544.976562 504.855469 545.699219 504.855469 Z M 539.976562 511.964844 C 539.847656 512.890625 539.78125 513.632812 539.78125 514.199219 C 539.78125 514.847656 539.902344 515.554688 540.148438 516.3125 C 540.394531 517.070312 540.75 517.675781 541.210938 518.121094 C 541.558594 518.441406 541.984375 518.597656 542.488281 518.597656 C 543.070312 518.597656 543.59375 518.320312 544.0625 517.765625 C 544.53125 517.207031 544.765625 516.417969 544.765625 515.390625 C 544.765625 514.234375 544.535156 513.234375 544.074219 512.386719 C 543.609375 511.542969 542.953125 511.121094 542.101562 511.121094 C 541.839844 511.121094 541.566406 511.175781 541.277344 511.28125 C 540.988281 511.390625 540.554688 511.617188 539.976562 511.964844 "/>
<path style="fill:none;stroke-width:1.2;stroke-linecap:butt;stroke-linejoin:round;stroke:rgb(0%,0%,0%);stroke-opacity:1;stroke-miterlimit:10;" d="M 941.40625 638.242188 L 941.40625 610.507812 " transform="matrix(0.1,0,0,-0.1,0,555)"/>
<path style="fill:none;stroke-width:1.2;stroke-linecap:butt;stroke-linejoin:round;stroke:rgb(0%,0%,0%);stroke-opacity:1;stroke-miterlimit:10;" d="M 1936.210938 638.242188 L 1936.210938 610.507812 " transform="matrix(0.1,0,0,-0.1,0,555)"/>
<path style="fill:none;stroke-width:1.2;stroke-linecap:butt;stroke-linejoin:round;stroke:rgb(0%,0%,0%);stroke-opacity:1;stroke-miterlimit:10;" d="M 2931.054688 638.242188 L 2931.054688 610.507812 " transform="matrix(0.1,0,0,-0.1,0,555)"/>
<path style="fill:none;stroke-width:1.2;stroke-linecap:butt;stroke-linejoin:round;stroke:rgb(0%,0%,0%);stroke-opacity:1;stroke-miterlimit:10;" d="M 3925.859375 638.242188 L 3925.859375 610.507812 " transform="matrix(0.1,0,0,-0.1,0,555)"/>
<path style="fill:none;stroke-width:1.2;stroke-linecap:butt;stroke-linejoin:round;stroke:rgb(0%,0%,0%);stroke-opacity:1;stroke-miterlimit:10;" d="M 4920.703125 638.242188 L 4920.703125 610.507812 " transform="matrix(0.1,0,0,-0.1,0,555)"/>
<path style="fill:none;stroke-width:13.875;stroke-linecap:butt;stroke-linejoin:round;stroke:rgb(0%,0%,0%);stroke-opacity:1;stroke-miterlimit:10;" d="M 416.25 638.242188 L 416.25 5355.546875 " transform="matrix(0.1,0,0,-0.1,0,555)"/>
<path style="fill:none;stroke-width:1.2;stroke-linecap:butt;stroke-linejoin:round;stroke:rgb(0%,0%,0%);stroke-opacity:1;stroke-miterlimit:10;" d="M 416.25 638.242188 L 360.742188 638.242188 " transform="matrix(0.1,0,0,-0.1,0,555)"/>
<path style=" stroke:none;fill-rule:nonzero;fill:rgb(0%,0%,0%);fill-opacity:1;" d="M 25.734375 492.691406 C 25.734375 491.117188 25.96875 489.761719 26.4375 488.628906 C 26.90625 487.492188 27.539062 486.652344 28.335938 486.101562 C 28.941406 485.652344 29.570312 485.429688 30.222656 485.429688 C 31.277344 485.429688 32.222656 485.972656 33.0625 487.054688 C 34.117188 488.386719 34.644531 490.191406 34.644531 492.476562 C 34.644531 494.078125 34.414062 495.4375 33.949219 496.550781 C 33.488281 497.664062 32.898438 498.472656 32.183594 498.980469 C 31.46875 499.484375 30.777344 499.738281 30.113281 499.738281 C 28.796875 499.738281 27.707031 498.964844 26.839844 497.417969 C 26.101562 496.101562 25.734375 494.527344 25.734375 492.691406 Z M 27.726562 492.953125 C 27.726562 494.84375 27.960938 496.390625 28.421875 497.59375 C 28.8125 498.601562 29.390625 499.109375 30.15625 499.109375 C 30.519531 499.109375 30.894531 498.945312 31.285156 498.609375 C 31.671875 498.277344 31.96875 497.730469 32.171875 496.960938 C 32.492188 495.792969 32.648438 494.144531 32.648438 492.019531 C 32.648438 490.460938 32.484375 489.152344 32.152344 488.097656 C 31.917969 487.316406 31.609375 486.765625 31.21875 486.449219 C 30.945312 486.21875 30.605469 486.101562 30.199219 486.101562 C 29.75 486.101562 29.347656 486.308594 28.984375 486.730469 C 28.492188 487.292969 28.160156 488.179688 27.988281 489.386719 C 27.816406 490.59375 27.726562 491.78125 27.726562 492.953125 "/>
<path style="fill:none;stroke-width:1.2;stroke-linecap:butt;stroke-linejoin:round;stroke:rgb(0%,0%,0%);stroke-opacity:1;stroke-miterlimit:10;" d="M 416.25 1162.421875 L 360.742188 1162.421875 " transform="matrix(0.1,0,0,-0.1,0,555)"/>
<path style=" stroke:none;fill-rule:nonzero;fill:rgb(0%,0%,0%);fill-opacity:1;" d="M 27.425781 434.351562 L 30.761719 432.703125 L 31.109375 432.703125 L 31.109375 444.347656 C 31.109375 445.113281 31.144531 445.59375 31.207031 445.789062 C 31.273438 445.984375 31.40625 446.132812 31.609375 446.230469 C 31.8125 446.335938 32.222656 446.390625 32.84375 446.40625 L 32.84375 446.773438 L 27.664062 446.773438 L 27.664062 446.40625 C 28.3125 446.390625 28.734375 446.335938 28.921875 446.230469 C 29.109375 446.132812 29.238281 445.996094 29.3125 445.832031 C 29.382812 445.664062 29.417969 445.171875 29.417969 444.347656 L 29.417969 436.910156 C 29.417969 435.898438 29.390625 435.253906 29.332031 434.980469 C 29.273438 434.761719 29.183594 434.605469 29.0625 434.503906 C 28.9375 434.402344 28.789062 434.351562 28.617188 434.351562 C 28.355469 434.351562 28.011719 434.453125 27.578125 434.65625 L 27.425781 434.351562 "/>
<path style="fill:none;stroke-width:1.2;stroke-linecap:butt;stroke-linejoin:round;stroke:rgb(0%,0%,0%);stroke-opacity:1;stroke-miterlimit:10;" d="M 416.25 1686.5625 L 360.742188 1686.5625 " transform="matrix(0.1,0,0,-0.1,0,555)"/>
<path style=" stroke:none;fill-rule:nonzero;fill:rgb(0%,0%,0%);fill-opacity:1;" d="M 34.515625 391.402344 L 33.558594 394.050781 L 25.429688 394.050781 L 25.429688 393.679688 C 27.816406 391.496094 29.496094 389.714844 30.46875 388.328125 C 31.445312 386.9375 31.933594 385.675781 31.933594 384.53125 C 31.933594 383.664062 31.667969 382.949219 31.132812 382.386719 C 30.597656 381.820312 29.953125 381.539062 29.203125 381.539062 C 28.539062 381.539062 27.933594 381.738281 27.390625 382.136719 C 26.851562 382.535156 26.449219 383.113281 26.1875 383.882812 L 25.820312 383.882812 C 25.992188 382.625 26.429688 381.660156 27.132812 380.988281 C 27.832031 380.316406 28.703125 379.980469 29.746094 379.980469 C 30.871094 379.980469 31.808594 380.339844 32.550781 381.0625 C 33.296875 381.785156 33.667969 382.632812 33.667969 383.597656 C 33.667969 384.292969 33.507812 384.996094 33.191406 385.703125 C 32.683594 386.800781 31.867188 387.957031 30.742188 389.171875 C 29.066406 391.019531 28.011719 392.132812 27.578125 392.511719 L 31.175781 392.511719 C 31.914062 392.511719 32.429688 392.484375 32.726562 392.433594 C 33.023438 392.382812 33.289062 392.273438 33.527344 392.109375 C 33.765625 391.941406 33.972656 391.707031 34.144531 391.402344 L 34.515625 391.402344 "/>
<path style="fill:none;stroke-width:1.2;stroke-linecap:butt;stroke-linejoin:round;stroke:rgb(0%,0%,0%);stroke-opacity:1;stroke-miterlimit:10;" d="M 416.25 2210.703125 L 360.742188 2210.703125 " transform="matrix(0.1,0,0,-0.1,0,555)"/>
<path style=" stroke:none;fill-rule:nonzero;fill:rgb(0%,0%,0%);fill-opacity:1;" d="M 26.035156 330.160156 C 26.425781 329.234375 26.921875 328.519531 27.523438 328.011719 C 28.121094 327.507812 28.871094 327.253906 29.765625 327.253906 C 30.863281 327.253906 31.710938 327.613281 32.300781 328.339844 C 32.75 328.871094 32.972656 329.445312 32.972656 330.050781 C 32.972656 331.0625 32.347656 332.105469 31.089844 333.171875 C 31.925781 333.503906 32.5625 333.976562 32.996094 334.59375 C 33.429688 335.207031 33.648438 335.933594 33.648438 336.769531 C 33.648438 337.957031 33.269531 338.984375 32.519531 339.851562 C 31.523438 340.992188 30.089844 341.5625 28.226562 341.5625 C 27.289062 341.5625 26.652344 341.445312 26.320312 341.214844 C 25.988281 340.984375 25.820312 340.738281 25.820312 340.480469 C 25.820312 340.277344 25.898438 340.101562 26.058594 339.957031 C 26.21875 339.8125 26.40625 339.742188 26.621094 339.742188 C 26.796875 339.742188 26.96875 339.769531 27.144531 339.828125 C 27.257812 339.855469 27.523438 339.976562 27.933594 340.1875 C 28.347656 340.394531 28.625 340.519531 28.769531 340.566406 C 29.027344 340.636719 29.296875 340.675781 29.570312 340.675781 C 30.265625 340.675781 30.867188 340.40625 31.382812 339.871094 C 31.894531 339.335938 32.152344 338.707031 32.152344 337.984375 C 32.152344 337.449219 32.035156 336.929688 31.804688 336.425781 C 31.617188 336.035156 31.421875 335.746094 31.21875 335.558594 C 30.929688 335.28125 30.527344 335.035156 30.015625 334.820312 C 29.503906 334.605469 28.984375 334.496094 28.464844 334.496094 L 28.140625 334.496094 L 28.140625 334.171875 C 28.675781 334.113281 29.210938 333.925781 29.746094 333.605469 C 30.28125 333.289062 30.667969 332.90625 30.914062 332.457031 C 31.160156 332.007812 31.285156 331.519531 31.285156 330.980469 C 31.285156 330.289062 31.066406 329.726562 30.632812 329.292969 C 30.199219 328.859375 29.65625 328.640625 29.007812 328.640625 C 27.953125 328.640625 27.070312 329.203125 26.363281 330.332031 L 26.035156 330.160156 "/>
<path style="fill:none;stroke-width:1.2;stroke-linecap:butt;stroke-linejoin:round;stroke:rgb(0%,0%,0%);stroke-opacity:1;stroke-miterlimit:10;" d="M 416.25 2734.84375 L 360.742188 2734.84375 " transform="matrix(0.1,0,0,-0.1,0,555)"/>
<path style=" stroke:none;fill-rule:nonzero;fill:rgb(0%,0%,0%);fill-opacity:1;" d="M 34.664062 283.527344 L 34.664062 284.957031 L 32.800781 284.957031 L 32.800781 288.601562 L 31.132812 288.601562 L 31.132812 284.957031 L 25.300781 284.957031 L 25.300781 283.65625 L 31.695312 274.527344 L 32.800781 274.527344 L 32.800781 283.527344 Z M 31.132812 283.527344 L 31.132812 276.675781 L 26.296875 283.527344 L 31.132812 283.527344 "/>
<path style="fill:none;stroke-width:1.2;stroke-linecap:butt;stroke-linejoin:round;stroke:rgb(0%,0%,0%);stroke-opacity:1;stroke-miterlimit:10;" d="M 416.25 3258.984375 L 360.742188 3258.984375 " transform="matrix(0.1,0,0,-0.1,0,555)"/>
<path style=" stroke:none;fill-rule:nonzero;fill:rgb(0%,0%,0%);fill-opacity:1;" d="M 34.015625 223.472656 L 33.214844 225.207031 L 29.074219 225.207031 L 28.160156 227.050781 C 29.953125 227.324219 31.378906 227.996094 32.433594 229.066406 C 33.328125 229.976562 33.777344 231.0625 33.777344 232.320312 C 33.777344 233.042969 33.632812 233.710938 33.34375 234.324219 C 33.054688 234.9375 32.683594 235.464844 32.238281 235.894531 C 31.789062 236.328125 31.289062 236.675781 30.742188 236.9375 C 29.960938 237.3125 29.160156 237.5 28.335938 237.5 C 27.511719 237.5 26.910156 237.359375 26.535156 237.078125 C 26.160156 236.796875 25.972656 236.488281 25.972656 236.15625 C 25.972656 235.96875 26.050781 235.800781 26.210938 235.65625 C 26.371094 235.511719 26.566406 235.441406 26.796875 235.441406 C 26.96875 235.441406 27.121094 235.464844 27.25 235.515625 C 27.382812 235.566406 27.605469 235.710938 27.921875 235.9375 C 28.445312 236.285156 28.964844 236.460938 29.484375 236.460938 C 30.28125 236.460938 30.972656 236.160156 31.566406 235.558594 C 32.15625 234.960938 32.453125 234.226562 32.453125 233.359375 C 32.453125 232.535156 32.1875 231.761719 31.652344 231.039062 C 31.117188 230.316406 30.378906 229.761719 29.441406 229.371094 C 28.703125 229.066406 27.699219 228.886719 26.425781 228.828125 L 29.074219 223.472656 L 34.015625 223.472656 "/>
<path style="fill:none;stroke-width:1.2;stroke-linecap:butt;stroke-linejoin:round;stroke:rgb(0%,0%,0%);stroke-opacity:1;stroke-miterlimit:10;" d="M 416.25 3783.125 L 360.742188 3783.125 " transform="matrix(0.1,0,0,-0.1,0,555)"/>
<path style=" stroke:none;fill-rule:nonzero;fill:rgb(0%,0%,0%);fill-opacity:1;" d="M 34.296875 170.46875 L 34.296875 170.855469 C 33.402344 170.945312 32.671875 171.121094 32.105469 171.386719 C 31.542969 171.65625 30.988281 172.0625 30.4375 172.613281 C 29.890625 173.164062 29.433594 173.773438 29.074219 174.445312 C 28.710938 175.117188 28.40625 175.914062 28.160156 176.839844 C 29.128906 176.175781 30.105469 175.84375 31.089844 175.84375 C 32.027344 175.84375 32.84375 176.222656 33.539062 176.980469 C 34.230469 177.738281 34.578125 178.714844 34.578125 179.898438 C 34.578125 181.054688 34.230469 182.109375 33.539062 183.0625 C 32.699219 184.203125 31.585938 184.773438 30.199219 184.773438 C 29.261719 184.773438 28.457031 184.464844 27.792969 183.84375 C 26.507812 182.628906 25.863281 181.0625 25.863281 179.140625 C 25.863281 177.894531 26.113281 176.722656 26.613281 175.617188 C 27.109375 174.511719 27.820312 173.523438 28.734375 172.65625 C 29.65625 171.789062 30.53125 171.207031 31.371094 170.910156 C 32.207031 170.613281 32.988281 170.46875 33.710938 170.46875 Z M 27.988281 177.578125 C 27.859375 178.503906 27.792969 179.246094 27.792969 179.808594 C 27.792969 180.460938 27.914062 181.164062 28.160156 181.925781 C 28.40625 182.683594 28.761719 183.285156 29.222656 183.734375 C 29.570312 184.054688 29.996094 184.210938 30.503906 184.210938 C 31.082031 184.210938 31.605469 183.933594 32.074219 183.378906 C 32.542969 182.820312 32.78125 182.027344 32.78125 181.003906 C 32.78125 179.847656 32.546875 178.847656 32.085938 178 C 31.625 177.15625 30.964844 176.734375 30.113281 176.734375 C 29.851562 176.734375 29.578125 176.785156 29.289062 176.894531 C 29 177.003906 28.566406 177.230469 27.988281 177.578125 "/>
<path style="fill:none;stroke-width:1.2;stroke-linecap:butt;stroke-linejoin:round;stroke:rgb(0%,0%,0%);stroke-opacity:1;stroke-miterlimit:10;" d="M 416.25 4307.265625 L 360.742188 4307.265625 " transform="matrix(0.1,0,0,-0.1,0,555)"/>
<path style=" stroke:none;fill-rule:nonzero;fill:rgb(0%,0%,0%);fill-opacity:1;" d="M 27.078125 118.023438 L 34.449219 118.023438 L 34.449219 118.414062 L 29.851562 132.09375 L 28.726562 132.09375 L 32.84375 119.691406 L 29.050781 119.691406 C 28.285156 119.691406 27.742188 119.78125 27.425781 119.953125 C 26.847656 120.269531 26.382812 120.757812 26.035156 121.40625 L 25.753906 121.296875 L 27.078125 118.023438 "/>
<path style="fill:none;stroke-width:1.2;stroke-linecap:butt;stroke-linejoin:round;stroke:rgb(0%,0%,0%);stroke-opacity:1;stroke-miterlimit:10;" d="M 416.25 4831.40625 L 360.742188 4831.40625 " transform="matrix(0.1,0,0,-0.1,0,555)"/>
<path style=" stroke:none;fill-rule:nonzero;fill:rgb(0%,0%,0%);fill-opacity:1;" d="M 28.964844 72.148438 C 27.878906 71.253906 27.179688 70.535156 26.859375 69.992188 C 26.542969 69.449219 26.382812 68.890625 26.382812 68.3125 C 26.382812 67.414062 26.730469 66.644531 27.425781 65.992188 C 28.117188 65.34375 29.035156 65.015625 30.179688 65.015625 C 31.289062 65.015625 32.1875 65.320312 32.867188 65.929688 C 33.546875 66.535156 33.886719 67.222656 33.886719 67.988281 C 33.886719 68.507812 33.703125 69.035156 33.332031 69.570312 C 32.964844 70.105469 32.203125 70.734375 31.046875 71.457031 C 32.230469 72.382812 33.019531 73.105469 33.40625 73.625 C 33.929688 74.316406 34.1875 75.046875 34.1875 75.8125 C 34.1875 76.78125 33.820312 77.609375 33.082031 78.296875 C 32.347656 78.980469 31.378906 79.324219 30.179688 79.324219 C 28.863281 79.324219 27.835938 78.921875 27.097656 78.113281 C 26.523438 77.445312 26.230469 76.722656 26.230469 75.945312 C 26.230469 75.335938 26.4375 74.734375 26.851562 74.132812 C 27.261719 73.535156 27.96875 72.871094 28.964844 72.148438 Z M 30.570312 71.066406 C 31.378906 70.328125 31.890625 69.746094 32.105469 69.320312 C 32.324219 68.894531 32.433594 68.414062 32.433594 67.878906 C 32.433594 67.171875 32.234375 66.613281 31.835938 66.210938 C 31.4375 65.804688 30.894531 65.601562 30.199219 65.601562 C 29.507812 65.601562 28.941406 65.804688 28.507812 66.210938 C 28.074219 66.613281 27.859375 67.085938 27.859375 67.617188 C 27.859375 67.964844 27.949219 68.316406 28.128906 68.671875 C 28.308594 69.023438 28.566406 69.359375 28.898438 69.679688 Z M 29.441406 72.539062 C 28.878906 73.003906 28.460938 73.515625 28.195312 74.078125 C 27.925781 74.644531 27.792969 75.25 27.792969 75.898438 C 27.792969 76.769531 28.03125 77.464844 28.507812 77.992188 C 28.984375 78.519531 29.59375 78.785156 30.328125 78.785156 C 31.066406 78.785156 31.65625 78.578125 32.097656 78.164062 C 32.539062 77.753906 32.757812 77.253906 32.757812 76.660156 C 32.757812 76.167969 32.628906 75.726562 32.367188 75.335938 C 31.890625 74.628906 30.914062 73.695312 29.441406 72.539062 "/>
<path style="fill:none;stroke-width:1.2;stroke-linecap:butt;stroke-linejoin:round;stroke:rgb(0%,0%,0%);stroke-opacity:1;stroke-miterlimit:10;" d="M 416.25 5355.546875 L 360.742188 5355.546875 " transform="matrix(0.1,0,0,-0.1,0,555)"/>
<path style=" stroke:none;fill-rule:nonzero;fill:rgb(0%,0%,0%);fill-opacity:1;" d="M 26.082031 28.03125 L 26.082031 27.664062 C 26.960938 27.648438 27.78125 27.441406 28.542969 27.046875 C 29.300781 26.648438 30.035156 25.953125 30.742188 24.964844 C 31.449219 23.972656 31.941406 22.886719 32.214844 21.699219 C 31.148438 22.378906 30.183594 22.71875 29.332031 22.71875 C 28.363281 22.71875 27.53125 22.347656 26.839844 21.605469 C 26.144531 20.859375 25.796875 19.867188 25.796875 18.621094 C 25.796875 17.421875 26.144531 16.347656 26.839844 15.394531 C 27.664062 14.25 28.746094 13.679688 30.089844 13.679688 C 31.234375 13.679688 32.203125 14.148438 32.996094 15.089844 C 33.992188 16.246094 34.492188 17.675781 34.492188 19.382812 C 34.492188 20.914062 34.117188 22.339844 33.363281 23.664062 C 32.613281 24.984375 31.566406 26.078125 30.222656 26.949219 C 29.121094 27.671875 27.929688 28.03125 26.644531 28.03125 Z M 32.367188 20.941406 C 32.496094 20.0625 32.5625 19.359375 32.5625 18.839844 C 32.5625 18.175781 32.449219 17.464844 32.226562 16.703125 C 32.003906 15.945312 31.683594 15.363281 31.273438 14.960938 C 30.859375 14.554688 30.394531 14.351562 29.875 14.351562 C 29.269531 14.351562 28.734375 14.621094 28.28125 15.164062 C 27.824219 15.707031 27.597656 16.511719 27.597656 17.582031 C 27.597656 19.011719 27.902344 20.125 28.507812 20.921875 C 28.957031 21.511719 29.5 21.808594 30.136719 21.808594 C 30.453125 21.808594 30.824219 21.734375 31.25 21.582031 C 31.675781 21.429688 32.050781 21.21875 32.367188 20.941406 "/>
<path style="fill:none;stroke-width:1.2;stroke-linecap:butt;stroke-linejoin:round;stroke:rgb(0%,0%,0%);stroke-opacity:1;stroke-miterlimit:10;" d="M 416.25 900.351562 L 388.515625 900.351562 " transform="matrix(0.1,0,0,-0.1,0,555)"/>
<path style="fill:none;stroke-width:1.2;stroke-linecap:butt;stroke-linejoin:round;stroke:rgb(0%,0%,0%);stroke-opacity:1;stroke-miterlimit:10;" d="M 416.25 1424.492188 L 388.515625 1424.492188 " transform="matrix(0.1,0,0,-0.1,0,555)"/>
<path style="fill:none;stroke-width:1.2;stroke-linecap:butt;stroke-linejoin:round;stroke:rgb(0%,0%,0%);stroke-opacity:1;stroke-miterlimit:10;" d="M 416.25 1948.632812 L 388.515625 1948.632812 " transform="matrix(0.1,0,0,-0.1,0,555)"/>
<path style="fill:none;stroke-width:1.2;stroke-linecap:butt;stroke-linejoin:round;stroke:rgb(0%,0%,0%);stroke-opacity:1;stroke-miterlimit:10;" d="M 416.25 2472.773438 L 388.515625 2472.773438 " transform="matrix(0.1,0,0,-0.1,0,555)"/>
<path style="fill:none;stroke-width:1.2;stroke-linecap:butt;stroke-linejoin:round;stroke:rgb(0%,0%,0%);stroke-opacity:1;stroke-miterlimit:10;" d="M 416.25 2996.914062 L 388.515625 2996.914062 " transform="matrix(0.1,0,0,-0.1,0,555)"/>
<path style="fill:none;stroke-width:1.2;stroke-linecap:butt;stroke-linejoin:round;stroke:rgb(0%,0%,0%);stroke-opacity:1;stroke-miterlimit:10;" d="M 416.25 3521.054688 L 388.515625 3521.054688 " transform="matrix(0.1,0,0,-0.1,0,555)"/>
<path style="fill:none;stroke-width:1.2;stroke-linecap:butt;stroke-linejoin:round;stroke:rgb(0%,0%,0%);stroke-opacity:1;stroke-miterlimit:10;" d="M 416.25 4045.195312 L 388.515625 4045.195312 " transform="matrix(0.1,0,0,-0.1,0,555)"/>
<path style="fill:none;stroke-width:1.2;stroke-linecap:butt;stroke-linejoin:round;stroke:rgb(0%,0%,0%);stroke-opacity:1;stroke-miterlimit:10;" d="M 416.25 4569.335938 L 388.515625 4569.335938 " transform="matrix(0.1,0,0,-0.1,0,555)"/>
<path style="fill:none;stroke-width:1.2;stroke-linecap:butt;stroke-linejoin:round;stroke:rgb(0%,0%,0%);stroke-opacity:1;stroke-miterlimit:10;" d="M 416.25 5093.476562 L 388.515625 5093.476562 " transform="matrix(0.1,0,0,-0.1,0,555)"/>
</g>
</svg>
