<?xml version="1.0" encoding="UTF-8"?>
<svg xmlns="http://www.w3.org/2000/svg" xmlns:xlink="http://www.w3.org/1999/xlink" width="394pt" height="394pt" viewBox="0 0 394 394" version="1.1">
<g id="surface1">
<rect x="0" y="0" width="394" height="394" style="fill:rgb(100%,100%,100%);fill-opacity:1;stroke:none;"/>
<path style="fill:none;stroke-width:10;stroke-linecap:round;stroke-linejoin:round;stroke:rgb(75.389099%,75.389099%,75.389099%);stroke-opacity:1;stroke-miterlimit:10;" d="M 269.804688 4600.039062 L 269.804688 -737.265625 " transform="matrix(0.1,0,0,-0.1,0,394)"/>
<path style="fill:none;stroke-width:10;stroke-linecap:round;stroke-linejoin:round;stroke:rgb(75.389099%,75.389099%,75.389099%);stroke-opacity:1;stroke-miterlimit:10;" d="M 1403.671875 4600.039062 L 1403.671875 -737.265625 " transform="matrix(0.1,0,0,-0.1,0,394)"/>
<path style="fill:none;stroke-width:10;stroke-linecap:round;stroke-linejoin:round;stroke:rgb(75.389099%,75.389099%,75.389099%);stroke-opacity:1;stroke-miterlimit:10;" d="M 1970.585938 4600.039062 L 1970.585938 -737.265625 " transform="matrix(0.1,0,0,-0.1,0,394)"/>
<path style="fill:none;stroke-width:10;stroke-linecap:round;stroke-linejoin:round;stroke:rgb(75.389099%,75.389099%,75.389099%);stroke-opacity:1;stroke-miterlimit:10;" d="M 2537.539062 4600.039062 L 2537.539062 -737.265625 " transform="matrix(0.1,0,0,-0.1,0,394)"/>
<path style="fill:none;stroke-width:10;stroke-linecap:round;stroke-linejoin:round;stroke:rgb(75.389099%,75.389099%,75.389099%);stroke-opacity:1;stroke-miterlimit:10;" d="M 3104.453125 4600.039062 L 3104.453125 -737.265625 " transform="matrix(0.1,0,0,-0.1,0,394)"/>
<path style="fill:none;stroke-width:10;stroke-linecap:round;stroke-linejoin:round;stroke:rgb(75.389099%,75.389099%,75.389099%);stroke-opacity:1;stroke-miterlimit:10;" d="M 3671.40625 4600.039062 L 3671.40625 -737.265625 " transform="matrix(0.1,0,0,-0.1,0,394)"/>
<path style="fill:none;stroke-width:10;stroke-linecap:round;stroke-linejoin:round;stroke:rgb(94.139099%,94.139099%,94.139099%);stroke-opacity:1;stroke-miterlimit:10;" d="M 43.046875 4600.039062 L 43.046875 -737.265625 " transform="matrix(0.1,0,0,-0.1,0,394)"/>
<path style="fill:none;stroke-width:10;stroke-linecap:round;stroke-linejoin:round;stroke:rgb(94.139099%,94.139099%,94.139099%);stroke-opacity:1;stroke-miterlimit:10;" d="M 156.445312 4600.039062 L 156.445312 -737.265625 " transform="matrix(0.1,0,0,-0.1,0,394)"/>
<path style="fill:none;stroke-width:10;stroke-linecap:round;stroke-linejoin:round;stroke:rgb(94.139099%,94.139099%,94.139099%);stroke-opacity:1;stroke-miterlimit:10;" d="M 383.203125 4600.039062 L 383.203125 -737.265625 " transform="matrix(0.1,0,0,-0.1,0,394)"/>
<path style="fill:none;stroke-width:10;stroke-linecap:round;stroke-linejoin:round;stroke:rgb(94.139099%,94.139099%,94.139099%);stroke-opacity:1;stroke-miterlimit:10;" d="M 496.601562 4600.039062 L 496.601562 -737.265625 " transform="matrix(0.1,0,0,-0.1,0,394)"/>
<path style="fill:none;stroke-width:10;stroke-linecap:round;stroke-linejoin:round;stroke:rgb(94.139099%,94.139099%,94.139099%);stroke-opacity:1;stroke-miterlimit:10;" d="M 609.960938 4600.039062 L 609.960938 -737.265625 " transform="matrix(0.1,0,0,-0.1,0,394)"/>
<path style="fill:none;stroke-width:10;stroke-linecap:round;stroke-linejoin:round;stroke:rgb(94.139099%,94.139099%,94.139099%);stroke-opacity:1;stroke-miterlimit:10;" d="M 723.359375 4600.039062 L 723.359375 -737.265625 " transform="matrix(0.1,0,0,-0.1,0,394)"/>
<path style="fill:none;stroke-width:10;stroke-linecap:round;stroke-linejoin:round;stroke:rgb(94.139099%,94.139099%,94.139099%);stroke-opacity:1;stroke-miterlimit:10;" d="M 950.117188 4600.039062 L 950.117188 -737.265625 " transform="matrix(0.1,0,0,-0.1,0,394)"/>
<path style="fill:none;stroke-width:10;stroke-linecap:round;stroke-linejoin:round;stroke:rgb(94.139099%,94.139099%,94.139099%);stroke-opacity:1;stroke-miterlimit:10;" d="M 1063.515625 4600.039062 L 1063.515625 -737.265625 " transform="matrix(0.1,0,0,-0.1,0,394)"/>
<path style="fill:none;stroke-width:10;stroke-linecap:round;stroke-linejoin:round;stroke:rgb(94.139099%,94.139099%,94.139099%);stroke-opacity:1;stroke-miterlimit:10;" d="M 1176.914062 4600.039062 L 1176.914062 -737.265625 " transform="matrix(0.1,0,0,-0.1,0,394)"/>
<path style="fill:none;stroke-width:10;stroke-linecap:round;stroke-linejoin:round;stroke:rgb(94.139099%,94.139099%,94.139099%);stroke-opacity:1;stroke-miterlimit:10;" d="M 1290.273438 4600.039062 L 1290.273438 -737.265625 " transform="matrix(0.1,0,0,-0.1,0,394)"/>
<path style="fill:none;stroke-width:10;stroke-linecap:round;stroke-linejoin:round;stroke:rgb(94.139099%,94.139099%,94.139099%);stroke-opacity:1;stroke-miterlimit:10;" d="M 1517.070312 4600.039062 L 1517.070312 -737.265625 " transform="matrix(0.1,0,0,-0.1,0,394)"/>
<path style="fill:none;stroke-width:10;stroke-linecap:round;stroke-linejoin:round;stroke:rgb(94.139099%,94.139099%,94.139099%);stroke-opacity:1;stroke-miterlimit:10;" d="M 1630.46875 4600.039062 L 1630.46875 -737.265625 " transform="matrix(0.1,0,0,-0.1,0,394)"/>
<path style="fill:none;stroke-width:10;stroke-linecap:round;stroke-linejoin:round;stroke:rgb(94.139099%,94.139099%,94.139099%);stroke-opacity:1;stroke-miterlimit:10;" d="M 1743.828125 4600.039062 L 1743.828125 -737.265625 " transform="matrix(0.1,0,0,-0.1,0,394)"/>
<path style="fill:none;stroke-width:10;stroke-linecap:round;stroke-linejoin:round;stroke:rgb(94.139099%,94.139099%,94.139099%);stroke-opacity:1;stroke-miterlimit:10;" d="M 1857.226562 4600.039062 L 1857.226562 -737.265625 " transform="matrix(0.1,0,0,-0.1,0,394)"/>
<path style="fill:none;stroke-width:10;stroke-linecap:round;stroke-linejoin:round;stroke:rgb(94.139099%,94.139099%,94.139099%);stroke-opacity:1;stroke-miterlimit:10;" d="M 2083.984375 4600.039062 L 2083.984375 -737.265625 " transform="matrix(0.1,0,0,-0.1,0,394)"/>
<path style="fill:none;stroke-width:10;stroke-linecap:round;stroke-linejoin:round;stroke:rgb(94.139099%,94.139099%,94.139099%);stroke-opacity:1;stroke-miterlimit:10;" d="M 2197.382812 4600.039062 L 2197.382812 -737.265625 " transform="matrix(0.1,0,0,-0.1,0,394)"/>
<path style="fill:none;stroke-width:10;stroke-linecap:round;stroke-linejoin:round;stroke:rgb(94.139099%,94.139099%,94.139099%);stroke-opacity:1;stroke-miterlimit:10;" d="M 2310.742188 4600.039062 L 2310.742188 -737.265625 " transform="matrix(0.1,0,0,-0.1,0,394)"/>
<path style="fill:none;stroke-width:10;stroke-linecap:round;stroke-linejoin:round;stroke:rgb(94.139099%,94.139099%,94.139099%);stroke-opacity:1;stroke-miterlimit:10;" d="M 2424.140625 4600.039062 L 2424.140625 -737.265625 " transform="matrix(0.1,0,0,-0.1,0,394)"/>
<path style="fill:none;stroke-width:10;stroke-linecap:round;stroke-linejoin:round;stroke:rgb(94.139099%,94.139099%,94.139099%);stroke-opacity:1;stroke-miterlimit:10;" d="M 2650.9375 4600.039062 L 2650.9375 -737.265625 " transform="matrix(0.1,0,0,-0.1,0,394)"/>
<path style="fill:none;stroke-width:10;stroke-linecap:round;stroke-linejoin:round;stroke:rgb(94.139099%,94.139099%,94.139099%);stroke-opacity:1;stroke-miterlimit:10;" d="M 2764.296875 4600.039062 L 2764.296875 -737.265625 " transform="matrix(0.1,0,0,-0.1,0,394)"/>
<path style="fill:none;stroke-width:10;stroke-linecap:round;stroke-linejoin:round;stroke:rgb(94.139099%,94.139099%,94.139099%);stroke-opacity:1;stroke-miterlimit:10;" d="M 2877.695312 4600.039062 L 2877.695312 -737.265625 " transform="matrix(0.1,0,0,-0.1,0,394)"/>
<path style="fill:none;stroke-width:10;stroke-linecap:round;stroke-linejoin:round;stroke:rgb(94.139099%,94.139099%,94.139099%);stroke-opacity:1;stroke-miterlimit:10;" d="M 2991.054688 4600.039062 L 2991.054688 -737.265625 " transform="matrix(0.1,0,0,-0.1,0,394)"/>
<path style="fill:none;stroke-width:10;stroke-linecap:round;stroke-linejoin:round;stroke:rgb(94.139099%,94.139099%,94.139099%);stroke-opacity:1;stroke-miterlimit:10;" d="M 3217.851562 4600.039062 L 3217.851562 -737.265625 " transform="matrix(0.1,0,0,-0.1,0,394)"/>
<path style="fill:none;stroke-width:10;stroke-linecap:round;stroke-linejoin:round;stroke:rgb(94.139099%,94.139099%,94.139099%);stroke-opacity:1;stroke-miterlimit:10;" d="M 3331.210938 4600.039062 L 3331.210938 -737.265625 " transform="matrix(0.1,0,0,-0.1,0,394)"/>
<path style="fill:none;stroke-width:10;stroke-linecap:round;stroke-linejoin:round;stroke:rgb(94.139099%,94.139099%,94.139099%);stroke-opacity:1;stroke-miterlimit:10;" d="M 3444.609375 4600.039062 L 3444.609375 -737.265625 " transform="matrix(0.1,0,0,-0.1,0,394)"/>
<path style="fill:none;stroke-width:10;stroke-linecap:round;stroke-linejoin:round;stroke:rgb(94.139099%,94.139099%,94.139099%);stroke-opacity:1;stroke-miterlimit:10;" d="M 3558.007812 4600.039062 L 3558.007812 -737.265625 " transform="matrix(0.1,0,0,-0.1,0,394)"/>
<path style="fill:none;stroke-width:10;stroke-linecap:round;stroke-linejoin:round;stroke:rgb(94.139099%,94.139099%,94.139099%);stroke-opacity:1;stroke-miterlimit:10;" d="M 3784.765625 4600.039062 L 3784.765625 -737.265625 " transform="matrix(0.1,0,0,-0.1,0,394)"/>
<path style="fill:none;stroke-width:10;stroke-linecap:round;stroke-linejoin:round;stroke:rgb(94.139099%,94.139099%,94.139099%);stroke-opacity:1;stroke-miterlimit:10;" d="M 3898.164062 4600.039062 L 3898.164062 -737.265625 " transform="matrix(0.1,0,0,-0.1,0,394)"/>
<path style="fill:none;stroke-width:10;stroke-linecap:round;stroke-linejoin:round;stroke:rgb(75.389099%,75.389099%,75.389099%);stroke-opacity:1;stroke-miterlimit:10;" d="M -1650.117188 3673.867188 L 4950.390625 3673.867188 " transform="matrix(0.1,0,0,-0.1,0,394)"/>
<path style="fill:none;stroke-width:10;stroke-linecap:round;stroke-linejoin:round;stroke:rgb(75.389099%,75.389099%,75.389099%);stroke-opacity:1;stroke-miterlimit:10;" d="M -1650.117188 3106.914062 L 4950.390625 3106.914062 " transform="matrix(0.1,0,0,-0.1,0,394)"/>
<path style="fill:none;stroke-width:10;stroke-linecap:round;stroke-linejoin:round;stroke:rgb(75.389099%,75.389099%,75.389099%);stroke-opacity:1;stroke-miterlimit:10;" d="M -1650.117188 2540 L 4950.390625 2540 " transform="matrix(0.1,0,0,-0.1,0,394)"/>
<path style="fill:none;stroke-width:10;stroke-linecap:round;stroke-linejoin:round;stroke:rgb(75.389099%,75.389099%,75.389099%);stroke-opacity:1;stroke-miterlimit:10;" d="M -1650.117188 1973.085938 L 4950.390625 1973.085938 " transform="matrix(0.1,0,0,-0.1,0,394)"/>
<path style="fill:none;stroke-width:10;stroke-linecap:round;stroke-linejoin:round;stroke:rgb(75.389099%,75.389099%,75.389099%);stroke-opacity:1;stroke-miterlimit:10;" d="M -1650.117188 1406.132812 L 4950.390625 1406.132812 " transform="matrix(0.1,0,0,-0.1,0,394)"/>
<path style="fill:none;stroke-width:10;stroke-linecap:round;stroke-linejoin:round;stroke:rgb(75.389099%,75.389099%,75.389099%);stroke-opacity:1;stroke-miterlimit:10;" d="M -1650.117188 272.265625 L 4950.390625 272.265625 " transform="matrix(0.1,0,0,-0.1,0,394)"/>
<path style="fill:none;stroke-width:10;stroke-linecap:round;stroke-linejoin:round;stroke:rgb(94.139099%,94.139099%,94.139099%);stroke-opacity:1;stroke-miterlimit:10;" d="M -1650.117188 3900.625 L 4950.390625 3900.625 " transform="matrix(0.1,0,0,-0.1,0,394)"/>
<path style="fill:none;stroke-width:10;stroke-linecap:round;stroke-linejoin:round;stroke:rgb(94.139099%,94.139099%,94.139099%);stroke-opacity:1;stroke-miterlimit:10;" d="M -1650.117188 3787.226562 L 4950.390625 3787.226562 " transform="matrix(0.1,0,0,-0.1,0,394)"/>
<path style="fill:none;stroke-width:10;stroke-linecap:round;stroke-linejoin:round;stroke:rgb(94.139099%,94.139099%,94.139099%);stroke-opacity:1;stroke-miterlimit:10;" d="M -1650.117188 3560.46875 L 4950.390625 3560.46875 " transform="matrix(0.1,0,0,-0.1,0,394)"/>
<path style="fill:none;stroke-width:10;stroke-linecap:round;stroke-linejoin:round;stroke:rgb(94.139099%,94.139099%,94.139099%);stroke-opacity:1;stroke-miterlimit:10;" d="M -1650.117188 3447.070312 L 4950.390625 3447.070312 " transform="matrix(0.1,0,0,-0.1,0,394)"/>
<path style="fill:none;stroke-width:10;stroke-linecap:round;stroke-linejoin:round;stroke:rgb(94.139099%,94.139099%,94.139099%);stroke-opacity:1;stroke-miterlimit:10;" d="M -1650.117188 3333.710938 L 4950.390625 3333.710938 " transform="matrix(0.1,0,0,-0.1,0,394)"/>
<path style="fill:none;stroke-width:10;stroke-linecap:round;stroke-linejoin:round;stroke:rgb(94.139099%,94.139099%,94.139099%);stroke-opacity:1;stroke-miterlimit:10;" d="M -1650.117188 3220.3125 L 4950.390625 3220.3125 " transform="matrix(0.1,0,0,-0.1,0,394)"/>
<path style="fill:none;stroke-width:10;stroke-linecap:round;stroke-linejoin:round;stroke:rgb(94.139099%,94.139099%,94.139099%);stroke-opacity:1;stroke-miterlimit:10;" d="M -1650.117188 2993.554688 L 4950.390625 2993.554688 " transform="matrix(0.1,0,0,-0.1,0,394)"/>
<path style="fill:none;stroke-width:10;stroke-linecap:round;stroke-linejoin:round;stroke:rgb(94.139099%,94.139099%,94.139099%);stroke-opacity:1;stroke-miterlimit:10;" d="M -1650.117188 2880.15625 L 4950.390625 2880.15625 " transform="matrix(0.1,0,0,-0.1,0,394)"/>
<path style="fill:none;stroke-width:10;stroke-linecap:round;stroke-linejoin:round;stroke:rgb(94.139099%,94.139099%,94.139099%);stroke-opacity:1;stroke-miterlimit:10;" d="M -1650.117188 2766.757812 L 4950.390625 2766.757812 " transform="matrix(0.1,0,0,-0.1,0,394)"/>
<path style="fill:none;stroke-width:10;stroke-linecap:round;stroke-linejoin:round;stroke:rgb(94.139099%,94.139099%,94.139099%);stroke-opacity:1;stroke-miterlimit:10;" d="M -1650.117188 2653.398438 L 4950.390625 2653.398438 " transform="matrix(0.1,0,0,-0.1,0,394)"/>
<path style="fill:none;stroke-width:10;stroke-linecap:round;stroke-linejoin:round;stroke:rgb(94.139099%,94.139099%,94.139099%);stroke-opacity:1;stroke-miterlimit:10;" d="M -1650.117188 2426.601562 L 4950.390625 2426.601562 " transform="matrix(0.1,0,0,-0.1,0,394)"/>
<path style="fill:none;stroke-width:10;stroke-linecap:round;stroke-linejoin:round;stroke:rgb(94.139099%,94.139099%,94.139099%);stroke-opacity:1;stroke-miterlimit:10;" d="M -1650.117188 2313.203125 L 4950.390625 2313.203125 " transform="matrix(0.1,0,0,-0.1,0,394)"/>
<path style="fill:none;stroke-width:10;stroke-linecap:round;stroke-linejoin:round;stroke:rgb(94.139099%,94.139099%,94.139099%);stroke-opacity:1;stroke-miterlimit:10;" d="M -1650.117188 2199.84375 L 4950.390625 2199.84375 " transform="matrix(0.1,0,0,-0.1,0,394)"/>
<path style="fill:none;stroke-width:10;stroke-linecap:round;stroke-linejoin:round;stroke:rgb(94.139099%,94.139099%,94.139099%);stroke-opacity:1;stroke-miterlimit:10;" d="M -1650.117188 2086.445312 L 4950.390625 2086.445312 " transform="matrix(0.1,0,0,-0.1,0,394)"/>
<path style="fill:none;stroke-width:10;stroke-linecap:round;stroke-linejoin:round;stroke:rgb(94.139099%,94.139099%,94.139099%);stroke-opacity:1;stroke-miterlimit:10;" d="M -1650.117188 1859.6875 L 4950.390625 1859.6875 " transform="matrix(0.1,0,0,-0.1,0,394)"/>
<path style="fill:none;stroke-width:10;stroke-linecap:round;stroke-linejoin:round;stroke:rgb(94.139099%,94.139099%,94.139099%);stroke-opacity:1;stroke-miterlimit:10;" d="M -1650.117188 1746.289062 L 4950.390625 1746.289062 " transform="matrix(0.1,0,0,-0.1,0,394)"/>
<path style="fill:none;stroke-width:10;stroke-linecap:round;stroke-linejoin:round;stroke:rgb(94.139099%,94.139099%,94.139099%);stroke-opacity:1;stroke-miterlimit:10;" d="M -1650.117188 1632.890625 L 4950.390625 1632.890625 " transform="matrix(0.1,0,0,-0.1,0,394)"/>
<path style="fill:none;stroke-width:10;stroke-linecap:round;stroke-linejoin:round;stroke:rgb(94.139099%,94.139099%,94.139099%);stroke-opacity:1;stroke-miterlimit:10;" d="M -1650.117188 1519.53125 L 4950.390625 1519.53125 " transform="matrix(0.1,0,0,-0.1,0,394)"/>
<path style="fill:none;stroke-width:10;stroke-linecap:round;stroke-linejoin:round;stroke:rgb(94.139099%,94.139099%,94.139099%);stroke-opacity:1;stroke-miterlimit:10;" d="M -1650.117188 1292.734375 L 4950.390625 1292.734375 " transform="matrix(0.1,0,0,-0.1,0,394)"/>
<path style="fill:none;stroke-width:10;stroke-linecap:round;stroke-linejoin:round;stroke:rgb(94.139099%,94.139099%,94.139099%);stroke-opacity:1;stroke-miterlimit:10;" d="M -1650.117188 1179.375 L 4950.390625 1179.375 " transform="matrix(0.1,0,0,-0.1,0,394)"/>
<path style="fill:none;stroke-width:10;stroke-linecap:round;stroke-linejoin:round;stroke:rgb(94.139099%,94.139099%,94.139099%);stroke-opacity:1;stroke-miterlimit:10;" d="M -1650.117188 1065.976562 L 4950.390625 1065.976562 " transform="matrix(0.1,0,0,-0.1,0,394)"/>
<path style="fill:none;stroke-width:10;stroke-linecap:round;stroke-linejoin:round;stroke:rgb(94.139099%,94.139099%,94.139099%);stroke-opacity:1;stroke-miterlimit:10;" d="M -1650.117188 952.578125 L 4950.390625 952.578125 " transform="matrix(0.1,0,0,-0.1,0,394)"/>
<path style="fill:none;stroke-width:10;stroke-linecap:round;stroke-linejoin:round;stroke:rgb(94.139099%,94.139099%,94.139099%);stroke-opacity:1;stroke-miterlimit:10;" d="M -1650.117188 725.820312 L 4950.390625 725.820312 " transform="matrix(0.1,0,0,-0.1,0,394)"/>
<path style="fill:none;stroke-width:10;stroke-linecap:round;stroke-linejoin:round;stroke:rgb(94.139099%,94.139099%,94.139099%);stroke-opacity:1;stroke-miterlimit:10;" d="M -1650.117188 612.421875 L 4950.390625 612.421875 " transform="matrix(0.1,0,0,-0.1,0,394)"/>
<path style="fill:none;stroke-width:10;stroke-linecap:round;stroke-linejoin:round;stroke:rgb(94.139099%,94.139099%,94.139099%);stroke-opacity:1;stroke-miterlimit:10;" d="M -1650.117188 499.0625 L 4950.390625 499.0625 " transform="matrix(0.1,0,0,-0.1,0,394)"/>
<path style="fill:none;stroke-width:10;stroke-linecap:round;stroke-linejoin:round;stroke:rgb(94.139099%,94.139099%,94.139099%);stroke-opacity:1;stroke-miterlimit:10;" d="M -1650.117188 385.664062 L 4950.390625 385.664062 " transform="matrix(0.1,0,0,-0.1,0,394)"/>
<path style="fill:none;stroke-width:10;stroke-linecap:round;stroke-linejoin:round;stroke:rgb(94.139099%,94.139099%,94.139099%);stroke-opacity:1;stroke-miterlimit:10;" d="M -1650.117188 158.90625 L 4950.390625 158.90625 " transform="matrix(0.1,0,0,-0.1,0,394)"/>
<path style="fill:none;stroke-width:10;stroke-linecap:round;stroke-linejoin:round;stroke:rgb(94.139099%,94.139099%,94.139099%);stroke-opacity:1;stroke-miterlimit:10;" d="M -1650.117188 45.507812 L 4950.390625 45.507812 " transform="matrix(0.1,0,0,-0.1,0,394)"/>
<path style="fill:none;stroke-width:10;stroke-linecap:butt;stroke-linejoin:miter;stroke:rgb(0%,0%,0%);stroke-opacity:1;stroke-miterlimit:10;" d="M 836.757812 4577.304688 L 836.757812 -737.265625 " transform="matrix(0.1,0,0,-0.1,0,394)"/>
<path style="fill:none;stroke-width:10;stroke-linecap:butt;stroke-linejoin:miter;stroke:rgb(0%,0%,0%);stroke-opacity:1;stroke-miterlimit:10;" d="M -1650.117188 839.21875 L 4927.65625 839.21875 " transform="matrix(0.1,0,0,-0.1,0,394)"/>
<path style=" stroke:none;fill-rule:nonzero;fill:rgb(0%,0%,0%);fill-opacity:1;" d="M 14.355469 324.128906 L 14.355469 323.222656 L 19.785156 323.222656 L 19.785156 324.128906 Z M 24.765625 327.996094 C 23.746094 327.996094 22.921875 327.519531 22.292969 326.558594 C 21.664062 325.601562 21.351562 324.351562 21.351562 322.808594 C 21.351562 321.253906 21.667969 320.003906 22.300781 319.054688 C 22.933594 318.109375 23.769531 317.636719 24.804688 317.636719 C 25.839844 317.636719 26.675781 318.109375 27.308594 319.054688 C 27.941406 320.003906 28.257812 321.246094 28.257812 322.789062 C 28.257812 324.371094 27.941406 325.636719 27.308594 326.582031 C 26.675781 327.523438 25.828125 327.996094 24.765625 327.996094 Z M 24.777344 327.011719 C 26.167969 327.011719 26.867188 325.597656 26.867188 322.769531 C 26.867188 320.003906 26.179688 318.621094 24.804688 318.621094 C 23.4375 318.621094 22.75 320.019531 22.75 322.808594 C 22.75 325.609375 23.425781 327.011719 24.777344 327.011719 Z M 30.921875 327.75 L 30.921875 326.105469 L 32.570312 326.105469 L 32.570312 327.75 Z M 35.273438 327.75 L 35.273438 326.597656 C 35.65625 325.703125 36.429688 324.730469 37.59375 323.675781 L 38.347656 323.003906 C 39.316406 322.128906 39.800781 321.257812 39.800781 320.394531 C 39.800781 319.84375 39.636719 319.410156 39.304688 319.09375 C 38.972656 318.78125 38.519531 318.621094 37.941406 318.621094 C 37.257812 318.621094 36.449219 318.886719 35.519531 319.414062 L 35.519531 318.253906 C 36.398438 317.84375 37.265625 317.636719 38.128906 317.636719 C 39.050781 317.636719 39.796875 317.882812 40.355469 318.382812 C 40.914062 318.878906 41.195312 319.539062 41.195312 320.363281 C 41.195312 320.953125 41.054688 321.476562 40.773438 321.9375 C 40.488281 322.394531 39.964844 322.949219 39.195312 323.601562 L 38.6875 324.035156 C 37.636719 324.929688 37.027344 325.785156 36.859375 326.597656 L 41.148438 326.597656 L 41.148438 327.75 "/>
<path style=" stroke:none;fill-rule:nonzero;fill:rgb(0%,0%,0%);fill-opacity:1;" d="M 135.152344 327.996094 C 134.136719 327.996094 133.3125 327.519531 132.683594 326.558594 C 132.054688 325.601562 131.738281 324.351562 131.738281 322.808594 C 131.738281 321.253906 132.054688 320.003906 132.691406 319.054688 C 133.324219 318.109375 134.15625 317.636719 135.195312 317.636719 C 136.230469 317.636719 137.0625 318.109375 137.699219 319.054688 C 138.332031 320.003906 138.648438 321.246094 138.648438 322.789062 C 138.648438 324.371094 138.332031 325.636719 137.699219 326.582031 C 137.0625 327.523438 136.214844 327.996094 135.152344 327.996094 Z M 135.167969 327.011719 C 136.558594 327.011719 137.253906 325.597656 137.253906 322.769531 C 137.253906 320.003906 136.566406 318.621094 135.195312 318.621094 C 133.824219 318.621094 133.140625 320.019531 133.140625 322.808594 C 133.140625 325.609375 133.816406 327.011719 135.167969 327.011719 Z M 141.3125 327.75 L 141.3125 326.105469 L 142.957031 326.105469 L 142.957031 327.75 Z M 145.664062 327.75 L 145.664062 326.597656 C 146.046875 325.703125 146.816406 324.730469 147.984375 323.675781 L 148.738281 323.003906 C 149.707031 322.128906 150.191406 321.257812 150.191406 320.394531 C 150.191406 319.84375 150.023438 319.410156 149.691406 319.09375 C 149.363281 318.78125 148.90625 318.621094 148.328125 318.621094 C 147.644531 318.621094 146.839844 318.886719 145.910156 319.414062 L 145.910156 318.253906 C 146.785156 317.84375 147.652344 317.636719 148.515625 317.636719 C 149.441406 317.636719 150.183594 317.882812 150.742188 318.382812 C 151.304688 318.878906 151.585938 319.539062 151.585938 320.363281 C 151.585938 320.953125 151.441406 321.476562 151.160156 321.9375 C 150.878906 322.394531 150.351562 322.949219 149.585938 323.601562 L 149.078125 324.035156 C 148.023438 324.929688 147.414062 325.785156 147.25 326.597656 L 151.535156 326.597656 L 151.535156 327.75 "/>
<path style=" stroke:none;fill-rule:nonzero;fill:rgb(0%,0%,0%);fill-opacity:1;" d="M 192.054688 327.996094 C 191.035156 327.996094 190.214844 327.519531 189.585938 326.558594 C 188.953125 325.601562 188.640625 324.351562 188.640625 322.808594 C 188.640625 321.253906 188.957031 320.003906 189.589844 319.054688 C 190.226562 318.109375 191.058594 317.636719 192.09375 317.636719 C 193.128906 317.636719 193.964844 318.109375 194.597656 319.054688 C 195.230469 320.003906 195.550781 321.246094 195.550781 322.789062 C 195.550781 324.371094 195.230469 325.636719 194.597656 326.582031 C 193.964844 327.523438 193.117188 327.996094 192.054688 327.996094 Z M 192.066406 327.011719 C 193.460938 327.011719 194.15625 325.597656 194.15625 322.769531 C 194.15625 320.003906 193.46875 318.621094 192.09375 318.621094 C 190.726562 318.621094 190.039062 320.019531 190.039062 322.808594 C 190.039062 325.609375 190.71875 327.011719 192.066406 327.011719 Z M 198.210938 327.75 L 198.210938 326.105469 L 199.859375 326.105469 L 199.859375 327.75 Z M 206.570312 327.75 L 206.570312 324.957031 L 202.128906 324.957031 L 202.128906 323.964844 L 206.570312 317.882812 L 207.804688 317.882812 L 207.804688 323.882812 L 209.125 323.882812 L 209.125 324.957031 L 207.804688 324.957031 L 207.804688 327.75 Z M 203.417969 323.882812 L 206.65625 323.882812 L 206.65625 319.496094 "/>
<path style=" stroke:none;fill-rule:nonzero;fill:rgb(0%,0%,0%);fill-opacity:1;" d="M 247.816406 327.996094 C 246.800781 327.996094 245.976562 327.519531 245.347656 326.558594 C 244.71875 325.601562 244.402344 324.351562 244.402344 322.808594 C 244.402344 321.253906 244.722656 320.003906 245.355469 319.054688 C 245.988281 318.109375 246.820312 317.636719 247.859375 317.636719 C 248.894531 317.636719 249.730469 318.109375 250.363281 319.054688 C 250.996094 320.003906 251.3125 321.246094 251.3125 322.789062 C 251.3125 324.371094 250.996094 325.636719 250.363281 326.582031 C 249.730469 327.523438 248.878906 327.996094 247.816406 327.996094 Z M 247.832031 327.011719 C 249.222656 327.011719 249.917969 325.597656 249.917969 322.769531 C 249.917969 320.003906 249.230469 318.621094 247.859375 318.621094 C 246.488281 318.621094 245.804688 320.019531 245.804688 322.808594 C 245.804688 325.609375 246.480469 327.011719 247.832031 327.011719 Z M 253.976562 327.75 L 253.976562 326.105469 L 255.621094 326.105469 L 255.621094 327.75 Z M 259.539062 322.636719 C 260.167969 321.824219 260.957031 321.414062 261.90625 321.414062 C 262.769531 321.414062 263.476562 321.703125 264.023438 322.273438 C 264.574219 322.84375 264.847656 323.578125 264.847656 324.46875 C 264.847656 325.496094 264.539062 326.339844 263.925781 327.003906 C 263.308594 327.667969 262.527344 327.996094 261.582031 327.996094 C 260.492188 327.996094 259.640625 327.558594 259.027344 326.683594 C 258.414062 325.808594 258.105469 324.59375 258.105469 323.035156 C 258.105469 321.324219 258.460938 319.996094 259.164062 319.046875 C 259.867188 318.101562 260.859375 317.628906 262.140625 317.628906 C 262.726562 317.628906 263.460938 317.753906 264.339844 318.003906 L 264.339844 319.148438 C 263.414062 318.792969 262.652344 318.617188 262.0625 318.617188 C 260.382812 318.617188 259.539062 319.957031 259.539062 322.636719 Z M 263.527344 324.761719 C 263.527344 324.015625 263.359375 323.429688 263.023438 323.003906 C 262.6875 322.578125 262.222656 322.363281 261.628906 322.363281 C 261.070312 322.363281 260.59375 322.550781 260.195312 322.921875 C 259.792969 323.296875 259.59375 323.746094 259.59375 324.269531 C 259.59375 325.097656 259.785156 325.761719 260.164062 326.261719 C 260.542969 326.761719 261.046875 327.011719 261.675781 327.011719 C 262.238281 327.011719 262.6875 326.808594 263.023438 326.402344 C 263.359375 325.992188 263.527344 325.449219 263.527344 324.761719 "/>
<path style=" stroke:none;fill-rule:nonzero;fill:rgb(0%,0%,0%);fill-opacity:1;" d="M 304.71875 327.996094 C 303.699219 327.996094 302.878906 327.519531 302.25 326.558594 C 301.621094 325.601562 301.304688 324.351562 301.304688 322.808594 C 301.304688 321.253906 301.621094 320.003906 302.253906 319.054688 C 302.890625 318.109375 303.722656 317.636719 304.757812 317.636719 C 305.796875 317.636719 306.628906 318.109375 307.261719 319.054688 C 307.894531 320.003906 308.214844 321.246094 308.214844 322.789062 C 308.214844 324.371094 307.894531 325.636719 307.261719 326.582031 C 306.628906 327.523438 305.78125 327.996094 304.71875 327.996094 Z M 304.730469 327.011719 C 306.125 327.011719 306.820312 325.597656 306.820312 322.769531 C 306.820312 320.003906 306.132812 318.621094 304.757812 318.621094 C 303.390625 318.621094 302.703125 320.019531 302.703125 322.808594 C 302.703125 325.609375 303.382812 327.011719 304.730469 327.011719 Z M 310.875 327.75 L 310.875 326.105469 L 312.523438 326.105469 L 312.523438 327.75 Z M 317.234375 322.375 C 316.269531 321.707031 315.789062 320.960938 315.789062 320.148438 C 315.789062 319.402344 316.0625 318.796875 316.609375 318.328125 C 317.15625 317.863281 317.867188 317.628906 318.75 317.628906 C 319.5625 317.628906 320.222656 317.828125 320.726562 318.222656 C 321.230469 318.617188 321.484375 319.132812 321.484375 319.761719 C 321.484375 320.71875 320.871094 321.589844 319.644531 322.375 C 321.132812 323.105469 321.875 324.046875 321.875 325.195312 C 321.875 326.023438 321.5625 326.699219 320.9375 327.21875 C 320.316406 327.738281 319.507812 327.996094 318.523438 327.996094 C 317.554688 327.996094 316.769531 327.753906 316.171875 327.261719 C 315.574219 326.769531 315.273438 326.125 315.273438 325.324219 C 315.273438 324.140625 315.929688 323.160156 317.234375 322.375 Z M 318.910156 321.964844 C 319.828125 321.359375 320.289062 320.683594 320.289062 319.941406 C 320.289062 319.546875 320.136719 319.226562 319.828125 318.984375 C 319.523438 318.742188 319.117188 318.621094 318.617188 318.621094 C 318.132812 318.621094 317.738281 318.742188 317.433594 318.980469 C 317.132812 319.21875 316.980469 319.523438 316.980469 319.902344 C 316.980469 320.273438 317.117188 320.601562 317.390625 320.894531 C 317.664062 321.183594 318.171875 321.539062 318.910156 321.964844 Z M 317.949219 322.910156 C 317.421875 323.320312 317.0625 323.675781 316.871094 323.980469 C 316.683594 324.285156 316.589844 324.664062 316.589844 325.117188 C 316.589844 325.679688 316.769531 326.136719 317.136719 326.488281 C 317.5 326.835938 317.980469 327.011719 318.574219 327.011719 C 319.148438 327.011719 319.617188 326.863281 319.980469 326.5625 C 320.339844 326.265625 320.523438 325.878906 320.523438 325.402344 C 320.523438 325.023438 320.410156 324.699219 320.1875 324.433594 C 319.960938 324.167969 319.527344 323.84375 318.882812 323.464844 "/>
<path style=" stroke:none;fill-rule:nonzero;fill:rgb(0%,0%,0%);fill-opacity:1;" d="M 366.222656 327.75 L 366.222656 326.765625 L 368.195312 326.765625 L 368.195312 318.976562 L 366.222656 319.46875 L 366.222656 318.457031 L 369.515625 317.636719 L 369.515625 326.765625 L 371.488281 326.765625 L 371.488281 327.75 "/>
<path style=" stroke:none;fill-rule:nonzero;fill:rgb(0%,0%,0%);fill-opacity:1;" d="M 46.222656 368.511719 L 46.222656 367.605469 L 51.648438 367.605469 L 51.648438 368.511719 Z M 56.628906 372.378906 C 55.613281 372.378906 54.789062 371.902344 54.160156 370.945312 C 53.53125 369.984375 53.214844 368.734375 53.214844 367.191406 C 53.214844 365.636719 53.53125 364.386719 54.164062 363.4375 C 54.800781 362.492188 55.632812 362.019531 56.667969 362.019531 C 57.707031 362.019531 58.539062 362.492188 59.171875 363.4375 C 59.808594 364.386719 60.125 365.628906 60.125 367.171875 C 60.125 368.753906 59.808594 370.019531 59.171875 370.964844 C 58.539062 371.90625 57.691406 372.378906 56.628906 372.378906 Z M 56.644531 371.394531 C 58.035156 371.394531 58.730469 369.980469 58.730469 367.152344 C 58.730469 364.386719 58.042969 363.003906 56.667969 363.003906 C 55.300781 363.003906 54.617188 364.402344 54.617188 367.191406 C 54.617188 369.992188 55.292969 371.394531 56.644531 371.394531 Z M 62.785156 372.132812 L 62.785156 370.488281 L 64.433594 370.488281 L 64.433594 372.132812 Z M 67.140625 372.132812 L 67.140625 370.980469 C 67.519531 370.085938 68.292969 369.113281 69.460938 368.058594 L 70.214844 367.386719 C 71.183594 366.511719 71.667969 365.640625 71.667969 364.777344 C 71.667969 364.226562 71.5 363.792969 71.167969 363.476562 C 70.839844 363.164062 70.382812 363.003906 69.804688 363.003906 C 69.121094 363.003906 68.316406 363.269531 67.386719 363.796875 L 67.386719 362.636719 C 68.261719 362.226562 69.128906 362.019531 69.992188 362.019531 C 70.917969 362.019531 71.660156 362.265625 72.21875 362.765625 C 72.78125 363.261719 73.058594 363.921875 73.058594 364.746094 C 73.058594 365.335938 72.917969 365.859375 72.636719 366.320312 C 72.355469 366.777344 71.828125 367.332031 71.058594 367.984375 L 70.554688 368.417969 C 69.5 369.3125 68.890625 370.167969 68.726562 370.980469 L 73.015625 370.980469 L 73.015625 372.132812 "/>
<path style=" stroke:none;fill-rule:nonzero;fill:rgb(0%,0%,0%);fill-opacity:1;" d="M 56.628906 258.578125 C 55.613281 258.578125 54.789062 258.097656 54.160156 257.140625 C 53.53125 256.183594 53.214844 254.933594 53.214844 253.390625 C 53.214844 251.835938 53.53125 250.582031 54.164062 249.636719 C 54.800781 248.6875 55.632812 248.214844 56.667969 248.214844 C 57.707031 248.214844 58.539062 248.6875 59.171875 249.636719 C 59.808594 250.582031 60.125 251.828125 60.125 253.371094 C 60.125 254.953125 59.808594 256.214844 59.171875 257.160156 C 58.539062 258.105469 57.691406 258.578125 56.628906 258.578125 Z M 56.644531 257.589844 C 58.035156 257.589844 58.730469 256.179688 58.730469 253.351562 C 58.730469 250.585938 58.042969 249.203125 56.667969 249.203125 C 55.300781 249.203125 54.617188 250.597656 54.617188 253.390625 C 54.617188 256.191406 55.292969 257.589844 56.644531 257.589844 Z M 62.785156 258.332031 L 62.785156 256.683594 L 64.433594 256.683594 L 64.433594 258.332031 Z M 67.140625 258.332031 L 67.140625 257.179688 C 67.519531 256.285156 68.292969 255.3125 69.460938 254.257812 L 70.214844 253.585938 C 71.183594 252.707031 71.667969 251.839844 71.667969 250.976562 C 71.667969 250.425781 71.5 249.992188 71.167969 249.675781 C 70.839844 249.359375 70.382812 249.203125 69.804688 249.203125 C 69.121094 249.203125 68.316406 249.46875 67.386719 249.996094 L 67.386719 248.835938 C 68.261719 248.421875 69.128906 248.214844 69.992188 248.214844 C 70.917969 248.214844 71.660156 248.464844 72.21875 248.960938 C 72.78125 249.460938 73.058594 250.121094 73.058594 250.941406 C 73.058594 251.535156 72.917969 252.058594 72.636719 252.515625 C 72.355469 252.976562 71.828125 253.53125 71.058594 254.183594 L 70.554688 254.617188 C 69.5 255.511719 68.890625 256.363281 68.726562 257.179688 L 73.015625 257.179688 L 73.015625 258.332031 "/>
<path style=" stroke:none;fill-rule:nonzero;fill:rgb(0%,0%,0%);fill-opacity:1;" d="M 56.628906 201.675781 C 55.613281 201.675781 54.789062 201.199219 54.160156 200.238281 C 53.53125 199.28125 53.214844 198.03125 53.214844 196.488281 C 53.214844 194.933594 53.53125 193.683594 54.164062 192.734375 C 54.800781 191.789062 55.632812 191.316406 56.667969 191.316406 C 57.707031 191.316406 58.539062 191.789062 59.171875 192.734375 C 59.808594 193.683594 60.125 194.925781 60.125 196.46875 C 60.125 198.050781 59.808594 199.316406 59.171875 200.261719 C 58.539062 201.203125 57.691406 201.675781 56.628906 201.675781 Z M 56.644531 200.691406 C 58.035156 200.691406 58.730469 199.277344 58.730469 196.449219 C 58.730469 193.683594 58.042969 192.300781 56.667969 192.300781 C 55.300781 192.300781 54.617188 193.695312 54.617188 196.488281 C 54.617188 199.289062 55.292969 200.691406 56.644531 200.691406 Z M 62.785156 201.429688 L 62.785156 199.78125 L 64.433594 199.78125 L 64.433594 201.429688 Z M 71.148438 201.429688 L 71.148438 198.636719 L 66.707031 198.636719 L 66.707031 197.644531 L 71.148438 191.5625 L 72.378906 191.5625 L 72.378906 197.5625 L 73.699219 197.5625 L 73.699219 198.636719 L 72.378906 198.636719 L 72.378906 201.429688 Z M 67.992188 197.5625 L 71.234375 197.5625 L 71.234375 193.175781 "/>
<path style=" stroke:none;fill-rule:nonzero;fill:rgb(0%,0%,0%);fill-opacity:1;" d="M 56.628906 145.914062 C 55.613281 145.914062 54.789062 145.433594 54.160156 144.476562 C 53.53125 143.519531 53.214844 142.269531 53.214844 140.726562 C 53.214844 139.171875 53.53125 137.917969 54.164062 136.972656 C 54.800781 136.023438 55.632812 135.550781 56.667969 135.550781 C 57.707031 135.550781 58.539062 136.023438 59.171875 136.972656 C 59.808594 137.917969 60.125 139.164062 60.125 140.707031 C 60.125 142.289062 59.808594 143.550781 59.171875 144.496094 C 58.539062 145.441406 57.691406 145.914062 56.628906 145.914062 Z M 56.644531 144.925781 C 58.035156 144.925781 58.730469 143.511719 58.730469 140.6875 C 58.730469 137.921875 58.042969 136.539062 56.667969 136.539062 C 55.300781 136.539062 54.617188 137.933594 54.617188 140.726562 C 54.617188 143.527344 55.292969 144.925781 56.644531 144.925781 Z M 62.785156 145.667969 L 62.785156 144.019531 L 64.433594 144.019531 L 64.433594 145.667969 Z M 68.351562 140.554688 C 68.980469 139.738281 69.769531 139.332031 70.71875 139.332031 C 71.582031 139.332031 72.289062 139.617188 72.835938 140.1875 C 73.386719 140.761719 73.660156 141.492188 73.660156 142.386719 C 73.660156 143.414062 73.351562 144.257812 72.738281 144.921875 C 72.121094 145.582031 71.339844 145.914062 70.394531 145.914062 C 69.304688 145.914062 68.453125 145.476562 67.839844 144.601562 C 67.226562 143.722656 66.917969 142.507812 66.917969 140.953125 C 66.917969 139.242188 67.269531 137.910156 67.976562 136.964844 C 68.679688 136.019531 69.671875 135.546875 70.953125 135.546875 C 71.539062 135.546875 72.273438 135.667969 73.152344 135.917969 L 73.152344 137.066406 C 72.222656 136.710938 71.464844 136.53125 70.871094 136.53125 C 69.191406 136.53125 68.351562 137.871094 68.351562 140.554688 Z M 72.339844 142.679688 C 72.339844 141.933594 72.171875 141.347656 71.835938 140.917969 C 71.5 140.492188 71.035156 140.277344 70.441406 140.277344 C 69.882812 140.277344 69.40625 140.464844 69.007812 140.839844 C 68.605469 141.214844 68.40625 141.660156 68.40625 142.1875 C 68.40625 143.011719 68.597656 143.675781 68.976562 144.175781 C 69.355469 144.675781 69.859375 144.925781 70.484375 144.925781 C 71.050781 144.925781 71.5 144.722656 71.835938 144.316406 C 72.171875 143.910156 72.339844 143.363281 72.339844 142.679688 "/>
<path style=" stroke:none;fill-rule:nonzero;fill:rgb(0%,0%,0%);fill-opacity:1;" d="M 56.628906 89.011719 C 55.613281 89.011719 54.789062 88.535156 54.160156 87.574219 C 53.53125 86.617188 53.214844 85.367188 53.214844 83.824219 C 53.214844 82.269531 53.53125 81.019531 54.164062 80.070312 C 54.800781 79.125 55.632812 78.648438 56.667969 78.648438 C 57.707031 78.648438 58.539062 79.125 59.171875 80.070312 C 59.808594 81.019531 60.125 82.261719 60.125 83.804688 C 60.125 85.386719 59.808594 86.652344 59.171875 87.597656 C 58.539062 88.539062 57.691406 89.011719 56.628906 89.011719 Z M 56.644531 88.027344 C 58.035156 88.027344 58.730469 86.613281 58.730469 83.785156 C 58.730469 81.019531 58.042969 79.636719 56.667969 79.636719 C 55.300781 79.636719 54.617188 81.03125 54.617188 83.824219 C 54.617188 86.625 55.292969 88.027344 56.644531 88.027344 Z M 62.785156 88.765625 L 62.785156 87.117188 L 64.433594 87.117188 L 64.433594 88.765625 Z M 69.144531 83.390625 C 68.179688 82.71875 67.699219 81.976562 67.699219 81.164062 C 67.699219 80.417969 67.972656 79.8125 68.519531 79.34375 C 69.066406 78.878906 69.78125 78.644531 70.660156 78.644531 C 71.472656 78.644531 72.132812 78.839844 72.636719 79.238281 C 73.140625 79.632812 73.394531 80.144531 73.394531 80.777344 C 73.394531 81.734375 72.78125 82.605469 71.554688 83.390625 C 73.042969 84.121094 73.785156 85.0625 73.785156 86.210938 C 73.785156 87.039062 73.472656 87.710938 72.851562 88.230469 C 72.226562 88.753906 71.417969 89.011719 70.433594 89.011719 C 69.464844 89.011719 68.679688 88.765625 68.082031 88.277344 C 67.484375 87.785156 67.183594 87.140625 67.183594 86.339844 C 67.183594 85.15625 67.839844 84.175781 69.144531 83.390625 Z M 70.820312 82.976562 C 71.738281 82.371094 72.199219 81.699219 72.199219 80.957031 C 72.199219 80.5625 72.046875 80.242188 71.738281 80 C 71.433594 79.757812 71.027344 79.636719 70.527344 79.636719 C 70.042969 79.636719 69.648438 79.757812 69.347656 79.992188 C 69.042969 80.230469 68.894531 80.539062 68.894531 80.917969 C 68.894531 81.285156 69.03125 81.617188 69.300781 81.90625 C 69.578125 82.199219 70.082031 82.554688 70.820312 82.976562 Z M 69.859375 83.925781 C 69.332031 84.335938 68.972656 84.691406 68.78125 84.996094 C 68.59375 85.300781 68.5 85.679688 68.5 86.132812 C 68.5 86.695312 68.679688 87.152344 69.046875 87.503906 C 69.410156 87.851562 69.890625 88.027344 70.484375 88.027344 C 71.058594 88.027344 71.527344 87.878906 71.890625 87.578125 C 72.253906 87.28125 72.433594 86.894531 72.433594 86.417969 C 72.433594 86.035156 72.320312 85.714844 72.097656 85.449219 C 71.871094 85.183594 71.4375 84.859375 70.792969 84.476562 "/>
<path style=" stroke:none;fill-rule:nonzero;fill:rgb(0%,0%,0%);fill-opacity:1;" d="M 68.058594 31.863281 L 68.058594 30.878906 L 70.03125 30.878906 L 70.03125 23.089844 L 68.058594 23.582031 L 68.058594 22.570312 L 71.351562 21.75 L 71.351562 30.878906 L 73.328125 30.878906 L 73.328125 31.863281 "/>
<path style=" stroke:none;fill-rule:nonzero;fill:rgb(0%,0%,0%);fill-opacity:1;" d="M 70.285156 327.996094 C 69.269531 327.996094 68.445312 327.519531 67.816406 326.558594 C 67.1875 325.601562 66.871094 324.351562 66.871094 322.808594 C 66.871094 321.253906 67.1875 320.003906 67.824219 319.054688 C 68.457031 318.109375 69.289062 317.636719 70.328125 317.636719 C 71.363281 317.636719 72.195312 318.109375 72.832031 319.054688 C 73.464844 320.003906 73.78125 321.246094 73.78125 322.789062 C 73.78125 324.371094 73.464844 325.636719 72.832031 326.582031 C 72.195312 327.523438 71.347656 327.996094 70.285156 327.996094 Z M 70.300781 327.011719 C 71.691406 327.011719 72.386719 325.597656 72.386719 322.769531 C 72.386719 320.003906 71.699219 318.621094 70.328125 318.621094 C 68.957031 318.621094 68.273438 320.019531 68.273438 322.808594 C 68.273438 325.609375 68.949219 327.011719 70.300781 327.011719 "/>
<path style="fill:none;stroke-width:25;stroke-linecap:round;stroke-linejoin:round;stroke:rgb(30.200195%,57.617188%,30.200195%);stroke-opacity:1;stroke-miterlimit:10;" d="M -1650.117188 2651.171875 L -1598.554688 2690.507812 L -1546.992188 2729.257812 L -1495.429688 2767.382812 L -1443.867188 2804.84375 L -1392.304688 2841.679688 L -1340.742188 2877.851562 L -1289.179688 2913.359375 L -1237.617188 2948.125 L -1186.054688 2982.265625 L -1134.453125 3015.625 L -1082.890625 3048.320312 L -1031.328125 3080.273438 L -979.765625 3111.484375 L -928.203125 3141.914062 L -876.640625 3171.601562 L -825.078125 3200.546875 L -773.515625 3228.671875 L -721.953125 3256.015625 L -670.351562 3282.539062 L -618.789062 3308.28125 L -567.226562 3333.203125 L -515.664062 3357.304688 L -464.101562 3380.585938 L -412.539062 3403.007812 L -360.976562 3424.570312 L -309.414062 3445.273438 L -257.8125 3465.15625 L -206.25 3484.101562 L -154.6875 3502.226562 L -103.125 3519.453125 L -51.5625 3535.78125 L 0 3551.25 L 51.5625 3565.78125 L 103.125 3579.453125 L 154.6875 3592.1875 L 206.25 3604.023438 L 257.8125 3614.960938 L 309.414062 3624.921875 L 360.976562 3634.023438 L 412.539062 3642.1875 L 464.101562 3649.375 L 515.664062 3655.703125 L 567.226562 3661.054688 L 618.789062 3665.46875 L 670.351562 3668.984375 L 721.953125 3671.523438 L 773.515625 3673.164062 L 825.078125 3673.828125 L 876.640625 3673.554688 L 928.203125 3672.382812 L 979.765625 3670.234375 L 1031.328125 3667.1875 L 1082.890625 3663.164062 L 1134.453125 3658.242188 L 1186.054688 3652.34375 L 1237.617188 3645.546875 L 1289.179688 3637.8125 L 1340.742188 3629.179688 L 1392.304688 3619.609375 L 1443.867188 3609.101562 L 1495.429688 3597.65625 L 1546.992188 3585.351562 L 1598.554688 3572.109375 L 1650.117188 3557.96875 L 1701.71875 3542.890625 L 1753.28125 3526.953125 L 1804.84375 3510.15625 L 1856.40625 3492.421875 L 1907.96875 3473.828125 L 1959.53125 3454.375 L 2011.09375 3434.0625 L 2062.65625 3412.851562 L 2114.21875 3390.820312 L 2165.78125 3367.96875 L 2217.382812 3344.21875 L 2268.945312 3319.6875 L 2320.507812 3294.296875 L 2372.070312 3268.125 L 2423.632812 3241.132812 L 2475.195312 3213.359375 L 2526.757812 3184.804688 L 2578.359375 3155.46875 L 2629.882812 3125.351562 L 2681.484375 3094.492188 L 2733.046875 3062.890625 L 2784.609375 3030.546875 L 2836.171875 2997.460938 L 2887.734375 2963.671875 L 2939.296875 2929.179688 L 2990.859375 2893.984375 L 3042.421875 2858.125 L 3093.984375 2821.601562 L 3145.585938 2784.414062 L 3197.148438 2746.601562 L 3248.710938 2708.125 L 3300.273438 2669.0625 L 3351.835938 2629.375 L 3403.398438 2589.101562 L 3454.960938 2548.242188 L 3506.523438 2506.835938 L 3558.085938 2464.84375 L 3609.6875 2422.34375 L 3661.210938 2379.296875 L 3712.8125 2335.742188 L 3764.375 2291.71875 L 3815.9375 2247.1875 L 3867.5 2202.226562 L 3919.0625 2156.796875 L 3970.625 2110.898438 L 4022.1875 2064.609375 L 4073.789062 2017.890625 L 4125.351562 1970.820312 L 4176.914062 1923.359375 L 4228.476562 1875.546875 L 4280.039062 1827.382812 L 4331.601562 1778.867188 L 4383.164062 1730.078125 L 4434.726562 1680.976562 L 4486.289062 1631.601562 L 4537.851562 1581.953125 L 4589.453125 1532.070312 L 4641.015625 1481.953125 L 4692.578125 1431.640625 L 4744.140625 1381.09375 L 4795.703125 1330.390625 L 4847.265625 1279.53125 L 4898.828125 1228.515625 L 4950.390625 1177.382812 " transform="matrix(0.1,0,0,-0.1,0,394)"/>
<path style="fill:none;stroke-width:25;stroke-linecap:round;stroke-linejoin:round;stroke:rgb(30.200195%,30.200195%,100%);stroke-opacity:1;stroke-miterlimit:10;" d="M -928.203125 -813.90625 L -876.640625 -771.71875 L -825.078125 -729.023438 L -773.515625 -685.820312 L -721.953125 -642.109375 L -670.351562 -597.890625 L -618.789062 -553.203125 L -567.226562 -508.046875 L -515.664062 -462.460938 L -464.101562 -416.445312 L -412.539062 -370.039062 L -360.976562 -323.203125 L -309.414062 -275.976562 L -257.8125 -228.359375 L -206.25 -180.429688 L -154.6875 -132.148438 L -103.125 -83.554688 L -51.5625 -34.648438 L 0 14.570312 L 51.5625 64.023438 L 103.125 113.75 L 154.6875 163.710938 L 206.25 213.90625 L 257.8125 264.296875 L 309.414062 314.882812 L 360.976562 365.664062 L 412.539062 416.5625 L 464.101562 467.65625 L 515.664062 518.828125 L 567.226562 570.117188 L 618.789062 621.484375 L 670.351562 672.929688 L 721.953125 724.414062 L 928.203125 930.664062 L 979.765625 982.1875 L 1031.328125 1033.632812 L 1082.890625 1085.039062 L 1134.453125 1136.367188 L 1186.054688 1187.617188 L 1237.617188 1238.710938 L 1289.179688 1289.726562 L 1340.742188 1340.546875 L 1392.304688 1391.210938 L 1443.867188 1441.71875 L 1495.429688 1491.992188 L 1546.992188 1542.070312 L 1598.554688 1591.875 L 1650.117188 1641.484375 L 1701.71875 1690.78125 L 1753.28125 1739.84375 L 1804.84375 1788.59375 L 1856.40625 1837.03125 L 1907.96875 1885.117188 L 1959.53125 1932.851562 L 2011.09375 1980.273438 L 2062.65625 2027.265625 L 2114.21875 2073.90625 L 2165.78125 2120.117188 L 2217.382812 2165.898438 L 2268.945312 2211.25 L 2320.507812 2256.132812 L 2372.070312 2300.546875 L 2423.632812 2344.492188 L 2475.195312 2387.96875 L 2526.757812 2430.898438 L 2578.359375 2473.28125 L 2629.882812 2515.15625 L 2681.484375 2556.445312 L 2733.046875 2597.1875 L 2784.609375 2637.34375 L 2836.171875 2676.914062 L 2887.734375 2715.859375 L 2939.296875 2754.21875 L 2990.859375 2791.914062 L 3042.421875 2828.945312 L 3093.984375 2865.351562 L 3145.585938 2901.09375 L 3197.148438 2936.132812 L 3248.710938 2970.46875 L 3300.273438 3004.101562 L 3351.835938 3037.03125 L 3403.398438 3069.257812 L 3454.960938 3100.703125 L 3506.523438 3131.445312 L 3558.085938 3161.367188 L 3609.6875 3190.585938 L 3661.210938 3218.984375 L 3712.8125 3246.601562 L 3764.375 3273.4375 L 3815.9375 3299.453125 L 3867.5 3324.648438 L 3919.0625 3349.023438 L 3970.625 3372.578125 L 4022.1875 3395.3125 L 4073.789062 3417.148438 L 4125.351562 3438.164062 L 4176.914062 3458.359375 L 4228.476562 3477.617188 L 4280.039062 3496.054688 L 4331.601562 3513.554688 L 4383.164062 3530.234375 L 4434.726562 3545.976562 L 4486.289062 3560.859375 L 4537.851562 3574.804688 L 4589.453125 3587.851562 L 4641.015625 3600.039062 L 4692.578125 3611.25 L 4744.140625 3621.5625 L 4795.703125 3630.976562 L 4847.265625 3639.453125 L 4898.828125 3646.992188 L 4950.390625 3653.59375 " transform="matrix(0.1,0,0,-0.1,0,394)"/>
<path style="fill:none;stroke-width:25;stroke-linecap:round;stroke-linejoin:round;stroke:rgb(100%,30.200195%,30.200195%);stroke-opacity:1;stroke-miterlimit:10;" d="M 836.757812 839.21875 L 836.757812 3673.867188 " transform="matrix(0.1,0,0,-0.1,0,394)"/>
<path style=" stroke:none;fill-rule:nonzero;fill:rgb(26.660156%,26.660156%,26.660156%);fill-opacity:1;" d="M 310.859375 109.640625 C 310.859375 112.152344 308.820312 114.191406 306.308594 114.191406 C 303.792969 114.191406 301.753906 112.152344 301.753906 109.640625 C 301.753906 107.125 303.792969 105.085938 306.308594 105.085938 C 308.820312 105.085938 310.859375 107.125 310.859375 109.640625 "/>
<path style="fill:none;stroke-width:10;stroke-linecap:round;stroke-linejoin:round;stroke:rgb(0%,0%,0%);stroke-opacity:1;stroke-miterlimit:10;" d="M 3108.59375 2843.59375 C 3108.59375 2818.476562 3088.203125 2798.085938 3063.085938 2798.085938 C 3037.929688 2798.085938 3017.539062 2818.476562 3017.539062 2843.59375 C 3017.539062 2868.75 3037.929688 2889.140625 3063.085938 2889.140625 C 3088.203125 2889.140625 3108.59375 2868.75 3108.59375 2843.59375 Z M 3108.59375 2843.59375 " transform="matrix(0.1,0,0,-0.1,0,394)"/>
<path style=" stroke:none;fill-rule:nonzero;fill:rgb(26.660156%,26.660156%,26.660156%);fill-opacity:1;" d="M 284.113281 218.351562 C 282.089844 216.324219 280.398438 214.015625 279.046875 211.425781 C 277.695312 208.835938 276.625 206.1875 275.839844 203.484375 C 275.050781 200.785156 274.484375 197.96875 274.148438 195.039062 C 273.808594 192.113281 273.640625 189.070312 273.640625 185.917969 C 273.640625 182.988281 273.808594 180.0625 274.148438 177.132812 C 274.484375 174.207031 275.050781 171.335938 275.839844 168.519531 C 276.625 165.703125 277.695312 163.058594 279.046875 160.578125 C 280.398438 158.101562 282.089844 155.851562 284.113281 153.820312 C 284.113281 153.597656 284.113281 153.484375 284.113281 153.484375 L 284.789062 153.484375 C 284.789062 153.484375 284.847656 153.539062 284.960938 153.652344 C 285.070312 153.765625 285.128906 153.820312 285.128906 153.820312 C 285.128906 153.820312 285.015625 153.820312 284.789062 153.820312 C 282.988281 156.074219 281.523438 158.441406 280.398438 160.917969 C 279.273438 163.394531 278.371094 166.039062 277.695312 168.855469 C 277.019531 171.671875 276.570312 174.488281 276.34375 177.304688 C 276.117188 180.117188 276.007812 182.988281 276.007812 185.917969 C 276.007812 189.070312 276.117188 192.054688 276.34375 194.871094 C 276.570312 197.6875 277.019531 200.445312 277.695312 203.148438 C 278.371094 205.851562 279.273438 208.496094 280.398438 211.089844 C 281.523438 213.679688 282.988281 215.988281 284.789062 218.015625 C 285.015625 218.238281 285.128906 218.351562 285.128906 218.351562 C 285.128906 218.351562 285.070312 218.351562 284.960938 218.351562 C 284.847656 218.351562 284.789062 218.351562 284.789062 218.351562 L 284.113281 218.351562 "/>
<path style=" stroke:none;fill-rule:nonzero;fill:rgb(26.660156%,26.660156%,26.660156%);fill-opacity:1;" d="M 294.03125 168.738281 L 292.679688 173.464844 C 292.453125 174.367188 292.339844 175.15625 292.339844 175.832031 C 292.113281 176.507812 291.890625 176.84375 291.664062 176.84375 C 291.4375 177.070312 291.214844 177.183594 290.988281 177.183594 C 290.765625 177.183594 290.652344 176.957031 290.652344 176.507812 C 290.652344 176.28125 290.652344 176.058594 290.652344 175.832031 C 292.003906 172.902344 292.902344 170.539062 293.355469 168.738281 L 292.339844 168.738281 C 291.214844 168.738281 290.3125 169.300781 289.636719 170.425781 C 289.414062 170.652344 289.1875 170.765625 288.960938 170.765625 C 288.960938 170.765625 288.960938 170.652344 288.960938 170.425781 C 288.960938 170.199219 289.1875 169.75 289.636719 169.074219 C 289.636719 169.074219 289.75 168.960938 289.976562 168.738281 C 289.976562 168.738281 290.089844 168.625 290.3125 168.398438 C 290.765625 167.722656 291.4375 167.386719 292.339844 167.386719 L 299.773438 167.386719 C 300.222656 167.386719 300.449219 167.496094 300.449219 167.722656 C 300.449219 167.949219 300.449219 168.0625 300.449219 168.0625 C 300.449219 168.511719 300.109375 168.738281 299.433594 168.738281 L 297.070312 168.738281 C 296.84375 170.089844 296.730469 171.214844 296.730469 172.113281 C 296.730469 173.464844 296.957031 174.703125 297.40625 175.832031 C 297.40625 176.058594 297.40625 176.167969 297.40625 176.167969 C 297.40625 176.621094 297.183594 176.84375 296.730469 176.84375 C 296.730469 177.070312 296.621094 177.183594 296.394531 177.183594 C 296.167969 177.183594 295.945312 176.957031 295.71875 176.507812 C 295.71875 176.28125 295.71875 176.167969 295.71875 176.167969 C 295.71875 175.492188 295.71875 174.929688 295.71875 174.480469 C 295.71875 173.355469 295.832031 171.890625 296.058594 170.089844 L 296.394531 168.738281 L 294.03125 168.738281 "/>
<path style=" stroke:none;fill-rule:nonzero;fill:rgb(26.660156%,26.660156%,26.660156%);fill-opacity:1;" d="M 288.285156 186.5 L 300.613281 186.5 L 300.613281 185.636719 L 288.285156 185.636719 Z M 288.285156 186.5 "/>
<path style=" stroke:none;fill-rule:nonzero;fill:rgb(26.660156%,26.660156%,26.660156%);fill-opacity:1;" d="M 289.71875 202.589844 L 289.71875 201.910156 L 296.136719 191.777344 C 296.363281 191.777344 296.589844 191.777344 296.8125 191.777344 C 297.039062 191.777344 297.152344 191.777344 297.152344 191.777344 L 297.152344 201.910156 L 299.179688 201.910156 L 299.179688 202.589844 L 297.152344 202.589844 L 297.152344 204.617188 C 297.152344 205.066406 297.265625 205.289062 297.488281 205.289062 C 297.488281 205.515625 297.941406 205.628906 298.839844 205.628906 L 299.179688 205.628906 L 299.179688 206.304688 C 298.503906 206.304688 297.488281 206.304688 296.136719 206.304688 C 294.785156 206.304688 293.886719 206.304688 293.433594 206.304688 L 293.433594 205.628906 L 293.773438 205.628906 C 294.675781 205.628906 295.238281 205.515625 295.464844 205.289062 C 295.464844 205.066406 295.464844 204.839844 295.464844 204.617188 L 295.464844 202.589844 Z M 295.464844 201.910156 L 295.464844 194.140625 L 290.394531 201.910156 L 295.464844 201.910156 "/>
<path style=" stroke:none;fill-rule:nonzero;fill:rgb(26.660156%,26.660156%,26.660156%);fill-opacity:1;" d="M 311.203125 191.472656 C 311.203125 192.824219 310.753906 194.0625 309.851562 195.1875 C 309.625 195.414062 309.398438 195.527344 309.175781 195.527344 C 309.175781 195.300781 309.175781 195.1875 309.175781 195.1875 C 310.074219 194.289062 310.640625 193.160156 310.863281 191.8125 C 310.863281 191.8125 310.863281 191.699219 310.863281 191.472656 C 310.863281 191.246094 310.753906 191.136719 310.527344 191.136719 C 310.300781 191.359375 310.074219 191.472656 309.851562 191.472656 C 309.398438 191.472656 309.0625 191.246094 308.835938 190.796875 C 308.835938 190.570312 308.835938 190.460938 308.835938 190.460938 C 308.835938 189.785156 308.949219 189.332031 309.175781 189.109375 C 309.398438 189.109375 309.625 189.109375 309.851562 189.109375 C 310.527344 189.109375 310.976562 189.558594 311.203125 190.460938 C 311.203125 190.683594 311.203125 191.023438 311.203125 191.472656 "/>
<path style=" stroke:none;fill-rule:nonzero;fill:rgb(26.660156%,26.660156%,26.660156%);fill-opacity:1;" d="M 329.863281 177.539062 L 338.984375 158.621094 C 339.210938 158.394531 339.324219 158.171875 339.324219 157.945312 C 339.546875 157.945312 339.773438 158.171875 340 158.621094 C 340 158.621094 339.886719 158.734375 339.660156 158.960938 L 329.863281 179.230469 C 329.863281 179.453125 329.75 179.566406 329.527344 179.566406 C 329.527344 179.566406 329.414062 179.566406 329.1875 179.566406 C 329.1875 179.566406 329.074219 179.566406 328.851562 179.566406 L 328.851562 179.230469 L 324.796875 170.105469 L 323.445312 170.78125 C 323.445312 171.007812 323.332031 171.121094 323.105469 171.121094 C 323.105469 171.121094 323.105469 171.007812 323.105469 170.78125 C 323.105469 170.78125 323.105469 170.671875 323.105469 170.445312 L 325.472656 168.757812 C 325.472656 168.757812 325.585938 168.757812 325.808594 168.757812 C 325.808594 168.757812 325.921875 168.867188 326.148438 169.09375 L 329.863281 177.539062 "/>
<path style=" stroke:none;fill-rule:nonzero;fill:rgb(26.660156%,26.660156%,26.660156%);fill-opacity:1;" d="M 339.4375 158.960938 L 351.449219 158.960938 L 351.449219 158.09375 L 339.4375 158.09375 Z M 339.4375 158.960938 "/>
<path style=" stroke:none;fill-rule:nonzero;fill:rgb(26.660156%,26.660156%,26.660156%);fill-opacity:1;" d="M 349.234375 173.128906 L 348.558594 176.84375 L 340.449219 176.84375 C 340.449219 176.394531 340.5625 176.167969 340.789062 176.167969 L 344.839844 171.4375 C 346.417969 169.636719 347.207031 168.0625 347.207031 166.710938 C 347.207031 165.359375 346.757812 164.34375 345.855469 163.667969 C 345.40625 163.21875 344.839844 162.992188 344.164062 162.992188 C 343.265625 162.992188 342.476562 163.445312 341.800781 164.34375 C 341.574219 164.570312 341.464844 164.90625 341.464844 165.359375 C 341.464844 165.359375 341.574219 165.359375 341.800781 165.359375 C 342.25 165.359375 342.589844 165.582031 342.8125 166.035156 C 342.8125 166.257812 342.8125 166.371094 342.8125 166.371094 C 342.8125 167.046875 342.476562 167.386719 341.800781 167.386719 C 341.800781 167.609375 341.800781 167.722656 341.800781 167.722656 C 341.125 167.722656 340.675781 167.496094 340.449219 167.046875 C 340.449219 166.820312 340.449219 166.597656 340.449219 166.371094 C 340.449219 165.246094 340.898438 164.34375 341.800781 163.667969 C 342.476562 162.769531 343.378906 162.316406 344.503906 162.316406 C 346.078125 162.316406 347.320312 162.878906 348.21875 164.007812 C 348.671875 164.683594 349.007812 165.472656 349.234375 166.371094 C 349.234375 166.371094 349.234375 166.484375 349.234375 166.710938 C 349.234375 167.609375 348.78125 168.625 347.882812 169.75 C 347.433594 170.199219 346.757812 170.765625 345.855469 171.4375 L 344.839844 172.789062 L 344.503906 172.789062 L 342.140625 175.15625 L 346.191406 175.15625 C 347.320312 175.15625 347.996094 175.15625 348.21875 175.15625 C 348.21875 174.929688 348.332031 174.253906 348.558594 173.128906 L 349.234375 173.128906 "/>
<path style=" stroke:none;fill-rule:nonzero;fill:rgb(26.660156%,26.660156%,26.660156%);fill-opacity:1;" d="M 321.417969 186.5 L 351.449219 186.5 L 351.449219 185.636719 L 321.417969 185.636719 Z M 321.417969 186.5 "/>
<path style=" stroke:none;fill-rule:nonzero;fill:rgb(26.660156%,26.660156%,26.660156%);fill-opacity:1;" d="M 340.824219 202.589844 L 340.148438 206.304688 L 332.039062 206.304688 C 332.039062 205.855469 332.152344 205.628906 332.378906 205.628906 L 336.433594 200.898438 C 338.007812 199.097656 338.796875 197.519531 338.796875 196.167969 C 338.796875 194.816406 338.347656 193.804688 337.445312 193.128906 C 336.996094 192.679688 336.433594 192.453125 335.757812 192.453125 C 334.855469 192.453125 334.066406 192.902344 333.390625 193.804688 C 333.167969 194.03125 333.054688 194.367188 333.054688 194.816406 C 333.054688 194.816406 333.167969 194.816406 333.390625 194.816406 C 333.84375 194.816406 334.179688 195.042969 334.40625 195.492188 C 334.40625 195.71875 334.40625 195.832031 334.40625 195.832031 C 334.40625 196.507812 334.066406 196.84375 333.390625 196.84375 C 333.390625 197.070312 333.390625 197.183594 333.390625 197.183594 C 332.714844 197.183594 332.265625 196.957031 332.039062 196.507812 C 332.039062 196.28125 332.039062 196.058594 332.039062 195.832031 C 332.039062 194.703125 332.492188 193.804688 333.390625 193.128906 C 334.066406 192.226562 334.96875 191.777344 336.09375 191.777344 C 337.671875 191.777344 338.910156 192.339844 339.8125 193.464844 C 340.261719 194.140625 340.601562 194.929688 340.824219 195.832031 C 340.824219 195.832031 340.824219 195.945312 340.824219 196.167969 C 340.824219 197.070312 340.375 198.085938 339.472656 199.210938 C 339.023438 199.660156 338.347656 200.222656 337.445312 200.898438 L 336.433594 202.25 L 336.09375 202.25 L 333.730469 204.617188 L 337.785156 204.617188 C 338.910156 204.617188 339.585938 204.617188 339.8125 204.617188 C 339.8125 204.390625 339.925781 203.714844 340.148438 202.589844 L 340.824219 202.589844 "/>
<path style=" stroke:none;fill-rule:nonzero;fill:rgb(26.660156%,26.660156%,26.660156%);fill-opacity:1;" d="M 355.058594 218.351562 C 354.832031 218.351562 354.71875 218.351562 354.71875 218.351562 C 354.71875 218.351562 354.71875 218.238281 354.71875 218.015625 C 356.519531 215.988281 358.039062 213.679688 359.28125 211.089844 C 360.519531 208.496094 361.476562 205.851562 362.152344 203.148438 C 362.828125 200.445312 363.277344 197.6875 363.503906 194.871094 C 363.726562 192.054688 363.839844 189.070312 363.839844 185.917969 C 363.839844 182.988281 363.726562 180.117188 363.503906 177.304688 C 363.277344 174.488281 362.828125 171.730469 362.152344 169.027344 C 361.476562 166.324219 360.519531 163.675781 359.28125 161.085938 C 358.039062 158.496094 356.519531 156.074219 354.71875 153.820312 C 354.71875 153.597656 354.832031 153.484375 355.058594 153.484375 L 355.730469 153.484375 C 355.730469 153.484375 355.730469 153.597656 355.730469 153.820312 C 357.757812 155.851562 359.449219 158.101562 360.800781 160.578125 C 362.152344 163.058594 363.222656 165.703125 364.011719 168.519531 C 364.796875 171.335938 365.359375 174.207031 365.699219 177.132812 C 366.035156 180.0625 366.207031 182.988281 366.207031 185.917969 C 366.207031 189.070312 366.035156 192.113281 365.699219 195.039062 C 365.359375 197.96875 364.796875 200.785156 364.011719 203.484375 C 363.222656 206.1875 362.152344 208.835938 360.800781 211.425781 C 359.449219 214.015625 357.757812 216.324219 355.730469 218.351562 L 355.058594 218.351562 "/>
<path style=" stroke:none;fill-rule:nonzero;fill:rgb(0%,0%,0%);fill-opacity:1;" d="M 148.085938 115.402344 L 146.734375 120.808594 L 149.097656 120.808594 C 150.675781 120.808594 151.914062 120.46875 152.816406 119.792969 C 153.492188 119.117188 153.828125 118.21875 153.828125 117.089844 C 153.828125 116.867188 153.828125 116.753906 153.828125 116.753906 C 153.828125 115.402344 152.929688 114.613281 151.125 114.386719 C 150.902344 114.386719 150.5625 114.386719 150.113281 114.386719 C 149.210938 114.386719 148.761719 114.386719 148.761719 114.386719 C 148.535156 114.613281 148.3125 114.839844 148.085938 115.0625 C 148.085938 115.0625 148.085938 115.175781 148.085938 115.402344 Z M 151.125 121.144531 C 152.476562 121.59375 153.152344 122.382812 153.152344 123.511719 C 153.152344 123.511719 153.152344 123.621094 153.152344 123.847656 C 153.152344 124.074219 153.152344 124.410156 153.152344 124.859375 C 152.929688 125.988281 152.816406 126.777344 152.816406 127.226562 C 152.816406 127.902344 153.039062 128.351562 153.492188 128.578125 C 153.492188 128.578125 153.605469 128.578125 153.828125 128.578125 C 154.503906 128.578125 155.066406 128.238281 155.519531 127.5625 C 155.519531 127.339844 155.632812 127 155.855469 126.550781 C 155.855469 126.324219 155.96875 126.214844 156.195312 126.214844 C 156.195312 126.214844 156.195312 126.324219 156.195312 126.550781 C 156.195312 126.777344 156.082031 127.226562 155.855469 127.902344 C 155.632812 128.128906 155.292969 128.464844 154.84375 128.914062 C 154.390625 128.914062 154.054688 128.914062 153.828125 128.914062 C 152.476562 128.914062 151.578125 128.578125 151.125 127.902344 C 150.902344 127.675781 150.789062 127.226562 150.789062 126.550781 C 150.789062 126.324219 150.902344 125.761719 151.125 124.859375 C 151.351562 124.1875 151.464844 123.734375 151.464844 123.511719 C 151.464844 122.609375 151.011719 121.933594 150.113281 121.484375 C 149.886719 121.484375 149.550781 121.484375 149.097656 121.484375 L 146.394531 121.484375 L 145.046875 127.226562 L 145.046875 127.5625 C 145.046875 127.789062 145.382812 127.902344 146.058594 127.902344 L 146.394531 127.902344 C 146.847656 127.902344 147.070312 128.015625 147.070312 128.238281 C 147.070312 128.464844 146.960938 128.578125 146.734375 128.578125 L 141.328125 128.578125 C 141.101562 128.578125 140.992188 128.464844 140.992188 128.238281 C 140.992188 128.015625 141.101562 127.902344 141.328125 127.902344 C 142.453125 127.902344 143.019531 127.789062 143.019531 127.5625 C 143.242188 127.5625 143.355469 127.339844 143.355469 126.886719 L 146.394531 115.402344 C 146.394531 115.175781 146.394531 114.949219 146.394531 114.726562 C 146.394531 114.726562 146.285156 114.613281 146.058594 114.386719 C 146.058594 114.386719 145.945312 114.386719 145.71875 114.386719 C 145.496094 114.386719 145.269531 114.386719 145.046875 114.386719 C 144.59375 114.386719 144.367188 114.386719 144.367188 114.386719 C 144.367188 113.9375 144.480469 113.710938 144.707031 113.710938 L 151.125 113.710938 C 152.929688 113.710938 154.277344 114.273438 155.179688 115.402344 C 155.632812 115.851562 155.855469 116.414062 155.855469 117.089844 C 155.855469 118.21875 155.066406 119.230469 153.492188 120.132812 C 152.816406 120.582031 152.027344 120.921875 151.125 121.144531 "/>
<path style=" stroke:none;fill-rule:nonzero;fill:rgb(0%,0%,0%);fill-opacity:1;" d="M 173.210938 18.351562 L 171.183594 26.460938 C 170.734375 27.8125 169.945312 28.9375 168.820312 29.835938 C 167.917969 30.511719 167.015625 30.851562 166.117188 30.851562 C 165.214844 30.851562 164.539062 30.511719 164.089844 29.835938 C 163.863281 29.613281 163.75 29.386719 163.75 29.160156 C 163.75 28.261719 164.089844 27.8125 164.765625 27.8125 C 164.765625 27.585938 164.878906 27.472656 165.101562 27.472656 C 165.554688 27.472656 165.777344 27.699219 165.777344 28.148438 C 165.777344 28.148438 165.777344 28.261719 165.777344 28.484375 C 165.777344 28.710938 165.664062 28.9375 165.441406 29.160156 C 165.214844 29.386719 164.878906 29.5 164.425781 29.5 C 164.652344 30.175781 165.214844 30.511719 166.117188 30.511719 C 167.015625 30.511719 167.804688 30.0625 168.480469 29.160156 C 169.15625 28.261719 169.605469 27.246094 169.832031 26.121094 C 169.832031 25.894531 169.832031 25.78125 169.832031 25.78125 C 169.15625 26.460938 168.480469 26.796875 167.804688 26.796875 C 166.679688 26.796875 165.890625 26.347656 165.441406 25.445312 C 165.214844 24.996094 165.101562 24.546875 165.101562 24.09375 C 165.101562 23.417969 165.441406 21.953125 166.117188 19.703125 C 166.117188 19.703125 166.230469 19.703125 166.453125 19.703125 C 166.679688 19.027344 166.792969 18.464844 166.792969 18.011719 C 166.792969 17.5625 166.566406 17.335938 166.117188 17.335938 C 165.441406 17.335938 164.765625 18.011719 164.089844 19.363281 C 164.089844 19.589844 164.089844 19.8125 164.089844 20.039062 C 163.863281 20.265625 163.75 20.378906 163.75 20.378906 C 163.527344 20.378906 163.414062 20.378906 163.414062 20.378906 C 163.414062 19.925781 163.527344 19.476562 163.75 19.027344 C 164.425781 17.675781 165.214844 17 166.117188 17 C 167.015625 17 167.578125 17.335938 167.804688 18.011719 C 168.03125 18.238281 168.144531 18.464844 168.144531 18.6875 C 168.144531 18.914062 167.917969 19.476562 167.46875 20.378906 C 166.792969 22.179688 166.453125 23.53125 166.453125 24.433594 C 166.453125 25.558594 166.902344 26.121094 167.804688 26.121094 C 168.707031 26.121094 169.382812 25.671875 169.832031 24.769531 C 170.058594 24.546875 170.171875 24.433594 170.171875 24.433594 L 171.183594 20.378906 C 171.410156 19.925781 171.519531 19.363281 171.519531 18.6875 C 171.746094 18.011719 171.859375 17.675781 171.859375 17.675781 C 172.085938 17.226562 172.421875 17 172.871094 17 C 173.097656 17.226562 173.210938 17.449219 173.210938 17.675781 C 173.210938 17.898438 173.210938 18.125 173.210938 18.351562 "/>
<path style=" stroke:none;fill-rule:nonzero;fill:rgb(0%,0%,0%);fill-opacity:1;" d="M 194.984375 19.363281 L 182.148438 19.363281 C 181.695312 19.363281 181.472656 19.253906 181.472656 19.027344 C 181.472656 18.800781 181.695312 18.6875 182.148438 18.6875 L 194.984375 18.6875 C 195.4375 18.6875 195.660156 18.800781 195.660156 19.027344 C 195.660156 19.253906 195.4375 19.363281 194.984375 19.363281 Z M 194.984375 23.417969 L 182.148438 23.417969 C 181.695312 23.417969 181.472656 23.304688 181.472656 23.078125 C 181.472656 22.855469 181.695312 22.742188 182.148438 22.742188 L 194.984375 22.742188 C 195.4375 22.742188 195.660156 22.855469 195.660156 23.078125 C 195.660156 23.304688 195.4375 23.417969 194.984375 23.417969 "/>
<path style=" stroke:none;fill-rule:nonzero;fill:rgb(0%,0%,0%);fill-opacity:1;" d="M 210.714844 18.011719 C 210.265625 17.5625 209.476562 17.335938 208.351562 17.335938 C 207.449219 17.335938 206.773438 17.785156 206.324219 18.6875 C 205.648438 19.363281 205.308594 20.378906 205.308594 21.730469 C 205.308594 23.757812 205.984375 25.109375 207.335938 25.78125 C 207.785156 26.007812 208.238281 26.121094 208.6875 26.121094 C 210.039062 26.121094 210.941406 25.332031 211.390625 23.757812 C 211.390625 23.757812 211.503906 23.757812 211.730469 23.757812 C 211.953125 23.757812 212.066406 23.757812 212.066406 23.757812 C 212.066406 24.207031 211.839844 24.65625 211.390625 25.109375 C 210.714844 26.234375 209.699219 26.796875 208.351562 26.796875 C 206.996094 26.796875 205.871094 26.234375 204.972656 25.109375 C 204.070312 24.207031 203.621094 23.078125 203.621094 21.730469 C 203.621094 20.378906 204.183594 19.140625 205.308594 18.011719 C 206.210938 17.113281 207.222656 16.660156 208.351562 16.660156 C 209.476562 16.660156 210.378906 17 211.054688 17.675781 C 211.503906 18.125 211.730469 18.574219 211.730469 19.027344 C 211.730469 19.703125 211.503906 20.039062 211.054688 20.039062 C 210.828125 20.039062 210.714844 20.039062 210.714844 20.039062 C 210.265625 20.039062 209.925781 19.8125 209.699219 19.363281 C 209.699219 19.363281 209.699219 19.253906 209.699219 19.027344 C 209.699219 18.574219 209.925781 18.238281 210.378906 18.011719 C 210.601562 18.011719 210.714844 18.011719 210.714844 18.011719 "/>
<path style=" stroke:none;fill-rule:nonzero;fill:rgb(0%,0%,0%);fill-opacity:1;" d="M 222.691406 21.730469 C 222.691406 23.304688 222.128906 24.546875 221 25.445312 C 220.101562 26.347656 219.085938 26.796875 217.960938 26.796875 C 216.609375 26.796875 215.480469 26.234375 214.582031 25.109375 C 213.679688 24.207031 213.230469 23.078125 213.230469 21.730469 C 213.230469 20.378906 213.679688 19.140625 214.582031 18.011719 C 215.480469 17.113281 216.609375 16.660156 217.960938 16.660156 C 219.3125 16.660156 220.4375 17.226562 221.339844 18.351562 C 222.238281 19.476562 222.691406 20.601562 222.691406 21.730469 Z M 217.960938 26.121094 C 218.859375 26.121094 219.648438 25.78125 220.324219 25.109375 L 220.324219 24.433594 C 220.773438 23.980469 221 23.078125 221 21.730469 C 221 20.378906 220.773438 19.363281 220.324219 18.6875 C 219.648438 17.785156 218.859375 17.335938 217.960938 17.335938 C 217.058594 17.335938 216.269531 17.675781 215.59375 18.351562 C 215.59375 18.351562 215.59375 18.464844 215.59375 18.6875 C 215.144531 19.363281 214.917969 20.378906 214.917969 21.730469 C 214.917969 23.078125 215.144531 24.09375 215.59375 24.769531 C 216.046875 25.671875 216.835938 26.121094 217.960938 26.121094 "/>
<path style=" stroke:none;fill-rule:nonzero;fill:rgb(0%,0%,0%);fill-opacity:1;" d="M 227.757812 22.40625 C 226.632812 21.953125 225.84375 21.617188 225.394531 21.390625 C 225.167969 21.390625 225.054688 21.390625 225.054688 21.390625 C 224.378906 20.714844 224.039062 20.039062 224.039062 19.363281 C 224.039062 18.464844 224.492188 17.785156 225.394531 17.335938 C 226.066406 16.886719 226.742188 16.660156 227.421875 16.660156 C 228.320312 16.660156 228.996094 16.886719 229.445312 17.335938 C 229.671875 17.335938 229.785156 17.226562 229.785156 17 C 230.011719 16.773438 230.234375 16.660156 230.460938 16.660156 C 230.460938 16.886719 230.460938 17.113281 230.460938 17.335938 L 230.460938 19.363281 C 230.460938 19.8125 230.460938 20.039062 230.460938 20.039062 C 230.234375 20.039062 230.121094 19.925781 230.121094 19.703125 C 229.898438 18.351562 229.335938 17.5625 228.433594 17.335938 C 228.207031 17.335938 227.871094 17.335938 227.421875 17.335938 C 226.066406 17.335938 225.28125 17.675781 225.054688 18.351562 C 225.054688 18.574219 225.054688 18.6875 225.054688 18.6875 C 225.054688 19.589844 225.617188 20.152344 226.742188 20.378906 C 226.96875 20.378906 227.308594 20.488281 227.757812 20.714844 C 228.882812 20.941406 229.671875 21.164062 230.121094 21.390625 C 230.121094 21.390625 230.121094 21.503906 230.121094 21.730469 C 230.796875 22.179688 231.136719 22.855469 231.136719 23.757812 C 231.136719 24.882812 230.6875 25.671875 229.785156 26.121094 C 229.109375 26.570312 228.433594 26.796875 227.757812 26.796875 C 226.855469 26.796875 226.066406 26.460938 225.394531 25.78125 L 224.71875 26.121094 C 224.492188 26.570312 224.378906 26.796875 224.378906 26.796875 C 224.152344 26.570312 224.039062 26.347656 224.039062 26.121094 L 224.039062 23.417969 C 224.039062 22.96875 224.152344 22.742188 224.378906 22.742188 C 224.605469 22.742188 224.71875 22.855469 224.71875 23.078125 C 225.167969 24.882812 225.84375 25.894531 226.742188 26.121094 C 226.96875 26.121094 227.308594 26.121094 227.757812 26.121094 C 228.882812 26.121094 229.671875 25.671875 230.121094 24.769531 C 230.121094 24.546875 230.121094 24.320312 230.121094 24.09375 C 230.121094 23.191406 229.335938 22.628906 227.757812 22.40625 "/>
<path style=" stroke:none;fill-rule:nonzero;fill:rgb(0%,0%,0%);fill-opacity:1;" d="M 238.988281 31.527344 C 238.988281 31.753906 238.988281 31.863281 238.988281 31.863281 C 238.765625 31.863281 238.3125 31.527344 237.636719 30.851562 C 236.738281 29.949219 236.0625 28.9375 235.609375 27.8125 C 234.484375 25.78125 233.921875 23.53125 233.921875 21.054688 C 233.921875 18.574219 234.371094 16.324219 235.273438 14.296875 C 236.175781 12.71875 237.1875 11.480469 238.3125 10.578125 C 238.539062 10.355469 238.765625 10.242188 238.988281 10.242188 C 238.988281 10.242188 238.988281 10.355469 238.988281 10.578125 C 238.988281 10.578125 238.878906 10.691406 238.652344 10.917969 C 236.398438 13.171875 235.273438 16.550781 235.273438 21.054688 C 235.273438 25.558594 236.398438 28.9375 238.652344 31.1875 C 238.878906 31.414062 238.988281 31.527344 238.988281 31.527344 "/>
<path style=" stroke:none;fill-rule:nonzero;fill:rgb(0%,0%,0%);fill-opacity:1;" d="M 247.398438 20.039062 L 246.722656 22.742188 C 246.496094 23.867188 246.382812 24.546875 246.382812 24.769531 C 246.382812 25.445312 246.609375 25.894531 247.058594 26.121094 C 247.285156 26.121094 247.511719 26.121094 247.734375 26.121094 C 248.410156 26.121094 248.976562 25.78125 249.425781 25.109375 C 249.875 24.65625 250.214844 24.09375 250.4375 23.417969 C 250.4375 23.191406 250.550781 23.078125 250.777344 23.078125 C 251.003906 23.078125 251.113281 23.191406 251.113281 23.417969 C 251.113281 23.644531 250.890625 24.09375 250.4375 24.769531 C 249.539062 26.121094 248.636719 26.796875 247.734375 26.796875 C 246.609375 26.796875 245.820312 26.347656 245.371094 25.445312 C 245.371094 25.21875 245.371094 25.109375 245.371094 25.109375 C 244.921875 25.78125 244.355469 26.234375 243.683594 26.460938 C 243.457031 26.683594 243.230469 26.796875 243.007812 26.796875 C 242.105469 26.796875 241.429688 26.460938 240.980469 25.78125 C 240.980469 25.78125 240.980469 25.558594 240.980469 25.109375 C 240.980469 24.65625 241.203125 24.320312 241.65625 24.09375 C 241.878906 24.09375 241.992188 24.09375 241.992188 24.09375 C 242.441406 24.09375 242.78125 24.207031 243.007812 24.433594 C 243.007812 24.65625 243.007812 24.769531 243.007812 24.769531 C 243.007812 25.21875 242.78125 25.558594 242.328125 25.78125 C 242.105469 25.78125 241.992188 25.78125 241.992188 25.78125 C 242.21875 26.007812 242.554688 26.121094 243.007812 26.121094 C 243.683594 26.121094 244.246094 25.671875 244.695312 24.769531 C 244.921875 24.546875 245.03125 24.320312 245.03125 24.09375 C 245.710938 21.164062 246.046875 19.363281 246.046875 18.6875 C 246.046875 17.785156 245.710938 17.335938 245.03125 17.335938 C 244.355469 17.335938 243.683594 17.785156 243.007812 18.6875 C 242.78125 18.914062 242.554688 19.253906 242.328125 19.703125 C 242.328125 19.703125 242.328125 19.8125 242.328125 20.039062 L 241.992188 20.378906 C 241.765625 20.378906 241.65625 20.378906 241.65625 20.378906 C 241.65625 19.925781 241.878906 19.363281 242.328125 18.6875 C 243.007812 17.5625 243.90625 17 245.03125 17 C 246.160156 17 246.949219 17.5625 247.398438 18.6875 C 247.847656 17.785156 248.410156 17.226562 249.089844 17 C 249.3125 17 249.539062 17 249.761719 17 C 250.664062 17 251.226562 17.226562 251.453125 17.675781 C 251.675781 17.898438 251.789062 18.125 251.789062 18.351562 C 251.789062 19.027344 251.453125 19.363281 250.777344 19.363281 C 250.777344 19.589844 250.664062 19.703125 250.4375 19.703125 C 249.988281 19.703125 249.761719 19.476562 249.761719 19.027344 C 249.761719 19.027344 249.761719 18.914062 249.761719 18.6875 C 249.761719 18.238281 249.988281 17.898438 250.4375 17.675781 C 250.4375 17.675781 250.550781 17.675781 250.777344 17.675781 C 250.550781 17.449219 250.214844 17.335938 249.761719 17.335938 C 248.636719 17.335938 247.960938 18.125 247.734375 19.703125 C 247.511719 19.703125 247.398438 19.8125 247.398438 20.039062 "/>
<path style=" stroke:none;fill-rule:nonzero;fill:rgb(0%,0%,0%);fill-opacity:1;" d="M 258.742188 21.054688 C 258.742188 23.53125 258.292969 25.78125 257.390625 27.8125 C 256.714844 29.386719 255.8125 30.625 254.6875 31.527344 C 254.464844 31.753906 254.238281 31.863281 254.011719 31.863281 C 254.011719 31.863281 254.011719 31.753906 254.011719 31.527344 C 254.011719 31.527344 254.011719 31.414062 254.011719 31.1875 C 256.488281 28.9375 257.730469 25.558594 257.730469 21.054688 C 257.730469 16.550781 256.601562 13.171875 254.351562 10.917969 C 254.125 10.691406 254.011719 10.578125 254.011719 10.578125 C 254.011719 10.355469 254.011719 10.242188 254.011719 10.242188 C 254.238281 10.242188 254.6875 10.578125 255.363281 11.257812 C 256.265625 12.15625 256.941406 13.171875 257.390625 14.296875 C 258.292969 16.324219 258.742188 18.574219 258.742188 21.054688 "/>
<path style=" stroke:none;fill-rule:nonzero;fill:rgb(0%,0%,0%);fill-opacity:1;" d="M 180.039062 249.371094 L 178.011719 257.476562 C 177.5625 258.828125 176.773438 259.953125 175.648438 260.855469 C 174.746094 261.53125 173.84375 261.871094 172.945312 261.871094 C 172.042969 261.871094 171.367188 261.53125 170.917969 260.855469 C 170.691406 260.632812 170.578125 260.40625 170.578125 260.179688 C 170.578125 259.28125 170.917969 258.828125 171.59375 258.828125 C 171.59375 258.605469 171.703125 258.492188 171.929688 258.492188 C 172.382812 258.492188 172.605469 258.71875 172.605469 259.167969 C 172.605469 259.167969 172.605469 259.28125 172.605469 259.503906 C 172.605469 259.730469 172.492188 259.953125 172.269531 260.179688 C 172.042969 260.40625 171.703125 260.519531 171.253906 260.519531 C 171.480469 261.195312 172.042969 261.53125 172.945312 261.53125 C 173.84375 261.53125 174.632812 261.082031 175.308594 260.179688 C 175.984375 259.28125 176.433594 258.265625 176.660156 257.140625 C 176.660156 256.914062 176.660156 256.800781 176.660156 256.800781 C 175.984375 257.476562 175.308594 257.816406 174.632812 257.816406 C 173.507812 257.816406 172.71875 257.363281 172.269531 256.464844 C 172.042969 256.015625 171.929688 255.5625 171.929688 255.113281 C 171.929688 254.4375 172.269531 252.972656 172.945312 250.722656 C 172.945312 250.722656 173.058594 250.722656 173.28125 250.722656 C 173.507812 250.046875 173.621094 249.480469 173.621094 249.03125 C 173.621094 248.582031 173.394531 248.355469 172.945312 248.355469 C 172.269531 248.355469 171.59375 249.03125 170.917969 250.382812 C 170.917969 250.609375 170.917969 250.835938 170.917969 251.058594 C 170.691406 251.285156 170.578125 251.394531 170.578125 251.394531 C 170.355469 251.394531 170.242188 251.394531 170.242188 251.394531 C 170.242188 250.945312 170.355469 250.496094 170.578125 250.046875 C 171.253906 248.695312 172.042969 248.019531 172.945312 248.019531 C 173.84375 248.019531 174.40625 248.355469 174.632812 249.03125 C 174.859375 249.257812 174.972656 249.480469 174.972656 249.707031 C 174.972656 249.933594 174.746094 250.496094 174.296875 251.394531 C 173.621094 253.199219 173.28125 254.550781 173.28125 255.449219 C 173.28125 256.578125 173.730469 257.140625 174.632812 257.140625 C 175.535156 257.140625 176.210938 256.6875 176.660156 255.789062 C 176.886719 255.5625 176.996094 255.449219 176.996094 255.449219 L 178.011719 251.394531 C 178.238281 250.945312 178.351562 250.382812 178.351562 249.707031 C 178.574219 249.03125 178.6875 248.695312 178.6875 248.695312 C 178.914062 248.242188 179.25 248.019531 179.699219 248.019531 C 179.925781 248.242188 180.039062 248.46875 180.039062 248.695312 C 180.039062 248.917969 180.039062 249.144531 180.039062 249.371094 "/>
<path style=" stroke:none;fill-rule:nonzero;fill:rgb(0%,0%,0%);fill-opacity:1;" d="M 201.8125 250.382812 L 188.976562 250.382812 C 188.523438 250.382812 188.300781 250.269531 188.300781 250.046875 C 188.300781 249.820312 188.523438 249.707031 188.976562 249.707031 L 201.8125 249.707031 C 202.265625 249.707031 202.488281 249.820312 202.488281 250.046875 C 202.488281 250.269531 202.265625 250.382812 201.8125 250.382812 Z M 201.8125 254.4375 L 188.976562 254.4375 C 188.523438 254.4375 188.300781 254.324219 188.300781 254.097656 C 188.300781 253.875 188.523438 253.761719 188.976562 253.761719 L 201.8125 253.761719 C 202.265625 253.761719 202.488281 253.875 202.488281 254.097656 C 202.488281 254.324219 202.265625 254.4375 201.8125 254.4375 "/>
<path style=" stroke:none;fill-rule:nonzero;fill:rgb(0%,0%,0%);fill-opacity:1;" d="M 214.164062 253.421875 C 213.039062 252.972656 212.25 252.636719 211.800781 252.410156 C 211.574219 252.410156 211.460938 252.410156 211.460938 252.410156 C 210.785156 251.734375 210.449219 251.058594 210.449219 250.382812 C 210.449219 249.480469 210.898438 248.804688 211.800781 248.355469 C 212.476562 247.90625 213.152344 247.679688 213.828125 247.679688 C 214.726562 247.679688 215.402344 247.90625 215.855469 248.355469 C 216.078125 248.355469 216.191406 248.242188 216.191406 248.019531 C 216.417969 247.792969 216.640625 247.679688 216.867188 247.679688 C 216.867188 247.90625 216.867188 248.128906 216.867188 248.355469 L 216.867188 250.382812 C 216.867188 250.835938 216.867188 251.058594 216.867188 251.058594 C 216.640625 251.058594 216.527344 250.945312 216.527344 250.722656 C 216.304688 249.371094 215.742188 248.582031 214.839844 248.355469 C 214.613281 248.355469 214.277344 248.355469 213.828125 248.355469 C 212.476562 248.355469 211.6875 248.695312 211.460938 249.371094 C 211.460938 249.59375 211.460938 249.707031 211.460938 249.707031 C 211.460938 250.609375 212.023438 251.171875 213.152344 251.394531 C 213.375 251.394531 213.714844 251.507812 214.164062 251.734375 C 215.289062 251.960938 216.078125 252.183594 216.527344 252.410156 C 216.527344 252.410156 216.527344 252.523438 216.527344 252.746094 C 217.203125 253.199219 217.542969 253.875 217.542969 254.773438 C 217.542969 255.902344 217.09375 256.6875 216.191406 257.140625 C 215.515625 257.589844 214.839844 257.816406 214.164062 257.816406 C 213.265625 257.816406 212.476562 257.476562 211.800781 256.800781 L 211.125 257.140625 C 210.898438 257.589844 210.785156 257.816406 210.785156 257.816406 C 210.5625 257.589844 210.449219 257.363281 210.449219 257.140625 L 210.449219 254.4375 C 210.449219 253.988281 210.5625 253.761719 210.785156 253.761719 C 211.011719 253.761719 211.125 253.875 211.125 254.097656 C 211.574219 255.902344 212.25 256.914062 213.152344 257.140625 C 213.375 257.140625 213.714844 257.140625 214.164062 257.140625 C 215.289062 257.140625 216.078125 256.6875 216.527344 255.789062 C 216.527344 255.5625 216.527344 255.339844 216.527344 255.113281 C 216.527344 254.210938 215.742188 253.648438 214.164062 253.421875 "/>
<path style=" stroke:none;fill-rule:nonzero;fill:rgb(0%,0%,0%);fill-opacity:1;" d="M 222.019531 248.019531 L 222.019531 255.789062 C 222.019531 256.238281 222.128906 256.578125 222.355469 256.800781 C 222.582031 256.800781 223.03125 256.800781 223.707031 256.800781 L 223.707031 257.476562 C 222.128906 257.476562 221.34375 257.476562 221.34375 257.476562 C 221.117188 257.476562 220.328125 257.476562 218.976562 257.476562 L 218.976562 256.800781 C 219.878906 256.800781 220.441406 256.6875 220.664062 256.464844 C 220.664062 256.464844 220.664062 256.238281 220.664062 255.789062 L 220.664062 250.046875 C 220.664062 249.371094 220.554688 249.03125 220.328125 249.03125 C 220.101562 248.804688 219.652344 248.695312 218.976562 248.695312 L 218.976562 248.019531 Z M 222.355469 244.300781 C 222.355469 244.753906 222.019531 245.089844 221.34375 245.316406 C 221.34375 245.316406 221.230469 245.316406 221.003906 245.316406 C 220.554688 245.316406 220.214844 245.089844 219.992188 244.640625 C 219.992188 244.414062 219.992188 244.300781 219.992188 244.300781 C 219.992188 243.851562 220.214844 243.511719 220.664062 243.289062 C 220.664062 243.0625 220.777344 242.949219 221.003906 242.949219 C 221.453125 242.949219 221.792969 243.175781 222.019531 243.625 C 222.242188 243.851562 222.355469 244.078125 222.355469 244.300781 "/>
<path style=" stroke:none;fill-rule:nonzero;fill:rgb(0%,0%,0%);fill-opacity:1;" d="M 226.671875 250.046875 C 226.671875 249.371094 226.558594 249.03125 226.335938 249.03125 C 226.109375 248.804688 225.769531 248.695312 225.320312 248.695312 L 224.984375 248.695312 L 224.984375 248.019531 L 228.023438 248.019531 L 228.023438 250.046875 C 228.699219 248.695312 229.824219 248.019531 231.402344 248.019531 C 232.304688 248.019531 232.980469 248.242188 233.429688 248.695312 C 233.878906 249.144531 234.105469 249.820312 234.105469 250.722656 C 234.105469 250.945312 234.105469 251.394531 234.105469 252.070312 L 234.105469 256.128906 C 234.105469 256.578125 234.328125 256.800781 234.78125 256.800781 C 235.007812 256.800781 235.34375 256.800781 235.796875 256.800781 L 235.796875 257.476562 C 234.441406 257.476562 233.65625 257.476562 233.429688 257.476562 C 233.429688 257.476562 232.640625 257.476562 231.0625 257.476562 L 231.0625 256.800781 C 231.964844 256.800781 232.414062 256.6875 232.414062 256.464844 C 232.640625 256.464844 232.753906 256.238281 232.753906 255.789062 L 232.753906 250.722656 C 232.753906 249.371094 232.304688 248.582031 231.402344 248.355469 C 231.402344 248.355469 231.289062 248.355469 231.0625 248.355469 C 230.164062 248.355469 229.488281 248.804688 229.039062 249.707031 C 228.363281 250.15625 228.023438 250.835938 228.023438 251.734375 L 228.023438 255.789062 C 228.023438 256.238281 228.136719 256.578125 228.363281 256.800781 C 228.585938 256.800781 229.039062 256.800781 229.714844 256.800781 L 229.714844 257.476562 C 228.363281 257.476562 227.574219 257.476562 227.347656 257.476562 C 227.347656 257.476562 226.558594 257.476562 224.984375 257.476562 L 224.984375 256.800781 C 225.882812 256.800781 226.335938 256.6875 226.335938 256.464844 L 226.671875 256.464844 C 226.671875 256.464844 226.671875 256.238281 226.671875 255.789062 L 226.671875 250.046875 "/>
<path style=" stroke:none;fill-rule:nonzero;fill:rgb(0%,0%,0%);fill-opacity:1;" d="M 243.414062 262.546875 C 243.414062 262.769531 243.414062 262.882812 243.414062 262.882812 C 243.191406 262.882812 242.738281 262.546875 242.0625 261.871094 C 241.164062 260.96875 240.488281 259.953125 240.035156 258.828125 C 238.910156 256.800781 238.347656 254.550781 238.347656 252.070312 C 238.347656 249.59375 238.796875 247.34375 239.699219 245.316406 C 240.601562 243.738281 241.613281 242.5 242.738281 241.597656 C 242.964844 241.371094 243.191406 241.261719 243.414062 241.261719 C 243.414062 241.261719 243.414062 241.371094 243.414062 241.597656 C 243.414062 241.597656 243.300781 241.710938 243.078125 241.9375 C 240.824219 244.1875 239.699219 247.566406 239.699219 252.070312 C 239.699219 256.578125 240.824219 259.953125 243.078125 262.207031 C 243.300781 262.433594 243.414062 262.546875 243.414062 262.546875 "/>
<path style=" stroke:none;fill-rule:nonzero;fill:rgb(0%,0%,0%);fill-opacity:1;" d="M 251.824219 251.058594 L 251.148438 253.761719 C 250.921875 254.886719 250.808594 255.5625 250.808594 255.789062 C 250.808594 256.464844 251.035156 256.914062 251.484375 257.140625 C 251.710938 257.140625 251.9375 257.140625 252.160156 257.140625 C 252.835938 257.140625 253.398438 256.800781 253.851562 256.128906 C 254.300781 255.675781 254.640625 255.113281 254.863281 254.4375 C 254.863281 254.210938 254.976562 254.097656 255.203125 254.097656 C 255.425781 254.097656 255.539062 254.210938 255.539062 254.4375 C 255.539062 254.660156 255.316406 255.113281 254.863281 255.789062 C 253.964844 257.140625 253.0625 257.816406 252.160156 257.816406 C 251.035156 257.816406 250.246094 257.363281 249.796875 256.464844 C 249.796875 256.238281 249.796875 256.128906 249.796875 256.128906 C 249.347656 256.800781 248.78125 257.253906 248.105469 257.476562 C 247.882812 257.703125 247.65625 257.816406 247.433594 257.816406 C 246.53125 257.816406 245.855469 257.476562 245.40625 256.800781 C 245.40625 256.800781 245.40625 256.578125 245.40625 256.128906 C 245.40625 255.675781 245.628906 255.339844 246.078125 255.113281 C 246.304688 255.113281 246.417969 255.113281 246.417969 255.113281 C 246.867188 255.113281 247.207031 255.226562 247.433594 255.449219 C 247.433594 255.675781 247.433594 255.789062 247.433594 255.789062 C 247.433594 256.238281 247.207031 256.578125 246.757812 256.800781 C 246.53125 256.800781 246.417969 256.800781 246.417969 256.800781 C 246.644531 257.027344 246.980469 257.140625 247.433594 257.140625 C 248.105469 257.140625 248.671875 256.6875 249.121094 255.789062 C 249.347656 255.5625 249.460938 255.339844 249.460938 255.113281 C 250.132812 252.183594 250.472656 250.382812 250.472656 249.707031 C 250.472656 248.804688 250.132812 248.355469 249.460938 248.355469 C 248.78125 248.355469 248.105469 248.804688 247.433594 249.707031 C 247.207031 249.933594 246.980469 250.269531 246.757812 250.722656 C 246.757812 250.722656 246.757812 250.835938 246.757812 251.058594 L 246.417969 251.394531 C 246.191406 251.394531 246.078125 251.394531 246.078125 251.394531 C 246.078125 250.945312 246.304688 250.382812 246.757812 249.707031 C 247.433594 248.582031 248.332031 248.019531 249.460938 248.019531 C 250.585938 248.019531 251.371094 248.582031 251.824219 249.707031 C 252.273438 248.804688 252.835938 248.242188 253.511719 248.019531 C 253.738281 248.019531 253.964844 248.019531 254.1875 248.019531 C 255.089844 248.019531 255.652344 248.242188 255.878906 248.695312 C 256.101562 248.917969 256.214844 249.144531 256.214844 249.371094 C 256.214844 250.046875 255.878906 250.382812 255.203125 250.382812 C 255.203125 250.609375 255.089844 250.722656 254.863281 250.722656 C 254.414062 250.722656 254.1875 250.496094 254.1875 250.046875 C 254.1875 250.046875 254.1875 249.933594 254.1875 249.707031 C 254.1875 249.257812 254.414062 248.917969 254.863281 248.695312 C 254.863281 248.695312 254.976562 248.695312 255.203125 248.695312 C 254.976562 248.46875 254.640625 248.355469 254.1875 248.355469 C 253.0625 248.355469 252.386719 249.144531 252.160156 250.722656 C 251.9375 250.722656 251.824219 250.835938 251.824219 251.058594 "/>
<path style=" stroke:none;fill-rule:nonzero;fill:rgb(0%,0%,0%);fill-opacity:1;" d="M 263.167969 252.070312 C 263.167969 254.550781 262.71875 256.800781 261.816406 258.828125 C 261.140625 260.40625 260.238281 261.644531 259.113281 262.546875 C 258.890625 262.769531 258.664062 262.882812 258.4375 262.882812 C 258.4375 262.882812 258.4375 262.769531 258.4375 262.546875 C 258.4375 262.546875 258.4375 262.433594 258.4375 262.207031 C 260.914062 259.953125 262.152344 256.578125 262.152344 252.070312 C 262.152344 247.566406 261.027344 244.1875 258.777344 241.9375 C 258.550781 241.710938 258.4375 241.597656 258.4375 241.597656 C 258.4375 241.371094 258.4375 241.261719 258.4375 241.261719 C 258.664062 241.261719 259.113281 241.597656 259.789062 242.273438 C 260.691406 243.175781 261.367188 244.1875 261.816406 245.316406 C 262.71875 247.34375 263.167969 249.59375 263.167969 252.070312 "/>
</g>
</svg>
