<?xml version="1.0" encoding="UTF-8"?>
<svg xmlns="http://www.w3.org/2000/svg" xmlns:xlink="http://www.w3.org/1999/xlink" width="241pt" height="134pt" viewBox="0 0 241 134" version="1.1">
<g id="surface1">
<rect x="0" y="0" width="241" height="134" style="fill:rgb(100%,100%,100%);fill-opacity:1;stroke:none;"/>
<path style="fill:none;stroke-width:10;stroke-linecap:round;stroke-linejoin:round;stroke:rgb(75.389099%,75.389099%,75.389099%);stroke-opacity:1;stroke-miterlimit:10;" d="M 75.078125 1766.328125 L 75.078125 -174.882812 " transform="matrix(0.1,0,0,-0.1,0,134)"/>
<path style="fill:none;stroke-width:10;stroke-linecap:round;stroke-linejoin:round;stroke:rgb(75.389099%,75.389099%,75.389099%);stroke-opacity:1;stroke-miterlimit:10;" d="M 75.078125 1766.328125 L 75.078125 -174.882812 " transform="matrix(0.1,0,0,-0.1,0,134)"/>
<path style="fill:none;stroke-width:10;stroke-linecap:round;stroke-linejoin:round;stroke:rgb(75.389099%,75.389099%,75.389099%);stroke-opacity:1;stroke-miterlimit:10;" d="M 358.554688 1766.328125 L 358.554688 -174.882812 " transform="matrix(0.1,0,0,-0.1,0,134)"/>
<path style="fill:none;stroke-width:10;stroke-linecap:round;stroke-linejoin:round;stroke:rgb(75.389099%,75.389099%,75.389099%);stroke-opacity:1;stroke-miterlimit:10;" d="M 641.992188 1766.328125 L 641.992188 -174.882812 " transform="matrix(0.1,0,0,-0.1,0,134)"/>
<path style="fill:none;stroke-width:10;stroke-linecap:round;stroke-linejoin:round;stroke:rgb(75.389099%,75.389099%,75.389099%);stroke-opacity:1;stroke-miterlimit:10;" d="M 925.46875 1766.328125 L 925.46875 -174.882812 " transform="matrix(0.1,0,0,-0.1,0,134)"/>
<path style="fill:none;stroke-width:10;stroke-linecap:round;stroke-linejoin:round;stroke:rgb(75.389099%,75.389099%,75.389099%);stroke-opacity:1;stroke-miterlimit:10;" d="M 1492.382812 1766.328125 L 1492.382812 -174.882812 " transform="matrix(0.1,0,0,-0.1,0,134)"/>
<path style="fill:none;stroke-width:10;stroke-linecap:round;stroke-linejoin:round;stroke:rgb(75.389099%,75.389099%,75.389099%);stroke-opacity:1;stroke-miterlimit:10;" d="M 1775.859375 1766.328125 L 1775.859375 -174.882812 " transform="matrix(0.1,0,0,-0.1,0,134)"/>
<path style="fill:none;stroke-width:10;stroke-linecap:round;stroke-linejoin:round;stroke:rgb(75.389099%,75.389099%,75.389099%);stroke-opacity:1;stroke-miterlimit:10;" d="M 2059.335938 1766.328125 L 2059.335938 -174.882812 " transform="matrix(0.1,0,0,-0.1,0,134)"/>
<path style="fill:none;stroke-width:10;stroke-linecap:round;stroke-linejoin:round;stroke:rgb(75.389099%,75.389099%,75.389099%);stroke-opacity:1;stroke-miterlimit:10;" d="M 2342.773438 1766.328125 L 2342.773438 -174.882812 " transform="matrix(0.1,0,0,-0.1,0,134)"/>
<path style="fill:none;stroke-width:10;stroke-linecap:round;stroke-linejoin:round;stroke:rgb(94.139099%,94.139099%,94.139099%);stroke-opacity:1;stroke-miterlimit:10;" d="M 18.398438 1766.328125 L 18.398438 -174.882812 " transform="matrix(0.1,0,0,-0.1,0,134)"/>
<path style="fill:none;stroke-width:10;stroke-linecap:round;stroke-linejoin:round;stroke:rgb(94.139099%,94.139099%,94.139099%);stroke-opacity:1;stroke-miterlimit:10;" d="M 131.757812 1766.328125 L 131.757812 -174.882812 " transform="matrix(0.1,0,0,-0.1,0,134)"/>
<path style="fill:none;stroke-width:10;stroke-linecap:round;stroke-linejoin:round;stroke:rgb(94.139099%,94.139099%,94.139099%);stroke-opacity:1;stroke-miterlimit:10;" d="M 188.476562 1766.328125 L 188.476562 -174.882812 " transform="matrix(0.1,0,0,-0.1,0,134)"/>
<path style="fill:none;stroke-width:10;stroke-linecap:round;stroke-linejoin:round;stroke:rgb(94.139099%,94.139099%,94.139099%);stroke-opacity:1;stroke-miterlimit:10;" d="M 245.15625 1766.328125 L 245.15625 -174.882812 " transform="matrix(0.1,0,0,-0.1,0,134)"/>
<path style="fill:none;stroke-width:10;stroke-linecap:round;stroke-linejoin:round;stroke:rgb(94.139099%,94.139099%,94.139099%);stroke-opacity:1;stroke-miterlimit:10;" d="M 301.835938 1766.328125 L 301.835938 -174.882812 " transform="matrix(0.1,0,0,-0.1,0,134)"/>
<path style="fill:none;stroke-width:10;stroke-linecap:round;stroke-linejoin:round;stroke:rgb(94.139099%,94.139099%,94.139099%);stroke-opacity:1;stroke-miterlimit:10;" d="M 415.234375 1766.328125 L 415.234375 -174.882812 " transform="matrix(0.1,0,0,-0.1,0,134)"/>
<path style="fill:none;stroke-width:10;stroke-linecap:round;stroke-linejoin:round;stroke:rgb(94.139099%,94.139099%,94.139099%);stroke-opacity:1;stroke-miterlimit:10;" d="M 471.914062 1766.328125 L 471.914062 -174.882812 " transform="matrix(0.1,0,0,-0.1,0,134)"/>
<path style="fill:none;stroke-width:10;stroke-linecap:round;stroke-linejoin:round;stroke:rgb(94.139099%,94.139099%,94.139099%);stroke-opacity:1;stroke-miterlimit:10;" d="M 528.632812 1766.328125 L 528.632812 -174.882812 " transform="matrix(0.1,0,0,-0.1,0,134)"/>
<path style="fill:none;stroke-width:10;stroke-linecap:round;stroke-linejoin:round;stroke:rgb(94.139099%,94.139099%,94.139099%);stroke-opacity:1;stroke-miterlimit:10;" d="M 585.3125 1766.328125 L 585.3125 -174.882812 " transform="matrix(0.1,0,0,-0.1,0,134)"/>
<path style="fill:none;stroke-width:10;stroke-linecap:round;stroke-linejoin:round;stroke:rgb(94.139099%,94.139099%,94.139099%);stroke-opacity:1;stroke-miterlimit:10;" d="M 698.710938 1766.328125 L 698.710938 -174.882812 " transform="matrix(0.1,0,0,-0.1,0,134)"/>
<path style="fill:none;stroke-width:10;stroke-linecap:round;stroke-linejoin:round;stroke:rgb(94.139099%,94.139099%,94.139099%);stroke-opacity:1;stroke-miterlimit:10;" d="M 755.390625 1766.328125 L 755.390625 -174.882812 " transform="matrix(0.1,0,0,-0.1,0,134)"/>
<path style="fill:none;stroke-width:10;stroke-linecap:round;stroke-linejoin:round;stroke:rgb(94.139099%,94.139099%,94.139099%);stroke-opacity:1;stroke-miterlimit:10;" d="M 812.070312 1766.328125 L 812.070312 -174.882812 " transform="matrix(0.1,0,0,-0.1,0,134)"/>
<path style="fill:none;stroke-width:10;stroke-linecap:round;stroke-linejoin:round;stroke:rgb(94.139099%,94.139099%,94.139099%);stroke-opacity:1;stroke-miterlimit:10;" d="M 868.789062 1766.328125 L 868.789062 -174.882812 " transform="matrix(0.1,0,0,-0.1,0,134)"/>
<path style="fill:none;stroke-width:10;stroke-linecap:round;stroke-linejoin:round;stroke:rgb(94.139099%,94.139099%,94.139099%);stroke-opacity:1;stroke-miterlimit:10;" d="M 982.148438 1766.328125 L 982.148438 -174.882812 " transform="matrix(0.1,0,0,-0.1,0,134)"/>
<path style="fill:none;stroke-width:10;stroke-linecap:round;stroke-linejoin:round;stroke:rgb(94.139099%,94.139099%,94.139099%);stroke-opacity:1;stroke-miterlimit:10;" d="M 1038.867188 1766.328125 L 1038.867188 -174.882812 " transform="matrix(0.1,0,0,-0.1,0,134)"/>
<path style="fill:none;stroke-width:10;stroke-linecap:round;stroke-linejoin:round;stroke:rgb(94.139099%,94.139099%,94.139099%);stroke-opacity:1;stroke-miterlimit:10;" d="M 1095.546875 1766.328125 L 1095.546875 -174.882812 " transform="matrix(0.1,0,0,-0.1,0,134)"/>
<path style="fill:none;stroke-width:10;stroke-linecap:round;stroke-linejoin:round;stroke:rgb(94.139099%,94.139099%,94.139099%);stroke-opacity:1;stroke-miterlimit:10;" d="M 1152.226562 1766.328125 L 1152.226562 -174.882812 " transform="matrix(0.1,0,0,-0.1,0,134)"/>
<path style="fill:none;stroke-width:10;stroke-linecap:round;stroke-linejoin:round;stroke:rgb(94.139099%,94.139099%,94.139099%);stroke-opacity:1;stroke-miterlimit:10;" d="M 1265.625 1766.328125 L 1265.625 -174.882812 " transform="matrix(0.1,0,0,-0.1,0,134)"/>
<path style="fill:none;stroke-width:10;stroke-linecap:round;stroke-linejoin:round;stroke:rgb(94.139099%,94.139099%,94.139099%);stroke-opacity:1;stroke-miterlimit:10;" d="M 1322.304688 1766.328125 L 1322.304688 -174.882812 " transform="matrix(0.1,0,0,-0.1,0,134)"/>
<path style="fill:none;stroke-width:10;stroke-linecap:round;stroke-linejoin:round;stroke:rgb(94.139099%,94.139099%,94.139099%);stroke-opacity:1;stroke-miterlimit:10;" d="M 1379.023438 1766.328125 L 1379.023438 -174.882812 " transform="matrix(0.1,0,0,-0.1,0,134)"/>
<path style="fill:none;stroke-width:10;stroke-linecap:round;stroke-linejoin:round;stroke:rgb(94.139099%,94.139099%,94.139099%);stroke-opacity:1;stroke-miterlimit:10;" d="M 1435.703125 1766.328125 L 1435.703125 -174.882812 " transform="matrix(0.1,0,0,-0.1,0,134)"/>
<path style="fill:none;stroke-width:10;stroke-linecap:round;stroke-linejoin:round;stroke:rgb(94.139099%,94.139099%,94.139099%);stroke-opacity:1;stroke-miterlimit:10;" d="M 1549.101562 1766.328125 L 1549.101562 -174.882812 " transform="matrix(0.1,0,0,-0.1,0,134)"/>
<path style="fill:none;stroke-width:10;stroke-linecap:round;stroke-linejoin:round;stroke:rgb(94.139099%,94.139099%,94.139099%);stroke-opacity:1;stroke-miterlimit:10;" d="M 1605.78125 1766.328125 L 1605.78125 -174.882812 " transform="matrix(0.1,0,0,-0.1,0,134)"/>
<path style="fill:none;stroke-width:10;stroke-linecap:round;stroke-linejoin:round;stroke:rgb(94.139099%,94.139099%,94.139099%);stroke-opacity:1;stroke-miterlimit:10;" d="M 1662.460938 1766.328125 L 1662.460938 -174.882812 " transform="matrix(0.1,0,0,-0.1,0,134)"/>
<path style="fill:none;stroke-width:10;stroke-linecap:round;stroke-linejoin:round;stroke:rgb(94.139099%,94.139099%,94.139099%);stroke-opacity:1;stroke-miterlimit:10;" d="M 1719.179688 1766.328125 L 1719.179688 -174.882812 " transform="matrix(0.1,0,0,-0.1,0,134)"/>
<path style="fill:none;stroke-width:10;stroke-linecap:round;stroke-linejoin:round;stroke:rgb(94.139099%,94.139099%,94.139099%);stroke-opacity:1;stroke-miterlimit:10;" d="M 1832.578125 1766.328125 L 1832.578125 -174.882812 " transform="matrix(0.1,0,0,-0.1,0,134)"/>
<path style="fill:none;stroke-width:10;stroke-linecap:round;stroke-linejoin:round;stroke:rgb(94.139099%,94.139099%,94.139099%);stroke-opacity:1;stroke-miterlimit:10;" d="M 1889.257812 1766.328125 L 1889.257812 -174.882812 " transform="matrix(0.1,0,0,-0.1,0,134)"/>
<path style="fill:none;stroke-width:10;stroke-linecap:round;stroke-linejoin:round;stroke:rgb(94.139099%,94.139099%,94.139099%);stroke-opacity:1;stroke-miterlimit:10;" d="M 1945.9375 1766.328125 L 1945.9375 -174.882812 " transform="matrix(0.1,0,0,-0.1,0,134)"/>
<path style="fill:none;stroke-width:10;stroke-linecap:round;stroke-linejoin:round;stroke:rgb(94.139099%,94.139099%,94.139099%);stroke-opacity:1;stroke-miterlimit:10;" d="M 2002.65625 1766.328125 L 2002.65625 -174.882812 " transform="matrix(0.1,0,0,-0.1,0,134)"/>
<path style="fill:none;stroke-width:10;stroke-linecap:round;stroke-linejoin:round;stroke:rgb(94.139099%,94.139099%,94.139099%);stroke-opacity:1;stroke-miterlimit:10;" d="M 2116.015625 1766.328125 L 2116.015625 -174.882812 " transform="matrix(0.1,0,0,-0.1,0,134)"/>
<path style="fill:none;stroke-width:10;stroke-linecap:round;stroke-linejoin:round;stroke:rgb(94.139099%,94.139099%,94.139099%);stroke-opacity:1;stroke-miterlimit:10;" d="M 2172.695312 1766.328125 L 2172.695312 -174.882812 " transform="matrix(0.1,0,0,-0.1,0,134)"/>
<path style="fill:none;stroke-width:10;stroke-linecap:round;stroke-linejoin:round;stroke:rgb(94.139099%,94.139099%,94.139099%);stroke-opacity:1;stroke-miterlimit:10;" d="M 2229.414062 1766.328125 L 2229.414062 -174.882812 " transform="matrix(0.1,0,0,-0.1,0,134)"/>
<path style="fill:none;stroke-width:10;stroke-linecap:round;stroke-linejoin:round;stroke:rgb(94.139099%,94.139099%,94.139099%);stroke-opacity:1;stroke-miterlimit:10;" d="M 2286.09375 1766.328125 L 2286.09375 -174.882812 " transform="matrix(0.1,0,0,-0.1,0,134)"/>
<path style="fill:none;stroke-width:10;stroke-linecap:round;stroke-linejoin:round;stroke:rgb(94.139099%,94.139099%,94.139099%);stroke-opacity:1;stroke-miterlimit:10;" d="M 2399.492188 1766.328125 L 2399.492188 -174.882812 " transform="matrix(0.1,0,0,-0.1,0,134)"/>
<path style="fill:none;stroke-width:10;stroke-linecap:round;stroke-linejoin:round;stroke:rgb(75.389099%,75.389099%,75.389099%);stroke-opacity:1;stroke-miterlimit:10;" d="M -86.914062 1203.046875 L 2769.023438 1203.046875 " transform="matrix(0.1,0,0,-0.1,0,134)"/>
<path style="fill:none;stroke-width:10;stroke-linecap:round;stroke-linejoin:round;stroke:rgb(75.389099%,75.389099%,75.389099%);stroke-opacity:1;stroke-miterlimit:10;" d="M -86.914062 636.09375 L 2769.023438 636.09375 " transform="matrix(0.1,0,0,-0.1,0,134)"/>
<path style="fill:none;stroke-width:10;stroke-linecap:round;stroke-linejoin:round;stroke:rgb(75.389099%,75.389099%,75.389099%);stroke-opacity:1;stroke-miterlimit:10;" d="M -86.914062 352.617188 L 2769.023438 352.617188 " transform="matrix(0.1,0,0,-0.1,0,134)"/>
<path style="fill:none;stroke-width:10;stroke-linecap:round;stroke-linejoin:round;stroke:rgb(75.389099%,75.389099%,75.389099%);stroke-opacity:1;stroke-miterlimit:10;" d="M -86.914062 69.179688 L 2769.023438 69.179688 " transform="matrix(0.1,0,0,-0.1,0,134)"/>
<path style="fill:none;stroke-width:10;stroke-linecap:round;stroke-linejoin:round;stroke:rgb(94.139099%,94.139099%,94.139099%);stroke-opacity:1;stroke-miterlimit:10;" d="M -86.914062 1316.40625 L 2769.023438 1316.40625 " transform="matrix(0.1,0,0,-0.1,0,134)"/>
<path style="fill:none;stroke-width:10;stroke-linecap:round;stroke-linejoin:round;stroke:rgb(94.139099%,94.139099%,94.139099%);stroke-opacity:1;stroke-miterlimit:10;" d="M -86.914062 1259.726562 L 2769.023438 1259.726562 " transform="matrix(0.1,0,0,-0.1,0,134)"/>
<path style="fill:none;stroke-width:10;stroke-linecap:round;stroke-linejoin:round;stroke:rgb(94.139099%,94.139099%,94.139099%);stroke-opacity:1;stroke-miterlimit:10;" d="M -86.914062 1146.328125 L 2769.023438 1146.328125 " transform="matrix(0.1,0,0,-0.1,0,134)"/>
<path style="fill:none;stroke-width:10;stroke-linecap:round;stroke-linejoin:round;stroke:rgb(94.139099%,94.139099%,94.139099%);stroke-opacity:1;stroke-miterlimit:10;" d="M -86.914062 1089.648438 L 2769.023438 1089.648438 " transform="matrix(0.1,0,0,-0.1,0,134)"/>
<path style="fill:none;stroke-width:10;stroke-linecap:round;stroke-linejoin:round;stroke:rgb(94.139099%,94.139099%,94.139099%);stroke-opacity:1;stroke-miterlimit:10;" d="M -86.914062 1032.96875 L 2769.023438 1032.96875 " transform="matrix(0.1,0,0,-0.1,0,134)"/>
<path style="fill:none;stroke-width:10;stroke-linecap:round;stroke-linejoin:round;stroke:rgb(94.139099%,94.139099%,94.139099%);stroke-opacity:1;stroke-miterlimit:10;" d="M -86.914062 976.25 L 2769.023438 976.25 " transform="matrix(0.1,0,0,-0.1,0,134)"/>
<path style="fill:none;stroke-width:10;stroke-linecap:round;stroke-linejoin:round;stroke:rgb(94.139099%,94.139099%,94.139099%);stroke-opacity:1;stroke-miterlimit:10;" d="M -86.914062 862.851562 L 2769.023438 862.851562 " transform="matrix(0.1,0,0,-0.1,0,134)"/>
<path style="fill:none;stroke-width:10;stroke-linecap:round;stroke-linejoin:round;stroke:rgb(94.139099%,94.139099%,94.139099%);stroke-opacity:1;stroke-miterlimit:10;" d="M -86.914062 806.171875 L 2769.023438 806.171875 " transform="matrix(0.1,0,0,-0.1,0,134)"/>
<path style="fill:none;stroke-width:10;stroke-linecap:round;stroke-linejoin:round;stroke:rgb(94.139099%,94.139099%,94.139099%);stroke-opacity:1;stroke-miterlimit:10;" d="M -86.914062 749.492188 L 2769.023438 749.492188 " transform="matrix(0.1,0,0,-0.1,0,134)"/>
<path style="fill:none;stroke-width:10;stroke-linecap:round;stroke-linejoin:round;stroke:rgb(94.139099%,94.139099%,94.139099%);stroke-opacity:1;stroke-miterlimit:10;" d="M -86.914062 692.773438 L 2769.023438 692.773438 " transform="matrix(0.1,0,0,-0.1,0,134)"/>
<path style="fill:none;stroke-width:10;stroke-linecap:round;stroke-linejoin:round;stroke:rgb(94.139099%,94.139099%,94.139099%);stroke-opacity:1;stroke-miterlimit:10;" d="M -86.914062 579.414062 L 2769.023438 579.414062 " transform="matrix(0.1,0,0,-0.1,0,134)"/>
<path style="fill:none;stroke-width:10;stroke-linecap:round;stroke-linejoin:round;stroke:rgb(94.139099%,94.139099%,94.139099%);stroke-opacity:1;stroke-miterlimit:10;" d="M -86.914062 522.695312 L 2769.023438 522.695312 " transform="matrix(0.1,0,0,-0.1,0,134)"/>
<path style="fill:none;stroke-width:10;stroke-linecap:round;stroke-linejoin:round;stroke:rgb(94.139099%,94.139099%,94.139099%);stroke-opacity:1;stroke-miterlimit:10;" d="M -86.914062 466.015625 L 2769.023438 466.015625 " transform="matrix(0.1,0,0,-0.1,0,134)"/>
<path style="fill:none;stroke-width:10;stroke-linecap:round;stroke-linejoin:round;stroke:rgb(94.139099%,94.139099%,94.139099%);stroke-opacity:1;stroke-miterlimit:10;" d="M -86.914062 409.335938 L 2769.023438 409.335938 " transform="matrix(0.1,0,0,-0.1,0,134)"/>
<path style="fill:none;stroke-width:10;stroke-linecap:round;stroke-linejoin:round;stroke:rgb(94.139099%,94.139099%,94.139099%);stroke-opacity:1;stroke-miterlimit:10;" d="M -86.914062 295.9375 L 2769.023438 295.9375 " transform="matrix(0.1,0,0,-0.1,0,134)"/>
<path style="fill:none;stroke-width:10;stroke-linecap:round;stroke-linejoin:round;stroke:rgb(94.139099%,94.139099%,94.139099%);stroke-opacity:1;stroke-miterlimit:10;" d="M -86.914062 239.257812 L 2769.023438 239.257812 " transform="matrix(0.1,0,0,-0.1,0,134)"/>
<path style="fill:none;stroke-width:10;stroke-linecap:round;stroke-linejoin:round;stroke:rgb(94.139099%,94.139099%,94.139099%);stroke-opacity:1;stroke-miterlimit:10;" d="M -86.914062 182.539062 L 2769.023438 182.539062 " transform="matrix(0.1,0,0,-0.1,0,134)"/>
<path style="fill:none;stroke-width:10;stroke-linecap:round;stroke-linejoin:round;stroke:rgb(94.139099%,94.139099%,94.139099%);stroke-opacity:1;stroke-miterlimit:10;" d="M -86.914062 125.859375 L 2769.023438 125.859375 " transform="matrix(0.1,0,0,-0.1,0,134)"/>
<path style="fill:none;stroke-width:10;stroke-linecap:round;stroke-linejoin:round;stroke:rgb(94.139099%,94.139099%,94.139099%);stroke-opacity:1;stroke-miterlimit:10;" d="M -86.914062 12.460938 L 2769.023438 12.460938 " transform="matrix(0.1,0,0,-0.1,0,134)"/>
<path style="fill:none;stroke-width:10;stroke-linecap:butt;stroke-linejoin:miter;stroke:rgb(0%,0%,0%);stroke-opacity:1;stroke-miterlimit:10;" d="M 1208.945312 1758.046875 L 1208.945312 -174.882812 " transform="matrix(0.1,0,0,-0.1,0,134)"/>
<path style="fill:none;stroke-width:10;stroke-linecap:butt;stroke-linejoin:miter;stroke:rgb(0%,0%,0%);stroke-opacity:1;stroke-miterlimit:10;" d="M -86.914062 919.570312 L 2760.742188 919.570312 " transform="matrix(0.1,0,0,-0.1,0,134)"/>
<path style="fill:none;stroke-width:25;stroke-linecap:round;stroke-linejoin:round;stroke:rgb(30.200195%,30.200195%,100%);stroke-opacity:1;stroke-miterlimit:10;" d="M 2059.335938 919.570312 L 2059.335938 841.914062 L 2059.296875 837.8125 L 2059.296875 821.484375 L 2059.257812 817.382812 L 2059.257812 813.320312 L 2059.21875 809.21875 L 2059.21875 805.15625 L 2059.140625 796.953125 L 2059.101562 792.890625 L 2059.023438 784.6875 L 2058.945312 780.625 L 2058.90625 776.523438 L 2058.828125 772.460938 L 2058.59375 764.257812 L 2058.476562 760.195312 L 2058.359375 756.09375 L 2058.203125 752.03125 L 2057.8125 743.828125 L 2057.617188 739.765625 L 2057.34375 735.664062 L 2057.070312 731.601562 L 2056.757812 727.5 L 2056.40625 723.398438 L 2056.015625 719.335938 L 2055.625 715.234375 L 2055.117188 711.132812 L 2054.609375 707.070312 L 2054.0625 702.96875 L 2053.4375 698.90625 L 2052.734375 694.804688 L 2051.992188 690.703125 L 2051.171875 686.640625 L 2050.273438 682.539062 L 2049.296875 678.476562 L 2048.203125 674.375 L 2047.070312 670.273438 L 2045.820312 666.210938 L 2044.453125 662.109375 L 2043.007812 658.007812 L 2041.40625 653.945312 L 2039.6875 649.84375 L 2037.851562 645.78125 L 2035.859375 641.679688 L 2033.710938 637.617188 L 2031.40625 633.515625 L 2028.945312 629.414062 L 2026.328125 625.351562 L 2023.476562 621.25 L 2020.46875 617.148438 L 2017.226562 613.085938 L 2013.789062 608.984375 L 2010.078125 604.882812 L 2006.171875 600.820312 L 2001.992188 596.71875 L 1997.578125 592.65625 L 1992.851562 588.554688 L 1987.851562 584.492188 L 1982.539062 580.390625 L 1976.875 576.289062 L 1970.9375 572.226562 L 1964.648438 568.125 L 1957.96875 564.023438 L 1950.9375 559.960938 L 1943.515625 555.859375 L 1935.664062 551.796875 L 1927.421875 547.695312 L 1918.75 543.59375 L 1909.609375 539.53125 L 1900 535.429688 L 1889.921875 531.367188 L 1879.335938 527.265625 L 1868.242188 523.164062 L 1856.640625 519.101562 L 1844.453125 515 L 1831.71875 510.898438 L 1818.4375 506.835938 L 1804.53125 502.734375 L 1790.039062 498.671875 L 1774.921875 494.570312 L 1759.179688 490.46875 L 1742.8125 486.40625 L 1725.742188 482.304688 L 1708.046875 478.242188 L 1689.648438 474.140625 L 1670.585938 470.039062 L 1650.820312 465.976562 L 1630.351562 461.875 L 1609.179688 457.773438 L 1587.304688 453.710938 L 1564.726562 449.609375 L 1541.40625 445.546875 L 1517.382812 441.445312 L 1492.65625 437.34375 L 1467.226562 433.28125 L 1441.09375 429.179688 L 1414.257812 425.117188 L 1386.796875 421.015625 L 1358.632812 416.914062 L 1329.882812 412.851562 L 1300.507812 408.75 L 1270.507812 404.6875 L 1240 400.585938 L 1208.945312 396.484375 " transform="matrix(0.1,0,0,-0.1,0,134)"/>
<path style="fill:none;stroke-width:25;stroke-linecap:round;stroke-linejoin:round;stroke:rgb(30.200195%,30.200195%,100%);stroke-opacity:1;stroke-miterlimit:10;" d="M 358.554688 919.570312 L 358.554688 829.648438 L 358.59375 825.585938 L 358.59375 813.320312 L 358.632812 809.21875 L 358.671875 805.15625 L 358.671875 801.054688 L 358.710938 796.953125 L 358.75 792.890625 L 358.789062 788.789062 L 358.867188 784.6875 L 358.90625 780.625 L 358.984375 776.523438 L 359.0625 772.460938 L 359.140625 768.359375 L 359.257812 764.257812 L 359.375 760.195312 L 359.53125 756.09375 L 359.6875 752.03125 L 359.84375 747.929688 L 360.039062 743.828125 L 360.273438 739.765625 L 360.507812 735.664062 L 360.820312 731.601562 L 361.09375 727.5 L 361.445312 723.398438 L 361.835938 719.335938 L 362.265625 715.234375 L 362.734375 711.132812 L 363.242188 707.070312 L 363.828125 702.96875 L 364.453125 698.90625 L 365.15625 694.804688 L 365.898438 690.703125 L 366.71875 686.640625 L 367.617188 682.539062 L 368.59375 678.476562 L 369.648438 674.375 L 370.820312 670.273438 L 372.070312 666.210938 L 373.398438 662.109375 L 374.882812 658.007812 L 376.484375 653.945312 L 378.203125 649.84375 L 380.039062 645.78125 L 382.03125 641.679688 L 384.140625 637.617188 L 386.445312 633.515625 L 388.90625 629.414062 L 391.5625 625.351562 L 394.375 621.25 L 397.421875 617.148438 L 400.664062 613.085938 L 404.101562 608.984375 L 407.773438 604.882812 L 411.679688 600.820312 L 415.859375 596.71875 L 420.3125 592.65625 L 425.039062 588.554688 L 430.039062 584.492188 L 435.351562 580.390625 L 440.976562 576.289062 L 446.953125 572.226562 L 453.242188 568.125 L 459.882812 564.023438 L 466.953125 559.960938 L 474.375 555.859375 L 482.1875 551.796875 L 490.429688 547.695312 L 499.140625 543.59375 L 508.28125 539.53125 L 517.851562 535.429688 L 527.929688 531.367188 L 538.515625 527.265625 L 549.609375 523.164062 L 561.25 519.101562 L 573.398438 515 L 586.132812 510.898438 L 599.453125 506.835938 L 613.320312 502.734375 L 627.8125 498.671875 L 642.929688 494.570312 L 658.671875 490.46875 L 675.078125 486.40625 L 692.109375 482.304688 L 709.804688 478.242188 L 728.203125 474.140625 L 747.265625 470.039062 L 767.03125 465.976562 L 787.5 461.875 L 808.671875 457.773438 L 830.546875 453.710938 L 853.164062 449.609375 L 876.484375 445.546875 L 900.507812 441.445312 L 925.234375 437.34375 L 950.664062 433.28125 L 976.796875 429.179688 L 1003.59375 425.117188 L 1031.09375 421.015625 L 1059.21875 416.914062 L 1088.007812 412.851562 L 1117.382812 408.75 L 1147.34375 404.6875 L 1177.890625 400.585938 L 1208.945312 396.484375 " transform="matrix(0.1,0,0,-0.1,0,134)"/>
<path style="fill:none;stroke-width:25;stroke-linecap:round;stroke-linejoin:round;stroke:rgb(30.200195%,30.200195%,100%);stroke-opacity:1;stroke-miterlimit:10;" d="M 358.554688 919.570312 L 2059.335938 919.570312 " transform="matrix(0.1,0,0,-0.1,0,134)"/>
<path style=" stroke:none;fill-rule:nonzero;fill:rgb(30.200195%,30.200195%,100%);fill-opacity:1;" d="M 122.136719 94.351562 C 122.136719 95.035156 121.578125 95.59375 120.894531 95.59375 C 120.207031 95.59375 119.652344 95.035156 119.652344 94.351562 C 119.652344 93.664062 120.207031 93.109375 120.894531 93.109375 C 121.578125 93.109375 122.136719 93.664062 122.136719 94.351562 "/>
<path style="fill:none;stroke-width:10;stroke-linecap:round;stroke-linejoin:round;stroke:rgb(0%,0%,0%);stroke-opacity:1;stroke-miterlimit:10;" d="M 1221.367188 396.484375 C 1221.367188 389.648438 1215.78125 384.0625 1208.945312 384.0625 C 1202.070312 384.0625 1196.523438 389.648438 1196.523438 396.484375 C 1196.523438 403.359375 1202.070312 408.90625 1208.945312 408.90625 C 1215.78125 408.90625 1221.367188 403.359375 1221.367188 396.484375 Z M 1221.367188 396.484375 " transform="matrix(0.1,0,0,-0.1,0,134)"/>
<path style=" stroke:none;fill-rule:nonzero;fill:rgb(30.200195%,30.200195%,100%);fill-opacity:1;" d="M 126.507812 99.367188 L 126.507812 103.789062 C 126.507812 103.953125 126.546875 104.035156 126.628906 104.035156 C 126.710938 104.117188 126.914062 104.160156 127.242188 104.160156 L 127.488281 104.160156 L 127.488281 104.40625 C 127.324219 104.40625 126.875 104.40625 126.136719 104.40625 C 125.480469 104.40625 125.074219 104.40625 124.910156 104.40625 L 124.910156 104.160156 L 125.15625 104.160156 C 125.5625 104.160156 125.808594 104.117188 125.890625 104.035156 C 125.890625 103.953125 125.890625 103.871094 125.890625 103.789062 L 125.890625 99.734375 C 125.644531 99.816406 125.316406 99.859375 124.910156 99.859375 L 124.910156 99.613281 C 125.480469 99.613281 125.933594 99.449219 126.261719 99.121094 C 126.425781 99.121094 126.507812 99.164062 126.507812 99.246094 C 126.507812 99.246094 126.507812 99.285156 126.507812 99.367188 "/>
<path style=" stroke:none;fill-rule:nonzero;fill:rgb(30.200195%,30.200195%,100%);fill-opacity:1;" d="M 129.578125 104.035156 C 129.578125 104.199219 129.496094 104.324219 129.332031 104.40625 C 129.332031 104.40625 129.292969 104.40625 129.210938 104.40625 C 129.046875 104.40625 128.921875 104.324219 128.839844 104.160156 C 128.839844 104.078125 128.839844 104.035156 128.839844 104.035156 C 128.839844 103.789062 128.882812 103.667969 128.964844 103.667969 C 129.046875 103.585938 129.128906 103.546875 129.210938 103.546875 C 129.371094 103.546875 129.496094 103.628906 129.578125 103.789062 C 129.578125 103.871094 129.578125 103.953125 129.578125 104.035156 "/>
<path style=" stroke:none;fill-rule:nonzero;fill:rgb(30.200195%,30.200195%,100%);fill-opacity:1;" d="M 131.515625 100.84375 L 132.5 101.457031 C 133.074219 101.128906 133.359375 100.761719 133.359375 100.351562 C 133.359375 100.023438 133.195312 99.734375 132.867188 99.488281 C 132.703125 99.40625 132.5 99.367188 132.253906 99.367188 C 131.84375 99.367188 131.558594 99.488281 131.394531 99.734375 C 131.230469 99.898438 131.148438 100.0625 131.148438 100.226562 C 131.148438 100.472656 131.269531 100.679688 131.515625 100.84375 Z M 132.746094 101.578125 C 133.15625 101.824219 133.402344 101.988281 133.484375 102.070312 C 133.730469 102.398438 133.851562 102.726562 133.851562 103.054688 C 133.851562 103.546875 133.6875 103.953125 133.359375 104.28125 C 133.03125 104.445312 132.664062 104.527344 132.253906 104.527344 C 131.761719 104.527344 131.351562 104.40625 131.023438 104.160156 C 130.78125 103.914062 130.65625 103.585938 130.65625 103.175781 C 130.65625 102.601562 131.023438 102.152344 131.761719 101.824219 C 131.433594 101.578125 131.230469 101.414062 131.148438 101.332031 C 130.902344 101.085938 130.78125 100.800781 130.78125 100.472656 C 130.78125 100.0625 130.984375 99.734375 131.394531 99.488281 C 131.640625 99.246094 131.925781 99.121094 132.253906 99.121094 C 132.746094 99.121094 133.113281 99.285156 133.359375 99.613281 C 133.605469 99.777344 133.730469 100.023438 133.730469 100.351562 C 133.730469 100.84375 133.402344 101.25 132.746094 101.578125 Z M 131.886719 101.949219 C 131.3125 102.277344 131.023438 102.683594 131.023438 103.175781 C 131.023438 103.585938 131.1875 103.914062 131.515625 104.160156 C 131.761719 104.324219 132.007812 104.40625 132.253906 104.40625 C 132.664062 104.40625 132.992188 104.242188 133.238281 103.914062 C 133.402344 103.75 133.484375 103.585938 133.484375 103.421875 C 133.484375 103.09375 133.320312 102.808594 132.992188 102.5625 C 132.992188 102.5625 132.949219 102.5625 132.867188 102.5625 L 131.886719 101.949219 "/>
<path style=" stroke:none;fill-rule:nonzero;fill:rgb(30.200195%,30.200195%,100%);fill-opacity:1;" d="M 137.785156 102.808594 C 137.785156 103.382812 137.578125 103.832031 137.171875 104.160156 C 136.84375 104.40625 136.472656 104.527344 136.0625 104.527344 C 135.570312 104.527344 135.164062 104.324219 134.835938 103.914062 C 134.671875 103.667969 134.589844 103.421875 134.589844 103.175781 C 134.589844 102.929688 134.710938 102.765625 134.957031 102.683594 C 135.203125 102.683594 135.324219 102.765625 135.324219 102.929688 C 135.40625 103.011719 135.449219 103.054688 135.449219 103.054688 C 135.449219 103.21875 135.367188 103.339844 135.203125 103.421875 C 135.121094 103.503906 135.039062 103.546875 134.957031 103.546875 C 134.957031 103.546875 134.917969 103.503906 134.835938 103.421875 C 134.917969 103.75 135.121094 103.996094 135.449219 104.160156 C 135.613281 104.324219 135.816406 104.40625 136.0625 104.40625 C 136.390625 104.40625 136.679688 104.199219 136.925781 103.789062 C 137.007812 103.628906 137.046875 103.300781 137.046875 102.808594 C 137.046875 102.316406 137.007812 101.988281 136.925781 101.824219 C 136.761719 101.496094 136.515625 101.332031 136.1875 101.332031 C 135.777344 101.332031 135.449219 101.496094 135.203125 101.824219 C 135.203125 101.90625 135.164062 101.949219 135.078125 101.949219 C 135.078125 101.949219 135.039062 101.90625 134.957031 101.824219 L 134.957031 99.367188 C 134.957031 99.285156 135 99.203125 135.078125 99.121094 C 135.078125 99.121094 135.121094 99.164062 135.203125 99.246094 C 135.53125 99.328125 135.859375 99.367188 136.1875 99.367188 C 136.597656 99.367188 136.964844 99.328125 137.292969 99.246094 C 137.292969 99.164062 137.332031 99.121094 137.414062 99.121094 C 137.414062 99.121094 137.414062 99.164062 137.414062 99.246094 C 137.414062 99.328125 137.332031 99.449219 137.171875 99.613281 C 136.84375 99.941406 136.433594 100.105469 135.941406 100.105469 C 135.695312 100.105469 135.449219 100.0625 135.203125 99.980469 L 135.203125 101.457031 C 135.53125 101.210938 135.898438 101.085938 136.308594 101.085938 C 136.71875 101.085938 137.089844 101.292969 137.414062 101.703125 C 137.660156 102.03125 137.785156 102.398438 137.785156 102.808594 "/>
<path style=" stroke:none;fill-rule:nonzero;fill:rgb(30.200195%,30.200195%,100%);fill-opacity:1;" d="M 138.398438 103.054688 L 138.398438 102.808594 L 140.734375 99.121094 C 140.816406 99.121094 140.898438 99.121094 140.980469 99.121094 C 141.0625 99.121094 141.101562 99.121094 141.101562 99.121094 L 141.101562 102.808594 L 141.839844 102.808594 L 141.839844 103.054688 L 141.101562 103.054688 L 141.101562 103.789062 C 141.101562 103.953125 141.144531 104.035156 141.226562 104.035156 C 141.226562 104.117188 141.386719 104.160156 141.714844 104.160156 L 141.839844 104.160156 L 141.839844 104.40625 C 141.59375 104.40625 141.226562 104.40625 140.734375 104.40625 C 140.242188 104.40625 139.914062 104.40625 139.75 104.40625 L 139.75 104.160156 L 139.871094 104.160156 C 140.199219 104.160156 140.40625 104.117188 140.488281 104.035156 C 140.488281 103.953125 140.488281 103.871094 140.488281 103.789062 L 140.488281 103.054688 Z M 140.488281 102.808594 L 140.488281 99.980469 L 138.644531 102.808594 L 140.488281 102.808594 "/>
<path style=" stroke:none;fill-rule:nonzero;fill:rgb(30.200195%,30.200195%,100%);fill-opacity:1;" d="M 145.648438 103.054688 L 145.402344 104.40625 L 142.453125 104.40625 C 142.453125 104.242188 142.492188 104.160156 142.574219 104.160156 L 144.050781 102.441406 C 144.625 101.785156 144.910156 101.210938 144.910156 100.71875 C 144.910156 100.226562 144.746094 99.859375 144.421875 99.613281 C 144.253906 99.449219 144.050781 99.367188 143.804688 99.367188 C 143.476562 99.367188 143.191406 99.53125 142.945312 99.859375 C 142.863281 99.941406 142.820312 100.0625 142.820312 100.226562 C 142.820312 100.226562 142.863281 100.226562 142.945312 100.226562 C 143.109375 100.226562 143.230469 100.308594 143.3125 100.472656 C 143.3125 100.554688 143.3125 100.597656 143.3125 100.597656 C 143.3125 100.84375 143.191406 100.964844 142.945312 100.964844 C 142.945312 101.046875 142.945312 101.085938 142.945312 101.085938 C 142.699219 101.085938 142.535156 101.007812 142.453125 100.84375 C 142.453125 100.761719 142.453125 100.679688 142.453125 100.597656 C 142.453125 100.1875 142.617188 99.859375 142.945312 99.613281 C 143.191406 99.285156 143.519531 99.121094 143.929688 99.121094 C 144.5 99.121094 144.953125 99.328125 145.28125 99.734375 C 145.441406 99.980469 145.566406 100.269531 145.648438 100.597656 C 145.648438 100.597656 145.648438 100.636719 145.648438 100.71875 C 145.648438 101.046875 145.484375 101.414062 145.15625 101.824219 C 144.992188 101.988281 144.746094 102.195312 144.421875 102.441406 L 144.050781 102.929688 L 143.929688 102.929688 L 143.066406 103.789062 L 144.542969 103.789062 C 144.953125 103.789062 145.199219 103.789062 145.28125 103.789062 C 145.28125 103.710938 145.320312 103.464844 145.402344 103.054688 L 145.648438 103.054688 "/>
<path style=" stroke:none;fill-rule:nonzero;fill:rgb(30.200195%,30.200195%,100%);fill-opacity:1;" d="M 149.703125 99.613281 L 148.71875 101.085938 C 148.472656 101.414062 148.3125 101.867188 148.230469 102.441406 C 148.144531 102.847656 148.105469 103.300781 148.105469 103.789062 L 148.105469 104.160156 C 148.105469 104.40625 147.984375 104.527344 147.738281 104.527344 C 147.492188 104.527344 147.367188 104.40625 147.367188 104.160156 C 147.367188 103.257812 147.613281 102.355469 148.105469 101.457031 L 148.351562 101.210938 L 149.210938 99.980469 L 147.613281 99.980469 C 147.121094 99.980469 146.878906 99.980469 146.878906 99.980469 C 146.796875 100.0625 146.714844 100.308594 146.632812 100.71875 L 146.507812 100.71875 L 146.753906 99.121094 L 146.878906 99.121094 C 146.960938 99.203125 147 99.246094 147 99.246094 L 147.121094 99.246094 C 147.203125 99.328125 147.449219 99.367188 147.859375 99.367188 L 149.824219 99.367188 C 149.824219 99.449219 149.785156 99.53125 149.703125 99.613281 "/>
<path style=" stroke:none;fill-rule:nonzero;fill:rgb(30.200195%,30.200195%,100%);fill-opacity:1;" d="M 207.175781 42.042969 C 207.175781 42.730469 206.617188 43.285156 205.933594 43.285156 C 205.246094 43.285156 204.691406 42.730469 204.691406 42.042969 C 204.691406 41.359375 205.246094 40.800781 205.933594 40.800781 C 206.617188 40.800781 207.175781 41.359375 207.175781 42.042969 "/>
<path style="fill:none;stroke-width:10;stroke-linecap:round;stroke-linejoin:round;stroke:rgb(0%,0%,0%);stroke-opacity:1;stroke-miterlimit:10;" d="M 2071.757812 919.570312 C 2071.757812 912.695312 2066.171875 907.148438 2059.335938 907.148438 C 2052.460938 907.148438 2046.914062 912.695312 2046.914062 919.570312 C 2046.914062 926.40625 2052.460938 931.992188 2059.335938 931.992188 C 2066.171875 931.992188 2071.757812 926.40625 2071.757812 919.570312 Z M 2071.757812 919.570312 " transform="matrix(0.1,0,0,-0.1,0,134)"/>
<path style=" stroke:none;fill-rule:nonzero;fill:rgb(30.200195%,30.200195%,100%);fill-opacity:1;" d="M 202.25 35.355469 C 202.742188 35.519531 203.109375 35.804688 203.355469 36.214844 C 203.4375 36.378906 203.480469 36.582031 203.480469 36.828125 C 203.480469 37.238281 203.316406 37.605469 202.988281 37.933594 C 202.660156 38.179688 202.292969 38.304688 201.882812 38.304688 C 201.308594 38.304688 200.859375 38.179688 200.53125 37.933594 C 200.367188 37.6875 200.285156 37.402344 200.285156 37.074219 C 200.285156 36.828125 200.367188 36.707031 200.53125 36.707031 C 200.613281 36.707031 200.652344 36.707031 200.652344 36.707031 C 200.898438 36.707031 201.0625 36.789062 201.144531 36.953125 C 201.144531 37.035156 201.144531 37.074219 201.144531 37.074219 C 201.144531 37.320312 201.0625 37.484375 200.898438 37.566406 C 200.816406 37.566406 200.734375 37.566406 200.652344 37.566406 C 200.816406 37.894531 201.144531 38.058594 201.636719 38.058594 C 201.71875 38.140625 201.761719 38.179688 201.761719 38.179688 C 202.167969 38.179688 202.414062 38.015625 202.496094 37.6875 C 202.660156 37.445312 202.742188 37.15625 202.742188 36.828125 C 202.742188 36.171875 202.539062 35.765625 202.128906 35.601562 C 201.964844 35.519531 201.839844 35.476562 201.761719 35.476562 L 201.390625 35.476562 C 201.308594 35.476562 201.269531 35.476562 201.269531 35.476562 C 201.269531 35.394531 201.308594 35.355469 201.390625 35.355469 C 201.472656 35.355469 201.554688 35.355469 201.636719 35.355469 C 201.882812 35.355469 202.085938 35.230469 202.25 34.984375 L 202.375 34.863281 C 202.539062 34.617188 202.621094 34.332031 202.621094 34.003906 C 202.621094 33.511719 202.414062 33.222656 202.003906 33.144531 C 201.921875 33.144531 201.839844 33.144531 201.761719 33.144531 C 201.433594 33.144531 201.144531 33.265625 200.898438 33.511719 C 200.816406 33.511719 200.777344 33.550781 200.777344 33.632812 C 201.105469 33.632812 201.269531 33.757812 201.269531 34.003906 C 201.269531 34.167969 201.1875 34.289062 201.023438 34.371094 C 200.941406 34.371094 200.898438 34.371094 200.898438 34.371094 C 200.652344 34.371094 200.53125 34.289062 200.53125 34.125 C 200.449219 34.125 200.40625 34.085938 200.40625 34.003906 C 200.40625 33.675781 200.613281 33.386719 201.023438 33.144531 C 201.269531 32.980469 201.554688 32.898438 201.882812 32.898438 C 202.375 32.898438 202.742188 33.0625 202.988281 33.386719 C 203.234375 33.550781 203.355469 33.757812 203.355469 34.003906 C 203.355469 34.492188 203.152344 34.863281 202.742188 35.109375 C 202.578125 35.273438 202.414062 35.355469 202.25 35.355469 "/>
<path style=" stroke:none;fill-rule:nonzero;fill:rgb(30.200195%,30.200195%,100%);fill-opacity:1;" d="M 37.09375 42.042969 C 37.09375 42.730469 36.539062 43.285156 35.855469 43.285156 C 35.167969 43.285156 34.613281 42.730469 34.613281 42.042969 C 34.613281 41.359375 35.167969 40.800781 35.855469 40.800781 C 36.539062 40.800781 37.09375 41.359375 37.09375 42.042969 "/>
<path style="fill:none;stroke-width:10;stroke-linecap:round;stroke-linejoin:round;stroke:rgb(0%,0%,0%);stroke-opacity:1;stroke-miterlimit:10;" d="M 370.9375 919.570312 C 370.9375 912.695312 365.390625 907.148438 358.554688 907.148438 C 351.679688 907.148438 346.132812 912.695312 346.132812 919.570312 C 346.132812 926.40625 351.679688 931.992188 358.554688 931.992188 C 365.390625 931.992188 370.9375 926.40625 370.9375 919.570312 Z M 370.9375 919.570312 " transform="matrix(0.1,0,0,-0.1,0,134)"/>
<path style=" stroke:none;fill-rule:nonzero;fill:rgb(0%,0%,0%);fill-opacity:1;" d="M 166.320312 91.722656 L 165.949219 94.300781 C 165.867188 94.628906 165.746094 95 165.582031 95.40625 C 165.582031 95.570312 165.539062 95.695312 165.460938 95.777344 C 165.296875 96.1875 165.050781 96.433594 164.722656 96.515625 C 164.722656 96.515625 164.679688 96.515625 164.597656 96.515625 C 164.351562 96.515625 164.148438 96.433594 163.984375 96.269531 C 163.902344 96.1875 163.859375 96.105469 163.859375 96.023438 C 163.859375 95.777344 163.984375 95.613281 164.230469 95.53125 C 164.230469 95.53125 164.269531 95.53125 164.351562 95.53125 C 164.515625 95.53125 164.597656 95.570312 164.597656 95.652344 C 164.597656 95.734375 164.597656 95.777344 164.597656 95.777344 C 164.597656 95.941406 164.515625 96.0625 164.351562 96.144531 C 164.351562 96.144531 164.3125 96.1875 164.230469 96.269531 C 164.3125 96.351562 164.433594 96.390625 164.597656 96.390625 C 164.84375 96.390625 165.007812 96.105469 165.089844 95.53125 C 165.171875 95.449219 165.214844 95.328125 165.214844 95.164062 L 165.214844 94.917969 L 165.828125 91.722656 L 165.335938 91.722656 C 165.171875 91.722656 165.089844 91.722656 165.089844 91.722656 C 165.089844 91.640625 165.132812 91.558594 165.214844 91.476562 L 165.949219 91.476562 C 166.03125 90.820312 166.113281 90.410156 166.195312 90.246094 C 166.359375 89.757812 166.605469 89.46875 166.933594 89.386719 C 167.015625 89.386719 167.097656 89.386719 167.179688 89.386719 C 167.425781 89.386719 167.628906 89.46875 167.792969 89.632812 C 167.792969 89.714844 167.792969 89.796875 167.792969 89.878906 C 167.792969 90.125 167.710938 90.289062 167.546875 90.371094 C 167.546875 90.371094 167.507812 90.371094 167.425781 90.371094 C 167.261719 90.371094 167.179688 90.328125 167.179688 90.246094 C 167.097656 90.164062 167.054688 90.125 167.054688 90.125 C 167.054688 89.960938 167.136719 89.839844 167.300781 89.757812 C 167.382812 89.757812 167.464844 89.714844 167.546875 89.632812 C 167.464844 89.550781 167.34375 89.511719 167.179688 89.511719 C 167.015625 89.511719 166.890625 89.59375 166.8125 89.757812 C 166.730469 89.839844 166.644531 90.125 166.566406 90.617188 L 166.441406 91.476562 L 167.054688 91.476562 C 167.21875 91.476562 167.300781 91.515625 167.300781 91.597656 C 167.300781 91.679688 167.261719 91.722656 167.179688 91.722656 L 166.320312 91.722656 "/>
<path style=" stroke:none;fill-rule:nonzero;fill:rgb(0%,0%,0%);fill-opacity:1;" d="M 170.769531 96.761719 C 170.769531 96.84375 170.769531 96.882812 170.769531 96.882812 C 170.6875 96.882812 170.523438 96.761719 170.277344 96.515625 C 169.949219 96.1875 169.703125 95.816406 169.539062 95.40625 C 169.132812 94.671875 168.925781 93.851562 168.925781 92.949219 C 168.925781 92.050781 169.089844 91.230469 169.417969 90.492188 C 169.746094 89.917969 170.113281 89.46875 170.523438 89.140625 C 170.605469 89.058594 170.6875 89.019531 170.769531 89.019531 C 170.769531 89.019531 170.769531 89.058594 170.769531 89.140625 C 170.769531 89.140625 170.730469 89.183594 170.648438 89.265625 C 169.828125 90.082031 169.417969 91.3125 169.417969 92.949219 C 169.417969 94.589844 169.828125 95.816406 170.648438 96.636719 C 170.730469 96.71875 170.769531 96.761719 170.769531 96.761719 "/>
<path style=" stroke:none;fill-rule:nonzero;fill:rgb(0%,0%,0%);fill-opacity:1;" d="M 173.828125 92.582031 L 173.582031 93.566406 C 173.5 93.972656 173.460938 94.21875 173.460938 94.300781 C 173.460938 94.546875 173.539062 94.710938 173.703125 94.792969 C 173.785156 94.792969 173.867188 94.792969 173.949219 94.792969 C 174.195312 94.792969 174.402344 94.671875 174.566406 94.425781 C 174.730469 94.261719 174.851562 94.054688 174.933594 93.8125 C 174.933594 93.730469 174.976562 93.6875 175.058594 93.6875 C 175.140625 93.6875 175.179688 93.730469 175.179688 93.8125 C 175.179688 93.894531 175.097656 94.054688 174.933594 94.300781 C 174.605469 94.792969 174.277344 95.039062 173.949219 95.039062 C 173.539062 95.039062 173.253906 94.875 173.089844 94.546875 C 173.089844 94.464844 173.089844 94.425781 173.089844 94.425781 C 172.925781 94.671875 172.722656 94.835938 172.476562 94.917969 C 172.394531 95 172.3125 95.039062 172.230469 95.039062 C 171.902344 95.039062 171.65625 94.917969 171.492188 94.671875 C 171.492188 94.671875 171.492188 94.589844 171.492188 94.425781 C 171.492188 94.261719 171.574219 94.140625 171.738281 94.054688 C 171.820312 94.054688 171.863281 94.054688 171.863281 94.054688 C 172.027344 94.054688 172.148438 94.097656 172.230469 94.179688 C 172.230469 94.261719 172.230469 94.300781 172.230469 94.300781 C 172.230469 94.464844 172.148438 94.589844 171.984375 94.671875 C 171.902344 94.671875 171.863281 94.671875 171.863281 94.671875 C 171.945312 94.753906 172.066406 94.792969 172.230469 94.792969 C 172.476562 94.792969 172.679688 94.628906 172.84375 94.300781 C 172.925781 94.21875 172.96875 94.140625 172.96875 94.054688 C 173.214844 92.992188 173.335938 92.335938 173.335938 92.089844 C 173.335938 91.761719 173.214844 91.597656 172.96875 91.597656 C 172.722656 91.597656 172.476562 91.761719 172.230469 92.089844 C 172.148438 92.171875 172.066406 92.296875 171.984375 92.460938 C 171.984375 92.460938 171.984375 92.5 171.984375 92.582031 L 171.863281 92.707031 C 171.78125 92.707031 171.738281 92.707031 171.738281 92.707031 C 171.738281 92.539062 171.820312 92.335938 171.984375 92.089844 C 172.230469 91.679688 172.558594 91.476562 172.96875 91.476562 C 173.378906 91.476562 173.664062 91.679688 173.828125 92.089844 C 173.992188 91.761719 174.195312 91.558594 174.441406 91.476562 C 174.523438 91.476562 174.605469 91.476562 174.6875 91.476562 C 175.015625 91.476562 175.222656 91.558594 175.304688 91.722656 C 175.386719 91.804688 175.425781 91.886719 175.425781 91.96875 C 175.425781 92.214844 175.304688 92.335938 175.058594 92.335938 C 175.058594 92.417969 175.015625 92.460938 174.933594 92.460938 C 174.769531 92.460938 174.6875 92.378906 174.6875 92.214844 C 174.6875 92.214844 174.6875 92.171875 174.6875 92.089844 C 174.6875 91.925781 174.769531 91.804688 174.933594 91.722656 C 174.933594 91.722656 174.976562 91.722656 175.058594 91.722656 C 174.976562 91.640625 174.851562 91.597656 174.6875 91.597656 C 174.277344 91.597656 174.03125 91.886719 173.949219 92.460938 C 173.867188 92.460938 173.828125 92.5 173.828125 92.582031 "/>
<path style=" stroke:none;fill-rule:nonzero;fill:rgb(0%,0%,0%);fill-opacity:1;" d="M 177.953125 92.949219 C 177.953125 93.851562 177.789062 94.671875 177.464844 95.40625 C 177.21875 95.980469 176.890625 96.433594 176.480469 96.761719 C 176.398438 96.84375 176.316406 96.882812 176.234375 96.882812 C 176.234375 96.882812 176.234375 96.84375 176.234375 96.761719 C 176.234375 96.761719 176.234375 96.71875 176.234375 96.636719 C 177.136719 95.816406 177.585938 94.589844 177.585938 92.949219 C 177.585938 91.3125 177.175781 90.082031 176.355469 89.265625 C 176.273438 89.183594 176.234375 89.140625 176.234375 89.140625 C 176.234375 89.058594 176.234375 89.019531 176.234375 89.019531 C 176.316406 89.019531 176.480469 89.140625 176.726562 89.386719 C 177.054688 89.714844 177.300781 90.082031 177.464844 90.492188 C 177.789062 91.230469 177.953125 92.050781 177.953125 92.949219 "/>
<path style=" stroke:none;fill-rule:nonzero;fill:rgb(0%,0%,0%);fill-opacity:1;" d="M 186.390625 92.335938 L 181.722656 92.335938 C 181.558594 92.335938 181.476562 92.296875 181.476562 92.214844 C 181.476562 92.132812 181.558594 92.089844 181.722656 92.089844 L 186.390625 92.089844 C 186.554688 92.089844 186.636719 92.132812 186.636719 92.214844 C 186.636719 92.296875 186.554688 92.335938 186.390625 92.335938 Z M 186.390625 93.8125 L 181.722656 93.8125 C 181.558594 93.8125 181.476562 93.769531 181.476562 93.6875 C 181.476562 93.605469 181.558594 93.566406 181.722656 93.566406 L 186.390625 93.566406 C 186.554688 93.566406 186.636719 93.605469 186.636719 93.6875 C 186.636719 93.769531 186.554688 93.8125 186.390625 93.8125 "/>
<path style=" stroke:none;fill-rule:nonzero;fill:rgb(0%,0%,0%);fill-opacity:1;" d="M 191.621094 92.089844 C 192.113281 92.253906 192.480469 92.539062 192.726562 92.949219 C 192.808594 93.113281 192.851562 93.320312 192.851562 93.566406 C 192.851562 93.972656 192.6875 94.34375 192.359375 94.671875 C 192.03125 94.917969 191.660156 95.039062 191.253906 95.039062 C 190.679688 95.039062 190.230469 94.917969 189.902344 94.671875 C 189.738281 94.425781 189.65625 94.140625 189.65625 93.8125 C 189.65625 93.566406 189.738281 93.441406 189.902344 93.441406 C 189.980469 93.441406 190.023438 93.441406 190.023438 93.441406 C 190.269531 93.441406 190.433594 93.523438 190.515625 93.6875 C 190.515625 93.769531 190.515625 93.8125 190.515625 93.8125 C 190.515625 94.054688 190.433594 94.21875 190.269531 94.300781 C 190.1875 94.300781 190.105469 94.300781 190.023438 94.300781 C 190.1875 94.628906 190.515625 94.792969 191.007812 94.792969 C 191.089844 94.875 191.128906 94.917969 191.128906 94.917969 C 191.539062 94.917969 191.785156 94.753906 191.867188 94.425781 C 192.03125 94.179688 192.113281 93.894531 192.113281 93.566406 C 192.113281 92.910156 191.90625 92.5 191.496094 92.335938 C 191.335938 92.253906 191.210938 92.214844 191.128906 92.214844 L 190.761719 92.214844 C 190.679688 92.214844 190.636719 92.214844 190.636719 92.214844 C 190.636719 92.132812 190.679688 92.089844 190.761719 92.089844 C 190.84375 92.089844 190.925781 92.089844 191.007812 92.089844 C 191.253906 92.089844 191.457031 91.96875 191.621094 91.722656 L 191.742188 91.597656 C 191.90625 91.351562 191.988281 91.066406 191.988281 90.738281 C 191.988281 90.246094 191.785156 89.960938 191.375 89.878906 C 191.292969 89.878906 191.210938 89.878906 191.128906 89.878906 C 190.800781 89.878906 190.515625 90 190.269531 90.246094 C 190.1875 90.246094 190.144531 90.289062 190.144531 90.371094 C 190.472656 90.371094 190.636719 90.492188 190.636719 90.738281 C 190.636719 90.902344 190.554688 91.027344 190.390625 91.105469 C 190.308594 91.105469 190.269531 91.105469 190.269531 91.105469 C 190.023438 91.105469 189.902344 91.027344 189.902344 90.863281 C 189.820312 90.863281 189.777344 90.820312 189.777344 90.738281 C 189.777344 90.410156 189.980469 90.125 190.390625 89.878906 C 190.636719 89.714844 190.925781 89.632812 191.253906 89.632812 C 191.742188 89.632812 192.113281 89.796875 192.359375 90.125 C 192.605469 90.289062 192.726562 90.492188 192.726562 90.738281 C 192.726562 91.230469 192.523438 91.597656 192.113281 91.84375 C 191.949219 92.007812 191.785156 92.089844 191.621094 92.089844 "/>
<path style=" stroke:none;fill-rule:nonzero;fill:rgb(0%,0%,0%);fill-opacity:1;" d="M 197.355469 91.84375 C 197.191406 91.679688 196.90625 91.597656 196.496094 91.597656 C 196.167969 91.597656 195.921875 91.761719 195.757812 92.089844 C 195.511719 92.335938 195.390625 92.707031 195.390625 93.195312 C 195.390625 93.933594 195.636719 94.425781 196.128906 94.671875 C 196.289062 94.753906 196.453125 94.792969 196.617188 94.792969 C 197.109375 94.792969 197.4375 94.507812 197.601562 93.933594 C 197.601562 93.933594 197.640625 93.933594 197.722656 93.933594 C 197.804688 93.933594 197.847656 93.933594 197.847656 93.933594 C 197.847656 94.097656 197.765625 94.261719 197.601562 94.425781 C 197.355469 94.835938 196.988281 95.039062 196.496094 95.039062 C 196.003906 95.039062 195.59375 94.835938 195.265625 94.425781 C 194.9375 94.097656 194.773438 93.6875 194.773438 93.195312 C 194.773438 92.707031 194.980469 92.253906 195.390625 91.84375 C 195.71875 91.515625 196.085938 91.351562 196.496094 91.351562 C 196.90625 91.351562 197.230469 91.476562 197.476562 91.722656 C 197.640625 91.886719 197.722656 92.050781 197.722656 92.214844 C 197.722656 92.460938 197.640625 92.582031 197.476562 92.582031 C 197.394531 92.582031 197.355469 92.582031 197.355469 92.582031 C 197.191406 92.582031 197.070312 92.5 196.988281 92.335938 C 196.988281 92.335938 196.988281 92.296875 196.988281 92.214844 C 196.988281 92.050781 197.070312 91.925781 197.230469 91.84375 C 197.3125 91.84375 197.355469 91.84375 197.355469 91.84375 "/>
<path style=" stroke:none;fill-rule:nonzero;fill:rgb(0%,0%,0%);fill-opacity:1;" d="M 201.710938 93.195312 C 201.710938 93.769531 201.507812 94.21875 201.097656 94.546875 C 200.769531 94.875 200.398438 95.039062 199.988281 95.039062 C 199.5 95.039062 199.089844 94.835938 198.761719 94.425781 C 198.433594 94.097656 198.269531 93.6875 198.269531 93.195312 C 198.269531 92.707031 198.433594 92.253906 198.761719 91.84375 C 199.089844 91.515625 199.5 91.351562 199.988281 91.351562 C 200.480469 91.351562 200.890625 91.558594 201.21875 91.96875 C 201.546875 92.378906 201.710938 92.785156 201.710938 93.195312 Z M 199.988281 94.792969 C 200.316406 94.792969 200.605469 94.671875 200.851562 94.425781 L 200.851562 94.179688 C 201.015625 94.015625 201.097656 93.6875 201.097656 93.195312 C 201.097656 92.707031 201.015625 92.335938 200.851562 92.089844 C 200.605469 91.761719 200.316406 91.597656 199.988281 91.597656 C 199.664062 91.597656 199.375 91.722656 199.128906 91.96875 C 199.128906 91.96875 199.128906 92.007812 199.128906 92.089844 C 198.964844 92.335938 198.882812 92.707031 198.882812 93.195312 C 198.882812 93.6875 198.964844 94.054688 199.128906 94.300781 C 199.292969 94.628906 199.582031 94.792969 199.988281 94.792969 "/>
<path style=" stroke:none;fill-rule:nonzero;fill:rgb(0%,0%,0%);fill-opacity:1;" d="M 203.554688 93.441406 C 203.144531 93.277344 202.855469 93.15625 202.695312 93.074219 C 202.613281 93.074219 202.570312 93.074219 202.570312 93.074219 C 202.324219 92.828125 202.203125 92.582031 202.203125 92.335938 C 202.203125 92.007812 202.367188 91.761719 202.695312 91.597656 C 202.9375 91.433594 203.183594 91.351562 203.429688 91.351562 C 203.757812 91.351562 204.003906 91.433594 204.167969 91.597656 C 204.25 91.597656 204.289062 91.558594 204.289062 91.476562 C 204.371094 91.394531 204.453125 91.351562 204.535156 91.351562 C 204.535156 91.433594 204.535156 91.515625 204.535156 91.597656 L 204.535156 92.335938 C 204.535156 92.5 204.535156 92.582031 204.535156 92.582031 C 204.453125 92.582031 204.414062 92.539062 204.414062 92.460938 C 204.332031 91.96875 204.128906 91.679688 203.800781 91.597656 C 203.71875 91.597656 203.59375 91.597656 203.429688 91.597656 C 202.9375 91.597656 202.652344 91.722656 202.570312 91.96875 C 202.570312 92.050781 202.570312 92.089844 202.570312 92.089844 C 202.570312 92.417969 202.777344 92.621094 203.183594 92.707031 C 203.265625 92.707031 203.390625 92.746094 203.554688 92.828125 C 203.964844 92.910156 204.25 92.992188 204.414062 93.074219 C 204.414062 93.074219 204.414062 93.113281 204.414062 93.195312 C 204.660156 93.359375 204.78125 93.605469 204.78125 93.933594 C 204.78125 94.34375 204.617188 94.628906 204.289062 94.792969 C 204.046875 94.957031 203.800781 95.039062 203.554688 95.039062 C 203.226562 95.039062 202.9375 94.917969 202.695312 94.671875 L 202.449219 94.792969 C 202.367188 94.957031 202.324219 95.039062 202.324219 95.039062 C 202.242188 94.957031 202.203125 94.875 202.203125 94.792969 L 202.203125 93.8125 C 202.203125 93.648438 202.242188 93.566406 202.324219 93.566406 C 202.40625 93.566406 202.449219 93.605469 202.449219 93.6875 C 202.613281 94.34375 202.855469 94.710938 203.183594 94.792969 C 203.265625 94.792969 203.390625 94.792969 203.554688 94.792969 C 203.964844 94.792969 204.25 94.628906 204.414062 94.300781 C 204.414062 94.21875 204.414062 94.140625 204.414062 94.054688 C 204.414062 93.730469 204.128906 93.523438 203.554688 93.441406 "/>
<path style=" stroke:none;fill-rule:nonzero;fill:rgb(0%,0%,0%);fill-opacity:1;" d="M 207.640625 96.761719 C 207.640625 96.84375 207.640625 96.882812 207.640625 96.882812 C 207.558594 96.882812 207.394531 96.761719 207.148438 96.515625 C 206.820312 96.1875 206.574219 95.816406 206.410156 95.40625 C 206 94.671875 205.796875 93.851562 205.796875 92.949219 C 205.796875 92.050781 205.960938 91.230469 206.285156 90.492188 C 206.613281 89.917969 206.984375 89.46875 207.394531 89.140625 C 207.476562 89.058594 207.558594 89.019531 207.640625 89.019531 C 207.640625 89.019531 207.640625 89.058594 207.640625 89.140625 C 207.640625 89.140625 207.597656 89.183594 207.515625 89.265625 C 206.695312 90.082031 206.285156 91.3125 206.285156 92.949219 C 206.285156 94.589844 206.695312 95.816406 207.515625 96.636719 C 207.597656 96.71875 207.640625 96.761719 207.640625 96.761719 "/>
<path style=" stroke:none;fill-rule:nonzero;fill:rgb(0%,0%,0%);fill-opacity:1;" d="M 211.640625 87.261719 L 211.394531 88.246094 C 211.3125 88.65625 211.273438 88.902344 211.273438 88.980469 C 211.273438 89.226562 211.355469 89.390625 211.519531 89.472656 C 211.601562 89.472656 211.683594 89.472656 211.765625 89.472656 C 212.007812 89.472656 212.214844 89.351562 212.378906 89.105469 C 212.542969 88.941406 212.664062 88.734375 212.746094 88.492188 C 212.746094 88.410156 212.789062 88.367188 212.871094 88.367188 C 212.953125 88.367188 212.992188 88.410156 212.992188 88.492188 C 212.992188 88.574219 212.910156 88.734375 212.746094 88.980469 C 212.417969 89.472656 212.089844 89.71875 211.765625 89.71875 C 211.355469 89.71875 211.066406 89.554688 210.902344 89.226562 C 210.902344 89.144531 210.902344 89.105469 210.902344 89.105469 C 210.738281 89.351562 210.535156 89.515625 210.289062 89.597656 C 210.207031 89.679688 210.125 89.71875 210.042969 89.71875 C 209.714844 89.71875 209.46875 89.597656 209.304688 89.351562 C 209.304688 89.351562 209.304688 89.269531 209.304688 89.105469 C 209.304688 88.941406 209.386719 88.820312 209.550781 88.734375 C 209.632812 88.734375 209.675781 88.734375 209.675781 88.734375 C 209.839844 88.734375 209.960938 88.777344 210.042969 88.859375 C 210.042969 88.941406 210.042969 88.980469 210.042969 88.980469 C 210.042969 89.144531 209.960938 89.269531 209.796875 89.351562 C 209.714844 89.351562 209.675781 89.351562 209.675781 89.351562 C 209.757812 89.433594 209.878906 89.472656 210.042969 89.472656 C 210.289062 89.472656 210.492188 89.308594 210.65625 88.980469 C 210.738281 88.902344 210.78125 88.820312 210.78125 88.734375 C 211.027344 87.671875 211.148438 87.015625 211.148438 86.769531 C 211.148438 86.441406 211.027344 86.277344 210.78125 86.277344 C 210.535156 86.277344 210.289062 86.441406 210.042969 86.769531 C 209.960938 86.851562 209.878906 86.976562 209.796875 87.140625 C 209.796875 87.140625 209.796875 87.179688 209.796875 87.261719 L 209.675781 87.386719 C 209.59375 87.386719 209.550781 87.386719 209.550781 87.386719 C 209.550781 87.21875 209.632812 87.015625 209.796875 86.769531 C 210.042969 86.359375 210.371094 86.15625 210.78125 86.15625 C 211.191406 86.15625 211.476562 86.359375 211.640625 86.769531 C 211.804688 86.441406 212.007812 86.238281 212.253906 86.15625 C 212.335938 86.15625 212.417969 86.15625 212.5 86.15625 C 212.828125 86.15625 213.035156 86.238281 213.117188 86.402344 C 213.195312 86.484375 213.238281 86.566406 213.238281 86.648438 C 213.238281 86.894531 213.117188 87.015625 212.871094 87.015625 C 212.871094 87.097656 212.828125 87.140625 212.746094 87.140625 C 212.582031 87.140625 212.5 87.058594 212.5 86.894531 C 212.5 86.894531 212.5 86.851562 212.5 86.769531 C 212.5 86.605469 212.582031 86.484375 212.746094 86.402344 C 212.746094 86.402344 212.789062 86.402344 212.871094 86.402344 C 212.789062 86.320312 212.664062 86.277344 212.5 86.277344 C 212.089844 86.277344 211.847656 86.566406 211.765625 87.140625 C 211.683594 87.140625 211.640625 87.179688 211.640625 87.261719 "/>
<path style=" stroke:none;fill-rule:nonzero;fill:rgb(0%,0%,0%);fill-opacity:1;" d="M 215.1875 84.765625 C 215.535156 84.878906 215.789062 85.078125 215.964844 85.367188 C 216.019531 85.480469 216.050781 85.625 216.050781 85.796875 C 216.050781 86.082031 215.933594 86.339844 215.703125 86.570312 C 215.476562 86.742188 215.21875 86.828125 214.929688 86.828125 C 214.53125 86.828125 214.214844 86.742188 213.984375 86.570312 C 213.871094 86.398438 213.8125 86.199219 213.8125 85.96875 C 213.8125 85.796875 213.871094 85.710938 213.984375 85.710938 C 214.042969 85.710938 214.070312 85.710938 214.070312 85.710938 C 214.242188 85.710938 214.359375 85.769531 214.414062 85.882812 C 214.414062 85.941406 214.414062 85.96875 214.414062 85.96875 C 214.414062 86.140625 214.359375 86.253906 214.242188 86.3125 C 214.1875 86.3125 214.128906 86.3125 214.070312 86.3125 C 214.1875 86.542969 214.414062 86.65625 214.757812 86.65625 C 214.816406 86.714844 214.84375 86.742188 214.84375 86.742188 C 215.132812 86.742188 215.304688 86.628906 215.359375 86.398438 C 215.476562 86.226562 215.535156 86.027344 215.535156 85.796875 C 215.535156 85.339844 215.390625 85.050781 215.105469 84.9375 C 214.988281 84.878906 214.902344 84.851562 214.84375 84.851562 L 214.585938 84.851562 C 214.53125 84.851562 214.5 84.851562 214.5 84.851562 C 214.5 84.792969 214.53125 84.765625 214.585938 84.765625 C 214.644531 84.765625 214.703125 84.765625 214.757812 84.765625 C 214.929688 84.765625 215.074219 84.679688 215.1875 84.507812 L 215.273438 84.421875 C 215.390625 84.246094 215.445312 84.046875 215.445312 83.816406 C 215.445312 83.472656 215.304688 83.273438 215.015625 83.214844 C 214.960938 83.214844 214.902344 83.214844 214.84375 83.214844 C 214.617188 83.214844 214.414062 83.300781 214.242188 83.472656 C 214.1875 83.472656 214.15625 83.503906 214.15625 83.558594 C 214.386719 83.558594 214.5 83.644531 214.5 83.816406 C 214.5 83.933594 214.445312 84.019531 214.328125 84.078125 C 214.273438 84.078125 214.242188 84.078125 214.242188 84.078125 C 214.070312 84.078125 213.984375 84.019531 213.984375 83.90625 C 213.929688 83.90625 213.898438 83.875 213.898438 83.816406 C 213.898438 83.589844 214.042969 83.386719 214.328125 83.214844 C 214.5 83.101562 214.703125 83.042969 214.929688 83.042969 C 215.273438 83.042969 215.535156 83.160156 215.703125 83.386719 C 215.878906 83.503906 215.964844 83.644531 215.964844 83.816406 C 215.964844 84.160156 215.820312 84.421875 215.535156 84.59375 C 215.417969 84.707031 215.304688 84.765625 215.1875 84.765625 "/>
<path style=" stroke:none;fill-rule:nonzero;fill:rgb(0%,0%,0%);fill-opacity:1;" d="M 209.0625 93.109375 L 216.515625 93.109375 L 216.515625 92.792969 L 209.0625 92.792969 Z M 209.0625 93.109375 "/>
<path style=" stroke:none;fill-rule:nonzero;fill:rgb(0%,0%,0%);fill-opacity:1;" d="M 211.066406 98.960938 L 211.066406 98.714844 L 213.402344 95.027344 C 213.484375 95.027344 213.566406 95.027344 213.648438 95.027344 C 213.730469 95.027344 213.769531 95.027344 213.769531 95.027344 L 213.769531 98.714844 L 214.507812 98.714844 L 214.507812 98.960938 L 213.769531 98.960938 L 213.769531 99.695312 C 213.769531 99.859375 213.8125 99.941406 213.894531 99.941406 C 213.894531 100.023438 214.058594 100.066406 214.386719 100.066406 L 214.507812 100.066406 L 214.507812 100.3125 C 214.261719 100.3125 213.894531 100.3125 213.402344 100.3125 C 212.910156 100.3125 212.582031 100.3125 212.417969 100.3125 L 212.417969 100.066406 L 212.542969 100.066406 C 212.871094 100.066406 213.074219 100.023438 213.15625 99.941406 C 213.15625 99.859375 213.15625 99.777344 213.15625 99.695312 L 213.15625 98.960938 Z M 213.15625 98.714844 L 213.15625 95.886719 L 211.3125 98.714844 L 213.15625 98.714844 "/>
<path style=" stroke:none;fill-rule:nonzero;fill:rgb(0%,0%,0%);fill-opacity:1;" d="M 219.671875 92.949219 C 219.671875 93.851562 219.507812 94.671875 219.179688 95.40625 C 218.933594 95.980469 218.605469 96.433594 218.195312 96.761719 C 218.113281 96.84375 218.03125 96.882812 217.949219 96.882812 C 217.949219 96.882812 217.949219 96.84375 217.949219 96.761719 C 217.949219 96.761719 217.949219 96.71875 217.949219 96.636719 C 218.851562 95.816406 219.300781 94.589844 219.300781 92.949219 C 219.300781 91.3125 218.890625 90.082031 218.074219 89.265625 C 217.992188 89.183594 217.949219 89.140625 217.949219 89.140625 C 217.949219 89.058594 217.949219 89.019531 217.949219 89.019531 C 218.03125 89.019531 218.195312 89.140625 218.441406 89.386719 C 218.769531 89.714844 219.015625 90.082031 219.179688 90.492188 C 219.507812 91.230469 219.671875 92.050781 219.671875 92.949219 "/>
<path style=" stroke:none;fill-rule:nonzero;fill:rgb(0%,0%,0%);fill-opacity:1;" d="M 128.820312 118.777344 L 128.574219 119.757812 C 128.492188 120.167969 128.453125 120.414062 128.453125 120.496094 C 128.453125 120.742188 128.535156 120.90625 128.699219 120.988281 C 128.78125 120.988281 128.863281 120.988281 128.945312 120.988281 C 129.191406 120.988281 129.394531 120.863281 129.558594 120.617188 C 129.722656 120.453125 129.847656 120.25 129.929688 120.003906 C 129.929688 119.921875 129.96875 119.882812 130.050781 119.882812 C 130.132812 119.882812 130.171875 119.921875 130.171875 120.003906 C 130.171875 120.085938 130.089844 120.25 129.929688 120.496094 C 129.601562 120.988281 129.273438 121.234375 128.945312 121.234375 C 128.535156 121.234375 128.246094 121.070312 128.085938 120.742188 C 128.085938 120.660156 128.085938 120.617188 128.085938 120.617188 C 127.921875 120.863281 127.714844 121.027344 127.46875 121.109375 C 127.386719 121.191406 127.304688 121.234375 127.222656 121.234375 C 126.894531 121.234375 126.652344 121.109375 126.488281 120.863281 C 126.488281 120.863281 126.488281 120.78125 126.488281 120.617188 C 126.488281 120.453125 126.570312 120.332031 126.734375 120.25 C 126.8125 120.25 126.855469 120.25 126.855469 120.25 C 127.019531 120.25 127.140625 120.289062 127.222656 120.371094 C 127.222656 120.453125 127.222656 120.496094 127.222656 120.496094 C 127.222656 120.660156 127.140625 120.78125 126.980469 120.863281 C 126.894531 120.863281 126.855469 120.863281 126.855469 120.863281 C 126.9375 120.945312 127.0625 120.988281 127.222656 120.988281 C 127.46875 120.988281 127.675781 120.824219 127.839844 120.496094 C 127.921875 120.414062 127.960938 120.332031 127.960938 120.25 C 128.207031 119.183594 128.328125 118.53125 128.328125 118.285156 C 128.328125 117.957031 128.207031 117.792969 127.960938 117.792969 C 127.714844 117.792969 127.46875 117.957031 127.222656 118.285156 C 127.140625 118.367188 127.0625 118.488281 126.980469 118.652344 C 126.980469 118.652344 126.980469 118.695312 126.980469 118.777344 L 126.855469 118.898438 C 126.773438 118.898438 126.734375 118.898438 126.734375 118.898438 C 126.734375 118.734375 126.8125 118.53125 126.980469 118.285156 C 127.222656 117.875 127.550781 117.667969 127.960938 117.667969 C 128.371094 117.667969 128.65625 117.875 128.820312 118.285156 C 128.984375 117.957031 129.191406 117.75 129.4375 117.667969 C 129.519531 117.667969 129.601562 117.667969 129.683594 117.667969 C 130.007812 117.667969 130.214844 117.75 130.296875 117.914062 C 130.378906 117.996094 130.417969 118.078125 130.417969 118.160156 C 130.417969 118.40625 130.296875 118.53125 130.050781 118.53125 C 130.050781 118.613281 130.007812 118.652344 129.929688 118.652344 C 129.765625 118.652344 129.683594 118.570312 129.683594 118.40625 C 129.683594 118.40625 129.683594 118.367188 129.683594 118.285156 C 129.683594 118.121094 129.765625 117.996094 129.929688 117.914062 C 129.929688 117.914062 129.96875 117.914062 130.050781 117.914062 C 129.96875 117.832031 129.847656 117.792969 129.683594 117.792969 C 129.273438 117.792969 129.027344 118.078125 128.945312 118.652344 C 128.863281 118.652344 128.820312 118.695312 128.820312 118.777344 "/>
<path style=" stroke:none;fill-rule:nonzero;fill:rgb(0%,0%,0%);fill-opacity:1;" d="M 132.972656 116.574219 L 132.972656 118.121094 C 132.972656 118.234375 132.941406 118.292969 132.886719 118.292969 C 132.828125 118.292969 132.800781 118.234375 132.800781 118.121094 L 132.800781 116.574219 L 131.253906 116.574219 C 131.136719 116.574219 131.078125 116.542969 131.078125 116.488281 C 131.078125 116.429688 131.136719 116.402344 131.253906 116.402344 L 132.800781 116.402344 L 132.800781 114.851562 C 132.800781 114.738281 132.828125 114.679688 132.886719 114.679688 C 132.941406 114.679688 132.972656 114.738281 132.972656 114.851562 L 132.972656 116.402344 L 134.519531 116.402344 C 134.636719 116.402344 134.691406 116.429688 134.691406 116.488281 C 134.691406 116.542969 134.636719 116.574219 134.519531 116.574219 L 132.972656 116.574219 "/>
<path style=" stroke:none;fill-rule:nonzero;fill:rgb(0%,0%,0%);fill-opacity:1;" d="M 223.59375 34.136719 L 222.855469 37.085938 C 222.691406 37.578125 222.40625 37.988281 221.996094 38.316406 C 221.667969 38.5625 221.339844 38.683594 221.011719 38.683594 C 220.683594 38.683594 220.4375 38.5625 220.273438 38.316406 C 220.191406 38.234375 220.152344 38.152344 220.152344 38.070312 C 220.152344 37.742188 220.273438 37.578125 220.519531 37.578125 C 220.519531 37.496094 220.5625 37.457031 220.644531 37.457031 C 220.808594 37.457031 220.890625 37.539062 220.890625 37.703125 C 220.890625 37.703125 220.890625 37.742188 220.890625 37.824219 C 220.890625 37.90625 220.847656 37.988281 220.765625 38.070312 C 220.683594 38.152344 220.5625 38.195312 220.398438 38.195312 C 220.480469 38.4375 220.683594 38.5625 221.011719 38.5625 C 221.339844 38.5625 221.628906 38.398438 221.871094 38.070312 C 222.117188 37.742188 222.28125 37.375 222.363281 36.964844 C 222.363281 36.882812 222.363281 36.839844 222.363281 36.839844 C 222.117188 37.085938 221.871094 37.210938 221.628906 37.210938 C 221.21875 37.210938 220.929688 37.046875 220.765625 36.71875 C 220.683594 36.554688 220.644531 36.390625 220.644531 36.226562 C 220.644531 35.980469 220.765625 35.449219 221.011719 34.628906 C 221.011719 34.628906 221.054688 34.628906 221.136719 34.628906 C 221.21875 34.382812 221.257812 34.179688 221.257812 34.015625 C 221.257812 33.851562 221.175781 33.769531 221.011719 33.769531 C 220.765625 33.769531 220.519531 34.015625 220.273438 34.507812 C 220.273438 34.589844 220.273438 34.671875 220.273438 34.753906 C 220.191406 34.835938 220.152344 34.875 220.152344 34.875 C 220.070312 34.875 220.03125 34.875 220.03125 34.875 C 220.03125 34.710938 220.070312 34.546875 220.152344 34.382812 C 220.398438 33.894531 220.683594 33.648438 221.011719 33.648438 C 221.339844 33.648438 221.546875 33.769531 221.628906 34.015625 C 221.710938 34.097656 221.75 34.179688 221.75 34.261719 C 221.75 34.34375 221.667969 34.546875 221.503906 34.875 C 221.257812 35.53125 221.136719 36.023438 221.136719 36.351562 C 221.136719 36.761719 221.300781 36.964844 221.628906 36.964844 C 221.953125 36.964844 222.199219 36.800781 222.363281 36.472656 C 222.445312 36.390625 222.488281 36.351562 222.488281 36.351562 L 222.855469 34.875 C 222.9375 34.710938 222.980469 34.507812 222.980469 34.261719 C 223.0625 34.015625 223.101562 33.894531 223.101562 33.894531 C 223.183594 33.730469 223.304688 33.648438 223.46875 33.648438 C 223.550781 33.730469 223.59375 33.8125 223.59375 33.894531 C 223.59375 33.972656 223.59375 34.054688 223.59375 34.136719 "/>
<path style=" stroke:none;fill-rule:nonzero;fill:rgb(0%,0%,0%);fill-opacity:1;" d="M 226.15625 32.550781 L 226.15625 34.097656 C 226.15625 34.214844 226.128906 34.269531 226.070312 34.269531 C 226.015625 34.269531 225.984375 34.214844 225.984375 34.097656 L 225.984375 32.550781 L 224.4375 32.550781 C 224.324219 32.550781 224.265625 32.519531 224.265625 32.464844 C 224.265625 32.40625 224.324219 32.378906 224.4375 32.378906 L 225.984375 32.378906 L 225.984375 30.828125 C 225.984375 30.714844 226.015625 30.65625 226.070312 30.65625 C 226.128906 30.65625 226.15625 30.714844 226.15625 30.828125 L 226.15625 32.378906 L 227.707031 32.378906 C 227.820312 32.378906 227.878906 32.40625 227.878906 32.464844 C 227.878906 32.519531 227.820312 32.550781 227.707031 32.550781 L 226.15625 32.550781 "/>
</g>
</svg>
