<?xml version="1.0" encoding="UTF-8"?>
<svg xmlns="http://www.w3.org/2000/svg" xmlns:xlink="http://www.w3.org/1999/xlink" width="357pt" height="354pt" viewBox="0 0 357 354" version="1.1">
<g id="surface1">
<rect x="0" y="0" width="357" height="354" style="fill:rgb(100%,100%,100%);fill-opacity:1;stroke:none;"/>
<path style="fill:none;stroke-width:10;stroke-linecap:round;stroke-linejoin:round;stroke:rgb(75.389099%,75.389099%,75.389099%);stroke-opacity:1;stroke-miterlimit:10;" d="M 84.53125 3633.320312 L 84.53125 -232.929688 " transform="matrix(0.1,0,0,-0.1,0,354)"/>
<path style="fill:none;stroke-width:10;stroke-linecap:round;stroke-linejoin:round;stroke:rgb(75.389099%,75.389099%,75.389099%);stroke-opacity:1;stroke-miterlimit:10;" d="M 84.53125 3633.320312 L 84.53125 -232.929688 " transform="matrix(0.1,0,0,-0.1,0,354)"/>
<path style="fill:none;stroke-width:10;stroke-linecap:round;stroke-linejoin:round;stroke:rgb(75.389099%,75.389099%,75.389099%);stroke-opacity:1;stroke-miterlimit:10;" d="M 651.484375 3633.320312 L 651.484375 -232.929688 " transform="matrix(0.1,0,0,-0.1,0,354)"/>
<path style="fill:none;stroke-width:10;stroke-linecap:round;stroke-linejoin:round;stroke:rgb(75.389099%,75.389099%,75.389099%);stroke-opacity:1;stroke-miterlimit:10;" d="M 1218.398438 3633.320312 L 1218.398438 -232.929688 " transform="matrix(0.1,0,0,-0.1,0,354)"/>
<path style="fill:none;stroke-width:10;stroke-linecap:round;stroke-linejoin:round;stroke:rgb(75.389099%,75.389099%,75.389099%);stroke-opacity:1;stroke-miterlimit:10;" d="M 2352.265625 3633.320312 L 2352.265625 -232.929688 " transform="matrix(0.1,0,0,-0.1,0,354)"/>
<path style="fill:none;stroke-width:10;stroke-linecap:round;stroke-linejoin:round;stroke:rgb(75.389099%,75.389099%,75.389099%);stroke-opacity:1;stroke-miterlimit:10;" d="M 2919.179688 3633.320312 L 2919.179688 -232.929688 " transform="matrix(0.1,0,0,-0.1,0,354)"/>
<path style="fill:none;stroke-width:10;stroke-linecap:round;stroke-linejoin:round;stroke:rgb(75.389099%,75.389099%,75.389099%);stroke-opacity:1;stroke-miterlimit:10;" d="M 3486.132812 3633.320312 L 3486.132812 -232.929688 " transform="matrix(0.1,0,0,-0.1,0,354)"/>
<path style="fill:none;stroke-width:10;stroke-linecap:round;stroke-linejoin:round;stroke:rgb(94.139099%,94.139099%,94.139099%);stroke-opacity:1;stroke-miterlimit:10;" d="M 197.929688 3633.320312 L 197.929688 -232.929688 " transform="matrix(0.1,0,0,-0.1,0,354)"/>
<path style="fill:none;stroke-width:10;stroke-linecap:round;stroke-linejoin:round;stroke:rgb(94.139099%,94.139099%,94.139099%);stroke-opacity:1;stroke-miterlimit:10;" d="M 311.328125 3633.320312 L 311.328125 -232.929688 " transform="matrix(0.1,0,0,-0.1,0,354)"/>
<path style="fill:none;stroke-width:10;stroke-linecap:round;stroke-linejoin:round;stroke:rgb(94.139099%,94.139099%,94.139099%);stroke-opacity:1;stroke-miterlimit:10;" d="M 424.6875 3633.320312 L 424.6875 -232.929688 " transform="matrix(0.1,0,0,-0.1,0,354)"/>
<path style="fill:none;stroke-width:10;stroke-linecap:round;stroke-linejoin:round;stroke:rgb(94.139099%,94.139099%,94.139099%);stroke-opacity:1;stroke-miterlimit:10;" d="M 538.085938 3633.320312 L 538.085938 -232.929688 " transform="matrix(0.1,0,0,-0.1,0,354)"/>
<path style="fill:none;stroke-width:10;stroke-linecap:round;stroke-linejoin:round;stroke:rgb(94.139099%,94.139099%,94.139099%);stroke-opacity:1;stroke-miterlimit:10;" d="M 764.84375 3633.320312 L 764.84375 -232.929688 " transform="matrix(0.1,0,0,-0.1,0,354)"/>
<path style="fill:none;stroke-width:10;stroke-linecap:round;stroke-linejoin:round;stroke:rgb(94.139099%,94.139099%,94.139099%);stroke-opacity:1;stroke-miterlimit:10;" d="M 878.242188 3633.320312 L 878.242188 -232.929688 " transform="matrix(0.1,0,0,-0.1,0,354)"/>
<path style="fill:none;stroke-width:10;stroke-linecap:round;stroke-linejoin:round;stroke:rgb(94.139099%,94.139099%,94.139099%);stroke-opacity:1;stroke-miterlimit:10;" d="M 991.640625 3633.320312 L 991.640625 -232.929688 " transform="matrix(0.1,0,0,-0.1,0,354)"/>
<path style="fill:none;stroke-width:10;stroke-linecap:round;stroke-linejoin:round;stroke:rgb(94.139099%,94.139099%,94.139099%);stroke-opacity:1;stroke-miterlimit:10;" d="M 1105.039062 3633.320312 L 1105.039062 -232.929688 " transform="matrix(0.1,0,0,-0.1,0,354)"/>
<path style="fill:none;stroke-width:10;stroke-linecap:round;stroke-linejoin:round;stroke:rgb(94.139099%,94.139099%,94.139099%);stroke-opacity:1;stroke-miterlimit:10;" d="M 1331.796875 3633.320312 L 1331.796875 -232.929688 " transform="matrix(0.1,0,0,-0.1,0,354)"/>
<path style="fill:none;stroke-width:10;stroke-linecap:round;stroke-linejoin:round;stroke:rgb(94.139099%,94.139099%,94.139099%);stroke-opacity:1;stroke-miterlimit:10;" d="M 1445.195312 3633.320312 L 1445.195312 -232.929688 " transform="matrix(0.1,0,0,-0.1,0,354)"/>
<path style="fill:none;stroke-width:10;stroke-linecap:round;stroke-linejoin:round;stroke:rgb(94.139099%,94.139099%,94.139099%);stroke-opacity:1;stroke-miterlimit:10;" d="M 1558.554688 3633.320312 L 1558.554688 -232.929688 " transform="matrix(0.1,0,0,-0.1,0,354)"/>
<path style="fill:none;stroke-width:10;stroke-linecap:round;stroke-linejoin:round;stroke:rgb(94.139099%,94.139099%,94.139099%);stroke-opacity:1;stroke-miterlimit:10;" d="M 1671.953125 3633.320312 L 1671.953125 -232.929688 " transform="matrix(0.1,0,0,-0.1,0,354)"/>
<path style="fill:none;stroke-width:10;stroke-linecap:round;stroke-linejoin:round;stroke:rgb(94.139099%,94.139099%,94.139099%);stroke-opacity:1;stroke-miterlimit:10;" d="M 1898.710938 3633.320312 L 1898.710938 -232.929688 " transform="matrix(0.1,0,0,-0.1,0,354)"/>
<path style="fill:none;stroke-width:10;stroke-linecap:round;stroke-linejoin:round;stroke:rgb(94.139099%,94.139099%,94.139099%);stroke-opacity:1;stroke-miterlimit:10;" d="M 2012.109375 3633.320312 L 2012.109375 -232.929688 " transform="matrix(0.1,0,0,-0.1,0,354)"/>
<path style="fill:none;stroke-width:10;stroke-linecap:round;stroke-linejoin:round;stroke:rgb(94.139099%,94.139099%,94.139099%);stroke-opacity:1;stroke-miterlimit:10;" d="M 2125.507812 3633.320312 L 2125.507812 -232.929688 " transform="matrix(0.1,0,0,-0.1,0,354)"/>
<path style="fill:none;stroke-width:10;stroke-linecap:round;stroke-linejoin:round;stroke:rgb(94.139099%,94.139099%,94.139099%);stroke-opacity:1;stroke-miterlimit:10;" d="M 2238.867188 3633.320312 L 2238.867188 -232.929688 " transform="matrix(0.1,0,0,-0.1,0,354)"/>
<path style="fill:none;stroke-width:10;stroke-linecap:round;stroke-linejoin:round;stroke:rgb(94.139099%,94.139099%,94.139099%);stroke-opacity:1;stroke-miterlimit:10;" d="M 2465.664062 3633.320312 L 2465.664062 -232.929688 " transform="matrix(0.1,0,0,-0.1,0,354)"/>
<path style="fill:none;stroke-width:10;stroke-linecap:round;stroke-linejoin:round;stroke:rgb(94.139099%,94.139099%,94.139099%);stroke-opacity:1;stroke-miterlimit:10;" d="M 2579.023438 3633.320312 L 2579.023438 -232.929688 " transform="matrix(0.1,0,0,-0.1,0,354)"/>
<path style="fill:none;stroke-width:10;stroke-linecap:round;stroke-linejoin:round;stroke:rgb(94.139099%,94.139099%,94.139099%);stroke-opacity:1;stroke-miterlimit:10;" d="M 2692.421875 3633.320312 L 2692.421875 -232.929688 " transform="matrix(0.1,0,0,-0.1,0,354)"/>
<path style="fill:none;stroke-width:10;stroke-linecap:round;stroke-linejoin:round;stroke:rgb(94.139099%,94.139099%,94.139099%);stroke-opacity:1;stroke-miterlimit:10;" d="M 2805.78125 3633.320312 L 2805.78125 -232.929688 " transform="matrix(0.1,0,0,-0.1,0,354)"/>
<path style="fill:none;stroke-width:10;stroke-linecap:round;stroke-linejoin:round;stroke:rgb(94.139099%,94.139099%,94.139099%);stroke-opacity:1;stroke-miterlimit:10;" d="M 3032.578125 3633.320312 L 3032.578125 -232.929688 " transform="matrix(0.1,0,0,-0.1,0,354)"/>
<path style="fill:none;stroke-width:10;stroke-linecap:round;stroke-linejoin:round;stroke:rgb(94.139099%,94.139099%,94.139099%);stroke-opacity:1;stroke-miterlimit:10;" d="M 3145.976562 3633.320312 L 3145.976562 -232.929688 " transform="matrix(0.1,0,0,-0.1,0,354)"/>
<path style="fill:none;stroke-width:10;stroke-linecap:round;stroke-linejoin:round;stroke:rgb(94.139099%,94.139099%,94.139099%);stroke-opacity:1;stroke-miterlimit:10;" d="M 3259.335938 3633.320312 L 3259.335938 -232.929688 " transform="matrix(0.1,0,0,-0.1,0,354)"/>
<path style="fill:none;stroke-width:10;stroke-linecap:round;stroke-linejoin:round;stroke:rgb(94.139099%,94.139099%,94.139099%);stroke-opacity:1;stroke-miterlimit:10;" d="M 3372.734375 3633.320312 L 3372.734375 -232.929688 " transform="matrix(0.1,0,0,-0.1,0,354)"/>
<path style="fill:none;stroke-width:10;stroke-linecap:round;stroke-linejoin:round;stroke:rgb(75.389099%,75.389099%,75.389099%);stroke-opacity:1;stroke-miterlimit:10;" d="M -293.320312 3464.492188 L 4306.210938 3464.492188 " transform="matrix(0.1,0,0,-0.1,0,354)"/>
<path style="fill:none;stroke-width:10;stroke-linecap:round;stroke-linejoin:round;stroke:rgb(75.389099%,75.389099%,75.389099%);stroke-opacity:1;stroke-miterlimit:10;" d="M -293.320312 3464.492188 L 4306.210938 3464.492188 " transform="matrix(0.1,0,0,-0.1,0,354)"/>
<path style="fill:none;stroke-width:10;stroke-linecap:round;stroke-linejoin:round;stroke:rgb(75.389099%,75.389099%,75.389099%);stroke-opacity:1;stroke-miterlimit:10;" d="M -293.320312 2330.625 L 4306.210938 2330.625 " transform="matrix(0.1,0,0,-0.1,0,354)"/>
<path style="fill:none;stroke-width:10;stroke-linecap:round;stroke-linejoin:round;stroke:rgb(75.389099%,75.389099%,75.389099%);stroke-opacity:1;stroke-miterlimit:10;" d="M -293.320312 1763.671875 L 4306.210938 1763.671875 " transform="matrix(0.1,0,0,-0.1,0,354)"/>
<path style="fill:none;stroke-width:10;stroke-linecap:round;stroke-linejoin:round;stroke:rgb(75.389099%,75.389099%,75.389099%);stroke-opacity:1;stroke-miterlimit:10;" d="M -293.320312 1196.757812 L 4306.210938 1196.757812 " transform="matrix(0.1,0,0,-0.1,0,354)"/>
<path style="fill:none;stroke-width:10;stroke-linecap:round;stroke-linejoin:round;stroke:rgb(75.389099%,75.389099%,75.389099%);stroke-opacity:1;stroke-miterlimit:10;" d="M -293.320312 629.84375 L 4306.210938 629.84375 " transform="matrix(0.1,0,0,-0.1,0,354)"/>
<path style="fill:none;stroke-width:10;stroke-linecap:round;stroke-linejoin:round;stroke:rgb(75.389099%,75.389099%,75.389099%);stroke-opacity:1;stroke-miterlimit:10;" d="M -293.320312 62.890625 L 4306.210938 62.890625 " transform="matrix(0.1,0,0,-0.1,0,354)"/>
<path style="fill:none;stroke-width:10;stroke-linecap:round;stroke-linejoin:round;stroke:rgb(94.139099%,94.139099%,94.139099%);stroke-opacity:1;stroke-miterlimit:10;" d="M -293.320312 3351.09375 L 4306.210938 3351.09375 " transform="matrix(0.1,0,0,-0.1,0,354)"/>
<path style="fill:none;stroke-width:10;stroke-linecap:round;stroke-linejoin:round;stroke:rgb(94.139099%,94.139099%,94.139099%);stroke-opacity:1;stroke-miterlimit:10;" d="M -293.320312 3237.695312 L 4306.210938 3237.695312 " transform="matrix(0.1,0,0,-0.1,0,354)"/>
<path style="fill:none;stroke-width:10;stroke-linecap:round;stroke-linejoin:round;stroke:rgb(94.139099%,94.139099%,94.139099%);stroke-opacity:1;stroke-miterlimit:10;" d="M -293.320312 3124.335938 L 4306.210938 3124.335938 " transform="matrix(0.1,0,0,-0.1,0,354)"/>
<path style="fill:none;stroke-width:10;stroke-linecap:round;stroke-linejoin:round;stroke:rgb(94.139099%,94.139099%,94.139099%);stroke-opacity:1;stroke-miterlimit:10;" d="M -293.320312 3010.9375 L 4306.210938 3010.9375 " transform="matrix(0.1,0,0,-0.1,0,354)"/>
<path style="fill:none;stroke-width:10;stroke-linecap:round;stroke-linejoin:round;stroke:rgb(94.139099%,94.139099%,94.139099%);stroke-opacity:1;stroke-miterlimit:10;" d="M -293.320312 2784.140625 L 4306.210938 2784.140625 " transform="matrix(0.1,0,0,-0.1,0,354)"/>
<path style="fill:none;stroke-width:10;stroke-linecap:round;stroke-linejoin:round;stroke:rgb(94.139099%,94.139099%,94.139099%);stroke-opacity:1;stroke-miterlimit:10;" d="M -293.320312 2670.78125 L 4306.210938 2670.78125 " transform="matrix(0.1,0,0,-0.1,0,354)"/>
<path style="fill:none;stroke-width:10;stroke-linecap:round;stroke-linejoin:round;stroke:rgb(94.139099%,94.139099%,94.139099%);stroke-opacity:1;stroke-miterlimit:10;" d="M -293.320312 2557.382812 L 4306.210938 2557.382812 " transform="matrix(0.1,0,0,-0.1,0,354)"/>
<path style="fill:none;stroke-width:10;stroke-linecap:round;stroke-linejoin:round;stroke:rgb(94.139099%,94.139099%,94.139099%);stroke-opacity:1;stroke-miterlimit:10;" d="M -293.320312 2444.023438 L 4306.210938 2444.023438 " transform="matrix(0.1,0,0,-0.1,0,354)"/>
<path style="fill:none;stroke-width:10;stroke-linecap:round;stroke-linejoin:round;stroke:rgb(94.139099%,94.139099%,94.139099%);stroke-opacity:1;stroke-miterlimit:10;" d="M -293.320312 2217.226562 L 4306.210938 2217.226562 " transform="matrix(0.1,0,0,-0.1,0,354)"/>
<path style="fill:none;stroke-width:10;stroke-linecap:round;stroke-linejoin:round;stroke:rgb(94.139099%,94.139099%,94.139099%);stroke-opacity:1;stroke-miterlimit:10;" d="M -293.320312 2103.867188 L 4306.210938 2103.867188 " transform="matrix(0.1,0,0,-0.1,0,354)"/>
<path style="fill:none;stroke-width:10;stroke-linecap:round;stroke-linejoin:round;stroke:rgb(94.139099%,94.139099%,94.139099%);stroke-opacity:1;stroke-miterlimit:10;" d="M -293.320312 1990.46875 L 4306.210938 1990.46875 " transform="matrix(0.1,0,0,-0.1,0,354)"/>
<path style="fill:none;stroke-width:10;stroke-linecap:round;stroke-linejoin:round;stroke:rgb(94.139099%,94.139099%,94.139099%);stroke-opacity:1;stroke-miterlimit:10;" d="M -293.320312 1877.070312 L 4306.210938 1877.070312 " transform="matrix(0.1,0,0,-0.1,0,354)"/>
<path style="fill:none;stroke-width:10;stroke-linecap:round;stroke-linejoin:round;stroke:rgb(94.139099%,94.139099%,94.139099%);stroke-opacity:1;stroke-miterlimit:10;" d="M -293.320312 1650.3125 L 4306.210938 1650.3125 " transform="matrix(0.1,0,0,-0.1,0,354)"/>
<path style="fill:none;stroke-width:10;stroke-linecap:round;stroke-linejoin:round;stroke:rgb(94.139099%,94.139099%,94.139099%);stroke-opacity:1;stroke-miterlimit:10;" d="M -293.320312 1536.914062 L 4306.210938 1536.914062 " transform="matrix(0.1,0,0,-0.1,0,354)"/>
<path style="fill:none;stroke-width:10;stroke-linecap:round;stroke-linejoin:round;stroke:rgb(94.139099%,94.139099%,94.139099%);stroke-opacity:1;stroke-miterlimit:10;" d="M -293.320312 1423.554688 L 4306.210938 1423.554688 " transform="matrix(0.1,0,0,-0.1,0,354)"/>
<path style="fill:none;stroke-width:10;stroke-linecap:round;stroke-linejoin:round;stroke:rgb(94.139099%,94.139099%,94.139099%);stroke-opacity:1;stroke-miterlimit:10;" d="M -293.320312 1310.15625 L 4306.210938 1310.15625 " transform="matrix(0.1,0,0,-0.1,0,354)"/>
<path style="fill:none;stroke-width:10;stroke-linecap:round;stroke-linejoin:round;stroke:rgb(94.139099%,94.139099%,94.139099%);stroke-opacity:1;stroke-miterlimit:10;" d="M -293.320312 1083.398438 L 4306.210938 1083.398438 " transform="matrix(0.1,0,0,-0.1,0,354)"/>
<path style="fill:none;stroke-width:10;stroke-linecap:round;stroke-linejoin:round;stroke:rgb(94.139099%,94.139099%,94.139099%);stroke-opacity:1;stroke-miterlimit:10;" d="M -293.320312 970 L 4306.210938 970 " transform="matrix(0.1,0,0,-0.1,0,354)"/>
<path style="fill:none;stroke-width:10;stroke-linecap:round;stroke-linejoin:round;stroke:rgb(94.139099%,94.139099%,94.139099%);stroke-opacity:1;stroke-miterlimit:10;" d="M -293.320312 856.601562 L 4306.210938 856.601562 " transform="matrix(0.1,0,0,-0.1,0,354)"/>
<path style="fill:none;stroke-width:10;stroke-linecap:round;stroke-linejoin:round;stroke:rgb(94.139099%,94.139099%,94.139099%);stroke-opacity:1;stroke-miterlimit:10;" d="M -293.320312 743.203125 L 4306.210938 743.203125 " transform="matrix(0.1,0,0,-0.1,0,354)"/>
<path style="fill:none;stroke-width:10;stroke-linecap:round;stroke-linejoin:round;stroke:rgb(94.139099%,94.139099%,94.139099%);stroke-opacity:1;stroke-miterlimit:10;" d="M -293.320312 516.445312 L 4306.210938 516.445312 " transform="matrix(0.1,0,0,-0.1,0,354)"/>
<path style="fill:none;stroke-width:10;stroke-linecap:round;stroke-linejoin:round;stroke:rgb(94.139099%,94.139099%,94.139099%);stroke-opacity:1;stroke-miterlimit:10;" d="M -293.320312 403.046875 L 4306.210938 403.046875 " transform="matrix(0.1,0,0,-0.1,0,354)"/>
<path style="fill:none;stroke-width:10;stroke-linecap:round;stroke-linejoin:round;stroke:rgb(94.139099%,94.139099%,94.139099%);stroke-opacity:1;stroke-miterlimit:10;" d="M -293.320312 289.6875 L 4306.210938 289.6875 " transform="matrix(0.1,0,0,-0.1,0,354)"/>
<path style="fill:none;stroke-width:10;stroke-linecap:round;stroke-linejoin:round;stroke:rgb(94.139099%,94.139099%,94.139099%);stroke-opacity:1;stroke-miterlimit:10;" d="M -293.320312 176.289062 L 4306.210938 176.289062 " transform="matrix(0.1,0,0,-0.1,0,354)"/>
<path style="fill:none;stroke-width:10;stroke-linecap:butt;stroke-linejoin:miter;stroke:rgb(0%,0%,0%);stroke-opacity:1;stroke-miterlimit:10;" d="M 1785.3125 3620 L 1785.3125 -232.929688 " transform="matrix(0.1,0,0,-0.1,0,354)"/>
<path style="fill:none;stroke-width:10;stroke-linecap:butt;stroke-linejoin:miter;stroke:rgb(0%,0%,0%);stroke-opacity:1;stroke-miterlimit:10;" d="M -293.320312 2897.539062 L 4292.890625 2897.539062 " transform="matrix(0.1,0,0,-0.1,0,354)"/>
<path style="fill:none;stroke-width:25;stroke-linecap:round;stroke-linejoin:round;stroke:rgb(30.200195%,30.200195%,100%);stroke-opacity:1;stroke-miterlimit:10;" d="M 2635.742188 1480.234375 L 2634.6875 1521.953125 L 2631.640625 1563.59375 L 2626.523438 1605 L 2619.375 1646.132812 L 2610.234375 1686.875 L 2599.101562 1727.109375 L 2586.015625 1766.71875 L 2570.976562 1805.664062 L 2554.0625 1843.828125 L 2535.3125 1881.09375 L 2514.726562 1917.421875 L 2492.421875 1952.695312 L 2468.398438 1986.796875 L 2442.695312 2019.726562 L 2415.429688 2051.328125 L 2386.640625 2081.5625 L 2356.40625 2110.3125 L 2324.804688 2137.578125 L 2291.914062 2163.28125 L 2257.773438 2187.304688 L 2222.539062 2209.648438 L 2186.210938 2230.195312 L 2148.90625 2248.984375 L 2110.742188 2265.898438 L 2071.835938 2280.898438 L 2032.1875 2293.984375 L 1991.953125 2305.15625 L 1951.210938 2314.296875 L 1910.117188 2321.40625 L 1868.671875 2326.523438 L 1827.070312 2329.609375 L 1785.3125 2330.625 L 1743.59375 2329.609375 L 1701.992188 2326.523438 L 1660.546875 2321.40625 L 1619.414062 2314.296875 L 1578.710938 2305.15625 L 1538.476562 2293.984375 L 1498.828125 2280.898438 L 1459.882812 2265.898438 L 1421.757812 2248.984375 L 1384.453125 2230.195312 L 1348.125 2209.648438 L 1312.890625 2187.304688 L 1278.75 2163.28125 L 1245.859375 2137.578125 L 1214.257812 2110.3125 L 1184.023438 2081.5625 L 1155.234375 2051.328125 L 1127.96875 2019.726562 L 1102.304688 1986.796875 L 1078.242188 1952.695312 L 1055.9375 1917.421875 L 1035.351562 1881.09375 L 1016.601562 1843.828125 L 999.6875 1805.664062 L 984.648438 1766.71875 L 971.5625 1727.109375 L 960.429688 1686.875 L 951.289062 1646.132812 L 944.140625 1605 L 939.023438 1563.59375 L 935.976562 1521.953125 L 934.921875 1480.234375 L 935.976562 1438.515625 L 939.023438 1396.875 L 944.140625 1355.46875 L 951.289062 1314.335938 L 960.429688 1273.59375 L 971.5625 1233.359375 L 984.648438 1193.75 L 999.6875 1154.804688 L 1016.601562 1116.640625 L 1035.351562 1079.375 L 1055.9375 1043.046875 L 1078.242188 1007.773438 L 1102.304688 973.632812 L 1127.96875 940.742188 L 1155.234375 909.140625 L 1184.023438 878.90625 L 1214.257812 850.117188 L 1245.859375 822.851562 L 1278.75 797.1875 L 1312.890625 773.164062 L 1348.125 750.820312 L 1384.453125 730.234375 L 1421.757812 711.484375 L 1459.882812 694.570312 L 1498.828125 679.53125 L 1538.476562 666.445312 L 1578.710938 655.3125 L 1619.414062 646.171875 L 1660.546875 639.023438 L 1701.992188 633.945312 L 1743.59375 630.859375 L 1785.3125 629.84375 L 1827.070312 630.859375 L 1868.671875 633.945312 L 1910.117188 639.023438 L 1951.210938 646.171875 L 1991.953125 655.3125 L 2032.1875 666.445312 L 2071.835938 679.53125 L 2110.742188 694.570312 L 2148.90625 711.484375 L 2186.210938 730.234375 L 2222.539062 750.820312 L 2257.773438 773.164062 L 2291.914062 797.1875 L 2324.804688 822.851562 L 2356.40625 850.117188 L 2386.640625 878.90625 L 2415.429688 909.140625 L 2442.695312 940.742188 L 2468.398438 973.632812 L 2492.421875 1007.773438 L 2514.726562 1043.046875 L 2535.3125 1079.375 L 2554.0625 1116.640625 L 2570.976562 1154.804688 L 2586.015625 1193.75 L 2599.101562 1233.359375 L 2610.234375 1273.59375 L 2619.375 1314.335938 L 2626.523438 1355.46875 L 2631.640625 1396.875 L 2634.6875 1438.515625 L 2635.742188 1480.234375 " transform="matrix(0.1,0,0,-0.1,0,354)"/>
<path style=" stroke:none;fill-rule:nonzero;fill:rgb(19.993591%,19.993591%,100%);fill-opacity:1;" d="M 180.53125 120.9375 C 180.53125 122.042969 179.636719 122.9375 178.53125 122.9375 C 177.429688 122.9375 176.53125 122.042969 176.53125 120.9375 C 176.53125 119.832031 177.429688 118.9375 178.53125 118.9375 C 179.636719 118.9375 180.53125 119.832031 180.53125 120.9375 "/>
<path style="fill:none;stroke-width:10;stroke-linecap:round;stroke-linejoin:round;stroke:rgb(0%,0%,0%);stroke-opacity:1;stroke-miterlimit:10;" d="M 1805.3125 2330.625 C 1805.3125 2319.570312 1796.367188 2310.625 1785.3125 2310.625 C 1774.296875 2310.625 1765.3125 2319.570312 1765.3125 2330.625 C 1765.3125 2341.679688 1774.296875 2350.625 1785.3125 2350.625 C 1796.367188 2350.625 1805.3125 2341.679688 1805.3125 2330.625 Z M 1805.3125 2330.625 " transform="matrix(0.1,0,0,-0.1,0,354)"/>
<path style=" stroke:none;fill-rule:nonzero;fill:rgb(19.993591%,19.993591%,100%);fill-opacity:1;" d="M 189.71875 114.640625 L 189.324219 116.816406 L 184.574219 116.816406 C 184.574219 116.554688 184.640625 116.421875 184.773438 116.421875 L 187.148438 113.652344 C 188.070312 112.597656 188.53125 111.671875 188.53125 110.882812 C 188.53125 110.089844 188.269531 109.496094 187.742188 109.101562 C 187.476562 108.835938 187.148438 108.703125 186.753906 108.703125 C 186.222656 108.703125 185.761719 108.96875 185.367188 109.496094 C 185.234375 109.628906 185.167969 109.824219 185.167969 110.089844 C 185.167969 110.089844 185.234375 110.089844 185.367188 110.089844 C 185.628906 110.089844 185.828125 110.222656 185.960938 110.484375 C 185.960938 110.617188 185.960938 110.683594 185.960938 110.683594 C 185.960938 111.078125 185.761719 111.277344 185.367188 111.277344 C 185.367188 111.410156 185.367188 111.476562 185.367188 111.476562 C 184.972656 111.476562 184.707031 111.34375 184.574219 111.078125 C 184.574219 110.945312 184.574219 110.816406 184.574219 110.683594 C 184.574219 110.023438 184.839844 109.496094 185.367188 109.101562 C 185.761719 108.570312 186.289062 108.308594 186.949219 108.308594 C 187.871094 108.308594 188.597656 108.636719 189.128906 109.296875 C 189.390625 109.691406 189.589844 110.15625 189.71875 110.683594 C 189.71875 110.683594 189.71875 110.75 189.71875 110.882812 C 189.71875 111.410156 189.457031 112.003906 188.929688 112.660156 C 188.664062 112.925781 188.269531 113.253906 187.742188 113.652344 L 187.148438 114.441406 L 186.949219 114.441406 L 185.5625 115.828125 L 187.9375 115.828125 C 188.597656 115.828125 188.996094 115.828125 189.128906 115.828125 C 189.128906 115.695312 189.191406 115.300781 189.324219 114.640625 L 189.71875 114.640625 "/>
<path style=" stroke:none;fill-rule:nonzero;fill:rgb(19.993591%,19.993591%,100%);fill-opacity:1;" d="M 180.53125 291.015625 C 180.53125 292.121094 179.636719 293.015625 178.53125 293.015625 C 177.429688 293.015625 176.53125 292.121094 176.53125 291.015625 C 176.53125 289.910156 177.429688 289.015625 178.53125 289.015625 C 179.636719 289.015625 180.53125 289.910156 180.53125 291.015625 "/>
<path style="fill:none;stroke-width:10;stroke-linecap:round;stroke-linejoin:round;stroke:rgb(0%,0%,0%);stroke-opacity:1;stroke-miterlimit:10;" d="M 1805.3125 629.84375 C 1805.3125 618.789062 1796.367188 609.84375 1785.3125 609.84375 C 1774.296875 609.84375 1765.3125 618.789062 1765.3125 629.84375 C 1765.3125 640.898438 1774.296875 649.84375 1785.3125 649.84375 C 1796.367188 649.84375 1805.3125 640.898438 1805.3125 629.84375 Z M 1805.3125 629.84375 " transform="matrix(0.1,0,0,-0.1,0,354)"/>
<path style=" stroke:none;fill-rule:nonzero;fill:rgb(19.993591%,19.993591%,100%);fill-opacity:1;" d="M 185.292969 280.394531 L 186.878906 281.382812 C 187.800781 280.855469 188.261719 280.261719 188.261719 279.601562 C 188.261719 279.074219 187.996094 278.613281 187.472656 278.21875 C 187.207031 278.085938 186.878906 278.019531 186.480469 278.019531 C 185.820312 278.019531 185.359375 278.21875 185.097656 278.613281 C 184.832031 278.878906 184.699219 279.140625 184.699219 279.40625 C 184.699219 279.800781 184.898438 280.132812 185.292969 280.394531 Z M 187.273438 281.582031 C 187.933594 281.976562 188.328125 282.242188 188.460938 282.375 C 188.855469 282.902344 189.054688 283.429688 189.054688 283.957031 C 189.054688 284.75 188.789062 285.40625 188.261719 285.9375 C 187.734375 286.199219 187.140625 286.332031 186.480469 286.332031 C 185.6875 286.332031 185.03125 286.132812 184.503906 285.738281 C 184.105469 285.34375 183.910156 284.816406 183.910156 284.15625 C 183.910156 283.230469 184.503906 282.507812 185.6875 281.976562 C 185.160156 281.582031 184.832031 281.320312 184.699219 281.1875 C 184.304688 280.789062 184.105469 280.328125 184.105469 279.800781 C 184.105469 279.140625 184.4375 278.613281 185.097656 278.21875 C 185.492188 277.824219 185.953125 277.625 186.480469 277.625 C 187.273438 277.625 187.867188 277.886719 188.261719 278.414062 C 188.65625 278.679688 188.855469 279.074219 188.855469 279.601562 C 188.855469 280.394531 188.328125 281.054688 187.273438 281.582031 Z M 185.886719 282.175781 C 184.964844 282.703125 184.503906 283.363281 184.503906 284.15625 C 184.503906 284.816406 184.765625 285.34375 185.292969 285.738281 C 185.6875 286.003906 186.085938 286.132812 186.480469 286.132812 C 187.140625 286.132812 187.667969 285.871094 188.0625 285.34375 C 188.328125 285.078125 188.460938 284.816406 188.460938 284.550781 C 188.460938 284.023438 188.195312 283.5625 187.667969 283.164062 C 187.667969 283.164062 187.601562 283.164062 187.472656 283.164062 L 185.886719 282.175781 "/>
<path style=" stroke:none;fill-rule:nonzero;fill:rgb(30.200195%,30.200195%,100%);fill-opacity:1;" d="M 180.53125 205.976562 C 180.53125 207.082031 179.636719 207.976562 178.53125 207.976562 C 177.429688 207.976562 176.53125 207.082031 176.53125 205.976562 C 176.53125 204.871094 177.429688 203.976562 178.53125 203.976562 C 179.636719 203.976562 180.53125 204.871094 180.53125 205.976562 "/>
<path style="fill:none;stroke-width:10;stroke-linecap:round;stroke-linejoin:round;stroke:rgb(0%,0%,0%);stroke-opacity:1;stroke-miterlimit:10;" d="M 1805.3125 1480.234375 C 1805.3125 1469.179688 1796.367188 1460.234375 1785.3125 1460.234375 C 1774.296875 1460.234375 1765.3125 1469.179688 1765.3125 1480.234375 C 1765.3125 1491.289062 1774.296875 1500.234375 1785.3125 1500.234375 C 1796.367188 1500.234375 1805.3125 1491.289062 1805.3125 1480.234375 Z M 1805.3125 1480.234375 " transform="matrix(0.1,0,0,-0.1,0,354)"/>
<path style=" stroke:none;fill-rule:nonzero;fill:rgb(30.200195%,30.200195%,100%);fill-opacity:1;" d="M 189.054688 198.238281 C 189.054688 199.160156 188.722656 199.886719 188.0625 200.414062 C 187.535156 200.808594 186.941406 201.007812 186.28125 201.007812 C 185.492188 201.007812 184.832031 200.675781 184.304688 200.019531 C 184.039062 199.621094 183.910156 199.226562 183.910156 198.828125 C 183.910156 198.433594 184.105469 198.171875 184.503906 198.039062 C 184.898438 198.039062 185.097656 198.171875 185.097656 198.433594 C 185.226562 198.566406 185.292969 198.632812 185.292969 198.632812 C 185.292969 198.894531 185.160156 199.09375 184.898438 199.226562 C 184.765625 199.359375 184.632812 199.425781 184.503906 199.425781 C 184.503906 199.425781 184.4375 199.359375 184.304688 199.226562 C 184.4375 199.753906 184.765625 200.148438 185.292969 200.414062 C 185.558594 200.675781 185.886719 200.808594 186.28125 200.808594 C 186.8125 200.808594 187.273438 200.480469 187.667969 199.820312 C 187.800781 199.554688 187.867188 199.027344 187.867188 198.238281 C 187.867188 197.445312 187.800781 196.917969 187.667969 196.652344 C 187.40625 196.125 187.007812 195.863281 186.480469 195.863281 C 185.820312 195.863281 185.292969 196.125 184.898438 196.652344 C 184.898438 196.785156 184.832031 196.851562 184.699219 196.851562 C 184.699219 196.851562 184.632812 196.785156 184.503906 196.652344 L 184.503906 192.695312 C 184.503906 192.5625 184.566406 192.433594 184.699219 192.300781 C 184.699219 192.300781 184.765625 192.367188 184.898438 192.496094 C 185.425781 192.628906 185.953125 192.695312 186.480469 192.695312 C 187.140625 192.695312 187.734375 192.628906 188.261719 192.496094 C 188.261719 192.367188 188.328125 192.300781 188.460938 192.300781 C 188.460938 192.300781 188.460938 192.367188 188.460938 192.496094 C 188.460938 192.628906 188.328125 192.828125 188.0625 193.089844 C 187.535156 193.617188 186.878906 193.882812 186.085938 193.882812 C 185.6875 193.882812 185.292969 193.816406 184.898438 193.683594 L 184.898438 196.058594 C 185.425781 195.664062 186.019531 195.464844 186.679688 195.464844 C 187.339844 195.464844 187.933594 195.796875 188.460938 196.453125 C 188.855469 196.984375 189.054688 197.578125 189.054688 198.238281 "/>
<path style=" stroke:none;fill-rule:nonzero;fill:rgb(0%,0%,0%);fill-opacity:1;" d="M 198.804688 311.277344 L 198.40625 312.859375 C 198.273438 313.519531 198.210938 313.914062 198.210938 314.046875 C 198.210938 314.445312 198.339844 314.707031 198.605469 314.839844 C 198.738281 314.839844 198.867188 314.839844 199 314.839844 C 199.394531 314.839844 199.726562 314.640625 199.988281 314.246094 C 200.253906 313.980469 200.453125 313.652344 200.585938 313.257812 C 200.585938 313.125 200.648438 313.058594 200.78125 313.058594 C 200.914062 313.058594 200.980469 313.125 200.980469 313.257812 C 200.980469 313.386719 200.847656 313.652344 200.585938 314.046875 C 200.054688 314.839844 199.527344 315.234375 199 315.234375 C 198.339844 315.234375 197.878906 314.972656 197.613281 314.445312 C 197.613281 314.3125 197.613281 314.246094 197.613281 314.246094 C 197.351562 314.640625 197.023438 314.90625 196.625 315.035156 C 196.492188 315.167969 196.363281 315.234375 196.230469 315.234375 C 195.703125 315.234375 195.308594 315.035156 195.042969 314.640625 C 195.042969 314.640625 195.042969 314.507812 195.042969 314.246094 C 195.042969 313.980469 195.175781 313.785156 195.4375 313.652344 C 195.570312 313.652344 195.636719 313.652344 195.636719 313.652344 C 195.898438 313.652344 196.097656 313.71875 196.230469 313.847656 C 196.230469 313.980469 196.230469 314.046875 196.230469 314.046875 C 196.230469 314.3125 196.097656 314.507812 195.835938 314.640625 C 195.703125 314.640625 195.636719 314.640625 195.636719 314.640625 C 195.769531 314.773438 195.964844 314.839844 196.230469 314.839844 C 196.625 314.839844 196.957031 314.574219 197.21875 314.046875 C 197.351562 313.914062 197.417969 313.785156 197.417969 313.652344 C 197.8125 311.9375 198.011719 310.882812 198.011719 310.484375 C 198.011719 309.957031 197.8125 309.695312 197.417969 309.695312 C 197.023438 309.695312 196.625 309.957031 196.230469 310.484375 C 196.097656 310.617188 195.964844 310.816406 195.835938 311.078125 C 195.835938 311.078125 195.835938 311.144531 195.835938 311.277344 L 195.636719 311.472656 C 195.503906 311.472656 195.4375 311.472656 195.4375 311.472656 C 195.4375 311.210938 195.570312 310.882812 195.835938 310.484375 C 196.230469 309.824219 196.757812 309.496094 197.417969 309.496094 C 198.078125 309.496094 198.539062 309.824219 198.804688 310.484375 C 199.066406 309.957031 199.394531 309.628906 199.792969 309.496094 C 199.925781 309.496094 200.054688 309.496094 200.1875 309.496094 C 200.714844 309.496094 201.046875 309.628906 201.175781 309.890625 C 201.308594 310.023438 201.375 310.15625 201.375 310.289062 C 201.375 310.683594 201.175781 310.882812 200.78125 310.882812 C 200.78125 311.011719 200.714844 311.078125 200.585938 311.078125 C 200.320312 311.078125 200.1875 310.945312 200.1875 310.683594 C 200.1875 310.683594 200.1875 310.617188 200.1875 310.484375 C 200.1875 310.222656 200.320312 310.023438 200.585938 309.890625 C 200.585938 309.890625 200.648438 309.890625 200.78125 309.890625 C 200.648438 309.761719 200.453125 309.695312 200.1875 309.695312 C 199.527344 309.695312 199.132812 310.15625 199 311.078125 C 198.867188 311.078125 198.804688 311.144531 198.804688 311.277344 "/>
<path style=" stroke:none;fill-rule:nonzero;fill:rgb(0%,0%,0%);fill-opacity:1;" d="M 205.488281 307.730469 L 205.488281 310.222656 C 205.488281 310.40625 205.441406 310.5 205.347656 310.5 C 205.257812 310.5 205.210938 310.40625 205.210938 310.222656 L 205.210938 307.730469 L 202.71875 307.730469 C 202.53125 307.730469 202.441406 307.683594 202.441406 307.589844 C 202.441406 307.5 202.53125 307.453125 202.71875 307.453125 L 205.210938 307.453125 L 205.210938 304.960938 C 205.210938 304.773438 205.257812 304.683594 205.347656 304.683594 C 205.441406 304.683594 205.488281 304.773438 205.488281 304.960938 L 205.488281 307.453125 L 207.980469 307.453125 C 208.164062 307.453125 208.257812 307.5 208.257812 307.589844 C 208.257812 307.683594 208.164062 307.730469 207.980469 307.730469 L 205.488281 307.730469 "/>
<path style=" stroke:none;fill-rule:nonzero;fill:rgb(0%,0%,0%);fill-opacity:1;" d="M 305.4375 49.648438 L 304.25 54.394531 C 303.988281 55.1875 303.523438 55.847656 302.863281 56.375 C 302.339844 56.769531 301.808594 56.96875 301.28125 56.96875 C 300.753906 56.96875 300.359375 56.769531 300.09375 56.375 C 299.964844 56.242188 299.898438 56.113281 299.898438 55.980469 C 299.898438 55.453125 300.09375 55.1875 300.488281 55.1875 C 300.488281 55.054688 300.554688 54.988281 300.6875 54.988281 C 300.953125 54.988281 301.085938 55.121094 301.085938 55.386719 C 301.085938 55.386719 301.085938 55.453125 301.085938 55.585938 C 301.085938 55.714844 301.019531 55.847656 300.886719 55.980469 C 300.753906 56.113281 300.554688 56.179688 300.292969 56.179688 C 300.425781 56.574219 300.753906 56.769531 301.28125 56.769531 C 301.808594 56.769531 302.269531 56.507812 302.667969 55.980469 C 303.0625 55.453125 303.328125 54.859375 303.460938 54.199219 C 303.460938 54.066406 303.460938 54 303.460938 54 C 303.0625 54.394531 302.667969 54.59375 302.269531 54.59375 C 301.613281 54.59375 301.148438 54.332031 300.886719 53.804688 C 300.753906 53.539062 300.6875 53.273438 300.6875 53.011719 C 300.6875 52.617188 300.886719 51.757812 301.28125 50.4375 C 301.28125 50.4375 301.347656 50.4375 301.480469 50.4375 C 301.613281 50.042969 301.679688 49.714844 301.679688 49.449219 C 301.679688 49.1875 301.546875 49.054688 301.28125 49.054688 C 300.886719 49.054688 300.488281 49.449219 300.09375 50.242188 C 300.09375 50.371094 300.09375 50.503906 300.09375 50.636719 C 299.964844 50.769531 299.898438 50.835938 299.898438 50.835938 C 299.765625 50.835938 299.699219 50.835938 299.699219 50.835938 C 299.699219 50.570312 299.765625 50.308594 299.898438 50.042969 C 300.292969 49.25 300.753906 48.855469 301.28125 48.855469 C 301.808594 48.855469 302.140625 49.054688 302.269531 49.449219 C 302.402344 49.582031 302.46875 49.714844 302.46875 49.84375 C 302.46875 49.976562 302.339844 50.308594 302.074219 50.835938 C 301.679688 51.890625 301.480469 52.683594 301.480469 53.210938 C 301.480469 53.867188 301.742188 54.199219 302.269531 54.199219 C 302.800781 54.199219 303.195312 53.933594 303.460938 53.40625 C 303.589844 53.273438 303.65625 53.210938 303.65625 53.210938 L 304.25 50.835938 C 304.382812 50.570312 304.449219 50.242188 304.449219 49.84375 C 304.578125 49.449219 304.644531 49.25 304.644531 49.25 C 304.777344 48.988281 304.976562 48.855469 305.238281 48.855469 C 305.371094 48.988281 305.4375 49.121094 305.4375 49.25 C 305.4375 49.382812 305.4375 49.515625 305.4375 49.648438 "/>
<path style=" stroke:none;fill-rule:nonzero;fill:rgb(0%,0%,0%);fill-opacity:1;" d="M 309.570312 47.089844 L 309.570312 49.582031 C 309.570312 49.769531 309.523438 49.859375 309.429688 49.859375 C 309.339844 49.859375 309.292969 49.769531 309.292969 49.582031 L 309.292969 47.089844 L 306.796875 47.089844 C 306.613281 47.089844 306.519531 47.042969 306.519531 46.949219 C 306.519531 46.859375 306.613281 46.8125 306.796875 46.8125 L 309.292969 46.8125 L 309.292969 44.320312 C 309.292969 44.132812 309.339844 44.042969 309.429688 44.042969 C 309.523438 44.042969 309.570312 44.132812 309.570312 44.320312 L 309.570312 46.8125 L 312.0625 46.8125 C 312.246094 46.8125 312.339844 46.859375 312.339844 46.949219 C 312.339844 47.042969 312.246094 47.089844 312.0625 47.089844 L 309.570312 47.089844 "/>
<path style=" stroke:none;fill-rule:nonzero;fill:rgb(0%,0%,0%);fill-opacity:1;" d="M 229.195312 110.636719 L 228.601562 114.792969 C 228.46875 115.320312 228.273438 115.914062 228.007812 116.574219 C 228.007812 116.839844 227.941406 117.035156 227.808594 117.167969 C 227.546875 117.828125 227.152344 118.222656 226.621094 118.355469 C 226.621094 118.355469 226.558594 118.355469 226.425781 118.355469 C 226.027344 118.355469 225.699219 118.222656 225.4375 117.960938 C 225.304688 117.828125 225.238281 117.695312 225.238281 117.5625 C 225.238281 117.167969 225.4375 116.90625 225.832031 116.773438 C 225.832031 116.773438 225.898438 116.773438 226.027344 116.773438 C 226.292969 116.773438 226.425781 116.839844 226.425781 116.972656 C 226.425781 117.101562 226.425781 117.167969 226.425781 117.167969 C 226.425781 117.433594 226.292969 117.628906 226.027344 117.761719 C 226.027344 117.761719 225.964844 117.828125 225.832031 117.960938 C 225.964844 118.09375 226.160156 118.15625 226.425781 118.15625 C 226.820312 118.15625 227.085938 117.695312 227.214844 116.773438 C 227.347656 116.640625 227.414062 116.441406 227.414062 116.179688 L 227.414062 115.78125 L 228.402344 110.636719 L 227.613281 110.636719 C 227.347656 110.636719 227.214844 110.636719 227.214844 110.636719 C 227.214844 110.507812 227.28125 110.375 227.414062 110.242188 L 228.601562 110.242188 C 228.734375 109.1875 228.867188 108.527344 228.996094 108.261719 C 229.261719 107.472656 229.65625 107.011719 230.183594 106.878906 C 230.316406 106.878906 230.449219 106.878906 230.582031 106.878906 C 230.976562 106.878906 231.304688 107.011719 231.570312 107.273438 C 231.570312 107.40625 231.570312 107.535156 231.570312 107.671875 C 231.570312 108.066406 231.4375 108.328125 231.175781 108.460938 C 231.175781 108.460938 231.109375 108.460938 230.976562 108.460938 C 230.714844 108.460938 230.582031 108.394531 230.582031 108.261719 C 230.449219 108.132812 230.382812 108.066406 230.382812 108.066406 C 230.382812 107.800781 230.515625 107.605469 230.777344 107.472656 C 230.910156 107.472656 231.042969 107.40625 231.175781 107.273438 C 231.042969 107.140625 230.84375 107.074219 230.582031 107.074219 C 230.316406 107.074219 230.117188 107.207031 229.988281 107.472656 C 229.855469 107.605469 229.722656 108.066406 229.589844 108.855469 L 229.394531 110.242188 L 230.382812 110.242188 C 230.648438 110.242188 230.777344 110.308594 230.777344 110.441406 C 230.777344 110.570312 230.714844 110.636719 230.582031 110.636719 L 229.195312 110.636719 "/>
<path style=" stroke:none;fill-rule:nonzero;fill:rgb(0%,0%,0%);fill-opacity:1;" d="M 236.363281 118.753906 C 236.363281 118.882812 236.363281 118.949219 236.363281 118.949219 C 236.230469 118.949219 235.96875 118.753906 235.570312 118.355469 C 235.046875 117.828125 234.648438 117.234375 234.386719 116.574219 C 233.726562 115.386719 233.394531 114.066406 233.394531 112.617188 C 233.394531 111.164062 233.660156 109.847656 234.1875 108.660156 C 234.714844 107.734375 235.308594 107.011719 235.96875 106.480469 C 236.101562 106.351562 236.230469 106.285156 236.363281 106.285156 C 236.363281 106.285156 236.363281 106.351562 236.363281 106.480469 C 236.363281 106.480469 236.296875 106.546875 236.164062 106.679688 C 234.847656 108 234.1875 109.980469 234.1875 112.617188 C 234.1875 115.253906 234.847656 117.234375 236.164062 118.554688 C 236.296875 118.6875 236.363281 118.753906 236.363281 118.753906 "/>
<path style=" stroke:none;fill-rule:nonzero;fill:rgb(0%,0%,0%);fill-opacity:1;" d="M 241.289062 112.023438 L 240.894531 113.605469 C 240.761719 114.265625 240.695312 114.660156 240.695312 114.792969 C 240.695312 115.191406 240.828125 115.453125 241.089844 115.585938 C 241.222656 115.585938 241.355469 115.585938 241.488281 115.585938 C 241.882812 115.585938 242.214844 115.386719 242.476562 114.992188 C 242.742188 114.726562 242.9375 114.398438 243.070312 114.003906 C 243.070312 113.871094 243.136719 113.804688 243.269531 113.804688 C 243.398438 113.804688 243.464844 113.871094 243.464844 114.003906 C 243.464844 114.132812 243.335938 114.398438 243.070312 114.792969 C 242.542969 115.585938 242.015625 115.980469 241.488281 115.980469 C 240.828125 115.980469 240.367188 115.71875 240.101562 115.191406 C 240.101562 115.058594 240.101562 114.992188 240.101562 114.992188 C 239.839844 115.386719 239.507812 115.652344 239.113281 115.78125 C 238.980469 115.914062 238.847656 115.980469 238.71875 115.980469 C 238.1875 115.980469 237.792969 115.78125 237.527344 115.386719 C 237.527344 115.386719 237.527344 115.253906 237.527344 114.992188 C 237.527344 114.726562 237.660156 114.53125 237.925781 114.398438 C 238.058594 114.398438 238.121094 114.398438 238.121094 114.398438 C 238.386719 114.398438 238.585938 114.464844 238.71875 114.597656 C 238.71875 114.726562 238.71875 114.792969 238.71875 114.792969 C 238.71875 115.058594 238.585938 115.253906 238.320312 115.386719 C 238.1875 115.386719 238.121094 115.386719 238.121094 115.386719 C 238.253906 115.519531 238.453125 115.585938 238.71875 115.585938 C 239.113281 115.585938 239.441406 115.320312 239.707031 114.792969 C 239.839844 114.660156 239.902344 114.53125 239.902344 114.398438 C 240.300781 112.683594 240.496094 111.628906 240.496094 111.230469 C 240.496094 110.703125 240.300781 110.441406 239.902344 110.441406 C 239.507812 110.441406 239.113281 110.703125 238.71875 111.230469 C 238.585938 111.363281 238.453125 111.5625 238.320312 111.824219 C 238.320312 111.824219 238.320312 111.890625 238.320312 112.023438 L 238.121094 112.222656 C 237.992188 112.222656 237.925781 112.222656 237.925781 112.222656 C 237.925781 111.957031 238.058594 111.628906 238.320312 111.230469 C 238.71875 110.570312 239.246094 110.242188 239.902344 110.242188 C 240.5625 110.242188 241.023438 110.570312 241.289062 111.230469 C 241.554688 110.703125 241.882812 110.375 242.277344 110.242188 C 242.410156 110.242188 242.542969 110.242188 242.675781 110.242188 C 243.203125 110.242188 243.53125 110.375 243.664062 110.636719 C 243.796875 110.769531 243.863281 110.902344 243.863281 111.035156 C 243.863281 111.429688 243.664062 111.628906 243.269531 111.628906 C 243.269531 111.757812 243.203125 111.824219 243.070312 111.824219 C 242.808594 111.824219 242.675781 111.691406 242.675781 111.429688 C 242.675781 111.429688 242.675781 111.363281 242.675781 111.230469 C 242.675781 110.96875 242.808594 110.769531 243.070312 110.636719 C 243.070312 110.636719 243.136719 110.636719 243.269531 110.636719 C 243.136719 110.507812 242.9375 110.441406 242.675781 110.441406 C 242.015625 110.441406 241.617188 110.902344 241.488281 111.824219 C 241.355469 111.824219 241.289062 111.890625 241.289062 112.023438 "/>
<path style=" stroke:none;fill-rule:nonzero;fill:rgb(0%,0%,0%);fill-opacity:1;" d="M 247.933594 112.617188 C 247.933594 114.066406 247.671875 115.386719 247.144531 116.574219 C 246.746094 117.496094 246.21875 118.222656 245.558594 118.753906 C 245.425781 118.882812 245.296875 118.949219 245.164062 118.949219 C 245.164062 118.949219 245.164062 118.882812 245.164062 118.753906 C 245.164062 118.753906 245.164062 118.6875 245.164062 118.554688 C 246.613281 117.234375 247.339844 115.253906 247.339844 112.617188 C 247.339844 109.980469 246.679688 108 245.363281 106.679688 C 245.230469 106.546875 245.164062 106.480469 245.164062 106.480469 C 245.164062 106.351562 245.164062 106.285156 245.164062 106.285156 C 245.296875 106.285156 245.558594 106.480469 245.953125 106.878906 C 246.484375 107.40625 246.878906 108 247.144531 108.660156 C 247.671875 109.847656 247.933594 111.164062 247.933594 112.617188 "/>
<path style=" stroke:none;fill-rule:nonzero;fill:rgb(0%,0%,0%);fill-opacity:1;" d="M 261.523438 111.628906 L 254.003906 111.628906 C 253.738281 111.628906 253.605469 111.5625 253.605469 111.429688 C 253.605469 111.296875 253.738281 111.230469 254.003906 111.230469 L 261.523438 111.230469 C 261.785156 111.230469 261.917969 111.296875 261.917969 111.429688 C 261.917969 111.5625 261.785156 111.628906 261.523438 111.628906 Z M 261.523438 114.003906 L 254.003906 114.003906 C 253.738281 114.003906 253.605469 113.9375 253.605469 113.804688 C 253.605469 113.671875 253.738281 113.605469 254.003906 113.605469 L 261.523438 113.605469 C 261.785156 113.605469 261.917969 113.671875 261.917969 113.804688 C 261.917969 113.9375 261.785156 114.003906 261.523438 114.003906 "/>
<path style=" stroke:none;fill-rule:nonzero;fill:rgb(0%,0%,0%);fill-opacity:1;" d="M 271.527344 118.980469 L 268.757812 112.449219 L 267.769531 113.042969 L 267.570312 112.847656 L 269.351562 111.460938 L 272.121094 117.59375 L 278.652344 103.941406 C 278.652344 103.808594 278.71875 103.742188 278.851562 103.742188 C 278.980469 103.742188 279.046875 103.773438 279.046875 103.839844 C 279.046875 103.90625 279.046875 104.007812 279.046875 104.136719 L 272.121094 118.980469 C 271.988281 118.980469 271.925781 118.980469 271.925781 118.980469 L 271.527344 118.980469 "/>
<path style=" stroke:none;fill-rule:nonzero;fill:rgb(0%,0%,0%);fill-opacity:1;" d="M 278.851562 104.335938 L 345.035156 104.335938 L 345.035156 103.828125 L 278.851562 103.828125 Z M 278.851562 104.335938 "/>
<path style=" stroke:none;fill-rule:nonzero;fill:rgb(0%,0%,0%);fill-opacity:1;" d="M 283.402344 111.824219 C 283.136719 112.617188 282.609375 113.011719 281.820312 113.011719 C 281.160156 113.011719 280.566406 112.683594 280.039062 112.023438 C 279.640625 111.496094 279.445312 110.867188 279.445312 110.144531 C 279.445312 109.417969 279.640625 108.789062 280.039062 108.261719 L 280.234375 108.066406 C 280.761719 107.535156 281.355469 107.273438 282.015625 107.273438 C 282.941406 107.273438 283.601562 107.734375 283.996094 108.660156 C 284.390625 109.320312 284.589844 110.308594 284.589844 111.628906 C 284.589844 113.078125 284.191406 114.199219 283.402344 114.992188 C 282.875 115.652344 282.214844 115.980469 281.421875 115.980469 C 280.632812 115.980469 280.105469 115.78125 279.839844 115.386719 C 279.707031 115.125 279.640625 114.859375 279.640625 114.597656 C 279.640625 114.332031 279.839844 114.132812 280.234375 114.003906 C 280.5 114.003906 280.695312 114.132812 280.828125 114.398438 C 280.828125 114.53125 280.828125 114.597656 280.828125 114.597656 C 280.828125 114.992188 280.695312 115.191406 280.433594 115.191406 C 280.300781 115.191406 280.234375 115.191406 280.234375 115.191406 C 280.5 115.585938 280.894531 115.78125 281.421875 115.78125 C 282.082031 115.78125 282.609375 115.453125 283.007812 114.792969 C 283.269531 114.132812 283.402344 113.277344 283.402344 112.222656 Z M 282.015625 112.816406 C 282.675781 112.816406 283.136719 112.417969 283.402344 111.628906 C 283.402344 111.230469 283.402344 110.835938 283.402344 110.441406 C 283.402344 109.648438 283.335938 109.054688 283.203125 108.660156 C 283.070312 108.132812 282.742188 107.800781 282.214844 107.671875 C 282.214844 107.671875 282.148438 107.671875 282.015625 107.671875 C 281.488281 107.671875 281.09375 107.933594 280.828125 108.460938 C 280.566406 108.726562 280.433594 109.253906 280.433594 110.046875 L 280.433594 110.242188 C 280.433594 111.035156 280.566406 111.628906 280.828125 112.023438 C 281.09375 112.550781 281.488281 112.816406 282.015625 112.816406 "/>
<path style=" stroke:none;fill-rule:nonzero;fill:rgb(0%,0%,0%);fill-opacity:1;" d="M 296.308594 112.816406 L 289.382812 112.816406 C 289.117188 112.816406 288.988281 112.75 288.988281 112.617188 C 288.988281 112.484375 289.117188 112.417969 289.382812 112.417969 L 296.308594 112.417969 C 296.574219 112.417969 296.703125 112.484375 296.703125 112.617188 C 296.703125 112.75 296.574219 112.816406 296.308594 112.816406 "/>
<path style=" stroke:none;fill-rule:nonzero;fill:rgb(0%,0%,0%);fill-opacity:1;" d="M 304.820312 118.753906 C 304.820312 118.882812 304.820312 118.949219 304.820312 118.949219 C 304.6875 118.949219 304.421875 118.753906 304.027344 118.355469 C 303.5 117.828125 303.105469 117.234375 302.839844 116.574219 C 302.179688 115.386719 301.851562 114.066406 301.851562 112.617188 C 301.851562 111.164062 302.113281 109.847656 302.640625 108.660156 C 303.171875 107.734375 303.761719 107.011719 304.421875 106.480469 C 304.554688 106.351562 304.6875 106.285156 304.820312 106.285156 C 304.820312 106.285156 304.820312 106.351562 304.820312 106.480469 C 304.820312 106.480469 304.753906 106.546875 304.621094 106.679688 C 303.300781 108 302.640625 109.980469 302.640625 112.617188 C 302.640625 115.253906 303.300781 117.234375 304.621094 118.554688 C 304.753906 118.6875 304.820312 118.753906 304.820312 118.753906 "/>
<path style=" stroke:none;fill-rule:nonzero;fill:rgb(0%,0%,0%);fill-opacity:1;" d="M 309.742188 112.023438 L 309.347656 113.605469 C 309.214844 114.265625 309.148438 114.660156 309.148438 114.792969 C 309.148438 115.191406 309.28125 115.453125 309.546875 115.585938 C 309.679688 115.585938 309.808594 115.585938 309.941406 115.585938 C 310.339844 115.585938 310.667969 115.386719 310.933594 114.992188 C 311.195312 114.726562 311.394531 114.398438 311.523438 114.003906 C 311.523438 113.871094 311.589844 113.804688 311.722656 113.804688 C 311.855469 113.804688 311.921875 113.871094 311.921875 114.003906 C 311.921875 114.132812 311.789062 114.398438 311.523438 114.792969 C 310.996094 115.585938 310.46875 115.980469 309.941406 115.980469 C 309.28125 115.980469 308.820312 115.71875 308.558594 115.191406 C 308.558594 115.058594 308.558594 114.992188 308.558594 114.992188 C 308.292969 115.386719 307.964844 115.652344 307.566406 115.78125 C 307.433594 115.914062 307.304688 115.980469 307.171875 115.980469 C 306.644531 115.980469 306.246094 115.78125 305.984375 115.386719 C 305.984375 115.386719 305.984375 115.253906 305.984375 114.992188 C 305.984375 114.726562 306.117188 114.53125 306.378906 114.398438 C 306.511719 114.398438 306.578125 114.398438 306.578125 114.398438 C 306.84375 114.398438 307.039062 114.464844 307.171875 114.597656 C 307.171875 114.726562 307.171875 114.792969 307.171875 114.792969 C 307.171875 115.058594 307.039062 115.253906 306.777344 115.386719 C 306.644531 115.386719 306.578125 115.386719 306.578125 115.386719 C 306.710938 115.519531 306.90625 115.585938 307.171875 115.585938 C 307.566406 115.585938 307.898438 115.320312 308.160156 114.792969 C 308.292969 114.660156 308.359375 114.53125 308.359375 114.398438 C 308.753906 112.683594 308.953125 111.628906 308.953125 111.230469 C 308.953125 110.703125 308.753906 110.441406 308.359375 110.441406 C 307.964844 110.441406 307.566406 110.703125 307.171875 111.230469 C 307.039062 111.363281 306.90625 111.5625 306.777344 111.824219 C 306.777344 111.824219 306.777344 111.890625 306.777344 112.023438 L 306.578125 112.222656 C 306.445312 112.222656 306.378906 112.222656 306.378906 112.222656 C 306.378906 111.957031 306.511719 111.628906 306.777344 111.230469 C 307.171875 110.570312 307.699219 110.242188 308.359375 110.242188 C 309.019531 110.242188 309.480469 110.570312 309.742188 111.230469 C 310.007812 110.703125 310.339844 110.375 310.734375 110.242188 C 310.867188 110.242188 310.996094 110.242188 311.128906 110.242188 C 311.65625 110.242188 311.988281 110.375 312.117188 110.636719 C 312.25 110.769531 312.316406 110.902344 312.316406 111.035156 C 312.316406 111.429688 312.117188 111.628906 311.722656 111.628906 C 311.722656 111.757812 311.65625 111.824219 311.523438 111.824219 C 311.261719 111.824219 311.128906 111.691406 311.128906 111.429688 C 311.128906 111.429688 311.128906 111.363281 311.128906 111.230469 C 311.128906 110.96875 311.261719 110.769531 311.523438 110.636719 C 311.523438 110.636719 311.589844 110.636719 311.722656 110.636719 C 311.589844 110.507812 311.394531 110.441406 311.128906 110.441406 C 310.46875 110.441406 310.074219 110.902344 309.941406 111.824219 C 309.808594 111.824219 309.742188 111.890625 309.742188 112.023438 "/>
<path style=" stroke:none;fill-rule:nonzero;fill:rgb(0%,0%,0%);fill-opacity:1;" d="M 323.953125 112.816406 L 317.027344 112.816406 C 316.761719 112.816406 316.632812 112.75 316.632812 112.617188 C 316.632812 112.484375 316.761719 112.417969 317.027344 112.417969 L 323.953125 112.417969 C 324.21875 112.417969 324.347656 112.484375 324.347656 112.617188 C 324.347656 112.75 324.21875 112.816406 323.953125 112.816406 "/>
<path style=" stroke:none;fill-rule:nonzero;fill:rgb(0%,0%,0%);fill-opacity:1;" d="M 334.046875 113.210938 C 334.046875 114.132812 333.714844 114.859375 333.054688 115.386719 C 332.527344 115.78125 331.933594 115.980469 331.273438 115.980469 C 330.484375 115.980469 329.824219 115.652344 329.296875 114.992188 C 329.03125 114.597656 328.902344 114.199219 328.902344 113.804688 C 328.902344 113.410156 329.097656 113.144531 329.492188 113.011719 C 329.890625 113.011719 330.089844 113.144531 330.089844 113.410156 C 330.21875 113.539062 330.285156 113.605469 330.285156 113.605469 C 330.285156 113.871094 330.152344 114.066406 329.890625 114.199219 C 329.757812 114.332031 329.625 114.398438 329.492188 114.398438 C 329.492188 114.398438 329.429688 114.332031 329.296875 114.199219 C 329.429688 114.726562 329.757812 115.125 330.285156 115.386719 C 330.550781 115.652344 330.878906 115.78125 331.273438 115.78125 C 331.804688 115.78125 332.265625 115.453125 332.660156 114.792969 C 332.792969 114.53125 332.859375 114.003906 332.859375 113.210938 C 332.859375 112.417969 332.792969 111.890625 332.660156 111.628906 C 332.398438 111.101562 332 110.835938 331.472656 110.835938 C 330.8125 110.835938 330.285156 111.101562 329.890625 111.628906 C 329.890625 111.757812 329.824219 111.824219 329.691406 111.824219 C 329.691406 111.824219 329.625 111.757812 329.492188 111.628906 L 329.492188 107.671875 C 329.492188 107.535156 329.558594 107.40625 329.691406 107.273438 C 329.691406 107.273438 329.757812 107.339844 329.890625 107.472656 C 330.417969 107.605469 330.945312 107.671875 331.472656 107.671875 C 332.132812 107.671875 332.726562 107.605469 333.253906 107.472656 C 333.253906 107.339844 333.320312 107.273438 333.453125 107.273438 C 333.453125 107.273438 333.453125 107.339844 333.453125 107.472656 C 333.453125 107.605469 333.320312 107.800781 333.054688 108.066406 C 332.527344 108.59375 331.867188 108.855469 331.078125 108.855469 C 330.683594 108.855469 330.285156 108.789062 329.890625 108.660156 L 329.890625 111.035156 C 330.417969 110.636719 331.011719 110.441406 331.671875 110.441406 C 332.332031 110.441406 332.925781 110.769531 333.453125 111.429688 C 333.847656 111.957031 334.046875 112.550781 334.046875 113.210938 "/>
<path style=" stroke:none;fill-rule:nonzero;fill:rgb(0%,0%,0%);fill-opacity:1;" d="M 338.203125 112.617188 C 338.203125 114.066406 337.9375 115.386719 337.410156 116.574219 C 337.015625 117.496094 336.488281 118.222656 335.828125 118.753906 C 335.695312 118.882812 335.5625 118.949219 335.429688 118.949219 C 335.429688 118.949219 335.429688 118.882812 335.429688 118.753906 C 335.429688 118.753906 335.429688 118.6875 335.429688 118.554688 C 336.882812 117.234375 337.609375 115.253906 337.609375 112.617188 C 337.609375 109.980469 336.949219 108 335.628906 106.679688 C 335.496094 106.546875 335.429688 106.480469 335.429688 106.480469 C 335.429688 106.351562 335.429688 106.285156 335.429688 106.285156 C 335.5625 106.285156 335.828125 106.480469 336.222656 106.878906 C 336.75 107.40625 337.144531 108 337.410156 108.660156 C 337.9375 109.847656 338.203125 111.164062 338.203125 112.617188 "/>
<path style=" stroke:none;fill-rule:nonzero;fill:rgb(0%,0%,0%);fill-opacity:1;" d="M 343.582031 110.601562 L 343.304688 112.125 L 339.980469 112.125 C 339.980469 111.941406 340.027344 111.847656 340.117188 111.847656 L 341.78125 109.90625 C 342.429688 109.167969 342.75 108.523438 342.75 107.96875 C 342.75 107.414062 342.566406 107 342.195312 106.722656 C 342.011719 106.535156 341.78125 106.445312 341.503906 106.445312 C 341.136719 106.445312 340.8125 106.628906 340.535156 107 C 340.441406 107.089844 340.394531 107.230469 340.394531 107.414062 C 340.394531 107.414062 340.441406 107.414062 340.535156 107.414062 C 340.71875 107.414062 340.859375 107.507812 340.949219 107.691406 C 340.949219 107.785156 340.949219 107.828125 340.949219 107.828125 C 340.949219 108.105469 340.8125 108.246094 340.535156 108.246094 C 340.535156 108.339844 340.535156 108.382812 340.535156 108.382812 C 340.257812 108.382812 340.074219 108.292969 339.980469 108.105469 C 339.980469 108.015625 339.980469 107.921875 339.980469 107.828125 C 339.980469 107.367188 340.164062 107 340.535156 106.722656 C 340.8125 106.351562 341.179688 106.167969 341.644531 106.167969 C 342.289062 106.167969 342.796875 106.398438 343.167969 106.859375 C 343.351562 107.136719 343.488281 107.460938 343.582031 107.828125 C 343.582031 107.828125 343.582031 107.875 343.582031 107.96875 C 343.582031 108.339844 343.398438 108.753906 343.027344 109.214844 C 342.84375 109.398438 342.566406 109.632812 342.195312 109.90625 L 341.78125 110.460938 L 341.644531 110.460938 L 340.671875 111.433594 L 342.335938 111.433594 C 342.796875 111.433594 343.074219 111.433594 343.167969 111.433594 C 343.167969 111.339844 343.214844 111.0625 343.304688 110.601562 L 343.582031 110.601562 "/>
</g>
</svg>
