<?xml version="1.0" encoding="UTF-8"?>
<svg xmlns="http://www.w3.org/2000/svg" xmlns:xlink="http://www.w3.org/1999/xlink" width="235pt" height="123pt" viewBox="0 0 235 123" version="1.1">
<g id="surface1">
<rect x="0" y="0" width="235" height="123" style="fill:rgb(100%,100%,100%);fill-opacity:1;stroke:none;"/>
<path style="fill:none;stroke-width:10;stroke-linecap:butt;stroke-linejoin:miter;stroke:rgb(0%,0%,0%);stroke-opacity:1;stroke-miterlimit:10;" d="M 571.132812 1226.210938 L 571.132812 -8.710938 " transform="matrix(0.1,0,0,-0.1,0,123)"/>
<path style="fill:none;stroke-width:10;stroke-linecap:butt;stroke-linejoin:miter;stroke:rgb(0%,0%,0%);stroke-opacity:1;stroke-miterlimit:10;" d="M 571.132812 1228.125 L 559.765625 1216.757812 " transform="matrix(0.1,0,0,-0.1,0,123)"/>
<path style="fill:none;stroke-width:10;stroke-linecap:butt;stroke-linejoin:miter;stroke:rgb(0%,0%,0%);stroke-opacity:1;stroke-miterlimit:10;" d="M 571.132812 1228.125 L 582.460938 1216.757812 " transform="matrix(0.1,0,0,-0.1,0,123)"/>
<path style="fill:none;stroke-width:10;stroke-linecap:butt;stroke-linejoin:miter;stroke:rgb(0%,0%,0%);stroke-opacity:1;stroke-miterlimit:10;" d="M 4.21875 501.914062 L 4.21875 496.210938 " transform="matrix(0.1,0,0,-0.1,0,123)"/>
<path style="fill:none;stroke-width:10;stroke-linecap:butt;stroke-linejoin:miter;stroke:rgb(0%,0%,0%);stroke-opacity:1;stroke-miterlimit:10;" d="M 0 501.914062 L 2354.492188 501.914062 " transform="matrix(0.1,0,0,-0.1,0,123)"/>
<path style="fill:none;stroke-width:10;stroke-linecap:butt;stroke-linejoin:miter;stroke:rgb(0%,0%,0%);stroke-opacity:1;stroke-miterlimit:10;" d="M 2356.40625 501.914062 L 2345.039062 513.242188 " transform="matrix(0.1,0,0,-0.1,0,123)"/>
<path style="fill:none;stroke-width:10;stroke-linecap:butt;stroke-linejoin:miter;stroke:rgb(0%,0%,0%);stroke-opacity:1;stroke-miterlimit:10;" d="M 2356.40625 501.914062 L 2345.039062 490.546875 " transform="matrix(0.1,0,0,-0.1,0,123)"/>
<path style=" stroke:none;fill-rule:nonzero;fill:rgb(0%,0%,0%);fill-opacity:1;" d="M 27.40625 75.878906 L 27.40625 75.652344 L 28.761719 75.652344 L 28.761719 75.878906 Z M 30.203125 76.78125 L 29.902344 76.78125 L 29.902344 74.875 C 29.832031 74.945312 29.738281 75.011719 29.621094 75.082031 C 29.503906 75.148438 29.398438 75.199219 29.304688 75.234375 L 29.304688 74.945312 C 29.472656 74.867188 29.617188 74.773438 29.746094 74.660156 C 29.871094 74.546875 29.960938 74.4375 30.011719 74.335938 L 30.203125 74.335938 L 30.203125 76.78125 "/>
<path style="fill:none;stroke-width:10;stroke-linecap:butt;stroke-linejoin:miter;stroke:rgb(0%,0%,0%);stroke-opacity:1;stroke-miterlimit:10;" d="M 287.65625 501.914062 L 287.65625 496.210938 " transform="matrix(0.1,0,0,-0.1,0,123)"/>
<path style=" stroke:none;fill-rule:nonzero;fill:rgb(0%,0%,0%);fill-opacity:1;" d="M 58.199219 75.578125 C 58.199219 75.289062 58.230469 75.058594 58.289062 74.882812 C 58.347656 74.710938 58.4375 74.574219 58.554688 74.476562 C 58.671875 74.382812 58.820312 74.335938 58.996094 74.335938 C 59.125 74.335938 59.238281 74.359375 59.339844 74.414062 C 59.4375 74.464844 59.519531 74.539062 59.582031 74.640625 C 59.644531 74.738281 59.695312 74.859375 59.734375 75.003906 C 59.773438 75.148438 59.789062 75.339844 59.789062 75.578125 C 59.789062 75.863281 59.761719 76.09375 59.703125 76.273438 C 59.644531 76.449219 59.554688 76.585938 59.4375 76.679688 C 59.320312 76.773438 59.171875 76.824219 58.996094 76.824219 C 58.757812 76.824219 58.574219 76.738281 58.441406 76.570312 C 58.28125 76.367188 58.199219 76.039062 58.199219 75.578125 Z M 58.507812 75.578125 C 58.507812 75.976562 58.554688 76.246094 58.648438 76.378906 C 58.742188 76.511719 58.855469 76.578125 58.996094 76.578125 C 59.132812 76.578125 59.246094 76.511719 59.339844 76.378906 C 59.4375 76.246094 59.484375 75.976562 59.484375 75.578125 C 59.484375 75.179688 59.4375 74.914062 59.339844 74.78125 C 59.246094 74.648438 59.128906 74.582031 58.992188 74.582031 C 58.855469 74.582031 58.742188 74.640625 58.660156 74.757812 C 58.558594 74.90625 58.507812 75.179688 58.507812 75.578125 "/>
<path style=" stroke:none;fill-rule:nonzero;fill:rgb(0%,0%,0%);fill-opacity:1;" d="M 85.992188 76.78125 L 85.695312 76.78125 L 85.695312 74.875 C 85.621094 74.945312 85.527344 75.011719 85.410156 75.082031 C 85.292969 75.148438 85.1875 75.199219 85.09375 75.234375 L 85.09375 74.945312 C 85.261719 74.867188 85.40625 74.773438 85.535156 74.660156 C 85.660156 74.546875 85.75 74.4375 85.800781 74.335938 L 85.992188 74.335938 L 85.992188 76.78125 "/>
<path style="fill:none;stroke-width:10;stroke-linecap:butt;stroke-linejoin:miter;stroke:rgb(0%,0%,0%);stroke-opacity:1;stroke-miterlimit:10;" d="M 854.609375 501.914062 L 854.609375 496.210938 " transform="matrix(0.1,0,0,-0.1,0,123)"/>
<path style=" stroke:none;fill-rule:nonzero;fill:rgb(0%,0%,0%);fill-opacity:1;" d="M 114.804688 76.496094 L 114.804688 76.78125 L 113.195312 76.78125 C 113.191406 76.707031 113.203125 76.640625 113.230469 76.574219 C 113.273438 76.464844 113.339844 76.355469 113.425781 76.25 C 113.515625 76.144531 113.648438 76.019531 113.820312 75.878906 C 114.082031 75.664062 114.261719 75.492188 114.355469 75.363281 C 114.449219 75.238281 114.496094 75.117188 114.496094 75.003906 C 114.496094 74.886719 114.453125 74.785156 114.367188 74.703125 C 114.285156 74.621094 114.171875 74.582031 114.035156 74.582031 C 113.890625 74.582031 113.777344 74.625 113.691406 74.714844 C 113.605469 74.800781 113.5625 74.917969 113.558594 75.070312 L 113.25 75.039062 C 113.273438 74.808594 113.351562 74.636719 113.488281 74.515625 C 113.625 74.394531 113.8125 74.335938 114.042969 74.335938 C 114.277344 74.335938 114.460938 74.398438 114.597656 74.53125 C 114.734375 74.660156 114.804688 74.820312 114.804688 75.011719 C 114.804688 75.109375 114.78125 75.203125 114.742188 75.296875 C 114.703125 75.394531 114.636719 75.492188 114.542969 75.597656 C 114.449219 75.699219 114.296875 75.84375 114.082031 76.023438 C 113.902344 76.175781 113.785156 76.277344 113.734375 76.332031 C 113.683594 76.386719 113.644531 76.441406 113.613281 76.496094 L 114.804688 76.496094 "/>
<path style="fill:none;stroke-width:10;stroke-linecap:butt;stroke-linejoin:miter;stroke:rgb(0%,0%,0%);stroke-opacity:1;stroke-miterlimit:10;" d="M 1138.046875 501.914062 L 1138.046875 496.210938 " transform="matrix(0.1,0,0,-0.1,0,123)"/>
<path style=" stroke:none;fill-rule:nonzero;fill:rgb(0%,0%,0%);fill-opacity:1;" d="M 141.601562 76.136719 L 141.902344 76.097656 C 141.9375 76.269531 141.992188 76.390625 142.078125 76.464844 C 142.160156 76.539062 142.261719 76.578125 142.378906 76.578125 C 142.519531 76.578125 142.640625 76.527344 142.734375 76.429688 C 142.832031 76.332031 142.878906 76.214844 142.878906 76.070312 C 142.878906 75.929688 142.835938 75.816406 142.746094 75.726562 C 142.65625 75.636719 142.542969 75.59375 142.40625 75.59375 C 142.347656 75.59375 142.277344 75.605469 142.191406 75.628906 L 142.226562 75.367188 C 142.242188 75.367188 142.261719 75.367188 142.273438 75.367188 C 142.402344 75.367188 142.515625 75.335938 142.617188 75.269531 C 142.71875 75.203125 142.769531 75.097656 142.769531 74.960938 C 142.769531 74.851562 142.734375 74.761719 142.660156 74.6875 C 142.585938 74.617188 142.488281 74.578125 142.371094 74.578125 C 142.257812 74.578125 142.160156 74.617188 142.082031 74.6875 C 142.003906 74.761719 141.953125 74.871094 141.933594 75.019531 L 141.632812 74.96875 C 141.667969 74.765625 141.753906 74.609375 141.882812 74.5 C 142.011719 74.390625 142.171875 74.335938 142.367188 74.335938 C 142.496094 74.335938 142.621094 74.363281 142.734375 74.421875 C 142.84375 74.476562 142.929688 74.554688 142.988281 74.652344 C 143.050781 74.753906 143.078125 74.855469 143.078125 74.96875 C 143.078125 75.074219 143.050781 75.167969 142.992188 75.253906 C 142.9375 75.339844 142.855469 75.410156 142.742188 75.460938 C 142.886719 75.492188 142.996094 75.5625 143.078125 75.667969 C 143.15625 75.773438 143.195312 75.90625 143.195312 76.058594 C 143.195312 76.273438 143.117188 76.453125 142.964844 76.601562 C 142.808594 76.75 142.613281 76.824219 142.378906 76.824219 C 142.164062 76.824219 141.984375 76.761719 141.84375 76.632812 C 141.703125 76.503906 141.621094 76.339844 141.601562 76.136719 "/>
<path style="fill:none;stroke-width:10;stroke-linecap:butt;stroke-linejoin:miter;stroke:rgb(0%,0%,0%);stroke-opacity:1;stroke-miterlimit:10;" d="M 1421.523438 501.914062 L 1421.523438 496.210938 " transform="matrix(0.1,0,0,-0.1,0,123)"/>
<path style=" stroke:none;fill-rule:nonzero;fill:rgb(0%,0%,0%);fill-opacity:1;" d="M 170.925781 76.78125 L 170.925781 76.199219 L 169.871094 76.199219 L 169.871094 75.925781 L 170.980469 74.34375 L 171.226562 74.34375 L 171.226562 75.925781 L 171.554688 75.925781 L 171.554688 76.199219 L 171.226562 76.199219 L 171.226562 76.78125 Z M 170.925781 75.925781 L 170.925781 74.824219 L 170.164062 75.925781 L 170.925781 75.925781 "/>
<path style="fill:none;stroke-width:10;stroke-linecap:butt;stroke-linejoin:miter;stroke:rgb(0%,0%,0%);stroke-opacity:1;stroke-miterlimit:10;" d="M 1705 501.914062 L 1705 496.210938 " transform="matrix(0.1,0,0,-0.1,0,123)"/>
<path style=" stroke:none;fill-rule:nonzero;fill:rgb(0%,0%,0%);fill-opacity:1;" d="M 198.148438 76.144531 L 198.460938 76.117188 C 198.484375 76.269531 198.539062 76.386719 198.621094 76.460938 C 198.707031 76.539062 198.808594 76.578125 198.929688 76.578125 C 199.074219 76.578125 199.195312 76.523438 199.296875 76.414062 C 199.394531 76.304688 199.445312 76.160156 199.445312 75.980469 C 199.445312 75.8125 199.394531 75.675781 199.300781 75.578125 C 199.203125 75.480469 199.078125 75.429688 198.925781 75.429688 C 198.828125 75.429688 198.738281 75.453125 198.664062 75.496094 C 198.585938 75.539062 198.523438 75.597656 198.480469 75.667969 L 198.199219 75.628906 L 198.4375 74.378906 L 199.648438 74.378906 L 199.648438 74.664062 L 198.675781 74.664062 L 198.542969 75.320312 C 198.691406 75.214844 198.84375 75.164062 199.003906 75.164062 C 199.214844 75.164062 199.394531 75.238281 199.542969 75.386719 C 199.691406 75.535156 199.761719 75.722656 199.761719 75.953125 C 199.761719 76.175781 199.699219 76.367188 199.566406 76.527344 C 199.414062 76.722656 199.199219 76.824219 198.929688 76.824219 C 198.707031 76.824219 198.527344 76.761719 198.386719 76.636719 C 198.246094 76.511719 198.164062 76.347656 198.148438 76.144531 "/>
<path style="fill:none;stroke-width:10;stroke-linecap:butt;stroke-linejoin:miter;stroke:rgb(0%,0%,0%);stroke-opacity:1;stroke-miterlimit:10;" d="M 1988.4375 501.914062 L 1988.4375 496.210938 " transform="matrix(0.1,0,0,-0.1,0,123)"/>
<path style=" stroke:none;fill-rule:nonzero;fill:rgb(0%,0%,0%);fill-opacity:1;" d="M 228.066406 74.941406 L 227.769531 74.964844 C 227.742188 74.847656 227.703125 74.761719 227.65625 74.710938 C 227.574219 74.621094 227.476562 74.578125 227.355469 74.578125 C 227.261719 74.578125 227.179688 74.605469 227.105469 74.660156 C 227.011719 74.726562 226.9375 74.828125 226.882812 74.960938 C 226.828125 75.09375 226.800781 75.28125 226.796875 75.527344 C 226.871094 75.414062 226.960938 75.332031 227.0625 75.28125 C 227.164062 75.226562 227.273438 75.199219 227.390625 75.199219 C 227.589844 75.199219 227.761719 75.273438 227.898438 75.421875 C 228.039062 75.566406 228.109375 75.757812 228.109375 75.988281 C 228.109375 76.144531 228.078125 76.285156 228.011719 76.417969 C 227.945312 76.546875 227.855469 76.648438 227.738281 76.71875 C 227.625 76.789062 227.492188 76.824219 227.347656 76.824219 C 227.097656 76.824219 226.894531 76.730469 226.734375 76.546875 C 226.578125 76.363281 226.5 76.0625 226.5 75.640625 C 226.5 75.167969 226.585938 74.828125 226.761719 74.613281 C 226.914062 74.425781 227.117188 74.335938 227.375 74.335938 C 227.566406 74.335938 227.726562 74.386719 227.847656 74.496094 C 227.96875 74.601562 228.042969 74.75 228.066406 74.941406 Z M 226.84375 75.992188 C 226.84375 76.09375 226.867188 76.195312 226.910156 76.289062 C 226.953125 76.382812 227.015625 76.453125 227.09375 76.503906 C 227.171875 76.550781 227.253906 76.578125 227.34375 76.578125 C 227.46875 76.578125 227.574219 76.527344 227.667969 76.421875 C 227.757812 76.320312 227.804688 76.183594 227.804688 76.007812 C 227.804688 75.839844 227.757812 75.707031 227.667969 75.609375 C 227.578125 75.511719 227.464844 75.464844 227.328125 75.464844 C 227.195312 75.464844 227.078125 75.511719 226.984375 75.609375 C 226.890625 75.707031 226.84375 75.835938 226.84375 75.992188 "/>
<path style="fill:none;stroke-width:10;stroke-linecap:butt;stroke-linejoin:miter;stroke:rgb(0%,0%,0%);stroke-opacity:1;stroke-miterlimit:10;" d="M 2271.914062 501.914062 L 2271.914062 496.210938 " transform="matrix(0.1,0,0,-0.1,0,123)"/>
<path style=" stroke:none;fill-rule:nonzero;fill:rgb(0%,0%,0%);fill-opacity:1;" d="M 51.992188 102.734375 L 51.992188 102.507812 L 53.34375 102.507812 L 53.34375 102.734375 Z M 54.789062 103.636719 L 54.488281 103.636719 L 54.488281 101.730469 C 54.417969 101.796875 54.320312 101.867188 54.207031 101.933594 C 54.089844 102.003906 53.984375 102.054688 53.890625 102.089844 L 53.890625 101.800781 C 54.054688 101.722656 54.203125 101.625 54.328125 101.515625 C 54.457031 101.402344 54.542969 101.292969 54.59375 101.1875 L 54.789062 101.1875 L 54.789062 103.636719 "/>
<path style="fill:none;stroke-width:10;stroke-linecap:butt;stroke-linejoin:miter;stroke:rgb(0%,0%,0%);stroke-opacity:1;stroke-miterlimit:10;" d="M 565.46875 207.734375 L 571.132812 207.734375 " transform="matrix(0.1,0,0,-0.1,0,123)"/>
<path style=" stroke:none;fill-rule:nonzero;fill:rgb(0%,0%,0%);fill-opacity:1;" d="M 53.660156 71.039062 C 53.660156 70.753906 53.691406 70.519531 53.75 70.34375 C 53.808594 70.167969 53.898438 70.035156 54.015625 69.9375 C 54.132812 69.84375 54.28125 69.796875 54.457031 69.796875 C 54.585938 69.796875 54.699219 69.820312 54.800781 69.875 C 54.898438 69.925781 54.980469 70.003906 55.042969 70.101562 C 55.105469 70.203125 55.15625 70.324219 55.195312 70.464844 C 55.234375 70.609375 55.25 70.800781 55.25 71.039062 C 55.25 71.324219 55.222656 71.554688 55.164062 71.734375 C 55.105469 71.910156 55.015625 72.042969 54.898438 72.140625 C 54.78125 72.234375 54.632812 72.285156 54.457031 72.285156 C 54.21875 72.285156 54.035156 72.199219 53.902344 72.03125 C 53.742188 71.828125 53.660156 71.5 53.660156 71.039062 Z M 53.96875 71.039062 C 53.96875 71.441406 54.015625 71.707031 54.109375 71.839844 C 54.203125 71.972656 54.320312 72.039062 54.457031 72.039062 C 54.59375 72.039062 54.707031 71.972656 54.800781 71.839844 C 54.898438 71.707031 54.945312 71.441406 54.945312 71.039062 C 54.945312 70.640625 54.898438 70.375 54.800781 70.242188 C 54.707031 70.109375 54.59375 70.042969 54.453125 70.042969 C 54.316406 70.042969 54.207031 70.101562 54.121094 70.21875 C 54.019531 70.367188 53.96875 70.640625 53.96875 71.039062 "/>
<path style=" stroke:none;fill-rule:nonzero;fill:rgb(0%,0%,0%);fill-opacity:1;" d="M 54.789062 44.820312 L 54.488281 44.820312 L 54.488281 42.914062 C 54.417969 42.984375 54.320312 43.050781 54.207031 43.121094 C 54.089844 43.1875 53.984375 43.238281 53.890625 43.273438 L 53.890625 42.984375 C 54.054688 42.90625 54.203125 42.8125 54.328125 42.699219 C 54.457031 42.585938 54.542969 42.476562 54.59375 42.375 L 54.789062 42.375 L 54.789062 44.820312 "/>
<path style="fill:none;stroke-width:10;stroke-linecap:butt;stroke-linejoin:miter;stroke:rgb(0%,0%,0%);stroke-opacity:1;stroke-miterlimit:10;" d="M 565.46875 796.09375 L 571.132812 796.09375 " transform="matrix(0.1,0,0,-0.1,0,123)"/>
<path style=" stroke:none;fill-rule:nonzero;fill:rgb(0%,0%,0%);fill-opacity:1;" d="M 55.234375 15.03125 L 55.234375 15.316406 L 53.625 15.316406 C 53.621094 15.246094 53.632812 15.175781 53.660156 15.113281 C 53.699219 15 53.765625 14.894531 53.855469 14.785156 C 53.945312 14.679688 54.074219 14.558594 54.246094 14.417969 C 54.511719 14.199219 54.691406 14.027344 54.78125 13.902344 C 54.878906 13.773438 54.921875 13.65625 54.921875 13.542969 C 54.921875 13.421875 54.882812 13.320312 54.796875 13.242188 C 54.710938 13.160156 54.601562 13.121094 54.464844 13.121094 C 54.320312 13.121094 54.203125 13.164062 54.117188 13.25 C 54.03125 13.335938 53.988281 13.457031 53.988281 13.605469 L 53.679688 13.574219 C 53.703125 13.347656 53.78125 13.171875 53.917969 13.050781 C 54.054688 12.933594 54.238281 12.871094 54.472656 12.871094 C 54.703125 12.871094 54.890625 12.9375 55.027344 13.066406 C 55.164062 13.195312 55.230469 13.355469 55.230469 13.546875 C 55.230469 13.644531 55.210938 13.742188 55.171875 13.835938 C 55.128906 13.929688 55.0625 14.027344 54.96875 14.132812 C 54.878906 14.238281 54.722656 14.382812 54.511719 14.5625 C 54.332031 14.714844 54.214844 14.816406 54.164062 14.867188 C 54.113281 14.921875 54.070312 14.976562 54.039062 15.03125 L 55.234375 15.03125 "/>
<path style="fill:none;stroke-width:10;stroke-linecap:butt;stroke-linejoin:miter;stroke:rgb(0%,0%,0%);stroke-opacity:1;stroke-miterlimit:10;" d="M 565.46875 1090.273438 L 571.132812 1090.273438 " transform="matrix(0.1,0,0,-0.1,0,123)"/>
<path style="fill:none;stroke-width:10;stroke-linecap:round;stroke-linejoin:round;stroke:rgb(75.389099%,75.389099%,75.389099%);stroke-opacity:1;stroke-miterlimit:10;" d="M 287.65625 1230 L 287.65625 501.914062 " transform="matrix(0.1,0,0,-0.1,0,123)"/>
<path style="fill:none;stroke-width:10;stroke-linecap:round;stroke-linejoin:round;stroke:rgb(75.389099%,75.389099%,75.389099%);stroke-opacity:1;stroke-miterlimit:10;" d="M 287.65625 444.804688 L 287.65625 -8.710938 " transform="matrix(0.1,0,0,-0.1,0,123)"/>
<path style="fill:none;stroke-width:10;stroke-linecap:round;stroke-linejoin:round;stroke:rgb(75.389099%,75.389099%,75.389099%);stroke-opacity:1;stroke-miterlimit:10;" d="M 4.21875 1230 L 4.21875 -8.710938 " transform="matrix(0.1,0,0,-0.1,0,123)"/>
<path style="fill:none;stroke-width:10;stroke-linecap:round;stroke-linejoin:round;stroke:rgb(75.389099%,75.389099%,75.389099%);stroke-opacity:1;stroke-miterlimit:10;" d="M 287.65625 1230 L 287.65625 501.914062 " transform="matrix(0.1,0,0,-0.1,0,123)"/>
<path style="fill:none;stroke-width:10;stroke-linecap:round;stroke-linejoin:round;stroke:rgb(75.389099%,75.389099%,75.389099%);stroke-opacity:1;stroke-miterlimit:10;" d="M 287.65625 444.804688 L 287.65625 -8.710938 " transform="matrix(0.1,0,0,-0.1,0,123)"/>
<path style="fill:none;stroke-width:10;stroke-linecap:round;stroke-linejoin:round;stroke:rgb(75.389099%,75.389099%,75.389099%);stroke-opacity:1;stroke-miterlimit:10;" d="M 854.609375 1230 L 854.609375 501.914062 " transform="matrix(0.1,0,0,-0.1,0,123)"/>
<path style="fill:none;stroke-width:10;stroke-linecap:round;stroke-linejoin:round;stroke:rgb(75.389099%,75.389099%,75.389099%);stroke-opacity:1;stroke-miterlimit:10;" d="M 854.609375 444.804688 L 854.609375 -8.710938 " transform="matrix(0.1,0,0,-0.1,0,123)"/>
<path style="fill:none;stroke-width:10;stroke-linecap:round;stroke-linejoin:round;stroke:rgb(75.389099%,75.389099%,75.389099%);stroke-opacity:1;stroke-miterlimit:10;" d="M 1138.046875 1230 L 1138.046875 501.914062 " transform="matrix(0.1,0,0,-0.1,0,123)"/>
<path style="fill:none;stroke-width:10;stroke-linecap:round;stroke-linejoin:round;stroke:rgb(75.389099%,75.389099%,75.389099%);stroke-opacity:1;stroke-miterlimit:10;" d="M 1138.046875 444.804688 L 1138.046875 -8.710938 " transform="matrix(0.1,0,0,-0.1,0,123)"/>
<path style="fill:none;stroke-width:10;stroke-linecap:round;stroke-linejoin:round;stroke:rgb(75.389099%,75.389099%,75.389099%);stroke-opacity:1;stroke-miterlimit:10;" d="M 1421.523438 1230 L 1421.523438 501.914062 " transform="matrix(0.1,0,0,-0.1,0,123)"/>
<path style="fill:none;stroke-width:10;stroke-linecap:round;stroke-linejoin:round;stroke:rgb(75.389099%,75.389099%,75.389099%);stroke-opacity:1;stroke-miterlimit:10;" d="M 1421.523438 444.804688 L 1421.523438 -8.710938 " transform="matrix(0.1,0,0,-0.1,0,123)"/>
<path style="fill:none;stroke-width:10;stroke-linecap:round;stroke-linejoin:round;stroke:rgb(75.389099%,75.389099%,75.389099%);stroke-opacity:1;stroke-miterlimit:10;" d="M 1705 1230 L 1705 501.914062 " transform="matrix(0.1,0,0,-0.1,0,123)"/>
<path style="fill:none;stroke-width:10;stroke-linecap:round;stroke-linejoin:round;stroke:rgb(75.389099%,75.389099%,75.389099%);stroke-opacity:1;stroke-miterlimit:10;" d="M 1705 444.804688 L 1705 -8.710938 " transform="matrix(0.1,0,0,-0.1,0,123)"/>
<path style="fill:none;stroke-width:10;stroke-linecap:round;stroke-linejoin:round;stroke:rgb(75.389099%,75.389099%,75.389099%);stroke-opacity:1;stroke-miterlimit:10;" d="M 1988.4375 1230 L 1988.4375 501.914062 " transform="matrix(0.1,0,0,-0.1,0,123)"/>
<path style="fill:none;stroke-width:10;stroke-linecap:round;stroke-linejoin:round;stroke:rgb(75.389099%,75.389099%,75.389099%);stroke-opacity:1;stroke-miterlimit:10;" d="M 1988.4375 444.804688 L 1988.4375 -8.710938 " transform="matrix(0.1,0,0,-0.1,0,123)"/>
<path style="fill:none;stroke-width:10;stroke-linecap:round;stroke-linejoin:round;stroke:rgb(75.389099%,75.389099%,75.389099%);stroke-opacity:1;stroke-miterlimit:10;" d="M 2271.914062 1230 L 2271.914062 501.914062 " transform="matrix(0.1,0,0,-0.1,0,123)"/>
<path style="fill:none;stroke-width:10;stroke-linecap:round;stroke-linejoin:round;stroke:rgb(75.389099%,75.389099%,75.389099%);stroke-opacity:1;stroke-miterlimit:10;" d="M 2271.914062 444.804688 L 2271.914062 -8.710938 " transform="matrix(0.1,0,0,-0.1,0,123)"/>
<path style="fill:none;stroke-width:10;stroke-linecap:round;stroke-linejoin:round;stroke:rgb(75.389099%,75.389099%,75.389099%);stroke-opacity:1;stroke-miterlimit:10;" d="M 0 1090.273438 L 533.28125 1090.273438 " transform="matrix(0.1,0,0,-0.1,0,123)"/>
<path style="fill:none;stroke-width:10;stroke-linecap:round;stroke-linejoin:round;stroke:rgb(75.389099%,75.389099%,75.389099%);stroke-opacity:1;stroke-miterlimit:10;" d="M 571.132812 1090.273438 L 2358.28125 1090.273438 " transform="matrix(0.1,0,0,-0.1,0,123)"/>
<path style="fill:none;stroke-width:10;stroke-linecap:round;stroke-linejoin:round;stroke:rgb(75.389099%,75.389099%,75.389099%);stroke-opacity:1;stroke-miterlimit:10;" d="M 0 1090.273438 L 533.28125 1090.273438 " transform="matrix(0.1,0,0,-0.1,0,123)"/>
<path style="fill:none;stroke-width:10;stroke-linecap:round;stroke-linejoin:round;stroke:rgb(75.389099%,75.389099%,75.389099%);stroke-opacity:1;stroke-miterlimit:10;" d="M 571.132812 1090.273438 L 2358.28125 1090.273438 " transform="matrix(0.1,0,0,-0.1,0,123)"/>
<path style="fill:none;stroke-width:10;stroke-linecap:round;stroke-linejoin:round;stroke:rgb(75.389099%,75.389099%,75.389099%);stroke-opacity:1;stroke-miterlimit:10;" d="M 0 796.09375 L 533.28125 796.09375 " transform="matrix(0.1,0,0,-0.1,0,123)"/>
<path style="fill:none;stroke-width:10;stroke-linecap:round;stroke-linejoin:round;stroke:rgb(75.389099%,75.389099%,75.389099%);stroke-opacity:1;stroke-miterlimit:10;" d="M 571.132812 796.09375 L 2358.28125 796.09375 " transform="matrix(0.1,0,0,-0.1,0,123)"/>
<path style="fill:none;stroke-width:10;stroke-linecap:round;stroke-linejoin:round;stroke:rgb(75.389099%,75.389099%,75.389099%);stroke-opacity:1;stroke-miterlimit:10;" d="M 0 207.734375 L 516.289062 207.734375 " transform="matrix(0.1,0,0,-0.1,0,123)"/>
<path style="fill:none;stroke-width:10;stroke-linecap:round;stroke-linejoin:round;stroke:rgb(75.389099%,75.389099%,75.389099%);stroke-opacity:1;stroke-miterlimit:10;" d="M 571.132812 207.734375 L 2358.28125 207.734375 " transform="matrix(0.1,0,0,-0.1,0,123)"/>
<path style="fill:none;stroke-width:10;stroke-linecap:round;stroke-linejoin:round;stroke:rgb(0%,0%,0%);stroke-opacity:1;stroke-miterlimit:10;" d="M 4.21875 -1263.164062 C 760.117188 1874.765625 1516.015625 1874.765625 2271.914062 -1263.164062 " transform="matrix(0.1,0,0,-0.1,0,123)"/>
<path style=" stroke:none;fill-rule:nonzero;fill:rgb(0%,0%,0%);fill-opacity:1;" d="M 230.664062 64.269531 L 229.761719 67.886719 C 229.5625 68.488281 229.210938 68.988281 228.707031 69.390625 C 228.304688 69.695312 227.902344 69.84375 227.5 69.84375 C 227.097656 69.84375 226.796875 69.695312 226.597656 69.390625 C 226.496094 69.292969 226.445312 69.191406 226.445312 69.089844 C 226.445312 68.6875 226.597656 68.488281 226.898438 68.488281 C 226.898438 68.386719 226.949219 68.335938 227.050781 68.335938 C 227.25 68.335938 227.351562 68.4375 227.351562 68.636719 C 227.351562 68.636719 227.351562 68.6875 227.351562 68.789062 C 227.351562 68.890625 227.300781 68.988281 227.199219 69.089844 C 227.097656 69.191406 226.949219 69.242188 226.746094 69.242188 C 226.847656 69.542969 227.097656 69.695312 227.5 69.695312 C 227.902344 69.695312 228.253906 69.492188 228.554688 69.089844 C 228.855469 68.6875 229.058594 68.238281 229.160156 67.734375 C 229.160156 67.632812 229.160156 67.582031 229.160156 67.582031 C 228.855469 67.886719 228.554688 68.035156 228.253906 68.035156 C 227.753906 68.035156 227.402344 67.835938 227.199219 67.433594 C 227.097656 67.230469 227.050781 67.03125 227.050781 66.832031 C 227.050781 66.527344 227.199219 65.875 227.5 64.871094 C 227.5 64.871094 227.550781 64.871094 227.652344 64.871094 C 227.753906 64.570312 227.804688 64.320312 227.804688 64.117188 C 227.804688 63.917969 227.703125 63.816406 227.5 63.816406 C 227.199219 63.816406 226.898438 64.117188 226.597656 64.71875 C 226.597656 64.820312 226.597656 64.921875 226.597656 65.023438 C 226.496094 65.121094 226.445312 65.171875 226.445312 65.171875 C 226.347656 65.171875 226.296875 65.171875 226.296875 65.171875 C 226.296875 64.972656 226.347656 64.769531 226.445312 64.570312 C 226.746094 63.96875 227.097656 63.664062 227.5 63.664062 C 227.902344 63.664062 228.152344 63.816406 228.253906 64.117188 C 228.355469 64.21875 228.40625 64.320312 228.40625 64.417969 C 228.40625 64.519531 228.304688 64.769531 228.105469 65.171875 C 227.804688 65.976562 227.652344 66.578125 227.652344 66.980469 C 227.652344 67.484375 227.851562 67.734375 228.253906 67.734375 C 228.65625 67.734375 228.957031 67.53125 229.160156 67.132812 C 229.257812 67.03125 229.308594 66.980469 229.308594 66.980469 L 229.761719 65.171875 C 229.863281 64.972656 229.914062 64.71875 229.914062 64.417969 C 230.011719 64.117188 230.0625 63.96875 230.0625 63.96875 C 230.164062 63.765625 230.3125 63.664062 230.515625 63.664062 C 230.617188 63.765625 230.664062 63.867188 230.664062 63.96875 C 230.664062 64.066406 230.664062 64.167969 230.664062 64.269531 "/>
<path style=" stroke:none;fill-rule:nonzero;fill:rgb(0%,0%,0%);fill-opacity:1;" d="M 69.863281 6.117188 L 68.507812 11.695312 C 68.40625 11.894531 68.355469 12.046875 68.355469 12.148438 C 68.355469 12.449219 68.457031 12.597656 68.65625 12.597656 C 68.957031 12.597656 69.160156 12.347656 69.261719 11.84375 C 69.359375 11.746094 69.410156 11.59375 69.410156 11.394531 C 69.511719 11.292969 69.5625 11.242188 69.5625 11.242188 C 69.660156 11.242188 69.710938 11.292969 69.710938 11.394531 C 69.710938 11.492188 69.660156 11.695312 69.5625 11.996094 C 69.460938 12.097656 69.410156 12.195312 69.410156 12.296875 C 69.210938 12.699219 68.957031 12.898438 68.65625 12.898438 C 68.355469 12.898438 68.105469 12.75 67.902344 12.449219 C 67.902344 12.347656 67.851562 12.246094 67.753906 12.148438 C 67.351562 12.648438 66.949219 12.898438 66.546875 12.898438 C 66.042969 12.898438 65.695312 12.648438 65.492188 12.148438 C 65.390625 11.945312 65.34375 11.644531 65.34375 11.242188 C 65.34375 10.640625 65.542969 10.035156 65.945312 9.433594 C 66.445312 8.832031 66.949219 8.53125 67.453125 8.53125 C 67.550781 8.53125 67.601562 8.53125 67.601562 8.53125 C 68.003906 8.53125 68.304688 8.730469 68.507812 9.132812 L 69.109375 6.871094 L 69.109375 6.570312 C 69.109375 6.570312 69.058594 6.519531 68.957031 6.421875 C 68.859375 6.421875 68.757812 6.421875 68.65625 6.421875 C 68.457031 6.421875 68.355469 6.421875 68.355469 6.421875 C 68.355469 6.21875 68.40625 6.117188 68.507812 6.117188 C 69.109375 6.117188 69.511719 6.117188 69.710938 6.117188 C 69.8125 6.117188 69.863281 6.117188 69.863281 6.117188 Z M 67.902344 11.542969 L 68.355469 9.734375 C 68.355469 9.636719 68.355469 9.585938 68.355469 9.585938 C 68.355469 9.382812 68.304688 9.183594 68.207031 8.980469 C 68.105469 8.78125 67.902344 8.679688 67.601562 8.679688 C 67.300781 8.679688 67 8.882812 66.699219 9.285156 C 66.597656 9.382812 66.546875 9.484375 66.546875 9.585938 C 66.347656 9.988281 66.144531 10.539062 65.945312 11.242188 C 65.945312 11.441406 65.945312 11.59375 65.945312 11.695312 C 65.945312 12.195312 66.09375 12.496094 66.398438 12.597656 C 66.398438 12.597656 66.445312 12.597656 66.546875 12.597656 C 66.949219 12.597656 67.300781 12.398438 67.601562 11.996094 C 67.703125 11.894531 67.804688 11.796875 67.902344 11.695312 C 67.902344 11.59375 67.902344 11.542969 67.902344 11.542969 "/>
<path style=" stroke:none;fill-rule:nonzero;fill:rgb(0%,0%,0%);fill-opacity:1;" d="M 74.582031 9.132812 L 73.675781 12.75 C 73.476562 13.351562 73.125 13.855469 72.621094 14.257812 C 72.21875 14.558594 71.820312 14.710938 71.417969 14.710938 C 71.015625 14.710938 70.714844 14.558594 70.511719 14.257812 C 70.410156 14.15625 70.363281 14.054688 70.363281 13.953125 C 70.363281 13.554688 70.511719 13.351562 70.8125 13.351562 C 70.8125 13.253906 70.863281 13.203125 70.964844 13.203125 C 71.164062 13.203125 71.265625 13.300781 71.265625 13.503906 C 71.265625 13.503906 71.265625 13.554688 71.265625 13.652344 C 71.265625 13.753906 71.214844 13.855469 71.113281 13.953125 C 71.015625 14.054688 70.863281 14.105469 70.664062 14.105469 C 70.765625 14.40625 71.015625 14.558594 71.417969 14.558594 C 71.820312 14.558594 72.171875 14.355469 72.472656 13.953125 C 72.773438 13.554688 72.972656 13.101562 73.074219 12.597656 C 73.074219 12.496094 73.074219 12.449219 73.074219 12.449219 C 72.773438 12.75 72.472656 12.898438 72.171875 12.898438 C 71.667969 12.898438 71.316406 12.699219 71.113281 12.296875 C 71.015625 12.097656 70.964844 11.894531 70.964844 11.695312 C 70.964844 11.394531 71.113281 10.738281 71.417969 9.734375 C 71.417969 9.734375 71.46875 9.734375 71.566406 9.734375 C 71.667969 9.433594 71.71875 9.183594 71.71875 8.980469 C 71.71875 8.78125 71.617188 8.679688 71.417969 8.679688 C 71.113281 8.679688 70.8125 8.980469 70.511719 9.585938 C 70.511719 9.683594 70.511719 9.785156 70.511719 9.886719 C 70.410156 9.988281 70.363281 10.035156 70.363281 10.035156 C 70.261719 10.035156 70.210938 10.035156 70.210938 10.035156 C 70.210938 9.835938 70.261719 9.636719 70.363281 9.433594 C 70.664062 8.832031 71.015625 8.53125 71.417969 8.53125 C 71.820312 8.53125 72.070312 8.679688 72.171875 8.980469 C 72.269531 9.082031 72.320312 9.183594 72.320312 9.285156 C 72.320312 9.382812 72.21875 9.636719 72.019531 10.035156 C 71.71875 10.839844 71.566406 11.441406 71.566406 11.84375 C 71.566406 12.347656 71.769531 12.597656 72.171875 12.597656 C 72.574219 12.597656 72.875 12.398438 73.074219 11.996094 C 73.175781 11.894531 73.226562 11.84375 73.226562 11.84375 L 73.675781 10.035156 C 73.777344 9.835938 73.828125 9.585938 73.828125 9.285156 C 73.929688 8.980469 73.976562 8.832031 73.976562 8.832031 C 74.078125 8.628906 74.230469 8.53125 74.429688 8.53125 C 74.53125 8.628906 74.582031 8.730469 74.582031 8.832031 C 74.582031 8.933594 74.582031 9.03125 74.582031 9.132812 "/>
<path style=" stroke:none;fill-rule:nonzero;fill:rgb(0%,0%,0%);fill-opacity:1;" d="M 64.890625 17.054688 L 74.636719 17.054688 L 74.636719 16.671875 L 64.890625 16.671875 Z M 64.890625 17.054688 "/>
<path style=" stroke:none;fill-rule:nonzero;fill:rgb(0%,0%,0%);fill-opacity:1;" d="M 70.484375 19.257812 L 69.128906 24.835938 C 69.027344 25.035156 68.976562 25.1875 68.976562 25.289062 C 68.976562 25.589844 69.078125 25.738281 69.28125 25.738281 C 69.582031 25.738281 69.78125 25.488281 69.882812 24.984375 C 69.984375 24.886719 70.035156 24.734375 70.035156 24.535156 C 70.132812 24.433594 70.183594 24.382812 70.183594 24.382812 C 70.285156 24.382812 70.335938 24.433594 70.335938 24.535156 C 70.335938 24.636719 70.285156 24.835938 70.183594 25.136719 C 70.085938 25.238281 70.035156 25.339844 70.035156 25.4375 C 69.832031 25.839844 69.582031 26.039062 69.28125 26.039062 C 68.976562 26.039062 68.726562 25.890625 68.527344 25.589844 C 68.527344 25.488281 68.476562 25.386719 68.375 25.289062 C 67.972656 25.789062 67.574219 26.039062 67.171875 26.039062 C 66.667969 26.039062 66.316406 25.789062 66.113281 25.289062 C 66.015625 25.085938 65.964844 24.785156 65.964844 24.382812 C 65.964844 23.78125 66.164062 23.175781 66.566406 22.574219 C 67.070312 21.972656 67.574219 21.671875 68.074219 21.671875 C 68.175781 21.671875 68.226562 21.671875 68.226562 21.671875 C 68.628906 21.671875 68.929688 21.871094 69.128906 22.273438 L 69.730469 20.011719 L 69.730469 19.710938 C 69.730469 19.710938 69.683594 19.660156 69.582031 19.5625 C 69.480469 19.5625 69.378906 19.5625 69.28125 19.5625 C 69.078125 19.5625 68.976562 19.5625 68.976562 19.5625 C 68.976562 19.359375 69.027344 19.257812 69.128906 19.257812 C 69.730469 19.257812 70.132812 19.257812 70.335938 19.257812 C 70.433594 19.257812 70.484375 19.257812 70.484375 19.257812 Z M 68.527344 24.683594 L 68.976562 22.878906 C 68.976562 22.777344 68.976562 22.726562 68.976562 22.726562 C 68.976562 22.523438 68.929688 22.324219 68.828125 22.121094 C 68.726562 21.921875 68.527344 21.820312 68.226562 21.820312 C 67.921875 21.820312 67.621094 22.023438 67.320312 22.425781 C 67.21875 22.523438 67.171875 22.625 67.171875 22.726562 C 66.96875 23.128906 66.769531 23.679688 66.566406 24.382812 C 66.566406 24.585938 66.566406 24.734375 66.566406 24.835938 C 66.566406 25.339844 66.71875 25.640625 67.019531 25.738281 C 67.019531 25.738281 67.070312 25.738281 67.171875 25.738281 C 67.574219 25.738281 67.921875 25.539062 68.226562 25.136719 C 68.324219 25.035156 68.425781 24.9375 68.527344 24.835938 C 68.527344 24.734375 68.527344 24.683594 68.527344 24.683594 "/>
<path style=" stroke:none;fill-rule:nonzero;fill:rgb(0%,0%,0%);fill-opacity:1;" d="M 72.492188 21.972656 L 71.738281 24.835938 C 71.738281 25.035156 71.738281 25.1875 71.738281 25.289062 C 71.738281 25.589844 71.839844 25.738281 72.039062 25.738281 C 72.441406 25.738281 72.792969 25.4375 73.09375 24.835938 L 73.246094 24.535156 C 73.34375 24.433594 73.394531 24.382812 73.394531 24.382812 C 73.496094 24.382812 73.546875 24.433594 73.546875 24.535156 C 73.546875 24.636719 73.445312 24.785156 73.246094 24.984375 C 72.945312 25.691406 72.542969 26.039062 72.039062 26.039062 C 71.636719 26.039062 71.386719 25.890625 71.285156 25.589844 C 71.183594 25.386719 71.136719 25.238281 71.136719 25.136719 C 71.136719 25.035156 71.335938 24.183594 71.738281 22.574219 L 71.890625 21.972656 L 70.984375 21.972656 C 70.882812 21.972656 70.835938 21.972656 70.835938 21.972656 L 70.683594 21.972656 C 70.683594 21.871094 70.734375 21.769531 70.835938 21.671875 L 71.890625 21.671875 L 72.339844 20.164062 C 72.339844 19.964844 72.441406 19.863281 72.644531 19.863281 C 72.84375 19.863281 72.945312 19.964844 72.945312 20.164062 C 72.945312 20.164062 72.84375 20.664062 72.644531 21.671875 L 73.394531 21.671875 C 73.597656 21.671875 73.699219 21.722656 73.699219 21.820312 C 73.699219 21.921875 73.648438 21.972656 73.546875 21.972656 L 72.492188 21.972656 "/>
</g>
</svg>
