<?xml version="1.0" encoding="UTF-8"?>
<svg xmlns="http://www.w3.org/2000/svg" xmlns:xlink="http://www.w3.org/1999/xlink" width="226pt" height="126pt" viewBox="0 0 226 126" version="1.1">
<g id="surface1">
<rect x="0" y="0" width="226" height="126" style="fill:rgb(100%,100%,100%);fill-opacity:1;stroke:none;"/>
<path style="fill:none;stroke-width:10;stroke-linecap:butt;stroke-linejoin:miter;stroke:rgb(0%,0%,0%);stroke-opacity:1;stroke-miterlimit:10;" d="M 283.476562 1254.140625 L 283.476562 -7.34375 " transform="matrix(0.1,0,0,-0.1,0,126)"/>
<path style="fill:none;stroke-width:10;stroke-linecap:butt;stroke-linejoin:miter;stroke:rgb(0%,0%,0%);stroke-opacity:1;stroke-miterlimit:10;" d="M 283.476562 1257.070312 L 274.648438 1248.28125 " transform="matrix(0.1,0,0,-0.1,0,126)"/>
<path style="fill:none;stroke-width:10;stroke-linecap:butt;stroke-linejoin:miter;stroke:rgb(0%,0%,0%);stroke-opacity:1;stroke-miterlimit:10;" d="M 283.476562 1257.070312 L 292.265625 1248.28125 " transform="matrix(0.1,0,0,-0.1,0,126)"/>
<path style="fill:none;stroke-width:10;stroke-linecap:butt;stroke-linejoin:miter;stroke:rgb(0%,0%,0%);stroke-opacity:1;stroke-miterlimit:10;" d="M 0 309.492188 L 0 300.703125 " transform="matrix(0.1,0,0,-0.1,0,126)"/>
<path style="fill:none;stroke-width:10;stroke-linecap:butt;stroke-linejoin:miter;stroke:rgb(0%,0%,0%);stroke-opacity:1;stroke-miterlimit:10;" d="M 0 309.492188 L 2261.835938 309.492188 " transform="matrix(0.1,0,0,-0.1,0,126)"/>
<path style="fill:none;stroke-width:10;stroke-linecap:butt;stroke-linejoin:miter;stroke:rgb(0%,0%,0%);stroke-opacity:1;stroke-miterlimit:10;" d="M 2264.765625 309.492188 L 2255.976562 318.28125 " transform="matrix(0.1,0,0,-0.1,0,126)"/>
<path style="fill:none;stroke-width:10;stroke-linecap:butt;stroke-linejoin:miter;stroke:rgb(0%,0%,0%);stroke-opacity:1;stroke-miterlimit:10;" d="M 2264.765625 309.492188 L 2255.976562 300.703125 " transform="matrix(0.1,0,0,-0.1,0,126)"/>
<path style=" stroke:none;fill-rule:nonzero;fill:rgb(0%,0%,0%);fill-opacity:1;" d="M 30.046875 98.121094 C 30.046875 97.875 30.074219 97.675781 30.121094 97.523438 C 30.171875 97.371094 30.25 97.253906 30.347656 97.171875 C 30.449219 97.089844 30.578125 97.046875 30.730469 97.046875 C 30.84375 97.046875 30.941406 97.070312 31.027344 97.117188 C 31.109375 97.164062 31.179688 97.230469 31.238281 97.316406 C 31.292969 97.402344 31.335938 97.503906 31.367188 97.625 C 31.398438 97.75 31.414062 97.914062 31.414062 98.121094 C 31.414062 98.367188 31.386719 98.570312 31.335938 98.71875 C 31.285156 98.871094 31.210938 98.988281 31.109375 99.070312 C 31.011719 99.152344 30.882812 99.195312 30.730469 99.195312 C 30.527344 99.195312 30.371094 99.121094 30.253906 98.972656 C 30.117188 98.800781 30.046875 98.515625 30.046875 98.121094 Z M 30.308594 98.121094 C 30.308594 98.46875 30.347656 98.695312 30.429688 98.8125 C 30.511719 98.925781 30.609375 98.984375 30.730469 98.984375 C 30.847656 98.984375 30.949219 98.925781 31.03125 98.8125 C 31.109375 98.695312 31.152344 98.46875 31.152344 98.121094 C 31.152344 97.777344 31.109375 97.546875 31.03125 97.433594 C 30.949219 97.320312 30.847656 97.265625 30.726562 97.265625 C 30.609375 97.265625 30.515625 97.3125 30.441406 97.410156 C 30.351562 97.539062 30.308594 97.777344 30.308594 98.121094 "/>
<path style=" stroke:none;fill-rule:nonzero;fill:rgb(0%,0%,0%);fill-opacity:1;" d="M 57.125 99.15625 L 56.867188 99.15625 L 56.867188 97.515625 C 56.804688 97.574219 56.726562 97.632812 56.625 97.691406 C 56.523438 97.753906 56.433594 97.796875 56.355469 97.824219 L 56.355469 97.578125 C 56.496094 97.507812 56.625 97.425781 56.730469 97.332031 C 56.839844 97.234375 56.914062 97.140625 56.957031 97.046875 L 57.125 97.046875 L 57.125 99.15625 "/>
<path style="fill:none;stroke-width:10;stroke-linecap:butt;stroke-linejoin:miter;stroke:rgb(0%,0%,0%);stroke-opacity:1;stroke-miterlimit:10;" d="M 566.914062 309.492188 L 566.914062 300.703125 " transform="matrix(0.1,0,0,-0.1,0,126)"/>
<path style=" stroke:none;fill-rule:nonzero;fill:rgb(0%,0%,0%);fill-opacity:1;" d="M 85.964844 98.910156 L 85.964844 99.15625 L 84.578125 99.15625 C 84.578125 99.097656 84.585938 99.035156 84.609375 98.980469 C 84.644531 98.882812 84.703125 98.789062 84.777344 98.699219 C 84.855469 98.605469 84.96875 98.503906 85.117188 98.382812 C 85.34375 98.195312 85.496094 98.042969 85.578125 97.9375 C 85.660156 97.828125 85.699219 97.722656 85.699219 97.625 C 85.699219 97.523438 85.664062 97.4375 85.589844 97.367188 C 85.515625 97.296875 85.421875 97.265625 85.304688 97.265625 C 85.179688 97.265625 85.078125 97.300781 85.003906 97.375 C 84.929688 97.449219 84.894531 97.550781 84.894531 97.679688 L 84.628906 97.652344 C 84.644531 97.457031 84.714844 97.308594 84.832031 97.203125 C 84.949219 97.101562 85.109375 97.046875 85.308594 97.046875 C 85.511719 97.046875 85.671875 97.105469 85.789062 97.214844 C 85.90625 97.328125 85.964844 97.464844 85.964844 97.632812 C 85.964844 97.71875 85.949219 97.800781 85.914062 97.882812 C 85.878906 97.960938 85.820312 98.046875 85.742188 98.136719 C 85.660156 98.226562 85.527344 98.351562 85.34375 98.507812 C 85.1875 98.636719 85.089844 98.722656 85.046875 98.769531 C 85.003906 98.816406 84.964844 98.863281 84.9375 98.910156 L 85.964844 98.910156 "/>
<path style="fill:none;stroke-width:10;stroke-linecap:butt;stroke-linejoin:miter;stroke:rgb(0%,0%,0%);stroke-opacity:1;stroke-miterlimit:10;" d="M 850.390625 309.492188 L 850.390625 300.703125 " transform="matrix(0.1,0,0,-0.1,0,126)"/>
<path style=" stroke:none;fill-rule:nonzero;fill:rgb(0%,0%,0%);fill-opacity:1;" d="M 113.070312 98.601562 L 113.324219 98.570312 C 113.355469 98.714844 113.40625 98.820312 113.476562 98.886719 C 113.546875 98.949219 113.636719 98.984375 113.738281 98.984375 C 113.859375 98.984375 113.964844 98.941406 114.046875 98.855469 C 114.128906 98.773438 114.171875 98.667969 114.171875 98.542969 C 114.171875 98.425781 114.132812 98.328125 114.054688 98.25 C 113.980469 98.171875 113.882812 98.136719 113.761719 98.136719 C 113.714844 98.136719 113.652344 98.144531 113.578125 98.164062 L 113.605469 97.9375 C 113.625 97.9375 113.636719 97.9375 113.648438 97.9375 C 113.757812 97.9375 113.855469 97.910156 113.945312 97.851562 C 114.035156 97.796875 114.078125 97.710938 114.078125 97.589844 C 114.078125 97.496094 114.046875 97.417969 113.980469 97.355469 C 113.917969 97.289062 113.835938 97.261719 113.734375 97.261719 C 113.632812 97.261719 113.550781 97.289062 113.480469 97.355469 C 113.414062 97.417969 113.371094 97.511719 113.355469 97.640625 L 113.097656 97.59375 C 113.128906 97.421875 113.199219 97.285156 113.308594 97.191406 C 113.421875 97.097656 113.558594 97.046875 113.726562 97.046875 C 113.839844 97.046875 113.945312 97.074219 114.042969 97.121094 C 114.140625 97.171875 114.214844 97.238281 114.265625 97.324219 C 114.3125 97.410156 114.339844 97.5 114.339844 97.59375 C 114.339844 97.6875 114.316406 97.769531 114.269531 97.84375 C 114.222656 97.914062 114.148438 97.976562 114.050781 98.019531 C 114.175781 98.046875 114.273438 98.105469 114.339844 98.199219 C 114.410156 98.289062 114.445312 98.402344 114.445312 98.539062 C 114.445312 98.722656 114.378906 98.878906 114.242188 99.003906 C 114.109375 99.132812 113.941406 99.195312 113.738281 99.195312 C 113.550781 99.195312 113.398438 99.140625 113.277344 99.03125 C 113.15625 98.917969 113.089844 98.777344 113.070312 98.601562 "/>
<path style="fill:none;stroke-width:10;stroke-linecap:butt;stroke-linejoin:miter;stroke:rgb(0%,0%,0%);stroke-opacity:1;stroke-miterlimit:10;" d="M 1133.867188 309.492188 L 1133.867188 300.703125 " transform="matrix(0.1,0,0,-0.1,0,126)"/>
<path style=" stroke:none;fill-rule:nonzero;fill:rgb(0%,0%,0%);fill-opacity:1;" d="M 142.058594 99.15625 L 142.058594 98.652344 L 141.144531 98.652344 L 141.144531 98.417969 L 142.105469 97.058594 L 142.3125 97.058594 L 142.3125 98.417969 L 142.597656 98.417969 L 142.597656 98.652344 L 142.3125 98.652344 L 142.3125 99.15625 Z M 142.058594 98.417969 L 142.058594 97.46875 L 141.398438 98.417969 L 142.058594 98.417969 "/>
<path style="fill:none;stroke-width:10;stroke-linecap:butt;stroke-linejoin:miter;stroke:rgb(0%,0%,0%);stroke-opacity:1;stroke-miterlimit:10;" d="M 1417.304688 309.492188 L 1417.304688 300.703125 " transform="matrix(0.1,0,0,-0.1,0,126)"/>
<path style=" stroke:none;fill-rule:nonzero;fill:rgb(0%,0%,0%);fill-opacity:1;" d="M 169.6875 98.605469 L 169.960938 98.585938 C 169.976562 98.714844 170.023438 98.816406 170.097656 98.882812 C 170.171875 98.949219 170.257812 98.984375 170.363281 98.984375 C 170.484375 98.984375 170.589844 98.9375 170.675781 98.839844 C 170.765625 98.746094 170.808594 98.621094 170.808594 98.46875 C 170.808594 98.324219 170.765625 98.207031 170.683594 98.121094 C 170.601562 98.035156 170.492188 97.992188 170.359375 97.992188 C 170.277344 97.992188 170.199219 98.011719 170.132812 98.050781 C 170.066406 98.089844 170.011719 98.136719 169.972656 98.195312 L 169.734375 98.164062 L 169.9375 97.085938 L 170.980469 97.085938 L 170.980469 97.332031 L 170.144531 97.332031 L 170.027344 97.898438 C 170.15625 97.808594 170.289062 97.765625 170.425781 97.765625 C 170.609375 97.765625 170.765625 97.828125 170.890625 97.953125 C 171.015625 98.082031 171.078125 98.246094 171.078125 98.449219 C 171.078125 98.636719 171.023438 98.800781 170.914062 98.9375 C 170.777344 99.109375 170.59375 99.195312 170.363281 99.195312 C 170.171875 99.195312 170.015625 99.140625 169.894531 99.035156 C 169.773438 98.925781 169.703125 98.785156 169.6875 98.605469 "/>
<path style="fill:none;stroke-width:10;stroke-linecap:butt;stroke-linejoin:miter;stroke:rgb(0%,0%,0%);stroke-opacity:1;stroke-miterlimit:10;" d="M 1700.78125 309.492188 L 1700.78125 300.703125 " transform="matrix(0.1,0,0,-0.1,0,126)"/>
<path style=" stroke:none;fill-rule:nonzero;fill:rgb(0%,0%,0%);fill-opacity:1;" d="M 199.1875 97.570312 L 198.933594 97.589844 C 198.910156 97.488281 198.875 97.414062 198.832031 97.371094 C 198.761719 97.296875 198.675781 97.261719 198.578125 97.261719 C 198.492188 97.261719 198.421875 97.28125 198.359375 97.328125 C 198.277344 97.390625 198.214844 97.476562 198.167969 97.589844 C 198.121094 97.703125 198.097656 97.863281 198.09375 98.074219 C 198.15625 97.980469 198.230469 97.910156 198.320312 97.863281 C 198.410156 97.820312 198.507812 97.796875 198.605469 97.796875 C 198.777344 97.796875 198.925781 97.859375 199.046875 97.984375 C 199.167969 98.113281 199.226562 98.277344 199.226562 98.472656 C 199.226562 98.605469 199.199219 98.726562 199.140625 98.839844 C 199.082031 98.953125 199.003906 99.042969 198.902344 99.101562 C 198.804688 99.164062 198.691406 99.195312 198.566406 99.195312 C 198.355469 99.195312 198.179688 99.113281 198.042969 98.957031 C 197.90625 98.796875 197.839844 98.535156 197.839844 98.175781 C 197.839844 97.769531 197.914062 97.472656 198.0625 97.289062 C 198.195312 97.128906 198.371094 97.046875 198.589844 97.046875 C 198.757812 97.046875 198.894531 97.09375 199 97.1875 C 199.105469 97.28125 199.167969 97.410156 199.1875 97.570312 Z M 198.136719 98.480469 C 198.136719 98.566406 198.15625 98.652344 198.191406 98.734375 C 198.226562 98.816406 198.28125 98.875 198.351562 98.917969 C 198.417969 98.960938 198.488281 98.984375 198.5625 98.984375 C 198.671875 98.984375 198.765625 98.9375 198.84375 98.851562 C 198.921875 98.761719 198.960938 98.644531 198.960938 98.492188 C 198.960938 98.347656 198.921875 98.230469 198.84375 98.148438 C 198.765625 98.0625 198.671875 98.019531 198.554688 98.019531 C 198.4375 98.019531 198.339844 98.0625 198.257812 98.148438 C 198.175781 98.230469 198.136719 98.34375 198.136719 98.480469 "/>
<path style="fill:none;stroke-width:10;stroke-linecap:butt;stroke-linejoin:miter;stroke:rgb(0%,0%,0%);stroke-opacity:1;stroke-miterlimit:10;" d="M 1984.257812 309.492188 L 1984.257812 300.703125 " transform="matrix(0.1,0,0,-0.1,0,126)"/>
<path style=" stroke:none;fill-rule:nonzero;fill:rgb(0%,0%,0%);fill-opacity:1;" d="M 23.621094 111.285156 L 23.621094 111.09375 L 24.785156 111.09375 L 24.785156 111.285156 Z M 26.027344 112.066406 L 25.769531 112.066406 L 25.769531 110.425781 C 25.710938 110.484375 25.628906 110.542969 25.527344 110.601562 C 25.425781 110.660156 25.335938 110.703125 25.257812 110.730469 L 25.257812 110.484375 C 25.402344 110.417969 25.527344 110.335938 25.636719 110.238281 C 25.742188 110.144531 25.820312 110.046875 25.863281 109.957031 L 26.027344 109.957031 L 26.027344 112.066406 "/>
<path style="fill:none;stroke-width:10;stroke-linecap:butt;stroke-linejoin:miter;stroke:rgb(0%,0%,0%);stroke-opacity:1;stroke-miterlimit:10;" d="M 274.648438 151.09375 L 283.476562 151.09375 " transform="matrix(0.1,0,0,-0.1,0,126)"/>
<path style=" stroke:none;fill-rule:nonzero;fill:rgb(0%,0%,0%);fill-opacity:1;" d="M 25.058594 93.425781 C 25.058594 93.179688 25.085938 92.980469 25.136719 92.828125 C 25.1875 92.679688 25.261719 92.5625 25.363281 92.480469 C 25.464844 92.398438 25.589844 92.355469 25.742188 92.355469 C 25.855469 92.355469 25.953125 92.378906 26.039062 92.421875 C 26.121094 92.46875 26.191406 92.535156 26.25 92.621094 C 26.304688 92.707031 26.347656 92.808594 26.378906 92.933594 C 26.410156 93.054688 26.425781 93.21875 26.425781 93.425781 C 26.425781 93.675781 26.402344 93.875 26.351562 94.027344 C 26.300781 94.175781 26.222656 94.292969 26.125 94.375 C 26.023438 94.460938 25.894531 94.5 25.742188 94.5 C 25.539062 94.5 25.382812 94.425781 25.265625 94.28125 C 25.128906 94.105469 25.058594 93.820312 25.058594 93.425781 Z M 25.320312 93.425781 C 25.320312 93.773438 25.363281 94.003906 25.441406 94.117188 C 25.523438 94.230469 25.625 94.289062 25.742188 94.289062 C 25.863281 94.289062 25.960938 94.230469 26.042969 94.117188 C 26.125 94.003906 26.164062 93.773438 26.164062 93.425781 C 26.164062 93.082031 26.125 92.851562 26.042969 92.738281 C 25.960938 92.628906 25.859375 92.570312 25.738281 92.570312 C 25.621094 92.570312 25.527344 92.621094 25.453125 92.71875 C 25.367188 92.84375 25.320312 93.082031 25.320312 93.425781 "/>
<path style=" stroke:none;fill-rule:nonzero;fill:rgb(0%,0%,0%);fill-opacity:1;" d="M 26.027344 80.382812 L 25.769531 80.382812 L 25.769531 78.742188 C 25.710938 78.800781 25.628906 78.859375 25.527344 78.917969 C 25.425781 78.976562 25.335938 79.019531 25.257812 79.046875 L 25.257812 78.800781 C 25.402344 78.734375 25.527344 78.652344 25.636719 78.554688 C 25.742188 78.460938 25.820312 78.363281 25.863281 78.273438 L 26.027344 78.273438 L 26.027344 80.382812 "/>
<path style="fill:none;stroke-width:10;stroke-linecap:butt;stroke-linejoin:miter;stroke:rgb(0%,0%,0%);stroke-opacity:1;stroke-miterlimit:10;" d="M 274.648438 467.929688 L 283.476562 467.929688 " transform="matrix(0.1,0,0,-0.1,0,126)"/>
<path style=" stroke:none;fill-rule:nonzero;fill:rgb(0%,0%,0%);fill-opacity:1;" d="M 26.410156 64.292969 L 26.410156 64.539062 L 25.023438 64.539062 C 25.023438 64.480469 25.035156 64.417969 25.054688 64.363281 C 25.09375 64.265625 25.148438 64.171875 25.226562 64.082031 C 25.300781 63.988281 25.414062 63.886719 25.5625 63.765625 C 25.789062 63.578125 25.945312 63.425781 26.023438 63.320312 C 26.105469 63.210938 26.144531 63.105469 26.144531 63.007812 C 26.144531 62.90625 26.109375 62.820312 26.035156 62.75 C 25.964844 62.679688 25.867188 62.648438 25.753906 62.648438 C 25.625 62.648438 25.527344 62.683594 25.453125 62.757812 C 25.378906 62.832031 25.339844 62.933594 25.339844 63.066406 L 25.074219 63.035156 C 25.09375 62.839844 25.160156 62.691406 25.277344 62.589844 C 25.394531 62.484375 25.554688 62.433594 25.757812 62.433594 C 25.957031 62.433594 26.117188 62.488281 26.234375 62.597656 C 26.351562 62.710938 26.410156 62.847656 26.410156 63.015625 C 26.410156 63.097656 26.394531 63.183594 26.359375 63.265625 C 26.324219 63.34375 26.265625 63.429688 26.1875 63.519531 C 26.109375 63.609375 25.976562 63.734375 25.789062 63.890625 C 25.636719 64.019531 25.539062 64.105469 25.492188 64.152344 C 25.449219 64.199219 25.414062 64.246094 25.386719 64.292969 L 26.410156 64.292969 "/>
<path style="fill:none;stroke-width:10;stroke-linecap:butt;stroke-linejoin:miter;stroke:rgb(0%,0%,0%);stroke-opacity:1;stroke-miterlimit:10;" d="M 274.648438 626.328125 L 283.476562 626.328125 " transform="matrix(0.1,0,0,-0.1,0,126)"/>
<path style=" stroke:none;fill-rule:nonzero;fill:rgb(0%,0%,0%);fill-opacity:1;" d="M 25.058594 48.144531 L 25.316406 48.113281 C 25.347656 48.253906 25.398438 48.359375 25.46875 48.425781 C 25.539062 48.492188 25.625 48.523438 25.730469 48.523438 C 25.851562 48.523438 25.953125 48.480469 26.035156 48.398438 C 26.117188 48.316406 26.160156 48.210938 26.160156 48.085938 C 26.160156 47.964844 26.121094 47.867188 26.046875 47.789062 C 25.96875 47.714844 25.871094 47.675781 25.753906 47.675781 C 25.703125 47.675781 25.640625 47.683594 25.570312 47.703125 L 25.597656 47.480469 C 25.613281 47.480469 25.628906 47.480469 25.636719 47.480469 C 25.746094 47.480469 25.847656 47.453125 25.933594 47.394531 C 26.023438 47.339844 26.070312 47.25 26.070312 47.132812 C 26.070312 47.035156 26.035156 46.957031 25.972656 46.894531 C 25.90625 46.832031 25.824219 46.800781 25.722656 46.800781 C 25.625 46.800781 25.539062 46.832031 25.472656 46.894531 C 25.40625 46.957031 25.363281 47.054688 25.34375 47.179688 L 25.085938 47.136719 C 25.117188 46.960938 25.1875 46.828125 25.300781 46.730469 C 25.410156 46.636719 25.550781 46.589844 25.714844 46.589844 C 25.832031 46.589844 25.9375 46.613281 26.035156 46.664062 C 26.128906 46.710938 26.203125 46.78125 26.253906 46.863281 C 26.304688 46.949219 26.328125 47.039062 26.328125 47.136719 C 26.328125 47.226562 26.304688 47.308594 26.257812 47.382812 C 26.210938 47.457031 26.140625 47.515625 26.039062 47.5625 C 26.164062 47.589844 26.261719 47.648438 26.332031 47.738281 C 26.402344 47.828125 26.433594 47.941406 26.433594 48.078125 C 26.433594 48.261719 26.367188 48.417969 26.234375 48.546875 C 26.097656 48.671875 25.929688 48.734375 25.730469 48.734375 C 25.542969 48.734375 25.390625 48.679688 25.269531 48.570312 C 25.148438 48.460938 25.078125 48.320312 25.058594 48.144531 "/>
<path style="fill:none;stroke-width:10;stroke-linecap:butt;stroke-linejoin:miter;stroke:rgb(0%,0%,0%);stroke-opacity:1;stroke-miterlimit:10;" d="M 274.648438 784.726562 L 283.476562 784.726562 " transform="matrix(0.1,0,0,-0.1,0,126)"/>
<path style=" stroke:none;fill-rule:nonzero;fill:rgb(0%,0%,0%);fill-opacity:1;" d="M 25.886719 32.855469 L 25.886719 32.351562 L 24.972656 32.351562 L 24.972656 32.117188 L 25.929688 30.757812 L 26.140625 30.757812 L 26.140625 32.117188 L 26.425781 32.117188 L 26.425781 32.351562 L 26.140625 32.351562 L 26.140625 32.855469 Z M 25.886719 32.117188 L 25.886719 31.167969 L 25.226562 32.117188 L 25.886719 32.117188 "/>
<path style="fill:none;stroke-width:10;stroke-linecap:butt;stroke-linejoin:miter;stroke:rgb(0%,0%,0%);stroke-opacity:1;stroke-miterlimit:10;" d="M 274.648438 943.164062 L 283.476562 943.164062 " transform="matrix(0.1,0,0,-0.1,0,126)"/>
<path style=" stroke:none;fill-rule:nonzero;fill:rgb(0%,0%,0%);fill-opacity:1;" d="M 25.058594 16.464844 L 25.332031 16.441406 C 25.347656 16.574219 25.394531 16.671875 25.46875 16.738281 C 25.539062 16.808594 25.628906 16.839844 25.734375 16.839844 C 25.855469 16.839844 25.960938 16.792969 26.046875 16.699219 C 26.136719 16.605469 26.179688 16.480469 26.179688 16.328125 C 26.179688 16.179688 26.136719 16.066406 26.054688 15.980469 C 25.972656 15.894531 25.863281 15.851562 25.730469 15.851562 C 25.648438 15.851562 25.570312 15.871094 25.503906 15.90625 C 25.4375 15.945312 25.382812 15.996094 25.34375 16.054688 L 25.105469 16.019531 L 25.308594 14.941406 L 26.351562 14.941406 L 26.351562 15.191406 L 25.515625 15.191406 L 25.398438 15.753906 C 25.527344 15.664062 25.660156 15.621094 25.796875 15.621094 C 25.980469 15.621094 26.136719 15.683594 26.261719 15.8125 C 26.386719 15.9375 26.449219 16.101562 26.449219 16.304688 C 26.449219 16.492188 26.394531 16.65625 26.285156 16.796875 C 26.148438 16.964844 25.964844 17.050781 25.734375 17.050781 C 25.539062 17.050781 25.382812 16.996094 25.265625 16.890625 C 25.144531 16.785156 25.074219 16.640625 25.058594 16.464844 "/>
<path style="fill:none;stroke-width:10;stroke-linecap:butt;stroke-linejoin:miter;stroke:rgb(0%,0%,0%);stroke-opacity:1;stroke-miterlimit:10;" d="M 274.648438 1101.5625 L 283.476562 1101.5625 " transform="matrix(0.1,0,0,-0.1,0,126)"/>
<path style="fill:none;stroke-width:10;stroke-linecap:round;stroke-linejoin:round;stroke:rgb(75.389099%,75.389099%,75.389099%);stroke-opacity:1;stroke-miterlimit:10;" d="M 0 1260 L 0 -7.34375 " transform="matrix(0.1,0,0,-0.1,0,126)"/>
<path style="fill:none;stroke-width:10;stroke-linecap:round;stroke-linejoin:round;stroke:rgb(75.389099%,75.389099%,75.389099%);stroke-opacity:1;stroke-miterlimit:10;" d="M 566.914062 1260 L 566.914062 309.492188 " transform="matrix(0.1,0,0,-0.1,0,126)"/>
<path style="fill:none;stroke-width:10;stroke-linecap:round;stroke-linejoin:round;stroke:rgb(75.389099%,75.389099%,75.389099%);stroke-opacity:1;stroke-miterlimit:10;" d="M 566.914062 253.75 L 566.914062 -7.34375 " transform="matrix(0.1,0,0,-0.1,0,126)"/>
<path style="fill:none;stroke-width:10;stroke-linecap:round;stroke-linejoin:round;stroke:rgb(75.389099%,75.389099%,75.389099%);stroke-opacity:1;stroke-miterlimit:10;" d="M 850.390625 1260 L 850.390625 309.492188 " transform="matrix(0.1,0,0,-0.1,0,126)"/>
<path style="fill:none;stroke-width:10;stroke-linecap:round;stroke-linejoin:round;stroke:rgb(75.389099%,75.389099%,75.389099%);stroke-opacity:1;stroke-miterlimit:10;" d="M 850.390625 253.75 L 850.390625 -7.34375 " transform="matrix(0.1,0,0,-0.1,0,126)"/>
<path style="fill:none;stroke-width:10;stroke-linecap:round;stroke-linejoin:round;stroke:rgb(75.389099%,75.389099%,75.389099%);stroke-opacity:1;stroke-miterlimit:10;" d="M 1133.867188 1260 L 1133.867188 309.492188 " transform="matrix(0.1,0,0,-0.1,0,126)"/>
<path style="fill:none;stroke-width:10;stroke-linecap:round;stroke-linejoin:round;stroke:rgb(75.389099%,75.389099%,75.389099%);stroke-opacity:1;stroke-miterlimit:10;" d="M 1133.867188 253.75 L 1133.867188 -7.34375 " transform="matrix(0.1,0,0,-0.1,0,126)"/>
<path style="fill:none;stroke-width:10;stroke-linecap:round;stroke-linejoin:round;stroke:rgb(75.389099%,75.389099%,75.389099%);stroke-opacity:1;stroke-miterlimit:10;" d="M 1417.304688 1260 L 1417.304688 309.492188 " transform="matrix(0.1,0,0,-0.1,0,126)"/>
<path style="fill:none;stroke-width:10;stroke-linecap:round;stroke-linejoin:round;stroke:rgb(75.389099%,75.389099%,75.389099%);stroke-opacity:1;stroke-miterlimit:10;" d="M 1417.304688 253.75 L 1417.304688 -7.34375 " transform="matrix(0.1,0,0,-0.1,0,126)"/>
<path style="fill:none;stroke-width:10;stroke-linecap:round;stroke-linejoin:round;stroke:rgb(75.389099%,75.389099%,75.389099%);stroke-opacity:1;stroke-miterlimit:10;" d="M 1700.78125 1260 L 1700.78125 309.492188 " transform="matrix(0.1,0,0,-0.1,0,126)"/>
<path style="fill:none;stroke-width:10;stroke-linecap:round;stroke-linejoin:round;stroke:rgb(75.389099%,75.389099%,75.389099%);stroke-opacity:1;stroke-miterlimit:10;" d="M 1700.78125 253.75 L 1700.78125 -7.34375 " transform="matrix(0.1,0,0,-0.1,0,126)"/>
<path style="fill:none;stroke-width:10;stroke-linecap:round;stroke-linejoin:round;stroke:rgb(75.389099%,75.389099%,75.389099%);stroke-opacity:1;stroke-miterlimit:10;" d="M 1984.257812 1260 L 1984.257812 309.492188 " transform="matrix(0.1,0,0,-0.1,0,126)"/>
<path style="fill:none;stroke-width:10;stroke-linecap:round;stroke-linejoin:round;stroke:rgb(75.389099%,75.389099%,75.389099%);stroke-opacity:1;stroke-miterlimit:10;" d="M 1984.257812 253.75 L 1984.257812 -7.34375 " transform="matrix(0.1,0,0,-0.1,0,126)"/>
<path style="fill:none;stroke-width:10;stroke-linecap:round;stroke-linejoin:round;stroke:rgb(75.389099%,75.389099%,75.389099%);stroke-opacity:1;stroke-miterlimit:10;" d="M 0 1260 L 2267.695312 1260 " transform="matrix(0.1,0,0,-0.1,0,126)"/>
<path style="fill:none;stroke-width:10;stroke-linecap:round;stroke-linejoin:round;stroke:rgb(75.389099%,75.389099%,75.389099%);stroke-opacity:1;stroke-miterlimit:10;" d="M 0 1260 L 2267.695312 1260 " transform="matrix(0.1,0,0,-0.1,0,126)"/>
<path style="fill:none;stroke-width:10;stroke-linecap:round;stroke-linejoin:round;stroke:rgb(75.389099%,75.389099%,75.389099%);stroke-opacity:1;stroke-miterlimit:10;" d="M 0 1101.5625 L 237.8125 1101.5625 " transform="matrix(0.1,0,0,-0.1,0,126)"/>
<path style="fill:none;stroke-width:10;stroke-linecap:round;stroke-linejoin:round;stroke:rgb(75.389099%,75.389099%,75.389099%);stroke-opacity:1;stroke-miterlimit:10;" d="M 283.476562 1101.5625 L 2267.695312 1101.5625 " transform="matrix(0.1,0,0,-0.1,0,126)"/>
<path style="fill:none;stroke-width:10;stroke-linecap:round;stroke-linejoin:round;stroke:rgb(75.389099%,75.389099%,75.389099%);stroke-opacity:1;stroke-miterlimit:10;" d="M 0 943.164062 L 237.8125 943.164062 " transform="matrix(0.1,0,0,-0.1,0,126)"/>
<path style="fill:none;stroke-width:10;stroke-linecap:round;stroke-linejoin:round;stroke:rgb(75.389099%,75.389099%,75.389099%);stroke-opacity:1;stroke-miterlimit:10;" d="M 283.476562 943.164062 L 2267.695312 943.164062 " transform="matrix(0.1,0,0,-0.1,0,126)"/>
<path style="fill:none;stroke-width:10;stroke-linecap:round;stroke-linejoin:round;stroke:rgb(75.389099%,75.389099%,75.389099%);stroke-opacity:1;stroke-miterlimit:10;" d="M 0 784.726562 L 237.8125 784.726562 " transform="matrix(0.1,0,0,-0.1,0,126)"/>
<path style="fill:none;stroke-width:10;stroke-linecap:round;stroke-linejoin:round;stroke:rgb(75.389099%,75.389099%,75.389099%);stroke-opacity:1;stroke-miterlimit:10;" d="M 283.476562 784.726562 L 2267.695312 784.726562 " transform="matrix(0.1,0,0,-0.1,0,126)"/>
<path style="fill:none;stroke-width:10;stroke-linecap:round;stroke-linejoin:round;stroke:rgb(75.389099%,75.389099%,75.389099%);stroke-opacity:1;stroke-miterlimit:10;" d="M 0 626.328125 L 237.8125 626.328125 " transform="matrix(0.1,0,0,-0.1,0,126)"/>
<path style="fill:none;stroke-width:10;stroke-linecap:round;stroke-linejoin:round;stroke:rgb(75.389099%,75.389099%,75.389099%);stroke-opacity:1;stroke-miterlimit:10;" d="M 283.476562 626.328125 L 2267.695312 626.328125 " transform="matrix(0.1,0,0,-0.1,0,126)"/>
<path style="fill:none;stroke-width:10;stroke-linecap:round;stroke-linejoin:round;stroke:rgb(75.389099%,75.389099%,75.389099%);stroke-opacity:1;stroke-miterlimit:10;" d="M 0 467.929688 L 237.8125 467.929688 " transform="matrix(0.1,0,0,-0.1,0,126)"/>
<path style="fill:none;stroke-width:10;stroke-linecap:round;stroke-linejoin:round;stroke:rgb(75.389099%,75.389099%,75.389099%);stroke-opacity:1;stroke-miterlimit:10;" d="M 283.476562 467.929688 L 2267.695312 467.929688 " transform="matrix(0.1,0,0,-0.1,0,126)"/>
<path style="fill:none;stroke-width:10;stroke-linecap:round;stroke-linejoin:round;stroke:rgb(75.389099%,75.389099%,75.389099%);stroke-opacity:1;stroke-miterlimit:10;" d="M 0 151.09375 L 223.164062 151.09375 " transform="matrix(0.1,0,0,-0.1,0,126)"/>
<path style="fill:none;stroke-width:10;stroke-linecap:round;stroke-linejoin:round;stroke:rgb(75.389099%,75.389099%,75.389099%);stroke-opacity:1;stroke-miterlimit:10;" d="M 283.476562 151.09375 L 2267.695312 151.09375 " transform="matrix(0.1,0,0,-0.1,0,126)"/>
<path style="fill:none;stroke-width:10;stroke-linecap:round;stroke-linejoin:round;stroke:rgb(0%,0%,0%);stroke-opacity:1;stroke-miterlimit:10;" d="M -11.328125 30.625 L 11.328125 -45.3125 M -23.046875 183.28125 L 23.046875 118.867188 M -39.609375 309.492188 L 39.609375 309.492188 M -30.351562 442.460938 L 30.351562 493.359375 M -26.40625 596.796875 L 26.40625 655.859375 M -30.351562 759.296875 L 30.351562 810.195312 M -39.609375 943.164062 L 39.609375 943.164062 M -23.046875 1133.789062 L 23.046875 1069.375 M -11.328125 1297.96875 L 11.328125 1222.03125 M 272.148438 30.625 L 294.765625 -45.3125 M 260.429688 183.28125 L 306.523438 118.867188 M 243.867188 309.492188 L 323.085938 309.492188 M 253.125 442.460938 L 313.828125 493.359375 M 257.070312 596.796875 L 309.882812 655.859375 M 253.125 759.296875 L 313.828125 810.195312 M 243.867188 943.164062 L 323.085938 943.164062 M 260.429688 1133.789062 L 306.523438 1069.375 M 272.148438 1297.96875 L 294.765625 1222.03125 M 555.625 30.625 L 578.242188 -45.3125 M 543.867188 183.28125 L 589.960938 118.867188 M 527.304688 309.492188 L 606.523438 309.492188 M 536.5625 442.460938 L 597.265625 493.359375 M 540.507812 596.796875 L 593.320312 655.859375 M 536.5625 759.296875 L 597.265625 810.195312 M 527.304688 943.164062 L 606.523438 943.164062 M 543.867188 1133.789062 L 589.960938 1069.375 M 555.625 1297.96875 L 578.242188 1222.03125 M 839.0625 30.625 L 861.71875 -45.3125 M 827.34375 183.28125 L 873.4375 118.867188 M 810.78125 309.492188 L 890 309.492188 M 820.039062 442.460938 L 880.742188 493.359375 M 823.984375 596.796875 L 876.796875 655.859375 M 820.039062 759.296875 L 880.742188 810.195312 M 810.78125 943.164062 L 890 943.164062 M 827.34375 1133.789062 L 873.4375 1069.375 M 839.0625 1297.96875 L 861.71875 1222.03125 M 1122.539062 30.625 L 1145.195312 -45.3125 M 1110.820312 183.28125 L 1156.914062 118.867188 M 1094.257812 309.492188 L 1173.476562 309.492188 M 1103.515625 442.460938 L 1164.21875 493.359375 M 1107.460938 596.796875 L 1160.273438 655.859375 M 1103.515625 759.296875 L 1164.21875 810.195312 M 1094.257812 943.164062 L 1173.476562 943.164062 M 1110.820312 1133.789062 L 1156.914062 1069.375 M 1122.539062 1297.96875 L 1145.195312 1222.03125 M 1406.015625 30.625 L 1428.632812 -45.3125 M 1394.257812 183.28125 L 1440.390625 118.867188 M 1377.734375 309.492188 L 1456.914062 309.492188 M 1386.953125 442.460938 L 1447.65625 493.359375 M 1390.898438 596.796875 L 1443.710938 655.859375 M 1386.953125 759.296875 L 1447.65625 810.195312 M 1377.734375 943.164062 L 1456.914062 943.164062 M 1394.257812 1133.789062 L 1440.390625 1069.375 M 1406.015625 1297.96875 L 1428.632812 1222.03125 M 1689.453125 30.625 L 1712.109375 -45.3125 M 1677.734375 183.28125 L 1723.828125 118.867188 M 1661.171875 309.492188 L 1740.390625 309.492188 M 1670.429688 442.460938 L 1731.132812 493.359375 M 1674.375 596.796875 L 1727.1875 655.859375 M 1670.429688 759.296875 L 1731.132812 810.195312 M 1661.171875 943.164062 L 1740.390625 943.164062 M 1677.734375 1133.789062 L 1723.828125 1069.375 M 1689.453125 1297.96875 L 1712.109375 1222.03125 M 1972.929688 30.625 L 1995.585938 -45.3125 M 1961.210938 183.28125 L 2007.304688 118.867188 M 1944.648438 309.492188 L 2023.867188 309.492188 M 1953.90625 442.460938 L 2014.609375 493.359375 M 1957.851562 596.796875 L 2010.664062 655.859375 M 1953.90625 759.296875 L 2014.609375 810.195312 M 1944.648438 943.164062 L 2023.867188 943.164062 M 1961.210938 1133.789062 L 2007.304688 1069.375 M 1972.929688 1297.96875 L 1995.585938 1222.03125 M 2256.40625 30.625 L 2279.023438 -45.3125 M 2244.6875 183.28125 L 2290.78125 118.867188 M 2228.125 309.492188 L 2307.304688 309.492188 M 2237.382812 442.460938 L 2298.085938 493.359375 M 2241.328125 596.796875 L 2294.140625 655.859375 M 2237.382812 759.296875 L 2298.085938 810.195312 M 2228.125 943.164062 L 2307.304688 943.164062 M 2244.6875 1133.789062 L 2290.78125 1069.375 M 2256.40625 1297.96875 L 2279.023438 1222.03125 " transform="matrix(0.1,0,0,-0.1,0,126)"/>
<path style=" stroke:none;fill-rule:nonzero;fill:rgb(0%,0%,0%);fill-opacity:1;" d="M 37.574219 6.015625 L 36.832031 8.984375 C 36.664062 9.480469 36.378906 9.890625 35.964844 10.222656 C 35.636719 10.46875 35.304688 10.59375 34.972656 10.59375 C 34.644531 10.59375 34.398438 10.46875 34.230469 10.222656 C 34.148438 10.140625 34.109375 10.058594 34.109375 9.976562 C 34.109375 9.644531 34.230469 9.480469 34.480469 9.480469 C 34.480469 9.398438 34.519531 9.355469 34.601562 9.355469 C 34.769531 9.355469 34.851562 9.4375 34.851562 9.601562 C 34.851562 9.601562 34.851562 9.644531 34.851562 9.726562 C 34.851562 9.808594 34.808594 9.890625 34.726562 9.976562 C 34.644531 10.058594 34.519531 10.097656 34.355469 10.097656 C 34.4375 10.347656 34.644531 10.46875 34.972656 10.46875 C 35.304688 10.46875 35.59375 10.304688 35.839844 9.976562 C 36.089844 9.644531 36.253906 9.273438 36.335938 8.859375 C 36.335938 8.777344 36.335938 8.738281 36.335938 8.738281 C 36.089844 8.984375 35.839844 9.109375 35.59375 9.109375 C 35.179688 9.109375 34.890625 8.941406 34.726562 8.613281 C 34.644531 8.449219 34.601562 8.28125 34.601562 8.117188 C 34.601562 7.871094 34.726562 7.335938 34.972656 6.507812 C 34.972656 6.507812 35.015625 6.507812 35.097656 6.507812 C 35.179688 6.261719 35.222656 6.054688 35.222656 5.890625 C 35.222656 5.726562 35.140625 5.644531 34.972656 5.644531 C 34.726562 5.644531 34.480469 5.890625 34.230469 6.386719 C 34.230469 6.46875 34.230469 6.550781 34.230469 6.632812 C 34.148438 6.714844 34.109375 6.757812 34.109375 6.757812 C 34.027344 6.757812 33.984375 6.757812 33.984375 6.757812 C 33.984375 6.589844 34.027344 6.425781 34.109375 6.261719 C 34.355469 5.765625 34.644531 5.519531 34.972656 5.519531 C 35.304688 5.519531 35.511719 5.644531 35.59375 5.890625 C 35.675781 5.972656 35.71875 6.054688 35.71875 6.136719 C 35.71875 6.21875 35.636719 6.425781 35.46875 6.757812 C 35.222656 7.417969 35.097656 7.910156 35.097656 8.242188 C 35.097656 8.652344 35.261719 8.859375 35.59375 8.859375 C 35.921875 8.859375 36.171875 8.695312 36.335938 8.367188 C 36.417969 8.28125 36.460938 8.242188 36.460938 8.242188 L 36.832031 6.757812 C 36.914062 6.589844 36.957031 6.386719 36.957031 6.136719 C 37.039062 5.890625 37.078125 5.765625 37.078125 5.765625 C 37.160156 5.601562 37.285156 5.519531 37.449219 5.519531 C 37.53125 5.601562 37.574219 5.683594 37.574219 5.765625 C 37.574219 5.847656 37.574219 5.933594 37.574219 6.015625 "/>
<path style=" stroke:none;fill-rule:nonzero;fill:rgb(0%,0%,0%);fill-opacity:1;" d="M 218.113281 88.195312 L 217.492188 90.546875 C 217.492188 90.714844 217.492188 90.835938 217.492188 90.917969 C 217.492188 91.167969 217.578125 91.289062 217.742188 91.289062 C 218.070312 91.289062 218.359375 91.042969 218.609375 90.546875 L 218.730469 90.300781 C 218.8125 90.21875 218.855469 90.175781 218.855469 90.175781 C 218.9375 90.175781 218.980469 90.21875 218.980469 90.300781 C 218.980469 90.382812 218.894531 90.507812 218.730469 90.671875 C 218.484375 91.25 218.152344 91.539062 217.742188 91.539062 C 217.410156 91.539062 217.203125 91.414062 217.121094 91.167969 C 217.039062 91.003906 217 90.878906 217 90.796875 C 217 90.714844 217.164062 90.011719 217.492188 88.691406 L 217.617188 88.195312 L 216.875 88.195312 C 216.792969 88.195312 216.753906 88.195312 216.753906 88.195312 L 216.628906 88.195312 C 216.628906 88.113281 216.667969 88.03125 216.753906 87.949219 L 217.617188 87.949219 L 217.988281 86.710938 C 217.988281 86.546875 218.070312 86.464844 218.238281 86.464844 C 218.402344 86.464844 218.484375 86.546875 218.484375 86.710938 C 218.484375 86.710938 218.402344 87.125 218.238281 87.949219 L 218.855469 87.949219 C 219.019531 87.949219 219.101562 87.992188 219.101562 88.074219 C 219.101562 88.15625 219.0625 88.195312 218.980469 88.195312 L 218.113281 88.195312 "/>
</g>
</svg>
