<?xml version="1.0" encoding="UTF-8"?>
<svg xmlns="http://www.w3.org/2000/svg" xmlns:xlink="http://www.w3.org/1999/xlink" width="257pt" height="255pt" viewBox="0 0 257 255" version="1.1">
<g id="surface1">
<rect x="0" y="0" width="257" height="255" style="fill:rgb(100%,100%,100%);fill-opacity:1;stroke:none;"/>
<path style="fill:none;stroke-width:10;stroke-linecap:round;stroke-linejoin:round;stroke:rgb(75.389099%,75.389099%,75.389099%);stroke-opacity:1;stroke-miterlimit:10;" d="M 723.359375 3150.898438 L 723.359375 -606.640625 " transform="matrix(0.1,0,0,-0.1,0,255)"/>
<path style="fill:none;stroke-width:10;stroke-linecap:round;stroke-linejoin:round;stroke:rgb(75.389099%,75.389099%,75.389099%);stroke-opacity:1;stroke-miterlimit:10;" d="M 1290.273438 3150.898438 L 1290.273438 -606.640625 " transform="matrix(0.1,0,0,-0.1,0,255)"/>
<path style="fill:none;stroke-width:10;stroke-linecap:round;stroke-linejoin:round;stroke:rgb(75.389099%,75.389099%,75.389099%);stroke-opacity:1;stroke-miterlimit:10;" d="M 1857.226562 3150.898438 L 1857.226562 -606.640625 " transform="matrix(0.1,0,0,-0.1,0,255)"/>
<path style="fill:none;stroke-width:10;stroke-linecap:round;stroke-linejoin:round;stroke:rgb(75.389099%,75.389099%,75.389099%);stroke-opacity:1;stroke-miterlimit:10;" d="M 2424.140625 3150.898438 L 2424.140625 -606.640625 " transform="matrix(0.1,0,0,-0.1,0,255)"/>
<path style="fill:none;stroke-width:10;stroke-linecap:round;stroke-linejoin:round;stroke:rgb(94.139099%,94.139099%,94.139099%);stroke-opacity:1;stroke-miterlimit:10;" d="M 43.046875 3150.898438 L 43.046875 -606.640625 " transform="matrix(0.1,0,0,-0.1,0,255)"/>
<path style="fill:none;stroke-width:10;stroke-linecap:round;stroke-linejoin:round;stroke:rgb(94.139099%,94.139099%,94.139099%);stroke-opacity:1;stroke-miterlimit:10;" d="M 269.804688 3150.898438 L 269.804688 -606.640625 " transform="matrix(0.1,0,0,-0.1,0,255)"/>
<path style="fill:none;stroke-width:10;stroke-linecap:round;stroke-linejoin:round;stroke:rgb(94.139099%,94.139099%,94.139099%);stroke-opacity:1;stroke-miterlimit:10;" d="M 383.203125 3150.898438 L 383.203125 -606.640625 " transform="matrix(0.1,0,0,-0.1,0,255)"/>
<path style="fill:none;stroke-width:10;stroke-linecap:round;stroke-linejoin:round;stroke:rgb(94.139099%,94.139099%,94.139099%);stroke-opacity:1;stroke-miterlimit:10;" d="M 496.601562 3150.898438 L 496.601562 -606.640625 " transform="matrix(0.1,0,0,-0.1,0,255)"/>
<path style="fill:none;stroke-width:10;stroke-linecap:round;stroke-linejoin:round;stroke:rgb(94.139099%,94.139099%,94.139099%);stroke-opacity:1;stroke-miterlimit:10;" d="M 609.960938 3150.898438 L 609.960938 -606.640625 " transform="matrix(0.1,0,0,-0.1,0,255)"/>
<path style="fill:none;stroke-width:10;stroke-linecap:round;stroke-linejoin:round;stroke:rgb(94.139099%,94.139099%,94.139099%);stroke-opacity:1;stroke-miterlimit:10;" d="M 836.757812 3150.898438 L 836.757812 -606.640625 " transform="matrix(0.1,0,0,-0.1,0,255)"/>
<path style="fill:none;stroke-width:10;stroke-linecap:round;stroke-linejoin:round;stroke:rgb(94.139099%,94.139099%,94.139099%);stroke-opacity:1;stroke-miterlimit:10;" d="M 950.15625 3150.898438 L 950.15625 -606.640625 " transform="matrix(0.1,0,0,-0.1,0,255)"/>
<path style="fill:none;stroke-width:10;stroke-linecap:round;stroke-linejoin:round;stroke:rgb(94.139099%,94.139099%,94.139099%);stroke-opacity:1;stroke-miterlimit:10;" d="M 1063.515625 3150.898438 L 1063.515625 -606.640625 " transform="matrix(0.1,0,0,-0.1,0,255)"/>
<path style="fill:none;stroke-width:10;stroke-linecap:round;stroke-linejoin:round;stroke:rgb(94.139099%,94.139099%,94.139099%);stroke-opacity:1;stroke-miterlimit:10;" d="M 1176.914062 3150.898438 L 1176.914062 -606.640625 " transform="matrix(0.1,0,0,-0.1,0,255)"/>
<path style="fill:none;stroke-width:10;stroke-linecap:round;stroke-linejoin:round;stroke:rgb(94.139099%,94.139099%,94.139099%);stroke-opacity:1;stroke-miterlimit:10;" d="M 1403.671875 3150.898438 L 1403.671875 -606.640625 " transform="matrix(0.1,0,0,-0.1,0,255)"/>
<path style="fill:none;stroke-width:10;stroke-linecap:round;stroke-linejoin:round;stroke:rgb(94.139099%,94.139099%,94.139099%);stroke-opacity:1;stroke-miterlimit:10;" d="M 1517.070312 3150.898438 L 1517.070312 -606.640625 " transform="matrix(0.1,0,0,-0.1,0,255)"/>
<path style="fill:none;stroke-width:10;stroke-linecap:round;stroke-linejoin:round;stroke:rgb(94.139099%,94.139099%,94.139099%);stroke-opacity:1;stroke-miterlimit:10;" d="M 1630.46875 3150.898438 L 1630.46875 -606.640625 " transform="matrix(0.1,0,0,-0.1,0,255)"/>
<path style="fill:none;stroke-width:10;stroke-linecap:round;stroke-linejoin:round;stroke:rgb(94.139099%,94.139099%,94.139099%);stroke-opacity:1;stroke-miterlimit:10;" d="M 1743.828125 3150.898438 L 1743.828125 -606.640625 " transform="matrix(0.1,0,0,-0.1,0,255)"/>
<path style="fill:none;stroke-width:10;stroke-linecap:round;stroke-linejoin:round;stroke:rgb(94.139099%,94.139099%,94.139099%);stroke-opacity:1;stroke-miterlimit:10;" d="M 1970.625 3150.898438 L 1970.625 -606.640625 " transform="matrix(0.1,0,0,-0.1,0,255)"/>
<path style="fill:none;stroke-width:10;stroke-linecap:round;stroke-linejoin:round;stroke:rgb(94.139099%,94.139099%,94.139099%);stroke-opacity:1;stroke-miterlimit:10;" d="M 2083.984375 3150.898438 L 2083.984375 -606.640625 " transform="matrix(0.1,0,0,-0.1,0,255)"/>
<path style="fill:none;stroke-width:10;stroke-linecap:round;stroke-linejoin:round;stroke:rgb(94.139099%,94.139099%,94.139099%);stroke-opacity:1;stroke-miterlimit:10;" d="M 2197.382812 3150.898438 L 2197.382812 -606.640625 " transform="matrix(0.1,0,0,-0.1,0,255)"/>
<path style="fill:none;stroke-width:10;stroke-linecap:round;stroke-linejoin:round;stroke:rgb(94.139099%,94.139099%,94.139099%);stroke-opacity:1;stroke-miterlimit:10;" d="M 2310.78125 3150.898438 L 2310.78125 -606.640625 " transform="matrix(0.1,0,0,-0.1,0,255)"/>
<path style="fill:none;stroke-width:10;stroke-linecap:round;stroke-linejoin:round;stroke:rgb(94.139099%,94.139099%,94.139099%);stroke-opacity:1;stroke-miterlimit:10;" d="M 2537.539062 3150.898438 L 2537.539062 -606.640625 " transform="matrix(0.1,0,0,-0.1,0,255)"/>
<path style="fill:none;stroke-width:10;stroke-linecap:round;stroke-linejoin:round;stroke:rgb(75.389099%,75.389099%,75.389099%);stroke-opacity:1;stroke-miterlimit:10;" d="M -624.921875 2417.070312 L 4021.914062 2417.070312 " transform="matrix(0.1,0,0,-0.1,0,255)"/>
<path style="fill:none;stroke-width:10;stroke-linecap:round;stroke-linejoin:round;stroke:rgb(75.389099%,75.389099%,75.389099%);stroke-opacity:1;stroke-miterlimit:10;" d="M -624.921875 1850.15625 L 4021.914062 1850.15625 " transform="matrix(0.1,0,0,-0.1,0,255)"/>
<path style="fill:none;stroke-width:10;stroke-linecap:round;stroke-linejoin:round;stroke:rgb(75.389099%,75.389099%,75.389099%);stroke-opacity:1;stroke-miterlimit:10;" d="M -624.921875 1283.203125 L 4021.914062 1283.203125 " transform="matrix(0.1,0,0,-0.1,0,255)"/>
<path style="fill:none;stroke-width:10;stroke-linecap:round;stroke-linejoin:round;stroke:rgb(75.389099%,75.389099%,75.389099%);stroke-opacity:1;stroke-miterlimit:10;" d="M -624.921875 716.289062 L 4021.914062 716.289062 " transform="matrix(0.1,0,0,-0.1,0,255)"/>
<path style="fill:none;stroke-width:10;stroke-linecap:round;stroke-linejoin:round;stroke:rgb(94.139099%,94.139099%,94.139099%);stroke-opacity:1;stroke-miterlimit:10;" d="M -624.921875 2530.46875 L 4021.914062 2530.46875 " transform="matrix(0.1,0,0,-0.1,0,255)"/>
<path style="fill:none;stroke-width:10;stroke-linecap:round;stroke-linejoin:round;stroke:rgb(94.139099%,94.139099%,94.139099%);stroke-opacity:1;stroke-miterlimit:10;" d="M -624.921875 2303.710938 L 4021.914062 2303.710938 " transform="matrix(0.1,0,0,-0.1,0,255)"/>
<path style="fill:none;stroke-width:10;stroke-linecap:round;stroke-linejoin:round;stroke:rgb(94.139099%,94.139099%,94.139099%);stroke-opacity:1;stroke-miterlimit:10;" d="M -624.921875 2190.3125 L 4021.914062 2190.3125 " transform="matrix(0.1,0,0,-0.1,0,255)"/>
<path style="fill:none;stroke-width:10;stroke-linecap:round;stroke-linejoin:round;stroke:rgb(94.139099%,94.139099%,94.139099%);stroke-opacity:1;stroke-miterlimit:10;" d="M -624.921875 2076.914062 L 4021.914062 2076.914062 " transform="matrix(0.1,0,0,-0.1,0,255)"/>
<path style="fill:none;stroke-width:10;stroke-linecap:round;stroke-linejoin:round;stroke:rgb(94.139099%,94.139099%,94.139099%);stroke-opacity:1;stroke-miterlimit:10;" d="M -624.921875 1963.554688 L 4021.914062 1963.554688 " transform="matrix(0.1,0,0,-0.1,0,255)"/>
<path style="fill:none;stroke-width:10;stroke-linecap:round;stroke-linejoin:round;stroke:rgb(94.139099%,94.139099%,94.139099%);stroke-opacity:1;stroke-miterlimit:10;" d="M -624.921875 1736.757812 L 4021.914062 1736.757812 " transform="matrix(0.1,0,0,-0.1,0,255)"/>
<path style="fill:none;stroke-width:10;stroke-linecap:round;stroke-linejoin:round;stroke:rgb(94.139099%,94.139099%,94.139099%);stroke-opacity:1;stroke-miterlimit:10;" d="M -624.921875 1623.398438 L 4021.914062 1623.398438 " transform="matrix(0.1,0,0,-0.1,0,255)"/>
<path style="fill:none;stroke-width:10;stroke-linecap:round;stroke-linejoin:round;stroke:rgb(94.139099%,94.139099%,94.139099%);stroke-opacity:1;stroke-miterlimit:10;" d="M -624.921875 1510 L 4021.914062 1510 " transform="matrix(0.1,0,0,-0.1,0,255)"/>
<path style="fill:none;stroke-width:10;stroke-linecap:round;stroke-linejoin:round;stroke:rgb(94.139099%,94.139099%,94.139099%);stroke-opacity:1;stroke-miterlimit:10;" d="M -624.921875 1396.601562 L 4021.914062 1396.601562 " transform="matrix(0.1,0,0,-0.1,0,255)"/>
<path style="fill:none;stroke-width:10;stroke-linecap:round;stroke-linejoin:round;stroke:rgb(94.139099%,94.139099%,94.139099%);stroke-opacity:1;stroke-miterlimit:10;" d="M -624.921875 1169.84375 L 4021.914062 1169.84375 " transform="matrix(0.1,0,0,-0.1,0,255)"/>
<path style="fill:none;stroke-width:10;stroke-linecap:round;stroke-linejoin:round;stroke:rgb(94.139099%,94.139099%,94.139099%);stroke-opacity:1;stroke-miterlimit:10;" d="M -624.921875 1056.445312 L 4021.914062 1056.445312 " transform="matrix(0.1,0,0,-0.1,0,255)"/>
<path style="fill:none;stroke-width:10;stroke-linecap:round;stroke-linejoin:round;stroke:rgb(94.139099%,94.139099%,94.139099%);stroke-opacity:1;stroke-miterlimit:10;" d="M -624.921875 943.046875 L 4021.914062 943.046875 " transform="matrix(0.1,0,0,-0.1,0,255)"/>
<path style="fill:none;stroke-width:10;stroke-linecap:round;stroke-linejoin:round;stroke:rgb(94.139099%,94.139099%,94.139099%);stroke-opacity:1;stroke-miterlimit:10;" d="M -624.921875 829.6875 L 4021.914062 829.6875 " transform="matrix(0.1,0,0,-0.1,0,255)"/>
<path style="fill:none;stroke-width:10;stroke-linecap:round;stroke-linejoin:round;stroke:rgb(94.139099%,94.139099%,94.139099%);stroke-opacity:1;stroke-miterlimit:10;" d="M -624.921875 602.890625 L 4021.914062 602.890625 " transform="matrix(0.1,0,0,-0.1,0,255)"/>
<path style="fill:none;stroke-width:10;stroke-linecap:round;stroke-linejoin:round;stroke:rgb(94.139099%,94.139099%,94.139099%);stroke-opacity:1;stroke-miterlimit:10;" d="M -624.921875 489.53125 L 4021.914062 489.53125 " transform="matrix(0.1,0,0,-0.1,0,255)"/>
<path style="fill:none;stroke-width:10;stroke-linecap:round;stroke-linejoin:round;stroke:rgb(94.139099%,94.139099%,94.139099%);stroke-opacity:1;stroke-miterlimit:10;" d="M -624.921875 376.132812 L 4021.914062 376.132812 " transform="matrix(0.1,0,0,-0.1,0,255)"/>
<path style="fill:none;stroke-width:10;stroke-linecap:round;stroke-linejoin:round;stroke:rgb(94.139099%,94.139099%,94.139099%);stroke-opacity:1;stroke-miterlimit:10;" d="M -624.921875 262.734375 L 4021.914062 262.734375 " transform="matrix(0.1,0,0,-0.1,0,255)"/>
<path style="fill:none;stroke-width:10;stroke-linecap:round;stroke-linejoin:round;stroke:rgb(94.139099%,94.139099%,94.139099%);stroke-opacity:1;stroke-miterlimit:10;" d="M -624.921875 35.976562 L 4021.914062 35.976562 " transform="matrix(0.1,0,0,-0.1,0,255)"/>
<path style="fill:none;stroke-width:10;stroke-linecap:butt;stroke-linejoin:miter;stroke:rgb(0%,0%,0%);stroke-opacity:1;stroke-miterlimit:10;" d="M 156.445312 3134.84375 L 156.445312 -606.640625 " transform="matrix(0.1,0,0,-0.1,0,255)"/>
<path style="fill:none;stroke-width:10;stroke-linecap:butt;stroke-linejoin:miter;stroke:rgb(0%,0%,0%);stroke-opacity:1;stroke-miterlimit:10;" d="M -624.921875 149.375 L 4005.859375 149.375 " transform="matrix(0.1,0,0,-0.1,0,255)"/>
<path style=" stroke:none;fill-rule:nonzero;fill:rgb(0%,0%,0%);fill-opacity:1;" d="M 71.300781 252.371094 L 71.300781 251.558594 C 71.570312 250.929688 72.113281 250.242188 72.933594 249.5 L 73.464844 249.027344 C 74.148438 248.410156 74.488281 247.800781 74.488281 247.191406 C 74.488281 246.804688 74.371094 246.5 74.140625 246.277344 C 73.90625 246.054688 73.585938 245.945312 73.179688 245.945312 C 72.699219 245.945312 72.128906 246.128906 71.476562 246.5 L 71.476562 245.683594 C 72.09375 245.394531 72.703125 245.25 73.308594 245.25 C 73.960938 245.25 74.484375 245.425781 74.878906 245.773438 C 75.273438 246.125 75.46875 246.589844 75.46875 247.167969 C 75.46875 247.585938 75.371094 247.953125 75.171875 248.277344 C 74.972656 248.597656 74.601562 248.988281 74.0625 249.449219 L 73.707031 249.753906 C 72.964844 250.382812 72.535156 250.984375 72.417969 251.558594 L 75.4375 251.558594 L 75.4375 252.371094 "/>
<path style=" stroke:none;fill-rule:nonzero;fill:rgb(0%,0%,0%);fill-opacity:1;" d="M 131.007812 252.371094 L 131.007812 250.402344 L 127.878906 250.402344 L 127.878906 249.703125 L 131.007812 245.421875 L 131.875 245.421875 L 131.875 249.648438 L 132.804688 249.648438 L 132.804688 250.402344 L 131.875 250.402344 L 131.875 252.371094 Z M 128.785156 249.648438 L 131.066406 249.648438 L 131.066406 246.558594 "/>
<path style=" stroke:none;fill-rule:nonzero;fill:rgb(0%,0%,0%);fill-opacity:1;" d="M 185.121094 248.769531 C 185.5625 248.195312 186.117188 247.910156 186.789062 247.910156 C 187.394531 247.910156 187.890625 248.113281 188.277344 248.511719 C 188.664062 248.914062 188.859375 249.429688 188.859375 250.058594 C 188.859375 250.78125 188.640625 251.378906 188.207031 251.84375 C 187.773438 252.3125 187.226562 252.542969 186.558594 252.542969 C 185.789062 252.542969 185.191406 252.234375 184.761719 251.617188 C 184.328125 251.003906 184.113281 250.144531 184.113281 249.050781 C 184.113281 247.847656 184.359375 246.910156 184.855469 246.242188 C 185.351562 245.578125 186.050781 245.242188 186.953125 245.242188 C 187.363281 245.242188 187.882812 245.332031 188.5 245.507812 L 188.5 246.3125 C 187.847656 246.0625 187.3125 245.9375 186.894531 245.9375 C 185.714844 245.9375 185.121094 246.882812 185.121094 248.769531 Z M 187.929688 250.265625 C 187.929688 249.742188 187.8125 249.328125 187.574219 249.027344 C 187.339844 248.726562 187.011719 248.578125 186.589844 248.578125 C 186.199219 248.578125 185.863281 248.707031 185.582031 248.972656 C 185.300781 249.234375 185.160156 249.550781 185.160156 249.917969 C 185.160156 250.5 185.292969 250.96875 185.558594 251.320312 C 185.828125 251.671875 186.183594 251.847656 186.621094 251.847656 C 187.019531 251.847656 187.339844 251.707031 187.574219 251.417969 C 187.8125 251.132812 187.929688 250.75 187.929688 250.265625 "/>
<path style=" stroke:none;fill-rule:nonzero;fill:rgb(0%,0%,0%);fill-opacity:1;" d="M 242.5625 248.585938 C 241.882812 248.113281 241.546875 247.589844 241.546875 247.019531 C 241.546875 246.492188 241.738281 246.066406 242.121094 245.738281 C 242.507812 245.40625 243.007812 245.242188 243.628906 245.242188 C 244.203125 245.242188 244.664062 245.382812 245.019531 245.660156 C 245.375 245.941406 245.554688 246.300781 245.554688 246.746094 C 245.554688 247.417969 245.121094 248.03125 244.257812 248.585938 C 245.308594 249.101562 245.832031 249.761719 245.832031 250.570312 C 245.832031 251.15625 245.609375 251.628906 245.171875 251.996094 C 244.730469 252.359375 244.164062 252.542969 243.46875 252.542969 C 242.785156 252.542969 242.234375 252.371094 241.816406 252.023438 C 241.394531 251.679688 241.183594 251.226562 241.183594 250.660156 C 241.183594 249.828125 241.644531 249.136719 242.5625 248.585938 Z M 243.742188 248.296875 C 244.390625 247.871094 244.714844 247.394531 244.714844 246.875 C 244.714844 246.59375 244.605469 246.371094 244.390625 246.199219 C 244.171875 246.027344 243.890625 245.945312 243.535156 245.945312 C 243.195312 245.945312 242.917969 246.027344 242.703125 246.195312 C 242.492188 246.363281 242.386719 246.578125 242.386719 246.84375 C 242.386719 247.105469 242.480469 247.335938 242.675781 247.542969 C 242.867188 247.746094 243.222656 248 243.742188 248.296875 Z M 243.066406 248.960938 C 242.691406 249.25 242.441406 249.5 242.308594 249.714844 C 242.175781 249.929688 242.109375 250.195312 242.109375 250.515625 C 242.109375 250.914062 242.234375 251.234375 242.492188 251.480469 C 242.75 251.726562 243.089844 251.847656 243.507812 251.847656 C 243.910156 251.847656 244.238281 251.742188 244.496094 251.535156 C 244.75 251.324219 244.878906 251.050781 244.878906 250.71875 C 244.878906 250.449219 244.800781 250.21875 244.640625 250.035156 C 244.484375 249.847656 244.175781 249.621094 243.722656 249.351562 "/>
<path style=" stroke:none;fill-rule:nonzero;fill:rgb(0%,0%,0%);fill-opacity:1;" d="M 4.003906 186.671875 L 4.003906 185.863281 C 4.273438 185.230469 4.816406 184.546875 5.636719 183.804688 L 6.167969 183.332031 C 6.847656 182.714844 7.191406 182.101562 7.191406 181.496094 C 7.191406 181.109375 7.074219 180.800781 6.839844 180.582031 C 6.605469 180.359375 6.289062 180.246094 5.878906 180.246094 C 5.398438 180.246094 4.832031 180.433594 4.175781 180.804688 L 4.175781 179.988281 C 4.792969 179.699219 5.40625 179.550781 6.011719 179.550781 C 6.664062 179.550781 7.1875 179.726562 7.578125 180.078125 C 7.972656 180.429688 8.171875 180.894531 8.171875 181.472656 C 8.171875 181.890625 8.070312 182.257812 7.875 182.582031 C 7.675781 182.902344 7.304688 183.292969 6.761719 183.753906 L 6.40625 184.058594 C 5.664062 184.6875 5.234375 185.289062 5.121094 185.863281 L 8.136719 185.863281 L 8.136719 186.671875 "/>
<path style=" stroke:none;fill-rule:nonzero;fill:rgb(0%,0%,0%);fill-opacity:1;" d="M 6.824219 130.589844 L 6.824219 128.625 L 3.699219 128.625 L 3.699219 127.925781 L 6.824219 123.644531 L 7.691406 123.644531 L 7.691406 127.867188 L 8.621094 127.867188 L 8.621094 128.625 L 7.691406 128.625 L 7.691406 130.589844 Z M 4.605469 127.867188 L 6.886719 127.867188 L 6.886719 124.78125 "/>
<path style=" stroke:none;fill-rule:nonzero;fill:rgb(0%,0%,0%);fill-opacity:1;" d="M 4.855469 70.105469 C 5.296875 69.535156 5.855469 69.246094 6.523438 69.246094 C 7.132812 69.246094 7.628906 69.449219 8.015625 69.851562 C 8.402344 70.253906 8.59375 70.769531 8.59375 71.398438 C 8.59375 72.121094 8.375 72.714844 7.945312 73.183594 C 7.511719 73.648438 6.960938 73.882812 6.292969 73.882812 C 5.527344 73.882812 4.925781 73.574219 4.496094 72.957031 C 4.0625 72.339844 3.847656 71.484375 3.847656 70.390625 C 3.847656 69.183594 4.09375 68.246094 4.59375 67.582031 C 5.085938 66.914062 5.785156 66.582031 6.6875 66.582031 C 7.101562 66.582031 7.617188 66.671875 8.238281 66.84375 L 8.238281 67.652344 C 7.582031 67.402344 7.046875 67.277344 6.632812 67.277344 C 5.449219 67.277344 4.855469 68.21875 4.855469 70.105469 Z M 7.664062 71.605469 C 7.664062 71.078125 7.546875 70.664062 7.308594 70.367188 C 7.074219 70.066406 6.746094 69.914062 6.328125 69.914062 C 5.933594 69.914062 5.597656 70.046875 5.316406 70.308594 C 5.035156 70.570312 4.894531 70.886719 4.894531 71.257812 C 4.894531 71.839844 5.027344 72.308594 5.296875 72.660156 C 5.5625 73.011719 5.917969 73.1875 6.359375 73.1875 C 6.757812 73.1875 7.074219 73.042969 7.308594 72.757812 C 7.546875 72.472656 7.664062 72.085938 7.664062 71.605469 "/>
<path style=" stroke:none;fill-rule:nonzero;fill:rgb(0%,0%,0%);fill-opacity:1;" d="M 5.414062 13.039062 C 4.738281 12.566406 4.398438 12.046875 4.398438 11.472656 C 4.398438 10.945312 4.589844 10.519531 4.976562 10.191406 C 5.359375 9.863281 5.863281 9.699219 6.480469 9.699219 C 7.054688 9.699219 7.519531 9.839844 7.875 10.117188 C 8.230469 10.394531 8.40625 10.757812 8.40625 11.199219 C 8.40625 11.875 7.972656 12.488281 7.109375 13.039062 C 8.160156 13.554688 8.683594 14.214844 8.683594 15.027344 C 8.683594 15.609375 8.464844 16.082031 8.023438 16.449219 C 7.582031 16.816406 7.015625 16.996094 6.320312 16.996094 C 5.640625 16.996094 5.085938 16.824219 4.667969 16.480469 C 4.246094 16.132812 4.035156 15.679688 4.035156 15.117188 C 4.035156 14.285156 4.496094 13.59375 5.414062 13.039062 Z M 6.59375 12.75 C 7.242188 12.324219 7.566406 11.851562 7.566406 11.328125 C 7.566406 11.050781 7.457031 10.824219 7.242188 10.652344 C 7.027344 10.484375 6.742188 10.398438 6.386719 10.398438 C 6.046875 10.398438 5.769531 10.480469 5.554688 10.648438 C 5.34375 10.816406 5.238281 11.03125 5.238281 11.300781 C 5.238281 11.558594 5.332031 11.789062 5.527344 11.996094 C 5.71875 12.203125 6.074219 12.453125 6.59375 12.75 Z M 5.917969 13.414062 C 5.546875 13.703125 5.292969 13.953125 5.160156 14.171875 C 5.027344 14.382812 4.960938 14.652344 4.960938 14.96875 C 4.960938 15.367188 5.089844 15.6875 5.34375 15.933594 C 5.601562 16.179688 5.941406 16.304688 6.359375 16.304688 C 6.761719 16.304688 7.09375 16.199219 7.347656 15.988281 C 7.601562 15.777344 7.730469 15.507812 7.730469 15.171875 C 7.730469 14.902344 7.652344 14.675781 7.492188 14.488281 C 7.335938 14.304688 7.027344 14.074219 6.574219 13.804688 "/>
<path style=" stroke:none;fill-rule:nonzero;fill:rgb(0%,0%,0%);fill-opacity:1;" d="M 6.21875 252.542969 C 5.5 252.542969 4.921875 252.207031 4.480469 251.53125 C 4.035156 250.855469 3.816406 249.976562 3.816406 248.890625 C 3.816406 247.796875 4.039062 246.914062 4.484375 246.25 C 4.929688 245.582031 5.519531 245.25 6.246094 245.25 C 6.976562 245.25 7.5625 245.582031 8.007812 246.25 C 8.457031 246.914062 8.679688 247.792969 8.679688 248.878906 C 8.679688 249.992188 8.457031 250.882812 8.007812 251.546875 C 7.5625 252.210938 6.964844 252.542969 6.21875 252.542969 Z M 6.226562 251.847656 C 7.207031 251.847656 7.699219 250.855469 7.699219 248.863281 C 7.699219 246.917969 7.214844 245.945312 6.246094 245.945312 C 5.28125 245.945312 4.800781 246.925781 4.800781 248.890625 C 4.800781 250.863281 5.277344 251.847656 6.226562 251.847656 "/>
<path style="fill:none;stroke-width:25;stroke-linecap:round;stroke-linejoin:round;stroke:rgb(30.200195%,30.200195%,30.200195%);stroke-opacity:1;stroke-miterlimit:10;" d="M 115.9375 149.375 L 196.914062 149.375 M 144.023438 272.8125 L 168.867188 349.882812 M 149.257812 433.476562 L 163.59375 513.164062 M 150.976562 595.195312 L 161.914062 675.429688 M 151.679688 757.070312 L 161.171875 837.5 M 151.953125 919.023438 L 160.9375 999.53125 M 151.875 1081.015625 L 160.976562 1161.484375 M 151.40625 1243.046875 L 161.445312 1323.398438 M 150.3125 1405.195312 L 162.578125 1485.234375 M 147.460938 1567.695312 L 165.390625 1646.679688 M 135.273438 1734.648438 L 177.578125 1803.710938 M 136.71875 1966.523438 L 176.132812 1895.742188 M 149.648438 2133.046875 L 163.242188 2053.203125 M 152.65625 2295.429688 L 160.234375 2214.804688 M 153.90625 2457.5 L 158.945312 2376.679688 M 277.929688 149.375 L 358.90625 149.375 M 305.976562 272.8125 L 330.859375 349.882812 M 311.25 433.476562 L 325.585938 513.164062 M 312.96875 595.195312 L 323.867188 675.429688 M 313.671875 757.070312 L 323.164062 837.5 M 313.945312 919.023438 L 322.890625 999.53125 M 313.867188 1081.015625 L 322.96875 1161.484375 M 313.398438 1243.046875 L 323.4375 1323.398438 M 312.265625 1405.195312 L 324.53125 1485.234375 M 309.453125 1567.695312 L 327.382812 1646.679688 M 297.265625 1734.648438 L 339.570312 1803.710938 M 298.710938 1966.523438 L 338.125 1895.742188 M 311.601562 2133.046875 L 325.195312 2053.203125 M 314.609375 2295.429688 L 322.226562 2214.804688 M 315.898438 2457.5 L 320.9375 2376.679688 M 439.882812 149.375 L 520.898438 149.375 M 467.96875 272.8125 L 492.8125 349.882812 M 473.203125 433.476562 L 487.578125 513.164062 M 474.921875 595.195312 L 485.859375 675.429688 M 475.664062 757.070312 L 485.117188 837.5 M 475.898438 919.023438 L 484.882812 999.53125 M 475.820312 1081.015625 L 484.960938 1161.484375 M 475.351562 1243.046875 L 485.429688 1323.398438 M 474.257812 1405.195312 L 486.523438 1485.234375 M 471.445312 1567.695312 L 489.335938 1646.679688 M 459.257812 1734.648438 L 501.5625 1803.710938 M 460.703125 1966.523438 L 500.078125 1895.742188 M 473.59375 2133.046875 L 487.1875 2053.203125 M 476.601562 2295.429688 L 484.179688 2214.804688 M 477.851562 2457.5 L 482.929688 2376.679688 M 601.875 149.375 L 682.851562 149.375 M 629.960938 272.8125 L 654.804688 349.882812 M 635.195312 433.476562 L 649.570312 513.164062 M 636.914062 595.195312 L 647.851562 675.429688 M 637.65625 757.070312 L 647.109375 837.5 M 637.890625 919.023438 L 646.835938 999.53125 M 637.8125 1081.015625 L 646.953125 1161.484375 M 637.34375 1243.046875 L 647.382812 1323.398438 M 636.25 1405.195312 L 648.515625 1485.234375 M 633.398438 1567.695312 L 651.328125 1646.679688 M 621.210938 1734.648438 L 663.515625 1803.710938 M 622.65625 1966.523438 L 662.070312 1895.742188 M 635.585938 2133.046875 L 649.179688 2053.203125 M 638.554688 2295.429688 L 646.171875 2214.804688 M 639.84375 2457.5 L 644.882812 2376.679688 M 763.867188 149.375 L 844.84375 149.375 M 791.914062 272.8125 L 816.757812 349.882812 M 797.1875 433.476562 L 811.523438 513.164062 M 798.90625 595.195312 L 809.804688 675.429688 M 799.609375 757.070312 L 809.101562 837.5 M 799.882812 919.023438 L 808.828125 999.53125 M 799.804688 1081.015625 L 808.90625 1161.484375 M 799.335938 1243.046875 L 809.375 1323.398438 M 798.242188 1405.195312 L 810.46875 1485.234375 M 795.390625 1567.695312 L 813.320312 1646.679688 M 783.203125 1734.648438 L 825.507812 1803.710938 M 784.648438 1966.523438 L 824.0625 1895.742188 M 797.578125 2133.046875 L 811.132812 2053.203125 M 800.546875 2295.429688 L 808.164062 2214.804688 M 801.835938 2457.5 L 806.875 2376.679688 M 925.859375 149.375 L 1006.835938 149.375 M 953.90625 272.8125 L 978.75 349.882812 M 959.140625 433.476562 L 973.515625 513.164062 M 960.859375 595.195312 L 971.796875 675.429688 M 961.601562 757.070312 L 971.054688 837.5 M 961.835938 919.023438 L 970.820312 999.53125 M 961.757812 1081.015625 L 970.898438 1161.484375 M 961.328125 1243.046875 L 971.367188 1323.398438 M 960.195312 1405.195312 L 972.460938 1485.234375 M 957.382812 1567.695312 L 975.3125 1646.679688 M 945.195312 1734.648438 L 987.5 1803.710938 M 946.640625 1966.523438 L 986.015625 1895.742188 M 959.53125 2133.046875 L 973.125 2053.203125 M 962.539062 2295.429688 L 970.117188 2214.804688 M 963.828125 2457.5 L 968.867188 2376.679688 M 1087.8125 149.375 L 1168.828125 149.375 M 1115.898438 272.8125 L 1140.742188 349.882812 M 1121.132812 433.476562 L 1135.507812 513.164062 M 1122.851562 595.195312 L 1133.789062 675.429688 M 1123.554688 757.070312 L 1133.046875 837.5 M 1123.828125 919.023438 L 1132.773438 999.53125 M 1123.75 1081.015625 L 1132.890625 1161.484375 M 1123.28125 1243.046875 L 1133.359375 1323.398438 M 1122.1875 1405.195312 L 1134.453125 1485.234375 M 1119.375 1567.695312 L 1137.265625 1646.679688 M 1107.148438 1734.648438 L 1149.453125 1803.710938 M 1108.59375 1966.523438 L 1148.007812 1895.742188 M 1121.523438 2133.046875 L 1135.117188 2053.203125 M 1124.492188 2295.429688 L 1132.109375 2214.804688 M 1125.78125 2457.5 L 1130.859375 2376.679688 M 1249.804688 149.375 L 1330.78125 149.375 M 1277.851562 272.8125 L 1302.734375 349.882812 M 1283.125 433.476562 L 1297.460938 513.164062 M 1284.84375 595.195312 L 1295.742188 675.429688 M 1285.546875 757.070312 L 1295.039062 837.5 M 1285.820312 919.023438 L 1294.765625 999.53125 M 1285.742188 1081.015625 L 1294.84375 1161.484375 M 1285.273438 1243.046875 L 1295.3125 1323.398438 M 1284.140625 1405.195312 L 1296.40625 1485.234375 M 1281.328125 1567.695312 L 1299.257812 1646.679688 M 1269.140625 1734.648438 L 1311.445312 1803.710938 M 1270.585938 1966.523438 L 1310 1895.742188 M 1283.515625 2133.046875 L 1297.109375 2053.203125 M 1286.484375 2295.429688 L 1294.101562 2214.804688 M 1287.773438 2457.5 L 1292.8125 2376.679688 M 1411.796875 149.375 L 1492.773438 149.375 M 1439.84375 272.8125 L 1464.6875 349.882812 M 1445.078125 433.476562 L 1459.453125 513.164062 M 1446.796875 595.195312 L 1457.734375 675.429688 M 1447.539062 757.070312 L 1456.992188 837.5 M 1447.773438 919.023438 L 1456.757812 999.53125 M 1447.695312 1081.015625 L 1456.835938 1161.484375 M 1447.265625 1243.046875 L 1457.304688 1323.398438 M 1446.132812 1405.195312 L 1458.398438 1485.234375 M 1443.320312 1567.695312 L 1461.210938 1646.679688 M 1431.132812 1734.648438 L 1473.4375 1803.710938 M 1432.578125 1966.523438 L 1471.953125 1895.742188 M 1445.46875 2133.046875 L 1459.0625 2053.203125 M 1448.476562 2295.429688 L 1456.054688 2214.804688 M 1449.765625 2457.5 L 1454.804688 2376.679688 M 1573.75 149.375 L 1654.765625 149.375 M 1601.835938 272.8125 L 1626.679688 349.882812 M 1607.070312 433.476562 L 1621.445312 513.164062 M 1608.789062 595.195312 L 1619.726562 675.429688 M 1609.53125 757.070312 L 1618.984375 837.5 M 1609.765625 919.023438 L 1618.710938 999.53125 M 1609.6875 1081.015625 L 1618.828125 1161.484375 M 1609.21875 1243.046875 L 1619.257812 1323.398438 M 1608.125 1405.195312 L 1620.390625 1485.234375 M 1605.273438 1567.695312 L 1623.203125 1646.679688 M 1593.085938 1734.648438 L 1635.390625 1803.710938 M 1594.53125 1966.523438 L 1633.945312 1895.742188 M 1607.460938 2133.046875 L 1621.054688 2053.203125 M 1610.46875 2295.429688 L 1618.046875 2214.804688 M 1611.71875 2457.5 L 1616.796875 2376.679688 M 1735.742188 149.375 L 1816.71875 149.375 M 1763.828125 272.8125 L 1788.671875 349.882812 M 1769.0625 433.476562 L 1783.398438 513.164062 M 1770.78125 595.195312 L 1781.679688 675.429688 M 1771.484375 757.070312 L 1780.976562 837.5 M 1771.757812 919.023438 L 1780.703125 999.53125 M 1771.679688 1081.015625 L 1780.78125 1161.484375 M 1771.210938 1243.046875 L 1781.25 1323.398438 M 1770.117188 1405.195312 L 1782.34375 1485.234375 M 1767.265625 1567.695312 L 1785.195312 1646.679688 M 1755.078125 1734.648438 L 1797.382812 1803.710938 M 1756.523438 1966.523438 L 1795.9375 1895.742188 M 1769.453125 2133.046875 L 1783.007812 2053.203125 M 1772.421875 2295.429688 L 1780.039062 2214.804688 M 1773.710938 2457.5 L 1778.75 2376.679688 M 1897.695312 149.375 L 1978.710938 149.375 M 1925.78125 272.8125 L 1950.625 349.882812 M 1931.015625 433.476562 L 1945.390625 513.164062 M 1932.734375 595.195312 L 1943.671875 675.429688 M 1933.476562 757.070312 L 1942.96875 837.5 M 1933.710938 919.023438 L 1942.695312 999.53125 M 1933.632812 1081.015625 L 1942.773438 1161.484375 M 1933.203125 1243.046875 L 1943.242188 1323.398438 M 1932.070312 1405.195312 L 1944.335938 1485.234375 M 1929.257812 1567.695312 L 1947.1875 1646.679688 M 1917.070312 1734.648438 L 1959.375 1803.710938 M 1918.515625 1966.523438 L 1957.890625 1895.742188 M 1931.40625 2133.046875 L 1945 2053.203125 M 1934.414062 2295.429688 L 1941.992188 2214.804688 M 1935.664062 2457.5 L 1940.742188 2376.679688 M 2059.6875 149.375 L 2140.703125 149.375 M 2087.773438 272.8125 L 2112.617188 349.882812 M 2093.007812 433.476562 L 2107.382812 513.164062 M 2094.726562 595.195312 L 2105.664062 675.429688 M 2095.46875 757.070312 L 2104.921875 837.5 M 2095.703125 919.023438 L 2104.6875 999.53125 M 2095.625 1081.015625 L 2104.765625 1161.484375 M 2095.15625 1243.046875 L 2105.195312 1323.398438 M 2094.0625 1405.195312 L 2106.328125 1485.234375 M 2091.210938 1567.695312 L 2109.140625 1646.679688 M 2079.023438 1734.648438 L 2121.328125 1803.710938 M 2080.507812 1966.523438 L 2119.882812 1895.742188 M 2093.398438 2133.046875 L 2106.992188 2053.203125 M 2096.40625 2295.429688 L 2103.984375 2214.804688 M 2097.65625 2457.5 L 2102.734375 2376.679688 M 2221.679688 149.375 L 2302.65625 149.375 M 2249.765625 272.8125 L 2274.609375 349.882812 M 2255 433.476562 L 2269.335938 513.164062 M 2256.71875 595.195312 L 2267.617188 675.429688 M 2257.421875 757.070312 L 2266.914062 837.5 M 2257.695312 919.023438 L 2266.640625 999.53125 M 2257.617188 1081.015625 L 2266.71875 1161.484375 M 2257.148438 1243.046875 L 2267.1875 1323.398438 M 2256.054688 1405.195312 L 2268.28125 1485.234375 M 2253.203125 1567.695312 L 2271.132812 1646.679688 M 2241.015625 1734.648438 L 2283.320312 1803.710938 M 2242.460938 1966.523438 L 2281.875 1895.742188 M 2255.390625 2133.046875 L 2268.945312 2053.203125 M 2258.359375 2295.429688 L 2265.976562 2214.804688 M 2259.648438 2457.5 L 2264.6875 2376.679688 M 2383.671875 149.375 L 2464.648438 149.375 M 2411.71875 272.8125 L 2436.5625 349.882812 M 2416.953125 433.476562 L 2431.328125 513.164062 M 2418.671875 595.195312 L 2429.609375 675.429688 M 2419.414062 757.070312 L 2428.90625 837.5 M 2419.6875 919.023438 L 2428.632812 999.53125 M 2419.609375 1081.015625 L 2428.710938 1161.484375 M 2419.140625 1243.046875 L 2429.179688 1323.398438 M 2418.007812 1405.195312 L 2430.273438 1485.234375 M 2415.195312 1567.695312 L 2433.125 1646.679688 M 2403.007812 1734.648438 L 2445.3125 1803.710938 M 2404.453125 1966.523438 L 2443.867188 1895.742188 M 2417.34375 2133.046875 L 2430.9375 2053.203125 M 2420.351562 2295.429688 L 2427.96875 2214.804688 M 2421.640625 2457.5 L 2426.679688 2376.679688 " transform="matrix(0.1,0,0,-0.1,0,255)"/>
</g>
</svg>
