<?xml version="1.0" encoding="UTF-8"?>
<svg xmlns="http://www.w3.org/2000/svg" xmlns:xlink="http://www.w3.org/1999/xlink" width="382pt" height="512pt" viewBox="0 0 382 512" version="1.1">
<g id="surface1">
<rect x="0" y="0" width="382" height="512" style="fill:rgb(100%,100%,100%);fill-opacity:1;stroke:none;"/>
<path style="fill:none;stroke-width:10;stroke-linecap:round;stroke-linejoin:round;stroke:rgb(75.389099%,75.389099%,75.389099%);stroke-opacity:1;stroke-miterlimit:10;" d="M 1775.507812 5811.835938 L 1775.507812 -1241.757812 " transform="matrix(0.1,0,0,-0.1,0,512)"/>
<path style="fill:none;stroke-width:10;stroke-linecap:round;stroke-linejoin:round;stroke:rgb(75.389099%,75.389099%,75.389099%);stroke-opacity:1;stroke-miterlimit:10;" d="M 3192.851562 5811.835938 L 3192.851562 -1241.757812 " transform="matrix(0.1,0,0,-0.1,0,512)"/>
<path style="fill:none;stroke-width:10;stroke-linecap:round;stroke-linejoin:round;stroke:rgb(94.139099%,94.139099%,94.139099%);stroke-opacity:1;stroke-miterlimit:10;" d="M 74.726562 5811.835938 L 74.726562 -1241.757812 " transform="matrix(0.1,0,0,-0.1,0,512)"/>
<path style="fill:none;stroke-width:10;stroke-linecap:round;stroke-linejoin:round;stroke:rgb(94.139099%,94.139099%,94.139099%);stroke-opacity:1;stroke-miterlimit:10;" d="M 641.640625 5811.835938 L 641.640625 -1241.757812 " transform="matrix(0.1,0,0,-0.1,0,512)"/>
<path style="fill:none;stroke-width:10;stroke-linecap:round;stroke-linejoin:round;stroke:rgb(94.139099%,94.139099%,94.139099%);stroke-opacity:1;stroke-miterlimit:10;" d="M 925.117188 5811.835938 L 925.117188 -1241.757812 " transform="matrix(0.1,0,0,-0.1,0,512)"/>
<path style="fill:none;stroke-width:10;stroke-linecap:round;stroke-linejoin:round;stroke:rgb(94.139099%,94.139099%,94.139099%);stroke-opacity:1;stroke-miterlimit:10;" d="M 1208.59375 5811.835938 L 1208.59375 -1241.757812 " transform="matrix(0.1,0,0,-0.1,0,512)"/>
<path style="fill:none;stroke-width:10;stroke-linecap:round;stroke-linejoin:round;stroke:rgb(94.139099%,94.139099%,94.139099%);stroke-opacity:1;stroke-miterlimit:10;" d="M 1492.03125 5811.835938 L 1492.03125 -1241.757812 " transform="matrix(0.1,0,0,-0.1,0,512)"/>
<path style="fill:none;stroke-width:10;stroke-linecap:round;stroke-linejoin:round;stroke:rgb(94.139099%,94.139099%,94.139099%);stroke-opacity:1;stroke-miterlimit:10;" d="M 2058.984375 5811.835938 L 2058.984375 -1241.757812 " transform="matrix(0.1,0,0,-0.1,0,512)"/>
<path style="fill:none;stroke-width:10;stroke-linecap:round;stroke-linejoin:round;stroke:rgb(94.139099%,94.139099%,94.139099%);stroke-opacity:1;stroke-miterlimit:10;" d="M 2342.421875 5811.835938 L 2342.421875 -1241.757812 " transform="matrix(0.1,0,0,-0.1,0,512)"/>
<path style="fill:none;stroke-width:10;stroke-linecap:round;stroke-linejoin:round;stroke:rgb(94.139099%,94.139099%,94.139099%);stroke-opacity:1;stroke-miterlimit:10;" d="M 2625.898438 5811.835938 L 2625.898438 -1241.757812 " transform="matrix(0.1,0,0,-0.1,0,512)"/>
<path style="fill:none;stroke-width:10;stroke-linecap:round;stroke-linejoin:round;stroke:rgb(94.139099%,94.139099%,94.139099%);stroke-opacity:1;stroke-miterlimit:10;" d="M 2909.375 5811.835938 L 2909.375 -1241.757812 " transform="matrix(0.1,0,0,-0.1,0,512)"/>
<path style="fill:none;stroke-width:10;stroke-linecap:round;stroke-linejoin:round;stroke:rgb(94.139099%,94.139099%,94.139099%);stroke-opacity:1;stroke-miterlimit:10;" d="M 3476.289062 5811.835938 L 3476.289062 -1241.757812 " transform="matrix(0.1,0,0,-0.1,0,512)"/>
<path style="fill:none;stroke-width:10;stroke-linecap:round;stroke-linejoin:round;stroke:rgb(94.139099%,94.139099%,94.139099%);stroke-opacity:1;stroke-miterlimit:10;" d="M 3759.765625 5811.835938 L 3759.765625 -1241.757812 " transform="matrix(0.1,0,0,-0.1,0,512)"/>
<path style="fill:none;stroke-width:10;stroke-linecap:round;stroke-linejoin:round;stroke:rgb(75.389099%,75.389099%,75.389099%);stroke-opacity:1;stroke-miterlimit:10;" d="M -1323.476562 4840.859375 L 7399.492188 4840.859375 " transform="matrix(0.1,0,0,-0.1,0,512)"/>
<path style="fill:none;stroke-width:10;stroke-linecap:round;stroke-linejoin:round;stroke:rgb(75.389099%,75.389099%,75.389099%);stroke-opacity:1;stroke-miterlimit:10;" d="M -1323.476562 4840.859375 L 7399.492188 4840.859375 " transform="matrix(0.1,0,0,-0.1,0,512)"/>
<path style="fill:none;stroke-width:10;stroke-linecap:round;stroke-linejoin:round;stroke:rgb(75.389099%,75.389099%,75.389099%);stroke-opacity:1;stroke-miterlimit:10;" d="M -1323.476562 3706.992188 L 7399.492188 3706.992188 " transform="matrix(0.1,0,0,-0.1,0,512)"/>
<path style="fill:none;stroke-width:10;stroke-linecap:round;stroke-linejoin:round;stroke:rgb(75.389099%,75.389099%,75.389099%);stroke-opacity:1;stroke-miterlimit:10;" d="M -1323.476562 2573.125 L 7399.492188 2573.125 " transform="matrix(0.1,0,0,-0.1,0,512)"/>
<path style="fill:none;stroke-width:10;stroke-linecap:round;stroke-linejoin:round;stroke:rgb(75.389099%,75.389099%,75.389099%);stroke-opacity:1;stroke-miterlimit:10;" d="M -1323.476562 1439.257812 L 7399.492188 1439.257812 " transform="matrix(0.1,0,0,-0.1,0,512)"/>
<path style="fill:none;stroke-width:10;stroke-linecap:round;stroke-linejoin:round;stroke:rgb(94.139099%,94.139099%,94.139099%);stroke-opacity:1;stroke-miterlimit:10;" d="M -1323.476562 5067.617188 L 7399.492188 5067.617188 " transform="matrix(0.1,0,0,-0.1,0,512)"/>
<path style="fill:none;stroke-width:10;stroke-linecap:round;stroke-linejoin:round;stroke:rgb(94.139099%,94.139099%,94.139099%);stroke-opacity:1;stroke-miterlimit:10;" d="M -1323.476562 4614.0625 L 7399.492188 4614.0625 " transform="matrix(0.1,0,0,-0.1,0,512)"/>
<path style="fill:none;stroke-width:10;stroke-linecap:round;stroke-linejoin:round;stroke:rgb(94.139099%,94.139099%,94.139099%);stroke-opacity:1;stroke-miterlimit:10;" d="M -1323.476562 4387.304688 L 7399.492188 4387.304688 " transform="matrix(0.1,0,0,-0.1,0,512)"/>
<path style="fill:none;stroke-width:10;stroke-linecap:round;stroke-linejoin:round;stroke:rgb(94.139099%,94.139099%,94.139099%);stroke-opacity:1;stroke-miterlimit:10;" d="M -1323.476562 4160.546875 L 7399.492188 4160.546875 " transform="matrix(0.1,0,0,-0.1,0,512)"/>
<path style="fill:none;stroke-width:10;stroke-linecap:round;stroke-linejoin:round;stroke:rgb(94.139099%,94.139099%,94.139099%);stroke-opacity:1;stroke-miterlimit:10;" d="M -1323.476562 3933.75 L 7399.492188 3933.75 " transform="matrix(0.1,0,0,-0.1,0,512)"/>
<path style="fill:none;stroke-width:10;stroke-linecap:round;stroke-linejoin:round;stroke:rgb(94.139099%,94.139099%,94.139099%);stroke-opacity:1;stroke-miterlimit:10;" d="M -1323.476562 3480.234375 L 7399.492188 3480.234375 " transform="matrix(0.1,0,0,-0.1,0,512)"/>
<path style="fill:none;stroke-width:10;stroke-linecap:round;stroke-linejoin:round;stroke:rgb(94.139099%,94.139099%,94.139099%);stroke-opacity:1;stroke-miterlimit:10;" d="M -1323.476562 3253.4375 L 7399.492188 3253.4375 " transform="matrix(0.1,0,0,-0.1,0,512)"/>
<path style="fill:none;stroke-width:10;stroke-linecap:round;stroke-linejoin:round;stroke:rgb(94.139099%,94.139099%,94.139099%);stroke-opacity:1;stroke-miterlimit:10;" d="M -1323.476562 3026.679688 L 7399.492188 3026.679688 " transform="matrix(0.1,0,0,-0.1,0,512)"/>
<path style="fill:none;stroke-width:10;stroke-linecap:round;stroke-linejoin:round;stroke:rgb(94.139099%,94.139099%,94.139099%);stroke-opacity:1;stroke-miterlimit:10;" d="M -1323.476562 2799.882812 L 7399.492188 2799.882812 " transform="matrix(0.1,0,0,-0.1,0,512)"/>
<path style="fill:none;stroke-width:10;stroke-linecap:round;stroke-linejoin:round;stroke:rgb(94.139099%,94.139099%,94.139099%);stroke-opacity:1;stroke-miterlimit:10;" d="M -1323.476562 2346.367188 L 7399.492188 2346.367188 " transform="matrix(0.1,0,0,-0.1,0,512)"/>
<path style="fill:none;stroke-width:10;stroke-linecap:round;stroke-linejoin:round;stroke:rgb(94.139099%,94.139099%,94.139099%);stroke-opacity:1;stroke-miterlimit:10;" d="M -1323.476562 2119.609375 L 7399.492188 2119.609375 " transform="matrix(0.1,0,0,-0.1,0,512)"/>
<path style="fill:none;stroke-width:10;stroke-linecap:round;stroke-linejoin:round;stroke:rgb(94.139099%,94.139099%,94.139099%);stroke-opacity:1;stroke-miterlimit:10;" d="M -1323.476562 1892.8125 L 7399.492188 1892.8125 " transform="matrix(0.1,0,0,-0.1,0,512)"/>
<path style="fill:none;stroke-width:10;stroke-linecap:round;stroke-linejoin:round;stroke:rgb(94.139099%,94.139099%,94.139099%);stroke-opacity:1;stroke-miterlimit:10;" d="M -1323.476562 1666.054688 L 7399.492188 1666.054688 " transform="matrix(0.1,0,0,-0.1,0,512)"/>
<path style="fill:none;stroke-width:10;stroke-linecap:round;stroke-linejoin:round;stroke:rgb(94.139099%,94.139099%,94.139099%);stroke-opacity:1;stroke-miterlimit:10;" d="M -1323.476562 1212.5 L 7399.492188 1212.5 " transform="matrix(0.1,0,0,-0.1,0,512)"/>
<path style="fill:none;stroke-width:10;stroke-linecap:round;stroke-linejoin:round;stroke:rgb(94.139099%,94.139099%,94.139099%);stroke-opacity:1;stroke-miterlimit:10;" d="M -1323.476562 985.742188 L 7399.492188 985.742188 " transform="matrix(0.1,0,0,-0.1,0,512)"/>
<path style="fill:none;stroke-width:10;stroke-linecap:round;stroke-linejoin:round;stroke:rgb(94.139099%,94.139099%,94.139099%);stroke-opacity:1;stroke-miterlimit:10;" d="M -1323.476562 758.945312 L 7399.492188 758.945312 " transform="matrix(0.1,0,0,-0.1,0,512)"/>
<path style="fill:none;stroke-width:10;stroke-linecap:round;stroke-linejoin:round;stroke:rgb(94.139099%,94.139099%,94.139099%);stroke-opacity:1;stroke-miterlimit:10;" d="M -1323.476562 532.1875 L 7399.492188 532.1875 " transform="matrix(0.1,0,0,-0.1,0,512)"/>
<path style="fill:none;stroke-width:10;stroke-linecap:round;stroke-linejoin:round;stroke:rgb(94.139099%,94.139099%,94.139099%);stroke-opacity:1;stroke-miterlimit:10;" d="M -1323.476562 78.632812 L 7399.492188 78.632812 " transform="matrix(0.1,0,0,-0.1,0,512)"/>
<path style="fill:none;stroke-width:10;stroke-linecap:butt;stroke-linejoin:miter;stroke:rgb(0%,0%,0%);stroke-opacity:1;stroke-miterlimit:10;" d="M 358.203125 5781.757812 L 358.203125 -1241.757812 " transform="matrix(0.1,0,0,-0.1,0,512)"/>
<path style="fill:none;stroke-width:10;stroke-linecap:butt;stroke-linejoin:miter;stroke:rgb(0%,0%,0%);stroke-opacity:1;stroke-miterlimit:10;" d="M -1323.476562 305.429688 L 7369.414062 305.429688 " transform="matrix(0.1,0,0,-0.1,0,512)"/>
<path style=" stroke:none;fill-rule:nonzero;fill:rgb(0%,0%,0%);fill-opacity:1;" d="M 171.09375 505.65625 C 169.746094 505.65625 168.660156 505.023438 167.828125 503.757812 C 166.996094 502.492188 166.582031 500.839844 166.582031 498.800781 C 166.582031 496.746094 167 495.089844 167.835938 493.839844 C 168.675781 492.589844 169.777344 491.960938 171.144531 491.960938 C 172.515625 491.960938 173.617188 492.589844 174.453125 493.839844 C 175.292969 495.089844 175.710938 496.734375 175.710938 498.773438 C 175.710938 500.867188 175.292969 502.535156 174.453125 503.785156 C 173.617188 505.03125 172.496094 505.65625 171.09375 505.65625 Z M 171.109375 504.351562 C 172.949219 504.351562 173.867188 502.484375 173.867188 498.746094 C 173.867188 495.09375 172.960938 493.265625 171.144531 493.265625 C 169.335938 493.265625 168.433594 495.113281 168.433594 498.800781 C 168.433594 502.5 169.324219 504.351562 171.109375 504.351562 Z M 179.230469 505.332031 L 179.230469 503.15625 L 181.40625 503.15625 L 181.40625 505.332031 Z M 185.675781 505.382812 L 185.675781 503.832031 C 186.539062 504.179688 187.363281 504.351562 188.144531 504.351562 C 189.003906 504.351562 189.675781 504.101562 190.167969 503.59375 C 190.65625 503.089844 190.902344 502.394531 190.902344 501.507812 C 190.902344 499.550781 189.554688 498.570312 186.859375 498.570312 C 186.554688 498.570312 186.234375 498.59375 185.898438 498.632812 L 185.898438 492.289062 L 192.496094 492.289062 L 192.496094 493.804688 L 187.421875 493.804688 L 187.421875 497.242188 C 189.097656 497.242188 190.402344 497.625 191.34375 498.394531 C 192.285156 499.164062 192.753906 500.230469 192.753906 501.59375 C 192.753906 502.863281 192.324219 503.859375 191.472656 504.578125 C 190.617188 505.296875 189.433594 505.65625 187.914062 505.65625 C 187.257812 505.65625 186.511719 505.566406 185.675781 505.382812 "/>
<path style=" stroke:none;fill-rule:nonzero;fill:rgb(0%,0%,0%);fill-opacity:1;" d="M 318.546875 505.332031 L 318.546875 504.027344 L 321.152344 504.027344 L 321.152344 493.734375 L 318.546875 494.386719 L 318.546875 493.046875 L 322.898438 491.960938 L 322.898438 504.027344 L 325.507812 504.027344 L 325.507812 505.332031 "/>
<path style=" stroke:none;fill-rule:nonzero;fill:rgb(0%,0%,0%);fill-opacity:1;" d="M 13.53125 374.484375 L 13.53125 372.960938 C 14.035156 371.78125 15.058594 370.496094 16.597656 369.101562 L 17.59375 368.210938 C 18.871094 367.054688 19.511719 365.90625 19.511719 364.765625 C 19.511719 364.039062 19.292969 363.464844 18.855469 363.046875 C 18.417969 362.632812 17.820312 362.421875 17.054688 362.421875 C 16.148438 362.421875 15.082031 362.773438 13.855469 363.472656 L 13.855469 361.9375 C 15.011719 361.390625 16.160156 361.117188 17.300781 361.117188 C 18.523438 361.117188 19.503906 361.445312 20.246094 362.105469 C 20.984375 362.761719 21.355469 363.636719 21.355469 364.722656 C 21.355469 365.503906 21.167969 366.195312 20.796875 366.800781 C 20.421875 367.40625 19.726562 368.140625 18.710938 369.003906 L 18.042969 369.578125 C 16.648438 370.757812 15.84375 371.886719 15.628906 372.960938 L 21.292969 372.960938 L 21.292969 374.484375 "/>
<path style=" stroke:none;fill-rule:nonzero;fill:rgb(0%,0%,0%);fill-opacity:1;" d="M 18.824219 261.6875 L 18.824219 257.996094 L 12.957031 257.996094 L 12.957031 256.683594 L 18.824219 248.648438 L 20.457031 248.648438 L 20.457031 256.578125 L 22.203125 256.578125 L 22.203125 257.996094 L 20.457031 257.996094 L 20.457031 261.6875 Z M 14.65625 256.578125 L 18.941406 256.578125 L 18.941406 250.78125 "/>
<path style=" stroke:none;fill-rule:nonzero;fill:rgb(0%,0%,0%);fill-opacity:1;" d="M 15.132812 140.628906 C 15.960938 139.554688 17.003906 139.015625 18.261719 139.015625 C 19.402344 139.015625 20.335938 139.394531 21.058594 140.148438 C 21.785156 140.902344 22.148438 141.871094 22.148438 143.050781 C 22.148438 144.410156 21.742188 145.527344 20.925781 146.402344 C 20.113281 147.277344 19.082031 147.714844 17.832031 147.714844 C 16.390625 147.714844 15.265625 147.136719 14.457031 145.976562 C 13.644531 144.820312 13.238281 143.214844 13.238281 141.15625 C 13.238281 138.894531 13.703125 137.140625 14.636719 135.886719 C 15.566406 134.636719 16.878906 134.011719 18.570312 134.011719 C 19.34375 134.011719 20.316406 134.175781 21.476562 134.503906 L 21.476562 136.019531 C 20.25 135.550781 19.246094 135.316406 18.464844 135.316406 C 16.242188 135.316406 15.132812 137.085938 15.132812 140.628906 Z M 20.402344 143.441406 C 20.402344 142.453125 20.179688 141.679688 19.738281 141.113281 C 19.292969 140.550781 18.679688 140.269531 17.890625 140.269531 C 17.15625 140.269531 16.527344 140.515625 15.996094 141.007812 C 15.46875 141.503906 15.203125 142.09375 15.203125 142.789062 C 15.203125 143.882812 15.457031 144.757812 15.957031 145.417969 C 16.460938 146.078125 17.125 146.410156 17.953125 146.410156 C 18.699219 146.410156 19.292969 146.140625 19.738281 145.605469 C 20.179688 145.066406 20.402344 144.34375 20.402344 143.441406 "/>
<path style=" stroke:none;fill-rule:nonzero;fill:rgb(0%,0%,0%);fill-opacity:1;" d="M 16.183594 27.488281 C 14.90625 26.601562 14.269531 25.621094 14.269531 24.546875 C 14.269531 23.558594 14.632812 22.757812 15.355469 22.140625 C 16.078125 21.523438 17.019531 21.214844 18.183594 21.214844 C 19.257812 21.214844 20.128906 21.476562 20.796875 21.996094 C 21.460938 22.519531 21.796875 23.199219 21.796875 24.035156 C 21.796875 25.296875 20.984375 26.449219 19.363281 27.488281 C 21.332031 28.453125 22.316406 29.695312 22.316406 31.214844 C 22.316406 32.308594 21.902344 33.199219 21.078125 33.886719 C 20.253906 34.574219 19.1875 34.917969 17.882812 34.917969 C 16.601562 34.917969 15.566406 34.59375 14.777344 33.941406 C 13.988281 33.292969 13.589844 32.441406 13.589844 31.382812 C 13.589844 29.820312 14.457031 28.523438 16.183594 27.488281 Z M 18.394531 26.941406 C 19.609375 26.144531 20.21875 25.253906 20.21875 24.273438 C 20.21875 23.75 20.015625 23.328125 19.609375 23.007812 C 19.203125 22.6875 18.671875 22.527344 18.007812 22.527344 C 17.367188 22.527344 16.847656 22.683594 16.445312 22.996094 C 16.046875 23.3125 15.847656 23.71875 15.847656 24.21875 C 15.847656 24.707031 16.027344 25.144531 16.390625 25.527344 C 16.75 25.910156 17.417969 26.382812 18.394531 26.941406 Z M 17.125 28.191406 C 16.425781 28.734375 15.953125 29.203125 15.703125 29.609375 C 15.453125 30.011719 15.328125 30.511719 15.328125 31.109375 C 15.328125 31.855469 15.570312 32.460938 16.050781 32.921875 C 16.53125 33.382812 17.167969 33.613281 17.953125 33.613281 C 18.710938 33.613281 19.328125 33.414062 19.808594 33.023438 C 20.289062 32.628906 20.527344 32.117188 20.527344 31.488281 C 20.527344 30.984375 20.378906 30.558594 20.082031 30.207031 C 19.785156 29.855469 19.210938 29.429688 18.359375 28.925781 "/>
<path style=" stroke:none;fill-rule:nonzero;fill:rgb(0%,0%,0%);fill-opacity:1;" d="M 17.6875 505.65625 C 16.34375 505.65625 15.253906 505.023438 14.425781 503.757812 C 13.59375 502.492188 13.175781 500.839844 13.175781 498.800781 C 13.175781 496.746094 13.59375 495.089844 14.433594 493.839844 C 15.269531 492.589844 16.371094 491.960938 17.742188 491.960938 C 19.109375 491.960938 20.214844 492.589844 21.050781 493.839844 C 21.886719 495.089844 22.304688 496.734375 22.304688 498.773438 C 22.304688 500.867188 21.886719 502.535156 21.050781 503.785156 C 20.214844 505.03125 19.09375 505.65625 17.6875 505.65625 Z M 17.707031 504.351562 C 19.546875 504.351562 20.464844 502.484375 20.464844 498.746094 C 20.464844 495.09375 19.558594 493.265625 17.742188 493.265625 C 15.933594 493.265625 15.027344 495.113281 15.027344 498.800781 C 15.027344 502.5 15.921875 504.351562 17.707031 504.351562 "/>
<path style=" stroke:none;fill-rule:nonzero;fill:rgb(30.200195%,30.200195%,100%);fill-opacity:1;" d="M 43.339844 424.765625 C 43.339844 428.917969 39.972656 432.285156 35.820312 432.285156 C 31.664062 432.285156 28.300781 428.917969 28.300781 424.765625 C 28.300781 420.613281 31.664062 417.246094 35.820312 417.246094 C 39.972656 417.246094 43.339844 420.613281 43.339844 424.765625 "/>
<path style="fill:none;stroke-width:10;stroke-linecap:round;stroke-linejoin:round;stroke:rgb(0%,0%,0%);stroke-opacity:1;stroke-miterlimit:10;" d="M 433.398438 872.34375 C 433.398438 830.820312 399.726562 797.148438 358.203125 797.148438 C 316.640625 797.148438 283.007812 830.820312 283.007812 872.34375 C 283.007812 913.867188 316.640625 947.539062 358.203125 947.539062 C 399.726562 947.539062 433.398438 913.867188 433.398438 872.34375 Z M 433.398438 872.34375 " transform="matrix(0.1,0,0,-0.1,0,512)"/>
<path style=" stroke:none;fill-rule:nonzero;fill:rgb(30.200195%,30.200195%,100%);fill-opacity:1;" d="M 100.03125 368.074219 C 100.03125 372.226562 96.664062 375.59375 92.511719 375.59375 C 88.359375 375.59375 84.992188 372.226562 84.992188 368.074219 C 84.992188 363.921875 88.359375 360.554688 92.511719 360.554688 C 96.664062 360.554688 100.03125 363.921875 100.03125 368.074219 "/>
<path style="fill:none;stroke-width:10;stroke-linecap:round;stroke-linejoin:round;stroke:rgb(0%,0%,0%);stroke-opacity:1;stroke-miterlimit:10;" d="M 1000.3125 1439.257812 C 1000.3125 1397.734375 966.640625 1364.0625 925.117188 1364.0625 C 883.59375 1364.0625 849.921875 1397.734375 849.921875 1439.257812 C 849.921875 1480.78125 883.59375 1514.453125 925.117188 1514.453125 C 966.640625 1514.453125 1000.3125 1480.78125 1000.3125 1439.257812 Z M 1000.3125 1439.257812 " transform="matrix(0.1,0,0,-0.1,0,512)"/>
<path style=" stroke:none;fill-rule:nonzero;fill:rgb(30.200195%,30.200195%,100%);fill-opacity:1;" d="M 156.726562 277.363281 C 156.726562 281.515625 153.359375 284.882812 149.203125 284.882812 C 145.050781 284.882812 141.683594 281.515625 141.683594 277.363281 C 141.683594 273.210938 145.050781 269.84375 149.203125 269.84375 C 153.359375 269.84375 156.726562 273.210938 156.726562 277.363281 "/>
<path style="fill:none;stroke-width:10;stroke-linecap:round;stroke-linejoin:round;stroke:rgb(0%,0%,0%);stroke-opacity:1;stroke-miterlimit:10;" d="M 1567.265625 2346.367188 C 1567.265625 2304.84375 1533.59375 2271.171875 1492.03125 2271.171875 C 1450.507812 2271.171875 1416.835938 2304.84375 1416.835938 2346.367188 C 1416.835938 2387.890625 1450.507812 2421.5625 1492.03125 2421.5625 C 1533.59375 2421.5625 1567.265625 2387.890625 1567.265625 2346.367188 Z M 1567.265625 2346.367188 " transform="matrix(0.1,0,0,-0.1,0,512)"/>
<path style=" stroke:none;fill-rule:nonzero;fill:rgb(30.200195%,30.200195%,100%);fill-opacity:1;" d="M 213.417969 179.398438 C 213.417969 183.550781 210.050781 186.917969 205.898438 186.917969 C 201.746094 186.917969 198.378906 183.550781 198.378906 179.398438 C 198.378906 175.246094 201.746094 171.878906 205.898438 171.878906 C 210.050781 171.878906 213.417969 175.246094 213.417969 179.398438 "/>
<path style="fill:none;stroke-width:10;stroke-linecap:round;stroke-linejoin:round;stroke:rgb(0%,0%,0%);stroke-opacity:1;stroke-miterlimit:10;" d="M 2134.179688 3326.015625 C 2134.179688 3284.492188 2100.507812 3250.820312 2058.984375 3250.820312 C 2017.460938 3250.820312 1983.789062 3284.492188 1983.789062 3326.015625 C 1983.789062 3367.539062 2017.460938 3401.210938 2058.984375 3401.210938 C 2100.507812 3401.210938 2134.179688 3367.539062 2134.179688 3326.015625 Z M 2134.179688 3326.015625 " transform="matrix(0.1,0,0,-0.1,0,512)"/>
<path style=" stroke:none;fill-rule:nonzero;fill:rgb(30.200195%,30.200195%,100%);fill-opacity:1;" d="M 270.109375 138.800781 C 270.109375 142.953125 266.742188 146.320312 262.589844 146.320312 C 258.4375 146.320312 255.070312 142.953125 255.070312 138.800781 C 255.070312 134.648438 258.4375 131.28125 262.589844 131.28125 C 266.742188 131.28125 270.109375 134.648438 270.109375 138.800781 "/>
<path style="fill:none;stroke-width:10;stroke-linecap:round;stroke-linejoin:round;stroke:rgb(0%,0%,0%);stroke-opacity:1;stroke-miterlimit:10;" d="M 2701.09375 3731.992188 C 2701.09375 3690.46875 2667.421875 3656.796875 2625.898438 3656.796875 C 2584.375 3656.796875 2550.703125 3690.46875 2550.703125 3731.992188 C 2550.703125 3773.515625 2584.375 3807.1875 2625.898438 3807.1875 C 2667.421875 3807.1875 2701.09375 3773.515625 2701.09375 3731.992188 Z M 2701.09375 3731.992188 " transform="matrix(0.1,0,0,-0.1,0,512)"/>
<path style=" stroke:none;fill-rule:nonzero;fill:rgb(30.200195%,30.200195%,100%);fill-opacity:1;" d="M 326.804688 141.824219 C 326.804688 145.976562 323.4375 149.34375 319.285156 149.34375 C 315.128906 149.34375 311.765625 145.976562 311.765625 141.824219 C 311.765625 137.671875 315.128906 134.304688 319.285156 134.304688 C 323.4375 134.304688 326.804688 137.671875 326.804688 141.824219 "/>
<path style="fill:none;stroke-width:10;stroke-linecap:round;stroke-linejoin:round;stroke:rgb(0%,0%,0%);stroke-opacity:1;stroke-miterlimit:10;" d="M 3268.046875 3701.757812 C 3268.046875 3660.234375 3234.375 3626.5625 3192.851562 3626.5625 C 3151.289062 3626.5625 3117.65625 3660.234375 3117.65625 3701.757812 C 3117.65625 3743.28125 3151.289062 3776.953125 3192.851562 3776.953125 C 3234.375 3776.953125 3268.046875 3743.28125 3268.046875 3701.757812 Z M 3268.046875 3701.757812 " transform="matrix(0.1,0,0,-0.1,0,512)"/>
</g>
</svg>
