<?xml version="1.0" encoding="UTF-8"?>
<svg xmlns="http://www.w3.org/2000/svg" xmlns:xlink="http://www.w3.org/1999/xlink" width="371pt" height="375pt" viewBox="0 0 371 375" version="1.1">
<g id="surface1">
<rect x="0" y="0" width="371" height="375" style="fill:rgb(100%,100%,100%);fill-opacity:1;stroke:none;"/>
<path style="fill:none;stroke-width:10;stroke-linecap:round;stroke-linejoin:round;stroke:rgb(75.389099%,75.389099%,75.389099%);stroke-opacity:1;stroke-miterlimit:10;" d="M 159.179688 4977.109375 L 159.179688 -401.5625 " transform="matrix(0.1,0,0,-0.1,0,375)"/>
<path style="fill:none;stroke-width:10;stroke-linecap:round;stroke-linejoin:round;stroke:rgb(75.389099%,75.389099%,75.389099%);stroke-opacity:1;stroke-miterlimit:10;" d="M 1293.046875 4977.109375 L 1293.046875 -401.5625 " transform="matrix(0.1,0,0,-0.1,0,375)"/>
<path style="fill:none;stroke-width:10;stroke-linecap:round;stroke-linejoin:round;stroke:rgb(75.389099%,75.389099%,75.389099%);stroke-opacity:1;stroke-miterlimit:10;" d="M 1859.960938 4977.109375 L 1859.960938 -401.5625 " transform="matrix(0.1,0,0,-0.1,0,375)"/>
<path style="fill:none;stroke-width:10;stroke-linecap:round;stroke-linejoin:round;stroke:rgb(75.389099%,75.389099%,75.389099%);stroke-opacity:1;stroke-miterlimit:10;" d="M 2426.914062 4977.109375 L 2426.914062 -401.5625 " transform="matrix(0.1,0,0,-0.1,0,375)"/>
<path style="fill:none;stroke-width:10;stroke-linecap:round;stroke-linejoin:round;stroke:rgb(75.389099%,75.389099%,75.389099%);stroke-opacity:1;stroke-miterlimit:10;" d="M 2993.828125 4977.109375 L 2993.828125 -401.5625 " transform="matrix(0.1,0,0,-0.1,0,375)"/>
<path style="fill:none;stroke-width:10;stroke-linecap:round;stroke-linejoin:round;stroke:rgb(75.389099%,75.389099%,75.389099%);stroke-opacity:1;stroke-miterlimit:10;" d="M 3560.742188 4977.109375 L 3560.742188 -401.5625 " transform="matrix(0.1,0,0,-0.1,0,375)"/>
<path style="fill:none;stroke-width:10;stroke-linecap:round;stroke-linejoin:round;stroke:rgb(94.139099%,94.139099%,94.139099%);stroke-opacity:1;stroke-miterlimit:10;" d="M 45.78125 4977.109375 L 45.78125 -401.5625 " transform="matrix(0.1,0,0,-0.1,0,375)"/>
<path style="fill:none;stroke-width:10;stroke-linecap:round;stroke-linejoin:round;stroke:rgb(94.139099%,94.139099%,94.139099%);stroke-opacity:1;stroke-miterlimit:10;" d="M 272.578125 4977.109375 L 272.578125 -401.5625 " transform="matrix(0.1,0,0,-0.1,0,375)"/>
<path style="fill:none;stroke-width:10;stroke-linecap:round;stroke-linejoin:round;stroke:rgb(94.139099%,94.139099%,94.139099%);stroke-opacity:1;stroke-miterlimit:10;" d="M 385.9375 4977.109375 L 385.9375 -401.5625 " transform="matrix(0.1,0,0,-0.1,0,375)"/>
<path style="fill:none;stroke-width:10;stroke-linecap:round;stroke-linejoin:round;stroke:rgb(94.139099%,94.139099%,94.139099%);stroke-opacity:1;stroke-miterlimit:10;" d="M 499.335938 4977.109375 L 499.335938 -401.5625 " transform="matrix(0.1,0,0,-0.1,0,375)"/>
<path style="fill:none;stroke-width:10;stroke-linecap:round;stroke-linejoin:round;stroke:rgb(94.139099%,94.139099%,94.139099%);stroke-opacity:1;stroke-miterlimit:10;" d="M 612.734375 4977.109375 L 612.734375 -401.5625 " transform="matrix(0.1,0,0,-0.1,0,375)"/>
<path style="fill:none;stroke-width:10;stroke-linecap:round;stroke-linejoin:round;stroke:rgb(94.139099%,94.139099%,94.139099%);stroke-opacity:1;stroke-miterlimit:10;" d="M 839.492188 4977.109375 L 839.492188 -401.5625 " transform="matrix(0.1,0,0,-0.1,0,375)"/>
<path style="fill:none;stroke-width:10;stroke-linecap:round;stroke-linejoin:round;stroke:rgb(94.139099%,94.139099%,94.139099%);stroke-opacity:1;stroke-miterlimit:10;" d="M 952.890625 4977.109375 L 952.890625 -401.5625 " transform="matrix(0.1,0,0,-0.1,0,375)"/>
<path style="fill:none;stroke-width:10;stroke-linecap:round;stroke-linejoin:round;stroke:rgb(94.139099%,94.139099%,94.139099%);stroke-opacity:1;stroke-miterlimit:10;" d="M 1066.289062 4977.109375 L 1066.289062 -401.5625 " transform="matrix(0.1,0,0,-0.1,0,375)"/>
<path style="fill:none;stroke-width:10;stroke-linecap:round;stroke-linejoin:round;stroke:rgb(94.139099%,94.139099%,94.139099%);stroke-opacity:1;stroke-miterlimit:10;" d="M 1179.648438 4977.109375 L 1179.648438 -401.5625 " transform="matrix(0.1,0,0,-0.1,0,375)"/>
<path style="fill:none;stroke-width:10;stroke-linecap:round;stroke-linejoin:round;stroke:rgb(94.139099%,94.139099%,94.139099%);stroke-opacity:1;stroke-miterlimit:10;" d="M 1406.445312 4977.109375 L 1406.445312 -401.5625 " transform="matrix(0.1,0,0,-0.1,0,375)"/>
<path style="fill:none;stroke-width:10;stroke-linecap:round;stroke-linejoin:round;stroke:rgb(94.139099%,94.139099%,94.139099%);stroke-opacity:1;stroke-miterlimit:10;" d="M 1519.804688 4977.109375 L 1519.804688 -401.5625 " transform="matrix(0.1,0,0,-0.1,0,375)"/>
<path style="fill:none;stroke-width:10;stroke-linecap:round;stroke-linejoin:round;stroke:rgb(94.139099%,94.139099%,94.139099%);stroke-opacity:1;stroke-miterlimit:10;" d="M 1633.203125 4977.109375 L 1633.203125 -401.5625 " transform="matrix(0.1,0,0,-0.1,0,375)"/>
<path style="fill:none;stroke-width:10;stroke-linecap:round;stroke-linejoin:round;stroke:rgb(94.139099%,94.139099%,94.139099%);stroke-opacity:1;stroke-miterlimit:10;" d="M 1746.5625 4977.109375 L 1746.5625 -401.5625 " transform="matrix(0.1,0,0,-0.1,0,375)"/>
<path style="fill:none;stroke-width:10;stroke-linecap:round;stroke-linejoin:round;stroke:rgb(94.139099%,94.139099%,94.139099%);stroke-opacity:1;stroke-miterlimit:10;" d="M 1973.359375 4977.109375 L 1973.359375 -401.5625 " transform="matrix(0.1,0,0,-0.1,0,375)"/>
<path style="fill:none;stroke-width:10;stroke-linecap:round;stroke-linejoin:round;stroke:rgb(94.139099%,94.139099%,94.139099%);stroke-opacity:1;stroke-miterlimit:10;" d="M 2086.757812 4977.109375 L 2086.757812 -401.5625 " transform="matrix(0.1,0,0,-0.1,0,375)"/>
<path style="fill:none;stroke-width:10;stroke-linecap:round;stroke-linejoin:round;stroke:rgb(94.139099%,94.139099%,94.139099%);stroke-opacity:1;stroke-miterlimit:10;" d="M 2200.117188 4977.109375 L 2200.117188 -401.5625 " transform="matrix(0.1,0,0,-0.1,0,375)"/>
<path style="fill:none;stroke-width:10;stroke-linecap:round;stroke-linejoin:round;stroke:rgb(94.139099%,94.139099%,94.139099%);stroke-opacity:1;stroke-miterlimit:10;" d="M 2313.515625 4977.109375 L 2313.515625 -401.5625 " transform="matrix(0.1,0,0,-0.1,0,375)"/>
<path style="fill:none;stroke-width:10;stroke-linecap:round;stroke-linejoin:round;stroke:rgb(94.139099%,94.139099%,94.139099%);stroke-opacity:1;stroke-miterlimit:10;" d="M 2540.273438 4977.109375 L 2540.273438 -401.5625 " transform="matrix(0.1,0,0,-0.1,0,375)"/>
<path style="fill:none;stroke-width:10;stroke-linecap:round;stroke-linejoin:round;stroke:rgb(94.139099%,94.139099%,94.139099%);stroke-opacity:1;stroke-miterlimit:10;" d="M 2653.671875 4977.109375 L 2653.671875 -401.5625 " transform="matrix(0.1,0,0,-0.1,0,375)"/>
<path style="fill:none;stroke-width:10;stroke-linecap:round;stroke-linejoin:round;stroke:rgb(94.139099%,94.139099%,94.139099%);stroke-opacity:1;stroke-miterlimit:10;" d="M 2767.03125 4977.109375 L 2767.03125 -401.5625 " transform="matrix(0.1,0,0,-0.1,0,375)"/>
<path style="fill:none;stroke-width:10;stroke-linecap:round;stroke-linejoin:round;stroke:rgb(94.139099%,94.139099%,94.139099%);stroke-opacity:1;stroke-miterlimit:10;" d="M 2880.429688 4977.109375 L 2880.429688 -401.5625 " transform="matrix(0.1,0,0,-0.1,0,375)"/>
<path style="fill:none;stroke-width:10;stroke-linecap:round;stroke-linejoin:round;stroke:rgb(94.139099%,94.139099%,94.139099%);stroke-opacity:1;stroke-miterlimit:10;" d="M 3107.226562 4977.109375 L 3107.226562 -401.5625 " transform="matrix(0.1,0,0,-0.1,0,375)"/>
<path style="fill:none;stroke-width:10;stroke-linecap:round;stroke-linejoin:round;stroke:rgb(94.139099%,94.139099%,94.139099%);stroke-opacity:1;stroke-miterlimit:10;" d="M 3220.585938 4977.109375 L 3220.585938 -401.5625 " transform="matrix(0.1,0,0,-0.1,0,375)"/>
<path style="fill:none;stroke-width:10;stroke-linecap:round;stroke-linejoin:round;stroke:rgb(94.139099%,94.139099%,94.139099%);stroke-opacity:1;stroke-miterlimit:10;" d="M 3333.984375 4977.109375 L 3333.984375 -401.5625 " transform="matrix(0.1,0,0,-0.1,0,375)"/>
<path style="fill:none;stroke-width:10;stroke-linecap:round;stroke-linejoin:round;stroke:rgb(94.139099%,94.139099%,94.139099%);stroke-opacity:1;stroke-miterlimit:10;" d="M 3447.382812 4977.109375 L 3447.382812 -401.5625 " transform="matrix(0.1,0,0,-0.1,0,375)"/>
<path style="fill:none;stroke-width:10;stroke-linecap:round;stroke-linejoin:round;stroke:rgb(94.139099%,94.139099%,94.139099%);stroke-opacity:1;stroke-miterlimit:10;" d="M 3674.140625 4977.109375 L 3674.140625 -401.5625 " transform="matrix(0.1,0,0,-0.1,0,375)"/>
<path style="fill:none;stroke-width:10;stroke-linecap:round;stroke-linejoin:round;stroke:rgb(75.389099%,75.389099%,75.389099%);stroke-opacity:1;stroke-miterlimit:10;" d="M -825.742188 3618.671875 L 5825.9375 3618.671875 " transform="matrix(0.1,0,0,-0.1,0,375)"/>
<path style="fill:none;stroke-width:10;stroke-linecap:round;stroke-linejoin:round;stroke:rgb(75.389099%,75.389099%,75.389099%);stroke-opacity:1;stroke-miterlimit:10;" d="M -825.742188 2484.84375 L 5825.9375 2484.84375 " transform="matrix(0.1,0,0,-0.1,0,375)"/>
<path style="fill:none;stroke-width:10;stroke-linecap:round;stroke-linejoin:round;stroke:rgb(75.389099%,75.389099%,75.389099%);stroke-opacity:1;stroke-miterlimit:10;" d="M -825.742188 1917.890625 L 5825.9375 1917.890625 " transform="matrix(0.1,0,0,-0.1,0,375)"/>
<path style="fill:none;stroke-width:10;stroke-linecap:round;stroke-linejoin:round;stroke:rgb(75.389099%,75.389099%,75.389099%);stroke-opacity:1;stroke-miterlimit:10;" d="M -825.742188 1350.976562 L 5825.9375 1350.976562 " transform="matrix(0.1,0,0,-0.1,0,375)"/>
<path style="fill:none;stroke-width:10;stroke-linecap:round;stroke-linejoin:round;stroke:rgb(75.389099%,75.389099%,75.389099%);stroke-opacity:1;stroke-miterlimit:10;" d="M -825.742188 784.023438 L 5825.9375 784.023438 " transform="matrix(0.1,0,0,-0.1,0,375)"/>
<path style="fill:none;stroke-width:10;stroke-linecap:round;stroke-linejoin:round;stroke:rgb(75.389099%,75.389099%,75.389099%);stroke-opacity:1;stroke-miterlimit:10;" d="M -825.742188 217.109375 L 5825.9375 217.109375 " transform="matrix(0.1,0,0,-0.1,0,375)"/>
<path style="fill:none;stroke-width:10;stroke-linecap:round;stroke-linejoin:round;stroke:rgb(94.139099%,94.139099%,94.139099%);stroke-opacity:1;stroke-miterlimit:10;" d="M -825.742188 3732.070312 L 5825.9375 3732.070312 " transform="matrix(0.1,0,0,-0.1,0,375)"/>
<path style="fill:none;stroke-width:10;stroke-linecap:round;stroke-linejoin:round;stroke:rgb(94.139099%,94.139099%,94.139099%);stroke-opacity:1;stroke-miterlimit:10;" d="M -825.742188 3505.3125 L 5825.9375 3505.3125 " transform="matrix(0.1,0,0,-0.1,0,375)"/>
<path style="fill:none;stroke-width:10;stroke-linecap:round;stroke-linejoin:round;stroke:rgb(94.139099%,94.139099%,94.139099%);stroke-opacity:1;stroke-miterlimit:10;" d="M -825.742188 3391.914062 L 5825.9375 3391.914062 " transform="matrix(0.1,0,0,-0.1,0,375)"/>
<path style="fill:none;stroke-width:10;stroke-linecap:round;stroke-linejoin:round;stroke:rgb(94.139099%,94.139099%,94.139099%);stroke-opacity:1;stroke-miterlimit:10;" d="M -825.742188 3278.515625 L 5825.9375 3278.515625 " transform="matrix(0.1,0,0,-0.1,0,375)"/>
<path style="fill:none;stroke-width:10;stroke-linecap:round;stroke-linejoin:round;stroke:rgb(94.139099%,94.139099%,94.139099%);stroke-opacity:1;stroke-miterlimit:10;" d="M -825.742188 3165.15625 L 5825.9375 3165.15625 " transform="matrix(0.1,0,0,-0.1,0,375)"/>
<path style="fill:none;stroke-width:10;stroke-linecap:round;stroke-linejoin:round;stroke:rgb(94.139099%,94.139099%,94.139099%);stroke-opacity:1;stroke-miterlimit:10;" d="M -825.742188 2938.359375 L 5825.9375 2938.359375 " transform="matrix(0.1,0,0,-0.1,0,375)"/>
<path style="fill:none;stroke-width:10;stroke-linecap:round;stroke-linejoin:round;stroke:rgb(94.139099%,94.139099%,94.139099%);stroke-opacity:1;stroke-miterlimit:10;" d="M -825.742188 2824.960938 L 5825.9375 2824.960938 " transform="matrix(0.1,0,0,-0.1,0,375)"/>
<path style="fill:none;stroke-width:10;stroke-linecap:round;stroke-linejoin:round;stroke:rgb(94.139099%,94.139099%,94.139099%);stroke-opacity:1;stroke-miterlimit:10;" d="M -825.742188 2711.601562 L 5825.9375 2711.601562 " transform="matrix(0.1,0,0,-0.1,0,375)"/>
<path style="fill:none;stroke-width:10;stroke-linecap:round;stroke-linejoin:round;stroke:rgb(94.139099%,94.139099%,94.139099%);stroke-opacity:1;stroke-miterlimit:10;" d="M -825.742188 2598.203125 L 5825.9375 2598.203125 " transform="matrix(0.1,0,0,-0.1,0,375)"/>
<path style="fill:none;stroke-width:10;stroke-linecap:round;stroke-linejoin:round;stroke:rgb(94.139099%,94.139099%,94.139099%);stroke-opacity:1;stroke-miterlimit:10;" d="M -825.742188 2371.445312 L 5825.9375 2371.445312 " transform="matrix(0.1,0,0,-0.1,0,375)"/>
<path style="fill:none;stroke-width:10;stroke-linecap:round;stroke-linejoin:round;stroke:rgb(94.139099%,94.139099%,94.139099%);stroke-opacity:1;stroke-miterlimit:10;" d="M -825.742188 2258.046875 L 5825.9375 2258.046875 " transform="matrix(0.1,0,0,-0.1,0,375)"/>
<path style="fill:none;stroke-width:10;stroke-linecap:round;stroke-linejoin:round;stroke:rgb(94.139099%,94.139099%,94.139099%);stroke-opacity:1;stroke-miterlimit:10;" d="M -825.742188 2144.6875 L 5825.9375 2144.6875 " transform="matrix(0.1,0,0,-0.1,0,375)"/>
<path style="fill:none;stroke-width:10;stroke-linecap:round;stroke-linejoin:round;stroke:rgb(94.139099%,94.139099%,94.139099%);stroke-opacity:1;stroke-miterlimit:10;" d="M -825.742188 2031.289062 L 5825.9375 2031.289062 " transform="matrix(0.1,0,0,-0.1,0,375)"/>
<path style="fill:none;stroke-width:10;stroke-linecap:round;stroke-linejoin:round;stroke:rgb(94.139099%,94.139099%,94.139099%);stroke-opacity:1;stroke-miterlimit:10;" d="M -825.742188 1804.492188 L 5825.9375 1804.492188 " transform="matrix(0.1,0,0,-0.1,0,375)"/>
<path style="fill:none;stroke-width:10;stroke-linecap:round;stroke-linejoin:round;stroke:rgb(94.139099%,94.139099%,94.139099%);stroke-opacity:1;stroke-miterlimit:10;" d="M -825.742188 1691.132812 L 5825.9375 1691.132812 " transform="matrix(0.1,0,0,-0.1,0,375)"/>
<path style="fill:none;stroke-width:10;stroke-linecap:round;stroke-linejoin:round;stroke:rgb(94.139099%,94.139099%,94.139099%);stroke-opacity:1;stroke-miterlimit:10;" d="M -825.742188 1577.734375 L 5825.9375 1577.734375 " transform="matrix(0.1,0,0,-0.1,0,375)"/>
<path style="fill:none;stroke-width:10;stroke-linecap:round;stroke-linejoin:round;stroke:rgb(94.139099%,94.139099%,94.139099%);stroke-opacity:1;stroke-miterlimit:10;" d="M -825.742188 1464.375 L 5825.9375 1464.375 " transform="matrix(0.1,0,0,-0.1,0,375)"/>
<path style="fill:none;stroke-width:10;stroke-linecap:round;stroke-linejoin:round;stroke:rgb(94.139099%,94.139099%,94.139099%);stroke-opacity:1;stroke-miterlimit:10;" d="M -825.742188 1237.578125 L 5825.9375 1237.578125 " transform="matrix(0.1,0,0,-0.1,0,375)"/>
<path style="fill:none;stroke-width:10;stroke-linecap:round;stroke-linejoin:round;stroke:rgb(94.139099%,94.139099%,94.139099%);stroke-opacity:1;stroke-miterlimit:10;" d="M -825.742188 1124.21875 L 5825.9375 1124.21875 " transform="matrix(0.1,0,0,-0.1,0,375)"/>
<path style="fill:none;stroke-width:10;stroke-linecap:round;stroke-linejoin:round;stroke:rgb(94.139099%,94.139099%,94.139099%);stroke-opacity:1;stroke-miterlimit:10;" d="M -825.742188 1010.820312 L 5825.9375 1010.820312 " transform="matrix(0.1,0,0,-0.1,0,375)"/>
<path style="fill:none;stroke-width:10;stroke-linecap:round;stroke-linejoin:round;stroke:rgb(94.139099%,94.139099%,94.139099%);stroke-opacity:1;stroke-miterlimit:10;" d="M -825.742188 897.421875 L 5825.9375 897.421875 " transform="matrix(0.1,0,0,-0.1,0,375)"/>
<path style="fill:none;stroke-width:10;stroke-linecap:round;stroke-linejoin:round;stroke:rgb(94.139099%,94.139099%,94.139099%);stroke-opacity:1;stroke-miterlimit:10;" d="M -825.742188 670.664062 L 5825.9375 670.664062 " transform="matrix(0.1,0,0,-0.1,0,375)"/>
<path style="fill:none;stroke-width:10;stroke-linecap:round;stroke-linejoin:round;stroke:rgb(94.139099%,94.139099%,94.139099%);stroke-opacity:1;stroke-miterlimit:10;" d="M -825.742188 557.265625 L 5825.9375 557.265625 " transform="matrix(0.1,0,0,-0.1,0,375)"/>
<path style="fill:none;stroke-width:10;stroke-linecap:round;stroke-linejoin:round;stroke:rgb(94.139099%,94.139099%,94.139099%);stroke-opacity:1;stroke-miterlimit:10;" d="M -825.742188 443.867188 L 5825.9375 443.867188 " transform="matrix(0.1,0,0,-0.1,0,375)"/>
<path style="fill:none;stroke-width:10;stroke-linecap:round;stroke-linejoin:round;stroke:rgb(94.139099%,94.139099%,94.139099%);stroke-opacity:1;stroke-miterlimit:10;" d="M -825.742188 330.507812 L 5825.9375 330.507812 " transform="matrix(0.1,0,0,-0.1,0,375)"/>
<path style="fill:none;stroke-width:10;stroke-linecap:round;stroke-linejoin:round;stroke:rgb(94.139099%,94.139099%,94.139099%);stroke-opacity:1;stroke-miterlimit:10;" d="M -825.742188 103.710938 L 5825.9375 103.710938 " transform="matrix(0.1,0,0,-0.1,0,375)"/>
<path style="fill:none;stroke-width:10;stroke-linecap:butt;stroke-linejoin:miter;stroke:rgb(0%,0%,0%);stroke-opacity:1;stroke-miterlimit:10;" d="M 726.09375 4954.179688 L 726.09375 -401.5625 " transform="matrix(0.1,0,0,-0.1,0,375)"/>
<path style="fill:none;stroke-width:10;stroke-linecap:butt;stroke-linejoin:miter;stroke:rgb(0%,0%,0%);stroke-opacity:1;stroke-miterlimit:10;" d="M -825.742188 3051.757812 L 5803.007812 3051.757812 " transform="matrix(0.1,0,0,-0.1,0,375)"/>
<path style=" stroke:none;fill-rule:nonzero;fill:rgb(0%,0%,0%);fill-opacity:1;" d="M 3 83.511719 L 3 82.597656 L 8.46875 82.597656 L 8.46875 83.511719 Z M 13.488281 87.410156 C 12.464844 87.410156 11.632812 86.925781 11 85.960938 C 10.363281 84.996094 10.046875 83.734375 10.046875 82.179688 C 10.046875 80.613281 10.367188 79.351562 11.007812 78.398438 C 11.644531 77.441406 12.484375 76.964844 13.53125 76.964844 C 14.574219 76.964844 15.414062 77.441406 16.050781 78.398438 C 16.691406 79.351562 17.011719 80.605469 17.011719 82.160156 C 17.011719 83.753906 16.691406 85.027344 16.050781 85.980469 C 15.414062 86.933594 14.558594 87.410156 13.488281 87.410156 Z M 13.503906 86.414062 C 14.90625 86.414062 15.605469 84.988281 15.605469 82.140625 C 15.605469 79.355469 14.914062 77.960938 13.53125 77.960938 C 12.148438 77.960938 11.460938 79.367188 11.460938 82.179688 C 11.460938 85.003906 12.140625 86.414062 13.503906 86.414062 Z M 19.695312 87.160156 L 19.695312 85.5 L 21.351562 85.5 L 21.351562 87.160156 Z M 24.078125 87.160156 L 24.078125 85.996094 C 24.464844 85.097656 25.242188 84.117188 26.417969 83.054688 L 27.175781 82.375 C 28.152344 81.492188 28.640625 80.617188 28.640625 79.746094 C 28.640625 79.191406 28.476562 78.753906 28.140625 78.4375 C 27.808594 78.121094 27.347656 77.960938 26.765625 77.960938 C 26.078125 77.960938 25.265625 78.226562 24.328125 78.761719 L 24.328125 77.589844 C 25.210938 77.175781 26.085938 76.964844 26.957031 76.964844 C 27.886719 76.964844 28.636719 77.21875 29.199219 77.71875 C 29.765625 78.21875 30.046875 78.886719 30.046875 79.714844 C 30.046875 80.308594 29.902344 80.839844 29.621094 81.300781 C 29.335938 81.761719 28.804688 82.320312 28.03125 82.980469 L 27.519531 83.417969 C 26.457031 84.316406 25.84375 85.175781 25.679688 85.996094 L 30 85.996094 L 30 87.160156 "/>
<path style=" stroke:none;fill-rule:nonzero;fill:rgb(0%,0%,0%);fill-opacity:1;" d="M 123.585938 87.410156 C 122.558594 87.410156 121.730469 86.925781 121.097656 85.960938 C 120.460938 84.996094 120.144531 83.734375 120.144531 82.179688 C 120.144531 80.613281 120.464844 79.351562 121.101562 78.398438 C 121.742188 77.441406 122.582031 76.964844 123.625 76.964844 C 124.671875 76.964844 125.511719 77.441406 126.148438 78.398438 C 126.789062 79.351562 127.105469 80.605469 127.105469 82.160156 C 127.105469 83.753906 126.789062 85.027344 126.148438 85.980469 C 125.511719 86.933594 124.65625 87.410156 123.585938 87.410156 Z M 123.597656 86.414062 C 125 86.414062 125.703125 84.988281 125.703125 82.140625 C 125.703125 79.355469 125.011719 77.960938 123.625 77.960938 C 122.246094 77.960938 121.554688 79.367188 121.554688 82.179688 C 121.554688 85.003906 122.238281 86.414062 123.597656 86.414062 Z M 129.789062 87.160156 L 129.789062 85.5 L 131.449219 85.5 L 131.449219 87.160156 Z M 134.175781 87.160156 L 134.175781 85.996094 C 134.5625 85.097656 135.339844 84.117188 136.515625 83.054688 L 137.273438 82.375 C 138.25 81.492188 138.738281 80.617188 138.738281 79.746094 C 138.738281 79.191406 138.570312 78.753906 138.238281 78.4375 C 137.902344 78.121094 137.445312 77.960938 136.863281 77.960938 C 136.175781 77.960938 135.359375 78.226562 134.425781 78.761719 L 134.425781 77.589844 C 135.308594 77.175781 136.183594 76.964844 137.050781 76.964844 C 137.984375 76.964844 138.730469 77.21875 139.296875 77.71875 C 139.859375 78.21875 140.144531 78.886719 140.144531 79.714844 C 140.144531 80.308594 140 80.839844 139.714844 81.300781 C 139.433594 81.761719 138.902344 82.320312 138.128906 82.980469 L 137.617188 83.417969 C 136.554688 84.316406 135.941406 85.175781 135.773438 85.996094 L 140.097656 85.996094 L 140.097656 87.160156 "/>
<path style=" stroke:none;fill-rule:nonzero;fill:rgb(0%,0%,0%);fill-opacity:1;" d="M 180.925781 87.410156 C 179.902344 87.410156 179.070312 86.925781 178.4375 85.960938 C 177.804688 84.996094 177.488281 83.734375 177.488281 82.179688 C 177.488281 80.613281 177.804688 79.351562 178.445312 78.398438 C 179.082031 77.441406 179.925781 76.964844 180.96875 76.964844 C 182.011719 76.964844 182.851562 77.441406 183.492188 78.398438 C 184.128906 79.351562 184.449219 80.605469 184.449219 82.160156 C 184.449219 83.753906 184.128906 85.027344 183.492188 85.980469 C 182.851562 86.933594 181.996094 87.410156 180.925781 87.410156 Z M 180.941406 86.414062 C 182.34375 86.414062 183.042969 84.988281 183.042969 82.140625 C 183.042969 79.355469 182.351562 77.960938 180.96875 77.960938 C 179.589844 77.960938 178.898438 79.367188 178.898438 82.179688 C 178.898438 85.003906 179.578125 86.414062 180.941406 86.414062 Z M 187.132812 87.160156 L 187.132812 85.5 L 188.792969 85.5 L 188.792969 87.160156 Z M 195.554688 87.160156 L 195.554688 84.34375 L 191.082031 84.34375 L 191.082031 83.34375 L 195.554688 77.214844 L 196.800781 77.214844 L 196.800781 83.261719 L 198.128906 83.261719 L 198.128906 84.34375 L 196.800781 84.34375 L 196.800781 87.160156 Z M 192.378906 83.261719 L 195.644531 83.261719 L 195.644531 78.839844 "/>
<path style=" stroke:none;fill-rule:nonzero;fill:rgb(0%,0%,0%);fill-opacity:1;" d="M 237.121094 87.410156 C 236.097656 87.410156 235.265625 86.925781 234.632812 85.960938 C 234 84.996094 233.683594 83.734375 233.683594 82.179688 C 233.683594 80.613281 234 79.351562 234.640625 78.398438 C 235.277344 77.441406 236.117188 76.964844 237.164062 76.964844 C 238.207031 76.964844 239.046875 77.441406 239.6875 78.398438 C 240.324219 79.351562 240.644531 80.605469 240.644531 82.160156 C 240.644531 83.753906 240.324219 85.027344 239.6875 85.980469 C 239.046875 86.933594 238.191406 87.410156 237.121094 87.410156 Z M 237.136719 86.414062 C 238.539062 86.414062 239.238281 84.988281 239.238281 82.140625 C 239.238281 79.355469 238.546875 77.960938 237.164062 77.960938 C 235.78125 77.960938 235.09375 79.367188 235.09375 82.179688 C 235.09375 85.003906 235.773438 86.414062 237.136719 86.414062 Z M 243.328125 87.160156 L 243.328125 85.5 L 244.988281 85.5 L 244.988281 87.160156 Z M 248.9375 82.007812 C 249.566406 81.1875 250.363281 80.777344 251.320312 80.777344 C 252.191406 80.777344 252.902344 81.0625 253.453125 81.640625 C 254.007812 82.214844 254.285156 82.953125 254.285156 83.855469 C 254.285156 84.890625 253.976562 85.738281 253.355469 86.40625 C 252.734375 87.074219 251.945312 87.410156 250.992188 87.410156 C 249.894531 87.410156 249.035156 86.96875 248.417969 86.085938 C 247.800781 85.203125 247.492188 83.976562 247.492188 82.410156 C 247.492188 80.683594 247.847656 79.34375 248.554688 78.390625 C 249.265625 77.4375 250.265625 76.960938 251.558594 76.960938 C 252.148438 76.960938 252.886719 77.085938 253.773438 77.335938 L 253.773438 78.492188 C 252.839844 78.132812 252.070312 77.953125 251.476562 77.953125 C 249.78125 77.953125 248.9375 79.304688 248.9375 82.007812 Z M 252.953125 84.148438 C 252.953125 83.398438 252.785156 82.804688 252.445312 82.375 C 252.109375 81.945312 251.640625 81.730469 251.039062 81.730469 C 250.480469 81.730469 249.996094 81.917969 249.59375 82.296875 C 249.191406 82.671875 248.988281 83.121094 248.988281 83.652344 C 248.988281 84.484375 249.179688 85.152344 249.5625 85.65625 C 249.945312 86.160156 250.453125 86.414062 251.085938 86.414062 C 251.65625 86.414062 252.109375 86.210938 252.445312 85.800781 C 252.785156 85.390625 252.953125 84.839844 252.953125 84.148438 "/>
<path style=" stroke:none;fill-rule:nonzero;fill:rgb(0%,0%,0%);fill-opacity:1;" d="M 294.464844 87.410156 C 293.4375 87.410156 292.609375 86.925781 291.976562 85.960938 C 291.339844 84.996094 291.023438 83.734375 291.023438 82.179688 C 291.023438 80.613281 291.34375 79.351562 291.980469 78.398438 C 292.621094 77.441406 293.460938 76.964844 294.503906 76.964844 C 295.550781 76.964844 296.390625 77.441406 297.027344 78.398438 C 297.664062 79.351562 297.984375 80.605469 297.984375 82.160156 C 297.984375 83.753906 297.664062 85.027344 297.027344 85.980469 C 296.390625 86.933594 295.535156 87.410156 294.464844 87.410156 Z M 294.476562 86.414062 C 295.878906 86.414062 296.582031 84.988281 296.582031 82.140625 C 296.582031 79.355469 295.890625 77.960938 294.503906 77.960938 C 293.125 77.960938 292.433594 79.367188 292.433594 82.179688 C 292.433594 85.003906 293.117188 86.414062 294.476562 86.414062 Z M 300.667969 87.160156 L 300.667969 85.5 L 302.328125 85.5 L 302.328125 87.160156 Z M 307.078125 81.742188 C 306.105469 81.066406 305.621094 80.320312 305.621094 79.5 C 305.621094 78.746094 305.894531 78.136719 306.445312 77.664062 C 306.996094 77.195312 307.714844 76.960938 308.601562 76.960938 C 309.421875 76.960938 310.085938 77.160156 310.59375 77.558594 C 311.105469 77.957031 311.359375 78.472656 311.359375 79.109375 C 311.359375 80.074219 310.738281 80.949219 309.503906 81.742188 C 311.003906 82.480469 311.753906 83.425781 311.753906 84.585938 C 311.753906 85.421875 311.441406 86.097656 310.8125 86.621094 C 310.179688 87.144531 309.367188 87.410156 308.375 87.410156 C 307.398438 87.410156 306.609375 87.160156 306.007812 86.664062 C 305.402344 86.171875 305.101562 85.519531 305.101562 84.714844 C 305.101562 83.523438 305.761719 82.53125 307.078125 81.742188 Z M 308.765625 81.328125 C 309.691406 80.71875 310.15625 80.039062 310.15625 79.289062 C 310.15625 78.890625 310 78.570312 309.691406 78.328125 C 309.382812 78.082031 308.976562 77.960938 308.46875 77.960938 C 307.980469 77.960938 307.585938 78.078125 307.277344 78.320312 C 306.976562 78.558594 306.820312 78.871094 306.820312 79.25 C 306.820312 79.621094 306.960938 79.953125 307.234375 80.246094 C 307.511719 80.542969 308.019531 80.902344 308.765625 81.328125 Z M 307.796875 82.28125 C 307.261719 82.691406 306.902344 83.054688 306.710938 83.359375 C 306.519531 83.667969 306.425781 84.046875 306.425781 84.503906 C 306.425781 85.074219 306.609375 85.535156 306.976562 85.886719 C 307.34375 86.238281 307.828125 86.414062 308.429688 86.414062 C 309.007812 86.414062 309.476562 86.265625 309.84375 85.964844 C 310.207031 85.664062 310.390625 85.273438 310.390625 84.796875 C 310.390625 84.410156 310.277344 84.082031 310.050781 83.816406 C 309.824219 83.550781 309.386719 83.222656 308.738281 82.839844 "/>
<path style=" stroke:none;fill-rule:nonzero;fill:rgb(0%,0%,0%);fill-opacity:1;" d="M 355.296875 87.160156 L 355.296875 86.164062 L 357.285156 86.164062 L 357.285156 78.316406 L 355.296875 78.8125 L 355.296875 77.792969 L 358.617188 76.964844 L 358.617188 86.164062 L 360.605469 86.164062 L 360.605469 87.160156 "/>
<path style=" stroke:none;fill-rule:nonzero;fill:rgb(0%,0%,0%);fill-opacity:1;" d="M 48.871094 355.3125 L 48.871094 354.398438 L 54.34375 354.398438 L 54.34375 355.3125 Z M 57.117188 358.960938 L 57.117188 357.964844 L 59.105469 357.964844 L 59.105469 350.117188 L 57.117188 350.613281 L 57.117188 349.59375 L 60.4375 348.765625 L 60.4375 357.964844 L 62.425781 357.964844 L 62.425781 358.960938 "/>
<path style=" stroke:none;fill-rule:nonzero;fill:rgb(0%,0%,0%);fill-opacity:1;" d="M 35.109375 297.96875 L 35.109375 297.054688 L 40.582031 297.054688 L 40.582031 297.96875 Z M 45.601562 301.867188 C 44.574219 301.867188 43.746094 301.386719 43.109375 300.417969 C 42.476562 299.453125 42.160156 298.195312 42.160156 296.640625 C 42.160156 295.070312 42.480469 293.808594 43.117188 292.855469 C 43.757812 291.902344 44.597656 291.425781 45.640625 291.425781 C 46.683594 291.425781 47.527344 291.902344 48.164062 292.855469 C 48.800781 293.808594 49.121094 295.066406 49.121094 296.621094 C 49.121094 298.214844 48.800781 299.488281 48.164062 300.441406 C 47.527344 301.390625 46.671875 301.867188 45.601562 301.867188 Z M 45.613281 300.871094 C 47.015625 300.871094 47.71875 299.449219 47.71875 296.597656 C 47.71875 293.8125 47.023438 292.417969 45.640625 292.417969 C 44.261719 292.417969 43.570312 293.828125 43.570312 296.640625 C 43.570312 299.460938 44.253906 300.871094 45.613281 300.871094 Z M 51.804688 301.617188 L 51.804688 299.960938 L 53.464844 299.960938 L 53.464844 301.617188 Z M 58.214844 296.203125 C 57.242188 295.527344 56.753906 294.777344 56.753906 293.957031 C 56.753906 293.207031 57.03125 292.59375 57.582031 292.125 C 58.132812 291.652344 58.851562 291.417969 59.738281 291.417969 C 60.558594 291.417969 61.222656 291.617188 61.730469 292.015625 C 62.238281 292.414062 62.492188 292.933594 62.492188 293.570312 C 62.492188 294.53125 61.875 295.410156 60.640625 296.203125 C 62.140625 296.9375 62.890625 297.886719 62.890625 299.046875 C 62.890625 299.878906 62.574219 300.558594 61.945312 301.082031 C 61.316406 301.605469 60.503906 301.867188 59.511719 301.867188 C 58.535156 301.867188 57.742188 301.621094 57.140625 301.125 C 56.539062 300.628906 56.238281 299.980469 56.238281 299.171875 C 56.238281 297.980469 56.894531 296.992188 58.214844 296.203125 Z M 59.898438 295.785156 C 60.828125 295.175781 61.289062 294.496094 61.289062 293.75 C 61.289062 293.351562 61.136719 293.03125 60.828125 292.785156 C 60.519531 292.542969 60.109375 292.417969 59.605469 292.417969 C 59.117188 292.417969 58.71875 292.539062 58.414062 292.777344 C 58.109375 293.019531 57.957031 293.328125 57.957031 293.710938 C 57.957031 294.082031 58.09375 294.414062 58.371094 294.707031 C 58.648438 295 59.15625 295.359375 59.898438 295.785156 Z M 58.933594 296.738281 C 58.398438 297.152344 58.039062 297.511719 57.847656 297.820312 C 57.65625 298.125 57.5625 298.507812 57.5625 298.964844 C 57.5625 299.535156 57.746094 299.992188 58.113281 300.34375 C 58.480469 300.699219 58.964844 300.871094 59.5625 300.871094 C 60.140625 300.871094 60.613281 300.722656 60.976562 300.421875 C 61.34375 300.121094 61.527344 299.734375 61.527344 299.253906 C 61.527344 298.867188 61.414062 298.542969 61.1875 298.277344 C 60.960938 298.007812 60.523438 297.683594 59.871094 297.296875 "/>
<path style=" stroke:none;fill-rule:nonzero;fill:rgb(0%,0%,0%);fill-opacity:1;" d="M 35.109375 241.773438 L 35.109375 240.859375 L 40.582031 240.859375 L 40.582031 241.773438 Z M 45.601562 245.671875 C 44.574219 245.671875 43.746094 245.1875 43.109375 244.222656 C 42.476562 243.257812 42.160156 242 42.160156 240.445312 C 42.160156 238.878906 42.480469 237.613281 43.117188 236.660156 C 43.757812 235.707031 44.597656 235.230469 45.640625 235.230469 C 46.683594 235.230469 47.527344 235.707031 48.164062 236.660156 C 48.800781 237.613281 49.121094 238.871094 49.121094 240.425781 C 49.121094 242.019531 48.800781 243.292969 48.164062 244.246094 C 47.527344 245.195312 46.671875 245.671875 45.601562 245.671875 Z M 45.613281 244.679688 C 47.015625 244.679688 47.71875 243.253906 47.71875 240.402344 C 47.71875 237.617188 47.023438 236.222656 45.640625 236.222656 C 44.261719 236.222656 43.570312 237.632812 43.570312 240.445312 C 43.570312 243.265625 44.253906 244.679688 45.613281 244.679688 Z M 51.804688 245.425781 L 51.804688 243.765625 L 53.464844 243.765625 L 53.464844 245.425781 Z M 57.414062 240.269531 C 58.046875 239.449219 58.839844 239.039062 59.800781 239.039062 C 60.667969 239.039062 61.378906 239.328125 61.933594 239.902344 C 62.484375 240.480469 62.761719 241.21875 62.761719 242.117188 C 62.761719 243.152344 62.453125 244.003906 61.832031 244.671875 C 61.210938 245.339844 60.425781 245.671875 59.46875 245.671875 C 58.371094 245.671875 57.515625 245.230469 56.894531 244.347656 C 56.277344 243.464844 55.96875 242.242188 55.96875 240.671875 C 55.96875 238.949219 56.324219 237.609375 57.035156 236.652344 C 57.742188 235.699219 58.742188 235.222656 60.035156 235.222656 C 60.625 235.222656 61.363281 235.347656 62.253906 235.597656 L 62.253906 236.753906 C 61.316406 236.398438 60.550781 236.21875 59.953125 236.21875 C 58.261719 236.21875 57.414062 237.566406 57.414062 240.269531 Z M 61.433594 242.414062 C 61.433594 241.660156 61.261719 241.070312 60.925781 240.640625 C 60.585938 240.210938 60.117188 239.992188 59.515625 239.992188 C 58.957031 239.992188 58.476562 240.183594 58.074219 240.558594 C 57.667969 240.933594 57.46875 241.386719 57.46875 241.914062 C 57.46875 242.75 57.660156 243.417969 58.042969 243.921875 C 58.425781 244.425781 58.933594 244.679688 59.5625 244.679688 C 60.132812 244.679688 60.585938 244.472656 60.925781 244.0625 C 61.261719 243.652344 61.433594 243.101562 61.433594 242.414062 "/>
<path style=" stroke:none;fill-rule:nonzero;fill:rgb(0%,0%,0%);fill-opacity:1;" d="M 35.109375 184.433594 L 35.109375 183.519531 L 40.582031 183.519531 L 40.582031 184.433594 Z M 45.601562 188.328125 C 44.574219 188.328125 43.746094 187.847656 43.109375 186.882812 C 42.476562 185.917969 42.160156 184.65625 42.160156 183.101562 C 42.160156 181.535156 42.480469 180.273438 43.117188 179.320312 C 43.757812 178.363281 44.597656 177.886719 45.640625 177.886719 C 46.683594 177.886719 47.527344 178.363281 48.164062 179.320312 C 48.800781 180.273438 49.121094 181.527344 49.121094 183.082031 C 49.121094 184.675781 48.800781 185.949219 48.164062 186.902344 C 47.527344 187.855469 46.671875 188.328125 45.601562 188.328125 Z M 45.613281 187.335938 C 47.015625 187.335938 47.71875 185.910156 47.71875 183.0625 C 47.71875 180.277344 47.023438 178.882812 45.640625 178.882812 C 44.261719 178.882812 43.570312 180.289062 43.570312 183.101562 C 43.570312 185.925781 44.253906 187.335938 45.613281 187.335938 Z M 51.804688 188.082031 L 51.804688 186.421875 L 53.464844 186.421875 L 53.464844 188.082031 Z M 60.230469 188.082031 L 60.230469 185.265625 L 55.753906 185.265625 L 55.753906 184.265625 L 60.230469 178.136719 L 61.472656 178.136719 L 61.472656 184.183594 L 62.800781 184.183594 L 62.800781 185.265625 L 61.472656 185.265625 L 61.472656 188.082031 Z M 57.050781 184.183594 L 60.316406 184.183594 L 60.316406 179.761719 "/>
<path style=" stroke:none;fill-rule:nonzero;fill:rgb(0%,0%,0%);fill-opacity:1;" d="M 35.109375 128.238281 L 35.109375 127.324219 L 40.582031 127.324219 L 40.582031 128.238281 Z M 45.601562 132.136719 C 44.574219 132.136719 43.746094 131.652344 43.109375 130.6875 C 42.476562 129.722656 42.160156 128.460938 42.160156 126.90625 C 42.160156 125.339844 42.480469 124.078125 43.117188 123.125 C 43.757812 122.171875 44.597656 121.691406 45.640625 121.691406 C 46.683594 121.691406 47.527344 122.171875 48.164062 123.125 C 48.800781 124.078125 49.121094 125.332031 49.121094 126.886719 C 49.121094 128.480469 48.800781 129.753906 48.164062 130.707031 C 47.527344 131.660156 46.671875 132.136719 45.601562 132.136719 Z M 45.613281 131.140625 C 47.015625 131.140625 47.71875 129.714844 47.71875 126.867188 C 47.71875 124.078125 47.023438 122.6875 45.640625 122.6875 C 44.261719 122.6875 43.570312 124.09375 43.570312 126.90625 C 43.570312 129.730469 44.253906 131.140625 45.613281 131.140625 Z M 51.804688 131.886719 L 51.804688 130.226562 L 53.464844 130.226562 L 53.464844 131.886719 Z M 56.191406 131.886719 L 56.191406 130.722656 C 56.574219 129.824219 57.355469 128.84375 58.53125 127.78125 L 59.289062 127.101562 C 60.265625 126.21875 60.753906 125.34375 60.753906 124.476562 C 60.753906 123.917969 60.585938 123.480469 60.253906 123.164062 C 59.917969 122.847656 59.460938 122.6875 58.878906 122.6875 C 58.1875 122.6875 57.375 122.953125 56.441406 123.488281 L 56.441406 122.316406 C 57.320312 121.902344 58.199219 121.691406 59.066406 121.691406 C 60 121.691406 60.746094 121.941406 61.3125 122.445312 C 61.875 122.945312 62.15625 123.613281 62.15625 124.441406 C 62.15625 125.035156 62.015625 125.566406 61.730469 126.027344 C 61.445312 126.488281 60.917969 127.046875 60.140625 127.707031 L 59.632812 128.144531 C 58.570312 129.042969 57.957031 129.902344 57.789062 130.722656 L 62.109375 130.722656 L 62.109375 131.886719 "/>
<path style=" stroke:none;fill-rule:nonzero;fill:rgb(0%,0%,0%);fill-opacity:1;" d="M 45.601562 18.597656 C 44.574219 18.597656 43.746094 18.113281 43.109375 17.148438 C 42.476562 16.183594 42.160156 14.925781 42.160156 13.371094 C 42.160156 11.800781 42.480469 10.539062 43.117188 9.585938 C 43.757812 8.632812 44.597656 8.15625 45.640625 8.15625 C 46.683594 8.15625 47.527344 8.632812 48.164062 9.585938 C 48.800781 10.539062 49.121094 11.796875 49.121094 13.351562 C 49.121094 14.945312 48.800781 16.21875 48.164062 17.171875 C 47.527344 18.121094 46.671875 18.597656 45.601562 18.597656 Z M 45.613281 17.605469 C 47.015625 17.605469 47.71875 16.179688 47.71875 13.328125 C 47.71875 10.542969 47.023438 9.148438 45.640625 9.148438 C 44.261719 9.148438 43.570312 10.558594 43.570312 13.371094 C 43.570312 16.191406 44.253906 17.605469 45.613281 17.605469 Z M 51.804688 18.351562 L 51.804688 16.6875 L 53.464844 16.6875 L 53.464844 18.351562 Z M 56.191406 18.351562 L 56.191406 17.1875 C 56.574219 16.285156 57.355469 15.304688 58.53125 14.242188 L 59.289062 13.566406 C 60.265625 12.683594 60.753906 11.808594 60.753906 10.9375 C 60.753906 10.382812 60.585938 9.945312 60.253906 9.628906 C 59.917969 9.308594 59.460938 9.148438 58.878906 9.148438 C 58.1875 9.148438 57.375 9.417969 56.441406 9.949219 L 56.441406 8.78125 C 57.320312 8.363281 58.199219 8.15625 59.066406 8.15625 C 60 8.15625 60.746094 8.40625 61.3125 8.90625 C 61.875 9.410156 62.15625 10.074219 62.15625 10.902344 C 62.15625 11.5 62.015625 12.027344 61.730469 12.488281 C 61.445312 12.949219 60.917969 13.511719 60.140625 14.171875 L 59.632812 14.605469 C 58.570312 15.507812 57.957031 16.367188 57.789062 17.1875 L 62.109375 17.1875 L 62.109375 18.351562 "/>
<path style=" stroke:none;fill-rule:nonzero;fill:rgb(0%,0%,0%);fill-opacity:1;" d="M 59.363281 87.410156 C 58.335938 87.410156 57.507812 86.925781 56.871094 85.960938 C 56.238281 84.996094 55.921875 83.734375 55.921875 82.179688 C 55.921875 80.613281 56.242188 79.351562 56.878906 78.398438 C 57.519531 77.441406 58.359375 76.964844 59.402344 76.964844 C 60.445312 76.964844 61.289062 77.441406 61.925781 78.398438 C 62.566406 79.351562 62.882812 80.605469 62.882812 82.160156 C 62.882812 83.753906 62.566406 85.027344 61.925781 85.980469 C 61.289062 86.933594 60.433594 87.410156 59.363281 87.410156 Z M 59.375 86.414062 C 60.777344 86.414062 61.480469 84.988281 61.480469 82.140625 C 61.480469 79.355469 60.785156 77.960938 59.402344 77.960938 C 58.023438 77.960938 57.332031 79.367188 57.332031 82.179688 C 57.332031 85.003906 58.015625 86.414062 59.375 86.414062 "/>
<path style=" stroke:none;fill-rule:nonzero;fill:rgb(30.200195%,30.200195%,100%);fill-opacity:1;" d="M 78.34375 69.824219 C 78.34375 72.992188 75.777344 75.558594 72.609375 75.558594 C 69.445312 75.558594 66.875 72.992188 66.875 69.824219 C 66.875 66.65625 69.445312 64.089844 72.609375 64.089844 C 75.777344 64.089844 78.34375 66.65625 78.34375 69.824219 "/>
<path style="fill:none;stroke-width:10;stroke-linecap:round;stroke-linejoin:round;stroke:rgb(0%,0%,0%);stroke-opacity:1;stroke-miterlimit:10;" d="M 783.4375 3051.757812 C 783.4375 3020.078125 757.773438 2994.414062 726.09375 2994.414062 C 694.453125 2994.414062 668.75 3020.078125 668.75 3051.757812 C 668.75 3083.4375 694.453125 3109.101562 726.09375 3109.101562 C 757.773438 3109.101562 783.4375 3083.4375 783.4375 3051.757812 Z M 783.4375 3051.757812 " transform="matrix(0.1,0,0,-0.1,0,375)"/>
<path style=" stroke:none;fill-rule:nonzero;fill:rgb(30.200195%,30.200195%,100%);fill-opacity:1;" d="M 135.039062 126.515625 C 135.039062 129.683594 132.472656 132.253906 129.304688 132.253906 C 126.136719 132.253906 123.570312 129.683594 123.570312 126.515625 C 123.570312 123.351562 126.136719 120.78125 129.304688 120.78125 C 132.472656 120.78125 135.039062 123.351562 135.039062 126.515625 "/>
<path style="fill:none;stroke-width:10;stroke-linecap:round;stroke-linejoin:round;stroke:rgb(0%,0%,0%);stroke-opacity:1;stroke-miterlimit:10;" d="M 1350.390625 2484.84375 C 1350.390625 2453.164062 1324.726562 2427.460938 1293.046875 2427.460938 C 1261.367188 2427.460938 1235.703125 2453.164062 1235.703125 2484.84375 C 1235.703125 2516.484375 1261.367188 2542.1875 1293.046875 2542.1875 C 1324.726562 2542.1875 1350.390625 2516.484375 1350.390625 2484.84375 Z M 1350.390625 2484.84375 " transform="matrix(0.1,0,0,-0.1,0,375)"/>
<path style=" stroke:none;fill-rule:nonzero;fill:rgb(30.200195%,30.200195%,100%);fill-opacity:1;" d="M 191.730469 160.53125 C 191.730469 163.699219 189.164062 166.265625 185.996094 166.265625 C 182.828125 166.265625 180.261719 163.699219 180.261719 160.53125 C 180.261719 157.367188 182.828125 154.800781 185.996094 154.800781 C 189.164062 154.800781 191.730469 157.367188 191.730469 160.53125 "/>
<path style="fill:none;stroke-width:10;stroke-linecap:round;stroke-linejoin:round;stroke:rgb(0%,0%,0%);stroke-opacity:1;stroke-miterlimit:10;" d="M 1917.304688 2144.6875 C 1917.304688 2113.007812 1891.640625 2087.34375 1859.960938 2087.34375 C 1828.28125 2087.34375 1802.617188 2113.007812 1802.617188 2144.6875 C 1802.617188 2176.328125 1828.28125 2201.992188 1859.960938 2201.992188 C 1891.640625 2201.992188 1917.304688 2176.328125 1917.304688 2144.6875 Z M 1917.304688 2144.6875 " transform="matrix(0.1,0,0,-0.1,0,375)"/>
<path style=" stroke:none;fill-rule:nonzero;fill:rgb(30.200195%,30.200195%,100%);fill-opacity:1;" d="M 248.425781 171.871094 C 248.425781 175.039062 245.855469 177.605469 242.691406 177.605469 C 239.523438 177.605469 236.953125 175.039062 236.953125 171.871094 C 236.953125 168.703125 239.523438 166.136719 242.691406 166.136719 C 245.855469 166.136719 248.425781 168.703125 248.425781 171.871094 "/>
<path style="fill:none;stroke-width:10;stroke-linecap:round;stroke-linejoin:round;stroke:rgb(0%,0%,0%);stroke-opacity:1;stroke-miterlimit:10;" d="M 2484.257812 2031.289062 C 2484.257812 1999.609375 2458.554688 1973.945312 2426.914062 1973.945312 C 2395.234375 1973.945312 2369.53125 1999.609375 2369.53125 2031.289062 C 2369.53125 2062.96875 2395.234375 2088.632812 2426.914062 2088.632812 C 2458.554688 2088.632812 2484.257812 2062.96875 2484.257812 2031.289062 Z M 2484.257812 2031.289062 " transform="matrix(0.1,0,0,-0.1,0,375)"/>
<path style=" stroke:none;fill-rule:nonzero;fill:rgb(30.200195%,30.200195%,100%);fill-opacity:1;" d="M 305.117188 160.53125 C 305.117188 163.699219 302.550781 166.265625 299.382812 166.265625 C 296.214844 166.265625 293.648438 163.699219 293.648438 160.53125 C 293.648438 157.367188 296.214844 154.800781 299.382812 154.800781 C 302.550781 154.800781 305.117188 157.367188 305.117188 160.53125 "/>
<path style="fill:none;stroke-width:10;stroke-linecap:round;stroke-linejoin:round;stroke:rgb(0%,0%,0%);stroke-opacity:1;stroke-miterlimit:10;" d="M 3051.171875 2144.6875 C 3051.171875 2113.007812 3025.507812 2087.34375 2993.828125 2087.34375 C 2962.148438 2087.34375 2936.484375 2113.007812 2936.484375 2144.6875 C 2936.484375 2176.328125 2962.148438 2201.992188 2993.828125 2201.992188 C 3025.507812 2201.992188 3051.171875 2176.328125 3051.171875 2144.6875 Z M 3051.171875 2144.6875 " transform="matrix(0.1,0,0,-0.1,0,375)"/>
<path style=" stroke:none;fill-rule:nonzero;fill:rgb(30.200195%,30.200195%,100%);fill-opacity:1;" d="M 361.808594 126.515625 C 361.808594 129.683594 359.242188 132.253906 356.074219 132.253906 C 352.910156 132.253906 350.339844 129.683594 350.339844 126.515625 C 350.339844 123.351562 352.910156 120.78125 356.074219 120.78125 C 359.242188 120.78125 361.808594 123.351562 361.808594 126.515625 "/>
<path style="fill:none;stroke-width:10;stroke-linecap:round;stroke-linejoin:round;stroke:rgb(0%,0%,0%);stroke-opacity:1;stroke-miterlimit:10;" d="M 3618.085938 2484.84375 C 3618.085938 2453.164062 3592.421875 2427.460938 3560.742188 2427.460938 C 3529.101562 2427.460938 3503.398438 2453.164062 3503.398438 2484.84375 C 3503.398438 2516.484375 3529.101562 2542.1875 3560.742188 2542.1875 C 3592.421875 2542.1875 3618.085938 2516.484375 3618.085938 2484.84375 Z M 3618.085938 2484.84375 " transform="matrix(0.1,0,0,-0.1,0,375)"/>
</g>
</svg>
