<?xml version="1.0" encoding="UTF-8"?>
<svg xmlns="http://www.w3.org/2000/svg" xmlns:xlink="http://www.w3.org/1999/xlink" width="209pt" height="161pt" viewBox="0 0 209 161" version="1.1">
<g id="surface1">
<rect x="0" y="0" width="209" height="161" style="fill:rgb(100%,100%,100%);fill-opacity:1;stroke:none;"/>
<path style="fill:none;stroke-width:10;stroke-linecap:butt;stroke-linejoin:miter;stroke:rgb(0%,0%,0%);stroke-opacity:1;stroke-miterlimit:10;" d="M 317.070312 1602.617188 L 317.070312 -4.765625 " transform="matrix(0.1,0,0,-0.1,0,161)"/>
<path style="fill:none;stroke-width:10;stroke-linecap:butt;stroke-linejoin:miter;stroke:rgb(0%,0%,0%);stroke-opacity:1;stroke-miterlimit:10;" d="M 317.070312 1606.328125 L 305.976562 1595.234375 " transform="matrix(0.1,0,0,-0.1,0,161)"/>
<path style="fill:none;stroke-width:10;stroke-linecap:butt;stroke-linejoin:miter;stroke:rgb(0%,0%,0%);stroke-opacity:1;stroke-miterlimit:10;" d="M 317.070312 1606.328125 L 328.125 1595.234375 " transform="matrix(0.1,0,0,-0.1,0,161)"/>
<path style="fill:none;stroke-width:10;stroke-linecap:butt;stroke-linejoin:miter;stroke:rgb(0%,0%,0%);stroke-opacity:1;stroke-miterlimit:10;" d="M 0 286.484375 L 2086.640625 286.484375 " transform="matrix(0.1,0,0,-0.1,0,161)"/>
<path style="fill:none;stroke-width:10;stroke-linecap:butt;stroke-linejoin:miter;stroke:rgb(0%,0%,0%);stroke-opacity:1;stroke-miterlimit:10;" d="M 2090.351562 286.484375 L 2079.296875 297.539062 " transform="matrix(0.1,0,0,-0.1,0,161)"/>
<path style="fill:none;stroke-width:10;stroke-linecap:butt;stroke-linejoin:miter;stroke:rgb(0%,0%,0%);stroke-opacity:1;stroke-miterlimit:10;" d="M 2090.351562 286.484375 L 2079.296875 275.429688 " transform="matrix(0.1,0,0,-0.1,0,161)"/>
<path style=" stroke:none;fill-rule:nonzero;fill:rgb(0%,0%,0%);fill-opacity:1;" d="M 13.09375 136.164062 L 13.09375 135.921875 L 14.554688 135.921875 L 14.554688 136.164062 Z M 16.601562 136.832031 L 16.601562 137.144531 L 14.855469 137.144531 C 14.855469 137.066406 14.871094 136.992188 14.898438 136.921875 C 14.941406 136.800781 15.015625 136.683594 15.109375 136.570312 C 15.207031 136.453125 15.347656 136.320312 15.535156 136.171875 C 15.820312 135.933594 16.011719 135.746094 16.113281 135.609375 C 16.21875 135.472656 16.269531 135.34375 16.269531 135.21875 C 16.269531 135.089844 16.222656 134.980469 16.128906 134.894531 C 16.035156 134.808594 15.917969 134.765625 15.773438 134.765625 C 15.613281 134.765625 15.488281 134.8125 15.394531 134.902344 C 15.300781 134.996094 15.253906 135.125 15.253906 135.289062 L 14.917969 135.253906 C 14.941406 135.011719 15.027344 134.820312 15.175781 134.691406 C 15.324219 134.558594 15.523438 134.496094 15.777344 134.496094 C 16.03125 134.496094 16.230469 134.566406 16.378906 134.707031 C 16.527344 134.84375 16.601562 135.019531 16.601562 135.226562 C 16.601562 135.335938 16.578125 135.4375 16.535156 135.539062 C 16.492188 135.640625 16.417969 135.75 16.320312 135.863281 C 16.21875 135.976562 16.050781 136.132812 15.820312 136.328125 C 15.625 136.488281 15.503906 136.597656 15.445312 136.65625 C 15.390625 136.71875 15.34375 136.777344 15.3125 136.832031 L 16.601562 136.832031 "/>
<path style="fill:none;stroke-width:10;stroke-linecap:butt;stroke-linejoin:miter;stroke:rgb(0%,0%,0%);stroke-opacity:1;stroke-miterlimit:10;" d="M 145.273438 286.484375 L 145.273438 275.429688 " transform="matrix(0.1,0,0,-0.1,0,161)"/>
<path style=" stroke:none;fill-rule:nonzero;fill:rgb(0%,0%,0%);fill-opacity:1;" d="M 34.074219 135.84375 C 34.074219 135.53125 34.105469 135.28125 34.167969 135.089844 C 34.230469 134.902344 34.328125 134.753906 34.453125 134.652344 C 34.582031 134.546875 34.738281 134.496094 34.929688 134.496094 C 35.074219 134.496094 35.199219 134.523438 35.300781 134.582031 C 35.410156 134.640625 35.496094 134.722656 35.566406 134.828125 C 35.640625 134.9375 35.695312 135.066406 35.730469 135.21875 C 35.769531 135.375 35.789062 135.582031 35.789062 135.84375 C 35.789062 136.152344 35.757812 136.40625 35.695312 136.59375 C 35.632812 136.785156 35.535156 136.929688 35.410156 137.035156 C 35.28125 137.140625 35.125 137.191406 34.929688 137.191406 C 34.675781 137.191406 34.476562 137.097656 34.332031 136.914062 C 34.160156 136.695312 34.074219 136.339844 34.074219 135.84375 Z M 34.402344 135.84375 C 34.402344 136.277344 34.453125 136.566406 34.554688 136.710938 C 34.65625 136.855469 34.78125 136.925781 34.929688 136.925781 C 35.082031 136.925781 35.207031 136.855469 35.308594 136.710938 C 35.410156 136.566406 35.460938 136.277344 35.460938 135.84375 C 35.460938 135.410156 35.410156 135.121094 35.308594 134.980469 C 35.207031 134.835938 35.078125 134.765625 34.925781 134.765625 C 34.78125 134.765625 34.660156 134.828125 34.570312 134.949219 C 34.457031 135.109375 34.402344 135.410156 34.402344 135.84375 "/>
<path style=" stroke:none;fill-rule:nonzero;fill:rgb(0%,0%,0%);fill-opacity:1;" d="M 50.152344 136.832031 L 50.152344 137.144531 L 48.40625 137.144531 C 48.40625 137.066406 48.417969 136.992188 48.445312 136.921875 C 48.492188 136.800781 48.5625 136.683594 48.660156 136.570312 C 48.753906 136.453125 48.898438 136.320312 49.085938 136.171875 C 49.367188 135.933594 49.5625 135.746094 49.664062 135.609375 C 49.765625 135.472656 49.816406 135.34375 49.816406 135.21875 C 49.816406 135.089844 49.769531 134.980469 49.679688 134.894531 C 49.585938 134.808594 49.46875 134.765625 49.320312 134.765625 C 49.164062 134.765625 49.039062 134.8125 48.945312 134.902344 C 48.847656 134.996094 48.800781 135.125 48.800781 135.289062 L 48.46875 135.253906 C 48.492188 135.011719 48.578125 134.820312 48.722656 134.691406 C 48.871094 134.558594 49.074219 134.496094 49.328125 134.496094 C 49.582031 134.496094 49.78125 134.566406 49.929688 134.707031 C 50.078125 134.84375 50.152344 135.019531 50.152344 135.226562 C 50.152344 135.335938 50.128906 135.4375 50.085938 135.539062 C 50.039062 135.640625 49.96875 135.75 49.867188 135.863281 C 49.769531 135.976562 49.601562 136.132812 49.367188 136.328125 C 49.175781 136.488281 49.050781 136.597656 48.996094 136.65625 C 48.941406 136.71875 48.894531 136.777344 48.859375 136.832031 L 50.152344 136.832031 "/>
<path style="fill:none;stroke-width:10;stroke-linecap:butt;stroke-linejoin:miter;stroke:rgb(0%,0%,0%);stroke-opacity:1;stroke-miterlimit:10;" d="M 488.867188 286.484375 L 488.867188 275.429688 " transform="matrix(0.1,0,0,-0.1,0,161)"/>
<path style=" stroke:none;fill-rule:nonzero;fill:rgb(0%,0%,0%);fill-opacity:1;" d="M 66.445312 137.144531 L 66.445312 136.511719 L 65.300781 136.511719 L 65.300781 136.21875 L 66.503906 134.507812 L 66.769531 134.507812 L 66.769531 136.21875 L 67.125 136.21875 L 67.125 136.511719 L 66.769531 136.511719 L 66.769531 137.144531 Z M 66.445312 136.21875 L 66.445312 135.023438 L 65.617188 136.21875 L 66.445312 136.21875 "/>
<path style="fill:none;stroke-width:10;stroke-linecap:butt;stroke-linejoin:miter;stroke:rgb(0%,0%,0%);stroke-opacity:1;stroke-miterlimit:10;" d="M 660.664062 286.484375 L 660.664062 275.429688 " transform="matrix(0.1,0,0,-0.1,0,161)"/>
<path style=" stroke:none;fill-rule:nonzero;fill:rgb(0%,0%,0%);fill-opacity:1;" d="M 84.414062 135.152344 L 84.097656 135.175781 C 84.066406 135.046875 84.023438 134.957031 83.96875 134.898438 C 83.882812 134.804688 83.773438 134.761719 83.648438 134.761719 C 83.542969 134.761719 83.453125 134.789062 83.378906 134.847656 C 83.273438 134.921875 83.191406 135.03125 83.136719 135.175781 C 83.078125 135.316406 83.046875 135.519531 83.042969 135.785156 C 83.121094 135.667969 83.214844 135.578125 83.328125 135.519531 C 83.441406 135.464844 83.558594 135.433594 83.683594 135.433594 C 83.902344 135.433594 84.085938 135.515625 84.238281 135.671875 C 84.390625 135.832031 84.464844 136.035156 84.464844 136.285156 C 84.464844 136.453125 84.429688 136.605469 84.355469 136.746094 C 84.28125 136.890625 84.183594 137 84.058594 137.074219 C 83.933594 137.152344 83.792969 137.191406 83.636719 137.191406 C 83.367188 137.191406 83.148438 137.089844 82.976562 136.890625 C 82.804688 136.691406 82.71875 136.363281 82.71875 135.910156 C 82.71875 135.402344 82.8125 135.027344 83.003906 134.792969 C 83.167969 134.59375 83.386719 134.496094 83.664062 134.496094 C 83.875 134.496094 84.046875 134.554688 84.179688 134.671875 C 84.3125 134.789062 84.390625 134.949219 84.414062 135.152344 Z M 83.09375 136.292969 C 83.09375 136.402344 83.117188 136.511719 83.164062 136.613281 C 83.210938 136.714844 83.277344 136.792969 83.363281 136.84375 C 83.449219 136.898438 83.539062 136.925781 83.628906 136.925781 C 83.769531 136.925781 83.886719 136.871094 83.984375 136.757812 C 84.082031 136.648438 84.132812 136.496094 84.132812 136.308594 C 84.132812 136.125 84.082031 135.980469 83.984375 135.875 C 83.886719 135.769531 83.765625 135.714844 83.617188 135.714844 C 83.472656 135.714844 83.347656 135.769531 83.246094 135.875 C 83.144531 135.980469 83.09375 136.121094 83.09375 136.292969 "/>
<path style="fill:none;stroke-width:10;stroke-linecap:butt;stroke-linejoin:miter;stroke:rgb(0%,0%,0%);stroke-opacity:1;stroke-miterlimit:10;" d="M 832.460938 286.484375 L 832.460938 275.429688 " transform="matrix(0.1,0,0,-0.1,0,161)"/>
<path style=" stroke:none;fill-rule:nonzero;fill:rgb(0%,0%,0%);fill-opacity:1;" d="M 100.191406 135.714844 C 100.058594 135.667969 99.957031 135.59375 99.890625 135.503906 C 99.828125 135.410156 99.792969 135.300781 99.792969 135.175781 C 99.792969 134.984375 99.863281 134.820312 100.003906 134.691406 C 100.140625 134.558594 100.324219 134.496094 100.554688 134.496094 C 100.785156 134.496094 100.96875 134.5625 101.109375 134.695312 C 101.25 134.832031 101.320312 134.992188 101.320312 135.1875 C 101.320312 135.308594 101.289062 135.414062 101.226562 135.507812 C 101.160156 135.597656 101.066406 135.667969 100.933594 135.714844 C 101.097656 135.765625 101.21875 135.851562 101.304688 135.96875 C 101.386719 136.089844 101.429688 136.230469 101.429688 136.390625 C 101.429688 136.617188 101.351562 136.808594 101.191406 136.960938 C 101.03125 137.113281 100.820312 137.191406 100.558594 137.191406 C 100.300781 137.191406 100.089844 137.113281 99.929688 136.957031 C 99.769531 136.800781 99.691406 136.609375 99.691406 136.378906 C 99.691406 136.210938 99.734375 136.066406 99.820312 135.949219 C 99.90625 135.832031 100.03125 135.753906 100.191406 135.714844 Z M 100.128906 135.164062 C 100.128906 135.289062 100.167969 135.394531 100.25 135.472656 C 100.328125 135.550781 100.433594 135.589844 100.558594 135.589844 C 100.6875 135.589844 100.789062 135.550781 100.867188 135.472656 C 100.945312 135.394531 100.984375 135.296875 100.984375 135.179688 C 100.984375 135.0625 100.945312 134.960938 100.863281 134.882812 C 100.78125 134.800781 100.679688 134.761719 100.558594 134.761719 C 100.433594 134.761719 100.328125 134.800781 100.25 134.878906 C 100.167969 134.957031 100.128906 135.050781 100.128906 135.164062 Z M 100.023438 136.382812 C 100.023438 136.476562 100.046875 136.566406 100.089844 136.652344 C 100.136719 136.738281 100.199219 136.804688 100.285156 136.855469 C 100.371094 136.902344 100.464844 136.925781 100.566406 136.925781 C 100.71875 136.925781 100.847656 136.875 100.945312 136.777344 C 101.046875 136.675781 101.097656 136.550781 101.097656 136.394531 C 101.097656 136.238281 101.042969 136.109375 100.941406 136.007812 C 100.835938 135.90625 100.707031 135.855469 100.554688 135.855469 C 100.402344 135.855469 100.273438 135.90625 100.175781 136.003906 C 100.074219 136.105469 100.023438 136.230469 100.023438 136.382812 "/>
<path style="fill:none;stroke-width:10;stroke-linecap:butt;stroke-linejoin:miter;stroke:rgb(0%,0%,0%);stroke-opacity:1;stroke-miterlimit:10;" d="M 1004.257812 286.484375 L 1004.257812 275.429688 " transform="matrix(0.1,0,0,-0.1,0,161)"/>
<path style=" stroke:none;fill-rule:nonzero;fill:rgb(0%,0%,0%);fill-opacity:1;" d="M 117.132812 137.144531 L 116.8125 137.144531 L 116.8125 135.082031 C 116.734375 135.15625 116.632812 135.230469 116.503906 135.304688 C 116.378906 135.378906 116.265625 135.433594 116.164062 135.46875 L 116.164062 135.15625 C 116.347656 135.074219 116.503906 134.96875 116.640625 134.847656 C 116.777344 134.726562 116.871094 134.609375 116.925781 134.496094 L 117.132812 134.496094 Z M 117.96875 135.84375 C 117.96875 135.53125 118 135.28125 118.0625 135.089844 C 118.125 134.902344 118.222656 134.753906 118.347656 134.652344 C 118.476562 134.546875 118.632812 134.496094 118.824219 134.496094 C 118.96875 134.496094 119.09375 134.523438 119.199219 134.582031 C 119.304688 134.640625 119.390625 134.722656 119.464844 134.828125 C 119.535156 134.9375 119.589844 135.066406 119.628906 135.21875 C 119.664062 135.375 119.683594 135.582031 119.683594 135.84375 C 119.683594 136.152344 119.652344 136.40625 119.589844 136.59375 C 119.527344 136.785156 119.429688 136.929688 119.304688 137.035156 C 119.179688 137.140625 119.019531 137.191406 118.824219 137.191406 C 118.574219 137.191406 118.371094 137.097656 118.226562 136.914062 C 118.054688 136.695312 117.96875 136.339844 117.96875 135.84375 Z M 118.296875 135.84375 C 118.296875 136.277344 118.347656 136.566406 118.449219 136.710938 C 118.550781 136.855469 118.675781 136.925781 118.824219 136.925781 C 118.976562 136.925781 119.101562 136.855469 119.203125 136.710938 C 119.304688 136.566406 119.355469 136.277344 119.355469 135.84375 C 119.355469 135.410156 119.304688 135.121094 119.203125 134.980469 C 119.101562 134.835938 118.972656 134.765625 118.820312 134.765625 C 118.675781 134.765625 118.554688 134.828125 118.464844 134.949219 C 118.351562 135.109375 118.296875 135.410156 118.296875 135.84375 "/>
<path style="fill:none;stroke-width:10;stroke-linecap:butt;stroke-linejoin:miter;stroke:rgb(0%,0%,0%);stroke-opacity:1;stroke-miterlimit:10;" d="M 1176.054688 286.484375 L 1176.054688 275.429688 " transform="matrix(0.1,0,0,-0.1,0,161)"/>
<path style=" stroke:none;fill-rule:nonzero;fill:rgb(0%,0%,0%);fill-opacity:1;" d="M 134.460938 137.144531 L 134.136719 137.144531 L 134.136719 135.082031 C 134.0625 135.15625 133.960938 135.230469 133.832031 135.304688 C 133.707031 135.378906 133.59375 135.433594 133.492188 135.46875 L 133.492188 135.15625 C 133.671875 135.074219 133.832031 134.96875 133.96875 134.847656 C 134.105469 134.726562 134.199219 134.609375 134.253906 134.496094 L 134.460938 134.496094 Z M 136.996094 136.832031 L 136.996094 137.144531 L 135.25 137.144531 C 135.25 137.066406 135.261719 136.992188 135.289062 136.921875 C 135.335938 136.800781 135.40625 136.683594 135.503906 136.570312 C 135.597656 136.453125 135.742188 136.320312 135.929688 136.171875 C 136.214844 135.933594 136.40625 135.746094 136.507812 135.609375 C 136.609375 135.472656 136.660156 135.34375 136.660156 135.21875 C 136.660156 135.089844 136.613281 134.980469 136.523438 134.894531 C 136.429688 134.808594 136.3125 134.765625 136.164062 134.765625 C 136.007812 134.765625 135.882812 134.8125 135.789062 134.902344 C 135.695312 134.996094 135.648438 135.125 135.648438 135.289062 L 135.3125 135.253906 C 135.335938 135.011719 135.421875 134.820312 135.570312 134.691406 C 135.71875 134.558594 135.917969 134.496094 136.171875 134.496094 C 136.425781 134.496094 136.625 134.566406 136.773438 134.707031 C 136.921875 134.84375 136.996094 135.019531 136.996094 135.226562 C 136.996094 135.335938 136.972656 135.4375 136.929688 135.539062 C 136.882812 135.640625 136.8125 135.75 136.714844 135.863281 C 136.613281 135.976562 136.445312 136.132812 136.210938 136.328125 C 136.019531 136.488281 135.894531 136.597656 135.839844 136.65625 C 135.785156 136.71875 135.738281 136.777344 135.703125 136.832031 L 136.996094 136.832031 "/>
<path style="fill:none;stroke-width:10;stroke-linecap:butt;stroke-linejoin:miter;stroke:rgb(0%,0%,0%);stroke-opacity:1;stroke-miterlimit:10;" d="M 1347.851562 286.484375 L 1347.851562 275.429688 " transform="matrix(0.1,0,0,-0.1,0,161)"/>
<path style=" stroke:none;fill-rule:nonzero;fill:rgb(0%,0%,0%);fill-opacity:1;" d="M 151.789062 137.144531 L 151.464844 137.144531 L 151.464844 135.082031 C 151.390625 135.15625 151.285156 135.230469 151.160156 135.304688 C 151.03125 135.378906 150.921875 135.433594 150.820312 135.46875 L 150.820312 135.15625 C 151 135.074219 151.160156 134.96875 151.296875 134.847656 C 151.433594 134.726562 151.527344 134.609375 151.578125 134.496094 L 151.789062 134.496094 Z M 153.660156 137.144531 L 153.660156 136.511719 L 152.511719 136.511719 L 152.511719 136.21875 L 153.71875 134.507812 L 153.980469 134.507812 L 153.980469 136.21875 L 154.339844 136.21875 L 154.339844 136.511719 L 153.980469 136.511719 L 153.980469 137.144531 Z M 153.660156 136.21875 L 153.660156 135.023438 L 152.828125 136.21875 L 153.660156 136.21875 "/>
<path style="fill:none;stroke-width:10;stroke-linecap:butt;stroke-linejoin:miter;stroke:rgb(0%,0%,0%);stroke-opacity:1;stroke-miterlimit:10;" d="M 1519.648438 286.484375 L 1519.648438 275.429688 " transform="matrix(0.1,0,0,-0.1,0,161)"/>
<path style=" stroke:none;fill-rule:nonzero;fill:rgb(0%,0%,0%);fill-opacity:1;" d="M 168.746094 137.144531 L 168.425781 137.144531 L 168.425781 135.082031 C 168.347656 135.15625 168.246094 135.230469 168.117188 135.304688 C 167.992188 135.378906 167.878906 135.433594 167.777344 135.46875 L 167.777344 135.15625 C 167.960938 135.074219 168.117188 134.96875 168.253906 134.847656 C 168.390625 134.726562 168.484375 134.609375 168.539062 134.496094 L 168.746094 134.496094 Z M 171.257812 135.152344 L 170.941406 135.175781 C 170.910156 135.046875 170.867188 134.957031 170.8125 134.898438 C 170.726562 134.804688 170.617188 134.761719 170.492188 134.761719 C 170.386719 134.761719 170.296875 134.789062 170.222656 134.847656 C 170.117188 134.921875 170.035156 135.03125 169.980469 135.175781 C 169.921875 135.316406 169.890625 135.519531 169.886719 135.785156 C 169.964844 135.667969 170.058594 135.578125 170.171875 135.519531 C 170.285156 135.464844 170.402344 135.433594 170.527344 135.433594 C 170.746094 135.433594 170.929688 135.515625 171.082031 135.671875 C 171.234375 135.832031 171.308594 136.035156 171.308594 136.285156 C 171.308594 136.453125 171.273438 136.605469 171.199219 136.746094 C 171.128906 136.890625 171.027344 137 170.902344 137.074219 C 170.777344 137.152344 170.636719 137.191406 170.480469 137.191406 C 170.210938 137.191406 169.992188 137.089844 169.820312 136.890625 C 169.648438 136.691406 169.5625 136.363281 169.5625 135.910156 C 169.5625 135.402344 169.65625 135.027344 169.847656 134.792969 C 170.011719 134.59375 170.230469 134.496094 170.507812 134.496094 C 170.71875 134.496094 170.890625 134.554688 171.023438 134.671875 C 171.15625 134.789062 171.234375 134.949219 171.257812 135.152344 Z M 169.9375 136.292969 C 169.9375 136.402344 169.960938 136.511719 170.007812 136.613281 C 170.054688 136.714844 170.121094 136.792969 170.207031 136.84375 C 170.292969 136.898438 170.382812 136.925781 170.476562 136.925781 C 170.613281 136.925781 170.730469 136.871094 170.828125 136.757812 C 170.925781 136.648438 170.976562 136.496094 170.976562 136.308594 C 170.976562 136.125 170.925781 135.980469 170.828125 135.875 C 170.730469 135.769531 170.609375 135.714844 170.464844 135.714844 C 170.316406 135.714844 170.191406 135.769531 170.089844 135.875 C 169.988281 135.980469 169.9375 136.121094 169.9375 136.292969 "/>
<path style="fill:none;stroke-width:10;stroke-linecap:butt;stroke-linejoin:miter;stroke:rgb(0%,0%,0%);stroke-opacity:1;stroke-miterlimit:10;" d="M 1691.445312 286.484375 L 1691.445312 275.429688 " transform="matrix(0.1,0,0,-0.1,0,161)"/>
<path style=" stroke:none;fill-rule:nonzero;fill:rgb(0%,0%,0%);fill-opacity:1;" d="M 186.074219 137.144531 L 185.753906 137.144531 L 185.753906 135.082031 C 185.675781 135.15625 185.574219 135.230469 185.445312 135.304688 C 185.320312 135.378906 185.207031 135.433594 185.105469 135.46875 L 185.105469 135.15625 C 185.285156 135.074219 185.445312 134.96875 185.582031 134.847656 C 185.71875 134.726562 185.8125 134.609375 185.867188 134.496094 L 186.074219 134.496094 Z M 187.402344 135.714844 C 187.269531 135.667969 187.171875 135.59375 187.105469 135.503906 C 187.039062 135.410156 187.007812 135.300781 187.007812 135.175781 C 187.007812 134.984375 187.074219 134.820312 187.214844 134.691406 C 187.351562 134.558594 187.535156 134.496094 187.765625 134.496094 C 187.996094 134.496094 188.183594 134.5625 188.324219 134.695312 C 188.464844 134.832031 188.535156 134.992188 188.535156 135.1875 C 188.535156 135.308594 188.503906 135.414062 188.4375 135.507812 C 188.375 135.597656 188.277344 135.667969 188.148438 135.714844 C 188.308594 135.765625 188.433594 135.851562 188.515625 135.96875 C 188.601562 136.089844 188.644531 136.230469 188.644531 136.390625 C 188.644531 136.617188 188.5625 136.808594 188.402344 136.960938 C 188.246094 137.113281 188.035156 137.191406 187.773438 137.191406 C 187.511719 137.191406 187.300781 137.113281 187.140625 136.957031 C 186.984375 136.800781 186.902344 136.609375 186.902344 136.378906 C 186.902344 136.210938 186.945312 136.066406 187.03125 135.949219 C 187.117188 135.832031 187.242188 135.753906 187.402344 135.714844 Z M 187.339844 135.164062 C 187.339844 135.289062 187.382812 135.394531 187.460938 135.472656 C 187.542969 135.550781 187.644531 135.589844 187.773438 135.589844 C 187.898438 135.589844 188.003906 135.550781 188.082031 135.472656 C 188.160156 135.394531 188.199219 135.296875 188.199219 135.179688 C 188.199219 135.0625 188.15625 134.960938 188.074219 134.882812 C 187.992188 134.800781 187.890625 134.761719 187.773438 134.761719 C 187.644531 134.761719 187.542969 134.800781 187.460938 134.878906 C 187.382812 134.957031 187.339844 135.050781 187.339844 135.164062 Z M 187.238281 136.382812 C 187.238281 136.476562 187.257812 136.566406 187.304688 136.652344 C 187.347656 136.738281 187.414062 136.804688 187.5 136.855469 C 187.585938 136.902344 187.679688 136.925781 187.777344 136.925781 C 187.933594 136.925781 188.058594 136.875 188.160156 136.777344 C 188.257812 136.675781 188.308594 136.550781 188.308594 136.394531 C 188.308594 136.238281 188.257812 136.109375 188.152344 136.007812 C 188.050781 135.90625 187.921875 135.855469 187.765625 135.855469 C 187.613281 135.855469 187.488281 135.90625 187.386719 136.003906 C 187.285156 136.105469 187.238281 136.230469 187.238281 136.382812 "/>
<path style="fill:none;stroke-width:10;stroke-linecap:butt;stroke-linejoin:miter;stroke:rgb(0%,0%,0%);stroke-opacity:1;stroke-miterlimit:10;" d="M 1863.242188 286.484375 L 1863.242188 275.429688 " transform="matrix(0.1,0,0,-0.1,0,161)"/>
<path style=" stroke:none;fill-rule:nonzero;fill:rgb(0%,0%,0%);fill-opacity:1;" d="M 203.515625 136.832031 L 203.515625 137.144531 L 201.769531 137.144531 C 201.769531 137.066406 201.785156 136.992188 201.8125 136.921875 C 201.859375 136.800781 201.929688 136.683594 202.023438 136.570312 C 202.121094 136.453125 202.261719 136.320312 202.449219 136.171875 C 202.734375 135.933594 202.929688 135.746094 203.03125 135.609375 C 203.132812 135.472656 203.183594 135.34375 203.183594 135.21875 C 203.183594 135.089844 203.136719 134.980469 203.046875 134.894531 C 202.953125 134.808594 202.832031 134.765625 202.6875 134.765625 C 202.53125 134.765625 202.402344 134.8125 202.308594 134.902344 C 202.214844 134.996094 202.167969 135.125 202.167969 135.289062 L 201.835938 135.253906 C 201.859375 135.011719 201.941406 134.820312 202.089844 134.691406 C 202.238281 134.558594 202.4375 134.496094 202.691406 134.496094 C 202.945312 134.496094 203.148438 134.566406 203.296875 134.707031 C 203.441406 134.84375 203.515625 135.019531 203.515625 135.226562 C 203.515625 135.335938 203.496094 135.4375 203.449219 135.539062 C 203.40625 135.640625 203.335938 135.75 203.234375 135.863281 C 203.136719 135.976562 202.96875 136.132812 202.734375 136.328125 C 202.539062 136.488281 202.417969 136.597656 202.363281 136.65625 C 202.304688 136.71875 202.261719 136.777344 202.226562 136.832031 Z M 203.867188 135.84375 C 203.867188 135.53125 203.898438 135.28125 203.964844 135.089844 C 204.027344 134.902344 204.121094 134.753906 204.246094 134.652344 C 204.375 134.546875 204.535156 134.496094 204.726562 134.496094 C 204.867188 134.496094 204.992188 134.523438 205.097656 134.582031 C 205.203125 134.640625 205.289062 134.722656 205.363281 134.828125 C 205.433594 134.9375 205.488281 135.066406 205.527344 135.21875 C 205.566406 135.375 205.585938 135.582031 205.585938 135.84375 C 205.585938 136.152344 205.554688 136.40625 205.488281 136.59375 C 205.425781 136.785156 205.332031 136.929688 205.203125 137.035156 C 205.078125 137.140625 204.917969 137.191406 204.726562 137.191406 C 204.472656 137.191406 204.273438 137.097656 204.128906 136.914062 C 203.953125 136.695312 203.867188 136.339844 203.867188 135.84375 Z M 204.195312 135.84375 C 204.195312 136.277344 204.246094 136.566406 204.347656 136.710938 C 204.449219 136.855469 204.574219 136.925781 204.726562 136.925781 C 204.875 136.925781 205.003906 136.855469 205.105469 136.710938 C 205.203125 136.566406 205.257812 136.277344 205.257812 135.84375 C 205.257812 135.410156 205.203125 135.121094 205.105469 134.980469 C 205.003906 134.835938 204.875 134.765625 204.71875 134.765625 C 204.574219 134.765625 204.453125 134.828125 204.363281 134.949219 C 204.253906 135.109375 204.195312 135.410156 204.195312 135.84375 "/>
<path style="fill:none;stroke-width:10;stroke-linecap:butt;stroke-linejoin:miter;stroke:rgb(0%,0%,0%);stroke-opacity:1;stroke-miterlimit:10;" d="M 2035.039062 286.484375 L 2035.039062 275.429688 " transform="matrix(0.1,0,0,-0.1,0,161)"/>
<path style=" stroke:none;fill-rule:nonzero;fill:rgb(0%,0%,0%);fill-opacity:1;" d="M 17.519531 156.074219 L 17.519531 155.832031 L 18.980469 155.832031 L 18.980469 156.074219 Z M 19.328125 156.363281 L 19.664062 156.332031 C 19.6875 156.5 19.746094 156.621094 19.839844 156.707031 C 19.929688 156.792969 20.042969 156.832031 20.171875 156.832031 C 20.328125 156.832031 20.457031 156.773438 20.566406 156.65625 C 20.675781 156.535156 20.730469 156.382812 20.730469 156.1875 C 20.730469 156.003906 20.679688 155.859375 20.578125 155.75 C 20.472656 155.644531 20.335938 155.589844 20.167969 155.589844 C 20.0625 155.589844 19.96875 155.613281 19.886719 155.660156 C 19.800781 155.710938 19.734375 155.769531 19.683594 155.84375 L 19.382812 155.800781 L 19.636719 154.449219 L 20.949219 154.449219 L 20.949219 154.761719 L 19.898438 154.761719 L 19.753906 155.46875 C 19.914062 155.355469 20.082031 155.300781 20.253906 155.300781 C 20.484375 155.300781 20.679688 155.382812 20.835938 155.539062 C 20.992188 155.699219 21.070312 155.90625 21.070312 156.160156 C 21.070312 156.398438 21.003906 156.605469 20.863281 156.777344 C 20.695312 156.992188 20.464844 157.097656 20.171875 157.097656 C 19.929688 157.097656 19.734375 157.03125 19.582031 156.898438 C 19.429688 156.761719 19.34375 156.585938 19.328125 156.363281 Z M 21.375 155.75 C 21.375 155.441406 21.40625 155.1875 21.472656 155 C 21.535156 154.808594 21.628906 154.664062 21.757812 154.558594 C 21.882812 154.457031 22.042969 154.402344 22.234375 154.402344 C 22.378906 154.402344 22.5 154.433594 22.605469 154.488281 C 22.710938 154.546875 22.800781 154.628906 22.871094 154.738281 C 22.941406 154.84375 22.996094 154.976562 23.035156 155.128906 C 23.074219 155.28125 23.09375 155.488281 23.09375 155.75 C 23.09375 156.0625 23.0625 156.3125 22.996094 156.503906 C 22.933594 156.691406 22.839844 156.839844 22.714844 156.945312 C 22.585938 157.046875 22.425781 157.097656 22.234375 157.097656 C 21.980469 157.097656 21.78125 157.007812 21.636719 156.824219 C 21.464844 156.605469 21.375 156.246094 21.375 155.75 Z M 21.707031 155.75 C 21.707031 156.183594 21.757812 156.472656 21.859375 156.617188 C 21.960938 156.761719 22.085938 156.832031 22.234375 156.832031 C 22.386719 156.832031 22.511719 156.761719 22.613281 156.617188 C 22.714844 156.472656 22.765625 156.183594 22.765625 155.75 C 22.765625 155.316406 22.714844 155.027344 22.613281 154.886719 C 22.511719 154.746094 22.382812 154.675781 22.230469 154.675781 C 22.082031 154.675781 21.964844 154.734375 21.871094 154.859375 C 21.761719 155.019531 21.707031 155.316406 21.707031 155.75 Z M 23.425781 155.75 C 23.425781 155.441406 23.457031 155.1875 23.523438 155 C 23.585938 154.808594 23.679688 154.664062 23.808594 154.558594 C 23.933594 154.457031 24.09375 154.402344 24.285156 154.402344 C 24.425781 154.402344 24.550781 154.433594 24.65625 154.488281 C 24.761719 154.546875 24.851562 154.628906 24.921875 154.738281 C 24.992188 154.84375 25.046875 154.976562 25.085938 155.128906 C 25.125 155.28125 25.144531 155.488281 25.144531 155.75 C 25.144531 156.0625 25.113281 156.3125 25.046875 156.503906 C 24.984375 156.691406 24.890625 156.839844 24.761719 156.945312 C 24.636719 157.046875 24.476562 157.097656 24.285156 157.097656 C 24.03125 157.097656 23.832031 157.007812 23.6875 156.824219 C 23.511719 156.605469 23.425781 156.246094 23.425781 155.75 Z M 23.753906 155.75 C 23.753906 156.183594 23.804688 156.472656 23.90625 156.617188 C 24.011719 156.761719 24.136719 156.832031 24.285156 156.832031 C 24.433594 156.832031 24.5625 156.761719 24.664062 156.617188 C 24.765625 156.472656 24.816406 156.183594 24.816406 155.75 C 24.816406 155.316406 24.765625 155.027344 24.664062 154.886719 C 24.5625 154.746094 24.433594 154.675781 24.28125 154.675781 C 24.132812 154.675781 24.015625 154.734375 23.921875 154.859375 C 23.8125 155.019531 23.753906 155.316406 23.753906 155.75 Z M 25.476562 155.75 C 25.476562 155.441406 25.507812 155.1875 25.574219 155 C 25.636719 154.808594 25.730469 154.664062 25.855469 154.558594 C 25.984375 154.457031 26.144531 154.402344 26.335938 154.402344 C 26.476562 154.402344 26.601562 154.433594 26.707031 154.488281 C 26.8125 154.546875 26.902344 154.628906 26.972656 154.738281 C 27.042969 154.84375 27.097656 154.976562 27.136719 155.128906 C 27.175781 155.28125 27.195312 155.488281 27.195312 155.75 C 27.195312 156.0625 27.164062 156.3125 27.097656 156.503906 C 27.035156 156.691406 26.941406 156.839844 26.8125 156.945312 C 26.6875 157.046875 26.527344 157.097656 26.335938 157.097656 C 26.082031 157.097656 25.882812 157.007812 25.738281 156.824219 C 25.5625 156.605469 25.476562 156.246094 25.476562 155.75 Z M 25.804688 155.75 C 25.804688 156.183594 25.855469 156.472656 25.957031 156.617188 C 26.058594 156.761719 26.1875 156.832031 26.335938 156.832031 C 26.484375 156.832031 26.609375 156.761719 26.714844 156.617188 C 26.816406 156.472656 26.867188 156.183594 26.867188 155.75 C 26.867188 155.316406 26.816406 155.027344 26.714844 154.886719 C 26.609375 154.746094 26.484375 154.675781 26.332031 154.675781 C 26.183594 154.675781 26.066406 154.734375 25.972656 154.859375 C 25.859375 155.019531 25.804688 155.316406 25.804688 155.75 Z M 27.527344 155.75 C 27.527344 155.441406 27.558594 155.1875 27.621094 155 C 27.6875 154.808594 27.78125 154.664062 27.90625 154.558594 C 28.035156 154.457031 28.195312 154.402344 28.386719 154.402344 C 28.527344 154.402344 28.652344 154.433594 28.757812 154.488281 C 28.863281 154.546875 28.953125 154.628906 29.023438 154.738281 C 29.09375 154.84375 29.148438 154.976562 29.1875 155.128906 C 29.226562 155.28125 29.246094 155.488281 29.246094 155.75 C 29.246094 156.0625 29.210938 156.3125 29.148438 156.503906 C 29.085938 156.691406 28.992188 156.839844 28.863281 156.945312 C 28.738281 157.046875 28.578125 157.097656 28.386719 157.097656 C 28.132812 157.097656 27.933594 157.007812 27.785156 156.824219 C 27.613281 156.605469 27.527344 156.246094 27.527344 155.75 Z M 27.855469 155.75 C 27.855469 156.183594 27.90625 156.472656 28.007812 156.617188 C 28.109375 156.761719 28.234375 156.832031 28.386719 156.832031 C 28.535156 156.832031 28.660156 156.761719 28.761719 156.617188 C 28.863281 156.472656 28.914062 156.183594 28.914062 155.75 C 28.914062 155.316406 28.863281 155.027344 28.761719 154.886719 C 28.660156 154.746094 28.535156 154.675781 28.378906 154.675781 C 28.234375 154.675781 28.113281 154.734375 28.023438 154.859375 C 27.910156 155.019531 27.855469 155.316406 27.855469 155.75 "/>
<path style="fill:none;stroke-width:10;stroke-linecap:butt;stroke-linejoin:miter;stroke:rgb(0%,0%,0%);stroke-opacity:1;stroke-miterlimit:10;" d="M 305.976562 53.007812 L 317.070312 53.007812 " transform="matrix(0.1,0,0,-0.1,0,161)"/>
<path style=" stroke:none;fill-rule:nonzero;fill:rgb(0%,0%,0%);fill-opacity:1;" d="M 27.4375 129.945312 C 27.4375 129.632812 27.46875 129.382812 27.53125 129.191406 C 27.59375 129.003906 27.691406 128.855469 27.816406 128.753906 C 27.945312 128.648438 28.101562 128.597656 28.296875 128.597656 C 28.4375 128.597656 28.5625 128.625 28.667969 128.683594 C 28.773438 128.738281 28.859375 128.824219 28.933594 128.929688 C 29.003906 129.039062 29.058594 129.167969 29.097656 129.324219 C 29.132812 129.476562 29.152344 129.683594 29.152344 129.945312 C 29.152344 130.253906 29.121094 130.507812 29.058594 130.695312 C 28.996094 130.886719 28.898438 131.03125 28.773438 131.136719 C 28.648438 131.238281 28.488281 131.292969 28.296875 131.292969 C 28.042969 131.292969 27.84375 131.199219 27.695312 131.015625 C 27.523438 130.796875 27.4375 130.441406 27.4375 129.945312 Z M 27.765625 129.945312 C 27.765625 130.378906 27.816406 130.667969 27.917969 130.8125 C 28.019531 130.957031 28.144531 131.027344 28.296875 131.027344 C 28.445312 131.027344 28.570312 130.957031 28.671875 130.8125 C 28.773438 130.667969 28.824219 130.378906 28.824219 129.945312 C 28.824219 129.511719 28.773438 129.222656 28.671875 129.082031 C 28.570312 128.9375 28.445312 128.867188 28.289062 128.867188 C 28.144531 128.867188 28.023438 128.929688 27.933594 129.050781 C 27.820312 129.210938 27.765625 129.511719 27.765625 129.945312 "/>
<path style=" stroke:none;fill-rule:nonzero;fill:rgb(0%,0%,0%);fill-opacity:1;" d="M 19.328125 109.539062 L 19.664062 109.511719 C 19.6875 109.675781 19.746094 109.800781 19.839844 109.886719 C 19.929688 109.96875 20.042969 110.011719 20.171875 110.011719 C 20.328125 110.011719 20.457031 109.953125 20.566406 109.835938 C 20.675781 109.714844 20.730469 109.558594 20.730469 109.367188 C 20.730469 109.183594 20.679688 109.039062 20.578125 108.929688 C 20.472656 108.824219 20.335938 108.769531 20.167969 108.769531 C 20.0625 108.769531 19.96875 108.792969 19.886719 108.839844 C 19.800781 108.890625 19.734375 108.949219 19.683594 109.023438 L 19.382812 108.980469 L 19.636719 107.628906 L 20.949219 107.628906 L 20.949219 107.941406 L 19.898438 107.941406 L 19.753906 108.648438 C 19.914062 108.535156 20.082031 108.480469 20.253906 108.480469 C 20.484375 108.480469 20.679688 108.558594 20.835938 108.71875 C 20.992188 108.878906 21.070312 109.085938 21.070312 109.339844 C 21.070312 109.578125 21.003906 109.78125 20.863281 109.957031 C 20.695312 110.171875 20.464844 110.277344 20.171875 110.277344 C 19.929688 110.277344 19.734375 110.210938 19.582031 110.078125 C 19.429688 109.941406 19.34375 109.761719 19.328125 109.539062 Z M 21.375 108.929688 C 21.375 108.617188 21.40625 108.367188 21.472656 108.179688 C 21.535156 107.988281 21.628906 107.839844 21.757812 107.738281 C 21.882812 107.632812 22.042969 107.582031 22.234375 107.582031 C 22.378906 107.582031 22.5 107.609375 22.605469 107.667969 C 22.710938 107.726562 22.800781 107.808594 22.871094 107.917969 C 22.941406 108.023438 22.996094 108.15625 23.035156 108.308594 C 23.074219 108.460938 23.09375 108.667969 23.09375 108.929688 C 23.09375 109.242188 23.0625 109.492188 22.996094 109.683594 C 22.933594 109.871094 22.839844 110.019531 22.714844 110.121094 C 22.585938 110.226562 22.425781 110.277344 22.234375 110.277344 C 21.980469 110.277344 21.78125 110.1875 21.636719 110 C 21.464844 109.78125 21.375 109.425781 21.375 108.929688 Z M 21.707031 108.929688 C 21.707031 109.363281 21.757812 109.652344 21.859375 109.796875 C 21.960938 109.941406 22.085938 110.011719 22.234375 110.011719 C 22.386719 110.011719 22.511719 109.941406 22.613281 109.796875 C 22.714844 109.652344 22.765625 109.363281 22.765625 108.929688 C 22.765625 108.496094 22.714844 108.207031 22.613281 108.066406 C 22.511719 107.921875 22.382812 107.851562 22.230469 107.851562 C 22.082031 107.851562 21.964844 107.914062 21.871094 108.035156 C 21.761719 108.199219 21.707031 108.496094 21.707031 108.929688 Z M 23.425781 108.929688 C 23.425781 108.617188 23.457031 108.367188 23.523438 108.179688 C 23.585938 107.988281 23.679688 107.839844 23.808594 107.738281 C 23.933594 107.632812 24.09375 107.582031 24.285156 107.582031 C 24.425781 107.582031 24.550781 107.609375 24.65625 107.667969 C 24.761719 107.726562 24.851562 107.808594 24.921875 107.917969 C 24.992188 108.023438 25.046875 108.15625 25.085938 108.308594 C 25.125 108.460938 25.144531 108.667969 25.144531 108.929688 C 25.144531 109.242188 25.113281 109.492188 25.046875 109.683594 C 24.984375 109.871094 24.890625 110.019531 24.761719 110.121094 C 24.636719 110.226562 24.476562 110.277344 24.285156 110.277344 C 24.03125 110.277344 23.832031 110.1875 23.6875 110 C 23.511719 109.78125 23.425781 109.425781 23.425781 108.929688 Z M 23.753906 108.929688 C 23.753906 109.363281 23.804688 109.652344 23.90625 109.796875 C 24.011719 109.941406 24.136719 110.011719 24.285156 110.011719 C 24.433594 110.011719 24.5625 109.941406 24.664062 109.796875 C 24.765625 109.652344 24.816406 109.363281 24.816406 108.929688 C 24.816406 108.496094 24.765625 108.207031 24.664062 108.066406 C 24.5625 107.921875 24.433594 107.851562 24.28125 107.851562 C 24.132812 107.851562 24.015625 107.914062 23.921875 108.035156 C 23.8125 108.199219 23.753906 108.496094 23.753906 108.929688 Z M 25.476562 108.929688 C 25.476562 108.617188 25.507812 108.367188 25.574219 108.179688 C 25.636719 107.988281 25.730469 107.839844 25.855469 107.738281 C 25.984375 107.632812 26.144531 107.582031 26.335938 107.582031 C 26.476562 107.582031 26.601562 107.609375 26.707031 107.667969 C 26.8125 107.726562 26.902344 107.808594 26.972656 107.917969 C 27.042969 108.023438 27.097656 108.15625 27.136719 108.308594 C 27.175781 108.460938 27.195312 108.667969 27.195312 108.929688 C 27.195312 109.242188 27.164062 109.492188 27.097656 109.683594 C 27.035156 109.871094 26.941406 110.019531 26.8125 110.121094 C 26.6875 110.226562 26.527344 110.277344 26.335938 110.277344 C 26.082031 110.277344 25.882812 110.1875 25.738281 110 C 25.5625 109.78125 25.476562 109.425781 25.476562 108.929688 Z M 25.804688 108.929688 C 25.804688 109.363281 25.855469 109.652344 25.957031 109.796875 C 26.058594 109.941406 26.1875 110.011719 26.335938 110.011719 C 26.484375 110.011719 26.609375 109.941406 26.714844 109.796875 C 26.816406 109.652344 26.867188 109.363281 26.867188 108.929688 C 26.867188 108.496094 26.816406 108.207031 26.714844 108.066406 C 26.609375 107.921875 26.484375 107.851562 26.332031 107.851562 C 26.183594 107.851562 26.066406 107.914062 25.972656 108.035156 C 25.859375 108.199219 25.804688 108.496094 25.804688 108.929688 Z M 27.527344 108.929688 C 27.527344 108.617188 27.558594 108.367188 27.621094 108.179688 C 27.6875 107.988281 27.78125 107.839844 27.90625 107.738281 C 28.035156 107.632812 28.195312 107.582031 28.386719 107.582031 C 28.527344 107.582031 28.652344 107.609375 28.757812 107.667969 C 28.863281 107.726562 28.953125 107.808594 29.023438 107.917969 C 29.09375 108.023438 29.148438 108.15625 29.1875 108.308594 C 29.226562 108.460938 29.246094 108.667969 29.246094 108.929688 C 29.246094 109.242188 29.210938 109.492188 29.148438 109.683594 C 29.085938 109.871094 28.992188 110.019531 28.863281 110.121094 C 28.738281 110.226562 28.578125 110.277344 28.386719 110.277344 C 28.132812 110.277344 27.933594 110.1875 27.785156 110 C 27.613281 109.78125 27.527344 109.425781 27.527344 108.929688 Z M 27.855469 108.929688 C 27.855469 109.363281 27.90625 109.652344 28.007812 109.796875 C 28.109375 109.941406 28.234375 110.011719 28.386719 110.011719 C 28.535156 110.011719 28.660156 109.941406 28.761719 109.796875 C 28.863281 109.652344 28.914062 109.363281 28.914062 108.929688 C 28.914062 108.496094 28.863281 108.207031 28.761719 108.066406 C 28.660156 107.921875 28.535156 107.851562 28.378906 107.851562 C 28.234375 107.851562 28.113281 107.914062 28.023438 108.035156 C 27.910156 108.199219 27.855469 108.496094 27.855469 108.929688 "/>
<path style="fill:none;stroke-width:10;stroke-linecap:butt;stroke-linejoin:miter;stroke:rgb(0%,0%,0%);stroke-opacity:1;stroke-miterlimit:10;" d="M 305.976562 519.960938 L 317.070312 519.960938 " transform="matrix(0.1,0,0,-0.1,0,161)"/>
<path style=" stroke:none;fill-rule:nonzero;fill:rgb(0%,0%,0%);fill-opacity:1;" d="M 18.328125 87.007812 L 18.007812 87.007812 L 18.007812 84.945312 C 17.929688 85.015625 17.828125 85.089844 17.703125 85.164062 C 17.574219 85.238281 17.460938 85.292969 17.363281 85.328125 L 17.363281 85.019531 C 17.542969 84.933594 17.699219 84.832031 17.835938 84.710938 C 17.972656 84.589844 18.070312 84.472656 18.121094 84.355469 L 18.328125 84.355469 Z M 19.164062 85.703125 C 19.164062 85.394531 19.195312 85.140625 19.261719 84.953125 C 19.324219 84.761719 19.417969 84.613281 19.542969 84.511719 C 19.671875 84.40625 19.832031 84.355469 20.023438 84.355469 C 20.164062 84.355469 20.289062 84.386719 20.394531 84.441406 C 20.5 84.5 20.589844 84.582031 20.660156 84.691406 C 20.730469 84.796875 20.785156 84.929688 20.824219 85.082031 C 20.863281 85.234375 20.882812 85.441406 20.882812 85.703125 C 20.882812 86.015625 20.847656 86.265625 20.785156 86.457031 C 20.722656 86.644531 20.628906 86.792969 20.5 86.898438 C 20.375 87 20.214844 87.050781 20.023438 87.050781 C 19.769531 87.050781 19.570312 86.960938 19.421875 86.777344 C 19.25 86.554688 19.164062 86.199219 19.164062 85.703125 Z M 19.492188 85.703125 C 19.492188 86.136719 19.542969 86.425781 19.644531 86.570312 C 19.746094 86.714844 19.871094 86.785156 20.023438 86.785156 C 20.171875 86.785156 20.296875 86.714844 20.402344 86.570312 C 20.503906 86.425781 20.550781 86.136719 20.550781 85.703125 C 20.550781 85.269531 20.503906 84.980469 20.402344 84.839844 C 20.296875 84.699219 20.171875 84.628906 20.015625 84.628906 C 19.871094 84.628906 19.753906 84.6875 19.660156 84.8125 C 19.546875 84.972656 19.492188 85.269531 19.492188 85.703125 Z M 21.214844 85.703125 C 21.214844 85.394531 21.246094 85.140625 21.308594 84.953125 C 21.375 84.761719 21.46875 84.613281 21.59375 84.511719 C 21.722656 84.40625 21.882812 84.355469 22.074219 84.355469 C 22.214844 84.355469 22.339844 84.386719 22.445312 84.441406 C 22.550781 84.5 22.640625 84.582031 22.710938 84.691406 C 22.78125 84.796875 22.835938 84.929688 22.875 85.082031 C 22.914062 85.234375 22.929688 85.441406 22.929688 85.703125 C 22.929688 86.015625 22.898438 86.265625 22.835938 86.457031 C 22.773438 86.644531 22.679688 86.792969 22.550781 86.898438 C 22.425781 87 22.265625 87.050781 22.074219 87.050781 C 21.820312 87.050781 21.621094 86.960938 21.472656 86.777344 C 21.300781 86.554688 21.214844 86.199219 21.214844 85.703125 Z M 21.542969 85.703125 C 21.542969 86.136719 21.59375 86.425781 21.695312 86.570312 C 21.796875 86.714844 21.921875 86.785156 22.074219 86.785156 C 22.222656 86.785156 22.347656 86.714844 22.449219 86.570312 C 22.550781 86.425781 22.601562 86.136719 22.601562 85.703125 C 22.601562 85.269531 22.550781 84.980469 22.449219 84.839844 C 22.347656 84.699219 22.222656 84.628906 22.066406 84.628906 C 21.921875 84.628906 21.800781 84.6875 21.710938 84.8125 C 21.597656 84.972656 21.542969 85.269531 21.542969 85.703125 Z M 23.265625 85.703125 C 23.265625 85.394531 23.296875 85.140625 23.359375 84.953125 C 23.421875 84.761719 23.519531 84.613281 23.644531 84.511719 C 23.773438 84.40625 23.929688 84.355469 24.125 84.355469 C 24.265625 84.355469 24.390625 84.386719 24.496094 84.441406 C 24.601562 84.5 24.6875 84.582031 24.761719 84.691406 C 24.832031 84.796875 24.886719 84.929688 24.925781 85.082031 C 24.964844 85.234375 24.980469 85.441406 24.980469 85.703125 C 24.980469 86.015625 24.949219 86.265625 24.886719 86.457031 C 24.824219 86.644531 24.726562 86.792969 24.601562 86.898438 C 24.476562 87 24.316406 87.050781 24.125 87.050781 C 23.871094 87.050781 23.671875 86.960938 23.523438 86.777344 C 23.351562 86.554688 23.265625 86.199219 23.265625 85.703125 Z M 23.59375 85.703125 C 23.59375 86.136719 23.644531 86.425781 23.746094 86.570312 C 23.847656 86.714844 23.972656 86.785156 24.125 86.785156 C 24.273438 86.785156 24.398438 86.714844 24.5 86.570312 C 24.601562 86.425781 24.652344 86.136719 24.652344 85.703125 C 24.652344 85.269531 24.601562 84.980469 24.5 84.839844 C 24.398438 84.699219 24.273438 84.628906 24.117188 84.628906 C 23.972656 84.628906 23.851562 84.6875 23.761719 84.8125 C 23.648438 84.972656 23.59375 85.269531 23.59375 85.703125 Z M 25.316406 85.703125 C 25.316406 85.394531 25.347656 85.140625 25.410156 84.953125 C 25.472656 84.761719 25.570312 84.613281 25.695312 84.511719 C 25.824219 84.40625 25.980469 84.355469 26.175781 84.355469 C 26.316406 84.355469 26.441406 84.386719 26.546875 84.441406 C 26.652344 84.5 26.738281 84.582031 26.808594 84.691406 C 26.882812 84.796875 26.9375 84.929688 26.972656 85.082031 C 27.011719 85.234375 27.03125 85.441406 27.03125 85.703125 C 27.03125 86.015625 27 86.265625 26.9375 86.457031 C 26.875 86.644531 26.777344 86.792969 26.652344 86.898438 C 26.527344 87 26.367188 87.050781 26.175781 87.050781 C 25.921875 87.050781 25.71875 86.960938 25.574219 86.777344 C 25.402344 86.554688 25.316406 86.199219 25.316406 85.703125 Z M 25.644531 85.703125 C 25.644531 86.136719 25.695312 86.425781 25.796875 86.570312 C 25.898438 86.714844 26.023438 86.785156 26.175781 86.785156 C 26.324219 86.785156 26.449219 86.714844 26.550781 86.570312 C 26.652344 86.425781 26.703125 86.136719 26.703125 85.703125 C 26.703125 85.269531 26.652344 84.980469 26.550781 84.839844 C 26.449219 84.699219 26.320312 84.628906 26.167969 84.628906 C 26.023438 84.628906 25.902344 84.6875 25.8125 84.8125 C 25.699219 84.972656 25.644531 85.269531 25.644531 85.703125 Z M 27.367188 85.703125 C 27.367188 85.394531 27.398438 85.140625 27.460938 84.953125 C 27.523438 84.761719 27.621094 84.613281 27.746094 84.511719 C 27.871094 84.40625 28.03125 84.355469 28.222656 84.355469 C 28.367188 84.355469 28.488281 84.386719 28.597656 84.441406 C 28.703125 84.5 28.789062 84.582031 28.859375 84.691406 C 28.933594 84.796875 28.988281 84.929688 29.023438 85.082031 C 29.0625 85.234375 29.082031 85.441406 29.082031 85.703125 C 29.082031 86.015625 29.050781 86.265625 28.988281 86.457031 C 28.925781 86.644531 28.828125 86.792969 28.703125 86.898438 C 28.574219 87 28.417969 87.050781 28.222656 87.050781 C 27.972656 87.050781 27.769531 86.960938 27.625 86.777344 C 27.453125 86.554688 27.367188 86.199219 27.367188 85.703125 Z M 27.695312 85.703125 C 27.695312 86.136719 27.746094 86.425781 27.847656 86.570312 C 27.949219 86.714844 28.074219 86.785156 28.222656 86.785156 C 28.375 86.785156 28.5 86.714844 28.601562 86.570312 C 28.703125 86.425781 28.753906 86.136719 28.753906 85.703125 C 28.753906 85.269531 28.703125 84.980469 28.601562 84.839844 C 28.5 84.699219 28.371094 84.628906 28.21875 84.628906 C 28.074219 84.628906 27.953125 84.6875 27.859375 84.8125 C 27.75 84.972656 27.695312 85.269531 27.695312 85.703125 "/>
<path style="fill:none;stroke-width:10;stroke-linecap:butt;stroke-linejoin:miter;stroke:rgb(0%,0%,0%);stroke-opacity:1;stroke-miterlimit:10;" d="M 305.976562 753.4375 L 317.070312 753.4375 " transform="matrix(0.1,0,0,-0.1,0,161)"/>
<path style=" stroke:none;fill-rule:nonzero;fill:rgb(0%,0%,0%);fill-opacity:1;" d="M 18.328125 63.78125 L 18.007812 63.78125 L 18.007812 61.71875 C 17.929688 61.789062 17.828125 61.863281 17.703125 61.9375 C 17.574219 62.015625 17.460938 62.070312 17.363281 62.101562 L 17.363281 61.792969 C 17.542969 61.707031 17.699219 61.605469 17.835938 61.484375 C 17.972656 61.363281 18.070312 61.246094 18.121094 61.128906 L 18.328125 61.128906 Z M 19.164062 63.089844 L 19.503906 63.058594 C 19.527344 63.222656 19.585938 63.347656 19.675781 63.433594 C 19.769531 63.519531 19.882812 63.5625 20.011719 63.5625 C 20.164062 63.5625 20.296875 63.5 20.40625 63.382812 C 20.515625 63.261719 20.570312 63.109375 20.570312 62.914062 C 20.570312 62.730469 20.519531 62.585938 20.414062 62.476562 C 20.3125 62.371094 20.175781 62.316406 20.007812 62.316406 C 19.902344 62.316406 19.808594 62.339844 19.722656 62.390625 C 19.640625 62.4375 19.570312 62.496094 19.523438 62.570312 L 19.222656 62.53125 L 19.476562 61.175781 L 20.789062 61.175781 L 20.789062 61.488281 L 19.734375 61.488281 L 19.589844 62.195312 C 19.753906 62.085938 19.917969 62.027344 20.09375 62.027344 C 20.324219 62.027344 20.515625 62.109375 20.671875 62.269531 C 20.832031 62.425781 20.910156 62.632812 20.910156 62.886719 C 20.910156 63.125 20.839844 63.332031 20.703125 63.503906 C 20.535156 63.71875 20.304688 63.824219 20.011719 63.824219 C 19.769531 63.824219 19.574219 63.757812 19.421875 63.625 C 19.269531 63.488281 19.183594 63.3125 19.164062 63.089844 Z M 21.214844 62.476562 C 21.214844 62.167969 21.246094 61.914062 21.308594 61.726562 C 21.375 61.535156 21.46875 61.390625 21.59375 61.285156 C 21.722656 61.179688 21.882812 61.128906 22.074219 61.128906 C 22.214844 61.128906 22.339844 61.160156 22.445312 61.214844 C 22.550781 61.273438 22.640625 61.355469 22.710938 61.464844 C 22.78125 61.570312 22.835938 61.703125 22.875 61.855469 C 22.914062 62.007812 22.929688 62.21875 22.929688 62.476562 C 22.929688 62.789062 22.898438 63.039062 22.835938 63.230469 C 22.773438 63.417969 22.679688 63.566406 22.550781 63.671875 C 22.425781 63.773438 22.265625 63.824219 22.074219 63.824219 C 21.820312 63.824219 21.621094 63.734375 21.472656 63.550781 C 21.300781 63.332031 21.214844 62.972656 21.214844 62.476562 Z M 21.542969 62.476562 C 21.542969 62.910156 21.59375 63.199219 21.695312 63.34375 C 21.796875 63.488281 21.921875 63.5625 22.074219 63.5625 C 22.222656 63.5625 22.347656 63.488281 22.449219 63.34375 C 22.550781 63.199219 22.601562 62.910156 22.601562 62.476562 C 22.601562 62.042969 22.550781 61.757812 22.449219 61.613281 C 22.347656 61.472656 22.222656 61.402344 22.066406 61.402344 C 21.921875 61.402344 21.800781 61.460938 21.710938 61.585938 C 21.597656 61.746094 21.542969 62.042969 21.542969 62.476562 Z M 23.265625 62.476562 C 23.265625 62.167969 23.296875 61.914062 23.359375 61.726562 C 23.421875 61.535156 23.519531 61.390625 23.644531 61.285156 C 23.773438 61.179688 23.929688 61.128906 24.125 61.128906 C 24.265625 61.128906 24.390625 61.160156 24.496094 61.214844 C 24.601562 61.273438 24.6875 61.355469 24.761719 61.464844 C 24.832031 61.570312 24.886719 61.703125 24.925781 61.855469 C 24.964844 62.007812 24.980469 62.21875 24.980469 62.476562 C 24.980469 62.789062 24.949219 63.039062 24.886719 63.230469 C 24.824219 63.417969 24.726562 63.566406 24.601562 63.671875 C 24.476562 63.773438 24.316406 63.824219 24.125 63.824219 C 23.871094 63.824219 23.671875 63.734375 23.523438 63.550781 C 23.351562 63.332031 23.265625 62.972656 23.265625 62.476562 Z M 23.59375 62.476562 C 23.59375 62.910156 23.644531 63.199219 23.746094 63.34375 C 23.847656 63.488281 23.972656 63.5625 24.125 63.5625 C 24.273438 63.5625 24.398438 63.488281 24.5 63.34375 C 24.601562 63.199219 24.652344 62.910156 24.652344 62.476562 C 24.652344 62.042969 24.601562 61.757812 24.5 61.613281 C 24.398438 61.472656 24.273438 61.402344 24.117188 61.402344 C 23.972656 61.402344 23.851562 61.460938 23.761719 61.585938 C 23.648438 61.746094 23.59375 62.042969 23.59375 62.476562 Z M 25.316406 62.476562 C 25.316406 62.167969 25.347656 61.914062 25.410156 61.726562 C 25.472656 61.535156 25.570312 61.390625 25.695312 61.285156 C 25.824219 61.179688 25.980469 61.128906 26.175781 61.128906 C 26.316406 61.128906 26.441406 61.160156 26.546875 61.214844 C 26.652344 61.273438 26.738281 61.355469 26.808594 61.464844 C 26.882812 61.570312 26.9375 61.703125 26.972656 61.855469 C 27.011719 62.007812 27.03125 62.21875 27.03125 62.476562 C 27.03125 62.789062 27 63.039062 26.9375 63.230469 C 26.875 63.417969 26.777344 63.566406 26.652344 63.671875 C 26.527344 63.773438 26.367188 63.824219 26.175781 63.824219 C 25.921875 63.824219 25.71875 63.734375 25.574219 63.550781 C 25.402344 63.332031 25.316406 62.972656 25.316406 62.476562 Z M 25.644531 62.476562 C 25.644531 62.910156 25.695312 63.199219 25.796875 63.34375 C 25.898438 63.488281 26.023438 63.5625 26.175781 63.5625 C 26.324219 63.5625 26.449219 63.488281 26.550781 63.34375 C 26.652344 63.199219 26.703125 62.910156 26.703125 62.476562 C 26.703125 62.042969 26.652344 61.757812 26.550781 61.613281 C 26.449219 61.472656 26.320312 61.402344 26.167969 61.402344 C 26.023438 61.402344 25.902344 61.460938 25.8125 61.585938 C 25.699219 61.746094 25.644531 62.042969 25.644531 62.476562 Z M 27.367188 62.476562 C 27.367188 62.167969 27.398438 61.914062 27.460938 61.726562 C 27.523438 61.535156 27.621094 61.390625 27.746094 61.285156 C 27.871094 61.179688 28.03125 61.128906 28.222656 61.128906 C 28.367188 61.128906 28.488281 61.160156 28.597656 61.214844 C 28.703125 61.273438 28.789062 61.355469 28.859375 61.464844 C 28.933594 61.570312 28.988281 61.703125 29.023438 61.855469 C 29.0625 62.007812 29.082031 62.21875 29.082031 62.476562 C 29.082031 62.789062 29.050781 63.039062 28.988281 63.230469 C 28.925781 63.417969 28.828125 63.566406 28.703125 63.671875 C 28.574219 63.773438 28.417969 63.824219 28.222656 63.824219 C 27.972656 63.824219 27.769531 63.734375 27.625 63.550781 C 27.453125 63.332031 27.367188 62.972656 27.367188 62.476562 Z M 27.695312 62.476562 C 27.695312 62.910156 27.746094 63.199219 27.847656 63.34375 C 27.949219 63.488281 28.074219 63.5625 28.222656 63.5625 C 28.375 63.5625 28.5 63.488281 28.601562 63.34375 C 28.703125 63.199219 28.753906 62.910156 28.753906 62.476562 C 28.753906 62.042969 28.703125 61.757812 28.601562 61.613281 C 28.5 61.472656 28.371094 61.402344 28.21875 61.402344 C 28.074219 61.402344 27.953125 61.460938 27.859375 61.585938 C 27.75 61.746094 27.695312 62.042969 27.695312 62.476562 "/>
<path style="fill:none;stroke-width:10;stroke-linecap:butt;stroke-linejoin:miter;stroke:rgb(0%,0%,0%);stroke-opacity:1;stroke-miterlimit:10;" d="M 305.976562 986.914062 L 317.070312 986.914062 " transform="matrix(0.1,0,0,-0.1,0,161)"/>
<path style=" stroke:none;fill-rule:nonzero;fill:rgb(0%,0%,0%);fill-opacity:1;" d="M 18.8125 39.875 L 18.8125 40.183594 L 17.070312 40.183594 C 17.070312 40.109375 17.082031 40.03125 17.109375 39.960938 C 17.15625 39.839844 17.226562 39.722656 17.320312 39.609375 C 17.417969 39.492188 17.558594 39.359375 17.746094 39.210938 C 18.03125 38.972656 18.226562 38.785156 18.328125 38.648438 C 18.429688 38.511719 18.480469 38.382812 18.480469 38.261719 C 18.480469 38.128906 18.433594 38.023438 18.339844 37.9375 C 18.25 37.847656 18.128906 37.804688 17.984375 37.804688 C 17.828125 37.804688 17.699219 37.851562 17.605469 37.945312 C 17.511719 38.035156 17.464844 38.164062 17.464844 38.328125 L 17.132812 38.296875 C 17.15625 38.050781 17.238281 37.859375 17.386719 37.730469 C 17.535156 37.601562 17.734375 37.535156 17.988281 37.535156 C 18.242188 37.535156 18.445312 37.605469 18.59375 37.746094 C 18.738281 37.886719 18.8125 38.058594 18.8125 38.265625 C 18.8125 38.375 18.792969 38.480469 18.746094 38.578125 C 18.703125 38.683594 18.632812 38.789062 18.53125 38.902344 C 18.429688 39.015625 18.265625 39.171875 18.03125 39.367188 C 17.839844 39.527344 17.714844 39.640625 17.660156 39.699219 C 17.601562 39.757812 17.558594 39.816406 17.523438 39.875 Z M 19.164062 38.882812 C 19.164062 38.570312 19.195312 38.320312 19.261719 38.132812 C 19.324219 37.941406 19.417969 37.792969 19.542969 37.691406 C 19.671875 37.585938 19.832031 37.535156 20.023438 37.535156 C 20.164062 37.535156 20.289062 37.5625 20.394531 37.621094 C 20.5 37.679688 20.589844 37.761719 20.660156 37.867188 C 20.730469 37.976562 20.785156 38.105469 20.824219 38.261719 C 20.863281 38.414062 20.882812 38.621094 20.882812 38.882812 C 20.882812 39.195312 20.847656 39.445312 20.785156 39.636719 C 20.722656 39.824219 20.628906 39.972656 20.5 40.074219 C 20.375 40.179688 20.214844 40.230469 20.023438 40.230469 C 19.769531 40.230469 19.570312 40.140625 19.421875 39.953125 C 19.25 39.734375 19.164062 39.378906 19.164062 38.882812 Z M 19.492188 38.882812 C 19.492188 39.316406 19.542969 39.605469 19.644531 39.75 C 19.746094 39.894531 19.871094 39.964844 20.023438 39.964844 C 20.171875 39.964844 20.296875 39.894531 20.402344 39.75 C 20.503906 39.605469 20.550781 39.316406 20.550781 38.882812 C 20.550781 38.449219 20.503906 38.160156 20.402344 38.019531 C 20.296875 37.878906 20.171875 37.804688 20.015625 37.804688 C 19.871094 37.804688 19.753906 37.867188 19.660156 37.988281 C 19.546875 38.152344 19.492188 38.449219 19.492188 38.882812 Z M 21.214844 38.882812 C 21.214844 38.570312 21.246094 38.320312 21.308594 38.132812 C 21.375 37.941406 21.46875 37.792969 21.59375 37.691406 C 21.722656 37.585938 21.882812 37.535156 22.074219 37.535156 C 22.214844 37.535156 22.339844 37.5625 22.445312 37.621094 C 22.550781 37.679688 22.640625 37.761719 22.710938 37.867188 C 22.78125 37.976562 22.835938 38.105469 22.875 38.261719 C 22.914062 38.414062 22.929688 38.621094 22.929688 38.882812 C 22.929688 39.195312 22.898438 39.445312 22.835938 39.636719 C 22.773438 39.824219 22.679688 39.972656 22.550781 40.074219 C 22.425781 40.179688 22.265625 40.230469 22.074219 40.230469 C 21.820312 40.230469 21.621094 40.140625 21.472656 39.953125 C 21.300781 39.734375 21.214844 39.378906 21.214844 38.882812 Z M 21.542969 38.882812 C 21.542969 39.316406 21.59375 39.605469 21.695312 39.75 C 21.796875 39.894531 21.921875 39.964844 22.074219 39.964844 C 22.222656 39.964844 22.347656 39.894531 22.449219 39.75 C 22.550781 39.605469 22.601562 39.316406 22.601562 38.882812 C 22.601562 38.449219 22.550781 38.160156 22.449219 38.019531 C 22.347656 37.878906 22.222656 37.804688 22.066406 37.804688 C 21.921875 37.804688 21.800781 37.867188 21.710938 37.988281 C 21.597656 38.152344 21.542969 38.449219 21.542969 38.882812 Z M 23.265625 38.882812 C 23.265625 38.570312 23.296875 38.320312 23.359375 38.132812 C 23.421875 37.941406 23.519531 37.792969 23.644531 37.691406 C 23.773438 37.585938 23.929688 37.535156 24.125 37.535156 C 24.265625 37.535156 24.390625 37.5625 24.496094 37.621094 C 24.601562 37.679688 24.6875 37.761719 24.761719 37.867188 C 24.832031 37.976562 24.886719 38.105469 24.925781 38.261719 C 24.964844 38.414062 24.980469 38.621094 24.980469 38.882812 C 24.980469 39.195312 24.949219 39.445312 24.886719 39.636719 C 24.824219 39.824219 24.726562 39.972656 24.601562 40.074219 C 24.476562 40.179688 24.316406 40.230469 24.125 40.230469 C 23.871094 40.230469 23.671875 40.140625 23.523438 39.953125 C 23.351562 39.734375 23.265625 39.378906 23.265625 38.882812 Z M 23.59375 38.882812 C 23.59375 39.316406 23.644531 39.605469 23.746094 39.75 C 23.847656 39.894531 23.972656 39.964844 24.125 39.964844 C 24.273438 39.964844 24.398438 39.894531 24.5 39.75 C 24.601562 39.605469 24.652344 39.316406 24.652344 38.882812 C 24.652344 38.449219 24.601562 38.160156 24.5 38.019531 C 24.398438 37.878906 24.273438 37.804688 24.117188 37.804688 C 23.972656 37.804688 23.851562 37.867188 23.761719 37.988281 C 23.648438 38.152344 23.59375 38.449219 23.59375 38.882812 Z M 25.316406 38.882812 C 25.316406 38.570312 25.347656 38.320312 25.410156 38.132812 C 25.472656 37.941406 25.570312 37.792969 25.695312 37.691406 C 25.824219 37.585938 25.980469 37.535156 26.175781 37.535156 C 26.316406 37.535156 26.441406 37.5625 26.546875 37.621094 C 26.652344 37.679688 26.738281 37.761719 26.808594 37.867188 C 26.882812 37.976562 26.9375 38.105469 26.972656 38.261719 C 27.011719 38.414062 27.03125 38.621094 27.03125 38.882812 C 27.03125 39.195312 27 39.445312 26.9375 39.636719 C 26.875 39.824219 26.777344 39.972656 26.652344 40.074219 C 26.527344 40.179688 26.367188 40.230469 26.175781 40.230469 C 25.921875 40.230469 25.71875 40.140625 25.574219 39.953125 C 25.402344 39.734375 25.316406 39.378906 25.316406 38.882812 Z M 25.644531 38.882812 C 25.644531 39.316406 25.695312 39.605469 25.796875 39.75 C 25.898438 39.894531 26.023438 39.964844 26.175781 39.964844 C 26.324219 39.964844 26.449219 39.894531 26.550781 39.75 C 26.652344 39.605469 26.703125 39.316406 26.703125 38.882812 C 26.703125 38.449219 26.652344 38.160156 26.550781 38.019531 C 26.449219 37.878906 26.320312 37.804688 26.167969 37.804688 C 26.023438 37.804688 25.902344 37.867188 25.8125 37.988281 C 25.699219 38.152344 25.644531 38.449219 25.644531 38.882812 Z M 27.367188 38.882812 C 27.367188 38.570312 27.398438 38.320312 27.460938 38.132812 C 27.523438 37.941406 27.621094 37.792969 27.746094 37.691406 C 27.871094 37.585938 28.03125 37.535156 28.222656 37.535156 C 28.367188 37.535156 28.488281 37.5625 28.597656 37.621094 C 28.703125 37.679688 28.789062 37.761719 28.859375 37.867188 C 28.933594 37.976562 28.988281 38.105469 29.023438 38.261719 C 29.0625 38.414062 29.082031 38.621094 29.082031 38.882812 C 29.082031 39.195312 29.050781 39.445312 28.988281 39.636719 C 28.925781 39.824219 28.828125 39.972656 28.703125 40.074219 C 28.574219 40.179688 28.417969 40.230469 28.222656 40.230469 C 27.972656 40.230469 27.769531 40.140625 27.625 39.953125 C 27.453125 39.734375 27.367188 39.378906 27.367188 38.882812 Z M 27.695312 38.882812 C 27.695312 39.316406 27.746094 39.605469 27.847656 39.75 C 27.949219 39.894531 28.074219 39.964844 28.222656 39.964844 C 28.375 39.964844 28.5 39.894531 28.601562 39.75 C 28.703125 39.605469 28.753906 39.316406 28.753906 38.882812 C 28.753906 38.449219 28.703125 38.160156 28.601562 38.019531 C 28.5 37.878906 28.371094 37.804688 28.21875 37.804688 C 28.074219 37.804688 27.953125 37.867188 27.859375 37.988281 C 27.75 38.152344 27.695312 38.449219 27.695312 38.882812 "/>
<path style="fill:none;stroke-width:10;stroke-linecap:butt;stroke-linejoin:miter;stroke:rgb(0%,0%,0%);stroke-opacity:1;stroke-miterlimit:10;" d="M 305.976562 1220.351562 L 317.070312 1220.351562 " transform="matrix(0.1,0,0,-0.1,0,161)"/>
<path style=" stroke:none;fill-rule:nonzero;fill:rgb(0%,0%,0%);fill-opacity:1;" d="M 18.8125 16.648438 L 18.8125 16.960938 L 17.070312 16.960938 C 17.070312 16.882812 17.082031 16.808594 17.109375 16.734375 C 17.15625 16.613281 17.226562 16.496094 17.320312 16.382812 C 17.417969 16.269531 17.558594 16.136719 17.746094 15.984375 C 18.03125 15.746094 18.226562 15.558594 18.328125 15.421875 C 18.429688 15.285156 18.480469 15.15625 18.480469 15.035156 C 18.480469 14.902344 18.433594 14.796875 18.339844 14.710938 C 18.25 14.621094 18.128906 14.578125 17.984375 14.578125 C 17.828125 14.578125 17.699219 14.625 17.605469 14.71875 C 17.511719 14.808594 17.464844 14.9375 17.464844 15.105469 L 17.132812 15.070312 C 17.15625 14.824219 17.238281 14.636719 17.386719 14.503906 C 17.535156 14.375 17.734375 14.308594 17.988281 14.308594 C 18.242188 14.308594 18.445312 14.378906 18.59375 14.519531 C 18.738281 14.660156 18.8125 14.832031 18.8125 15.039062 C 18.8125 15.148438 18.792969 15.253906 18.746094 15.355469 C 18.703125 15.457031 18.632812 15.5625 18.53125 15.675781 C 18.429688 15.789062 18.265625 15.945312 18.03125 16.140625 C 17.839844 16.300781 17.714844 16.410156 17.660156 16.472656 C 17.601562 16.53125 17.558594 16.589844 17.523438 16.648438 Z M 19.164062 16.269531 L 19.503906 16.238281 C 19.527344 16.402344 19.585938 16.527344 19.675781 16.613281 C 19.769531 16.699219 19.882812 16.738281 20.011719 16.738281 C 20.164062 16.738281 20.296875 16.679688 20.40625 16.5625 C 20.515625 16.441406 20.570312 16.285156 20.570312 16.09375 C 20.570312 15.910156 20.519531 15.765625 20.414062 15.65625 C 20.3125 15.550781 20.175781 15.496094 20.007812 15.496094 C 19.902344 15.496094 19.808594 15.519531 19.722656 15.566406 C 19.640625 15.617188 19.570312 15.675781 19.523438 15.75 L 19.222656 15.710938 L 19.476562 14.355469 L 20.789062 14.355469 L 20.789062 14.664062 L 19.734375 14.664062 L 19.589844 15.375 C 19.753906 15.261719 19.917969 15.207031 20.09375 15.207031 C 20.324219 15.207031 20.515625 15.285156 20.671875 15.445312 C 20.832031 15.605469 20.910156 15.8125 20.910156 16.066406 C 20.910156 16.304688 20.839844 16.507812 20.703125 16.683594 C 20.535156 16.898438 20.304688 17.003906 20.011719 17.003906 C 19.769531 17.003906 19.574219 16.9375 19.421875 16.804688 C 19.269531 16.667969 19.183594 16.488281 19.164062 16.269531 Z M 21.214844 15.65625 C 21.214844 15.347656 21.246094 15.09375 21.308594 14.90625 C 21.375 14.714844 21.46875 14.566406 21.59375 14.464844 C 21.722656 14.359375 21.882812 14.308594 22.074219 14.308594 C 22.214844 14.308594 22.339844 14.339844 22.445312 14.394531 C 22.550781 14.453125 22.640625 14.535156 22.710938 14.644531 C 22.78125 14.75 22.835938 14.882812 22.875 15.035156 C 22.914062 15.1875 22.929688 15.394531 22.929688 15.65625 C 22.929688 15.96875 22.898438 16.21875 22.835938 16.410156 C 22.773438 16.597656 22.679688 16.746094 22.550781 16.847656 C 22.425781 16.953125 22.265625 17.003906 22.074219 17.003906 C 21.820312 17.003906 21.621094 16.910156 21.472656 16.730469 C 21.300781 16.507812 21.214844 16.152344 21.214844 15.65625 Z M 21.542969 15.65625 C 21.542969 16.089844 21.59375 16.378906 21.695312 16.523438 C 21.796875 16.667969 21.921875 16.738281 22.074219 16.738281 C 22.222656 16.738281 22.347656 16.667969 22.449219 16.523438 C 22.550781 16.378906 22.601562 16.089844 22.601562 15.65625 C 22.601562 15.222656 22.550781 14.933594 22.449219 14.792969 C 22.347656 14.652344 22.222656 14.578125 22.066406 14.578125 C 21.921875 14.578125 21.800781 14.640625 21.710938 14.765625 C 21.597656 14.925781 21.542969 15.222656 21.542969 15.65625 Z M 23.265625 15.65625 C 23.265625 15.347656 23.296875 15.09375 23.359375 14.90625 C 23.421875 14.714844 23.519531 14.566406 23.644531 14.464844 C 23.773438 14.359375 23.929688 14.308594 24.125 14.308594 C 24.265625 14.308594 24.390625 14.339844 24.496094 14.394531 C 24.601562 14.453125 24.6875 14.535156 24.761719 14.644531 C 24.832031 14.75 24.886719 14.882812 24.925781 15.035156 C 24.964844 15.1875 24.980469 15.394531 24.980469 15.65625 C 24.980469 15.96875 24.949219 16.21875 24.886719 16.410156 C 24.824219 16.597656 24.726562 16.746094 24.601562 16.847656 C 24.476562 16.953125 24.316406 17.003906 24.125 17.003906 C 23.871094 17.003906 23.671875 16.910156 23.523438 16.730469 C 23.351562 16.507812 23.265625 16.152344 23.265625 15.65625 Z M 23.59375 15.65625 C 23.59375 16.089844 23.644531 16.378906 23.746094 16.523438 C 23.847656 16.667969 23.972656 16.738281 24.125 16.738281 C 24.273438 16.738281 24.398438 16.667969 24.5 16.523438 C 24.601562 16.378906 24.652344 16.089844 24.652344 15.65625 C 24.652344 15.222656 24.601562 14.933594 24.5 14.792969 C 24.398438 14.652344 24.273438 14.578125 24.117188 14.578125 C 23.972656 14.578125 23.851562 14.640625 23.761719 14.765625 C 23.648438 14.925781 23.59375 15.222656 23.59375 15.65625 Z M 25.316406 15.65625 C 25.316406 15.347656 25.347656 15.09375 25.410156 14.90625 C 25.472656 14.714844 25.570312 14.566406 25.695312 14.464844 C 25.824219 14.359375 25.980469 14.308594 26.175781 14.308594 C 26.316406 14.308594 26.441406 14.339844 26.546875 14.394531 C 26.652344 14.453125 26.738281 14.535156 26.808594 14.644531 C 26.882812 14.75 26.9375 14.882812 26.972656 15.035156 C 27.011719 15.1875 27.03125 15.394531 27.03125 15.65625 C 27.03125 15.96875 27 16.21875 26.9375 16.410156 C 26.875 16.597656 26.777344 16.746094 26.652344 16.847656 C 26.527344 16.953125 26.367188 17.003906 26.175781 17.003906 C 25.921875 17.003906 25.71875 16.910156 25.574219 16.730469 C 25.402344 16.507812 25.316406 16.152344 25.316406 15.65625 Z M 25.644531 15.65625 C 25.644531 16.089844 25.695312 16.378906 25.796875 16.523438 C 25.898438 16.667969 26.023438 16.738281 26.175781 16.738281 C 26.324219 16.738281 26.449219 16.667969 26.550781 16.523438 C 26.652344 16.378906 26.703125 16.089844 26.703125 15.65625 C 26.703125 15.222656 26.652344 14.933594 26.550781 14.792969 C 26.449219 14.652344 26.320312 14.578125 26.167969 14.578125 C 26.023438 14.578125 25.902344 14.640625 25.8125 14.765625 C 25.699219 14.925781 25.644531 15.222656 25.644531 15.65625 Z M 27.367188 15.65625 C 27.367188 15.347656 27.398438 15.09375 27.460938 14.90625 C 27.523438 14.714844 27.621094 14.566406 27.746094 14.464844 C 27.871094 14.359375 28.03125 14.308594 28.222656 14.308594 C 28.367188 14.308594 28.488281 14.339844 28.597656 14.394531 C 28.703125 14.453125 28.789062 14.535156 28.859375 14.644531 C 28.933594 14.75 28.988281 14.882812 29.023438 15.035156 C 29.0625 15.1875 29.082031 15.394531 29.082031 15.65625 C 29.082031 15.96875 29.050781 16.21875 28.988281 16.410156 C 28.925781 16.597656 28.828125 16.746094 28.703125 16.847656 C 28.574219 16.953125 28.417969 17.003906 28.222656 17.003906 C 27.972656 17.003906 27.769531 16.910156 27.625 16.730469 C 27.453125 16.507812 27.367188 16.152344 27.367188 15.65625 Z M 27.695312 15.65625 C 27.695312 16.089844 27.746094 16.378906 27.847656 16.523438 C 27.949219 16.667969 28.074219 16.738281 28.222656 16.738281 C 28.375 16.738281 28.5 16.667969 28.601562 16.523438 C 28.703125 16.378906 28.753906 16.089844 28.753906 15.65625 C 28.753906 15.222656 28.703125 14.933594 28.601562 14.792969 C 28.5 14.652344 28.371094 14.578125 28.21875 14.578125 C 28.074219 14.578125 27.953125 14.640625 27.859375 14.765625 C 27.75 14.925781 27.695312 15.222656 27.695312 15.65625 "/>
<path style="fill:none;stroke-width:10;stroke-linecap:butt;stroke-linejoin:miter;stroke:rgb(0%,0%,0%);stroke-opacity:1;stroke-miterlimit:10;" d="M 305.976562 1453.828125 L 317.070312 1453.828125 " transform="matrix(0.1,0,0,-0.1,0,161)"/>
<path style="fill:none;stroke-width:10;stroke-linecap:round;stroke-linejoin:round;stroke:rgb(0%,0%,0%);stroke-opacity:1;stroke-miterlimit:10;" d="M -17.304688 7.578125 L 17.304688 -17.109375 M -17.695312 91.953125 L 17.695312 68.476562 M -18.125 176.328125 L 18.125 154.101562 M -18.515625 260.625 L 18.515625 239.726562 M -18.867188 344.921875 L 18.867188 325.429688 M -19.257812 429.140625 L 19.257812 411.210938 M -19.609375 513.320312 L 19.609375 496.992188 M -19.960938 597.460938 L 19.960938 582.8125 M -20.234375 681.5625 L 20.234375 668.710938 M -20.507812 765.625 L 20.507812 754.609375 M -20.742188 849.648438 L 20.742188 840.585938 M -20.9375 933.632812 L 20.9375 926.5625 M -21.09375 1017.617188 L 21.09375 1012.578125 M -21.210938 1101.5625 L 21.210938 1098.59375 M -21.25 1185.507812 L 21.25 1184.648438 M -21.25 1269.414062 L 21.25 1270.664062 M -21.171875 1353.398438 L 21.171875 1356.71875 M -21.054688 1437.34375 L 21.054688 1442.734375 M -20.9375 1521.289062 L 20.9375 1528.710938 M -20.742188 1605.3125 L 20.742188 1614.6875 M 92.929688 7.578125 L 127.5 -17.109375 M 92.5 91.953125 L 127.929688 68.476562 M 92.109375 176.328125 L 128.320312 154.101562 M 91.71875 260.625 L 128.710938 239.726562 M 91.328125 344.921875 L 129.101562 325.429688 M 90.9375 429.140625 L 129.492188 411.210938 M 90.585938 513.320312 L 129.84375 496.992188 M 90.273438 597.460938 L 130.15625 582.8125 M 89.960938 681.5625 L 130.46875 668.710938 M 89.6875 765.625 L 130.742188 754.609375 M 89.453125 849.648438 L 130.976562 840.585938 M 89.257812 933.632812 L 131.171875 926.5625 M 89.101562 1017.617188 L 131.328125 1012.578125 M 89.023438 1101.5625 L 131.40625 1098.59375 M 88.984375 1185.507812 L 131.445312 1184.648438 M 88.984375 1269.414062 L 131.445312 1270.664062 M 89.023438 1353.398438 L 131.40625 1356.71875 M 89.140625 1437.34375 L 131.289062 1442.734375 M 89.296875 1521.289062 L 131.132812 1528.710938 M 89.492188 1605.3125 L 130.9375 1614.6875 M 203.125 7.578125 L 237.734375 -17.109375 M 202.734375 91.953125 L 238.125 68.476562 M 202.304688 176.328125 L 238.515625 154.101562 M 201.914062 260.625 L 238.945312 239.726562 M 201.523438 344.921875 L 239.296875 325.429688 M 201.171875 429.140625 L 239.6875 411.210938 M 200.820312 513.320312 L 240.039062 496.992188 M 200.46875 597.460938 L 240.351562 582.8125 M 200.15625 681.5625 L 240.664062 668.710938 M 199.882812 765.625 L 240.9375 754.609375 M 199.6875 849.648438 L 241.171875 840.585938 M 199.492188 933.632812 L 241.367188 926.5625 M 199.335938 1017.617188 L 241.523438 1012.578125 M 199.21875 1101.5625 L 241.601562 1098.59375 M 199.179688 1185.507812 L 241.679688 1184.648438 M 199.179688 1269.414062 L 241.679688 1270.664062 M 199.257812 1353.398438 L 241.601562 1356.71875 M 199.335938 1437.34375 L 241.484375 1442.734375 M 199.492188 1521.289062 L 241.367188 1528.710938 M 199.6875 1605.3125 L 241.132812 1614.6875 M 313.359375 7.578125 L 347.929688 -17.109375 M 312.929688 91.953125 L 348.359375 68.476562 M 312.539062 176.328125 L 348.75 154.101562 M 312.148438 260.625 L 349.140625 239.726562 M 311.757812 344.921875 L 349.53125 325.429688 M 311.367188 429.140625 L 349.882812 411.210938 M 311.015625 513.320312 L 350.273438 496.992188 M 310.703125 597.460938 L 350.585938 582.8125 M 310.390625 681.5625 L 350.898438 668.710938 M 310.117188 765.625 L 351.171875 754.609375 M 309.882812 849.648438 L 351.40625 840.585938 M 309.6875 933.632812 L 351.601562 926.5625 M 309.53125 1017.617188 L 351.71875 1012.578125 M 309.453125 1101.5625 L 351.835938 1098.59375 M 309.414062 1185.507812 L 351.875 1184.648438 M 309.414062 1269.414062 L 351.875 1270.664062 M 309.453125 1353.398438 L 351.835938 1356.71875 M 309.570312 1437.34375 L 351.71875 1442.734375 M 309.726562 1521.289062 L 351.5625 1528.710938 M 309.921875 1605.3125 L 351.367188 1614.6875 M 423.554688 7.578125 L 458.164062 -17.109375 M 423.164062 91.953125 L 458.554688 68.476562 M 422.734375 176.328125 L 458.945312 154.101562 M 422.34375 260.625 L 459.335938 239.726562 M 421.953125 344.921875 L 459.726562 325.429688 M 421.601562 429.140625 L 460.117188 411.210938 M 421.25 513.320312 L 460.46875 496.992188 M 420.898438 597.460938 L 460.78125 582.8125 M 420.585938 681.5625 L 461.09375 668.710938 M 420.3125 765.625 L 461.367188 754.609375 M 420.078125 849.648438 L 461.601562 840.585938 M 419.882812 933.632812 L 461.796875 926.5625 M 419.765625 1017.617188 L 461.953125 1012.578125 M 419.648438 1101.5625 L 462.03125 1098.59375 M 419.609375 1185.507812 L 462.109375 1184.648438 M 419.609375 1269.414062 L 462.109375 1270.664062 M 419.6875 1353.398438 L 462.03125 1356.71875 M 419.765625 1437.34375 L 461.914062 1442.734375 M 419.921875 1521.289062 L 461.757812 1528.710938 M 420.117188 1605.3125 L 461.5625 1614.6875 M 533.75 7.578125 L 568.359375 -17.109375 M 533.359375 91.953125 L 568.75 68.476562 M 532.96875 176.328125 L 569.179688 154.101562 M 532.578125 260.625 L 569.570312 239.726562 M 532.1875 344.921875 L 569.960938 325.429688 M 531.796875 429.140625 L 570.3125 411.210938 M 531.445312 513.320312 L 570.664062 496.992188 M 531.132812 597.460938 L 571.015625 582.8125 M 530.820312 681.5625 L 571.328125 668.710938 M 530.546875 765.625 L 571.601562 754.609375 M 530.3125 849.648438 L 571.835938 840.585938 M 530.117188 933.632812 L 572.03125 926.5625 M 529.960938 1017.617188 L 572.148438 1012.578125 M 529.882812 1101.5625 L 572.265625 1098.59375 M 529.804688 1185.507812 L 572.304688 1184.648438 M 529.804688 1269.414062 L 572.304688 1270.664062 M 529.882812 1353.398438 L 572.226562 1356.71875 M 530 1437.34375 L 572.148438 1442.734375 M 530.15625 1521.289062 L 571.992188 1528.710938 M 530.351562 1605.3125 L 571.796875 1614.6875 M 643.984375 7.578125 L 678.554688 -17.109375 M 643.554688 91.953125 L 678.984375 68.476562 M 643.164062 176.328125 L 679.375 154.101562 M 642.773438 260.625 L 679.765625 239.726562 M 642.382812 344.921875 L 680.15625 325.429688 M 642.03125 429.140625 L 680.546875 411.210938 M 641.640625 513.320312 L 680.898438 496.992188 M 641.328125 597.460938 L 681.210938 582.8125 M 641.015625 681.5625 L 681.523438 668.710938 M 640.742188 765.625 L 681.796875 754.609375 M 640.507812 849.648438 L 682.03125 840.585938 M 640.3125 933.632812 L 682.226562 926.5625 M 640.195312 1017.617188 L 682.382812 1012.578125 M 640.078125 1101.5625 L 682.460938 1098.59375 M 640.039062 1185.507812 L 682.539062 1184.648438 M 640.039062 1269.414062 L 682.5 1270.664062 M 640.078125 1353.398438 L 682.460938 1356.71875 M 640.195312 1437.34375 L 682.34375 1442.734375 M 640.351562 1521.289062 L 682.1875 1528.710938 M 640.546875 1605.3125 L 681.992188 1614.6875 M 754.179688 7.578125 L 788.789062 -17.109375 M 753.789062 91.953125 L 789.179688 68.476562 M 753.398438 176.328125 L 789.609375 154.101562 M 752.96875 260.625 L 790 239.726562 M 752.617188 344.921875 L 790.390625 325.429688 M 752.226562 429.140625 L 790.742188 411.210938 M 751.875 513.320312 L 791.09375 496.992188 M 751.523438 597.460938 L 791.445312 582.8125 M 751.25 681.5625 L 791.71875 668.710938 M 750.976562 765.625 L 792.03125 754.609375 M 750.742188 849.648438 L 792.226562 840.585938 M 750.546875 933.632812 L 792.421875 926.5625 M 750.390625 1017.617188 L 792.578125 1012.578125 M 750.3125 1101.5625 L 792.695312 1098.59375 M 750.234375 1185.507812 L 792.734375 1184.648438 M 750.234375 1269.414062 L 792.734375 1270.664062 M 750.3125 1353.398438 L 792.65625 1356.71875 M 750.429688 1437.34375 L 792.578125 1442.734375 M 750.546875 1521.289062 L 792.421875 1528.710938 M 750.78125 1605.3125 L 792.1875 1614.6875 M 864.414062 7.578125 L 898.984375 -17.109375 M 863.984375 91.953125 L 899.414062 68.476562 M 863.59375 176.328125 L 899.804688 154.101562 M 863.203125 260.625 L 900.195312 239.726562 M 862.8125 344.921875 L 900.585938 325.429688 M 862.421875 429.140625 L 900.976562 411.210938 M 862.070312 513.320312 L 901.328125 496.992188 M 861.757812 597.460938 L 901.640625 582.8125 M 861.445312 681.5625 L 901.953125 668.710938 M 861.171875 765.625 L 902.226562 754.609375 M 860.9375 849.648438 L 902.460938 840.585938 M 860.742188 933.632812 L 902.65625 926.5625 M 860.585938 1017.617188 L 902.8125 1012.578125 M 860.507812 1101.5625 L 902.890625 1098.59375 M 860.46875 1185.507812 L 902.929688 1184.648438 M 860.46875 1269.414062 L 902.929688 1270.664062 M 860.507812 1353.398438 L 902.890625 1356.71875 M 860.625 1437.34375 L 902.773438 1442.734375 M 860.78125 1521.289062 L 902.617188 1528.710938 M 860.976562 1605.3125 L 902.421875 1614.6875 M 974.609375 7.578125 L 1009.21875 -17.109375 M 974.21875 91.953125 L 1009.609375 68.476562 M 973.828125 176.328125 L 1010.039062 154.101562 M 973.398438 260.625 L 1010.390625 239.726562 M 973.007812 344.921875 L 1010.78125 325.429688 M 972.65625 429.140625 L 1011.171875 411.210938 M 972.304688 513.320312 L 1011.523438 496.992188 M 971.953125 597.460938 L 1011.875 582.8125 M 971.640625 681.5625 L 1012.148438 668.710938 M 971.40625 765.625 L 1012.421875 754.609375 M 971.171875 849.648438 L 1012.65625 840.585938 M 970.976562 933.632812 L 1012.851562 926.5625 M 970.820312 1017.617188 L 1013.007812 1012.578125 M 970.703125 1101.5625 L 1013.125 1098.59375 M 970.664062 1185.507812 L 1013.164062 1184.648438 M 970.664062 1269.414062 L 1013.164062 1270.664062 M 970.742188 1353.398438 L 1013.085938 1356.71875 M 970.820312 1437.34375 L 1013.007812 1442.734375 M 970.976562 1521.289062 L 1012.8125 1528.710938 M 971.171875 1605.3125 L 1012.617188 1614.6875 M 1084.84375 7.578125 L 1119.414062 -17.109375 M 1084.414062 91.953125 L 1119.84375 68.476562 M 1084.023438 176.328125 L 1120.234375 154.101562 M 1083.632812 260.625 L 1120.625 239.726562 M 1083.242188 344.921875 L 1121.015625 325.429688 M 1082.851562 429.140625 L 1121.40625 411.210938 M 1082.5 513.320312 L 1121.757812 496.992188 M 1082.1875 597.460938 L 1122.070312 582.8125 M 1081.875 681.5625 L 1122.382812 668.710938 M 1081.601562 765.625 L 1122.65625 754.609375 M 1081.367188 849.648438 L 1122.890625 840.585938 M 1081.171875 933.632812 L 1123.085938 926.5625 M 1081.015625 1017.617188 L 1123.203125 1012.578125 M 1080.9375 1101.5625 L 1123.320312 1098.59375 M 1080.898438 1185.507812 L 1123.359375 1184.648438 M 1080.898438 1269.414062 L 1123.359375 1270.664062 M 1080.9375 1353.398438 L 1123.320312 1356.71875 M 1081.054688 1437.34375 L 1123.203125 1442.734375 M 1081.210938 1521.289062 L 1123.046875 1528.710938 M 1081.40625 1605.3125 L 1122.851562 1614.6875 M 1195.039062 7.578125 L 1229.648438 -17.109375 M 1194.648438 91.953125 L 1230.039062 68.476562 M 1194.21875 176.328125 L 1230.429688 154.101562 M 1193.828125 260.625 L 1230.859375 239.726562 M 1193.4375 344.921875 L 1231.210938 325.429688 M 1193.085938 429.140625 L 1231.601562 411.210938 M 1192.734375 513.320312 L 1231.953125 496.992188 M 1192.382812 597.460938 L 1232.304688 582.8125 M 1192.109375 681.5625 L 1232.578125 668.710938 M 1191.835938 765.625 L 1232.851562 754.609375 M 1191.5625 849.648438 L 1233.085938 840.585938 M 1191.40625 933.632812 L 1233.28125 926.5625 M 1191.25 1017.617188 L 1233.4375 1012.578125 M 1191.132812 1101.5625 L 1233.554688 1098.59375 M 1191.09375 1185.507812 L 1233.59375 1184.648438 M 1191.09375 1269.414062 L 1233.59375 1270.664062 M 1191.171875 1353.398438 L 1233.515625 1356.71875 M 1191.25 1437.34375 L 1233.398438 1442.734375 M 1191.40625 1521.289062 L 1233.242188 1528.710938 M 1191.601562 1605.3125 L 1233.046875 1614.6875 M 1305.234375 7.578125 L 1339.84375 -17.109375 M 1304.84375 91.953125 L 1340.234375 68.476562 M 1304.453125 176.328125 L 1340.664062 154.101562 M 1304.0625 260.625 L 1341.054688 239.726562 M 1303.671875 344.921875 L 1341.445312 325.429688 M 1303.28125 429.140625 L 1341.796875 411.210938 M 1302.929688 513.320312 L 1342.148438 496.992188 M 1302.617188 597.460938 L 1342.5 582.8125 M 1302.304688 681.5625 L 1342.8125 668.710938 M 1302.03125 765.625 L 1343.085938 754.609375 M 1301.796875 849.648438 L 1343.320312 840.585938 M 1301.601562 933.632812 L 1343.515625 926.5625 M 1301.445312 1017.617188 L 1343.632812 1012.578125 M 1301.367188 1101.5625 L 1343.75 1098.59375 M 1301.328125 1185.507812 L 1343.789062 1184.648438 M 1301.328125 1269.414062 L 1343.789062 1270.664062 M 1301.367188 1353.398438 L 1343.710938 1356.71875 M 1301.484375 1437.34375 L 1343.632812 1442.734375 M 1301.640625 1521.289062 L 1343.476562 1528.710938 M 1301.835938 1605.3125 L 1343.28125 1614.6875 M 1415.46875 7.578125 L 1450.078125 -17.109375 M 1415.078125 91.953125 L 1450.46875 68.476562 M 1414.648438 176.328125 L 1450.859375 154.101562 M 1414.257812 260.625 L 1451.289062 239.726562 M 1413.867188 344.921875 L 1451.640625 325.429688 M 1413.515625 429.140625 L 1452.03125 411.210938 M 1413.164062 513.320312 L 1452.382812 496.992188 M 1412.8125 597.460938 L 1452.695312 582.8125 M 1412.5 681.5625 L 1453.007812 668.710938 M 1412.226562 765.625 L 1453.28125 754.609375 M 1411.992188 849.648438 L 1453.515625 840.585938 M 1411.796875 933.632812 L 1453.710938 926.5625 M 1411.679688 1017.617188 L 1453.867188 1012.578125 M 1411.5625 1101.5625 L 1453.945312 1098.59375 M 1411.523438 1185.507812 L 1454.023438 1184.648438 M 1411.523438 1269.414062 L 1453.984375 1270.664062 M 1411.5625 1353.398438 L 1453.945312 1356.71875 M 1411.679688 1437.34375 L 1453.828125 1442.734375 M 1411.835938 1521.289062 L 1453.671875 1528.710938 M 1412.03125 1605.3125 L 1453.476562 1614.6875 M 1525.664062 7.578125 L 1560.273438 -17.109375 M 1525.273438 91.953125 L 1560.664062 68.476562 M 1524.882812 176.328125 L 1561.09375 154.101562 M 1524.492188 260.625 L 1561.484375 239.726562 M 1524.101562 344.921875 L 1561.875 325.429688 M 1523.710938 429.140625 L 1562.226562 411.210938 M 1523.359375 513.320312 L 1562.578125 496.992188 M 1523.046875 597.460938 L 1562.929688 582.8125 M 1522.734375 681.5625 L 1563.242188 668.710938 M 1522.460938 765.625 L 1563.515625 754.609375 M 1522.226562 849.648438 L 1563.710938 840.585938 M 1522.03125 933.632812 L 1563.945312 926.5625 M 1521.875 1017.617188 L 1564.0625 1012.578125 M 1521.796875 1101.5625 L 1564.179688 1098.59375 M 1521.71875 1185.507812 L 1564.21875 1184.648438 M 1521.757812 1269.414062 L 1564.21875 1270.664062 M 1521.796875 1353.398438 L 1564.140625 1356.71875 M 1521.914062 1437.34375 L 1564.0625 1442.734375 M 1522.03125 1521.289062 L 1563.90625 1528.710938 M 1522.265625 1605.3125 L 1563.710938 1614.6875 M 1635.898438 7.578125 L 1670.507812 -17.109375 M 1635.46875 91.953125 L 1670.898438 68.476562 M 1635.078125 176.328125 L 1671.289062 154.101562 M 1634.6875 260.625 L 1671.679688 239.726562 M 1634.296875 344.921875 L 1672.070312 325.429688 M 1633.945312 429.140625 L 1672.460938 411.210938 M 1633.554688 513.320312 L 1672.8125 496.992188 M 1633.242188 597.460938 L 1673.125 582.8125 M 1632.929688 681.5625 L 1673.4375 668.710938 M 1632.65625 765.625 L 1673.710938 754.609375 M 1632.421875 849.648438 L 1673.945312 840.585938 M 1632.226562 933.632812 L 1674.140625 926.5625 M 1632.109375 1017.617188 L 1674.296875 1012.578125 M 1631.992188 1101.5625 L 1674.375 1098.59375 M 1631.953125 1185.507812 L 1674.414062 1184.648438 M 1631.953125 1269.414062 L 1674.414062 1270.664062 M 1631.992188 1353.398438 L 1674.375 1356.71875 M 1632.109375 1437.34375 L 1674.257812 1442.734375 M 1632.265625 1521.289062 L 1674.101562 1528.710938 M 1632.460938 1605.3125 L 1673.90625 1614.6875 M 1746.09375 7.578125 L 1780.703125 -17.109375 M 1745.703125 91.953125 L 1781.09375 68.476562 M 1745.3125 176.328125 L 1781.523438 154.101562 M 1744.882812 260.625 L 1781.914062 239.726562 M 1744.53125 344.921875 L 1782.304688 325.429688 M 1744.140625 429.140625 L 1782.65625 411.210938 M 1743.789062 513.320312 L 1783.007812 496.992188 M 1743.4375 597.460938 L 1783.359375 582.8125 M 1743.164062 681.5625 L 1783.632812 668.710938 M 1742.890625 765.625 L 1783.945312 754.609375 M 1742.65625 849.648438 L 1784.140625 840.585938 M 1742.460938 933.632812 L 1784.335938 926.5625 M 1742.304688 1017.617188 L 1784.492188 1012.578125 M 1742.226562 1101.5625 L 1784.609375 1098.59375 M 1742.148438 1185.507812 L 1784.648438 1184.648438 M 1742.148438 1269.414062 L 1784.648438 1270.664062 M 1742.226562 1353.398438 L 1784.570312 1356.71875 M 1742.304688 1437.34375 L 1784.492188 1442.734375 M 1742.460938 1521.289062 L 1784.335938 1528.710938 M 1742.695312 1605.3125 L 1784.101562 1614.6875 M 1856.328125 7.578125 L 1890.898438 -17.109375 M 1855.898438 91.953125 L 1891.328125 68.476562 M 1855.507812 176.328125 L 1891.71875 154.101562 M 1855.117188 260.625 L 1892.109375 239.726562 M 1854.726562 344.921875 L 1892.5 325.429688 M 1854.375 429.140625 L 1892.890625 411.210938 M 1853.984375 513.320312 L 1893.242188 496.992188 M 1853.671875 597.460938 L 1893.554688 582.8125 M 1853.359375 681.5625 L 1893.867188 668.710938 M 1853.085938 765.625 L 1894.140625 754.609375 M 1852.851562 849.648438 L 1894.375 840.585938 M 1852.65625 933.632812 L 1894.570312 926.5625 M 1852.539062 1017.617188 L 1894.726562 1012.578125 M 1852.421875 1101.5625 L 1894.804688 1098.59375 M 1852.382812 1185.507812 L 1894.84375 1184.648438 M 1852.382812 1269.414062 L 1894.84375 1270.664062 M 1852.421875 1353.398438 L 1894.804688 1356.71875 M 1852.539062 1437.34375 L 1894.6875 1442.734375 M 1852.695312 1521.289062 L 1894.53125 1528.710938 M 1852.890625 1605.3125 L 1894.335938 1614.6875 M 1966.523438 7.578125 L 2001.132812 -17.109375 M 1966.132812 91.953125 L 2001.523438 68.476562 M 1965.703125 176.328125 L 2001.914062 154.101562 M 1965.3125 260.625 L 2002.34375 239.726562 M 1964.921875 344.921875 L 2002.695312 325.429688 M 1964.570312 429.140625 L 2003.085938 411.210938 M 1964.21875 513.320312 L 2003.4375 496.992188 M 1963.867188 597.460938 L 2003.789062 582.8125 M 1963.554688 681.5625 L 2004.0625 668.710938 M 1963.28125 765.625 L 2004.335938 754.609375 M 1963.085938 849.648438 L 2004.570312 840.585938 M 1962.890625 933.632812 L 2004.765625 926.5625 M 1962.734375 1017.617188 L 2004.921875 1012.578125 M 1962.617188 1101.5625 L 2005.039062 1098.59375 M 1962.578125 1185.507812 L 2005.078125 1184.648438 M 1962.578125 1269.414062 L 2005.078125 1270.664062 M 1962.65625 1353.398438 L 2005 1356.71875 M 1962.734375 1437.34375 L 2004.882812 1442.734375 M 1962.890625 1521.289062 L 2004.765625 1528.710938 M 1963.125 1605.3125 L 2004.53125 1614.6875 M 2076.757812 7.578125 L 2111.328125 -17.109375 M 2076.328125 91.953125 L 2111.757812 68.476562 M 2075.9375 176.328125 L 2112.148438 154.101562 M 2075.546875 260.625 L 2112.539062 239.726562 M 2075.15625 344.921875 L 2112.929688 325.429688 M 2074.765625 429.140625 L 2113.28125 411.210938 M 2074.414062 513.320312 L 2113.632812 496.992188 M 2074.101562 597.460938 L 2113.984375 582.8125 M 2073.789062 681.5625 L 2114.296875 668.710938 M 2073.515625 765.625 L 2114.570312 754.609375 M 2073.28125 849.648438 L 2114.804688 840.585938 M 2073.085938 933.632812 L 2115 926.5625 M 2072.929688 1017.617188 L 2115.15625 1012.578125 M 2072.851562 1101.5625 L 2115.234375 1098.59375 M 2072.8125 1185.507812 L 2115.273438 1184.648438 M 2072.8125 1269.414062 L 2115.273438 1270.664062 M 2072.851562 1353.398438 L 2115.234375 1356.71875 M 2072.96875 1437.34375 L 2115.117188 1442.734375 M 2073.125 1521.289062 L 2114.960938 1528.710938 M 2073.320312 1605.3125 L 2114.765625 1614.6875 " transform="matrix(0.1,0,0,-0.1,0,161)"/>
</g>
</svg>
