<?xml version="1.0" encoding="UTF-8"?>
<svg xmlns="http://www.w3.org/2000/svg" xmlns:xlink="http://www.w3.org/1999/xlink" width="150pt" height="131pt" viewBox="0 0 150 131" version="1.1">
<g id="surface1">
<path style="fill:none;stroke-width:10;stroke-linecap:butt;stroke-linejoin:miter;stroke:rgb(0%,0%,0%);stroke-opacity:1;stroke-miterlimit:10;" d="M 50 50 L 1450 50 L 750 1260 Z M 50 50 " transform="matrix(0.1,0,0,-0.1,0,131)"/>
<path style="fill:none;stroke-width:10;stroke-linecap:butt;stroke-linejoin:miter;stroke:rgb(0%,0%,0%);stroke-opacity:1;stroke-miterlimit:10;" d="M 50 50 L 1450 50 " transform="matrix(0.1,0,0,-0.1,0,131)"/>
<path style=" stroke:none;fill-rule:nonzero;fill:rgb(0%,0%,0%);fill-opacity:1;" d="M 7.5 126 C 7.5 124.617188 6.382812 123.5 5 123.5 C 3.617188 123.5 2.5 124.617188 2.5 126 C 2.5 127.382812 3.617188 128.5 5 128.5 C 6.382812 128.5 7.5 127.382812 7.5 126 "/>
<path style=" stroke:none;fill-rule:nonzero;fill:rgb(0%,0%,0%);fill-opacity:1;" d="M 42.5 126 C 42.5 124.617188 41.382812 123.5 40 123.5 C 38.617188 123.5 37.5 124.617188 37.5 126 C 37.5 127.382812 38.617188 128.5 40 128.5 C 41.382812 128.5 42.5 127.382812 42.5 126 "/>
<path style=" stroke:none;fill-rule:nonzero;fill:rgb(0%,0%,0%);fill-opacity:1;" d="M 77.5 126 C 77.5 124.617188 76.382812 123.5 75 123.5 C 73.617188 123.5 72.5 124.617188 72.5 126 C 72.5 127.382812 73.617188 128.5 75 128.5 C 76.382812 128.5 77.5 127.382812 77.5 126 "/>
<path style=" stroke:none;fill-rule:nonzero;fill:rgb(0%,0%,0%);fill-opacity:1;" d="M 112.5 126 C 112.5 124.617188 111.382812 123.5 110 123.5 C 108.617188 123.5 107.5 124.617188 107.5 126 C 107.5 127.382812 108.617188 128.5 110 128.5 C 111.382812 128.5 112.5 127.382812 112.5 126 "/>
<path style=" stroke:none;fill-rule:nonzero;fill:rgb(0%,0%,0%);fill-opacity:1;" d="M 147.5 126 C 147.5 124.617188 146.382812 123.5 145 123.5 C 143.617188 123.5 142.5 124.617188 142.5 126 C 142.5 127.382812 143.617188 128.5 145 128.5 C 146.382812 128.5 147.5 127.382812 147.5 126 "/>
<path style="fill:none;stroke-width:10;stroke-linecap:butt;stroke-linejoin:miter;stroke:rgb(0%,0%,0%);stroke-opacity:1;stroke-miterlimit:10;" d="M 225 352.5 L 1275 352.5 " transform="matrix(0.1,0,0,-0.1,0,131)"/>
<path style=" stroke:none;fill-rule:nonzero;fill:rgb(0%,0%,0%);fill-opacity:1;" d="M 25 95.75 C 25 94.367188 23.882812 93.25 22.5 93.25 C 21.117188 93.25 20 94.367188 20 95.75 C 20 97.132812 21.117188 98.25 22.5 98.25 C 23.882812 98.25 25 97.132812 25 95.75 "/>
<path style=" stroke:none;fill-rule:nonzero;fill:rgb(0%,0%,0%);fill-opacity:1;" d="M 60 95.75 C 60 94.367188 58.882812 93.25 57.5 93.25 C 56.117188 93.25 55 94.367188 55 95.75 C 55 97.132812 56.117188 98.25 57.5 98.25 C 58.882812 98.25 60 97.132812 60 95.75 "/>
<path style=" stroke:none;fill-rule:nonzero;fill:rgb(0%,0%,0%);fill-opacity:1;" d="M 95 95.75 C 95 94.367188 93.882812 93.25 92.5 93.25 C 91.117188 93.25 90 94.367188 90 95.75 C 90 97.132812 91.117188 98.25 92.5 98.25 C 93.882812 98.25 95 97.132812 95 95.75 "/>
<path style=" stroke:none;fill-rule:nonzero;fill:rgb(0%,0%,0%);fill-opacity:1;" d="M 130 95.75 C 130 94.367188 128.882812 93.25 127.5 93.25 C 126.117188 93.25 125 94.367188 125 95.75 C 125 97.132812 126.117188 98.25 127.5 98.25 C 128.882812 98.25 130 97.132812 130 95.75 "/>
<path style="fill:none;stroke-width:10;stroke-linecap:butt;stroke-linejoin:miter;stroke:rgb(0%,0%,0%);stroke-opacity:1;stroke-miterlimit:10;" d="M 400 655 L 1100 655 " transform="matrix(0.1,0,0,-0.1,0,131)"/>
<path style=" stroke:none;fill-rule:nonzero;fill:rgb(0%,0%,0%);fill-opacity:1;" d="M 42.5 65.5 C 42.5 64.117188 41.382812 63 40 63 C 38.617188 63 37.5 64.117188 37.5 65.5 C 37.5 66.882812 38.617188 68 40 68 C 41.382812 68 42.5 66.882812 42.5 65.5 "/>
<path style=" stroke:none;fill-rule:nonzero;fill:rgb(0%,0%,0%);fill-opacity:1;" d="M 77.5 65.5 C 77.5 64.117188 76.382812 63 75 63 C 73.617188 63 72.5 64.117188 72.5 65.5 C 72.5 66.882812 73.617188 68 75 68 C 76.382812 68 77.5 66.882812 77.5 65.5 "/>
<path style=" stroke:none;fill-rule:nonzero;fill:rgb(0%,0%,0%);fill-opacity:1;" d="M 112.5 65.5 C 112.5 64.117188 111.382812 63 110 63 C 108.617188 63 107.5 64.117188 107.5 65.5 C 107.5 66.882812 108.617188 68 110 68 C 111.382812 68 112.5 66.882812 112.5 65.5 "/>
<path style="fill:none;stroke-width:10;stroke-linecap:butt;stroke-linejoin:miter;stroke:rgb(0%,0%,0%);stroke-opacity:1;stroke-miterlimit:10;" d="M 575 957.5 L 925 957.5 " transform="matrix(0.1,0,0,-0.1,0,131)"/>
<path style=" stroke:none;fill-rule:nonzero;fill:rgb(0%,0%,0%);fill-opacity:1;" d="M 60 35.25 C 60 33.867188 58.882812 32.75 57.5 32.75 C 56.117188 32.75 55 33.867188 55 35.25 C 55 36.632812 56.117188 37.75 57.5 37.75 C 58.882812 37.75 60 36.632812 60 35.25 "/>
<path style=" stroke:none;fill-rule:nonzero;fill:rgb(0%,0%,0%);fill-opacity:1;" d="M 95 35.25 C 95 33.867188 93.882812 32.75 92.5 32.75 C 91.117188 32.75 90 33.867188 90 35.25 C 90 36.632812 91.117188 37.75 92.5 37.75 C 93.882812 37.75 95 36.632812 95 35.25 "/>
<path style="fill:none;stroke-width:10;stroke-linecap:butt;stroke-linejoin:miter;stroke:rgb(0%,0%,0%);stroke-opacity:1;stroke-miterlimit:10;" d="M 750 1260 L 750 1260 " transform="matrix(0.1,0,0,-0.1,0,131)"/>
<path style=" stroke:none;fill-rule:nonzero;fill:rgb(0%,0%,0%);fill-opacity:1;" d="M 77.5 5 C 77.5 3.617188 76.382812 2.5 75 2.5 C 73.617188 2.5 72.5 3.617188 72.5 5 C 72.5 6.382812 73.617188 7.5 75 7.5 C 76.382812 7.5 77.5 6.382812 77.5 5 "/>
</g>
</svg>
