<?xml version="1.0" encoding="UTF-8"?>
<svg xmlns="http://www.w3.org/2000/svg" xmlns:xlink="http://www.w3.org/1999/xlink" width="314pt" height="148pt" viewBox="0 0 314 148" version="1.1">
<g id="surface1">
<rect x="0" y="0" width="314" height="148" style="fill:rgb(100%,100%,100%);fill-opacity:1;stroke:none;"/>
<path style="fill:none;stroke-width:10;stroke-linecap:round;stroke-linejoin:round;stroke:rgb(75.389099%,75.389099%,75.389099%);stroke-opacity:1;stroke-miterlimit:10;" d="M 724.0625 2370.78125 L 724.0625 -1081.914062 " transform="matrix(0.1,0,0,-0.1,0,148)"/>
<path style="fill:none;stroke-width:10;stroke-linecap:round;stroke-linejoin:round;stroke:rgb(75.389099%,75.389099%,75.389099%);stroke-opacity:1;stroke-miterlimit:10;" d="M 1291.015625 2370.78125 L 1291.015625 -1081.914062 " transform="matrix(0.1,0,0,-0.1,0,148)"/>
<path style="fill:none;stroke-width:10;stroke-linecap:round;stroke-linejoin:round;stroke:rgb(75.389099%,75.389099%,75.389099%);stroke-opacity:1;stroke-miterlimit:10;" d="M 1857.929688 2370.78125 L 1857.929688 -1081.914062 " transform="matrix(0.1,0,0,-0.1,0,148)"/>
<path style="fill:none;stroke-width:10;stroke-linecap:round;stroke-linejoin:round;stroke:rgb(75.389099%,75.389099%,75.389099%);stroke-opacity:1;stroke-miterlimit:10;" d="M 2424.84375 2370.78125 L 2424.84375 -1081.914062 " transform="matrix(0.1,0,0,-0.1,0,148)"/>
<path style="fill:none;stroke-width:10;stroke-linecap:round;stroke-linejoin:round;stroke:rgb(75.389099%,75.389099%,75.389099%);stroke-opacity:1;stroke-miterlimit:10;" d="M 2991.796875 2370.78125 L 2991.796875 -1081.914062 " transform="matrix(0.1,0,0,-0.1,0,148)"/>
<path style="fill:none;stroke-width:10;stroke-linecap:round;stroke-linejoin:round;stroke:rgb(94.139099%,94.139099%,94.139099%);stroke-opacity:1;stroke-miterlimit:10;" d="M 43.75 2370.78125 L 43.75 -1081.914062 " transform="matrix(0.1,0,0,-0.1,0,148)"/>
<path style="fill:none;stroke-width:10;stroke-linecap:round;stroke-linejoin:round;stroke:rgb(94.139099%,94.139099%,94.139099%);stroke-opacity:1;stroke-miterlimit:10;" d="M 270.507812 2370.78125 L 270.507812 -1081.914062 " transform="matrix(0.1,0,0,-0.1,0,148)"/>
<path style="fill:none;stroke-width:10;stroke-linecap:round;stroke-linejoin:round;stroke:rgb(94.139099%,94.139099%,94.139099%);stroke-opacity:1;stroke-miterlimit:10;" d="M 383.90625 2370.78125 L 383.90625 -1081.914062 " transform="matrix(0.1,0,0,-0.1,0,148)"/>
<path style="fill:none;stroke-width:10;stroke-linecap:round;stroke-linejoin:round;stroke:rgb(94.139099%,94.139099%,94.139099%);stroke-opacity:1;stroke-miterlimit:10;" d="M 497.304688 2370.78125 L 497.304688 -1081.914062 " transform="matrix(0.1,0,0,-0.1,0,148)"/>
<path style="fill:none;stroke-width:10;stroke-linecap:round;stroke-linejoin:round;stroke:rgb(94.139099%,94.139099%,94.139099%);stroke-opacity:1;stroke-miterlimit:10;" d="M 610.703125 2370.78125 L 610.703125 -1081.914062 " transform="matrix(0.1,0,0,-0.1,0,148)"/>
<path style="fill:none;stroke-width:10;stroke-linecap:round;stroke-linejoin:round;stroke:rgb(94.139099%,94.139099%,94.139099%);stroke-opacity:1;stroke-miterlimit:10;" d="M 837.460938 2370.78125 L 837.460938 -1081.914062 " transform="matrix(0.1,0,0,-0.1,0,148)"/>
<path style="fill:none;stroke-width:10;stroke-linecap:round;stroke-linejoin:round;stroke:rgb(94.139099%,94.139099%,94.139099%);stroke-opacity:1;stroke-miterlimit:10;" d="M 950.859375 2370.78125 L 950.859375 -1081.914062 " transform="matrix(0.1,0,0,-0.1,0,148)"/>
<path style="fill:none;stroke-width:10;stroke-linecap:round;stroke-linejoin:round;stroke:rgb(94.139099%,94.139099%,94.139099%);stroke-opacity:1;stroke-miterlimit:10;" d="M 1064.21875 2370.78125 L 1064.21875 -1081.914062 " transform="matrix(0.1,0,0,-0.1,0,148)"/>
<path style="fill:none;stroke-width:10;stroke-linecap:round;stroke-linejoin:round;stroke:rgb(94.139099%,94.139099%,94.139099%);stroke-opacity:1;stroke-miterlimit:10;" d="M 1177.617188 2370.78125 L 1177.617188 -1081.914062 " transform="matrix(0.1,0,0,-0.1,0,148)"/>
<path style="fill:none;stroke-width:10;stroke-linecap:round;stroke-linejoin:round;stroke:rgb(94.139099%,94.139099%,94.139099%);stroke-opacity:1;stroke-miterlimit:10;" d="M 1404.375 2370.78125 L 1404.375 -1081.914062 " transform="matrix(0.1,0,0,-0.1,0,148)"/>
<path style="fill:none;stroke-width:10;stroke-linecap:round;stroke-linejoin:round;stroke:rgb(94.139099%,94.139099%,94.139099%);stroke-opacity:1;stroke-miterlimit:10;" d="M 1517.773438 2370.78125 L 1517.773438 -1081.914062 " transform="matrix(0.1,0,0,-0.1,0,148)"/>
<path style="fill:none;stroke-width:10;stroke-linecap:round;stroke-linejoin:round;stroke:rgb(94.139099%,94.139099%,94.139099%);stroke-opacity:1;stroke-miterlimit:10;" d="M 1631.171875 2370.78125 L 1631.171875 -1081.914062 " transform="matrix(0.1,0,0,-0.1,0,148)"/>
<path style="fill:none;stroke-width:10;stroke-linecap:round;stroke-linejoin:round;stroke:rgb(94.139099%,94.139099%,94.139099%);stroke-opacity:1;stroke-miterlimit:10;" d="M 1744.53125 2370.78125 L 1744.53125 -1081.914062 " transform="matrix(0.1,0,0,-0.1,0,148)"/>
<path style="fill:none;stroke-width:10;stroke-linecap:round;stroke-linejoin:round;stroke:rgb(94.139099%,94.139099%,94.139099%);stroke-opacity:1;stroke-miterlimit:10;" d="M 1971.328125 2370.78125 L 1971.328125 -1081.914062 " transform="matrix(0.1,0,0,-0.1,0,148)"/>
<path style="fill:none;stroke-width:10;stroke-linecap:round;stroke-linejoin:round;stroke:rgb(94.139099%,94.139099%,94.139099%);stroke-opacity:1;stroke-miterlimit:10;" d="M 2084.6875 2370.78125 L 2084.6875 -1081.914062 " transform="matrix(0.1,0,0,-0.1,0,148)"/>
<path style="fill:none;stroke-width:10;stroke-linecap:round;stroke-linejoin:round;stroke:rgb(94.139099%,94.139099%,94.139099%);stroke-opacity:1;stroke-miterlimit:10;" d="M 2198.085938 2370.78125 L 2198.085938 -1081.914062 " transform="matrix(0.1,0,0,-0.1,0,148)"/>
<path style="fill:none;stroke-width:10;stroke-linecap:round;stroke-linejoin:round;stroke:rgb(94.139099%,94.139099%,94.139099%);stroke-opacity:1;stroke-miterlimit:10;" d="M 2311.484375 2370.78125 L 2311.484375 -1081.914062 " transform="matrix(0.1,0,0,-0.1,0,148)"/>
<path style="fill:none;stroke-width:10;stroke-linecap:round;stroke-linejoin:round;stroke:rgb(94.139099%,94.139099%,94.139099%);stroke-opacity:1;stroke-miterlimit:10;" d="M 2538.242188 2370.78125 L 2538.242188 -1081.914062 " transform="matrix(0.1,0,0,-0.1,0,148)"/>
<path style="fill:none;stroke-width:10;stroke-linecap:round;stroke-linejoin:round;stroke:rgb(94.139099%,94.139099%,94.139099%);stroke-opacity:1;stroke-miterlimit:10;" d="M 2651.640625 2370.78125 L 2651.640625 -1081.914062 " transform="matrix(0.1,0,0,-0.1,0,148)"/>
<path style="fill:none;stroke-width:10;stroke-linecap:round;stroke-linejoin:round;stroke:rgb(94.139099%,94.139099%,94.139099%);stroke-opacity:1;stroke-miterlimit:10;" d="M 2765.039062 2370.78125 L 2765.039062 -1081.914062 " transform="matrix(0.1,0,0,-0.1,0,148)"/>
<path style="fill:none;stroke-width:10;stroke-linecap:round;stroke-linejoin:round;stroke:rgb(94.139099%,94.139099%,94.139099%);stroke-opacity:1;stroke-miterlimit:10;" d="M 2878.398438 2370.78125 L 2878.398438 -1081.914062 " transform="matrix(0.1,0,0,-0.1,0,148)"/>
<path style="fill:none;stroke-width:10;stroke-linecap:round;stroke-linejoin:round;stroke:rgb(94.139099%,94.139099%,94.139099%);stroke-opacity:1;stroke-miterlimit:10;" d="M 3105.15625 2370.78125 L 3105.15625 -1081.914062 " transform="matrix(0.1,0,0,-0.1,0,148)"/>
<path style="fill:none;stroke-width:10;stroke-linecap:round;stroke-linejoin:round;stroke:rgb(75.389099%,75.389099%,75.389099%);stroke-opacity:1;stroke-miterlimit:10;" d="M -125.15625 1306.523438 L 4976.5625 1306.523438 " transform="matrix(0.1,0,0,-0.1,0,148)"/>
<path style="fill:none;stroke-width:10;stroke-linecap:round;stroke-linejoin:round;stroke:rgb(75.389099%,75.389099%,75.389099%);stroke-opacity:1;stroke-miterlimit:10;" d="M -125.15625 172.695312 L 4976.5625 172.695312 " transform="matrix(0.1,0,0,-0.1,0,148)"/>
<path style="fill:none;stroke-width:10;stroke-linecap:round;stroke-linejoin:round;stroke:rgb(94.139099%,94.139099%,94.139099%);stroke-opacity:1;stroke-miterlimit:10;" d="M -125.15625 1419.921875 L 4976.5625 1419.921875 " transform="matrix(0.1,0,0,-0.1,0,148)"/>
<path style="fill:none;stroke-width:10;stroke-linecap:round;stroke-linejoin:round;stroke:rgb(94.139099%,94.139099%,94.139099%);stroke-opacity:1;stroke-miterlimit:10;" d="M -125.15625 1193.164062 L 4976.5625 1193.164062 " transform="matrix(0.1,0,0,-0.1,0,148)"/>
<path style="fill:none;stroke-width:10;stroke-linecap:round;stroke-linejoin:round;stroke:rgb(94.139099%,94.139099%,94.139099%);stroke-opacity:1;stroke-miterlimit:10;" d="M -125.15625 1079.765625 L 4976.5625 1079.765625 " transform="matrix(0.1,0,0,-0.1,0,148)"/>
<path style="fill:none;stroke-width:10;stroke-linecap:round;stroke-linejoin:round;stroke:rgb(94.139099%,94.139099%,94.139099%);stroke-opacity:1;stroke-miterlimit:10;" d="M -125.15625 966.367188 L 4976.5625 966.367188 " transform="matrix(0.1,0,0,-0.1,0,148)"/>
<path style="fill:none;stroke-width:10;stroke-linecap:round;stroke-linejoin:round;stroke:rgb(94.139099%,94.139099%,94.139099%);stroke-opacity:1;stroke-miterlimit:10;" d="M -125.15625 853.007812 L 4976.5625 853.007812 " transform="matrix(0.1,0,0,-0.1,0,148)"/>
<path style="fill:none;stroke-width:10;stroke-linecap:round;stroke-linejoin:round;stroke:rgb(94.139099%,94.139099%,94.139099%);stroke-opacity:1;stroke-miterlimit:10;" d="M -125.15625 626.210938 L 4976.5625 626.210938 " transform="matrix(0.1,0,0,-0.1,0,148)"/>
<path style="fill:none;stroke-width:10;stroke-linecap:round;stroke-linejoin:round;stroke:rgb(94.139099%,94.139099%,94.139099%);stroke-opacity:1;stroke-miterlimit:10;" d="M -125.15625 512.851562 L 4976.5625 512.851562 " transform="matrix(0.1,0,0,-0.1,0,148)"/>
<path style="fill:none;stroke-width:10;stroke-linecap:round;stroke-linejoin:round;stroke:rgb(94.139099%,94.139099%,94.139099%);stroke-opacity:1;stroke-miterlimit:10;" d="M -125.15625 399.453125 L 4976.5625 399.453125 " transform="matrix(0.1,0,0,-0.1,0,148)"/>
<path style="fill:none;stroke-width:10;stroke-linecap:round;stroke-linejoin:round;stroke:rgb(94.139099%,94.139099%,94.139099%);stroke-opacity:1;stroke-miterlimit:10;" d="M -125.15625 286.054688 L 4976.5625 286.054688 " transform="matrix(0.1,0,0,-0.1,0,148)"/>
<path style="fill:none;stroke-width:10;stroke-linecap:round;stroke-linejoin:round;stroke:rgb(94.139099%,94.139099%,94.139099%);stroke-opacity:1;stroke-miterlimit:10;" d="M -125.15625 59.296875 L 4976.5625 59.296875 " transform="matrix(0.1,0,0,-0.1,0,148)"/>
<path style="fill:none;stroke-width:10;stroke-linecap:butt;stroke-linejoin:miter;stroke:rgb(0%,0%,0%);stroke-opacity:1;stroke-miterlimit:10;" d="M 157.148438 2356.054688 L 157.148438 -1081.914062 " transform="matrix(0.1,0,0,-0.1,0,148)"/>
<path style="fill:none;stroke-width:10;stroke-linecap:butt;stroke-linejoin:miter;stroke:rgb(0%,0%,0%);stroke-opacity:1;stroke-miterlimit:10;" d="M -125.15625 739.609375 L 4961.835938 739.609375 " transform="matrix(0.1,0,0,-0.1,0,148)"/>
<path style=" stroke:none;fill-rule:nonzero;fill:rgb(0%,0%,0%);fill-opacity:1;" d="M 71.40625 85.398438 L 71.40625 84.652344 C 71.652344 84.074219 72.152344 83.441406 72.90625 82.761719 L 73.394531 82.324219 C 74.023438 81.757812 74.335938 81.195312 74.335938 80.640625 C 74.335938 80.28125 74.226562 80.003906 74.015625 79.796875 C 73.800781 79.59375 73.507812 79.492188 73.132812 79.492188 C 72.6875 79.492188 72.167969 79.664062 71.566406 80.003906 L 71.566406 79.253906 C 72.132812 78.988281 72.695312 78.851562 73.253906 78.851562 C 73.851562 78.851562 74.332031 79.015625 74.695312 79.335938 C 75.054688 79.65625 75.238281 80.085938 75.238281 80.617188 C 75.238281 81 75.144531 81.339844 74.964844 81.636719 C 74.78125 81.929688 74.441406 82.289062 73.941406 82.714844 L 73.613281 82.992188 C 72.933594 83.570312 72.539062 84.125 72.433594 84.652344 L 75.207031 84.652344 L 75.207031 85.398438 "/>
<path style=" stroke:none;fill-rule:nonzero;fill:rgb(0%,0%,0%);fill-opacity:1;" d="M 130.683594 85.398438 L 130.683594 83.589844 L 127.8125 83.589844 L 127.8125 82.945312 L 130.683594 79.011719 L 131.480469 79.011719 L 131.480469 82.894531 L 132.335938 82.894531 L 132.335938 83.589844 L 131.480469 83.589844 L 131.480469 85.398438 Z M 128.644531 82.894531 L 130.742188 82.894531 L 130.742188 80.054688 "/>
<path style=" stroke:none;fill-rule:nonzero;fill:rgb(0%,0%,0%);fill-opacity:1;" d="M 185.5625 82.089844 C 185.96875 81.5625 186.480469 81.296875 187.09375 81.296875 C 187.652344 81.296875 188.109375 81.484375 188.464844 81.851562 C 188.820312 82.222656 188.996094 82.695312 188.996094 83.273438 C 188.996094 83.9375 188.796875 84.484375 188.398438 84.914062 C 188 85.34375 187.496094 85.554688 186.882812 85.554688 C 186.179688 85.554688 185.628906 85.273438 185.230469 84.707031 C 184.835938 84.140625 184.636719 83.351562 184.636719 82.347656 C 184.636719 81.238281 184.863281 80.378906 185.320312 79.769531 C 185.773438 79.15625 186.417969 78.847656 187.246094 78.847656 C 187.625 78.847656 188.097656 78.929688 188.667969 79.089844 L 188.667969 79.832031 C 188.066406 79.601562 187.574219 79.488281 187.191406 79.488281 C 186.105469 79.488281 185.5625 80.355469 185.5625 82.089844 Z M 188.144531 83.464844 C 188.144531 82.980469 188.035156 82.601562 187.816406 82.324219 C 187.601562 82.050781 187.296875 81.910156 186.914062 81.910156 C 186.554688 81.910156 186.246094 82.03125 185.984375 82.273438 C 185.726562 82.515625 185.597656 82.804688 185.597656 83.144531 C 185.597656 83.679688 185.71875 84.109375 185.964844 84.433594 C 186.210938 84.757812 186.539062 84.917969 186.941406 84.917969 C 187.308594 84.917969 187.601562 84.785156 187.816406 84.523438 C 188.035156 84.261719 188.144531 83.90625 188.144531 83.464844 "/>
<path style=" stroke:none;fill-rule:nonzero;fill:rgb(0%,0%,0%);fill-opacity:1;" d="M 242.761719 81.917969 C 242.136719 81.484375 241.824219 81.003906 241.824219 80.480469 C 241.824219 79.996094 242.003906 79.601562 242.355469 79.300781 C 242.710938 79 243.171875 78.847656 243.742188 78.847656 C 244.269531 78.847656 244.695312 78.976562 245.019531 79.230469 C 245.347656 79.488281 245.511719 79.820312 245.511719 80.230469 C 245.511719 80.847656 245.113281 81.410156 244.320312 81.917969 C 245.28125 82.390625 245.765625 83 245.765625 83.746094 C 245.765625 84.28125 245.5625 84.714844 245.15625 85.050781 C 244.753906 85.386719 244.234375 85.554688 243.59375 85.554688 C 242.96875 85.554688 242.460938 85.398438 242.074219 85.078125 C 241.6875 84.761719 241.492188 84.34375 241.492188 83.828125 C 241.492188 83.0625 241.914062 82.425781 242.761719 81.917969 Z M 243.84375 81.652344 C 244.441406 81.261719 244.738281 80.824219 244.738281 80.34375 C 244.738281 80.089844 244.636719 79.882812 244.441406 79.726562 C 244.242188 79.570312 243.980469 79.492188 243.65625 79.492188 C 243.339844 79.492188 243.085938 79.570312 242.890625 79.722656 C 242.695312 79.875 242.597656 80.074219 242.597656 80.320312 C 242.597656 80.558594 242.6875 80.773438 242.863281 80.960938 C 243.039062 81.148438 243.367188 81.378906 243.84375 81.652344 Z M 243.222656 82.265625 C 242.882812 82.53125 242.648438 82.761719 242.527344 82.957031 C 242.40625 83.15625 242.34375 83.398438 242.34375 83.691406 C 242.34375 84.058594 242.460938 84.351562 242.695312 84.578125 C 242.933594 84.804688 243.242188 84.917969 243.628906 84.917969 C 244 84.917969 244.304688 84.820312 244.535156 84.628906 C 244.769531 84.4375 244.890625 84.1875 244.890625 83.878906 C 244.890625 83.632812 244.816406 83.421875 244.671875 83.25 C 244.523438 83.078125 244.246094 82.871094 243.828125 82.621094 "/>
<path style=" stroke:none;fill-rule:nonzero;fill:rgb(0%,0%,0%);fill-opacity:1;" d="M 296.535156 85.398438 L 296.535156 84.757812 L 297.8125 84.757812 L 297.8125 79.71875 L 296.535156 80.039062 L 296.535156 79.382812 L 298.667969 78.851562 L 298.667969 84.757812 L 299.945312 84.757812 L 299.945312 85.398438 Z M 303.867188 85.554688 C 303.207031 85.554688 302.675781 85.246094 302.269531 84.625 C 301.859375 84.007812 301.65625 83.199219 301.65625 82.199219 C 301.65625 81.195312 301.863281 80.382812 302.273438 79.773438 C 302.683594 79.160156 303.222656 78.851562 303.890625 78.851562 C 304.5625 78.851562 305.101562 79.160156 305.511719 79.773438 C 305.921875 80.382812 306.128906 81.191406 306.128906 82.1875 C 306.128906 83.210938 305.921875 84.027344 305.511719 84.640625 C 305.101562 85.25 304.554688 85.554688 303.867188 85.554688 Z M 303.875 84.917969 C 304.773438 84.917969 305.226562 84.003906 305.226562 82.175781 C 305.226562 80.386719 304.78125 79.492188 303.890625 79.492188 C 303.007812 79.492188 302.5625 80.394531 302.5625 82.199219 C 302.5625 84.011719 303 84.917969 303.875 84.917969 "/>
<path style=" stroke:none;fill-rule:nonzero;fill:rgb(0%,0%,0%);fill-opacity:1;" d="M 0.453125 131.640625 L 0.453125 131.054688 L 3.964844 131.054688 L 3.964844 131.640625 Z M 5.746094 133.984375 L 5.746094 133.347656 L 7.023438 133.347656 L 7.023438 128.308594 L 5.746094 128.628906 L 5.746094 127.972656 L 7.875 127.441406 L 7.875 133.347656 L 9.152344 133.347656 L 9.152344 133.984375 "/>
<path style=" stroke:none;fill-rule:nonzero;fill:rgb(0%,0%,0%);fill-opacity:1;" d="M 5.746094 20.613281 L 5.746094 19.976562 L 7.023438 19.976562 L 7.023438 14.9375 L 5.746094 15.253906 L 5.746094 14.601562 L 7.875 14.070312 L 7.875 19.976562 L 9.152344 19.976562 L 9.152344 20.613281 "/>
<path style=" stroke:none;fill-rule:nonzero;fill:rgb(0%,0%,0%);fill-opacity:1;" d="M 7.1875 85.554688 C 6.527344 85.554688 5.996094 85.246094 5.589844 84.625 C 5.179688 84.007812 4.976562 83.199219 4.976562 82.199219 C 4.976562 81.195312 5.183594 80.382812 5.59375 79.773438 C 6.003906 79.160156 6.542969 78.851562 7.210938 78.851562 C 7.882812 78.851562 8.421875 79.160156 8.832031 79.773438 C 9.242188 80.382812 9.445312 81.191406 9.445312 82.1875 C 9.445312 83.210938 9.242188 84.027344 8.832031 84.640625 C 8.421875 85.25 7.875 85.554688 7.1875 85.554688 Z M 7.195312 84.917969 C 8.09375 84.917969 8.546875 84.003906 8.546875 82.175781 C 8.546875 80.386719 8.101562 79.492188 7.210938 79.492188 C 6.328125 79.492188 5.882812 80.394531 5.882812 82.199219 C 5.882812 84.011719 6.320312 84.917969 7.195312 84.917969 "/>
<path style="fill:none;stroke-width:25;stroke-linecap:round;stroke-linejoin:round;stroke:rgb(30.200195%,30.200195%,100%);stroke-opacity:1;stroke-miterlimit:10;" d="M 157.148438 739.609375 L 166.289062 812.539062 L 175.429688 884.257812 L 184.570312 953.554688 L 193.710938 1019.335938 M 193.710938 1019.335938 L 203.671875 1085.664062 L 213.632812 1145.195312 L 223.59375 1196.71875 L 233.554688 1239.179688 L 253.476562 1293.945312 L 255.976562 1297.773438 L 260.976562 1303.359375 L 264.6875 1305.742188 L 268.4375 1306.523438 L 272.1875 1305.742188 L 275.898438 1303.398438 L 283.398438 1293.984375 L 288.359375 1284.296875 L 293.359375 1271.914062 L 303.320312 1239.335938 L 313.28125 1196.875 L 323.242188 1145.390625 L 333.203125 1085.898438 L 343.164062 1019.609375 L 353.125 947.734375 L 358.125 910.195312 L 363.085938 871.757812 L 368.085938 832.734375 L 373.046875 793.203125 L 378.046875 753.4375 L 383.007812 713.59375 L 388.007812 673.867188 L 393.007812 634.492188 L 397.96875 595.585938 L 402.96875 557.421875 L 412.929688 483.984375 L 422.890625 415.585938 L 432.851562 353.59375 L 442.8125 299.21875 L 452.773438 253.515625 L 472.695312 191.640625 L 475.195312 186.875 L 477.695312 182.773438 L 482.65625 176.679688 L 487.65625 173.359375 L 491.40625 172.695312 L 495.117188 173.59375 L 498.867188 176.09375 L 502.617188 180.15625 L 507.578125 187.96875 L 512.578125 198.515625 M 512.578125 198.515625 L 532.5 266.71875 L 542.460938 315.195312 L 552.421875 372.070312 L 562.382812 436.171875 L 572.34375 506.289062 L 577.34375 543.164062 L 582.304688 581.015625 L 587.304688 619.648438 L 592.265625 658.867188 L 597.265625 698.476562 L 602.226562 738.28125 L 607.226562 778.125 L 612.1875 817.773438 L 617.1875 857.03125 L 622.1875 895.664062 L 627.148438 933.59375 L 632.148438 970.507812 L 642.109375 1040.78125 L 652.070312 1105.15625 L 662.03125 1162.265625 L 671.992188 1211.054688 L 691.914062 1279.921875 L 696.914062 1290.625 L 701.875 1298.632812 L 706.875 1303.90625 L 711.835938 1306.328125 L 715.585938 1306.328125 L 719.335938 1304.765625 L 724.296875 1300.234375 L 731.757812 1288.242188 L 741.757812 1262.8125 L 751.71875 1227.03125 L 761.679688 1181.640625 L 771.640625 1127.539062 L 781.601562 1065.78125 L 791.5625 997.578125 L 801.523438 924.257812 L 806.523438 886.132812 L 811.484375 847.304688 L 816.484375 807.96875 L 821.445312 768.242188 L 826.445312 728.398438 L 831.40625 688.632812 L 836.40625 649.0625 L 841.40625 610 L 846.367188 571.5625 L 851.367188 533.945312 L 861.328125 461.914062 L 871.289062 395.390625 L 881.25 335.664062 L 891.210938 283.90625 L 901.171875 241.132812 L 911.132812 208.203125 L 921.09375 185.78125 L 923.59375 181.835938 L 928.554688 176.09375 L 932.304688 173.59375 L 936.054688 172.695312 L 939.765625 173.359375 L 943.515625 175.585938 L 948.515625 180.976562 L 950.976562 184.726562 L 960.9375 206.484375 L 970.9375 238.789062 L 980.898438 280.976562 L 990.859375 332.1875 L 1000.820312 391.484375 L 1010.78125 457.617188 L 1020.742188 529.335938 L 1025.742188 566.835938 L 1030.703125 605.195312 L 1035.703125 644.21875 L 1040.664062 683.710938 L 1045.664062 723.476562 L 1050.625 763.320312 L 1055.625 803.046875 L 1060.585938 842.460938 L 1065.585938 881.367188 L 1070.546875 919.570312 L 1080.546875 993.164062 L 1090.507812 1061.71875 L 1100.46875 1123.90625 L 1110.429688 1178.515625 L 1120.390625 1224.492188 L 1130.351562 1260.859375 L 1140.3125 1286.953125 L 1145.3125 1295.976562 L 1150.273438 1302.265625 M 1150.273438 1302.265625 L 1155.273438 1305.742188 L 1158.984375 1306.523438 L 1162.734375 1305.742188 L 1166.484375 1303.398438 L 1170.195312 1299.453125 L 1175.195312 1291.796875 L 1180.15625 1281.40625 L 1190.15625 1252.65625 L 1200.117188 1213.789062 L 1210.078125 1165.546875 L 1220.039062 1108.90625 L 1230 1045 L 1239.960938 975.039062 L 1244.921875 938.242188 L 1249.921875 900.429688 L 1254.882812 861.835938 L 1259.882812 822.65625 L 1264.882812 783.046875 L 1269.84375 743.242188 L 1274.84375 703.398438 L 1279.804688 663.75 L 1284.804688 624.492188 L 1289.765625 585.78125 L 1294.765625 547.8125 L 1299.726562 510.820312 L 1309.726562 440.390625 L 1319.6875 375.859375 L 1329.648438 318.476562 L 1339.609375 269.453125 L 1349.570312 229.6875 L 1369.492188 180.976562 L 1374.492188 175.546875 L 1378.203125 173.320312 L 1381.953125 172.695312 L 1385.664062 173.59375 L 1389.414062 176.09375 L 1394.414062 181.875 L 1399.375 190.390625 L 1409.335938 215.507812 L 1419.296875 251.015625 L 1429.296875 296.132812 L 1439.257812 350 L 1449.21875 411.5625 L 1459.179688 479.570312 L 1469.140625 552.773438 L 1474.101562 590.820312 L 1479.101562 629.609375 L 1484.0625 668.945312 L 1489.0625 708.632812 L 1494.0625 748.476562 L 1499.023438 788.28125 L 1504.023438 827.851562 L 1508.984375 866.953125 L 1513.984375 905.429688 L 1518.945312 943.125 L 1528.90625 1015.273438 L 1538.90625 1081.992188 L 1548.867188 1141.914062 L 1558.828125 1193.945312 L 1568.789062 1236.953125 L 1588.710938 1292.96875 L 1591.210938 1296.953125 L 1596.171875 1302.851562 L 1599.921875 1305.46875 L 1603.632812 1306.523438 L 1607.382812 1305.976562 L 1611.132812 1303.867188 L 1618.59375 1294.960938 L 1623.59375 1285.585938 L 1628.554688 1273.515625 L 1638.515625 1241.523438 L 1648.476562 1199.609375 L 1658.476562 1148.632812 L 1668.4375 1089.570312 L 1678.398438 1023.59375 L 1688.359375 952.03125 L 1693.320312 914.609375 L 1698.320312 876.289062 L 1703.28125 837.304688 L 1708.28125 797.8125 L 1713.242188 758.085938 L 1718.242188 718.242188 L 1723.242188 678.476562 L 1728.203125 639.0625 L 1733.203125 600.117188 L 1738.164062 561.835938 L 1743.164062 524.453125 L 1748.125 488.164062 L 1758.085938 419.414062 L 1768.046875 357.03125 L 1778.046875 302.148438 L 1788.007812 255.9375 L 1807.929688 192.851562 L 1810.390625 187.929688 L 1812.890625 183.671875 L 1817.890625 177.226562 L 1822.851562 173.59375 L 1826.601562 172.695312 L 1830.351562 173.359375 L 1835.3125 176.679688 L 1842.8125 186.914062 L 1847.773438 197.148438 L 1867.695312 264.179688 L 1877.65625 312.148438 L 1887.65625 368.554688 L 1897.617188 432.265625 L 1907.578125 502.070312 L 1912.539062 538.828125 L 1917.539062 576.5625 L 1922.5 615.117188 L 1927.5 654.257812 L 1932.460938 693.828125 L 1937.460938 733.632812 L 1942.421875 773.476562 L 1947.421875 813.164062 L 1952.382812 852.460938 L 1957.382812 891.210938 L 1962.382812 929.21875 L 1967.34375 966.289062 L 1977.304688 1036.875 L 1987.265625 1101.5625 L 1997.226562 1159.140625 L 2007.226562 1208.4375 L 2027.148438 1278.476562 L 2032.109375 1289.53125 L 2037.109375 1297.851562 L 2042.070312 1303.4375 L 2045.820312 1305.78125 L 2049.53125 1306.523438 L 2053.28125 1305.742188 L 2057.03125 1303.359375 L 2061.992188 1297.734375 L 2066.992188 1289.375 L 2076.953125 1264.570312 L 2086.914062 1229.375 L 2096.875 1184.53125 L 2106.835938 1130.898438 L 2116.796875 1069.53125 L 2126.796875 1001.679688 L 2136.757812 928.632812 L 2141.71875 890.625 L 2146.71875 851.875 L 2151.679688 812.578125 L 2156.679688 772.890625 L 2161.640625 733.046875 L 2166.640625 693.242188 L 2171.601562 653.671875 L 2176.601562 614.53125 L 2181.5625 575.976562 L 2186.5625 538.28125 L 2196.523438 465.976562 L 2206.484375 399.101562 L 2216.445312 338.945312 L 2226.40625 286.679688 L 2236.40625 243.359375 L 2246.367188 209.84375 L 2256.328125 186.757812 L 2258.789062 182.695312 L 2263.789062 176.601562 L 2267.539062 173.90625 L 2271.25 172.734375 L 2275 173.125 L 2278.710938 175.117188 L 2286.210938 183.789062 L 2291.171875 193.007812 L 2296.171875 204.921875 L 2306.132812 236.640625 L 2316.09375 278.242188 L 2326.054688 328.984375 L 2336.015625 387.8125 L 2345.976562 453.59375 L 2355.976562 525 L 2360.9375 562.421875 L 2365.9375 600.664062 L 2370.898438 639.609375 L 2375.898438 679.0625 L 2380.859375 718.828125 L 2385.859375 758.671875 L 2390.820312 798.4375 L 2395.820312 837.890625 L 2400.78125 876.875 L 2405.78125 915.15625 L 2410.742188 952.617188 L 2415.742188 988.984375 L 2425.703125 1057.851562 M 2425.703125 1057.851562 L 2435.664062 1120.46875 L 2445.625 1175.585938 L 2455.585938 1222.070312 L 2465.585938 1259.023438 L 2485.507812 1301.679688 L 2490.46875 1305.507812 L 2494.21875 1306.523438 L 2497.96875 1305.976562 L 2502.929688 1302.773438 L 2510.390625 1292.8125 L 2515.390625 1282.734375 L 2525.351562 1254.609375 L 2535.3125 1216.328125 L 2545.273438 1168.59375 L 2555.234375 1112.421875 L 2565.195312 1048.90625 L 2575.15625 979.257812 L 2580.15625 942.578125 L 2585.15625 904.882812 L 2590.117188 866.367188 L 2595.117188 827.265625 L 2600.078125 787.695312 L 2605.078125 747.890625 L 2610.039062 708.046875 L 2615.039062 668.359375 L 2620 629.023438 L 2625 590.234375 L 2629.960938 552.1875 L 2634.960938 515.078125 L 2644.921875 444.335938 L 2654.882812 379.414062 L 2664.84375 321.601562 L 2674.804688 272.070312 L 2684.765625 231.757812 L 2704.726562 181.757812 L 2709.6875 176.054688 L 2713.4375 173.59375 L 2717.148438 172.695312 L 2720.898438 173.359375 L 2724.648438 175.625 L 2729.609375 181.054688 L 2734.609375 189.257812 L 2744.570312 213.789062 M 2744.570312 213.789062 L 2754.53125 248.671875 L 2764.492188 293.242188 L 2774.453125 346.640625 L 2784.414062 407.773438 L 2794.375 475.46875 L 2804.335938 548.359375 L 2809.335938 586.328125 L 2814.335938 625.078125 L 2819.296875 664.335938 L 2824.296875 704.023438 L 2829.257812 743.828125 L 2834.257812 783.632812 L 2839.21875 823.242188 L 2844.21875 862.421875 L 2849.179688 901.015625 L 2854.179688 938.789062 L 2864.140625 1011.210938 L 2874.101562 1078.242188 L 2884.0625 1138.632812 L 2894.023438 1191.132812 L 2903.984375 1234.726562 M 2903.984375 1234.726562 L 2923.90625 1291.914062 L 2926.40625 1296.054688 L 2931.40625 1302.304688 L 2935.117188 1305.15625 L 2938.867188 1306.445312 L 2942.617188 1306.171875 L 2946.328125 1304.296875 L 2953.828125 1295.898438 L 2958.789062 1286.796875 L 2963.789062 1275.039062 L 2983.710938 1202.304688 M 2983.710938 1202.304688 L 2991.796875 1162.03125 " transform="matrix(0.1,0,0,-0.1,0,148)"/>
<path style=" stroke:none;fill-rule:nonzero;fill:rgb(100%,0%,0%);fill-opacity:1;" d="M 18.660156 74.039062 C 18.660156 75.664062 17.339844 76.984375 15.714844 76.984375 C 14.089844 76.984375 12.769531 75.664062 12.769531 74.039062 C 12.769531 72.414062 14.089844 71.09375 15.714844 71.09375 C 17.339844 71.09375 18.660156 72.414062 18.660156 74.039062 "/>
<path style="fill:none;stroke-width:10;stroke-linecap:round;stroke-linejoin:round;stroke:rgb(0%,0%,0%);stroke-opacity:1;stroke-miterlimit:10;" d="M 186.601562 739.609375 C 186.601562 723.359375 173.398438 710.15625 157.148438 710.15625 C 140.898438 710.15625 127.695312 723.359375 127.695312 739.609375 C 127.695312 755.859375 140.898438 769.0625 157.148438 769.0625 C 173.398438 769.0625 186.601562 755.859375 186.601562 739.609375 Z M 186.601562 739.609375 " transform="matrix(0.1,0,0,-0.1,0,148)"/>
<path style=" stroke:none;fill-rule:nonzero;fill:rgb(100%,0%,0%);fill-opacity:1;" d="M 54.09375 128.402344 C 54.09375 130.03125 52.773438 131.347656 51.148438 131.347656 C 49.519531 131.347656 48.203125 130.03125 48.203125 128.402344 C 48.203125 126.777344 49.519531 125.457031 51.148438 125.457031 C 52.773438 125.457031 54.09375 126.777344 54.09375 128.402344 "/>
<path style="fill:none;stroke-width:10;stroke-linecap:round;stroke-linejoin:round;stroke:rgb(0%,0%,0%);stroke-opacity:1;stroke-miterlimit:10;" d="M 540.9375 195.976562 C 540.9375 179.6875 527.734375 166.523438 511.484375 166.523438 C 495.195312 166.523438 482.03125 179.6875 482.03125 195.976562 C 482.03125 212.226562 495.195312 225.429688 511.484375 225.429688 C 527.734375 225.429688 540.9375 212.226562 540.9375 195.976562 Z M 540.9375 195.976562 " transform="matrix(0.1,0,0,-0.1,0,148)"/>
<path style=" stroke:none;fill-rule:nonzero;fill:rgb(100%,0%,0%);fill-opacity:1;" d="M 89.523438 104.882812 C 89.523438 106.507812 88.207031 107.828125 86.582031 107.828125 C 84.953125 107.828125 83.636719 106.507812 83.636719 104.882812 C 83.636719 103.253906 84.953125 101.9375 86.582031 101.9375 C 88.207031 101.9375 89.523438 103.253906 89.523438 104.882812 "/>
<path style="fill:none;stroke-width:10;stroke-linecap:round;stroke-linejoin:round;stroke:rgb(0%,0%,0%);stroke-opacity:1;stroke-miterlimit:10;" d="M 895.234375 431.171875 C 895.234375 414.921875 882.070312 401.71875 865.820312 401.71875 C 849.53125 401.71875 836.367188 414.921875 836.367188 431.171875 C 836.367188 447.460938 849.53125 460.625 865.820312 460.625 C 882.070312 460.625 895.234375 447.460938 895.234375 431.171875 Z M 895.234375 431.171875 " transform="matrix(0.1,0,0,-0.1,0,148)"/>
<path style=" stroke:none;fill-rule:nonzero;fill:rgb(100%,0%,0%);fill-opacity:1;" d="M 124.957031 37.171875 C 124.957031 38.800781 123.640625 40.117188 122.011719 40.117188 C 120.386719 40.117188 119.070312 38.800781 119.070312 37.171875 C 119.070312 35.546875 120.386719 34.226562 122.011719 34.226562 C 123.640625 34.226562 124.957031 35.546875 124.957031 37.171875 "/>
<path style="fill:none;stroke-width:10;stroke-linecap:round;stroke-linejoin:round;stroke:rgb(0%,0%,0%);stroke-opacity:1;stroke-miterlimit:10;" d="M 1249.570312 1108.28125 C 1249.570312 1091.992188 1236.40625 1078.828125 1220.117188 1078.828125 C 1203.867188 1078.828125 1190.703125 1091.992188 1190.703125 1108.28125 C 1190.703125 1124.53125 1203.867188 1137.734375 1220.117188 1137.734375 C 1236.40625 1137.734375 1249.570312 1124.53125 1249.570312 1108.28125 Z M 1249.570312 1108.28125 " transform="matrix(0.1,0,0,-0.1,0,148)"/>
<path style=" stroke:none;fill-rule:nonzero;fill:rgb(100%,0%,0%);fill-opacity:1;" d="M 160.390625 22.28125 C 160.390625 23.90625 159.074219 25.226562 157.445312 25.226562 C 155.820312 25.226562 154.503906 23.90625 154.503906 22.28125 C 154.503906 20.65625 155.820312 19.335938 157.445312 19.335938 C 159.074219 19.335938 160.390625 20.65625 160.390625 22.28125 "/>
<path style="fill:none;stroke-width:10;stroke-linecap:round;stroke-linejoin:round;stroke:rgb(0%,0%,0%);stroke-opacity:1;stroke-miterlimit:10;" d="M 1603.90625 1257.1875 C 1603.90625 1240.9375 1590.742188 1227.734375 1574.453125 1227.734375 C 1558.203125 1227.734375 1545.039062 1240.9375 1545.039062 1257.1875 C 1545.039062 1273.4375 1558.203125 1286.640625 1574.453125 1286.640625 C 1590.742188 1286.640625 1603.90625 1273.4375 1603.90625 1257.1875 Z M 1603.90625 1257.1875 " transform="matrix(0.1,0,0,-0.1,0,148)"/>
<path style=" stroke:none;fill-rule:nonzero;fill:rgb(100%,0%,0%);fill-opacity:1;" d="M 195.824219 81.542969 C 195.824219 83.167969 194.507812 84.488281 192.878906 84.488281 C 191.253906 84.488281 189.933594 83.167969 189.933594 81.542969 C 189.933594 79.917969 191.253906 78.597656 192.878906 78.597656 C 194.507812 78.597656 195.824219 79.917969 195.824219 81.542969 "/>
<path style="fill:none;stroke-width:10;stroke-linecap:round;stroke-linejoin:round;stroke:rgb(0%,0%,0%);stroke-opacity:1;stroke-miterlimit:10;" d="M 1958.242188 664.570312 C 1958.242188 648.320312 1945.078125 635.117188 1928.789062 635.117188 C 1912.539062 635.117188 1899.335938 648.320312 1899.335938 664.570312 C 1899.335938 680.820312 1912.539062 694.023438 1928.789062 694.023438 C 1945.078125 694.023438 1958.242188 680.820312 1958.242188 664.570312 Z M 1958.242188 664.570312 " transform="matrix(0.1,0,0,-0.1,0,148)"/>
<path style=" stroke:none;fill-rule:nonzero;fill:rgb(100%,0%,0%);fill-opacity:1;" d="M 231.257812 130.054688 C 231.257812 131.679688 229.9375 133 228.3125 133 C 226.6875 133 225.367188 131.679688 225.367188 130.054688 C 225.367188 128.425781 226.6875 127.109375 228.3125 127.109375 C 229.9375 127.109375 231.257812 128.425781 231.257812 130.054688 "/>
<path style="fill:none;stroke-width:10;stroke-linecap:round;stroke-linejoin:round;stroke:rgb(0%,0%,0%);stroke-opacity:1;stroke-miterlimit:10;" d="M 2312.578125 179.453125 C 2312.578125 163.203125 2299.375 150 2283.125 150 C 2266.875 150 2253.671875 163.203125 2253.671875 179.453125 C 2253.671875 195.742188 2266.875 208.90625 2283.125 208.90625 C 2299.375 208.90625 2312.578125 195.742188 2312.578125 179.453125 Z M 2312.578125 179.453125 " transform="matrix(0.1,0,0,-0.1,0,148)"/>
<path style=" stroke:none;fill-rule:nonzero;fill:rgb(100%,0%,0%);fill-opacity:1;" d="M 266.691406 98.3125 C 266.691406 99.941406 265.371094 101.257812 263.746094 101.257812 C 262.121094 101.257812 260.800781 99.941406 260.800781 98.3125 C 260.800781 96.6875 262.121094 95.371094 263.746094 95.371094 C 265.371094 95.371094 266.691406 96.6875 266.691406 98.3125 "/>
<path style="fill:none;stroke-width:10;stroke-linecap:round;stroke-linejoin:round;stroke:rgb(0%,0%,0%);stroke-opacity:1;stroke-miterlimit:10;" d="M 2666.914062 496.875 C 2666.914062 480.585938 2653.710938 467.421875 2637.460938 467.421875 C 2621.210938 467.421875 2608.007812 480.585938 2608.007812 496.875 C 2608.007812 513.125 2621.210938 526.289062 2637.460938 526.289062 C 2653.710938 526.289062 2666.914062 513.125 2666.914062 496.875 Z M 2666.914062 496.875 " transform="matrix(0.1,0,0,-0.1,0,148)"/>
<path style=" stroke:none;fill-rule:nonzero;fill:rgb(100%,0%,0%);fill-opacity:1;" d="M 302.121094 31.796875 C 302.121094 33.421875 300.804688 34.742188 299.179688 34.742188 C 297.550781 34.742188 296.234375 33.421875 296.234375 31.796875 C 296.234375 30.171875 297.550781 28.851562 299.179688 28.851562 C 300.804688 28.851562 302.121094 30.171875 302.121094 31.796875 "/>
<path style="fill:none;stroke-width:10;stroke-linecap:round;stroke-linejoin:round;stroke:rgb(0%,0%,0%);stroke-opacity:1;stroke-miterlimit:10;" d="M 3021.210938 1162.03125 C 3021.210938 1145.78125 3008.046875 1132.578125 2991.796875 1132.578125 C 2975.507812 1132.578125 2962.34375 1145.78125 2962.34375 1162.03125 C 2962.34375 1178.28125 2975.507812 1191.484375 2991.796875 1191.484375 C 3008.046875 1191.484375 3021.210938 1178.28125 3021.210938 1162.03125 Z M 3021.210938 1162.03125 " transform="matrix(0.1,0,0,-0.1,0,148)"/>
</g>
</svg>
