<?xml version="1.0" encoding="UTF-8"?>
<svg xmlns="http://www.w3.org/2000/svg" xmlns:xlink="http://www.w3.org/1999/xlink" width="121pt" height="43pt" viewBox="0 0 121 43" version="1.1">
<g id="surface1">
<path style=" stroke:none;fill-rule:nonzero;fill:rgb(65.518188%,69.367981%,64.920044%);fill-opacity:1;" d="M 3.640625 1.007812 L 116.992188 1.210938 C 118.578125 1.210938 119.992188 0.972656 119.992188 4.367188 L 119.851562 41.699219 L 0.777344 41.699219 L 0.777344 4.230469 C 0.777344 2.554688 0.941406 1.007812 3.640625 1.007812 "/>
<path style=" stroke:none;fill-rule:nonzero;fill:rgb(6.30188%,5.761719%,5.038452%);fill-opacity:1;" d="M 118.253906 0.5 L 2.746094 0.5 C 1.507812 0.5 0.5 1.507812 0.5 2.746094 L 0.5 41.992188 C 0.5 42.273438 0.726562 42.5 1.007812 42.5 L 119.992188 42.5 C 120.273438 42.5 120.5 42.273438 120.5 41.992188 L 120.5 2.746094 C 120.5 1.507812 119.492188 0.5 118.253906 0.5 Z M 2.746094 1.515625 L 118.253906 1.515625 C 118.933594 1.515625 119.484375 2.066406 119.484375 2.746094 C 119.484375 2.746094 119.484375 18.59375 119.484375 30.023438 L 36.660156 30.023438 C 33.632812 35.492188 27.804688 39.207031 21.113281 39.207031 C 14.417969 39.207031 8.59375 35.496094 5.566406 30.023438 L 1.515625 30.023438 C 1.515625 18.59375 1.515625 2.746094 1.515625 2.746094 C 1.515625 2.066406 2.066406 1.515625 2.746094 1.515625 "/>
<path style=" stroke:none;fill-rule:nonzero;fill:rgb(100%,100%,100%);fill-opacity:1;" d="M 74.308594 33.25 C 74.625 33.25 74.910156 33.273438 75.171875 33.332031 C 75.433594 33.386719 75.65625 33.476562 75.84375 33.605469 C 76.027344 33.730469 76.171875 33.898438 76.273438 34.109375 C 76.375 34.320312 76.429688 34.578125 76.429688 34.890625 C 76.429688 35.222656 76.351562 35.5 76.199219 35.722656 C 76.046875 35.945312 75.820312 36.125 75.523438 36.269531 C 75.933594 36.386719 76.242188 36.59375 76.441406 36.886719 C 76.644531 37.179688 76.746094 37.535156 76.746094 37.949219 C 76.746094 38.28125 76.679688 38.570312 76.550781 38.816406 C 76.421875 39.058594 76.246094 39.261719 76.023438 39.414062 C 75.804688 39.570312 75.554688 39.683594 75.273438 39.757812 C 74.988281 39.832031 74.703125 39.867188 74.402344 39.867188 L 71.1875 39.867188 L 71.1875 33.25 Z M 74.121094 35.925781 C 74.382812 35.925781 74.597656 35.863281 74.765625 35.738281 C 74.933594 35.617188 75.015625 35.417969 75.015625 35.140625 C 75.015625 34.984375 74.984375 34.859375 74.933594 34.761719 C 74.875 34.660156 74.800781 34.582031 74.707031 34.527344 C 74.613281 34.472656 74.507812 34.433594 74.386719 34.414062 C 74.269531 34.390625 74.140625 34.382812 74.011719 34.382812 L 72.648438 34.382812 L 72.648438 35.925781 Z M 74.207031 38.734375 C 74.351562 38.734375 74.484375 38.722656 74.617188 38.695312 C 74.746094 38.667969 74.859375 38.617188 74.960938 38.554688 C 75.058594 38.488281 75.140625 38.402344 75.195312 38.292969 C 75.257812 38.179688 75.285156 38.039062 75.285156 37.863281 C 75.285156 37.523438 75.191406 37.28125 74.996094 37.136719 C 74.804688 36.992188 74.550781 36.917969 74.234375 36.917969 L 72.648438 36.917969 L 72.648438 38.734375 L 74.207031 38.734375 "/>
<path style=" stroke:none;fill-rule:nonzero;fill:rgb(100%,100%,100%);fill-opacity:1;" d="M 77.003906 33.25 L 78.636719 33.25 L 80.1875 35.863281 L 81.726562 33.25 L 83.351562 33.25 L 80.894531 37.328125 L 80.894531 39.867188 L 79.433594 39.867188 L 79.433594 37.292969 L 77.003906 33.25 "/>
<path style=" stroke:none;fill-rule:nonzero;fill:rgb(100%,100%,100%);fill-opacity:1;" d="M 34.753906 20.105469 C 34.757812 27.636719 28.65625 33.742188 21.128906 33.75 C 13.597656 33.75 7.488281 27.652344 7.484375 20.121094 C 7.484375 20.117188 7.484375 20.113281 7.484375 20.105469 C 7.480469 12.578125 13.582031 6.46875 21.109375 6.464844 C 28.640625 6.460938 34.75 12.558594 34.753906 20.089844 C 34.753906 20.09375 34.753906 20.101562 34.753906 20.105469 "/>
<path style=" stroke:none;fill-rule:nonzero;fill:rgb(6.30188%,5.761719%,5.038452%);fill-opacity:1;" d="M 32.203125 9 C 35.226562 12.023438 36.738281 15.726562 36.738281 20.105469 C 36.738281 24.484375 35.253906 28.148438 32.28125 31.09375 C 29.128906 34.195312 25.398438 35.746094 21.101562 35.746094 C 16.851562 35.746094 13.1875 34.207031 10.113281 31.132812 C 7.039062 28.058594 5.5 24.382812 5.5 20.105469 C 5.5 15.832031 7.039062 12.128906 10.113281 9 C 13.109375 5.976562 16.773438 4.464844 21.101562 4.464844 C 25.480469 4.464844 29.179688 5.976562 32.203125 9 Z M 12.148438 11.035156 C 9.59375 13.617188 8.316406 16.640625 8.316406 20.109375 C 8.316406 23.578125 9.582031 26.578125 12.109375 29.105469 C 14.640625 31.636719 17.652344 32.898438 21.144531 32.898438 C 24.640625 32.898438 27.679688 31.621094 30.261719 29.066406 C 32.710938 26.691406 33.9375 23.710938 33.9375 20.109375 C 33.9375 16.539062 32.691406 13.507812 30.203125 11.015625 C 27.710938 8.527344 24.691406 7.28125 21.144531 7.28125 C 17.601562 7.28125 14.601562 8.53125 12.148438 11.035156 Z M 18.875 18.585938 C 18.484375 17.734375 17.898438 17.308594 17.121094 17.308594 C 15.742188 17.308594 15.054688 18.234375 15.054688 20.089844 C 15.054688 21.945312 15.742188 22.871094 17.121094 22.871094 C 18.03125 22.871094 18.679688 22.421875 19.070312 21.515625 L 20.980469 22.535156 C 20.070312 24.152344 18.707031 24.960938 16.882812 24.960938 C 15.476562 24.960938 14.351562 24.53125 13.507812 23.667969 C 12.660156 22.808594 12.238281 21.621094 12.238281 20.105469 C 12.238281 18.617188 12.671875 17.4375 13.542969 16.5625 C 14.417969 15.6875 15.503906 15.25 16.804688 15.25 C 18.730469 15.25 20.109375 16.011719 20.945312 17.527344 Z M 27.867188 18.585938 C 27.476562 17.734375 26.902344 17.308594 26.144531 17.308594 C 24.738281 17.308594 24.035156 18.234375 24.035156 20.089844 C 24.035156 21.945312 24.738281 22.871094 26.144531 22.871094 C 27.058594 22.871094 27.695312 22.421875 28.058594 21.515625 L 30.015625 22.535156 C 29.105469 24.152344 27.738281 24.960938 25.921875 24.960938 C 24.519531 24.960938 23.394531 24.53125 22.550781 23.667969 C 21.707031 22.808594 21.285156 21.621094 21.285156 20.105469 C 21.285156 18.617188 21.714844 17.4375 22.570312 16.5625 C 23.429688 15.6875 24.519531 15.25 25.84375 15.25 C 27.765625 15.25 29.144531 16.011719 29.976562 17.527344 L 27.867188 18.585938 "/>
<path style=" stroke:none;fill-rule:nonzero;fill:rgb(100%,100%,100%);fill-opacity:1;" d="M 76.769531 4.976562 C 82.699219 4.976562 87.507812 9.785156 87.507812 15.71875 C 87.507812 21.648438 82.699219 26.457031 76.769531 26.457031 C 70.835938 26.457031 66.027344 21.648438 66.027344 15.71875 C 66.027344 9.785156 70.835938 4.976562 76.769531 4.976562 "/>
<path style=" stroke:none;fill-rule:nonzero;fill:rgb(6.30188%,5.761719%,5.038452%);fill-opacity:1;" d="M 79.875 12.609375 C 79.875 12.195312 79.539062 11.859375 79.128906 11.859375 L 74.382812 11.859375 C 73.972656 11.859375 73.636719 12.195312 73.636719 12.609375 L 73.636719 17.351562 L 74.957031 17.351562 L 74.957031 22.96875 L 78.550781 22.96875 L 78.550781 17.351562 L 79.875 17.351562 L 79.875 12.609375 "/>
<path style=" stroke:none;fill-rule:nonzero;fill:rgb(6.30188%,5.761719%,5.038452%);fill-opacity:1;" d="M 76.753906 7.992188 C 77.648438 7.992188 78.378906 8.71875 78.378906 9.613281 C 78.378906 10.511719 77.648438 11.238281 76.753906 11.238281 C 75.859375 11.238281 75.132812 10.511719 75.132812 9.613281 C 75.132812 8.71875 75.859375 7.992188 76.753906 7.992188 "/>
<path style=" stroke:none;fill-rule:nonzero;fill:rgb(6.30188%,5.761719%,5.038452%);fill-opacity:1;" d="M 76.738281 3.886719 C 73.527344 3.886719 70.808594 5.007812 68.582031 7.246094 C 66.300781 9.566406 65.15625 12.3125 65.15625 15.480469 C 65.15625 18.648438 66.300781 21.375 68.582031 23.652344 C 70.867188 25.933594 73.585938 27.074219 76.738281 27.074219 C 79.933594 27.074219 82.703125 25.925781 85.039062 23.625 C 87.246094 21.441406 88.351562 18.726562 88.351562 15.480469 C 88.351562 12.234375 87.226562 9.488281 84.984375 7.246094 C 82.738281 5.007812 79.992188 3.886719 76.738281 3.886719 Z M 76.769531 5.972656 C 79.398438 5.972656 81.636719 6.898438 83.476562 8.753906 C 85.332031 10.589844 86.261719 12.832031 86.261719 15.480469 C 86.261719 18.148438 85.351562 20.359375 83.53125 22.117188 C 81.613281 24.011719 79.363281 24.960938 76.769531 24.960938 C 74.175781 24.960938 71.941406 24.023438 70.066406 22.148438 C 68.183594 20.273438 67.246094 18.050781 67.246094 15.480469 C 67.246094 12.910156 68.195312 10.667969 70.09375 8.753906 C 71.910156 6.898438 74.136719 5.972656 76.769531 5.972656 "/>
</g>
</svg>
