<?xml version="1.0" encoding="UTF-8"?>
<svg xmlns="http://www.w3.org/2000/svg" xmlns:xlink="http://www.w3.org/1999/xlink" width="121pt" height="43pt" viewBox="0 0 121 43" version="1.1">
<g id="surface1">
<path style=" stroke:none;fill-rule:nonzero;fill:rgb(65.519714%,69.329834%,64.906311%);fill-opacity:1;" d="M 3.90625 0.953125 L 117.261719 1.15625 C 118.847656 1.15625 120.261719 0.917969 120.261719 4.316406 L 120.121094 41.644531 L 1.046875 41.644531 L 1.046875 4.175781 C 1.046875 2.5 1.210938 0.953125 3.90625 0.953125 "/>
<path style=" stroke:none;fill-rule:nonzero;fill:rgb(6.30188%,5.761719%,5.056763%);fill-opacity:1;" d="M 118.253906 0.5 L 2.746094 0.5 C 1.507812 0.5 0.5 1.507812 0.5 2.746094 L 0.5 41.992188 C 0.5 42.273438 0.726562 42.5 1.007812 42.5 L 119.992188 42.5 C 120.273438 42.5 120.5 42.273438 120.5 41.992188 L 120.5 2.746094 C 120.5 1.507812 119.492188 0.5 118.253906 0.5 Z M 2.746094 1.515625 L 118.253906 1.515625 C 118.933594 1.515625 119.484375 2.066406 119.484375 2.746094 C 119.484375 2.746094 119.484375 18.542969 119.484375 29.96875 L 36.929688 29.96875 C 33.902344 35.4375 28.070312 39.152344 21.382812 39.152344 C 14.6875 39.152344 8.859375 35.441406 5.835938 29.96875 L 1.515625 29.96875 C 1.515625 18.542969 1.515625 2.746094 1.515625 2.746094 C 1.515625 2.066406 2.070312 1.515625 2.746094 1.515625 "/>
<path style=" stroke:none;fill-rule:nonzero;fill:rgb(100%,100%,100%);fill-opacity:1;" d="M 35.023438 20.050781 C 35.027344 27.582031 28.925781 33.6875 21.394531 33.695312 C 13.867188 33.699219 7.757812 27.597656 7.753906 20.066406 C 7.753906 20.0625 7.753906 20.058594 7.753906 20.050781 C 7.746094 12.523438 13.847656 6.414062 21.378906 6.410156 C 28.910156 6.40625 35.019531 12.503906 35.023438 20.035156 C 35.023438 20.039062 35.023438 20.046875 35.023438 20.050781 "/>
<path style=" stroke:none;fill-rule:nonzero;fill:rgb(6.30188%,5.761719%,5.056763%);fill-opacity:1;" d="M 32.472656 8.945312 C 35.496094 11.96875 37.007812 15.671875 37.007812 20.050781 C 37.007812 24.429688 35.519531 28.09375 32.550781 31.039062 C 29.394531 34.140625 25.667969 35.691406 21.367188 35.691406 C 17.117188 35.691406 13.457031 34.15625 10.382812 31.078125 C 7.304688 28.003906 5.769531 24.328125 5.769531 20.050781 C 5.769531 15.777344 7.304688 12.074219 10.382812 8.945312 C 13.378906 5.921875 17.039062 4.410156 21.367188 4.410156 C 25.746094 4.410156 29.449219 5.921875 32.472656 8.945312 Z M 12.417969 10.980469 C 9.859375 13.5625 8.582031 16.585938 8.582031 20.054688 C 8.582031 23.523438 9.847656 26.523438 12.378906 29.050781 C 14.90625 31.582031 17.917969 32.84375 21.414062 32.84375 C 24.910156 32.84375 27.945312 31.570312 30.527344 29.011719 C 32.980469 26.640625 34.207031 23.65625 34.207031 20.054688 C 34.207031 16.484375 32.960938 13.453125 30.46875 10.960938 C 27.976562 8.472656 24.960938 7.226562 21.414062 7.226562 C 17.867188 7.226562 14.867188 8.476562 12.417969 10.980469 Z M 19.144531 18.53125 C 18.753906 17.679688 18.167969 17.253906 17.386719 17.253906 C 16.011719 17.253906 15.320312 18.179688 15.320312 20.035156 C 15.320312 21.890625 16.011719 22.820312 17.386719 22.820312 C 18.296875 22.820312 18.949219 22.367188 19.339844 21.460938 L 21.25 22.476562 C 20.339844 24.097656 18.972656 24.90625 17.152344 24.90625 C 15.746094 24.90625 14.621094 24.476562 13.773438 23.613281 C 12.929688 22.753906 12.503906 21.566406 12.503906 20.050781 C 12.503906 18.5625 12.941406 17.382812 13.8125 16.507812 C 14.683594 15.632812 15.773438 15.195312 17.074219 15.195312 C 19 15.195312 20.378906 15.957031 21.210938 17.472656 Z M 28.132812 18.53125 C 27.742188 17.679688 27.167969 17.253906 26.414062 17.253906 C 25.007812 17.253906 24.304688 18.179688 24.304688 20.035156 C 24.304688 21.890625 25.007812 22.820312 26.414062 22.820312 C 27.328125 22.820312 27.964844 22.367188 28.328125 21.460938 L 30.28125 22.476562 C 29.371094 24.097656 28.007812 24.90625 26.191406 24.90625 C 24.785156 24.90625 23.664062 24.476562 22.820312 23.613281 C 21.976562 22.753906 21.550781 21.566406 21.550781 20.050781 C 21.550781 18.5625 21.980469 17.382812 22.839844 16.507812 C 23.695312 15.632812 24.785156 15.195312 26.113281 15.195312 C 28.035156 15.195312 29.410156 15.957031 30.242188 17.472656 L 28.132812 18.53125 "/>
<path style=" stroke:none;fill-rule:nonzero;fill:rgb(100%,100%,100%);fill-opacity:1;" d="M 52.265625 4.984375 C 58.195312 4.984375 63.003906 9.792969 63.003906 15.722656 C 63.003906 21.65625 58.195312 26.460938 52.265625 26.460938 C 46.332031 26.460938 41.523438 21.65625 41.523438 15.722656 C 41.523438 9.792969 46.332031 4.984375 52.265625 4.984375 "/>
<path style=" stroke:none;fill-rule:nonzero;fill:rgb(6.30188%,5.761719%,5.056763%);fill-opacity:1;" d="M 55.371094 12.617188 C 55.371094 12.203125 55.035156 11.867188 54.621094 11.867188 L 49.878906 11.867188 C 49.464844 11.867188 49.128906 12.203125 49.128906 12.617188 L 49.128906 17.359375 L 50.453125 17.359375 L 50.453125 22.976562 L 54.046875 22.976562 L 54.046875 17.359375 L 55.371094 17.359375 L 55.371094 12.617188 "/>
<path style=" stroke:none;fill-rule:nonzero;fill:rgb(6.30188%,5.761719%,5.056763%);fill-opacity:1;" d="M 52.25 8 C 53.148438 8 53.871094 8.726562 53.871094 9.621094 C 53.871094 10.515625 53.148438 11.242188 52.25 11.242188 C 51.355469 11.242188 50.628906 10.515625 50.628906 9.621094 C 50.628906 8.726562 51.355469 8 52.25 8 "/>
<path style=" stroke:none;fill-rule:nonzero;fill:rgb(6.30188%,5.761719%,5.056763%);fill-opacity:1;" d="M 52.234375 3.894531 C 49.023438 3.894531 46.304688 5.011719 44.078125 7.253906 C 41.796875 9.574219 40.65625 12.320312 40.65625 15.488281 C 40.65625 18.65625 41.796875 21.382812 44.078125 23.660156 C 46.363281 25.941406 49.082031 27.082031 52.234375 27.082031 C 55.429688 27.082031 58.195312 25.933594 60.539062 23.632812 C 62.742188 21.449219 63.847656 18.734375 63.847656 15.488281 C 63.847656 12.238281 62.722656 9.496094 60.480469 7.253906 C 58.234375 5.011719 55.488281 3.894531 52.234375 3.894531 Z M 52.265625 5.976562 C 54.898438 5.976562 57.132812 6.90625 58.96875 8.761719 C 60.828125 10.597656 61.757812 12.839844 61.757812 15.488281 C 61.757812 18.152344 60.847656 20.367188 59.027344 22.125 C 57.113281 24.019531 54.859375 24.964844 52.265625 24.964844 C 49.671875 24.964844 47.4375 24.03125 45.558594 22.15625 C 43.683594 20.28125 42.742188 18.058594 42.742188 15.488281 C 42.742188 12.917969 43.691406 10.675781 45.589844 8.761719 C 47.410156 6.90625 49.632812 5.976562 52.265625 5.976562 "/>
<path style=" stroke:none;fill-rule:nonzero;fill:rgb(100%,100%,100%);fill-opacity:1;" d="M 48.902344 33.25 C 49.21875 33.25 49.503906 33.273438 49.765625 33.332031 C 50.023438 33.386719 50.246094 33.476562 50.433594 33.605469 C 50.621094 33.730469 50.765625 33.898438 50.867188 34.109375 C 50.96875 34.320312 51.019531 34.578125 51.019531 34.886719 C 51.019531 35.222656 50.945312 35.5 50.792969 35.722656 C 50.640625 35.945312 50.414062 36.125 50.117188 36.269531 C 50.527344 36.386719 50.832031 36.59375 51.035156 36.886719 C 51.238281 37.179688 51.339844 37.535156 51.339844 37.949219 C 51.339844 38.28125 51.273438 38.574219 51.144531 38.816406 C 51.011719 39.0625 50.835938 39.261719 50.617188 39.414062 C 50.398438 39.570312 50.148438 39.683594 49.863281 39.757812 C 49.582031 39.832031 49.292969 39.867188 48.996094 39.867188 L 45.78125 39.867188 L 45.78125 33.25 Z M 48.714844 35.925781 C 48.976562 35.925781 49.1875 35.863281 49.355469 35.738281 C 49.523438 35.617188 49.605469 35.417969 49.605469 35.140625 C 49.605469 34.984375 49.578125 34.859375 49.523438 34.761719 C 49.46875 34.660156 49.394531 34.582031 49.300781 34.527344 C 49.207031 34.472656 49.101562 34.433594 48.980469 34.414062 C 48.859375 34.390625 48.734375 34.382812 48.601562 34.382812 L 47.238281 34.382812 L 47.238281 35.925781 Z M 48.800781 38.738281 C 48.941406 38.738281 49.078125 38.722656 49.210938 38.695312 C 49.339844 38.667969 49.453125 38.617188 49.554688 38.554688 C 49.652344 38.488281 49.730469 38.402344 49.789062 38.292969 C 49.847656 38.179688 49.878906 38.039062 49.878906 37.863281 C 49.878906 37.523438 49.78125 37.28125 49.589844 37.136719 C 49.398438 36.992188 49.144531 36.917969 48.828125 36.917969 L 47.238281 36.917969 L 47.238281 38.738281 L 48.800781 38.738281 "/>
<path style=" stroke:none;fill-rule:nonzero;fill:rgb(100%,100%,100%);fill-opacity:1;" d="M 51.59375 33.25 L 53.226562 33.25 L 54.777344 35.863281 L 56.320312 33.25 L 57.945312 33.25 L 55.484375 37.328125 L 55.484375 39.867188 L 54.027344 39.867188 L 54.027344 37.292969 L 51.59375 33.25 "/>
<path style=" stroke:none;fill-rule:nonzero;fill:rgb(100%,100%,100%);fill-opacity:1;" d="M 98.941406 38.230469 C 99.023438 38.386719 99.128906 38.511719 99.261719 38.605469 C 99.394531 38.703125 99.546875 38.773438 99.726562 38.820312 C 99.90625 38.867188 100.089844 38.890625 100.28125 38.890625 C 100.410156 38.890625 100.550781 38.882812 100.699219 38.859375 C 100.847656 38.835938 100.984375 38.792969 101.113281 38.730469 C 101.242188 38.671875 101.351562 38.585938 101.4375 38.476562 C 101.523438 38.371094 101.566406 38.230469 101.566406 38.066406 C 101.566406 37.886719 101.511719 37.742188 101.394531 37.628906 C 101.28125 37.519531 101.132812 37.425781 100.949219 37.351562 C 100.765625 37.277344 100.554688 37.210938 100.316406 37.15625 C 100.085938 37.101562 99.84375 37.039062 99.605469 36.96875 C 99.355469 36.90625 99.117188 36.832031 98.882812 36.742188 C 98.648438 36.65625 98.4375 36.539062 98.253906 36.394531 C 98.070312 36.253906 97.917969 36.074219 97.804688 35.863281 C 97.691406 35.648438 97.632812 35.390625 97.632812 35.085938 C 97.632812 34.75 97.707031 34.453125 97.847656 34.203125 C 97.996094 33.953125 98.183594 33.742188 98.417969 33.574219 C 98.65625 33.40625 98.917969 33.285156 99.21875 33.207031 C 99.515625 33.125 99.808594 33.082031 100.105469 33.082031 C 100.453125 33.082031 100.785156 33.125 101.101562 33.199219 C 101.421875 33.277344 101.703125 33.40625 101.949219 33.574219 C 102.195312 33.75 102.394531 33.96875 102.539062 34.238281 C 102.683594 34.511719 102.757812 34.835938 102.757812 35.21875 L 101.34375 35.21875 C 101.332031 35.019531 101.289062 34.855469 101.21875 34.730469 C 101.148438 34.597656 101.054688 34.496094 100.9375 34.421875 C 100.820312 34.347656 100.6875 34.292969 100.535156 34.265625 C 100.386719 34.234375 100.222656 34.21875 100.042969 34.21875 C 99.925781 34.21875 99.808594 34.230469 99.691406 34.253906 C 99.574219 34.28125 99.46875 34.324219 99.371094 34.386719 C 99.277344 34.449219 99.199219 34.523438 99.136719 34.617188 C 99.078125 34.710938 99.042969 34.828125 99.042969 34.96875 C 99.042969 35.101562 99.070312 35.207031 99.117188 35.285156 C 99.167969 35.363281 99.265625 35.4375 99.410156 35.507812 C 99.554688 35.574219 99.757812 35.644531 100.011719 35.710938 C 100.269531 35.78125 100.605469 35.867188 101.019531 35.96875 C 101.140625 35.996094 101.3125 36.042969 101.53125 36.105469 C 101.75 36.171875 101.96875 36.273438 102.1875 36.417969 C 102.402344 36.558594 102.589844 36.75 102.746094 36.988281 C 102.902344 37.226562 102.980469 37.53125 102.980469 37.902344 C 102.980469 38.203125 102.921875 38.484375 102.804688 38.746094 C 102.6875 39.007812 102.511719 39.230469 102.28125 39.417969 C 102.050781 39.605469 101.761719 39.753906 101.417969 39.859375 C 101.074219 39.964844 100.679688 40.015625 100.226562 40.015625 C 99.859375 40.015625 99.507812 39.96875 99.164062 39.882812 C 98.820312 39.792969 98.519531 39.648438 98.257812 39.457031 C 97.992188 39.265625 97.785156 39.019531 97.628906 38.726562 C 97.472656 38.425781 97.402344 38.074219 97.40625 37.667969 L 98.820312 37.667969 C 98.820312 37.886719 98.859375 38.078125 98.941406 38.230469 "/>
<path style=" stroke:none;fill-rule:nonzero;fill:rgb(100%,100%,100%);fill-opacity:1;" d="M 107.144531 33.25 L 109.621094 39.867188 L 108.109375 39.867188 L 107.609375 38.394531 L 105.132812 38.394531 L 104.613281 39.867188 L 103.148438 39.867188 L 105.652344 33.25 Z M 107.230469 37.308594 L 106.394531 34.878906 L 106.375 34.878906 L 105.515625 37.308594 L 107.230469 37.308594 "/>
<path style=" stroke:none;fill-rule:nonzero;fill:rgb(100%,100%,100%);fill-opacity:1;" d="M 73.019531 33.25 L 75.785156 37.6875 L 75.800781 37.6875 L 75.800781 33.25 L 77.164062 33.25 L 77.164062 39.867188 L 75.710938 39.867188 L 72.953125 35.4375 L 72.933594 35.4375 L 72.933594 39.867188 L 71.570312 39.867188 L 71.570312 33.25 L 73.019531 33.25 "/>
<path style=" stroke:none;fill-rule:nonzero;fill:rgb(100%,100%,100%);fill-opacity:1;" d="M 82.695312 35.011719 C 82.609375 34.871094 82.5 34.75 82.371094 34.644531 C 82.238281 34.539062 82.09375 34.457031 81.929688 34.398438 C 81.765625 34.339844 81.59375 34.3125 81.414062 34.3125 C 81.089844 34.3125 80.808594 34.375 80.582031 34.5 C 80.351562 34.625 80.164062 34.796875 80.023438 35.011719 C 79.882812 35.226562 79.777344 35.46875 79.714844 35.738281 C 79.648438 36.011719 79.613281 36.292969 79.613281 36.582031 C 79.613281 36.859375 79.648438 37.132812 79.714844 37.394531 C 79.777344 37.65625 79.882812 37.894531 80.023438 38.101562 C 80.164062 38.3125 80.351562 38.480469 80.582031 38.605469 C 80.808594 38.734375 81.089844 38.796875 81.414062 38.796875 C 81.859375 38.796875 82.210938 38.664062 82.460938 38.390625 C 82.710938 38.117188 82.863281 37.757812 82.917969 37.3125 L 84.328125 37.3125 C 84.289062 37.726562 84.195312 38.101562 84.039062 38.4375 C 83.886719 38.769531 83.679688 39.054688 83.425781 39.292969 C 83.175781 39.527344 82.878906 39.707031 82.535156 39.832031 C 82.199219 39.957031 81.824219 40.015625 81.414062 40.015625 C 80.90625 40.015625 80.453125 39.929688 80.046875 39.75 C 79.640625 39.574219 79.296875 39.332031 79.019531 39.023438 C 78.742188 38.714844 78.527344 38.351562 78.378906 37.933594 C 78.230469 37.515625 78.15625 37.066406 78.15625 36.582031 C 78.15625 36.085938 78.230469 35.628906 78.378906 35.207031 C 78.527344 34.78125 78.742188 34.410156 79.019531 34.09375 C 79.296875 33.78125 79.640625 33.53125 80.046875 33.355469 C 80.453125 33.175781 80.90625 33.082031 81.414062 33.082031 C 81.78125 33.082031 82.125 33.136719 82.449219 33.242188 C 82.773438 33.347656 83.066406 33.5 83.320312 33.703125 C 83.578125 33.902344 83.789062 34.152344 83.957031 34.449219 C 84.125 34.746094 84.226562 35.085938 84.273438 35.46875 L 82.863281 35.46875 C 82.839844 35.304688 82.78125 35.148438 82.695312 35.011719 "/>
<path style=" stroke:none;fill-rule:nonzero;fill:rgb(100%,100%,100%);fill-opacity:1;" d="M 115.078125 15.480469 C 115.085938 21.324219 110.347656 26.070312 104.503906 26.074219 C 98.65625 26.078125 93.914062 21.34375 93.910156 15.496094 C 93.910156 15.492188 93.910156 15.484375 93.910156 15.480469 C 93.90625 9.636719 98.640625 4.894531 104.484375 4.890625 C 110.332031 4.886719 115.074219 9.621094 115.078125 15.464844 C 115.078125 15.46875 115.078125 15.476562 115.078125 15.480469 "/>
<path style=" stroke:none;fill-rule:nonzero;fill:rgb(6.30188%,5.761719%,5.056763%);fill-opacity:1;" d="M 104.417969 3.886719 C 101.207031 3.886719 98.488281 5.007812 96.261719 7.246094 C 93.980469 9.566406 92.835938 12.3125 92.835938 15.480469 C 92.835938 18.648438 93.980469 21.375 96.261719 23.65625 C 98.542969 25.933594 101.265625 27.078125 104.417969 27.078125 C 107.609375 27.078125 110.378906 25.925781 112.722656 23.628906 C 114.925781 21.441406 116.027344 18.726562 116.027344 15.480469 C 116.027344 12.234375 114.90625 9.488281 112.660156 7.246094 C 110.417969 5.007812 107.671875 3.886719 104.417969 3.886719 Z M 104.445312 5.972656 C 107.078125 5.972656 109.3125 6.902344 111.152344 8.757812 C 113.011719 10.589844 113.9375 12.832031 113.9375 15.480469 C 113.9375 18.148438 113.03125 20.359375 111.210938 22.117188 C 109.296875 24.011719 107.039062 24.960938 104.445312 24.960938 C 101.855469 24.960938 99.617188 24.023438 97.742188 22.148438 C 95.867188 20.273438 94.925781 18.050781 94.925781 15.480469 C 94.925781 12.910156 95.875 10.667969 97.773438 8.757812 C 99.589844 6.902344 101.816406 5.972656 104.445312 5.972656 "/>
<path style=" stroke:none;fill-rule:nonzero;fill:rgb(6.30188%,5.761719%,5.056763%);fill-opacity:1;" d="M 99.28125 13.84375 C 99.742188 10.925781 101.796875 9.367188 104.367188 9.367188 C 108.070312 9.367188 110.328125 12.054688 110.328125 15.636719 C 110.328125 19.128906 107.925781 21.84375 104.3125 21.84375 C 101.824219 21.84375 99.597656 20.316406 99.191406 17.308594 L 102.113281 17.308594 C 102.199219 18.871094 103.214844 19.417969 104.65625 19.417969 C 106.308594 19.417969 107.378906 17.886719 107.378906 15.546875 C 107.378906 13.09375 106.453125 11.792969 104.714844 11.792969 C 103.441406 11.792969 102.34375 12.257812 102.113281 13.84375 L 102.964844 13.839844 L 100.664062 16.140625 L 98.363281 13.839844 L 99.28125 13.84375 "/>
<path style=" stroke:none;fill-rule:nonzero;fill:rgb(100%,100%,100%);fill-opacity:1;" d="M 89.128906 15.480469 C 89.136719 21.4375 84.308594 26.269531 78.351562 26.277344 C 72.394531 26.28125 67.558594 21.453125 67.554688 15.496094 C 67.554688 15.492188 67.554688 15.484375 67.554688 15.480469 C 67.550781 9.523438 72.378906 4.691406 78.335938 4.6875 C 84.292969 4.683594 89.125 9.507812 89.128906 15.464844 C 89.128906 15.46875 89.128906 15.476562 89.128906 15.480469 "/>
<path style=" stroke:none;fill-rule:nonzero;fill:rgb(6.30188%,5.761719%,5.056763%);fill-opacity:1;" d="M 78.328125 3.886719 C 81.578125 3.886719 84.328125 5.007812 86.570312 7.246094 C 88.816406 9.488281 89.9375 12.234375 89.9375 15.480469 C 89.9375 18.726562 88.835938 21.441406 86.628906 23.628906 C 84.285156 25.925781 81.519531 27.078125 78.328125 27.078125 C 75.171875 27.078125 72.453125 25.933594 70.171875 23.65625 C 67.886719 21.375 66.746094 18.648438 66.746094 15.480469 C 66.746094 12.3125 67.886719 9.566406 70.171875 7.246094 C 72.398438 5.007812 75.113281 3.886719 78.328125 3.886719 Z M 69.355469 12.367188 C 69.007812 13.34375 68.835938 14.382812 68.835938 15.480469 C 68.835938 18.050781 69.773438 20.273438 71.652344 22.148438 C 73.527344 24.023438 75.765625 24.960938 78.355469 24.960938 C 80.949219 24.960938 83.203125 24.011719 85.117188 22.117188 C 85.761719 21.5 86.289062 20.824219 86.703125 20.089844 L 82.332031 18.144531 C 82.035156 19.613281 80.726562 20.609375 79.140625 20.722656 L 79.140625 22.511719 L 77.808594 22.511719 L 77.808594 20.722656 C 76.507812 20.710938 75.25 20.175781 74.289062 19.335938 L 75.886719 17.726562 C 76.65625 18.449219 77.425781 18.773438 78.472656 18.773438 C 79.15625 18.773438 79.910156 18.507812 79.910156 17.621094 C 79.910156 17.308594 79.789062 17.089844 79.597656 16.925781 L 78.492188 16.433594 L 77.113281 15.820312 C 76.433594 15.515625 75.855469 15.261719 75.277344 15.003906 Z M 78.355469 5.972656 C 75.722656 5.972656 73.5 6.902344 71.679688 8.757812 C 71.183594 9.253906 70.753906 9.777344 70.390625 10.324219 L 74.824219 12.296875 C 75.222656 11.066406 76.390625 10.320312 77.808594 10.238281 L 77.808594 8.449219 L 79.140625 8.449219 L 79.140625 10.238281 C 80.058594 10.28125 81.0625 10.53125 82.054688 11.300781 L 80.53125 12.867188 C 79.96875 12.46875 79.257812 12.1875 78.546875 12.1875 C 77.972656 12.1875 77.15625 12.363281 77.15625 13.085938 C 77.15625 13.199219 77.195312 13.296875 77.261719 13.382812 L 78.746094 14.042969 L 79.75 14.488281 C 80.390625 14.777344 81.003906 15.046875 81.609375 15.316406 L 87.554688 17.964844 C 87.75 17.183594 87.847656 16.355469 87.847656 15.480469 C 87.847656 12.832031 86.917969 10.589844 85.0625 8.757812 C 83.222656 6.902344 80.988281 5.972656 78.355469 5.972656 "/>
</g>
</svg>
